solid ExportedfromBlender-3.5.1
 facet normal 0.0482486 -0.148392 -0.987751
  outer loop
   vertex -0.0042 0.13298 0.00203
   vertex -0.002168 0.131504 0.002351
   vertex -0.004976 0.130591 0.002351
  endloop
 endfacet
 facet normal 0.723015 -0.412034 -0.554506
  outer loop
   vertex 0.003036 0.127723 0.007558
   vertex 0.001895 0.128551 0.005455
   vertex 0.003927 0.130028 0.007007
  endloop
 endfacet
 facet normal -0.126271 -0.0917039 -0.987748
  outer loop
   vertex -0.0042 0.13298 0.00203
   vertex -0.004976 0.130591 0.002351
   vertex -0.006711 0.13298 0.002351
  endloop
 endfacet
 facet normal -0.126271 0.0917039 -0.987748
  outer loop
   vertex -0.0042 0.13298 0.00203
   vertex -0.006711 0.13298 0.002351
   vertex -0.004976 0.135369 0.002351
  endloop
 endfacet
 facet normal 0.0482486 0.148392 -0.987751
  outer loop
   vertex -0.0042 0.13298 0.00203
   vertex -0.004976 0.135369 0.002351
   vertex -0.002168 0.134456 0.002351
  endloop
 endfacet
 facet normal 0.819189 -0.412026 -0.398954
  outer loop
   vertex 0.003036 0.127723 0.007558
   vertex 0.003927 0.130028 0.007007
   vertex 0.004407 0.128551 0.009518
  endloop
 endfacet
 facet normal -0.138975 -0.90647 -0.398746
  outer loop
   vertex -0.006964 0.124474 0.007558
   vertex -0.004496 0.124338 0.007007
   vertex -0.005752 0.123426 0.009518
  endloop
 endfacet
 facet normal -0.905177 -0.147939 -0.398459
  outer loop
   vertex -0.013144 0.13298 0.007558
   vertex -0.012511 0.130591 0.007007
   vertex -0.013766 0.131504 0.009519
  endloop
 endfacet
 facet normal -0.420269 0.815078 -0.398776
  outer loop
   vertex -0.006964 0.141486 0.007558
   vertex -0.00904 0.140146 0.007007
   vertex -0.00856 0.141622 0.009518
  endloop
 endfacet
 facet normal 0.645038 0.651744 -0.398942
  outer loop
   vertex 0.003036 0.138237 0.007558
   vertex 0.001119 0.139797 0.007007
   vertex 0.002672 0.139797 0.009518
  endloop
 endfacet
 facet normal 0.771063 -0.560215 -0.302688
  outer loop
   vertex 0.003036 0.127723 0.007558
   vertex 0.004407 0.128551 0.009518
   vertex 0.002672 0.126163 0.009518
  endloop
 endfacet
 facet normal -0.294416 -0.906493 -0.302638
  outer loop
   vertex -0.006964 0.124474 0.007558
   vertex -0.005752 0.123426 0.009518
   vertex -0.00856 0.124338 0.009518
  endloop
 endfacet
 facet normal -0.9532 0 -0.302341
  outer loop
   vertex -0.013144 0.13298 0.007558
   vertex -0.013766 0.131504 0.009519
   vertex -0.013766 0.134456 0.009519
  endloop
 endfacet
 facet normal -0.294416 0.906493 -0.302638
  outer loop
   vertex -0.006964 0.141486 0.007558
   vertex -0.00856 0.141622 0.009518
   vertex -0.005752 0.142534 0.009518
  endloop
 endfacet
 facet normal 0.771063 0.560215 -0.302688
  outer loop
   vertex 0.003036 0.138237 0.007558
   vertex 0.002672 0.139797 0.009518
   vertex 0.004407 0.137409 0.009518
  endloop
 endfacet
 facet normal 0.342493 -0.758552 0.554344
  outer loop
   vertex -0.001436 0.124474 0.016502
   vertex 0.00064 0.125814 0.017053
   vertex -0.001872 0.125814 0.018605
  endloop
 endfacet
 facet normal -0.61533 -0.560308 0.554459
  outer loop
   vertex -0.011436 0.127723 0.016502
   vertex -0.009519 0.126163 0.017053
   vertex -0.010295 0.128551 0.018605
  endloop
 endfacet
 facet normal -0.723015 0.412034 0.554506
  outer loop
   vertex -0.011436 0.138237 0.016502
   vertex -0.012327 0.135932 0.017053
   vertex -0.010295 0.137409 0.018605
  endloop
 endfacet
 facet normal 0.168666 0.815046 0.554303
  outer loop
   vertex -0.001436 0.141486 0.016502
   vertex -0.003904 0.141622 0.017053
   vertex -0.001872 0.140146 0.018605
  endloop
 endfacet
 facet normal 0.827124 0.091254 0.554562
  outer loop
   vertex 0.004744 0.13298 0.016502
   vertex 0.004111 0.135369 0.017053
   vertex 0.003334 0.13298 0.018605
  endloop
 endfacet
 facet normal 0.126271 0.0917039 0.987748
  outer loop
   vertex -0.001689 0.13298 0.021709
   vertex -0.003424 0.135369 0.021709
   vertex -0.0042 0.13298 0.02203
  endloop
 endfacet
 facet normal 0.390899 0.0914587 0.915878
  outer loop
   vertex 0.001057 0.13298 0.020537
   vertex -0.000582 0.135609 0.020974
   vertex -0.001689 0.13298 0.021709
  endloop
 endfacet
 facet normal 0.644269 0.0913996 0.759317
  outer loop
   vertex 0.003334 0.13298 0.018605
   vertex 0.002182 0.135609 0.019266
   vertex 0.001057 0.13298 0.020537
  endloop
 endfacet
 facet normal 0.233325 0.169451 0.957521
  outer loop
   vertex -0.001689 0.13298 0.021709
   vertex -0.000582 0.135609 0.020974
   vertex -0.003424 0.135369 0.021709
  endloop
 endfacet
 facet normal 0.207851 0.343516 0.915858
  outer loop
   vertex -0.000582 0.135609 0.020974
   vertex -0.002575 0.13798 0.020537
   vertex -0.003424 0.135369 0.021709
  endloop
 endfacet
 facet normal 0.516783 0.183167 0.836293
  outer loop
   vertex 0.001057 0.13298 0.020537
   vertex 0.002182 0.135609 0.019266
   vertex -0.000582 0.135609 0.020974
  endloop
 endfacet
 facet normal 0.491058 0.356895 0.794662
  outer loop
   vertex 0.002182 0.135609 0.019266
   vertex 0.000272 0.138237 0.019266
   vertex -0.000582 0.135609 0.020974
  endloop
 endfacet
 facet normal 0.334054 0.43492 0.836213
  outer loop
   vertex -0.000582 0.135609 0.020974
   vertex 0.000272 0.138237 0.019266
   vertex -0.002575 0.13798 0.020537
  endloop
 endfacet
 facet normal 0.286233 0.584386 0.759318
  outer loop
   vertex 0.000272 0.138237 0.019266
   vertex -0.001872 0.140146 0.018605
   vertex -0.002575 0.13798 0.020537
  endloop
 endfacet
 facet normal 0.751958 0.169318 0.637095
  outer loop
   vertex 0.003334 0.13298 0.018605
   vertex 0.004111 0.135369 0.017053
   vertex 0.002182 0.135609 0.019266
  endloop
 endfacet
 facet normal 0.725985 0.343961 0.595514
  outer loop
   vertex 0.004111 0.135369 0.017053
   vertex 0.002682 0.13798 0.017287
   vertex 0.002182 0.135609 0.019266
  endloop
 endfacet
 facet normal 0.598657 0.435097 0.672533
  outer loop
   vertex 0.002182 0.135609 0.019266
   vertex 0.002682 0.13798 0.017287
   vertex 0.000272 0.138237 0.019266
  endloop
 endfacet
 facet normal 0.551379 0.584158 0.595601
  outer loop
   vertex 0.002682 0.13798 0.017287
   vertex 0.00064 0.140146 0.017053
   vertex 0.000272 0.138237 0.019266
  endloop
 endfacet
 facet normal 0.393627 0.662685 0.637108
  outer loop
   vertex 0.000272 0.138237 0.019266
   vertex 0.00064 0.140146 0.017053
   vertex -0.001872 0.140146 0.018605
  endloop
 endfacet
 facet normal 0.342493 0.758552 0.554344
  outer loop
   vertex 0.00064 0.140146 0.017053
   vertex -0.001436 0.141486 0.016502
   vertex -0.001872 0.140146 0.018605
  endloop
 endfacet
 facet normal -0.0482486 0.148392 0.987751
  outer loop
   vertex -0.003424 0.135369 0.021709
   vertex -0.006232 0.134456 0.021709
   vertex -0.0042 0.13298 0.02203
  endloop
 endfacet
 facet normal 0.0336945 0.400135 0.915836
  outer loop
   vertex -0.002575 0.13798 0.020537
   vertex -0.005582 0.137233 0.020974
   vertex -0.003424 0.135369 0.021709
  endloop
 endfacet
 facet normal 0.112009 0.640965 0.759354
  outer loop
   vertex -0.001872 0.140146 0.018605
   vertex -0.004728 0.139862 0.019266
   vertex -0.002575 0.13798 0.020537
  endloop
 endfacet
 facet normal -0.0891868 0.274301 0.957499
  outer loop
   vertex -0.003424 0.135369 0.021709
   vertex -0.005582 0.137233 0.020974
   vertex -0.006232 0.134456 0.021709
  endloop
 endfacet
 facet normal -0.262485 0.303841 0.915851
  outer loop
   vertex -0.005582 0.137233 0.020974
   vertex -0.008453 0.13607 0.020537
   vertex -0.006232 0.134456 0.021709
  endloop
 endfacet
 facet normal -0.0146149 0.548074 0.836302
  outer loop
   vertex -0.002575 0.13798 0.020537
   vertex -0.004728 0.139862 0.019266
   vertex -0.005582 0.137233 0.020974
  endloop
 endfacet
 facet normal -0.187559 0.577248 0.794737
  outer loop
   vertex -0.004728 0.139862 0.019266
   vertex -0.007818 0.138858 0.019266
   vertex -0.005582 0.137233 0.020974
  endloop
 endfacet
 facet normal -0.310374 0.451949 0.836307
  outer loop
   vertex -0.005582 0.137233 0.020974
   vertex -0.007818 0.138858 0.019266
   vertex -0.008453 0.13607 0.020537
  endloop
 endfacet
 facet normal -0.467426 0.452641 0.759361
  outer loop
   vertex -0.007818 0.138858 0.019266
   vertex -0.010295 0.137409 0.018605
   vertex -0.008453 0.13607 0.020537
  endloop
 endfacet
 facet normal 0.0710868 0.767617 0.636955
  outer loop
   vertex -0.001872 0.140146 0.018605
   vertex -0.003904 0.141622 0.017053
   vertex -0.004728 0.139862 0.019266
  endloop
 endfacet
 facet normal -0.102735 0.796801 0.595444
  outer loop
   vertex -0.003904 0.141622 0.017053
   vertex -0.006829 0.14107 0.017287
   vertex -0.004728 0.139862 0.019266
  endloop
 endfacet
 facet normal -0.228709 0.703897 0.672474
  outer loop
   vertex -0.004728 0.139862 0.019266
   vertex -0.006829 0.14107 0.017287
   vertex -0.007818 0.138858 0.019266
  endloop
 endfacet
 facet normal -0.38541 0.704977 0.595371
  outer loop
   vertex -0.006829 0.14107 0.017287
   vertex -0.009519 0.139797 0.017053
   vertex -0.007818 0.138858 0.019266
  endloop
 endfacet
 facet normal -0.508799 0.579247 0.636864
  outer loop
   vertex -0.007818 0.138858 0.019266
   vertex -0.009519 0.139797 0.017053
   vertex -0.010295 0.137409 0.018605
  endloop
 endfacet
 facet normal -0.61533 0.560308 0.554459
  outer loop
   vertex -0.009519 0.139797 0.017053
   vertex -0.011436 0.138237 0.016502
   vertex -0.010295 0.137409 0.018605
  endloop
 endfacet
 facet normal -0.156037 0 0.987751
  outer loop
   vertex -0.006232 0.134456 0.021709
   vertex -0.006232 0.131504 0.021709
   vertex -0.0042 0.13298 0.02203
  endloop
 endfacet
 facet normal -0.370096 0.155752 0.915844
  outer loop
   vertex -0.008453 0.13607 0.020537
   vertex -0.008672 0.13298 0.020974
   vertex -0.006232 0.134456 0.021709
  endloop
 endfacet
 facet normal -0.574948 0.304695 0.759339
  outer loop
   vertex -0.010295 0.137409 0.018605
   vertex -0.010908 0.134605 0.019266
   vertex -0.008453 0.13607 0.020537
  endloop
 endfacet
 facet normal -0.288428 0 0.957502
  outer loop
   vertex -0.006232 0.134456 0.021709
   vertex -0.008672 0.13298 0.020974
   vertex -0.006232 0.131504 0.021709
  endloop
 endfacet
 facet normal -0.370096 -0.155752 0.915844
  outer loop
   vertex -0.008672 0.13298 0.020974
   vertex -0.008453 0.12989 0.020537
   vertex -0.006232 0.131504 0.021709
  endloop
 endfacet
 facet normal -0.525774 0.155534 0.836284
  outer loop
   vertex -0.008453 0.13607 0.020537
   vertex -0.010908 0.134605 0.019266
   vertex -0.008672 0.13298 0.020974
  endloop
 endfacet
 facet normal -0.607028 0 0.794681
  outer loop
   vertex -0.010908 0.134605 0.019266
   vertex -0.010908 0.131355 0.019266
   vertex -0.008672 0.13298 0.020974
  endloop
 endfacet
 facet normal -0.525774 -0.155534 0.836284
  outer loop
   vertex -0.008672 0.13298 0.020974
   vertex -0.010908 0.131355 0.019266
   vertex -0.008453 0.12989 0.020537
  endloop
 endfacet
 facet normal -0.574948 -0.304695 0.759339
  outer loop
   vertex -0.010908 0.131355 0.019266
   vertex -0.010295 0.128551 0.018605
   vertex -0.008453 0.12989 0.020537
  endloop
 endfacet
 facet normal -0.708089 0.304936 0.636886
  outer loop
   vertex -0.010295 0.137409 0.018605
   vertex -0.012327 0.135932 0.017053
   vertex -0.010908 0.134605 0.019266
  endloop
 endfacet
 facet normal -0.789589 0.148568 0.59538
  outer loop
   vertex -0.012327 0.135932 0.017053
   vertex -0.012706 0.13298 0.017287
   vertex -0.010908 0.134605 0.019266
  endloop
 endfacet
 facet normal -0.740143 0 0.672449
  outer loop
   vertex -0.010908 0.134605 0.019266
   vertex -0.012706 0.13298 0.017287
   vertex -0.010908 0.131355 0.019266
  endloop
 endfacet
 facet normal -0.789589 -0.148568 0.59538
  outer loop
   vertex -0.012706 0.13298 0.017287
   vertex -0.012327 0.130028 0.017053
   vertex -0.010908 0.131355 0.019266
  endloop
 endfacet
 facet normal -0.708089 -0.304936 0.636886
  outer loop
   vertex -0.010908 0.131355 0.019266
   vertex -0.012327 0.130028 0.017053
   vertex -0.010295 0.128551 0.018605
  endloop
 endfacet
 facet normal -0.723015 -0.412034 0.554506
  outer loop
   vertex -0.012327 0.130028 0.017053
   vertex -0.011436 0.127723 0.016502
   vertex -0.010295 0.128551 0.018605
  endloop
 endfacet
 facet normal -0.0482486 -0.148392 0.987751
  outer loop
   vertex -0.006232 0.131504 0.021709
   vertex -0.003424 0.130591 0.021709
   vertex -0.0042 0.13298 0.02203
  endloop
 endfacet
 facet normal -0.262485 -0.303841 0.915851
  outer loop
   vertex -0.008453 0.12989 0.020537
   vertex -0.005582 0.128727 0.020974
   vertex -0.006232 0.131504 0.021709
  endloop
 endfacet
 facet normal -0.467426 -0.452641 0.759361
  outer loop
   vertex -0.010295 0.128551 0.018605
   vertex -0.007818 0.127102 0.019266
   vertex -0.008453 0.12989 0.020537
  endloop
 endfacet
 facet normal -0.0891868 -0.274301 0.957499
  outer loop
   vertex -0.006232 0.131504 0.021709
   vertex -0.005582 0.128727 0.020974
   vertex -0.003424 0.130591 0.021709
  endloop
 endfacet
 facet normal 0.0336945 -0.400135 0.915836
  outer loop
   vertex -0.005582 0.128727 0.020974
   vertex -0.002575 0.12798 0.020537
   vertex -0.003424 0.130591 0.021709
  endloop
 endfacet
 facet normal -0.310374 -0.451949 0.836307
  outer loop
   vertex -0.008453 0.12989 0.020537
   vertex -0.007818 0.127102 0.019266
   vertex -0.005582 0.128727 0.020974
  endloop
 endfacet
 facet normal -0.187559 -0.577248 0.794737
  outer loop
   vertex -0.007818 0.127102 0.019266
   vertex -0.004728 0.126098 0.019266
   vertex -0.005582 0.128727 0.020974
  endloop
 endfacet
 facet normal -0.0146149 -0.548074 0.836302
  outer loop
   vertex -0.005582 0.128727 0.020974
   vertex -0.004728 0.126098 0.019266
   vertex -0.002575 0.12798 0.020537
  endloop
 endfacet
 facet normal 0.112009 -0.640965 0.759354
  outer loop
   vertex -0.004728 0.126098 0.019266
   vertex -0.001872 0.125814 0.018605
   vertex -0.002575 0.12798 0.020537
  endloop
 endfacet
 facet normal -0.508799 -0.579247 0.636864
  outer loop
   vertex -0.010295 0.128551 0.018605
   vertex -0.009519 0.126163 0.017053
   vertex -0.007818 0.127102 0.019266
  endloop
 endfacet
 facet normal -0.38541 -0.704977 0.595371
  outer loop
   vertex -0.009519 0.126163 0.017053
   vertex -0.006829 0.12489 0.017287
   vertex -0.007818 0.127102 0.019266
  endloop
 endfacet
 facet normal -0.228709 -0.703897 0.672474
  outer loop
   vertex -0.007818 0.127102 0.019266
   vertex -0.006829 0.12489 0.017287
   vertex -0.004728 0.126098 0.019266
  endloop
 endfacet
 facet normal -0.102735 -0.796801 0.595444
  outer loop
   vertex -0.006829 0.12489 0.017287
   vertex -0.003904 0.124338 0.017053
   vertex -0.004728 0.126098 0.019266
  endloop
 endfacet
 facet normal 0.0710868 -0.767617 0.636955
  outer loop
   vertex -0.004728 0.126098 0.019266
   vertex -0.003904 0.124338 0.017053
   vertex -0.001872 0.125814 0.018605
  endloop
 endfacet
 facet normal 0.168666 -0.815046 0.554303
  outer loop
   vertex -0.003904 0.124338 0.017053
   vertex -0.001436 0.124474 0.016502
   vertex -0.001872 0.125814 0.018605
  endloop
 endfacet
 facet normal 0.126271 -0.0917039 0.987748
  outer loop
   vertex -0.003424 0.130591 0.021709
   vertex -0.001689 0.13298 0.021709
   vertex -0.0042 0.13298 0.02203
  endloop
 endfacet
 facet normal 0.207851 -0.343516 0.915858
  outer loop
   vertex -0.002575 0.12798 0.020537
   vertex -0.000582 0.130351 0.020974
   vertex -0.003424 0.130591 0.021709
  endloop
 endfacet
 facet normal 0.286233 -0.584386 0.759318
  outer loop
   vertex -0.001872 0.125814 0.018605
   vertex 0.000272 0.127723 0.019266
   vertex -0.002575 0.12798 0.020537
  endloop
 endfacet
 facet normal 0.233325 -0.169451 0.957521
  outer loop
   vertex -0.003424 0.130591 0.021709
   vertex -0.000582 0.130351 0.020974
   vertex -0.001689 0.13298 0.021709
  endloop
 endfacet
 facet normal 0.390899 -0.0914587 0.915878
  outer loop
   vertex -0.000582 0.130351 0.020974
   vertex 0.001057 0.13298 0.020537
   vertex -0.001689 0.13298 0.021709
  endloop
 endfacet
 facet normal 0.334054 -0.43492 0.836213
  outer loop
   vertex -0.002575 0.12798 0.020537
   vertex 0.000272 0.127723 0.019266
   vertex -0.000582 0.130351 0.020974
  endloop
 endfacet
 facet normal 0.491058 -0.356895 0.794662
  outer loop
   vertex 0.000272 0.127723 0.019266
   vertex 0.002182 0.130351 0.019266
   vertex -0.000582 0.130351 0.020974
  endloop
 endfacet
 facet normal 0.516783 -0.183167 0.836293
  outer loop
   vertex -0.000582 0.130351 0.020974
   vertex 0.002182 0.130351 0.019266
   vertex 0.001057 0.13298 0.020537
  endloop
 endfacet
 facet normal 0.644269 -0.0913996 0.759317
  outer loop
   vertex 0.002182 0.130351 0.019266
   vertex 0.003334 0.13298 0.018605
   vertex 0.001057 0.13298 0.020537
  endloop
 endfacet
 facet normal 0.393627 -0.662685 0.637108
  outer loop
   vertex -0.001872 0.125814 0.018605
   vertex 0.00064 0.125814 0.017053
   vertex 0.000272 0.127723 0.019266
  endloop
 endfacet
 facet normal 0.551379 -0.584158 0.595601
  outer loop
   vertex 0.00064 0.125814 0.017053
   vertex 0.002682 0.12798 0.017287
   vertex 0.000272 0.127723 0.019266
  endloop
 endfacet
 facet normal 0.598657 -0.435097 0.672533
  outer loop
   vertex 0.000272 0.127723 0.019266
   vertex 0.002682 0.12798 0.017287
   vertex 0.002182 0.130351 0.019266
  endloop
 endfacet
 facet normal 0.725985 -0.343961 0.595514
  outer loop
   vertex 0.002682 0.12798 0.017287
   vertex 0.004111 0.130591 0.017053
   vertex 0.002182 0.130351 0.019266
  endloop
 endfacet
 facet normal 0.751958 -0.169318 0.637095
  outer loop
   vertex 0.002182 0.130351 0.019266
   vertex 0.004111 0.130591 0.017053
   vertex 0.003334 0.13298 0.018605
  endloop
 endfacet
 facet normal 0.827124 -0.091254 0.554562
  outer loop
   vertex 0.004111 0.130591 0.017053
   vertex 0.004744 0.13298 0.016502
   vertex 0.003334 0.13298 0.018605
  endloop
 endfacet
 facet normal 0.905177 0.147939 0.398459
  outer loop
   vertex 0.005366 0.134456 0.014541
   vertex 0.004111 0.135369 0.017053
   vertex 0.004744 0.13298 0.016502
  endloop
 endfacet
 facet normal 0.93657 0.303801 0.17476
  outer loop
   vertex 0.005311 0.13607 0.01203
   vertex 0.004418 0.137233 0.014794
   vertex 0.005366 0.134456 0.014541
  endloop
 endfacet
 facet normal 0.888212 0.452708 -0.078331
  outer loop
   vertex 0.004407 0.137409 0.009518
   vertex 0.00389 0.138858 0.01203
   vertex 0.005311 0.13607 0.01203
  endloop
 endfacet
 facet normal 0.89641 0.274294 0.348155
  outer loop
   vertex 0.005366 0.134456 0.014541
   vertex 0.004418 0.137233 0.014794
   vertex 0.004111 0.135369 0.017053
  endloop
 endfacet
 facet normal 0.803858 0.400541 0.439749
  outer loop
   vertex 0.004418 0.137233 0.014794
   vertex 0.002682 0.13798 0.017287
   vertex 0.004111 0.135369 0.017053
  endloop
 endfacet
 facet normal 0.886806 0.451991 0.0963284
  outer loop
   vertex 0.005311 0.13607 0.01203
   vertex 0.00389 0.138858 0.01203
   vertex 0.004418 0.137233 0.014794
  endloop
 endfacet
 facet normal 0.794662 0.577331 0.18762
  outer loop
   vertex 0.00389 0.138858 0.01203
   vertex 0.002508 0.139862 0.014794
   vertex 0.004418 0.137233 0.014794
  endloop
 endfacet
 facet normal 0.754436 0.548107 0.361117
  outer loop
   vertex 0.004418 0.137233 0.014794
   vertex 0.002508 0.139862 0.014794
   vertex 0.002682 0.13798 0.017287
  endloop
 endfacet
 facet normal 0.629279 0.640767 0.439803
  outer loop
   vertex 0.002508 0.139862 0.014794
   vertex 0.00064 0.140146 0.017053
   vertex 0.002682 0.13798 0.017287
  endloop
 endfacet
 facet normal 0.797233 0.579229 -0.170037
  outer loop
   vertex 0.004407 0.137409 0.009518
   vertex 0.002672 0.139797 0.009518
   vertex 0.00389 0.138858 0.01203
  endloop
 endfacet
 facet normal 0.704936 0.704936 -0.0782949
  outer loop
   vertex 0.002672 0.139797 0.009518
   vertex 0.001678 0.14107 0.01203
   vertex 0.00389 0.138858 0.01203
  endloop
 endfacet
 facet normal 0.703824 0.703824 0.0962537
  outer loop
   vertex 0.00389 0.138858 0.01203
   vertex 0.001678 0.14107 0.01203
   vertex 0.002508 0.139862 0.014794
  endloop
 endfacet
 facet normal 0.578519 0.796783 0.174509
  outer loop
   vertex 0.001678 0.14107 0.01203
   vertex 0.00016 0.141622 0.014542
   vertex 0.002508 0.139862 0.014794
  endloop
 endfacet
 facet normal 0.537986 0.767602 0.348366
  outer loop
   vertex 0.002508 0.139862 0.014794
   vertex 0.00016 0.141622 0.014542
   vertex 0.00064 0.140146 0.017053
  endloop
 endfacet
 facet normal 0.420269 0.815078 0.398776
  outer loop
   vertex 0.00016 0.141622 0.014542
   vertex -0.001436 0.141486 0.016502
   vertex 0.00064 0.140146 0.017053
  endloop
 endfacet
 facet normal 0.138975 0.90647 0.398746
  outer loop
   vertex -0.002648 0.142534 0.014542
   vertex -0.003904 0.141622 0.017053
   vertex -0.001436 0.141486 0.016502
  endloop
 endfacet
 facet normal 0.000555151 0.98466 0.174481
  outer loop
   vertex -0.0042 0.14298 0.01203
   vertex -0.005582 0.142491 0.014794
   vertex -0.002648 0.142534 0.014542
  endloop
 endfacet
 facet normal -0.155824 0.984657 -0.07855
  outer loop
   vertex -0.005752 0.142534 0.009518
   vertex -0.00729 0.142491 0.01203
   vertex -0.0042 0.14298 0.01203
  endloop
 endfacet
 facet normal 0.0161962 0.937175 0.348485
  outer loop
   vertex -0.002648 0.142534 0.014542
   vertex -0.005582 0.142491 0.014794
   vertex -0.003904 0.141622 0.017053
  endloop
 endfacet
 facet normal -0.132412 0.888171 0.440021
  outer loop
   vertex -0.005582 0.142491 0.014794
   vertex -0.006829 0.14107 0.017287
   vertex -0.003904 0.141622 0.017053
  endloop
 endfacet
 facet normal -0.155583 0.983133 0.0961419
  outer loop
   vertex -0.0042 0.14298 0.01203
   vertex -0.00729 0.142491 0.01203
   vertex -0.005582 0.142491 0.014794
  endloop
 endfacet
 facet normal -0.303796 0.934059 0.187729
  outer loop
   vertex -0.00729 0.142491 0.01203
   vertex -0.008672 0.141486 0.014794
   vertex -0.005582 0.142491 0.014794
  endloop
 endfacet
 facet normal -0.288415 0.886769 0.361189
  outer loop
   vertex -0.005582 0.142491 0.014794
   vertex -0.008672 0.141486 0.014794
   vertex -0.006829 0.14107 0.017287
  endloop
 endfacet
 facet normal -0.415138 0.796394 0.439791
  outer loop
   vertex -0.008672 0.141486 0.014794
   vertex -0.009519 0.139797 0.017053
   vertex -0.006829 0.14107 0.017287
  endloop
 endfacet
 facet normal -0.304389 0.937197 -0.170322
  outer loop
   vertex -0.005752 0.142534 0.009518
   vertex -0.00856 0.141622 0.009518
   vertex -0.00729 0.142491 0.01203
  endloop
 endfacet
 facet normal -0.452705 0.888208 -0.0783901
  outer loop
   vertex -0.00856 0.141622 0.009518
   vertex -0.010078 0.14107 0.01203
   vertex -0.00729 0.142491 0.01203
  endloop
 endfacet
 facet normal -0.451986 0.886796 0.0964489
  outer loop
   vertex -0.00729 0.142491 0.01203
   vertex -0.010078 0.14107 0.01203
   vertex -0.008672 0.141486 0.014794
  endloop
 endfacet
 facet normal -0.578874 0.796508 0.174584
  outer loop
   vertex -0.010078 0.14107 0.01203
   vertex -0.011072 0.139797 0.014542
   vertex -0.008672 0.141486 0.014794
  endloop
 endfacet
 facet normal -0.563623 0.748876 0.348589
  outer loop
   vertex -0.008672 0.141486 0.014794
   vertex -0.011072 0.139797 0.014542
   vertex -0.009519 0.139797 0.017053
  endloop
 endfacet
 facet normal -0.645038 0.651744 0.398942
  outer loop
   vertex -0.011072 0.139797 0.014542
   vertex -0.011436 0.138237 0.016502
   vertex -0.009519 0.139797 0.017053
  endloop
 endfacet
 facet normal -0.819189 0.412026 0.398954
  outer loop
   vertex -0.012807 0.137409 0.014542
   vertex -0.012327 0.135932 0.017053
   vertex -0.011436 0.138237 0.016502
  endloop
 endfacet
 facet normal -0.936352 0.304548 0.174631
  outer loop
   vertex -0.013711 0.13607 0.01203
   vertex -0.013672 0.134605 0.014794
   vertex -0.012807 0.137409 0.014542
  endloop
 endfacet
 facet normal -0.984653 0.155824 -0.0785916
  outer loop
   vertex -0.013766 0.134456 0.009519
   vertex -0.0142 0.13298 0.01203
   vertex -0.013711 0.13607 0.01203
  endloop
 endfacet
 facet normal -0.886309 0.304753 0.348685
  outer loop
   vertex -0.012807 0.137409 0.014542
   vertex -0.013672 0.134605 0.014794
   vertex -0.012327 0.135932 0.017053
  endloop
 endfacet
 facet normal -0.885615 0.148581 0.440011
  outer loop
   vertex -0.013672 0.134605 0.014794
   vertex -0.012706 0.13298 0.017287
   vertex -0.012327 0.135932 0.017053
  endloop
 endfacet
 facet normal -0.983115 0.15558 0.0963335
  outer loop
   vertex -0.013711 0.13607 0.01203
   vertex -0.0142 0.13298 0.01203
   vertex -0.013672 0.134605 0.014794
  endloop
 endfacet
 facet normal -0.982239 0 0.187634
  outer loop
   vertex -0.0142 0.13298 0.01203
   vertex -0.013672 0.131355 0.014794
   vertex -0.013672 0.134605 0.014794
  endloop
 endfacet
 facet normal -0.932446 0 0.361309
  outer loop
   vertex -0.013672 0.134605 0.014794
   vertex -0.013672 0.131355 0.014794
   vertex -0.012706 0.13298 0.017287
  endloop
 endfacet
 facet normal -0.885615 -0.148581 0.440011
  outer loop
   vertex -0.013672 0.131355 0.014794
   vertex -0.012327 0.130028 0.017053
   vertex -0.012706 0.13298 0.017287
  endloop
 endfacet
 facet normal -0.98539 -0 -0.170314
  outer loop
   vertex -0.013766 0.134456 0.009519
   vertex -0.013766 0.131504 0.009519
   vertex -0.0142 0.13298 0.01203
  endloop
 endfacet
 facet normal -0.984653 -0.155824 -0.0785916
  outer loop
   vertex -0.013766 0.131504 0.009519
   vertex -0.013711 0.12989 0.01203
   vertex -0.0142 0.13298 0.01203
  endloop
 endfacet
 facet normal -0.983115 -0.15558 0.0963335
  outer loop
   vertex -0.0142 0.13298 0.01203
   vertex -0.013711 0.12989 0.01203
   vertex -0.013672 0.131355 0.014794
  endloop
 endfacet
 facet normal -0.936352 -0.304548 0.174631
  outer loop
   vertex -0.013711 0.12989 0.01203
   vertex -0.012807 0.128551 0.014542
   vertex -0.013672 0.131355 0.014794
  endloop
 endfacet
 facet normal -0.886309 -0.304753 0.348685
  outer loop
   vertex -0.013672 0.131355 0.014794
   vertex -0.012807 0.128551 0.014542
   vertex -0.012327 0.130028 0.017053
  endloop
 endfacet
 facet normal -0.819189 -0.412026 0.398954
  outer loop
   vertex -0.012807 0.128551 0.014542
   vertex -0.011436 0.127723 0.016502
   vertex -0.012327 0.130028 0.017053
  endloop
 endfacet
 facet normal -0.645038 -0.651744 0.398942
  outer loop
   vertex -0.011072 0.126163 0.014542
   vertex -0.009519 0.126163 0.017053
   vertex -0.011436 0.127723 0.016502
  endloop
 endfacet
 facet normal -0.578874 -0.796508 0.174584
  outer loop
   vertex -0.010078 0.12489 0.01203
   vertex -0.008672 0.124474 0.014794
   vertex -0.011072 0.126163 0.014542
  endloop
 endfacet
 facet normal -0.452705 -0.888208 -0.0783901
  outer loop
   vertex -0.00856 0.124338 0.009518
   vertex -0.00729 0.123469 0.01203
   vertex -0.010078 0.12489 0.01203
  endloop
 endfacet
 facet normal -0.563623 -0.748876 0.348589
  outer loop
   vertex -0.011072 0.126163 0.014542
   vertex -0.008672 0.124474 0.014794
   vertex -0.009519 0.126163 0.017053
  endloop
 endfacet
 facet normal -0.415138 -0.796394 0.439791
  outer loop
   vertex -0.008672 0.124474 0.014794
   vertex -0.006829 0.12489 0.017287
   vertex -0.009519 0.126163 0.017053
  endloop
 endfacet
 facet normal -0.451986 -0.886796 0.0964489
  outer loop
   vertex -0.010078 0.12489 0.01203
   vertex -0.00729 0.123469 0.01203
   vertex -0.008672 0.124474 0.014794
  endloop
 endfacet
 facet normal -0.303796 -0.934059 0.187729
  outer loop
   vertex -0.00729 0.123469 0.01203
   vertex -0.005582 0.123469 0.014794
   vertex -0.008672 0.124474 0.014794
  endloop
 endfacet
 facet normal -0.288415 -0.886769 0.361189
  outer loop
   vertex -0.008672 0.124474 0.014794
   vertex -0.005582 0.123469 0.014794
   vertex -0.006829 0.12489 0.017287
  endloop
 endfacet
 facet normal -0.132412 -0.888171 0.440021
  outer loop
   vertex -0.005582 0.123469 0.014794
   vertex -0.003904 0.124338 0.017053
   vertex -0.006829 0.12489 0.017287
  endloop
 endfacet
 facet normal -0.304389 -0.937197 -0.170322
  outer loop
   vertex -0.00856 0.124338 0.009518
   vertex -0.005752 0.123426 0.009518
   vertex -0.00729 0.123469 0.01203
  endloop
 endfacet
 facet normal -0.155824 -0.984657 -0.07855
  outer loop
   vertex -0.005752 0.123426 0.009518
   vertex -0.0042 0.12298 0.01203
   vertex -0.00729 0.123469 0.01203
  endloop
 endfacet
 facet normal -0.155583 -0.983133 0.0961419
  outer loop
   vertex -0.00729 0.123469 0.01203
   vertex -0.0042 0.12298 0.01203
   vertex -0.005582 0.123469 0.014794
  endloop
 endfacet
 facet normal 0.000555151 -0.98466 0.174481
  outer loop
   vertex -0.0042 0.12298 0.01203
   vertex -0.002648 0.123426 0.014542
   vertex -0.005582 0.123469 0.014794
  endloop
 endfacet
 facet normal 0.0161962 -0.937175 0.348485
  outer loop
   vertex -0.005582 0.123469 0.014794
   vertex -0.002648 0.123426 0.014542
   vertex -0.003904 0.124338 0.017053
  endloop
 endfacet
 facet normal 0.138975 -0.90647 0.398746
  outer loop
   vertex -0.002648 0.123426 0.014542
   vertex -0.001436 0.124474 0.016502
   vertex -0.003904 0.124338 0.017053
  endloop
 endfacet
 facet normal 0.420269 -0.815078 0.398776
  outer loop
   vertex 0.00016 0.124338 0.014542
   vertex 0.00064 0.125814 0.017053
   vertex -0.001436 0.124474 0.016502
  endloop
 endfacet
 facet normal 0.578519 -0.796783 0.174509
  outer loop
   vertex 0.001678 0.12489 0.01203
   vertex 0.002508 0.126098 0.014794
   vertex 0.00016 0.124338 0.014542
  endloop
 endfacet
 facet normal 0.704936 -0.704936 -0.0782949
  outer loop
   vertex 0.002672 0.126163 0.009518
   vertex 0.00389 0.127102 0.01203
   vertex 0.001678 0.12489 0.01203
  endloop
 endfacet
 facet normal 0.537986 -0.767602 0.348366
  outer loop
   vertex 0.00016 0.124338 0.014542
   vertex 0.002508 0.126098 0.014794
   vertex 0.00064 0.125814 0.017053
  endloop
 endfacet
 facet normal 0.629279 -0.640767 0.439803
  outer loop
   vertex 0.002508 0.126098 0.014794
   vertex 0.002682 0.12798 0.017287
   vertex 0.00064 0.125814 0.017053
  endloop
 endfacet
 facet normal 0.703824 -0.703824 0.0962537
  outer loop
   vertex 0.001678 0.12489 0.01203
   vertex 0.00389 0.127102 0.01203
   vertex 0.002508 0.126098 0.014794
  endloop
 endfacet
 facet normal 0.794662 -0.577331 0.18762
  outer loop
   vertex 0.00389 0.127102 0.01203
   vertex 0.004418 0.128727 0.014794
   vertex 0.002508 0.126098 0.014794
  endloop
 endfacet
 facet normal 0.754436 -0.548107 0.361117
  outer loop
   vertex 0.002508 0.126098 0.014794
   vertex 0.004418 0.128727 0.014794
   vertex 0.002682 0.12798 0.017287
  endloop
 endfacet
 facet normal 0.803858 -0.400541 0.439749
  outer loop
   vertex 0.004418 0.128727 0.014794
   vertex 0.004111 0.130591 0.017053
   vertex 0.002682 0.12798 0.017287
  endloop
 endfacet
 facet normal 0.797233 -0.579229 -0.170037
  outer loop
   vertex 0.002672 0.126163 0.009518
   vertex 0.004407 0.128551 0.009518
   vertex 0.00389 0.127102 0.01203
  endloop
 endfacet
 facet normal 0.888212 -0.452708 -0.078331
  outer loop
   vertex 0.004407 0.128551 0.009518
   vertex 0.005311 0.12989 0.01203
   vertex 0.00389 0.127102 0.01203
  endloop
 endfacet
 facet normal 0.886806 -0.451991 0.0963284
  outer loop
   vertex 0.00389 0.127102 0.01203
   vertex 0.005311 0.12989 0.01203
   vertex 0.004418 0.128727 0.014794
  endloop
 endfacet
 facet normal 0.93657 -0.303801 0.17476
  outer loop
   vertex 0.005311 0.12989 0.01203
   vertex 0.005366 0.131504 0.014541
   vertex 0.004418 0.128727 0.014794
  endloop
 endfacet
 facet normal 0.89641 -0.274294 0.348155
  outer loop
   vertex 0.004418 0.128727 0.014794
   vertex 0.005366 0.131504 0.014541
   vertex 0.004111 0.130591 0.017053
  endloop
 endfacet
 facet normal 0.905177 -0.147939 0.398459
  outer loop
   vertex 0.005366 0.131504 0.014541
   vertex 0.004744 0.13298 0.016502
   vertex 0.004111 0.130591 0.017053
  endloop
 endfacet
 facet normal 0.294416 0.906493 0.302638
  outer loop
   vertex 0.00016 0.141622 0.014542
   vertex -0.002648 0.142534 0.014542
   vertex -0.001436 0.141486 0.016502
  endloop
 endfacet
 facet normal 0.452705 0.888208 0.0783901
  outer loop
   vertex 0.001678 0.14107 0.01203
   vertex -0.00111 0.142491 0.01203
   vertex 0.00016 0.141622 0.014542
  endloop
 endfacet
 facet normal 0.578874 0.796508 -0.174584
  outer loop
   vertex 0.002672 0.139797 0.009518
   vertex 0.000272 0.141486 0.009266
   vertex 0.001678 0.14107 0.01203
  endloop
 endfacet
 facet normal 0.304389 0.937197 0.170322
  outer loop
   vertex 0.00016 0.141622 0.014542
   vertex -0.00111 0.142491 0.01203
   vertex -0.002648 0.142534 0.014542
  endloop
 endfacet
 facet normal 0.155824 0.984657 0.07855
  outer loop
   vertex -0.00111 0.142491 0.01203
   vertex -0.0042 0.14298 0.01203
   vertex -0.002648 0.142534 0.014542
  endloop
 endfacet
 facet normal 0.451986 0.886796 -0.0964489
  outer loop
   vertex 0.001678 0.14107 0.01203
   vertex 0.000272 0.141486 0.009266
   vertex -0.00111 0.142491 0.01203
  endloop
 endfacet
 facet normal 0.303796 0.934059 -0.187729
  outer loop
   vertex 0.000272 0.141486 0.009266
   vertex -0.002818 0.142491 0.009266
   vertex -0.00111 0.142491 0.01203
  endloop
 endfacet
 facet normal 0.155583 0.983133 -0.0961419
  outer loop
   vertex -0.00111 0.142491 0.01203
   vertex -0.002818 0.142491 0.009266
   vertex -0.0042 0.14298 0.01203
  endloop
 endfacet
 facet normal -0.000555151 0.98466 -0.174481
  outer loop
   vertex -0.002818 0.142491 0.009266
   vertex -0.005752 0.142534 0.009518
   vertex -0.0042 0.14298 0.01203
  endloop
 endfacet
 facet normal 0.563623 0.748876 -0.348589
  outer loop
   vertex 0.002672 0.139797 0.009518
   vertex 0.001119 0.139797 0.007007
   vertex 0.000272 0.141486 0.009266
  endloop
 endfacet
 facet normal 0.415138 0.796394 -0.439791
  outer loop
   vertex 0.001119 0.139797 0.007007
   vertex -0.001571 0.14107 0.006773
   vertex 0.000272 0.141486 0.009266
  endloop
 endfacet
 facet normal 0.288415 0.886769 -0.361189
  outer loop
   vertex 0.000272 0.141486 0.009266
   vertex -0.001571 0.14107 0.006773
   vertex -0.002818 0.142491 0.009266
  endloop
 endfacet
 facet normal 0.132412 0.888171 -0.440021
  outer loop
   vertex -0.001571 0.14107 0.006773
   vertex -0.004496 0.141622 0.007007
   vertex -0.002818 0.142491 0.009266
  endloop
 endfacet
 facet normal -0.0161962 0.937175 -0.348485
  outer loop
   vertex -0.002818 0.142491 0.009266
   vertex -0.004496 0.141622 0.007007
   vertex -0.005752 0.142534 0.009518
  endloop
 endfacet
 facet normal -0.138975 0.90647 -0.398746
  outer loop
   vertex -0.004496 0.141622 0.007007
   vertex -0.006964 0.141486 0.007558
   vertex -0.005752 0.142534 0.009518
  endloop
 endfacet
 facet normal -0.771063 0.560215 0.302688
  outer loop
   vertex -0.011072 0.139797 0.014542
   vertex -0.012807 0.137409 0.014542
   vertex -0.011436 0.138237 0.016502
  endloop
 endfacet
 facet normal -0.704936 0.704936 0.0782949
  outer loop
   vertex -0.010078 0.14107 0.01203
   vertex -0.01229 0.138858 0.01203
   vertex -0.011072 0.139797 0.014542
  endloop
 endfacet
 facet normal -0.578519 0.796783 -0.174509
  outer loop
   vertex -0.00856 0.141622 0.009518
   vertex -0.010908 0.139862 0.009266
   vertex -0.010078 0.14107 0.01203
  endloop
 endfacet
 facet normal -0.797233 0.579229 0.170037
  outer loop
   vertex -0.011072 0.139797 0.014542
   vertex -0.01229 0.138858 0.01203
   vertex -0.012807 0.137409 0.014542
  endloop
 endfacet
 facet normal -0.888212 0.452708 0.078331
  outer loop
   vertex -0.01229 0.138858 0.01203
   vertex -0.013711 0.13607 0.01203
   vertex -0.012807 0.137409 0.014542
  endloop
 endfacet
 facet normal -0.703824 0.703824 -0.0962537
  outer loop
   vertex -0.010078 0.14107 0.01203
   vertex -0.010908 0.139862 0.009266
   vertex -0.01229 0.138858 0.01203
  endloop
 endfacet
 facet normal -0.794662 0.577331 -0.18762
  outer loop
   vertex -0.010908 0.139862 0.009266
   vertex -0.012818 0.137233 0.009266
   vertex -0.01229 0.138858 0.01203
  endloop
 endfacet
 facet normal -0.886806 0.451991 -0.0963284
  outer loop
   vertex -0.01229 0.138858 0.01203
   vertex -0.012818 0.137233 0.009266
   vertex -0.013711 0.13607 0.01203
  endloop
 endfacet
 facet normal -0.93657 0.303801 -0.17476
  outer loop
   vertex -0.012818 0.137233 0.009266
   vertex -0.013766 0.134456 0.009519
   vertex -0.013711 0.13607 0.01203
  endloop
 endfacet
 facet normal -0.537986 0.767602 -0.348366
  outer loop
   vertex -0.00856 0.141622 0.009518
   vertex -0.00904 0.140146 0.007007
   vertex -0.010908 0.139862 0.009266
  endloop
 endfacet
 facet normal -0.629279 0.640767 -0.439803
  outer loop
   vertex -0.00904 0.140146 0.007007
   vertex -0.011082 0.13798 0.006773
   vertex -0.010908 0.139862 0.009266
  endloop
 endfacet
 facet normal -0.754436 0.548107 -0.361117
  outer loop
   vertex -0.010908 0.139862 0.009266
   vertex -0.011082 0.13798 0.006773
   vertex -0.012818 0.137233 0.009266
  endloop
 endfacet
 facet normal -0.803858 0.400541 -0.439749
  outer loop
   vertex -0.011082 0.13798 0.006773
   vertex -0.012511 0.135369 0.007007
   vertex -0.012818 0.137233 0.009266
  endloop
 endfacet
 facet normal -0.89641 0.274294 -0.348155
  outer loop
   vertex -0.012818 0.137233 0.009266
   vertex -0.012511 0.135369 0.007007
   vertex -0.013766 0.134456 0.009519
  endloop
 endfacet
 facet normal -0.905177 0.147939 -0.398459
  outer loop
   vertex -0.012511 0.135369 0.007007
   vertex -0.013144 0.13298 0.007558
   vertex -0.013766 0.134456 0.009519
  endloop
 endfacet
 facet normal -0.771063 -0.560215 0.302688
  outer loop
   vertex -0.012807 0.128551 0.014542
   vertex -0.011072 0.126163 0.014542
   vertex -0.011436 0.127723 0.016502
  endloop
 endfacet
 facet normal -0.888212 -0.452708 0.078331
  outer loop
   vertex -0.013711 0.12989 0.01203
   vertex -0.01229 0.127102 0.01203
   vertex -0.012807 0.128551 0.014542
  endloop
 endfacet
 facet normal -0.93657 -0.303801 -0.17476
  outer loop
   vertex -0.013766 0.131504 0.009519
   vertex -0.012818 0.128727 0.009266
   vertex -0.013711 0.12989 0.01203
  endloop
 endfacet
 facet normal -0.797233 -0.579229 0.170037
  outer loop
   vertex -0.012807 0.128551 0.014542
   vertex -0.01229 0.127102 0.01203
   vertex -0.011072 0.126163 0.014542
  endloop
 endfacet
 facet normal -0.704936 -0.704936 0.0782949
  outer loop
   vertex -0.01229 0.127102 0.01203
   vertex -0.010078 0.12489 0.01203
   vertex -0.011072 0.126163 0.014542
  endloop
 endfacet
 facet normal -0.886806 -0.451991 -0.0963284
  outer loop
   vertex -0.013711 0.12989 0.01203
   vertex -0.012818 0.128727 0.009266
   vertex -0.01229 0.127102 0.01203
  endloop
 endfacet
 facet normal -0.794662 -0.577331 -0.18762
  outer loop
   vertex -0.012818 0.128727 0.009266
   vertex -0.010908 0.126098 0.009266
   vertex -0.01229 0.127102 0.01203
  endloop
 endfacet
 facet normal -0.703824 -0.703824 -0.0962537
  outer loop
   vertex -0.01229 0.127102 0.01203
   vertex -0.010908 0.126098 0.009266
   vertex -0.010078 0.12489 0.01203
  endloop
 endfacet
 facet normal -0.578519 -0.796783 -0.174509
  outer loop
   vertex -0.010908 0.126098 0.009266
   vertex -0.00856 0.124338 0.009518
   vertex -0.010078 0.12489 0.01203
  endloop
 endfacet
 facet normal -0.89641 -0.274294 -0.348155
  outer loop
   vertex -0.013766 0.131504 0.009519
   vertex -0.012511 0.130591 0.007007
   vertex -0.012818 0.128727 0.009266
  endloop
 endfacet
 facet normal -0.803858 -0.400541 -0.439749
  outer loop
   vertex -0.012511 0.130591 0.007007
   vertex -0.011082 0.12798 0.006773
   vertex -0.012818 0.128727 0.009266
  endloop
 endfacet
 facet normal -0.754436 -0.548107 -0.361117
  outer loop
   vertex -0.012818 0.128727 0.009266
   vertex -0.011082 0.12798 0.006773
   vertex -0.010908 0.126098 0.009266
  endloop
 endfacet
 facet normal -0.629279 -0.640767 -0.439803
  outer loop
   vertex -0.011082 0.12798 0.006773
   vertex -0.00904 0.125814 0.007007
   vertex -0.010908 0.126098 0.009266
  endloop
 endfacet
 facet normal -0.537986 -0.767602 -0.348366
  outer loop
   vertex -0.010908 0.126098 0.009266
   vertex -0.00904 0.125814 0.007007
   vertex -0.00856 0.124338 0.009518
  endloop
 endfacet
 facet normal -0.420269 -0.815078 -0.398776
  outer loop
   vertex -0.00904 0.125814 0.007007
   vertex -0.006964 0.124474 0.007558
   vertex -0.00856 0.124338 0.009518
  endloop
 endfacet
 facet normal 0.294416 -0.906493 0.302638
  outer loop
   vertex -0.002648 0.123426 0.014542
   vertex 0.00016 0.124338 0.014542
   vertex -0.001436 0.124474 0.016502
  endloop
 endfacet
 facet normal 0.155824 -0.984657 0.07855
  outer loop
   vertex -0.0042 0.12298 0.01203
   vertex -0.00111 0.123469 0.01203
   vertex -0.002648 0.123426 0.014542
  endloop
 endfacet
 facet normal -0.000555151 -0.98466 -0.174481
  outer loop
   vertex -0.005752 0.123426 0.009518
   vertex -0.002818 0.123469 0.009266
   vertex -0.0042 0.12298 0.01203
  endloop
 endfacet
 facet normal 0.304389 -0.937197 0.170322
  outer loop
   vertex -0.002648 0.123426 0.014542
   vertex -0.00111 0.123469 0.01203
   vertex 0.00016 0.124338 0.014542
  endloop
 endfacet
 facet normal 0.452705 -0.888208 0.0783901
  outer loop
   vertex -0.00111 0.123469 0.01203
   vertex 0.001678 0.12489 0.01203
   vertex 0.00016 0.124338 0.014542
  endloop
 endfacet
 facet normal 0.155583 -0.983133 -0.0961419
  outer loop
   vertex -0.0042 0.12298 0.01203
   vertex -0.002818 0.123469 0.009266
   vertex -0.00111 0.123469 0.01203
  endloop
 endfacet
 facet normal 0.303796 -0.934059 -0.187729
  outer loop
   vertex -0.002818 0.123469 0.009266
   vertex 0.000272 0.124474 0.009266
   vertex -0.00111 0.123469 0.01203
  endloop
 endfacet
 facet normal 0.451986 -0.886796 -0.0964489
  outer loop
   vertex -0.00111 0.123469 0.01203
   vertex 0.000272 0.124474 0.009266
   vertex 0.001678 0.12489 0.01203
  endloop
 endfacet
 facet normal 0.578874 -0.796508 -0.174584
  outer loop
   vertex 0.000272 0.124474 0.009266
   vertex 0.002672 0.126163 0.009518
   vertex 0.001678 0.12489 0.01203
  endloop
 endfacet
 facet normal -0.0161962 -0.937175 -0.348485
  outer loop
   vertex -0.005752 0.123426 0.009518
   vertex -0.004496 0.124338 0.007007
   vertex -0.002818 0.123469 0.009266
  endloop
 endfacet
 facet normal 0.132412 -0.888171 -0.440021
  outer loop
   vertex -0.004496 0.124338 0.007007
   vertex -0.001571 0.12489 0.006773
   vertex -0.002818 0.123469 0.009266
  endloop
 endfacet
 facet normal 0.288415 -0.886769 -0.361189
  outer loop
   vertex -0.002818 0.123469 0.009266
   vertex -0.001571 0.12489 0.006773
   vertex 0.000272 0.124474 0.009266
  endloop
 endfacet
 facet normal 0.415138 -0.796394 -0.439791
  outer loop
   vertex -0.001571 0.12489 0.006773
   vertex 0.001119 0.126163 0.007007
   vertex 0.000272 0.124474 0.009266
  endloop
 endfacet
 facet normal 0.563623 -0.748876 -0.348589
  outer loop
   vertex 0.000272 0.124474 0.009266
   vertex 0.001119 0.126163 0.007007
   vertex 0.002672 0.126163 0.009518
  endloop
 endfacet
 facet normal 0.645038 -0.651744 -0.398942
  outer loop
   vertex 0.001119 0.126163 0.007007
   vertex 0.003036 0.127723 0.007558
   vertex 0.002672 0.126163 0.009518
  endloop
 endfacet
 facet normal 0.9532 -0 0.302341
  outer loop
   vertex 0.005366 0.131504 0.014541
   vertex 0.005366 0.134456 0.014541
   vertex 0.004744 0.13298 0.016502
  endloop
 endfacet
 facet normal 0.984653 -0.155824 0.0785916
  outer loop
   vertex 0.005311 0.12989 0.01203
   vertex 0.0058 0.13298 0.01203
   vertex 0.005366 0.131504 0.014541
  endloop
 endfacet
 facet normal 0.936352 -0.304548 -0.174631
  outer loop
   vertex 0.004407 0.128551 0.009518
   vertex 0.005272 0.131355 0.009266
   vertex 0.005311 0.12989 0.01203
  endloop
 endfacet
 facet normal 0.98539 -0 0.170314
  outer loop
   vertex 0.005366 0.131504 0.014541
   vertex 0.0058 0.13298 0.01203
   vertex 0.005366 0.134456 0.014541
  endloop
 endfacet
 facet normal 0.984653 0.155824 0.0785916
  outer loop
   vertex 0.0058 0.13298 0.01203
   vertex 0.005311 0.13607 0.01203
   vertex 0.005366 0.134456 0.014541
  endloop
 endfacet
 facet normal 0.983115 -0.15558 -0.0963335
  outer loop
   vertex 0.005311 0.12989 0.01203
   vertex 0.005272 0.131355 0.009266
   vertex 0.0058 0.13298 0.01203
  endloop
 endfacet
 facet normal 0.982239 0 -0.187634
  outer loop
   vertex 0.005272 0.131355 0.009266
   vertex 0.005272 0.134605 0.009266
   vertex 0.0058 0.13298 0.01203
  endloop
 endfacet
 facet normal 0.983115 0.15558 -0.0963335
  outer loop
   vertex 0.0058 0.13298 0.01203
   vertex 0.005272 0.134605 0.009266
   vertex 0.005311 0.13607 0.01203
  endloop
 endfacet
 facet normal 0.936352 0.304548 -0.174631
  outer loop
   vertex 0.005272 0.134605 0.009266
   vertex 0.004407 0.137409 0.009518
   vertex 0.005311 0.13607 0.01203
  endloop
 endfacet
 facet normal 0.886309 -0.304753 -0.348685
  outer loop
   vertex 0.004407 0.128551 0.009518
   vertex 0.003927 0.130028 0.007007
   vertex 0.005272 0.131355 0.009266
  endloop
 endfacet
 facet normal 0.885615 -0.148581 -0.440011
  outer loop
   vertex 0.003927 0.130028 0.007007
   vertex 0.004306 0.13298 0.006773
   vertex 0.005272 0.131355 0.009266
  endloop
 endfacet
 facet normal 0.932446 0 -0.361309
  outer loop
   vertex 0.005272 0.131355 0.009266
   vertex 0.004306 0.13298 0.006773
   vertex 0.005272 0.134605 0.009266
  endloop
 endfacet
 facet normal 0.885615 0.148581 -0.440011
  outer loop
   vertex 0.004306 0.13298 0.006773
   vertex 0.003927 0.135932 0.007007
   vertex 0.005272 0.134605 0.009266
  endloop
 endfacet
 facet normal 0.886309 0.304753 -0.348685
  outer loop
   vertex 0.005272 0.134605 0.009266
   vertex 0.003927 0.135932 0.007007
   vertex 0.004407 0.137409 0.009518
  endloop
 endfacet
 facet normal 0.819189 0.412026 -0.398954
  outer loop
   vertex 0.003927 0.135932 0.007007
   vertex 0.003036 0.138237 0.007558
   vertex 0.004407 0.137409 0.009518
  endloop
 endfacet
 facet normal 0.61533 0.560308 -0.554459
  outer loop
   vertex 0.001895 0.137409 0.005455
   vertex 0.001119 0.139797 0.007007
   vertex 0.003036 0.138237 0.007558
  endloop
 endfacet
 facet normal 0.467426 0.452641 -0.759361
  outer loop
   vertex 5.3e-05 0.13607 0.003523
   vertex -0.000582 0.138858 0.004794
   vertex 0.001895 0.137409 0.005455
  endloop
 endfacet
 facet normal 0.262485 0.303841 -0.915851
  outer loop
   vertex -0.002168 0.134456 0.002351
   vertex -0.002818 0.137233 0.003086
   vertex 5.3e-05 0.13607 0.003523
  endloop
 endfacet
 facet normal 0.508799 0.579247 -0.636864
  outer loop
   vertex 0.001895 0.137409 0.005455
   vertex -0.000582 0.138858 0.004794
   vertex 0.001119 0.139797 0.007007
  endloop
 endfacet
 facet normal 0.38541 0.704977 -0.595371
  outer loop
   vertex -0.000582 0.138858 0.004794
   vertex -0.001571 0.14107 0.006773
   vertex 0.001119 0.139797 0.007007
  endloop
 endfacet
 facet normal 0.310374 0.451949 -0.836307
  outer loop
   vertex 5.3e-05 0.13607 0.003523
   vertex -0.002818 0.137233 0.003086
   vertex -0.000582 0.138858 0.004794
  endloop
 endfacet
 facet normal 0.187559 0.577248 -0.794737
  outer loop
   vertex -0.002818 0.137233 0.003086
   vertex -0.003672 0.139862 0.004794
   vertex -0.000582 0.138858 0.004794
  endloop
 endfacet
 facet normal 0.228709 0.703897 -0.672474
  outer loop
   vertex -0.000582 0.138858 0.004794
   vertex -0.003672 0.139862 0.004794
   vertex -0.001571 0.14107 0.006773
  endloop
 endfacet
 facet normal 0.102735 0.796801 -0.595444
  outer loop
   vertex -0.003672 0.139862 0.004794
   vertex -0.004496 0.141622 0.007007
   vertex -0.001571 0.14107 0.006773
  endloop
 endfacet
 facet normal 0.0891868 0.274301 -0.957499
  outer loop
   vertex -0.002168 0.134456 0.002351
   vertex -0.004976 0.135369 0.002351
   vertex -0.002818 0.137233 0.003086
  endloop
 endfacet
 facet normal -0.0336945 0.400135 -0.915836
  outer loop
   vertex -0.004976 0.135369 0.002351
   vertex -0.005825 0.13798 0.003523
   vertex -0.002818 0.137233 0.003086
  endloop
 endfacet
 facet normal 0.0146149 0.548074 -0.836302
  outer loop
   vertex -0.002818 0.137233 0.003086
   vertex -0.005825 0.13798 0.003523
   vertex -0.003672 0.139862 0.004794
  endloop
 endfacet
 facet normal -0.112009 0.640965 -0.759354
  outer loop
   vertex -0.005825 0.13798 0.003523
   vertex -0.006528 0.140146 0.005455
   vertex -0.003672 0.139862 0.004794
  endloop
 endfacet
 facet normal -0.0710868 0.767617 -0.636955
  outer loop
   vertex -0.003672 0.139862 0.004794
   vertex -0.006528 0.140146 0.005455
   vertex -0.004496 0.141622 0.007007
  endloop
 endfacet
 facet normal -0.168666 0.815046 -0.554303
  outer loop
   vertex -0.006528 0.140146 0.005455
   vertex -0.006964 0.141486 0.007558
   vertex -0.004496 0.141622 0.007007
  endloop
 endfacet
 facet normal -0.342493 0.758552 -0.554344
  outer loop
   vertex -0.006528 0.140146 0.005455
   vertex -0.00904 0.140146 0.007007
   vertex -0.006964 0.141486 0.007558
  endloop
 endfacet
 facet normal -0.286233 0.584386 -0.759318
  outer loop
   vertex -0.005825 0.13798 0.003523
   vertex -0.008672 0.138237 0.004794
   vertex -0.006528 0.140146 0.005455
  endloop
 endfacet
 facet normal -0.207851 0.343516 -0.915858
  outer loop
   vertex -0.004976 0.135369 0.002351
   vertex -0.007818 0.135609 0.003086
   vertex -0.005825 0.13798 0.003523
  endloop
 endfacet
 facet normal -0.393627 0.662685 -0.637108
  outer loop
   vertex -0.006528 0.140146 0.005455
   vertex -0.008672 0.138237 0.004794
   vertex -0.00904 0.140146 0.007007
  endloop
 endfacet
 facet normal -0.551379 0.584158 -0.595601
  outer loop
   vertex -0.008672 0.138237 0.004794
   vertex -0.011082 0.13798 0.006773
   vertex -0.00904 0.140146 0.007007
  endloop
 endfacet
 facet normal -0.334054 0.43492 -0.836213
  outer loop
   vertex -0.005825 0.13798 0.003523
   vertex -0.007818 0.135609 0.003086
   vertex -0.008672 0.138237 0.004794
  endloop
 endfacet
 facet normal -0.491058 0.356895 -0.794662
  outer loop
   vertex -0.007818 0.135609 0.003086
   vertex -0.010582 0.135609 0.004794
   vertex -0.008672 0.138237 0.004794
  endloop
 endfacet
 facet normal -0.598657 0.435097 -0.672533
  outer loop
   vertex -0.008672 0.138237 0.004794
   vertex -0.010582 0.135609 0.004794
   vertex -0.011082 0.13798 0.006773
  endloop
 endfacet
 facet normal -0.725985 0.343961 -0.595514
  outer loop
   vertex -0.010582 0.135609 0.004794
   vertex -0.012511 0.135369 0.007007
   vertex -0.011082 0.13798 0.006773
  endloop
 endfacet
 facet normal -0.233325 0.169451 -0.957521
  outer loop
   vertex -0.004976 0.135369 0.002351
   vertex -0.006711 0.13298 0.002351
   vertex -0.007818 0.135609 0.003086
  endloop
 endfacet
 facet normal -0.390899 0.0914587 -0.915878
  outer loop
   vertex -0.006711 0.13298 0.002351
   vertex -0.009457 0.13298 0.003523
   vertex -0.007818 0.135609 0.003086
  endloop
 endfacet
 facet normal -0.516783 0.183167 -0.836293
  outer loop
   vertex -0.007818 0.135609 0.003086
   vertex -0.009457 0.13298 0.003523
   vertex -0.010582 0.135609 0.004794
  endloop
 endfacet
 facet normal -0.644269 0.0913996 -0.759317
  outer loop
   vertex -0.009457 0.13298 0.003523
   vertex -0.011734 0.13298 0.005455
   vertex -0.010582 0.135609 0.004794
  endloop
 endfacet
 facet normal -0.751958 0.169318 -0.637095
  outer loop
   vertex -0.010582 0.135609 0.004794
   vertex -0.011734 0.13298 0.005455
   vertex -0.012511 0.135369 0.007007
  endloop
 endfacet
 facet normal -0.827124 0.091254 -0.554562
  outer loop
   vertex -0.011734 0.13298 0.005455
   vertex -0.013144 0.13298 0.007558
   vertex -0.012511 0.135369 0.007007
  endloop
 endfacet
 facet normal -0.827124 -0.091254 -0.554562
  outer loop
   vertex -0.011734 0.13298 0.005455
   vertex -0.012511 0.130591 0.007007
   vertex -0.013144 0.13298 0.007558
  endloop
 endfacet
 facet normal -0.644269 -0.0913996 -0.759317
  outer loop
   vertex -0.009457 0.13298 0.003523
   vertex -0.010582 0.130351 0.004794
   vertex -0.011734 0.13298 0.005455
  endloop
 endfacet
 facet normal -0.390899 -0.0914587 -0.915878
  outer loop
   vertex -0.006711 0.13298 0.002351
   vertex -0.007818 0.130351 0.003086
   vertex -0.009457 0.13298 0.003523
  endloop
 endfacet
 facet normal -0.751958 -0.169318 -0.637095
  outer loop
   vertex -0.011734 0.13298 0.005455
   vertex -0.010582 0.130351 0.004794
   vertex -0.012511 0.130591 0.007007
  endloop
 endfacet
 facet normal -0.725985 -0.343961 -0.595514
  outer loop
   vertex -0.010582 0.130351 0.004794
   vertex -0.011082 0.12798 0.006773
   vertex -0.012511 0.130591 0.007007
  endloop
 endfacet
 facet normal -0.516783 -0.183167 -0.836293
  outer loop
   vertex -0.009457 0.13298 0.003523
   vertex -0.007818 0.130351 0.003086
   vertex -0.010582 0.130351 0.004794
  endloop
 endfacet
 facet normal -0.491058 -0.356895 -0.794662
  outer loop
   vertex -0.007818 0.130351 0.003086
   vertex -0.008672 0.127723 0.004794
   vertex -0.010582 0.130351 0.004794
  endloop
 endfacet
 facet normal -0.598657 -0.435097 -0.672533
  outer loop
   vertex -0.010582 0.130351 0.004794
   vertex -0.008672 0.127723 0.004794
   vertex -0.011082 0.12798 0.006773
  endloop
 endfacet
 facet normal -0.551379 -0.584158 -0.595601
  outer loop
   vertex -0.008672 0.127723 0.004794
   vertex -0.00904 0.125814 0.007007
   vertex -0.011082 0.12798 0.006773
  endloop
 endfacet
 facet normal -0.233325 -0.169451 -0.957521
  outer loop
   vertex -0.006711 0.13298 0.002351
   vertex -0.004976 0.130591 0.002351
   vertex -0.007818 0.130351 0.003086
  endloop
 endfacet
 facet normal -0.207851 -0.343516 -0.915858
  outer loop
   vertex -0.004976 0.130591 0.002351
   vertex -0.005825 0.12798 0.003523
   vertex -0.007818 0.130351 0.003086
  endloop
 endfacet
 facet normal -0.334054 -0.43492 -0.836213
  outer loop
   vertex -0.007818 0.130351 0.003086
   vertex -0.005825 0.12798 0.003523
   vertex -0.008672 0.127723 0.004794
  endloop
 endfacet
 facet normal -0.286233 -0.584386 -0.759318
  outer loop
   vertex -0.005825 0.12798 0.003523
   vertex -0.006528 0.125814 0.005455
   vertex -0.008672 0.127723 0.004794
  endloop
 endfacet
 facet normal -0.393627 -0.662685 -0.637108
  outer loop
   vertex -0.008672 0.127723 0.004794
   vertex -0.006528 0.125814 0.005455
   vertex -0.00904 0.125814 0.007007
  endloop
 endfacet
 facet normal -0.342493 -0.758552 -0.554344
  outer loop
   vertex -0.006528 0.125814 0.005455
   vertex -0.006964 0.124474 0.007558
   vertex -0.00904 0.125814 0.007007
  endloop
 endfacet
 facet normal 0.723015 0.412034 -0.554506
  outer loop
   vertex 0.003927 0.135932 0.007007
   vertex 0.001895 0.137409 0.005455
   vertex 0.003036 0.138237 0.007558
  endloop
 endfacet
 facet normal 0.789589 0.148568 -0.59538
  outer loop
   vertex 0.004306 0.13298 0.006773
   vertex 0.002508 0.134605 0.004794
   vertex 0.003927 0.135932 0.007007
  endloop
 endfacet
 facet normal 0.789589 -0.148568 -0.59538
  outer loop
   vertex 0.003927 0.130028 0.007007
   vertex 0.002508 0.131355 0.004794
   vertex 0.004306 0.13298 0.006773
  endloop
 endfacet
 facet normal 0.708089 0.304936 -0.636886
  outer loop
   vertex 0.003927 0.135932 0.007007
   vertex 0.002508 0.134605 0.004794
   vertex 0.001895 0.137409 0.005455
  endloop
 endfacet
 facet normal 0.574948 0.304695 -0.759339
  outer loop
   vertex 0.002508 0.134605 0.004794
   vertex 5.3e-05 0.13607 0.003523
   vertex 0.001895 0.137409 0.005455
  endloop
 endfacet
 facet normal 0.740143 0 -0.672449
  outer loop
   vertex 0.004306 0.13298 0.006773
   vertex 0.002508 0.131355 0.004794
   vertex 0.002508 0.134605 0.004794
  endloop
 endfacet
 facet normal 0.607028 0 -0.794681
  outer loop
   vertex 0.002508 0.131355 0.004794
   vertex 0.000272 0.13298 0.003086
   vertex 0.002508 0.134605 0.004794
  endloop
 endfacet
 facet normal 0.525774 0.155534 -0.836284
  outer loop
   vertex 0.002508 0.134605 0.004794
   vertex 0.000272 0.13298 0.003086
   vertex 5.3e-05 0.13607 0.003523
  endloop
 endfacet
 facet normal 0.370096 0.155752 -0.915844
  outer loop
   vertex 0.000272 0.13298 0.003086
   vertex -0.002168 0.134456 0.002351
   vertex 5.3e-05 0.13607 0.003523
  endloop
 endfacet
 facet normal 0.708089 -0.304936 -0.636886
  outer loop
   vertex 0.003927 0.130028 0.007007
   vertex 0.001895 0.128551 0.005455
   vertex 0.002508 0.131355 0.004794
  endloop
 endfacet
 facet normal 0.574948 -0.304695 -0.759339
  outer loop
   vertex 0.001895 0.128551 0.005455
   vertex 5.3e-05 0.12989 0.003523
   vertex 0.002508 0.131355 0.004794
  endloop
 endfacet
 facet normal 0.525774 -0.155534 -0.836284
  outer loop
   vertex 0.002508 0.131355 0.004794
   vertex 5.3e-05 0.12989 0.003523
   vertex 0.000272 0.13298 0.003086
  endloop
 endfacet
 facet normal 0.370096 -0.155752 -0.915844
  outer loop
   vertex 5.3e-05 0.12989 0.003523
   vertex -0.002168 0.131504 0.002351
   vertex 0.000272 0.13298 0.003086
  endloop
 endfacet
 facet normal 0.288428 0 -0.957502
  outer loop
   vertex 0.000272 0.13298 0.003086
   vertex -0.002168 0.131504 0.002351
   vertex -0.002168 0.134456 0.002351
  endloop
 endfacet
 facet normal 0.156037 0 -0.987751
  outer loop
   vertex -0.002168 0.131504 0.002351
   vertex -0.0042 0.13298 0.00203
   vertex -0.002168 0.134456 0.002351
  endloop
 endfacet
 facet normal -0.168666 -0.815046 -0.554303
  outer loop
   vertex -0.006528 0.125814 0.005455
   vertex -0.004496 0.124338 0.007007
   vertex -0.006964 0.124474 0.007558
  endloop
 endfacet
 facet normal -0.112009 -0.640965 -0.759354
  outer loop
   vertex -0.005825 0.12798 0.003523
   vertex -0.003672 0.126098 0.004794
   vertex -0.006528 0.125814 0.005455
  endloop
 endfacet
 facet normal -0.0336945 -0.400135 -0.915836
  outer loop
   vertex -0.004976 0.130591 0.002351
   vertex -0.002818 0.128727 0.003086
   vertex -0.005825 0.12798 0.003523
  endloop
 endfacet
 facet normal -0.0710868 -0.767617 -0.636955
  outer loop
   vertex -0.006528 0.125814 0.005455
   vertex -0.003672 0.126098 0.004794
   vertex -0.004496 0.124338 0.007007
  endloop
 endfacet
 facet normal 0.102735 -0.796801 -0.595444
  outer loop
   vertex -0.003672 0.126098 0.004794
   vertex -0.001571 0.12489 0.006773
   vertex -0.004496 0.124338 0.007007
  endloop
 endfacet
 facet normal 0.0146149 -0.548074 -0.836302
  outer loop
   vertex -0.005825 0.12798 0.003523
   vertex -0.002818 0.128727 0.003086
   vertex -0.003672 0.126098 0.004794
  endloop
 endfacet
 facet normal 0.187559 -0.577248 -0.794737
  outer loop
   vertex -0.002818 0.128727 0.003086
   vertex -0.000582 0.127102 0.004794
   vertex -0.003672 0.126098 0.004794
  endloop
 endfacet
 facet normal 0.228709 -0.703897 -0.672474
  outer loop
   vertex -0.003672 0.126098 0.004794
   vertex -0.000582 0.127102 0.004794
   vertex -0.001571 0.12489 0.006773
  endloop
 endfacet
 facet normal 0.38541 -0.704977 -0.595371
  outer loop
   vertex -0.000582 0.127102 0.004794
   vertex 0.001119 0.126163 0.007007
   vertex -0.001571 0.12489 0.006773
  endloop
 endfacet
 facet normal 0.0891868 -0.274301 -0.957499
  outer loop
   vertex -0.004976 0.130591 0.002351
   vertex -0.002168 0.131504 0.002351
   vertex -0.002818 0.128727 0.003086
  endloop
 endfacet
 facet normal 0.262485 -0.303841 -0.915851
  outer loop
   vertex -0.002168 0.131504 0.002351
   vertex 5.3e-05 0.12989 0.003523
   vertex -0.002818 0.128727 0.003086
  endloop
 endfacet
 facet normal 0.310374 -0.451949 -0.836307
  outer loop
   vertex -0.002818 0.128727 0.003086
   vertex 5.3e-05 0.12989 0.003523
   vertex -0.000582 0.127102 0.004794
  endloop
 endfacet
 facet normal 0.467426 -0.452641 -0.759361
  outer loop
   vertex 5.3e-05 0.12989 0.003523
   vertex 0.001895 0.128551 0.005455
   vertex -0.000582 0.127102 0.004794
  endloop
 endfacet
 facet normal 0.508799 -0.579247 -0.636864
  outer loop
   vertex -0.000582 0.127102 0.004794
   vertex 0.001895 0.128551 0.005455
   vertex 0.001119 0.126163 0.007007
  endloop
 endfacet
 facet normal 0.61533 -0.560308 -0.554459
  outer loop
   vertex 0.001895 0.128551 0.005455
   vertex 0.003036 0.127723 0.007558
   vertex 0.001119 0.126163 0.007007
  endloop
 endfacet
endsolid ExportedfromBlender-3.5.1
