solid ExportedfromBlender-3.5.1
 facet normal 0.0482486 -0.148392 -0.987751
  outer loop
   vertex 0.00225 0.31975 0.01448
   vertex 0.004282 0.318274 0.014801
   vertex 0.001474 0.317361 0.014801
  endloop
 endfacet
 facet normal 0.723015 -0.412034 -0.554506
  outer loop
   vertex 0.009486 0.314493 0.020008
   vertex 0.008345 0.315321 0.017905
   vertex 0.010377 0.316798 0.019457
  endloop
 endfacet
 facet normal -0.126271 -0.0917039 -0.987748
  outer loop
   vertex 0.00225 0.31975 0.01448
   vertex 0.001474 0.317361 0.014801
   vertex -0.000261 0.31975 0.014801
  endloop
 endfacet
 facet normal -0.126271 0.0917039 -0.987748
  outer loop
   vertex 0.00225 0.31975 0.01448
   vertex -0.000261 0.31975 0.014801
   vertex 0.001474 0.322139 0.014801
  endloop
 endfacet
 facet normal 0.0482486 0.148392 -0.987751
  outer loop
   vertex 0.00225 0.31975 0.01448
   vertex 0.001474 0.322139 0.014801
   vertex 0.004282 0.321226 0.014801
  endloop
 endfacet
 facet normal 0.819189 -0.412026 -0.398954
  outer loop
   vertex 0.009486 0.314493 0.020008
   vertex 0.010377 0.316798 0.019457
   vertex 0.010857 0.315321 0.021968
  endloop
 endfacet
 facet normal -0.138975 -0.90647 -0.398746
  outer loop
   vertex -0.000514 0.311244 0.020008
   vertex 0.001954 0.311108 0.019457
   vertex 0.000698 0.310196 0.021968
  endloop
 endfacet
 facet normal -0.905177 -0.147939 -0.398459
  outer loop
   vertex -0.006694 0.31975 0.020008
   vertex -0.006061 0.317361 0.019457
   vertex -0.007316 0.318274 0.021969
  endloop
 endfacet
 facet normal -0.420269 0.815078 -0.398776
  outer loop
   vertex -0.000514 0.328256 0.020008
   vertex -0.00259 0.326916 0.019457
   vertex -0.00211 0.328392 0.021968
  endloop
 endfacet
 facet normal 0.645038 0.651744 -0.398942
  outer loop
   vertex 0.009486 0.325007 0.020008
   vertex 0.007569 0.326567 0.019457
   vertex 0.009122 0.326567 0.021968
  endloop
 endfacet
 facet normal 0.771063 -0.560215 -0.302688
  outer loop
   vertex 0.009486 0.314493 0.020008
   vertex 0.010857 0.315321 0.021968
   vertex 0.009122 0.312933 0.021968
  endloop
 endfacet
 facet normal -0.294416 -0.906493 -0.302638
  outer loop
   vertex -0.000514 0.311244 0.020008
   vertex 0.000698 0.310196 0.021968
   vertex -0.00211 0.311108 0.021968
  endloop
 endfacet
 facet normal -0.9532 0 -0.302341
  outer loop
   vertex -0.006694 0.31975 0.020008
   vertex -0.007316 0.318274 0.021969
   vertex -0.007316 0.321226 0.021969
  endloop
 endfacet
 facet normal -0.294416 0.906493 -0.302638
  outer loop
   vertex -0.000514 0.328256 0.020008
   vertex -0.00211 0.328392 0.021968
   vertex 0.000698 0.329304 0.021968
  endloop
 endfacet
 facet normal 0.771063 0.560215 -0.302688
  outer loop
   vertex 0.009486 0.325007 0.020008
   vertex 0.009122 0.326567 0.021968
   vertex 0.010857 0.324179 0.021968
  endloop
 endfacet
 facet normal 0.342493 -0.758552 0.554344
  outer loop
   vertex 0.005014 0.311244 0.028952
   vertex 0.00709 0.312584 0.029503
   vertex 0.004578 0.312584 0.031055
  endloop
 endfacet
 facet normal -0.61533 -0.560308 0.554459
  outer loop
   vertex -0.004986 0.314493 0.028952
   vertex -0.003069 0.312933 0.029503
   vertex -0.003845 0.315321 0.031055
  endloop
 endfacet
 facet normal -0.723015 0.412034 0.554506
  outer loop
   vertex -0.004986 0.325007 0.028952
   vertex -0.005877 0.322702 0.029503
   vertex -0.003845 0.324179 0.031055
  endloop
 endfacet
 facet normal 0.168666 0.815046 0.554303
  outer loop
   vertex 0.005014 0.328256 0.028952
   vertex 0.002546 0.328392 0.029503
   vertex 0.004578 0.326916 0.031055
  endloop
 endfacet
 facet normal 0.827124 0.091254 0.554562
  outer loop
   vertex 0.011194 0.31975 0.028952
   vertex 0.010561 0.322139 0.029503
   vertex 0.009784 0.31975 0.031055
  endloop
 endfacet
 facet normal 0.126271 0.0917039 0.987748
  outer loop
   vertex 0.004761 0.31975 0.034159
   vertex 0.003026 0.322139 0.034159
   vertex 0.00225 0.31975 0.03448
  endloop
 endfacet
 facet normal 0.390899 0.0914587 0.915878
  outer loop
   vertex 0.007507 0.31975 0.032987
   vertex 0.005868 0.322379 0.033424
   vertex 0.004761 0.31975 0.034159
  endloop
 endfacet
 facet normal 0.644269 0.0913996 0.759317
  outer loop
   vertex 0.009784 0.31975 0.031055
   vertex 0.008632 0.322379 0.031716
   vertex 0.007507 0.31975 0.032987
  endloop
 endfacet
 facet normal 0.233325 0.169451 0.957521
  outer loop
   vertex 0.004761 0.31975 0.034159
   vertex 0.005868 0.322379 0.033424
   vertex 0.003026 0.322139 0.034159
  endloop
 endfacet
 facet normal 0.207851 0.343516 0.915858
  outer loop
   vertex 0.005868 0.322379 0.033424
   vertex 0.003875 0.32475 0.032987
   vertex 0.003026 0.322139 0.034159
  endloop
 endfacet
 facet normal 0.516783 0.183167 0.836293
  outer loop
   vertex 0.007507 0.31975 0.032987
   vertex 0.008632 0.322379 0.031716
   vertex 0.005868 0.322379 0.033424
  endloop
 endfacet
 facet normal 0.491058 0.356895 0.794662
  outer loop
   vertex 0.008632 0.322379 0.031716
   vertex 0.006722 0.325007 0.031716
   vertex 0.005868 0.322379 0.033424
  endloop
 endfacet
 facet normal 0.334054 0.43492 0.836213
  outer loop
   vertex 0.005868 0.322379 0.033424
   vertex 0.006722 0.325007 0.031716
   vertex 0.003875 0.32475 0.032987
  endloop
 endfacet
 facet normal 0.286233 0.584386 0.759318
  outer loop
   vertex 0.006722 0.325007 0.031716
   vertex 0.004578 0.326916 0.031055
   vertex 0.003875 0.32475 0.032987
  endloop
 endfacet
 facet normal 0.751958 0.169318 0.637095
  outer loop
   vertex 0.009784 0.31975 0.031055
   vertex 0.010561 0.322139 0.029503
   vertex 0.008632 0.322379 0.031716
  endloop
 endfacet
 facet normal 0.725985 0.343961 0.595514
  outer loop
   vertex 0.010561 0.322139 0.029503
   vertex 0.009132 0.32475 0.029737
   vertex 0.008632 0.322379 0.031716
  endloop
 endfacet
 facet normal 0.598657 0.435097 0.672533
  outer loop
   vertex 0.008632 0.322379 0.031716
   vertex 0.009132 0.32475 0.029737
   vertex 0.006722 0.325007 0.031716
  endloop
 endfacet
 facet normal 0.551379 0.584158 0.595601
  outer loop
   vertex 0.009132 0.32475 0.029737
   vertex 0.00709 0.326916 0.029503
   vertex 0.006722 0.325007 0.031716
  endloop
 endfacet
 facet normal 0.393627 0.662685 0.637108
  outer loop
   vertex 0.006722 0.325007 0.031716
   vertex 0.00709 0.326916 0.029503
   vertex 0.004578 0.326916 0.031055
  endloop
 endfacet
 facet normal 0.342493 0.758552 0.554344
  outer loop
   vertex 0.00709 0.326916 0.029503
   vertex 0.005014 0.328256 0.028952
   vertex 0.004578 0.326916 0.031055
  endloop
 endfacet
 facet normal -0.0482486 0.148392 0.987751
  outer loop
   vertex 0.003026 0.322139 0.034159
   vertex 0.000218 0.321226 0.034159
   vertex 0.00225 0.31975 0.03448
  endloop
 endfacet
 facet normal 0.0336945 0.400135 0.915836
  outer loop
   vertex 0.003875 0.32475 0.032987
   vertex 0.000868 0.324003 0.033424
   vertex 0.003026 0.322139 0.034159
  endloop
 endfacet
 facet normal 0.112009 0.640965 0.759354
  outer loop
   vertex 0.004578 0.326916 0.031055
   vertex 0.001722 0.326632 0.031716
   vertex 0.003875 0.32475 0.032987
  endloop
 endfacet
 facet normal -0.0891868 0.274301 0.957499
  outer loop
   vertex 0.003026 0.322139 0.034159
   vertex 0.000868 0.324003 0.033424
   vertex 0.000218 0.321226 0.034159
  endloop
 endfacet
 facet normal -0.262485 0.303841 0.915851
  outer loop
   vertex 0.000868 0.324003 0.033424
   vertex -0.002003 0.32284 0.032987
   vertex 0.000218 0.321226 0.034159
  endloop
 endfacet
 facet normal -0.0146149 0.548074 0.836302
  outer loop
   vertex 0.003875 0.32475 0.032987
   vertex 0.001722 0.326632 0.031716
   vertex 0.000868 0.324003 0.033424
  endloop
 endfacet
 facet normal -0.187559 0.577248 0.794737
  outer loop
   vertex 0.001722 0.326632 0.031716
   vertex -0.001368 0.325628 0.031716
   vertex 0.000868 0.324003 0.033424
  endloop
 endfacet
 facet normal -0.310374 0.451949 0.836307
  outer loop
   vertex 0.000868 0.324003 0.033424
   vertex -0.001368 0.325628 0.031716
   vertex -0.002003 0.32284 0.032987
  endloop
 endfacet
 facet normal -0.467426 0.452641 0.759361
  outer loop
   vertex -0.001368 0.325628 0.031716
   vertex -0.003845 0.324179 0.031055
   vertex -0.002003 0.32284 0.032987
  endloop
 endfacet
 facet normal 0.0710868 0.767617 0.636955
  outer loop
   vertex 0.004578 0.326916 0.031055
   vertex 0.002546 0.328392 0.029503
   vertex 0.001722 0.326632 0.031716
  endloop
 endfacet
 facet normal -0.102735 0.796801 0.595444
  outer loop
   vertex 0.002546 0.328392 0.029503
   vertex -0.000379 0.32784 0.029737
   vertex 0.001722 0.326632 0.031716
  endloop
 endfacet
 facet normal -0.228709 0.703897 0.672474
  outer loop
   vertex 0.001722 0.326632 0.031716
   vertex -0.000379 0.32784 0.029737
   vertex -0.001368 0.325628 0.031716
  endloop
 endfacet
 facet normal -0.38541 0.704977 0.595371
  outer loop
   vertex -0.000379 0.32784 0.029737
   vertex -0.003069 0.326567 0.029503
   vertex -0.001368 0.325628 0.031716
  endloop
 endfacet
 facet normal -0.508799 0.579247 0.636864
  outer loop
   vertex -0.001368 0.325628 0.031716
   vertex -0.003069 0.326567 0.029503
   vertex -0.003845 0.324179 0.031055
  endloop
 endfacet
 facet normal -0.61533 0.560308 0.554459
  outer loop
   vertex -0.003069 0.326567 0.029503
   vertex -0.004986 0.325007 0.028952
   vertex -0.003845 0.324179 0.031055
  endloop
 endfacet
 facet normal -0.156037 0 0.987751
  outer loop
   vertex 0.000218 0.321226 0.034159
   vertex 0.000218 0.318274 0.034159
   vertex 0.00225 0.31975 0.03448
  endloop
 endfacet
 facet normal -0.370096 0.155752 0.915844
  outer loop
   vertex -0.002003 0.32284 0.032987
   vertex -0.002222 0.31975 0.033424
   vertex 0.000218 0.321226 0.034159
  endloop
 endfacet
 facet normal -0.574948 0.304695 0.759339
  outer loop
   vertex -0.003845 0.324179 0.031055
   vertex -0.004458 0.321375 0.031716
   vertex -0.002003 0.32284 0.032987
  endloop
 endfacet
 facet normal -0.288428 0 0.957502
  outer loop
   vertex 0.000218 0.321226 0.034159
   vertex -0.002222 0.31975 0.033424
   vertex 0.000218 0.318274 0.034159
  endloop
 endfacet
 facet normal -0.370096 -0.155752 0.915844
  outer loop
   vertex -0.002222 0.31975 0.033424
   vertex -0.002003 0.31666 0.032987
   vertex 0.000218 0.318274 0.034159
  endloop
 endfacet
 facet normal -0.525774 0.155534 0.836284
  outer loop
   vertex -0.002003 0.32284 0.032987
   vertex -0.004458 0.321375 0.031716
   vertex -0.002222 0.31975 0.033424
  endloop
 endfacet
 facet normal -0.607028 0 0.794681
  outer loop
   vertex -0.004458 0.321375 0.031716
   vertex -0.004458 0.318125 0.031716
   vertex -0.002222 0.31975 0.033424
  endloop
 endfacet
 facet normal -0.525774 -0.155534 0.836284
  outer loop
   vertex -0.002222 0.31975 0.033424
   vertex -0.004458 0.318125 0.031716
   vertex -0.002003 0.31666 0.032987
  endloop
 endfacet
 facet normal -0.574948 -0.304695 0.759339
  outer loop
   vertex -0.004458 0.318125 0.031716
   vertex -0.003845 0.315321 0.031055
   vertex -0.002003 0.31666 0.032987
  endloop
 endfacet
 facet normal -0.708089 0.304936 0.636886
  outer loop
   vertex -0.003845 0.324179 0.031055
   vertex -0.005877 0.322702 0.029503
   vertex -0.004458 0.321375 0.031716
  endloop
 endfacet
 facet normal -0.789589 0.148568 0.59538
  outer loop
   vertex -0.005877 0.322702 0.029503
   vertex -0.006256 0.31975 0.029737
   vertex -0.004458 0.321375 0.031716
  endloop
 endfacet
 facet normal -0.740143 0 0.672449
  outer loop
   vertex -0.004458 0.321375 0.031716
   vertex -0.006256 0.31975 0.029737
   vertex -0.004458 0.318125 0.031716
  endloop
 endfacet
 facet normal -0.789589 -0.148568 0.59538
  outer loop
   vertex -0.006256 0.31975 0.029737
   vertex -0.005877 0.316798 0.029503
   vertex -0.004458 0.318125 0.031716
  endloop
 endfacet
 facet normal -0.708089 -0.304936 0.636886
  outer loop
   vertex -0.004458 0.318125 0.031716
   vertex -0.005877 0.316798 0.029503
   vertex -0.003845 0.315321 0.031055
  endloop
 endfacet
 facet normal -0.723015 -0.412034 0.554506
  outer loop
   vertex -0.005877 0.316798 0.029503
   vertex -0.004986 0.314493 0.028952
   vertex -0.003845 0.315321 0.031055
  endloop
 endfacet
 facet normal -0.0482486 -0.148392 0.987751
  outer loop
   vertex 0.000218 0.318274 0.034159
   vertex 0.003026 0.317361 0.034159
   vertex 0.00225 0.31975 0.03448
  endloop
 endfacet
 facet normal -0.262485 -0.303841 0.915851
  outer loop
   vertex -0.002003 0.31666 0.032987
   vertex 0.000868 0.315497 0.033424
   vertex 0.000218 0.318274 0.034159
  endloop
 endfacet
 facet normal -0.467426 -0.452641 0.759361
  outer loop
   vertex -0.003845 0.315321 0.031055
   vertex -0.001368 0.313872 0.031716
   vertex -0.002003 0.31666 0.032987
  endloop
 endfacet
 facet normal -0.0891868 -0.274301 0.957499
  outer loop
   vertex 0.000218 0.318274 0.034159
   vertex 0.000868 0.315497 0.033424
   vertex 0.003026 0.317361 0.034159
  endloop
 endfacet
 facet normal 0.0336945 -0.400135 0.915836
  outer loop
   vertex 0.000868 0.315497 0.033424
   vertex 0.003875 0.31475 0.032987
   vertex 0.003026 0.317361 0.034159
  endloop
 endfacet
 facet normal -0.310374 -0.451949 0.836307
  outer loop
   vertex -0.002003 0.31666 0.032987
   vertex -0.001368 0.313872 0.031716
   vertex 0.000868 0.315497 0.033424
  endloop
 endfacet
 facet normal -0.187559 -0.577248 0.794737
  outer loop
   vertex -0.001368 0.313872 0.031716
   vertex 0.001722 0.312868 0.031716
   vertex 0.000868 0.315497 0.033424
  endloop
 endfacet
 facet normal -0.0146149 -0.548074 0.836302
  outer loop
   vertex 0.000868 0.315497 0.033424
   vertex 0.001722 0.312868 0.031716
   vertex 0.003875 0.31475 0.032987
  endloop
 endfacet
 facet normal 0.112009 -0.640965 0.759354
  outer loop
   vertex 0.001722 0.312868 0.031716
   vertex 0.004578 0.312584 0.031055
   vertex 0.003875 0.31475 0.032987
  endloop
 endfacet
 facet normal -0.508799 -0.579247 0.636864
  outer loop
   vertex -0.003845 0.315321 0.031055
   vertex -0.003069 0.312933 0.029503
   vertex -0.001368 0.313872 0.031716
  endloop
 endfacet
 facet normal -0.38541 -0.704977 0.595371
  outer loop
   vertex -0.003069 0.312933 0.029503
   vertex -0.000379 0.31166 0.029737
   vertex -0.001368 0.313872 0.031716
  endloop
 endfacet
 facet normal -0.228709 -0.703897 0.672474
  outer loop
   vertex -0.001368 0.313872 0.031716
   vertex -0.000379 0.31166 0.029737
   vertex 0.001722 0.312868 0.031716
  endloop
 endfacet
 facet normal -0.102735 -0.796801 0.595444
  outer loop
   vertex -0.000379 0.31166 0.029737
   vertex 0.002546 0.311108 0.029503
   vertex 0.001722 0.312868 0.031716
  endloop
 endfacet
 facet normal 0.0710868 -0.767617 0.636955
  outer loop
   vertex 0.001722 0.312868 0.031716
   vertex 0.002546 0.311108 0.029503
   vertex 0.004578 0.312584 0.031055
  endloop
 endfacet
 facet normal 0.168666 -0.815046 0.554303
  outer loop
   vertex 0.002546 0.311108 0.029503
   vertex 0.005014 0.311244 0.028952
   vertex 0.004578 0.312584 0.031055
  endloop
 endfacet
 facet normal 0.126271 -0.0917039 0.987748
  outer loop
   vertex 0.003026 0.317361 0.034159
   vertex 0.004761 0.31975 0.034159
   vertex 0.00225 0.31975 0.03448
  endloop
 endfacet
 facet normal 0.207851 -0.343516 0.915858
  outer loop
   vertex 0.003875 0.31475 0.032987
   vertex 0.005868 0.317121 0.033424
   vertex 0.003026 0.317361 0.034159
  endloop
 endfacet
 facet normal 0.286233 -0.584386 0.759318
  outer loop
   vertex 0.004578 0.312584 0.031055
   vertex 0.006722 0.314493 0.031716
   vertex 0.003875 0.31475 0.032987
  endloop
 endfacet
 facet normal 0.233325 -0.169451 0.957521
  outer loop
   vertex 0.003026 0.317361 0.034159
   vertex 0.005868 0.317121 0.033424
   vertex 0.004761 0.31975 0.034159
  endloop
 endfacet
 facet normal 0.390899 -0.0914587 0.915878
  outer loop
   vertex 0.005868 0.317121 0.033424
   vertex 0.007507 0.31975 0.032987
   vertex 0.004761 0.31975 0.034159
  endloop
 endfacet
 facet normal 0.334054 -0.43492 0.836213
  outer loop
   vertex 0.003875 0.31475 0.032987
   vertex 0.006722 0.314493 0.031716
   vertex 0.005868 0.317121 0.033424
  endloop
 endfacet
 facet normal 0.491058 -0.356895 0.794662
  outer loop
   vertex 0.006722 0.314493 0.031716
   vertex 0.008632 0.317121 0.031716
   vertex 0.005868 0.317121 0.033424
  endloop
 endfacet
 facet normal 0.516783 -0.183167 0.836293
  outer loop
   vertex 0.005868 0.317121 0.033424
   vertex 0.008632 0.317121 0.031716
   vertex 0.007507 0.31975 0.032987
  endloop
 endfacet
 facet normal 0.644269 -0.0913996 0.759317
  outer loop
   vertex 0.008632 0.317121 0.031716
   vertex 0.009784 0.31975 0.031055
   vertex 0.007507 0.31975 0.032987
  endloop
 endfacet
 facet normal 0.393627 -0.662685 0.637108
  outer loop
   vertex 0.004578 0.312584 0.031055
   vertex 0.00709 0.312584 0.029503
   vertex 0.006722 0.314493 0.031716
  endloop
 endfacet
 facet normal 0.551379 -0.584158 0.595601
  outer loop
   vertex 0.00709 0.312584 0.029503
   vertex 0.009132 0.31475 0.029737
   vertex 0.006722 0.314493 0.031716
  endloop
 endfacet
 facet normal 0.598657 -0.435097 0.672533
  outer loop
   vertex 0.006722 0.314493 0.031716
   vertex 0.009132 0.31475 0.029737
   vertex 0.008632 0.317121 0.031716
  endloop
 endfacet
 facet normal 0.725985 -0.343961 0.595514
  outer loop
   vertex 0.009132 0.31475 0.029737
   vertex 0.010561 0.317361 0.029503
   vertex 0.008632 0.317121 0.031716
  endloop
 endfacet
 facet normal 0.751958 -0.169318 0.637095
  outer loop
   vertex 0.008632 0.317121 0.031716
   vertex 0.010561 0.317361 0.029503
   vertex 0.009784 0.31975 0.031055
  endloop
 endfacet
 facet normal 0.827124 -0.091254 0.554562
  outer loop
   vertex 0.010561 0.317361 0.029503
   vertex 0.011194 0.31975 0.028952
   vertex 0.009784 0.31975 0.031055
  endloop
 endfacet
 facet normal 0.905177 0.147939 0.398459
  outer loop
   vertex 0.011816 0.321226 0.026991
   vertex 0.010561 0.322139 0.029503
   vertex 0.011194 0.31975 0.028952
  endloop
 endfacet
 facet normal 0.93657 0.303801 0.17476
  outer loop
   vertex 0.011761 0.32284 0.02448
   vertex 0.010868 0.324003 0.027244
   vertex 0.011816 0.321226 0.026991
  endloop
 endfacet
 facet normal 0.888212 0.452708 -0.078331
  outer loop
   vertex 0.010857 0.324179 0.021968
   vertex 0.01034 0.325628 0.02448
   vertex 0.011761 0.32284 0.02448
  endloop
 endfacet
 facet normal 0.89641 0.274294 0.348155
  outer loop
   vertex 0.011816 0.321226 0.026991
   vertex 0.010868 0.324003 0.027244
   vertex 0.010561 0.322139 0.029503
  endloop
 endfacet
 facet normal 0.803858 0.400541 0.439749
  outer loop
   vertex 0.010868 0.324003 0.027244
   vertex 0.009132 0.32475 0.029737
   vertex 0.010561 0.322139 0.029503
  endloop
 endfacet
 facet normal 0.886806 0.451991 0.0963284
  outer loop
   vertex 0.011761 0.32284 0.02448
   vertex 0.01034 0.325628 0.02448
   vertex 0.010868 0.324003 0.027244
  endloop
 endfacet
 facet normal 0.794662 0.577331 0.18762
  outer loop
   vertex 0.01034 0.325628 0.02448
   vertex 0.008958 0.326632 0.027244
   vertex 0.010868 0.324003 0.027244
  endloop
 endfacet
 facet normal 0.754436 0.548107 0.361117
  outer loop
   vertex 0.010868 0.324003 0.027244
   vertex 0.008958 0.326632 0.027244
   vertex 0.009132 0.32475 0.029737
  endloop
 endfacet
 facet normal 0.629279 0.640767 0.439803
  outer loop
   vertex 0.008958 0.326632 0.027244
   vertex 0.00709 0.326916 0.029503
   vertex 0.009132 0.32475 0.029737
  endloop
 endfacet
 facet normal 0.797233 0.579229 -0.170037
  outer loop
   vertex 0.010857 0.324179 0.021968
   vertex 0.009122 0.326567 0.021968
   vertex 0.01034 0.325628 0.02448
  endloop
 endfacet
 facet normal 0.704936 0.704936 -0.0782949
  outer loop
   vertex 0.009122 0.326567 0.021968
   vertex 0.008128 0.32784 0.02448
   vertex 0.01034 0.325628 0.02448
  endloop
 endfacet
 facet normal 0.703824 0.703824 0.0962537
  outer loop
   vertex 0.01034 0.325628 0.02448
   vertex 0.008128 0.32784 0.02448
   vertex 0.008958 0.326632 0.027244
  endloop
 endfacet
 facet normal 0.578519 0.796783 0.174509
  outer loop
   vertex 0.008128 0.32784 0.02448
   vertex 0.00661 0.328392 0.026992
   vertex 0.008958 0.326632 0.027244
  endloop
 endfacet
 facet normal 0.537986 0.767602 0.348366
  outer loop
   vertex 0.008958 0.326632 0.027244
   vertex 0.00661 0.328392 0.026992
   vertex 0.00709 0.326916 0.029503
  endloop
 endfacet
 facet normal 0.420269 0.815078 0.398776
  outer loop
   vertex 0.00661 0.328392 0.026992
   vertex 0.005014 0.328256 0.028952
   vertex 0.00709 0.326916 0.029503
  endloop
 endfacet
 facet normal 0.138975 0.90647 0.398746
  outer loop
   vertex 0.003802 0.329304 0.026992
   vertex 0.002546 0.328392 0.029503
   vertex 0.005014 0.328256 0.028952
  endloop
 endfacet
 facet normal 0.000555151 0.98466 0.174481
  outer loop
   vertex 0.00225 0.32975 0.02448
   vertex 0.000868 0.329261 0.027244
   vertex 0.003802 0.329304 0.026992
  endloop
 endfacet
 facet normal -0.155824 0.984657 -0.07855
  outer loop
   vertex 0.000698 0.329304 0.021968
   vertex -0.00084 0.329261 0.02448
   vertex 0.00225 0.32975 0.02448
  endloop
 endfacet
 facet normal 0.0161962 0.937175 0.348485
  outer loop
   vertex 0.003802 0.329304 0.026992
   vertex 0.000868 0.329261 0.027244
   vertex 0.002546 0.328392 0.029503
  endloop
 endfacet
 facet normal -0.132412 0.888171 0.440021
  outer loop
   vertex 0.000868 0.329261 0.027244
   vertex -0.000379 0.32784 0.029737
   vertex 0.002546 0.328392 0.029503
  endloop
 endfacet
 facet normal -0.155583 0.983133 0.0961419
  outer loop
   vertex 0.00225 0.32975 0.02448
   vertex -0.00084 0.329261 0.02448
   vertex 0.000868 0.329261 0.027244
  endloop
 endfacet
 facet normal -0.303796 0.934059 0.187729
  outer loop
   vertex -0.00084 0.329261 0.02448
   vertex -0.002222 0.328256 0.027244
   vertex 0.000868 0.329261 0.027244
  endloop
 endfacet
 facet normal -0.288415 0.886769 0.361189
  outer loop
   vertex 0.000868 0.329261 0.027244
   vertex -0.002222 0.328256 0.027244
   vertex -0.000379 0.32784 0.029737
  endloop
 endfacet
 facet normal -0.415138 0.796394 0.439791
  outer loop
   vertex -0.002222 0.328256 0.027244
   vertex -0.003069 0.326567 0.029503
   vertex -0.000379 0.32784 0.029737
  endloop
 endfacet
 facet normal -0.304389 0.937197 -0.170322
  outer loop
   vertex 0.000698 0.329304 0.021968
   vertex -0.00211 0.328392 0.021968
   vertex -0.00084 0.329261 0.02448
  endloop
 endfacet
 facet normal -0.452705 0.888208 -0.0783901
  outer loop
   vertex -0.00211 0.328392 0.021968
   vertex -0.003628 0.32784 0.02448
   vertex -0.00084 0.329261 0.02448
  endloop
 endfacet
 facet normal -0.451986 0.886796 0.0964489
  outer loop
   vertex -0.00084 0.329261 0.02448
   vertex -0.003628 0.32784 0.02448
   vertex -0.002222 0.328256 0.027244
  endloop
 endfacet
 facet normal -0.578874 0.796508 0.174584
  outer loop
   vertex -0.003628 0.32784 0.02448
   vertex -0.004622 0.326567 0.026992
   vertex -0.002222 0.328256 0.027244
  endloop
 endfacet
 facet normal -0.563623 0.748876 0.348589
  outer loop
   vertex -0.002222 0.328256 0.027244
   vertex -0.004622 0.326567 0.026992
   vertex -0.003069 0.326567 0.029503
  endloop
 endfacet
 facet normal -0.645038 0.651744 0.398942
  outer loop
   vertex -0.004622 0.326567 0.026992
   vertex -0.004986 0.325007 0.028952
   vertex -0.003069 0.326567 0.029503
  endloop
 endfacet
 facet normal -0.819189 0.412026 0.398954
  outer loop
   vertex -0.006357 0.324179 0.026992
   vertex -0.005877 0.322702 0.029503
   vertex -0.004986 0.325007 0.028952
  endloop
 endfacet
 facet normal -0.936352 0.304548 0.174631
  outer loop
   vertex -0.007261 0.32284 0.02448
   vertex -0.007222 0.321375 0.027244
   vertex -0.006357 0.324179 0.026992
  endloop
 endfacet
 facet normal -0.984653 0.155824 -0.0785916
  outer loop
   vertex -0.007316 0.321226 0.021969
   vertex -0.00775 0.31975 0.02448
   vertex -0.007261 0.32284 0.02448
  endloop
 endfacet
 facet normal -0.886309 0.304753 0.348685
  outer loop
   vertex -0.006357 0.324179 0.026992
   vertex -0.007222 0.321375 0.027244
   vertex -0.005877 0.322702 0.029503
  endloop
 endfacet
 facet normal -0.885615 0.148581 0.440011
  outer loop
   vertex -0.007222 0.321375 0.027244
   vertex -0.006256 0.31975 0.029737
   vertex -0.005877 0.322702 0.029503
  endloop
 endfacet
 facet normal -0.983115 0.15558 0.0963335
  outer loop
   vertex -0.007261 0.32284 0.02448
   vertex -0.00775 0.31975 0.02448
   vertex -0.007222 0.321375 0.027244
  endloop
 endfacet
 facet normal -0.982239 0 0.187634
  outer loop
   vertex -0.00775 0.31975 0.02448
   vertex -0.007222 0.318125 0.027244
   vertex -0.007222 0.321375 0.027244
  endloop
 endfacet
 facet normal -0.932446 0 0.361309
  outer loop
   vertex -0.007222 0.321375 0.027244
   vertex -0.007222 0.318125 0.027244
   vertex -0.006256 0.31975 0.029737
  endloop
 endfacet
 facet normal -0.885615 -0.148581 0.440011
  outer loop
   vertex -0.007222 0.318125 0.027244
   vertex -0.005877 0.316798 0.029503
   vertex -0.006256 0.31975 0.029737
  endloop
 endfacet
 facet normal -0.98539 -0 -0.170314
  outer loop
   vertex -0.007316 0.321226 0.021969
   vertex -0.007316 0.318274 0.021969
   vertex -0.00775 0.31975 0.02448
  endloop
 endfacet
 facet normal -0.984653 -0.155824 -0.0785916
  outer loop
   vertex -0.007316 0.318274 0.021969
   vertex -0.007261 0.31666 0.02448
   vertex -0.00775 0.31975 0.02448
  endloop
 endfacet
 facet normal -0.983115 -0.15558 0.0963335
  outer loop
   vertex -0.00775 0.31975 0.02448
   vertex -0.007261 0.31666 0.02448
   vertex -0.007222 0.318125 0.027244
  endloop
 endfacet
 facet normal -0.936352 -0.304548 0.174631
  outer loop
   vertex -0.007261 0.31666 0.02448
   vertex -0.006357 0.315321 0.026992
   vertex -0.007222 0.318125 0.027244
  endloop
 endfacet
 facet normal -0.886309 -0.304753 0.348685
  outer loop
   vertex -0.007222 0.318125 0.027244
   vertex -0.006357 0.315321 0.026992
   vertex -0.005877 0.316798 0.029503
  endloop
 endfacet
 facet normal -0.819189 -0.412026 0.398954
  outer loop
   vertex -0.006357 0.315321 0.026992
   vertex -0.004986 0.314493 0.028952
   vertex -0.005877 0.316798 0.029503
  endloop
 endfacet
 facet normal -0.645038 -0.651744 0.398942
  outer loop
   vertex -0.004622 0.312933 0.026992
   vertex -0.003069 0.312933 0.029503
   vertex -0.004986 0.314493 0.028952
  endloop
 endfacet
 facet normal -0.578874 -0.796508 0.174584
  outer loop
   vertex -0.003628 0.31166 0.02448
   vertex -0.002222 0.311244 0.027244
   vertex -0.004622 0.312933 0.026992
  endloop
 endfacet
 facet normal -0.452705 -0.888208 -0.0783901
  outer loop
   vertex -0.00211 0.311108 0.021968
   vertex -0.00084 0.310239 0.02448
   vertex -0.003628 0.31166 0.02448
  endloop
 endfacet
 facet normal -0.563623 -0.748876 0.348589
  outer loop
   vertex -0.004622 0.312933 0.026992
   vertex -0.002222 0.311244 0.027244
   vertex -0.003069 0.312933 0.029503
  endloop
 endfacet
 facet normal -0.415138 -0.796394 0.439791
  outer loop
   vertex -0.002222 0.311244 0.027244
   vertex -0.000379 0.31166 0.029737
   vertex -0.003069 0.312933 0.029503
  endloop
 endfacet
 facet normal -0.451986 -0.886796 0.0964489
  outer loop
   vertex -0.003628 0.31166 0.02448
   vertex -0.00084 0.310239 0.02448
   vertex -0.002222 0.311244 0.027244
  endloop
 endfacet
 facet normal -0.303796 -0.934059 0.187729
  outer loop
   vertex -0.00084 0.310239 0.02448
   vertex 0.000868 0.310239 0.027244
   vertex -0.002222 0.311244 0.027244
  endloop
 endfacet
 facet normal -0.288415 -0.886769 0.361189
  outer loop
   vertex -0.002222 0.311244 0.027244
   vertex 0.000868 0.310239 0.027244
   vertex -0.000379 0.31166 0.029737
  endloop
 endfacet
 facet normal -0.132412 -0.888171 0.440021
  outer loop
   vertex 0.000868 0.310239 0.027244
   vertex 0.002546 0.311108 0.029503
   vertex -0.000379 0.31166 0.029737
  endloop
 endfacet
 facet normal -0.304389 -0.937197 -0.170322
  outer loop
   vertex -0.00211 0.311108 0.021968
   vertex 0.000698 0.310196 0.021968
   vertex -0.00084 0.310239 0.02448
  endloop
 endfacet
 facet normal -0.155824 -0.984657 -0.07855
  outer loop
   vertex 0.000698 0.310196 0.021968
   vertex 0.00225 0.30975 0.02448
   vertex -0.00084 0.310239 0.02448
  endloop
 endfacet
 facet normal -0.155583 -0.983133 0.0961419
  outer loop
   vertex -0.00084 0.310239 0.02448
   vertex 0.00225 0.30975 0.02448
   vertex 0.000868 0.310239 0.027244
  endloop
 endfacet
 facet normal 0.000555151 -0.98466 0.174481
  outer loop
   vertex 0.00225 0.30975 0.02448
   vertex 0.003802 0.310196 0.026992
   vertex 0.000868 0.310239 0.027244
  endloop
 endfacet
 facet normal 0.0161962 -0.937175 0.348485
  outer loop
   vertex 0.000868 0.310239 0.027244
   vertex 0.003802 0.310196 0.026992
   vertex 0.002546 0.311108 0.029503
  endloop
 endfacet
 facet normal 0.138975 -0.90647 0.398746
  outer loop
   vertex 0.003802 0.310196 0.026992
   vertex 0.005014 0.311244 0.028952
   vertex 0.002546 0.311108 0.029503
  endloop
 endfacet
 facet normal 0.420269 -0.815078 0.398776
  outer loop
   vertex 0.00661 0.311108 0.026992
   vertex 0.00709 0.312584 0.029503
   vertex 0.005014 0.311244 0.028952
  endloop
 endfacet
 facet normal 0.578519 -0.796783 0.174509
  outer loop
   vertex 0.008128 0.31166 0.02448
   vertex 0.008958 0.312868 0.027244
   vertex 0.00661 0.311108 0.026992
  endloop
 endfacet
 facet normal 0.704936 -0.704936 -0.0782949
  outer loop
   vertex 0.009122 0.312933 0.021968
   vertex 0.01034 0.313872 0.02448
   vertex 0.008128 0.31166 0.02448
  endloop
 endfacet
 facet normal 0.537986 -0.767602 0.348366
  outer loop
   vertex 0.00661 0.311108 0.026992
   vertex 0.008958 0.312868 0.027244
   vertex 0.00709 0.312584 0.029503
  endloop
 endfacet
 facet normal 0.629279 -0.640767 0.439803
  outer loop
   vertex 0.008958 0.312868 0.027244
   vertex 0.009132 0.31475 0.029737
   vertex 0.00709 0.312584 0.029503
  endloop
 endfacet
 facet normal 0.703824 -0.703824 0.0962537
  outer loop
   vertex 0.008128 0.31166 0.02448
   vertex 0.01034 0.313872 0.02448
   vertex 0.008958 0.312868 0.027244
  endloop
 endfacet
 facet normal 0.794662 -0.577331 0.18762
  outer loop
   vertex 0.01034 0.313872 0.02448
   vertex 0.010868 0.315497 0.027244
   vertex 0.008958 0.312868 0.027244
  endloop
 endfacet
 facet normal 0.754436 -0.548107 0.361117
  outer loop
   vertex 0.008958 0.312868 0.027244
   vertex 0.010868 0.315497 0.027244
   vertex 0.009132 0.31475 0.029737
  endloop
 endfacet
 facet normal 0.803858 -0.400541 0.439749
  outer loop
   vertex 0.010868 0.315497 0.027244
   vertex 0.010561 0.317361 0.029503
   vertex 0.009132 0.31475 0.029737
  endloop
 endfacet
 facet normal 0.797233 -0.579229 -0.170037
  outer loop
   vertex 0.009122 0.312933 0.021968
   vertex 0.010857 0.315321 0.021968
   vertex 0.01034 0.313872 0.02448
  endloop
 endfacet
 facet normal 0.888212 -0.452708 -0.078331
  outer loop
   vertex 0.010857 0.315321 0.021968
   vertex 0.011761 0.31666 0.02448
   vertex 0.01034 0.313872 0.02448
  endloop
 endfacet
 facet normal 0.886806 -0.451991 0.0963284
  outer loop
   vertex 0.01034 0.313872 0.02448
   vertex 0.011761 0.31666 0.02448
   vertex 0.010868 0.315497 0.027244
  endloop
 endfacet
 facet normal 0.93657 -0.303801 0.17476
  outer loop
   vertex 0.011761 0.31666 0.02448
   vertex 0.011816 0.318274 0.026991
   vertex 0.010868 0.315497 0.027244
  endloop
 endfacet
 facet normal 0.89641 -0.274294 0.348155
  outer loop
   vertex 0.010868 0.315497 0.027244
   vertex 0.011816 0.318274 0.026991
   vertex 0.010561 0.317361 0.029503
  endloop
 endfacet
 facet normal 0.905177 -0.147939 0.398459
  outer loop
   vertex 0.011816 0.318274 0.026991
   vertex 0.011194 0.31975 0.028952
   vertex 0.010561 0.317361 0.029503
  endloop
 endfacet
 facet normal 0.294416 0.906493 0.302638
  outer loop
   vertex 0.00661 0.328392 0.026992
   vertex 0.003802 0.329304 0.026992
   vertex 0.005014 0.328256 0.028952
  endloop
 endfacet
 facet normal 0.452705 0.888208 0.0783901
  outer loop
   vertex 0.008128 0.32784 0.02448
   vertex 0.00534 0.329261 0.02448
   vertex 0.00661 0.328392 0.026992
  endloop
 endfacet
 facet normal 0.578874 0.796508 -0.174584
  outer loop
   vertex 0.009122 0.326567 0.021968
   vertex 0.006722 0.328256 0.021716
   vertex 0.008128 0.32784 0.02448
  endloop
 endfacet
 facet normal 0.304389 0.937197 0.170322
  outer loop
   vertex 0.00661 0.328392 0.026992
   vertex 0.00534 0.329261 0.02448
   vertex 0.003802 0.329304 0.026992
  endloop
 endfacet
 facet normal 0.155824 0.984657 0.07855
  outer loop
   vertex 0.00534 0.329261 0.02448
   vertex 0.00225 0.32975 0.02448
   vertex 0.003802 0.329304 0.026992
  endloop
 endfacet
 facet normal 0.451986 0.886796 -0.0964489
  outer loop
   vertex 0.008128 0.32784 0.02448
   vertex 0.006722 0.328256 0.021716
   vertex 0.00534 0.329261 0.02448
  endloop
 endfacet
 facet normal 0.303796 0.934059 -0.187729
  outer loop
   vertex 0.006722 0.328256 0.021716
   vertex 0.003632 0.329261 0.021716
   vertex 0.00534 0.329261 0.02448
  endloop
 endfacet
 facet normal 0.155583 0.983133 -0.0961419
  outer loop
   vertex 0.00534 0.329261 0.02448
   vertex 0.003632 0.329261 0.021716
   vertex 0.00225 0.32975 0.02448
  endloop
 endfacet
 facet normal -0.000555151 0.98466 -0.174481
  outer loop
   vertex 0.003632 0.329261 0.021716
   vertex 0.000698 0.329304 0.021968
   vertex 0.00225 0.32975 0.02448
  endloop
 endfacet
 facet normal 0.563623 0.748876 -0.348589
  outer loop
   vertex 0.009122 0.326567 0.021968
   vertex 0.007569 0.326567 0.019457
   vertex 0.006722 0.328256 0.021716
  endloop
 endfacet
 facet normal 0.415138 0.796394 -0.439791
  outer loop
   vertex 0.007569 0.326567 0.019457
   vertex 0.004879 0.32784 0.019223
   vertex 0.006722 0.328256 0.021716
  endloop
 endfacet
 facet normal 0.288415 0.886769 -0.361189
  outer loop
   vertex 0.006722 0.328256 0.021716
   vertex 0.004879 0.32784 0.019223
   vertex 0.003632 0.329261 0.021716
  endloop
 endfacet
 facet normal 0.132412 0.888171 -0.440021
  outer loop
   vertex 0.004879 0.32784 0.019223
   vertex 0.001954 0.328392 0.019457
   vertex 0.003632 0.329261 0.021716
  endloop
 endfacet
 facet normal -0.0161962 0.937175 -0.348485
  outer loop
   vertex 0.003632 0.329261 0.021716
   vertex 0.001954 0.328392 0.019457
   vertex 0.000698 0.329304 0.021968
  endloop
 endfacet
 facet normal -0.138975 0.90647 -0.398746
  outer loop
   vertex 0.001954 0.328392 0.019457
   vertex -0.000514 0.328256 0.020008
   vertex 0.000698 0.329304 0.021968
  endloop
 endfacet
 facet normal -0.771063 0.560215 0.302688
  outer loop
   vertex -0.004622 0.326567 0.026992
   vertex -0.006357 0.324179 0.026992
   vertex -0.004986 0.325007 0.028952
  endloop
 endfacet
 facet normal -0.704936 0.704936 0.0782949
  outer loop
   vertex -0.003628 0.32784 0.02448
   vertex -0.00584 0.325628 0.02448
   vertex -0.004622 0.326567 0.026992
  endloop
 endfacet
 facet normal -0.578519 0.796783 -0.174509
  outer loop
   vertex -0.00211 0.328392 0.021968
   vertex -0.004458 0.326632 0.021716
   vertex -0.003628 0.32784 0.02448
  endloop
 endfacet
 facet normal -0.797233 0.579229 0.170037
  outer loop
   vertex -0.004622 0.326567 0.026992
   vertex -0.00584 0.325628 0.02448
   vertex -0.006357 0.324179 0.026992
  endloop
 endfacet
 facet normal -0.888212 0.452708 0.078331
  outer loop
   vertex -0.00584 0.325628 0.02448
   vertex -0.007261 0.32284 0.02448
   vertex -0.006357 0.324179 0.026992
  endloop
 endfacet
 facet normal -0.703824 0.703824 -0.0962537
  outer loop
   vertex -0.003628 0.32784 0.02448
   vertex -0.004458 0.326632 0.021716
   vertex -0.00584 0.325628 0.02448
  endloop
 endfacet
 facet normal -0.794662 0.577331 -0.18762
  outer loop
   vertex -0.004458 0.326632 0.021716
   vertex -0.006368 0.324003 0.021716
   vertex -0.00584 0.325628 0.02448
  endloop
 endfacet
 facet normal -0.886806 0.451991 -0.0963284
  outer loop
   vertex -0.00584 0.325628 0.02448
   vertex -0.006368 0.324003 0.021716
   vertex -0.007261 0.32284 0.02448
  endloop
 endfacet
 facet normal -0.93657 0.303801 -0.17476
  outer loop
   vertex -0.006368 0.324003 0.021716
   vertex -0.007316 0.321226 0.021969
   vertex -0.007261 0.32284 0.02448
  endloop
 endfacet
 facet normal -0.537986 0.767602 -0.348366
  outer loop
   vertex -0.00211 0.328392 0.021968
   vertex -0.00259 0.326916 0.019457
   vertex -0.004458 0.326632 0.021716
  endloop
 endfacet
 facet normal -0.629279 0.640767 -0.439803
  outer loop
   vertex -0.00259 0.326916 0.019457
   vertex -0.004632 0.32475 0.019223
   vertex -0.004458 0.326632 0.021716
  endloop
 endfacet
 facet normal -0.754436 0.548107 -0.361117
  outer loop
   vertex -0.004458 0.326632 0.021716
   vertex -0.004632 0.32475 0.019223
   vertex -0.006368 0.324003 0.021716
  endloop
 endfacet
 facet normal -0.803858 0.400541 -0.439749
  outer loop
   vertex -0.004632 0.32475 0.019223
   vertex -0.006061 0.322139 0.019457
   vertex -0.006368 0.324003 0.021716
  endloop
 endfacet
 facet normal -0.89641 0.274294 -0.348155
  outer loop
   vertex -0.006368 0.324003 0.021716
   vertex -0.006061 0.322139 0.019457
   vertex -0.007316 0.321226 0.021969
  endloop
 endfacet
 facet normal -0.905177 0.147939 -0.398459
  outer loop
   vertex -0.006061 0.322139 0.019457
   vertex -0.006694 0.31975 0.020008
   vertex -0.007316 0.321226 0.021969
  endloop
 endfacet
 facet normal -0.771063 -0.560215 0.302688
  outer loop
   vertex -0.006357 0.315321 0.026992
   vertex -0.004622 0.312933 0.026992
   vertex -0.004986 0.314493 0.028952
  endloop
 endfacet
 facet normal -0.888212 -0.452708 0.078331
  outer loop
   vertex -0.007261 0.31666 0.02448
   vertex -0.00584 0.313872 0.02448
   vertex -0.006357 0.315321 0.026992
  endloop
 endfacet
 facet normal -0.93657 -0.303801 -0.17476
  outer loop
   vertex -0.007316 0.318274 0.021969
   vertex -0.006368 0.315497 0.021716
   vertex -0.007261 0.31666 0.02448
  endloop
 endfacet
 facet normal -0.797233 -0.579229 0.170037
  outer loop
   vertex -0.006357 0.315321 0.026992
   vertex -0.00584 0.313872 0.02448
   vertex -0.004622 0.312933 0.026992
  endloop
 endfacet
 facet normal -0.704936 -0.704936 0.0782949
  outer loop
   vertex -0.00584 0.313872 0.02448
   vertex -0.003628 0.31166 0.02448
   vertex -0.004622 0.312933 0.026992
  endloop
 endfacet
 facet normal -0.886806 -0.451991 -0.0963284
  outer loop
   vertex -0.007261 0.31666 0.02448
   vertex -0.006368 0.315497 0.021716
   vertex -0.00584 0.313872 0.02448
  endloop
 endfacet
 facet normal -0.794662 -0.577331 -0.18762
  outer loop
   vertex -0.006368 0.315497 0.021716
   vertex -0.004458 0.312868 0.021716
   vertex -0.00584 0.313872 0.02448
  endloop
 endfacet
 facet normal -0.703824 -0.703824 -0.0962537
  outer loop
   vertex -0.00584 0.313872 0.02448
   vertex -0.004458 0.312868 0.021716
   vertex -0.003628 0.31166 0.02448
  endloop
 endfacet
 facet normal -0.578519 -0.796783 -0.174509
  outer loop
   vertex -0.004458 0.312868 0.021716
   vertex -0.00211 0.311108 0.021968
   vertex -0.003628 0.31166 0.02448
  endloop
 endfacet
 facet normal -0.89641 -0.274294 -0.348155
  outer loop
   vertex -0.007316 0.318274 0.021969
   vertex -0.006061 0.317361 0.019457
   vertex -0.006368 0.315497 0.021716
  endloop
 endfacet
 facet normal -0.803858 -0.400541 -0.439749
  outer loop
   vertex -0.006061 0.317361 0.019457
   vertex -0.004632 0.31475 0.019223
   vertex -0.006368 0.315497 0.021716
  endloop
 endfacet
 facet normal -0.754436 -0.548107 -0.361117
  outer loop
   vertex -0.006368 0.315497 0.021716
   vertex -0.004632 0.31475 0.019223
   vertex -0.004458 0.312868 0.021716
  endloop
 endfacet
 facet normal -0.629279 -0.640767 -0.439803
  outer loop
   vertex -0.004632 0.31475 0.019223
   vertex -0.00259 0.312584 0.019457
   vertex -0.004458 0.312868 0.021716
  endloop
 endfacet
 facet normal -0.537986 -0.767602 -0.348366
  outer loop
   vertex -0.004458 0.312868 0.021716
   vertex -0.00259 0.312584 0.019457
   vertex -0.00211 0.311108 0.021968
  endloop
 endfacet
 facet normal -0.420269 -0.815078 -0.398776
  outer loop
   vertex -0.00259 0.312584 0.019457
   vertex -0.000514 0.311244 0.020008
   vertex -0.00211 0.311108 0.021968
  endloop
 endfacet
 facet normal 0.294416 -0.906493 0.302638
  outer loop
   vertex 0.003802 0.310196 0.026992
   vertex 0.00661 0.311108 0.026992
   vertex 0.005014 0.311244 0.028952
  endloop
 endfacet
 facet normal 0.155824 -0.984657 0.07855
  outer loop
   vertex 0.00225 0.30975 0.02448
   vertex 0.00534 0.310239 0.02448
   vertex 0.003802 0.310196 0.026992
  endloop
 endfacet
 facet normal -0.000555151 -0.98466 -0.174481
  outer loop
   vertex 0.000698 0.310196 0.021968
   vertex 0.003632 0.310239 0.021716
   vertex 0.00225 0.30975 0.02448
  endloop
 endfacet
 facet normal 0.304389 -0.937197 0.170322
  outer loop
   vertex 0.003802 0.310196 0.026992
   vertex 0.00534 0.310239 0.02448
   vertex 0.00661 0.311108 0.026992
  endloop
 endfacet
 facet normal 0.452705 -0.888208 0.0783901
  outer loop
   vertex 0.00534 0.310239 0.02448
   vertex 0.008128 0.31166 0.02448
   vertex 0.00661 0.311108 0.026992
  endloop
 endfacet
 facet normal 0.155583 -0.983133 -0.0961419
  outer loop
   vertex 0.00225 0.30975 0.02448
   vertex 0.003632 0.310239 0.021716
   vertex 0.00534 0.310239 0.02448
  endloop
 endfacet
 facet normal 0.303796 -0.934059 -0.187729
  outer loop
   vertex 0.003632 0.310239 0.021716
   vertex 0.006722 0.311244 0.021716
   vertex 0.00534 0.310239 0.02448
  endloop
 endfacet
 facet normal 0.451986 -0.886796 -0.0964489
  outer loop
   vertex 0.00534 0.310239 0.02448
   vertex 0.006722 0.311244 0.021716
   vertex 0.008128 0.31166 0.02448
  endloop
 endfacet
 facet normal 0.578874 -0.796508 -0.174584
  outer loop
   vertex 0.006722 0.311244 0.021716
   vertex 0.009122 0.312933 0.021968
   vertex 0.008128 0.31166 0.02448
  endloop
 endfacet
 facet normal -0.0161962 -0.937175 -0.348485
  outer loop
   vertex 0.000698 0.310196 0.021968
   vertex 0.001954 0.311108 0.019457
   vertex 0.003632 0.310239 0.021716
  endloop
 endfacet
 facet normal 0.132412 -0.888171 -0.440021
  outer loop
   vertex 0.001954 0.311108 0.019457
   vertex 0.004879 0.31166 0.019223
   vertex 0.003632 0.310239 0.021716
  endloop
 endfacet
 facet normal 0.288415 -0.886769 -0.361189
  outer loop
   vertex 0.003632 0.310239 0.021716
   vertex 0.004879 0.31166 0.019223
   vertex 0.006722 0.311244 0.021716
  endloop
 endfacet
 facet normal 0.415138 -0.796394 -0.439791
  outer loop
   vertex 0.004879 0.31166 0.019223
   vertex 0.007569 0.312933 0.019457
   vertex 0.006722 0.311244 0.021716
  endloop
 endfacet
 facet normal 0.563623 -0.748876 -0.348589
  outer loop
   vertex 0.006722 0.311244 0.021716
   vertex 0.007569 0.312933 0.019457
   vertex 0.009122 0.312933 0.021968
  endloop
 endfacet
 facet normal 0.645038 -0.651744 -0.398942
  outer loop
   vertex 0.007569 0.312933 0.019457
   vertex 0.009486 0.314493 0.020008
   vertex 0.009122 0.312933 0.021968
  endloop
 endfacet
 facet normal 0.9532 -0 0.302341
  outer loop
   vertex 0.011816 0.318274 0.026991
   vertex 0.011816 0.321226 0.026991
   vertex 0.011194 0.31975 0.028952
  endloop
 endfacet
 facet normal 0.984653 -0.155824 0.0785916
  outer loop
   vertex 0.011761 0.31666 0.02448
   vertex 0.01225 0.31975 0.02448
   vertex 0.011816 0.318274 0.026991
  endloop
 endfacet
 facet normal 0.936352 -0.304548 -0.174631
  outer loop
   vertex 0.010857 0.315321 0.021968
   vertex 0.011722 0.318125 0.021716
   vertex 0.011761 0.31666 0.02448
  endloop
 endfacet
 facet normal 0.98539 -0 0.170314
  outer loop
   vertex 0.011816 0.318274 0.026991
   vertex 0.01225 0.31975 0.02448
   vertex 0.011816 0.321226 0.026991
  endloop
 endfacet
 facet normal 0.984653 0.155824 0.0785916
  outer loop
   vertex 0.01225 0.31975 0.02448
   vertex 0.011761 0.32284 0.02448
   vertex 0.011816 0.321226 0.026991
  endloop
 endfacet
 facet normal 0.983115 -0.15558 -0.0963335
  outer loop
   vertex 0.011761 0.31666 0.02448
   vertex 0.011722 0.318125 0.021716
   vertex 0.01225 0.31975 0.02448
  endloop
 endfacet
 facet normal 0.982239 0 -0.187634
  outer loop
   vertex 0.011722 0.318125 0.021716
   vertex 0.011722 0.321375 0.021716
   vertex 0.01225 0.31975 0.02448
  endloop
 endfacet
 facet normal 0.983115 0.15558 -0.0963335
  outer loop
   vertex 0.01225 0.31975 0.02448
   vertex 0.011722 0.321375 0.021716
   vertex 0.011761 0.32284 0.02448
  endloop
 endfacet
 facet normal 0.936352 0.304548 -0.174631
  outer loop
   vertex 0.011722 0.321375 0.021716
   vertex 0.010857 0.324179 0.021968
   vertex 0.011761 0.32284 0.02448
  endloop
 endfacet
 facet normal 0.886309 -0.304753 -0.348685
  outer loop
   vertex 0.010857 0.315321 0.021968
   vertex 0.010377 0.316798 0.019457
   vertex 0.011722 0.318125 0.021716
  endloop
 endfacet
 facet normal 0.885615 -0.148581 -0.440011
  outer loop
   vertex 0.010377 0.316798 0.019457
   vertex 0.010756 0.31975 0.019223
   vertex 0.011722 0.318125 0.021716
  endloop
 endfacet
 facet normal 0.932446 0 -0.361309
  outer loop
   vertex 0.011722 0.318125 0.021716
   vertex 0.010756 0.31975 0.019223
   vertex 0.011722 0.321375 0.021716
  endloop
 endfacet
 facet normal 0.885615 0.148581 -0.440011
  outer loop
   vertex 0.010756 0.31975 0.019223
   vertex 0.010377 0.322702 0.019457
   vertex 0.011722 0.321375 0.021716
  endloop
 endfacet
 facet normal 0.886309 0.304753 -0.348685
  outer loop
   vertex 0.011722 0.321375 0.021716
   vertex 0.010377 0.322702 0.019457
   vertex 0.010857 0.324179 0.021968
  endloop
 endfacet
 facet normal 0.819189 0.412026 -0.398954
  outer loop
   vertex 0.010377 0.322702 0.019457
   vertex 0.009486 0.325007 0.020008
   vertex 0.010857 0.324179 0.021968
  endloop
 endfacet
 facet normal 0.61533 0.560308 -0.554459
  outer loop
   vertex 0.008345 0.324179 0.017905
   vertex 0.007569 0.326567 0.019457
   vertex 0.009486 0.325007 0.020008
  endloop
 endfacet
 facet normal 0.467426 0.452641 -0.759361
  outer loop
   vertex 0.006503 0.32284 0.015973
   vertex 0.005868 0.325628 0.017244
   vertex 0.008345 0.324179 0.017905
  endloop
 endfacet
 facet normal 0.262485 0.303841 -0.915851
  outer loop
   vertex 0.004282 0.321226 0.014801
   vertex 0.003632 0.324003 0.015536
   vertex 0.006503 0.32284 0.015973
  endloop
 endfacet
 facet normal 0.508799 0.579247 -0.636864
  outer loop
   vertex 0.008345 0.324179 0.017905
   vertex 0.005868 0.325628 0.017244
   vertex 0.007569 0.326567 0.019457
  endloop
 endfacet
 facet normal 0.38541 0.704977 -0.595371
  outer loop
   vertex 0.005868 0.325628 0.017244
   vertex 0.004879 0.32784 0.019223
   vertex 0.007569 0.326567 0.019457
  endloop
 endfacet
 facet normal 0.310374 0.451949 -0.836307
  outer loop
   vertex 0.006503 0.32284 0.015973
   vertex 0.003632 0.324003 0.015536
   vertex 0.005868 0.325628 0.017244
  endloop
 endfacet
 facet normal 0.187559 0.577248 -0.794737
  outer loop
   vertex 0.003632 0.324003 0.015536
   vertex 0.002778 0.326632 0.017244
   vertex 0.005868 0.325628 0.017244
  endloop
 endfacet
 facet normal 0.228709 0.703897 -0.672474
  outer loop
   vertex 0.005868 0.325628 0.017244
   vertex 0.002778 0.326632 0.017244
   vertex 0.004879 0.32784 0.019223
  endloop
 endfacet
 facet normal 0.102735 0.796801 -0.595444
  outer loop
   vertex 0.002778 0.326632 0.017244
   vertex 0.001954 0.328392 0.019457
   vertex 0.004879 0.32784 0.019223
  endloop
 endfacet
 facet normal 0.0891868 0.274301 -0.957499
  outer loop
   vertex 0.004282 0.321226 0.014801
   vertex 0.001474 0.322139 0.014801
   vertex 0.003632 0.324003 0.015536
  endloop
 endfacet
 facet normal -0.0336945 0.400135 -0.915836
  outer loop
   vertex 0.001474 0.322139 0.014801
   vertex 0.000625 0.32475 0.015973
   vertex 0.003632 0.324003 0.015536
  endloop
 endfacet
 facet normal 0.0146149 0.548074 -0.836302
  outer loop
   vertex 0.003632 0.324003 0.015536
   vertex 0.000625 0.32475 0.015973
   vertex 0.002778 0.326632 0.017244
  endloop
 endfacet
 facet normal -0.112009 0.640965 -0.759354
  outer loop
   vertex 0.000625 0.32475 0.015973
   vertex -7.8e-05 0.326916 0.017905
   vertex 0.002778 0.326632 0.017244
  endloop
 endfacet
 facet normal -0.0710868 0.767617 -0.636955
  outer loop
   vertex 0.002778 0.326632 0.017244
   vertex -7.8e-05 0.326916 0.017905
   vertex 0.001954 0.328392 0.019457
  endloop
 endfacet
 facet normal -0.168666 0.815046 -0.554303
  outer loop
   vertex -7.8e-05 0.326916 0.017905
   vertex -0.000514 0.328256 0.020008
   vertex 0.001954 0.328392 0.019457
  endloop
 endfacet
 facet normal -0.342493 0.758552 -0.554344
  outer loop
   vertex -7.8e-05 0.326916 0.017905
   vertex -0.00259 0.326916 0.019457
   vertex -0.000514 0.328256 0.020008
  endloop
 endfacet
 facet normal -0.286233 0.584386 -0.759318
  outer loop
   vertex 0.000625 0.32475 0.015973
   vertex -0.002222 0.325007 0.017244
   vertex -7.8e-05 0.326916 0.017905
  endloop
 endfacet
 facet normal -0.207851 0.343516 -0.915858
  outer loop
   vertex 0.001474 0.322139 0.014801
   vertex -0.001368 0.322379 0.015536
   vertex 0.000625 0.32475 0.015973
  endloop
 endfacet
 facet normal -0.393627 0.662685 -0.637108
  outer loop
   vertex -7.8e-05 0.326916 0.017905
   vertex -0.002222 0.325007 0.017244
   vertex -0.00259 0.326916 0.019457
  endloop
 endfacet
 facet normal -0.551379 0.584158 -0.595601
  outer loop
   vertex -0.002222 0.325007 0.017244
   vertex -0.004632 0.32475 0.019223
   vertex -0.00259 0.326916 0.019457
  endloop
 endfacet
 facet normal -0.334054 0.43492 -0.836213
  outer loop
   vertex 0.000625 0.32475 0.015973
   vertex -0.001368 0.322379 0.015536
   vertex -0.002222 0.325007 0.017244
  endloop
 endfacet
 facet normal -0.491058 0.356895 -0.794662
  outer loop
   vertex -0.001368 0.322379 0.015536
   vertex -0.004132 0.322379 0.017244
   vertex -0.002222 0.325007 0.017244
  endloop
 endfacet
 facet normal -0.598657 0.435097 -0.672533
  outer loop
   vertex -0.002222 0.325007 0.017244
   vertex -0.004132 0.322379 0.017244
   vertex -0.004632 0.32475 0.019223
  endloop
 endfacet
 facet normal -0.725985 0.343961 -0.595514
  outer loop
   vertex -0.004132 0.322379 0.017244
   vertex -0.006061 0.322139 0.019457
   vertex -0.004632 0.32475 0.019223
  endloop
 endfacet
 facet normal -0.233325 0.169451 -0.957521
  outer loop
   vertex 0.001474 0.322139 0.014801
   vertex -0.000261 0.31975 0.014801
   vertex -0.001368 0.322379 0.015536
  endloop
 endfacet
 facet normal -0.390899 0.0914587 -0.915878
  outer loop
   vertex -0.000261 0.31975 0.014801
   vertex -0.003007 0.31975 0.015973
   vertex -0.001368 0.322379 0.015536
  endloop
 endfacet
 facet normal -0.516783 0.183167 -0.836293
  outer loop
   vertex -0.001368 0.322379 0.015536
   vertex -0.003007 0.31975 0.015973
   vertex -0.004132 0.322379 0.017244
  endloop
 endfacet
 facet normal -0.644269 0.0913996 -0.759317
  outer loop
   vertex -0.003007 0.31975 0.015973
   vertex -0.005284 0.31975 0.017905
   vertex -0.004132 0.322379 0.017244
  endloop
 endfacet
 facet normal -0.751958 0.169318 -0.637095
  outer loop
   vertex -0.004132 0.322379 0.017244
   vertex -0.005284 0.31975 0.017905
   vertex -0.006061 0.322139 0.019457
  endloop
 endfacet
 facet normal -0.827124 0.091254 -0.554562
  outer loop
   vertex -0.005284 0.31975 0.017905
   vertex -0.006694 0.31975 0.020008
   vertex -0.006061 0.322139 0.019457
  endloop
 endfacet
 facet normal -0.827124 -0.091254 -0.554562
  outer loop
   vertex -0.005284 0.31975 0.017905
   vertex -0.006061 0.317361 0.019457
   vertex -0.006694 0.31975 0.020008
  endloop
 endfacet
 facet normal -0.644269 -0.0913996 -0.759317
  outer loop
   vertex -0.003007 0.31975 0.015973
   vertex -0.004132 0.317121 0.017244
   vertex -0.005284 0.31975 0.017905
  endloop
 endfacet
 facet normal -0.390899 -0.0914587 -0.915878
  outer loop
   vertex -0.000261 0.31975 0.014801
   vertex -0.001368 0.317121 0.015536
   vertex -0.003007 0.31975 0.015973
  endloop
 endfacet
 facet normal -0.751958 -0.169318 -0.637095
  outer loop
   vertex -0.005284 0.31975 0.017905
   vertex -0.004132 0.317121 0.017244
   vertex -0.006061 0.317361 0.019457
  endloop
 endfacet
 facet normal -0.725985 -0.343961 -0.595514
  outer loop
   vertex -0.004132 0.317121 0.017244
   vertex -0.004632 0.31475 0.019223
   vertex -0.006061 0.317361 0.019457
  endloop
 endfacet
 facet normal -0.516783 -0.183167 -0.836293
  outer loop
   vertex -0.003007 0.31975 0.015973
   vertex -0.001368 0.317121 0.015536
   vertex -0.004132 0.317121 0.017244
  endloop
 endfacet
 facet normal -0.491058 -0.356895 -0.794662
  outer loop
   vertex -0.001368 0.317121 0.015536
   vertex -0.002222 0.314493 0.017244
   vertex -0.004132 0.317121 0.017244
  endloop
 endfacet
 facet normal -0.598657 -0.435097 -0.672533
  outer loop
   vertex -0.004132 0.317121 0.017244
   vertex -0.002222 0.314493 0.017244
   vertex -0.004632 0.31475 0.019223
  endloop
 endfacet
 facet normal -0.551379 -0.584158 -0.595601
  outer loop
   vertex -0.002222 0.314493 0.017244
   vertex -0.00259 0.312584 0.019457
   vertex -0.004632 0.31475 0.019223
  endloop
 endfacet
 facet normal -0.233325 -0.169451 -0.957521
  outer loop
   vertex -0.000261 0.31975 0.014801
   vertex 0.001474 0.317361 0.014801
   vertex -0.001368 0.317121 0.015536
  endloop
 endfacet
 facet normal -0.207851 -0.343516 -0.915858
  outer loop
   vertex 0.001474 0.317361 0.014801
   vertex 0.000625 0.31475 0.015973
   vertex -0.001368 0.317121 0.015536
  endloop
 endfacet
 facet normal -0.334054 -0.43492 -0.836213
  outer loop
   vertex -0.001368 0.317121 0.015536
   vertex 0.000625 0.31475 0.015973
   vertex -0.002222 0.314493 0.017244
  endloop
 endfacet
 facet normal -0.286233 -0.584386 -0.759318
  outer loop
   vertex 0.000625 0.31475 0.015973
   vertex -7.8e-05 0.312584 0.017905
   vertex -0.002222 0.314493 0.017244
  endloop
 endfacet
 facet normal -0.393627 -0.662685 -0.637108
  outer loop
   vertex -0.002222 0.314493 0.017244
   vertex -7.8e-05 0.312584 0.017905
   vertex -0.00259 0.312584 0.019457
  endloop
 endfacet
 facet normal -0.342493 -0.758552 -0.554344
  outer loop
   vertex -7.8e-05 0.312584 0.017905
   vertex -0.000514 0.311244 0.020008
   vertex -0.00259 0.312584 0.019457
  endloop
 endfacet
 facet normal 0.723015 0.412034 -0.554506
  outer loop
   vertex 0.010377 0.322702 0.019457
   vertex 0.008345 0.324179 0.017905
   vertex 0.009486 0.325007 0.020008
  endloop
 endfacet
 facet normal 0.789589 0.148568 -0.59538
  outer loop
   vertex 0.010756 0.31975 0.019223
   vertex 0.008958 0.321375 0.017244
   vertex 0.010377 0.322702 0.019457
  endloop
 endfacet
 facet normal 0.789589 -0.148568 -0.59538
  outer loop
   vertex 0.010377 0.316798 0.019457
   vertex 0.008958 0.318125 0.017244
   vertex 0.010756 0.31975 0.019223
  endloop
 endfacet
 facet normal 0.708089 0.304936 -0.636886
  outer loop
   vertex 0.010377 0.322702 0.019457
   vertex 0.008958 0.321375 0.017244
   vertex 0.008345 0.324179 0.017905
  endloop
 endfacet
 facet normal 0.574948 0.304695 -0.759339
  outer loop
   vertex 0.008958 0.321375 0.017244
   vertex 0.006503 0.32284 0.015973
   vertex 0.008345 0.324179 0.017905
  endloop
 endfacet
 facet normal 0.740143 0 -0.672449
  outer loop
   vertex 0.010756 0.31975 0.019223
   vertex 0.008958 0.318125 0.017244
   vertex 0.008958 0.321375 0.017244
  endloop
 endfacet
 facet normal 0.607028 0 -0.794681
  outer loop
   vertex 0.008958 0.318125 0.017244
   vertex 0.006722 0.31975 0.015536
   vertex 0.008958 0.321375 0.017244
  endloop
 endfacet
 facet normal 0.525774 0.155534 -0.836284
  outer loop
   vertex 0.008958 0.321375 0.017244
   vertex 0.006722 0.31975 0.015536
   vertex 0.006503 0.32284 0.015973
  endloop
 endfacet
 facet normal 0.370096 0.155752 -0.915844
  outer loop
   vertex 0.006722 0.31975 0.015536
   vertex 0.004282 0.321226 0.014801
   vertex 0.006503 0.32284 0.015973
  endloop
 endfacet
 facet normal 0.708089 -0.304936 -0.636886
  outer loop
   vertex 0.010377 0.316798 0.019457
   vertex 0.008345 0.315321 0.017905
   vertex 0.008958 0.318125 0.017244
  endloop
 endfacet
 facet normal 0.574948 -0.304695 -0.759339
  outer loop
   vertex 0.008345 0.315321 0.017905
   vertex 0.006503 0.31666 0.015973
   vertex 0.008958 0.318125 0.017244
  endloop
 endfacet
 facet normal 0.525774 -0.155534 -0.836284
  outer loop
   vertex 0.008958 0.318125 0.017244
   vertex 0.006503 0.31666 0.015973
   vertex 0.006722 0.31975 0.015536
  endloop
 endfacet
 facet normal 0.370096 -0.155752 -0.915844
  outer loop
   vertex 0.006503 0.31666 0.015973
   vertex 0.004282 0.318274 0.014801
   vertex 0.006722 0.31975 0.015536
  endloop
 endfacet
 facet normal 0.288428 0 -0.957502
  outer loop
   vertex 0.006722 0.31975 0.015536
   vertex 0.004282 0.318274 0.014801
   vertex 0.004282 0.321226 0.014801
  endloop
 endfacet
 facet normal 0.156037 0 -0.987751
  outer loop
   vertex 0.004282 0.318274 0.014801
   vertex 0.00225 0.31975 0.01448
   vertex 0.004282 0.321226 0.014801
  endloop
 endfacet
 facet normal -0.168666 -0.815046 -0.554303
  outer loop
   vertex -7.8e-05 0.312584 0.017905
   vertex 0.001954 0.311108 0.019457
   vertex -0.000514 0.311244 0.020008
  endloop
 endfacet
 facet normal -0.112009 -0.640965 -0.759354
  outer loop
   vertex 0.000625 0.31475 0.015973
   vertex 0.002778 0.312868 0.017244
   vertex -7.8e-05 0.312584 0.017905
  endloop
 endfacet
 facet normal -0.0336945 -0.400135 -0.915836
  outer loop
   vertex 0.001474 0.317361 0.014801
   vertex 0.003632 0.315497 0.015536
   vertex 0.000625 0.31475 0.015973
  endloop
 endfacet
 facet normal -0.0710868 -0.767617 -0.636955
  outer loop
   vertex -7.8e-05 0.312584 0.017905
   vertex 0.002778 0.312868 0.017244
   vertex 0.001954 0.311108 0.019457
  endloop
 endfacet
 facet normal 0.102735 -0.796801 -0.595444
  outer loop
   vertex 0.002778 0.312868 0.017244
   vertex 0.004879 0.31166 0.019223
   vertex 0.001954 0.311108 0.019457
  endloop
 endfacet
 facet normal 0.0146149 -0.548074 -0.836302
  outer loop
   vertex 0.000625 0.31475 0.015973
   vertex 0.003632 0.315497 0.015536
   vertex 0.002778 0.312868 0.017244
  endloop
 endfacet
 facet normal 0.187559 -0.577248 -0.794737
  outer loop
   vertex 0.003632 0.315497 0.015536
   vertex 0.005868 0.313872 0.017244
   vertex 0.002778 0.312868 0.017244
  endloop
 endfacet
 facet normal 0.228709 -0.703897 -0.672474
  outer loop
   vertex 0.002778 0.312868 0.017244
   vertex 0.005868 0.313872 0.017244
   vertex 0.004879 0.31166 0.019223
  endloop
 endfacet
 facet normal 0.38541 -0.704977 -0.595371
  outer loop
   vertex 0.005868 0.313872 0.017244
   vertex 0.007569 0.312933 0.019457
   vertex 0.004879 0.31166 0.019223
  endloop
 endfacet
 facet normal 0.0891868 -0.274301 -0.957499
  outer loop
   vertex 0.001474 0.317361 0.014801
   vertex 0.004282 0.318274 0.014801
   vertex 0.003632 0.315497 0.015536
  endloop
 endfacet
 facet normal 0.262485 -0.303841 -0.915851
  outer loop
   vertex 0.004282 0.318274 0.014801
   vertex 0.006503 0.31666 0.015973
   vertex 0.003632 0.315497 0.015536
  endloop
 endfacet
 facet normal 0.310374 -0.451949 -0.836307
  outer loop
   vertex 0.003632 0.315497 0.015536
   vertex 0.006503 0.31666 0.015973
   vertex 0.005868 0.313872 0.017244
  endloop
 endfacet
 facet normal 0.467426 -0.452641 -0.759361
  outer loop
   vertex 0.006503 0.31666 0.015973
   vertex 0.008345 0.315321 0.017905
   vertex 0.005868 0.313872 0.017244
  endloop
 endfacet
 facet normal 0.508799 -0.579247 -0.636864
  outer loop
   vertex 0.005868 0.313872 0.017244
   vertex 0.008345 0.315321 0.017905
   vertex 0.007569 0.312933 0.019457
  endloop
 endfacet
 facet normal 0.61533 -0.560308 -0.554459
  outer loop
   vertex 0.008345 0.315321 0.017905
   vertex 0.009486 0.314493 0.020008
   vertex 0.007569 0.312933 0.019457
  endloop
 endfacet
endsolid ExportedfromBlender-3.5.1
