solid ExportedfromBlender-3.5.1
 facet normal 0.0482486 -0.148392 -0.987751
  outer loop
   vertex 0.01926 0.2048 0.00552
   vertex 0.021292 0.203324 0.005841
   vertex 0.018484 0.202411 0.005841
  endloop
 endfacet
 facet normal 0.723015 -0.412034 -0.554506
  outer loop
   vertex 0.026496 0.199543 0.011048
   vertex 0.025355 0.200371 0.008945
   vertex 0.027387 0.201848 0.010497
  endloop
 endfacet
 facet normal -0.126271 -0.0917039 -0.987748
  outer loop
   vertex 0.01926 0.2048 0.00552
   vertex 0.018484 0.202411 0.005841
   vertex 0.016749 0.2048 0.005841
  endloop
 endfacet
 facet normal -0.126271 0.0917039 -0.987748
  outer loop
   vertex 0.01926 0.2048 0.00552
   vertex 0.016749 0.2048 0.005841
   vertex 0.018484 0.207189 0.005841
  endloop
 endfacet
 facet normal 0.0482486 0.148392 -0.987751
  outer loop
   vertex 0.01926 0.2048 0.00552
   vertex 0.018484 0.207189 0.005841
   vertex 0.021292 0.206276 0.005841
  endloop
 endfacet
 facet normal 0.819189 -0.412026 -0.398954
  outer loop
   vertex 0.026496 0.199543 0.011048
   vertex 0.027387 0.201848 0.010497
   vertex 0.027867 0.200371 0.013008
  endloop
 endfacet
 facet normal -0.138975 -0.90647 -0.398746
  outer loop
   vertex 0.016496 0.196294 0.011048
   vertex 0.018964 0.196158 0.010497
   vertex 0.017708 0.195246 0.013008
  endloop
 endfacet
 facet normal -0.905177 -0.147939 -0.398459
  outer loop
   vertex 0.010316 0.2048 0.011048
   vertex 0.010949 0.202411 0.010497
   vertex 0.009694 0.203324 0.013009
  endloop
 endfacet
 facet normal -0.420269 0.815078 -0.398776
  outer loop
   vertex 0.016496 0.213306 0.011048
   vertex 0.01442 0.211966 0.010497
   vertex 0.0149 0.213442 0.013008
  endloop
 endfacet
 facet normal 0.645038 0.651744 -0.398942
  outer loop
   vertex 0.026496 0.210057 0.011048
   vertex 0.024579 0.211617 0.010497
   vertex 0.026132 0.211617 0.013008
  endloop
 endfacet
 facet normal 0.771063 -0.560215 -0.302688
  outer loop
   vertex 0.026496 0.199543 0.011048
   vertex 0.027867 0.200371 0.013008
   vertex 0.026132 0.197983 0.013008
  endloop
 endfacet
 facet normal -0.294416 -0.906493 -0.302638
  outer loop
   vertex 0.016496 0.196294 0.011048
   vertex 0.017708 0.195246 0.013008
   vertex 0.0149 0.196158 0.013008
  endloop
 endfacet
 facet normal -0.9532 0 -0.302341
  outer loop
   vertex 0.010316 0.2048 0.011048
   vertex 0.009694 0.203324 0.013009
   vertex 0.009694 0.206276 0.013009
  endloop
 endfacet
 facet normal -0.294416 0.906493 -0.302638
  outer loop
   vertex 0.016496 0.213306 0.011048
   vertex 0.0149 0.213442 0.013008
   vertex 0.017708 0.214354 0.013008
  endloop
 endfacet
 facet normal 0.771063 0.560215 -0.302688
  outer loop
   vertex 0.026496 0.210057 0.011048
   vertex 0.026132 0.211617 0.013008
   vertex 0.027867 0.209229 0.013008
  endloop
 endfacet
 facet normal 0.342493 -0.758552 0.554344
  outer loop
   vertex 0.022024 0.196294 0.019992
   vertex 0.0241 0.197634 0.020543
   vertex 0.021588 0.197634 0.022095
  endloop
 endfacet
 facet normal -0.61533 -0.560308 0.554459
  outer loop
   vertex 0.012024 0.199543 0.019992
   vertex 0.013941 0.197983 0.020543
   vertex 0.013165 0.200371 0.022095
  endloop
 endfacet
 facet normal -0.723015 0.412034 0.554506
  outer loop
   vertex 0.012024 0.210057 0.019992
   vertex 0.011133 0.207752 0.020543
   vertex 0.013165 0.209229 0.022095
  endloop
 endfacet
 facet normal 0.168666 0.815046 0.554303
  outer loop
   vertex 0.022024 0.213306 0.019992
   vertex 0.019556 0.213442 0.020543
   vertex 0.021588 0.211966 0.022095
  endloop
 endfacet
 facet normal 0.827124 0.091254 0.554562
  outer loop
   vertex 0.028204 0.2048 0.019992
   vertex 0.027571 0.207189 0.020543
   vertex 0.026794 0.2048 0.022095
  endloop
 endfacet
 facet normal 0.126271 0.0917039 0.987748
  outer loop
   vertex 0.021771 0.2048 0.025199
   vertex 0.020036 0.207189 0.025199
   vertex 0.01926 0.2048 0.02552
  endloop
 endfacet
 facet normal 0.390899 0.0914587 0.915878
  outer loop
   vertex 0.024517 0.2048 0.024027
   vertex 0.022878 0.207429 0.024464
   vertex 0.021771 0.2048 0.025199
  endloop
 endfacet
 facet normal 0.644269 0.0913996 0.759317
  outer loop
   vertex 0.026794 0.2048 0.022095
   vertex 0.025642 0.207429 0.022756
   vertex 0.024517 0.2048 0.024027
  endloop
 endfacet
 facet normal 0.233325 0.169451 0.957521
  outer loop
   vertex 0.021771 0.2048 0.025199
   vertex 0.022878 0.207429 0.024464
   vertex 0.020036 0.207189 0.025199
  endloop
 endfacet
 facet normal 0.207851 0.343516 0.915858
  outer loop
   vertex 0.022878 0.207429 0.024464
   vertex 0.020885 0.2098 0.024027
   vertex 0.020036 0.207189 0.025199
  endloop
 endfacet
 facet normal 0.516783 0.183167 0.836293
  outer loop
   vertex 0.024517 0.2048 0.024027
   vertex 0.025642 0.207429 0.022756
   vertex 0.022878 0.207429 0.024464
  endloop
 endfacet
 facet normal 0.491058 0.356895 0.794662
  outer loop
   vertex 0.025642 0.207429 0.022756
   vertex 0.023732 0.210057 0.022756
   vertex 0.022878 0.207429 0.024464
  endloop
 endfacet
 facet normal 0.334054 0.43492 0.836213
  outer loop
   vertex 0.022878 0.207429 0.024464
   vertex 0.023732 0.210057 0.022756
   vertex 0.020885 0.2098 0.024027
  endloop
 endfacet
 facet normal 0.286233 0.584386 0.759318
  outer loop
   vertex 0.023732 0.210057 0.022756
   vertex 0.021588 0.211966 0.022095
   vertex 0.020885 0.2098 0.024027
  endloop
 endfacet
 facet normal 0.751958 0.169318 0.637095
  outer loop
   vertex 0.026794 0.2048 0.022095
   vertex 0.027571 0.207189 0.020543
   vertex 0.025642 0.207429 0.022756
  endloop
 endfacet
 facet normal 0.725985 0.343961 0.595514
  outer loop
   vertex 0.027571 0.207189 0.020543
   vertex 0.026142 0.2098 0.020777
   vertex 0.025642 0.207429 0.022756
  endloop
 endfacet
 facet normal 0.598657 0.435097 0.672533
  outer loop
   vertex 0.025642 0.207429 0.022756
   vertex 0.026142 0.2098 0.020777
   vertex 0.023732 0.210057 0.022756
  endloop
 endfacet
 facet normal 0.551379 0.584158 0.595601
  outer loop
   vertex 0.026142 0.2098 0.020777
   vertex 0.0241 0.211966 0.020543
   vertex 0.023732 0.210057 0.022756
  endloop
 endfacet
 facet normal 0.393627 0.662685 0.637108
  outer loop
   vertex 0.023732 0.210057 0.022756
   vertex 0.0241 0.211966 0.020543
   vertex 0.021588 0.211966 0.022095
  endloop
 endfacet
 facet normal 0.342493 0.758552 0.554344
  outer loop
   vertex 0.0241 0.211966 0.020543
   vertex 0.022024 0.213306 0.019992
   vertex 0.021588 0.211966 0.022095
  endloop
 endfacet
 facet normal -0.0482486 0.148392 0.987751
  outer loop
   vertex 0.020036 0.207189 0.025199
   vertex 0.017228 0.206276 0.025199
   vertex 0.01926 0.2048 0.02552
  endloop
 endfacet
 facet normal 0.0336945 0.400135 0.915836
  outer loop
   vertex 0.020885 0.2098 0.024027
   vertex 0.017878 0.209053 0.024464
   vertex 0.020036 0.207189 0.025199
  endloop
 endfacet
 facet normal 0.112009 0.640965 0.759354
  outer loop
   vertex 0.021588 0.211966 0.022095
   vertex 0.018732 0.211682 0.022756
   vertex 0.020885 0.2098 0.024027
  endloop
 endfacet
 facet normal -0.0891868 0.274301 0.957499
  outer loop
   vertex 0.020036 0.207189 0.025199
   vertex 0.017878 0.209053 0.024464
   vertex 0.017228 0.206276 0.025199
  endloop
 endfacet
 facet normal -0.262485 0.303841 0.915851
  outer loop
   vertex 0.017878 0.209053 0.024464
   vertex 0.015007 0.20789 0.024027
   vertex 0.017228 0.206276 0.025199
  endloop
 endfacet
 facet normal -0.0146149 0.548074 0.836302
  outer loop
   vertex 0.020885 0.2098 0.024027
   vertex 0.018732 0.211682 0.022756
   vertex 0.017878 0.209053 0.024464
  endloop
 endfacet
 facet normal -0.187559 0.577248 0.794737
  outer loop
   vertex 0.018732 0.211682 0.022756
   vertex 0.015642 0.210678 0.022756
   vertex 0.017878 0.209053 0.024464
  endloop
 endfacet
 facet normal -0.310374 0.451949 0.836307
  outer loop
   vertex 0.017878 0.209053 0.024464
   vertex 0.015642 0.210678 0.022756
   vertex 0.015007 0.20789 0.024027
  endloop
 endfacet
 facet normal -0.467426 0.452641 0.759361
  outer loop
   vertex 0.015642 0.210678 0.022756
   vertex 0.013165 0.209229 0.022095
   vertex 0.015007 0.20789 0.024027
  endloop
 endfacet
 facet normal 0.0710868 0.767617 0.636955
  outer loop
   vertex 0.021588 0.211966 0.022095
   vertex 0.019556 0.213442 0.020543
   vertex 0.018732 0.211682 0.022756
  endloop
 endfacet
 facet normal -0.102735 0.796801 0.595444
  outer loop
   vertex 0.019556 0.213442 0.020543
   vertex 0.016631 0.21289 0.020777
   vertex 0.018732 0.211682 0.022756
  endloop
 endfacet
 facet normal -0.228709 0.703897 0.672474
  outer loop
   vertex 0.018732 0.211682 0.022756
   vertex 0.016631 0.21289 0.020777
   vertex 0.015642 0.210678 0.022756
  endloop
 endfacet
 facet normal -0.38541 0.704977 0.595371
  outer loop
   vertex 0.016631 0.21289 0.020777
   vertex 0.013941 0.211617 0.020543
   vertex 0.015642 0.210678 0.022756
  endloop
 endfacet
 facet normal -0.508799 0.579247 0.636864
  outer loop
   vertex 0.015642 0.210678 0.022756
   vertex 0.013941 0.211617 0.020543
   vertex 0.013165 0.209229 0.022095
  endloop
 endfacet
 facet normal -0.61533 0.560308 0.554459
  outer loop
   vertex 0.013941 0.211617 0.020543
   vertex 0.012024 0.210057 0.019992
   vertex 0.013165 0.209229 0.022095
  endloop
 endfacet
 facet normal -0.156037 0 0.987751
  outer loop
   vertex 0.017228 0.206276 0.025199
   vertex 0.017228 0.203324 0.025199
   vertex 0.01926 0.2048 0.02552
  endloop
 endfacet
 facet normal -0.370096 0.155752 0.915844
  outer loop
   vertex 0.015007 0.20789 0.024027
   vertex 0.014788 0.2048 0.024464
   vertex 0.017228 0.206276 0.025199
  endloop
 endfacet
 facet normal -0.574948 0.304695 0.759339
  outer loop
   vertex 0.013165 0.209229 0.022095
   vertex 0.012552 0.206425 0.022756
   vertex 0.015007 0.20789 0.024027
  endloop
 endfacet
 facet normal -0.288428 0 0.957502
  outer loop
   vertex 0.017228 0.206276 0.025199
   vertex 0.014788 0.2048 0.024464
   vertex 0.017228 0.203324 0.025199
  endloop
 endfacet
 facet normal -0.370096 -0.155752 0.915844
  outer loop
   vertex 0.014788 0.2048 0.024464
   vertex 0.015007 0.20171 0.024027
   vertex 0.017228 0.203324 0.025199
  endloop
 endfacet
 facet normal -0.525774 0.155534 0.836284
  outer loop
   vertex 0.015007 0.20789 0.024027
   vertex 0.012552 0.206425 0.022756
   vertex 0.014788 0.2048 0.024464
  endloop
 endfacet
 facet normal -0.607028 0 0.794681
  outer loop
   vertex 0.012552 0.206425 0.022756
   vertex 0.012552 0.203175 0.022756
   vertex 0.014788 0.2048 0.024464
  endloop
 endfacet
 facet normal -0.525774 -0.155534 0.836284
  outer loop
   vertex 0.014788 0.2048 0.024464
   vertex 0.012552 0.203175 0.022756
   vertex 0.015007 0.20171 0.024027
  endloop
 endfacet
 facet normal -0.574948 -0.304695 0.759339
  outer loop
   vertex 0.012552 0.203175 0.022756
   vertex 0.013165 0.200371 0.022095
   vertex 0.015007 0.20171 0.024027
  endloop
 endfacet
 facet normal -0.708089 0.304936 0.636886
  outer loop
   vertex 0.013165 0.209229 0.022095
   vertex 0.011133 0.207752 0.020543
   vertex 0.012552 0.206425 0.022756
  endloop
 endfacet
 facet normal -0.789589 0.148568 0.59538
  outer loop
   vertex 0.011133 0.207752 0.020543
   vertex 0.010754 0.2048 0.020777
   vertex 0.012552 0.206425 0.022756
  endloop
 endfacet
 facet normal -0.740143 0 0.672449
  outer loop
   vertex 0.012552 0.206425 0.022756
   vertex 0.010754 0.2048 0.020777
   vertex 0.012552 0.203175 0.022756
  endloop
 endfacet
 facet normal -0.789589 -0.148568 0.59538
  outer loop
   vertex 0.010754 0.2048 0.020777
   vertex 0.011133 0.201848 0.020543
   vertex 0.012552 0.203175 0.022756
  endloop
 endfacet
 facet normal -0.708089 -0.304936 0.636886
  outer loop
   vertex 0.012552 0.203175 0.022756
   vertex 0.011133 0.201848 0.020543
   vertex 0.013165 0.200371 0.022095
  endloop
 endfacet
 facet normal -0.723015 -0.412034 0.554506
  outer loop
   vertex 0.011133 0.201848 0.020543
   vertex 0.012024 0.199543 0.019992
   vertex 0.013165 0.200371 0.022095
  endloop
 endfacet
 facet normal -0.0482486 -0.148392 0.987751
  outer loop
   vertex 0.017228 0.203324 0.025199
   vertex 0.020036 0.202411 0.025199
   vertex 0.01926 0.2048 0.02552
  endloop
 endfacet
 facet normal -0.262485 -0.303841 0.915851
  outer loop
   vertex 0.015007 0.20171 0.024027
   vertex 0.017878 0.200547 0.024464
   vertex 0.017228 0.203324 0.025199
  endloop
 endfacet
 facet normal -0.467426 -0.452641 0.759361
  outer loop
   vertex 0.013165 0.200371 0.022095
   vertex 0.015642 0.198922 0.022756
   vertex 0.015007 0.20171 0.024027
  endloop
 endfacet
 facet normal -0.0891868 -0.274301 0.957499
  outer loop
   vertex 0.017228 0.203324 0.025199
   vertex 0.017878 0.200547 0.024464
   vertex 0.020036 0.202411 0.025199
  endloop
 endfacet
 facet normal 0.0336945 -0.400135 0.915836
  outer loop
   vertex 0.017878 0.200547 0.024464
   vertex 0.020885 0.1998 0.024027
   vertex 0.020036 0.202411 0.025199
  endloop
 endfacet
 facet normal -0.310374 -0.451949 0.836307
  outer loop
   vertex 0.015007 0.20171 0.024027
   vertex 0.015642 0.198922 0.022756
   vertex 0.017878 0.200547 0.024464
  endloop
 endfacet
 facet normal -0.187559 -0.577248 0.794737
  outer loop
   vertex 0.015642 0.198922 0.022756
   vertex 0.018732 0.197918 0.022756
   vertex 0.017878 0.200547 0.024464
  endloop
 endfacet
 facet normal -0.0146149 -0.548074 0.836302
  outer loop
   vertex 0.017878 0.200547 0.024464
   vertex 0.018732 0.197918 0.022756
   vertex 0.020885 0.1998 0.024027
  endloop
 endfacet
 facet normal 0.112009 -0.640965 0.759354
  outer loop
   vertex 0.018732 0.197918 0.022756
   vertex 0.021588 0.197634 0.022095
   vertex 0.020885 0.1998 0.024027
  endloop
 endfacet
 facet normal -0.508799 -0.579247 0.636864
  outer loop
   vertex 0.013165 0.200371 0.022095
   vertex 0.013941 0.197983 0.020543
   vertex 0.015642 0.198922 0.022756
  endloop
 endfacet
 facet normal -0.38541 -0.704977 0.595371
  outer loop
   vertex 0.013941 0.197983 0.020543
   vertex 0.016631 0.19671 0.020777
   vertex 0.015642 0.198922 0.022756
  endloop
 endfacet
 facet normal -0.228709 -0.703897 0.672474
  outer loop
   vertex 0.015642 0.198922 0.022756
   vertex 0.016631 0.19671 0.020777
   vertex 0.018732 0.197918 0.022756
  endloop
 endfacet
 facet normal -0.102735 -0.796801 0.595444
  outer loop
   vertex 0.016631 0.19671 0.020777
   vertex 0.019556 0.196158 0.020543
   vertex 0.018732 0.197918 0.022756
  endloop
 endfacet
 facet normal 0.0710868 -0.767617 0.636955
  outer loop
   vertex 0.018732 0.197918 0.022756
   vertex 0.019556 0.196158 0.020543
   vertex 0.021588 0.197634 0.022095
  endloop
 endfacet
 facet normal 0.168666 -0.815046 0.554303
  outer loop
   vertex 0.019556 0.196158 0.020543
   vertex 0.022024 0.196294 0.019992
   vertex 0.021588 0.197634 0.022095
  endloop
 endfacet
 facet normal 0.126271 -0.0917039 0.987748
  outer loop
   vertex 0.020036 0.202411 0.025199
   vertex 0.021771 0.2048 0.025199
   vertex 0.01926 0.2048 0.02552
  endloop
 endfacet
 facet normal 0.207851 -0.343516 0.915858
  outer loop
   vertex 0.020885 0.1998 0.024027
   vertex 0.022878 0.202171 0.024464
   vertex 0.020036 0.202411 0.025199
  endloop
 endfacet
 facet normal 0.286233 -0.584386 0.759318
  outer loop
   vertex 0.021588 0.197634 0.022095
   vertex 0.023732 0.199543 0.022756
   vertex 0.020885 0.1998 0.024027
  endloop
 endfacet
 facet normal 0.233325 -0.169451 0.957521
  outer loop
   vertex 0.020036 0.202411 0.025199
   vertex 0.022878 0.202171 0.024464
   vertex 0.021771 0.2048 0.025199
  endloop
 endfacet
 facet normal 0.390899 -0.0914587 0.915878
  outer loop
   vertex 0.022878 0.202171 0.024464
   vertex 0.024517 0.2048 0.024027
   vertex 0.021771 0.2048 0.025199
  endloop
 endfacet
 facet normal 0.334054 -0.43492 0.836213
  outer loop
   vertex 0.020885 0.1998 0.024027
   vertex 0.023732 0.199543 0.022756
   vertex 0.022878 0.202171 0.024464
  endloop
 endfacet
 facet normal 0.491058 -0.356895 0.794662
  outer loop
   vertex 0.023732 0.199543 0.022756
   vertex 0.025642 0.202171 0.022756
   vertex 0.022878 0.202171 0.024464
  endloop
 endfacet
 facet normal 0.516783 -0.183167 0.836293
  outer loop
   vertex 0.022878 0.202171 0.024464
   vertex 0.025642 0.202171 0.022756
   vertex 0.024517 0.2048 0.024027
  endloop
 endfacet
 facet normal 0.644269 -0.0913996 0.759317
  outer loop
   vertex 0.025642 0.202171 0.022756
   vertex 0.026794 0.2048 0.022095
   vertex 0.024517 0.2048 0.024027
  endloop
 endfacet
 facet normal 0.393627 -0.662685 0.637108
  outer loop
   vertex 0.021588 0.197634 0.022095
   vertex 0.0241 0.197634 0.020543
   vertex 0.023732 0.199543 0.022756
  endloop
 endfacet
 facet normal 0.551379 -0.584158 0.595601
  outer loop
   vertex 0.0241 0.197634 0.020543
   vertex 0.026142 0.1998 0.020777
   vertex 0.023732 0.199543 0.022756
  endloop
 endfacet
 facet normal 0.598657 -0.435097 0.672533
  outer loop
   vertex 0.023732 0.199543 0.022756
   vertex 0.026142 0.1998 0.020777
   vertex 0.025642 0.202171 0.022756
  endloop
 endfacet
 facet normal 0.725985 -0.343961 0.595514
  outer loop
   vertex 0.026142 0.1998 0.020777
   vertex 0.027571 0.202411 0.020543
   vertex 0.025642 0.202171 0.022756
  endloop
 endfacet
 facet normal 0.751958 -0.169318 0.637095
  outer loop
   vertex 0.025642 0.202171 0.022756
   vertex 0.027571 0.202411 0.020543
   vertex 0.026794 0.2048 0.022095
  endloop
 endfacet
 facet normal 0.827124 -0.091254 0.554562
  outer loop
   vertex 0.027571 0.202411 0.020543
   vertex 0.028204 0.2048 0.019992
   vertex 0.026794 0.2048 0.022095
  endloop
 endfacet
 facet normal 0.905177 0.147939 0.398459
  outer loop
   vertex 0.028826 0.206276 0.018031
   vertex 0.027571 0.207189 0.020543
   vertex 0.028204 0.2048 0.019992
  endloop
 endfacet
 facet normal 0.93657 0.303801 0.17476
  outer loop
   vertex 0.028771 0.20789 0.01552
   vertex 0.027878 0.209053 0.018284
   vertex 0.028826 0.206276 0.018031
  endloop
 endfacet
 facet normal 0.888212 0.452708 -0.078331
  outer loop
   vertex 0.027867 0.209229 0.013008
   vertex 0.02735 0.210678 0.01552
   vertex 0.028771 0.20789 0.01552
  endloop
 endfacet
 facet normal 0.89641 0.274294 0.348155
  outer loop
   vertex 0.028826 0.206276 0.018031
   vertex 0.027878 0.209053 0.018284
   vertex 0.027571 0.207189 0.020543
  endloop
 endfacet
 facet normal 0.803858 0.400541 0.439749
  outer loop
   vertex 0.027878 0.209053 0.018284
   vertex 0.026142 0.2098 0.020777
   vertex 0.027571 0.207189 0.020543
  endloop
 endfacet
 facet normal 0.886806 0.451991 0.0963284
  outer loop
   vertex 0.028771 0.20789 0.01552
   vertex 0.02735 0.210678 0.01552
   vertex 0.027878 0.209053 0.018284
  endloop
 endfacet
 facet normal 0.794662 0.577331 0.18762
  outer loop
   vertex 0.02735 0.210678 0.01552
   vertex 0.025968 0.211682 0.018284
   vertex 0.027878 0.209053 0.018284
  endloop
 endfacet
 facet normal 0.754436 0.548107 0.361117
  outer loop
   vertex 0.027878 0.209053 0.018284
   vertex 0.025968 0.211682 0.018284
   vertex 0.026142 0.2098 0.020777
  endloop
 endfacet
 facet normal 0.629279 0.640767 0.439803
  outer loop
   vertex 0.025968 0.211682 0.018284
   vertex 0.0241 0.211966 0.020543
   vertex 0.026142 0.2098 0.020777
  endloop
 endfacet
 facet normal 0.797233 0.579229 -0.170037
  outer loop
   vertex 0.027867 0.209229 0.013008
   vertex 0.026132 0.211617 0.013008
   vertex 0.02735 0.210678 0.01552
  endloop
 endfacet
 facet normal 0.704936 0.704936 -0.0782949
  outer loop
   vertex 0.026132 0.211617 0.013008
   vertex 0.025138 0.21289 0.01552
   vertex 0.02735 0.210678 0.01552
  endloop
 endfacet
 facet normal 0.703824 0.703824 0.0962537
  outer loop
   vertex 0.02735 0.210678 0.01552
   vertex 0.025138 0.21289 0.01552
   vertex 0.025968 0.211682 0.018284
  endloop
 endfacet
 facet normal 0.578519 0.796783 0.174509
  outer loop
   vertex 0.025138 0.21289 0.01552
   vertex 0.02362 0.213442 0.018032
   vertex 0.025968 0.211682 0.018284
  endloop
 endfacet
 facet normal 0.537986 0.767602 0.348366
  outer loop
   vertex 0.025968 0.211682 0.018284
   vertex 0.02362 0.213442 0.018032
   vertex 0.0241 0.211966 0.020543
  endloop
 endfacet
 facet normal 0.420269 0.815078 0.398776
  outer loop
   vertex 0.02362 0.213442 0.018032
   vertex 0.022024 0.213306 0.019992
   vertex 0.0241 0.211966 0.020543
  endloop
 endfacet
 facet normal 0.138975 0.90647 0.398746
  outer loop
   vertex 0.020812 0.214354 0.018032
   vertex 0.019556 0.213442 0.020543
   vertex 0.022024 0.213306 0.019992
  endloop
 endfacet
 facet normal 0.000555151 0.98466 0.174481
  outer loop
   vertex 0.01926 0.2148 0.01552
   vertex 0.017878 0.214311 0.018284
   vertex 0.020812 0.214354 0.018032
  endloop
 endfacet
 facet normal -0.155824 0.984657 -0.07855
  outer loop
   vertex 0.017708 0.214354 0.013008
   vertex 0.01617 0.214311 0.01552
   vertex 0.01926 0.2148 0.01552
  endloop
 endfacet
 facet normal 0.0161962 0.937175 0.348485
  outer loop
   vertex 0.020812 0.214354 0.018032
   vertex 0.017878 0.214311 0.018284
   vertex 0.019556 0.213442 0.020543
  endloop
 endfacet
 facet normal -0.132412 0.888171 0.440021
  outer loop
   vertex 0.017878 0.214311 0.018284
   vertex 0.016631 0.21289 0.020777
   vertex 0.019556 0.213442 0.020543
  endloop
 endfacet
 facet normal -0.155583 0.983133 0.0961419
  outer loop
   vertex 0.01926 0.2148 0.01552
   vertex 0.01617 0.214311 0.01552
   vertex 0.017878 0.214311 0.018284
  endloop
 endfacet
 facet normal -0.303796 0.934059 0.187729
  outer loop
   vertex 0.01617 0.214311 0.01552
   vertex 0.014788 0.213306 0.018284
   vertex 0.017878 0.214311 0.018284
  endloop
 endfacet
 facet normal -0.288415 0.886769 0.361189
  outer loop
   vertex 0.017878 0.214311 0.018284
   vertex 0.014788 0.213306 0.018284
   vertex 0.016631 0.21289 0.020777
  endloop
 endfacet
 facet normal -0.415138 0.796394 0.439791
  outer loop
   vertex 0.014788 0.213306 0.018284
   vertex 0.013941 0.211617 0.020543
   vertex 0.016631 0.21289 0.020777
  endloop
 endfacet
 facet normal -0.304389 0.937197 -0.170322
  outer loop
   vertex 0.017708 0.214354 0.013008
   vertex 0.0149 0.213442 0.013008
   vertex 0.01617 0.214311 0.01552
  endloop
 endfacet
 facet normal -0.452705 0.888208 -0.0783901
  outer loop
   vertex 0.0149 0.213442 0.013008
   vertex 0.013382 0.21289 0.01552
   vertex 0.01617 0.214311 0.01552
  endloop
 endfacet
 facet normal -0.451986 0.886796 0.0964489
  outer loop
   vertex 0.01617 0.214311 0.01552
   vertex 0.013382 0.21289 0.01552
   vertex 0.014788 0.213306 0.018284
  endloop
 endfacet
 facet normal -0.578874 0.796508 0.174584
  outer loop
   vertex 0.013382 0.21289 0.01552
   vertex 0.012388 0.211617 0.018032
   vertex 0.014788 0.213306 0.018284
  endloop
 endfacet
 facet normal -0.563623 0.748876 0.348589
  outer loop
   vertex 0.014788 0.213306 0.018284
   vertex 0.012388 0.211617 0.018032
   vertex 0.013941 0.211617 0.020543
  endloop
 endfacet
 facet normal -0.645038 0.651744 0.398942
  outer loop
   vertex 0.012388 0.211617 0.018032
   vertex 0.012024 0.210057 0.019992
   vertex 0.013941 0.211617 0.020543
  endloop
 endfacet
 facet normal -0.819189 0.412026 0.398954
  outer loop
   vertex 0.010653 0.209229 0.018032
   vertex 0.011133 0.207752 0.020543
   vertex 0.012024 0.210057 0.019992
  endloop
 endfacet
 facet normal -0.936352 0.304548 0.174631
  outer loop
   vertex 0.009749 0.20789 0.01552
   vertex 0.009788 0.206425 0.018284
   vertex 0.010653 0.209229 0.018032
  endloop
 endfacet
 facet normal -0.984653 0.155824 -0.0785916
  outer loop
   vertex 0.009694 0.206276 0.013009
   vertex 0.00926 0.2048 0.01552
   vertex 0.009749 0.20789 0.01552
  endloop
 endfacet
 facet normal -0.886309 0.304753 0.348685
  outer loop
   vertex 0.010653 0.209229 0.018032
   vertex 0.009788 0.206425 0.018284
   vertex 0.011133 0.207752 0.020543
  endloop
 endfacet
 facet normal -0.885615 0.148581 0.440011
  outer loop
   vertex 0.009788 0.206425 0.018284
   vertex 0.010754 0.2048 0.020777
   vertex 0.011133 0.207752 0.020543
  endloop
 endfacet
 facet normal -0.983115 0.15558 0.0963335
  outer loop
   vertex 0.009749 0.20789 0.01552
   vertex 0.00926 0.2048 0.01552
   vertex 0.009788 0.206425 0.018284
  endloop
 endfacet
 facet normal -0.982239 0 0.187634
  outer loop
   vertex 0.00926 0.2048 0.01552
   vertex 0.009788 0.203175 0.018284
   vertex 0.009788 0.206425 0.018284
  endloop
 endfacet
 facet normal -0.932446 0 0.361309
  outer loop
   vertex 0.009788 0.206425 0.018284
   vertex 0.009788 0.203175 0.018284
   vertex 0.010754 0.2048 0.020777
  endloop
 endfacet
 facet normal -0.885615 -0.148581 0.440011
  outer loop
   vertex 0.009788 0.203175 0.018284
   vertex 0.011133 0.201848 0.020543
   vertex 0.010754 0.2048 0.020777
  endloop
 endfacet
 facet normal -0.98539 -0 -0.170314
  outer loop
   vertex 0.009694 0.206276 0.013009
   vertex 0.009694 0.203324 0.013009
   vertex 0.00926 0.2048 0.01552
  endloop
 endfacet
 facet normal -0.984653 -0.155824 -0.0785916
  outer loop
   vertex 0.009694 0.203324 0.013009
   vertex 0.009749 0.20171 0.01552
   vertex 0.00926 0.2048 0.01552
  endloop
 endfacet
 facet normal -0.983115 -0.15558 0.0963335
  outer loop
   vertex 0.00926 0.2048 0.01552
   vertex 0.009749 0.20171 0.01552
   vertex 0.009788 0.203175 0.018284
  endloop
 endfacet
 facet normal -0.936352 -0.304548 0.174631
  outer loop
   vertex 0.009749 0.20171 0.01552
   vertex 0.010653 0.200371 0.018032
   vertex 0.009788 0.203175 0.018284
  endloop
 endfacet
 facet normal -0.886309 -0.304753 0.348685
  outer loop
   vertex 0.009788 0.203175 0.018284
   vertex 0.010653 0.200371 0.018032
   vertex 0.011133 0.201848 0.020543
  endloop
 endfacet
 facet normal -0.819189 -0.412026 0.398954
  outer loop
   vertex 0.010653 0.200371 0.018032
   vertex 0.012024 0.199543 0.019992
   vertex 0.011133 0.201848 0.020543
  endloop
 endfacet
 facet normal -0.645038 -0.651744 0.398942
  outer loop
   vertex 0.012388 0.197983 0.018032
   vertex 0.013941 0.197983 0.020543
   vertex 0.012024 0.199543 0.019992
  endloop
 endfacet
 facet normal -0.578874 -0.796508 0.174584
  outer loop
   vertex 0.013382 0.19671 0.01552
   vertex 0.014788 0.196294 0.018284
   vertex 0.012388 0.197983 0.018032
  endloop
 endfacet
 facet normal -0.452705 -0.888208 -0.0783901
  outer loop
   vertex 0.0149 0.196158 0.013008
   vertex 0.01617 0.195289 0.01552
   vertex 0.013382 0.19671 0.01552
  endloop
 endfacet
 facet normal -0.563623 -0.748876 0.348589
  outer loop
   vertex 0.012388 0.197983 0.018032
   vertex 0.014788 0.196294 0.018284
   vertex 0.013941 0.197983 0.020543
  endloop
 endfacet
 facet normal -0.415138 -0.796394 0.439791
  outer loop
   vertex 0.014788 0.196294 0.018284
   vertex 0.016631 0.19671 0.020777
   vertex 0.013941 0.197983 0.020543
  endloop
 endfacet
 facet normal -0.451986 -0.886796 0.0964489
  outer loop
   vertex 0.013382 0.19671 0.01552
   vertex 0.01617 0.195289 0.01552
   vertex 0.014788 0.196294 0.018284
  endloop
 endfacet
 facet normal -0.303796 -0.934059 0.187729
  outer loop
   vertex 0.01617 0.195289 0.01552
   vertex 0.017878 0.195289 0.018284
   vertex 0.014788 0.196294 0.018284
  endloop
 endfacet
 facet normal -0.288415 -0.886769 0.361189
  outer loop
   vertex 0.014788 0.196294 0.018284
   vertex 0.017878 0.195289 0.018284
   vertex 0.016631 0.19671 0.020777
  endloop
 endfacet
 facet normal -0.132412 -0.888171 0.440021
  outer loop
   vertex 0.017878 0.195289 0.018284
   vertex 0.019556 0.196158 0.020543
   vertex 0.016631 0.19671 0.020777
  endloop
 endfacet
 facet normal -0.304389 -0.937197 -0.170322
  outer loop
   vertex 0.0149 0.196158 0.013008
   vertex 0.017708 0.195246 0.013008
   vertex 0.01617 0.195289 0.01552
  endloop
 endfacet
 facet normal -0.155824 -0.984657 -0.07855
  outer loop
   vertex 0.017708 0.195246 0.013008
   vertex 0.01926 0.1948 0.01552
   vertex 0.01617 0.195289 0.01552
  endloop
 endfacet
 facet normal -0.155583 -0.983133 0.0961419
  outer loop
   vertex 0.01617 0.195289 0.01552
   vertex 0.01926 0.1948 0.01552
   vertex 0.017878 0.195289 0.018284
  endloop
 endfacet
 facet normal 0.000555151 -0.98466 0.174481
  outer loop
   vertex 0.01926 0.1948 0.01552
   vertex 0.020812 0.195246 0.018032
   vertex 0.017878 0.195289 0.018284
  endloop
 endfacet
 facet normal 0.0161962 -0.937175 0.348485
  outer loop
   vertex 0.017878 0.195289 0.018284
   vertex 0.020812 0.195246 0.018032
   vertex 0.019556 0.196158 0.020543
  endloop
 endfacet
 facet normal 0.138975 -0.90647 0.398746
  outer loop
   vertex 0.020812 0.195246 0.018032
   vertex 0.022024 0.196294 0.019992
   vertex 0.019556 0.196158 0.020543
  endloop
 endfacet
 facet normal 0.420269 -0.815078 0.398776
  outer loop
   vertex 0.02362 0.196158 0.018032
   vertex 0.0241 0.197634 0.020543
   vertex 0.022024 0.196294 0.019992
  endloop
 endfacet
 facet normal 0.578519 -0.796783 0.174509
  outer loop
   vertex 0.025138 0.19671 0.01552
   vertex 0.025968 0.197918 0.018284
   vertex 0.02362 0.196158 0.018032
  endloop
 endfacet
 facet normal 0.704936 -0.704936 -0.0782949
  outer loop
   vertex 0.026132 0.197983 0.013008
   vertex 0.02735 0.198922 0.01552
   vertex 0.025138 0.19671 0.01552
  endloop
 endfacet
 facet normal 0.537986 -0.767602 0.348366
  outer loop
   vertex 0.02362 0.196158 0.018032
   vertex 0.025968 0.197918 0.018284
   vertex 0.0241 0.197634 0.020543
  endloop
 endfacet
 facet normal 0.629279 -0.640767 0.439803
  outer loop
   vertex 0.025968 0.197918 0.018284
   vertex 0.026142 0.1998 0.020777
   vertex 0.0241 0.197634 0.020543
  endloop
 endfacet
 facet normal 0.703824 -0.703824 0.0962537
  outer loop
   vertex 0.025138 0.19671 0.01552
   vertex 0.02735 0.198922 0.01552
   vertex 0.025968 0.197918 0.018284
  endloop
 endfacet
 facet normal 0.794662 -0.577331 0.18762
  outer loop
   vertex 0.02735 0.198922 0.01552
   vertex 0.027878 0.200547 0.018284
   vertex 0.025968 0.197918 0.018284
  endloop
 endfacet
 facet normal 0.754436 -0.548107 0.361117
  outer loop
   vertex 0.025968 0.197918 0.018284
   vertex 0.027878 0.200547 0.018284
   vertex 0.026142 0.1998 0.020777
  endloop
 endfacet
 facet normal 0.803858 -0.400541 0.439749
  outer loop
   vertex 0.027878 0.200547 0.018284
   vertex 0.027571 0.202411 0.020543
   vertex 0.026142 0.1998 0.020777
  endloop
 endfacet
 facet normal 0.797233 -0.579229 -0.170037
  outer loop
   vertex 0.026132 0.197983 0.013008
   vertex 0.027867 0.200371 0.013008
   vertex 0.02735 0.198922 0.01552
  endloop
 endfacet
 facet normal 0.888212 -0.452708 -0.078331
  outer loop
   vertex 0.027867 0.200371 0.013008
   vertex 0.028771 0.20171 0.01552
   vertex 0.02735 0.198922 0.01552
  endloop
 endfacet
 facet normal 0.886806 -0.451991 0.0963284
  outer loop
   vertex 0.02735 0.198922 0.01552
   vertex 0.028771 0.20171 0.01552
   vertex 0.027878 0.200547 0.018284
  endloop
 endfacet
 facet normal 0.93657 -0.303801 0.17476
  outer loop
   vertex 0.028771 0.20171 0.01552
   vertex 0.028826 0.203324 0.018031
   vertex 0.027878 0.200547 0.018284
  endloop
 endfacet
 facet normal 0.89641 -0.274294 0.348155
  outer loop
   vertex 0.027878 0.200547 0.018284
   vertex 0.028826 0.203324 0.018031
   vertex 0.027571 0.202411 0.020543
  endloop
 endfacet
 facet normal 0.905177 -0.147939 0.398459
  outer loop
   vertex 0.028826 0.203324 0.018031
   vertex 0.028204 0.2048 0.019992
   vertex 0.027571 0.202411 0.020543
  endloop
 endfacet
 facet normal 0.294416 0.906493 0.302638
  outer loop
   vertex 0.02362 0.213442 0.018032
   vertex 0.020812 0.214354 0.018032
   vertex 0.022024 0.213306 0.019992
  endloop
 endfacet
 facet normal 0.452705 0.888208 0.0783901
  outer loop
   vertex 0.025138 0.21289 0.01552
   vertex 0.02235 0.214311 0.01552
   vertex 0.02362 0.213442 0.018032
  endloop
 endfacet
 facet normal 0.578874 0.796508 -0.174584
  outer loop
   vertex 0.026132 0.211617 0.013008
   vertex 0.023732 0.213306 0.012756
   vertex 0.025138 0.21289 0.01552
  endloop
 endfacet
 facet normal 0.304389 0.937197 0.170322
  outer loop
   vertex 0.02362 0.213442 0.018032
   vertex 0.02235 0.214311 0.01552
   vertex 0.020812 0.214354 0.018032
  endloop
 endfacet
 facet normal 0.155824 0.984657 0.07855
  outer loop
   vertex 0.02235 0.214311 0.01552
   vertex 0.01926 0.2148 0.01552
   vertex 0.020812 0.214354 0.018032
  endloop
 endfacet
 facet normal 0.451986 0.886796 -0.0964489
  outer loop
   vertex 0.025138 0.21289 0.01552
   vertex 0.023732 0.213306 0.012756
   vertex 0.02235 0.214311 0.01552
  endloop
 endfacet
 facet normal 0.303796 0.934059 -0.187729
  outer loop
   vertex 0.023732 0.213306 0.012756
   vertex 0.020642 0.214311 0.012756
   vertex 0.02235 0.214311 0.01552
  endloop
 endfacet
 facet normal 0.155583 0.983133 -0.0961419
  outer loop
   vertex 0.02235 0.214311 0.01552
   vertex 0.020642 0.214311 0.012756
   vertex 0.01926 0.2148 0.01552
  endloop
 endfacet
 facet normal -0.000555151 0.98466 -0.174481
  outer loop
   vertex 0.020642 0.214311 0.012756
   vertex 0.017708 0.214354 0.013008
   vertex 0.01926 0.2148 0.01552
  endloop
 endfacet
 facet normal 0.563623 0.748876 -0.348589
  outer loop
   vertex 0.026132 0.211617 0.013008
   vertex 0.024579 0.211617 0.010497
   vertex 0.023732 0.213306 0.012756
  endloop
 endfacet
 facet normal 0.415138 0.796394 -0.439791
  outer loop
   vertex 0.024579 0.211617 0.010497
   vertex 0.021889 0.21289 0.010263
   vertex 0.023732 0.213306 0.012756
  endloop
 endfacet
 facet normal 0.288415 0.886769 -0.361189
  outer loop
   vertex 0.023732 0.213306 0.012756
   vertex 0.021889 0.21289 0.010263
   vertex 0.020642 0.214311 0.012756
  endloop
 endfacet
 facet normal 0.132412 0.888171 -0.440021
  outer loop
   vertex 0.021889 0.21289 0.010263
   vertex 0.018964 0.213442 0.010497
   vertex 0.020642 0.214311 0.012756
  endloop
 endfacet
 facet normal -0.0161962 0.937175 -0.348485
  outer loop
   vertex 0.020642 0.214311 0.012756
   vertex 0.018964 0.213442 0.010497
   vertex 0.017708 0.214354 0.013008
  endloop
 endfacet
 facet normal -0.138975 0.90647 -0.398746
  outer loop
   vertex 0.018964 0.213442 0.010497
   vertex 0.016496 0.213306 0.011048
   vertex 0.017708 0.214354 0.013008
  endloop
 endfacet
 facet normal -0.771063 0.560215 0.302688
  outer loop
   vertex 0.012388 0.211617 0.018032
   vertex 0.010653 0.209229 0.018032
   vertex 0.012024 0.210057 0.019992
  endloop
 endfacet
 facet normal -0.704936 0.704936 0.0782949
  outer loop
   vertex 0.013382 0.21289 0.01552
   vertex 0.01117 0.210678 0.01552
   vertex 0.012388 0.211617 0.018032
  endloop
 endfacet
 facet normal -0.578519 0.796783 -0.174509
  outer loop
   vertex 0.0149 0.213442 0.013008
   vertex 0.012552 0.211682 0.012756
   vertex 0.013382 0.21289 0.01552
  endloop
 endfacet
 facet normal -0.797233 0.579229 0.170037
  outer loop
   vertex 0.012388 0.211617 0.018032
   vertex 0.01117 0.210678 0.01552
   vertex 0.010653 0.209229 0.018032
  endloop
 endfacet
 facet normal -0.888212 0.452708 0.078331
  outer loop
   vertex 0.01117 0.210678 0.01552
   vertex 0.009749 0.20789 0.01552
   vertex 0.010653 0.209229 0.018032
  endloop
 endfacet
 facet normal -0.703824 0.703824 -0.0962537
  outer loop
   vertex 0.013382 0.21289 0.01552
   vertex 0.012552 0.211682 0.012756
   vertex 0.01117 0.210678 0.01552
  endloop
 endfacet
 facet normal -0.794662 0.577331 -0.18762
  outer loop
   vertex 0.012552 0.211682 0.012756
   vertex 0.010642 0.209053 0.012756
   vertex 0.01117 0.210678 0.01552
  endloop
 endfacet
 facet normal -0.886806 0.451991 -0.0963284
  outer loop
   vertex 0.01117 0.210678 0.01552
   vertex 0.010642 0.209053 0.012756
   vertex 0.009749 0.20789 0.01552
  endloop
 endfacet
 facet normal -0.93657 0.303801 -0.17476
  outer loop
   vertex 0.010642 0.209053 0.012756
   vertex 0.009694 0.206276 0.013009
   vertex 0.009749 0.20789 0.01552
  endloop
 endfacet
 facet normal -0.537986 0.767602 -0.348366
  outer loop
   vertex 0.0149 0.213442 0.013008
   vertex 0.01442 0.211966 0.010497
   vertex 0.012552 0.211682 0.012756
  endloop
 endfacet
 facet normal -0.629279 0.640767 -0.439803
  outer loop
   vertex 0.01442 0.211966 0.010497
   vertex 0.012378 0.2098 0.010263
   vertex 0.012552 0.211682 0.012756
  endloop
 endfacet
 facet normal -0.754436 0.548107 -0.361117
  outer loop
   vertex 0.012552 0.211682 0.012756
   vertex 0.012378 0.2098 0.010263
   vertex 0.010642 0.209053 0.012756
  endloop
 endfacet
 facet normal -0.803858 0.400541 -0.439749
  outer loop
   vertex 0.012378 0.2098 0.010263
   vertex 0.010949 0.207189 0.010497
   vertex 0.010642 0.209053 0.012756
  endloop
 endfacet
 facet normal -0.89641 0.274294 -0.348155
  outer loop
   vertex 0.010642 0.209053 0.012756
   vertex 0.010949 0.207189 0.010497
   vertex 0.009694 0.206276 0.013009
  endloop
 endfacet
 facet normal -0.905177 0.147939 -0.398459
  outer loop
   vertex 0.010949 0.207189 0.010497
   vertex 0.010316 0.2048 0.011048
   vertex 0.009694 0.206276 0.013009
  endloop
 endfacet
 facet normal -0.771063 -0.560215 0.302688
  outer loop
   vertex 0.010653 0.200371 0.018032
   vertex 0.012388 0.197983 0.018032
   vertex 0.012024 0.199543 0.019992
  endloop
 endfacet
 facet normal -0.888212 -0.452708 0.078331
  outer loop
   vertex 0.009749 0.20171 0.01552
   vertex 0.01117 0.198922 0.01552
   vertex 0.010653 0.200371 0.018032
  endloop
 endfacet
 facet normal -0.93657 -0.303801 -0.17476
  outer loop
   vertex 0.009694 0.203324 0.013009
   vertex 0.010642 0.200547 0.012756
   vertex 0.009749 0.20171 0.01552
  endloop
 endfacet
 facet normal -0.797233 -0.579229 0.170037
  outer loop
   vertex 0.010653 0.200371 0.018032
   vertex 0.01117 0.198922 0.01552
   vertex 0.012388 0.197983 0.018032
  endloop
 endfacet
 facet normal -0.704936 -0.704936 0.0782949
  outer loop
   vertex 0.01117 0.198922 0.01552
   vertex 0.013382 0.19671 0.01552
   vertex 0.012388 0.197983 0.018032
  endloop
 endfacet
 facet normal -0.886806 -0.451991 -0.0963284
  outer loop
   vertex 0.009749 0.20171 0.01552
   vertex 0.010642 0.200547 0.012756
   vertex 0.01117 0.198922 0.01552
  endloop
 endfacet
 facet normal -0.794662 -0.577331 -0.18762
  outer loop
   vertex 0.010642 0.200547 0.012756
   vertex 0.012552 0.197918 0.012756
   vertex 0.01117 0.198922 0.01552
  endloop
 endfacet
 facet normal -0.703824 -0.703824 -0.0962537
  outer loop
   vertex 0.01117 0.198922 0.01552
   vertex 0.012552 0.197918 0.012756
   vertex 0.013382 0.19671 0.01552
  endloop
 endfacet
 facet normal -0.578519 -0.796783 -0.174509
  outer loop
   vertex 0.012552 0.197918 0.012756
   vertex 0.0149 0.196158 0.013008
   vertex 0.013382 0.19671 0.01552
  endloop
 endfacet
 facet normal -0.89641 -0.274294 -0.348155
  outer loop
   vertex 0.009694 0.203324 0.013009
   vertex 0.010949 0.202411 0.010497
   vertex 0.010642 0.200547 0.012756
  endloop
 endfacet
 facet normal -0.803858 -0.400541 -0.439749
  outer loop
   vertex 0.010949 0.202411 0.010497
   vertex 0.012378 0.1998 0.010263
   vertex 0.010642 0.200547 0.012756
  endloop
 endfacet
 facet normal -0.754436 -0.548107 -0.361117
  outer loop
   vertex 0.010642 0.200547 0.012756
   vertex 0.012378 0.1998 0.010263
   vertex 0.012552 0.197918 0.012756
  endloop
 endfacet
 facet normal -0.629279 -0.640767 -0.439803
  outer loop
   vertex 0.012378 0.1998 0.010263
   vertex 0.01442 0.197634 0.010497
   vertex 0.012552 0.197918 0.012756
  endloop
 endfacet
 facet normal -0.537986 -0.767602 -0.348366
  outer loop
   vertex 0.012552 0.197918 0.012756
   vertex 0.01442 0.197634 0.010497
   vertex 0.0149 0.196158 0.013008
  endloop
 endfacet
 facet normal -0.420269 -0.815078 -0.398776
  outer loop
   vertex 0.01442 0.197634 0.010497
   vertex 0.016496 0.196294 0.011048
   vertex 0.0149 0.196158 0.013008
  endloop
 endfacet
 facet normal 0.294416 -0.906493 0.302638
  outer loop
   vertex 0.020812 0.195246 0.018032
   vertex 0.02362 0.196158 0.018032
   vertex 0.022024 0.196294 0.019992
  endloop
 endfacet
 facet normal 0.155824 -0.984657 0.07855
  outer loop
   vertex 0.01926 0.1948 0.01552
   vertex 0.02235 0.195289 0.01552
   vertex 0.020812 0.195246 0.018032
  endloop
 endfacet
 facet normal -0.000555151 -0.98466 -0.174481
  outer loop
   vertex 0.017708 0.195246 0.013008
   vertex 0.020642 0.195289 0.012756
   vertex 0.01926 0.1948 0.01552
  endloop
 endfacet
 facet normal 0.304389 -0.937197 0.170322
  outer loop
   vertex 0.020812 0.195246 0.018032
   vertex 0.02235 0.195289 0.01552
   vertex 0.02362 0.196158 0.018032
  endloop
 endfacet
 facet normal 0.452705 -0.888208 0.0783901
  outer loop
   vertex 0.02235 0.195289 0.01552
   vertex 0.025138 0.19671 0.01552
   vertex 0.02362 0.196158 0.018032
  endloop
 endfacet
 facet normal 0.155583 -0.983133 -0.0961419
  outer loop
   vertex 0.01926 0.1948 0.01552
   vertex 0.020642 0.195289 0.012756
   vertex 0.02235 0.195289 0.01552
  endloop
 endfacet
 facet normal 0.303796 -0.934059 -0.187729
  outer loop
   vertex 0.020642 0.195289 0.012756
   vertex 0.023732 0.196294 0.012756
   vertex 0.02235 0.195289 0.01552
  endloop
 endfacet
 facet normal 0.451986 -0.886796 -0.0964489
  outer loop
   vertex 0.02235 0.195289 0.01552
   vertex 0.023732 0.196294 0.012756
   vertex 0.025138 0.19671 0.01552
  endloop
 endfacet
 facet normal 0.578874 -0.796508 -0.174584
  outer loop
   vertex 0.023732 0.196294 0.012756
   vertex 0.026132 0.197983 0.013008
   vertex 0.025138 0.19671 0.01552
  endloop
 endfacet
 facet normal -0.0161962 -0.937175 -0.348485
  outer loop
   vertex 0.017708 0.195246 0.013008
   vertex 0.018964 0.196158 0.010497
   vertex 0.020642 0.195289 0.012756
  endloop
 endfacet
 facet normal 0.132412 -0.888171 -0.440021
  outer loop
   vertex 0.018964 0.196158 0.010497
   vertex 0.021889 0.19671 0.010263
   vertex 0.020642 0.195289 0.012756
  endloop
 endfacet
 facet normal 0.288415 -0.886769 -0.361189
  outer loop
   vertex 0.020642 0.195289 0.012756
   vertex 0.021889 0.19671 0.010263
   vertex 0.023732 0.196294 0.012756
  endloop
 endfacet
 facet normal 0.415138 -0.796394 -0.439791
  outer loop
   vertex 0.021889 0.19671 0.010263
   vertex 0.024579 0.197983 0.010497
   vertex 0.023732 0.196294 0.012756
  endloop
 endfacet
 facet normal 0.563623 -0.748876 -0.348589
  outer loop
   vertex 0.023732 0.196294 0.012756
   vertex 0.024579 0.197983 0.010497
   vertex 0.026132 0.197983 0.013008
  endloop
 endfacet
 facet normal 0.645038 -0.651744 -0.398942
  outer loop
   vertex 0.024579 0.197983 0.010497
   vertex 0.026496 0.199543 0.011048
   vertex 0.026132 0.197983 0.013008
  endloop
 endfacet
 facet normal 0.9532 -0 0.302341
  outer loop
   vertex 0.028826 0.203324 0.018031
   vertex 0.028826 0.206276 0.018031
   vertex 0.028204 0.2048 0.019992
  endloop
 endfacet
 facet normal 0.984653 -0.155824 0.0785916
  outer loop
   vertex 0.028771 0.20171 0.01552
   vertex 0.02926 0.2048 0.01552
   vertex 0.028826 0.203324 0.018031
  endloop
 endfacet
 facet normal 0.936352 -0.304548 -0.174631
  outer loop
   vertex 0.027867 0.200371 0.013008
   vertex 0.028732 0.203175 0.012756
   vertex 0.028771 0.20171 0.01552
  endloop
 endfacet
 facet normal 0.98539 -0 0.170314
  outer loop
   vertex 0.028826 0.203324 0.018031
   vertex 0.02926 0.2048 0.01552
   vertex 0.028826 0.206276 0.018031
  endloop
 endfacet
 facet normal 0.984653 0.155824 0.0785916
  outer loop
   vertex 0.02926 0.2048 0.01552
   vertex 0.028771 0.20789 0.01552
   vertex 0.028826 0.206276 0.018031
  endloop
 endfacet
 facet normal 0.983115 -0.15558 -0.0963335
  outer loop
   vertex 0.028771 0.20171 0.01552
   vertex 0.028732 0.203175 0.012756
   vertex 0.02926 0.2048 0.01552
  endloop
 endfacet
 facet normal 0.982239 0 -0.187634
  outer loop
   vertex 0.028732 0.203175 0.012756
   vertex 0.028732 0.206425 0.012756
   vertex 0.02926 0.2048 0.01552
  endloop
 endfacet
 facet normal 0.983115 0.15558 -0.0963335
  outer loop
   vertex 0.02926 0.2048 0.01552
   vertex 0.028732 0.206425 0.012756
   vertex 0.028771 0.20789 0.01552
  endloop
 endfacet
 facet normal 0.936352 0.304548 -0.174631
  outer loop
   vertex 0.028732 0.206425 0.012756
   vertex 0.027867 0.209229 0.013008
   vertex 0.028771 0.20789 0.01552
  endloop
 endfacet
 facet normal 0.886309 -0.304753 -0.348685
  outer loop
   vertex 0.027867 0.200371 0.013008
   vertex 0.027387 0.201848 0.010497
   vertex 0.028732 0.203175 0.012756
  endloop
 endfacet
 facet normal 0.885615 -0.148581 -0.440011
  outer loop
   vertex 0.027387 0.201848 0.010497
   vertex 0.027766 0.2048 0.010263
   vertex 0.028732 0.203175 0.012756
  endloop
 endfacet
 facet normal 0.932446 0 -0.361309
  outer loop
   vertex 0.028732 0.203175 0.012756
   vertex 0.027766 0.2048 0.010263
   vertex 0.028732 0.206425 0.012756
  endloop
 endfacet
 facet normal 0.885615 0.148581 -0.440011
  outer loop
   vertex 0.027766 0.2048 0.010263
   vertex 0.027387 0.207752 0.010497
   vertex 0.028732 0.206425 0.012756
  endloop
 endfacet
 facet normal 0.886309 0.304753 -0.348685
  outer loop
   vertex 0.028732 0.206425 0.012756
   vertex 0.027387 0.207752 0.010497
   vertex 0.027867 0.209229 0.013008
  endloop
 endfacet
 facet normal 0.819189 0.412026 -0.398954
  outer loop
   vertex 0.027387 0.207752 0.010497
   vertex 0.026496 0.210057 0.011048
   vertex 0.027867 0.209229 0.013008
  endloop
 endfacet
 facet normal 0.61533 0.560308 -0.554459
  outer loop
   vertex 0.025355 0.209229 0.008945
   vertex 0.024579 0.211617 0.010497
   vertex 0.026496 0.210057 0.011048
  endloop
 endfacet
 facet normal 0.467426 0.452641 -0.759361
  outer loop
   vertex 0.023513 0.20789 0.007013
   vertex 0.022878 0.210678 0.008284
   vertex 0.025355 0.209229 0.008945
  endloop
 endfacet
 facet normal 0.262485 0.303841 -0.915851
  outer loop
   vertex 0.021292 0.206276 0.005841
   vertex 0.020642 0.209053 0.006576
   vertex 0.023513 0.20789 0.007013
  endloop
 endfacet
 facet normal 0.508799 0.579247 -0.636864
  outer loop
   vertex 0.025355 0.209229 0.008945
   vertex 0.022878 0.210678 0.008284
   vertex 0.024579 0.211617 0.010497
  endloop
 endfacet
 facet normal 0.38541 0.704977 -0.595371
  outer loop
   vertex 0.022878 0.210678 0.008284
   vertex 0.021889 0.21289 0.010263
   vertex 0.024579 0.211617 0.010497
  endloop
 endfacet
 facet normal 0.310374 0.451949 -0.836307
  outer loop
   vertex 0.023513 0.20789 0.007013
   vertex 0.020642 0.209053 0.006576
   vertex 0.022878 0.210678 0.008284
  endloop
 endfacet
 facet normal 0.187559 0.577248 -0.794737
  outer loop
   vertex 0.020642 0.209053 0.006576
   vertex 0.019788 0.211682 0.008284
   vertex 0.022878 0.210678 0.008284
  endloop
 endfacet
 facet normal 0.228709 0.703897 -0.672474
  outer loop
   vertex 0.022878 0.210678 0.008284
   vertex 0.019788 0.211682 0.008284
   vertex 0.021889 0.21289 0.010263
  endloop
 endfacet
 facet normal 0.102735 0.796801 -0.595444
  outer loop
   vertex 0.019788 0.211682 0.008284
   vertex 0.018964 0.213442 0.010497
   vertex 0.021889 0.21289 0.010263
  endloop
 endfacet
 facet normal 0.0891868 0.274301 -0.957499
  outer loop
   vertex 0.021292 0.206276 0.005841
   vertex 0.018484 0.207189 0.005841
   vertex 0.020642 0.209053 0.006576
  endloop
 endfacet
 facet normal -0.0336945 0.400135 -0.915836
  outer loop
   vertex 0.018484 0.207189 0.005841
   vertex 0.017635 0.2098 0.007013
   vertex 0.020642 0.209053 0.006576
  endloop
 endfacet
 facet normal 0.0146149 0.548074 -0.836302
  outer loop
   vertex 0.020642 0.209053 0.006576
   vertex 0.017635 0.2098 0.007013
   vertex 0.019788 0.211682 0.008284
  endloop
 endfacet
 facet normal -0.112009 0.640965 -0.759354
  outer loop
   vertex 0.017635 0.2098 0.007013
   vertex 0.016932 0.211966 0.008945
   vertex 0.019788 0.211682 0.008284
  endloop
 endfacet
 facet normal -0.0710868 0.767617 -0.636955
  outer loop
   vertex 0.019788 0.211682 0.008284
   vertex 0.016932 0.211966 0.008945
   vertex 0.018964 0.213442 0.010497
  endloop
 endfacet
 facet normal -0.168666 0.815046 -0.554303
  outer loop
   vertex 0.016932 0.211966 0.008945
   vertex 0.016496 0.213306 0.011048
   vertex 0.018964 0.213442 0.010497
  endloop
 endfacet
 facet normal -0.342493 0.758552 -0.554344
  outer loop
   vertex 0.016932 0.211966 0.008945
   vertex 0.01442 0.211966 0.010497
   vertex 0.016496 0.213306 0.011048
  endloop
 endfacet
 facet normal -0.286233 0.584386 -0.759318
  outer loop
   vertex 0.017635 0.2098 0.007013
   vertex 0.014788 0.210057 0.008284
   vertex 0.016932 0.211966 0.008945
  endloop
 endfacet
 facet normal -0.207851 0.343516 -0.915858
  outer loop
   vertex 0.018484 0.207189 0.005841
   vertex 0.015642 0.207429 0.006576
   vertex 0.017635 0.2098 0.007013
  endloop
 endfacet
 facet normal -0.393627 0.662685 -0.637108
  outer loop
   vertex 0.016932 0.211966 0.008945
   vertex 0.014788 0.210057 0.008284
   vertex 0.01442 0.211966 0.010497
  endloop
 endfacet
 facet normal -0.551379 0.584158 -0.595601
  outer loop
   vertex 0.014788 0.210057 0.008284
   vertex 0.012378 0.2098 0.010263
   vertex 0.01442 0.211966 0.010497
  endloop
 endfacet
 facet normal -0.334054 0.43492 -0.836213
  outer loop
   vertex 0.017635 0.2098 0.007013
   vertex 0.015642 0.207429 0.006576
   vertex 0.014788 0.210057 0.008284
  endloop
 endfacet
 facet normal -0.491058 0.356895 -0.794662
  outer loop
   vertex 0.015642 0.207429 0.006576
   vertex 0.012878 0.207429 0.008284
   vertex 0.014788 0.210057 0.008284
  endloop
 endfacet
 facet normal -0.598657 0.435097 -0.672533
  outer loop
   vertex 0.014788 0.210057 0.008284
   vertex 0.012878 0.207429 0.008284
   vertex 0.012378 0.2098 0.010263
  endloop
 endfacet
 facet normal -0.725985 0.343961 -0.595514
  outer loop
   vertex 0.012878 0.207429 0.008284
   vertex 0.010949 0.207189 0.010497
   vertex 0.012378 0.2098 0.010263
  endloop
 endfacet
 facet normal -0.233325 0.169451 -0.957521
  outer loop
   vertex 0.018484 0.207189 0.005841
   vertex 0.016749 0.2048 0.005841
   vertex 0.015642 0.207429 0.006576
  endloop
 endfacet
 facet normal -0.390899 0.0914587 -0.915878
  outer loop
   vertex 0.016749 0.2048 0.005841
   vertex 0.014003 0.2048 0.007013
   vertex 0.015642 0.207429 0.006576
  endloop
 endfacet
 facet normal -0.516783 0.183167 -0.836293
  outer loop
   vertex 0.015642 0.207429 0.006576
   vertex 0.014003 0.2048 0.007013
   vertex 0.012878 0.207429 0.008284
  endloop
 endfacet
 facet normal -0.644269 0.0913996 -0.759317
  outer loop
   vertex 0.014003 0.2048 0.007013
   vertex 0.011726 0.2048 0.008945
   vertex 0.012878 0.207429 0.008284
  endloop
 endfacet
 facet normal -0.751958 0.169318 -0.637095
  outer loop
   vertex 0.012878 0.207429 0.008284
   vertex 0.011726 0.2048 0.008945
   vertex 0.010949 0.207189 0.010497
  endloop
 endfacet
 facet normal -0.827124 0.091254 -0.554562
  outer loop
   vertex 0.011726 0.2048 0.008945
   vertex 0.010316 0.2048 0.011048
   vertex 0.010949 0.207189 0.010497
  endloop
 endfacet
 facet normal -0.827124 -0.091254 -0.554562
  outer loop
   vertex 0.011726 0.2048 0.008945
   vertex 0.010949 0.202411 0.010497
   vertex 0.010316 0.2048 0.011048
  endloop
 endfacet
 facet normal -0.644269 -0.0913996 -0.759317
  outer loop
   vertex 0.014003 0.2048 0.007013
   vertex 0.012878 0.202171 0.008284
   vertex 0.011726 0.2048 0.008945
  endloop
 endfacet
 facet normal -0.390899 -0.0914587 -0.915878
  outer loop
   vertex 0.016749 0.2048 0.005841
   vertex 0.015642 0.202171 0.006576
   vertex 0.014003 0.2048 0.007013
  endloop
 endfacet
 facet normal -0.751958 -0.169318 -0.637095
  outer loop
   vertex 0.011726 0.2048 0.008945
   vertex 0.012878 0.202171 0.008284
   vertex 0.010949 0.202411 0.010497
  endloop
 endfacet
 facet normal -0.725985 -0.343961 -0.595514
  outer loop
   vertex 0.012878 0.202171 0.008284
   vertex 0.012378 0.1998 0.010263
   vertex 0.010949 0.202411 0.010497
  endloop
 endfacet
 facet normal -0.516783 -0.183167 -0.836293
  outer loop
   vertex 0.014003 0.2048 0.007013
   vertex 0.015642 0.202171 0.006576
   vertex 0.012878 0.202171 0.008284
  endloop
 endfacet
 facet normal -0.491058 -0.356895 -0.794662
  outer loop
   vertex 0.015642 0.202171 0.006576
   vertex 0.014788 0.199543 0.008284
   vertex 0.012878 0.202171 0.008284
  endloop
 endfacet
 facet normal -0.598657 -0.435097 -0.672533
  outer loop
   vertex 0.012878 0.202171 0.008284
   vertex 0.014788 0.199543 0.008284
   vertex 0.012378 0.1998 0.010263
  endloop
 endfacet
 facet normal -0.551379 -0.584158 -0.595601
  outer loop
   vertex 0.014788 0.199543 0.008284
   vertex 0.01442 0.197634 0.010497
   vertex 0.012378 0.1998 0.010263
  endloop
 endfacet
 facet normal -0.233325 -0.169451 -0.957521
  outer loop
   vertex 0.016749 0.2048 0.005841
   vertex 0.018484 0.202411 0.005841
   vertex 0.015642 0.202171 0.006576
  endloop
 endfacet
 facet normal -0.207851 -0.343516 -0.915858
  outer loop
   vertex 0.018484 0.202411 0.005841
   vertex 0.017635 0.1998 0.007013
   vertex 0.015642 0.202171 0.006576
  endloop
 endfacet
 facet normal -0.334054 -0.43492 -0.836213
  outer loop
   vertex 0.015642 0.202171 0.006576
   vertex 0.017635 0.1998 0.007013
   vertex 0.014788 0.199543 0.008284
  endloop
 endfacet
 facet normal -0.286233 -0.584386 -0.759318
  outer loop
   vertex 0.017635 0.1998 0.007013
   vertex 0.016932 0.197634 0.008945
   vertex 0.014788 0.199543 0.008284
  endloop
 endfacet
 facet normal -0.393627 -0.662685 -0.637108
  outer loop
   vertex 0.014788 0.199543 0.008284
   vertex 0.016932 0.197634 0.008945
   vertex 0.01442 0.197634 0.010497
  endloop
 endfacet
 facet normal -0.342493 -0.758552 -0.554344
  outer loop
   vertex 0.016932 0.197634 0.008945
   vertex 0.016496 0.196294 0.011048
   vertex 0.01442 0.197634 0.010497
  endloop
 endfacet
 facet normal 0.723015 0.412034 -0.554506
  outer loop
   vertex 0.027387 0.207752 0.010497
   vertex 0.025355 0.209229 0.008945
   vertex 0.026496 0.210057 0.011048
  endloop
 endfacet
 facet normal 0.789589 0.148568 -0.59538
  outer loop
   vertex 0.027766 0.2048 0.010263
   vertex 0.025968 0.206425 0.008284
   vertex 0.027387 0.207752 0.010497
  endloop
 endfacet
 facet normal 0.789589 -0.148568 -0.59538
  outer loop
   vertex 0.027387 0.201848 0.010497
   vertex 0.025968 0.203175 0.008284
   vertex 0.027766 0.2048 0.010263
  endloop
 endfacet
 facet normal 0.708089 0.304936 -0.636886
  outer loop
   vertex 0.027387 0.207752 0.010497
   vertex 0.025968 0.206425 0.008284
   vertex 0.025355 0.209229 0.008945
  endloop
 endfacet
 facet normal 0.574948 0.304695 -0.759339
  outer loop
   vertex 0.025968 0.206425 0.008284
   vertex 0.023513 0.20789 0.007013
   vertex 0.025355 0.209229 0.008945
  endloop
 endfacet
 facet normal 0.740143 0 -0.672449
  outer loop
   vertex 0.027766 0.2048 0.010263
   vertex 0.025968 0.203175 0.008284
   vertex 0.025968 0.206425 0.008284
  endloop
 endfacet
 facet normal 0.607028 0 -0.794681
  outer loop
   vertex 0.025968 0.203175 0.008284
   vertex 0.023732 0.2048 0.006576
   vertex 0.025968 0.206425 0.008284
  endloop
 endfacet
 facet normal 0.525774 0.155534 -0.836284
  outer loop
   vertex 0.025968 0.206425 0.008284
   vertex 0.023732 0.2048 0.006576
   vertex 0.023513 0.20789 0.007013
  endloop
 endfacet
 facet normal 0.370096 0.155752 -0.915844
  outer loop
   vertex 0.023732 0.2048 0.006576
   vertex 0.021292 0.206276 0.005841
   vertex 0.023513 0.20789 0.007013
  endloop
 endfacet
 facet normal 0.708089 -0.304936 -0.636886
  outer loop
   vertex 0.027387 0.201848 0.010497
   vertex 0.025355 0.200371 0.008945
   vertex 0.025968 0.203175 0.008284
  endloop
 endfacet
 facet normal 0.574948 -0.304695 -0.759339
  outer loop
   vertex 0.025355 0.200371 0.008945
   vertex 0.023513 0.20171 0.007013
   vertex 0.025968 0.203175 0.008284
  endloop
 endfacet
 facet normal 0.525774 -0.155534 -0.836284
  outer loop
   vertex 0.025968 0.203175 0.008284
   vertex 0.023513 0.20171 0.007013
   vertex 0.023732 0.2048 0.006576
  endloop
 endfacet
 facet normal 0.370096 -0.155752 -0.915844
  outer loop
   vertex 0.023513 0.20171 0.007013
   vertex 0.021292 0.203324 0.005841
   vertex 0.023732 0.2048 0.006576
  endloop
 endfacet
 facet normal 0.288428 0 -0.957502
  outer loop
   vertex 0.023732 0.2048 0.006576
   vertex 0.021292 0.203324 0.005841
   vertex 0.021292 0.206276 0.005841
  endloop
 endfacet
 facet normal 0.156037 0 -0.987751
  outer loop
   vertex 0.021292 0.203324 0.005841
   vertex 0.01926 0.2048 0.00552
   vertex 0.021292 0.206276 0.005841
  endloop
 endfacet
 facet normal -0.168666 -0.815046 -0.554303
  outer loop
   vertex 0.016932 0.197634 0.008945
   vertex 0.018964 0.196158 0.010497
   vertex 0.016496 0.196294 0.011048
  endloop
 endfacet
 facet normal -0.112009 -0.640965 -0.759354
  outer loop
   vertex 0.017635 0.1998 0.007013
   vertex 0.019788 0.197918 0.008284
   vertex 0.016932 0.197634 0.008945
  endloop
 endfacet
 facet normal -0.0336945 -0.400135 -0.915836
  outer loop
   vertex 0.018484 0.202411 0.005841
   vertex 0.020642 0.200547 0.006576
   vertex 0.017635 0.1998 0.007013
  endloop
 endfacet
 facet normal -0.0710868 -0.767617 -0.636955
  outer loop
   vertex 0.016932 0.197634 0.008945
   vertex 0.019788 0.197918 0.008284
   vertex 0.018964 0.196158 0.010497
  endloop
 endfacet
 facet normal 0.102735 -0.796801 -0.595444
  outer loop
   vertex 0.019788 0.197918 0.008284
   vertex 0.021889 0.19671 0.010263
   vertex 0.018964 0.196158 0.010497
  endloop
 endfacet
 facet normal 0.0146149 -0.548074 -0.836302
  outer loop
   vertex 0.017635 0.1998 0.007013
   vertex 0.020642 0.200547 0.006576
   vertex 0.019788 0.197918 0.008284
  endloop
 endfacet
 facet normal 0.187559 -0.577248 -0.794737
  outer loop
   vertex 0.020642 0.200547 0.006576
   vertex 0.022878 0.198922 0.008284
   vertex 0.019788 0.197918 0.008284
  endloop
 endfacet
 facet normal 0.228709 -0.703897 -0.672474
  outer loop
   vertex 0.019788 0.197918 0.008284
   vertex 0.022878 0.198922 0.008284
   vertex 0.021889 0.19671 0.010263
  endloop
 endfacet
 facet normal 0.38541 -0.704977 -0.595371
  outer loop
   vertex 0.022878 0.198922 0.008284
   vertex 0.024579 0.197983 0.010497
   vertex 0.021889 0.19671 0.010263
  endloop
 endfacet
 facet normal 0.0891868 -0.274301 -0.957499
  outer loop
   vertex 0.018484 0.202411 0.005841
   vertex 0.021292 0.203324 0.005841
   vertex 0.020642 0.200547 0.006576
  endloop
 endfacet
 facet normal 0.262485 -0.303841 -0.915851
  outer loop
   vertex 0.021292 0.203324 0.005841
   vertex 0.023513 0.20171 0.007013
   vertex 0.020642 0.200547 0.006576
  endloop
 endfacet
 facet normal 0.310374 -0.451949 -0.836307
  outer loop
   vertex 0.020642 0.200547 0.006576
   vertex 0.023513 0.20171 0.007013
   vertex 0.022878 0.198922 0.008284
  endloop
 endfacet
 facet normal 0.467426 -0.452641 -0.759361
  outer loop
   vertex 0.023513 0.20171 0.007013
   vertex 0.025355 0.200371 0.008945
   vertex 0.022878 0.198922 0.008284
  endloop
 endfacet
 facet normal 0.508799 -0.579247 -0.636864
  outer loop
   vertex 0.022878 0.198922 0.008284
   vertex 0.025355 0.200371 0.008945
   vertex 0.024579 0.197983 0.010497
  endloop
 endfacet
 facet normal 0.61533 -0.560308 -0.554459
  outer loop
   vertex 0.025355 0.200371 0.008945
   vertex 0.026496 0.199543 0.011048
   vertex 0.024579 0.197983 0.010497
  endloop
 endfacet
endsolid ExportedfromBlender-3.5.1
