solid ExportedfromBlender-3.5.1
 facet normal 0.0482486 -0.148392 -0.987751
  outer loop
   vertex 0.01379 0.12281 0.01207
   vertex 0.015822 0.121334 0.012391
   vertex 0.013014 0.120421 0.012391
  endloop
 endfacet
 facet normal 0.723015 -0.412034 -0.554506
  outer loop
   vertex 0.021026 0.117553 0.017598
   vertex 0.019885 0.118381 0.015495
   vertex 0.021917 0.119858 0.017047
  endloop
 endfacet
 facet normal -0.126271 -0.0917039 -0.987748
  outer loop
   vertex 0.01379 0.12281 0.01207
   vertex 0.013014 0.120421 0.012391
   vertex 0.011279 0.12281 0.012391
  endloop
 endfacet
 facet normal -0.126271 0.0917039 -0.987748
  outer loop
   vertex 0.01379 0.12281 0.01207
   vertex 0.011279 0.12281 0.012391
   vertex 0.013014 0.125199 0.012391
  endloop
 endfacet
 facet normal 0.0482486 0.148392 -0.987751
  outer loop
   vertex 0.01379 0.12281 0.01207
   vertex 0.013014 0.125199 0.012391
   vertex 0.015822 0.124286 0.012391
  endloop
 endfacet
 facet normal 0.819189 -0.412026 -0.398954
  outer loop
   vertex 0.021026 0.117553 0.017598
   vertex 0.021917 0.119858 0.017047
   vertex 0.022397 0.118381 0.019558
  endloop
 endfacet
 facet normal -0.138975 -0.90647 -0.398746
  outer loop
   vertex 0.011026 0.114304 0.017598
   vertex 0.013494 0.114168 0.017047
   vertex 0.012238 0.113256 0.019558
  endloop
 endfacet
 facet normal -0.905177 -0.147939 -0.398459
  outer loop
   vertex 0.004846 0.12281 0.017598
   vertex 0.005479 0.120421 0.017047
   vertex 0.004224 0.121334 0.019559
  endloop
 endfacet
 facet normal -0.420269 0.815078 -0.398776
  outer loop
   vertex 0.011026 0.131316 0.017598
   vertex 0.00895 0.129976 0.017047
   vertex 0.00943 0.131452 0.019558
  endloop
 endfacet
 facet normal 0.645038 0.651744 -0.398942
  outer loop
   vertex 0.021026 0.128067 0.017598
   vertex 0.019109 0.129627 0.017047
   vertex 0.020662 0.129627 0.019558
  endloop
 endfacet
 facet normal 0.771063 -0.560215 -0.302688
  outer loop
   vertex 0.021026 0.117553 0.017598
   vertex 0.022397 0.118381 0.019558
   vertex 0.020662 0.115993 0.019558
  endloop
 endfacet
 facet normal -0.294416 -0.906493 -0.302638
  outer loop
   vertex 0.011026 0.114304 0.017598
   vertex 0.012238 0.113256 0.019558
   vertex 0.00943 0.114168 0.019558
  endloop
 endfacet
 facet normal -0.9532 0 -0.302341
  outer loop
   vertex 0.004846 0.12281 0.017598
   vertex 0.004224 0.121334 0.019559
   vertex 0.004224 0.124286 0.019559
  endloop
 endfacet
 facet normal -0.294416 0.906493 -0.302638
  outer loop
   vertex 0.011026 0.131316 0.017598
   vertex 0.00943 0.131452 0.019558
   vertex 0.012238 0.132364 0.019558
  endloop
 endfacet
 facet normal 0.771063 0.560215 -0.302688
  outer loop
   vertex 0.021026 0.128067 0.017598
   vertex 0.020662 0.129627 0.019558
   vertex 0.022397 0.127239 0.019558
  endloop
 endfacet
 facet normal 0.342493 -0.758552 0.554344
  outer loop
   vertex 0.016554 0.114304 0.026542
   vertex 0.01863 0.115644 0.027093
   vertex 0.016118 0.115644 0.028645
  endloop
 endfacet
 facet normal -0.61533 -0.560308 0.554459
  outer loop
   vertex 0.006554 0.117553 0.026542
   vertex 0.008471 0.115993 0.027093
   vertex 0.007695 0.118381 0.028645
  endloop
 endfacet
 facet normal -0.723015 0.412034 0.554506
  outer loop
   vertex 0.006554 0.128067 0.026542
   vertex 0.005663 0.125762 0.027093
   vertex 0.007695 0.127239 0.028645
  endloop
 endfacet
 facet normal 0.168666 0.815046 0.554303
  outer loop
   vertex 0.016554 0.131316 0.026542
   vertex 0.014086 0.131452 0.027093
   vertex 0.016118 0.129976 0.028645
  endloop
 endfacet
 facet normal 0.827124 0.091254 0.554562
  outer loop
   vertex 0.022734 0.12281 0.026542
   vertex 0.022101 0.125199 0.027093
   vertex 0.021324 0.12281 0.028645
  endloop
 endfacet
 facet normal 0.126271 0.0917039 0.987748
  outer loop
   vertex 0.016301 0.12281 0.031749
   vertex 0.014566 0.125199 0.031749
   vertex 0.01379 0.12281 0.03207
  endloop
 endfacet
 facet normal 0.390899 0.0914587 0.915878
  outer loop
   vertex 0.019047 0.12281 0.030577
   vertex 0.017408 0.125439 0.031014
   vertex 0.016301 0.12281 0.031749
  endloop
 endfacet
 facet normal 0.644269 0.0913996 0.759317
  outer loop
   vertex 0.021324 0.12281 0.028645
   vertex 0.020172 0.125439 0.029306
   vertex 0.019047 0.12281 0.030577
  endloop
 endfacet
 facet normal 0.233325 0.169451 0.957521
  outer loop
   vertex 0.016301 0.12281 0.031749
   vertex 0.017408 0.125439 0.031014
   vertex 0.014566 0.125199 0.031749
  endloop
 endfacet
 facet normal 0.207851 0.343516 0.915858
  outer loop
   vertex 0.017408 0.125439 0.031014
   vertex 0.015415 0.12781 0.030577
   vertex 0.014566 0.125199 0.031749
  endloop
 endfacet
 facet normal 0.516783 0.183167 0.836293
  outer loop
   vertex 0.019047 0.12281 0.030577
   vertex 0.020172 0.125439 0.029306
   vertex 0.017408 0.125439 0.031014
  endloop
 endfacet
 facet normal 0.491058 0.356895 0.794662
  outer loop
   vertex 0.020172 0.125439 0.029306
   vertex 0.018262 0.128067 0.029306
   vertex 0.017408 0.125439 0.031014
  endloop
 endfacet
 facet normal 0.334054 0.43492 0.836213
  outer loop
   vertex 0.017408 0.125439 0.031014
   vertex 0.018262 0.128067 0.029306
   vertex 0.015415 0.12781 0.030577
  endloop
 endfacet
 facet normal 0.286233 0.584386 0.759318
  outer loop
   vertex 0.018262 0.128067 0.029306
   vertex 0.016118 0.129976 0.028645
   vertex 0.015415 0.12781 0.030577
  endloop
 endfacet
 facet normal 0.751958 0.169318 0.637095
  outer loop
   vertex 0.021324 0.12281 0.028645
   vertex 0.022101 0.125199 0.027093
   vertex 0.020172 0.125439 0.029306
  endloop
 endfacet
 facet normal 0.725985 0.343961 0.595514
  outer loop
   vertex 0.022101 0.125199 0.027093
   vertex 0.020672 0.12781 0.027327
   vertex 0.020172 0.125439 0.029306
  endloop
 endfacet
 facet normal 0.598657 0.435097 0.672533
  outer loop
   vertex 0.020172 0.125439 0.029306
   vertex 0.020672 0.12781 0.027327
   vertex 0.018262 0.128067 0.029306
  endloop
 endfacet
 facet normal 0.551379 0.584158 0.595601
  outer loop
   vertex 0.020672 0.12781 0.027327
   vertex 0.01863 0.129976 0.027093
   vertex 0.018262 0.128067 0.029306
  endloop
 endfacet
 facet normal 0.393627 0.662685 0.637108
  outer loop
   vertex 0.018262 0.128067 0.029306
   vertex 0.01863 0.129976 0.027093
   vertex 0.016118 0.129976 0.028645
  endloop
 endfacet
 facet normal 0.342493 0.758552 0.554344
  outer loop
   vertex 0.01863 0.129976 0.027093
   vertex 0.016554 0.131316 0.026542
   vertex 0.016118 0.129976 0.028645
  endloop
 endfacet
 facet normal -0.0482486 0.148392 0.987751
  outer loop
   vertex 0.014566 0.125199 0.031749
   vertex 0.011758 0.124286 0.031749
   vertex 0.01379 0.12281 0.03207
  endloop
 endfacet
 facet normal 0.0336945 0.400135 0.915836
  outer loop
   vertex 0.015415 0.12781 0.030577
   vertex 0.012408 0.127063 0.031014
   vertex 0.014566 0.125199 0.031749
  endloop
 endfacet
 facet normal 0.112009 0.640965 0.759354
  outer loop
   vertex 0.016118 0.129976 0.028645
   vertex 0.013262 0.129692 0.029306
   vertex 0.015415 0.12781 0.030577
  endloop
 endfacet
 facet normal -0.0891868 0.274301 0.957499
  outer loop
   vertex 0.014566 0.125199 0.031749
   vertex 0.012408 0.127063 0.031014
   vertex 0.011758 0.124286 0.031749
  endloop
 endfacet
 facet normal -0.262485 0.303841 0.915851
  outer loop
   vertex 0.012408 0.127063 0.031014
   vertex 0.009537 0.1259 0.030577
   vertex 0.011758 0.124286 0.031749
  endloop
 endfacet
 facet normal -0.0146149 0.548074 0.836302
  outer loop
   vertex 0.015415 0.12781 0.030577
   vertex 0.013262 0.129692 0.029306
   vertex 0.012408 0.127063 0.031014
  endloop
 endfacet
 facet normal -0.187559 0.577248 0.794737
  outer loop
   vertex 0.013262 0.129692 0.029306
   vertex 0.010172 0.128688 0.029306
   vertex 0.012408 0.127063 0.031014
  endloop
 endfacet
 facet normal -0.310374 0.451949 0.836307
  outer loop
   vertex 0.012408 0.127063 0.031014
   vertex 0.010172 0.128688 0.029306
   vertex 0.009537 0.1259 0.030577
  endloop
 endfacet
 facet normal -0.467426 0.452641 0.759361
  outer loop
   vertex 0.010172 0.128688 0.029306
   vertex 0.007695 0.127239 0.028645
   vertex 0.009537 0.1259 0.030577
  endloop
 endfacet
 facet normal 0.0710868 0.767617 0.636955
  outer loop
   vertex 0.016118 0.129976 0.028645
   vertex 0.014086 0.131452 0.027093
   vertex 0.013262 0.129692 0.029306
  endloop
 endfacet
 facet normal -0.102735 0.796801 0.595444
  outer loop
   vertex 0.014086 0.131452 0.027093
   vertex 0.011161 0.1309 0.027327
   vertex 0.013262 0.129692 0.029306
  endloop
 endfacet
 facet normal -0.228709 0.703897 0.672474
  outer loop
   vertex 0.013262 0.129692 0.029306
   vertex 0.011161 0.1309 0.027327
   vertex 0.010172 0.128688 0.029306
  endloop
 endfacet
 facet normal -0.38541 0.704977 0.595371
  outer loop
   vertex 0.011161 0.1309 0.027327
   vertex 0.008471 0.129627 0.027093
   vertex 0.010172 0.128688 0.029306
  endloop
 endfacet
 facet normal -0.508799 0.579247 0.636864
  outer loop
   vertex 0.010172 0.128688 0.029306
   vertex 0.008471 0.129627 0.027093
   vertex 0.007695 0.127239 0.028645
  endloop
 endfacet
 facet normal -0.61533 0.560308 0.554459
  outer loop
   vertex 0.008471 0.129627 0.027093
   vertex 0.006554 0.128067 0.026542
   vertex 0.007695 0.127239 0.028645
  endloop
 endfacet
 facet normal -0.156037 0 0.987751
  outer loop
   vertex 0.011758 0.124286 0.031749
   vertex 0.011758 0.121334 0.031749
   vertex 0.01379 0.12281 0.03207
  endloop
 endfacet
 facet normal -0.370096 0.155752 0.915844
  outer loop
   vertex 0.009537 0.1259 0.030577
   vertex 0.009318 0.12281 0.031014
   vertex 0.011758 0.124286 0.031749
  endloop
 endfacet
 facet normal -0.574948 0.304695 0.759339
  outer loop
   vertex 0.007695 0.127239 0.028645
   vertex 0.007082 0.124435 0.029306
   vertex 0.009537 0.1259 0.030577
  endloop
 endfacet
 facet normal -0.288428 0 0.957502
  outer loop
   vertex 0.011758 0.124286 0.031749
   vertex 0.009318 0.12281 0.031014
   vertex 0.011758 0.121334 0.031749
  endloop
 endfacet
 facet normal -0.370096 -0.155752 0.915844
  outer loop
   vertex 0.009318 0.12281 0.031014
   vertex 0.009537 0.11972 0.030577
   vertex 0.011758 0.121334 0.031749
  endloop
 endfacet
 facet normal -0.525774 0.155534 0.836284
  outer loop
   vertex 0.009537 0.1259 0.030577
   vertex 0.007082 0.124435 0.029306
   vertex 0.009318 0.12281 0.031014
  endloop
 endfacet
 facet normal -0.607028 0 0.794681
  outer loop
   vertex 0.007082 0.124435 0.029306
   vertex 0.007082 0.121185 0.029306
   vertex 0.009318 0.12281 0.031014
  endloop
 endfacet
 facet normal -0.525774 -0.155534 0.836284
  outer loop
   vertex 0.009318 0.12281 0.031014
   vertex 0.007082 0.121185 0.029306
   vertex 0.009537 0.11972 0.030577
  endloop
 endfacet
 facet normal -0.574948 -0.304695 0.759339
  outer loop
   vertex 0.007082 0.121185 0.029306
   vertex 0.007695 0.118381 0.028645
   vertex 0.009537 0.11972 0.030577
  endloop
 endfacet
 facet normal -0.708089 0.304936 0.636886
  outer loop
   vertex 0.007695 0.127239 0.028645
   vertex 0.005663 0.125762 0.027093
   vertex 0.007082 0.124435 0.029306
  endloop
 endfacet
 facet normal -0.789589 0.148568 0.59538
  outer loop
   vertex 0.005663 0.125762 0.027093
   vertex 0.005284 0.12281 0.027327
   vertex 0.007082 0.124435 0.029306
  endloop
 endfacet
 facet normal -0.740143 0 0.672449
  outer loop
   vertex 0.007082 0.124435 0.029306
   vertex 0.005284 0.12281 0.027327
   vertex 0.007082 0.121185 0.029306
  endloop
 endfacet
 facet normal -0.789589 -0.148568 0.59538
  outer loop
   vertex 0.005284 0.12281 0.027327
   vertex 0.005663 0.119858 0.027093
   vertex 0.007082 0.121185 0.029306
  endloop
 endfacet
 facet normal -0.708089 -0.304936 0.636886
  outer loop
   vertex 0.007082 0.121185 0.029306
   vertex 0.005663 0.119858 0.027093
   vertex 0.007695 0.118381 0.028645
  endloop
 endfacet
 facet normal -0.723015 -0.412034 0.554506
  outer loop
   vertex 0.005663 0.119858 0.027093
   vertex 0.006554 0.117553 0.026542
   vertex 0.007695 0.118381 0.028645
  endloop
 endfacet
 facet normal -0.0482486 -0.148392 0.987751
  outer loop
   vertex 0.011758 0.121334 0.031749
   vertex 0.014566 0.120421 0.031749
   vertex 0.01379 0.12281 0.03207
  endloop
 endfacet
 facet normal -0.262485 -0.303841 0.915851
  outer loop
   vertex 0.009537 0.11972 0.030577
   vertex 0.012408 0.118557 0.031014
   vertex 0.011758 0.121334 0.031749
  endloop
 endfacet
 facet normal -0.467426 -0.452641 0.759361
  outer loop
   vertex 0.007695 0.118381 0.028645
   vertex 0.010172 0.116932 0.029306
   vertex 0.009537 0.11972 0.030577
  endloop
 endfacet
 facet normal -0.0891868 -0.274301 0.957499
  outer loop
   vertex 0.011758 0.121334 0.031749
   vertex 0.012408 0.118557 0.031014
   vertex 0.014566 0.120421 0.031749
  endloop
 endfacet
 facet normal 0.0336945 -0.400135 0.915836
  outer loop
   vertex 0.012408 0.118557 0.031014
   vertex 0.015415 0.11781 0.030577
   vertex 0.014566 0.120421 0.031749
  endloop
 endfacet
 facet normal -0.310374 -0.451949 0.836307
  outer loop
   vertex 0.009537 0.11972 0.030577
   vertex 0.010172 0.116932 0.029306
   vertex 0.012408 0.118557 0.031014
  endloop
 endfacet
 facet normal -0.187559 -0.577248 0.794737
  outer loop
   vertex 0.010172 0.116932 0.029306
   vertex 0.013262 0.115928 0.029306
   vertex 0.012408 0.118557 0.031014
  endloop
 endfacet
 facet normal -0.0146149 -0.548074 0.836302
  outer loop
   vertex 0.012408 0.118557 0.031014
   vertex 0.013262 0.115928 0.029306
   vertex 0.015415 0.11781 0.030577
  endloop
 endfacet
 facet normal 0.112009 -0.640965 0.759354
  outer loop
   vertex 0.013262 0.115928 0.029306
   vertex 0.016118 0.115644 0.028645
   vertex 0.015415 0.11781 0.030577
  endloop
 endfacet
 facet normal -0.508799 -0.579247 0.636864
  outer loop
   vertex 0.007695 0.118381 0.028645
   vertex 0.008471 0.115993 0.027093
   vertex 0.010172 0.116932 0.029306
  endloop
 endfacet
 facet normal -0.38541 -0.704977 0.595371
  outer loop
   vertex 0.008471 0.115993 0.027093
   vertex 0.011161 0.11472 0.027327
   vertex 0.010172 0.116932 0.029306
  endloop
 endfacet
 facet normal -0.228709 -0.703897 0.672474
  outer loop
   vertex 0.010172 0.116932 0.029306
   vertex 0.011161 0.11472 0.027327
   vertex 0.013262 0.115928 0.029306
  endloop
 endfacet
 facet normal -0.102735 -0.796801 0.595444
  outer loop
   vertex 0.011161 0.11472 0.027327
   vertex 0.014086 0.114168 0.027093
   vertex 0.013262 0.115928 0.029306
  endloop
 endfacet
 facet normal 0.0710868 -0.767617 0.636955
  outer loop
   vertex 0.013262 0.115928 0.029306
   vertex 0.014086 0.114168 0.027093
   vertex 0.016118 0.115644 0.028645
  endloop
 endfacet
 facet normal 0.168666 -0.815046 0.554303
  outer loop
   vertex 0.014086 0.114168 0.027093
   vertex 0.016554 0.114304 0.026542
   vertex 0.016118 0.115644 0.028645
  endloop
 endfacet
 facet normal 0.126271 -0.0917039 0.987748
  outer loop
   vertex 0.014566 0.120421 0.031749
   vertex 0.016301 0.12281 0.031749
   vertex 0.01379 0.12281 0.03207
  endloop
 endfacet
 facet normal 0.207851 -0.343516 0.915858
  outer loop
   vertex 0.015415 0.11781 0.030577
   vertex 0.017408 0.120181 0.031014
   vertex 0.014566 0.120421 0.031749
  endloop
 endfacet
 facet normal 0.286233 -0.584386 0.759318
  outer loop
   vertex 0.016118 0.115644 0.028645
   vertex 0.018262 0.117553 0.029306
   vertex 0.015415 0.11781 0.030577
  endloop
 endfacet
 facet normal 0.233325 -0.169451 0.957521
  outer loop
   vertex 0.014566 0.120421 0.031749
   vertex 0.017408 0.120181 0.031014
   vertex 0.016301 0.12281 0.031749
  endloop
 endfacet
 facet normal 0.390899 -0.0914587 0.915878
  outer loop
   vertex 0.017408 0.120181 0.031014
   vertex 0.019047 0.12281 0.030577
   vertex 0.016301 0.12281 0.031749
  endloop
 endfacet
 facet normal 0.334054 -0.43492 0.836213
  outer loop
   vertex 0.015415 0.11781 0.030577
   vertex 0.018262 0.117553 0.029306
   vertex 0.017408 0.120181 0.031014
  endloop
 endfacet
 facet normal 0.491058 -0.356895 0.794662
  outer loop
   vertex 0.018262 0.117553 0.029306
   vertex 0.020172 0.120181 0.029306
   vertex 0.017408 0.120181 0.031014
  endloop
 endfacet
 facet normal 0.516783 -0.183167 0.836293
  outer loop
   vertex 0.017408 0.120181 0.031014
   vertex 0.020172 0.120181 0.029306
   vertex 0.019047 0.12281 0.030577
  endloop
 endfacet
 facet normal 0.644269 -0.0913996 0.759317
  outer loop
   vertex 0.020172 0.120181 0.029306
   vertex 0.021324 0.12281 0.028645
   vertex 0.019047 0.12281 0.030577
  endloop
 endfacet
 facet normal 0.393627 -0.662685 0.637108
  outer loop
   vertex 0.016118 0.115644 0.028645
   vertex 0.01863 0.115644 0.027093
   vertex 0.018262 0.117553 0.029306
  endloop
 endfacet
 facet normal 0.551379 -0.584158 0.595601
  outer loop
   vertex 0.01863 0.115644 0.027093
   vertex 0.020672 0.11781 0.027327
   vertex 0.018262 0.117553 0.029306
  endloop
 endfacet
 facet normal 0.598657 -0.435097 0.672533
  outer loop
   vertex 0.018262 0.117553 0.029306
   vertex 0.020672 0.11781 0.027327
   vertex 0.020172 0.120181 0.029306
  endloop
 endfacet
 facet normal 0.725985 -0.343961 0.595514
  outer loop
   vertex 0.020672 0.11781 0.027327
   vertex 0.022101 0.120421 0.027093
   vertex 0.020172 0.120181 0.029306
  endloop
 endfacet
 facet normal 0.751958 -0.169318 0.637095
  outer loop
   vertex 0.020172 0.120181 0.029306
   vertex 0.022101 0.120421 0.027093
   vertex 0.021324 0.12281 0.028645
  endloop
 endfacet
 facet normal 0.827124 -0.091254 0.554562
  outer loop
   vertex 0.022101 0.120421 0.027093
   vertex 0.022734 0.12281 0.026542
   vertex 0.021324 0.12281 0.028645
  endloop
 endfacet
 facet normal 0.905177 0.147939 0.398459
  outer loop
   vertex 0.023356 0.124286 0.024581
   vertex 0.022101 0.125199 0.027093
   vertex 0.022734 0.12281 0.026542
  endloop
 endfacet
 facet normal 0.93657 0.303801 0.17476
  outer loop
   vertex 0.023301 0.1259 0.02207
   vertex 0.022408 0.127063 0.024834
   vertex 0.023356 0.124286 0.024581
  endloop
 endfacet
 facet normal 0.888212 0.452708 -0.078331
  outer loop
   vertex 0.022397 0.127239 0.019558
   vertex 0.02188 0.128688 0.02207
   vertex 0.023301 0.1259 0.02207
  endloop
 endfacet
 facet normal 0.89641 0.274294 0.348155
  outer loop
   vertex 0.023356 0.124286 0.024581
   vertex 0.022408 0.127063 0.024834
   vertex 0.022101 0.125199 0.027093
  endloop
 endfacet
 facet normal 0.803858 0.400541 0.439749
  outer loop
   vertex 0.022408 0.127063 0.024834
   vertex 0.020672 0.12781 0.027327
   vertex 0.022101 0.125199 0.027093
  endloop
 endfacet
 facet normal 0.886806 0.451991 0.0963284
  outer loop
   vertex 0.023301 0.1259 0.02207
   vertex 0.02188 0.128688 0.02207
   vertex 0.022408 0.127063 0.024834
  endloop
 endfacet
 facet normal 0.794662 0.577331 0.18762
  outer loop
   vertex 0.02188 0.128688 0.02207
   vertex 0.020498 0.129692 0.024834
   vertex 0.022408 0.127063 0.024834
  endloop
 endfacet
 facet normal 0.754436 0.548107 0.361117
  outer loop
   vertex 0.022408 0.127063 0.024834
   vertex 0.020498 0.129692 0.024834
   vertex 0.020672 0.12781 0.027327
  endloop
 endfacet
 facet normal 0.629279 0.640767 0.439803
  outer loop
   vertex 0.020498 0.129692 0.024834
   vertex 0.01863 0.129976 0.027093
   vertex 0.020672 0.12781 0.027327
  endloop
 endfacet
 facet normal 0.797233 0.579229 -0.170037
  outer loop
   vertex 0.022397 0.127239 0.019558
   vertex 0.020662 0.129627 0.019558
   vertex 0.02188 0.128688 0.02207
  endloop
 endfacet
 facet normal 0.704936 0.704936 -0.0782949
  outer loop
   vertex 0.020662 0.129627 0.019558
   vertex 0.019668 0.1309 0.02207
   vertex 0.02188 0.128688 0.02207
  endloop
 endfacet
 facet normal 0.703824 0.703824 0.0962537
  outer loop
   vertex 0.02188 0.128688 0.02207
   vertex 0.019668 0.1309 0.02207
   vertex 0.020498 0.129692 0.024834
  endloop
 endfacet
 facet normal 0.578519 0.796783 0.174509
  outer loop
   vertex 0.019668 0.1309 0.02207
   vertex 0.01815 0.131452 0.024582
   vertex 0.020498 0.129692 0.024834
  endloop
 endfacet
 facet normal 0.537986 0.767602 0.348366
  outer loop
   vertex 0.020498 0.129692 0.024834
   vertex 0.01815 0.131452 0.024582
   vertex 0.01863 0.129976 0.027093
  endloop
 endfacet
 facet normal 0.420269 0.815078 0.398776
  outer loop
   vertex 0.01815 0.131452 0.024582
   vertex 0.016554 0.131316 0.026542
   vertex 0.01863 0.129976 0.027093
  endloop
 endfacet
 facet normal 0.138975 0.90647 0.398746
  outer loop
   vertex 0.015342 0.132364 0.024582
   vertex 0.014086 0.131452 0.027093
   vertex 0.016554 0.131316 0.026542
  endloop
 endfacet
 facet normal 0.000555151 0.98466 0.174481
  outer loop
   vertex 0.01379 0.13281 0.02207
   vertex 0.012408 0.132321 0.024834
   vertex 0.015342 0.132364 0.024582
  endloop
 endfacet
 facet normal -0.155824 0.984657 -0.07855
  outer loop
   vertex 0.012238 0.132364 0.019558
   vertex 0.0107 0.132321 0.02207
   vertex 0.01379 0.13281 0.02207
  endloop
 endfacet
 facet normal 0.0161962 0.937175 0.348485
  outer loop
   vertex 0.015342 0.132364 0.024582
   vertex 0.012408 0.132321 0.024834
   vertex 0.014086 0.131452 0.027093
  endloop
 endfacet
 facet normal -0.132412 0.888171 0.440021
  outer loop
   vertex 0.012408 0.132321 0.024834
   vertex 0.011161 0.1309 0.027327
   vertex 0.014086 0.131452 0.027093
  endloop
 endfacet
 facet normal -0.155583 0.983133 0.0961419
  outer loop
   vertex 0.01379 0.13281 0.02207
   vertex 0.0107 0.132321 0.02207
   vertex 0.012408 0.132321 0.024834
  endloop
 endfacet
 facet normal -0.303796 0.934059 0.187729
  outer loop
   vertex 0.0107 0.132321 0.02207
   vertex 0.009318 0.131316 0.024834
   vertex 0.012408 0.132321 0.024834
  endloop
 endfacet
 facet normal -0.288415 0.886769 0.361189
  outer loop
   vertex 0.012408 0.132321 0.024834
   vertex 0.009318 0.131316 0.024834
   vertex 0.011161 0.1309 0.027327
  endloop
 endfacet
 facet normal -0.415138 0.796394 0.439791
  outer loop
   vertex 0.009318 0.131316 0.024834
   vertex 0.008471 0.129627 0.027093
   vertex 0.011161 0.1309 0.027327
  endloop
 endfacet
 facet normal -0.304389 0.937197 -0.170322
  outer loop
   vertex 0.012238 0.132364 0.019558
   vertex 0.00943 0.131452 0.019558
   vertex 0.0107 0.132321 0.02207
  endloop
 endfacet
 facet normal -0.452705 0.888208 -0.0783901
  outer loop
   vertex 0.00943 0.131452 0.019558
   vertex 0.007912 0.1309 0.02207
   vertex 0.0107 0.132321 0.02207
  endloop
 endfacet
 facet normal -0.451986 0.886796 0.0964489
  outer loop
   vertex 0.0107 0.132321 0.02207
   vertex 0.007912 0.1309 0.02207
   vertex 0.009318 0.131316 0.024834
  endloop
 endfacet
 facet normal -0.578874 0.796508 0.174584
  outer loop
   vertex 0.007912 0.1309 0.02207
   vertex 0.006918 0.129627 0.024582
   vertex 0.009318 0.131316 0.024834
  endloop
 endfacet
 facet normal -0.563623 0.748876 0.348589
  outer loop
   vertex 0.009318 0.131316 0.024834
   vertex 0.006918 0.129627 0.024582
   vertex 0.008471 0.129627 0.027093
  endloop
 endfacet
 facet normal -0.645038 0.651744 0.398942
  outer loop
   vertex 0.006918 0.129627 0.024582
   vertex 0.006554 0.128067 0.026542
   vertex 0.008471 0.129627 0.027093
  endloop
 endfacet
 facet normal -0.819189 0.412026 0.398954
  outer loop
   vertex 0.005183 0.127239 0.024582
   vertex 0.005663 0.125762 0.027093
   vertex 0.006554 0.128067 0.026542
  endloop
 endfacet
 facet normal -0.936352 0.304548 0.174631
  outer loop
   vertex 0.004279 0.1259 0.02207
   vertex 0.004318 0.124435 0.024834
   vertex 0.005183 0.127239 0.024582
  endloop
 endfacet
 facet normal -0.984653 0.155824 -0.0785916
  outer loop
   vertex 0.004224 0.124286 0.019559
   vertex 0.00379 0.12281 0.02207
   vertex 0.004279 0.1259 0.02207
  endloop
 endfacet
 facet normal -0.886309 0.304753 0.348685
  outer loop
   vertex 0.005183 0.127239 0.024582
   vertex 0.004318 0.124435 0.024834
   vertex 0.005663 0.125762 0.027093
  endloop
 endfacet
 facet normal -0.885615 0.148581 0.440011
  outer loop
   vertex 0.004318 0.124435 0.024834
   vertex 0.005284 0.12281 0.027327
   vertex 0.005663 0.125762 0.027093
  endloop
 endfacet
 facet normal -0.983115 0.15558 0.0963335
  outer loop
   vertex 0.004279 0.1259 0.02207
   vertex 0.00379 0.12281 0.02207
   vertex 0.004318 0.124435 0.024834
  endloop
 endfacet
 facet normal -0.982239 0 0.187634
  outer loop
   vertex 0.00379 0.12281 0.02207
   vertex 0.004318 0.121185 0.024834
   vertex 0.004318 0.124435 0.024834
  endloop
 endfacet
 facet normal -0.932446 0 0.361309
  outer loop
   vertex 0.004318 0.124435 0.024834
   vertex 0.004318 0.121185 0.024834
   vertex 0.005284 0.12281 0.027327
  endloop
 endfacet
 facet normal -0.885615 -0.148581 0.440011
  outer loop
   vertex 0.004318 0.121185 0.024834
   vertex 0.005663 0.119858 0.027093
   vertex 0.005284 0.12281 0.027327
  endloop
 endfacet
 facet normal -0.98539 -0 -0.170314
  outer loop
   vertex 0.004224 0.124286 0.019559
   vertex 0.004224 0.121334 0.019559
   vertex 0.00379 0.12281 0.02207
  endloop
 endfacet
 facet normal -0.984653 -0.155824 -0.0785916
  outer loop
   vertex 0.004224 0.121334 0.019559
   vertex 0.004279 0.11972 0.02207
   vertex 0.00379 0.12281 0.02207
  endloop
 endfacet
 facet normal -0.983115 -0.15558 0.0963335
  outer loop
   vertex 0.00379 0.12281 0.02207
   vertex 0.004279 0.11972 0.02207
   vertex 0.004318 0.121185 0.024834
  endloop
 endfacet
 facet normal -0.936352 -0.304548 0.174631
  outer loop
   vertex 0.004279 0.11972 0.02207
   vertex 0.005183 0.118381 0.024582
   vertex 0.004318 0.121185 0.024834
  endloop
 endfacet
 facet normal -0.886309 -0.304753 0.348685
  outer loop
   vertex 0.004318 0.121185 0.024834
   vertex 0.005183 0.118381 0.024582
   vertex 0.005663 0.119858 0.027093
  endloop
 endfacet
 facet normal -0.819189 -0.412026 0.398954
  outer loop
   vertex 0.005183 0.118381 0.024582
   vertex 0.006554 0.117553 0.026542
   vertex 0.005663 0.119858 0.027093
  endloop
 endfacet
 facet normal -0.645038 -0.651744 0.398942
  outer loop
   vertex 0.006918 0.115993 0.024582
   vertex 0.008471 0.115993 0.027093
   vertex 0.006554 0.117553 0.026542
  endloop
 endfacet
 facet normal -0.578874 -0.796508 0.174584
  outer loop
   vertex 0.007912 0.11472 0.02207
   vertex 0.009318 0.114304 0.024834
   vertex 0.006918 0.115993 0.024582
  endloop
 endfacet
 facet normal -0.452705 -0.888208 -0.0783901
  outer loop
   vertex 0.00943 0.114168 0.019558
   vertex 0.0107 0.113299 0.02207
   vertex 0.007912 0.11472 0.02207
  endloop
 endfacet
 facet normal -0.563623 -0.748876 0.348589
  outer loop
   vertex 0.006918 0.115993 0.024582
   vertex 0.009318 0.114304 0.024834
   vertex 0.008471 0.115993 0.027093
  endloop
 endfacet
 facet normal -0.415138 -0.796394 0.439791
  outer loop
   vertex 0.009318 0.114304 0.024834
   vertex 0.011161 0.11472 0.027327
   vertex 0.008471 0.115993 0.027093
  endloop
 endfacet
 facet normal -0.451986 -0.886796 0.0964489
  outer loop
   vertex 0.007912 0.11472 0.02207
   vertex 0.0107 0.113299 0.02207
   vertex 0.009318 0.114304 0.024834
  endloop
 endfacet
 facet normal -0.303796 -0.934059 0.187729
  outer loop
   vertex 0.0107 0.113299 0.02207
   vertex 0.012408 0.113299 0.024834
   vertex 0.009318 0.114304 0.024834
  endloop
 endfacet
 facet normal -0.288415 -0.886769 0.361189
  outer loop
   vertex 0.009318 0.114304 0.024834
   vertex 0.012408 0.113299 0.024834
   vertex 0.011161 0.11472 0.027327
  endloop
 endfacet
 facet normal -0.132412 -0.888171 0.440021
  outer loop
   vertex 0.012408 0.113299 0.024834
   vertex 0.014086 0.114168 0.027093
   vertex 0.011161 0.11472 0.027327
  endloop
 endfacet
 facet normal -0.304389 -0.937197 -0.170322
  outer loop
   vertex 0.00943 0.114168 0.019558
   vertex 0.012238 0.113256 0.019558
   vertex 0.0107 0.113299 0.02207
  endloop
 endfacet
 facet normal -0.155824 -0.984657 -0.07855
  outer loop
   vertex 0.012238 0.113256 0.019558
   vertex 0.01379 0.11281 0.02207
   vertex 0.0107 0.113299 0.02207
  endloop
 endfacet
 facet normal -0.155583 -0.983133 0.0961419
  outer loop
   vertex 0.0107 0.113299 0.02207
   vertex 0.01379 0.11281 0.02207
   vertex 0.012408 0.113299 0.024834
  endloop
 endfacet
 facet normal 0.000555151 -0.98466 0.174481
  outer loop
   vertex 0.01379 0.11281 0.02207
   vertex 0.015342 0.113256 0.024582
   vertex 0.012408 0.113299 0.024834
  endloop
 endfacet
 facet normal 0.0161962 -0.937175 0.348485
  outer loop
   vertex 0.012408 0.113299 0.024834
   vertex 0.015342 0.113256 0.024582
   vertex 0.014086 0.114168 0.027093
  endloop
 endfacet
 facet normal 0.138975 -0.90647 0.398746
  outer loop
   vertex 0.015342 0.113256 0.024582
   vertex 0.016554 0.114304 0.026542
   vertex 0.014086 0.114168 0.027093
  endloop
 endfacet
 facet normal 0.420269 -0.815078 0.398776
  outer loop
   vertex 0.01815 0.114168 0.024582
   vertex 0.01863 0.115644 0.027093
   vertex 0.016554 0.114304 0.026542
  endloop
 endfacet
 facet normal 0.578519 -0.796783 0.174509
  outer loop
   vertex 0.019668 0.11472 0.02207
   vertex 0.020498 0.115928 0.024834
   vertex 0.01815 0.114168 0.024582
  endloop
 endfacet
 facet normal 0.704936 -0.704936 -0.0782949
  outer loop
   vertex 0.020662 0.115993 0.019558
   vertex 0.02188 0.116932 0.02207
   vertex 0.019668 0.11472 0.02207
  endloop
 endfacet
 facet normal 0.537986 -0.767602 0.348366
  outer loop
   vertex 0.01815 0.114168 0.024582
   vertex 0.020498 0.115928 0.024834
   vertex 0.01863 0.115644 0.027093
  endloop
 endfacet
 facet normal 0.629279 -0.640767 0.439803
  outer loop
   vertex 0.020498 0.115928 0.024834
   vertex 0.020672 0.11781 0.027327
   vertex 0.01863 0.115644 0.027093
  endloop
 endfacet
 facet normal 0.703824 -0.703824 0.0962537
  outer loop
   vertex 0.019668 0.11472 0.02207
   vertex 0.02188 0.116932 0.02207
   vertex 0.020498 0.115928 0.024834
  endloop
 endfacet
 facet normal 0.794662 -0.577331 0.18762
  outer loop
   vertex 0.02188 0.116932 0.02207
   vertex 0.022408 0.118557 0.024834
   vertex 0.020498 0.115928 0.024834
  endloop
 endfacet
 facet normal 0.754436 -0.548107 0.361117
  outer loop
   vertex 0.020498 0.115928 0.024834
   vertex 0.022408 0.118557 0.024834
   vertex 0.020672 0.11781 0.027327
  endloop
 endfacet
 facet normal 0.803858 -0.400541 0.439749
  outer loop
   vertex 0.022408 0.118557 0.024834
   vertex 0.022101 0.120421 0.027093
   vertex 0.020672 0.11781 0.027327
  endloop
 endfacet
 facet normal 0.797233 -0.579229 -0.170037
  outer loop
   vertex 0.020662 0.115993 0.019558
   vertex 0.022397 0.118381 0.019558
   vertex 0.02188 0.116932 0.02207
  endloop
 endfacet
 facet normal 0.888212 -0.452708 -0.078331
  outer loop
   vertex 0.022397 0.118381 0.019558
   vertex 0.023301 0.11972 0.02207
   vertex 0.02188 0.116932 0.02207
  endloop
 endfacet
 facet normal 0.886806 -0.451991 0.0963284
  outer loop
   vertex 0.02188 0.116932 0.02207
   vertex 0.023301 0.11972 0.02207
   vertex 0.022408 0.118557 0.024834
  endloop
 endfacet
 facet normal 0.93657 -0.303801 0.17476
  outer loop
   vertex 0.023301 0.11972 0.02207
   vertex 0.023356 0.121334 0.024581
   vertex 0.022408 0.118557 0.024834
  endloop
 endfacet
 facet normal 0.89641 -0.274294 0.348155
  outer loop
   vertex 0.022408 0.118557 0.024834
   vertex 0.023356 0.121334 0.024581
   vertex 0.022101 0.120421 0.027093
  endloop
 endfacet
 facet normal 0.905177 -0.147939 0.398459
  outer loop
   vertex 0.023356 0.121334 0.024581
   vertex 0.022734 0.12281 0.026542
   vertex 0.022101 0.120421 0.027093
  endloop
 endfacet
 facet normal 0.294416 0.906493 0.302638
  outer loop
   vertex 0.01815 0.131452 0.024582
   vertex 0.015342 0.132364 0.024582
   vertex 0.016554 0.131316 0.026542
  endloop
 endfacet
 facet normal 0.452705 0.888208 0.0783901
  outer loop
   vertex 0.019668 0.1309 0.02207
   vertex 0.01688 0.132321 0.02207
   vertex 0.01815 0.131452 0.024582
  endloop
 endfacet
 facet normal 0.578874 0.796508 -0.174584
  outer loop
   vertex 0.020662 0.129627 0.019558
   vertex 0.018262 0.131316 0.019306
   vertex 0.019668 0.1309 0.02207
  endloop
 endfacet
 facet normal 0.304389 0.937197 0.170322
  outer loop
   vertex 0.01815 0.131452 0.024582
   vertex 0.01688 0.132321 0.02207
   vertex 0.015342 0.132364 0.024582
  endloop
 endfacet
 facet normal 0.155824 0.984657 0.07855
  outer loop
   vertex 0.01688 0.132321 0.02207
   vertex 0.01379 0.13281 0.02207
   vertex 0.015342 0.132364 0.024582
  endloop
 endfacet
 facet normal 0.451986 0.886796 -0.0964489
  outer loop
   vertex 0.019668 0.1309 0.02207
   vertex 0.018262 0.131316 0.019306
   vertex 0.01688 0.132321 0.02207
  endloop
 endfacet
 facet normal 0.303796 0.934059 -0.187729
  outer loop
   vertex 0.018262 0.131316 0.019306
   vertex 0.015172 0.132321 0.019306
   vertex 0.01688 0.132321 0.02207
  endloop
 endfacet
 facet normal 0.155583 0.983133 -0.0961419
  outer loop
   vertex 0.01688 0.132321 0.02207
   vertex 0.015172 0.132321 0.019306
   vertex 0.01379 0.13281 0.02207
  endloop
 endfacet
 facet normal -0.000555151 0.98466 -0.174481
  outer loop
   vertex 0.015172 0.132321 0.019306
   vertex 0.012238 0.132364 0.019558
   vertex 0.01379 0.13281 0.02207
  endloop
 endfacet
 facet normal 0.563623 0.748876 -0.348589
  outer loop
   vertex 0.020662 0.129627 0.019558
   vertex 0.019109 0.129627 0.017047
   vertex 0.018262 0.131316 0.019306
  endloop
 endfacet
 facet normal 0.415138 0.796394 -0.439791
  outer loop
   vertex 0.019109 0.129627 0.017047
   vertex 0.016419 0.1309 0.016813
   vertex 0.018262 0.131316 0.019306
  endloop
 endfacet
 facet normal 0.288415 0.886769 -0.361189
  outer loop
   vertex 0.018262 0.131316 0.019306
   vertex 0.016419 0.1309 0.016813
   vertex 0.015172 0.132321 0.019306
  endloop
 endfacet
 facet normal 0.132412 0.888171 -0.440021
  outer loop
   vertex 0.016419 0.1309 0.016813
   vertex 0.013494 0.131452 0.017047
   vertex 0.015172 0.132321 0.019306
  endloop
 endfacet
 facet normal -0.0161962 0.937175 -0.348485
  outer loop
   vertex 0.015172 0.132321 0.019306
   vertex 0.013494 0.131452 0.017047
   vertex 0.012238 0.132364 0.019558
  endloop
 endfacet
 facet normal -0.138975 0.90647 -0.398746
  outer loop
   vertex 0.013494 0.131452 0.017047
   vertex 0.011026 0.131316 0.017598
   vertex 0.012238 0.132364 0.019558
  endloop
 endfacet
 facet normal -0.771063 0.560215 0.302688
  outer loop
   vertex 0.006918 0.129627 0.024582
   vertex 0.005183 0.127239 0.024582
   vertex 0.006554 0.128067 0.026542
  endloop
 endfacet
 facet normal -0.704936 0.704936 0.0782949
  outer loop
   vertex 0.007912 0.1309 0.02207
   vertex 0.0057 0.128688 0.02207
   vertex 0.006918 0.129627 0.024582
  endloop
 endfacet
 facet normal -0.578519 0.796783 -0.174509
  outer loop
   vertex 0.00943 0.131452 0.019558
   vertex 0.007082 0.129692 0.019306
   vertex 0.007912 0.1309 0.02207
  endloop
 endfacet
 facet normal -0.797233 0.579229 0.170037
  outer loop
   vertex 0.006918 0.129627 0.024582
   vertex 0.0057 0.128688 0.02207
   vertex 0.005183 0.127239 0.024582
  endloop
 endfacet
 facet normal -0.888212 0.452708 0.078331
  outer loop
   vertex 0.0057 0.128688 0.02207
   vertex 0.004279 0.1259 0.02207
   vertex 0.005183 0.127239 0.024582
  endloop
 endfacet
 facet normal -0.703824 0.703824 -0.0962537
  outer loop
   vertex 0.007912 0.1309 0.02207
   vertex 0.007082 0.129692 0.019306
   vertex 0.0057 0.128688 0.02207
  endloop
 endfacet
 facet normal -0.794662 0.577331 -0.18762
  outer loop
   vertex 0.007082 0.129692 0.019306
   vertex 0.005172 0.127063 0.019306
   vertex 0.0057 0.128688 0.02207
  endloop
 endfacet
 facet normal -0.886806 0.451991 -0.0963284
  outer loop
   vertex 0.0057 0.128688 0.02207
   vertex 0.005172 0.127063 0.019306
   vertex 0.004279 0.1259 0.02207
  endloop
 endfacet
 facet normal -0.93657 0.303801 -0.17476
  outer loop
   vertex 0.005172 0.127063 0.019306
   vertex 0.004224 0.124286 0.019559
   vertex 0.004279 0.1259 0.02207
  endloop
 endfacet
 facet normal -0.537986 0.767602 -0.348366
  outer loop
   vertex 0.00943 0.131452 0.019558
   vertex 0.00895 0.129976 0.017047
   vertex 0.007082 0.129692 0.019306
  endloop
 endfacet
 facet normal -0.629279 0.640767 -0.439803
  outer loop
   vertex 0.00895 0.129976 0.017047
   vertex 0.006908 0.12781 0.016813
   vertex 0.007082 0.129692 0.019306
  endloop
 endfacet
 facet normal -0.754436 0.548107 -0.361117
  outer loop
   vertex 0.007082 0.129692 0.019306
   vertex 0.006908 0.12781 0.016813
   vertex 0.005172 0.127063 0.019306
  endloop
 endfacet
 facet normal -0.803858 0.400541 -0.439749
  outer loop
   vertex 0.006908 0.12781 0.016813
   vertex 0.005479 0.125199 0.017047
   vertex 0.005172 0.127063 0.019306
  endloop
 endfacet
 facet normal -0.89641 0.274294 -0.348155
  outer loop
   vertex 0.005172 0.127063 0.019306
   vertex 0.005479 0.125199 0.017047
   vertex 0.004224 0.124286 0.019559
  endloop
 endfacet
 facet normal -0.905177 0.147939 -0.398459
  outer loop
   vertex 0.005479 0.125199 0.017047
   vertex 0.004846 0.12281 0.017598
   vertex 0.004224 0.124286 0.019559
  endloop
 endfacet
 facet normal -0.771063 -0.560215 0.302688
  outer loop
   vertex 0.005183 0.118381 0.024582
   vertex 0.006918 0.115993 0.024582
   vertex 0.006554 0.117553 0.026542
  endloop
 endfacet
 facet normal -0.888212 -0.452708 0.078331
  outer loop
   vertex 0.004279 0.11972 0.02207
   vertex 0.0057 0.116932 0.02207
   vertex 0.005183 0.118381 0.024582
  endloop
 endfacet
 facet normal -0.93657 -0.303801 -0.17476
  outer loop
   vertex 0.004224 0.121334 0.019559
   vertex 0.005172 0.118557 0.019306
   vertex 0.004279 0.11972 0.02207
  endloop
 endfacet
 facet normal -0.797233 -0.579229 0.170037
  outer loop
   vertex 0.005183 0.118381 0.024582
   vertex 0.0057 0.116932 0.02207
   vertex 0.006918 0.115993 0.024582
  endloop
 endfacet
 facet normal -0.704936 -0.704936 0.0782949
  outer loop
   vertex 0.0057 0.116932 0.02207
   vertex 0.007912 0.11472 0.02207
   vertex 0.006918 0.115993 0.024582
  endloop
 endfacet
 facet normal -0.886806 -0.451991 -0.0963284
  outer loop
   vertex 0.004279 0.11972 0.02207
   vertex 0.005172 0.118557 0.019306
   vertex 0.0057 0.116932 0.02207
  endloop
 endfacet
 facet normal -0.794662 -0.577331 -0.18762
  outer loop
   vertex 0.005172 0.118557 0.019306
   vertex 0.007082 0.115928 0.019306
   vertex 0.0057 0.116932 0.02207
  endloop
 endfacet
 facet normal -0.703824 -0.703824 -0.0962537
  outer loop
   vertex 0.0057 0.116932 0.02207
   vertex 0.007082 0.115928 0.019306
   vertex 0.007912 0.11472 0.02207
  endloop
 endfacet
 facet normal -0.578519 -0.796783 -0.174509
  outer loop
   vertex 0.007082 0.115928 0.019306
   vertex 0.00943 0.114168 0.019558
   vertex 0.007912 0.11472 0.02207
  endloop
 endfacet
 facet normal -0.89641 -0.274294 -0.348155
  outer loop
   vertex 0.004224 0.121334 0.019559
   vertex 0.005479 0.120421 0.017047
   vertex 0.005172 0.118557 0.019306
  endloop
 endfacet
 facet normal -0.803858 -0.400541 -0.439749
  outer loop
   vertex 0.005479 0.120421 0.017047
   vertex 0.006908 0.11781 0.016813
   vertex 0.005172 0.118557 0.019306
  endloop
 endfacet
 facet normal -0.754436 -0.548107 -0.361117
  outer loop
   vertex 0.005172 0.118557 0.019306
   vertex 0.006908 0.11781 0.016813
   vertex 0.007082 0.115928 0.019306
  endloop
 endfacet
 facet normal -0.629279 -0.640767 -0.439803
  outer loop
   vertex 0.006908 0.11781 0.016813
   vertex 0.00895 0.115644 0.017047
   vertex 0.007082 0.115928 0.019306
  endloop
 endfacet
 facet normal -0.537986 -0.767602 -0.348366
  outer loop
   vertex 0.007082 0.115928 0.019306
   vertex 0.00895 0.115644 0.017047
   vertex 0.00943 0.114168 0.019558
  endloop
 endfacet
 facet normal -0.420269 -0.815078 -0.398776
  outer loop
   vertex 0.00895 0.115644 0.017047
   vertex 0.011026 0.114304 0.017598
   vertex 0.00943 0.114168 0.019558
  endloop
 endfacet
 facet normal 0.294416 -0.906493 0.302638
  outer loop
   vertex 0.015342 0.113256 0.024582
   vertex 0.01815 0.114168 0.024582
   vertex 0.016554 0.114304 0.026542
  endloop
 endfacet
 facet normal 0.155824 -0.984657 0.07855
  outer loop
   vertex 0.01379 0.11281 0.02207
   vertex 0.01688 0.113299 0.02207
   vertex 0.015342 0.113256 0.024582
  endloop
 endfacet
 facet normal -0.000555151 -0.98466 -0.174481
  outer loop
   vertex 0.012238 0.113256 0.019558
   vertex 0.015172 0.113299 0.019306
   vertex 0.01379 0.11281 0.02207
  endloop
 endfacet
 facet normal 0.304389 -0.937197 0.170322
  outer loop
   vertex 0.015342 0.113256 0.024582
   vertex 0.01688 0.113299 0.02207
   vertex 0.01815 0.114168 0.024582
  endloop
 endfacet
 facet normal 0.452705 -0.888208 0.0783901
  outer loop
   vertex 0.01688 0.113299 0.02207
   vertex 0.019668 0.11472 0.02207
   vertex 0.01815 0.114168 0.024582
  endloop
 endfacet
 facet normal 0.155583 -0.983133 -0.0961419
  outer loop
   vertex 0.01379 0.11281 0.02207
   vertex 0.015172 0.113299 0.019306
   vertex 0.01688 0.113299 0.02207
  endloop
 endfacet
 facet normal 0.303796 -0.934059 -0.187729
  outer loop
   vertex 0.015172 0.113299 0.019306
   vertex 0.018262 0.114304 0.019306
   vertex 0.01688 0.113299 0.02207
  endloop
 endfacet
 facet normal 0.451986 -0.886796 -0.0964489
  outer loop
   vertex 0.01688 0.113299 0.02207
   vertex 0.018262 0.114304 0.019306
   vertex 0.019668 0.11472 0.02207
  endloop
 endfacet
 facet normal 0.578874 -0.796508 -0.174584
  outer loop
   vertex 0.018262 0.114304 0.019306
   vertex 0.020662 0.115993 0.019558
   vertex 0.019668 0.11472 0.02207
  endloop
 endfacet
 facet normal -0.0161962 -0.937175 -0.348485
  outer loop
   vertex 0.012238 0.113256 0.019558
   vertex 0.013494 0.114168 0.017047
   vertex 0.015172 0.113299 0.019306
  endloop
 endfacet
 facet normal 0.132412 -0.888171 -0.440021
  outer loop
   vertex 0.013494 0.114168 0.017047
   vertex 0.016419 0.11472 0.016813
   vertex 0.015172 0.113299 0.019306
  endloop
 endfacet
 facet normal 0.288415 -0.886769 -0.361189
  outer loop
   vertex 0.015172 0.113299 0.019306
   vertex 0.016419 0.11472 0.016813
   vertex 0.018262 0.114304 0.019306
  endloop
 endfacet
 facet normal 0.415138 -0.796394 -0.439791
  outer loop
   vertex 0.016419 0.11472 0.016813
   vertex 0.019109 0.115993 0.017047
   vertex 0.018262 0.114304 0.019306
  endloop
 endfacet
 facet normal 0.563623 -0.748876 -0.348589
  outer loop
   vertex 0.018262 0.114304 0.019306
   vertex 0.019109 0.115993 0.017047
   vertex 0.020662 0.115993 0.019558
  endloop
 endfacet
 facet normal 0.645038 -0.651744 -0.398942
  outer loop
   vertex 0.019109 0.115993 0.017047
   vertex 0.021026 0.117553 0.017598
   vertex 0.020662 0.115993 0.019558
  endloop
 endfacet
 facet normal 0.9532 -0 0.302341
  outer loop
   vertex 0.023356 0.121334 0.024581
   vertex 0.023356 0.124286 0.024581
   vertex 0.022734 0.12281 0.026542
  endloop
 endfacet
 facet normal 0.984653 -0.155824 0.0785916
  outer loop
   vertex 0.023301 0.11972 0.02207
   vertex 0.02379 0.12281 0.02207
   vertex 0.023356 0.121334 0.024581
  endloop
 endfacet
 facet normal 0.936352 -0.304548 -0.174631
  outer loop
   vertex 0.022397 0.118381 0.019558
   vertex 0.023262 0.121185 0.019306
   vertex 0.023301 0.11972 0.02207
  endloop
 endfacet
 facet normal 0.98539 -0 0.170314
  outer loop
   vertex 0.023356 0.121334 0.024581
   vertex 0.02379 0.12281 0.02207
   vertex 0.023356 0.124286 0.024581
  endloop
 endfacet
 facet normal 0.984653 0.155824 0.0785916
  outer loop
   vertex 0.02379 0.12281 0.02207
   vertex 0.023301 0.1259 0.02207
   vertex 0.023356 0.124286 0.024581
  endloop
 endfacet
 facet normal 0.983115 -0.15558 -0.0963335
  outer loop
   vertex 0.023301 0.11972 0.02207
   vertex 0.023262 0.121185 0.019306
   vertex 0.02379 0.12281 0.02207
  endloop
 endfacet
 facet normal 0.982239 0 -0.187634
  outer loop
   vertex 0.023262 0.121185 0.019306
   vertex 0.023262 0.124435 0.019306
   vertex 0.02379 0.12281 0.02207
  endloop
 endfacet
 facet normal 0.983115 0.15558 -0.0963335
  outer loop
   vertex 0.02379 0.12281 0.02207
   vertex 0.023262 0.124435 0.019306
   vertex 0.023301 0.1259 0.02207
  endloop
 endfacet
 facet normal 0.936352 0.304548 -0.174631
  outer loop
   vertex 0.023262 0.124435 0.019306
   vertex 0.022397 0.127239 0.019558
   vertex 0.023301 0.1259 0.02207
  endloop
 endfacet
 facet normal 0.886309 -0.304753 -0.348685
  outer loop
   vertex 0.022397 0.118381 0.019558
   vertex 0.021917 0.119858 0.017047
   vertex 0.023262 0.121185 0.019306
  endloop
 endfacet
 facet normal 0.885615 -0.148581 -0.440011
  outer loop
   vertex 0.021917 0.119858 0.017047
   vertex 0.022296 0.12281 0.016813
   vertex 0.023262 0.121185 0.019306
  endloop
 endfacet
 facet normal 0.932446 0 -0.361309
  outer loop
   vertex 0.023262 0.121185 0.019306
   vertex 0.022296 0.12281 0.016813
   vertex 0.023262 0.124435 0.019306
  endloop
 endfacet
 facet normal 0.885615 0.148581 -0.440011
  outer loop
   vertex 0.022296 0.12281 0.016813
   vertex 0.021917 0.125762 0.017047
   vertex 0.023262 0.124435 0.019306
  endloop
 endfacet
 facet normal 0.886309 0.304753 -0.348685
  outer loop
   vertex 0.023262 0.124435 0.019306
   vertex 0.021917 0.125762 0.017047
   vertex 0.022397 0.127239 0.019558
  endloop
 endfacet
 facet normal 0.819189 0.412026 -0.398954
  outer loop
   vertex 0.021917 0.125762 0.017047
   vertex 0.021026 0.128067 0.017598
   vertex 0.022397 0.127239 0.019558
  endloop
 endfacet
 facet normal 0.61533 0.560308 -0.554459
  outer loop
   vertex 0.019885 0.127239 0.015495
   vertex 0.019109 0.129627 0.017047
   vertex 0.021026 0.128067 0.017598
  endloop
 endfacet
 facet normal 0.467426 0.452641 -0.759361
  outer loop
   vertex 0.018043 0.1259 0.013563
   vertex 0.017408 0.128688 0.014834
   vertex 0.019885 0.127239 0.015495
  endloop
 endfacet
 facet normal 0.262485 0.303841 -0.915851
  outer loop
   vertex 0.015822 0.124286 0.012391
   vertex 0.015172 0.127063 0.013126
   vertex 0.018043 0.1259 0.013563
  endloop
 endfacet
 facet normal 0.508799 0.579247 -0.636864
  outer loop
   vertex 0.019885 0.127239 0.015495
   vertex 0.017408 0.128688 0.014834
   vertex 0.019109 0.129627 0.017047
  endloop
 endfacet
 facet normal 0.38541 0.704977 -0.595371
  outer loop
   vertex 0.017408 0.128688 0.014834
   vertex 0.016419 0.1309 0.016813
   vertex 0.019109 0.129627 0.017047
  endloop
 endfacet
 facet normal 0.310374 0.451949 -0.836307
  outer loop
   vertex 0.018043 0.1259 0.013563
   vertex 0.015172 0.127063 0.013126
   vertex 0.017408 0.128688 0.014834
  endloop
 endfacet
 facet normal 0.187559 0.577248 -0.794737
  outer loop
   vertex 0.015172 0.127063 0.013126
   vertex 0.014318 0.129692 0.014834
   vertex 0.017408 0.128688 0.014834
  endloop
 endfacet
 facet normal 0.228709 0.703897 -0.672474
  outer loop
   vertex 0.017408 0.128688 0.014834
   vertex 0.014318 0.129692 0.014834
   vertex 0.016419 0.1309 0.016813
  endloop
 endfacet
 facet normal 0.102735 0.796801 -0.595444
  outer loop
   vertex 0.014318 0.129692 0.014834
   vertex 0.013494 0.131452 0.017047
   vertex 0.016419 0.1309 0.016813
  endloop
 endfacet
 facet normal 0.0891868 0.274301 -0.957499
  outer loop
   vertex 0.015822 0.124286 0.012391
   vertex 0.013014 0.125199 0.012391
   vertex 0.015172 0.127063 0.013126
  endloop
 endfacet
 facet normal -0.0336945 0.400135 -0.915836
  outer loop
   vertex 0.013014 0.125199 0.012391
   vertex 0.012165 0.12781 0.013563
   vertex 0.015172 0.127063 0.013126
  endloop
 endfacet
 facet normal 0.0146149 0.548074 -0.836302
  outer loop
   vertex 0.015172 0.127063 0.013126
   vertex 0.012165 0.12781 0.013563
   vertex 0.014318 0.129692 0.014834
  endloop
 endfacet
 facet normal -0.112009 0.640965 -0.759354
  outer loop
   vertex 0.012165 0.12781 0.013563
   vertex 0.011462 0.129976 0.015495
   vertex 0.014318 0.129692 0.014834
  endloop
 endfacet
 facet normal -0.0710868 0.767617 -0.636955
  outer loop
   vertex 0.014318 0.129692 0.014834
   vertex 0.011462 0.129976 0.015495
   vertex 0.013494 0.131452 0.017047
  endloop
 endfacet
 facet normal -0.168666 0.815046 -0.554303
  outer loop
   vertex 0.011462 0.129976 0.015495
   vertex 0.011026 0.131316 0.017598
   vertex 0.013494 0.131452 0.017047
  endloop
 endfacet
 facet normal -0.342493 0.758552 -0.554344
  outer loop
   vertex 0.011462 0.129976 0.015495
   vertex 0.00895 0.129976 0.017047
   vertex 0.011026 0.131316 0.017598
  endloop
 endfacet
 facet normal -0.286233 0.584386 -0.759318
  outer loop
   vertex 0.012165 0.12781 0.013563
   vertex 0.009318 0.128067 0.014834
   vertex 0.011462 0.129976 0.015495
  endloop
 endfacet
 facet normal -0.207851 0.343516 -0.915858
  outer loop
   vertex 0.013014 0.125199 0.012391
   vertex 0.010172 0.125439 0.013126
   vertex 0.012165 0.12781 0.013563
  endloop
 endfacet
 facet normal -0.393627 0.662685 -0.637108
  outer loop
   vertex 0.011462 0.129976 0.015495
   vertex 0.009318 0.128067 0.014834
   vertex 0.00895 0.129976 0.017047
  endloop
 endfacet
 facet normal -0.551379 0.584158 -0.595601
  outer loop
   vertex 0.009318 0.128067 0.014834
   vertex 0.006908 0.12781 0.016813
   vertex 0.00895 0.129976 0.017047
  endloop
 endfacet
 facet normal -0.334054 0.43492 -0.836213
  outer loop
   vertex 0.012165 0.12781 0.013563
   vertex 0.010172 0.125439 0.013126
   vertex 0.009318 0.128067 0.014834
  endloop
 endfacet
 facet normal -0.491058 0.356895 -0.794662
  outer loop
   vertex 0.010172 0.125439 0.013126
   vertex 0.007408 0.125439 0.014834
   vertex 0.009318 0.128067 0.014834
  endloop
 endfacet
 facet normal -0.598657 0.435097 -0.672533
  outer loop
   vertex 0.009318 0.128067 0.014834
   vertex 0.007408 0.125439 0.014834
   vertex 0.006908 0.12781 0.016813
  endloop
 endfacet
 facet normal -0.725985 0.343961 -0.595514
  outer loop
   vertex 0.007408 0.125439 0.014834
   vertex 0.005479 0.125199 0.017047
   vertex 0.006908 0.12781 0.016813
  endloop
 endfacet
 facet normal -0.233325 0.169451 -0.957521
  outer loop
   vertex 0.013014 0.125199 0.012391
   vertex 0.011279 0.12281 0.012391
   vertex 0.010172 0.125439 0.013126
  endloop
 endfacet
 facet normal -0.390899 0.0914587 -0.915878
  outer loop
   vertex 0.011279 0.12281 0.012391
   vertex 0.008533 0.12281 0.013563
   vertex 0.010172 0.125439 0.013126
  endloop
 endfacet
 facet normal -0.516783 0.183167 -0.836293
  outer loop
   vertex 0.010172 0.125439 0.013126
   vertex 0.008533 0.12281 0.013563
   vertex 0.007408 0.125439 0.014834
  endloop
 endfacet
 facet normal -0.644269 0.0913996 -0.759317
  outer loop
   vertex 0.008533 0.12281 0.013563
   vertex 0.006256 0.12281 0.015495
   vertex 0.007408 0.125439 0.014834
  endloop
 endfacet
 facet normal -0.751958 0.169318 -0.637095
  outer loop
   vertex 0.007408 0.125439 0.014834
   vertex 0.006256 0.12281 0.015495
   vertex 0.005479 0.125199 0.017047
  endloop
 endfacet
 facet normal -0.827124 0.091254 -0.554562
  outer loop
   vertex 0.006256 0.12281 0.015495
   vertex 0.004846 0.12281 0.017598
   vertex 0.005479 0.125199 0.017047
  endloop
 endfacet
 facet normal -0.827124 -0.091254 -0.554562
  outer loop
   vertex 0.006256 0.12281 0.015495
   vertex 0.005479 0.120421 0.017047
   vertex 0.004846 0.12281 0.017598
  endloop
 endfacet
 facet normal -0.644269 -0.0913996 -0.759317
  outer loop
   vertex 0.008533 0.12281 0.013563
   vertex 0.007408 0.120181 0.014834
   vertex 0.006256 0.12281 0.015495
  endloop
 endfacet
 facet normal -0.390899 -0.0914587 -0.915878
  outer loop
   vertex 0.011279 0.12281 0.012391
   vertex 0.010172 0.120181 0.013126
   vertex 0.008533 0.12281 0.013563
  endloop
 endfacet
 facet normal -0.751958 -0.169318 -0.637095
  outer loop
   vertex 0.006256 0.12281 0.015495
   vertex 0.007408 0.120181 0.014834
   vertex 0.005479 0.120421 0.017047
  endloop
 endfacet
 facet normal -0.725985 -0.343961 -0.595514
  outer loop
   vertex 0.007408 0.120181 0.014834
   vertex 0.006908 0.11781 0.016813
   vertex 0.005479 0.120421 0.017047
  endloop
 endfacet
 facet normal -0.516783 -0.183167 -0.836293
  outer loop
   vertex 0.008533 0.12281 0.013563
   vertex 0.010172 0.120181 0.013126
   vertex 0.007408 0.120181 0.014834
  endloop
 endfacet
 facet normal -0.491058 -0.356895 -0.794662
  outer loop
   vertex 0.010172 0.120181 0.013126
   vertex 0.009318 0.117553 0.014834
   vertex 0.007408 0.120181 0.014834
  endloop
 endfacet
 facet normal -0.598657 -0.435097 -0.672533
  outer loop
   vertex 0.007408 0.120181 0.014834
   vertex 0.009318 0.117553 0.014834
   vertex 0.006908 0.11781 0.016813
  endloop
 endfacet
 facet normal -0.551379 -0.584158 -0.595601
  outer loop
   vertex 0.009318 0.117553 0.014834
   vertex 0.00895 0.115644 0.017047
   vertex 0.006908 0.11781 0.016813
  endloop
 endfacet
 facet normal -0.233325 -0.169451 -0.957521
  outer loop
   vertex 0.011279 0.12281 0.012391
   vertex 0.013014 0.120421 0.012391
   vertex 0.010172 0.120181 0.013126
  endloop
 endfacet
 facet normal -0.207851 -0.343516 -0.915858
  outer loop
   vertex 0.013014 0.120421 0.012391
   vertex 0.012165 0.11781 0.013563
   vertex 0.010172 0.120181 0.013126
  endloop
 endfacet
 facet normal -0.334054 -0.43492 -0.836213
  outer loop
   vertex 0.010172 0.120181 0.013126
   vertex 0.012165 0.11781 0.013563
   vertex 0.009318 0.117553 0.014834
  endloop
 endfacet
 facet normal -0.286233 -0.584386 -0.759318
  outer loop
   vertex 0.012165 0.11781 0.013563
   vertex 0.011462 0.115644 0.015495
   vertex 0.009318 0.117553 0.014834
  endloop
 endfacet
 facet normal -0.393627 -0.662685 -0.637108
  outer loop
   vertex 0.009318 0.117553 0.014834
   vertex 0.011462 0.115644 0.015495
   vertex 0.00895 0.115644 0.017047
  endloop
 endfacet
 facet normal -0.342493 -0.758552 -0.554344
  outer loop
   vertex 0.011462 0.115644 0.015495
   vertex 0.011026 0.114304 0.017598
   vertex 0.00895 0.115644 0.017047
  endloop
 endfacet
 facet normal 0.723015 0.412034 -0.554506
  outer loop
   vertex 0.021917 0.125762 0.017047
   vertex 0.019885 0.127239 0.015495
   vertex 0.021026 0.128067 0.017598
  endloop
 endfacet
 facet normal 0.789589 0.148568 -0.59538
  outer loop
   vertex 0.022296 0.12281 0.016813
   vertex 0.020498 0.124435 0.014834
   vertex 0.021917 0.125762 0.017047
  endloop
 endfacet
 facet normal 0.789589 -0.148568 -0.59538
  outer loop
   vertex 0.021917 0.119858 0.017047
   vertex 0.020498 0.121185 0.014834
   vertex 0.022296 0.12281 0.016813
  endloop
 endfacet
 facet normal 0.708089 0.304936 -0.636886
  outer loop
   vertex 0.021917 0.125762 0.017047
   vertex 0.020498 0.124435 0.014834
   vertex 0.019885 0.127239 0.015495
  endloop
 endfacet
 facet normal 0.574948 0.304695 -0.759339
  outer loop
   vertex 0.020498 0.124435 0.014834
   vertex 0.018043 0.1259 0.013563
   vertex 0.019885 0.127239 0.015495
  endloop
 endfacet
 facet normal 0.740143 0 -0.672449
  outer loop
   vertex 0.022296 0.12281 0.016813
   vertex 0.020498 0.121185 0.014834
   vertex 0.020498 0.124435 0.014834
  endloop
 endfacet
 facet normal 0.607028 0 -0.794681
  outer loop
   vertex 0.020498 0.121185 0.014834
   vertex 0.018262 0.12281 0.013126
   vertex 0.020498 0.124435 0.014834
  endloop
 endfacet
 facet normal 0.525774 0.155534 -0.836284
  outer loop
   vertex 0.020498 0.124435 0.014834
   vertex 0.018262 0.12281 0.013126
   vertex 0.018043 0.1259 0.013563
  endloop
 endfacet
 facet normal 0.370096 0.155752 -0.915844
  outer loop
   vertex 0.018262 0.12281 0.013126
   vertex 0.015822 0.124286 0.012391
   vertex 0.018043 0.1259 0.013563
  endloop
 endfacet
 facet normal 0.708089 -0.304936 -0.636886
  outer loop
   vertex 0.021917 0.119858 0.017047
   vertex 0.019885 0.118381 0.015495
   vertex 0.020498 0.121185 0.014834
  endloop
 endfacet
 facet normal 0.574948 -0.304695 -0.759339
  outer loop
   vertex 0.019885 0.118381 0.015495
   vertex 0.018043 0.11972 0.013563
   vertex 0.020498 0.121185 0.014834
  endloop
 endfacet
 facet normal 0.525774 -0.155534 -0.836284
  outer loop
   vertex 0.020498 0.121185 0.014834
   vertex 0.018043 0.11972 0.013563
   vertex 0.018262 0.12281 0.013126
  endloop
 endfacet
 facet normal 0.370096 -0.155752 -0.915844
  outer loop
   vertex 0.018043 0.11972 0.013563
   vertex 0.015822 0.121334 0.012391
   vertex 0.018262 0.12281 0.013126
  endloop
 endfacet
 facet normal 0.288428 0 -0.957502
  outer loop
   vertex 0.018262 0.12281 0.013126
   vertex 0.015822 0.121334 0.012391
   vertex 0.015822 0.124286 0.012391
  endloop
 endfacet
 facet normal 0.156037 0 -0.987751
  outer loop
   vertex 0.015822 0.121334 0.012391
   vertex 0.01379 0.12281 0.01207
   vertex 0.015822 0.124286 0.012391
  endloop
 endfacet
 facet normal -0.168666 -0.815046 -0.554303
  outer loop
   vertex 0.011462 0.115644 0.015495
   vertex 0.013494 0.114168 0.017047
   vertex 0.011026 0.114304 0.017598
  endloop
 endfacet
 facet normal -0.112009 -0.640965 -0.759354
  outer loop
   vertex 0.012165 0.11781 0.013563
   vertex 0.014318 0.115928 0.014834
   vertex 0.011462 0.115644 0.015495
  endloop
 endfacet
 facet normal -0.0336945 -0.400135 -0.915836
  outer loop
   vertex 0.013014 0.120421 0.012391
   vertex 0.015172 0.118557 0.013126
   vertex 0.012165 0.11781 0.013563
  endloop
 endfacet
 facet normal -0.0710868 -0.767617 -0.636955
  outer loop
   vertex 0.011462 0.115644 0.015495
   vertex 0.014318 0.115928 0.014834
   vertex 0.013494 0.114168 0.017047
  endloop
 endfacet
 facet normal 0.102735 -0.796801 -0.595444
  outer loop
   vertex 0.014318 0.115928 0.014834
   vertex 0.016419 0.11472 0.016813
   vertex 0.013494 0.114168 0.017047
  endloop
 endfacet
 facet normal 0.0146149 -0.548074 -0.836302
  outer loop
   vertex 0.012165 0.11781 0.013563
   vertex 0.015172 0.118557 0.013126
   vertex 0.014318 0.115928 0.014834
  endloop
 endfacet
 facet normal 0.187559 -0.577248 -0.794737
  outer loop
   vertex 0.015172 0.118557 0.013126
   vertex 0.017408 0.116932 0.014834
   vertex 0.014318 0.115928 0.014834
  endloop
 endfacet
 facet normal 0.228709 -0.703897 -0.672474
  outer loop
   vertex 0.014318 0.115928 0.014834
   vertex 0.017408 0.116932 0.014834
   vertex 0.016419 0.11472 0.016813
  endloop
 endfacet
 facet normal 0.38541 -0.704977 -0.595371
  outer loop
   vertex 0.017408 0.116932 0.014834
   vertex 0.019109 0.115993 0.017047
   vertex 0.016419 0.11472 0.016813
  endloop
 endfacet
 facet normal 0.0891868 -0.274301 -0.957499
  outer loop
   vertex 0.013014 0.120421 0.012391
   vertex 0.015822 0.121334 0.012391
   vertex 0.015172 0.118557 0.013126
  endloop
 endfacet
 facet normal 0.262485 -0.303841 -0.915851
  outer loop
   vertex 0.015822 0.121334 0.012391
   vertex 0.018043 0.11972 0.013563
   vertex 0.015172 0.118557 0.013126
  endloop
 endfacet
 facet normal 0.310374 -0.451949 -0.836307
  outer loop
   vertex 0.015172 0.118557 0.013126
   vertex 0.018043 0.11972 0.013563
   vertex 0.017408 0.116932 0.014834
  endloop
 endfacet
 facet normal 0.467426 -0.452641 -0.759361
  outer loop
   vertex 0.018043 0.11972 0.013563
   vertex 0.019885 0.118381 0.015495
   vertex 0.017408 0.116932 0.014834
  endloop
 endfacet
 facet normal 0.508799 -0.579247 -0.636864
  outer loop
   vertex 0.017408 0.116932 0.014834
   vertex 0.019885 0.118381 0.015495
   vertex 0.019109 0.115993 0.017047
  endloop
 endfacet
 facet normal 0.61533 -0.560308 -0.554459
  outer loop
   vertex 0.019885 0.118381 0.015495
   vertex 0.021026 0.117553 0.017598
   vertex 0.019109 0.115993 0.017047
  endloop
 endfacet
endsolid ExportedfromBlender-3.5.1
