solid ExportedfromBlender-3.5.1
 facet normal 0.0482486 -0.148392 -0.987751
  outer loop
   vertex -0.01847 0.28882 -0.02203
   vertex -0.016438 0.287344 -0.021709
   vertex -0.019246 0.286431 -0.021709
  endloop
 endfacet
 facet normal 0.723015 -0.412034 -0.554506
  outer loop
   vertex -0.011234 0.283563 -0.016502
   vertex -0.012375 0.284391 -0.018605
   vertex -0.010343 0.285868 -0.017053
  endloop
 endfacet
 facet normal -0.126271 -0.0917039 -0.987748
  outer loop
   vertex -0.01847 0.28882 -0.02203
   vertex -0.019246 0.286431 -0.021709
   vertex -0.020981 0.28882 -0.021709
  endloop
 endfacet
 facet normal -0.126271 0.0917039 -0.987748
  outer loop
   vertex -0.01847 0.28882 -0.02203
   vertex -0.020981 0.28882 -0.021709
   vertex -0.019246 0.291209 -0.021709
  endloop
 endfacet
 facet normal 0.0482486 0.148392 -0.987751
  outer loop
   vertex -0.01847 0.28882 -0.02203
   vertex -0.019246 0.291209 -0.021709
   vertex -0.016438 0.290296 -0.021709
  endloop
 endfacet
 facet normal 0.819189 -0.412026 -0.398954
  outer loop
   vertex -0.011234 0.283563 -0.016502
   vertex -0.010343 0.285868 -0.017053
   vertex -0.009863 0.284391 -0.014542
  endloop
 endfacet
 facet normal -0.138975 -0.90647 -0.398746
  outer loop
   vertex -0.021234 0.280314 -0.016502
   vertex -0.018766 0.280178 -0.017053
   vertex -0.020022 0.279266 -0.014542
  endloop
 endfacet
 facet normal -0.905177 -0.147939 -0.398459
  outer loop
   vertex -0.027414 0.28882 -0.016502
   vertex -0.026781 0.286431 -0.017053
   vertex -0.028036 0.287344 -0.014541
  endloop
 endfacet
 facet normal -0.420269 0.815078 -0.398776
  outer loop
   vertex -0.021234 0.297326 -0.016502
   vertex -0.02331 0.295986 -0.017053
   vertex -0.02283 0.297462 -0.014542
  endloop
 endfacet
 facet normal 0.645038 0.651744 -0.398942
  outer loop
   vertex -0.011234 0.294077 -0.016502
   vertex -0.013151 0.295637 -0.017053
   vertex -0.011598 0.295637 -0.014542
  endloop
 endfacet
 facet normal 0.771063 -0.560215 -0.302688
  outer loop
   vertex -0.011234 0.283563 -0.016502
   vertex -0.009863 0.284391 -0.014542
   vertex -0.011598 0.282003 -0.014542
  endloop
 endfacet
 facet normal -0.294416 -0.906493 -0.302638
  outer loop
   vertex -0.021234 0.280314 -0.016502
   vertex -0.020022 0.279266 -0.014542
   vertex -0.02283 0.280178 -0.014542
  endloop
 endfacet
 facet normal -0.9532 0 -0.302341
  outer loop
   vertex -0.027414 0.28882 -0.016502
   vertex -0.028036 0.287344 -0.014541
   vertex -0.028036 0.290296 -0.014541
  endloop
 endfacet
 facet normal -0.294416 0.906493 -0.302638
  outer loop
   vertex -0.021234 0.297326 -0.016502
   vertex -0.02283 0.297462 -0.014542
   vertex -0.020022 0.298374 -0.014542
  endloop
 endfacet
 facet normal 0.771063 0.560215 -0.302688
  outer loop
   vertex -0.011234 0.294077 -0.016502
   vertex -0.011598 0.295637 -0.014542
   vertex -0.009863 0.293249 -0.014542
  endloop
 endfacet
 facet normal 0.342493 -0.758552 0.554344
  outer loop
   vertex -0.015706 0.280314 -0.007558
   vertex -0.01363 0.281654 -0.007007
   vertex -0.016142 0.281654 -0.005455
  endloop
 endfacet
 facet normal -0.61533 -0.560308 0.554459
  outer loop
   vertex -0.025706 0.283563 -0.007558
   vertex -0.023789 0.282003 -0.007007
   vertex -0.024565 0.284391 -0.005455
  endloop
 endfacet
 facet normal -0.723015 0.412034 0.554506
  outer loop
   vertex -0.025706 0.294077 -0.007558
   vertex -0.026597 0.291772 -0.007007
   vertex -0.024565 0.293249 -0.005455
  endloop
 endfacet
 facet normal 0.168666 0.815046 0.554303
  outer loop
   vertex -0.015706 0.297326 -0.007558
   vertex -0.018174 0.297462 -0.007007
   vertex -0.016142 0.295986 -0.005455
  endloop
 endfacet
 facet normal 0.827124 0.091254 0.554562
  outer loop
   vertex -0.009526 0.28882 -0.007558
   vertex -0.010159 0.291209 -0.007007
   vertex -0.010936 0.28882 -0.005455
  endloop
 endfacet
 facet normal 0.126271 0.0917039 0.987748
  outer loop
   vertex -0.015959 0.28882 -0.002351
   vertex -0.017694 0.291209 -0.002351
   vertex -0.01847 0.28882 -0.00203
  endloop
 endfacet
 facet normal 0.390899 0.0914587 0.915878
  outer loop
   vertex -0.013213 0.28882 -0.003523
   vertex -0.014852 0.291449 -0.003086
   vertex -0.015959 0.28882 -0.002351
  endloop
 endfacet
 facet normal 0.644269 0.0913996 0.759317
  outer loop
   vertex -0.010936 0.28882 -0.005455
   vertex -0.012088 0.291449 -0.004794
   vertex -0.013213 0.28882 -0.003523
  endloop
 endfacet
 facet normal 0.233325 0.169451 0.957521
  outer loop
   vertex -0.015959 0.28882 -0.002351
   vertex -0.014852 0.291449 -0.003086
   vertex -0.017694 0.291209 -0.002351
  endloop
 endfacet
 facet normal 0.207851 0.343516 0.915858
  outer loop
   vertex -0.014852 0.291449 -0.003086
   vertex -0.016845 0.29382 -0.003523
   vertex -0.017694 0.291209 -0.002351
  endloop
 endfacet
 facet normal 0.516783 0.183167 0.836293
  outer loop
   vertex -0.013213 0.28882 -0.003523
   vertex -0.012088 0.291449 -0.004794
   vertex -0.014852 0.291449 -0.003086
  endloop
 endfacet
 facet normal 0.491058 0.356895 0.794662
  outer loop
   vertex -0.012088 0.291449 -0.004794
   vertex -0.013998 0.294077 -0.004794
   vertex -0.014852 0.291449 -0.003086
  endloop
 endfacet
 facet normal 0.334054 0.43492 0.836213
  outer loop
   vertex -0.014852 0.291449 -0.003086
   vertex -0.013998 0.294077 -0.004794
   vertex -0.016845 0.29382 -0.003523
  endloop
 endfacet
 facet normal 0.286233 0.584386 0.759318
  outer loop
   vertex -0.013998 0.294077 -0.004794
   vertex -0.016142 0.295986 -0.005455
   vertex -0.016845 0.29382 -0.003523
  endloop
 endfacet
 facet normal 0.751958 0.169318 0.637095
  outer loop
   vertex -0.010936 0.28882 -0.005455
   vertex -0.010159 0.291209 -0.007007
   vertex -0.012088 0.291449 -0.004794
  endloop
 endfacet
 facet normal 0.725985 0.343961 0.595514
  outer loop
   vertex -0.010159 0.291209 -0.007007
   vertex -0.011588 0.29382 -0.006773
   vertex -0.012088 0.291449 -0.004794
  endloop
 endfacet
 facet normal 0.598657 0.435097 0.672533
  outer loop
   vertex -0.012088 0.291449 -0.004794
   vertex -0.011588 0.29382 -0.006773
   vertex -0.013998 0.294077 -0.004794
  endloop
 endfacet
 facet normal 0.551379 0.584158 0.595601
  outer loop
   vertex -0.011588 0.29382 -0.006773
   vertex -0.01363 0.295986 -0.007007
   vertex -0.013998 0.294077 -0.004794
  endloop
 endfacet
 facet normal 0.393627 0.662685 0.637108
  outer loop
   vertex -0.013998 0.294077 -0.004794
   vertex -0.01363 0.295986 -0.007007
   vertex -0.016142 0.295986 -0.005455
  endloop
 endfacet
 facet normal 0.342493 0.758552 0.554344
  outer loop
   vertex -0.01363 0.295986 -0.007007
   vertex -0.015706 0.297326 -0.007558
   vertex -0.016142 0.295986 -0.005455
  endloop
 endfacet
 facet normal -0.0482486 0.148392 0.987751
  outer loop
   vertex -0.017694 0.291209 -0.002351
   vertex -0.020502 0.290296 -0.002351
   vertex -0.01847 0.28882 -0.00203
  endloop
 endfacet
 facet normal 0.0336945 0.400135 0.915836
  outer loop
   vertex -0.016845 0.29382 -0.003523
   vertex -0.019852 0.293073 -0.003086
   vertex -0.017694 0.291209 -0.002351
  endloop
 endfacet
 facet normal 0.112009 0.640965 0.759354
  outer loop
   vertex -0.016142 0.295986 -0.005455
   vertex -0.018998 0.295702 -0.004794
   vertex -0.016845 0.29382 -0.003523
  endloop
 endfacet
 facet normal -0.0891868 0.274301 0.957499
  outer loop
   vertex -0.017694 0.291209 -0.002351
   vertex -0.019852 0.293073 -0.003086
   vertex -0.020502 0.290296 -0.002351
  endloop
 endfacet
 facet normal -0.262485 0.303841 0.915851
  outer loop
   vertex -0.019852 0.293073 -0.003086
   vertex -0.022723 0.29191 -0.003523
   vertex -0.020502 0.290296 -0.002351
  endloop
 endfacet
 facet normal -0.0146149 0.548074 0.836302
  outer loop
   vertex -0.016845 0.29382 -0.003523
   vertex -0.018998 0.295702 -0.004794
   vertex -0.019852 0.293073 -0.003086
  endloop
 endfacet
 facet normal -0.187559 0.577248 0.794737
  outer loop
   vertex -0.018998 0.295702 -0.004794
   vertex -0.022088 0.294698 -0.004794
   vertex -0.019852 0.293073 -0.003086
  endloop
 endfacet
 facet normal -0.310374 0.451949 0.836307
  outer loop
   vertex -0.019852 0.293073 -0.003086
   vertex -0.022088 0.294698 -0.004794
   vertex -0.022723 0.29191 -0.003523
  endloop
 endfacet
 facet normal -0.467426 0.452641 0.759361
  outer loop
   vertex -0.022088 0.294698 -0.004794
   vertex -0.024565 0.293249 -0.005455
   vertex -0.022723 0.29191 -0.003523
  endloop
 endfacet
 facet normal 0.0710868 0.767617 0.636955
  outer loop
   vertex -0.016142 0.295986 -0.005455
   vertex -0.018174 0.297462 -0.007007
   vertex -0.018998 0.295702 -0.004794
  endloop
 endfacet
 facet normal -0.102735 0.796801 0.595444
  outer loop
   vertex -0.018174 0.297462 -0.007007
   vertex -0.021099 0.29691 -0.006773
   vertex -0.018998 0.295702 -0.004794
  endloop
 endfacet
 facet normal -0.228709 0.703897 0.672474
  outer loop
   vertex -0.018998 0.295702 -0.004794
   vertex -0.021099 0.29691 -0.006773
   vertex -0.022088 0.294698 -0.004794
  endloop
 endfacet
 facet normal -0.38541 0.704977 0.595371
  outer loop
   vertex -0.021099 0.29691 -0.006773
   vertex -0.023789 0.295637 -0.007007
   vertex -0.022088 0.294698 -0.004794
  endloop
 endfacet
 facet normal -0.508799 0.579247 0.636864
  outer loop
   vertex -0.022088 0.294698 -0.004794
   vertex -0.023789 0.295637 -0.007007
   vertex -0.024565 0.293249 -0.005455
  endloop
 endfacet
 facet normal -0.61533 0.560308 0.554459
  outer loop
   vertex -0.023789 0.295637 -0.007007
   vertex -0.025706 0.294077 -0.007558
   vertex -0.024565 0.293249 -0.005455
  endloop
 endfacet
 facet normal -0.156037 0 0.987751
  outer loop
   vertex -0.020502 0.290296 -0.002351
   vertex -0.020502 0.287344 -0.002351
   vertex -0.01847 0.28882 -0.00203
  endloop
 endfacet
 facet normal -0.370096 0.155752 0.915844
  outer loop
   vertex -0.022723 0.29191 -0.003523
   vertex -0.022942 0.28882 -0.003086
   vertex -0.020502 0.290296 -0.002351
  endloop
 endfacet
 facet normal -0.574948 0.304695 0.759339
  outer loop
   vertex -0.024565 0.293249 -0.005455
   vertex -0.025178 0.290445 -0.004794
   vertex -0.022723 0.29191 -0.003523
  endloop
 endfacet
 facet normal -0.288428 0 0.957502
  outer loop
   vertex -0.020502 0.290296 -0.002351
   vertex -0.022942 0.28882 -0.003086
   vertex -0.020502 0.287344 -0.002351
  endloop
 endfacet
 facet normal -0.370096 -0.155752 0.915844
  outer loop
   vertex -0.022942 0.28882 -0.003086
   vertex -0.022723 0.28573 -0.003523
   vertex -0.020502 0.287344 -0.002351
  endloop
 endfacet
 facet normal -0.525774 0.155534 0.836284
  outer loop
   vertex -0.022723 0.29191 -0.003523
   vertex -0.025178 0.290445 -0.004794
   vertex -0.022942 0.28882 -0.003086
  endloop
 endfacet
 facet normal -0.607028 0 0.794681
  outer loop
   vertex -0.025178 0.290445 -0.004794
   vertex -0.025178 0.287195 -0.004794
   vertex -0.022942 0.28882 -0.003086
  endloop
 endfacet
 facet normal -0.525774 -0.155534 0.836284
  outer loop
   vertex -0.022942 0.28882 -0.003086
   vertex -0.025178 0.287195 -0.004794
   vertex -0.022723 0.28573 -0.003523
  endloop
 endfacet
 facet normal -0.574948 -0.304695 0.759339
  outer loop
   vertex -0.025178 0.287195 -0.004794
   vertex -0.024565 0.284391 -0.005455
   vertex -0.022723 0.28573 -0.003523
  endloop
 endfacet
 facet normal -0.708089 0.304936 0.636886
  outer loop
   vertex -0.024565 0.293249 -0.005455
   vertex -0.026597 0.291772 -0.007007
   vertex -0.025178 0.290445 -0.004794
  endloop
 endfacet
 facet normal -0.789589 0.148568 0.59538
  outer loop
   vertex -0.026597 0.291772 -0.007007
   vertex -0.026976 0.28882 -0.006773
   vertex -0.025178 0.290445 -0.004794
  endloop
 endfacet
 facet normal -0.740143 0 0.672449
  outer loop
   vertex -0.025178 0.290445 -0.004794
   vertex -0.026976 0.28882 -0.006773
   vertex -0.025178 0.287195 -0.004794
  endloop
 endfacet
 facet normal -0.789589 -0.148568 0.59538
  outer loop
   vertex -0.026976 0.28882 -0.006773
   vertex -0.026597 0.285868 -0.007007
   vertex -0.025178 0.287195 -0.004794
  endloop
 endfacet
 facet normal -0.708089 -0.304936 0.636886
  outer loop
   vertex -0.025178 0.287195 -0.004794
   vertex -0.026597 0.285868 -0.007007
   vertex -0.024565 0.284391 -0.005455
  endloop
 endfacet
 facet normal -0.723015 -0.412034 0.554506
  outer loop
   vertex -0.026597 0.285868 -0.007007
   vertex -0.025706 0.283563 -0.007558
   vertex -0.024565 0.284391 -0.005455
  endloop
 endfacet
 facet normal -0.0482486 -0.148392 0.987751
  outer loop
   vertex -0.020502 0.287344 -0.002351
   vertex -0.017694 0.286431 -0.002351
   vertex -0.01847 0.28882 -0.00203
  endloop
 endfacet
 facet normal -0.262485 -0.303841 0.915851
  outer loop
   vertex -0.022723 0.28573 -0.003523
   vertex -0.019852 0.284567 -0.003086
   vertex -0.020502 0.287344 -0.002351
  endloop
 endfacet
 facet normal -0.467426 -0.452641 0.759361
  outer loop
   vertex -0.024565 0.284391 -0.005455
   vertex -0.022088 0.282942 -0.004794
   vertex -0.022723 0.28573 -0.003523
  endloop
 endfacet
 facet normal -0.0891868 -0.274301 0.957499
  outer loop
   vertex -0.020502 0.287344 -0.002351
   vertex -0.019852 0.284567 -0.003086
   vertex -0.017694 0.286431 -0.002351
  endloop
 endfacet
 facet normal 0.0336945 -0.400135 0.915836
  outer loop
   vertex -0.019852 0.284567 -0.003086
   vertex -0.016845 0.28382 -0.003523
   vertex -0.017694 0.286431 -0.002351
  endloop
 endfacet
 facet normal -0.310374 -0.451949 0.836307
  outer loop
   vertex -0.022723 0.28573 -0.003523
   vertex -0.022088 0.282942 -0.004794
   vertex -0.019852 0.284567 -0.003086
  endloop
 endfacet
 facet normal -0.187559 -0.577248 0.794737
  outer loop
   vertex -0.022088 0.282942 -0.004794
   vertex -0.018998 0.281938 -0.004794
   vertex -0.019852 0.284567 -0.003086
  endloop
 endfacet
 facet normal -0.0146149 -0.548074 0.836302
  outer loop
   vertex -0.019852 0.284567 -0.003086
   vertex -0.018998 0.281938 -0.004794
   vertex -0.016845 0.28382 -0.003523
  endloop
 endfacet
 facet normal 0.112009 -0.640965 0.759354
  outer loop
   vertex -0.018998 0.281938 -0.004794
   vertex -0.016142 0.281654 -0.005455
   vertex -0.016845 0.28382 -0.003523
  endloop
 endfacet
 facet normal -0.508799 -0.579247 0.636864
  outer loop
   vertex -0.024565 0.284391 -0.005455
   vertex -0.023789 0.282003 -0.007007
   vertex -0.022088 0.282942 -0.004794
  endloop
 endfacet
 facet normal -0.38541 -0.704977 0.595371
  outer loop
   vertex -0.023789 0.282003 -0.007007
   vertex -0.021099 0.28073 -0.006773
   vertex -0.022088 0.282942 -0.004794
  endloop
 endfacet
 facet normal -0.228709 -0.703897 0.672474
  outer loop
   vertex -0.022088 0.282942 -0.004794
   vertex -0.021099 0.28073 -0.006773
   vertex -0.018998 0.281938 -0.004794
  endloop
 endfacet
 facet normal -0.102735 -0.796801 0.595444
  outer loop
   vertex -0.021099 0.28073 -0.006773
   vertex -0.018174 0.280178 -0.007007
   vertex -0.018998 0.281938 -0.004794
  endloop
 endfacet
 facet normal 0.0710868 -0.767617 0.636955
  outer loop
   vertex -0.018998 0.281938 -0.004794
   vertex -0.018174 0.280178 -0.007007
   vertex -0.016142 0.281654 -0.005455
  endloop
 endfacet
 facet normal 0.168666 -0.815046 0.554303
  outer loop
   vertex -0.018174 0.280178 -0.007007
   vertex -0.015706 0.280314 -0.007558
   vertex -0.016142 0.281654 -0.005455
  endloop
 endfacet
 facet normal 0.126271 -0.0917039 0.987748
  outer loop
   vertex -0.017694 0.286431 -0.002351
   vertex -0.015959 0.28882 -0.002351
   vertex -0.01847 0.28882 -0.00203
  endloop
 endfacet
 facet normal 0.207851 -0.343516 0.915858
  outer loop
   vertex -0.016845 0.28382 -0.003523
   vertex -0.014852 0.286191 -0.003086
   vertex -0.017694 0.286431 -0.002351
  endloop
 endfacet
 facet normal 0.286233 -0.584386 0.759318
  outer loop
   vertex -0.016142 0.281654 -0.005455
   vertex -0.013998 0.283563 -0.004794
   vertex -0.016845 0.28382 -0.003523
  endloop
 endfacet
 facet normal 0.233325 -0.169451 0.957521
  outer loop
   vertex -0.017694 0.286431 -0.002351
   vertex -0.014852 0.286191 -0.003086
   vertex -0.015959 0.28882 -0.002351
  endloop
 endfacet
 facet normal 0.390899 -0.0914587 0.915878
  outer loop
   vertex -0.014852 0.286191 -0.003086
   vertex -0.013213 0.28882 -0.003523
   vertex -0.015959 0.28882 -0.002351
  endloop
 endfacet
 facet normal 0.334054 -0.43492 0.836213
  outer loop
   vertex -0.016845 0.28382 -0.003523
   vertex -0.013998 0.283563 -0.004794
   vertex -0.014852 0.286191 -0.003086
  endloop
 endfacet
 facet normal 0.491058 -0.356895 0.794662
  outer loop
   vertex -0.013998 0.283563 -0.004794
   vertex -0.012088 0.286191 -0.004794
   vertex -0.014852 0.286191 -0.003086
  endloop
 endfacet
 facet normal 0.516783 -0.183167 0.836293
  outer loop
   vertex -0.014852 0.286191 -0.003086
   vertex -0.012088 0.286191 -0.004794
   vertex -0.013213 0.28882 -0.003523
  endloop
 endfacet
 facet normal 0.644269 -0.0913996 0.759317
  outer loop
   vertex -0.012088 0.286191 -0.004794
   vertex -0.010936 0.28882 -0.005455
   vertex -0.013213 0.28882 -0.003523
  endloop
 endfacet
 facet normal 0.393627 -0.662685 0.637108
  outer loop
   vertex -0.016142 0.281654 -0.005455
   vertex -0.01363 0.281654 -0.007007
   vertex -0.013998 0.283563 -0.004794
  endloop
 endfacet
 facet normal 0.551379 -0.584158 0.595601
  outer loop
   vertex -0.01363 0.281654 -0.007007
   vertex -0.011588 0.28382 -0.006773
   vertex -0.013998 0.283563 -0.004794
  endloop
 endfacet
 facet normal 0.598657 -0.435097 0.672533
  outer loop
   vertex -0.013998 0.283563 -0.004794
   vertex -0.011588 0.28382 -0.006773
   vertex -0.012088 0.286191 -0.004794
  endloop
 endfacet
 facet normal 0.725985 -0.343961 0.595514
  outer loop
   vertex -0.011588 0.28382 -0.006773
   vertex -0.010159 0.286431 -0.007007
   vertex -0.012088 0.286191 -0.004794
  endloop
 endfacet
 facet normal 0.751958 -0.169318 0.637095
  outer loop
   vertex -0.012088 0.286191 -0.004794
   vertex -0.010159 0.286431 -0.007007
   vertex -0.010936 0.28882 -0.005455
  endloop
 endfacet
 facet normal 0.827124 -0.091254 0.554562
  outer loop
   vertex -0.010159 0.286431 -0.007007
   vertex -0.009526 0.28882 -0.007558
   vertex -0.010936 0.28882 -0.005455
  endloop
 endfacet
 facet normal 0.905177 0.147939 0.398459
  outer loop
   vertex -0.008904 0.290296 -0.009519
   vertex -0.010159 0.291209 -0.007007
   vertex -0.009526 0.28882 -0.007558
  endloop
 endfacet
 facet normal 0.93657 0.303801 0.17476
  outer loop
   vertex -0.008959 0.29191 -0.01203
   vertex -0.009852 0.293073 -0.009266
   vertex -0.008904 0.290296 -0.009519
  endloop
 endfacet
 facet normal 0.888212 0.452708 -0.078331
  outer loop
   vertex -0.009863 0.293249 -0.014542
   vertex -0.01038 0.294698 -0.01203
   vertex -0.008959 0.29191 -0.01203
  endloop
 endfacet
 facet normal 0.89641 0.274294 0.348155
  outer loop
   vertex -0.008904 0.290296 -0.009519
   vertex -0.009852 0.293073 -0.009266
   vertex -0.010159 0.291209 -0.007007
  endloop
 endfacet
 facet normal 0.803858 0.400541 0.439749
  outer loop
   vertex -0.009852 0.293073 -0.009266
   vertex -0.011588 0.29382 -0.006773
   vertex -0.010159 0.291209 -0.007007
  endloop
 endfacet
 facet normal 0.886806 0.451991 0.0963284
  outer loop
   vertex -0.008959 0.29191 -0.01203
   vertex -0.01038 0.294698 -0.01203
   vertex -0.009852 0.293073 -0.009266
  endloop
 endfacet
 facet normal 0.794662 0.577331 0.18762
  outer loop
   vertex -0.01038 0.294698 -0.01203
   vertex -0.011762 0.295702 -0.009266
   vertex -0.009852 0.293073 -0.009266
  endloop
 endfacet
 facet normal 0.754436 0.548107 0.361117
  outer loop
   vertex -0.009852 0.293073 -0.009266
   vertex -0.011762 0.295702 -0.009266
   vertex -0.011588 0.29382 -0.006773
  endloop
 endfacet
 facet normal 0.629279 0.640767 0.439803
  outer loop
   vertex -0.011762 0.295702 -0.009266
   vertex -0.01363 0.295986 -0.007007
   vertex -0.011588 0.29382 -0.006773
  endloop
 endfacet
 facet normal 0.797233 0.579229 -0.170037
  outer loop
   vertex -0.009863 0.293249 -0.014542
   vertex -0.011598 0.295637 -0.014542
   vertex -0.01038 0.294698 -0.01203
  endloop
 endfacet
 facet normal 0.704936 0.704936 -0.0782949
  outer loop
   vertex -0.011598 0.295637 -0.014542
   vertex -0.012592 0.29691 -0.01203
   vertex -0.01038 0.294698 -0.01203
  endloop
 endfacet
 facet normal 0.703824 0.703824 0.0962537
  outer loop
   vertex -0.01038 0.294698 -0.01203
   vertex -0.012592 0.29691 -0.01203
   vertex -0.011762 0.295702 -0.009266
  endloop
 endfacet
 facet normal 0.578519 0.796783 0.174509
  outer loop
   vertex -0.012592 0.29691 -0.01203
   vertex -0.01411 0.297462 -0.009518
   vertex -0.011762 0.295702 -0.009266
  endloop
 endfacet
 facet normal 0.537986 0.767602 0.348366
  outer loop
   vertex -0.011762 0.295702 -0.009266
   vertex -0.01411 0.297462 -0.009518
   vertex -0.01363 0.295986 -0.007007
  endloop
 endfacet
 facet normal 0.420269 0.815078 0.398776
  outer loop
   vertex -0.01411 0.297462 -0.009518
   vertex -0.015706 0.297326 -0.007558
   vertex -0.01363 0.295986 -0.007007
  endloop
 endfacet
 facet normal 0.138975 0.90647 0.398746
  outer loop
   vertex -0.016918 0.298374 -0.009518
   vertex -0.018174 0.297462 -0.007007
   vertex -0.015706 0.297326 -0.007558
  endloop
 endfacet
 facet normal 0.000555151 0.98466 0.174481
  outer loop
   vertex -0.01847 0.29882 -0.01203
   vertex -0.019852 0.298331 -0.009266
   vertex -0.016918 0.298374 -0.009518
  endloop
 endfacet
 facet normal -0.155824 0.984657 -0.07855
  outer loop
   vertex -0.020022 0.298374 -0.014542
   vertex -0.02156 0.298331 -0.01203
   vertex -0.01847 0.29882 -0.01203
  endloop
 endfacet
 facet normal 0.0161962 0.937175 0.348485
  outer loop
   vertex -0.016918 0.298374 -0.009518
   vertex -0.019852 0.298331 -0.009266
   vertex -0.018174 0.297462 -0.007007
  endloop
 endfacet
 facet normal -0.132412 0.888171 0.440021
  outer loop
   vertex -0.019852 0.298331 -0.009266
   vertex -0.021099 0.29691 -0.006773
   vertex -0.018174 0.297462 -0.007007
  endloop
 endfacet
 facet normal -0.155583 0.983133 0.0961419
  outer loop
   vertex -0.01847 0.29882 -0.01203
   vertex -0.02156 0.298331 -0.01203
   vertex -0.019852 0.298331 -0.009266
  endloop
 endfacet
 facet normal -0.303796 0.934059 0.187729
  outer loop
   vertex -0.02156 0.298331 -0.01203
   vertex -0.022942 0.297326 -0.009266
   vertex -0.019852 0.298331 -0.009266
  endloop
 endfacet
 facet normal -0.288415 0.886769 0.361189
  outer loop
   vertex -0.019852 0.298331 -0.009266
   vertex -0.022942 0.297326 -0.009266
   vertex -0.021099 0.29691 -0.006773
  endloop
 endfacet
 facet normal -0.415138 0.796394 0.439791
  outer loop
   vertex -0.022942 0.297326 -0.009266
   vertex -0.023789 0.295637 -0.007007
   vertex -0.021099 0.29691 -0.006773
  endloop
 endfacet
 facet normal -0.304389 0.937197 -0.170322
  outer loop
   vertex -0.020022 0.298374 -0.014542
   vertex -0.02283 0.297462 -0.014542
   vertex -0.02156 0.298331 -0.01203
  endloop
 endfacet
 facet normal -0.452705 0.888208 -0.0783901
  outer loop
   vertex -0.02283 0.297462 -0.014542
   vertex -0.024348 0.29691 -0.01203
   vertex -0.02156 0.298331 -0.01203
  endloop
 endfacet
 facet normal -0.451986 0.886796 0.0964489
  outer loop
   vertex -0.02156 0.298331 -0.01203
   vertex -0.024348 0.29691 -0.01203
   vertex -0.022942 0.297326 -0.009266
  endloop
 endfacet
 facet normal -0.578874 0.796508 0.174584
  outer loop
   vertex -0.024348 0.29691 -0.01203
   vertex -0.025342 0.295637 -0.009518
   vertex -0.022942 0.297326 -0.009266
  endloop
 endfacet
 facet normal -0.563623 0.748876 0.348589
  outer loop
   vertex -0.022942 0.297326 -0.009266
   vertex -0.025342 0.295637 -0.009518
   vertex -0.023789 0.295637 -0.007007
  endloop
 endfacet
 facet normal -0.645038 0.651744 0.398942
  outer loop
   vertex -0.025342 0.295637 -0.009518
   vertex -0.025706 0.294077 -0.007558
   vertex -0.023789 0.295637 -0.007007
  endloop
 endfacet
 facet normal -0.819189 0.412026 0.398954
  outer loop
   vertex -0.027077 0.293249 -0.009518
   vertex -0.026597 0.291772 -0.007007
   vertex -0.025706 0.294077 -0.007558
  endloop
 endfacet
 facet normal -0.936352 0.304548 0.174631
  outer loop
   vertex -0.027981 0.29191 -0.01203
   vertex -0.027942 0.290445 -0.009266
   vertex -0.027077 0.293249 -0.009518
  endloop
 endfacet
 facet normal -0.984653 0.155824 -0.0785916
  outer loop
   vertex -0.028036 0.290296 -0.014541
   vertex -0.02847 0.28882 -0.01203
   vertex -0.027981 0.29191 -0.01203
  endloop
 endfacet
 facet normal -0.886309 0.304753 0.348685
  outer loop
   vertex -0.027077 0.293249 -0.009518
   vertex -0.027942 0.290445 -0.009266
   vertex -0.026597 0.291772 -0.007007
  endloop
 endfacet
 facet normal -0.885615 0.148581 0.440011
  outer loop
   vertex -0.027942 0.290445 -0.009266
   vertex -0.026976 0.28882 -0.006773
   vertex -0.026597 0.291772 -0.007007
  endloop
 endfacet
 facet normal -0.983115 0.15558 0.0963335
  outer loop
   vertex -0.027981 0.29191 -0.01203
   vertex -0.02847 0.28882 -0.01203
   vertex -0.027942 0.290445 -0.009266
  endloop
 endfacet
 facet normal -0.982239 0 0.187634
  outer loop
   vertex -0.02847 0.28882 -0.01203
   vertex -0.027942 0.287195 -0.009266
   vertex -0.027942 0.290445 -0.009266
  endloop
 endfacet
 facet normal -0.932446 0 0.361309
  outer loop
   vertex -0.027942 0.290445 -0.009266
   vertex -0.027942 0.287195 -0.009266
   vertex -0.026976 0.28882 -0.006773
  endloop
 endfacet
 facet normal -0.885615 -0.148581 0.440011
  outer loop
   vertex -0.027942 0.287195 -0.009266
   vertex -0.026597 0.285868 -0.007007
   vertex -0.026976 0.28882 -0.006773
  endloop
 endfacet
 facet normal -0.98539 -0 -0.170314
  outer loop
   vertex -0.028036 0.290296 -0.014541
   vertex -0.028036 0.287344 -0.014541
   vertex -0.02847 0.28882 -0.01203
  endloop
 endfacet
 facet normal -0.984653 -0.155824 -0.0785916
  outer loop
   vertex -0.028036 0.287344 -0.014541
   vertex -0.027981 0.28573 -0.01203
   vertex -0.02847 0.28882 -0.01203
  endloop
 endfacet
 facet normal -0.983115 -0.15558 0.0963335
  outer loop
   vertex -0.02847 0.28882 -0.01203
   vertex -0.027981 0.28573 -0.01203
   vertex -0.027942 0.287195 -0.009266
  endloop
 endfacet
 facet normal -0.936352 -0.304548 0.174631
  outer loop
   vertex -0.027981 0.28573 -0.01203
   vertex -0.027077 0.284391 -0.009518
   vertex -0.027942 0.287195 -0.009266
  endloop
 endfacet
 facet normal -0.886309 -0.304753 0.348685
  outer loop
   vertex -0.027942 0.287195 -0.009266
   vertex -0.027077 0.284391 -0.009518
   vertex -0.026597 0.285868 -0.007007
  endloop
 endfacet
 facet normal -0.819189 -0.412026 0.398954
  outer loop
   vertex -0.027077 0.284391 -0.009518
   vertex -0.025706 0.283563 -0.007558
   vertex -0.026597 0.285868 -0.007007
  endloop
 endfacet
 facet normal -0.645038 -0.651744 0.398942
  outer loop
   vertex -0.025342 0.282003 -0.009518
   vertex -0.023789 0.282003 -0.007007
   vertex -0.025706 0.283563 -0.007558
  endloop
 endfacet
 facet normal -0.578874 -0.796508 0.174584
  outer loop
   vertex -0.024348 0.28073 -0.01203
   vertex -0.022942 0.280314 -0.009266
   vertex -0.025342 0.282003 -0.009518
  endloop
 endfacet
 facet normal -0.452705 -0.888208 -0.0783901
  outer loop
   vertex -0.02283 0.280178 -0.014542
   vertex -0.02156 0.279309 -0.01203
   vertex -0.024348 0.28073 -0.01203
  endloop
 endfacet
 facet normal -0.563623 -0.748876 0.348589
  outer loop
   vertex -0.025342 0.282003 -0.009518
   vertex -0.022942 0.280314 -0.009266
   vertex -0.023789 0.282003 -0.007007
  endloop
 endfacet
 facet normal -0.415138 -0.796394 0.439791
  outer loop
   vertex -0.022942 0.280314 -0.009266
   vertex -0.021099 0.28073 -0.006773
   vertex -0.023789 0.282003 -0.007007
  endloop
 endfacet
 facet normal -0.451986 -0.886796 0.0964489
  outer loop
   vertex -0.024348 0.28073 -0.01203
   vertex -0.02156 0.279309 -0.01203
   vertex -0.022942 0.280314 -0.009266
  endloop
 endfacet
 facet normal -0.303796 -0.934059 0.187729
  outer loop
   vertex -0.02156 0.279309 -0.01203
   vertex -0.019852 0.279309 -0.009266
   vertex -0.022942 0.280314 -0.009266
  endloop
 endfacet
 facet normal -0.288415 -0.886769 0.361189
  outer loop
   vertex -0.022942 0.280314 -0.009266
   vertex -0.019852 0.279309 -0.009266
   vertex -0.021099 0.28073 -0.006773
  endloop
 endfacet
 facet normal -0.132412 -0.888171 0.440021
  outer loop
   vertex -0.019852 0.279309 -0.009266
   vertex -0.018174 0.280178 -0.007007
   vertex -0.021099 0.28073 -0.006773
  endloop
 endfacet
 facet normal -0.304389 -0.937197 -0.170322
  outer loop
   vertex -0.02283 0.280178 -0.014542
   vertex -0.020022 0.279266 -0.014542
   vertex -0.02156 0.279309 -0.01203
  endloop
 endfacet
 facet normal -0.155824 -0.984657 -0.07855
  outer loop
   vertex -0.020022 0.279266 -0.014542
   vertex -0.01847 0.27882 -0.01203
   vertex -0.02156 0.279309 -0.01203
  endloop
 endfacet
 facet normal -0.155583 -0.983133 0.0961419
  outer loop
   vertex -0.02156 0.279309 -0.01203
   vertex -0.01847 0.27882 -0.01203
   vertex -0.019852 0.279309 -0.009266
  endloop
 endfacet
 facet normal 0.000555151 -0.98466 0.174481
  outer loop
   vertex -0.01847 0.27882 -0.01203
   vertex -0.016918 0.279266 -0.009518
   vertex -0.019852 0.279309 -0.009266
  endloop
 endfacet
 facet normal 0.0161962 -0.937175 0.348485
  outer loop
   vertex -0.019852 0.279309 -0.009266
   vertex -0.016918 0.279266 -0.009518
   vertex -0.018174 0.280178 -0.007007
  endloop
 endfacet
 facet normal 0.138975 -0.90647 0.398746
  outer loop
   vertex -0.016918 0.279266 -0.009518
   vertex -0.015706 0.280314 -0.007558
   vertex -0.018174 0.280178 -0.007007
  endloop
 endfacet
 facet normal 0.420269 -0.815078 0.398776
  outer loop
   vertex -0.01411 0.280178 -0.009518
   vertex -0.01363 0.281654 -0.007007
   vertex -0.015706 0.280314 -0.007558
  endloop
 endfacet
 facet normal 0.578519 -0.796783 0.174509
  outer loop
   vertex -0.012592 0.28073 -0.01203
   vertex -0.011762 0.281938 -0.009266
   vertex -0.01411 0.280178 -0.009518
  endloop
 endfacet
 facet normal 0.704936 -0.704936 -0.0782949
  outer loop
   vertex -0.011598 0.282003 -0.014542
   vertex -0.01038 0.282942 -0.01203
   vertex -0.012592 0.28073 -0.01203
  endloop
 endfacet
 facet normal 0.537986 -0.767602 0.348366
  outer loop
   vertex -0.01411 0.280178 -0.009518
   vertex -0.011762 0.281938 -0.009266
   vertex -0.01363 0.281654 -0.007007
  endloop
 endfacet
 facet normal 0.629279 -0.640767 0.439803
  outer loop
   vertex -0.011762 0.281938 -0.009266
   vertex -0.011588 0.28382 -0.006773
   vertex -0.01363 0.281654 -0.007007
  endloop
 endfacet
 facet normal 0.703824 -0.703824 0.0962537
  outer loop
   vertex -0.012592 0.28073 -0.01203
   vertex -0.01038 0.282942 -0.01203
   vertex -0.011762 0.281938 -0.009266
  endloop
 endfacet
 facet normal 0.794662 -0.577331 0.18762
  outer loop
   vertex -0.01038 0.282942 -0.01203
   vertex -0.009852 0.284567 -0.009266
   vertex -0.011762 0.281938 -0.009266
  endloop
 endfacet
 facet normal 0.754436 -0.548107 0.361117
  outer loop
   vertex -0.011762 0.281938 -0.009266
   vertex -0.009852 0.284567 -0.009266
   vertex -0.011588 0.28382 -0.006773
  endloop
 endfacet
 facet normal 0.803858 -0.400541 0.439749
  outer loop
   vertex -0.009852 0.284567 -0.009266
   vertex -0.010159 0.286431 -0.007007
   vertex -0.011588 0.28382 -0.006773
  endloop
 endfacet
 facet normal 0.797233 -0.579229 -0.170037
  outer loop
   vertex -0.011598 0.282003 -0.014542
   vertex -0.009863 0.284391 -0.014542
   vertex -0.01038 0.282942 -0.01203
  endloop
 endfacet
 facet normal 0.888212 -0.452708 -0.078331
  outer loop
   vertex -0.009863 0.284391 -0.014542
   vertex -0.008959 0.28573 -0.01203
   vertex -0.01038 0.282942 -0.01203
  endloop
 endfacet
 facet normal 0.886806 -0.451991 0.0963284
  outer loop
   vertex -0.01038 0.282942 -0.01203
   vertex -0.008959 0.28573 -0.01203
   vertex -0.009852 0.284567 -0.009266
  endloop
 endfacet
 facet normal 0.93657 -0.303801 0.17476
  outer loop
   vertex -0.008959 0.28573 -0.01203
   vertex -0.008904 0.287344 -0.009519
   vertex -0.009852 0.284567 -0.009266
  endloop
 endfacet
 facet normal 0.89641 -0.274294 0.348155
  outer loop
   vertex -0.009852 0.284567 -0.009266
   vertex -0.008904 0.287344 -0.009519
   vertex -0.010159 0.286431 -0.007007
  endloop
 endfacet
 facet normal 0.905177 -0.147939 0.398459
  outer loop
   vertex -0.008904 0.287344 -0.009519
   vertex -0.009526 0.28882 -0.007558
   vertex -0.010159 0.286431 -0.007007
  endloop
 endfacet
 facet normal 0.294416 0.906493 0.302638
  outer loop
   vertex -0.01411 0.297462 -0.009518
   vertex -0.016918 0.298374 -0.009518
   vertex -0.015706 0.297326 -0.007558
  endloop
 endfacet
 facet normal 0.452705 0.888208 0.0783901
  outer loop
   vertex -0.012592 0.29691 -0.01203
   vertex -0.01538 0.298331 -0.01203
   vertex -0.01411 0.297462 -0.009518
  endloop
 endfacet
 facet normal 0.578874 0.796508 -0.174584
  outer loop
   vertex -0.011598 0.295637 -0.014542
   vertex -0.013998 0.297326 -0.014794
   vertex -0.012592 0.29691 -0.01203
  endloop
 endfacet
 facet normal 0.304389 0.937197 0.170322
  outer loop
   vertex -0.01411 0.297462 -0.009518
   vertex -0.01538 0.298331 -0.01203
   vertex -0.016918 0.298374 -0.009518
  endloop
 endfacet
 facet normal 0.155824 0.984657 0.07855
  outer loop
   vertex -0.01538 0.298331 -0.01203
   vertex -0.01847 0.29882 -0.01203
   vertex -0.016918 0.298374 -0.009518
  endloop
 endfacet
 facet normal 0.451986 0.886796 -0.0964489
  outer loop
   vertex -0.012592 0.29691 -0.01203
   vertex -0.013998 0.297326 -0.014794
   vertex -0.01538 0.298331 -0.01203
  endloop
 endfacet
 facet normal 0.303796 0.934059 -0.187729
  outer loop
   vertex -0.013998 0.297326 -0.014794
   vertex -0.017088 0.298331 -0.014794
   vertex -0.01538 0.298331 -0.01203
  endloop
 endfacet
 facet normal 0.155583 0.983133 -0.0961419
  outer loop
   vertex -0.01538 0.298331 -0.01203
   vertex -0.017088 0.298331 -0.014794
   vertex -0.01847 0.29882 -0.01203
  endloop
 endfacet
 facet normal -0.000555151 0.98466 -0.174481
  outer loop
   vertex -0.017088 0.298331 -0.014794
   vertex -0.020022 0.298374 -0.014542
   vertex -0.01847 0.29882 -0.01203
  endloop
 endfacet
 facet normal 0.563623 0.748876 -0.348589
  outer loop
   vertex -0.011598 0.295637 -0.014542
   vertex -0.013151 0.295637 -0.017053
   vertex -0.013998 0.297326 -0.014794
  endloop
 endfacet
 facet normal 0.415138 0.796394 -0.439791
  outer loop
   vertex -0.013151 0.295637 -0.017053
   vertex -0.015841 0.29691 -0.017287
   vertex -0.013998 0.297326 -0.014794
  endloop
 endfacet
 facet normal 0.288415 0.886769 -0.361189
  outer loop
   vertex -0.013998 0.297326 -0.014794
   vertex -0.015841 0.29691 -0.017287
   vertex -0.017088 0.298331 -0.014794
  endloop
 endfacet
 facet normal 0.132412 0.888171 -0.440021
  outer loop
   vertex -0.015841 0.29691 -0.017287
   vertex -0.018766 0.297462 -0.017053
   vertex -0.017088 0.298331 -0.014794
  endloop
 endfacet
 facet normal -0.0161962 0.937175 -0.348485
  outer loop
   vertex -0.017088 0.298331 -0.014794
   vertex -0.018766 0.297462 -0.017053
   vertex -0.020022 0.298374 -0.014542
  endloop
 endfacet
 facet normal -0.138975 0.90647 -0.398746
  outer loop
   vertex -0.018766 0.297462 -0.017053
   vertex -0.021234 0.297326 -0.016502
   vertex -0.020022 0.298374 -0.014542
  endloop
 endfacet
 facet normal -0.771063 0.560215 0.302688
  outer loop
   vertex -0.025342 0.295637 -0.009518
   vertex -0.027077 0.293249 -0.009518
   vertex -0.025706 0.294077 -0.007558
  endloop
 endfacet
 facet normal -0.704936 0.704936 0.0782949
  outer loop
   vertex -0.024348 0.29691 -0.01203
   vertex -0.02656 0.294698 -0.01203
   vertex -0.025342 0.295637 -0.009518
  endloop
 endfacet
 facet normal -0.578519 0.796783 -0.174509
  outer loop
   vertex -0.02283 0.297462 -0.014542
   vertex -0.025178 0.295702 -0.014794
   vertex -0.024348 0.29691 -0.01203
  endloop
 endfacet
 facet normal -0.797233 0.579229 0.170037
  outer loop
   vertex -0.025342 0.295637 -0.009518
   vertex -0.02656 0.294698 -0.01203
   vertex -0.027077 0.293249 -0.009518
  endloop
 endfacet
 facet normal -0.888212 0.452708 0.078331
  outer loop
   vertex -0.02656 0.294698 -0.01203
   vertex -0.027981 0.29191 -0.01203
   vertex -0.027077 0.293249 -0.009518
  endloop
 endfacet
 facet normal -0.703824 0.703824 -0.0962537
  outer loop
   vertex -0.024348 0.29691 -0.01203
   vertex -0.025178 0.295702 -0.014794
   vertex -0.02656 0.294698 -0.01203
  endloop
 endfacet
 facet normal -0.794662 0.577331 -0.18762
  outer loop
   vertex -0.025178 0.295702 -0.014794
   vertex -0.027088 0.293073 -0.014794
   vertex -0.02656 0.294698 -0.01203
  endloop
 endfacet
 facet normal -0.886806 0.451991 -0.0963284
  outer loop
   vertex -0.02656 0.294698 -0.01203
   vertex -0.027088 0.293073 -0.014794
   vertex -0.027981 0.29191 -0.01203
  endloop
 endfacet
 facet normal -0.93657 0.303801 -0.17476
  outer loop
   vertex -0.027088 0.293073 -0.014794
   vertex -0.028036 0.290296 -0.014541
   vertex -0.027981 0.29191 -0.01203
  endloop
 endfacet
 facet normal -0.537986 0.767602 -0.348366
  outer loop
   vertex -0.02283 0.297462 -0.014542
   vertex -0.02331 0.295986 -0.017053
   vertex -0.025178 0.295702 -0.014794
  endloop
 endfacet
 facet normal -0.629279 0.640767 -0.439803
  outer loop
   vertex -0.02331 0.295986 -0.017053
   vertex -0.025352 0.29382 -0.017287
   vertex -0.025178 0.295702 -0.014794
  endloop
 endfacet
 facet normal -0.754436 0.548107 -0.361117
  outer loop
   vertex -0.025178 0.295702 -0.014794
   vertex -0.025352 0.29382 -0.017287
   vertex -0.027088 0.293073 -0.014794
  endloop
 endfacet
 facet normal -0.803858 0.400541 -0.439749
  outer loop
   vertex -0.025352 0.29382 -0.017287
   vertex -0.026781 0.291209 -0.017053
   vertex -0.027088 0.293073 -0.014794
  endloop
 endfacet
 facet normal -0.89641 0.274294 -0.348155
  outer loop
   vertex -0.027088 0.293073 -0.014794
   vertex -0.026781 0.291209 -0.017053
   vertex -0.028036 0.290296 -0.014541
  endloop
 endfacet
 facet normal -0.905177 0.147939 -0.398459
  outer loop
   vertex -0.026781 0.291209 -0.017053
   vertex -0.027414 0.28882 -0.016502
   vertex -0.028036 0.290296 -0.014541
  endloop
 endfacet
 facet normal -0.771063 -0.560215 0.302688
  outer loop
   vertex -0.027077 0.284391 -0.009518
   vertex -0.025342 0.282003 -0.009518
   vertex -0.025706 0.283563 -0.007558
  endloop
 endfacet
 facet normal -0.888212 -0.452708 0.078331
  outer loop
   vertex -0.027981 0.28573 -0.01203
   vertex -0.02656 0.282942 -0.01203
   vertex -0.027077 0.284391 -0.009518
  endloop
 endfacet
 facet normal -0.93657 -0.303801 -0.17476
  outer loop
   vertex -0.028036 0.287344 -0.014541
   vertex -0.027088 0.284567 -0.014794
   vertex -0.027981 0.28573 -0.01203
  endloop
 endfacet
 facet normal -0.797233 -0.579229 0.170037
  outer loop
   vertex -0.027077 0.284391 -0.009518
   vertex -0.02656 0.282942 -0.01203
   vertex -0.025342 0.282003 -0.009518
  endloop
 endfacet
 facet normal -0.704936 -0.704936 0.0782949
  outer loop
   vertex -0.02656 0.282942 -0.01203
   vertex -0.024348 0.28073 -0.01203
   vertex -0.025342 0.282003 -0.009518
  endloop
 endfacet
 facet normal -0.886806 -0.451991 -0.0963284
  outer loop
   vertex -0.027981 0.28573 -0.01203
   vertex -0.027088 0.284567 -0.014794
   vertex -0.02656 0.282942 -0.01203
  endloop
 endfacet
 facet normal -0.794662 -0.577331 -0.18762
  outer loop
   vertex -0.027088 0.284567 -0.014794
   vertex -0.025178 0.281938 -0.014794
   vertex -0.02656 0.282942 -0.01203
  endloop
 endfacet
 facet normal -0.703824 -0.703824 -0.0962537
  outer loop
   vertex -0.02656 0.282942 -0.01203
   vertex -0.025178 0.281938 -0.014794
   vertex -0.024348 0.28073 -0.01203
  endloop
 endfacet
 facet normal -0.578519 -0.796783 -0.174509
  outer loop
   vertex -0.025178 0.281938 -0.014794
   vertex -0.02283 0.280178 -0.014542
   vertex -0.024348 0.28073 -0.01203
  endloop
 endfacet
 facet normal -0.89641 -0.274294 -0.348155
  outer loop
   vertex -0.028036 0.287344 -0.014541
   vertex -0.026781 0.286431 -0.017053
   vertex -0.027088 0.284567 -0.014794
  endloop
 endfacet
 facet normal -0.803858 -0.400541 -0.439749
  outer loop
   vertex -0.026781 0.286431 -0.017053
   vertex -0.025352 0.28382 -0.017287
   vertex -0.027088 0.284567 -0.014794
  endloop
 endfacet
 facet normal -0.754436 -0.548107 -0.361117
  outer loop
   vertex -0.027088 0.284567 -0.014794
   vertex -0.025352 0.28382 -0.017287
   vertex -0.025178 0.281938 -0.014794
  endloop
 endfacet
 facet normal -0.629279 -0.640767 -0.439803
  outer loop
   vertex -0.025352 0.28382 -0.017287
   vertex -0.02331 0.281654 -0.017053
   vertex -0.025178 0.281938 -0.014794
  endloop
 endfacet
 facet normal -0.537986 -0.767602 -0.348366
  outer loop
   vertex -0.025178 0.281938 -0.014794
   vertex -0.02331 0.281654 -0.017053
   vertex -0.02283 0.280178 -0.014542
  endloop
 endfacet
 facet normal -0.420269 -0.815078 -0.398776
  outer loop
   vertex -0.02331 0.281654 -0.017053
   vertex -0.021234 0.280314 -0.016502
   vertex -0.02283 0.280178 -0.014542
  endloop
 endfacet
 facet normal 0.294416 -0.906493 0.302638
  outer loop
   vertex -0.016918 0.279266 -0.009518
   vertex -0.01411 0.280178 -0.009518
   vertex -0.015706 0.280314 -0.007558
  endloop
 endfacet
 facet normal 0.155824 -0.984657 0.07855
  outer loop
   vertex -0.01847 0.27882 -0.01203
   vertex -0.01538 0.279309 -0.01203
   vertex -0.016918 0.279266 -0.009518
  endloop
 endfacet
 facet normal -0.000555151 -0.98466 -0.174481
  outer loop
   vertex -0.020022 0.279266 -0.014542
   vertex -0.017088 0.279309 -0.014794
   vertex -0.01847 0.27882 -0.01203
  endloop
 endfacet
 facet normal 0.304389 -0.937197 0.170322
  outer loop
   vertex -0.016918 0.279266 -0.009518
   vertex -0.01538 0.279309 -0.01203
   vertex -0.01411 0.280178 -0.009518
  endloop
 endfacet
 facet normal 0.452705 -0.888208 0.0783901
  outer loop
   vertex -0.01538 0.279309 -0.01203
   vertex -0.012592 0.28073 -0.01203
   vertex -0.01411 0.280178 -0.009518
  endloop
 endfacet
 facet normal 0.155583 -0.983133 -0.0961419
  outer loop
   vertex -0.01847 0.27882 -0.01203
   vertex -0.017088 0.279309 -0.014794
   vertex -0.01538 0.279309 -0.01203
  endloop
 endfacet
 facet normal 0.303796 -0.934059 -0.187729
  outer loop
   vertex -0.017088 0.279309 -0.014794
   vertex -0.013998 0.280314 -0.014794
   vertex -0.01538 0.279309 -0.01203
  endloop
 endfacet
 facet normal 0.451986 -0.886796 -0.0964489
  outer loop
   vertex -0.01538 0.279309 -0.01203
   vertex -0.013998 0.280314 -0.014794
   vertex -0.012592 0.28073 -0.01203
  endloop
 endfacet
 facet normal 0.578874 -0.796508 -0.174584
  outer loop
   vertex -0.013998 0.280314 -0.014794
   vertex -0.011598 0.282003 -0.014542
   vertex -0.012592 0.28073 -0.01203
  endloop
 endfacet
 facet normal -0.0161962 -0.937175 -0.348485
  outer loop
   vertex -0.020022 0.279266 -0.014542
   vertex -0.018766 0.280178 -0.017053
   vertex -0.017088 0.279309 -0.014794
  endloop
 endfacet
 facet normal 0.132412 -0.888171 -0.440021
  outer loop
   vertex -0.018766 0.280178 -0.017053
   vertex -0.015841 0.28073 -0.017287
   vertex -0.017088 0.279309 -0.014794
  endloop
 endfacet
 facet normal 0.288415 -0.886769 -0.361189
  outer loop
   vertex -0.017088 0.279309 -0.014794
   vertex -0.015841 0.28073 -0.017287
   vertex -0.013998 0.280314 -0.014794
  endloop
 endfacet
 facet normal 0.415138 -0.796394 -0.439791
  outer loop
   vertex -0.015841 0.28073 -0.017287
   vertex -0.013151 0.282003 -0.017053
   vertex -0.013998 0.280314 -0.014794
  endloop
 endfacet
 facet normal 0.563623 -0.748876 -0.348589
  outer loop
   vertex -0.013998 0.280314 -0.014794
   vertex -0.013151 0.282003 -0.017053
   vertex -0.011598 0.282003 -0.014542
  endloop
 endfacet
 facet normal 0.645038 -0.651744 -0.398942
  outer loop
   vertex -0.013151 0.282003 -0.017053
   vertex -0.011234 0.283563 -0.016502
   vertex -0.011598 0.282003 -0.014542
  endloop
 endfacet
 facet normal 0.9532 -0 0.302341
  outer loop
   vertex -0.008904 0.287344 -0.009519
   vertex -0.008904 0.290296 -0.009519
   vertex -0.009526 0.28882 -0.007558
  endloop
 endfacet
 facet normal 0.984653 -0.155824 0.0785916
  outer loop
   vertex -0.008959 0.28573 -0.01203
   vertex -0.00847 0.28882 -0.01203
   vertex -0.008904 0.287344 -0.009519
  endloop
 endfacet
 facet normal 0.936352 -0.304548 -0.174631
  outer loop
   vertex -0.009863 0.284391 -0.014542
   vertex -0.008998 0.287195 -0.014794
   vertex -0.008959 0.28573 -0.01203
  endloop
 endfacet
 facet normal 0.98539 -0 0.170314
  outer loop
   vertex -0.008904 0.287344 -0.009519
   vertex -0.00847 0.28882 -0.01203
   vertex -0.008904 0.290296 -0.009519
  endloop
 endfacet
 facet normal 0.984653 0.155824 0.0785916
  outer loop
   vertex -0.00847 0.28882 -0.01203
   vertex -0.008959 0.29191 -0.01203
   vertex -0.008904 0.290296 -0.009519
  endloop
 endfacet
 facet normal 0.983115 -0.15558 -0.0963335
  outer loop
   vertex -0.008959 0.28573 -0.01203
   vertex -0.008998 0.287195 -0.014794
   vertex -0.00847 0.28882 -0.01203
  endloop
 endfacet
 facet normal 0.982239 0 -0.187634
  outer loop
   vertex -0.008998 0.287195 -0.014794
   vertex -0.008998 0.290445 -0.014794
   vertex -0.00847 0.28882 -0.01203
  endloop
 endfacet
 facet normal 0.983115 0.15558 -0.0963335
  outer loop
   vertex -0.00847 0.28882 -0.01203
   vertex -0.008998 0.290445 -0.014794
   vertex -0.008959 0.29191 -0.01203
  endloop
 endfacet
 facet normal 0.936352 0.304548 -0.174631
  outer loop
   vertex -0.008998 0.290445 -0.014794
   vertex -0.009863 0.293249 -0.014542
   vertex -0.008959 0.29191 -0.01203
  endloop
 endfacet
 facet normal 0.886309 -0.304753 -0.348685
  outer loop
   vertex -0.009863 0.284391 -0.014542
   vertex -0.010343 0.285868 -0.017053
   vertex -0.008998 0.287195 -0.014794
  endloop
 endfacet
 facet normal 0.885615 -0.148581 -0.440011
  outer loop
   vertex -0.010343 0.285868 -0.017053
   vertex -0.009964 0.28882 -0.017287
   vertex -0.008998 0.287195 -0.014794
  endloop
 endfacet
 facet normal 0.932446 0 -0.361309
  outer loop
   vertex -0.008998 0.287195 -0.014794
   vertex -0.009964 0.28882 -0.017287
   vertex -0.008998 0.290445 -0.014794
  endloop
 endfacet
 facet normal 0.885615 0.148581 -0.440011
  outer loop
   vertex -0.009964 0.28882 -0.017287
   vertex -0.010343 0.291772 -0.017053
   vertex -0.008998 0.290445 -0.014794
  endloop
 endfacet
 facet normal 0.886309 0.304753 -0.348685
  outer loop
   vertex -0.008998 0.290445 -0.014794
   vertex -0.010343 0.291772 -0.017053
   vertex -0.009863 0.293249 -0.014542
  endloop
 endfacet
 facet normal 0.819189 0.412026 -0.398954
  outer loop
   vertex -0.010343 0.291772 -0.017053
   vertex -0.011234 0.294077 -0.016502
   vertex -0.009863 0.293249 -0.014542
  endloop
 endfacet
 facet normal 0.61533 0.560308 -0.554459
  outer loop
   vertex -0.012375 0.293249 -0.018605
   vertex -0.013151 0.295637 -0.017053
   vertex -0.011234 0.294077 -0.016502
  endloop
 endfacet
 facet normal 0.467426 0.452641 -0.759361
  outer loop
   vertex -0.014217 0.29191 -0.020537
   vertex -0.014852 0.294698 -0.019266
   vertex -0.012375 0.293249 -0.018605
  endloop
 endfacet
 facet normal 0.262485 0.303841 -0.915851
  outer loop
   vertex -0.016438 0.290296 -0.021709
   vertex -0.017088 0.293073 -0.020974
   vertex -0.014217 0.29191 -0.020537
  endloop
 endfacet
 facet normal 0.508799 0.579247 -0.636864
  outer loop
   vertex -0.012375 0.293249 -0.018605
   vertex -0.014852 0.294698 -0.019266
   vertex -0.013151 0.295637 -0.017053
  endloop
 endfacet
 facet normal 0.38541 0.704977 -0.595371
  outer loop
   vertex -0.014852 0.294698 -0.019266
   vertex -0.015841 0.29691 -0.017287
   vertex -0.013151 0.295637 -0.017053
  endloop
 endfacet
 facet normal 0.310374 0.451949 -0.836307
  outer loop
   vertex -0.014217 0.29191 -0.020537
   vertex -0.017088 0.293073 -0.020974
   vertex -0.014852 0.294698 -0.019266
  endloop
 endfacet
 facet normal 0.187559 0.577248 -0.794737
  outer loop
   vertex -0.017088 0.293073 -0.020974
   vertex -0.017942 0.295702 -0.019266
   vertex -0.014852 0.294698 -0.019266
  endloop
 endfacet
 facet normal 0.228709 0.703897 -0.672474
  outer loop
   vertex -0.014852 0.294698 -0.019266
   vertex -0.017942 0.295702 -0.019266
   vertex -0.015841 0.29691 -0.017287
  endloop
 endfacet
 facet normal 0.102735 0.796801 -0.595444
  outer loop
   vertex -0.017942 0.295702 -0.019266
   vertex -0.018766 0.297462 -0.017053
   vertex -0.015841 0.29691 -0.017287
  endloop
 endfacet
 facet normal 0.0891868 0.274301 -0.957499
  outer loop
   vertex -0.016438 0.290296 -0.021709
   vertex -0.019246 0.291209 -0.021709
   vertex -0.017088 0.293073 -0.020974
  endloop
 endfacet
 facet normal -0.0336945 0.400135 -0.915836
  outer loop
   vertex -0.019246 0.291209 -0.021709
   vertex -0.020095 0.29382 -0.020537
   vertex -0.017088 0.293073 -0.020974
  endloop
 endfacet
 facet normal 0.0146149 0.548074 -0.836302
  outer loop
   vertex -0.017088 0.293073 -0.020974
   vertex -0.020095 0.29382 -0.020537
   vertex -0.017942 0.295702 -0.019266
  endloop
 endfacet
 facet normal -0.112009 0.640965 -0.759354
  outer loop
   vertex -0.020095 0.29382 -0.020537
   vertex -0.020798 0.295986 -0.018605
   vertex -0.017942 0.295702 -0.019266
  endloop
 endfacet
 facet normal -0.0710868 0.767617 -0.636955
  outer loop
   vertex -0.017942 0.295702 -0.019266
   vertex -0.020798 0.295986 -0.018605
   vertex -0.018766 0.297462 -0.017053
  endloop
 endfacet
 facet normal -0.168666 0.815046 -0.554303
  outer loop
   vertex -0.020798 0.295986 -0.018605
   vertex -0.021234 0.297326 -0.016502
   vertex -0.018766 0.297462 -0.017053
  endloop
 endfacet
 facet normal -0.342493 0.758552 -0.554344
  outer loop
   vertex -0.020798 0.295986 -0.018605
   vertex -0.02331 0.295986 -0.017053
   vertex -0.021234 0.297326 -0.016502
  endloop
 endfacet
 facet normal -0.286233 0.584386 -0.759318
  outer loop
   vertex -0.020095 0.29382 -0.020537
   vertex -0.022942 0.294077 -0.019266
   vertex -0.020798 0.295986 -0.018605
  endloop
 endfacet
 facet normal -0.207851 0.343516 -0.915858
  outer loop
   vertex -0.019246 0.291209 -0.021709
   vertex -0.022088 0.291449 -0.020974
   vertex -0.020095 0.29382 -0.020537
  endloop
 endfacet
 facet normal -0.393627 0.662685 -0.637108
  outer loop
   vertex -0.020798 0.295986 -0.018605
   vertex -0.022942 0.294077 -0.019266
   vertex -0.02331 0.295986 -0.017053
  endloop
 endfacet
 facet normal -0.551379 0.584158 -0.595601
  outer loop
   vertex -0.022942 0.294077 -0.019266
   vertex -0.025352 0.29382 -0.017287
   vertex -0.02331 0.295986 -0.017053
  endloop
 endfacet
 facet normal -0.334054 0.43492 -0.836213
  outer loop
   vertex -0.020095 0.29382 -0.020537
   vertex -0.022088 0.291449 -0.020974
   vertex -0.022942 0.294077 -0.019266
  endloop
 endfacet
 facet normal -0.491058 0.356895 -0.794662
  outer loop
   vertex -0.022088 0.291449 -0.020974
   vertex -0.024852 0.291449 -0.019266
   vertex -0.022942 0.294077 -0.019266
  endloop
 endfacet
 facet normal -0.598657 0.435097 -0.672533
  outer loop
   vertex -0.022942 0.294077 -0.019266
   vertex -0.024852 0.291449 -0.019266
   vertex -0.025352 0.29382 -0.017287
  endloop
 endfacet
 facet normal -0.725985 0.343961 -0.595514
  outer loop
   vertex -0.024852 0.291449 -0.019266
   vertex -0.026781 0.291209 -0.017053
   vertex -0.025352 0.29382 -0.017287
  endloop
 endfacet
 facet normal -0.233325 0.169451 -0.957521
  outer loop
   vertex -0.019246 0.291209 -0.021709
   vertex -0.020981 0.28882 -0.021709
   vertex -0.022088 0.291449 -0.020974
  endloop
 endfacet
 facet normal -0.390899 0.0914587 -0.915878
  outer loop
   vertex -0.020981 0.28882 -0.021709
   vertex -0.023727 0.28882 -0.020537
   vertex -0.022088 0.291449 -0.020974
  endloop
 endfacet
 facet normal -0.516783 0.183167 -0.836293
  outer loop
   vertex -0.022088 0.291449 -0.020974
   vertex -0.023727 0.28882 -0.020537
   vertex -0.024852 0.291449 -0.019266
  endloop
 endfacet
 facet normal -0.644269 0.0913996 -0.759317
  outer loop
   vertex -0.023727 0.28882 -0.020537
   vertex -0.026004 0.28882 -0.018605
   vertex -0.024852 0.291449 -0.019266
  endloop
 endfacet
 facet normal -0.751958 0.169318 -0.637095
  outer loop
   vertex -0.024852 0.291449 -0.019266
   vertex -0.026004 0.28882 -0.018605
   vertex -0.026781 0.291209 -0.017053
  endloop
 endfacet
 facet normal -0.827124 0.091254 -0.554562
  outer loop
   vertex -0.026004 0.28882 -0.018605
   vertex -0.027414 0.28882 -0.016502
   vertex -0.026781 0.291209 -0.017053
  endloop
 endfacet
 facet normal -0.827124 -0.091254 -0.554562
  outer loop
   vertex -0.026004 0.28882 -0.018605
   vertex -0.026781 0.286431 -0.017053
   vertex -0.027414 0.28882 -0.016502
  endloop
 endfacet
 facet normal -0.644269 -0.0913996 -0.759317
  outer loop
   vertex -0.023727 0.28882 -0.020537
   vertex -0.024852 0.286191 -0.019266
   vertex -0.026004 0.28882 -0.018605
  endloop
 endfacet
 facet normal -0.390899 -0.0914587 -0.915878
  outer loop
   vertex -0.020981 0.28882 -0.021709
   vertex -0.022088 0.286191 -0.020974
   vertex -0.023727 0.28882 -0.020537
  endloop
 endfacet
 facet normal -0.751958 -0.169318 -0.637095
  outer loop
   vertex -0.026004 0.28882 -0.018605
   vertex -0.024852 0.286191 -0.019266
   vertex -0.026781 0.286431 -0.017053
  endloop
 endfacet
 facet normal -0.725985 -0.343961 -0.595514
  outer loop
   vertex -0.024852 0.286191 -0.019266
   vertex -0.025352 0.28382 -0.017287
   vertex -0.026781 0.286431 -0.017053
  endloop
 endfacet
 facet normal -0.516783 -0.183167 -0.836293
  outer loop
   vertex -0.023727 0.28882 -0.020537
   vertex -0.022088 0.286191 -0.020974
   vertex -0.024852 0.286191 -0.019266
  endloop
 endfacet
 facet normal -0.491058 -0.356895 -0.794662
  outer loop
   vertex -0.022088 0.286191 -0.020974
   vertex -0.022942 0.283563 -0.019266
   vertex -0.024852 0.286191 -0.019266
  endloop
 endfacet
 facet normal -0.598657 -0.435097 -0.672533
  outer loop
   vertex -0.024852 0.286191 -0.019266
   vertex -0.022942 0.283563 -0.019266
   vertex -0.025352 0.28382 -0.017287
  endloop
 endfacet
 facet normal -0.551379 -0.584158 -0.595601
  outer loop
   vertex -0.022942 0.283563 -0.019266
   vertex -0.02331 0.281654 -0.017053
   vertex -0.025352 0.28382 -0.017287
  endloop
 endfacet
 facet normal -0.233325 -0.169451 -0.957521
  outer loop
   vertex -0.020981 0.28882 -0.021709
   vertex -0.019246 0.286431 -0.021709
   vertex -0.022088 0.286191 -0.020974
  endloop
 endfacet
 facet normal -0.207851 -0.343516 -0.915858
  outer loop
   vertex -0.019246 0.286431 -0.021709
   vertex -0.020095 0.28382 -0.020537
   vertex -0.022088 0.286191 -0.020974
  endloop
 endfacet
 facet normal -0.334054 -0.43492 -0.836213
  outer loop
   vertex -0.022088 0.286191 -0.020974
   vertex -0.020095 0.28382 -0.020537
   vertex -0.022942 0.283563 -0.019266
  endloop
 endfacet
 facet normal -0.286233 -0.584386 -0.759318
  outer loop
   vertex -0.020095 0.28382 -0.020537
   vertex -0.020798 0.281654 -0.018605
   vertex -0.022942 0.283563 -0.019266
  endloop
 endfacet
 facet normal -0.393627 -0.662685 -0.637108
  outer loop
   vertex -0.022942 0.283563 -0.019266
   vertex -0.020798 0.281654 -0.018605
   vertex -0.02331 0.281654 -0.017053
  endloop
 endfacet
 facet normal -0.342493 -0.758552 -0.554344
  outer loop
   vertex -0.020798 0.281654 -0.018605
   vertex -0.021234 0.280314 -0.016502
   vertex -0.02331 0.281654 -0.017053
  endloop
 endfacet
 facet normal 0.723015 0.412034 -0.554506
  outer loop
   vertex -0.010343 0.291772 -0.017053
   vertex -0.012375 0.293249 -0.018605
   vertex -0.011234 0.294077 -0.016502
  endloop
 endfacet
 facet normal 0.789589 0.148568 -0.59538
  outer loop
   vertex -0.009964 0.28882 -0.017287
   vertex -0.011762 0.290445 -0.019266
   vertex -0.010343 0.291772 -0.017053
  endloop
 endfacet
 facet normal 0.789589 -0.148568 -0.59538
  outer loop
   vertex -0.010343 0.285868 -0.017053
   vertex -0.011762 0.287195 -0.019266
   vertex -0.009964 0.28882 -0.017287
  endloop
 endfacet
 facet normal 0.708089 0.304936 -0.636886
  outer loop
   vertex -0.010343 0.291772 -0.017053
   vertex -0.011762 0.290445 -0.019266
   vertex -0.012375 0.293249 -0.018605
  endloop
 endfacet
 facet normal 0.574948 0.304695 -0.759339
  outer loop
   vertex -0.011762 0.290445 -0.019266
   vertex -0.014217 0.29191 -0.020537
   vertex -0.012375 0.293249 -0.018605
  endloop
 endfacet
 facet normal 0.740143 0 -0.672449
  outer loop
   vertex -0.009964 0.28882 -0.017287
   vertex -0.011762 0.287195 -0.019266
   vertex -0.011762 0.290445 -0.019266
  endloop
 endfacet
 facet normal 0.607028 0 -0.794681
  outer loop
   vertex -0.011762 0.287195 -0.019266
   vertex -0.013998 0.28882 -0.020974
   vertex -0.011762 0.290445 -0.019266
  endloop
 endfacet
 facet normal 0.525774 0.155534 -0.836284
  outer loop
   vertex -0.011762 0.290445 -0.019266
   vertex -0.013998 0.28882 -0.020974
   vertex -0.014217 0.29191 -0.020537
  endloop
 endfacet
 facet normal 0.370096 0.155752 -0.915844
  outer loop
   vertex -0.013998 0.28882 -0.020974
   vertex -0.016438 0.290296 -0.021709
   vertex -0.014217 0.29191 -0.020537
  endloop
 endfacet
 facet normal 0.708089 -0.304936 -0.636886
  outer loop
   vertex -0.010343 0.285868 -0.017053
   vertex -0.012375 0.284391 -0.018605
   vertex -0.011762 0.287195 -0.019266
  endloop
 endfacet
 facet normal 0.574948 -0.304695 -0.759339
  outer loop
   vertex -0.012375 0.284391 -0.018605
   vertex -0.014217 0.28573 -0.020537
   vertex -0.011762 0.287195 -0.019266
  endloop
 endfacet
 facet normal 0.525774 -0.155534 -0.836284
  outer loop
   vertex -0.011762 0.287195 -0.019266
   vertex -0.014217 0.28573 -0.020537
   vertex -0.013998 0.28882 -0.020974
  endloop
 endfacet
 facet normal 0.370096 -0.155752 -0.915844
  outer loop
   vertex -0.014217 0.28573 -0.020537
   vertex -0.016438 0.287344 -0.021709
   vertex -0.013998 0.28882 -0.020974
  endloop
 endfacet
 facet normal 0.288428 0 -0.957502
  outer loop
   vertex -0.013998 0.28882 -0.020974
   vertex -0.016438 0.287344 -0.021709
   vertex -0.016438 0.290296 -0.021709
  endloop
 endfacet
 facet normal 0.156037 0 -0.987751
  outer loop
   vertex -0.016438 0.287344 -0.021709
   vertex -0.01847 0.28882 -0.02203
   vertex -0.016438 0.290296 -0.021709
  endloop
 endfacet
 facet normal -0.168666 -0.815046 -0.554303
  outer loop
   vertex -0.020798 0.281654 -0.018605
   vertex -0.018766 0.280178 -0.017053
   vertex -0.021234 0.280314 -0.016502
  endloop
 endfacet
 facet normal -0.112009 -0.640965 -0.759354
  outer loop
   vertex -0.020095 0.28382 -0.020537
   vertex -0.017942 0.281938 -0.019266
   vertex -0.020798 0.281654 -0.018605
  endloop
 endfacet
 facet normal -0.0336945 -0.400135 -0.915836
  outer loop
   vertex -0.019246 0.286431 -0.021709
   vertex -0.017088 0.284567 -0.020974
   vertex -0.020095 0.28382 -0.020537
  endloop
 endfacet
 facet normal -0.0710868 -0.767617 -0.636955
  outer loop
   vertex -0.020798 0.281654 -0.018605
   vertex -0.017942 0.281938 -0.019266
   vertex -0.018766 0.280178 -0.017053
  endloop
 endfacet
 facet normal 0.102735 -0.796801 -0.595444
  outer loop
   vertex -0.017942 0.281938 -0.019266
   vertex -0.015841 0.28073 -0.017287
   vertex -0.018766 0.280178 -0.017053
  endloop
 endfacet
 facet normal 0.0146149 -0.548074 -0.836302
  outer loop
   vertex -0.020095 0.28382 -0.020537
   vertex -0.017088 0.284567 -0.020974
   vertex -0.017942 0.281938 -0.019266
  endloop
 endfacet
 facet normal 0.187559 -0.577248 -0.794737
  outer loop
   vertex -0.017088 0.284567 -0.020974
   vertex -0.014852 0.282942 -0.019266
   vertex -0.017942 0.281938 -0.019266
  endloop
 endfacet
 facet normal 0.228709 -0.703897 -0.672474
  outer loop
   vertex -0.017942 0.281938 -0.019266
   vertex -0.014852 0.282942 -0.019266
   vertex -0.015841 0.28073 -0.017287
  endloop
 endfacet
 facet normal 0.38541 -0.704977 -0.595371
  outer loop
   vertex -0.014852 0.282942 -0.019266
   vertex -0.013151 0.282003 -0.017053
   vertex -0.015841 0.28073 -0.017287
  endloop
 endfacet
 facet normal 0.0891868 -0.274301 -0.957499
  outer loop
   vertex -0.019246 0.286431 -0.021709
   vertex -0.016438 0.287344 -0.021709
   vertex -0.017088 0.284567 -0.020974
  endloop
 endfacet
 facet normal 0.262485 -0.303841 -0.915851
  outer loop
   vertex -0.016438 0.287344 -0.021709
   vertex -0.014217 0.28573 -0.020537
   vertex -0.017088 0.284567 -0.020974
  endloop
 endfacet
 facet normal 0.310374 -0.451949 -0.836307
  outer loop
   vertex -0.017088 0.284567 -0.020974
   vertex -0.014217 0.28573 -0.020537
   vertex -0.014852 0.282942 -0.019266
  endloop
 endfacet
 facet normal 0.467426 -0.452641 -0.759361
  outer loop
   vertex -0.014217 0.28573 -0.020537
   vertex -0.012375 0.284391 -0.018605
   vertex -0.014852 0.282942 -0.019266
  endloop
 endfacet
 facet normal 0.508799 -0.579247 -0.636864
  outer loop
   vertex -0.014852 0.282942 -0.019266
   vertex -0.012375 0.284391 -0.018605
   vertex -0.013151 0.282003 -0.017053
  endloop
 endfacet
 facet normal 0.61533 -0.560308 -0.554459
  outer loop
   vertex -0.012375 0.284391 -0.018605
   vertex -0.011234 0.283563 -0.016502
   vertex -0.013151 0.282003 -0.017053
  endloop
 endfacet
endsolid ExportedfromBlender-3.5.1
