solid ExportedfromBlender-3.5.1
 facet normal 0.0482486 -0.148392 -0.987751
  outer loop
   vertex -0.02599 0.2956 0.00399
   vertex -0.023958 0.294124 0.004311
   vertex -0.026766 0.293211 0.004311
  endloop
 endfacet
 facet normal 0.723015 -0.412034 -0.554506
  outer loop
   vertex -0.018754 0.290343 0.009518
   vertex -0.019895 0.291171 0.007415
   vertex -0.017863 0.292648 0.008967
  endloop
 endfacet
 facet normal -0.126271 -0.0917039 -0.987748
  outer loop
   vertex -0.02599 0.2956 0.00399
   vertex -0.026766 0.293211 0.004311
   vertex -0.028501 0.2956 0.004311
  endloop
 endfacet
 facet normal -0.126271 0.0917039 -0.987748
  outer loop
   vertex -0.02599 0.2956 0.00399
   vertex -0.028501 0.2956 0.004311
   vertex -0.026766 0.297989 0.004311
  endloop
 endfacet
 facet normal 0.0482486 0.148392 -0.987751
  outer loop
   vertex -0.02599 0.2956 0.00399
   vertex -0.026766 0.297989 0.004311
   vertex -0.023958 0.297076 0.004311
  endloop
 endfacet
 facet normal 0.819189 -0.412026 -0.398954
  outer loop
   vertex -0.018754 0.290343 0.009518
   vertex -0.017863 0.292648 0.008967
   vertex -0.017383 0.291171 0.011478
  endloop
 endfacet
 facet normal -0.138975 -0.90647 -0.398746
  outer loop
   vertex -0.028754 0.287094 0.009518
   vertex -0.026286 0.286958 0.008967
   vertex -0.027542 0.286046 0.011478
  endloop
 endfacet
 facet normal -0.905177 -0.147939 -0.398459
  outer loop
   vertex -0.034934 0.2956 0.009518
   vertex -0.034301 0.293211 0.008967
   vertex -0.035556 0.294124 0.011479
  endloop
 endfacet
 facet normal -0.420269 0.815078 -0.398776
  outer loop
   vertex -0.028754 0.304106 0.009518
   vertex -0.03083 0.302766 0.008967
   vertex -0.03035 0.304242 0.011478
  endloop
 endfacet
 facet normal 0.645038 0.651744 -0.398942
  outer loop
   vertex -0.018754 0.300857 0.009518
   vertex -0.020671 0.302417 0.008967
   vertex -0.019118 0.302417 0.011478
  endloop
 endfacet
 facet normal 0.771063 -0.560215 -0.302688
  outer loop
   vertex -0.018754 0.290343 0.009518
   vertex -0.017383 0.291171 0.011478
   vertex -0.019118 0.288783 0.011478
  endloop
 endfacet
 facet normal -0.294416 -0.906493 -0.302638
  outer loop
   vertex -0.028754 0.287094 0.009518
   vertex -0.027542 0.286046 0.011478
   vertex -0.03035 0.286958 0.011478
  endloop
 endfacet
 facet normal -0.9532 0 -0.302341
  outer loop
   vertex -0.034934 0.2956 0.009518
   vertex -0.035556 0.294124 0.011479
   vertex -0.035556 0.297076 0.011479
  endloop
 endfacet
 facet normal -0.294416 0.906493 -0.302638
  outer loop
   vertex -0.028754 0.304106 0.009518
   vertex -0.03035 0.304242 0.011478
   vertex -0.027542 0.305154 0.011478
  endloop
 endfacet
 facet normal 0.771063 0.560215 -0.302688
  outer loop
   vertex -0.018754 0.300857 0.009518
   vertex -0.019118 0.302417 0.011478
   vertex -0.017383 0.300029 0.011478
  endloop
 endfacet
 facet normal 0.342493 -0.758552 0.554344
  outer loop
   vertex -0.023226 0.287094 0.018462
   vertex -0.02115 0.288434 0.019013
   vertex -0.023662 0.288434 0.020565
  endloop
 endfacet
 facet normal -0.61533 -0.560308 0.554459
  outer loop
   vertex -0.033226 0.290343 0.018462
   vertex -0.031309 0.288783 0.019013
   vertex -0.032085 0.291171 0.020565
  endloop
 endfacet
 facet normal -0.723015 0.412034 0.554506
  outer loop
   vertex -0.033226 0.300857 0.018462
   vertex -0.034117 0.298552 0.019013
   vertex -0.032085 0.300029 0.020565
  endloop
 endfacet
 facet normal 0.168666 0.815046 0.554303
  outer loop
   vertex -0.023226 0.304106 0.018462
   vertex -0.025694 0.304242 0.019013
   vertex -0.023662 0.302766 0.020565
  endloop
 endfacet
 facet normal 0.827124 0.091254 0.554562
  outer loop
   vertex -0.017046 0.2956 0.018462
   vertex -0.017679 0.297989 0.019013
   vertex -0.018456 0.2956 0.020565
  endloop
 endfacet
 facet normal 0.126271 0.0917039 0.987748
  outer loop
   vertex -0.023479 0.2956 0.023669
   vertex -0.025214 0.297989 0.023669
   vertex -0.02599 0.2956 0.02399
  endloop
 endfacet
 facet normal 0.390899 0.0914587 0.915878
  outer loop
   vertex -0.020733 0.2956 0.022497
   vertex -0.022372 0.298229 0.022934
   vertex -0.023479 0.2956 0.023669
  endloop
 endfacet
 facet normal 0.644269 0.0913996 0.759317
  outer loop
   vertex -0.018456 0.2956 0.020565
   vertex -0.019608 0.298229 0.021226
   vertex -0.020733 0.2956 0.022497
  endloop
 endfacet
 facet normal 0.233325 0.169451 0.957521
  outer loop
   vertex -0.023479 0.2956 0.023669
   vertex -0.022372 0.298229 0.022934
   vertex -0.025214 0.297989 0.023669
  endloop
 endfacet
 facet normal 0.207851 0.343516 0.915858
  outer loop
   vertex -0.022372 0.298229 0.022934
   vertex -0.024365 0.3006 0.022497
   vertex -0.025214 0.297989 0.023669
  endloop
 endfacet
 facet normal 0.516783 0.183167 0.836293
  outer loop
   vertex -0.020733 0.2956 0.022497
   vertex -0.019608 0.298229 0.021226
   vertex -0.022372 0.298229 0.022934
  endloop
 endfacet
 facet normal 0.491058 0.356895 0.794662
  outer loop
   vertex -0.019608 0.298229 0.021226
   vertex -0.021518 0.300857 0.021226
   vertex -0.022372 0.298229 0.022934
  endloop
 endfacet
 facet normal 0.334054 0.43492 0.836213
  outer loop
   vertex -0.022372 0.298229 0.022934
   vertex -0.021518 0.300857 0.021226
   vertex -0.024365 0.3006 0.022497
  endloop
 endfacet
 facet normal 0.286233 0.584386 0.759318
  outer loop
   vertex -0.021518 0.300857 0.021226
   vertex -0.023662 0.302766 0.020565
   vertex -0.024365 0.3006 0.022497
  endloop
 endfacet
 facet normal 0.751958 0.169318 0.637095
  outer loop
   vertex -0.018456 0.2956 0.020565
   vertex -0.017679 0.297989 0.019013
   vertex -0.019608 0.298229 0.021226
  endloop
 endfacet
 facet normal 0.725985 0.343961 0.595514
  outer loop
   vertex -0.017679 0.297989 0.019013
   vertex -0.019108 0.3006 0.019247
   vertex -0.019608 0.298229 0.021226
  endloop
 endfacet
 facet normal 0.598657 0.435097 0.672533
  outer loop
   vertex -0.019608 0.298229 0.021226
   vertex -0.019108 0.3006 0.019247
   vertex -0.021518 0.300857 0.021226
  endloop
 endfacet
 facet normal 0.551379 0.584158 0.595601
  outer loop
   vertex -0.019108 0.3006 0.019247
   vertex -0.02115 0.302766 0.019013
   vertex -0.021518 0.300857 0.021226
  endloop
 endfacet
 facet normal 0.393627 0.662685 0.637108
  outer loop
   vertex -0.021518 0.300857 0.021226
   vertex -0.02115 0.302766 0.019013
   vertex -0.023662 0.302766 0.020565
  endloop
 endfacet
 facet normal 0.342493 0.758552 0.554344
  outer loop
   vertex -0.02115 0.302766 0.019013
   vertex -0.023226 0.304106 0.018462
   vertex -0.023662 0.302766 0.020565
  endloop
 endfacet
 facet normal -0.0482486 0.148392 0.987751
  outer loop
   vertex -0.025214 0.297989 0.023669
   vertex -0.028022 0.297076 0.023669
   vertex -0.02599 0.2956 0.02399
  endloop
 endfacet
 facet normal 0.0336945 0.400135 0.915836
  outer loop
   vertex -0.024365 0.3006 0.022497
   vertex -0.027372 0.299853 0.022934
   vertex -0.025214 0.297989 0.023669
  endloop
 endfacet
 facet normal 0.112009 0.640965 0.759354
  outer loop
   vertex -0.023662 0.302766 0.020565
   vertex -0.026518 0.302482 0.021226
   vertex -0.024365 0.3006 0.022497
  endloop
 endfacet
 facet normal -0.0891868 0.274301 0.957499
  outer loop
   vertex -0.025214 0.297989 0.023669
   vertex -0.027372 0.299853 0.022934
   vertex -0.028022 0.297076 0.023669
  endloop
 endfacet
 facet normal -0.262485 0.303841 0.915851
  outer loop
   vertex -0.027372 0.299853 0.022934
   vertex -0.030243 0.29869 0.022497
   vertex -0.028022 0.297076 0.023669
  endloop
 endfacet
 facet normal -0.0146149 0.548074 0.836302
  outer loop
   vertex -0.024365 0.3006 0.022497
   vertex -0.026518 0.302482 0.021226
   vertex -0.027372 0.299853 0.022934
  endloop
 endfacet
 facet normal -0.187559 0.577248 0.794737
  outer loop
   vertex -0.026518 0.302482 0.021226
   vertex -0.029608 0.301478 0.021226
   vertex -0.027372 0.299853 0.022934
  endloop
 endfacet
 facet normal -0.310374 0.451949 0.836307
  outer loop
   vertex -0.027372 0.299853 0.022934
   vertex -0.029608 0.301478 0.021226
   vertex -0.030243 0.29869 0.022497
  endloop
 endfacet
 facet normal -0.467426 0.452641 0.759361
  outer loop
   vertex -0.029608 0.301478 0.021226
   vertex -0.032085 0.300029 0.020565
   vertex -0.030243 0.29869 0.022497
  endloop
 endfacet
 facet normal 0.0710868 0.767617 0.636955
  outer loop
   vertex -0.023662 0.302766 0.020565
   vertex -0.025694 0.304242 0.019013
   vertex -0.026518 0.302482 0.021226
  endloop
 endfacet
 facet normal -0.102735 0.796801 0.595444
  outer loop
   vertex -0.025694 0.304242 0.019013
   vertex -0.028619 0.30369 0.019247
   vertex -0.026518 0.302482 0.021226
  endloop
 endfacet
 facet normal -0.228709 0.703897 0.672474
  outer loop
   vertex -0.026518 0.302482 0.021226
   vertex -0.028619 0.30369 0.019247
   vertex -0.029608 0.301478 0.021226
  endloop
 endfacet
 facet normal -0.38541 0.704977 0.595371
  outer loop
   vertex -0.028619 0.30369 0.019247
   vertex -0.031309 0.302417 0.019013
   vertex -0.029608 0.301478 0.021226
  endloop
 endfacet
 facet normal -0.508799 0.579247 0.636864
  outer loop
   vertex -0.029608 0.301478 0.021226
   vertex -0.031309 0.302417 0.019013
   vertex -0.032085 0.300029 0.020565
  endloop
 endfacet
 facet normal -0.61533 0.560308 0.554459
  outer loop
   vertex -0.031309 0.302417 0.019013
   vertex -0.033226 0.300857 0.018462
   vertex -0.032085 0.300029 0.020565
  endloop
 endfacet
 facet normal -0.156037 0 0.987751
  outer loop
   vertex -0.028022 0.297076 0.023669
   vertex -0.028022 0.294124 0.023669
   vertex -0.02599 0.2956 0.02399
  endloop
 endfacet
 facet normal -0.370096 0.155752 0.915844
  outer loop
   vertex -0.030243 0.29869 0.022497
   vertex -0.030462 0.2956 0.022934
   vertex -0.028022 0.297076 0.023669
  endloop
 endfacet
 facet normal -0.574948 0.304695 0.759339
  outer loop
   vertex -0.032085 0.300029 0.020565
   vertex -0.032698 0.297225 0.021226
   vertex -0.030243 0.29869 0.022497
  endloop
 endfacet
 facet normal -0.288428 0 0.957502
  outer loop
   vertex -0.028022 0.297076 0.023669
   vertex -0.030462 0.2956 0.022934
   vertex -0.028022 0.294124 0.023669
  endloop
 endfacet
 facet normal -0.370096 -0.155752 0.915844
  outer loop
   vertex -0.030462 0.2956 0.022934
   vertex -0.030243 0.29251 0.022497
   vertex -0.028022 0.294124 0.023669
  endloop
 endfacet
 facet normal -0.525774 0.155534 0.836284
  outer loop
   vertex -0.030243 0.29869 0.022497
   vertex -0.032698 0.297225 0.021226
   vertex -0.030462 0.2956 0.022934
  endloop
 endfacet
 facet normal -0.607028 0 0.794681
  outer loop
   vertex -0.032698 0.297225 0.021226
   vertex -0.032698 0.293975 0.021226
   vertex -0.030462 0.2956 0.022934
  endloop
 endfacet
 facet normal -0.525774 -0.155534 0.836284
  outer loop
   vertex -0.030462 0.2956 0.022934
   vertex -0.032698 0.293975 0.021226
   vertex -0.030243 0.29251 0.022497
  endloop
 endfacet
 facet normal -0.574948 -0.304695 0.759339
  outer loop
   vertex -0.032698 0.293975 0.021226
   vertex -0.032085 0.291171 0.020565
   vertex -0.030243 0.29251 0.022497
  endloop
 endfacet
 facet normal -0.708089 0.304936 0.636886
  outer loop
   vertex -0.032085 0.300029 0.020565
   vertex -0.034117 0.298552 0.019013
   vertex -0.032698 0.297225 0.021226
  endloop
 endfacet
 facet normal -0.789589 0.148568 0.59538
  outer loop
   vertex -0.034117 0.298552 0.019013
   vertex -0.034496 0.2956 0.019247
   vertex -0.032698 0.297225 0.021226
  endloop
 endfacet
 facet normal -0.740143 0 0.672449
  outer loop
   vertex -0.032698 0.297225 0.021226
   vertex -0.034496 0.2956 0.019247
   vertex -0.032698 0.293975 0.021226
  endloop
 endfacet
 facet normal -0.789589 -0.148568 0.59538
  outer loop
   vertex -0.034496 0.2956 0.019247
   vertex -0.034117 0.292648 0.019013
   vertex -0.032698 0.293975 0.021226
  endloop
 endfacet
 facet normal -0.708089 -0.304936 0.636886
  outer loop
   vertex -0.032698 0.293975 0.021226
   vertex -0.034117 0.292648 0.019013
   vertex -0.032085 0.291171 0.020565
  endloop
 endfacet
 facet normal -0.723015 -0.412034 0.554506
  outer loop
   vertex -0.034117 0.292648 0.019013
   vertex -0.033226 0.290343 0.018462
   vertex -0.032085 0.291171 0.020565
  endloop
 endfacet
 facet normal -0.0482486 -0.148392 0.987751
  outer loop
   vertex -0.028022 0.294124 0.023669
   vertex -0.025214 0.293211 0.023669
   vertex -0.02599 0.2956 0.02399
  endloop
 endfacet
 facet normal -0.262485 -0.303841 0.915851
  outer loop
   vertex -0.030243 0.29251 0.022497
   vertex -0.027372 0.291347 0.022934
   vertex -0.028022 0.294124 0.023669
  endloop
 endfacet
 facet normal -0.467426 -0.452641 0.759361
  outer loop
   vertex -0.032085 0.291171 0.020565
   vertex -0.029608 0.289722 0.021226
   vertex -0.030243 0.29251 0.022497
  endloop
 endfacet
 facet normal -0.0891868 -0.274301 0.957499
  outer loop
   vertex -0.028022 0.294124 0.023669
   vertex -0.027372 0.291347 0.022934
   vertex -0.025214 0.293211 0.023669
  endloop
 endfacet
 facet normal 0.0336945 -0.400135 0.915836
  outer loop
   vertex -0.027372 0.291347 0.022934
   vertex -0.024365 0.2906 0.022497
   vertex -0.025214 0.293211 0.023669
  endloop
 endfacet
 facet normal -0.310374 -0.451949 0.836307
  outer loop
   vertex -0.030243 0.29251 0.022497
   vertex -0.029608 0.289722 0.021226
   vertex -0.027372 0.291347 0.022934
  endloop
 endfacet
 facet normal -0.187559 -0.577248 0.794737
  outer loop
   vertex -0.029608 0.289722 0.021226
   vertex -0.026518 0.288718 0.021226
   vertex -0.027372 0.291347 0.022934
  endloop
 endfacet
 facet normal -0.0146149 -0.548074 0.836302
  outer loop
   vertex -0.027372 0.291347 0.022934
   vertex -0.026518 0.288718 0.021226
   vertex -0.024365 0.2906 0.022497
  endloop
 endfacet
 facet normal 0.112009 -0.640965 0.759354
  outer loop
   vertex -0.026518 0.288718 0.021226
   vertex -0.023662 0.288434 0.020565
   vertex -0.024365 0.2906 0.022497
  endloop
 endfacet
 facet normal -0.508799 -0.579247 0.636864
  outer loop
   vertex -0.032085 0.291171 0.020565
   vertex -0.031309 0.288783 0.019013
   vertex -0.029608 0.289722 0.021226
  endloop
 endfacet
 facet normal -0.38541 -0.704977 0.595371
  outer loop
   vertex -0.031309 0.288783 0.019013
   vertex -0.028619 0.28751 0.019247
   vertex -0.029608 0.289722 0.021226
  endloop
 endfacet
 facet normal -0.228709 -0.703897 0.672474
  outer loop
   vertex -0.029608 0.289722 0.021226
   vertex -0.028619 0.28751 0.019247
   vertex -0.026518 0.288718 0.021226
  endloop
 endfacet
 facet normal -0.102735 -0.796801 0.595444
  outer loop
   vertex -0.028619 0.28751 0.019247
   vertex -0.025694 0.286958 0.019013
   vertex -0.026518 0.288718 0.021226
  endloop
 endfacet
 facet normal 0.0710868 -0.767617 0.636955
  outer loop
   vertex -0.026518 0.288718 0.021226
   vertex -0.025694 0.286958 0.019013
   vertex -0.023662 0.288434 0.020565
  endloop
 endfacet
 facet normal 0.168666 -0.815046 0.554303
  outer loop
   vertex -0.025694 0.286958 0.019013
   vertex -0.023226 0.287094 0.018462
   vertex -0.023662 0.288434 0.020565
  endloop
 endfacet
 facet normal 0.126271 -0.0917039 0.987748
  outer loop
   vertex -0.025214 0.293211 0.023669
   vertex -0.023479 0.2956 0.023669
   vertex -0.02599 0.2956 0.02399
  endloop
 endfacet
 facet normal 0.207851 -0.343516 0.915858
  outer loop
   vertex -0.024365 0.2906 0.022497
   vertex -0.022372 0.292971 0.022934
   vertex -0.025214 0.293211 0.023669
  endloop
 endfacet
 facet normal 0.286233 -0.584386 0.759318
  outer loop
   vertex -0.023662 0.288434 0.020565
   vertex -0.021518 0.290343 0.021226
   vertex -0.024365 0.2906 0.022497
  endloop
 endfacet
 facet normal 0.233325 -0.169451 0.957521
  outer loop
   vertex -0.025214 0.293211 0.023669
   vertex -0.022372 0.292971 0.022934
   vertex -0.023479 0.2956 0.023669
  endloop
 endfacet
 facet normal 0.390899 -0.0914587 0.915878
  outer loop
   vertex -0.022372 0.292971 0.022934
   vertex -0.020733 0.2956 0.022497
   vertex -0.023479 0.2956 0.023669
  endloop
 endfacet
 facet normal 0.334054 -0.43492 0.836213
  outer loop
   vertex -0.024365 0.2906 0.022497
   vertex -0.021518 0.290343 0.021226
   vertex -0.022372 0.292971 0.022934
  endloop
 endfacet
 facet normal 0.491058 -0.356895 0.794662
  outer loop
   vertex -0.021518 0.290343 0.021226
   vertex -0.019608 0.292971 0.021226
   vertex -0.022372 0.292971 0.022934
  endloop
 endfacet
 facet normal 0.516783 -0.183167 0.836293
  outer loop
   vertex -0.022372 0.292971 0.022934
   vertex -0.019608 0.292971 0.021226
   vertex -0.020733 0.2956 0.022497
  endloop
 endfacet
 facet normal 0.644269 -0.0913996 0.759317
  outer loop
   vertex -0.019608 0.292971 0.021226
   vertex -0.018456 0.2956 0.020565
   vertex -0.020733 0.2956 0.022497
  endloop
 endfacet
 facet normal 0.393627 -0.662685 0.637108
  outer loop
   vertex -0.023662 0.288434 0.020565
   vertex -0.02115 0.288434 0.019013
   vertex -0.021518 0.290343 0.021226
  endloop
 endfacet
 facet normal 0.551379 -0.584158 0.595601
  outer loop
   vertex -0.02115 0.288434 0.019013
   vertex -0.019108 0.2906 0.019247
   vertex -0.021518 0.290343 0.021226
  endloop
 endfacet
 facet normal 0.598657 -0.435097 0.672533
  outer loop
   vertex -0.021518 0.290343 0.021226
   vertex -0.019108 0.2906 0.019247
   vertex -0.019608 0.292971 0.021226
  endloop
 endfacet
 facet normal 0.725985 -0.343961 0.595514
  outer loop
   vertex -0.019108 0.2906 0.019247
   vertex -0.017679 0.293211 0.019013
   vertex -0.019608 0.292971 0.021226
  endloop
 endfacet
 facet normal 0.751958 -0.169318 0.637095
  outer loop
   vertex -0.019608 0.292971 0.021226
   vertex -0.017679 0.293211 0.019013
   vertex -0.018456 0.2956 0.020565
  endloop
 endfacet
 facet normal 0.827124 -0.091254 0.554562
  outer loop
   vertex -0.017679 0.293211 0.019013
   vertex -0.017046 0.2956 0.018462
   vertex -0.018456 0.2956 0.020565
  endloop
 endfacet
 facet normal 0.905177 0.147939 0.398459
  outer loop
   vertex -0.016424 0.297076 0.016501
   vertex -0.017679 0.297989 0.019013
   vertex -0.017046 0.2956 0.018462
  endloop
 endfacet
 facet normal 0.93657 0.303801 0.17476
  outer loop
   vertex -0.016479 0.29869 0.01399
   vertex -0.017372 0.299853 0.016754
   vertex -0.016424 0.297076 0.016501
  endloop
 endfacet
 facet normal 0.888212 0.452708 -0.078331
  outer loop
   vertex -0.017383 0.300029 0.011478
   vertex -0.0179 0.301478 0.01399
   vertex -0.016479 0.29869 0.01399
  endloop
 endfacet
 facet normal 0.89641 0.274294 0.348155
  outer loop
   vertex -0.016424 0.297076 0.016501
   vertex -0.017372 0.299853 0.016754
   vertex -0.017679 0.297989 0.019013
  endloop
 endfacet
 facet normal 0.803858 0.400541 0.439749
  outer loop
   vertex -0.017372 0.299853 0.016754
   vertex -0.019108 0.3006 0.019247
   vertex -0.017679 0.297989 0.019013
  endloop
 endfacet
 facet normal 0.886806 0.451991 0.0963284
  outer loop
   vertex -0.016479 0.29869 0.01399
   vertex -0.0179 0.301478 0.01399
   vertex -0.017372 0.299853 0.016754
  endloop
 endfacet
 facet normal 0.794662 0.577331 0.18762
  outer loop
   vertex -0.0179 0.301478 0.01399
   vertex -0.019282 0.302482 0.016754
   vertex -0.017372 0.299853 0.016754
  endloop
 endfacet
 facet normal 0.754436 0.548107 0.361117
  outer loop
   vertex -0.017372 0.299853 0.016754
   vertex -0.019282 0.302482 0.016754
   vertex -0.019108 0.3006 0.019247
  endloop
 endfacet
 facet normal 0.629279 0.640767 0.439803
  outer loop
   vertex -0.019282 0.302482 0.016754
   vertex -0.02115 0.302766 0.019013
   vertex -0.019108 0.3006 0.019247
  endloop
 endfacet
 facet normal 0.797233 0.579229 -0.170037
  outer loop
   vertex -0.017383 0.300029 0.011478
   vertex -0.019118 0.302417 0.011478
   vertex -0.0179 0.301478 0.01399
  endloop
 endfacet
 facet normal 0.704936 0.704936 -0.0782949
  outer loop
   vertex -0.019118 0.302417 0.011478
   vertex -0.020112 0.30369 0.01399
   vertex -0.0179 0.301478 0.01399
  endloop
 endfacet
 facet normal 0.703824 0.703824 0.0962537
  outer loop
   vertex -0.0179 0.301478 0.01399
   vertex -0.020112 0.30369 0.01399
   vertex -0.019282 0.302482 0.016754
  endloop
 endfacet
 facet normal 0.578519 0.796783 0.174509
  outer loop
   vertex -0.020112 0.30369 0.01399
   vertex -0.02163 0.304242 0.016502
   vertex -0.019282 0.302482 0.016754
  endloop
 endfacet
 facet normal 0.537986 0.767602 0.348366
  outer loop
   vertex -0.019282 0.302482 0.016754
   vertex -0.02163 0.304242 0.016502
   vertex -0.02115 0.302766 0.019013
  endloop
 endfacet
 facet normal 0.420269 0.815078 0.398776
  outer loop
   vertex -0.02163 0.304242 0.016502
   vertex -0.023226 0.304106 0.018462
   vertex -0.02115 0.302766 0.019013
  endloop
 endfacet
 facet normal 0.138975 0.90647 0.398746
  outer loop
   vertex -0.024438 0.305154 0.016502
   vertex -0.025694 0.304242 0.019013
   vertex -0.023226 0.304106 0.018462
  endloop
 endfacet
 facet normal 0.000555151 0.98466 0.174481
  outer loop
   vertex -0.02599 0.3056 0.01399
   vertex -0.027372 0.305111 0.016754
   vertex -0.024438 0.305154 0.016502
  endloop
 endfacet
 facet normal -0.155824 0.984657 -0.07855
  outer loop
   vertex -0.027542 0.305154 0.011478
   vertex -0.02908 0.305111 0.01399
   vertex -0.02599 0.3056 0.01399
  endloop
 endfacet
 facet normal 0.0161962 0.937175 0.348485
  outer loop
   vertex -0.024438 0.305154 0.016502
   vertex -0.027372 0.305111 0.016754
   vertex -0.025694 0.304242 0.019013
  endloop
 endfacet
 facet normal -0.132412 0.888171 0.440021
  outer loop
   vertex -0.027372 0.305111 0.016754
   vertex -0.028619 0.30369 0.019247
   vertex -0.025694 0.304242 0.019013
  endloop
 endfacet
 facet normal -0.155583 0.983133 0.0961419
  outer loop
   vertex -0.02599 0.3056 0.01399
   vertex -0.02908 0.305111 0.01399
   vertex -0.027372 0.305111 0.016754
  endloop
 endfacet
 facet normal -0.303796 0.934059 0.187729
  outer loop
   vertex -0.02908 0.305111 0.01399
   vertex -0.030462 0.304106 0.016754
   vertex -0.027372 0.305111 0.016754
  endloop
 endfacet
 facet normal -0.288415 0.886769 0.361189
  outer loop
   vertex -0.027372 0.305111 0.016754
   vertex -0.030462 0.304106 0.016754
   vertex -0.028619 0.30369 0.019247
  endloop
 endfacet
 facet normal -0.415138 0.796394 0.439791
  outer loop
   vertex -0.030462 0.304106 0.016754
   vertex -0.031309 0.302417 0.019013
   vertex -0.028619 0.30369 0.019247
  endloop
 endfacet
 facet normal -0.304389 0.937197 -0.170322
  outer loop
   vertex -0.027542 0.305154 0.011478
   vertex -0.03035 0.304242 0.011478
   vertex -0.02908 0.305111 0.01399
  endloop
 endfacet
 facet normal -0.452705 0.888208 -0.0783901
  outer loop
   vertex -0.03035 0.304242 0.011478
   vertex -0.031868 0.30369 0.01399
   vertex -0.02908 0.305111 0.01399
  endloop
 endfacet
 facet normal -0.451986 0.886796 0.0964489
  outer loop
   vertex -0.02908 0.305111 0.01399
   vertex -0.031868 0.30369 0.01399
   vertex -0.030462 0.304106 0.016754
  endloop
 endfacet
 facet normal -0.578874 0.796508 0.174584
  outer loop
   vertex -0.031868 0.30369 0.01399
   vertex -0.032862 0.302417 0.016502
   vertex -0.030462 0.304106 0.016754
  endloop
 endfacet
 facet normal -0.563623 0.748876 0.348589
  outer loop
   vertex -0.030462 0.304106 0.016754
   vertex -0.032862 0.302417 0.016502
   vertex -0.031309 0.302417 0.019013
  endloop
 endfacet
 facet normal -0.645038 0.651744 0.398942
  outer loop
   vertex -0.032862 0.302417 0.016502
   vertex -0.033226 0.300857 0.018462
   vertex -0.031309 0.302417 0.019013
  endloop
 endfacet
 facet normal -0.819189 0.412026 0.398954
  outer loop
   vertex -0.034597 0.300029 0.016502
   vertex -0.034117 0.298552 0.019013
   vertex -0.033226 0.300857 0.018462
  endloop
 endfacet
 facet normal -0.936352 0.304548 0.174631
  outer loop
   vertex -0.035501 0.29869 0.01399
   vertex -0.035462 0.297225 0.016754
   vertex -0.034597 0.300029 0.016502
  endloop
 endfacet
 facet normal -0.984653 0.155824 -0.0785916
  outer loop
   vertex -0.035556 0.297076 0.011479
   vertex -0.03599 0.2956 0.01399
   vertex -0.035501 0.29869 0.01399
  endloop
 endfacet
 facet normal -0.886309 0.304753 0.348685
  outer loop
   vertex -0.034597 0.300029 0.016502
   vertex -0.035462 0.297225 0.016754
   vertex -0.034117 0.298552 0.019013
  endloop
 endfacet
 facet normal -0.885615 0.148581 0.440011
  outer loop
   vertex -0.035462 0.297225 0.016754
   vertex -0.034496 0.2956 0.019247
   vertex -0.034117 0.298552 0.019013
  endloop
 endfacet
 facet normal -0.983115 0.15558 0.0963335
  outer loop
   vertex -0.035501 0.29869 0.01399
   vertex -0.03599 0.2956 0.01399
   vertex -0.035462 0.297225 0.016754
  endloop
 endfacet
 facet normal -0.982239 0 0.187634
  outer loop
   vertex -0.03599 0.2956 0.01399
   vertex -0.035462 0.293975 0.016754
   vertex -0.035462 0.297225 0.016754
  endloop
 endfacet
 facet normal -0.932446 0 0.361309
  outer loop
   vertex -0.035462 0.297225 0.016754
   vertex -0.035462 0.293975 0.016754
   vertex -0.034496 0.2956 0.019247
  endloop
 endfacet
 facet normal -0.885615 -0.148581 0.440011
  outer loop
   vertex -0.035462 0.293975 0.016754
   vertex -0.034117 0.292648 0.019013
   vertex -0.034496 0.2956 0.019247
  endloop
 endfacet
 facet normal -0.98539 -0 -0.170314
  outer loop
   vertex -0.035556 0.297076 0.011479
   vertex -0.035556 0.294124 0.011479
   vertex -0.03599 0.2956 0.01399
  endloop
 endfacet
 facet normal -0.984653 -0.155824 -0.0785916
  outer loop
   vertex -0.035556 0.294124 0.011479
   vertex -0.035501 0.29251 0.01399
   vertex -0.03599 0.2956 0.01399
  endloop
 endfacet
 facet normal -0.983115 -0.15558 0.0963335
  outer loop
   vertex -0.03599 0.2956 0.01399
   vertex -0.035501 0.29251 0.01399
   vertex -0.035462 0.293975 0.016754
  endloop
 endfacet
 facet normal -0.936352 -0.304548 0.174631
  outer loop
   vertex -0.035501 0.29251 0.01399
   vertex -0.034597 0.291171 0.016502
   vertex -0.035462 0.293975 0.016754
  endloop
 endfacet
 facet normal -0.886309 -0.304753 0.348685
  outer loop
   vertex -0.035462 0.293975 0.016754
   vertex -0.034597 0.291171 0.016502
   vertex -0.034117 0.292648 0.019013
  endloop
 endfacet
 facet normal -0.819189 -0.412026 0.398954
  outer loop
   vertex -0.034597 0.291171 0.016502
   vertex -0.033226 0.290343 0.018462
   vertex -0.034117 0.292648 0.019013
  endloop
 endfacet
 facet normal -0.645038 -0.651744 0.398942
  outer loop
   vertex -0.032862 0.288783 0.016502
   vertex -0.031309 0.288783 0.019013
   vertex -0.033226 0.290343 0.018462
  endloop
 endfacet
 facet normal -0.578874 -0.796508 0.174584
  outer loop
   vertex -0.031868 0.28751 0.01399
   vertex -0.030462 0.287094 0.016754
   vertex -0.032862 0.288783 0.016502
  endloop
 endfacet
 facet normal -0.452705 -0.888208 -0.0783901
  outer loop
   vertex -0.03035 0.286958 0.011478
   vertex -0.02908 0.286089 0.01399
   vertex -0.031868 0.28751 0.01399
  endloop
 endfacet
 facet normal -0.563623 -0.748876 0.348589
  outer loop
   vertex -0.032862 0.288783 0.016502
   vertex -0.030462 0.287094 0.016754
   vertex -0.031309 0.288783 0.019013
  endloop
 endfacet
 facet normal -0.415138 -0.796394 0.439791
  outer loop
   vertex -0.030462 0.287094 0.016754
   vertex -0.028619 0.28751 0.019247
   vertex -0.031309 0.288783 0.019013
  endloop
 endfacet
 facet normal -0.451986 -0.886796 0.0964489
  outer loop
   vertex -0.031868 0.28751 0.01399
   vertex -0.02908 0.286089 0.01399
   vertex -0.030462 0.287094 0.016754
  endloop
 endfacet
 facet normal -0.303796 -0.934059 0.187729
  outer loop
   vertex -0.02908 0.286089 0.01399
   vertex -0.027372 0.286089 0.016754
   vertex -0.030462 0.287094 0.016754
  endloop
 endfacet
 facet normal -0.288415 -0.886769 0.361189
  outer loop
   vertex -0.030462 0.287094 0.016754
   vertex -0.027372 0.286089 0.016754
   vertex -0.028619 0.28751 0.019247
  endloop
 endfacet
 facet normal -0.132412 -0.888171 0.440021
  outer loop
   vertex -0.027372 0.286089 0.016754
   vertex -0.025694 0.286958 0.019013
   vertex -0.028619 0.28751 0.019247
  endloop
 endfacet
 facet normal -0.304389 -0.937197 -0.170322
  outer loop
   vertex -0.03035 0.286958 0.011478
   vertex -0.027542 0.286046 0.011478
   vertex -0.02908 0.286089 0.01399
  endloop
 endfacet
 facet normal -0.155824 -0.984657 -0.07855
  outer loop
   vertex -0.027542 0.286046 0.011478
   vertex -0.02599 0.2856 0.01399
   vertex -0.02908 0.286089 0.01399
  endloop
 endfacet
 facet normal -0.155583 -0.983133 0.0961419
  outer loop
   vertex -0.02908 0.286089 0.01399
   vertex -0.02599 0.2856 0.01399
   vertex -0.027372 0.286089 0.016754
  endloop
 endfacet
 facet normal 0.000555151 -0.98466 0.174481
  outer loop
   vertex -0.02599 0.2856 0.01399
   vertex -0.024438 0.286046 0.016502
   vertex -0.027372 0.286089 0.016754
  endloop
 endfacet
 facet normal 0.0161962 -0.937175 0.348485
  outer loop
   vertex -0.027372 0.286089 0.016754
   vertex -0.024438 0.286046 0.016502
   vertex -0.025694 0.286958 0.019013
  endloop
 endfacet
 facet normal 0.138975 -0.90647 0.398746
  outer loop
   vertex -0.024438 0.286046 0.016502
   vertex -0.023226 0.287094 0.018462
   vertex -0.025694 0.286958 0.019013
  endloop
 endfacet
 facet normal 0.420269 -0.815078 0.398776
  outer loop
   vertex -0.02163 0.286958 0.016502
   vertex -0.02115 0.288434 0.019013
   vertex -0.023226 0.287094 0.018462
  endloop
 endfacet
 facet normal 0.578519 -0.796783 0.174509
  outer loop
   vertex -0.020112 0.28751 0.01399
   vertex -0.019282 0.288718 0.016754
   vertex -0.02163 0.286958 0.016502
  endloop
 endfacet
 facet normal 0.704936 -0.704936 -0.0782949
  outer loop
   vertex -0.019118 0.288783 0.011478
   vertex -0.0179 0.289722 0.01399
   vertex -0.020112 0.28751 0.01399
  endloop
 endfacet
 facet normal 0.537986 -0.767602 0.348366
  outer loop
   vertex -0.02163 0.286958 0.016502
   vertex -0.019282 0.288718 0.016754
   vertex -0.02115 0.288434 0.019013
  endloop
 endfacet
 facet normal 0.629279 -0.640767 0.439803
  outer loop
   vertex -0.019282 0.288718 0.016754
   vertex -0.019108 0.2906 0.019247
   vertex -0.02115 0.288434 0.019013
  endloop
 endfacet
 facet normal 0.703824 -0.703824 0.0962537
  outer loop
   vertex -0.020112 0.28751 0.01399
   vertex -0.0179 0.289722 0.01399
   vertex -0.019282 0.288718 0.016754
  endloop
 endfacet
 facet normal 0.794662 -0.577331 0.18762
  outer loop
   vertex -0.0179 0.289722 0.01399
   vertex -0.017372 0.291347 0.016754
   vertex -0.019282 0.288718 0.016754
  endloop
 endfacet
 facet normal 0.754436 -0.548107 0.361117
  outer loop
   vertex -0.019282 0.288718 0.016754
   vertex -0.017372 0.291347 0.016754
   vertex -0.019108 0.2906 0.019247
  endloop
 endfacet
 facet normal 0.803858 -0.400541 0.439749
  outer loop
   vertex -0.017372 0.291347 0.016754
   vertex -0.017679 0.293211 0.019013
   vertex -0.019108 0.2906 0.019247
  endloop
 endfacet
 facet normal 0.797233 -0.579229 -0.170037
  outer loop
   vertex -0.019118 0.288783 0.011478
   vertex -0.017383 0.291171 0.011478
   vertex -0.0179 0.289722 0.01399
  endloop
 endfacet
 facet normal 0.888212 -0.452708 -0.078331
  outer loop
   vertex -0.017383 0.291171 0.011478
   vertex -0.016479 0.29251 0.01399
   vertex -0.0179 0.289722 0.01399
  endloop
 endfacet
 facet normal 0.886806 -0.451991 0.0963284
  outer loop
   vertex -0.0179 0.289722 0.01399
   vertex -0.016479 0.29251 0.01399
   vertex -0.017372 0.291347 0.016754
  endloop
 endfacet
 facet normal 0.93657 -0.303801 0.17476
  outer loop
   vertex -0.016479 0.29251 0.01399
   vertex -0.016424 0.294124 0.016501
   vertex -0.017372 0.291347 0.016754
  endloop
 endfacet
 facet normal 0.89641 -0.274294 0.348155
  outer loop
   vertex -0.017372 0.291347 0.016754
   vertex -0.016424 0.294124 0.016501
   vertex -0.017679 0.293211 0.019013
  endloop
 endfacet
 facet normal 0.905177 -0.147939 0.398459
  outer loop
   vertex -0.016424 0.294124 0.016501
   vertex -0.017046 0.2956 0.018462
   vertex -0.017679 0.293211 0.019013
  endloop
 endfacet
 facet normal 0.294416 0.906493 0.302638
  outer loop
   vertex -0.02163 0.304242 0.016502
   vertex -0.024438 0.305154 0.016502
   vertex -0.023226 0.304106 0.018462
  endloop
 endfacet
 facet normal 0.452705 0.888208 0.0783901
  outer loop
   vertex -0.020112 0.30369 0.01399
   vertex -0.0229 0.305111 0.01399
   vertex -0.02163 0.304242 0.016502
  endloop
 endfacet
 facet normal 0.578874 0.796508 -0.174584
  outer loop
   vertex -0.019118 0.302417 0.011478
   vertex -0.021518 0.304106 0.011226
   vertex -0.020112 0.30369 0.01399
  endloop
 endfacet
 facet normal 0.304389 0.937197 0.170322
  outer loop
   vertex -0.02163 0.304242 0.016502
   vertex -0.0229 0.305111 0.01399
   vertex -0.024438 0.305154 0.016502
  endloop
 endfacet
 facet normal 0.155824 0.984657 0.07855
  outer loop
   vertex -0.0229 0.305111 0.01399
   vertex -0.02599 0.3056 0.01399
   vertex -0.024438 0.305154 0.016502
  endloop
 endfacet
 facet normal 0.451986 0.886796 -0.0964489
  outer loop
   vertex -0.020112 0.30369 0.01399
   vertex -0.021518 0.304106 0.011226
   vertex -0.0229 0.305111 0.01399
  endloop
 endfacet
 facet normal 0.303796 0.934059 -0.187729
  outer loop
   vertex -0.021518 0.304106 0.011226
   vertex -0.024608 0.305111 0.011226
   vertex -0.0229 0.305111 0.01399
  endloop
 endfacet
 facet normal 0.155583 0.983133 -0.0961419
  outer loop
   vertex -0.0229 0.305111 0.01399
   vertex -0.024608 0.305111 0.011226
   vertex -0.02599 0.3056 0.01399
  endloop
 endfacet
 facet normal -0.000555151 0.98466 -0.174481
  outer loop
   vertex -0.024608 0.305111 0.011226
   vertex -0.027542 0.305154 0.011478
   vertex -0.02599 0.3056 0.01399
  endloop
 endfacet
 facet normal 0.563623 0.748876 -0.348589
  outer loop
   vertex -0.019118 0.302417 0.011478
   vertex -0.020671 0.302417 0.008967
   vertex -0.021518 0.304106 0.011226
  endloop
 endfacet
 facet normal 0.415138 0.796394 -0.439791
  outer loop
   vertex -0.020671 0.302417 0.008967
   vertex -0.023361 0.30369 0.008733
   vertex -0.021518 0.304106 0.011226
  endloop
 endfacet
 facet normal 0.288415 0.886769 -0.361189
  outer loop
   vertex -0.021518 0.304106 0.011226
   vertex -0.023361 0.30369 0.008733
   vertex -0.024608 0.305111 0.011226
  endloop
 endfacet
 facet normal 0.132412 0.888171 -0.440021
  outer loop
   vertex -0.023361 0.30369 0.008733
   vertex -0.026286 0.304242 0.008967
   vertex -0.024608 0.305111 0.011226
  endloop
 endfacet
 facet normal -0.0161962 0.937175 -0.348485
  outer loop
   vertex -0.024608 0.305111 0.011226
   vertex -0.026286 0.304242 0.008967
   vertex -0.027542 0.305154 0.011478
  endloop
 endfacet
 facet normal -0.138975 0.90647 -0.398746
  outer loop
   vertex -0.026286 0.304242 0.008967
   vertex -0.028754 0.304106 0.009518
   vertex -0.027542 0.305154 0.011478
  endloop
 endfacet
 facet normal -0.771063 0.560215 0.302688
  outer loop
   vertex -0.032862 0.302417 0.016502
   vertex -0.034597 0.300029 0.016502
   vertex -0.033226 0.300857 0.018462
  endloop
 endfacet
 facet normal -0.704936 0.704936 0.0782949
  outer loop
   vertex -0.031868 0.30369 0.01399
   vertex -0.03408 0.301478 0.01399
   vertex -0.032862 0.302417 0.016502
  endloop
 endfacet
 facet normal -0.578519 0.796783 -0.174509
  outer loop
   vertex -0.03035 0.304242 0.011478
   vertex -0.032698 0.302482 0.011226
   vertex -0.031868 0.30369 0.01399
  endloop
 endfacet
 facet normal -0.797233 0.579229 0.170037
  outer loop
   vertex -0.032862 0.302417 0.016502
   vertex -0.03408 0.301478 0.01399
   vertex -0.034597 0.300029 0.016502
  endloop
 endfacet
 facet normal -0.888212 0.452708 0.078331
  outer loop
   vertex -0.03408 0.301478 0.01399
   vertex -0.035501 0.29869 0.01399
   vertex -0.034597 0.300029 0.016502
  endloop
 endfacet
 facet normal -0.703824 0.703824 -0.0962537
  outer loop
   vertex -0.031868 0.30369 0.01399
   vertex -0.032698 0.302482 0.011226
   vertex -0.03408 0.301478 0.01399
  endloop
 endfacet
 facet normal -0.794662 0.577331 -0.18762
  outer loop
   vertex -0.032698 0.302482 0.011226
   vertex -0.034608 0.299853 0.011226
   vertex -0.03408 0.301478 0.01399
  endloop
 endfacet
 facet normal -0.886806 0.451991 -0.0963284
  outer loop
   vertex -0.03408 0.301478 0.01399
   vertex -0.034608 0.299853 0.011226
   vertex -0.035501 0.29869 0.01399
  endloop
 endfacet
 facet normal -0.93657 0.303801 -0.17476
  outer loop
   vertex -0.034608 0.299853 0.011226
   vertex -0.035556 0.297076 0.011479
   vertex -0.035501 0.29869 0.01399
  endloop
 endfacet
 facet normal -0.537986 0.767602 -0.348366
  outer loop
   vertex -0.03035 0.304242 0.011478
   vertex -0.03083 0.302766 0.008967
   vertex -0.032698 0.302482 0.011226
  endloop
 endfacet
 facet normal -0.629279 0.640767 -0.439803
  outer loop
   vertex -0.03083 0.302766 0.008967
   vertex -0.032872 0.3006 0.008733
   vertex -0.032698 0.302482 0.011226
  endloop
 endfacet
 facet normal -0.754436 0.548107 -0.361117
  outer loop
   vertex -0.032698 0.302482 0.011226
   vertex -0.032872 0.3006 0.008733
   vertex -0.034608 0.299853 0.011226
  endloop
 endfacet
 facet normal -0.803858 0.400541 -0.439749
  outer loop
   vertex -0.032872 0.3006 0.008733
   vertex -0.034301 0.297989 0.008967
   vertex -0.034608 0.299853 0.011226
  endloop
 endfacet
 facet normal -0.89641 0.274294 -0.348155
  outer loop
   vertex -0.034608 0.299853 0.011226
   vertex -0.034301 0.297989 0.008967
   vertex -0.035556 0.297076 0.011479
  endloop
 endfacet
 facet normal -0.905177 0.147939 -0.398459
  outer loop
   vertex -0.034301 0.297989 0.008967
   vertex -0.034934 0.2956 0.009518
   vertex -0.035556 0.297076 0.011479
  endloop
 endfacet
 facet normal -0.771063 -0.560215 0.302688
  outer loop
   vertex -0.034597 0.291171 0.016502
   vertex -0.032862 0.288783 0.016502
   vertex -0.033226 0.290343 0.018462
  endloop
 endfacet
 facet normal -0.888212 -0.452708 0.078331
  outer loop
   vertex -0.035501 0.29251 0.01399
   vertex -0.03408 0.289722 0.01399
   vertex -0.034597 0.291171 0.016502
  endloop
 endfacet
 facet normal -0.93657 -0.303801 -0.17476
  outer loop
   vertex -0.035556 0.294124 0.011479
   vertex -0.034608 0.291347 0.011226
   vertex -0.035501 0.29251 0.01399
  endloop
 endfacet
 facet normal -0.797233 -0.579229 0.170037
  outer loop
   vertex -0.034597 0.291171 0.016502
   vertex -0.03408 0.289722 0.01399
   vertex -0.032862 0.288783 0.016502
  endloop
 endfacet
 facet normal -0.704936 -0.704936 0.0782949
  outer loop
   vertex -0.03408 0.289722 0.01399
   vertex -0.031868 0.28751 0.01399
   vertex -0.032862 0.288783 0.016502
  endloop
 endfacet
 facet normal -0.886806 -0.451991 -0.0963284
  outer loop
   vertex -0.035501 0.29251 0.01399
   vertex -0.034608 0.291347 0.011226
   vertex -0.03408 0.289722 0.01399
  endloop
 endfacet
 facet normal -0.794662 -0.577331 -0.18762
  outer loop
   vertex -0.034608 0.291347 0.011226
   vertex -0.032698 0.288718 0.011226
   vertex -0.03408 0.289722 0.01399
  endloop
 endfacet
 facet normal -0.703824 -0.703824 -0.0962537
  outer loop
   vertex -0.03408 0.289722 0.01399
   vertex -0.032698 0.288718 0.011226
   vertex -0.031868 0.28751 0.01399
  endloop
 endfacet
 facet normal -0.578519 -0.796783 -0.174509
  outer loop
   vertex -0.032698 0.288718 0.011226
   vertex -0.03035 0.286958 0.011478
   vertex -0.031868 0.28751 0.01399
  endloop
 endfacet
 facet normal -0.89641 -0.274294 -0.348155
  outer loop
   vertex -0.035556 0.294124 0.011479
   vertex -0.034301 0.293211 0.008967
   vertex -0.034608 0.291347 0.011226
  endloop
 endfacet
 facet normal -0.803858 -0.400541 -0.439749
  outer loop
   vertex -0.034301 0.293211 0.008967
   vertex -0.032872 0.2906 0.008733
   vertex -0.034608 0.291347 0.011226
  endloop
 endfacet
 facet normal -0.754436 -0.548107 -0.361117
  outer loop
   vertex -0.034608 0.291347 0.011226
   vertex -0.032872 0.2906 0.008733
   vertex -0.032698 0.288718 0.011226
  endloop
 endfacet
 facet normal -0.629279 -0.640767 -0.439803
  outer loop
   vertex -0.032872 0.2906 0.008733
   vertex -0.03083 0.288434 0.008967
   vertex -0.032698 0.288718 0.011226
  endloop
 endfacet
 facet normal -0.537986 -0.767602 -0.348366
  outer loop
   vertex -0.032698 0.288718 0.011226
   vertex -0.03083 0.288434 0.008967
   vertex -0.03035 0.286958 0.011478
  endloop
 endfacet
 facet normal -0.420269 -0.815078 -0.398776
  outer loop
   vertex -0.03083 0.288434 0.008967
   vertex -0.028754 0.287094 0.009518
   vertex -0.03035 0.286958 0.011478
  endloop
 endfacet
 facet normal 0.294416 -0.906493 0.302638
  outer loop
   vertex -0.024438 0.286046 0.016502
   vertex -0.02163 0.286958 0.016502
   vertex -0.023226 0.287094 0.018462
  endloop
 endfacet
 facet normal 0.155824 -0.984657 0.07855
  outer loop
   vertex -0.02599 0.2856 0.01399
   vertex -0.0229 0.286089 0.01399
   vertex -0.024438 0.286046 0.016502
  endloop
 endfacet
 facet normal -0.000555151 -0.98466 -0.174481
  outer loop
   vertex -0.027542 0.286046 0.011478
   vertex -0.024608 0.286089 0.011226
   vertex -0.02599 0.2856 0.01399
  endloop
 endfacet
 facet normal 0.304389 -0.937197 0.170322
  outer loop
   vertex -0.024438 0.286046 0.016502
   vertex -0.0229 0.286089 0.01399
   vertex -0.02163 0.286958 0.016502
  endloop
 endfacet
 facet normal 0.452705 -0.888208 0.0783901
  outer loop
   vertex -0.0229 0.286089 0.01399
   vertex -0.020112 0.28751 0.01399
   vertex -0.02163 0.286958 0.016502
  endloop
 endfacet
 facet normal 0.155583 -0.983133 -0.0961419
  outer loop
   vertex -0.02599 0.2856 0.01399
   vertex -0.024608 0.286089 0.011226
   vertex -0.0229 0.286089 0.01399
  endloop
 endfacet
 facet normal 0.303796 -0.934059 -0.187729
  outer loop
   vertex -0.024608 0.286089 0.011226
   vertex -0.021518 0.287094 0.011226
   vertex -0.0229 0.286089 0.01399
  endloop
 endfacet
 facet normal 0.451986 -0.886796 -0.0964489
  outer loop
   vertex -0.0229 0.286089 0.01399
   vertex -0.021518 0.287094 0.011226
   vertex -0.020112 0.28751 0.01399
  endloop
 endfacet
 facet normal 0.578874 -0.796508 -0.174584
  outer loop
   vertex -0.021518 0.287094 0.011226
   vertex -0.019118 0.288783 0.011478
   vertex -0.020112 0.28751 0.01399
  endloop
 endfacet
 facet normal -0.0161962 -0.937175 -0.348485
  outer loop
   vertex -0.027542 0.286046 0.011478
   vertex -0.026286 0.286958 0.008967
   vertex -0.024608 0.286089 0.011226
  endloop
 endfacet
 facet normal 0.132412 -0.888171 -0.440021
  outer loop
   vertex -0.026286 0.286958 0.008967
   vertex -0.023361 0.28751 0.008733
   vertex -0.024608 0.286089 0.011226
  endloop
 endfacet
 facet normal 0.288415 -0.886769 -0.361189
  outer loop
   vertex -0.024608 0.286089 0.011226
   vertex -0.023361 0.28751 0.008733
   vertex -0.021518 0.287094 0.011226
  endloop
 endfacet
 facet normal 0.415138 -0.796394 -0.439791
  outer loop
   vertex -0.023361 0.28751 0.008733
   vertex -0.020671 0.288783 0.008967
   vertex -0.021518 0.287094 0.011226
  endloop
 endfacet
 facet normal 0.563623 -0.748876 -0.348589
  outer loop
   vertex -0.021518 0.287094 0.011226
   vertex -0.020671 0.288783 0.008967
   vertex -0.019118 0.288783 0.011478
  endloop
 endfacet
 facet normal 0.645038 -0.651744 -0.398942
  outer loop
   vertex -0.020671 0.288783 0.008967
   vertex -0.018754 0.290343 0.009518
   vertex -0.019118 0.288783 0.011478
  endloop
 endfacet
 facet normal 0.9532 -0 0.302341
  outer loop
   vertex -0.016424 0.294124 0.016501
   vertex -0.016424 0.297076 0.016501
   vertex -0.017046 0.2956 0.018462
  endloop
 endfacet
 facet normal 0.984653 -0.155824 0.0785916
  outer loop
   vertex -0.016479 0.29251 0.01399
   vertex -0.01599 0.2956 0.01399
   vertex -0.016424 0.294124 0.016501
  endloop
 endfacet
 facet normal 0.936352 -0.304548 -0.174631
  outer loop
   vertex -0.017383 0.291171 0.011478
   vertex -0.016518 0.293975 0.011226
   vertex -0.016479 0.29251 0.01399
  endloop
 endfacet
 facet normal 0.98539 -0 0.170314
  outer loop
   vertex -0.016424 0.294124 0.016501
   vertex -0.01599 0.2956 0.01399
   vertex -0.016424 0.297076 0.016501
  endloop
 endfacet
 facet normal 0.984653 0.155824 0.0785916
  outer loop
   vertex -0.01599 0.2956 0.01399
   vertex -0.016479 0.29869 0.01399
   vertex -0.016424 0.297076 0.016501
  endloop
 endfacet
 facet normal 0.983115 -0.15558 -0.0963335
  outer loop
   vertex -0.016479 0.29251 0.01399
   vertex -0.016518 0.293975 0.011226
   vertex -0.01599 0.2956 0.01399
  endloop
 endfacet
 facet normal 0.982239 0 -0.187634
  outer loop
   vertex -0.016518 0.293975 0.011226
   vertex -0.016518 0.297225 0.011226
   vertex -0.01599 0.2956 0.01399
  endloop
 endfacet
 facet normal 0.983115 0.15558 -0.0963335
  outer loop
   vertex -0.01599 0.2956 0.01399
   vertex -0.016518 0.297225 0.011226
   vertex -0.016479 0.29869 0.01399
  endloop
 endfacet
 facet normal 0.936352 0.304548 -0.174631
  outer loop
   vertex -0.016518 0.297225 0.011226
   vertex -0.017383 0.300029 0.011478
   vertex -0.016479 0.29869 0.01399
  endloop
 endfacet
 facet normal 0.886309 -0.304753 -0.348685
  outer loop
   vertex -0.017383 0.291171 0.011478
   vertex -0.017863 0.292648 0.008967
   vertex -0.016518 0.293975 0.011226
  endloop
 endfacet
 facet normal 0.885615 -0.148581 -0.440011
  outer loop
   vertex -0.017863 0.292648 0.008967
   vertex -0.017484 0.2956 0.008733
   vertex -0.016518 0.293975 0.011226
  endloop
 endfacet
 facet normal 0.932446 0 -0.361309
  outer loop
   vertex -0.016518 0.293975 0.011226
   vertex -0.017484 0.2956 0.008733
   vertex -0.016518 0.297225 0.011226
  endloop
 endfacet
 facet normal 0.885615 0.148581 -0.440011
  outer loop
   vertex -0.017484 0.2956 0.008733
   vertex -0.017863 0.298552 0.008967
   vertex -0.016518 0.297225 0.011226
  endloop
 endfacet
 facet normal 0.886309 0.304753 -0.348685
  outer loop
   vertex -0.016518 0.297225 0.011226
   vertex -0.017863 0.298552 0.008967
   vertex -0.017383 0.300029 0.011478
  endloop
 endfacet
 facet normal 0.819189 0.412026 -0.398954
  outer loop
   vertex -0.017863 0.298552 0.008967
   vertex -0.018754 0.300857 0.009518
   vertex -0.017383 0.300029 0.011478
  endloop
 endfacet
 facet normal 0.61533 0.560308 -0.554459
  outer loop
   vertex -0.019895 0.300029 0.007415
   vertex -0.020671 0.302417 0.008967
   vertex -0.018754 0.300857 0.009518
  endloop
 endfacet
 facet normal 0.467426 0.452641 -0.759361
  outer loop
   vertex -0.021737 0.29869 0.005483
   vertex -0.022372 0.301478 0.006754
   vertex -0.019895 0.300029 0.007415
  endloop
 endfacet
 facet normal 0.262485 0.303841 -0.915851
  outer loop
   vertex -0.023958 0.297076 0.004311
   vertex -0.024608 0.299853 0.005046
   vertex -0.021737 0.29869 0.005483
  endloop
 endfacet
 facet normal 0.508799 0.579247 -0.636864
  outer loop
   vertex -0.019895 0.300029 0.007415
   vertex -0.022372 0.301478 0.006754
   vertex -0.020671 0.302417 0.008967
  endloop
 endfacet
 facet normal 0.38541 0.704977 -0.595371
  outer loop
   vertex -0.022372 0.301478 0.006754
   vertex -0.023361 0.30369 0.008733
   vertex -0.020671 0.302417 0.008967
  endloop
 endfacet
 facet normal 0.310374 0.451949 -0.836307
  outer loop
   vertex -0.021737 0.29869 0.005483
   vertex -0.024608 0.299853 0.005046
   vertex -0.022372 0.301478 0.006754
  endloop
 endfacet
 facet normal 0.187559 0.577248 -0.794737
  outer loop
   vertex -0.024608 0.299853 0.005046
   vertex -0.025462 0.302482 0.006754
   vertex -0.022372 0.301478 0.006754
  endloop
 endfacet
 facet normal 0.228709 0.703897 -0.672474
  outer loop
   vertex -0.022372 0.301478 0.006754
   vertex -0.025462 0.302482 0.006754
   vertex -0.023361 0.30369 0.008733
  endloop
 endfacet
 facet normal 0.102735 0.796801 -0.595444
  outer loop
   vertex -0.025462 0.302482 0.006754
   vertex -0.026286 0.304242 0.008967
   vertex -0.023361 0.30369 0.008733
  endloop
 endfacet
 facet normal 0.0891868 0.274301 -0.957499
  outer loop
   vertex -0.023958 0.297076 0.004311
   vertex -0.026766 0.297989 0.004311
   vertex -0.024608 0.299853 0.005046
  endloop
 endfacet
 facet normal -0.0336945 0.400135 -0.915836
  outer loop
   vertex -0.026766 0.297989 0.004311
   vertex -0.027615 0.3006 0.005483
   vertex -0.024608 0.299853 0.005046
  endloop
 endfacet
 facet normal 0.0146149 0.548074 -0.836302
  outer loop
   vertex -0.024608 0.299853 0.005046
   vertex -0.027615 0.3006 0.005483
   vertex -0.025462 0.302482 0.006754
  endloop
 endfacet
 facet normal -0.112009 0.640965 -0.759354
  outer loop
   vertex -0.027615 0.3006 0.005483
   vertex -0.028318 0.302766 0.007415
   vertex -0.025462 0.302482 0.006754
  endloop
 endfacet
 facet normal -0.0710868 0.767617 -0.636955
  outer loop
   vertex -0.025462 0.302482 0.006754
   vertex -0.028318 0.302766 0.007415
   vertex -0.026286 0.304242 0.008967
  endloop
 endfacet
 facet normal -0.168666 0.815046 -0.554303
  outer loop
   vertex -0.028318 0.302766 0.007415
   vertex -0.028754 0.304106 0.009518
   vertex -0.026286 0.304242 0.008967
  endloop
 endfacet
 facet normal -0.342493 0.758552 -0.554344
  outer loop
   vertex -0.028318 0.302766 0.007415
   vertex -0.03083 0.302766 0.008967
   vertex -0.028754 0.304106 0.009518
  endloop
 endfacet
 facet normal -0.286233 0.584386 -0.759318
  outer loop
   vertex -0.027615 0.3006 0.005483
   vertex -0.030462 0.300857 0.006754
   vertex -0.028318 0.302766 0.007415
  endloop
 endfacet
 facet normal -0.207851 0.343516 -0.915858
  outer loop
   vertex -0.026766 0.297989 0.004311
   vertex -0.029608 0.298229 0.005046
   vertex -0.027615 0.3006 0.005483
  endloop
 endfacet
 facet normal -0.393627 0.662685 -0.637108
  outer loop
   vertex -0.028318 0.302766 0.007415
   vertex -0.030462 0.300857 0.006754
   vertex -0.03083 0.302766 0.008967
  endloop
 endfacet
 facet normal -0.551379 0.584158 -0.595601
  outer loop
   vertex -0.030462 0.300857 0.006754
   vertex -0.032872 0.3006 0.008733
   vertex -0.03083 0.302766 0.008967
  endloop
 endfacet
 facet normal -0.334054 0.43492 -0.836213
  outer loop
   vertex -0.027615 0.3006 0.005483
   vertex -0.029608 0.298229 0.005046
   vertex -0.030462 0.300857 0.006754
  endloop
 endfacet
 facet normal -0.491058 0.356895 -0.794662
  outer loop
   vertex -0.029608 0.298229 0.005046
   vertex -0.032372 0.298229 0.006754
   vertex -0.030462 0.300857 0.006754
  endloop
 endfacet
 facet normal -0.598657 0.435097 -0.672533
  outer loop
   vertex -0.030462 0.300857 0.006754
   vertex -0.032372 0.298229 0.006754
   vertex -0.032872 0.3006 0.008733
  endloop
 endfacet
 facet normal -0.725985 0.343961 -0.595514
  outer loop
   vertex -0.032372 0.298229 0.006754
   vertex -0.034301 0.297989 0.008967
   vertex -0.032872 0.3006 0.008733
  endloop
 endfacet
 facet normal -0.233325 0.169451 -0.957521
  outer loop
   vertex -0.026766 0.297989 0.004311
   vertex -0.028501 0.2956 0.004311
   vertex -0.029608 0.298229 0.005046
  endloop
 endfacet
 facet normal -0.390899 0.0914587 -0.915878
  outer loop
   vertex -0.028501 0.2956 0.004311
   vertex -0.031247 0.2956 0.005483
   vertex -0.029608 0.298229 0.005046
  endloop
 endfacet
 facet normal -0.516783 0.183167 -0.836293
  outer loop
   vertex -0.029608 0.298229 0.005046
   vertex -0.031247 0.2956 0.005483
   vertex -0.032372 0.298229 0.006754
  endloop
 endfacet
 facet normal -0.644269 0.0913996 -0.759317
  outer loop
   vertex -0.031247 0.2956 0.005483
   vertex -0.033524 0.2956 0.007415
   vertex -0.032372 0.298229 0.006754
  endloop
 endfacet
 facet normal -0.751958 0.169318 -0.637095
  outer loop
   vertex -0.032372 0.298229 0.006754
   vertex -0.033524 0.2956 0.007415
   vertex -0.034301 0.297989 0.008967
  endloop
 endfacet
 facet normal -0.827124 0.091254 -0.554562
  outer loop
   vertex -0.033524 0.2956 0.007415
   vertex -0.034934 0.2956 0.009518
   vertex -0.034301 0.297989 0.008967
  endloop
 endfacet
 facet normal -0.827124 -0.091254 -0.554562
  outer loop
   vertex -0.033524 0.2956 0.007415
   vertex -0.034301 0.293211 0.008967
   vertex -0.034934 0.2956 0.009518
  endloop
 endfacet
 facet normal -0.644269 -0.0913996 -0.759317
  outer loop
   vertex -0.031247 0.2956 0.005483
   vertex -0.032372 0.292971 0.006754
   vertex -0.033524 0.2956 0.007415
  endloop
 endfacet
 facet normal -0.390899 -0.0914587 -0.915878
  outer loop
   vertex -0.028501 0.2956 0.004311
   vertex -0.029608 0.292971 0.005046
   vertex -0.031247 0.2956 0.005483
  endloop
 endfacet
 facet normal -0.751958 -0.169318 -0.637095
  outer loop
   vertex -0.033524 0.2956 0.007415
   vertex -0.032372 0.292971 0.006754
   vertex -0.034301 0.293211 0.008967
  endloop
 endfacet
 facet normal -0.725985 -0.343961 -0.595514
  outer loop
   vertex -0.032372 0.292971 0.006754
   vertex -0.032872 0.2906 0.008733
   vertex -0.034301 0.293211 0.008967
  endloop
 endfacet
 facet normal -0.516783 -0.183167 -0.836293
  outer loop
   vertex -0.031247 0.2956 0.005483
   vertex -0.029608 0.292971 0.005046
   vertex -0.032372 0.292971 0.006754
  endloop
 endfacet
 facet normal -0.491058 -0.356895 -0.794662
  outer loop
   vertex -0.029608 0.292971 0.005046
   vertex -0.030462 0.290343 0.006754
   vertex -0.032372 0.292971 0.006754
  endloop
 endfacet
 facet normal -0.598657 -0.435097 -0.672533
  outer loop
   vertex -0.032372 0.292971 0.006754
   vertex -0.030462 0.290343 0.006754
   vertex -0.032872 0.2906 0.008733
  endloop
 endfacet
 facet normal -0.551379 -0.584158 -0.595601
  outer loop
   vertex -0.030462 0.290343 0.006754
   vertex -0.03083 0.288434 0.008967
   vertex -0.032872 0.2906 0.008733
  endloop
 endfacet
 facet normal -0.233325 -0.169451 -0.957521
  outer loop
   vertex -0.028501 0.2956 0.004311
   vertex -0.026766 0.293211 0.004311
   vertex -0.029608 0.292971 0.005046
  endloop
 endfacet
 facet normal -0.207851 -0.343516 -0.915858
  outer loop
   vertex -0.026766 0.293211 0.004311
   vertex -0.027615 0.2906 0.005483
   vertex -0.029608 0.292971 0.005046
  endloop
 endfacet
 facet normal -0.334054 -0.43492 -0.836213
  outer loop
   vertex -0.029608 0.292971 0.005046
   vertex -0.027615 0.2906 0.005483
   vertex -0.030462 0.290343 0.006754
  endloop
 endfacet
 facet normal -0.286233 -0.584386 -0.759318
  outer loop
   vertex -0.027615 0.2906 0.005483
   vertex -0.028318 0.288434 0.007415
   vertex -0.030462 0.290343 0.006754
  endloop
 endfacet
 facet normal -0.393627 -0.662685 -0.637108
  outer loop
   vertex -0.030462 0.290343 0.006754
   vertex -0.028318 0.288434 0.007415
   vertex -0.03083 0.288434 0.008967
  endloop
 endfacet
 facet normal -0.342493 -0.758552 -0.554344
  outer loop
   vertex -0.028318 0.288434 0.007415
   vertex -0.028754 0.287094 0.009518
   vertex -0.03083 0.288434 0.008967
  endloop
 endfacet
 facet normal 0.723015 0.412034 -0.554506
  outer loop
   vertex -0.017863 0.298552 0.008967
   vertex -0.019895 0.300029 0.007415
   vertex -0.018754 0.300857 0.009518
  endloop
 endfacet
 facet normal 0.789589 0.148568 -0.59538
  outer loop
   vertex -0.017484 0.2956 0.008733
   vertex -0.019282 0.297225 0.006754
   vertex -0.017863 0.298552 0.008967
  endloop
 endfacet
 facet normal 0.789589 -0.148568 -0.59538
  outer loop
   vertex -0.017863 0.292648 0.008967
   vertex -0.019282 0.293975 0.006754
   vertex -0.017484 0.2956 0.008733
  endloop
 endfacet
 facet normal 0.708089 0.304936 -0.636886
  outer loop
   vertex -0.017863 0.298552 0.008967
   vertex -0.019282 0.297225 0.006754
   vertex -0.019895 0.300029 0.007415
  endloop
 endfacet
 facet normal 0.574948 0.304695 -0.759339
  outer loop
   vertex -0.019282 0.297225 0.006754
   vertex -0.021737 0.29869 0.005483
   vertex -0.019895 0.300029 0.007415
  endloop
 endfacet
 facet normal 0.740143 0 -0.672449
  outer loop
   vertex -0.017484 0.2956 0.008733
   vertex -0.019282 0.293975 0.006754
   vertex -0.019282 0.297225 0.006754
  endloop
 endfacet
 facet normal 0.607028 0 -0.794681
  outer loop
   vertex -0.019282 0.293975 0.006754
   vertex -0.021518 0.2956 0.005046
   vertex -0.019282 0.297225 0.006754
  endloop
 endfacet
 facet normal 0.525774 0.155534 -0.836284
  outer loop
   vertex -0.019282 0.297225 0.006754
   vertex -0.021518 0.2956 0.005046
   vertex -0.021737 0.29869 0.005483
  endloop
 endfacet
 facet normal 0.370096 0.155752 -0.915844
  outer loop
   vertex -0.021518 0.2956 0.005046
   vertex -0.023958 0.297076 0.004311
   vertex -0.021737 0.29869 0.005483
  endloop
 endfacet
 facet normal 0.708089 -0.304936 -0.636886
  outer loop
   vertex -0.017863 0.292648 0.008967
   vertex -0.019895 0.291171 0.007415
   vertex -0.019282 0.293975 0.006754
  endloop
 endfacet
 facet normal 0.574948 -0.304695 -0.759339
  outer loop
   vertex -0.019895 0.291171 0.007415
   vertex -0.021737 0.29251 0.005483
   vertex -0.019282 0.293975 0.006754
  endloop
 endfacet
 facet normal 0.525774 -0.155534 -0.836284
  outer loop
   vertex -0.019282 0.293975 0.006754
   vertex -0.021737 0.29251 0.005483
   vertex -0.021518 0.2956 0.005046
  endloop
 endfacet
 facet normal 0.370096 -0.155752 -0.915844
  outer loop
   vertex -0.021737 0.29251 0.005483
   vertex -0.023958 0.294124 0.004311
   vertex -0.021518 0.2956 0.005046
  endloop
 endfacet
 facet normal 0.288428 0 -0.957502
  outer loop
   vertex -0.021518 0.2956 0.005046
   vertex -0.023958 0.294124 0.004311
   vertex -0.023958 0.297076 0.004311
  endloop
 endfacet
 facet normal 0.156037 0 -0.987751
  outer loop
   vertex -0.023958 0.294124 0.004311
   vertex -0.02599 0.2956 0.00399
   vertex -0.023958 0.297076 0.004311
  endloop
 endfacet
 facet normal -0.168666 -0.815046 -0.554303
  outer loop
   vertex -0.028318 0.288434 0.007415
   vertex -0.026286 0.286958 0.008967
   vertex -0.028754 0.287094 0.009518
  endloop
 endfacet
 facet normal -0.112009 -0.640965 -0.759354
  outer loop
   vertex -0.027615 0.2906 0.005483
   vertex -0.025462 0.288718 0.006754
   vertex -0.028318 0.288434 0.007415
  endloop
 endfacet
 facet normal -0.0336945 -0.400135 -0.915836
  outer loop
   vertex -0.026766 0.293211 0.004311
   vertex -0.024608 0.291347 0.005046
   vertex -0.027615 0.2906 0.005483
  endloop
 endfacet
 facet normal -0.0710868 -0.767617 -0.636955
  outer loop
   vertex -0.028318 0.288434 0.007415
   vertex -0.025462 0.288718 0.006754
   vertex -0.026286 0.286958 0.008967
  endloop
 endfacet
 facet normal 0.102735 -0.796801 -0.595444
  outer loop
   vertex -0.025462 0.288718 0.006754
   vertex -0.023361 0.28751 0.008733
   vertex -0.026286 0.286958 0.008967
  endloop
 endfacet
 facet normal 0.0146149 -0.548074 -0.836302
  outer loop
   vertex -0.027615 0.2906 0.005483
   vertex -0.024608 0.291347 0.005046
   vertex -0.025462 0.288718 0.006754
  endloop
 endfacet
 facet normal 0.187559 -0.577248 -0.794737
  outer loop
   vertex -0.024608 0.291347 0.005046
   vertex -0.022372 0.289722 0.006754
   vertex -0.025462 0.288718 0.006754
  endloop
 endfacet
 facet normal 0.228709 -0.703897 -0.672474
  outer loop
   vertex -0.025462 0.288718 0.006754
   vertex -0.022372 0.289722 0.006754
   vertex -0.023361 0.28751 0.008733
  endloop
 endfacet
 facet normal 0.38541 -0.704977 -0.595371
  outer loop
   vertex -0.022372 0.289722 0.006754
   vertex -0.020671 0.288783 0.008967
   vertex -0.023361 0.28751 0.008733
  endloop
 endfacet
 facet normal 0.0891868 -0.274301 -0.957499
  outer loop
   vertex -0.026766 0.293211 0.004311
   vertex -0.023958 0.294124 0.004311
   vertex -0.024608 0.291347 0.005046
  endloop
 endfacet
 facet normal 0.262485 -0.303841 -0.915851
  outer loop
   vertex -0.023958 0.294124 0.004311
   vertex -0.021737 0.29251 0.005483
   vertex -0.024608 0.291347 0.005046
  endloop
 endfacet
 facet normal 0.310374 -0.451949 -0.836307
  outer loop
   vertex -0.024608 0.291347 0.005046
   vertex -0.021737 0.29251 0.005483
   vertex -0.022372 0.289722 0.006754
  endloop
 endfacet
 facet normal 0.467426 -0.452641 -0.759361
  outer loop
   vertex -0.021737 0.29251 0.005483
   vertex -0.019895 0.291171 0.007415
   vertex -0.022372 0.289722 0.006754
  endloop
 endfacet
 facet normal 0.508799 -0.579247 -0.636864
  outer loop
   vertex -0.022372 0.289722 0.006754
   vertex -0.019895 0.291171 0.007415
   vertex -0.020671 0.288783 0.008967
  endloop
 endfacet
 facet normal 0.61533 -0.560308 -0.554459
  outer loop
   vertex -0.019895 0.291171 0.007415
   vertex -0.018754 0.290343 0.009518
   vertex -0.020671 0.288783 0.008967
  endloop
 endfacet
endsolid ExportedfromBlender-3.5.1
