solid ExportedfromBlender-3.5.1
 facet normal 0.0482486 -0.148392 -0.987751
  outer loop
   vertex -0.01436 0.21057 -0.01303
   vertex -0.012328 0.209094 -0.012709
   vertex -0.015136 0.208181 -0.012709
  endloop
 endfacet
 facet normal 0.723015 -0.412034 -0.554506
  outer loop
   vertex -0.007124 0.205313 -0.007502
   vertex -0.008265 0.206141 -0.009605
   vertex -0.006233 0.207618 -0.008053
  endloop
 endfacet
 facet normal -0.126271 -0.0917039 -0.987748
  outer loop
   vertex -0.01436 0.21057 -0.01303
   vertex -0.015136 0.208181 -0.012709
   vertex -0.016871 0.21057 -0.012709
  endloop
 endfacet
 facet normal -0.126271 0.0917039 -0.987748
  outer loop
   vertex -0.01436 0.21057 -0.01303
   vertex -0.016871 0.21057 -0.012709
   vertex -0.015136 0.212959 -0.012709
  endloop
 endfacet
 facet normal 0.0482486 0.148392 -0.987751
  outer loop
   vertex -0.01436 0.21057 -0.01303
   vertex -0.015136 0.212959 -0.012709
   vertex -0.012328 0.212046 -0.012709
  endloop
 endfacet
 facet normal 0.819189 -0.412026 -0.398954
  outer loop
   vertex -0.007124 0.205313 -0.007502
   vertex -0.006233 0.207618 -0.008053
   vertex -0.005753 0.206141 -0.005542
  endloop
 endfacet
 facet normal -0.138975 -0.90647 -0.398746
  outer loop
   vertex -0.017124 0.202064 -0.007502
   vertex -0.014656 0.201928 -0.008053
   vertex -0.015912 0.201016 -0.005542
  endloop
 endfacet
 facet normal -0.905177 -0.147939 -0.398459
  outer loop
   vertex -0.023304 0.21057 -0.007502
   vertex -0.022671 0.208181 -0.008053
   vertex -0.023926 0.209094 -0.005541
  endloop
 endfacet
 facet normal -0.420269 0.815078 -0.398776
  outer loop
   vertex -0.017124 0.219076 -0.007502
   vertex -0.0192 0.217736 -0.008053
   vertex -0.01872 0.219212 -0.005542
  endloop
 endfacet
 facet normal 0.645038 0.651744 -0.398942
  outer loop
   vertex -0.007124 0.215827 -0.007502
   vertex -0.009041 0.217387 -0.008053
   vertex -0.007488 0.217387 -0.005542
  endloop
 endfacet
 facet normal 0.771063 -0.560215 -0.302688
  outer loop
   vertex -0.007124 0.205313 -0.007502
   vertex -0.005753 0.206141 -0.005542
   vertex -0.007488 0.203753 -0.005542
  endloop
 endfacet
 facet normal -0.294416 -0.906493 -0.302638
  outer loop
   vertex -0.017124 0.202064 -0.007502
   vertex -0.015912 0.201016 -0.005542
   vertex -0.01872 0.201928 -0.005542
  endloop
 endfacet
 facet normal -0.9532 0 -0.302341
  outer loop
   vertex -0.023304 0.21057 -0.007502
   vertex -0.023926 0.209094 -0.005541
   vertex -0.023926 0.212046 -0.005541
  endloop
 endfacet
 facet normal -0.294416 0.906493 -0.302638
  outer loop
   vertex -0.017124 0.219076 -0.007502
   vertex -0.01872 0.219212 -0.005542
   vertex -0.015912 0.220124 -0.005542
  endloop
 endfacet
 facet normal 0.771063 0.560215 -0.302688
  outer loop
   vertex -0.007124 0.215827 -0.007502
   vertex -0.007488 0.217387 -0.005542
   vertex -0.005753 0.214999 -0.005542
  endloop
 endfacet
 facet normal 0.342493 -0.758552 0.554344
  outer loop
   vertex -0.011596 0.202064 0.001442
   vertex -0.00952 0.203404 0.001993
   vertex -0.012032 0.203404 0.003545
  endloop
 endfacet
 facet normal -0.61533 -0.560308 0.554459
  outer loop
   vertex -0.021596 0.205313 0.001442
   vertex -0.019679 0.203753 0.001993
   vertex -0.020455 0.206141 0.003545
  endloop
 endfacet
 facet normal -0.723015 0.412034 0.554506
  outer loop
   vertex -0.021596 0.215827 0.001442
   vertex -0.022487 0.213522 0.001993
   vertex -0.020455 0.214999 0.003545
  endloop
 endfacet
 facet normal 0.168666 0.815046 0.554303
  outer loop
   vertex -0.011596 0.219076 0.001442
   vertex -0.014064 0.219212 0.001993
   vertex -0.012032 0.217736 0.003545
  endloop
 endfacet
 facet normal 0.827124 0.091254 0.554562
  outer loop
   vertex -0.005416 0.21057 0.001442
   vertex -0.006049 0.212959 0.001993
   vertex -0.006826 0.21057 0.003545
  endloop
 endfacet
 facet normal 0.126271 0.0917039 0.987748
  outer loop
   vertex -0.011849 0.21057 0.006649
   vertex -0.013584 0.212959 0.006649
   vertex -0.01436 0.21057 0.00697
  endloop
 endfacet
 facet normal 0.390899 0.0914587 0.915878
  outer loop
   vertex -0.009103 0.21057 0.005477
   vertex -0.010742 0.213199 0.005914
   vertex -0.011849 0.21057 0.006649
  endloop
 endfacet
 facet normal 0.644269 0.0913996 0.759317
  outer loop
   vertex -0.006826 0.21057 0.003545
   vertex -0.007978 0.213199 0.004206
   vertex -0.009103 0.21057 0.005477
  endloop
 endfacet
 facet normal 0.233325 0.169451 0.957521
  outer loop
   vertex -0.011849 0.21057 0.006649
   vertex -0.010742 0.213199 0.005914
   vertex -0.013584 0.212959 0.006649
  endloop
 endfacet
 facet normal 0.207851 0.343516 0.915858
  outer loop
   vertex -0.010742 0.213199 0.005914
   vertex -0.012735 0.21557 0.005477
   vertex -0.013584 0.212959 0.006649
  endloop
 endfacet
 facet normal 0.516783 0.183167 0.836293
  outer loop
   vertex -0.009103 0.21057 0.005477
   vertex -0.007978 0.213199 0.004206
   vertex -0.010742 0.213199 0.005914
  endloop
 endfacet
 facet normal 0.491058 0.356895 0.794662
  outer loop
   vertex -0.007978 0.213199 0.004206
   vertex -0.009888 0.215827 0.004206
   vertex -0.010742 0.213199 0.005914
  endloop
 endfacet
 facet normal 0.334054 0.43492 0.836213
  outer loop
   vertex -0.010742 0.213199 0.005914
   vertex -0.009888 0.215827 0.004206
   vertex -0.012735 0.21557 0.005477
  endloop
 endfacet
 facet normal 0.286233 0.584386 0.759318
  outer loop
   vertex -0.009888 0.215827 0.004206
   vertex -0.012032 0.217736 0.003545
   vertex -0.012735 0.21557 0.005477
  endloop
 endfacet
 facet normal 0.751958 0.169318 0.637095
  outer loop
   vertex -0.006826 0.21057 0.003545
   vertex -0.006049 0.212959 0.001993
   vertex -0.007978 0.213199 0.004206
  endloop
 endfacet
 facet normal 0.725985 0.343961 0.595514
  outer loop
   vertex -0.006049 0.212959 0.001993
   vertex -0.007478 0.21557 0.002227
   vertex -0.007978 0.213199 0.004206
  endloop
 endfacet
 facet normal 0.598657 0.435097 0.672533
  outer loop
   vertex -0.007978 0.213199 0.004206
   vertex -0.007478 0.21557 0.002227
   vertex -0.009888 0.215827 0.004206
  endloop
 endfacet
 facet normal 0.551379 0.584158 0.595601
  outer loop
   vertex -0.007478 0.21557 0.002227
   vertex -0.00952 0.217736 0.001993
   vertex -0.009888 0.215827 0.004206
  endloop
 endfacet
 facet normal 0.393627 0.662685 0.637108
  outer loop
   vertex -0.009888 0.215827 0.004206
   vertex -0.00952 0.217736 0.001993
   vertex -0.012032 0.217736 0.003545
  endloop
 endfacet
 facet normal 0.342493 0.758552 0.554344
  outer loop
   vertex -0.00952 0.217736 0.001993
   vertex -0.011596 0.219076 0.001442
   vertex -0.012032 0.217736 0.003545
  endloop
 endfacet
 facet normal -0.0482486 0.148392 0.987751
  outer loop
   vertex -0.013584 0.212959 0.006649
   vertex -0.016392 0.212046 0.006649
   vertex -0.01436 0.21057 0.00697
  endloop
 endfacet
 facet normal 0.0336945 0.400135 0.915836
  outer loop
   vertex -0.012735 0.21557 0.005477
   vertex -0.015742 0.214823 0.005914
   vertex -0.013584 0.212959 0.006649
  endloop
 endfacet
 facet normal 0.112009 0.640965 0.759354
  outer loop
   vertex -0.012032 0.217736 0.003545
   vertex -0.014888 0.217452 0.004206
   vertex -0.012735 0.21557 0.005477
  endloop
 endfacet
 facet normal -0.0891868 0.274301 0.957499
  outer loop
   vertex -0.013584 0.212959 0.006649
   vertex -0.015742 0.214823 0.005914
   vertex -0.016392 0.212046 0.006649
  endloop
 endfacet
 facet normal -0.262485 0.303841 0.915851
  outer loop
   vertex -0.015742 0.214823 0.005914
   vertex -0.018613 0.21366 0.005477
   vertex -0.016392 0.212046 0.006649
  endloop
 endfacet
 facet normal -0.0146149 0.548074 0.836302
  outer loop
   vertex -0.012735 0.21557 0.005477
   vertex -0.014888 0.217452 0.004206
   vertex -0.015742 0.214823 0.005914
  endloop
 endfacet
 facet normal -0.187559 0.577248 0.794737
  outer loop
   vertex -0.014888 0.217452 0.004206
   vertex -0.017978 0.216448 0.004206
   vertex -0.015742 0.214823 0.005914
  endloop
 endfacet
 facet normal -0.310374 0.451949 0.836307
  outer loop
   vertex -0.015742 0.214823 0.005914
   vertex -0.017978 0.216448 0.004206
   vertex -0.018613 0.21366 0.005477
  endloop
 endfacet
 facet normal -0.467426 0.452641 0.759361
  outer loop
   vertex -0.017978 0.216448 0.004206
   vertex -0.020455 0.214999 0.003545
   vertex -0.018613 0.21366 0.005477
  endloop
 endfacet
 facet normal 0.0710868 0.767617 0.636955
  outer loop
   vertex -0.012032 0.217736 0.003545
   vertex -0.014064 0.219212 0.001993
   vertex -0.014888 0.217452 0.004206
  endloop
 endfacet
 facet normal -0.102735 0.796801 0.595444
  outer loop
   vertex -0.014064 0.219212 0.001993
   vertex -0.016989 0.21866 0.002227
   vertex -0.014888 0.217452 0.004206
  endloop
 endfacet
 facet normal -0.228709 0.703897 0.672474
  outer loop
   vertex -0.014888 0.217452 0.004206
   vertex -0.016989 0.21866 0.002227
   vertex -0.017978 0.216448 0.004206
  endloop
 endfacet
 facet normal -0.38541 0.704977 0.595371
  outer loop
   vertex -0.016989 0.21866 0.002227
   vertex -0.019679 0.217387 0.001993
   vertex -0.017978 0.216448 0.004206
  endloop
 endfacet
 facet normal -0.508799 0.579247 0.636864
  outer loop
   vertex -0.017978 0.216448 0.004206
   vertex -0.019679 0.217387 0.001993
   vertex -0.020455 0.214999 0.003545
  endloop
 endfacet
 facet normal -0.61533 0.560308 0.554459
  outer loop
   vertex -0.019679 0.217387 0.001993
   vertex -0.021596 0.215827 0.001442
   vertex -0.020455 0.214999 0.003545
  endloop
 endfacet
 facet normal -0.156037 0 0.987751
  outer loop
   vertex -0.016392 0.212046 0.006649
   vertex -0.016392 0.209094 0.006649
   vertex -0.01436 0.21057 0.00697
  endloop
 endfacet
 facet normal -0.370096 0.155752 0.915844
  outer loop
   vertex -0.018613 0.21366 0.005477
   vertex -0.018832 0.21057 0.005914
   vertex -0.016392 0.212046 0.006649
  endloop
 endfacet
 facet normal -0.574948 0.304695 0.759339
  outer loop
   vertex -0.020455 0.214999 0.003545
   vertex -0.021068 0.212195 0.004206
   vertex -0.018613 0.21366 0.005477
  endloop
 endfacet
 facet normal -0.288428 0 0.957502
  outer loop
   vertex -0.016392 0.212046 0.006649
   vertex -0.018832 0.21057 0.005914
   vertex -0.016392 0.209094 0.006649
  endloop
 endfacet
 facet normal -0.370096 -0.155752 0.915844
  outer loop
   vertex -0.018832 0.21057 0.005914
   vertex -0.018613 0.20748 0.005477
   vertex -0.016392 0.209094 0.006649
  endloop
 endfacet
 facet normal -0.525774 0.155534 0.836284
  outer loop
   vertex -0.018613 0.21366 0.005477
   vertex -0.021068 0.212195 0.004206
   vertex -0.018832 0.21057 0.005914
  endloop
 endfacet
 facet normal -0.607028 0 0.794681
  outer loop
   vertex -0.021068 0.212195 0.004206
   vertex -0.021068 0.208945 0.004206
   vertex -0.018832 0.21057 0.005914
  endloop
 endfacet
 facet normal -0.525774 -0.155534 0.836284
  outer loop
   vertex -0.018832 0.21057 0.005914
   vertex -0.021068 0.208945 0.004206
   vertex -0.018613 0.20748 0.005477
  endloop
 endfacet
 facet normal -0.574948 -0.304695 0.759339
  outer loop
   vertex -0.021068 0.208945 0.004206
   vertex -0.020455 0.206141 0.003545
   vertex -0.018613 0.20748 0.005477
  endloop
 endfacet
 facet normal -0.708089 0.304936 0.636886
  outer loop
   vertex -0.020455 0.214999 0.003545
   vertex -0.022487 0.213522 0.001993
   vertex -0.021068 0.212195 0.004206
  endloop
 endfacet
 facet normal -0.789589 0.148568 0.59538
  outer loop
   vertex -0.022487 0.213522 0.001993
   vertex -0.022866 0.21057 0.002227
   vertex -0.021068 0.212195 0.004206
  endloop
 endfacet
 facet normal -0.740143 0 0.672449
  outer loop
   vertex -0.021068 0.212195 0.004206
   vertex -0.022866 0.21057 0.002227
   vertex -0.021068 0.208945 0.004206
  endloop
 endfacet
 facet normal -0.789589 -0.148568 0.59538
  outer loop
   vertex -0.022866 0.21057 0.002227
   vertex -0.022487 0.207618 0.001993
   vertex -0.021068 0.208945 0.004206
  endloop
 endfacet
 facet normal -0.708089 -0.304936 0.636886
  outer loop
   vertex -0.021068 0.208945 0.004206
   vertex -0.022487 0.207618 0.001993
   vertex -0.020455 0.206141 0.003545
  endloop
 endfacet
 facet normal -0.723015 -0.412034 0.554506
  outer loop
   vertex -0.022487 0.207618 0.001993
   vertex -0.021596 0.205313 0.001442
   vertex -0.020455 0.206141 0.003545
  endloop
 endfacet
 facet normal -0.0482486 -0.148392 0.987751
  outer loop
   vertex -0.016392 0.209094 0.006649
   vertex -0.013584 0.208181 0.006649
   vertex -0.01436 0.21057 0.00697
  endloop
 endfacet
 facet normal -0.262485 -0.303841 0.915851
  outer loop
   vertex -0.018613 0.20748 0.005477
   vertex -0.015742 0.206317 0.005914
   vertex -0.016392 0.209094 0.006649
  endloop
 endfacet
 facet normal -0.467426 -0.452641 0.759361
  outer loop
   vertex -0.020455 0.206141 0.003545
   vertex -0.017978 0.204692 0.004206
   vertex -0.018613 0.20748 0.005477
  endloop
 endfacet
 facet normal -0.0891868 -0.274301 0.957499
  outer loop
   vertex -0.016392 0.209094 0.006649
   vertex -0.015742 0.206317 0.005914
   vertex -0.013584 0.208181 0.006649
  endloop
 endfacet
 facet normal 0.0336945 -0.400135 0.915836
  outer loop
   vertex -0.015742 0.206317 0.005914
   vertex -0.012735 0.20557 0.005477
   vertex -0.013584 0.208181 0.006649
  endloop
 endfacet
 facet normal -0.310374 -0.451949 0.836307
  outer loop
   vertex -0.018613 0.20748 0.005477
   vertex -0.017978 0.204692 0.004206
   vertex -0.015742 0.206317 0.005914
  endloop
 endfacet
 facet normal -0.187559 -0.577248 0.794737
  outer loop
   vertex -0.017978 0.204692 0.004206
   vertex -0.014888 0.203688 0.004206
   vertex -0.015742 0.206317 0.005914
  endloop
 endfacet
 facet normal -0.0146149 -0.548074 0.836302
  outer loop
   vertex -0.015742 0.206317 0.005914
   vertex -0.014888 0.203688 0.004206
   vertex -0.012735 0.20557 0.005477
  endloop
 endfacet
 facet normal 0.112009 -0.640965 0.759354
  outer loop
   vertex -0.014888 0.203688 0.004206
   vertex -0.012032 0.203404 0.003545
   vertex -0.012735 0.20557 0.005477
  endloop
 endfacet
 facet normal -0.508799 -0.579247 0.636864
  outer loop
   vertex -0.020455 0.206141 0.003545
   vertex -0.019679 0.203753 0.001993
   vertex -0.017978 0.204692 0.004206
  endloop
 endfacet
 facet normal -0.38541 -0.704977 0.595371
  outer loop
   vertex -0.019679 0.203753 0.001993
   vertex -0.016989 0.20248 0.002227
   vertex -0.017978 0.204692 0.004206
  endloop
 endfacet
 facet normal -0.228709 -0.703897 0.672474
  outer loop
   vertex -0.017978 0.204692 0.004206
   vertex -0.016989 0.20248 0.002227
   vertex -0.014888 0.203688 0.004206
  endloop
 endfacet
 facet normal -0.102735 -0.796801 0.595444
  outer loop
   vertex -0.016989 0.20248 0.002227
   vertex -0.014064 0.201928 0.001993
   vertex -0.014888 0.203688 0.004206
  endloop
 endfacet
 facet normal 0.0710868 -0.767617 0.636955
  outer loop
   vertex -0.014888 0.203688 0.004206
   vertex -0.014064 0.201928 0.001993
   vertex -0.012032 0.203404 0.003545
  endloop
 endfacet
 facet normal 0.168666 -0.815046 0.554303
  outer loop
   vertex -0.014064 0.201928 0.001993
   vertex -0.011596 0.202064 0.001442
   vertex -0.012032 0.203404 0.003545
  endloop
 endfacet
 facet normal 0.126271 -0.0917039 0.987748
  outer loop
   vertex -0.013584 0.208181 0.006649
   vertex -0.011849 0.21057 0.006649
   vertex -0.01436 0.21057 0.00697
  endloop
 endfacet
 facet normal 0.207851 -0.343516 0.915858
  outer loop
   vertex -0.012735 0.20557 0.005477
   vertex -0.010742 0.207941 0.005914
   vertex -0.013584 0.208181 0.006649
  endloop
 endfacet
 facet normal 0.286233 -0.584386 0.759318
  outer loop
   vertex -0.012032 0.203404 0.003545
   vertex -0.009888 0.205313 0.004206
   vertex -0.012735 0.20557 0.005477
  endloop
 endfacet
 facet normal 0.233325 -0.169451 0.957521
  outer loop
   vertex -0.013584 0.208181 0.006649
   vertex -0.010742 0.207941 0.005914
   vertex -0.011849 0.21057 0.006649
  endloop
 endfacet
 facet normal 0.390899 -0.0914587 0.915878
  outer loop
   vertex -0.010742 0.207941 0.005914
   vertex -0.009103 0.21057 0.005477
   vertex -0.011849 0.21057 0.006649
  endloop
 endfacet
 facet normal 0.334054 -0.43492 0.836213
  outer loop
   vertex -0.012735 0.20557 0.005477
   vertex -0.009888 0.205313 0.004206
   vertex -0.010742 0.207941 0.005914
  endloop
 endfacet
 facet normal 0.491058 -0.356895 0.794662
  outer loop
   vertex -0.009888 0.205313 0.004206
   vertex -0.007978 0.207941 0.004206
   vertex -0.010742 0.207941 0.005914
  endloop
 endfacet
 facet normal 0.516783 -0.183167 0.836293
  outer loop
   vertex -0.010742 0.207941 0.005914
   vertex -0.007978 0.207941 0.004206
   vertex -0.009103 0.21057 0.005477
  endloop
 endfacet
 facet normal 0.644269 -0.0913996 0.759317
  outer loop
   vertex -0.007978 0.207941 0.004206
   vertex -0.006826 0.21057 0.003545
   vertex -0.009103 0.21057 0.005477
  endloop
 endfacet
 facet normal 0.393627 -0.662685 0.637108
  outer loop
   vertex -0.012032 0.203404 0.003545
   vertex -0.00952 0.203404 0.001993
   vertex -0.009888 0.205313 0.004206
  endloop
 endfacet
 facet normal 0.551379 -0.584158 0.595601
  outer loop
   vertex -0.00952 0.203404 0.001993
   vertex -0.007478 0.20557 0.002227
   vertex -0.009888 0.205313 0.004206
  endloop
 endfacet
 facet normal 0.598657 -0.435097 0.672533
  outer loop
   vertex -0.009888 0.205313 0.004206
   vertex -0.007478 0.20557 0.002227
   vertex -0.007978 0.207941 0.004206
  endloop
 endfacet
 facet normal 0.725985 -0.343961 0.595514
  outer loop
   vertex -0.007478 0.20557 0.002227
   vertex -0.006049 0.208181 0.001993
   vertex -0.007978 0.207941 0.004206
  endloop
 endfacet
 facet normal 0.751958 -0.169318 0.637095
  outer loop
   vertex -0.007978 0.207941 0.004206
   vertex -0.006049 0.208181 0.001993
   vertex -0.006826 0.21057 0.003545
  endloop
 endfacet
 facet normal 0.827124 -0.091254 0.554562
  outer loop
   vertex -0.006049 0.208181 0.001993
   vertex -0.005416 0.21057 0.001442
   vertex -0.006826 0.21057 0.003545
  endloop
 endfacet
 facet normal 0.905177 0.147939 0.398459
  outer loop
   vertex -0.004794 0.212046 -0.000519
   vertex -0.006049 0.212959 0.001993
   vertex -0.005416 0.21057 0.001442
  endloop
 endfacet
 facet normal 0.93657 0.303801 0.17476
  outer loop
   vertex -0.004849 0.21366 -0.00303
   vertex -0.005742 0.214823 -0.000266
   vertex -0.004794 0.212046 -0.000519
  endloop
 endfacet
 facet normal 0.888212 0.452708 -0.078331
  outer loop
   vertex -0.005753 0.214999 -0.005542
   vertex -0.00627 0.216448 -0.00303
   vertex -0.004849 0.21366 -0.00303
  endloop
 endfacet
 facet normal 0.89641 0.274294 0.348155
  outer loop
   vertex -0.004794 0.212046 -0.000519
   vertex -0.005742 0.214823 -0.000266
   vertex -0.006049 0.212959 0.001993
  endloop
 endfacet
 facet normal 0.803858 0.400541 0.439749
  outer loop
   vertex -0.005742 0.214823 -0.000266
   vertex -0.007478 0.21557 0.002227
   vertex -0.006049 0.212959 0.001993
  endloop
 endfacet
 facet normal 0.886806 0.451991 0.0963284
  outer loop
   vertex -0.004849 0.21366 -0.00303
   vertex -0.00627 0.216448 -0.00303
   vertex -0.005742 0.214823 -0.000266
  endloop
 endfacet
 facet normal 0.794662 0.577331 0.18762
  outer loop
   vertex -0.00627 0.216448 -0.00303
   vertex -0.007652 0.217452 -0.000266
   vertex -0.005742 0.214823 -0.000266
  endloop
 endfacet
 facet normal 0.754436 0.548107 0.361117
  outer loop
   vertex -0.005742 0.214823 -0.000266
   vertex -0.007652 0.217452 -0.000266
   vertex -0.007478 0.21557 0.002227
  endloop
 endfacet
 facet normal 0.629279 0.640767 0.439803
  outer loop
   vertex -0.007652 0.217452 -0.000266
   vertex -0.00952 0.217736 0.001993
   vertex -0.007478 0.21557 0.002227
  endloop
 endfacet
 facet normal 0.797233 0.579229 -0.170037
  outer loop
   vertex -0.005753 0.214999 -0.005542
   vertex -0.007488 0.217387 -0.005542
   vertex -0.00627 0.216448 -0.00303
  endloop
 endfacet
 facet normal 0.704936 0.704936 -0.0782949
  outer loop
   vertex -0.007488 0.217387 -0.005542
   vertex -0.008482 0.21866 -0.00303
   vertex -0.00627 0.216448 -0.00303
  endloop
 endfacet
 facet normal 0.703824 0.703824 0.0962537
  outer loop
   vertex -0.00627 0.216448 -0.00303
   vertex -0.008482 0.21866 -0.00303
   vertex -0.007652 0.217452 -0.000266
  endloop
 endfacet
 facet normal 0.578519 0.796783 0.174509
  outer loop
   vertex -0.008482 0.21866 -0.00303
   vertex -0.01 0.219212 -0.000518
   vertex -0.007652 0.217452 -0.000266
  endloop
 endfacet
 facet normal 0.537986 0.767602 0.348366
  outer loop
   vertex -0.007652 0.217452 -0.000266
   vertex -0.01 0.219212 -0.000518
   vertex -0.00952 0.217736 0.001993
  endloop
 endfacet
 facet normal 0.420269 0.815078 0.398776
  outer loop
   vertex -0.01 0.219212 -0.000518
   vertex -0.011596 0.219076 0.001442
   vertex -0.00952 0.217736 0.001993
  endloop
 endfacet
 facet normal 0.138975 0.90647 0.398746
  outer loop
   vertex -0.012808 0.220124 -0.000518
   vertex -0.014064 0.219212 0.001993
   vertex -0.011596 0.219076 0.001442
  endloop
 endfacet
 facet normal 0.000555151 0.98466 0.174481
  outer loop
   vertex -0.01436 0.22057 -0.00303
   vertex -0.015742 0.220081 -0.000266
   vertex -0.012808 0.220124 -0.000518
  endloop
 endfacet
 facet normal -0.155824 0.984657 -0.07855
  outer loop
   vertex -0.015912 0.220124 -0.005542
   vertex -0.01745 0.220081 -0.00303
   vertex -0.01436 0.22057 -0.00303
  endloop
 endfacet
 facet normal 0.0161962 0.937175 0.348485
  outer loop
   vertex -0.012808 0.220124 -0.000518
   vertex -0.015742 0.220081 -0.000266
   vertex -0.014064 0.219212 0.001993
  endloop
 endfacet
 facet normal -0.132412 0.888171 0.440021
  outer loop
   vertex -0.015742 0.220081 -0.000266
   vertex -0.016989 0.21866 0.002227
   vertex -0.014064 0.219212 0.001993
  endloop
 endfacet
 facet normal -0.155583 0.983133 0.0961419
  outer loop
   vertex -0.01436 0.22057 -0.00303
   vertex -0.01745 0.220081 -0.00303
   vertex -0.015742 0.220081 -0.000266
  endloop
 endfacet
 facet normal -0.303796 0.934059 0.187729
  outer loop
   vertex -0.01745 0.220081 -0.00303
   vertex -0.018832 0.219076 -0.000266
   vertex -0.015742 0.220081 -0.000266
  endloop
 endfacet
 facet normal -0.288415 0.886769 0.361189
  outer loop
   vertex -0.015742 0.220081 -0.000266
   vertex -0.018832 0.219076 -0.000266
   vertex -0.016989 0.21866 0.002227
  endloop
 endfacet
 facet normal -0.415138 0.796394 0.439791
  outer loop
   vertex -0.018832 0.219076 -0.000266
   vertex -0.019679 0.217387 0.001993
   vertex -0.016989 0.21866 0.002227
  endloop
 endfacet
 facet normal -0.304389 0.937197 -0.170322
  outer loop
   vertex -0.015912 0.220124 -0.005542
   vertex -0.01872 0.219212 -0.005542
   vertex -0.01745 0.220081 -0.00303
  endloop
 endfacet
 facet normal -0.452705 0.888208 -0.0783901
  outer loop
   vertex -0.01872 0.219212 -0.005542
   vertex -0.020238 0.21866 -0.00303
   vertex -0.01745 0.220081 -0.00303
  endloop
 endfacet
 facet normal -0.451986 0.886796 0.0964489
  outer loop
   vertex -0.01745 0.220081 -0.00303
   vertex -0.020238 0.21866 -0.00303
   vertex -0.018832 0.219076 -0.000266
  endloop
 endfacet
 facet normal -0.578874 0.796508 0.174584
  outer loop
   vertex -0.020238 0.21866 -0.00303
   vertex -0.021232 0.217387 -0.000518
   vertex -0.018832 0.219076 -0.000266
  endloop
 endfacet
 facet normal -0.563623 0.748876 0.348589
  outer loop
   vertex -0.018832 0.219076 -0.000266
   vertex -0.021232 0.217387 -0.000518
   vertex -0.019679 0.217387 0.001993
  endloop
 endfacet
 facet normal -0.645038 0.651744 0.398942
  outer loop
   vertex -0.021232 0.217387 -0.000518
   vertex -0.021596 0.215827 0.001442
   vertex -0.019679 0.217387 0.001993
  endloop
 endfacet
 facet normal -0.819189 0.412026 0.398954
  outer loop
   vertex -0.022967 0.214999 -0.000518
   vertex -0.022487 0.213522 0.001993
   vertex -0.021596 0.215827 0.001442
  endloop
 endfacet
 facet normal -0.936352 0.304548 0.174631
  outer loop
   vertex -0.023871 0.21366 -0.00303
   vertex -0.023832 0.212195 -0.000266
   vertex -0.022967 0.214999 -0.000518
  endloop
 endfacet
 facet normal -0.984653 0.155824 -0.0785916
  outer loop
   vertex -0.023926 0.212046 -0.005541
   vertex -0.02436 0.21057 -0.00303
   vertex -0.023871 0.21366 -0.00303
  endloop
 endfacet
 facet normal -0.886309 0.304753 0.348685
  outer loop
   vertex -0.022967 0.214999 -0.000518
   vertex -0.023832 0.212195 -0.000266
   vertex -0.022487 0.213522 0.001993
  endloop
 endfacet
 facet normal -0.885615 0.148581 0.440011
  outer loop
   vertex -0.023832 0.212195 -0.000266
   vertex -0.022866 0.21057 0.002227
   vertex -0.022487 0.213522 0.001993
  endloop
 endfacet
 facet normal -0.983115 0.15558 0.0963335
  outer loop
   vertex -0.023871 0.21366 -0.00303
   vertex -0.02436 0.21057 -0.00303
   vertex -0.023832 0.212195 -0.000266
  endloop
 endfacet
 facet normal -0.982239 0 0.187634
  outer loop
   vertex -0.02436 0.21057 -0.00303
   vertex -0.023832 0.208945 -0.000266
   vertex -0.023832 0.212195 -0.000266
  endloop
 endfacet
 facet normal -0.932446 0 0.361309
  outer loop
   vertex -0.023832 0.212195 -0.000266
   vertex -0.023832 0.208945 -0.000266
   vertex -0.022866 0.21057 0.002227
  endloop
 endfacet
 facet normal -0.885615 -0.148581 0.440011
  outer loop
   vertex -0.023832 0.208945 -0.000266
   vertex -0.022487 0.207618 0.001993
   vertex -0.022866 0.21057 0.002227
  endloop
 endfacet
 facet normal -0.98539 -0 -0.170314
  outer loop
   vertex -0.023926 0.212046 -0.005541
   vertex -0.023926 0.209094 -0.005541
   vertex -0.02436 0.21057 -0.00303
  endloop
 endfacet
 facet normal -0.984653 -0.155824 -0.0785916
  outer loop
   vertex -0.023926 0.209094 -0.005541
   vertex -0.023871 0.20748 -0.00303
   vertex -0.02436 0.21057 -0.00303
  endloop
 endfacet
 facet normal -0.983115 -0.15558 0.0963335
  outer loop
   vertex -0.02436 0.21057 -0.00303
   vertex -0.023871 0.20748 -0.00303
   vertex -0.023832 0.208945 -0.000266
  endloop
 endfacet
 facet normal -0.936352 -0.304548 0.174631
  outer loop
   vertex -0.023871 0.20748 -0.00303
   vertex -0.022967 0.206141 -0.000518
   vertex -0.023832 0.208945 -0.000266
  endloop
 endfacet
 facet normal -0.886309 -0.304753 0.348685
  outer loop
   vertex -0.023832 0.208945 -0.000266
   vertex -0.022967 0.206141 -0.000518
   vertex -0.022487 0.207618 0.001993
  endloop
 endfacet
 facet normal -0.819189 -0.412026 0.398954
  outer loop
   vertex -0.022967 0.206141 -0.000518
   vertex -0.021596 0.205313 0.001442
   vertex -0.022487 0.207618 0.001993
  endloop
 endfacet
 facet normal -0.645038 -0.651744 0.398942
  outer loop
   vertex -0.021232 0.203753 -0.000518
   vertex -0.019679 0.203753 0.001993
   vertex -0.021596 0.205313 0.001442
  endloop
 endfacet
 facet normal -0.578874 -0.796508 0.174584
  outer loop
   vertex -0.020238 0.20248 -0.00303
   vertex -0.018832 0.202064 -0.000266
   vertex -0.021232 0.203753 -0.000518
  endloop
 endfacet
 facet normal -0.452705 -0.888208 -0.0783901
  outer loop
   vertex -0.01872 0.201928 -0.005542
   vertex -0.01745 0.201059 -0.00303
   vertex -0.020238 0.20248 -0.00303
  endloop
 endfacet
 facet normal -0.563623 -0.748876 0.348589
  outer loop
   vertex -0.021232 0.203753 -0.000518
   vertex -0.018832 0.202064 -0.000266
   vertex -0.019679 0.203753 0.001993
  endloop
 endfacet
 facet normal -0.415138 -0.796394 0.439791
  outer loop
   vertex -0.018832 0.202064 -0.000266
   vertex -0.016989 0.20248 0.002227
   vertex -0.019679 0.203753 0.001993
  endloop
 endfacet
 facet normal -0.451986 -0.886796 0.0964489
  outer loop
   vertex -0.020238 0.20248 -0.00303
   vertex -0.01745 0.201059 -0.00303
   vertex -0.018832 0.202064 -0.000266
  endloop
 endfacet
 facet normal -0.303796 -0.934059 0.187729
  outer loop
   vertex -0.01745 0.201059 -0.00303
   vertex -0.015742 0.201059 -0.000266
   vertex -0.018832 0.202064 -0.000266
  endloop
 endfacet
 facet normal -0.288415 -0.886769 0.361189
  outer loop
   vertex -0.018832 0.202064 -0.000266
   vertex -0.015742 0.201059 -0.000266
   vertex -0.016989 0.20248 0.002227
  endloop
 endfacet
 facet normal -0.132412 -0.888171 0.440021
  outer loop
   vertex -0.015742 0.201059 -0.000266
   vertex -0.014064 0.201928 0.001993
   vertex -0.016989 0.20248 0.002227
  endloop
 endfacet
 facet normal -0.304389 -0.937197 -0.170322
  outer loop
   vertex -0.01872 0.201928 -0.005542
   vertex -0.015912 0.201016 -0.005542
   vertex -0.01745 0.201059 -0.00303
  endloop
 endfacet
 facet normal -0.155824 -0.984657 -0.07855
  outer loop
   vertex -0.015912 0.201016 -0.005542
   vertex -0.01436 0.20057 -0.00303
   vertex -0.01745 0.201059 -0.00303
  endloop
 endfacet
 facet normal -0.155583 -0.983133 0.0961419
  outer loop
   vertex -0.01745 0.201059 -0.00303
   vertex -0.01436 0.20057 -0.00303
   vertex -0.015742 0.201059 -0.000266
  endloop
 endfacet
 facet normal 0.000555151 -0.98466 0.174481
  outer loop
   vertex -0.01436 0.20057 -0.00303
   vertex -0.012808 0.201016 -0.000518
   vertex -0.015742 0.201059 -0.000266
  endloop
 endfacet
 facet normal 0.0161962 -0.937175 0.348485
  outer loop
   vertex -0.015742 0.201059 -0.000266
   vertex -0.012808 0.201016 -0.000518
   vertex -0.014064 0.201928 0.001993
  endloop
 endfacet
 facet normal 0.138975 -0.90647 0.398746
  outer loop
   vertex -0.012808 0.201016 -0.000518
   vertex -0.011596 0.202064 0.001442
   vertex -0.014064 0.201928 0.001993
  endloop
 endfacet
 facet normal 0.420269 -0.815078 0.398776
  outer loop
   vertex -0.01 0.201928 -0.000518
   vertex -0.00952 0.203404 0.001993
   vertex -0.011596 0.202064 0.001442
  endloop
 endfacet
 facet normal 0.578519 -0.796783 0.174509
  outer loop
   vertex -0.008482 0.20248 -0.00303
   vertex -0.007652 0.203688 -0.000266
   vertex -0.01 0.201928 -0.000518
  endloop
 endfacet
 facet normal 0.704936 -0.704936 -0.0782949
  outer loop
   vertex -0.007488 0.203753 -0.005542
   vertex -0.00627 0.204692 -0.00303
   vertex -0.008482 0.20248 -0.00303
  endloop
 endfacet
 facet normal 0.537986 -0.767602 0.348366
  outer loop
   vertex -0.01 0.201928 -0.000518
   vertex -0.007652 0.203688 -0.000266
   vertex -0.00952 0.203404 0.001993
  endloop
 endfacet
 facet normal 0.629279 -0.640767 0.439803
  outer loop
   vertex -0.007652 0.203688 -0.000266
   vertex -0.007478 0.20557 0.002227
   vertex -0.00952 0.203404 0.001993
  endloop
 endfacet
 facet normal 0.703824 -0.703824 0.0962537
  outer loop
   vertex -0.008482 0.20248 -0.00303
   vertex -0.00627 0.204692 -0.00303
   vertex -0.007652 0.203688 -0.000266
  endloop
 endfacet
 facet normal 0.794662 -0.577331 0.18762
  outer loop
   vertex -0.00627 0.204692 -0.00303
   vertex -0.005742 0.206317 -0.000266
   vertex -0.007652 0.203688 -0.000266
  endloop
 endfacet
 facet normal 0.754436 -0.548107 0.361117
  outer loop
   vertex -0.007652 0.203688 -0.000266
   vertex -0.005742 0.206317 -0.000266
   vertex -0.007478 0.20557 0.002227
  endloop
 endfacet
 facet normal 0.803858 -0.400541 0.439749
  outer loop
   vertex -0.005742 0.206317 -0.000266
   vertex -0.006049 0.208181 0.001993
   vertex -0.007478 0.20557 0.002227
  endloop
 endfacet
 facet normal 0.797233 -0.579229 -0.170037
  outer loop
   vertex -0.007488 0.203753 -0.005542
   vertex -0.005753 0.206141 -0.005542
   vertex -0.00627 0.204692 -0.00303
  endloop
 endfacet
 facet normal 0.888212 -0.452708 -0.078331
  outer loop
   vertex -0.005753 0.206141 -0.005542
   vertex -0.004849 0.20748 -0.00303
   vertex -0.00627 0.204692 -0.00303
  endloop
 endfacet
 facet normal 0.886806 -0.451991 0.0963284
  outer loop
   vertex -0.00627 0.204692 -0.00303
   vertex -0.004849 0.20748 -0.00303
   vertex -0.005742 0.206317 -0.000266
  endloop
 endfacet
 facet normal 0.93657 -0.303801 0.17476
  outer loop
   vertex -0.004849 0.20748 -0.00303
   vertex -0.004794 0.209094 -0.000519
   vertex -0.005742 0.206317 -0.000266
  endloop
 endfacet
 facet normal 0.89641 -0.274294 0.348155
  outer loop
   vertex -0.005742 0.206317 -0.000266
   vertex -0.004794 0.209094 -0.000519
   vertex -0.006049 0.208181 0.001993
  endloop
 endfacet
 facet normal 0.905177 -0.147939 0.398459
  outer loop
   vertex -0.004794 0.209094 -0.000519
   vertex -0.005416 0.21057 0.001442
   vertex -0.006049 0.208181 0.001993
  endloop
 endfacet
 facet normal 0.294416 0.906493 0.302638
  outer loop
   vertex -0.01 0.219212 -0.000518
   vertex -0.012808 0.220124 -0.000518
   vertex -0.011596 0.219076 0.001442
  endloop
 endfacet
 facet normal 0.452705 0.888208 0.0783901
  outer loop
   vertex -0.008482 0.21866 -0.00303
   vertex -0.01127 0.220081 -0.00303
   vertex -0.01 0.219212 -0.000518
  endloop
 endfacet
 facet normal 0.578874 0.796508 -0.174584
  outer loop
   vertex -0.007488 0.217387 -0.005542
   vertex -0.009888 0.219076 -0.005794
   vertex -0.008482 0.21866 -0.00303
  endloop
 endfacet
 facet normal 0.304389 0.937197 0.170322
  outer loop
   vertex -0.01 0.219212 -0.000518
   vertex -0.01127 0.220081 -0.00303
   vertex -0.012808 0.220124 -0.000518
  endloop
 endfacet
 facet normal 0.155824 0.984657 0.07855
  outer loop
   vertex -0.01127 0.220081 -0.00303
   vertex -0.01436 0.22057 -0.00303
   vertex -0.012808 0.220124 -0.000518
  endloop
 endfacet
 facet normal 0.451986 0.886796 -0.0964489
  outer loop
   vertex -0.008482 0.21866 -0.00303
   vertex -0.009888 0.219076 -0.005794
   vertex -0.01127 0.220081 -0.00303
  endloop
 endfacet
 facet normal 0.303796 0.934059 -0.187729
  outer loop
   vertex -0.009888 0.219076 -0.005794
   vertex -0.012978 0.220081 -0.005794
   vertex -0.01127 0.220081 -0.00303
  endloop
 endfacet
 facet normal 0.155583 0.983133 -0.0961419
  outer loop
   vertex -0.01127 0.220081 -0.00303
   vertex -0.012978 0.220081 -0.005794
   vertex -0.01436 0.22057 -0.00303
  endloop
 endfacet
 facet normal -0.000555151 0.98466 -0.174481
  outer loop
   vertex -0.012978 0.220081 -0.005794
   vertex -0.015912 0.220124 -0.005542
   vertex -0.01436 0.22057 -0.00303
  endloop
 endfacet
 facet normal 0.563623 0.748876 -0.348589
  outer loop
   vertex -0.007488 0.217387 -0.005542
   vertex -0.009041 0.217387 -0.008053
   vertex -0.009888 0.219076 -0.005794
  endloop
 endfacet
 facet normal 0.415138 0.796394 -0.439791
  outer loop
   vertex -0.009041 0.217387 -0.008053
   vertex -0.011731 0.21866 -0.008287
   vertex -0.009888 0.219076 -0.005794
  endloop
 endfacet
 facet normal 0.288415 0.886769 -0.361189
  outer loop
   vertex -0.009888 0.219076 -0.005794
   vertex -0.011731 0.21866 -0.008287
   vertex -0.012978 0.220081 -0.005794
  endloop
 endfacet
 facet normal 0.132412 0.888171 -0.440021
  outer loop
   vertex -0.011731 0.21866 -0.008287
   vertex -0.014656 0.219212 -0.008053
   vertex -0.012978 0.220081 -0.005794
  endloop
 endfacet
 facet normal -0.0161962 0.937175 -0.348485
  outer loop
   vertex -0.012978 0.220081 -0.005794
   vertex -0.014656 0.219212 -0.008053
   vertex -0.015912 0.220124 -0.005542
  endloop
 endfacet
 facet normal -0.138975 0.90647 -0.398746
  outer loop
   vertex -0.014656 0.219212 -0.008053
   vertex -0.017124 0.219076 -0.007502
   vertex -0.015912 0.220124 -0.005542
  endloop
 endfacet
 facet normal -0.771063 0.560215 0.302688
  outer loop
   vertex -0.021232 0.217387 -0.000518
   vertex -0.022967 0.214999 -0.000518
   vertex -0.021596 0.215827 0.001442
  endloop
 endfacet
 facet normal -0.704936 0.704936 0.0782949
  outer loop
   vertex -0.020238 0.21866 -0.00303
   vertex -0.02245 0.216448 -0.00303
   vertex -0.021232 0.217387 -0.000518
  endloop
 endfacet
 facet normal -0.578519 0.796783 -0.174509
  outer loop
   vertex -0.01872 0.219212 -0.005542
   vertex -0.021068 0.217452 -0.005794
   vertex -0.020238 0.21866 -0.00303
  endloop
 endfacet
 facet normal -0.797233 0.579229 0.170037
  outer loop
   vertex -0.021232 0.217387 -0.000518
   vertex -0.02245 0.216448 -0.00303
   vertex -0.022967 0.214999 -0.000518
  endloop
 endfacet
 facet normal -0.888212 0.452708 0.078331
  outer loop
   vertex -0.02245 0.216448 -0.00303
   vertex -0.023871 0.21366 -0.00303
   vertex -0.022967 0.214999 -0.000518
  endloop
 endfacet
 facet normal -0.703824 0.703824 -0.0962537
  outer loop
   vertex -0.020238 0.21866 -0.00303
   vertex -0.021068 0.217452 -0.005794
   vertex -0.02245 0.216448 -0.00303
  endloop
 endfacet
 facet normal -0.794662 0.577331 -0.18762
  outer loop
   vertex -0.021068 0.217452 -0.005794
   vertex -0.022978 0.214823 -0.005794
   vertex -0.02245 0.216448 -0.00303
  endloop
 endfacet
 facet normal -0.886806 0.451991 -0.0963284
  outer loop
   vertex -0.02245 0.216448 -0.00303
   vertex -0.022978 0.214823 -0.005794
   vertex -0.023871 0.21366 -0.00303
  endloop
 endfacet
 facet normal -0.93657 0.303801 -0.17476
  outer loop
   vertex -0.022978 0.214823 -0.005794
   vertex -0.023926 0.212046 -0.005541
   vertex -0.023871 0.21366 -0.00303
  endloop
 endfacet
 facet normal -0.537986 0.767602 -0.348366
  outer loop
   vertex -0.01872 0.219212 -0.005542
   vertex -0.0192 0.217736 -0.008053
   vertex -0.021068 0.217452 -0.005794
  endloop
 endfacet
 facet normal -0.629279 0.640767 -0.439803
  outer loop
   vertex -0.0192 0.217736 -0.008053
   vertex -0.021242 0.21557 -0.008287
   vertex -0.021068 0.217452 -0.005794
  endloop
 endfacet
 facet normal -0.754436 0.548107 -0.361117
  outer loop
   vertex -0.021068 0.217452 -0.005794
   vertex -0.021242 0.21557 -0.008287
   vertex -0.022978 0.214823 -0.005794
  endloop
 endfacet
 facet normal -0.803858 0.400541 -0.439749
  outer loop
   vertex -0.021242 0.21557 -0.008287
   vertex -0.022671 0.212959 -0.008053
   vertex -0.022978 0.214823 -0.005794
  endloop
 endfacet
 facet normal -0.89641 0.274294 -0.348155
  outer loop
   vertex -0.022978 0.214823 -0.005794
   vertex -0.022671 0.212959 -0.008053
   vertex -0.023926 0.212046 -0.005541
  endloop
 endfacet
 facet normal -0.905177 0.147939 -0.398459
  outer loop
   vertex -0.022671 0.212959 -0.008053
   vertex -0.023304 0.21057 -0.007502
   vertex -0.023926 0.212046 -0.005541
  endloop
 endfacet
 facet normal -0.771063 -0.560215 0.302688
  outer loop
   vertex -0.022967 0.206141 -0.000518
   vertex -0.021232 0.203753 -0.000518
   vertex -0.021596 0.205313 0.001442
  endloop
 endfacet
 facet normal -0.888212 -0.452708 0.078331
  outer loop
   vertex -0.023871 0.20748 -0.00303
   vertex -0.02245 0.204692 -0.00303
   vertex -0.022967 0.206141 -0.000518
  endloop
 endfacet
 facet normal -0.93657 -0.303801 -0.17476
  outer loop
   vertex -0.023926 0.209094 -0.005541
   vertex -0.022978 0.206317 -0.005794
   vertex -0.023871 0.20748 -0.00303
  endloop
 endfacet
 facet normal -0.797233 -0.579229 0.170037
  outer loop
   vertex -0.022967 0.206141 -0.000518
   vertex -0.02245 0.204692 -0.00303
   vertex -0.021232 0.203753 -0.000518
  endloop
 endfacet
 facet normal -0.704936 -0.704936 0.0782949
  outer loop
   vertex -0.02245 0.204692 -0.00303
   vertex -0.020238 0.20248 -0.00303
   vertex -0.021232 0.203753 -0.000518
  endloop
 endfacet
 facet normal -0.886806 -0.451991 -0.0963284
  outer loop
   vertex -0.023871 0.20748 -0.00303
   vertex -0.022978 0.206317 -0.005794
   vertex -0.02245 0.204692 -0.00303
  endloop
 endfacet
 facet normal -0.794662 -0.577331 -0.18762
  outer loop
   vertex -0.022978 0.206317 -0.005794
   vertex -0.021068 0.203688 -0.005794
   vertex -0.02245 0.204692 -0.00303
  endloop
 endfacet
 facet normal -0.703824 -0.703824 -0.0962537
  outer loop
   vertex -0.02245 0.204692 -0.00303
   vertex -0.021068 0.203688 -0.005794
   vertex -0.020238 0.20248 -0.00303
  endloop
 endfacet
 facet normal -0.578519 -0.796783 -0.174509
  outer loop
   vertex -0.021068 0.203688 -0.005794
   vertex -0.01872 0.201928 -0.005542
   vertex -0.020238 0.20248 -0.00303
  endloop
 endfacet
 facet normal -0.89641 -0.274294 -0.348155
  outer loop
   vertex -0.023926 0.209094 -0.005541
   vertex -0.022671 0.208181 -0.008053
   vertex -0.022978 0.206317 -0.005794
  endloop
 endfacet
 facet normal -0.803858 -0.400541 -0.439749
  outer loop
   vertex -0.022671 0.208181 -0.008053
   vertex -0.021242 0.20557 -0.008287
   vertex -0.022978 0.206317 -0.005794
  endloop
 endfacet
 facet normal -0.754436 -0.548107 -0.361117
  outer loop
   vertex -0.022978 0.206317 -0.005794
   vertex -0.021242 0.20557 -0.008287
   vertex -0.021068 0.203688 -0.005794
  endloop
 endfacet
 facet normal -0.629279 -0.640767 -0.439803
  outer loop
   vertex -0.021242 0.20557 -0.008287
   vertex -0.0192 0.203404 -0.008053
   vertex -0.021068 0.203688 -0.005794
  endloop
 endfacet
 facet normal -0.537986 -0.767602 -0.348366
  outer loop
   vertex -0.021068 0.203688 -0.005794
   vertex -0.0192 0.203404 -0.008053
   vertex -0.01872 0.201928 -0.005542
  endloop
 endfacet
 facet normal -0.420269 -0.815078 -0.398776
  outer loop
   vertex -0.0192 0.203404 -0.008053
   vertex -0.017124 0.202064 -0.007502
   vertex -0.01872 0.201928 -0.005542
  endloop
 endfacet
 facet normal 0.294416 -0.906493 0.302638
  outer loop
   vertex -0.012808 0.201016 -0.000518
   vertex -0.01 0.201928 -0.000518
   vertex -0.011596 0.202064 0.001442
  endloop
 endfacet
 facet normal 0.155824 -0.984657 0.07855
  outer loop
   vertex -0.01436 0.20057 -0.00303
   vertex -0.01127 0.201059 -0.00303
   vertex -0.012808 0.201016 -0.000518
  endloop
 endfacet
 facet normal -0.000555151 -0.98466 -0.174481
  outer loop
   vertex -0.015912 0.201016 -0.005542
   vertex -0.012978 0.201059 -0.005794
   vertex -0.01436 0.20057 -0.00303
  endloop
 endfacet
 facet normal 0.304389 -0.937197 0.170322
  outer loop
   vertex -0.012808 0.201016 -0.000518
   vertex -0.01127 0.201059 -0.00303
   vertex -0.01 0.201928 -0.000518
  endloop
 endfacet
 facet normal 0.452705 -0.888208 0.0783901
  outer loop
   vertex -0.01127 0.201059 -0.00303
   vertex -0.008482 0.20248 -0.00303
   vertex -0.01 0.201928 -0.000518
  endloop
 endfacet
 facet normal 0.155583 -0.983133 -0.0961419
  outer loop
   vertex -0.01436 0.20057 -0.00303
   vertex -0.012978 0.201059 -0.005794
   vertex -0.01127 0.201059 -0.00303
  endloop
 endfacet
 facet normal 0.303796 -0.934059 -0.187729
  outer loop
   vertex -0.012978 0.201059 -0.005794
   vertex -0.009888 0.202064 -0.005794
   vertex -0.01127 0.201059 -0.00303
  endloop
 endfacet
 facet normal 0.451986 -0.886796 -0.0964489
  outer loop
   vertex -0.01127 0.201059 -0.00303
   vertex -0.009888 0.202064 -0.005794
   vertex -0.008482 0.20248 -0.00303
  endloop
 endfacet
 facet normal 0.578874 -0.796508 -0.174584
  outer loop
   vertex -0.009888 0.202064 -0.005794
   vertex -0.007488 0.203753 -0.005542
   vertex -0.008482 0.20248 -0.00303
  endloop
 endfacet
 facet normal -0.0161962 -0.937175 -0.348485
  outer loop
   vertex -0.015912 0.201016 -0.005542
   vertex -0.014656 0.201928 -0.008053
   vertex -0.012978 0.201059 -0.005794
  endloop
 endfacet
 facet normal 0.132412 -0.888171 -0.440021
  outer loop
   vertex -0.014656 0.201928 -0.008053
   vertex -0.011731 0.20248 -0.008287
   vertex -0.012978 0.201059 -0.005794
  endloop
 endfacet
 facet normal 0.288415 -0.886769 -0.361189
  outer loop
   vertex -0.012978 0.201059 -0.005794
   vertex -0.011731 0.20248 -0.008287
   vertex -0.009888 0.202064 -0.005794
  endloop
 endfacet
 facet normal 0.415138 -0.796394 -0.439791
  outer loop
   vertex -0.011731 0.20248 -0.008287
   vertex -0.009041 0.203753 -0.008053
   vertex -0.009888 0.202064 -0.005794
  endloop
 endfacet
 facet normal 0.563623 -0.748876 -0.348589
  outer loop
   vertex -0.009888 0.202064 -0.005794
   vertex -0.009041 0.203753 -0.008053
   vertex -0.007488 0.203753 -0.005542
  endloop
 endfacet
 facet normal 0.645038 -0.651744 -0.398942
  outer loop
   vertex -0.009041 0.203753 -0.008053
   vertex -0.007124 0.205313 -0.007502
   vertex -0.007488 0.203753 -0.005542
  endloop
 endfacet
 facet normal 0.9532 -0 0.302341
  outer loop
   vertex -0.004794 0.209094 -0.000519
   vertex -0.004794 0.212046 -0.000519
   vertex -0.005416 0.21057 0.001442
  endloop
 endfacet
 facet normal 0.984653 -0.155824 0.0785916
  outer loop
   vertex -0.004849 0.20748 -0.00303
   vertex -0.00436 0.21057 -0.00303
   vertex -0.004794 0.209094 -0.000519
  endloop
 endfacet
 facet normal 0.936352 -0.304548 -0.174631
  outer loop
   vertex -0.005753 0.206141 -0.005542
   vertex -0.004888 0.208945 -0.005794
   vertex -0.004849 0.20748 -0.00303
  endloop
 endfacet
 facet normal 0.98539 -0 0.170314
  outer loop
   vertex -0.004794 0.209094 -0.000519
   vertex -0.00436 0.21057 -0.00303
   vertex -0.004794 0.212046 -0.000519
  endloop
 endfacet
 facet normal 0.984653 0.155824 0.0785916
  outer loop
   vertex -0.00436 0.21057 -0.00303
   vertex -0.004849 0.21366 -0.00303
   vertex -0.004794 0.212046 -0.000519
  endloop
 endfacet
 facet normal 0.983115 -0.15558 -0.0963335
  outer loop
   vertex -0.004849 0.20748 -0.00303
   vertex -0.004888 0.208945 -0.005794
   vertex -0.00436 0.21057 -0.00303
  endloop
 endfacet
 facet normal 0.982239 0 -0.187634
  outer loop
   vertex -0.004888 0.208945 -0.005794
   vertex -0.004888 0.212195 -0.005794
   vertex -0.00436 0.21057 -0.00303
  endloop
 endfacet
 facet normal 0.983115 0.15558 -0.0963335
  outer loop
   vertex -0.00436 0.21057 -0.00303
   vertex -0.004888 0.212195 -0.005794
   vertex -0.004849 0.21366 -0.00303
  endloop
 endfacet
 facet normal 0.936352 0.304548 -0.174631
  outer loop
   vertex -0.004888 0.212195 -0.005794
   vertex -0.005753 0.214999 -0.005542
   vertex -0.004849 0.21366 -0.00303
  endloop
 endfacet
 facet normal 0.886309 -0.304753 -0.348685
  outer loop
   vertex -0.005753 0.206141 -0.005542
   vertex -0.006233 0.207618 -0.008053
   vertex -0.004888 0.208945 -0.005794
  endloop
 endfacet
 facet normal 0.885615 -0.148581 -0.440011
  outer loop
   vertex -0.006233 0.207618 -0.008053
   vertex -0.005854 0.21057 -0.008287
   vertex -0.004888 0.208945 -0.005794
  endloop
 endfacet
 facet normal 0.932446 0 -0.361309
  outer loop
   vertex -0.004888 0.208945 -0.005794
   vertex -0.005854 0.21057 -0.008287
   vertex -0.004888 0.212195 -0.005794
  endloop
 endfacet
 facet normal 0.885615 0.148581 -0.440011
  outer loop
   vertex -0.005854 0.21057 -0.008287
   vertex -0.006233 0.213522 -0.008053
   vertex -0.004888 0.212195 -0.005794
  endloop
 endfacet
 facet normal 0.886309 0.304753 -0.348685
  outer loop
   vertex -0.004888 0.212195 -0.005794
   vertex -0.006233 0.213522 -0.008053
   vertex -0.005753 0.214999 -0.005542
  endloop
 endfacet
 facet normal 0.819189 0.412026 -0.398954
  outer loop
   vertex -0.006233 0.213522 -0.008053
   vertex -0.007124 0.215827 -0.007502
   vertex -0.005753 0.214999 -0.005542
  endloop
 endfacet
 facet normal 0.61533 0.560308 -0.554459
  outer loop
   vertex -0.008265 0.214999 -0.009605
   vertex -0.009041 0.217387 -0.008053
   vertex -0.007124 0.215827 -0.007502
  endloop
 endfacet
 facet normal 0.467426 0.452641 -0.759361
  outer loop
   vertex -0.010107 0.21366 -0.011537
   vertex -0.010742 0.216448 -0.010266
   vertex -0.008265 0.214999 -0.009605
  endloop
 endfacet
 facet normal 0.262485 0.303841 -0.915851
  outer loop
   vertex -0.012328 0.212046 -0.012709
   vertex -0.012978 0.214823 -0.011974
   vertex -0.010107 0.21366 -0.011537
  endloop
 endfacet
 facet normal 0.508799 0.579247 -0.636864
  outer loop
   vertex -0.008265 0.214999 -0.009605
   vertex -0.010742 0.216448 -0.010266
   vertex -0.009041 0.217387 -0.008053
  endloop
 endfacet
 facet normal 0.38541 0.704977 -0.595371
  outer loop
   vertex -0.010742 0.216448 -0.010266
   vertex -0.011731 0.21866 -0.008287
   vertex -0.009041 0.217387 -0.008053
  endloop
 endfacet
 facet normal 0.310374 0.451949 -0.836307
  outer loop
   vertex -0.010107 0.21366 -0.011537
   vertex -0.012978 0.214823 -0.011974
   vertex -0.010742 0.216448 -0.010266
  endloop
 endfacet
 facet normal 0.187559 0.577248 -0.794737
  outer loop
   vertex -0.012978 0.214823 -0.011974
   vertex -0.013832 0.217452 -0.010266
   vertex -0.010742 0.216448 -0.010266
  endloop
 endfacet
 facet normal 0.228709 0.703897 -0.672474
  outer loop
   vertex -0.010742 0.216448 -0.010266
   vertex -0.013832 0.217452 -0.010266
   vertex -0.011731 0.21866 -0.008287
  endloop
 endfacet
 facet normal 0.102735 0.796801 -0.595444
  outer loop
   vertex -0.013832 0.217452 -0.010266
   vertex -0.014656 0.219212 -0.008053
   vertex -0.011731 0.21866 -0.008287
  endloop
 endfacet
 facet normal 0.0891868 0.274301 -0.957499
  outer loop
   vertex -0.012328 0.212046 -0.012709
   vertex -0.015136 0.212959 -0.012709
   vertex -0.012978 0.214823 -0.011974
  endloop
 endfacet
 facet normal -0.0336945 0.400135 -0.915836
  outer loop
   vertex -0.015136 0.212959 -0.012709
   vertex -0.015985 0.21557 -0.011537
   vertex -0.012978 0.214823 -0.011974
  endloop
 endfacet
 facet normal 0.0146149 0.548074 -0.836302
  outer loop
   vertex -0.012978 0.214823 -0.011974
   vertex -0.015985 0.21557 -0.011537
   vertex -0.013832 0.217452 -0.010266
  endloop
 endfacet
 facet normal -0.112009 0.640965 -0.759354
  outer loop
   vertex -0.015985 0.21557 -0.011537
   vertex -0.016688 0.217736 -0.009605
   vertex -0.013832 0.217452 -0.010266
  endloop
 endfacet
 facet normal -0.0710868 0.767617 -0.636955
  outer loop
   vertex -0.013832 0.217452 -0.010266
   vertex -0.016688 0.217736 -0.009605
   vertex -0.014656 0.219212 -0.008053
  endloop
 endfacet
 facet normal -0.168666 0.815046 -0.554303
  outer loop
   vertex -0.016688 0.217736 -0.009605
   vertex -0.017124 0.219076 -0.007502
   vertex -0.014656 0.219212 -0.008053
  endloop
 endfacet
 facet normal -0.342493 0.758552 -0.554344
  outer loop
   vertex -0.016688 0.217736 -0.009605
   vertex -0.0192 0.217736 -0.008053
   vertex -0.017124 0.219076 -0.007502
  endloop
 endfacet
 facet normal -0.286233 0.584386 -0.759318
  outer loop
   vertex -0.015985 0.21557 -0.011537
   vertex -0.018832 0.215827 -0.010266
   vertex -0.016688 0.217736 -0.009605
  endloop
 endfacet
 facet normal -0.207851 0.343516 -0.915858
  outer loop
   vertex -0.015136 0.212959 -0.012709
   vertex -0.017978 0.213199 -0.011974
   vertex -0.015985 0.21557 -0.011537
  endloop
 endfacet
 facet normal -0.393627 0.662685 -0.637108
  outer loop
   vertex -0.016688 0.217736 -0.009605
   vertex -0.018832 0.215827 -0.010266
   vertex -0.0192 0.217736 -0.008053
  endloop
 endfacet
 facet normal -0.551379 0.584158 -0.595601
  outer loop
   vertex -0.018832 0.215827 -0.010266
   vertex -0.021242 0.21557 -0.008287
   vertex -0.0192 0.217736 -0.008053
  endloop
 endfacet
 facet normal -0.334054 0.43492 -0.836213
  outer loop
   vertex -0.015985 0.21557 -0.011537
   vertex -0.017978 0.213199 -0.011974
   vertex -0.018832 0.215827 -0.010266
  endloop
 endfacet
 facet normal -0.491058 0.356895 -0.794662
  outer loop
   vertex -0.017978 0.213199 -0.011974
   vertex -0.020742 0.213199 -0.010266
   vertex -0.018832 0.215827 -0.010266
  endloop
 endfacet
 facet normal -0.598657 0.435097 -0.672533
  outer loop
   vertex -0.018832 0.215827 -0.010266
   vertex -0.020742 0.213199 -0.010266
   vertex -0.021242 0.21557 -0.008287
  endloop
 endfacet
 facet normal -0.725985 0.343961 -0.595514
  outer loop
   vertex -0.020742 0.213199 -0.010266
   vertex -0.022671 0.212959 -0.008053
   vertex -0.021242 0.21557 -0.008287
  endloop
 endfacet
 facet normal -0.233325 0.169451 -0.957521
  outer loop
   vertex -0.015136 0.212959 -0.012709
   vertex -0.016871 0.21057 -0.012709
   vertex -0.017978 0.213199 -0.011974
  endloop
 endfacet
 facet normal -0.390899 0.0914587 -0.915878
  outer loop
   vertex -0.016871 0.21057 -0.012709
   vertex -0.019617 0.21057 -0.011537
   vertex -0.017978 0.213199 -0.011974
  endloop
 endfacet
 facet normal -0.516783 0.183167 -0.836293
  outer loop
   vertex -0.017978 0.213199 -0.011974
   vertex -0.019617 0.21057 -0.011537
   vertex -0.020742 0.213199 -0.010266
  endloop
 endfacet
 facet normal -0.644269 0.0913996 -0.759317
  outer loop
   vertex -0.019617 0.21057 -0.011537
   vertex -0.021894 0.21057 -0.009605
   vertex -0.020742 0.213199 -0.010266
  endloop
 endfacet
 facet normal -0.751958 0.169318 -0.637095
  outer loop
   vertex -0.020742 0.213199 -0.010266
   vertex -0.021894 0.21057 -0.009605
   vertex -0.022671 0.212959 -0.008053
  endloop
 endfacet
 facet normal -0.827124 0.091254 -0.554562
  outer loop
   vertex -0.021894 0.21057 -0.009605
   vertex -0.023304 0.21057 -0.007502
   vertex -0.022671 0.212959 -0.008053
  endloop
 endfacet
 facet normal -0.827124 -0.091254 -0.554562
  outer loop
   vertex -0.021894 0.21057 -0.009605
   vertex -0.022671 0.208181 -0.008053
   vertex -0.023304 0.21057 -0.007502
  endloop
 endfacet
 facet normal -0.644269 -0.0913996 -0.759317
  outer loop
   vertex -0.019617 0.21057 -0.011537
   vertex -0.020742 0.207941 -0.010266
   vertex -0.021894 0.21057 -0.009605
  endloop
 endfacet
 facet normal -0.390899 -0.0914587 -0.915878
  outer loop
   vertex -0.016871 0.21057 -0.012709
   vertex -0.017978 0.207941 -0.011974
   vertex -0.019617 0.21057 -0.011537
  endloop
 endfacet
 facet normal -0.751958 -0.169318 -0.637095
  outer loop
   vertex -0.021894 0.21057 -0.009605
   vertex -0.020742 0.207941 -0.010266
   vertex -0.022671 0.208181 -0.008053
  endloop
 endfacet
 facet normal -0.725985 -0.343961 -0.595514
  outer loop
   vertex -0.020742 0.207941 -0.010266
   vertex -0.021242 0.20557 -0.008287
   vertex -0.022671 0.208181 -0.008053
  endloop
 endfacet
 facet normal -0.516783 -0.183167 -0.836293
  outer loop
   vertex -0.019617 0.21057 -0.011537
   vertex -0.017978 0.207941 -0.011974
   vertex -0.020742 0.207941 -0.010266
  endloop
 endfacet
 facet normal -0.491058 -0.356895 -0.794662
  outer loop
   vertex -0.017978 0.207941 -0.011974
   vertex -0.018832 0.205313 -0.010266
   vertex -0.020742 0.207941 -0.010266
  endloop
 endfacet
 facet normal -0.598657 -0.435097 -0.672533
  outer loop
   vertex -0.020742 0.207941 -0.010266
   vertex -0.018832 0.205313 -0.010266
   vertex -0.021242 0.20557 -0.008287
  endloop
 endfacet
 facet normal -0.551379 -0.584158 -0.595601
  outer loop
   vertex -0.018832 0.205313 -0.010266
   vertex -0.0192 0.203404 -0.008053
   vertex -0.021242 0.20557 -0.008287
  endloop
 endfacet
 facet normal -0.233325 -0.169451 -0.957521
  outer loop
   vertex -0.016871 0.21057 -0.012709
   vertex -0.015136 0.208181 -0.012709
   vertex -0.017978 0.207941 -0.011974
  endloop
 endfacet
 facet normal -0.207851 -0.343516 -0.915858
  outer loop
   vertex -0.015136 0.208181 -0.012709
   vertex -0.015985 0.20557 -0.011537
   vertex -0.017978 0.207941 -0.011974
  endloop
 endfacet
 facet normal -0.334054 -0.43492 -0.836213
  outer loop
   vertex -0.017978 0.207941 -0.011974
   vertex -0.015985 0.20557 -0.011537
   vertex -0.018832 0.205313 -0.010266
  endloop
 endfacet
 facet normal -0.286233 -0.584386 -0.759318
  outer loop
   vertex -0.015985 0.20557 -0.011537
   vertex -0.016688 0.203404 -0.009605
   vertex -0.018832 0.205313 -0.010266
  endloop
 endfacet
 facet normal -0.393627 -0.662685 -0.637108
  outer loop
   vertex -0.018832 0.205313 -0.010266
   vertex -0.016688 0.203404 -0.009605
   vertex -0.0192 0.203404 -0.008053
  endloop
 endfacet
 facet normal -0.342493 -0.758552 -0.554344
  outer loop
   vertex -0.016688 0.203404 -0.009605
   vertex -0.017124 0.202064 -0.007502
   vertex -0.0192 0.203404 -0.008053
  endloop
 endfacet
 facet normal 0.723015 0.412034 -0.554506
  outer loop
   vertex -0.006233 0.213522 -0.008053
   vertex -0.008265 0.214999 -0.009605
   vertex -0.007124 0.215827 -0.007502
  endloop
 endfacet
 facet normal 0.789589 0.148568 -0.59538
  outer loop
   vertex -0.005854 0.21057 -0.008287
   vertex -0.007652 0.212195 -0.010266
   vertex -0.006233 0.213522 -0.008053
  endloop
 endfacet
 facet normal 0.789589 -0.148568 -0.59538
  outer loop
   vertex -0.006233 0.207618 -0.008053
   vertex -0.007652 0.208945 -0.010266
   vertex -0.005854 0.21057 -0.008287
  endloop
 endfacet
 facet normal 0.708089 0.304936 -0.636886
  outer loop
   vertex -0.006233 0.213522 -0.008053
   vertex -0.007652 0.212195 -0.010266
   vertex -0.008265 0.214999 -0.009605
  endloop
 endfacet
 facet normal 0.574948 0.304695 -0.759339
  outer loop
   vertex -0.007652 0.212195 -0.010266
   vertex -0.010107 0.21366 -0.011537
   vertex -0.008265 0.214999 -0.009605
  endloop
 endfacet
 facet normal 0.740143 0 -0.672449
  outer loop
   vertex -0.005854 0.21057 -0.008287
   vertex -0.007652 0.208945 -0.010266
   vertex -0.007652 0.212195 -0.010266
  endloop
 endfacet
 facet normal 0.607028 0 -0.794681
  outer loop
   vertex -0.007652 0.208945 -0.010266
   vertex -0.009888 0.21057 -0.011974
   vertex -0.007652 0.212195 -0.010266
  endloop
 endfacet
 facet normal 0.525774 0.155534 -0.836284
  outer loop
   vertex -0.007652 0.212195 -0.010266
   vertex -0.009888 0.21057 -0.011974
   vertex -0.010107 0.21366 -0.011537
  endloop
 endfacet
 facet normal 0.370096 0.155752 -0.915844
  outer loop
   vertex -0.009888 0.21057 -0.011974
   vertex -0.012328 0.212046 -0.012709
   vertex -0.010107 0.21366 -0.011537
  endloop
 endfacet
 facet normal 0.708089 -0.304936 -0.636886
  outer loop
   vertex -0.006233 0.207618 -0.008053
   vertex -0.008265 0.206141 -0.009605
   vertex -0.007652 0.208945 -0.010266
  endloop
 endfacet
 facet normal 0.574948 -0.304695 -0.759339
  outer loop
   vertex -0.008265 0.206141 -0.009605
   vertex -0.010107 0.20748 -0.011537
   vertex -0.007652 0.208945 -0.010266
  endloop
 endfacet
 facet normal 0.525774 -0.155534 -0.836284
  outer loop
   vertex -0.007652 0.208945 -0.010266
   vertex -0.010107 0.20748 -0.011537
   vertex -0.009888 0.21057 -0.011974
  endloop
 endfacet
 facet normal 0.370096 -0.155752 -0.915844
  outer loop
   vertex -0.010107 0.20748 -0.011537
   vertex -0.012328 0.209094 -0.012709
   vertex -0.009888 0.21057 -0.011974
  endloop
 endfacet
 facet normal 0.288428 0 -0.957502
  outer loop
   vertex -0.009888 0.21057 -0.011974
   vertex -0.012328 0.209094 -0.012709
   vertex -0.012328 0.212046 -0.012709
  endloop
 endfacet
 facet normal 0.156037 0 -0.987751
  outer loop
   vertex -0.012328 0.209094 -0.012709
   vertex -0.01436 0.21057 -0.01303
   vertex -0.012328 0.212046 -0.012709
  endloop
 endfacet
 facet normal -0.168666 -0.815046 -0.554303
  outer loop
   vertex -0.016688 0.203404 -0.009605
   vertex -0.014656 0.201928 -0.008053
   vertex -0.017124 0.202064 -0.007502
  endloop
 endfacet
 facet normal -0.112009 -0.640965 -0.759354
  outer loop
   vertex -0.015985 0.20557 -0.011537
   vertex -0.013832 0.203688 -0.010266
   vertex -0.016688 0.203404 -0.009605
  endloop
 endfacet
 facet normal -0.0336945 -0.400135 -0.915836
  outer loop
   vertex -0.015136 0.208181 -0.012709
   vertex -0.012978 0.206317 -0.011974
   vertex -0.015985 0.20557 -0.011537
  endloop
 endfacet
 facet normal -0.0710868 -0.767617 -0.636955
  outer loop
   vertex -0.016688 0.203404 -0.009605
   vertex -0.013832 0.203688 -0.010266
   vertex -0.014656 0.201928 -0.008053
  endloop
 endfacet
 facet normal 0.102735 -0.796801 -0.595444
  outer loop
   vertex -0.013832 0.203688 -0.010266
   vertex -0.011731 0.20248 -0.008287
   vertex -0.014656 0.201928 -0.008053
  endloop
 endfacet
 facet normal 0.0146149 -0.548074 -0.836302
  outer loop
   vertex -0.015985 0.20557 -0.011537
   vertex -0.012978 0.206317 -0.011974
   vertex -0.013832 0.203688 -0.010266
  endloop
 endfacet
 facet normal 0.187559 -0.577248 -0.794737
  outer loop
   vertex -0.012978 0.206317 -0.011974
   vertex -0.010742 0.204692 -0.010266
   vertex -0.013832 0.203688 -0.010266
  endloop
 endfacet
 facet normal 0.228709 -0.703897 -0.672474
  outer loop
   vertex -0.013832 0.203688 -0.010266
   vertex -0.010742 0.204692 -0.010266
   vertex -0.011731 0.20248 -0.008287
  endloop
 endfacet
 facet normal 0.38541 -0.704977 -0.595371
  outer loop
   vertex -0.010742 0.204692 -0.010266
   vertex -0.009041 0.203753 -0.008053
   vertex -0.011731 0.20248 -0.008287
  endloop
 endfacet
 facet normal 0.0891868 -0.274301 -0.957499
  outer loop
   vertex -0.015136 0.208181 -0.012709
   vertex -0.012328 0.209094 -0.012709
   vertex -0.012978 0.206317 -0.011974
  endloop
 endfacet
 facet normal 0.262485 -0.303841 -0.915851
  outer loop
   vertex -0.012328 0.209094 -0.012709
   vertex -0.010107 0.20748 -0.011537
   vertex -0.012978 0.206317 -0.011974
  endloop
 endfacet
 facet normal 0.310374 -0.451949 -0.836307
  outer loop
   vertex -0.012978 0.206317 -0.011974
   vertex -0.010107 0.20748 -0.011537
   vertex -0.010742 0.204692 -0.010266
  endloop
 endfacet
 facet normal 0.467426 -0.452641 -0.759361
  outer loop
   vertex -0.010107 0.20748 -0.011537
   vertex -0.008265 0.206141 -0.009605
   vertex -0.010742 0.204692 -0.010266
  endloop
 endfacet
 facet normal 0.508799 -0.579247 -0.636864
  outer loop
   vertex -0.010742 0.204692 -0.010266
   vertex -0.008265 0.206141 -0.009605
   vertex -0.009041 0.203753 -0.008053
  endloop
 endfacet
 facet normal 0.61533 -0.560308 -0.554459
  outer loop
   vertex -0.008265 0.206141 -0.009605
   vertex -0.007124 0.205313 -0.007502
   vertex -0.009041 0.203753 -0.008053
  endloop
 endfacet
endsolid ExportedfromBlender-3.5.1
