solid ExportedfromBlender-3.5.1
 facet normal 0.0482486 -0.148392 -0.987751
  outer loop
   vertex 0.00771 0.09843 -0.00716
   vertex 0.009742 0.096954 -0.006839
   vertex 0.006934 0.096041 -0.006839
  endloop
 endfacet
 facet normal 0.723015 -0.412034 -0.554506
  outer loop
   vertex 0.014946 0.093173 -0.001632
   vertex 0.013805 0.094001 -0.003735
   vertex 0.015837 0.095478 -0.002183
  endloop
 endfacet
 facet normal -0.126271 -0.0917039 -0.987748
  outer loop
   vertex 0.00771 0.09843 -0.00716
   vertex 0.006934 0.096041 -0.006839
   vertex 0.005199 0.09843 -0.006839
  endloop
 endfacet
 facet normal -0.126271 0.0917039 -0.987748
  outer loop
   vertex 0.00771 0.09843 -0.00716
   vertex 0.005199 0.09843 -0.006839
   vertex 0.006934 0.100819 -0.006839
  endloop
 endfacet
 facet normal 0.0482486 0.148392 -0.987751
  outer loop
   vertex 0.00771 0.09843 -0.00716
   vertex 0.006934 0.100819 -0.006839
   vertex 0.009742 0.099906 -0.006839
  endloop
 endfacet
 facet normal 0.819189 -0.412026 -0.398954
  outer loop
   vertex 0.014946 0.093173 -0.001632
   vertex 0.015837 0.095478 -0.002183
   vertex 0.016317 0.094001 0.000328
  endloop
 endfacet
 facet normal -0.138975 -0.90647 -0.398746
  outer loop
   vertex 0.004946 0.089924 -0.001632
   vertex 0.007414 0.089788 -0.002183
   vertex 0.006158 0.088876 0.000328
  endloop
 endfacet
 facet normal -0.905177 -0.147939 -0.398459
  outer loop
   vertex -0.001234 0.09843 -0.001632
   vertex -0.000601 0.096041 -0.002183
   vertex -0.001856 0.096954 0.000329
  endloop
 endfacet
 facet normal -0.420269 0.815078 -0.398776
  outer loop
   vertex 0.004946 0.106936 -0.001632
   vertex 0.00287 0.105596 -0.002183
   vertex 0.00335 0.107072 0.000328
  endloop
 endfacet
 facet normal 0.645038 0.651744 -0.398942
  outer loop
   vertex 0.014946 0.103687 -0.001632
   vertex 0.013029 0.105247 -0.002183
   vertex 0.014582 0.105247 0.000328
  endloop
 endfacet
 facet normal 0.771063 -0.560215 -0.302688
  outer loop
   vertex 0.014946 0.093173 -0.001632
   vertex 0.016317 0.094001 0.000328
   vertex 0.014582 0.091613 0.000328
  endloop
 endfacet
 facet normal -0.294416 -0.906493 -0.302638
  outer loop
   vertex 0.004946 0.089924 -0.001632
   vertex 0.006158 0.088876 0.000328
   vertex 0.00335 0.089788 0.000328
  endloop
 endfacet
 facet normal -0.9532 0 -0.302341
  outer loop
   vertex -0.001234 0.09843 -0.001632
   vertex -0.001856 0.096954 0.000329
   vertex -0.001856 0.099906 0.000329
  endloop
 endfacet
 facet normal -0.294416 0.906493 -0.302638
  outer loop
   vertex 0.004946 0.106936 -0.001632
   vertex 0.00335 0.107072 0.000328
   vertex 0.006158 0.107984 0.000328
  endloop
 endfacet
 facet normal 0.771063 0.560215 -0.302688
  outer loop
   vertex 0.014946 0.103687 -0.001632
   vertex 0.014582 0.105247 0.000328
   vertex 0.016317 0.102859 0.000328
  endloop
 endfacet
 facet normal 0.342493 -0.758552 0.554344
  outer loop
   vertex 0.010474 0.089924 0.007312
   vertex 0.01255 0.091264 0.007863
   vertex 0.010038 0.091264 0.009415
  endloop
 endfacet
 facet normal -0.61533 -0.560308 0.554459
  outer loop
   vertex 0.000474 0.093173 0.007312
   vertex 0.002391 0.091613 0.007863
   vertex 0.001615 0.094001 0.009415
  endloop
 endfacet
 facet normal -0.723015 0.412034 0.554506
  outer loop
   vertex 0.000474 0.103687 0.007312
   vertex -0.000417 0.101382 0.007863
   vertex 0.001615 0.102859 0.009415
  endloop
 endfacet
 facet normal 0.168666 0.815046 0.554303
  outer loop
   vertex 0.010474 0.106936 0.007312
   vertex 0.008006 0.107072 0.007863
   vertex 0.010038 0.105596 0.009415
  endloop
 endfacet
 facet normal 0.827124 0.091254 0.554562
  outer loop
   vertex 0.016654 0.09843 0.007312
   vertex 0.016021 0.100819 0.007863
   vertex 0.015244 0.09843 0.009415
  endloop
 endfacet
 facet normal 0.126271 0.0917039 0.987748
  outer loop
   vertex 0.010221 0.09843 0.012519
   vertex 0.008486 0.100819 0.012519
   vertex 0.00771 0.09843 0.01284
  endloop
 endfacet
 facet normal 0.390899 0.0914587 0.915878
  outer loop
   vertex 0.012967 0.09843 0.011347
   vertex 0.011328 0.101059 0.011784
   vertex 0.010221 0.09843 0.012519
  endloop
 endfacet
 facet normal 0.644269 0.0913996 0.759317
  outer loop
   vertex 0.015244 0.09843 0.009415
   vertex 0.014092 0.101059 0.010076
   vertex 0.012967 0.09843 0.011347
  endloop
 endfacet
 facet normal 0.233325 0.169451 0.957521
  outer loop
   vertex 0.010221 0.09843 0.012519
   vertex 0.011328 0.101059 0.011784
   vertex 0.008486 0.100819 0.012519
  endloop
 endfacet
 facet normal 0.207851 0.343516 0.915858
  outer loop
   vertex 0.011328 0.101059 0.011784
   vertex 0.009335 0.10343 0.011347
   vertex 0.008486 0.100819 0.012519
  endloop
 endfacet
 facet normal 0.516783 0.183167 0.836293
  outer loop
   vertex 0.012967 0.09843 0.011347
   vertex 0.014092 0.101059 0.010076
   vertex 0.011328 0.101059 0.011784
  endloop
 endfacet
 facet normal 0.491058 0.356895 0.794662
  outer loop
   vertex 0.014092 0.101059 0.010076
   vertex 0.012182 0.103687 0.010076
   vertex 0.011328 0.101059 0.011784
  endloop
 endfacet
 facet normal 0.334054 0.43492 0.836213
  outer loop
   vertex 0.011328 0.101059 0.011784
   vertex 0.012182 0.103687 0.010076
   vertex 0.009335 0.10343 0.011347
  endloop
 endfacet
 facet normal 0.286233 0.584386 0.759318
  outer loop
   vertex 0.012182 0.103687 0.010076
   vertex 0.010038 0.105596 0.009415
   vertex 0.009335 0.10343 0.011347
  endloop
 endfacet
 facet normal 0.751958 0.169318 0.637095
  outer loop
   vertex 0.015244 0.09843 0.009415
   vertex 0.016021 0.100819 0.007863
   vertex 0.014092 0.101059 0.010076
  endloop
 endfacet
 facet normal 0.725985 0.343961 0.595514
  outer loop
   vertex 0.016021 0.100819 0.007863
   vertex 0.014592 0.10343 0.008097
   vertex 0.014092 0.101059 0.010076
  endloop
 endfacet
 facet normal 0.598657 0.435097 0.672533
  outer loop
   vertex 0.014092 0.101059 0.010076
   vertex 0.014592 0.10343 0.008097
   vertex 0.012182 0.103687 0.010076
  endloop
 endfacet
 facet normal 0.551379 0.584158 0.595601
  outer loop
   vertex 0.014592 0.10343 0.008097
   vertex 0.01255 0.105596 0.007863
   vertex 0.012182 0.103687 0.010076
  endloop
 endfacet
 facet normal 0.393627 0.662685 0.637108
  outer loop
   vertex 0.012182 0.103687 0.010076
   vertex 0.01255 0.105596 0.007863
   vertex 0.010038 0.105596 0.009415
  endloop
 endfacet
 facet normal 0.342493 0.758552 0.554344
  outer loop
   vertex 0.01255 0.105596 0.007863
   vertex 0.010474 0.106936 0.007312
   vertex 0.010038 0.105596 0.009415
  endloop
 endfacet
 facet normal -0.0482486 0.148392 0.987751
  outer loop
   vertex 0.008486 0.100819 0.012519
   vertex 0.005678 0.099906 0.012519
   vertex 0.00771 0.09843 0.01284
  endloop
 endfacet
 facet normal 0.0336945 0.400135 0.915836
  outer loop
   vertex 0.009335 0.10343 0.011347
   vertex 0.006328 0.102683 0.011784
   vertex 0.008486 0.100819 0.012519
  endloop
 endfacet
 facet normal 0.112009 0.640965 0.759354
  outer loop
   vertex 0.010038 0.105596 0.009415
   vertex 0.007182 0.105312 0.010076
   vertex 0.009335 0.10343 0.011347
  endloop
 endfacet
 facet normal -0.0891868 0.274301 0.957499
  outer loop
   vertex 0.008486 0.100819 0.012519
   vertex 0.006328 0.102683 0.011784
   vertex 0.005678 0.099906 0.012519
  endloop
 endfacet
 facet normal -0.262485 0.303841 0.915851
  outer loop
   vertex 0.006328 0.102683 0.011784
   vertex 0.003457 0.10152 0.011347
   vertex 0.005678 0.099906 0.012519
  endloop
 endfacet
 facet normal -0.0146149 0.548074 0.836302
  outer loop
   vertex 0.009335 0.10343 0.011347
   vertex 0.007182 0.105312 0.010076
   vertex 0.006328 0.102683 0.011784
  endloop
 endfacet
 facet normal -0.187559 0.577248 0.794737
  outer loop
   vertex 0.007182 0.105312 0.010076
   vertex 0.004092 0.104308 0.010076
   vertex 0.006328 0.102683 0.011784
  endloop
 endfacet
 facet normal -0.310374 0.451949 0.836307
  outer loop
   vertex 0.006328 0.102683 0.011784
   vertex 0.004092 0.104308 0.010076
   vertex 0.003457 0.10152 0.011347
  endloop
 endfacet
 facet normal -0.467426 0.452641 0.759361
  outer loop
   vertex 0.004092 0.104308 0.010076
   vertex 0.001615 0.102859 0.009415
   vertex 0.003457 0.10152 0.011347
  endloop
 endfacet
 facet normal 0.0710868 0.767617 0.636955
  outer loop
   vertex 0.010038 0.105596 0.009415
   vertex 0.008006 0.107072 0.007863
   vertex 0.007182 0.105312 0.010076
  endloop
 endfacet
 facet normal -0.102735 0.796801 0.595444
  outer loop
   vertex 0.008006 0.107072 0.007863
   vertex 0.005081 0.10652 0.008097
   vertex 0.007182 0.105312 0.010076
  endloop
 endfacet
 facet normal -0.228709 0.703897 0.672474
  outer loop
   vertex 0.007182 0.105312 0.010076
   vertex 0.005081 0.10652 0.008097
   vertex 0.004092 0.104308 0.010076
  endloop
 endfacet
 facet normal -0.38541 0.704977 0.595371
  outer loop
   vertex 0.005081 0.10652 0.008097
   vertex 0.002391 0.105247 0.007863
   vertex 0.004092 0.104308 0.010076
  endloop
 endfacet
 facet normal -0.508799 0.579247 0.636864
  outer loop
   vertex 0.004092 0.104308 0.010076
   vertex 0.002391 0.105247 0.007863
   vertex 0.001615 0.102859 0.009415
  endloop
 endfacet
 facet normal -0.61533 0.560308 0.554459
  outer loop
   vertex 0.002391 0.105247 0.007863
   vertex 0.000474 0.103687 0.007312
   vertex 0.001615 0.102859 0.009415
  endloop
 endfacet
 facet normal -0.156037 0 0.987751
  outer loop
   vertex 0.005678 0.099906 0.012519
   vertex 0.005678 0.096954 0.012519
   vertex 0.00771 0.09843 0.01284
  endloop
 endfacet
 facet normal -0.370096 0.155752 0.915844
  outer loop
   vertex 0.003457 0.10152 0.011347
   vertex 0.003238 0.09843 0.011784
   vertex 0.005678 0.099906 0.012519
  endloop
 endfacet
 facet normal -0.574948 0.304695 0.759339
  outer loop
   vertex 0.001615 0.102859 0.009415
   vertex 0.001002 0.100055 0.010076
   vertex 0.003457 0.10152 0.011347
  endloop
 endfacet
 facet normal -0.288428 0 0.957502
  outer loop
   vertex 0.005678 0.099906 0.012519
   vertex 0.003238 0.09843 0.011784
   vertex 0.005678 0.096954 0.012519
  endloop
 endfacet
 facet normal -0.370096 -0.155752 0.915844
  outer loop
   vertex 0.003238 0.09843 0.011784
   vertex 0.003457 0.09534 0.011347
   vertex 0.005678 0.096954 0.012519
  endloop
 endfacet
 facet normal -0.525774 0.155534 0.836284
  outer loop
   vertex 0.003457 0.10152 0.011347
   vertex 0.001002 0.100055 0.010076
   vertex 0.003238 0.09843 0.011784
  endloop
 endfacet
 facet normal -0.607028 0 0.794681
  outer loop
   vertex 0.001002 0.100055 0.010076
   vertex 0.001002 0.096805 0.010076
   vertex 0.003238 0.09843 0.011784
  endloop
 endfacet
 facet normal -0.525774 -0.155534 0.836284
  outer loop
   vertex 0.003238 0.09843 0.011784
   vertex 0.001002 0.096805 0.010076
   vertex 0.003457 0.09534 0.011347
  endloop
 endfacet
 facet normal -0.574948 -0.304695 0.759339
  outer loop
   vertex 0.001002 0.096805 0.010076
   vertex 0.001615 0.094001 0.009415
   vertex 0.003457 0.09534 0.011347
  endloop
 endfacet
 facet normal -0.708089 0.304936 0.636886
  outer loop
   vertex 0.001615 0.102859 0.009415
   vertex -0.000417 0.101382 0.007863
   vertex 0.001002 0.100055 0.010076
  endloop
 endfacet
 facet normal -0.789589 0.148568 0.59538
  outer loop
   vertex -0.000417 0.101382 0.007863
   vertex -0.000796 0.09843 0.008097
   vertex 0.001002 0.100055 0.010076
  endloop
 endfacet
 facet normal -0.740143 0 0.672449
  outer loop
   vertex 0.001002 0.100055 0.010076
   vertex -0.000796 0.09843 0.008097
   vertex 0.001002 0.096805 0.010076
  endloop
 endfacet
 facet normal -0.789589 -0.148568 0.59538
  outer loop
   vertex -0.000796 0.09843 0.008097
   vertex -0.000417 0.095478 0.007863
   vertex 0.001002 0.096805 0.010076
  endloop
 endfacet
 facet normal -0.708089 -0.304936 0.636886
  outer loop
   vertex 0.001002 0.096805 0.010076
   vertex -0.000417 0.095478 0.007863
   vertex 0.001615 0.094001 0.009415
  endloop
 endfacet
 facet normal -0.723015 -0.412034 0.554506
  outer loop
   vertex -0.000417 0.095478 0.007863
   vertex 0.000474 0.093173 0.007312
   vertex 0.001615 0.094001 0.009415
  endloop
 endfacet
 facet normal -0.0482486 -0.148392 0.987751
  outer loop
   vertex 0.005678 0.096954 0.012519
   vertex 0.008486 0.096041 0.012519
   vertex 0.00771 0.09843 0.01284
  endloop
 endfacet
 facet normal -0.262485 -0.303841 0.915851
  outer loop
   vertex 0.003457 0.09534 0.011347
   vertex 0.006328 0.094177 0.011784
   vertex 0.005678 0.096954 0.012519
  endloop
 endfacet
 facet normal -0.467426 -0.452641 0.759361
  outer loop
   vertex 0.001615 0.094001 0.009415
   vertex 0.004092 0.092552 0.010076
   vertex 0.003457 0.09534 0.011347
  endloop
 endfacet
 facet normal -0.0891868 -0.274301 0.957499
  outer loop
   vertex 0.005678 0.096954 0.012519
   vertex 0.006328 0.094177 0.011784
   vertex 0.008486 0.096041 0.012519
  endloop
 endfacet
 facet normal 0.0336945 -0.400135 0.915836
  outer loop
   vertex 0.006328 0.094177 0.011784
   vertex 0.009335 0.09343 0.011347
   vertex 0.008486 0.096041 0.012519
  endloop
 endfacet
 facet normal -0.310374 -0.451949 0.836307
  outer loop
   vertex 0.003457 0.09534 0.011347
   vertex 0.004092 0.092552 0.010076
   vertex 0.006328 0.094177 0.011784
  endloop
 endfacet
 facet normal -0.187559 -0.577248 0.794737
  outer loop
   vertex 0.004092 0.092552 0.010076
   vertex 0.007182 0.091548 0.010076
   vertex 0.006328 0.094177 0.011784
  endloop
 endfacet
 facet normal -0.0146149 -0.548074 0.836302
  outer loop
   vertex 0.006328 0.094177 0.011784
   vertex 0.007182 0.091548 0.010076
   vertex 0.009335 0.09343 0.011347
  endloop
 endfacet
 facet normal 0.112009 -0.640965 0.759354
  outer loop
   vertex 0.007182 0.091548 0.010076
   vertex 0.010038 0.091264 0.009415
   vertex 0.009335 0.09343 0.011347
  endloop
 endfacet
 facet normal -0.508799 -0.579247 0.636864
  outer loop
   vertex 0.001615 0.094001 0.009415
   vertex 0.002391 0.091613 0.007863
   vertex 0.004092 0.092552 0.010076
  endloop
 endfacet
 facet normal -0.38541 -0.704977 0.595371
  outer loop
   vertex 0.002391 0.091613 0.007863
   vertex 0.005081 0.09034 0.008097
   vertex 0.004092 0.092552 0.010076
  endloop
 endfacet
 facet normal -0.228709 -0.703897 0.672474
  outer loop
   vertex 0.004092 0.092552 0.010076
   vertex 0.005081 0.09034 0.008097
   vertex 0.007182 0.091548 0.010076
  endloop
 endfacet
 facet normal -0.102735 -0.796801 0.595444
  outer loop
   vertex 0.005081 0.09034 0.008097
   vertex 0.008006 0.089788 0.007863
   vertex 0.007182 0.091548 0.010076
  endloop
 endfacet
 facet normal 0.0710868 -0.767617 0.636955
  outer loop
   vertex 0.007182 0.091548 0.010076
   vertex 0.008006 0.089788 0.007863
   vertex 0.010038 0.091264 0.009415
  endloop
 endfacet
 facet normal 0.168666 -0.815046 0.554303
  outer loop
   vertex 0.008006 0.089788 0.007863
   vertex 0.010474 0.089924 0.007312
   vertex 0.010038 0.091264 0.009415
  endloop
 endfacet
 facet normal 0.126271 -0.0917039 0.987748
  outer loop
   vertex 0.008486 0.096041 0.012519
   vertex 0.010221 0.09843 0.012519
   vertex 0.00771 0.09843 0.01284
  endloop
 endfacet
 facet normal 0.207851 -0.343516 0.915858
  outer loop
   vertex 0.009335 0.09343 0.011347
   vertex 0.011328 0.095801 0.011784
   vertex 0.008486 0.096041 0.012519
  endloop
 endfacet
 facet normal 0.286233 -0.584386 0.759318
  outer loop
   vertex 0.010038 0.091264 0.009415
   vertex 0.012182 0.093173 0.010076
   vertex 0.009335 0.09343 0.011347
  endloop
 endfacet
 facet normal 0.233325 -0.169451 0.957521
  outer loop
   vertex 0.008486 0.096041 0.012519
   vertex 0.011328 0.095801 0.011784
   vertex 0.010221 0.09843 0.012519
  endloop
 endfacet
 facet normal 0.390899 -0.0914587 0.915878
  outer loop
   vertex 0.011328 0.095801 0.011784
   vertex 0.012967 0.09843 0.011347
   vertex 0.010221 0.09843 0.012519
  endloop
 endfacet
 facet normal 0.334054 -0.43492 0.836213
  outer loop
   vertex 0.009335 0.09343 0.011347
   vertex 0.012182 0.093173 0.010076
   vertex 0.011328 0.095801 0.011784
  endloop
 endfacet
 facet normal 0.491058 -0.356895 0.794662
  outer loop
   vertex 0.012182 0.093173 0.010076
   vertex 0.014092 0.095801 0.010076
   vertex 0.011328 0.095801 0.011784
  endloop
 endfacet
 facet normal 0.516783 -0.183167 0.836293
  outer loop
   vertex 0.011328 0.095801 0.011784
   vertex 0.014092 0.095801 0.010076
   vertex 0.012967 0.09843 0.011347
  endloop
 endfacet
 facet normal 0.644269 -0.0913996 0.759317
  outer loop
   vertex 0.014092 0.095801 0.010076
   vertex 0.015244 0.09843 0.009415
   vertex 0.012967 0.09843 0.011347
  endloop
 endfacet
 facet normal 0.393627 -0.662685 0.637108
  outer loop
   vertex 0.010038 0.091264 0.009415
   vertex 0.01255 0.091264 0.007863
   vertex 0.012182 0.093173 0.010076
  endloop
 endfacet
 facet normal 0.551379 -0.584158 0.595601
  outer loop
   vertex 0.01255 0.091264 0.007863
   vertex 0.014592 0.09343 0.008097
   vertex 0.012182 0.093173 0.010076
  endloop
 endfacet
 facet normal 0.598657 -0.435097 0.672533
  outer loop
   vertex 0.012182 0.093173 0.010076
   vertex 0.014592 0.09343 0.008097
   vertex 0.014092 0.095801 0.010076
  endloop
 endfacet
 facet normal 0.725985 -0.343961 0.595514
  outer loop
   vertex 0.014592 0.09343 0.008097
   vertex 0.016021 0.096041 0.007863
   vertex 0.014092 0.095801 0.010076
  endloop
 endfacet
 facet normal 0.751958 -0.169318 0.637095
  outer loop
   vertex 0.014092 0.095801 0.010076
   vertex 0.016021 0.096041 0.007863
   vertex 0.015244 0.09843 0.009415
  endloop
 endfacet
 facet normal 0.827124 -0.091254 0.554562
  outer loop
   vertex 0.016021 0.096041 0.007863
   vertex 0.016654 0.09843 0.007312
   vertex 0.015244 0.09843 0.009415
  endloop
 endfacet
 facet normal 0.905177 0.147939 0.398459
  outer loop
   vertex 0.017276 0.099906 0.005351
   vertex 0.016021 0.100819 0.007863
   vertex 0.016654 0.09843 0.007312
  endloop
 endfacet
 facet normal 0.93657 0.303801 0.17476
  outer loop
   vertex 0.017221 0.10152 0.00284
   vertex 0.016328 0.102683 0.005604
   vertex 0.017276 0.099906 0.005351
  endloop
 endfacet
 facet normal 0.888212 0.452708 -0.078331
  outer loop
   vertex 0.016317 0.102859 0.000328
   vertex 0.0158 0.104308 0.00284
   vertex 0.017221 0.10152 0.00284
  endloop
 endfacet
 facet normal 0.89641 0.274294 0.348155
  outer loop
   vertex 0.017276 0.099906 0.005351
   vertex 0.016328 0.102683 0.005604
   vertex 0.016021 0.100819 0.007863
  endloop
 endfacet
 facet normal 0.803858 0.400541 0.439749
  outer loop
   vertex 0.016328 0.102683 0.005604
   vertex 0.014592 0.10343 0.008097
   vertex 0.016021 0.100819 0.007863
  endloop
 endfacet
 facet normal 0.886806 0.451991 0.0963284
  outer loop
   vertex 0.017221 0.10152 0.00284
   vertex 0.0158 0.104308 0.00284
   vertex 0.016328 0.102683 0.005604
  endloop
 endfacet
 facet normal 0.794662 0.577331 0.18762
  outer loop
   vertex 0.0158 0.104308 0.00284
   vertex 0.014418 0.105312 0.005604
   vertex 0.016328 0.102683 0.005604
  endloop
 endfacet
 facet normal 0.754436 0.548107 0.361117
  outer loop
   vertex 0.016328 0.102683 0.005604
   vertex 0.014418 0.105312 0.005604
   vertex 0.014592 0.10343 0.008097
  endloop
 endfacet
 facet normal 0.629279 0.640767 0.439803
  outer loop
   vertex 0.014418 0.105312 0.005604
   vertex 0.01255 0.105596 0.007863
   vertex 0.014592 0.10343 0.008097
  endloop
 endfacet
 facet normal 0.797233 0.579229 -0.170037
  outer loop
   vertex 0.016317 0.102859 0.000328
   vertex 0.014582 0.105247 0.000328
   vertex 0.0158 0.104308 0.00284
  endloop
 endfacet
 facet normal 0.704936 0.704936 -0.0782949
  outer loop
   vertex 0.014582 0.105247 0.000328
   vertex 0.013588 0.10652 0.00284
   vertex 0.0158 0.104308 0.00284
  endloop
 endfacet
 facet normal 0.703824 0.703824 0.0962537
  outer loop
   vertex 0.0158 0.104308 0.00284
   vertex 0.013588 0.10652 0.00284
   vertex 0.014418 0.105312 0.005604
  endloop
 endfacet
 facet normal 0.578519 0.796783 0.174509
  outer loop
   vertex 0.013588 0.10652 0.00284
   vertex 0.01207 0.107072 0.005352
   vertex 0.014418 0.105312 0.005604
  endloop
 endfacet
 facet normal 0.537986 0.767602 0.348366
  outer loop
   vertex 0.014418 0.105312 0.005604
   vertex 0.01207 0.107072 0.005352
   vertex 0.01255 0.105596 0.007863
  endloop
 endfacet
 facet normal 0.420269 0.815078 0.398776
  outer loop
   vertex 0.01207 0.107072 0.005352
   vertex 0.010474 0.106936 0.007312
   vertex 0.01255 0.105596 0.007863
  endloop
 endfacet
 facet normal 0.138975 0.90647 0.398746
  outer loop
   vertex 0.009262 0.107984 0.005352
   vertex 0.008006 0.107072 0.007863
   vertex 0.010474 0.106936 0.007312
  endloop
 endfacet
 facet normal 0.000555151 0.98466 0.174481
  outer loop
   vertex 0.00771 0.10843 0.00284
   vertex 0.006328 0.107941 0.005604
   vertex 0.009262 0.107984 0.005352
  endloop
 endfacet
 facet normal -0.155824 0.984657 -0.07855
  outer loop
   vertex 0.006158 0.107984 0.000328
   vertex 0.00462 0.107941 0.00284
   vertex 0.00771 0.10843 0.00284
  endloop
 endfacet
 facet normal 0.0161962 0.937175 0.348485
  outer loop
   vertex 0.009262 0.107984 0.005352
   vertex 0.006328 0.107941 0.005604
   vertex 0.008006 0.107072 0.007863
  endloop
 endfacet
 facet normal -0.132412 0.888171 0.440021
  outer loop
   vertex 0.006328 0.107941 0.005604
   vertex 0.005081 0.10652 0.008097
   vertex 0.008006 0.107072 0.007863
  endloop
 endfacet
 facet normal -0.155583 0.983133 0.0961419
  outer loop
   vertex 0.00771 0.10843 0.00284
   vertex 0.00462 0.107941 0.00284
   vertex 0.006328 0.107941 0.005604
  endloop
 endfacet
 facet normal -0.303796 0.934059 0.187729
  outer loop
   vertex 0.00462 0.107941 0.00284
   vertex 0.003238 0.106936 0.005604
   vertex 0.006328 0.107941 0.005604
  endloop
 endfacet
 facet normal -0.288415 0.886769 0.361189
  outer loop
   vertex 0.006328 0.107941 0.005604
   vertex 0.003238 0.106936 0.005604
   vertex 0.005081 0.10652 0.008097
  endloop
 endfacet
 facet normal -0.415138 0.796394 0.439791
  outer loop
   vertex 0.003238 0.106936 0.005604
   vertex 0.002391 0.105247 0.007863
   vertex 0.005081 0.10652 0.008097
  endloop
 endfacet
 facet normal -0.304389 0.937197 -0.170322
  outer loop
   vertex 0.006158 0.107984 0.000328
   vertex 0.00335 0.107072 0.000328
   vertex 0.00462 0.107941 0.00284
  endloop
 endfacet
 facet normal -0.452705 0.888208 -0.0783901
  outer loop
   vertex 0.00335 0.107072 0.000328
   vertex 0.001832 0.10652 0.00284
   vertex 0.00462 0.107941 0.00284
  endloop
 endfacet
 facet normal -0.451986 0.886796 0.0964489
  outer loop
   vertex 0.00462 0.107941 0.00284
   vertex 0.001832 0.10652 0.00284
   vertex 0.003238 0.106936 0.005604
  endloop
 endfacet
 facet normal -0.578874 0.796508 0.174584
  outer loop
   vertex 0.001832 0.10652 0.00284
   vertex 0.000838 0.105247 0.005352
   vertex 0.003238 0.106936 0.005604
  endloop
 endfacet
 facet normal -0.563623 0.748876 0.348589
  outer loop
   vertex 0.003238 0.106936 0.005604
   vertex 0.000838 0.105247 0.005352
   vertex 0.002391 0.105247 0.007863
  endloop
 endfacet
 facet normal -0.645038 0.651744 0.398942
  outer loop
   vertex 0.000838 0.105247 0.005352
   vertex 0.000474 0.103687 0.007312
   vertex 0.002391 0.105247 0.007863
  endloop
 endfacet
 facet normal -0.819189 0.412026 0.398954
  outer loop
   vertex -0.000897 0.102859 0.005352
   vertex -0.000417 0.101382 0.007863
   vertex 0.000474 0.103687 0.007312
  endloop
 endfacet
 facet normal -0.936352 0.304548 0.174631
  outer loop
   vertex -0.001801 0.10152 0.00284
   vertex -0.001762 0.100055 0.005604
   vertex -0.000897 0.102859 0.005352
  endloop
 endfacet
 facet normal -0.984653 0.155824 -0.0785916
  outer loop
   vertex -0.001856 0.099906 0.000329
   vertex -0.00229 0.09843 0.00284
   vertex -0.001801 0.10152 0.00284
  endloop
 endfacet
 facet normal -0.886309 0.304753 0.348685
  outer loop
   vertex -0.000897 0.102859 0.005352
   vertex -0.001762 0.100055 0.005604
   vertex -0.000417 0.101382 0.007863
  endloop
 endfacet
 facet normal -0.885615 0.148581 0.440011
  outer loop
   vertex -0.001762 0.100055 0.005604
   vertex -0.000796 0.09843 0.008097
   vertex -0.000417 0.101382 0.007863
  endloop
 endfacet
 facet normal -0.983115 0.15558 0.0963335
  outer loop
   vertex -0.001801 0.10152 0.00284
   vertex -0.00229 0.09843 0.00284
   vertex -0.001762 0.100055 0.005604
  endloop
 endfacet
 facet normal -0.982239 0 0.187634
  outer loop
   vertex -0.00229 0.09843 0.00284
   vertex -0.001762 0.096805 0.005604
   vertex -0.001762 0.100055 0.005604
  endloop
 endfacet
 facet normal -0.932446 0 0.361309
  outer loop
   vertex -0.001762 0.100055 0.005604
   vertex -0.001762 0.096805 0.005604
   vertex -0.000796 0.09843 0.008097
  endloop
 endfacet
 facet normal -0.885615 -0.148581 0.440011
  outer loop
   vertex -0.001762 0.096805 0.005604
   vertex -0.000417 0.095478 0.007863
   vertex -0.000796 0.09843 0.008097
  endloop
 endfacet
 facet normal -0.98539 -0 -0.170314
  outer loop
   vertex -0.001856 0.099906 0.000329
   vertex -0.001856 0.096954 0.000329
   vertex -0.00229 0.09843 0.00284
  endloop
 endfacet
 facet normal -0.984653 -0.155824 -0.0785916
  outer loop
   vertex -0.001856 0.096954 0.000329
   vertex -0.001801 0.09534 0.00284
   vertex -0.00229 0.09843 0.00284
  endloop
 endfacet
 facet normal -0.983115 -0.15558 0.0963335
  outer loop
   vertex -0.00229 0.09843 0.00284
   vertex -0.001801 0.09534 0.00284
   vertex -0.001762 0.096805 0.005604
  endloop
 endfacet
 facet normal -0.936352 -0.304548 0.174631
  outer loop
   vertex -0.001801 0.09534 0.00284
   vertex -0.000897 0.094001 0.005352
   vertex -0.001762 0.096805 0.005604
  endloop
 endfacet
 facet normal -0.886309 -0.304753 0.348685
  outer loop
   vertex -0.001762 0.096805 0.005604
   vertex -0.000897 0.094001 0.005352
   vertex -0.000417 0.095478 0.007863
  endloop
 endfacet
 facet normal -0.819189 -0.412026 0.398954
  outer loop
   vertex -0.000897 0.094001 0.005352
   vertex 0.000474 0.093173 0.007312
   vertex -0.000417 0.095478 0.007863
  endloop
 endfacet
 facet normal -0.645038 -0.651744 0.398942
  outer loop
   vertex 0.000838 0.091613 0.005352
   vertex 0.002391 0.091613 0.007863
   vertex 0.000474 0.093173 0.007312
  endloop
 endfacet
 facet normal -0.578874 -0.796508 0.174584
  outer loop
   vertex 0.001832 0.09034 0.00284
   vertex 0.003238 0.089924 0.005604
   vertex 0.000838 0.091613 0.005352
  endloop
 endfacet
 facet normal -0.452705 -0.888208 -0.0783901
  outer loop
   vertex 0.00335 0.089788 0.000328
   vertex 0.00462 0.088919 0.00284
   vertex 0.001832 0.09034 0.00284
  endloop
 endfacet
 facet normal -0.563623 -0.748876 0.348589
  outer loop
   vertex 0.000838 0.091613 0.005352
   vertex 0.003238 0.089924 0.005604
   vertex 0.002391 0.091613 0.007863
  endloop
 endfacet
 facet normal -0.415138 -0.796394 0.439791
  outer loop
   vertex 0.003238 0.089924 0.005604
   vertex 0.005081 0.09034 0.008097
   vertex 0.002391 0.091613 0.007863
  endloop
 endfacet
 facet normal -0.451986 -0.886796 0.0964489
  outer loop
   vertex 0.001832 0.09034 0.00284
   vertex 0.00462 0.088919 0.00284
   vertex 0.003238 0.089924 0.005604
  endloop
 endfacet
 facet normal -0.303796 -0.934059 0.187729
  outer loop
   vertex 0.00462 0.088919 0.00284
   vertex 0.006328 0.088919 0.005604
   vertex 0.003238 0.089924 0.005604
  endloop
 endfacet
 facet normal -0.288415 -0.886769 0.361189
  outer loop
   vertex 0.003238 0.089924 0.005604
   vertex 0.006328 0.088919 0.005604
   vertex 0.005081 0.09034 0.008097
  endloop
 endfacet
 facet normal -0.132412 -0.888171 0.440021
  outer loop
   vertex 0.006328 0.088919 0.005604
   vertex 0.008006 0.089788 0.007863
   vertex 0.005081 0.09034 0.008097
  endloop
 endfacet
 facet normal -0.304389 -0.937197 -0.170322
  outer loop
   vertex 0.00335 0.089788 0.000328
   vertex 0.006158 0.088876 0.000328
   vertex 0.00462 0.088919 0.00284
  endloop
 endfacet
 facet normal -0.155824 -0.984657 -0.07855
  outer loop
   vertex 0.006158 0.088876 0.000328
   vertex 0.00771 0.08843 0.00284
   vertex 0.00462 0.088919 0.00284
  endloop
 endfacet
 facet normal -0.155583 -0.983133 0.0961419
  outer loop
   vertex 0.00462 0.088919 0.00284
   vertex 0.00771 0.08843 0.00284
   vertex 0.006328 0.088919 0.005604
  endloop
 endfacet
 facet normal 0.000555151 -0.98466 0.174481
  outer loop
   vertex 0.00771 0.08843 0.00284
   vertex 0.009262 0.088876 0.005352
   vertex 0.006328 0.088919 0.005604
  endloop
 endfacet
 facet normal 0.0161962 -0.937175 0.348485
  outer loop
   vertex 0.006328 0.088919 0.005604
   vertex 0.009262 0.088876 0.005352
   vertex 0.008006 0.089788 0.007863
  endloop
 endfacet
 facet normal 0.138975 -0.90647 0.398746
  outer loop
   vertex 0.009262 0.088876 0.005352
   vertex 0.010474 0.089924 0.007312
   vertex 0.008006 0.089788 0.007863
  endloop
 endfacet
 facet normal 0.420269 -0.815078 0.398776
  outer loop
   vertex 0.01207 0.089788 0.005352
   vertex 0.01255 0.091264 0.007863
   vertex 0.010474 0.089924 0.007312
  endloop
 endfacet
 facet normal 0.578519 -0.796783 0.174509
  outer loop
   vertex 0.013588 0.09034 0.00284
   vertex 0.014418 0.091548 0.005604
   vertex 0.01207 0.089788 0.005352
  endloop
 endfacet
 facet normal 0.704936 -0.704936 -0.0782949
  outer loop
   vertex 0.014582 0.091613 0.000328
   vertex 0.0158 0.092552 0.00284
   vertex 0.013588 0.09034 0.00284
  endloop
 endfacet
 facet normal 0.537986 -0.767602 0.348366
  outer loop
   vertex 0.01207 0.089788 0.005352
   vertex 0.014418 0.091548 0.005604
   vertex 0.01255 0.091264 0.007863
  endloop
 endfacet
 facet normal 0.629279 -0.640767 0.439803
  outer loop
   vertex 0.014418 0.091548 0.005604
   vertex 0.014592 0.09343 0.008097
   vertex 0.01255 0.091264 0.007863
  endloop
 endfacet
 facet normal 0.703824 -0.703824 0.0962537
  outer loop
   vertex 0.013588 0.09034 0.00284
   vertex 0.0158 0.092552 0.00284
   vertex 0.014418 0.091548 0.005604
  endloop
 endfacet
 facet normal 0.794662 -0.577331 0.18762
  outer loop
   vertex 0.0158 0.092552 0.00284
   vertex 0.016328 0.094177 0.005604
   vertex 0.014418 0.091548 0.005604
  endloop
 endfacet
 facet normal 0.754436 -0.548107 0.361117
  outer loop
   vertex 0.014418 0.091548 0.005604
   vertex 0.016328 0.094177 0.005604
   vertex 0.014592 0.09343 0.008097
  endloop
 endfacet
 facet normal 0.803858 -0.400541 0.439749
  outer loop
   vertex 0.016328 0.094177 0.005604
   vertex 0.016021 0.096041 0.007863
   vertex 0.014592 0.09343 0.008097
  endloop
 endfacet
 facet normal 0.797233 -0.579229 -0.170037
  outer loop
   vertex 0.014582 0.091613 0.000328
   vertex 0.016317 0.094001 0.000328
   vertex 0.0158 0.092552 0.00284
  endloop
 endfacet
 facet normal 0.888212 -0.452708 -0.078331
  outer loop
   vertex 0.016317 0.094001 0.000328
   vertex 0.017221 0.09534 0.00284
   vertex 0.0158 0.092552 0.00284
  endloop
 endfacet
 facet normal 0.886806 -0.451991 0.0963284
  outer loop
   vertex 0.0158 0.092552 0.00284
   vertex 0.017221 0.09534 0.00284
   vertex 0.016328 0.094177 0.005604
  endloop
 endfacet
 facet normal 0.93657 -0.303801 0.17476
  outer loop
   vertex 0.017221 0.09534 0.00284
   vertex 0.017276 0.096954 0.005351
   vertex 0.016328 0.094177 0.005604
  endloop
 endfacet
 facet normal 0.89641 -0.274294 0.348155
  outer loop
   vertex 0.016328 0.094177 0.005604
   vertex 0.017276 0.096954 0.005351
   vertex 0.016021 0.096041 0.007863
  endloop
 endfacet
 facet normal 0.905177 -0.147939 0.398459
  outer loop
   vertex 0.017276 0.096954 0.005351
   vertex 0.016654 0.09843 0.007312
   vertex 0.016021 0.096041 0.007863
  endloop
 endfacet
 facet normal 0.294416 0.906493 0.302638
  outer loop
   vertex 0.01207 0.107072 0.005352
   vertex 0.009262 0.107984 0.005352
   vertex 0.010474 0.106936 0.007312
  endloop
 endfacet
 facet normal 0.452705 0.888208 0.0783901
  outer loop
   vertex 0.013588 0.10652 0.00284
   vertex 0.0108 0.107941 0.00284
   vertex 0.01207 0.107072 0.005352
  endloop
 endfacet
 facet normal 0.578874 0.796508 -0.174584
  outer loop
   vertex 0.014582 0.105247 0.000328
   vertex 0.012182 0.106936 7.59999e-05
   vertex 0.013588 0.10652 0.00284
  endloop
 endfacet
 facet normal 0.304389 0.937197 0.170322
  outer loop
   vertex 0.01207 0.107072 0.005352
   vertex 0.0108 0.107941 0.00284
   vertex 0.009262 0.107984 0.005352
  endloop
 endfacet
 facet normal 0.155824 0.984657 0.07855
  outer loop
   vertex 0.0108 0.107941 0.00284
   vertex 0.00771 0.10843 0.00284
   vertex 0.009262 0.107984 0.005352
  endloop
 endfacet
 facet normal 0.451986 0.886796 -0.0964489
  outer loop
   vertex 0.013588 0.10652 0.00284
   vertex 0.012182 0.106936 7.59999e-05
   vertex 0.0108 0.107941 0.00284
  endloop
 endfacet
 facet normal 0.303796 0.934059 -0.187729
  outer loop
   vertex 0.012182 0.106936 7.59999e-05
   vertex 0.009092 0.107941 7.59999e-05
   vertex 0.0108 0.107941 0.00284
  endloop
 endfacet
 facet normal 0.155583 0.983133 -0.0961419
  outer loop
   vertex 0.0108 0.107941 0.00284
   vertex 0.009092 0.107941 7.59999e-05
   vertex 0.00771 0.10843 0.00284
  endloop
 endfacet
 facet normal -0.000555151 0.98466 -0.174481
  outer loop
   vertex 0.009092 0.107941 7.59999e-05
   vertex 0.006158 0.107984 0.000328
   vertex 0.00771 0.10843 0.00284
  endloop
 endfacet
 facet normal 0.563623 0.748876 -0.348589
  outer loop
   vertex 0.014582 0.105247 0.000328
   vertex 0.013029 0.105247 -0.002183
   vertex 0.012182 0.106936 7.59999e-05
  endloop
 endfacet
 facet normal 0.415138 0.796394 -0.439791
  outer loop
   vertex 0.013029 0.105247 -0.002183
   vertex 0.010339 0.10652 -0.002417
   vertex 0.012182 0.106936 7.59999e-05
  endloop
 endfacet
 facet normal 0.288415 0.886769 -0.361189
  outer loop
   vertex 0.012182 0.106936 7.59999e-05
   vertex 0.010339 0.10652 -0.002417
   vertex 0.009092 0.107941 7.59999e-05
  endloop
 endfacet
 facet normal 0.132412 0.888171 -0.440021
  outer loop
   vertex 0.010339 0.10652 -0.002417
   vertex 0.007414 0.107072 -0.002183
   vertex 0.009092 0.107941 7.59999e-05
  endloop
 endfacet
 facet normal -0.0161962 0.937175 -0.348485
  outer loop
   vertex 0.009092 0.107941 7.59999e-05
   vertex 0.007414 0.107072 -0.002183
   vertex 0.006158 0.107984 0.000328
  endloop
 endfacet
 facet normal -0.138975 0.90647 -0.398746
  outer loop
   vertex 0.007414 0.107072 -0.002183
   vertex 0.004946 0.106936 -0.001632
   vertex 0.006158 0.107984 0.000328
  endloop
 endfacet
 facet normal -0.771063 0.560215 0.302688
  outer loop
   vertex 0.000838 0.105247 0.005352
   vertex -0.000897 0.102859 0.005352
   vertex 0.000474 0.103687 0.007312
  endloop
 endfacet
 facet normal -0.704936 0.704936 0.0782949
  outer loop
   vertex 0.001832 0.10652 0.00284
   vertex -0.00038 0.104308 0.00284
   vertex 0.000838 0.105247 0.005352
  endloop
 endfacet
 facet normal -0.578519 0.796783 -0.174509
  outer loop
   vertex 0.00335 0.107072 0.000328
   vertex 0.001002 0.105312 7.59999e-05
   vertex 0.001832 0.10652 0.00284
  endloop
 endfacet
 facet normal -0.797233 0.579229 0.170037
  outer loop
   vertex 0.000838 0.105247 0.005352
   vertex -0.00038 0.104308 0.00284
   vertex -0.000897 0.102859 0.005352
  endloop
 endfacet
 facet normal -0.888212 0.452708 0.078331
  outer loop
   vertex -0.00038 0.104308 0.00284
   vertex -0.001801 0.10152 0.00284
   vertex -0.000897 0.102859 0.005352
  endloop
 endfacet
 facet normal -0.703824 0.703824 -0.0962537
  outer loop
   vertex 0.001832 0.10652 0.00284
   vertex 0.001002 0.105312 7.59999e-05
   vertex -0.00038 0.104308 0.00284
  endloop
 endfacet
 facet normal -0.794662 0.577331 -0.18762
  outer loop
   vertex 0.001002 0.105312 7.59999e-05
   vertex -0.000908 0.102683 7.59999e-05
   vertex -0.00038 0.104308 0.00284
  endloop
 endfacet
 facet normal -0.886806 0.451991 -0.0963284
  outer loop
   vertex -0.00038 0.104308 0.00284
   vertex -0.000908 0.102683 7.59999e-05
   vertex -0.001801 0.10152 0.00284
  endloop
 endfacet
 facet normal -0.93657 0.303801 -0.17476
  outer loop
   vertex -0.000908 0.102683 7.59999e-05
   vertex -0.001856 0.099906 0.000329
   vertex -0.001801 0.10152 0.00284
  endloop
 endfacet
 facet normal -0.537986 0.767602 -0.348366
  outer loop
   vertex 0.00335 0.107072 0.000328
   vertex 0.00287 0.105596 -0.002183
   vertex 0.001002 0.105312 7.59999e-05
  endloop
 endfacet
 facet normal -0.629279 0.640767 -0.439803
  outer loop
   vertex 0.00287 0.105596 -0.002183
   vertex 0.000828 0.10343 -0.002417
   vertex 0.001002 0.105312 7.59999e-05
  endloop
 endfacet
 facet normal -0.754436 0.548107 -0.361117
  outer loop
   vertex 0.001002 0.105312 7.59999e-05
   vertex 0.000828 0.10343 -0.002417
   vertex -0.000908 0.102683 7.59999e-05
  endloop
 endfacet
 facet normal -0.803858 0.400541 -0.439749
  outer loop
   vertex 0.000828 0.10343 -0.002417
   vertex -0.000601 0.100819 -0.002183
   vertex -0.000908 0.102683 7.59999e-05
  endloop
 endfacet
 facet normal -0.89641 0.274294 -0.348155
  outer loop
   vertex -0.000908 0.102683 7.59999e-05
   vertex -0.000601 0.100819 -0.002183
   vertex -0.001856 0.099906 0.000329
  endloop
 endfacet
 facet normal -0.905177 0.147939 -0.398459
  outer loop
   vertex -0.000601 0.100819 -0.002183
   vertex -0.001234 0.09843 -0.001632
   vertex -0.001856 0.099906 0.000329
  endloop
 endfacet
 facet normal -0.771063 -0.560215 0.302688
  outer loop
   vertex -0.000897 0.094001 0.005352
   vertex 0.000838 0.091613 0.005352
   vertex 0.000474 0.093173 0.007312
  endloop
 endfacet
 facet normal -0.888212 -0.452708 0.078331
  outer loop
   vertex -0.001801 0.09534 0.00284
   vertex -0.00038 0.092552 0.00284
   vertex -0.000897 0.094001 0.005352
  endloop
 endfacet
 facet normal -0.93657 -0.303801 -0.17476
  outer loop
   vertex -0.001856 0.096954 0.000329
   vertex -0.000908 0.094177 7.59999e-05
   vertex -0.001801 0.09534 0.00284
  endloop
 endfacet
 facet normal -0.797233 -0.579229 0.170037
  outer loop
   vertex -0.000897 0.094001 0.005352
   vertex -0.00038 0.092552 0.00284
   vertex 0.000838 0.091613 0.005352
  endloop
 endfacet
 facet normal -0.704936 -0.704936 0.0782949
  outer loop
   vertex -0.00038 0.092552 0.00284
   vertex 0.001832 0.09034 0.00284
   vertex 0.000838 0.091613 0.005352
  endloop
 endfacet
 facet normal -0.886806 -0.451991 -0.0963284
  outer loop
   vertex -0.001801 0.09534 0.00284
   vertex -0.000908 0.094177 7.59999e-05
   vertex -0.00038 0.092552 0.00284
  endloop
 endfacet
 facet normal -0.794662 -0.577331 -0.18762
  outer loop
   vertex -0.000908 0.094177 7.59999e-05
   vertex 0.001002 0.091548 7.59999e-05
   vertex -0.00038 0.092552 0.00284
  endloop
 endfacet
 facet normal -0.703824 -0.703824 -0.0962537
  outer loop
   vertex -0.00038 0.092552 0.00284
   vertex 0.001002 0.091548 7.59999e-05
   vertex 0.001832 0.09034 0.00284
  endloop
 endfacet
 facet normal -0.578519 -0.796783 -0.174509
  outer loop
   vertex 0.001002 0.091548 7.59999e-05
   vertex 0.00335 0.089788 0.000328
   vertex 0.001832 0.09034 0.00284
  endloop
 endfacet
 facet normal -0.89641 -0.274294 -0.348155
  outer loop
   vertex -0.001856 0.096954 0.000329
   vertex -0.000601 0.096041 -0.002183
   vertex -0.000908 0.094177 7.59999e-05
  endloop
 endfacet
 facet normal -0.803858 -0.400541 -0.439749
  outer loop
   vertex -0.000601 0.096041 -0.002183
   vertex 0.000828 0.09343 -0.002417
   vertex -0.000908 0.094177 7.59999e-05
  endloop
 endfacet
 facet normal -0.754436 -0.548107 -0.361117
  outer loop
   vertex -0.000908 0.094177 7.59999e-05
   vertex 0.000828 0.09343 -0.002417
   vertex 0.001002 0.091548 7.59999e-05
  endloop
 endfacet
 facet normal -0.629279 -0.640767 -0.439803
  outer loop
   vertex 0.000828 0.09343 -0.002417
   vertex 0.00287 0.091264 -0.002183
   vertex 0.001002 0.091548 7.59999e-05
  endloop
 endfacet
 facet normal -0.537986 -0.767602 -0.348366
  outer loop
   vertex 0.001002 0.091548 7.59999e-05
   vertex 0.00287 0.091264 -0.002183
   vertex 0.00335 0.089788 0.000328
  endloop
 endfacet
 facet normal -0.420269 -0.815078 -0.398776
  outer loop
   vertex 0.00287 0.091264 -0.002183
   vertex 0.004946 0.089924 -0.001632
   vertex 0.00335 0.089788 0.000328
  endloop
 endfacet
 facet normal 0.294416 -0.906493 0.302638
  outer loop
   vertex 0.009262 0.088876 0.005352
   vertex 0.01207 0.089788 0.005352
   vertex 0.010474 0.089924 0.007312
  endloop
 endfacet
 facet normal 0.155824 -0.984657 0.07855
  outer loop
   vertex 0.00771 0.08843 0.00284
   vertex 0.0108 0.088919 0.00284
   vertex 0.009262 0.088876 0.005352
  endloop
 endfacet
 facet normal -0.000555151 -0.98466 -0.174481
  outer loop
   vertex 0.006158 0.088876 0.000328
   vertex 0.009092 0.088919 7.59999e-05
   vertex 0.00771 0.08843 0.00284
  endloop
 endfacet
 facet normal 0.304389 -0.937197 0.170322
  outer loop
   vertex 0.009262 0.088876 0.005352
   vertex 0.0108 0.088919 0.00284
   vertex 0.01207 0.089788 0.005352
  endloop
 endfacet
 facet normal 0.452705 -0.888208 0.0783901
  outer loop
   vertex 0.0108 0.088919 0.00284
   vertex 0.013588 0.09034 0.00284
   vertex 0.01207 0.089788 0.005352
  endloop
 endfacet
 facet normal 0.155583 -0.983133 -0.0961419
  outer loop
   vertex 0.00771 0.08843 0.00284
   vertex 0.009092 0.088919 7.59999e-05
   vertex 0.0108 0.088919 0.00284
  endloop
 endfacet
 facet normal 0.303796 -0.934059 -0.187729
  outer loop
   vertex 0.009092 0.088919 7.59999e-05
   vertex 0.012182 0.089924 7.59999e-05
   vertex 0.0108 0.088919 0.00284
  endloop
 endfacet
 facet normal 0.451986 -0.886796 -0.0964489
  outer loop
   vertex 0.0108 0.088919 0.00284
   vertex 0.012182 0.089924 7.59999e-05
   vertex 0.013588 0.09034 0.00284
  endloop
 endfacet
 facet normal 0.578874 -0.796508 -0.174584
  outer loop
   vertex 0.012182 0.089924 7.59999e-05
   vertex 0.014582 0.091613 0.000328
   vertex 0.013588 0.09034 0.00284
  endloop
 endfacet
 facet normal -0.0161962 -0.937175 -0.348485
  outer loop
   vertex 0.006158 0.088876 0.000328
   vertex 0.007414 0.089788 -0.002183
   vertex 0.009092 0.088919 7.59999e-05
  endloop
 endfacet
 facet normal 0.132412 -0.888171 -0.440021
  outer loop
   vertex 0.007414 0.089788 -0.002183
   vertex 0.010339 0.09034 -0.002417
   vertex 0.009092 0.088919 7.59999e-05
  endloop
 endfacet
 facet normal 0.288415 -0.886769 -0.361189
  outer loop
   vertex 0.009092 0.088919 7.59999e-05
   vertex 0.010339 0.09034 -0.002417
   vertex 0.012182 0.089924 7.59999e-05
  endloop
 endfacet
 facet normal 0.415138 -0.796394 -0.439791
  outer loop
   vertex 0.010339 0.09034 -0.002417
   vertex 0.013029 0.091613 -0.002183
   vertex 0.012182 0.089924 7.59999e-05
  endloop
 endfacet
 facet normal 0.563623 -0.748876 -0.348589
  outer loop
   vertex 0.012182 0.089924 7.59999e-05
   vertex 0.013029 0.091613 -0.002183
   vertex 0.014582 0.091613 0.000328
  endloop
 endfacet
 facet normal 0.645038 -0.651744 -0.398942
  outer loop
   vertex 0.013029 0.091613 -0.002183
   vertex 0.014946 0.093173 -0.001632
   vertex 0.014582 0.091613 0.000328
  endloop
 endfacet
 facet normal 0.9532 -0 0.302341
  outer loop
   vertex 0.017276 0.096954 0.005351
   vertex 0.017276 0.099906 0.005351
   vertex 0.016654 0.09843 0.007312
  endloop
 endfacet
 facet normal 0.984653 -0.155824 0.0785916
  outer loop
   vertex 0.017221 0.09534 0.00284
   vertex 0.01771 0.09843 0.00284
   vertex 0.017276 0.096954 0.005351
  endloop
 endfacet
 facet normal 0.936352 -0.304548 -0.174631
  outer loop
   vertex 0.016317 0.094001 0.000328
   vertex 0.017182 0.096805 7.59999e-05
   vertex 0.017221 0.09534 0.00284
  endloop
 endfacet
 facet normal 0.98539 -0 0.170314
  outer loop
   vertex 0.017276 0.096954 0.005351
   vertex 0.01771 0.09843 0.00284
   vertex 0.017276 0.099906 0.005351
  endloop
 endfacet
 facet normal 0.984653 0.155824 0.0785916
  outer loop
   vertex 0.01771 0.09843 0.00284
   vertex 0.017221 0.10152 0.00284
   vertex 0.017276 0.099906 0.005351
  endloop
 endfacet
 facet normal 0.983115 -0.15558 -0.0963335
  outer loop
   vertex 0.017221 0.09534 0.00284
   vertex 0.017182 0.096805 7.59999e-05
   vertex 0.01771 0.09843 0.00284
  endloop
 endfacet
 facet normal 0.982239 0 -0.187634
  outer loop
   vertex 0.017182 0.096805 7.59999e-05
   vertex 0.017182 0.100055 7.59999e-05
   vertex 0.01771 0.09843 0.00284
  endloop
 endfacet
 facet normal 0.983115 0.15558 -0.0963335
  outer loop
   vertex 0.01771 0.09843 0.00284
   vertex 0.017182 0.100055 7.59999e-05
   vertex 0.017221 0.10152 0.00284
  endloop
 endfacet
 facet normal 0.936352 0.304548 -0.174631
  outer loop
   vertex 0.017182 0.100055 7.59999e-05
   vertex 0.016317 0.102859 0.000328
   vertex 0.017221 0.10152 0.00284
  endloop
 endfacet
 facet normal 0.886309 -0.304753 -0.348685
  outer loop
   vertex 0.016317 0.094001 0.000328
   vertex 0.015837 0.095478 -0.002183
   vertex 0.017182 0.096805 7.59999e-05
  endloop
 endfacet
 facet normal 0.885615 -0.148581 -0.440011
  outer loop
   vertex 0.015837 0.095478 -0.002183
   vertex 0.016216 0.09843 -0.002417
   vertex 0.017182 0.096805 7.59999e-05
  endloop
 endfacet
 facet normal 0.932446 0 -0.361309
  outer loop
   vertex 0.017182 0.096805 7.59999e-05
   vertex 0.016216 0.09843 -0.002417
   vertex 0.017182 0.100055 7.59999e-05
  endloop
 endfacet
 facet normal 0.885615 0.148581 -0.440011
  outer loop
   vertex 0.016216 0.09843 -0.002417
   vertex 0.015837 0.101382 -0.002183
   vertex 0.017182 0.100055 7.59999e-05
  endloop
 endfacet
 facet normal 0.886309 0.304753 -0.348685
  outer loop
   vertex 0.017182 0.100055 7.59999e-05
   vertex 0.015837 0.101382 -0.002183
   vertex 0.016317 0.102859 0.000328
  endloop
 endfacet
 facet normal 0.819189 0.412026 -0.398954
  outer loop
   vertex 0.015837 0.101382 -0.002183
   vertex 0.014946 0.103687 -0.001632
   vertex 0.016317 0.102859 0.000328
  endloop
 endfacet
 facet normal 0.61533 0.560308 -0.554459
  outer loop
   vertex 0.013805 0.102859 -0.003735
   vertex 0.013029 0.105247 -0.002183
   vertex 0.014946 0.103687 -0.001632
  endloop
 endfacet
 facet normal 0.467426 0.452641 -0.759361
  outer loop
   vertex 0.011963 0.10152 -0.005667
   vertex 0.011328 0.104308 -0.004396
   vertex 0.013805 0.102859 -0.003735
  endloop
 endfacet
 facet normal 0.262485 0.303841 -0.915851
  outer loop
   vertex 0.009742 0.099906 -0.006839
   vertex 0.009092 0.102683 -0.006104
   vertex 0.011963 0.10152 -0.005667
  endloop
 endfacet
 facet normal 0.508799 0.579247 -0.636864
  outer loop
   vertex 0.013805 0.102859 -0.003735
   vertex 0.011328 0.104308 -0.004396
   vertex 0.013029 0.105247 -0.002183
  endloop
 endfacet
 facet normal 0.38541 0.704977 -0.595371
  outer loop
   vertex 0.011328 0.104308 -0.004396
   vertex 0.010339 0.10652 -0.002417
   vertex 0.013029 0.105247 -0.002183
  endloop
 endfacet
 facet normal 0.310374 0.451949 -0.836307
  outer loop
   vertex 0.011963 0.10152 -0.005667
   vertex 0.009092 0.102683 -0.006104
   vertex 0.011328 0.104308 -0.004396
  endloop
 endfacet
 facet normal 0.187559 0.577248 -0.794737
  outer loop
   vertex 0.009092 0.102683 -0.006104
   vertex 0.008238 0.105312 -0.004396
   vertex 0.011328 0.104308 -0.004396
  endloop
 endfacet
 facet normal 0.228709 0.703897 -0.672474
  outer loop
   vertex 0.011328 0.104308 -0.004396
   vertex 0.008238 0.105312 -0.004396
   vertex 0.010339 0.10652 -0.002417
  endloop
 endfacet
 facet normal 0.102735 0.796801 -0.595444
  outer loop
   vertex 0.008238 0.105312 -0.004396
   vertex 0.007414 0.107072 -0.002183
   vertex 0.010339 0.10652 -0.002417
  endloop
 endfacet
 facet normal 0.0891868 0.274301 -0.957499
  outer loop
   vertex 0.009742 0.099906 -0.006839
   vertex 0.006934 0.100819 -0.006839
   vertex 0.009092 0.102683 -0.006104
  endloop
 endfacet
 facet normal -0.0336945 0.400135 -0.915836
  outer loop
   vertex 0.006934 0.100819 -0.006839
   vertex 0.006085 0.10343 -0.005667
   vertex 0.009092 0.102683 -0.006104
  endloop
 endfacet
 facet normal 0.0146149 0.548074 -0.836302
  outer loop
   vertex 0.009092 0.102683 -0.006104
   vertex 0.006085 0.10343 -0.005667
   vertex 0.008238 0.105312 -0.004396
  endloop
 endfacet
 facet normal -0.112009 0.640965 -0.759354
  outer loop
   vertex 0.006085 0.10343 -0.005667
   vertex 0.005382 0.105596 -0.003735
   vertex 0.008238 0.105312 -0.004396
  endloop
 endfacet
 facet normal -0.0710868 0.767617 -0.636955
  outer loop
   vertex 0.008238 0.105312 -0.004396
   vertex 0.005382 0.105596 -0.003735
   vertex 0.007414 0.107072 -0.002183
  endloop
 endfacet
 facet normal -0.168666 0.815046 -0.554303
  outer loop
   vertex 0.005382 0.105596 -0.003735
   vertex 0.004946 0.106936 -0.001632
   vertex 0.007414 0.107072 -0.002183
  endloop
 endfacet
 facet normal -0.342493 0.758552 -0.554344
  outer loop
   vertex 0.005382 0.105596 -0.003735
   vertex 0.00287 0.105596 -0.002183
   vertex 0.004946 0.106936 -0.001632
  endloop
 endfacet
 facet normal -0.286233 0.584386 -0.759318
  outer loop
   vertex 0.006085 0.10343 -0.005667
   vertex 0.003238 0.103687 -0.004396
   vertex 0.005382 0.105596 -0.003735
  endloop
 endfacet
 facet normal -0.207851 0.343516 -0.915858
  outer loop
   vertex 0.006934 0.100819 -0.006839
   vertex 0.004092 0.101059 -0.006104
   vertex 0.006085 0.10343 -0.005667
  endloop
 endfacet
 facet normal -0.393627 0.662685 -0.637108
  outer loop
   vertex 0.005382 0.105596 -0.003735
   vertex 0.003238 0.103687 -0.004396
   vertex 0.00287 0.105596 -0.002183
  endloop
 endfacet
 facet normal -0.551379 0.584158 -0.595601
  outer loop
   vertex 0.003238 0.103687 -0.004396
   vertex 0.000828 0.10343 -0.002417
   vertex 0.00287 0.105596 -0.002183
  endloop
 endfacet
 facet normal -0.334054 0.43492 -0.836213
  outer loop
   vertex 0.006085 0.10343 -0.005667
   vertex 0.004092 0.101059 -0.006104
   vertex 0.003238 0.103687 -0.004396
  endloop
 endfacet
 facet normal -0.491058 0.356895 -0.794662
  outer loop
   vertex 0.004092 0.101059 -0.006104
   vertex 0.001328 0.101059 -0.004396
   vertex 0.003238 0.103687 -0.004396
  endloop
 endfacet
 facet normal -0.598657 0.435097 -0.672533
  outer loop
   vertex 0.003238 0.103687 -0.004396
   vertex 0.001328 0.101059 -0.004396
   vertex 0.000828 0.10343 -0.002417
  endloop
 endfacet
 facet normal -0.725985 0.343961 -0.595514
  outer loop
   vertex 0.001328 0.101059 -0.004396
   vertex -0.000601 0.100819 -0.002183
   vertex 0.000828 0.10343 -0.002417
  endloop
 endfacet
 facet normal -0.233325 0.169451 -0.957521
  outer loop
   vertex 0.006934 0.100819 -0.006839
   vertex 0.005199 0.09843 -0.006839
   vertex 0.004092 0.101059 -0.006104
  endloop
 endfacet
 facet normal -0.390899 0.0914587 -0.915878
  outer loop
   vertex 0.005199 0.09843 -0.006839
   vertex 0.002453 0.09843 -0.005667
   vertex 0.004092 0.101059 -0.006104
  endloop
 endfacet
 facet normal -0.516783 0.183167 -0.836293
  outer loop
   vertex 0.004092 0.101059 -0.006104
   vertex 0.002453 0.09843 -0.005667
   vertex 0.001328 0.101059 -0.004396
  endloop
 endfacet
 facet normal -0.644269 0.0913996 -0.759317
  outer loop
   vertex 0.002453 0.09843 -0.005667
   vertex 0.000176 0.09843 -0.003735
   vertex 0.001328 0.101059 -0.004396
  endloop
 endfacet
 facet normal -0.751958 0.169318 -0.637095
  outer loop
   vertex 0.001328 0.101059 -0.004396
   vertex 0.000176 0.09843 -0.003735
   vertex -0.000601 0.100819 -0.002183
  endloop
 endfacet
 facet normal -0.827124 0.091254 -0.554562
  outer loop
   vertex 0.000176 0.09843 -0.003735
   vertex -0.001234 0.09843 -0.001632
   vertex -0.000601 0.100819 -0.002183
  endloop
 endfacet
 facet normal -0.827124 -0.091254 -0.554562
  outer loop
   vertex 0.000176 0.09843 -0.003735
   vertex -0.000601 0.096041 -0.002183
   vertex -0.001234 0.09843 -0.001632
  endloop
 endfacet
 facet normal -0.644269 -0.0913996 -0.759317
  outer loop
   vertex 0.002453 0.09843 -0.005667
   vertex 0.001328 0.095801 -0.004396
   vertex 0.000176 0.09843 -0.003735
  endloop
 endfacet
 facet normal -0.390899 -0.0914587 -0.915878
  outer loop
   vertex 0.005199 0.09843 -0.006839
   vertex 0.004092 0.095801 -0.006104
   vertex 0.002453 0.09843 -0.005667
  endloop
 endfacet
 facet normal -0.751958 -0.169318 -0.637095
  outer loop
   vertex 0.000176 0.09843 -0.003735
   vertex 0.001328 0.095801 -0.004396
   vertex -0.000601 0.096041 -0.002183
  endloop
 endfacet
 facet normal -0.725985 -0.343961 -0.595514
  outer loop
   vertex 0.001328 0.095801 -0.004396
   vertex 0.000828 0.09343 -0.002417
   vertex -0.000601 0.096041 -0.002183
  endloop
 endfacet
 facet normal -0.516783 -0.183167 -0.836293
  outer loop
   vertex 0.002453 0.09843 -0.005667
   vertex 0.004092 0.095801 -0.006104
   vertex 0.001328 0.095801 -0.004396
  endloop
 endfacet
 facet normal -0.491058 -0.356895 -0.794662
  outer loop
   vertex 0.004092 0.095801 -0.006104
   vertex 0.003238 0.093173 -0.004396
   vertex 0.001328 0.095801 -0.004396
  endloop
 endfacet
 facet normal -0.598657 -0.435097 -0.672533
  outer loop
   vertex 0.001328 0.095801 -0.004396
   vertex 0.003238 0.093173 -0.004396
   vertex 0.000828 0.09343 -0.002417
  endloop
 endfacet
 facet normal -0.551379 -0.584158 -0.595601
  outer loop
   vertex 0.003238 0.093173 -0.004396
   vertex 0.00287 0.091264 -0.002183
   vertex 0.000828 0.09343 -0.002417
  endloop
 endfacet
 facet normal -0.233325 -0.169451 -0.957521
  outer loop
   vertex 0.005199 0.09843 -0.006839
   vertex 0.006934 0.096041 -0.006839
   vertex 0.004092 0.095801 -0.006104
  endloop
 endfacet
 facet normal -0.207851 -0.343516 -0.915858
  outer loop
   vertex 0.006934 0.096041 -0.006839
   vertex 0.006085 0.09343 -0.005667
   vertex 0.004092 0.095801 -0.006104
  endloop
 endfacet
 facet normal -0.334054 -0.43492 -0.836213
  outer loop
   vertex 0.004092 0.095801 -0.006104
   vertex 0.006085 0.09343 -0.005667
   vertex 0.003238 0.093173 -0.004396
  endloop
 endfacet
 facet normal -0.286233 -0.584386 -0.759318
  outer loop
   vertex 0.006085 0.09343 -0.005667
   vertex 0.005382 0.091264 -0.003735
   vertex 0.003238 0.093173 -0.004396
  endloop
 endfacet
 facet normal -0.393627 -0.662685 -0.637108
  outer loop
   vertex 0.003238 0.093173 -0.004396
   vertex 0.005382 0.091264 -0.003735
   vertex 0.00287 0.091264 -0.002183
  endloop
 endfacet
 facet normal -0.342493 -0.758552 -0.554344
  outer loop
   vertex 0.005382 0.091264 -0.003735
   vertex 0.004946 0.089924 -0.001632
   vertex 0.00287 0.091264 -0.002183
  endloop
 endfacet
 facet normal 0.723015 0.412034 -0.554506
  outer loop
   vertex 0.015837 0.101382 -0.002183
   vertex 0.013805 0.102859 -0.003735
   vertex 0.014946 0.103687 -0.001632
  endloop
 endfacet
 facet normal 0.789589 0.148568 -0.59538
  outer loop
   vertex 0.016216 0.09843 -0.002417
   vertex 0.014418 0.100055 -0.004396
   vertex 0.015837 0.101382 -0.002183
  endloop
 endfacet
 facet normal 0.789589 -0.148568 -0.59538
  outer loop
   vertex 0.015837 0.095478 -0.002183
   vertex 0.014418 0.096805 -0.004396
   vertex 0.016216 0.09843 -0.002417
  endloop
 endfacet
 facet normal 0.708089 0.304936 -0.636886
  outer loop
   vertex 0.015837 0.101382 -0.002183
   vertex 0.014418 0.100055 -0.004396
   vertex 0.013805 0.102859 -0.003735
  endloop
 endfacet
 facet normal 0.574948 0.304695 -0.759339
  outer loop
   vertex 0.014418 0.100055 -0.004396
   vertex 0.011963 0.10152 -0.005667
   vertex 0.013805 0.102859 -0.003735
  endloop
 endfacet
 facet normal 0.740143 0 -0.672449
  outer loop
   vertex 0.016216 0.09843 -0.002417
   vertex 0.014418 0.096805 -0.004396
   vertex 0.014418 0.100055 -0.004396
  endloop
 endfacet
 facet normal 0.607028 0 -0.794681
  outer loop
   vertex 0.014418 0.096805 -0.004396
   vertex 0.012182 0.09843 -0.006104
   vertex 0.014418 0.100055 -0.004396
  endloop
 endfacet
 facet normal 0.525774 0.155534 -0.836284
  outer loop
   vertex 0.014418 0.100055 -0.004396
   vertex 0.012182 0.09843 -0.006104
   vertex 0.011963 0.10152 -0.005667
  endloop
 endfacet
 facet normal 0.370096 0.155752 -0.915844
  outer loop
   vertex 0.012182 0.09843 -0.006104
   vertex 0.009742 0.099906 -0.006839
   vertex 0.011963 0.10152 -0.005667
  endloop
 endfacet
 facet normal 0.708089 -0.304936 -0.636886
  outer loop
   vertex 0.015837 0.095478 -0.002183
   vertex 0.013805 0.094001 -0.003735
   vertex 0.014418 0.096805 -0.004396
  endloop
 endfacet
 facet normal 0.574948 -0.304695 -0.759339
  outer loop
   vertex 0.013805 0.094001 -0.003735
   vertex 0.011963 0.09534 -0.005667
   vertex 0.014418 0.096805 -0.004396
  endloop
 endfacet
 facet normal 0.525774 -0.155534 -0.836284
  outer loop
   vertex 0.014418 0.096805 -0.004396
   vertex 0.011963 0.09534 -0.005667
   vertex 0.012182 0.09843 -0.006104
  endloop
 endfacet
 facet normal 0.370096 -0.155752 -0.915844
  outer loop
   vertex 0.011963 0.09534 -0.005667
   vertex 0.009742 0.096954 -0.006839
   vertex 0.012182 0.09843 -0.006104
  endloop
 endfacet
 facet normal 0.288428 0 -0.957502
  outer loop
   vertex 0.012182 0.09843 -0.006104
   vertex 0.009742 0.096954 -0.006839
   vertex 0.009742 0.099906 -0.006839
  endloop
 endfacet
 facet normal 0.156037 0 -0.987751
  outer loop
   vertex 0.009742 0.096954 -0.006839
   vertex 0.00771 0.09843 -0.00716
   vertex 0.009742 0.099906 -0.006839
  endloop
 endfacet
 facet normal -0.168666 -0.815046 -0.554303
  outer loop
   vertex 0.005382 0.091264 -0.003735
   vertex 0.007414 0.089788 -0.002183
   vertex 0.004946 0.089924 -0.001632
  endloop
 endfacet
 facet normal -0.112009 -0.640965 -0.759354
  outer loop
   vertex 0.006085 0.09343 -0.005667
   vertex 0.008238 0.091548 -0.004396
   vertex 0.005382 0.091264 -0.003735
  endloop
 endfacet
 facet normal -0.0336945 -0.400135 -0.915836
  outer loop
   vertex 0.006934 0.096041 -0.006839
   vertex 0.009092 0.094177 -0.006104
   vertex 0.006085 0.09343 -0.005667
  endloop
 endfacet
 facet normal -0.0710868 -0.767617 -0.636955
  outer loop
   vertex 0.005382 0.091264 -0.003735
   vertex 0.008238 0.091548 -0.004396
   vertex 0.007414 0.089788 -0.002183
  endloop
 endfacet
 facet normal 0.102735 -0.796801 -0.595444
  outer loop
   vertex 0.008238 0.091548 -0.004396
   vertex 0.010339 0.09034 -0.002417
   vertex 0.007414 0.089788 -0.002183
  endloop
 endfacet
 facet normal 0.0146149 -0.548074 -0.836302
  outer loop
   vertex 0.006085 0.09343 -0.005667
   vertex 0.009092 0.094177 -0.006104
   vertex 0.008238 0.091548 -0.004396
  endloop
 endfacet
 facet normal 0.187559 -0.577248 -0.794737
  outer loop
   vertex 0.009092 0.094177 -0.006104
   vertex 0.011328 0.092552 -0.004396
   vertex 0.008238 0.091548 -0.004396
  endloop
 endfacet
 facet normal 0.228709 -0.703897 -0.672474
  outer loop
   vertex 0.008238 0.091548 -0.004396
   vertex 0.011328 0.092552 -0.004396
   vertex 0.010339 0.09034 -0.002417
  endloop
 endfacet
 facet normal 0.38541 -0.704977 -0.595371
  outer loop
   vertex 0.011328 0.092552 -0.004396
   vertex 0.013029 0.091613 -0.002183
   vertex 0.010339 0.09034 -0.002417
  endloop
 endfacet
 facet normal 0.0891868 -0.274301 -0.957499
  outer loop
   vertex 0.006934 0.096041 -0.006839
   vertex 0.009742 0.096954 -0.006839
   vertex 0.009092 0.094177 -0.006104
  endloop
 endfacet
 facet normal 0.262485 -0.303841 -0.915851
  outer loop
   vertex 0.009742 0.096954 -0.006839
   vertex 0.011963 0.09534 -0.005667
   vertex 0.009092 0.094177 -0.006104
  endloop
 endfacet
 facet normal 0.310374 -0.451949 -0.836307
  outer loop
   vertex 0.009092 0.094177 -0.006104
   vertex 0.011963 0.09534 -0.005667
   vertex 0.011328 0.092552 -0.004396
  endloop
 endfacet
 facet normal 0.467426 -0.452641 -0.759361
  outer loop
   vertex 0.011963 0.09534 -0.005667
   vertex 0.013805 0.094001 -0.003735
   vertex 0.011328 0.092552 -0.004396
  endloop
 endfacet
 facet normal 0.508799 -0.579247 -0.636864
  outer loop
   vertex 0.011328 0.092552 -0.004396
   vertex 0.013805 0.094001 -0.003735
   vertex 0.013029 0.091613 -0.002183
  endloop
 endfacet
 facet normal 0.61533 -0.560308 -0.554459
  outer loop
   vertex 0.013805 0.094001 -0.003735
   vertex 0.014946 0.093173 -0.001632
   vertex 0.013029 0.091613 -0.002183
  endloop
 endfacet
endsolid ExportedfromBlender-3.5.1
