solid ExportedfromBlender-3.5.1
 facet normal 0.0482486 -0.148392 -0.987751
  outer loop
   vertex 0.01308 0.15319 -0.02452
   vertex 0.015112 0.151714 -0.024199
   vertex 0.012304 0.150801 -0.024199
  endloop
 endfacet
 facet normal 0.723015 -0.412034 -0.554506
  outer loop
   vertex 0.020316 0.147933 -0.018992
   vertex 0.019175 0.148761 -0.021095
   vertex 0.021207 0.150238 -0.019543
  endloop
 endfacet
 facet normal -0.126271 -0.0917039 -0.987748
  outer loop
   vertex 0.01308 0.15319 -0.02452
   vertex 0.012304 0.150801 -0.024199
   vertex 0.010569 0.15319 -0.024199
  endloop
 endfacet
 facet normal -0.126271 0.0917039 -0.987748
  outer loop
   vertex 0.01308 0.15319 -0.02452
   vertex 0.010569 0.15319 -0.024199
   vertex 0.012304 0.155579 -0.024199
  endloop
 endfacet
 facet normal 0.0482486 0.148392 -0.987751
  outer loop
   vertex 0.01308 0.15319 -0.02452
   vertex 0.012304 0.155579 -0.024199
   vertex 0.015112 0.154666 -0.024199
  endloop
 endfacet
 facet normal 0.819189 -0.412026 -0.398954
  outer loop
   vertex 0.020316 0.147933 -0.018992
   vertex 0.021207 0.150238 -0.019543
   vertex 0.021687 0.148761 -0.017032
  endloop
 endfacet
 facet normal -0.138975 -0.90647 -0.398746
  outer loop
   vertex 0.010316 0.144684 -0.018992
   vertex 0.012784 0.144548 -0.019543
   vertex 0.011528 0.143636 -0.017032
  endloop
 endfacet
 facet normal -0.905177 -0.147939 -0.398459
  outer loop
   vertex 0.004136 0.15319 -0.018992
   vertex 0.004769 0.150801 -0.019543
   vertex 0.003514 0.151714 -0.017031
  endloop
 endfacet
 facet normal -0.420269 0.815078 -0.398776
  outer loop
   vertex 0.010316 0.161696 -0.018992
   vertex 0.00824 0.160356 -0.019543
   vertex 0.00872 0.161832 -0.017032
  endloop
 endfacet
 facet normal 0.645038 0.651744 -0.398942
  outer loop
   vertex 0.020316 0.158447 -0.018992
   vertex 0.018399 0.160007 -0.019543
   vertex 0.019952 0.160007 -0.017032
  endloop
 endfacet
 facet normal 0.771063 -0.560215 -0.302688
  outer loop
   vertex 0.020316 0.147933 -0.018992
   vertex 0.021687 0.148761 -0.017032
   vertex 0.019952 0.146373 -0.017032
  endloop
 endfacet
 facet normal -0.294416 -0.906493 -0.302638
  outer loop
   vertex 0.010316 0.144684 -0.018992
   vertex 0.011528 0.143636 -0.017032
   vertex 0.00872 0.144548 -0.017032
  endloop
 endfacet
 facet normal -0.9532 0 -0.302341
  outer loop
   vertex 0.004136 0.15319 -0.018992
   vertex 0.003514 0.151714 -0.017031
   vertex 0.003514 0.154666 -0.017031
  endloop
 endfacet
 facet normal -0.294416 0.906493 -0.302638
  outer loop
   vertex 0.010316 0.161696 -0.018992
   vertex 0.00872 0.161832 -0.017032
   vertex 0.011528 0.162744 -0.017032
  endloop
 endfacet
 facet normal 0.771063 0.560215 -0.302688
  outer loop
   vertex 0.020316 0.158447 -0.018992
   vertex 0.019952 0.160007 -0.017032
   vertex 0.021687 0.157619 -0.017032
  endloop
 endfacet
 facet normal 0.342493 -0.758552 0.554344
  outer loop
   vertex 0.015844 0.144684 -0.010048
   vertex 0.01792 0.146024 -0.009497
   vertex 0.015408 0.146024 -0.007945
  endloop
 endfacet
 facet normal -0.61533 -0.560308 0.554459
  outer loop
   vertex 0.005844 0.147933 -0.010048
   vertex 0.007761 0.146373 -0.009497
   vertex 0.006985 0.148761 -0.007945
  endloop
 endfacet
 facet normal -0.723015 0.412034 0.554506
  outer loop
   vertex 0.005844 0.158447 -0.010048
   vertex 0.004953 0.156142 -0.009497
   vertex 0.006985 0.157619 -0.007945
  endloop
 endfacet
 facet normal 0.168666 0.815046 0.554303
  outer loop
   vertex 0.015844 0.161696 -0.010048
   vertex 0.013376 0.161832 -0.009497
   vertex 0.015408 0.160356 -0.007945
  endloop
 endfacet
 facet normal 0.827124 0.091254 0.554562
  outer loop
   vertex 0.022024 0.15319 -0.010048
   vertex 0.021391 0.155579 -0.009497
   vertex 0.020614 0.15319 -0.007945
  endloop
 endfacet
 facet normal 0.126271 0.0917039 0.987748
  outer loop
   vertex 0.015591 0.15319 -0.004841
   vertex 0.013856 0.155579 -0.004841
   vertex 0.01308 0.15319 -0.00452
  endloop
 endfacet
 facet normal 0.390899 0.0914587 0.915878
  outer loop
   vertex 0.018337 0.15319 -0.006013
   vertex 0.016698 0.155819 -0.005576
   vertex 0.015591 0.15319 -0.004841
  endloop
 endfacet
 facet normal 0.644269 0.0913996 0.759317
  outer loop
   vertex 0.020614 0.15319 -0.007945
   vertex 0.019462 0.155819 -0.007284
   vertex 0.018337 0.15319 -0.006013
  endloop
 endfacet
 facet normal 0.233325 0.169451 0.957521
  outer loop
   vertex 0.015591 0.15319 -0.004841
   vertex 0.016698 0.155819 -0.005576
   vertex 0.013856 0.155579 -0.004841
  endloop
 endfacet
 facet normal 0.207851 0.343516 0.915858
  outer loop
   vertex 0.016698 0.155819 -0.005576
   vertex 0.014705 0.15819 -0.006013
   vertex 0.013856 0.155579 -0.004841
  endloop
 endfacet
 facet normal 0.516783 0.183167 0.836293
  outer loop
   vertex 0.018337 0.15319 -0.006013
   vertex 0.019462 0.155819 -0.007284
   vertex 0.016698 0.155819 -0.005576
  endloop
 endfacet
 facet normal 0.491058 0.356895 0.794662
  outer loop
   vertex 0.019462 0.155819 -0.007284
   vertex 0.017552 0.158447 -0.007284
   vertex 0.016698 0.155819 -0.005576
  endloop
 endfacet
 facet normal 0.334054 0.43492 0.836213
  outer loop
   vertex 0.016698 0.155819 -0.005576
   vertex 0.017552 0.158447 -0.007284
   vertex 0.014705 0.15819 -0.006013
  endloop
 endfacet
 facet normal 0.286233 0.584386 0.759318
  outer loop
   vertex 0.017552 0.158447 -0.007284
   vertex 0.015408 0.160356 -0.007945
   vertex 0.014705 0.15819 -0.006013
  endloop
 endfacet
 facet normal 0.751958 0.169318 0.637095
  outer loop
   vertex 0.020614 0.15319 -0.007945
   vertex 0.021391 0.155579 -0.009497
   vertex 0.019462 0.155819 -0.007284
  endloop
 endfacet
 facet normal 0.725985 0.343961 0.595514
  outer loop
   vertex 0.021391 0.155579 -0.009497
   vertex 0.019962 0.15819 -0.009263
   vertex 0.019462 0.155819 -0.007284
  endloop
 endfacet
 facet normal 0.598657 0.435097 0.672533
  outer loop
   vertex 0.019462 0.155819 -0.007284
   vertex 0.019962 0.15819 -0.009263
   vertex 0.017552 0.158447 -0.007284
  endloop
 endfacet
 facet normal 0.551379 0.584158 0.595601
  outer loop
   vertex 0.019962 0.15819 -0.009263
   vertex 0.01792 0.160356 -0.009497
   vertex 0.017552 0.158447 -0.007284
  endloop
 endfacet
 facet normal 0.393627 0.662685 0.637108
  outer loop
   vertex 0.017552 0.158447 -0.007284
   vertex 0.01792 0.160356 -0.009497
   vertex 0.015408 0.160356 -0.007945
  endloop
 endfacet
 facet normal 0.342493 0.758552 0.554344
  outer loop
   vertex 0.01792 0.160356 -0.009497
   vertex 0.015844 0.161696 -0.010048
   vertex 0.015408 0.160356 -0.007945
  endloop
 endfacet
 facet normal -0.0482486 0.148392 0.987751
  outer loop
   vertex 0.013856 0.155579 -0.004841
   vertex 0.011048 0.154666 -0.004841
   vertex 0.01308 0.15319 -0.00452
  endloop
 endfacet
 facet normal 0.0336945 0.400135 0.915836
  outer loop
   vertex 0.014705 0.15819 -0.006013
   vertex 0.011698 0.157443 -0.005576
   vertex 0.013856 0.155579 -0.004841
  endloop
 endfacet
 facet normal 0.112009 0.640965 0.759354
  outer loop
   vertex 0.015408 0.160356 -0.007945
   vertex 0.012552 0.160072 -0.007284
   vertex 0.014705 0.15819 -0.006013
  endloop
 endfacet
 facet normal -0.0891868 0.274301 0.957499
  outer loop
   vertex 0.013856 0.155579 -0.004841
   vertex 0.011698 0.157443 -0.005576
   vertex 0.011048 0.154666 -0.004841
  endloop
 endfacet
 facet normal -0.262485 0.303841 0.915851
  outer loop
   vertex 0.011698 0.157443 -0.005576
   vertex 0.008827 0.15628 -0.006013
   vertex 0.011048 0.154666 -0.004841
  endloop
 endfacet
 facet normal -0.0146149 0.548074 0.836302
  outer loop
   vertex 0.014705 0.15819 -0.006013
   vertex 0.012552 0.160072 -0.007284
   vertex 0.011698 0.157443 -0.005576
  endloop
 endfacet
 facet normal -0.187559 0.577248 0.794737
  outer loop
   vertex 0.012552 0.160072 -0.007284
   vertex 0.009462 0.159068 -0.007284
   vertex 0.011698 0.157443 -0.005576
  endloop
 endfacet
 facet normal -0.310374 0.451949 0.836307
  outer loop
   vertex 0.011698 0.157443 -0.005576
   vertex 0.009462 0.159068 -0.007284
   vertex 0.008827 0.15628 -0.006013
  endloop
 endfacet
 facet normal -0.467426 0.452641 0.759361
  outer loop
   vertex 0.009462 0.159068 -0.007284
   vertex 0.006985 0.157619 -0.007945
   vertex 0.008827 0.15628 -0.006013
  endloop
 endfacet
 facet normal 0.0710868 0.767617 0.636955
  outer loop
   vertex 0.015408 0.160356 -0.007945
   vertex 0.013376 0.161832 -0.009497
   vertex 0.012552 0.160072 -0.007284
  endloop
 endfacet
 facet normal -0.102735 0.796801 0.595444
  outer loop
   vertex 0.013376 0.161832 -0.009497
   vertex 0.010451 0.16128 -0.009263
   vertex 0.012552 0.160072 -0.007284
  endloop
 endfacet
 facet normal -0.228709 0.703897 0.672474
  outer loop
   vertex 0.012552 0.160072 -0.007284
   vertex 0.010451 0.16128 -0.009263
   vertex 0.009462 0.159068 -0.007284
  endloop
 endfacet
 facet normal -0.38541 0.704977 0.595371
  outer loop
   vertex 0.010451 0.16128 -0.009263
   vertex 0.007761 0.160007 -0.009497
   vertex 0.009462 0.159068 -0.007284
  endloop
 endfacet
 facet normal -0.508799 0.579247 0.636864
  outer loop
   vertex 0.009462 0.159068 -0.007284
   vertex 0.007761 0.160007 -0.009497
   vertex 0.006985 0.157619 -0.007945
  endloop
 endfacet
 facet normal -0.61533 0.560308 0.554459
  outer loop
   vertex 0.007761 0.160007 -0.009497
   vertex 0.005844 0.158447 -0.010048
   vertex 0.006985 0.157619 -0.007945
  endloop
 endfacet
 facet normal -0.156037 0 0.987751
  outer loop
   vertex 0.011048 0.154666 -0.004841
   vertex 0.011048 0.151714 -0.004841
   vertex 0.01308 0.15319 -0.00452
  endloop
 endfacet
 facet normal -0.370096 0.155752 0.915844
  outer loop
   vertex 0.008827 0.15628 -0.006013
   vertex 0.008608 0.15319 -0.005576
   vertex 0.011048 0.154666 -0.004841
  endloop
 endfacet
 facet normal -0.574948 0.304695 0.759339
  outer loop
   vertex 0.006985 0.157619 -0.007945
   vertex 0.006372 0.154815 -0.007284
   vertex 0.008827 0.15628 -0.006013
  endloop
 endfacet
 facet normal -0.288428 0 0.957502
  outer loop
   vertex 0.011048 0.154666 -0.004841
   vertex 0.008608 0.15319 -0.005576
   vertex 0.011048 0.151714 -0.004841
  endloop
 endfacet
 facet normal -0.370096 -0.155752 0.915844
  outer loop
   vertex 0.008608 0.15319 -0.005576
   vertex 0.008827 0.1501 -0.006013
   vertex 0.011048 0.151714 -0.004841
  endloop
 endfacet
 facet normal -0.525774 0.155534 0.836284
  outer loop
   vertex 0.008827 0.15628 -0.006013
   vertex 0.006372 0.154815 -0.007284
   vertex 0.008608 0.15319 -0.005576
  endloop
 endfacet
 facet normal -0.607028 0 0.794681
  outer loop
   vertex 0.006372 0.154815 -0.007284
   vertex 0.006372 0.151565 -0.007284
   vertex 0.008608 0.15319 -0.005576
  endloop
 endfacet
 facet normal -0.525774 -0.155534 0.836284
  outer loop
   vertex 0.008608 0.15319 -0.005576
   vertex 0.006372 0.151565 -0.007284
   vertex 0.008827 0.1501 -0.006013
  endloop
 endfacet
 facet normal -0.574948 -0.304695 0.759339
  outer loop
   vertex 0.006372 0.151565 -0.007284
   vertex 0.006985 0.148761 -0.007945
   vertex 0.008827 0.1501 -0.006013
  endloop
 endfacet
 facet normal -0.708089 0.304936 0.636886
  outer loop
   vertex 0.006985 0.157619 -0.007945
   vertex 0.004953 0.156142 -0.009497
   vertex 0.006372 0.154815 -0.007284
  endloop
 endfacet
 facet normal -0.789589 0.148568 0.59538
  outer loop
   vertex 0.004953 0.156142 -0.009497
   vertex 0.004574 0.15319 -0.009263
   vertex 0.006372 0.154815 -0.007284
  endloop
 endfacet
 facet normal -0.740143 0 0.672449
  outer loop
   vertex 0.006372 0.154815 -0.007284
   vertex 0.004574 0.15319 -0.009263
   vertex 0.006372 0.151565 -0.007284
  endloop
 endfacet
 facet normal -0.789589 -0.148568 0.59538
  outer loop
   vertex 0.004574 0.15319 -0.009263
   vertex 0.004953 0.150238 -0.009497
   vertex 0.006372 0.151565 -0.007284
  endloop
 endfacet
 facet normal -0.708089 -0.304936 0.636886
  outer loop
   vertex 0.006372 0.151565 -0.007284
   vertex 0.004953 0.150238 -0.009497
   vertex 0.006985 0.148761 -0.007945
  endloop
 endfacet
 facet normal -0.723015 -0.412034 0.554506
  outer loop
   vertex 0.004953 0.150238 -0.009497
   vertex 0.005844 0.147933 -0.010048
   vertex 0.006985 0.148761 -0.007945
  endloop
 endfacet
 facet normal -0.0482486 -0.148392 0.987751
  outer loop
   vertex 0.011048 0.151714 -0.004841
   vertex 0.013856 0.150801 -0.004841
   vertex 0.01308 0.15319 -0.00452
  endloop
 endfacet
 facet normal -0.262485 -0.303841 0.915851
  outer loop
   vertex 0.008827 0.1501 -0.006013
   vertex 0.011698 0.148937 -0.005576
   vertex 0.011048 0.151714 -0.004841
  endloop
 endfacet
 facet normal -0.467426 -0.452641 0.759361
  outer loop
   vertex 0.006985 0.148761 -0.007945
   vertex 0.009462 0.147312 -0.007284
   vertex 0.008827 0.1501 -0.006013
  endloop
 endfacet
 facet normal -0.0891868 -0.274301 0.957499
  outer loop
   vertex 0.011048 0.151714 -0.004841
   vertex 0.011698 0.148937 -0.005576
   vertex 0.013856 0.150801 -0.004841
  endloop
 endfacet
 facet normal 0.0336945 -0.400135 0.915836
  outer loop
   vertex 0.011698 0.148937 -0.005576
   vertex 0.014705 0.14819 -0.006013
   vertex 0.013856 0.150801 -0.004841
  endloop
 endfacet
 facet normal -0.310374 -0.451949 0.836307
  outer loop
   vertex 0.008827 0.1501 -0.006013
   vertex 0.009462 0.147312 -0.007284
   vertex 0.011698 0.148937 -0.005576
  endloop
 endfacet
 facet normal -0.187559 -0.577248 0.794737
  outer loop
   vertex 0.009462 0.147312 -0.007284
   vertex 0.012552 0.146308 -0.007284
   vertex 0.011698 0.148937 -0.005576
  endloop
 endfacet
 facet normal -0.0146149 -0.548074 0.836302
  outer loop
   vertex 0.011698 0.148937 -0.005576
   vertex 0.012552 0.146308 -0.007284
   vertex 0.014705 0.14819 -0.006013
  endloop
 endfacet
 facet normal 0.112009 -0.640965 0.759354
  outer loop
   vertex 0.012552 0.146308 -0.007284
   vertex 0.015408 0.146024 -0.007945
   vertex 0.014705 0.14819 -0.006013
  endloop
 endfacet
 facet normal -0.508799 -0.579247 0.636864
  outer loop
   vertex 0.006985 0.148761 -0.007945
   vertex 0.007761 0.146373 -0.009497
   vertex 0.009462 0.147312 -0.007284
  endloop
 endfacet
 facet normal -0.38541 -0.704977 0.595371
  outer loop
   vertex 0.007761 0.146373 -0.009497
   vertex 0.010451 0.1451 -0.009263
   vertex 0.009462 0.147312 -0.007284
  endloop
 endfacet
 facet normal -0.228709 -0.703897 0.672474
  outer loop
   vertex 0.009462 0.147312 -0.007284
   vertex 0.010451 0.1451 -0.009263
   vertex 0.012552 0.146308 -0.007284
  endloop
 endfacet
 facet normal -0.102735 -0.796801 0.595444
  outer loop
   vertex 0.010451 0.1451 -0.009263
   vertex 0.013376 0.144548 -0.009497
   vertex 0.012552 0.146308 -0.007284
  endloop
 endfacet
 facet normal 0.0710868 -0.767617 0.636955
  outer loop
   vertex 0.012552 0.146308 -0.007284
   vertex 0.013376 0.144548 -0.009497
   vertex 0.015408 0.146024 -0.007945
  endloop
 endfacet
 facet normal 0.168666 -0.815046 0.554303
  outer loop
   vertex 0.013376 0.144548 -0.009497
   vertex 0.015844 0.144684 -0.010048
   vertex 0.015408 0.146024 -0.007945
  endloop
 endfacet
 facet normal 0.126271 -0.0917039 0.987748
  outer loop
   vertex 0.013856 0.150801 -0.004841
   vertex 0.015591 0.15319 -0.004841
   vertex 0.01308 0.15319 -0.00452
  endloop
 endfacet
 facet normal 0.207851 -0.343516 0.915858
  outer loop
   vertex 0.014705 0.14819 -0.006013
   vertex 0.016698 0.150561 -0.005576
   vertex 0.013856 0.150801 -0.004841
  endloop
 endfacet
 facet normal 0.286233 -0.584386 0.759318
  outer loop
   vertex 0.015408 0.146024 -0.007945
   vertex 0.017552 0.147933 -0.007284
   vertex 0.014705 0.14819 -0.006013
  endloop
 endfacet
 facet normal 0.233325 -0.169451 0.957521
  outer loop
   vertex 0.013856 0.150801 -0.004841
   vertex 0.016698 0.150561 -0.005576
   vertex 0.015591 0.15319 -0.004841
  endloop
 endfacet
 facet normal 0.390899 -0.0914587 0.915878
  outer loop
   vertex 0.016698 0.150561 -0.005576
   vertex 0.018337 0.15319 -0.006013
   vertex 0.015591 0.15319 -0.004841
  endloop
 endfacet
 facet normal 0.334054 -0.43492 0.836213
  outer loop
   vertex 0.014705 0.14819 -0.006013
   vertex 0.017552 0.147933 -0.007284
   vertex 0.016698 0.150561 -0.005576
  endloop
 endfacet
 facet normal 0.491058 -0.356895 0.794662
  outer loop
   vertex 0.017552 0.147933 -0.007284
   vertex 0.019462 0.150561 -0.007284
   vertex 0.016698 0.150561 -0.005576
  endloop
 endfacet
 facet normal 0.516783 -0.183167 0.836293
  outer loop
   vertex 0.016698 0.150561 -0.005576
   vertex 0.019462 0.150561 -0.007284
   vertex 0.018337 0.15319 -0.006013
  endloop
 endfacet
 facet normal 0.644269 -0.0913996 0.759317
  outer loop
   vertex 0.019462 0.150561 -0.007284
   vertex 0.020614 0.15319 -0.007945
   vertex 0.018337 0.15319 -0.006013
  endloop
 endfacet
 facet normal 0.393627 -0.662685 0.637108
  outer loop
   vertex 0.015408 0.146024 -0.007945
   vertex 0.01792 0.146024 -0.009497
   vertex 0.017552 0.147933 -0.007284
  endloop
 endfacet
 facet normal 0.551379 -0.584158 0.595601
  outer loop
   vertex 0.01792 0.146024 -0.009497
   vertex 0.019962 0.14819 -0.009263
   vertex 0.017552 0.147933 -0.007284
  endloop
 endfacet
 facet normal 0.598657 -0.435097 0.672533
  outer loop
   vertex 0.017552 0.147933 -0.007284
   vertex 0.019962 0.14819 -0.009263
   vertex 0.019462 0.150561 -0.007284
  endloop
 endfacet
 facet normal 0.725985 -0.343961 0.595514
  outer loop
   vertex 0.019962 0.14819 -0.009263
   vertex 0.021391 0.150801 -0.009497
   vertex 0.019462 0.150561 -0.007284
  endloop
 endfacet
 facet normal 0.751958 -0.169318 0.637095
  outer loop
   vertex 0.019462 0.150561 -0.007284
   vertex 0.021391 0.150801 -0.009497
   vertex 0.020614 0.15319 -0.007945
  endloop
 endfacet
 facet normal 0.827124 -0.091254 0.554562
  outer loop
   vertex 0.021391 0.150801 -0.009497
   vertex 0.022024 0.15319 -0.010048
   vertex 0.020614 0.15319 -0.007945
  endloop
 endfacet
 facet normal 0.905177 0.147939 0.398459
  outer loop
   vertex 0.022646 0.154666 -0.012009
   vertex 0.021391 0.155579 -0.009497
   vertex 0.022024 0.15319 -0.010048
  endloop
 endfacet
 facet normal 0.93657 0.303801 0.17476
  outer loop
   vertex 0.022591 0.15628 -0.01452
   vertex 0.021698 0.157443 -0.011756
   vertex 0.022646 0.154666 -0.012009
  endloop
 endfacet
 facet normal 0.888212 0.452708 -0.078331
  outer loop
   vertex 0.021687 0.157619 -0.017032
   vertex 0.02117 0.159068 -0.01452
   vertex 0.022591 0.15628 -0.01452
  endloop
 endfacet
 facet normal 0.89641 0.274294 0.348155
  outer loop
   vertex 0.022646 0.154666 -0.012009
   vertex 0.021698 0.157443 -0.011756
   vertex 0.021391 0.155579 -0.009497
  endloop
 endfacet
 facet normal 0.803858 0.400541 0.439749
  outer loop
   vertex 0.021698 0.157443 -0.011756
   vertex 0.019962 0.15819 -0.009263
   vertex 0.021391 0.155579 -0.009497
  endloop
 endfacet
 facet normal 0.886806 0.451991 0.0963284
  outer loop
   vertex 0.022591 0.15628 -0.01452
   vertex 0.02117 0.159068 -0.01452
   vertex 0.021698 0.157443 -0.011756
  endloop
 endfacet
 facet normal 0.794662 0.577331 0.18762
  outer loop
   vertex 0.02117 0.159068 -0.01452
   vertex 0.019788 0.160072 -0.011756
   vertex 0.021698 0.157443 -0.011756
  endloop
 endfacet
 facet normal 0.754436 0.548107 0.361117
  outer loop
   vertex 0.021698 0.157443 -0.011756
   vertex 0.019788 0.160072 -0.011756
   vertex 0.019962 0.15819 -0.009263
  endloop
 endfacet
 facet normal 0.629279 0.640767 0.439803
  outer loop
   vertex 0.019788 0.160072 -0.011756
   vertex 0.01792 0.160356 -0.009497
   vertex 0.019962 0.15819 -0.009263
  endloop
 endfacet
 facet normal 0.797233 0.579229 -0.170037
  outer loop
   vertex 0.021687 0.157619 -0.017032
   vertex 0.019952 0.160007 -0.017032
   vertex 0.02117 0.159068 -0.01452
  endloop
 endfacet
 facet normal 0.704936 0.704936 -0.0782949
  outer loop
   vertex 0.019952 0.160007 -0.017032
   vertex 0.018958 0.16128 -0.01452
   vertex 0.02117 0.159068 -0.01452
  endloop
 endfacet
 facet normal 0.703824 0.703824 0.0962537
  outer loop
   vertex 0.02117 0.159068 -0.01452
   vertex 0.018958 0.16128 -0.01452
   vertex 0.019788 0.160072 -0.011756
  endloop
 endfacet
 facet normal 0.578519 0.796783 0.174509
  outer loop
   vertex 0.018958 0.16128 -0.01452
   vertex 0.01744 0.161832 -0.012008
   vertex 0.019788 0.160072 -0.011756
  endloop
 endfacet
 facet normal 0.537986 0.767602 0.348366
  outer loop
   vertex 0.019788 0.160072 -0.011756
   vertex 0.01744 0.161832 -0.012008
   vertex 0.01792 0.160356 -0.009497
  endloop
 endfacet
 facet normal 0.420269 0.815078 0.398776
  outer loop
   vertex 0.01744 0.161832 -0.012008
   vertex 0.015844 0.161696 -0.010048
   vertex 0.01792 0.160356 -0.009497
  endloop
 endfacet
 facet normal 0.138975 0.90647 0.398746
  outer loop
   vertex 0.014632 0.162744 -0.012008
   vertex 0.013376 0.161832 -0.009497
   vertex 0.015844 0.161696 -0.010048
  endloop
 endfacet
 facet normal 0.000555151 0.98466 0.174481
  outer loop
   vertex 0.01308 0.16319 -0.01452
   vertex 0.011698 0.162701 -0.011756
   vertex 0.014632 0.162744 -0.012008
  endloop
 endfacet
 facet normal -0.155824 0.984657 -0.07855
  outer loop
   vertex 0.011528 0.162744 -0.017032
   vertex 0.00999 0.162701 -0.01452
   vertex 0.01308 0.16319 -0.01452
  endloop
 endfacet
 facet normal 0.0161962 0.937175 0.348485
  outer loop
   vertex 0.014632 0.162744 -0.012008
   vertex 0.011698 0.162701 -0.011756
   vertex 0.013376 0.161832 -0.009497
  endloop
 endfacet
 facet normal -0.132412 0.888171 0.440021
  outer loop
   vertex 0.011698 0.162701 -0.011756
   vertex 0.010451 0.16128 -0.009263
   vertex 0.013376 0.161832 -0.009497
  endloop
 endfacet
 facet normal -0.155583 0.983133 0.0961419
  outer loop
   vertex 0.01308 0.16319 -0.01452
   vertex 0.00999 0.162701 -0.01452
   vertex 0.011698 0.162701 -0.011756
  endloop
 endfacet
 facet normal -0.303796 0.934059 0.187729
  outer loop
   vertex 0.00999 0.162701 -0.01452
   vertex 0.008608 0.161696 -0.011756
   vertex 0.011698 0.162701 -0.011756
  endloop
 endfacet
 facet normal -0.288415 0.886769 0.361189
  outer loop
   vertex 0.011698 0.162701 -0.011756
   vertex 0.008608 0.161696 -0.011756
   vertex 0.010451 0.16128 -0.009263
  endloop
 endfacet
 facet normal -0.415138 0.796394 0.439791
  outer loop
   vertex 0.008608 0.161696 -0.011756
   vertex 0.007761 0.160007 -0.009497
   vertex 0.010451 0.16128 -0.009263
  endloop
 endfacet
 facet normal -0.304389 0.937197 -0.170322
  outer loop
   vertex 0.011528 0.162744 -0.017032
   vertex 0.00872 0.161832 -0.017032
   vertex 0.00999 0.162701 -0.01452
  endloop
 endfacet
 facet normal -0.452705 0.888208 -0.0783901
  outer loop
   vertex 0.00872 0.161832 -0.017032
   vertex 0.007202 0.16128 -0.01452
   vertex 0.00999 0.162701 -0.01452
  endloop
 endfacet
 facet normal -0.451986 0.886796 0.0964489
  outer loop
   vertex 0.00999 0.162701 -0.01452
   vertex 0.007202 0.16128 -0.01452
   vertex 0.008608 0.161696 -0.011756
  endloop
 endfacet
 facet normal -0.578874 0.796508 0.174584
  outer loop
   vertex 0.007202 0.16128 -0.01452
   vertex 0.006208 0.160007 -0.012008
   vertex 0.008608 0.161696 -0.011756
  endloop
 endfacet
 facet normal -0.563623 0.748876 0.348589
  outer loop
   vertex 0.008608 0.161696 -0.011756
   vertex 0.006208 0.160007 -0.012008
   vertex 0.007761 0.160007 -0.009497
  endloop
 endfacet
 facet normal -0.645038 0.651744 0.398942
  outer loop
   vertex 0.006208 0.160007 -0.012008
   vertex 0.005844 0.158447 -0.010048
   vertex 0.007761 0.160007 -0.009497
  endloop
 endfacet
 facet normal -0.819189 0.412026 0.398954
  outer loop
   vertex 0.004473 0.157619 -0.012008
   vertex 0.004953 0.156142 -0.009497
   vertex 0.005844 0.158447 -0.010048
  endloop
 endfacet
 facet normal -0.936352 0.304548 0.174631
  outer loop
   vertex 0.003569 0.15628 -0.01452
   vertex 0.003608 0.154815 -0.011756
   vertex 0.004473 0.157619 -0.012008
  endloop
 endfacet
 facet normal -0.984653 0.155824 -0.0785916
  outer loop
   vertex 0.003514 0.154666 -0.017031
   vertex 0.00308 0.15319 -0.01452
   vertex 0.003569 0.15628 -0.01452
  endloop
 endfacet
 facet normal -0.886309 0.304753 0.348685
  outer loop
   vertex 0.004473 0.157619 -0.012008
   vertex 0.003608 0.154815 -0.011756
   vertex 0.004953 0.156142 -0.009497
  endloop
 endfacet
 facet normal -0.885615 0.148581 0.440011
  outer loop
   vertex 0.003608 0.154815 -0.011756
   vertex 0.004574 0.15319 -0.009263
   vertex 0.004953 0.156142 -0.009497
  endloop
 endfacet
 facet normal -0.983115 0.15558 0.0963335
  outer loop
   vertex 0.003569 0.15628 -0.01452
   vertex 0.00308 0.15319 -0.01452
   vertex 0.003608 0.154815 -0.011756
  endloop
 endfacet
 facet normal -0.982239 0 0.187634
  outer loop
   vertex 0.00308 0.15319 -0.01452
   vertex 0.003608 0.151565 -0.011756
   vertex 0.003608 0.154815 -0.011756
  endloop
 endfacet
 facet normal -0.932446 0 0.361309
  outer loop
   vertex 0.003608 0.154815 -0.011756
   vertex 0.003608 0.151565 -0.011756
   vertex 0.004574 0.15319 -0.009263
  endloop
 endfacet
 facet normal -0.885615 -0.148581 0.440011
  outer loop
   vertex 0.003608 0.151565 -0.011756
   vertex 0.004953 0.150238 -0.009497
   vertex 0.004574 0.15319 -0.009263
  endloop
 endfacet
 facet normal -0.98539 -0 -0.170314
  outer loop
   vertex 0.003514 0.154666 -0.017031
   vertex 0.003514 0.151714 -0.017031
   vertex 0.00308 0.15319 -0.01452
  endloop
 endfacet
 facet normal -0.984653 -0.155824 -0.0785916
  outer loop
   vertex 0.003514 0.151714 -0.017031
   vertex 0.003569 0.1501 -0.01452
   vertex 0.00308 0.15319 -0.01452
  endloop
 endfacet
 facet normal -0.983115 -0.15558 0.0963335
  outer loop
   vertex 0.00308 0.15319 -0.01452
   vertex 0.003569 0.1501 -0.01452
   vertex 0.003608 0.151565 -0.011756
  endloop
 endfacet
 facet normal -0.936352 -0.304548 0.174631
  outer loop
   vertex 0.003569 0.1501 -0.01452
   vertex 0.004473 0.148761 -0.012008
   vertex 0.003608 0.151565 -0.011756
  endloop
 endfacet
 facet normal -0.886309 -0.304753 0.348685
  outer loop
   vertex 0.003608 0.151565 -0.011756
   vertex 0.004473 0.148761 -0.012008
   vertex 0.004953 0.150238 -0.009497
  endloop
 endfacet
 facet normal -0.819189 -0.412026 0.398954
  outer loop
   vertex 0.004473 0.148761 -0.012008
   vertex 0.005844 0.147933 -0.010048
   vertex 0.004953 0.150238 -0.009497
  endloop
 endfacet
 facet normal -0.645038 -0.651744 0.398942
  outer loop
   vertex 0.006208 0.146373 -0.012008
   vertex 0.007761 0.146373 -0.009497
   vertex 0.005844 0.147933 -0.010048
  endloop
 endfacet
 facet normal -0.578874 -0.796508 0.174584
  outer loop
   vertex 0.007202 0.1451 -0.01452
   vertex 0.008608 0.144684 -0.011756
   vertex 0.006208 0.146373 -0.012008
  endloop
 endfacet
 facet normal -0.452705 -0.888208 -0.0783901
  outer loop
   vertex 0.00872 0.144548 -0.017032
   vertex 0.00999 0.143679 -0.01452
   vertex 0.007202 0.1451 -0.01452
  endloop
 endfacet
 facet normal -0.563623 -0.748876 0.348589
  outer loop
   vertex 0.006208 0.146373 -0.012008
   vertex 0.008608 0.144684 -0.011756
   vertex 0.007761 0.146373 -0.009497
  endloop
 endfacet
 facet normal -0.415138 -0.796394 0.439791
  outer loop
   vertex 0.008608 0.144684 -0.011756
   vertex 0.010451 0.1451 -0.009263
   vertex 0.007761 0.146373 -0.009497
  endloop
 endfacet
 facet normal -0.451986 -0.886796 0.0964489
  outer loop
   vertex 0.007202 0.1451 -0.01452
   vertex 0.00999 0.143679 -0.01452
   vertex 0.008608 0.144684 -0.011756
  endloop
 endfacet
 facet normal -0.303796 -0.934059 0.187729
  outer loop
   vertex 0.00999 0.143679 -0.01452
   vertex 0.011698 0.143679 -0.011756
   vertex 0.008608 0.144684 -0.011756
  endloop
 endfacet
 facet normal -0.288415 -0.886769 0.361189
  outer loop
   vertex 0.008608 0.144684 -0.011756
   vertex 0.011698 0.143679 -0.011756
   vertex 0.010451 0.1451 -0.009263
  endloop
 endfacet
 facet normal -0.132412 -0.888171 0.440021
  outer loop
   vertex 0.011698 0.143679 -0.011756
   vertex 0.013376 0.144548 -0.009497
   vertex 0.010451 0.1451 -0.009263
  endloop
 endfacet
 facet normal -0.304389 -0.937197 -0.170322
  outer loop
   vertex 0.00872 0.144548 -0.017032
   vertex 0.011528 0.143636 -0.017032
   vertex 0.00999 0.143679 -0.01452
  endloop
 endfacet
 facet normal -0.155824 -0.984657 -0.07855
  outer loop
   vertex 0.011528 0.143636 -0.017032
   vertex 0.01308 0.14319 -0.01452
   vertex 0.00999 0.143679 -0.01452
  endloop
 endfacet
 facet normal -0.155583 -0.983133 0.0961419
  outer loop
   vertex 0.00999 0.143679 -0.01452
   vertex 0.01308 0.14319 -0.01452
   vertex 0.011698 0.143679 -0.011756
  endloop
 endfacet
 facet normal 0.000555151 -0.98466 0.174481
  outer loop
   vertex 0.01308 0.14319 -0.01452
   vertex 0.014632 0.143636 -0.012008
   vertex 0.011698 0.143679 -0.011756
  endloop
 endfacet
 facet normal 0.0161962 -0.937175 0.348485
  outer loop
   vertex 0.011698 0.143679 -0.011756
   vertex 0.014632 0.143636 -0.012008
   vertex 0.013376 0.144548 -0.009497
  endloop
 endfacet
 facet normal 0.138975 -0.90647 0.398746
  outer loop
   vertex 0.014632 0.143636 -0.012008
   vertex 0.015844 0.144684 -0.010048
   vertex 0.013376 0.144548 -0.009497
  endloop
 endfacet
 facet normal 0.420269 -0.815078 0.398776
  outer loop
   vertex 0.01744 0.144548 -0.012008
   vertex 0.01792 0.146024 -0.009497
   vertex 0.015844 0.144684 -0.010048
  endloop
 endfacet
 facet normal 0.578519 -0.796783 0.174509
  outer loop
   vertex 0.018958 0.1451 -0.01452
   vertex 0.019788 0.146308 -0.011756
   vertex 0.01744 0.144548 -0.012008
  endloop
 endfacet
 facet normal 0.704936 -0.704936 -0.0782949
  outer loop
   vertex 0.019952 0.146373 -0.017032
   vertex 0.02117 0.147312 -0.01452
   vertex 0.018958 0.1451 -0.01452
  endloop
 endfacet
 facet normal 0.537986 -0.767602 0.348366
  outer loop
   vertex 0.01744 0.144548 -0.012008
   vertex 0.019788 0.146308 -0.011756
   vertex 0.01792 0.146024 -0.009497
  endloop
 endfacet
 facet normal 0.629279 -0.640767 0.439803
  outer loop
   vertex 0.019788 0.146308 -0.011756
   vertex 0.019962 0.14819 -0.009263
   vertex 0.01792 0.146024 -0.009497
  endloop
 endfacet
 facet normal 0.703824 -0.703824 0.0962537
  outer loop
   vertex 0.018958 0.1451 -0.01452
   vertex 0.02117 0.147312 -0.01452
   vertex 0.019788 0.146308 -0.011756
  endloop
 endfacet
 facet normal 0.794662 -0.577331 0.18762
  outer loop
   vertex 0.02117 0.147312 -0.01452
   vertex 0.021698 0.148937 -0.011756
   vertex 0.019788 0.146308 -0.011756
  endloop
 endfacet
 facet normal 0.754436 -0.548107 0.361117
  outer loop
   vertex 0.019788 0.146308 -0.011756
   vertex 0.021698 0.148937 -0.011756
   vertex 0.019962 0.14819 -0.009263
  endloop
 endfacet
 facet normal 0.803858 -0.400541 0.439749
  outer loop
   vertex 0.021698 0.148937 -0.011756
   vertex 0.021391 0.150801 -0.009497
   vertex 0.019962 0.14819 -0.009263
  endloop
 endfacet
 facet normal 0.797233 -0.579229 -0.170037
  outer loop
   vertex 0.019952 0.146373 -0.017032
   vertex 0.021687 0.148761 -0.017032
   vertex 0.02117 0.147312 -0.01452
  endloop
 endfacet
 facet normal 0.888212 -0.452708 -0.078331
  outer loop
   vertex 0.021687 0.148761 -0.017032
   vertex 0.022591 0.1501 -0.01452
   vertex 0.02117 0.147312 -0.01452
  endloop
 endfacet
 facet normal 0.886806 -0.451991 0.0963284
  outer loop
   vertex 0.02117 0.147312 -0.01452
   vertex 0.022591 0.1501 -0.01452
   vertex 0.021698 0.148937 -0.011756
  endloop
 endfacet
 facet normal 0.93657 -0.303801 0.17476
  outer loop
   vertex 0.022591 0.1501 -0.01452
   vertex 0.022646 0.151714 -0.012009
   vertex 0.021698 0.148937 -0.011756
  endloop
 endfacet
 facet normal 0.89641 -0.274294 0.348155
  outer loop
   vertex 0.021698 0.148937 -0.011756
   vertex 0.022646 0.151714 -0.012009
   vertex 0.021391 0.150801 -0.009497
  endloop
 endfacet
 facet normal 0.905177 -0.147939 0.398459
  outer loop
   vertex 0.022646 0.151714 -0.012009
   vertex 0.022024 0.15319 -0.010048
   vertex 0.021391 0.150801 -0.009497
  endloop
 endfacet
 facet normal 0.294416 0.906493 0.302638
  outer loop
   vertex 0.01744 0.161832 -0.012008
   vertex 0.014632 0.162744 -0.012008
   vertex 0.015844 0.161696 -0.010048
  endloop
 endfacet
 facet normal 0.452705 0.888208 0.0783901
  outer loop
   vertex 0.018958 0.16128 -0.01452
   vertex 0.01617 0.162701 -0.01452
   vertex 0.01744 0.161832 -0.012008
  endloop
 endfacet
 facet normal 0.578874 0.796508 -0.174584
  outer loop
   vertex 0.019952 0.160007 -0.017032
   vertex 0.017552 0.161696 -0.017284
   vertex 0.018958 0.16128 -0.01452
  endloop
 endfacet
 facet normal 0.304389 0.937197 0.170322
  outer loop
   vertex 0.01744 0.161832 -0.012008
   vertex 0.01617 0.162701 -0.01452
   vertex 0.014632 0.162744 -0.012008
  endloop
 endfacet
 facet normal 0.155824 0.984657 0.07855
  outer loop
   vertex 0.01617 0.162701 -0.01452
   vertex 0.01308 0.16319 -0.01452
   vertex 0.014632 0.162744 -0.012008
  endloop
 endfacet
 facet normal 0.451986 0.886796 -0.0964489
  outer loop
   vertex 0.018958 0.16128 -0.01452
   vertex 0.017552 0.161696 -0.017284
   vertex 0.01617 0.162701 -0.01452
  endloop
 endfacet
 facet normal 0.303796 0.934059 -0.187729
  outer loop
   vertex 0.017552 0.161696 -0.017284
   vertex 0.014462 0.162701 -0.017284
   vertex 0.01617 0.162701 -0.01452
  endloop
 endfacet
 facet normal 0.155583 0.983133 -0.0961419
  outer loop
   vertex 0.01617 0.162701 -0.01452
   vertex 0.014462 0.162701 -0.017284
   vertex 0.01308 0.16319 -0.01452
  endloop
 endfacet
 facet normal -0.000555151 0.98466 -0.174481
  outer loop
   vertex 0.014462 0.162701 -0.017284
   vertex 0.011528 0.162744 -0.017032
   vertex 0.01308 0.16319 -0.01452
  endloop
 endfacet
 facet normal 0.563623 0.748876 -0.348589
  outer loop
   vertex 0.019952 0.160007 -0.017032
   vertex 0.018399 0.160007 -0.019543
   vertex 0.017552 0.161696 -0.017284
  endloop
 endfacet
 facet normal 0.415138 0.796394 -0.439791
  outer loop
   vertex 0.018399 0.160007 -0.019543
   vertex 0.015709 0.16128 -0.019777
   vertex 0.017552 0.161696 -0.017284
  endloop
 endfacet
 facet normal 0.288415 0.886769 -0.361189
  outer loop
   vertex 0.017552 0.161696 -0.017284
   vertex 0.015709 0.16128 -0.019777
   vertex 0.014462 0.162701 -0.017284
  endloop
 endfacet
 facet normal 0.132412 0.888171 -0.440021
  outer loop
   vertex 0.015709 0.16128 -0.019777
   vertex 0.012784 0.161832 -0.019543
   vertex 0.014462 0.162701 -0.017284
  endloop
 endfacet
 facet normal -0.0161962 0.937175 -0.348485
  outer loop
   vertex 0.014462 0.162701 -0.017284
   vertex 0.012784 0.161832 -0.019543
   vertex 0.011528 0.162744 -0.017032
  endloop
 endfacet
 facet normal -0.138975 0.90647 -0.398746
  outer loop
   vertex 0.012784 0.161832 -0.019543
   vertex 0.010316 0.161696 -0.018992
   vertex 0.011528 0.162744 -0.017032
  endloop
 endfacet
 facet normal -0.771063 0.560215 0.302688
  outer loop
   vertex 0.006208 0.160007 -0.012008
   vertex 0.004473 0.157619 -0.012008
   vertex 0.005844 0.158447 -0.010048
  endloop
 endfacet
 facet normal -0.704936 0.704936 0.0782949
  outer loop
   vertex 0.007202 0.16128 -0.01452
   vertex 0.00499 0.159068 -0.01452
   vertex 0.006208 0.160007 -0.012008
  endloop
 endfacet
 facet normal -0.578519 0.796783 -0.174509
  outer loop
   vertex 0.00872 0.161832 -0.017032
   vertex 0.006372 0.160072 -0.017284
   vertex 0.007202 0.16128 -0.01452
  endloop
 endfacet
 facet normal -0.797233 0.579229 0.170037
  outer loop
   vertex 0.006208 0.160007 -0.012008
   vertex 0.00499 0.159068 -0.01452
   vertex 0.004473 0.157619 -0.012008
  endloop
 endfacet
 facet normal -0.888212 0.452708 0.078331
  outer loop
   vertex 0.00499 0.159068 -0.01452
   vertex 0.003569 0.15628 -0.01452
   vertex 0.004473 0.157619 -0.012008
  endloop
 endfacet
 facet normal -0.703824 0.703824 -0.0962537
  outer loop
   vertex 0.007202 0.16128 -0.01452
   vertex 0.006372 0.160072 -0.017284
   vertex 0.00499 0.159068 -0.01452
  endloop
 endfacet
 facet normal -0.794662 0.577331 -0.18762
  outer loop
   vertex 0.006372 0.160072 -0.017284
   vertex 0.004462 0.157443 -0.017284
   vertex 0.00499 0.159068 -0.01452
  endloop
 endfacet
 facet normal -0.886806 0.451991 -0.0963284
  outer loop
   vertex 0.00499 0.159068 -0.01452
   vertex 0.004462 0.157443 -0.017284
   vertex 0.003569 0.15628 -0.01452
  endloop
 endfacet
 facet normal -0.93657 0.303801 -0.17476
  outer loop
   vertex 0.004462 0.157443 -0.017284
   vertex 0.003514 0.154666 -0.017031
   vertex 0.003569 0.15628 -0.01452
  endloop
 endfacet
 facet normal -0.537986 0.767602 -0.348366
  outer loop
   vertex 0.00872 0.161832 -0.017032
   vertex 0.00824 0.160356 -0.019543
   vertex 0.006372 0.160072 -0.017284
  endloop
 endfacet
 facet normal -0.629279 0.640767 -0.439803
  outer loop
   vertex 0.00824 0.160356 -0.019543
   vertex 0.006198 0.15819 -0.019777
   vertex 0.006372 0.160072 -0.017284
  endloop
 endfacet
 facet normal -0.754436 0.548107 -0.361117
  outer loop
   vertex 0.006372 0.160072 -0.017284
   vertex 0.006198 0.15819 -0.019777
   vertex 0.004462 0.157443 -0.017284
  endloop
 endfacet
 facet normal -0.803858 0.400541 -0.439749
  outer loop
   vertex 0.006198 0.15819 -0.019777
   vertex 0.004769 0.155579 -0.019543
   vertex 0.004462 0.157443 -0.017284
  endloop
 endfacet
 facet normal -0.89641 0.274294 -0.348155
  outer loop
   vertex 0.004462 0.157443 -0.017284
   vertex 0.004769 0.155579 -0.019543
   vertex 0.003514 0.154666 -0.017031
  endloop
 endfacet
 facet normal -0.905177 0.147939 -0.398459
  outer loop
   vertex 0.004769 0.155579 -0.019543
   vertex 0.004136 0.15319 -0.018992
   vertex 0.003514 0.154666 -0.017031
  endloop
 endfacet
 facet normal -0.771063 -0.560215 0.302688
  outer loop
   vertex 0.004473 0.148761 -0.012008
   vertex 0.006208 0.146373 -0.012008
   vertex 0.005844 0.147933 -0.010048
  endloop
 endfacet
 facet normal -0.888212 -0.452708 0.078331
  outer loop
   vertex 0.003569 0.1501 -0.01452
   vertex 0.00499 0.147312 -0.01452
   vertex 0.004473 0.148761 -0.012008
  endloop
 endfacet
 facet normal -0.93657 -0.303801 -0.17476
  outer loop
   vertex 0.003514 0.151714 -0.017031
   vertex 0.004462 0.148937 -0.017284
   vertex 0.003569 0.1501 -0.01452
  endloop
 endfacet
 facet normal -0.797233 -0.579229 0.170037
  outer loop
   vertex 0.004473 0.148761 -0.012008
   vertex 0.00499 0.147312 -0.01452
   vertex 0.006208 0.146373 -0.012008
  endloop
 endfacet
 facet normal -0.704936 -0.704936 0.0782949
  outer loop
   vertex 0.00499 0.147312 -0.01452
   vertex 0.007202 0.1451 -0.01452
   vertex 0.006208 0.146373 -0.012008
  endloop
 endfacet
 facet normal -0.886806 -0.451991 -0.0963284
  outer loop
   vertex 0.003569 0.1501 -0.01452
   vertex 0.004462 0.148937 -0.017284
   vertex 0.00499 0.147312 -0.01452
  endloop
 endfacet
 facet normal -0.794662 -0.577331 -0.18762
  outer loop
   vertex 0.004462 0.148937 -0.017284
   vertex 0.006372 0.146308 -0.017284
   vertex 0.00499 0.147312 -0.01452
  endloop
 endfacet
 facet normal -0.703824 -0.703824 -0.0962537
  outer loop
   vertex 0.00499 0.147312 -0.01452
   vertex 0.006372 0.146308 -0.017284
   vertex 0.007202 0.1451 -0.01452
  endloop
 endfacet
 facet normal -0.578519 -0.796783 -0.174509
  outer loop
   vertex 0.006372 0.146308 -0.017284
   vertex 0.00872 0.144548 -0.017032
   vertex 0.007202 0.1451 -0.01452
  endloop
 endfacet
 facet normal -0.89641 -0.274294 -0.348155
  outer loop
   vertex 0.003514 0.151714 -0.017031
   vertex 0.004769 0.150801 -0.019543
   vertex 0.004462 0.148937 -0.017284
  endloop
 endfacet
 facet normal -0.803858 -0.400541 -0.439749
  outer loop
   vertex 0.004769 0.150801 -0.019543
   vertex 0.006198 0.14819 -0.019777
   vertex 0.004462 0.148937 -0.017284
  endloop
 endfacet
 facet normal -0.754436 -0.548107 -0.361117
  outer loop
   vertex 0.004462 0.148937 -0.017284
   vertex 0.006198 0.14819 -0.019777
   vertex 0.006372 0.146308 -0.017284
  endloop
 endfacet
 facet normal -0.629279 -0.640767 -0.439803
  outer loop
   vertex 0.006198 0.14819 -0.019777
   vertex 0.00824 0.146024 -0.019543
   vertex 0.006372 0.146308 -0.017284
  endloop
 endfacet
 facet normal -0.537986 -0.767602 -0.348366
  outer loop
   vertex 0.006372 0.146308 -0.017284
   vertex 0.00824 0.146024 -0.019543
   vertex 0.00872 0.144548 -0.017032
  endloop
 endfacet
 facet normal -0.420269 -0.815078 -0.398776
  outer loop
   vertex 0.00824 0.146024 -0.019543
   vertex 0.010316 0.144684 -0.018992
   vertex 0.00872 0.144548 -0.017032
  endloop
 endfacet
 facet normal 0.294416 -0.906493 0.302638
  outer loop
   vertex 0.014632 0.143636 -0.012008
   vertex 0.01744 0.144548 -0.012008
   vertex 0.015844 0.144684 -0.010048
  endloop
 endfacet
 facet normal 0.155824 -0.984657 0.07855
  outer loop
   vertex 0.01308 0.14319 -0.01452
   vertex 0.01617 0.143679 -0.01452
   vertex 0.014632 0.143636 -0.012008
  endloop
 endfacet
 facet normal -0.000555151 -0.98466 -0.174481
  outer loop
   vertex 0.011528 0.143636 -0.017032
   vertex 0.014462 0.143679 -0.017284
   vertex 0.01308 0.14319 -0.01452
  endloop
 endfacet
 facet normal 0.304389 -0.937197 0.170322
  outer loop
   vertex 0.014632 0.143636 -0.012008
   vertex 0.01617 0.143679 -0.01452
   vertex 0.01744 0.144548 -0.012008
  endloop
 endfacet
 facet normal 0.452705 -0.888208 0.0783901
  outer loop
   vertex 0.01617 0.143679 -0.01452
   vertex 0.018958 0.1451 -0.01452
   vertex 0.01744 0.144548 -0.012008
  endloop
 endfacet
 facet normal 0.155583 -0.983133 -0.0961419
  outer loop
   vertex 0.01308 0.14319 -0.01452
   vertex 0.014462 0.143679 -0.017284
   vertex 0.01617 0.143679 -0.01452
  endloop
 endfacet
 facet normal 0.303796 -0.934059 -0.187729
  outer loop
   vertex 0.014462 0.143679 -0.017284
   vertex 0.017552 0.144684 -0.017284
   vertex 0.01617 0.143679 -0.01452
  endloop
 endfacet
 facet normal 0.451986 -0.886796 -0.0964489
  outer loop
   vertex 0.01617 0.143679 -0.01452
   vertex 0.017552 0.144684 -0.017284
   vertex 0.018958 0.1451 -0.01452
  endloop
 endfacet
 facet normal 0.578874 -0.796508 -0.174584
  outer loop
   vertex 0.017552 0.144684 -0.017284
   vertex 0.019952 0.146373 -0.017032
   vertex 0.018958 0.1451 -0.01452
  endloop
 endfacet
 facet normal -0.0161962 -0.937175 -0.348485
  outer loop
   vertex 0.011528 0.143636 -0.017032
   vertex 0.012784 0.144548 -0.019543
   vertex 0.014462 0.143679 -0.017284
  endloop
 endfacet
 facet normal 0.132412 -0.888171 -0.440021
  outer loop
   vertex 0.012784 0.144548 -0.019543
   vertex 0.015709 0.1451 -0.019777
   vertex 0.014462 0.143679 -0.017284
  endloop
 endfacet
 facet normal 0.288415 -0.886769 -0.361189
  outer loop
   vertex 0.014462 0.143679 -0.017284
   vertex 0.015709 0.1451 -0.019777
   vertex 0.017552 0.144684 -0.017284
  endloop
 endfacet
 facet normal 0.415138 -0.796394 -0.439791
  outer loop
   vertex 0.015709 0.1451 -0.019777
   vertex 0.018399 0.146373 -0.019543
   vertex 0.017552 0.144684 -0.017284
  endloop
 endfacet
 facet normal 0.563623 -0.748876 -0.348589
  outer loop
   vertex 0.017552 0.144684 -0.017284
   vertex 0.018399 0.146373 -0.019543
   vertex 0.019952 0.146373 -0.017032
  endloop
 endfacet
 facet normal 0.645038 -0.651744 -0.398942
  outer loop
   vertex 0.018399 0.146373 -0.019543
   vertex 0.020316 0.147933 -0.018992
   vertex 0.019952 0.146373 -0.017032
  endloop
 endfacet
 facet normal 0.9532 -0 0.302341
  outer loop
   vertex 0.022646 0.151714 -0.012009
   vertex 0.022646 0.154666 -0.012009
   vertex 0.022024 0.15319 -0.010048
  endloop
 endfacet
 facet normal 0.984653 -0.155824 0.0785916
  outer loop
   vertex 0.022591 0.1501 -0.01452
   vertex 0.02308 0.15319 -0.01452
   vertex 0.022646 0.151714 -0.012009
  endloop
 endfacet
 facet normal 0.936352 -0.304548 -0.174631
  outer loop
   vertex 0.021687 0.148761 -0.017032
   vertex 0.022552 0.151565 -0.017284
   vertex 0.022591 0.1501 -0.01452
  endloop
 endfacet
 facet normal 0.98539 -0 0.170314
  outer loop
   vertex 0.022646 0.151714 -0.012009
   vertex 0.02308 0.15319 -0.01452
   vertex 0.022646 0.154666 -0.012009
  endloop
 endfacet
 facet normal 0.984653 0.155824 0.0785916
  outer loop
   vertex 0.02308 0.15319 -0.01452
   vertex 0.022591 0.15628 -0.01452
   vertex 0.022646 0.154666 -0.012009
  endloop
 endfacet
 facet normal 0.983115 -0.15558 -0.0963335
  outer loop
   vertex 0.022591 0.1501 -0.01452
   vertex 0.022552 0.151565 -0.017284
   vertex 0.02308 0.15319 -0.01452
  endloop
 endfacet
 facet normal 0.982239 0 -0.187634
  outer loop
   vertex 0.022552 0.151565 -0.017284
   vertex 0.022552 0.154815 -0.017284
   vertex 0.02308 0.15319 -0.01452
  endloop
 endfacet
 facet normal 0.983115 0.15558 -0.0963335
  outer loop
   vertex 0.02308 0.15319 -0.01452
   vertex 0.022552 0.154815 -0.017284
   vertex 0.022591 0.15628 -0.01452
  endloop
 endfacet
 facet normal 0.936352 0.304548 -0.174631
  outer loop
   vertex 0.022552 0.154815 -0.017284
   vertex 0.021687 0.157619 -0.017032
   vertex 0.022591 0.15628 -0.01452
  endloop
 endfacet
 facet normal 0.886309 -0.304753 -0.348685
  outer loop
   vertex 0.021687 0.148761 -0.017032
   vertex 0.021207 0.150238 -0.019543
   vertex 0.022552 0.151565 -0.017284
  endloop
 endfacet
 facet normal 0.885615 -0.148581 -0.440011
  outer loop
   vertex 0.021207 0.150238 -0.019543
   vertex 0.021586 0.15319 -0.019777
   vertex 0.022552 0.151565 -0.017284
  endloop
 endfacet
 facet normal 0.932446 0 -0.361309
  outer loop
   vertex 0.022552 0.151565 -0.017284
   vertex 0.021586 0.15319 -0.019777
   vertex 0.022552 0.154815 -0.017284
  endloop
 endfacet
 facet normal 0.885615 0.148581 -0.440011
  outer loop
   vertex 0.021586 0.15319 -0.019777
   vertex 0.021207 0.156142 -0.019543
   vertex 0.022552 0.154815 -0.017284
  endloop
 endfacet
 facet normal 0.886309 0.304753 -0.348685
  outer loop
   vertex 0.022552 0.154815 -0.017284
   vertex 0.021207 0.156142 -0.019543
   vertex 0.021687 0.157619 -0.017032
  endloop
 endfacet
 facet normal 0.819189 0.412026 -0.398954
  outer loop
   vertex 0.021207 0.156142 -0.019543
   vertex 0.020316 0.158447 -0.018992
   vertex 0.021687 0.157619 -0.017032
  endloop
 endfacet
 facet normal 0.61533 0.560308 -0.554459
  outer loop
   vertex 0.019175 0.157619 -0.021095
   vertex 0.018399 0.160007 -0.019543
   vertex 0.020316 0.158447 -0.018992
  endloop
 endfacet
 facet normal 0.467426 0.452641 -0.759361
  outer loop
   vertex 0.017333 0.15628 -0.023027
   vertex 0.016698 0.159068 -0.021756
   vertex 0.019175 0.157619 -0.021095
  endloop
 endfacet
 facet normal 0.262485 0.303841 -0.915851
  outer loop
   vertex 0.015112 0.154666 -0.024199
   vertex 0.014462 0.157443 -0.023464
   vertex 0.017333 0.15628 -0.023027
  endloop
 endfacet
 facet normal 0.508799 0.579247 -0.636864
  outer loop
   vertex 0.019175 0.157619 -0.021095
   vertex 0.016698 0.159068 -0.021756
   vertex 0.018399 0.160007 -0.019543
  endloop
 endfacet
 facet normal 0.38541 0.704977 -0.595371
  outer loop
   vertex 0.016698 0.159068 -0.021756
   vertex 0.015709 0.16128 -0.019777
   vertex 0.018399 0.160007 -0.019543
  endloop
 endfacet
 facet normal 0.310374 0.451949 -0.836307
  outer loop
   vertex 0.017333 0.15628 -0.023027
   vertex 0.014462 0.157443 -0.023464
   vertex 0.016698 0.159068 -0.021756
  endloop
 endfacet
 facet normal 0.187559 0.577248 -0.794737
  outer loop
   vertex 0.014462 0.157443 -0.023464
   vertex 0.013608 0.160072 -0.021756
   vertex 0.016698 0.159068 -0.021756
  endloop
 endfacet
 facet normal 0.228709 0.703897 -0.672474
  outer loop
   vertex 0.016698 0.159068 -0.021756
   vertex 0.013608 0.160072 -0.021756
   vertex 0.015709 0.16128 -0.019777
  endloop
 endfacet
 facet normal 0.102735 0.796801 -0.595444
  outer loop
   vertex 0.013608 0.160072 -0.021756
   vertex 0.012784 0.161832 -0.019543
   vertex 0.015709 0.16128 -0.019777
  endloop
 endfacet
 facet normal 0.0891868 0.274301 -0.957499
  outer loop
   vertex 0.015112 0.154666 -0.024199
   vertex 0.012304 0.155579 -0.024199
   vertex 0.014462 0.157443 -0.023464
  endloop
 endfacet
 facet normal -0.0336945 0.400135 -0.915836
  outer loop
   vertex 0.012304 0.155579 -0.024199
   vertex 0.011455 0.15819 -0.023027
   vertex 0.014462 0.157443 -0.023464
  endloop
 endfacet
 facet normal 0.0146149 0.548074 -0.836302
  outer loop
   vertex 0.014462 0.157443 -0.023464
   vertex 0.011455 0.15819 -0.023027
   vertex 0.013608 0.160072 -0.021756
  endloop
 endfacet
 facet normal -0.112009 0.640965 -0.759354
  outer loop
   vertex 0.011455 0.15819 -0.023027
   vertex 0.010752 0.160356 -0.021095
   vertex 0.013608 0.160072 -0.021756
  endloop
 endfacet
 facet normal -0.0710868 0.767617 -0.636955
  outer loop
   vertex 0.013608 0.160072 -0.021756
   vertex 0.010752 0.160356 -0.021095
   vertex 0.012784 0.161832 -0.019543
  endloop
 endfacet
 facet normal -0.168666 0.815046 -0.554303
  outer loop
   vertex 0.010752 0.160356 -0.021095
   vertex 0.010316 0.161696 -0.018992
   vertex 0.012784 0.161832 -0.019543
  endloop
 endfacet
 facet normal -0.342493 0.758552 -0.554344
  outer loop
   vertex 0.010752 0.160356 -0.021095
   vertex 0.00824 0.160356 -0.019543
   vertex 0.010316 0.161696 -0.018992
  endloop
 endfacet
 facet normal -0.286233 0.584386 -0.759318
  outer loop
   vertex 0.011455 0.15819 -0.023027
   vertex 0.008608 0.158447 -0.021756
   vertex 0.010752 0.160356 -0.021095
  endloop
 endfacet
 facet normal -0.207851 0.343516 -0.915858
  outer loop
   vertex 0.012304 0.155579 -0.024199
   vertex 0.009462 0.155819 -0.023464
   vertex 0.011455 0.15819 -0.023027
  endloop
 endfacet
 facet normal -0.393627 0.662685 -0.637108
  outer loop
   vertex 0.010752 0.160356 -0.021095
   vertex 0.008608 0.158447 -0.021756
   vertex 0.00824 0.160356 -0.019543
  endloop
 endfacet
 facet normal -0.551379 0.584158 -0.595601
  outer loop
   vertex 0.008608 0.158447 -0.021756
   vertex 0.006198 0.15819 -0.019777
   vertex 0.00824 0.160356 -0.019543
  endloop
 endfacet
 facet normal -0.334054 0.43492 -0.836213
  outer loop
   vertex 0.011455 0.15819 -0.023027
   vertex 0.009462 0.155819 -0.023464
   vertex 0.008608 0.158447 -0.021756
  endloop
 endfacet
 facet normal -0.491058 0.356895 -0.794662
  outer loop
   vertex 0.009462 0.155819 -0.023464
   vertex 0.006698 0.155819 -0.021756
   vertex 0.008608 0.158447 -0.021756
  endloop
 endfacet
 facet normal -0.598657 0.435097 -0.672533
  outer loop
   vertex 0.008608 0.158447 -0.021756
   vertex 0.006698 0.155819 -0.021756
   vertex 0.006198 0.15819 -0.019777
  endloop
 endfacet
 facet normal -0.725985 0.343961 -0.595514
  outer loop
   vertex 0.006698 0.155819 -0.021756
   vertex 0.004769 0.155579 -0.019543
   vertex 0.006198 0.15819 -0.019777
  endloop
 endfacet
 facet normal -0.233325 0.169451 -0.957521
  outer loop
   vertex 0.012304 0.155579 -0.024199
   vertex 0.010569 0.15319 -0.024199
   vertex 0.009462 0.155819 -0.023464
  endloop
 endfacet
 facet normal -0.390899 0.0914587 -0.915878
  outer loop
   vertex 0.010569 0.15319 -0.024199
   vertex 0.007823 0.15319 -0.023027
   vertex 0.009462 0.155819 -0.023464
  endloop
 endfacet
 facet normal -0.516783 0.183167 -0.836293
  outer loop
   vertex 0.009462 0.155819 -0.023464
   vertex 0.007823 0.15319 -0.023027
   vertex 0.006698 0.155819 -0.021756
  endloop
 endfacet
 facet normal -0.644269 0.0913996 -0.759317
  outer loop
   vertex 0.007823 0.15319 -0.023027
   vertex 0.005546 0.15319 -0.021095
   vertex 0.006698 0.155819 -0.021756
  endloop
 endfacet
 facet normal -0.751958 0.169318 -0.637095
  outer loop
   vertex 0.006698 0.155819 -0.021756
   vertex 0.005546 0.15319 -0.021095
   vertex 0.004769 0.155579 -0.019543
  endloop
 endfacet
 facet normal -0.827124 0.091254 -0.554562
  outer loop
   vertex 0.005546 0.15319 -0.021095
   vertex 0.004136 0.15319 -0.018992
   vertex 0.004769 0.155579 -0.019543
  endloop
 endfacet
 facet normal -0.827124 -0.091254 -0.554562
  outer loop
   vertex 0.005546 0.15319 -0.021095
   vertex 0.004769 0.150801 -0.019543
   vertex 0.004136 0.15319 -0.018992
  endloop
 endfacet
 facet normal -0.644269 -0.0913996 -0.759317
  outer loop
   vertex 0.007823 0.15319 -0.023027
   vertex 0.006698 0.150561 -0.021756
   vertex 0.005546 0.15319 -0.021095
  endloop
 endfacet
 facet normal -0.390899 -0.0914587 -0.915878
  outer loop
   vertex 0.010569 0.15319 -0.024199
   vertex 0.009462 0.150561 -0.023464
   vertex 0.007823 0.15319 -0.023027
  endloop
 endfacet
 facet normal -0.751958 -0.169318 -0.637095
  outer loop
   vertex 0.005546 0.15319 -0.021095
   vertex 0.006698 0.150561 -0.021756
   vertex 0.004769 0.150801 -0.019543
  endloop
 endfacet
 facet normal -0.725985 -0.343961 -0.595514
  outer loop
   vertex 0.006698 0.150561 -0.021756
   vertex 0.006198 0.14819 -0.019777
   vertex 0.004769 0.150801 -0.019543
  endloop
 endfacet
 facet normal -0.516783 -0.183167 -0.836293
  outer loop
   vertex 0.007823 0.15319 -0.023027
   vertex 0.009462 0.150561 -0.023464
   vertex 0.006698 0.150561 -0.021756
  endloop
 endfacet
 facet normal -0.491058 -0.356895 -0.794662
  outer loop
   vertex 0.009462 0.150561 -0.023464
   vertex 0.008608 0.147933 -0.021756
   vertex 0.006698 0.150561 -0.021756
  endloop
 endfacet
 facet normal -0.598657 -0.435097 -0.672533
  outer loop
   vertex 0.006698 0.150561 -0.021756
   vertex 0.008608 0.147933 -0.021756
   vertex 0.006198 0.14819 -0.019777
  endloop
 endfacet
 facet normal -0.551379 -0.584158 -0.595601
  outer loop
   vertex 0.008608 0.147933 -0.021756
   vertex 0.00824 0.146024 -0.019543
   vertex 0.006198 0.14819 -0.019777
  endloop
 endfacet
 facet normal -0.233325 -0.169451 -0.957521
  outer loop
   vertex 0.010569 0.15319 -0.024199
   vertex 0.012304 0.150801 -0.024199
   vertex 0.009462 0.150561 -0.023464
  endloop
 endfacet
 facet normal -0.207851 -0.343516 -0.915858
  outer loop
   vertex 0.012304 0.150801 -0.024199
   vertex 0.011455 0.14819 -0.023027
   vertex 0.009462 0.150561 -0.023464
  endloop
 endfacet
 facet normal -0.334054 -0.43492 -0.836213
  outer loop
   vertex 0.009462 0.150561 -0.023464
   vertex 0.011455 0.14819 -0.023027
   vertex 0.008608 0.147933 -0.021756
  endloop
 endfacet
 facet normal -0.286233 -0.584386 -0.759318
  outer loop
   vertex 0.011455 0.14819 -0.023027
   vertex 0.010752 0.146024 -0.021095
   vertex 0.008608 0.147933 -0.021756
  endloop
 endfacet
 facet normal -0.393627 -0.662685 -0.637108
  outer loop
   vertex 0.008608 0.147933 -0.021756
   vertex 0.010752 0.146024 -0.021095
   vertex 0.00824 0.146024 -0.019543
  endloop
 endfacet
 facet normal -0.342493 -0.758552 -0.554344
  outer loop
   vertex 0.010752 0.146024 -0.021095
   vertex 0.010316 0.144684 -0.018992
   vertex 0.00824 0.146024 -0.019543
  endloop
 endfacet
 facet normal 0.723015 0.412034 -0.554506
  outer loop
   vertex 0.021207 0.156142 -0.019543
   vertex 0.019175 0.157619 -0.021095
   vertex 0.020316 0.158447 -0.018992
  endloop
 endfacet
 facet normal 0.789589 0.148568 -0.59538
  outer loop
   vertex 0.021586 0.15319 -0.019777
   vertex 0.019788 0.154815 -0.021756
   vertex 0.021207 0.156142 -0.019543
  endloop
 endfacet
 facet normal 0.789589 -0.148568 -0.59538
  outer loop
   vertex 0.021207 0.150238 -0.019543
   vertex 0.019788 0.151565 -0.021756
   vertex 0.021586 0.15319 -0.019777
  endloop
 endfacet
 facet normal 0.708089 0.304936 -0.636886
  outer loop
   vertex 0.021207 0.156142 -0.019543
   vertex 0.019788 0.154815 -0.021756
   vertex 0.019175 0.157619 -0.021095
  endloop
 endfacet
 facet normal 0.574948 0.304695 -0.759339
  outer loop
   vertex 0.019788 0.154815 -0.021756
   vertex 0.017333 0.15628 -0.023027
   vertex 0.019175 0.157619 -0.021095
  endloop
 endfacet
 facet normal 0.740143 0 -0.672449
  outer loop
   vertex 0.021586 0.15319 -0.019777
   vertex 0.019788 0.151565 -0.021756
   vertex 0.019788 0.154815 -0.021756
  endloop
 endfacet
 facet normal 0.607028 0 -0.794681
  outer loop
   vertex 0.019788 0.151565 -0.021756
   vertex 0.017552 0.15319 -0.023464
   vertex 0.019788 0.154815 -0.021756
  endloop
 endfacet
 facet normal 0.525774 0.155534 -0.836284
  outer loop
   vertex 0.019788 0.154815 -0.021756
   vertex 0.017552 0.15319 -0.023464
   vertex 0.017333 0.15628 -0.023027
  endloop
 endfacet
 facet normal 0.370096 0.155752 -0.915844
  outer loop
   vertex 0.017552 0.15319 -0.023464
   vertex 0.015112 0.154666 -0.024199
   vertex 0.017333 0.15628 -0.023027
  endloop
 endfacet
 facet normal 0.708089 -0.304936 -0.636886
  outer loop
   vertex 0.021207 0.150238 -0.019543
   vertex 0.019175 0.148761 -0.021095
   vertex 0.019788 0.151565 -0.021756
  endloop
 endfacet
 facet normal 0.574948 -0.304695 -0.759339
  outer loop
   vertex 0.019175 0.148761 -0.021095
   vertex 0.017333 0.1501 -0.023027
   vertex 0.019788 0.151565 -0.021756
  endloop
 endfacet
 facet normal 0.525774 -0.155534 -0.836284
  outer loop
   vertex 0.019788 0.151565 -0.021756
   vertex 0.017333 0.1501 -0.023027
   vertex 0.017552 0.15319 -0.023464
  endloop
 endfacet
 facet normal 0.370096 -0.155752 -0.915844
  outer loop
   vertex 0.017333 0.1501 -0.023027
   vertex 0.015112 0.151714 -0.024199
   vertex 0.017552 0.15319 -0.023464
  endloop
 endfacet
 facet normal 0.288428 0 -0.957502
  outer loop
   vertex 0.017552 0.15319 -0.023464
   vertex 0.015112 0.151714 -0.024199
   vertex 0.015112 0.154666 -0.024199
  endloop
 endfacet
 facet normal 0.156037 0 -0.987751
  outer loop
   vertex 0.015112 0.151714 -0.024199
   vertex 0.01308 0.15319 -0.02452
   vertex 0.015112 0.154666 -0.024199
  endloop
 endfacet
 facet normal -0.168666 -0.815046 -0.554303
  outer loop
   vertex 0.010752 0.146024 -0.021095
   vertex 0.012784 0.144548 -0.019543
   vertex 0.010316 0.144684 -0.018992
  endloop
 endfacet
 facet normal -0.112009 -0.640965 -0.759354
  outer loop
   vertex 0.011455 0.14819 -0.023027
   vertex 0.013608 0.146308 -0.021756
   vertex 0.010752 0.146024 -0.021095
  endloop
 endfacet
 facet normal -0.0336945 -0.400135 -0.915836
  outer loop
   vertex 0.012304 0.150801 -0.024199
   vertex 0.014462 0.148937 -0.023464
   vertex 0.011455 0.14819 -0.023027
  endloop
 endfacet
 facet normal -0.0710868 -0.767617 -0.636955
  outer loop
   vertex 0.010752 0.146024 -0.021095
   vertex 0.013608 0.146308 -0.021756
   vertex 0.012784 0.144548 -0.019543
  endloop
 endfacet
 facet normal 0.102735 -0.796801 -0.595444
  outer loop
   vertex 0.013608 0.146308 -0.021756
   vertex 0.015709 0.1451 -0.019777
   vertex 0.012784 0.144548 -0.019543
  endloop
 endfacet
 facet normal 0.0146149 -0.548074 -0.836302
  outer loop
   vertex 0.011455 0.14819 -0.023027
   vertex 0.014462 0.148937 -0.023464
   vertex 0.013608 0.146308 -0.021756
  endloop
 endfacet
 facet normal 0.187559 -0.577248 -0.794737
  outer loop
   vertex 0.014462 0.148937 -0.023464
   vertex 0.016698 0.147312 -0.021756
   vertex 0.013608 0.146308 -0.021756
  endloop
 endfacet
 facet normal 0.228709 -0.703897 -0.672474
  outer loop
   vertex 0.013608 0.146308 -0.021756
   vertex 0.016698 0.147312 -0.021756
   vertex 0.015709 0.1451 -0.019777
  endloop
 endfacet
 facet normal 0.38541 -0.704977 -0.595371
  outer loop
   vertex 0.016698 0.147312 -0.021756
   vertex 0.018399 0.146373 -0.019543
   vertex 0.015709 0.1451 -0.019777
  endloop
 endfacet
 facet normal 0.0891868 -0.274301 -0.957499
  outer loop
   vertex 0.012304 0.150801 -0.024199
   vertex 0.015112 0.151714 -0.024199
   vertex 0.014462 0.148937 -0.023464
  endloop
 endfacet
 facet normal 0.262485 -0.303841 -0.915851
  outer loop
   vertex 0.015112 0.151714 -0.024199
   vertex 0.017333 0.1501 -0.023027
   vertex 0.014462 0.148937 -0.023464
  endloop
 endfacet
 facet normal 0.310374 -0.451949 -0.836307
  outer loop
   vertex 0.014462 0.148937 -0.023464
   vertex 0.017333 0.1501 -0.023027
   vertex 0.016698 0.147312 -0.021756
  endloop
 endfacet
 facet normal 0.467426 -0.452641 -0.759361
  outer loop
   vertex 0.017333 0.1501 -0.023027
   vertex 0.019175 0.148761 -0.021095
   vertex 0.016698 0.147312 -0.021756
  endloop
 endfacet
 facet normal 0.508799 -0.579247 -0.636864
  outer loop
   vertex 0.016698 0.147312 -0.021756
   vertex 0.019175 0.148761 -0.021095
   vertex 0.018399 0.146373 -0.019543
  endloop
 endfacet
 facet normal 0.61533 -0.560308 -0.554459
  outer loop
   vertex 0.019175 0.148761 -0.021095
   vertex 0.020316 0.147933 -0.018992
   vertex 0.018399 0.146373 -0.019543
  endloop
 endfacet
endsolid ExportedfromBlender-3.5.1
