solid ExportedfromBlender-3.5.1
 facet normal 0.0482486 -0.148392 -0.987751
  outer loop
   vertex 0.00494 0.29864 0.01459
   vertex 0.006972 0.297164 0.014911
   vertex 0.004164 0.296251 0.014911
  endloop
 endfacet
 facet normal 0.723015 -0.412034 -0.554506
  outer loop
   vertex 0.012176 0.293383 0.020118
   vertex 0.011035 0.294211 0.018015
   vertex 0.013067 0.295688 0.019567
  endloop
 endfacet
 facet normal -0.126271 -0.0917039 -0.987748
  outer loop
   vertex 0.00494 0.29864 0.01459
   vertex 0.004164 0.296251 0.014911
   vertex 0.002429 0.29864 0.014911
  endloop
 endfacet
 facet normal -0.126271 0.0917039 -0.987748
  outer loop
   vertex 0.00494 0.29864 0.01459
   vertex 0.002429 0.29864 0.014911
   vertex 0.004164 0.301029 0.014911
  endloop
 endfacet
 facet normal 0.0482486 0.148392 -0.987751
  outer loop
   vertex 0.00494 0.29864 0.01459
   vertex 0.004164 0.301029 0.014911
   vertex 0.006972 0.300116 0.014911
  endloop
 endfacet
 facet normal 0.819189 -0.412026 -0.398954
  outer loop
   vertex 0.012176 0.293383 0.020118
   vertex 0.013067 0.295688 0.019567
   vertex 0.013547 0.294211 0.022078
  endloop
 endfacet
 facet normal -0.138975 -0.90647 -0.398746
  outer loop
   vertex 0.002176 0.290134 0.020118
   vertex 0.004644 0.289998 0.019567
   vertex 0.003388 0.289086 0.022078
  endloop
 endfacet
 facet normal -0.905177 -0.147939 -0.398459
  outer loop
   vertex -0.004004 0.29864 0.020118
   vertex -0.003371 0.296251 0.019567
   vertex -0.004626 0.297164 0.022079
  endloop
 endfacet
 facet normal -0.420269 0.815078 -0.398776
  outer loop
   vertex 0.002176 0.307146 0.020118
   vertex 9.99999e-05 0.305806 0.019567
   vertex 0.00058 0.307282 0.022078
  endloop
 endfacet
 facet normal 0.645038 0.651744 -0.398942
  outer loop
   vertex 0.012176 0.303897 0.020118
   vertex 0.010259 0.305457 0.019567
   vertex 0.011812 0.305457 0.022078
  endloop
 endfacet
 facet normal 0.771063 -0.560215 -0.302688
  outer loop
   vertex 0.012176 0.293383 0.020118
   vertex 0.013547 0.294211 0.022078
   vertex 0.011812 0.291823 0.022078
  endloop
 endfacet
 facet normal -0.294416 -0.906493 -0.302638
  outer loop
   vertex 0.002176 0.290134 0.020118
   vertex 0.003388 0.289086 0.022078
   vertex 0.00058 0.289998 0.022078
  endloop
 endfacet
 facet normal -0.9532 0 -0.302341
  outer loop
   vertex -0.004004 0.29864 0.020118
   vertex -0.004626 0.297164 0.022079
   vertex -0.004626 0.300116 0.022079
  endloop
 endfacet
 facet normal -0.294416 0.906493 -0.302638
  outer loop
   vertex 0.002176 0.307146 0.020118
   vertex 0.00058 0.307282 0.022078
   vertex 0.003388 0.308194 0.022078
  endloop
 endfacet
 facet normal 0.771063 0.560215 -0.302688
  outer loop
   vertex 0.012176 0.303897 0.020118
   vertex 0.011812 0.305457 0.022078
   vertex 0.013547 0.303069 0.022078
  endloop
 endfacet
 facet normal 0.342493 -0.758552 0.554344
  outer loop
   vertex 0.007704 0.290134 0.029062
   vertex 0.00978 0.291474 0.029613
   vertex 0.007268 0.291474 0.031165
  endloop
 endfacet
 facet normal -0.61533 -0.560308 0.554459
  outer loop
   vertex -0.002296 0.293383 0.029062
   vertex -0.000379 0.291823 0.029613
   vertex -0.001155 0.294211 0.031165
  endloop
 endfacet
 facet normal -0.723015 0.412034 0.554506
  outer loop
   vertex -0.002296 0.303897 0.029062
   vertex -0.003187 0.301592 0.029613
   vertex -0.001155 0.303069 0.031165
  endloop
 endfacet
 facet normal 0.168666 0.815046 0.554303
  outer loop
   vertex 0.007704 0.307146 0.029062
   vertex 0.005236 0.307282 0.029613
   vertex 0.007268 0.305806 0.031165
  endloop
 endfacet
 facet normal 0.827124 0.091254 0.554562
  outer loop
   vertex 0.013884 0.29864 0.029062
   vertex 0.013251 0.301029 0.029613
   vertex 0.012474 0.29864 0.031165
  endloop
 endfacet
 facet normal 0.126271 0.0917039 0.987748
  outer loop
   vertex 0.007451 0.29864 0.034269
   vertex 0.005716 0.301029 0.034269
   vertex 0.00494 0.29864 0.03459
  endloop
 endfacet
 facet normal 0.390899 0.0914587 0.915878
  outer loop
   vertex 0.010197 0.29864 0.033097
   vertex 0.008558 0.301269 0.033534
   vertex 0.007451 0.29864 0.034269
  endloop
 endfacet
 facet normal 0.644269 0.0913996 0.759317
  outer loop
   vertex 0.012474 0.29864 0.031165
   vertex 0.011322 0.301269 0.031826
   vertex 0.010197 0.29864 0.033097
  endloop
 endfacet
 facet normal 0.233325 0.169451 0.957521
  outer loop
   vertex 0.007451 0.29864 0.034269
   vertex 0.008558 0.301269 0.033534
   vertex 0.005716 0.301029 0.034269
  endloop
 endfacet
 facet normal 0.207851 0.343516 0.915858
  outer loop
   vertex 0.008558 0.301269 0.033534
   vertex 0.006565 0.30364 0.033097
   vertex 0.005716 0.301029 0.034269
  endloop
 endfacet
 facet normal 0.516783 0.183167 0.836293
  outer loop
   vertex 0.010197 0.29864 0.033097
   vertex 0.011322 0.301269 0.031826
   vertex 0.008558 0.301269 0.033534
  endloop
 endfacet
 facet normal 0.491058 0.356895 0.794662
  outer loop
   vertex 0.011322 0.301269 0.031826
   vertex 0.009412 0.303897 0.031826
   vertex 0.008558 0.301269 0.033534
  endloop
 endfacet
 facet normal 0.334054 0.43492 0.836213
  outer loop
   vertex 0.008558 0.301269 0.033534
   vertex 0.009412 0.303897 0.031826
   vertex 0.006565 0.30364 0.033097
  endloop
 endfacet
 facet normal 0.286233 0.584386 0.759318
  outer loop
   vertex 0.009412 0.303897 0.031826
   vertex 0.007268 0.305806 0.031165
   vertex 0.006565 0.30364 0.033097
  endloop
 endfacet
 facet normal 0.751958 0.169318 0.637095
  outer loop
   vertex 0.012474 0.29864 0.031165
   vertex 0.013251 0.301029 0.029613
   vertex 0.011322 0.301269 0.031826
  endloop
 endfacet
 facet normal 0.725985 0.343961 0.595514
  outer loop
   vertex 0.013251 0.301029 0.029613
   vertex 0.011822 0.30364 0.029847
   vertex 0.011322 0.301269 0.031826
  endloop
 endfacet
 facet normal 0.598657 0.435097 0.672533
  outer loop
   vertex 0.011322 0.301269 0.031826
   vertex 0.011822 0.30364 0.029847
   vertex 0.009412 0.303897 0.031826
  endloop
 endfacet
 facet normal 0.551379 0.584158 0.595601
  outer loop
   vertex 0.011822 0.30364 0.029847
   vertex 0.00978 0.305806 0.029613
   vertex 0.009412 0.303897 0.031826
  endloop
 endfacet
 facet normal 0.393627 0.662685 0.637108
  outer loop
   vertex 0.009412 0.303897 0.031826
   vertex 0.00978 0.305806 0.029613
   vertex 0.007268 0.305806 0.031165
  endloop
 endfacet
 facet normal 0.342493 0.758552 0.554344
  outer loop
   vertex 0.00978 0.305806 0.029613
   vertex 0.007704 0.307146 0.029062
   vertex 0.007268 0.305806 0.031165
  endloop
 endfacet
 facet normal -0.0482486 0.148392 0.987751
  outer loop
   vertex 0.005716 0.301029 0.034269
   vertex 0.002908 0.300116 0.034269
   vertex 0.00494 0.29864 0.03459
  endloop
 endfacet
 facet normal 0.0336945 0.400135 0.915836
  outer loop
   vertex 0.006565 0.30364 0.033097
   vertex 0.003558 0.302893 0.033534
   vertex 0.005716 0.301029 0.034269
  endloop
 endfacet
 facet normal 0.112009 0.640965 0.759354
  outer loop
   vertex 0.007268 0.305806 0.031165
   vertex 0.004412 0.305522 0.031826
   vertex 0.006565 0.30364 0.033097
  endloop
 endfacet
 facet normal -0.0891868 0.274301 0.957499
  outer loop
   vertex 0.005716 0.301029 0.034269
   vertex 0.003558 0.302893 0.033534
   vertex 0.002908 0.300116 0.034269
  endloop
 endfacet
 facet normal -0.262485 0.303841 0.915851
  outer loop
   vertex 0.003558 0.302893 0.033534
   vertex 0.000687 0.30173 0.033097
   vertex 0.002908 0.300116 0.034269
  endloop
 endfacet
 facet normal -0.0146149 0.548074 0.836302
  outer loop
   vertex 0.006565 0.30364 0.033097
   vertex 0.004412 0.305522 0.031826
   vertex 0.003558 0.302893 0.033534
  endloop
 endfacet
 facet normal -0.187559 0.577248 0.794737
  outer loop
   vertex 0.004412 0.305522 0.031826
   vertex 0.001322 0.304518 0.031826
   vertex 0.003558 0.302893 0.033534
  endloop
 endfacet
 facet normal -0.310374 0.451949 0.836307
  outer loop
   vertex 0.003558 0.302893 0.033534
   vertex 0.001322 0.304518 0.031826
   vertex 0.000687 0.30173 0.033097
  endloop
 endfacet
 facet normal -0.467426 0.452641 0.759361
  outer loop
   vertex 0.001322 0.304518 0.031826
   vertex -0.001155 0.303069 0.031165
   vertex 0.000687 0.30173 0.033097
  endloop
 endfacet
 facet normal 0.0710868 0.767617 0.636955
  outer loop
   vertex 0.007268 0.305806 0.031165
   vertex 0.005236 0.307282 0.029613
   vertex 0.004412 0.305522 0.031826
  endloop
 endfacet
 facet normal -0.102735 0.796801 0.595444
  outer loop
   vertex 0.005236 0.307282 0.029613
   vertex 0.002311 0.30673 0.029847
   vertex 0.004412 0.305522 0.031826
  endloop
 endfacet
 facet normal -0.228709 0.703897 0.672474
  outer loop
   vertex 0.004412 0.305522 0.031826
   vertex 0.002311 0.30673 0.029847
   vertex 0.001322 0.304518 0.031826
  endloop
 endfacet
 facet normal -0.38541 0.704977 0.595371
  outer loop
   vertex 0.002311 0.30673 0.029847
   vertex -0.000379 0.305457 0.029613
   vertex 0.001322 0.304518 0.031826
  endloop
 endfacet
 facet normal -0.508799 0.579247 0.636864
  outer loop
   vertex 0.001322 0.304518 0.031826
   vertex -0.000379 0.305457 0.029613
   vertex -0.001155 0.303069 0.031165
  endloop
 endfacet
 facet normal -0.61533 0.560308 0.554459
  outer loop
   vertex -0.000379 0.305457 0.029613
   vertex -0.002296 0.303897 0.029062
   vertex -0.001155 0.303069 0.031165
  endloop
 endfacet
 facet normal -0.156037 0 0.987751
  outer loop
   vertex 0.002908 0.300116 0.034269
   vertex 0.002908 0.297164 0.034269
   vertex 0.00494 0.29864 0.03459
  endloop
 endfacet
 facet normal -0.370096 0.155752 0.915844
  outer loop
   vertex 0.000687 0.30173 0.033097
   vertex 0.000468 0.29864 0.033534
   vertex 0.002908 0.300116 0.034269
  endloop
 endfacet
 facet normal -0.574948 0.304695 0.759339
  outer loop
   vertex -0.001155 0.303069 0.031165
   vertex -0.001768 0.300265 0.031826
   vertex 0.000687 0.30173 0.033097
  endloop
 endfacet
 facet normal -0.288428 0 0.957502
  outer loop
   vertex 0.002908 0.300116 0.034269
   vertex 0.000468 0.29864 0.033534
   vertex 0.002908 0.297164 0.034269
  endloop
 endfacet
 facet normal -0.370096 -0.155752 0.915844
  outer loop
   vertex 0.000468 0.29864 0.033534
   vertex 0.000687 0.29555 0.033097
   vertex 0.002908 0.297164 0.034269
  endloop
 endfacet
 facet normal -0.525774 0.155534 0.836284
  outer loop
   vertex 0.000687 0.30173 0.033097
   vertex -0.001768 0.300265 0.031826
   vertex 0.000468 0.29864 0.033534
  endloop
 endfacet
 facet normal -0.607028 0 0.794681
  outer loop
   vertex -0.001768 0.300265 0.031826
   vertex -0.001768 0.297015 0.031826
   vertex 0.000468 0.29864 0.033534
  endloop
 endfacet
 facet normal -0.525774 -0.155534 0.836284
  outer loop
   vertex 0.000468 0.29864 0.033534
   vertex -0.001768 0.297015 0.031826
   vertex 0.000687 0.29555 0.033097
  endloop
 endfacet
 facet normal -0.574948 -0.304695 0.759339
  outer loop
   vertex -0.001768 0.297015 0.031826
   vertex -0.001155 0.294211 0.031165
   vertex 0.000687 0.29555 0.033097
  endloop
 endfacet
 facet normal -0.708089 0.304936 0.636886
  outer loop
   vertex -0.001155 0.303069 0.031165
   vertex -0.003187 0.301592 0.029613
   vertex -0.001768 0.300265 0.031826
  endloop
 endfacet
 facet normal -0.789589 0.148568 0.59538
  outer loop
   vertex -0.003187 0.301592 0.029613
   vertex -0.003566 0.29864 0.029847
   vertex -0.001768 0.300265 0.031826
  endloop
 endfacet
 facet normal -0.740143 0 0.672449
  outer loop
   vertex -0.001768 0.300265 0.031826
   vertex -0.003566 0.29864 0.029847
   vertex -0.001768 0.297015 0.031826
  endloop
 endfacet
 facet normal -0.789589 -0.148568 0.59538
  outer loop
   vertex -0.003566 0.29864 0.029847
   vertex -0.003187 0.295688 0.029613
   vertex -0.001768 0.297015 0.031826
  endloop
 endfacet
 facet normal -0.708089 -0.304936 0.636886
  outer loop
   vertex -0.001768 0.297015 0.031826
   vertex -0.003187 0.295688 0.029613
   vertex -0.001155 0.294211 0.031165
  endloop
 endfacet
 facet normal -0.723015 -0.412034 0.554506
  outer loop
   vertex -0.003187 0.295688 0.029613
   vertex -0.002296 0.293383 0.029062
   vertex -0.001155 0.294211 0.031165
  endloop
 endfacet
 facet normal -0.0482486 -0.148392 0.987751
  outer loop
   vertex 0.002908 0.297164 0.034269
   vertex 0.005716 0.296251 0.034269
   vertex 0.00494 0.29864 0.03459
  endloop
 endfacet
 facet normal -0.262485 -0.303841 0.915851
  outer loop
   vertex 0.000687 0.29555 0.033097
   vertex 0.003558 0.294387 0.033534
   vertex 0.002908 0.297164 0.034269
  endloop
 endfacet
 facet normal -0.467426 -0.452641 0.759361
  outer loop
   vertex -0.001155 0.294211 0.031165
   vertex 0.001322 0.292762 0.031826
   vertex 0.000687 0.29555 0.033097
  endloop
 endfacet
 facet normal -0.0891868 -0.274301 0.957499
  outer loop
   vertex 0.002908 0.297164 0.034269
   vertex 0.003558 0.294387 0.033534
   vertex 0.005716 0.296251 0.034269
  endloop
 endfacet
 facet normal 0.0336945 -0.400135 0.915836
  outer loop
   vertex 0.003558 0.294387 0.033534
   vertex 0.006565 0.29364 0.033097
   vertex 0.005716 0.296251 0.034269
  endloop
 endfacet
 facet normal -0.310374 -0.451949 0.836307
  outer loop
   vertex 0.000687 0.29555 0.033097
   vertex 0.001322 0.292762 0.031826
   vertex 0.003558 0.294387 0.033534
  endloop
 endfacet
 facet normal -0.187559 -0.577248 0.794737
  outer loop
   vertex 0.001322 0.292762 0.031826
   vertex 0.004412 0.291758 0.031826
   vertex 0.003558 0.294387 0.033534
  endloop
 endfacet
 facet normal -0.0146149 -0.548074 0.836302
  outer loop
   vertex 0.003558 0.294387 0.033534
   vertex 0.004412 0.291758 0.031826
   vertex 0.006565 0.29364 0.033097
  endloop
 endfacet
 facet normal 0.112009 -0.640965 0.759354
  outer loop
   vertex 0.004412 0.291758 0.031826
   vertex 0.007268 0.291474 0.031165
   vertex 0.006565 0.29364 0.033097
  endloop
 endfacet
 facet normal -0.508799 -0.579247 0.636864
  outer loop
   vertex -0.001155 0.294211 0.031165
   vertex -0.000379 0.291823 0.029613
   vertex 0.001322 0.292762 0.031826
  endloop
 endfacet
 facet normal -0.38541 -0.704977 0.595371
  outer loop
   vertex -0.000379 0.291823 0.029613
   vertex 0.002311 0.29055 0.029847
   vertex 0.001322 0.292762 0.031826
  endloop
 endfacet
 facet normal -0.228709 -0.703897 0.672474
  outer loop
   vertex 0.001322 0.292762 0.031826
   vertex 0.002311 0.29055 0.029847
   vertex 0.004412 0.291758 0.031826
  endloop
 endfacet
 facet normal -0.102735 -0.796801 0.595444
  outer loop
   vertex 0.002311 0.29055 0.029847
   vertex 0.005236 0.289998 0.029613
   vertex 0.004412 0.291758 0.031826
  endloop
 endfacet
 facet normal 0.0710868 -0.767617 0.636955
  outer loop
   vertex 0.004412 0.291758 0.031826
   vertex 0.005236 0.289998 0.029613
   vertex 0.007268 0.291474 0.031165
  endloop
 endfacet
 facet normal 0.168666 -0.815046 0.554303
  outer loop
   vertex 0.005236 0.289998 0.029613
   vertex 0.007704 0.290134 0.029062
   vertex 0.007268 0.291474 0.031165
  endloop
 endfacet
 facet normal 0.126271 -0.0917039 0.987748
  outer loop
   vertex 0.005716 0.296251 0.034269
   vertex 0.007451 0.29864 0.034269
   vertex 0.00494 0.29864 0.03459
  endloop
 endfacet
 facet normal 0.207851 -0.343516 0.915858
  outer loop
   vertex 0.006565 0.29364 0.033097
   vertex 0.008558 0.296011 0.033534
   vertex 0.005716 0.296251 0.034269
  endloop
 endfacet
 facet normal 0.286233 -0.584386 0.759318
  outer loop
   vertex 0.007268 0.291474 0.031165
   vertex 0.009412 0.293383 0.031826
   vertex 0.006565 0.29364 0.033097
  endloop
 endfacet
 facet normal 0.233325 -0.169451 0.957521
  outer loop
   vertex 0.005716 0.296251 0.034269
   vertex 0.008558 0.296011 0.033534
   vertex 0.007451 0.29864 0.034269
  endloop
 endfacet
 facet normal 0.390899 -0.0914587 0.915878
  outer loop
   vertex 0.008558 0.296011 0.033534
   vertex 0.010197 0.29864 0.033097
   vertex 0.007451 0.29864 0.034269
  endloop
 endfacet
 facet normal 0.334054 -0.43492 0.836213
  outer loop
   vertex 0.006565 0.29364 0.033097
   vertex 0.009412 0.293383 0.031826
   vertex 0.008558 0.296011 0.033534
  endloop
 endfacet
 facet normal 0.491058 -0.356895 0.794662
  outer loop
   vertex 0.009412 0.293383 0.031826
   vertex 0.011322 0.296011 0.031826
   vertex 0.008558 0.296011 0.033534
  endloop
 endfacet
 facet normal 0.516783 -0.183167 0.836293
  outer loop
   vertex 0.008558 0.296011 0.033534
   vertex 0.011322 0.296011 0.031826
   vertex 0.010197 0.29864 0.033097
  endloop
 endfacet
 facet normal 0.644269 -0.0913996 0.759317
  outer loop
   vertex 0.011322 0.296011 0.031826
   vertex 0.012474 0.29864 0.031165
   vertex 0.010197 0.29864 0.033097
  endloop
 endfacet
 facet normal 0.393627 -0.662685 0.637108
  outer loop
   vertex 0.007268 0.291474 0.031165
   vertex 0.00978 0.291474 0.029613
   vertex 0.009412 0.293383 0.031826
  endloop
 endfacet
 facet normal 0.551379 -0.584158 0.595601
  outer loop
   vertex 0.00978 0.291474 0.029613
   vertex 0.011822 0.29364 0.029847
   vertex 0.009412 0.293383 0.031826
  endloop
 endfacet
 facet normal 0.598657 -0.435097 0.672533
  outer loop
   vertex 0.009412 0.293383 0.031826
   vertex 0.011822 0.29364 0.029847
   vertex 0.011322 0.296011 0.031826
  endloop
 endfacet
 facet normal 0.725985 -0.343961 0.595514
  outer loop
   vertex 0.011822 0.29364 0.029847
   vertex 0.013251 0.296251 0.029613
   vertex 0.011322 0.296011 0.031826
  endloop
 endfacet
 facet normal 0.751958 -0.169318 0.637095
  outer loop
   vertex 0.011322 0.296011 0.031826
   vertex 0.013251 0.296251 0.029613
   vertex 0.012474 0.29864 0.031165
  endloop
 endfacet
 facet normal 0.827124 -0.091254 0.554562
  outer loop
   vertex 0.013251 0.296251 0.029613
   vertex 0.013884 0.29864 0.029062
   vertex 0.012474 0.29864 0.031165
  endloop
 endfacet
 facet normal 0.905177 0.147939 0.398459
  outer loop
   vertex 0.014506 0.300116 0.027101
   vertex 0.013251 0.301029 0.029613
   vertex 0.013884 0.29864 0.029062
  endloop
 endfacet
 facet normal 0.93657 0.303801 0.17476
  outer loop
   vertex 0.014451 0.30173 0.02459
   vertex 0.013558 0.302893 0.027354
   vertex 0.014506 0.300116 0.027101
  endloop
 endfacet
 facet normal 0.888212 0.452708 -0.078331
  outer loop
   vertex 0.013547 0.303069 0.022078
   vertex 0.01303 0.304518 0.02459
   vertex 0.014451 0.30173 0.02459
  endloop
 endfacet
 facet normal 0.89641 0.274294 0.348155
  outer loop
   vertex 0.014506 0.300116 0.027101
   vertex 0.013558 0.302893 0.027354
   vertex 0.013251 0.301029 0.029613
  endloop
 endfacet
 facet normal 0.803858 0.400541 0.439749
  outer loop
   vertex 0.013558 0.302893 0.027354
   vertex 0.011822 0.30364 0.029847
   vertex 0.013251 0.301029 0.029613
  endloop
 endfacet
 facet normal 0.886806 0.451991 0.0963284
  outer loop
   vertex 0.014451 0.30173 0.02459
   vertex 0.01303 0.304518 0.02459
   vertex 0.013558 0.302893 0.027354
  endloop
 endfacet
 facet normal 0.794662 0.577331 0.18762
  outer loop
   vertex 0.01303 0.304518 0.02459
   vertex 0.011648 0.305522 0.027354
   vertex 0.013558 0.302893 0.027354
  endloop
 endfacet
 facet normal 0.754436 0.548107 0.361117
  outer loop
   vertex 0.013558 0.302893 0.027354
   vertex 0.011648 0.305522 0.027354
   vertex 0.011822 0.30364 0.029847
  endloop
 endfacet
 facet normal 0.629279 0.640767 0.439803
  outer loop
   vertex 0.011648 0.305522 0.027354
   vertex 0.00978 0.305806 0.029613
   vertex 0.011822 0.30364 0.029847
  endloop
 endfacet
 facet normal 0.797233 0.579229 -0.170037
  outer loop
   vertex 0.013547 0.303069 0.022078
   vertex 0.011812 0.305457 0.022078
   vertex 0.01303 0.304518 0.02459
  endloop
 endfacet
 facet normal 0.704936 0.704936 -0.0782949
  outer loop
   vertex 0.011812 0.305457 0.022078
   vertex 0.010818 0.30673 0.02459
   vertex 0.01303 0.304518 0.02459
  endloop
 endfacet
 facet normal 0.703824 0.703824 0.0962537
  outer loop
   vertex 0.01303 0.304518 0.02459
   vertex 0.010818 0.30673 0.02459
   vertex 0.011648 0.305522 0.027354
  endloop
 endfacet
 facet normal 0.578519 0.796783 0.174509
  outer loop
   vertex 0.010818 0.30673 0.02459
   vertex 0.0093 0.307282 0.027102
   vertex 0.011648 0.305522 0.027354
  endloop
 endfacet
 facet normal 0.537986 0.767602 0.348366
  outer loop
   vertex 0.011648 0.305522 0.027354
   vertex 0.0093 0.307282 0.027102
   vertex 0.00978 0.305806 0.029613
  endloop
 endfacet
 facet normal 0.420269 0.815078 0.398776
  outer loop
   vertex 0.0093 0.307282 0.027102
   vertex 0.007704 0.307146 0.029062
   vertex 0.00978 0.305806 0.029613
  endloop
 endfacet
 facet normal 0.138975 0.90647 0.398746
  outer loop
   vertex 0.006492 0.308194 0.027102
   vertex 0.005236 0.307282 0.029613
   vertex 0.007704 0.307146 0.029062
  endloop
 endfacet
 facet normal 0.000555151 0.98466 0.174481
  outer loop
   vertex 0.00494 0.30864 0.02459
   vertex 0.003558 0.308151 0.027354
   vertex 0.006492 0.308194 0.027102
  endloop
 endfacet
 facet normal -0.155824 0.984657 -0.07855
  outer loop
   vertex 0.003388 0.308194 0.022078
   vertex 0.00185 0.308151 0.02459
   vertex 0.00494 0.30864 0.02459
  endloop
 endfacet
 facet normal 0.0161962 0.937175 0.348485
  outer loop
   vertex 0.006492 0.308194 0.027102
   vertex 0.003558 0.308151 0.027354
   vertex 0.005236 0.307282 0.029613
  endloop
 endfacet
 facet normal -0.132412 0.888171 0.440021
  outer loop
   vertex 0.003558 0.308151 0.027354
   vertex 0.002311 0.30673 0.029847
   vertex 0.005236 0.307282 0.029613
  endloop
 endfacet
 facet normal -0.155583 0.983133 0.0961419
  outer loop
   vertex 0.00494 0.30864 0.02459
   vertex 0.00185 0.308151 0.02459
   vertex 0.003558 0.308151 0.027354
  endloop
 endfacet
 facet normal -0.303796 0.934059 0.187729
  outer loop
   vertex 0.00185 0.308151 0.02459
   vertex 0.000468 0.307146 0.027354
   vertex 0.003558 0.308151 0.027354
  endloop
 endfacet
 facet normal -0.288415 0.886769 0.361189
  outer loop
   vertex 0.003558 0.308151 0.027354
   vertex 0.000468 0.307146 0.027354
   vertex 0.002311 0.30673 0.029847
  endloop
 endfacet
 facet normal -0.415138 0.796394 0.439791
  outer loop
   vertex 0.000468 0.307146 0.027354
   vertex -0.000379 0.305457 0.029613
   vertex 0.002311 0.30673 0.029847
  endloop
 endfacet
 facet normal -0.304389 0.937197 -0.170322
  outer loop
   vertex 0.003388 0.308194 0.022078
   vertex 0.00058 0.307282 0.022078
   vertex 0.00185 0.308151 0.02459
  endloop
 endfacet
 facet normal -0.452705 0.888208 -0.0783901
  outer loop
   vertex 0.00058 0.307282 0.022078
   vertex -0.000938 0.30673 0.02459
   vertex 0.00185 0.308151 0.02459
  endloop
 endfacet
 facet normal -0.451986 0.886796 0.0964489
  outer loop
   vertex 0.00185 0.308151 0.02459
   vertex -0.000938 0.30673 0.02459
   vertex 0.000468 0.307146 0.027354
  endloop
 endfacet
 facet normal -0.578874 0.796508 0.174584
  outer loop
   vertex -0.000938 0.30673 0.02459
   vertex -0.001932 0.305457 0.027102
   vertex 0.000468 0.307146 0.027354
  endloop
 endfacet
 facet normal -0.563623 0.748876 0.348589
  outer loop
   vertex 0.000468 0.307146 0.027354
   vertex -0.001932 0.305457 0.027102
   vertex -0.000379 0.305457 0.029613
  endloop
 endfacet
 facet normal -0.645038 0.651744 0.398942
  outer loop
   vertex -0.001932 0.305457 0.027102
   vertex -0.002296 0.303897 0.029062
   vertex -0.000379 0.305457 0.029613
  endloop
 endfacet
 facet normal -0.819189 0.412026 0.398954
  outer loop
   vertex -0.003667 0.303069 0.027102
   vertex -0.003187 0.301592 0.029613
   vertex -0.002296 0.303897 0.029062
  endloop
 endfacet
 facet normal -0.936352 0.304548 0.174631
  outer loop
   vertex -0.004571 0.30173 0.02459
   vertex -0.004532 0.300265 0.027354
   vertex -0.003667 0.303069 0.027102
  endloop
 endfacet
 facet normal -0.984653 0.155824 -0.0785916
  outer loop
   vertex -0.004626 0.300116 0.022079
   vertex -0.00506 0.29864 0.02459
   vertex -0.004571 0.30173 0.02459
  endloop
 endfacet
 facet normal -0.886309 0.304753 0.348685
  outer loop
   vertex -0.003667 0.303069 0.027102
   vertex -0.004532 0.300265 0.027354
   vertex -0.003187 0.301592 0.029613
  endloop
 endfacet
 facet normal -0.885615 0.148581 0.440011
  outer loop
   vertex -0.004532 0.300265 0.027354
   vertex -0.003566 0.29864 0.029847
   vertex -0.003187 0.301592 0.029613
  endloop
 endfacet
 facet normal -0.983115 0.15558 0.0963335
  outer loop
   vertex -0.004571 0.30173 0.02459
   vertex -0.00506 0.29864 0.02459
   vertex -0.004532 0.300265 0.027354
  endloop
 endfacet
 facet normal -0.982239 0 0.187634
  outer loop
   vertex -0.00506 0.29864 0.02459
   vertex -0.004532 0.297015 0.027354
   vertex -0.004532 0.300265 0.027354
  endloop
 endfacet
 facet normal -0.932446 0 0.361309
  outer loop
   vertex -0.004532 0.300265 0.027354
   vertex -0.004532 0.297015 0.027354
   vertex -0.003566 0.29864 0.029847
  endloop
 endfacet
 facet normal -0.885615 -0.148581 0.440011
  outer loop
   vertex -0.004532 0.297015 0.027354
   vertex -0.003187 0.295688 0.029613
   vertex -0.003566 0.29864 0.029847
  endloop
 endfacet
 facet normal -0.98539 -0 -0.170314
  outer loop
   vertex -0.004626 0.300116 0.022079
   vertex -0.004626 0.297164 0.022079
   vertex -0.00506 0.29864 0.02459
  endloop
 endfacet
 facet normal -0.984653 -0.155824 -0.0785916
  outer loop
   vertex -0.004626 0.297164 0.022079
   vertex -0.004571 0.29555 0.02459
   vertex -0.00506 0.29864 0.02459
  endloop
 endfacet
 facet normal -0.983115 -0.15558 0.0963335
  outer loop
   vertex -0.00506 0.29864 0.02459
   vertex -0.004571 0.29555 0.02459
   vertex -0.004532 0.297015 0.027354
  endloop
 endfacet
 facet normal -0.936352 -0.304548 0.174631
  outer loop
   vertex -0.004571 0.29555 0.02459
   vertex -0.003667 0.294211 0.027102
   vertex -0.004532 0.297015 0.027354
  endloop
 endfacet
 facet normal -0.886309 -0.304753 0.348685
  outer loop
   vertex -0.004532 0.297015 0.027354
   vertex -0.003667 0.294211 0.027102
   vertex -0.003187 0.295688 0.029613
  endloop
 endfacet
 facet normal -0.819189 -0.412026 0.398954
  outer loop
   vertex -0.003667 0.294211 0.027102
   vertex -0.002296 0.293383 0.029062
   vertex -0.003187 0.295688 0.029613
  endloop
 endfacet
 facet normal -0.645038 -0.651744 0.398942
  outer loop
   vertex -0.001932 0.291823 0.027102
   vertex -0.000379 0.291823 0.029613
   vertex -0.002296 0.293383 0.029062
  endloop
 endfacet
 facet normal -0.578874 -0.796508 0.174584
  outer loop
   vertex -0.000938 0.29055 0.02459
   vertex 0.000468 0.290134 0.027354
   vertex -0.001932 0.291823 0.027102
  endloop
 endfacet
 facet normal -0.452705 -0.888208 -0.0783901
  outer loop
   vertex 0.00058 0.289998 0.022078
   vertex 0.00185 0.289129 0.02459
   vertex -0.000938 0.29055 0.02459
  endloop
 endfacet
 facet normal -0.563623 -0.748876 0.348589
  outer loop
   vertex -0.001932 0.291823 0.027102
   vertex 0.000468 0.290134 0.027354
   vertex -0.000379 0.291823 0.029613
  endloop
 endfacet
 facet normal -0.415138 -0.796394 0.439791
  outer loop
   vertex 0.000468 0.290134 0.027354
   vertex 0.002311 0.29055 0.029847
   vertex -0.000379 0.291823 0.029613
  endloop
 endfacet
 facet normal -0.451986 -0.886796 0.0964489
  outer loop
   vertex -0.000938 0.29055 0.02459
   vertex 0.00185 0.289129 0.02459
   vertex 0.000468 0.290134 0.027354
  endloop
 endfacet
 facet normal -0.303796 -0.934059 0.187729
  outer loop
   vertex 0.00185 0.289129 0.02459
   vertex 0.003558 0.289129 0.027354
   vertex 0.000468 0.290134 0.027354
  endloop
 endfacet
 facet normal -0.288415 -0.886769 0.361189
  outer loop
   vertex 0.000468 0.290134 0.027354
   vertex 0.003558 0.289129 0.027354
   vertex 0.002311 0.29055 0.029847
  endloop
 endfacet
 facet normal -0.132412 -0.888171 0.440021
  outer loop
   vertex 0.003558 0.289129 0.027354
   vertex 0.005236 0.289998 0.029613
   vertex 0.002311 0.29055 0.029847
  endloop
 endfacet
 facet normal -0.304389 -0.937197 -0.170322
  outer loop
   vertex 0.00058 0.289998 0.022078
   vertex 0.003388 0.289086 0.022078
   vertex 0.00185 0.289129 0.02459
  endloop
 endfacet
 facet normal -0.155824 -0.984657 -0.07855
  outer loop
   vertex 0.003388 0.289086 0.022078
   vertex 0.00494 0.28864 0.02459
   vertex 0.00185 0.289129 0.02459
  endloop
 endfacet
 facet normal -0.155583 -0.983133 0.0961419
  outer loop
   vertex 0.00185 0.289129 0.02459
   vertex 0.00494 0.28864 0.02459
   vertex 0.003558 0.289129 0.027354
  endloop
 endfacet
 facet normal 0.000555151 -0.98466 0.174481
  outer loop
   vertex 0.00494 0.28864 0.02459
   vertex 0.006492 0.289086 0.027102
   vertex 0.003558 0.289129 0.027354
  endloop
 endfacet
 facet normal 0.0161962 -0.937175 0.348485
  outer loop
   vertex 0.003558 0.289129 0.027354
   vertex 0.006492 0.289086 0.027102
   vertex 0.005236 0.289998 0.029613
  endloop
 endfacet
 facet normal 0.138975 -0.90647 0.398746
  outer loop
   vertex 0.006492 0.289086 0.027102
   vertex 0.007704 0.290134 0.029062
   vertex 0.005236 0.289998 0.029613
  endloop
 endfacet
 facet normal 0.420269 -0.815078 0.398776
  outer loop
   vertex 0.0093 0.289998 0.027102
   vertex 0.00978 0.291474 0.029613
   vertex 0.007704 0.290134 0.029062
  endloop
 endfacet
 facet normal 0.578519 -0.796783 0.174509
  outer loop
   vertex 0.010818 0.29055 0.02459
   vertex 0.011648 0.291758 0.027354
   vertex 0.0093 0.289998 0.027102
  endloop
 endfacet
 facet normal 0.704936 -0.704936 -0.0782949
  outer loop
   vertex 0.011812 0.291823 0.022078
   vertex 0.01303 0.292762 0.02459
   vertex 0.010818 0.29055 0.02459
  endloop
 endfacet
 facet normal 0.537986 -0.767602 0.348366
  outer loop
   vertex 0.0093 0.289998 0.027102
   vertex 0.011648 0.291758 0.027354
   vertex 0.00978 0.291474 0.029613
  endloop
 endfacet
 facet normal 0.629279 -0.640767 0.439803
  outer loop
   vertex 0.011648 0.291758 0.027354
   vertex 0.011822 0.29364 0.029847
   vertex 0.00978 0.291474 0.029613
  endloop
 endfacet
 facet normal 0.703824 -0.703824 0.0962537
  outer loop
   vertex 0.010818 0.29055 0.02459
   vertex 0.01303 0.292762 0.02459
   vertex 0.011648 0.291758 0.027354
  endloop
 endfacet
 facet normal 0.794662 -0.577331 0.18762
  outer loop
   vertex 0.01303 0.292762 0.02459
   vertex 0.013558 0.294387 0.027354
   vertex 0.011648 0.291758 0.027354
  endloop
 endfacet
 facet normal 0.754436 -0.548107 0.361117
  outer loop
   vertex 0.011648 0.291758 0.027354
   vertex 0.013558 0.294387 0.027354
   vertex 0.011822 0.29364 0.029847
  endloop
 endfacet
 facet normal 0.803858 -0.400541 0.439749
  outer loop
   vertex 0.013558 0.294387 0.027354
   vertex 0.013251 0.296251 0.029613
   vertex 0.011822 0.29364 0.029847
  endloop
 endfacet
 facet normal 0.797233 -0.579229 -0.170037
  outer loop
   vertex 0.011812 0.291823 0.022078
   vertex 0.013547 0.294211 0.022078
   vertex 0.01303 0.292762 0.02459
  endloop
 endfacet
 facet normal 0.888212 -0.452708 -0.078331
  outer loop
   vertex 0.013547 0.294211 0.022078
   vertex 0.014451 0.29555 0.02459
   vertex 0.01303 0.292762 0.02459
  endloop
 endfacet
 facet normal 0.886806 -0.451991 0.0963284
  outer loop
   vertex 0.01303 0.292762 0.02459
   vertex 0.014451 0.29555 0.02459
   vertex 0.013558 0.294387 0.027354
  endloop
 endfacet
 facet normal 0.93657 -0.303801 0.17476
  outer loop
   vertex 0.014451 0.29555 0.02459
   vertex 0.014506 0.297164 0.027101
   vertex 0.013558 0.294387 0.027354
  endloop
 endfacet
 facet normal 0.89641 -0.274294 0.348155
  outer loop
   vertex 0.013558 0.294387 0.027354
   vertex 0.014506 0.297164 0.027101
   vertex 0.013251 0.296251 0.029613
  endloop
 endfacet
 facet normal 0.905177 -0.147939 0.398459
  outer loop
   vertex 0.014506 0.297164 0.027101
   vertex 0.013884 0.29864 0.029062
   vertex 0.013251 0.296251 0.029613
  endloop
 endfacet
 facet normal 0.294416 0.906493 0.302638
  outer loop
   vertex 0.0093 0.307282 0.027102
   vertex 0.006492 0.308194 0.027102
   vertex 0.007704 0.307146 0.029062
  endloop
 endfacet
 facet normal 0.452705 0.888208 0.0783901
  outer loop
   vertex 0.010818 0.30673 0.02459
   vertex 0.00803 0.308151 0.02459
   vertex 0.0093 0.307282 0.027102
  endloop
 endfacet
 facet normal 0.578874 0.796508 -0.174584
  outer loop
   vertex 0.011812 0.305457 0.022078
   vertex 0.009412 0.307146 0.021826
   vertex 0.010818 0.30673 0.02459
  endloop
 endfacet
 facet normal 0.304389 0.937197 0.170322
  outer loop
   vertex 0.0093 0.307282 0.027102
   vertex 0.00803 0.308151 0.02459
   vertex 0.006492 0.308194 0.027102
  endloop
 endfacet
 facet normal 0.155824 0.984657 0.07855
  outer loop
   vertex 0.00803 0.308151 0.02459
   vertex 0.00494 0.30864 0.02459
   vertex 0.006492 0.308194 0.027102
  endloop
 endfacet
 facet normal 0.451986 0.886796 -0.0964489
  outer loop
   vertex 0.010818 0.30673 0.02459
   vertex 0.009412 0.307146 0.021826
   vertex 0.00803 0.308151 0.02459
  endloop
 endfacet
 facet normal 0.303796 0.934059 -0.187729
  outer loop
   vertex 0.009412 0.307146 0.021826
   vertex 0.006322 0.308151 0.021826
   vertex 0.00803 0.308151 0.02459
  endloop
 endfacet
 facet normal 0.155583 0.983133 -0.0961419
  outer loop
   vertex 0.00803 0.308151 0.02459
   vertex 0.006322 0.308151 0.021826
   vertex 0.00494 0.30864 0.02459
  endloop
 endfacet
 facet normal -0.000555151 0.98466 -0.174481
  outer loop
   vertex 0.006322 0.308151 0.021826
   vertex 0.003388 0.308194 0.022078
   vertex 0.00494 0.30864 0.02459
  endloop
 endfacet
 facet normal 0.563623 0.748876 -0.348589
  outer loop
   vertex 0.011812 0.305457 0.022078
   vertex 0.010259 0.305457 0.019567
   vertex 0.009412 0.307146 0.021826
  endloop
 endfacet
 facet normal 0.415138 0.796394 -0.439791
  outer loop
   vertex 0.010259 0.305457 0.019567
   vertex 0.007569 0.30673 0.019333
   vertex 0.009412 0.307146 0.021826
  endloop
 endfacet
 facet normal 0.288415 0.886769 -0.361189
  outer loop
   vertex 0.009412 0.307146 0.021826
   vertex 0.007569 0.30673 0.019333
   vertex 0.006322 0.308151 0.021826
  endloop
 endfacet
 facet normal 0.132412 0.888171 -0.440021
  outer loop
   vertex 0.007569 0.30673 0.019333
   vertex 0.004644 0.307282 0.019567
   vertex 0.006322 0.308151 0.021826
  endloop
 endfacet
 facet normal -0.0161962 0.937175 -0.348485
  outer loop
   vertex 0.006322 0.308151 0.021826
   vertex 0.004644 0.307282 0.019567
   vertex 0.003388 0.308194 0.022078
  endloop
 endfacet
 facet normal -0.138975 0.90647 -0.398746
  outer loop
   vertex 0.004644 0.307282 0.019567
   vertex 0.002176 0.307146 0.020118
   vertex 0.003388 0.308194 0.022078
  endloop
 endfacet
 facet normal -0.771063 0.560215 0.302688
  outer loop
   vertex -0.001932 0.305457 0.027102
   vertex -0.003667 0.303069 0.027102
   vertex -0.002296 0.303897 0.029062
  endloop
 endfacet
 facet normal -0.704936 0.704936 0.0782949
  outer loop
   vertex -0.000938 0.30673 0.02459
   vertex -0.00315 0.304518 0.02459
   vertex -0.001932 0.305457 0.027102
  endloop
 endfacet
 facet normal -0.578519 0.796783 -0.174509
  outer loop
   vertex 0.00058 0.307282 0.022078
   vertex -0.001768 0.305522 0.021826
   vertex -0.000938 0.30673 0.02459
  endloop
 endfacet
 facet normal -0.797233 0.579229 0.170037
  outer loop
   vertex -0.001932 0.305457 0.027102
   vertex -0.00315 0.304518 0.02459
   vertex -0.003667 0.303069 0.027102
  endloop
 endfacet
 facet normal -0.888212 0.452708 0.078331
  outer loop
   vertex -0.00315 0.304518 0.02459
   vertex -0.004571 0.30173 0.02459
   vertex -0.003667 0.303069 0.027102
  endloop
 endfacet
 facet normal -0.703824 0.703824 -0.0962537
  outer loop
   vertex -0.000938 0.30673 0.02459
   vertex -0.001768 0.305522 0.021826
   vertex -0.00315 0.304518 0.02459
  endloop
 endfacet
 facet normal -0.794662 0.577331 -0.18762
  outer loop
   vertex -0.001768 0.305522 0.021826
   vertex -0.003678 0.302893 0.021826
   vertex -0.00315 0.304518 0.02459
  endloop
 endfacet
 facet normal -0.886806 0.451991 -0.0963284
  outer loop
   vertex -0.00315 0.304518 0.02459
   vertex -0.003678 0.302893 0.021826
   vertex -0.004571 0.30173 0.02459
  endloop
 endfacet
 facet normal -0.93657 0.303801 -0.17476
  outer loop
   vertex -0.003678 0.302893 0.021826
   vertex -0.004626 0.300116 0.022079
   vertex -0.004571 0.30173 0.02459
  endloop
 endfacet
 facet normal -0.537986 0.767602 -0.348366
  outer loop
   vertex 0.00058 0.307282 0.022078
   vertex 9.99999e-05 0.305806 0.019567
   vertex -0.001768 0.305522 0.021826
  endloop
 endfacet
 facet normal -0.629279 0.640767 -0.439803
  outer loop
   vertex 9.99999e-05 0.305806 0.019567
   vertex -0.001942 0.30364 0.019333
   vertex -0.001768 0.305522 0.021826
  endloop
 endfacet
 facet normal -0.754436 0.548107 -0.361117
  outer loop
   vertex -0.001768 0.305522 0.021826
   vertex -0.001942 0.30364 0.019333
   vertex -0.003678 0.302893 0.021826
  endloop
 endfacet
 facet normal -0.803858 0.400541 -0.439749
  outer loop
   vertex -0.001942 0.30364 0.019333
   vertex -0.003371 0.301029 0.019567
   vertex -0.003678 0.302893 0.021826
  endloop
 endfacet
 facet normal -0.89641 0.274294 -0.348155
  outer loop
   vertex -0.003678 0.302893 0.021826
   vertex -0.003371 0.301029 0.019567
   vertex -0.004626 0.300116 0.022079
  endloop
 endfacet
 facet normal -0.905177 0.147939 -0.398459
  outer loop
   vertex -0.003371 0.301029 0.019567
   vertex -0.004004 0.29864 0.020118
   vertex -0.004626 0.300116 0.022079
  endloop
 endfacet
 facet normal -0.771063 -0.560215 0.302688
  outer loop
   vertex -0.003667 0.294211 0.027102
   vertex -0.001932 0.291823 0.027102
   vertex -0.002296 0.293383 0.029062
  endloop
 endfacet
 facet normal -0.888212 -0.452708 0.078331
  outer loop
   vertex -0.004571 0.29555 0.02459
   vertex -0.00315 0.292762 0.02459
   vertex -0.003667 0.294211 0.027102
  endloop
 endfacet
 facet normal -0.93657 -0.303801 -0.17476
  outer loop
   vertex -0.004626 0.297164 0.022079
   vertex -0.003678 0.294387 0.021826
   vertex -0.004571 0.29555 0.02459
  endloop
 endfacet
 facet normal -0.797233 -0.579229 0.170037
  outer loop
   vertex -0.003667 0.294211 0.027102
   vertex -0.00315 0.292762 0.02459
   vertex -0.001932 0.291823 0.027102
  endloop
 endfacet
 facet normal -0.704936 -0.704936 0.0782949
  outer loop
   vertex -0.00315 0.292762 0.02459
   vertex -0.000938 0.29055 0.02459
   vertex -0.001932 0.291823 0.027102
  endloop
 endfacet
 facet normal -0.886806 -0.451991 -0.0963284
  outer loop
   vertex -0.004571 0.29555 0.02459
   vertex -0.003678 0.294387 0.021826
   vertex -0.00315 0.292762 0.02459
  endloop
 endfacet
 facet normal -0.794662 -0.577331 -0.18762
  outer loop
   vertex -0.003678 0.294387 0.021826
   vertex -0.001768 0.291758 0.021826
   vertex -0.00315 0.292762 0.02459
  endloop
 endfacet
 facet normal -0.703824 -0.703824 -0.0962537
  outer loop
   vertex -0.00315 0.292762 0.02459
   vertex -0.001768 0.291758 0.021826
   vertex -0.000938 0.29055 0.02459
  endloop
 endfacet
 facet normal -0.578519 -0.796783 -0.174509
  outer loop
   vertex -0.001768 0.291758 0.021826
   vertex 0.00058 0.289998 0.022078
   vertex -0.000938 0.29055 0.02459
  endloop
 endfacet
 facet normal -0.89641 -0.274294 -0.348155
  outer loop
   vertex -0.004626 0.297164 0.022079
   vertex -0.003371 0.296251 0.019567
   vertex -0.003678 0.294387 0.021826
  endloop
 endfacet
 facet normal -0.803858 -0.400541 -0.439749
  outer loop
   vertex -0.003371 0.296251 0.019567
   vertex -0.001942 0.29364 0.019333
   vertex -0.003678 0.294387 0.021826
  endloop
 endfacet
 facet normal -0.754436 -0.548107 -0.361117
  outer loop
   vertex -0.003678 0.294387 0.021826
   vertex -0.001942 0.29364 0.019333
   vertex -0.001768 0.291758 0.021826
  endloop
 endfacet
 facet normal -0.629279 -0.640767 -0.439803
  outer loop
   vertex -0.001942 0.29364 0.019333
   vertex 9.99999e-05 0.291474 0.019567
   vertex -0.001768 0.291758 0.021826
  endloop
 endfacet
 facet normal -0.537986 -0.767602 -0.348366
  outer loop
   vertex -0.001768 0.291758 0.021826
   vertex 9.99999e-05 0.291474 0.019567
   vertex 0.00058 0.289998 0.022078
  endloop
 endfacet
 facet normal -0.420269 -0.815078 -0.398776
  outer loop
   vertex 9.99999e-05 0.291474 0.019567
   vertex 0.002176 0.290134 0.020118
   vertex 0.00058 0.289998 0.022078
  endloop
 endfacet
 facet normal 0.294416 -0.906493 0.302638
  outer loop
   vertex 0.006492 0.289086 0.027102
   vertex 0.0093 0.289998 0.027102
   vertex 0.007704 0.290134 0.029062
  endloop
 endfacet
 facet normal 0.155824 -0.984657 0.07855
  outer loop
   vertex 0.00494 0.28864 0.02459
   vertex 0.00803 0.289129 0.02459
   vertex 0.006492 0.289086 0.027102
  endloop
 endfacet
 facet normal -0.000555151 -0.98466 -0.174481
  outer loop
   vertex 0.003388 0.289086 0.022078
   vertex 0.006322 0.289129 0.021826
   vertex 0.00494 0.28864 0.02459
  endloop
 endfacet
 facet normal 0.304389 -0.937197 0.170322
  outer loop
   vertex 0.006492 0.289086 0.027102
   vertex 0.00803 0.289129 0.02459
   vertex 0.0093 0.289998 0.027102
  endloop
 endfacet
 facet normal 0.452705 -0.888208 0.0783901
  outer loop
   vertex 0.00803 0.289129 0.02459
   vertex 0.010818 0.29055 0.02459
   vertex 0.0093 0.289998 0.027102
  endloop
 endfacet
 facet normal 0.155583 -0.983133 -0.0961419
  outer loop
   vertex 0.00494 0.28864 0.02459
   vertex 0.006322 0.289129 0.021826
   vertex 0.00803 0.289129 0.02459
  endloop
 endfacet
 facet normal 0.303796 -0.934059 -0.187729
  outer loop
   vertex 0.006322 0.289129 0.021826
   vertex 0.009412 0.290134 0.021826
   vertex 0.00803 0.289129 0.02459
  endloop
 endfacet
 facet normal 0.451986 -0.886796 -0.0964489
  outer loop
   vertex 0.00803 0.289129 0.02459
   vertex 0.009412 0.290134 0.021826
   vertex 0.010818 0.29055 0.02459
  endloop
 endfacet
 facet normal 0.578874 -0.796508 -0.174584
  outer loop
   vertex 0.009412 0.290134 0.021826
   vertex 0.011812 0.291823 0.022078
   vertex 0.010818 0.29055 0.02459
  endloop
 endfacet
 facet normal -0.0161962 -0.937175 -0.348485
  outer loop
   vertex 0.003388 0.289086 0.022078
   vertex 0.004644 0.289998 0.019567
   vertex 0.006322 0.289129 0.021826
  endloop
 endfacet
 facet normal 0.132412 -0.888171 -0.440021
  outer loop
   vertex 0.004644 0.289998 0.019567
   vertex 0.007569 0.29055 0.019333
   vertex 0.006322 0.289129 0.021826
  endloop
 endfacet
 facet normal 0.288415 -0.886769 -0.361189
  outer loop
   vertex 0.006322 0.289129 0.021826
   vertex 0.007569 0.29055 0.019333
   vertex 0.009412 0.290134 0.021826
  endloop
 endfacet
 facet normal 0.415138 -0.796394 -0.439791
  outer loop
   vertex 0.007569 0.29055 0.019333
   vertex 0.010259 0.291823 0.019567
   vertex 0.009412 0.290134 0.021826
  endloop
 endfacet
 facet normal 0.563623 -0.748876 -0.348589
  outer loop
   vertex 0.009412 0.290134 0.021826
   vertex 0.010259 0.291823 0.019567
   vertex 0.011812 0.291823 0.022078
  endloop
 endfacet
 facet normal 0.645038 -0.651744 -0.398942
  outer loop
   vertex 0.010259 0.291823 0.019567
   vertex 0.012176 0.293383 0.020118
   vertex 0.011812 0.291823 0.022078
  endloop
 endfacet
 facet normal 0.9532 -0 0.302341
  outer loop
   vertex 0.014506 0.297164 0.027101
   vertex 0.014506 0.300116 0.027101
   vertex 0.013884 0.29864 0.029062
  endloop
 endfacet
 facet normal 0.984653 -0.155824 0.0785916
  outer loop
   vertex 0.014451 0.29555 0.02459
   vertex 0.01494 0.29864 0.02459
   vertex 0.014506 0.297164 0.027101
  endloop
 endfacet
 facet normal 0.936352 -0.304548 -0.174631
  outer loop
   vertex 0.013547 0.294211 0.022078
   vertex 0.014412 0.297015 0.021826
   vertex 0.014451 0.29555 0.02459
  endloop
 endfacet
 facet normal 0.98539 -0 0.170314
  outer loop
   vertex 0.014506 0.297164 0.027101
   vertex 0.01494 0.29864 0.02459
   vertex 0.014506 0.300116 0.027101
  endloop
 endfacet
 facet normal 0.984653 0.155824 0.0785916
  outer loop
   vertex 0.01494 0.29864 0.02459
   vertex 0.014451 0.30173 0.02459
   vertex 0.014506 0.300116 0.027101
  endloop
 endfacet
 facet normal 0.983115 -0.15558 -0.0963335
  outer loop
   vertex 0.014451 0.29555 0.02459
   vertex 0.014412 0.297015 0.021826
   vertex 0.01494 0.29864 0.02459
  endloop
 endfacet
 facet normal 0.982239 0 -0.187634
  outer loop
   vertex 0.014412 0.297015 0.021826
   vertex 0.014412 0.300265 0.021826
   vertex 0.01494 0.29864 0.02459
  endloop
 endfacet
 facet normal 0.983115 0.15558 -0.0963335
  outer loop
   vertex 0.01494 0.29864 0.02459
   vertex 0.014412 0.300265 0.021826
   vertex 0.014451 0.30173 0.02459
  endloop
 endfacet
 facet normal 0.936352 0.304548 -0.174631
  outer loop
   vertex 0.014412 0.300265 0.021826
   vertex 0.013547 0.303069 0.022078
   vertex 0.014451 0.30173 0.02459
  endloop
 endfacet
 facet normal 0.886309 -0.304753 -0.348685
  outer loop
   vertex 0.013547 0.294211 0.022078
   vertex 0.013067 0.295688 0.019567
   vertex 0.014412 0.297015 0.021826
  endloop
 endfacet
 facet normal 0.885615 -0.148581 -0.440011
  outer loop
   vertex 0.013067 0.295688 0.019567
   vertex 0.013446 0.29864 0.019333
   vertex 0.014412 0.297015 0.021826
  endloop
 endfacet
 facet normal 0.932446 0 -0.361309
  outer loop
   vertex 0.014412 0.297015 0.021826
   vertex 0.013446 0.29864 0.019333
   vertex 0.014412 0.300265 0.021826
  endloop
 endfacet
 facet normal 0.885615 0.148581 -0.440011
  outer loop
   vertex 0.013446 0.29864 0.019333
   vertex 0.013067 0.301592 0.019567
   vertex 0.014412 0.300265 0.021826
  endloop
 endfacet
 facet normal 0.886309 0.304753 -0.348685
  outer loop
   vertex 0.014412 0.300265 0.021826
   vertex 0.013067 0.301592 0.019567
   vertex 0.013547 0.303069 0.022078
  endloop
 endfacet
 facet normal 0.819189 0.412026 -0.398954
  outer loop
   vertex 0.013067 0.301592 0.019567
   vertex 0.012176 0.303897 0.020118
   vertex 0.013547 0.303069 0.022078
  endloop
 endfacet
 facet normal 0.61533 0.560308 -0.554459
  outer loop
   vertex 0.011035 0.303069 0.018015
   vertex 0.010259 0.305457 0.019567
   vertex 0.012176 0.303897 0.020118
  endloop
 endfacet
 facet normal 0.467426 0.452641 -0.759361
  outer loop
   vertex 0.009193 0.30173 0.016083
   vertex 0.008558 0.304518 0.017354
   vertex 0.011035 0.303069 0.018015
  endloop
 endfacet
 facet normal 0.262485 0.303841 -0.915851
  outer loop
   vertex 0.006972 0.300116 0.014911
   vertex 0.006322 0.302893 0.015646
   vertex 0.009193 0.30173 0.016083
  endloop
 endfacet
 facet normal 0.508799 0.579247 -0.636864
  outer loop
   vertex 0.011035 0.303069 0.018015
   vertex 0.008558 0.304518 0.017354
   vertex 0.010259 0.305457 0.019567
  endloop
 endfacet
 facet normal 0.38541 0.704977 -0.595371
  outer loop
   vertex 0.008558 0.304518 0.017354
   vertex 0.007569 0.30673 0.019333
   vertex 0.010259 0.305457 0.019567
  endloop
 endfacet
 facet normal 0.310374 0.451949 -0.836307
  outer loop
   vertex 0.009193 0.30173 0.016083
   vertex 0.006322 0.302893 0.015646
   vertex 0.008558 0.304518 0.017354
  endloop
 endfacet
 facet normal 0.187559 0.577248 -0.794737
  outer loop
   vertex 0.006322 0.302893 0.015646
   vertex 0.005468 0.305522 0.017354
   vertex 0.008558 0.304518 0.017354
  endloop
 endfacet
 facet normal 0.228709 0.703897 -0.672474
  outer loop
   vertex 0.008558 0.304518 0.017354
   vertex 0.005468 0.305522 0.017354
   vertex 0.007569 0.30673 0.019333
  endloop
 endfacet
 facet normal 0.102735 0.796801 -0.595444
  outer loop
   vertex 0.005468 0.305522 0.017354
   vertex 0.004644 0.307282 0.019567
   vertex 0.007569 0.30673 0.019333
  endloop
 endfacet
 facet normal 0.0891868 0.274301 -0.957499
  outer loop
   vertex 0.006972 0.300116 0.014911
   vertex 0.004164 0.301029 0.014911
   vertex 0.006322 0.302893 0.015646
  endloop
 endfacet
 facet normal -0.0336945 0.400135 -0.915836
  outer loop
   vertex 0.004164 0.301029 0.014911
   vertex 0.003315 0.30364 0.016083
   vertex 0.006322 0.302893 0.015646
  endloop
 endfacet
 facet normal 0.0146149 0.548074 -0.836302
  outer loop
   vertex 0.006322 0.302893 0.015646
   vertex 0.003315 0.30364 0.016083
   vertex 0.005468 0.305522 0.017354
  endloop
 endfacet
 facet normal -0.112009 0.640965 -0.759354
  outer loop
   vertex 0.003315 0.30364 0.016083
   vertex 0.002612 0.305806 0.018015
   vertex 0.005468 0.305522 0.017354
  endloop
 endfacet
 facet normal -0.0710868 0.767617 -0.636955
  outer loop
   vertex 0.005468 0.305522 0.017354
   vertex 0.002612 0.305806 0.018015
   vertex 0.004644 0.307282 0.019567
  endloop
 endfacet
 facet normal -0.168666 0.815046 -0.554303
  outer loop
   vertex 0.002612 0.305806 0.018015
   vertex 0.002176 0.307146 0.020118
   vertex 0.004644 0.307282 0.019567
  endloop
 endfacet
 facet normal -0.342493 0.758552 -0.554344
  outer loop
   vertex 0.002612 0.305806 0.018015
   vertex 9.99999e-05 0.305806 0.019567
   vertex 0.002176 0.307146 0.020118
  endloop
 endfacet
 facet normal -0.286233 0.584386 -0.759318
  outer loop
   vertex 0.003315 0.30364 0.016083
   vertex 0.000468 0.303897 0.017354
   vertex 0.002612 0.305806 0.018015
  endloop
 endfacet
 facet normal -0.207851 0.343516 -0.915858
  outer loop
   vertex 0.004164 0.301029 0.014911
   vertex 0.001322 0.301269 0.015646
   vertex 0.003315 0.30364 0.016083
  endloop
 endfacet
 facet normal -0.393627 0.662685 -0.637108
  outer loop
   vertex 0.002612 0.305806 0.018015
   vertex 0.000468 0.303897 0.017354
   vertex 9.99999e-05 0.305806 0.019567
  endloop
 endfacet
 facet normal -0.551379 0.584158 -0.595601
  outer loop
   vertex 0.000468 0.303897 0.017354
   vertex -0.001942 0.30364 0.019333
   vertex 9.99999e-05 0.305806 0.019567
  endloop
 endfacet
 facet normal -0.334054 0.43492 -0.836213
  outer loop
   vertex 0.003315 0.30364 0.016083
   vertex 0.001322 0.301269 0.015646
   vertex 0.000468 0.303897 0.017354
  endloop
 endfacet
 facet normal -0.491058 0.356895 -0.794662
  outer loop
   vertex 0.001322 0.301269 0.015646
   vertex -0.001442 0.301269 0.017354
   vertex 0.000468 0.303897 0.017354
  endloop
 endfacet
 facet normal -0.598657 0.435097 -0.672533
  outer loop
   vertex 0.000468 0.303897 0.017354
   vertex -0.001442 0.301269 0.017354
   vertex -0.001942 0.30364 0.019333
  endloop
 endfacet
 facet normal -0.725985 0.343961 -0.595514
  outer loop
   vertex -0.001442 0.301269 0.017354
   vertex -0.003371 0.301029 0.019567
   vertex -0.001942 0.30364 0.019333
  endloop
 endfacet
 facet normal -0.233325 0.169451 -0.957521
  outer loop
   vertex 0.004164 0.301029 0.014911
   vertex 0.002429 0.29864 0.014911
   vertex 0.001322 0.301269 0.015646
  endloop
 endfacet
 facet normal -0.390899 0.0914587 -0.915878
  outer loop
   vertex 0.002429 0.29864 0.014911
   vertex -0.000317 0.29864 0.016083
   vertex 0.001322 0.301269 0.015646
  endloop
 endfacet
 facet normal -0.516783 0.183167 -0.836293
  outer loop
   vertex 0.001322 0.301269 0.015646
   vertex -0.000317 0.29864 0.016083
   vertex -0.001442 0.301269 0.017354
  endloop
 endfacet
 facet normal -0.644269 0.0913996 -0.759317
  outer loop
   vertex -0.000317 0.29864 0.016083
   vertex -0.002594 0.29864 0.018015
   vertex -0.001442 0.301269 0.017354
  endloop
 endfacet
 facet normal -0.751958 0.169318 -0.637095
  outer loop
   vertex -0.001442 0.301269 0.017354
   vertex -0.002594 0.29864 0.018015
   vertex -0.003371 0.301029 0.019567
  endloop
 endfacet
 facet normal -0.827124 0.091254 -0.554562
  outer loop
   vertex -0.002594 0.29864 0.018015
   vertex -0.004004 0.29864 0.020118
   vertex -0.003371 0.301029 0.019567
  endloop
 endfacet
 facet normal -0.827124 -0.091254 -0.554562
  outer loop
   vertex -0.002594 0.29864 0.018015
   vertex -0.003371 0.296251 0.019567
   vertex -0.004004 0.29864 0.020118
  endloop
 endfacet
 facet normal -0.644269 -0.0913996 -0.759317
  outer loop
   vertex -0.000317 0.29864 0.016083
   vertex -0.001442 0.296011 0.017354
   vertex -0.002594 0.29864 0.018015
  endloop
 endfacet
 facet normal -0.390899 -0.0914587 -0.915878
  outer loop
   vertex 0.002429 0.29864 0.014911
   vertex 0.001322 0.296011 0.015646
   vertex -0.000317 0.29864 0.016083
  endloop
 endfacet
 facet normal -0.751958 -0.169318 -0.637095
  outer loop
   vertex -0.002594 0.29864 0.018015
   vertex -0.001442 0.296011 0.017354
   vertex -0.003371 0.296251 0.019567
  endloop
 endfacet
 facet normal -0.725985 -0.343961 -0.595514
  outer loop
   vertex -0.001442 0.296011 0.017354
   vertex -0.001942 0.29364 0.019333
   vertex -0.003371 0.296251 0.019567
  endloop
 endfacet
 facet normal -0.516783 -0.183167 -0.836293
  outer loop
   vertex -0.000317 0.29864 0.016083
   vertex 0.001322 0.296011 0.015646
   vertex -0.001442 0.296011 0.017354
  endloop
 endfacet
 facet normal -0.491058 -0.356895 -0.794662
  outer loop
   vertex 0.001322 0.296011 0.015646
   vertex 0.000468 0.293383 0.017354
   vertex -0.001442 0.296011 0.017354
  endloop
 endfacet
 facet normal -0.598657 -0.435097 -0.672533
  outer loop
   vertex -0.001442 0.296011 0.017354
   vertex 0.000468 0.293383 0.017354
   vertex -0.001942 0.29364 0.019333
  endloop
 endfacet
 facet normal -0.551379 -0.584158 -0.595601
  outer loop
   vertex 0.000468 0.293383 0.017354
   vertex 9.99999e-05 0.291474 0.019567
   vertex -0.001942 0.29364 0.019333
  endloop
 endfacet
 facet normal -0.233325 -0.169451 -0.957521
  outer loop
   vertex 0.002429 0.29864 0.014911
   vertex 0.004164 0.296251 0.014911
   vertex 0.001322 0.296011 0.015646
  endloop
 endfacet
 facet normal -0.207851 -0.343516 -0.915858
  outer loop
   vertex 0.004164 0.296251 0.014911
   vertex 0.003315 0.29364 0.016083
   vertex 0.001322 0.296011 0.015646
  endloop
 endfacet
 facet normal -0.334054 -0.43492 -0.836213
  outer loop
   vertex 0.001322 0.296011 0.015646
   vertex 0.003315 0.29364 0.016083
   vertex 0.000468 0.293383 0.017354
  endloop
 endfacet
 facet normal -0.286233 -0.584386 -0.759318
  outer loop
   vertex 0.003315 0.29364 0.016083
   vertex 0.002612 0.291474 0.018015
   vertex 0.000468 0.293383 0.017354
  endloop
 endfacet
 facet normal -0.393627 -0.662685 -0.637108
  outer loop
   vertex 0.000468 0.293383 0.017354
   vertex 0.002612 0.291474 0.018015
   vertex 9.99999e-05 0.291474 0.019567
  endloop
 endfacet
 facet normal -0.342493 -0.758552 -0.554344
  outer loop
   vertex 0.002612 0.291474 0.018015
   vertex 0.002176 0.290134 0.020118
   vertex 9.99999e-05 0.291474 0.019567
  endloop
 endfacet
 facet normal 0.723015 0.412034 -0.554506
  outer loop
   vertex 0.013067 0.301592 0.019567
   vertex 0.011035 0.303069 0.018015
   vertex 0.012176 0.303897 0.020118
  endloop
 endfacet
 facet normal 0.789589 0.148568 -0.59538
  outer loop
   vertex 0.013446 0.29864 0.019333
   vertex 0.011648 0.300265 0.017354
   vertex 0.013067 0.301592 0.019567
  endloop
 endfacet
 facet normal 0.789589 -0.148568 -0.59538
  outer loop
   vertex 0.013067 0.295688 0.019567
   vertex 0.011648 0.297015 0.017354
   vertex 0.013446 0.29864 0.019333
  endloop
 endfacet
 facet normal 0.708089 0.304936 -0.636886
  outer loop
   vertex 0.013067 0.301592 0.019567
   vertex 0.011648 0.300265 0.017354
   vertex 0.011035 0.303069 0.018015
  endloop
 endfacet
 facet normal 0.574948 0.304695 -0.759339
  outer loop
   vertex 0.011648 0.300265 0.017354
   vertex 0.009193 0.30173 0.016083
   vertex 0.011035 0.303069 0.018015
  endloop
 endfacet
 facet normal 0.740143 0 -0.672449
  outer loop
   vertex 0.013446 0.29864 0.019333
   vertex 0.011648 0.297015 0.017354
   vertex 0.011648 0.300265 0.017354
  endloop
 endfacet
 facet normal 0.607028 0 -0.794681
  outer loop
   vertex 0.011648 0.297015 0.017354
   vertex 0.009412 0.29864 0.015646
   vertex 0.011648 0.300265 0.017354
  endloop
 endfacet
 facet normal 0.525774 0.155534 -0.836284
  outer loop
   vertex 0.011648 0.300265 0.017354
   vertex 0.009412 0.29864 0.015646
   vertex 0.009193 0.30173 0.016083
  endloop
 endfacet
 facet normal 0.370096 0.155752 -0.915844
  outer loop
   vertex 0.009412 0.29864 0.015646
   vertex 0.006972 0.300116 0.014911
   vertex 0.009193 0.30173 0.016083
  endloop
 endfacet
 facet normal 0.708089 -0.304936 -0.636886
  outer loop
   vertex 0.013067 0.295688 0.019567
   vertex 0.011035 0.294211 0.018015
   vertex 0.011648 0.297015 0.017354
  endloop
 endfacet
 facet normal 0.574948 -0.304695 -0.759339
  outer loop
   vertex 0.011035 0.294211 0.018015
   vertex 0.009193 0.29555 0.016083
   vertex 0.011648 0.297015 0.017354
  endloop
 endfacet
 facet normal 0.525774 -0.155534 -0.836284
  outer loop
   vertex 0.011648 0.297015 0.017354
   vertex 0.009193 0.29555 0.016083
   vertex 0.009412 0.29864 0.015646
  endloop
 endfacet
 facet normal 0.370096 -0.155752 -0.915844
  outer loop
   vertex 0.009193 0.29555 0.016083
   vertex 0.006972 0.297164 0.014911
   vertex 0.009412 0.29864 0.015646
  endloop
 endfacet
 facet normal 0.288428 0 -0.957502
  outer loop
   vertex 0.009412 0.29864 0.015646
   vertex 0.006972 0.297164 0.014911
   vertex 0.006972 0.300116 0.014911
  endloop
 endfacet
 facet normal 0.156037 0 -0.987751
  outer loop
   vertex 0.006972 0.297164 0.014911
   vertex 0.00494 0.29864 0.01459
   vertex 0.006972 0.300116 0.014911
  endloop
 endfacet
 facet normal -0.168666 -0.815046 -0.554303
  outer loop
   vertex 0.002612 0.291474 0.018015
   vertex 0.004644 0.289998 0.019567
   vertex 0.002176 0.290134 0.020118
  endloop
 endfacet
 facet normal -0.112009 -0.640965 -0.759354
  outer loop
   vertex 0.003315 0.29364 0.016083
   vertex 0.005468 0.291758 0.017354
   vertex 0.002612 0.291474 0.018015
  endloop
 endfacet
 facet normal -0.0336945 -0.400135 -0.915836
  outer loop
   vertex 0.004164 0.296251 0.014911
   vertex 0.006322 0.294387 0.015646
   vertex 0.003315 0.29364 0.016083
  endloop
 endfacet
 facet normal -0.0710868 -0.767617 -0.636955
  outer loop
   vertex 0.002612 0.291474 0.018015
   vertex 0.005468 0.291758 0.017354
   vertex 0.004644 0.289998 0.019567
  endloop
 endfacet
 facet normal 0.102735 -0.796801 -0.595444
  outer loop
   vertex 0.005468 0.291758 0.017354
   vertex 0.007569 0.29055 0.019333
   vertex 0.004644 0.289998 0.019567
  endloop
 endfacet
 facet normal 0.0146149 -0.548074 -0.836302
  outer loop
   vertex 0.003315 0.29364 0.016083
   vertex 0.006322 0.294387 0.015646
   vertex 0.005468 0.291758 0.017354
  endloop
 endfacet
 facet normal 0.187559 -0.577248 -0.794737
  outer loop
   vertex 0.006322 0.294387 0.015646
   vertex 0.008558 0.292762 0.017354
   vertex 0.005468 0.291758 0.017354
  endloop
 endfacet
 facet normal 0.228709 -0.703897 -0.672474
  outer loop
   vertex 0.005468 0.291758 0.017354
   vertex 0.008558 0.292762 0.017354
   vertex 0.007569 0.29055 0.019333
  endloop
 endfacet
 facet normal 0.38541 -0.704977 -0.595371
  outer loop
   vertex 0.008558 0.292762 0.017354
   vertex 0.010259 0.291823 0.019567
   vertex 0.007569 0.29055 0.019333
  endloop
 endfacet
 facet normal 0.0891868 -0.274301 -0.957499
  outer loop
   vertex 0.004164 0.296251 0.014911
   vertex 0.006972 0.297164 0.014911
   vertex 0.006322 0.294387 0.015646
  endloop
 endfacet
 facet normal 0.262485 -0.303841 -0.915851
  outer loop
   vertex 0.006972 0.297164 0.014911
   vertex 0.009193 0.29555 0.016083
   vertex 0.006322 0.294387 0.015646
  endloop
 endfacet
 facet normal 0.310374 -0.451949 -0.836307
  outer loop
   vertex 0.006322 0.294387 0.015646
   vertex 0.009193 0.29555 0.016083
   vertex 0.008558 0.292762 0.017354
  endloop
 endfacet
 facet normal 0.467426 -0.452641 -0.759361
  outer loop
   vertex 0.009193 0.29555 0.016083
   vertex 0.011035 0.294211 0.018015
   vertex 0.008558 0.292762 0.017354
  endloop
 endfacet
 facet normal 0.508799 -0.579247 -0.636864
  outer loop
   vertex 0.008558 0.292762 0.017354
   vertex 0.011035 0.294211 0.018015
   vertex 0.010259 0.291823 0.019567
  endloop
 endfacet
 facet normal 0.61533 -0.560308 -0.554459
  outer loop
   vertex 0.011035 0.294211 0.018015
   vertex 0.012176 0.293383 0.020118
   vertex 0.010259 0.291823 0.019567
  endloop
 endfacet
endsolid ExportedfromBlender-3.5.1
