solid ExportedfromBlender-3.5.1
 facet normal 0.0482486 -0.148392 -0.987751
  outer loop
   vertex -0.0225 0.10874 -0.03191
   vertex -0.020468 0.107264 -0.031589
   vertex -0.023276 0.106351 -0.031589
  endloop
 endfacet
 facet normal 0.723015 -0.412034 -0.554506
  outer loop
   vertex -0.015264 0.103483 -0.026382
   vertex -0.016405 0.104311 -0.028485
   vertex -0.014373 0.105788 -0.026933
  endloop
 endfacet
 facet normal -0.126271 -0.0917039 -0.987748
  outer loop
   vertex -0.0225 0.10874 -0.03191
   vertex -0.023276 0.106351 -0.031589
   vertex -0.025011 0.10874 -0.031589
  endloop
 endfacet
 facet normal -0.126271 0.0917039 -0.987748
  outer loop
   vertex -0.0225 0.10874 -0.03191
   vertex -0.025011 0.10874 -0.031589
   vertex -0.023276 0.111129 -0.031589
  endloop
 endfacet
 facet normal 0.0482486 0.148392 -0.987751
  outer loop
   vertex -0.0225 0.10874 -0.03191
   vertex -0.023276 0.111129 -0.031589
   vertex -0.020468 0.110216 -0.031589
  endloop
 endfacet
 facet normal 0.819189 -0.412026 -0.398954
  outer loop
   vertex -0.015264 0.103483 -0.026382
   vertex -0.014373 0.105788 -0.026933
   vertex -0.013893 0.104311 -0.024422
  endloop
 endfacet
 facet normal -0.138975 -0.90647 -0.398746
  outer loop
   vertex -0.025264 0.100234 -0.026382
   vertex -0.022796 0.100098 -0.026933
   vertex -0.024052 0.099186 -0.024422
  endloop
 endfacet
 facet normal -0.905177 -0.147939 -0.398459
  outer loop
   vertex -0.031444 0.10874 -0.026382
   vertex -0.030811 0.106351 -0.026933
   vertex -0.032066 0.107264 -0.024421
  endloop
 endfacet
 facet normal -0.420269 0.815078 -0.398776
  outer loop
   vertex -0.025264 0.117246 -0.026382
   vertex -0.02734 0.115906 -0.026933
   vertex -0.02686 0.117382 -0.024422
  endloop
 endfacet
 facet normal 0.645038 0.651744 -0.398942
  outer loop
   vertex -0.015264 0.113997 -0.026382
   vertex -0.017181 0.115557 -0.026933
   vertex -0.015628 0.115557 -0.024422
  endloop
 endfacet
 facet normal 0.771063 -0.560215 -0.302688
  outer loop
   vertex -0.015264 0.103483 -0.026382
   vertex -0.013893 0.104311 -0.024422
   vertex -0.015628 0.101923 -0.024422
  endloop
 endfacet
 facet normal -0.294416 -0.906493 -0.302638
  outer loop
   vertex -0.025264 0.100234 -0.026382
   vertex -0.024052 0.099186 -0.024422
   vertex -0.02686 0.100098 -0.024422
  endloop
 endfacet
 facet normal -0.9532 0 -0.302341
  outer loop
   vertex -0.031444 0.10874 -0.026382
   vertex -0.032066 0.107264 -0.024421
   vertex -0.032066 0.110216 -0.024421
  endloop
 endfacet
 facet normal -0.294416 0.906493 -0.302638
  outer loop
   vertex -0.025264 0.117246 -0.026382
   vertex -0.02686 0.117382 -0.024422
   vertex -0.024052 0.118294 -0.024422
  endloop
 endfacet
 facet normal 0.771063 0.560215 -0.302688
  outer loop
   vertex -0.015264 0.113997 -0.026382
   vertex -0.015628 0.115557 -0.024422
   vertex -0.013893 0.113169 -0.024422
  endloop
 endfacet
 facet normal 0.342493 -0.758552 0.554344
  outer loop
   vertex -0.019736 0.100234 -0.017438
   vertex -0.01766 0.101574 -0.016887
   vertex -0.020172 0.101574 -0.015335
  endloop
 endfacet
 facet normal -0.61533 -0.560308 0.554459
  outer loop
   vertex -0.029736 0.103483 -0.017438
   vertex -0.027819 0.101923 -0.016887
   vertex -0.028595 0.104311 -0.015335
  endloop
 endfacet
 facet normal -0.723015 0.412034 0.554506
  outer loop
   vertex -0.029736 0.113997 -0.017438
   vertex -0.030627 0.111692 -0.016887
   vertex -0.028595 0.113169 -0.015335
  endloop
 endfacet
 facet normal 0.168666 0.815046 0.554303
  outer loop
   vertex -0.019736 0.117246 -0.017438
   vertex -0.022204 0.117382 -0.016887
   vertex -0.020172 0.115906 -0.015335
  endloop
 endfacet
 facet normal 0.827124 0.091254 0.554562
  outer loop
   vertex -0.013556 0.10874 -0.017438
   vertex -0.014189 0.111129 -0.016887
   vertex -0.014966 0.10874 -0.015335
  endloop
 endfacet
 facet normal 0.126271 0.0917039 0.987748
  outer loop
   vertex -0.019989 0.10874 -0.012231
   vertex -0.021724 0.111129 -0.012231
   vertex -0.0225 0.10874 -0.01191
  endloop
 endfacet
 facet normal 0.390899 0.0914587 0.915878
  outer loop
   vertex -0.017243 0.10874 -0.013403
   vertex -0.018882 0.111369 -0.012966
   vertex -0.019989 0.10874 -0.012231
  endloop
 endfacet
 facet normal 0.644269 0.0913996 0.759317
  outer loop
   vertex -0.014966 0.10874 -0.015335
   vertex -0.016118 0.111369 -0.014674
   vertex -0.017243 0.10874 -0.013403
  endloop
 endfacet
 facet normal 0.233325 0.169451 0.957521
  outer loop
   vertex -0.019989 0.10874 -0.012231
   vertex -0.018882 0.111369 -0.012966
   vertex -0.021724 0.111129 -0.012231
  endloop
 endfacet
 facet normal 0.207851 0.343516 0.915858
  outer loop
   vertex -0.018882 0.111369 -0.012966
   vertex -0.020875 0.11374 -0.013403
   vertex -0.021724 0.111129 -0.012231
  endloop
 endfacet
 facet normal 0.516783 0.183167 0.836293
  outer loop
   vertex -0.017243 0.10874 -0.013403
   vertex -0.016118 0.111369 -0.014674
   vertex -0.018882 0.111369 -0.012966
  endloop
 endfacet
 facet normal 0.491058 0.356895 0.794662
  outer loop
   vertex -0.016118 0.111369 -0.014674
   vertex -0.018028 0.113997 -0.014674
   vertex -0.018882 0.111369 -0.012966
  endloop
 endfacet
 facet normal 0.334054 0.43492 0.836213
  outer loop
   vertex -0.018882 0.111369 -0.012966
   vertex -0.018028 0.113997 -0.014674
   vertex -0.020875 0.11374 -0.013403
  endloop
 endfacet
 facet normal 0.286233 0.584386 0.759318
  outer loop
   vertex -0.018028 0.113997 -0.014674
   vertex -0.020172 0.115906 -0.015335
   vertex -0.020875 0.11374 -0.013403
  endloop
 endfacet
 facet normal 0.751958 0.169318 0.637095
  outer loop
   vertex -0.014966 0.10874 -0.015335
   vertex -0.014189 0.111129 -0.016887
   vertex -0.016118 0.111369 -0.014674
  endloop
 endfacet
 facet normal 0.725985 0.343961 0.595514
  outer loop
   vertex -0.014189 0.111129 -0.016887
   vertex -0.015618 0.11374 -0.016653
   vertex -0.016118 0.111369 -0.014674
  endloop
 endfacet
 facet normal 0.598657 0.435097 0.672533
  outer loop
   vertex -0.016118 0.111369 -0.014674
   vertex -0.015618 0.11374 -0.016653
   vertex -0.018028 0.113997 -0.014674
  endloop
 endfacet
 facet normal 0.551379 0.584158 0.595601
  outer loop
   vertex -0.015618 0.11374 -0.016653
   vertex -0.01766 0.115906 -0.016887
   vertex -0.018028 0.113997 -0.014674
  endloop
 endfacet
 facet normal 0.393627 0.662685 0.637108
  outer loop
   vertex -0.018028 0.113997 -0.014674
   vertex -0.01766 0.115906 -0.016887
   vertex -0.020172 0.115906 -0.015335
  endloop
 endfacet
 facet normal 0.342493 0.758552 0.554344
  outer loop
   vertex -0.01766 0.115906 -0.016887
   vertex -0.019736 0.117246 -0.017438
   vertex -0.020172 0.115906 -0.015335
  endloop
 endfacet
 facet normal -0.0482486 0.148392 0.987751
  outer loop
   vertex -0.021724 0.111129 -0.012231
   vertex -0.024532 0.110216 -0.012231
   vertex -0.0225 0.10874 -0.01191
  endloop
 endfacet
 facet normal 0.0336945 0.400135 0.915836
  outer loop
   vertex -0.020875 0.11374 -0.013403
   vertex -0.023882 0.112993 -0.012966
   vertex -0.021724 0.111129 -0.012231
  endloop
 endfacet
 facet normal 0.112009 0.640965 0.759354
  outer loop
   vertex -0.020172 0.115906 -0.015335
   vertex -0.023028 0.115622 -0.014674
   vertex -0.020875 0.11374 -0.013403
  endloop
 endfacet
 facet normal -0.0891868 0.274301 0.957499
  outer loop
   vertex -0.021724 0.111129 -0.012231
   vertex -0.023882 0.112993 -0.012966
   vertex -0.024532 0.110216 -0.012231
  endloop
 endfacet
 facet normal -0.262485 0.303841 0.915851
  outer loop
   vertex -0.023882 0.112993 -0.012966
   vertex -0.026753 0.11183 -0.013403
   vertex -0.024532 0.110216 -0.012231
  endloop
 endfacet
 facet normal -0.0146149 0.548074 0.836302
  outer loop
   vertex -0.020875 0.11374 -0.013403
   vertex -0.023028 0.115622 -0.014674
   vertex -0.023882 0.112993 -0.012966
  endloop
 endfacet
 facet normal -0.187559 0.577248 0.794737
  outer loop
   vertex -0.023028 0.115622 -0.014674
   vertex -0.026118 0.114618 -0.014674
   vertex -0.023882 0.112993 -0.012966
  endloop
 endfacet
 facet normal -0.310374 0.451949 0.836307
  outer loop
   vertex -0.023882 0.112993 -0.012966
   vertex -0.026118 0.114618 -0.014674
   vertex -0.026753 0.11183 -0.013403
  endloop
 endfacet
 facet normal -0.467426 0.452641 0.759361
  outer loop
   vertex -0.026118 0.114618 -0.014674
   vertex -0.028595 0.113169 -0.015335
   vertex -0.026753 0.11183 -0.013403
  endloop
 endfacet
 facet normal 0.0710868 0.767617 0.636955
  outer loop
   vertex -0.020172 0.115906 -0.015335
   vertex -0.022204 0.117382 -0.016887
   vertex -0.023028 0.115622 -0.014674
  endloop
 endfacet
 facet normal -0.102735 0.796801 0.595444
  outer loop
   vertex -0.022204 0.117382 -0.016887
   vertex -0.025129 0.11683 -0.016653
   vertex -0.023028 0.115622 -0.014674
  endloop
 endfacet
 facet normal -0.228709 0.703897 0.672474
  outer loop
   vertex -0.023028 0.115622 -0.014674
   vertex -0.025129 0.11683 -0.016653
   vertex -0.026118 0.114618 -0.014674
  endloop
 endfacet
 facet normal -0.38541 0.704977 0.595371
  outer loop
   vertex -0.025129 0.11683 -0.016653
   vertex -0.027819 0.115557 -0.016887
   vertex -0.026118 0.114618 -0.014674
  endloop
 endfacet
 facet normal -0.508799 0.579247 0.636864
  outer loop
   vertex -0.026118 0.114618 -0.014674
   vertex -0.027819 0.115557 -0.016887
   vertex -0.028595 0.113169 -0.015335
  endloop
 endfacet
 facet normal -0.61533 0.560308 0.554459
  outer loop
   vertex -0.027819 0.115557 -0.016887
   vertex -0.029736 0.113997 -0.017438
   vertex -0.028595 0.113169 -0.015335
  endloop
 endfacet
 facet normal -0.156037 0 0.987751
  outer loop
   vertex -0.024532 0.110216 -0.012231
   vertex -0.024532 0.107264 -0.012231
   vertex -0.0225 0.10874 -0.01191
  endloop
 endfacet
 facet normal -0.370096 0.155752 0.915844
  outer loop
   vertex -0.026753 0.11183 -0.013403
   vertex -0.026972 0.10874 -0.012966
   vertex -0.024532 0.110216 -0.012231
  endloop
 endfacet
 facet normal -0.574948 0.304695 0.759339
  outer loop
   vertex -0.028595 0.113169 -0.015335
   vertex -0.029208 0.110365 -0.014674
   vertex -0.026753 0.11183 -0.013403
  endloop
 endfacet
 facet normal -0.288428 0 0.957502
  outer loop
   vertex -0.024532 0.110216 -0.012231
   vertex -0.026972 0.10874 -0.012966
   vertex -0.024532 0.107264 -0.012231
  endloop
 endfacet
 facet normal -0.370096 -0.155752 0.915844
  outer loop
   vertex -0.026972 0.10874 -0.012966
   vertex -0.026753 0.10565 -0.013403
   vertex -0.024532 0.107264 -0.012231
  endloop
 endfacet
 facet normal -0.525774 0.155534 0.836284
  outer loop
   vertex -0.026753 0.11183 -0.013403
   vertex -0.029208 0.110365 -0.014674
   vertex -0.026972 0.10874 -0.012966
  endloop
 endfacet
 facet normal -0.607028 0 0.794681
  outer loop
   vertex -0.029208 0.110365 -0.014674
   vertex -0.029208 0.107115 -0.014674
   vertex -0.026972 0.10874 -0.012966
  endloop
 endfacet
 facet normal -0.525774 -0.155534 0.836284
  outer loop
   vertex -0.026972 0.10874 -0.012966
   vertex -0.029208 0.107115 -0.014674
   vertex -0.026753 0.10565 -0.013403
  endloop
 endfacet
 facet normal -0.574948 -0.304695 0.759339
  outer loop
   vertex -0.029208 0.107115 -0.014674
   vertex -0.028595 0.104311 -0.015335
   vertex -0.026753 0.10565 -0.013403
  endloop
 endfacet
 facet normal -0.708089 0.304936 0.636886
  outer loop
   vertex -0.028595 0.113169 -0.015335
   vertex -0.030627 0.111692 -0.016887
   vertex -0.029208 0.110365 -0.014674
  endloop
 endfacet
 facet normal -0.789589 0.148568 0.59538
  outer loop
   vertex -0.030627 0.111692 -0.016887
   vertex -0.031006 0.10874 -0.016653
   vertex -0.029208 0.110365 -0.014674
  endloop
 endfacet
 facet normal -0.740143 0 0.672449
  outer loop
   vertex -0.029208 0.110365 -0.014674
   vertex -0.031006 0.10874 -0.016653
   vertex -0.029208 0.107115 -0.014674
  endloop
 endfacet
 facet normal -0.789589 -0.148568 0.59538
  outer loop
   vertex -0.031006 0.10874 -0.016653
   vertex -0.030627 0.105788 -0.016887
   vertex -0.029208 0.107115 -0.014674
  endloop
 endfacet
 facet normal -0.708089 -0.304936 0.636886
  outer loop
   vertex -0.029208 0.107115 -0.014674
   vertex -0.030627 0.105788 -0.016887
   vertex -0.028595 0.104311 -0.015335
  endloop
 endfacet
 facet normal -0.723015 -0.412034 0.554506
  outer loop
   vertex -0.030627 0.105788 -0.016887
   vertex -0.029736 0.103483 -0.017438
   vertex -0.028595 0.104311 -0.015335
  endloop
 endfacet
 facet normal -0.0482486 -0.148392 0.987751
  outer loop
   vertex -0.024532 0.107264 -0.012231
   vertex -0.021724 0.106351 -0.012231
   vertex -0.0225 0.10874 -0.01191
  endloop
 endfacet
 facet normal -0.262485 -0.303841 0.915851
  outer loop
   vertex -0.026753 0.10565 -0.013403
   vertex -0.023882 0.104487 -0.012966
   vertex -0.024532 0.107264 -0.012231
  endloop
 endfacet
 facet normal -0.467426 -0.452641 0.759361
  outer loop
   vertex -0.028595 0.104311 -0.015335
   vertex -0.026118 0.102862 -0.014674
   vertex -0.026753 0.10565 -0.013403
  endloop
 endfacet
 facet normal -0.0891868 -0.274301 0.957499
  outer loop
   vertex -0.024532 0.107264 -0.012231
   vertex -0.023882 0.104487 -0.012966
   vertex -0.021724 0.106351 -0.012231
  endloop
 endfacet
 facet normal 0.0336945 -0.400135 0.915836
  outer loop
   vertex -0.023882 0.104487 -0.012966
   vertex -0.020875 0.10374 -0.013403
   vertex -0.021724 0.106351 -0.012231
  endloop
 endfacet
 facet normal -0.310374 -0.451949 0.836307
  outer loop
   vertex -0.026753 0.10565 -0.013403
   vertex -0.026118 0.102862 -0.014674
   vertex -0.023882 0.104487 -0.012966
  endloop
 endfacet
 facet normal -0.187559 -0.577248 0.794737
  outer loop
   vertex -0.026118 0.102862 -0.014674
   vertex -0.023028 0.101858 -0.014674
   vertex -0.023882 0.104487 -0.012966
  endloop
 endfacet
 facet normal -0.0146149 -0.548074 0.836302
  outer loop
   vertex -0.023882 0.104487 -0.012966
   vertex -0.023028 0.101858 -0.014674
   vertex -0.020875 0.10374 -0.013403
  endloop
 endfacet
 facet normal 0.112009 -0.640965 0.759354
  outer loop
   vertex -0.023028 0.101858 -0.014674
   vertex -0.020172 0.101574 -0.015335
   vertex -0.020875 0.10374 -0.013403
  endloop
 endfacet
 facet normal -0.508799 -0.579247 0.636864
  outer loop
   vertex -0.028595 0.104311 -0.015335
   vertex -0.027819 0.101923 -0.016887
   vertex -0.026118 0.102862 -0.014674
  endloop
 endfacet
 facet normal -0.38541 -0.704977 0.595371
  outer loop
   vertex -0.027819 0.101923 -0.016887
   vertex -0.025129 0.10065 -0.016653
   vertex -0.026118 0.102862 -0.014674
  endloop
 endfacet
 facet normal -0.228709 -0.703897 0.672474
  outer loop
   vertex -0.026118 0.102862 -0.014674
   vertex -0.025129 0.10065 -0.016653
   vertex -0.023028 0.101858 -0.014674
  endloop
 endfacet
 facet normal -0.102735 -0.796801 0.595444
  outer loop
   vertex -0.025129 0.10065 -0.016653
   vertex -0.022204 0.100098 -0.016887
   vertex -0.023028 0.101858 -0.014674
  endloop
 endfacet
 facet normal 0.0710868 -0.767617 0.636955
  outer loop
   vertex -0.023028 0.101858 -0.014674
   vertex -0.022204 0.100098 -0.016887
   vertex -0.020172 0.101574 -0.015335
  endloop
 endfacet
 facet normal 0.168666 -0.815046 0.554303
  outer loop
   vertex -0.022204 0.100098 -0.016887
   vertex -0.019736 0.100234 -0.017438
   vertex -0.020172 0.101574 -0.015335
  endloop
 endfacet
 facet normal 0.126271 -0.0917039 0.987748
  outer loop
   vertex -0.021724 0.106351 -0.012231
   vertex -0.019989 0.10874 -0.012231
   vertex -0.0225 0.10874 -0.01191
  endloop
 endfacet
 facet normal 0.207851 -0.343516 0.915858
  outer loop
   vertex -0.020875 0.10374 -0.013403
   vertex -0.018882 0.106111 -0.012966
   vertex -0.021724 0.106351 -0.012231
  endloop
 endfacet
 facet normal 0.286233 -0.584386 0.759318
  outer loop
   vertex -0.020172 0.101574 -0.015335
   vertex -0.018028 0.103483 -0.014674
   vertex -0.020875 0.10374 -0.013403
  endloop
 endfacet
 facet normal 0.233325 -0.169451 0.957521
  outer loop
   vertex -0.021724 0.106351 -0.012231
   vertex -0.018882 0.106111 -0.012966
   vertex -0.019989 0.10874 -0.012231
  endloop
 endfacet
 facet normal 0.390899 -0.0914587 0.915878
  outer loop
   vertex -0.018882 0.106111 -0.012966
   vertex -0.017243 0.10874 -0.013403
   vertex -0.019989 0.10874 -0.012231
  endloop
 endfacet
 facet normal 0.334054 -0.43492 0.836213
  outer loop
   vertex -0.020875 0.10374 -0.013403
   vertex -0.018028 0.103483 -0.014674
   vertex -0.018882 0.106111 -0.012966
  endloop
 endfacet
 facet normal 0.491058 -0.356895 0.794662
  outer loop
   vertex -0.018028 0.103483 -0.014674
   vertex -0.016118 0.106111 -0.014674
   vertex -0.018882 0.106111 -0.012966
  endloop
 endfacet
 facet normal 0.516783 -0.183167 0.836293
  outer loop
   vertex -0.018882 0.106111 -0.012966
   vertex -0.016118 0.106111 -0.014674
   vertex -0.017243 0.10874 -0.013403
  endloop
 endfacet
 facet normal 0.644269 -0.0913996 0.759317
  outer loop
   vertex -0.016118 0.106111 -0.014674
   vertex -0.014966 0.10874 -0.015335
   vertex -0.017243 0.10874 -0.013403
  endloop
 endfacet
 facet normal 0.393627 -0.662685 0.637108
  outer loop
   vertex -0.020172 0.101574 -0.015335
   vertex -0.01766 0.101574 -0.016887
   vertex -0.018028 0.103483 -0.014674
  endloop
 endfacet
 facet normal 0.551379 -0.584158 0.595601
  outer loop
   vertex -0.01766 0.101574 -0.016887
   vertex -0.015618 0.10374 -0.016653
   vertex -0.018028 0.103483 -0.014674
  endloop
 endfacet
 facet normal 0.598657 -0.435097 0.672533
  outer loop
   vertex -0.018028 0.103483 -0.014674
   vertex -0.015618 0.10374 -0.016653
   vertex -0.016118 0.106111 -0.014674
  endloop
 endfacet
 facet normal 0.725985 -0.343961 0.595514
  outer loop
   vertex -0.015618 0.10374 -0.016653
   vertex -0.014189 0.106351 -0.016887
   vertex -0.016118 0.106111 -0.014674
  endloop
 endfacet
 facet normal 0.751958 -0.169318 0.637095
  outer loop
   vertex -0.016118 0.106111 -0.014674
   vertex -0.014189 0.106351 -0.016887
   vertex -0.014966 0.10874 -0.015335
  endloop
 endfacet
 facet normal 0.827124 -0.091254 0.554562
  outer loop
   vertex -0.014189 0.106351 -0.016887
   vertex -0.013556 0.10874 -0.017438
   vertex -0.014966 0.10874 -0.015335
  endloop
 endfacet
 facet normal 0.905177 0.147939 0.398459
  outer loop
   vertex -0.012934 0.110216 -0.019399
   vertex -0.014189 0.111129 -0.016887
   vertex -0.013556 0.10874 -0.017438
  endloop
 endfacet
 facet normal 0.93657 0.303801 0.17476
  outer loop
   vertex -0.012989 0.11183 -0.02191
   vertex -0.013882 0.112993 -0.019146
   vertex -0.012934 0.110216 -0.019399
  endloop
 endfacet
 facet normal 0.888212 0.452708 -0.078331
  outer loop
   vertex -0.013893 0.113169 -0.024422
   vertex -0.01441 0.114618 -0.02191
   vertex -0.012989 0.11183 -0.02191
  endloop
 endfacet
 facet normal 0.89641 0.274294 0.348155
  outer loop
   vertex -0.012934 0.110216 -0.019399
   vertex -0.013882 0.112993 -0.019146
   vertex -0.014189 0.111129 -0.016887
  endloop
 endfacet
 facet normal 0.803858 0.400541 0.439749
  outer loop
   vertex -0.013882 0.112993 -0.019146
   vertex -0.015618 0.11374 -0.016653
   vertex -0.014189 0.111129 -0.016887
  endloop
 endfacet
 facet normal 0.886806 0.451991 0.0963284
  outer loop
   vertex -0.012989 0.11183 -0.02191
   vertex -0.01441 0.114618 -0.02191
   vertex -0.013882 0.112993 -0.019146
  endloop
 endfacet
 facet normal 0.794662 0.577331 0.18762
  outer loop
   vertex -0.01441 0.114618 -0.02191
   vertex -0.015792 0.115622 -0.019146
   vertex -0.013882 0.112993 -0.019146
  endloop
 endfacet
 facet normal 0.754436 0.548107 0.361117
  outer loop
   vertex -0.013882 0.112993 -0.019146
   vertex -0.015792 0.115622 -0.019146
   vertex -0.015618 0.11374 -0.016653
  endloop
 endfacet
 facet normal 0.629279 0.640767 0.439803
  outer loop
   vertex -0.015792 0.115622 -0.019146
   vertex -0.01766 0.115906 -0.016887
   vertex -0.015618 0.11374 -0.016653
  endloop
 endfacet
 facet normal 0.797233 0.579229 -0.170037
  outer loop
   vertex -0.013893 0.113169 -0.024422
   vertex -0.015628 0.115557 -0.024422
   vertex -0.01441 0.114618 -0.02191
  endloop
 endfacet
 facet normal 0.704936 0.704936 -0.0782949
  outer loop
   vertex -0.015628 0.115557 -0.024422
   vertex -0.016622 0.11683 -0.02191
   vertex -0.01441 0.114618 -0.02191
  endloop
 endfacet
 facet normal 0.703824 0.703824 0.0962537
  outer loop
   vertex -0.01441 0.114618 -0.02191
   vertex -0.016622 0.11683 -0.02191
   vertex -0.015792 0.115622 -0.019146
  endloop
 endfacet
 facet normal 0.578519 0.796783 0.174509
  outer loop
   vertex -0.016622 0.11683 -0.02191
   vertex -0.01814 0.117382 -0.019398
   vertex -0.015792 0.115622 -0.019146
  endloop
 endfacet
 facet normal 0.537986 0.767602 0.348366
  outer loop
   vertex -0.015792 0.115622 -0.019146
   vertex -0.01814 0.117382 -0.019398
   vertex -0.01766 0.115906 -0.016887
  endloop
 endfacet
 facet normal 0.420269 0.815078 0.398776
  outer loop
   vertex -0.01814 0.117382 -0.019398
   vertex -0.019736 0.117246 -0.017438
   vertex -0.01766 0.115906 -0.016887
  endloop
 endfacet
 facet normal 0.138975 0.90647 0.398746
  outer loop
   vertex -0.020948 0.118294 -0.019398
   vertex -0.022204 0.117382 -0.016887
   vertex -0.019736 0.117246 -0.017438
  endloop
 endfacet
 facet normal 0.000555151 0.98466 0.174481
  outer loop
   vertex -0.0225 0.11874 -0.02191
   vertex -0.023882 0.118251 -0.019146
   vertex -0.020948 0.118294 -0.019398
  endloop
 endfacet
 facet normal -0.155824 0.984657 -0.07855
  outer loop
   vertex -0.024052 0.118294 -0.024422
   vertex -0.02559 0.118251 -0.02191
   vertex -0.0225 0.11874 -0.02191
  endloop
 endfacet
 facet normal 0.0161962 0.937175 0.348485
  outer loop
   vertex -0.020948 0.118294 -0.019398
   vertex -0.023882 0.118251 -0.019146
   vertex -0.022204 0.117382 -0.016887
  endloop
 endfacet
 facet normal -0.132412 0.888171 0.440021
  outer loop
   vertex -0.023882 0.118251 -0.019146
   vertex -0.025129 0.11683 -0.016653
   vertex -0.022204 0.117382 -0.016887
  endloop
 endfacet
 facet normal -0.155583 0.983133 0.0961419
  outer loop
   vertex -0.0225 0.11874 -0.02191
   vertex -0.02559 0.118251 -0.02191
   vertex -0.023882 0.118251 -0.019146
  endloop
 endfacet
 facet normal -0.303796 0.934059 0.187729
  outer loop
   vertex -0.02559 0.118251 -0.02191
   vertex -0.026972 0.117246 -0.019146
   vertex -0.023882 0.118251 -0.019146
  endloop
 endfacet
 facet normal -0.288415 0.886769 0.361189
  outer loop
   vertex -0.023882 0.118251 -0.019146
   vertex -0.026972 0.117246 -0.019146
   vertex -0.025129 0.11683 -0.016653
  endloop
 endfacet
 facet normal -0.415138 0.796394 0.439791
  outer loop
   vertex -0.026972 0.117246 -0.019146
   vertex -0.027819 0.115557 -0.016887
   vertex -0.025129 0.11683 -0.016653
  endloop
 endfacet
 facet normal -0.304389 0.937197 -0.170322
  outer loop
   vertex -0.024052 0.118294 -0.024422
   vertex -0.02686 0.117382 -0.024422
   vertex -0.02559 0.118251 -0.02191
  endloop
 endfacet
 facet normal -0.452705 0.888208 -0.0783901
  outer loop
   vertex -0.02686 0.117382 -0.024422
   vertex -0.028378 0.11683 -0.02191
   vertex -0.02559 0.118251 -0.02191
  endloop
 endfacet
 facet normal -0.451986 0.886796 0.0964489
  outer loop
   vertex -0.02559 0.118251 -0.02191
   vertex -0.028378 0.11683 -0.02191
   vertex -0.026972 0.117246 -0.019146
  endloop
 endfacet
 facet normal -0.578874 0.796508 0.174584
  outer loop
   vertex -0.028378 0.11683 -0.02191
   vertex -0.029372 0.115557 -0.019398
   vertex -0.026972 0.117246 -0.019146
  endloop
 endfacet
 facet normal -0.563623 0.748876 0.348589
  outer loop
   vertex -0.026972 0.117246 -0.019146
   vertex -0.029372 0.115557 -0.019398
   vertex -0.027819 0.115557 -0.016887
  endloop
 endfacet
 facet normal -0.645038 0.651744 0.398942
  outer loop
   vertex -0.029372 0.115557 -0.019398
   vertex -0.029736 0.113997 -0.017438
   vertex -0.027819 0.115557 -0.016887
  endloop
 endfacet
 facet normal -0.819189 0.412026 0.398954
  outer loop
   vertex -0.031107 0.113169 -0.019398
   vertex -0.030627 0.111692 -0.016887
   vertex -0.029736 0.113997 -0.017438
  endloop
 endfacet
 facet normal -0.936352 0.304548 0.174631
  outer loop
   vertex -0.032011 0.11183 -0.02191
   vertex -0.031972 0.110365 -0.019146
   vertex -0.031107 0.113169 -0.019398
  endloop
 endfacet
 facet normal -0.984653 0.155824 -0.0785916
  outer loop
   vertex -0.032066 0.110216 -0.024421
   vertex -0.0325 0.10874 -0.02191
   vertex -0.032011 0.11183 -0.02191
  endloop
 endfacet
 facet normal -0.886309 0.304753 0.348685
  outer loop
   vertex -0.031107 0.113169 -0.019398
   vertex -0.031972 0.110365 -0.019146
   vertex -0.030627 0.111692 -0.016887
  endloop
 endfacet
 facet normal -0.885615 0.148581 0.440011
  outer loop
   vertex -0.031972 0.110365 -0.019146
   vertex -0.031006 0.10874 -0.016653
   vertex -0.030627 0.111692 -0.016887
  endloop
 endfacet
 facet normal -0.983115 0.15558 0.0963335
  outer loop
   vertex -0.032011 0.11183 -0.02191
   vertex -0.0325 0.10874 -0.02191
   vertex -0.031972 0.110365 -0.019146
  endloop
 endfacet
 facet normal -0.982239 0 0.187634
  outer loop
   vertex -0.0325 0.10874 -0.02191
   vertex -0.031972 0.107115 -0.019146
   vertex -0.031972 0.110365 -0.019146
  endloop
 endfacet
 facet normal -0.932446 0 0.361309
  outer loop
   vertex -0.031972 0.110365 -0.019146
   vertex -0.031972 0.107115 -0.019146
   vertex -0.031006 0.10874 -0.016653
  endloop
 endfacet
 facet normal -0.885615 -0.148581 0.440011
  outer loop
   vertex -0.031972 0.107115 -0.019146
   vertex -0.030627 0.105788 -0.016887
   vertex -0.031006 0.10874 -0.016653
  endloop
 endfacet
 facet normal -0.98539 -0 -0.170314
  outer loop
   vertex -0.032066 0.110216 -0.024421
   vertex -0.032066 0.107264 -0.024421
   vertex -0.0325 0.10874 -0.02191
  endloop
 endfacet
 facet normal -0.984653 -0.155824 -0.0785916
  outer loop
   vertex -0.032066 0.107264 -0.024421
   vertex -0.032011 0.10565 -0.02191
   vertex -0.0325 0.10874 -0.02191
  endloop
 endfacet
 facet normal -0.983115 -0.15558 0.0963335
  outer loop
   vertex -0.0325 0.10874 -0.02191
   vertex -0.032011 0.10565 -0.02191
   vertex -0.031972 0.107115 -0.019146
  endloop
 endfacet
 facet normal -0.936352 -0.304548 0.174631
  outer loop
   vertex -0.032011 0.10565 -0.02191
   vertex -0.031107 0.104311 -0.019398
   vertex -0.031972 0.107115 -0.019146
  endloop
 endfacet
 facet normal -0.886309 -0.304753 0.348685
  outer loop
   vertex -0.031972 0.107115 -0.019146
   vertex -0.031107 0.104311 -0.019398
   vertex -0.030627 0.105788 -0.016887
  endloop
 endfacet
 facet normal -0.819189 -0.412026 0.398954
  outer loop
   vertex -0.031107 0.104311 -0.019398
   vertex -0.029736 0.103483 -0.017438
   vertex -0.030627 0.105788 -0.016887
  endloop
 endfacet
 facet normal -0.645038 -0.651744 0.398942
  outer loop
   vertex -0.029372 0.101923 -0.019398
   vertex -0.027819 0.101923 -0.016887
   vertex -0.029736 0.103483 -0.017438
  endloop
 endfacet
 facet normal -0.578874 -0.796508 0.174584
  outer loop
   vertex -0.028378 0.10065 -0.02191
   vertex -0.026972 0.100234 -0.019146
   vertex -0.029372 0.101923 -0.019398
  endloop
 endfacet
 facet normal -0.452705 -0.888208 -0.0783901
  outer loop
   vertex -0.02686 0.100098 -0.024422
   vertex -0.02559 0.099229 -0.02191
   vertex -0.028378 0.10065 -0.02191
  endloop
 endfacet
 facet normal -0.563623 -0.748876 0.348589
  outer loop
   vertex -0.029372 0.101923 -0.019398
   vertex -0.026972 0.100234 -0.019146
   vertex -0.027819 0.101923 -0.016887
  endloop
 endfacet
 facet normal -0.415138 -0.796394 0.439791
  outer loop
   vertex -0.026972 0.100234 -0.019146
   vertex -0.025129 0.10065 -0.016653
   vertex -0.027819 0.101923 -0.016887
  endloop
 endfacet
 facet normal -0.451986 -0.886796 0.0964489
  outer loop
   vertex -0.028378 0.10065 -0.02191
   vertex -0.02559 0.099229 -0.02191
   vertex -0.026972 0.100234 -0.019146
  endloop
 endfacet
 facet normal -0.303796 -0.934059 0.187729
  outer loop
   vertex -0.02559 0.099229 -0.02191
   vertex -0.023882 0.099229 -0.019146
   vertex -0.026972 0.100234 -0.019146
  endloop
 endfacet
 facet normal -0.288415 -0.886769 0.361189
  outer loop
   vertex -0.026972 0.100234 -0.019146
   vertex -0.023882 0.099229 -0.019146
   vertex -0.025129 0.10065 -0.016653
  endloop
 endfacet
 facet normal -0.132412 -0.888171 0.440021
  outer loop
   vertex -0.023882 0.099229 -0.019146
   vertex -0.022204 0.100098 -0.016887
   vertex -0.025129 0.10065 -0.016653
  endloop
 endfacet
 facet normal -0.304389 -0.937197 -0.170322
  outer loop
   vertex -0.02686 0.100098 -0.024422
   vertex -0.024052 0.099186 -0.024422
   vertex -0.02559 0.099229 -0.02191
  endloop
 endfacet
 facet normal -0.155824 -0.984657 -0.07855
  outer loop
   vertex -0.024052 0.099186 -0.024422
   vertex -0.0225 0.09874 -0.02191
   vertex -0.02559 0.099229 -0.02191
  endloop
 endfacet
 facet normal -0.155583 -0.983133 0.0961419
  outer loop
   vertex -0.02559 0.099229 -0.02191
   vertex -0.0225 0.09874 -0.02191
   vertex -0.023882 0.099229 -0.019146
  endloop
 endfacet
 facet normal 0.000555151 -0.98466 0.174481
  outer loop
   vertex -0.0225 0.09874 -0.02191
   vertex -0.020948 0.099186 -0.019398
   vertex -0.023882 0.099229 -0.019146
  endloop
 endfacet
 facet normal 0.0161962 -0.937175 0.348485
  outer loop
   vertex -0.023882 0.099229 -0.019146
   vertex -0.020948 0.099186 -0.019398
   vertex -0.022204 0.100098 -0.016887
  endloop
 endfacet
 facet normal 0.138975 -0.90647 0.398746
  outer loop
   vertex -0.020948 0.099186 -0.019398
   vertex -0.019736 0.100234 -0.017438
   vertex -0.022204 0.100098 -0.016887
  endloop
 endfacet
 facet normal 0.420269 -0.815078 0.398776
  outer loop
   vertex -0.01814 0.100098 -0.019398
   vertex -0.01766 0.101574 -0.016887
   vertex -0.019736 0.100234 -0.017438
  endloop
 endfacet
 facet normal 0.578519 -0.796783 0.174509
  outer loop
   vertex -0.016622 0.10065 -0.02191
   vertex -0.015792 0.101858 -0.019146
   vertex -0.01814 0.100098 -0.019398
  endloop
 endfacet
 facet normal 0.704936 -0.704936 -0.0782949
  outer loop
   vertex -0.015628 0.101923 -0.024422
   vertex -0.01441 0.102862 -0.02191
   vertex -0.016622 0.10065 -0.02191
  endloop
 endfacet
 facet normal 0.537986 -0.767602 0.348366
  outer loop
   vertex -0.01814 0.100098 -0.019398
   vertex -0.015792 0.101858 -0.019146
   vertex -0.01766 0.101574 -0.016887
  endloop
 endfacet
 facet normal 0.629279 -0.640767 0.439803
  outer loop
   vertex -0.015792 0.101858 -0.019146
   vertex -0.015618 0.10374 -0.016653
   vertex -0.01766 0.101574 -0.016887
  endloop
 endfacet
 facet normal 0.703824 -0.703824 0.0962537
  outer loop
   vertex -0.016622 0.10065 -0.02191
   vertex -0.01441 0.102862 -0.02191
   vertex -0.015792 0.101858 -0.019146
  endloop
 endfacet
 facet normal 0.794662 -0.577331 0.18762
  outer loop
   vertex -0.01441 0.102862 -0.02191
   vertex -0.013882 0.104487 -0.019146
   vertex -0.015792 0.101858 -0.019146
  endloop
 endfacet
 facet normal 0.754436 -0.548107 0.361117
  outer loop
   vertex -0.015792 0.101858 -0.019146
   vertex -0.013882 0.104487 -0.019146
   vertex -0.015618 0.10374 -0.016653
  endloop
 endfacet
 facet normal 0.803858 -0.400541 0.439749
  outer loop
   vertex -0.013882 0.104487 -0.019146
   vertex -0.014189 0.106351 -0.016887
   vertex -0.015618 0.10374 -0.016653
  endloop
 endfacet
 facet normal 0.797233 -0.579229 -0.170037
  outer loop
   vertex -0.015628 0.101923 -0.024422
   vertex -0.013893 0.104311 -0.024422
   vertex -0.01441 0.102862 -0.02191
  endloop
 endfacet
 facet normal 0.888212 -0.452708 -0.078331
  outer loop
   vertex -0.013893 0.104311 -0.024422
   vertex -0.012989 0.10565 -0.02191
   vertex -0.01441 0.102862 -0.02191
  endloop
 endfacet
 facet normal 0.886806 -0.451991 0.0963284
  outer loop
   vertex -0.01441 0.102862 -0.02191
   vertex -0.012989 0.10565 -0.02191
   vertex -0.013882 0.104487 -0.019146
  endloop
 endfacet
 facet normal 0.93657 -0.303801 0.17476
  outer loop
   vertex -0.012989 0.10565 -0.02191
   vertex -0.012934 0.107264 -0.019399
   vertex -0.013882 0.104487 -0.019146
  endloop
 endfacet
 facet normal 0.89641 -0.274294 0.348155
  outer loop
   vertex -0.013882 0.104487 -0.019146
   vertex -0.012934 0.107264 -0.019399
   vertex -0.014189 0.106351 -0.016887
  endloop
 endfacet
 facet normal 0.905177 -0.147939 0.398459
  outer loop
   vertex -0.012934 0.107264 -0.019399
   vertex -0.013556 0.10874 -0.017438
   vertex -0.014189 0.106351 -0.016887
  endloop
 endfacet
 facet normal 0.294416 0.906493 0.302638
  outer loop
   vertex -0.01814 0.117382 -0.019398
   vertex -0.020948 0.118294 -0.019398
   vertex -0.019736 0.117246 -0.017438
  endloop
 endfacet
 facet normal 0.452705 0.888208 0.0783901
  outer loop
   vertex -0.016622 0.11683 -0.02191
   vertex -0.01941 0.118251 -0.02191
   vertex -0.01814 0.117382 -0.019398
  endloop
 endfacet
 facet normal 0.578874 0.796508 -0.174584
  outer loop
   vertex -0.015628 0.115557 -0.024422
   vertex -0.018028 0.117246 -0.024674
   vertex -0.016622 0.11683 -0.02191
  endloop
 endfacet
 facet normal 0.304389 0.937197 0.170322
  outer loop
   vertex -0.01814 0.117382 -0.019398
   vertex -0.01941 0.118251 -0.02191
   vertex -0.020948 0.118294 -0.019398
  endloop
 endfacet
 facet normal 0.155824 0.984657 0.07855
  outer loop
   vertex -0.01941 0.118251 -0.02191
   vertex -0.0225 0.11874 -0.02191
   vertex -0.020948 0.118294 -0.019398
  endloop
 endfacet
 facet normal 0.451986 0.886796 -0.0964489
  outer loop
   vertex -0.016622 0.11683 -0.02191
   vertex -0.018028 0.117246 -0.024674
   vertex -0.01941 0.118251 -0.02191
  endloop
 endfacet
 facet normal 0.303796 0.934059 -0.187729
  outer loop
   vertex -0.018028 0.117246 -0.024674
   vertex -0.021118 0.118251 -0.024674
   vertex -0.01941 0.118251 -0.02191
  endloop
 endfacet
 facet normal 0.155583 0.983133 -0.0961419
  outer loop
   vertex -0.01941 0.118251 -0.02191
   vertex -0.021118 0.118251 -0.024674
   vertex -0.0225 0.11874 -0.02191
  endloop
 endfacet
 facet normal -0.000555151 0.98466 -0.174481
  outer loop
   vertex -0.021118 0.118251 -0.024674
   vertex -0.024052 0.118294 -0.024422
   vertex -0.0225 0.11874 -0.02191
  endloop
 endfacet
 facet normal 0.563623 0.748876 -0.348589
  outer loop
   vertex -0.015628 0.115557 -0.024422
   vertex -0.017181 0.115557 -0.026933
   vertex -0.018028 0.117246 -0.024674
  endloop
 endfacet
 facet normal 0.415138 0.796394 -0.439791
  outer loop
   vertex -0.017181 0.115557 -0.026933
   vertex -0.019871 0.11683 -0.027167
   vertex -0.018028 0.117246 -0.024674
  endloop
 endfacet
 facet normal 0.288415 0.886769 -0.361189
  outer loop
   vertex -0.018028 0.117246 -0.024674
   vertex -0.019871 0.11683 -0.027167
   vertex -0.021118 0.118251 -0.024674
  endloop
 endfacet
 facet normal 0.132412 0.888171 -0.440021
  outer loop
   vertex -0.019871 0.11683 -0.027167
   vertex -0.022796 0.117382 -0.026933
   vertex -0.021118 0.118251 -0.024674
  endloop
 endfacet
 facet normal -0.0161962 0.937175 -0.348485
  outer loop
   vertex -0.021118 0.118251 -0.024674
   vertex -0.022796 0.117382 -0.026933
   vertex -0.024052 0.118294 -0.024422
  endloop
 endfacet
 facet normal -0.138975 0.90647 -0.398746
  outer loop
   vertex -0.022796 0.117382 -0.026933
   vertex -0.025264 0.117246 -0.026382
   vertex -0.024052 0.118294 -0.024422
  endloop
 endfacet
 facet normal -0.771063 0.560215 0.302688
  outer loop
   vertex -0.029372 0.115557 -0.019398
   vertex -0.031107 0.113169 -0.019398
   vertex -0.029736 0.113997 -0.017438
  endloop
 endfacet
 facet normal -0.704936 0.704936 0.0782949
  outer loop
   vertex -0.028378 0.11683 -0.02191
   vertex -0.03059 0.114618 -0.02191
   vertex -0.029372 0.115557 -0.019398
  endloop
 endfacet
 facet normal -0.578519 0.796783 -0.174509
  outer loop
   vertex -0.02686 0.117382 -0.024422
   vertex -0.029208 0.115622 -0.024674
   vertex -0.028378 0.11683 -0.02191
  endloop
 endfacet
 facet normal -0.797233 0.579229 0.170037
  outer loop
   vertex -0.029372 0.115557 -0.019398
   vertex -0.03059 0.114618 -0.02191
   vertex -0.031107 0.113169 -0.019398
  endloop
 endfacet
 facet normal -0.888212 0.452708 0.078331
  outer loop
   vertex -0.03059 0.114618 -0.02191
   vertex -0.032011 0.11183 -0.02191
   vertex -0.031107 0.113169 -0.019398
  endloop
 endfacet
 facet normal -0.703824 0.703824 -0.0962537
  outer loop
   vertex -0.028378 0.11683 -0.02191
   vertex -0.029208 0.115622 -0.024674
   vertex -0.03059 0.114618 -0.02191
  endloop
 endfacet
 facet normal -0.794662 0.577331 -0.18762
  outer loop
   vertex -0.029208 0.115622 -0.024674
   vertex -0.031118 0.112993 -0.024674
   vertex -0.03059 0.114618 -0.02191
  endloop
 endfacet
 facet normal -0.886806 0.451991 -0.0963284
  outer loop
   vertex -0.03059 0.114618 -0.02191
   vertex -0.031118 0.112993 -0.024674
   vertex -0.032011 0.11183 -0.02191
  endloop
 endfacet
 facet normal -0.93657 0.303801 -0.17476
  outer loop
   vertex -0.031118 0.112993 -0.024674
   vertex -0.032066 0.110216 -0.024421
   vertex -0.032011 0.11183 -0.02191
  endloop
 endfacet
 facet normal -0.537986 0.767602 -0.348366
  outer loop
   vertex -0.02686 0.117382 -0.024422
   vertex -0.02734 0.115906 -0.026933
   vertex -0.029208 0.115622 -0.024674
  endloop
 endfacet
 facet normal -0.629279 0.640767 -0.439803
  outer loop
   vertex -0.02734 0.115906 -0.026933
   vertex -0.029382 0.11374 -0.027167
   vertex -0.029208 0.115622 -0.024674
  endloop
 endfacet
 facet normal -0.754436 0.548107 -0.361117
  outer loop
   vertex -0.029208 0.115622 -0.024674
   vertex -0.029382 0.11374 -0.027167
   vertex -0.031118 0.112993 -0.024674
  endloop
 endfacet
 facet normal -0.803858 0.400541 -0.439749
  outer loop
   vertex -0.029382 0.11374 -0.027167
   vertex -0.030811 0.111129 -0.026933
   vertex -0.031118 0.112993 -0.024674
  endloop
 endfacet
 facet normal -0.89641 0.274294 -0.348155
  outer loop
   vertex -0.031118 0.112993 -0.024674
   vertex -0.030811 0.111129 -0.026933
   vertex -0.032066 0.110216 -0.024421
  endloop
 endfacet
 facet normal -0.905177 0.147939 -0.398459
  outer loop
   vertex -0.030811 0.111129 -0.026933
   vertex -0.031444 0.10874 -0.026382
   vertex -0.032066 0.110216 -0.024421
  endloop
 endfacet
 facet normal -0.771063 -0.560215 0.302688
  outer loop
   vertex -0.031107 0.104311 -0.019398
   vertex -0.029372 0.101923 -0.019398
   vertex -0.029736 0.103483 -0.017438
  endloop
 endfacet
 facet normal -0.888212 -0.452708 0.078331
  outer loop
   vertex -0.032011 0.10565 -0.02191
   vertex -0.03059 0.102862 -0.02191
   vertex -0.031107 0.104311 -0.019398
  endloop
 endfacet
 facet normal -0.93657 -0.303801 -0.17476
  outer loop
   vertex -0.032066 0.107264 -0.024421
   vertex -0.031118 0.104487 -0.024674
   vertex -0.032011 0.10565 -0.02191
  endloop
 endfacet
 facet normal -0.797233 -0.579229 0.170037
  outer loop
   vertex -0.031107 0.104311 -0.019398
   vertex -0.03059 0.102862 -0.02191
   vertex -0.029372 0.101923 -0.019398
  endloop
 endfacet
 facet normal -0.704936 -0.704936 0.0782949
  outer loop
   vertex -0.03059 0.102862 -0.02191
   vertex -0.028378 0.10065 -0.02191
   vertex -0.029372 0.101923 -0.019398
  endloop
 endfacet
 facet normal -0.886806 -0.451991 -0.0963284
  outer loop
   vertex -0.032011 0.10565 -0.02191
   vertex -0.031118 0.104487 -0.024674
   vertex -0.03059 0.102862 -0.02191
  endloop
 endfacet
 facet normal -0.794662 -0.577331 -0.18762
  outer loop
   vertex -0.031118 0.104487 -0.024674
   vertex -0.029208 0.101858 -0.024674
   vertex -0.03059 0.102862 -0.02191
  endloop
 endfacet
 facet normal -0.703824 -0.703824 -0.0962537
  outer loop
   vertex -0.03059 0.102862 -0.02191
   vertex -0.029208 0.101858 -0.024674
   vertex -0.028378 0.10065 -0.02191
  endloop
 endfacet
 facet normal -0.578519 -0.796783 -0.174509
  outer loop
   vertex -0.029208 0.101858 -0.024674
   vertex -0.02686 0.100098 -0.024422
   vertex -0.028378 0.10065 -0.02191
  endloop
 endfacet
 facet normal -0.89641 -0.274294 -0.348155
  outer loop
   vertex -0.032066 0.107264 -0.024421
   vertex -0.030811 0.106351 -0.026933
   vertex -0.031118 0.104487 -0.024674
  endloop
 endfacet
 facet normal -0.803858 -0.400541 -0.439749
  outer loop
   vertex -0.030811 0.106351 -0.026933
   vertex -0.029382 0.10374 -0.027167
   vertex -0.031118 0.104487 -0.024674
  endloop
 endfacet
 facet normal -0.754436 -0.548107 -0.361117
  outer loop
   vertex -0.031118 0.104487 -0.024674
   vertex -0.029382 0.10374 -0.027167
   vertex -0.029208 0.101858 -0.024674
  endloop
 endfacet
 facet normal -0.629279 -0.640767 -0.439803
  outer loop
   vertex -0.029382 0.10374 -0.027167
   vertex -0.02734 0.101574 -0.026933
   vertex -0.029208 0.101858 -0.024674
  endloop
 endfacet
 facet normal -0.537986 -0.767602 -0.348366
  outer loop
   vertex -0.029208 0.101858 -0.024674
   vertex -0.02734 0.101574 -0.026933
   vertex -0.02686 0.100098 -0.024422
  endloop
 endfacet
 facet normal -0.420269 -0.815078 -0.398776
  outer loop
   vertex -0.02734 0.101574 -0.026933
   vertex -0.025264 0.100234 -0.026382
   vertex -0.02686 0.100098 -0.024422
  endloop
 endfacet
 facet normal 0.294416 -0.906493 0.302638
  outer loop
   vertex -0.020948 0.099186 -0.019398
   vertex -0.01814 0.100098 -0.019398
   vertex -0.019736 0.100234 -0.017438
  endloop
 endfacet
 facet normal 0.155824 -0.984657 0.07855
  outer loop
   vertex -0.0225 0.09874 -0.02191
   vertex -0.01941 0.099229 -0.02191
   vertex -0.020948 0.099186 -0.019398
  endloop
 endfacet
 facet normal -0.000555151 -0.98466 -0.174481
  outer loop
   vertex -0.024052 0.099186 -0.024422
   vertex -0.021118 0.099229 -0.024674
   vertex -0.0225 0.09874 -0.02191
  endloop
 endfacet
 facet normal 0.304389 -0.937197 0.170322
  outer loop
   vertex -0.020948 0.099186 -0.019398
   vertex -0.01941 0.099229 -0.02191
   vertex -0.01814 0.100098 -0.019398
  endloop
 endfacet
 facet normal 0.452705 -0.888208 0.0783901
  outer loop
   vertex -0.01941 0.099229 -0.02191
   vertex -0.016622 0.10065 -0.02191
   vertex -0.01814 0.100098 -0.019398
  endloop
 endfacet
 facet normal 0.155583 -0.983133 -0.0961419
  outer loop
   vertex -0.0225 0.09874 -0.02191
   vertex -0.021118 0.099229 -0.024674
   vertex -0.01941 0.099229 -0.02191
  endloop
 endfacet
 facet normal 0.303796 -0.934059 -0.187729
  outer loop
   vertex -0.021118 0.099229 -0.024674
   vertex -0.018028 0.100234 -0.024674
   vertex -0.01941 0.099229 -0.02191
  endloop
 endfacet
 facet normal 0.451986 -0.886796 -0.0964489
  outer loop
   vertex -0.01941 0.099229 -0.02191
   vertex -0.018028 0.100234 -0.024674
   vertex -0.016622 0.10065 -0.02191
  endloop
 endfacet
 facet normal 0.578874 -0.796508 -0.174584
  outer loop
   vertex -0.018028 0.100234 -0.024674
   vertex -0.015628 0.101923 -0.024422
   vertex -0.016622 0.10065 -0.02191
  endloop
 endfacet
 facet normal -0.0161962 -0.937175 -0.348485
  outer loop
   vertex -0.024052 0.099186 -0.024422
   vertex -0.022796 0.100098 -0.026933
   vertex -0.021118 0.099229 -0.024674
  endloop
 endfacet
 facet normal 0.132412 -0.888171 -0.440021
  outer loop
   vertex -0.022796 0.100098 -0.026933
   vertex -0.019871 0.10065 -0.027167
   vertex -0.021118 0.099229 -0.024674
  endloop
 endfacet
 facet normal 0.288415 -0.886769 -0.361189
  outer loop
   vertex -0.021118 0.099229 -0.024674
   vertex -0.019871 0.10065 -0.027167
   vertex -0.018028 0.100234 -0.024674
  endloop
 endfacet
 facet normal 0.415138 -0.796394 -0.439791
  outer loop
   vertex -0.019871 0.10065 -0.027167
   vertex -0.017181 0.101923 -0.026933
   vertex -0.018028 0.100234 -0.024674
  endloop
 endfacet
 facet normal 0.563623 -0.748876 -0.348589
  outer loop
   vertex -0.018028 0.100234 -0.024674
   vertex -0.017181 0.101923 -0.026933
   vertex -0.015628 0.101923 -0.024422
  endloop
 endfacet
 facet normal 0.645038 -0.651744 -0.398942
  outer loop
   vertex -0.017181 0.101923 -0.026933
   vertex -0.015264 0.103483 -0.026382
   vertex -0.015628 0.101923 -0.024422
  endloop
 endfacet
 facet normal 0.9532 -0 0.302341
  outer loop
   vertex -0.012934 0.107264 -0.019399
   vertex -0.012934 0.110216 -0.019399
   vertex -0.013556 0.10874 -0.017438
  endloop
 endfacet
 facet normal 0.984653 -0.155824 0.0785916
  outer loop
   vertex -0.012989 0.10565 -0.02191
   vertex -0.0125 0.10874 -0.02191
   vertex -0.012934 0.107264 -0.019399
  endloop
 endfacet
 facet normal 0.936352 -0.304548 -0.174631
  outer loop
   vertex -0.013893 0.104311 -0.024422
   vertex -0.013028 0.107115 -0.024674
   vertex -0.012989 0.10565 -0.02191
  endloop
 endfacet
 facet normal 0.98539 -0 0.170314
  outer loop
   vertex -0.012934 0.107264 -0.019399
   vertex -0.0125 0.10874 -0.02191
   vertex -0.012934 0.110216 -0.019399
  endloop
 endfacet
 facet normal 0.984653 0.155824 0.0785916
  outer loop
   vertex -0.0125 0.10874 -0.02191
   vertex -0.012989 0.11183 -0.02191
   vertex -0.012934 0.110216 -0.019399
  endloop
 endfacet
 facet normal 0.983115 -0.15558 -0.0963335
  outer loop
   vertex -0.012989 0.10565 -0.02191
   vertex -0.013028 0.107115 -0.024674
   vertex -0.0125 0.10874 -0.02191
  endloop
 endfacet
 facet normal 0.982239 0 -0.187634
  outer loop
   vertex -0.013028 0.107115 -0.024674
   vertex -0.013028 0.110365 -0.024674
   vertex -0.0125 0.10874 -0.02191
  endloop
 endfacet
 facet normal 0.983115 0.15558 -0.0963335
  outer loop
   vertex -0.0125 0.10874 -0.02191
   vertex -0.013028 0.110365 -0.024674
   vertex -0.012989 0.11183 -0.02191
  endloop
 endfacet
 facet normal 0.936352 0.304548 -0.174631
  outer loop
   vertex -0.013028 0.110365 -0.024674
   vertex -0.013893 0.113169 -0.024422
   vertex -0.012989 0.11183 -0.02191
  endloop
 endfacet
 facet normal 0.886309 -0.304753 -0.348685
  outer loop
   vertex -0.013893 0.104311 -0.024422
   vertex -0.014373 0.105788 -0.026933
   vertex -0.013028 0.107115 -0.024674
  endloop
 endfacet
 facet normal 0.885615 -0.148581 -0.440011
  outer loop
   vertex -0.014373 0.105788 -0.026933
   vertex -0.013994 0.10874 -0.027167
   vertex -0.013028 0.107115 -0.024674
  endloop
 endfacet
 facet normal 0.932446 0 -0.361309
  outer loop
   vertex -0.013028 0.107115 -0.024674
   vertex -0.013994 0.10874 -0.027167
   vertex -0.013028 0.110365 -0.024674
  endloop
 endfacet
 facet normal 0.885615 0.148581 -0.440011
  outer loop
   vertex -0.013994 0.10874 -0.027167
   vertex -0.014373 0.111692 -0.026933
   vertex -0.013028 0.110365 -0.024674
  endloop
 endfacet
 facet normal 0.886309 0.304753 -0.348685
  outer loop
   vertex -0.013028 0.110365 -0.024674
   vertex -0.014373 0.111692 -0.026933
   vertex -0.013893 0.113169 -0.024422
  endloop
 endfacet
 facet normal 0.819189 0.412026 -0.398954
  outer loop
   vertex -0.014373 0.111692 -0.026933
   vertex -0.015264 0.113997 -0.026382
   vertex -0.013893 0.113169 -0.024422
  endloop
 endfacet
 facet normal 0.61533 0.560308 -0.554459
  outer loop
   vertex -0.016405 0.113169 -0.028485
   vertex -0.017181 0.115557 -0.026933
   vertex -0.015264 0.113997 -0.026382
  endloop
 endfacet
 facet normal 0.467426 0.452641 -0.759361
  outer loop
   vertex -0.018247 0.11183 -0.030417
   vertex -0.018882 0.114618 -0.029146
   vertex -0.016405 0.113169 -0.028485
  endloop
 endfacet
 facet normal 0.262485 0.303841 -0.915851
  outer loop
   vertex -0.020468 0.110216 -0.031589
   vertex -0.021118 0.112993 -0.030854
   vertex -0.018247 0.11183 -0.030417
  endloop
 endfacet
 facet normal 0.508799 0.579247 -0.636864
  outer loop
   vertex -0.016405 0.113169 -0.028485
   vertex -0.018882 0.114618 -0.029146
   vertex -0.017181 0.115557 -0.026933
  endloop
 endfacet
 facet normal 0.38541 0.704977 -0.595371
  outer loop
   vertex -0.018882 0.114618 -0.029146
   vertex -0.019871 0.11683 -0.027167
   vertex -0.017181 0.115557 -0.026933
  endloop
 endfacet
 facet normal 0.310374 0.451949 -0.836307
  outer loop
   vertex -0.018247 0.11183 -0.030417
   vertex -0.021118 0.112993 -0.030854
   vertex -0.018882 0.114618 -0.029146
  endloop
 endfacet
 facet normal 0.187559 0.577248 -0.794737
  outer loop
   vertex -0.021118 0.112993 -0.030854
   vertex -0.021972 0.115622 -0.029146
   vertex -0.018882 0.114618 -0.029146
  endloop
 endfacet
 facet normal 0.228709 0.703897 -0.672474
  outer loop
   vertex -0.018882 0.114618 -0.029146
   vertex -0.021972 0.115622 -0.029146
   vertex -0.019871 0.11683 -0.027167
  endloop
 endfacet
 facet normal 0.102735 0.796801 -0.595444
  outer loop
   vertex -0.021972 0.115622 -0.029146
   vertex -0.022796 0.117382 -0.026933
   vertex -0.019871 0.11683 -0.027167
  endloop
 endfacet
 facet normal 0.0891868 0.274301 -0.957499
  outer loop
   vertex -0.020468 0.110216 -0.031589
   vertex -0.023276 0.111129 -0.031589
   vertex -0.021118 0.112993 -0.030854
  endloop
 endfacet
 facet normal -0.0336945 0.400135 -0.915836
  outer loop
   vertex -0.023276 0.111129 -0.031589
   vertex -0.024125 0.11374 -0.030417
   vertex -0.021118 0.112993 -0.030854
  endloop
 endfacet
 facet normal 0.0146149 0.548074 -0.836302
  outer loop
   vertex -0.021118 0.112993 -0.030854
   vertex -0.024125 0.11374 -0.030417
   vertex -0.021972 0.115622 -0.029146
  endloop
 endfacet
 facet normal -0.112009 0.640965 -0.759354
  outer loop
   vertex -0.024125 0.11374 -0.030417
   vertex -0.024828 0.115906 -0.028485
   vertex -0.021972 0.115622 -0.029146
  endloop
 endfacet
 facet normal -0.0710868 0.767617 -0.636955
  outer loop
   vertex -0.021972 0.115622 -0.029146
   vertex -0.024828 0.115906 -0.028485
   vertex -0.022796 0.117382 -0.026933
  endloop
 endfacet
 facet normal -0.168666 0.815046 -0.554303
  outer loop
   vertex -0.024828 0.115906 -0.028485
   vertex -0.025264 0.117246 -0.026382
   vertex -0.022796 0.117382 -0.026933
  endloop
 endfacet
 facet normal -0.342493 0.758552 -0.554344
  outer loop
   vertex -0.024828 0.115906 -0.028485
   vertex -0.02734 0.115906 -0.026933
   vertex -0.025264 0.117246 -0.026382
  endloop
 endfacet
 facet normal -0.286233 0.584386 -0.759318
  outer loop
   vertex -0.024125 0.11374 -0.030417
   vertex -0.026972 0.113997 -0.029146
   vertex -0.024828 0.115906 -0.028485
  endloop
 endfacet
 facet normal -0.207851 0.343516 -0.915858
  outer loop
   vertex -0.023276 0.111129 -0.031589
   vertex -0.026118 0.111369 -0.030854
   vertex -0.024125 0.11374 -0.030417
  endloop
 endfacet
 facet normal -0.393627 0.662685 -0.637108
  outer loop
   vertex -0.024828 0.115906 -0.028485
   vertex -0.026972 0.113997 -0.029146
   vertex -0.02734 0.115906 -0.026933
  endloop
 endfacet
 facet normal -0.551379 0.584158 -0.595601
  outer loop
   vertex -0.026972 0.113997 -0.029146
   vertex -0.029382 0.11374 -0.027167
   vertex -0.02734 0.115906 -0.026933
  endloop
 endfacet
 facet normal -0.334054 0.43492 -0.836213
  outer loop
   vertex -0.024125 0.11374 -0.030417
   vertex -0.026118 0.111369 -0.030854
   vertex -0.026972 0.113997 -0.029146
  endloop
 endfacet
 facet normal -0.491058 0.356895 -0.794662
  outer loop
   vertex -0.026118 0.111369 -0.030854
   vertex -0.028882 0.111369 -0.029146
   vertex -0.026972 0.113997 -0.029146
  endloop
 endfacet
 facet normal -0.598657 0.435097 -0.672533
  outer loop
   vertex -0.026972 0.113997 -0.029146
   vertex -0.028882 0.111369 -0.029146
   vertex -0.029382 0.11374 -0.027167
  endloop
 endfacet
 facet normal -0.725985 0.343961 -0.595514
  outer loop
   vertex -0.028882 0.111369 -0.029146
   vertex -0.030811 0.111129 -0.026933
   vertex -0.029382 0.11374 -0.027167
  endloop
 endfacet
 facet normal -0.233325 0.169451 -0.957521
  outer loop
   vertex -0.023276 0.111129 -0.031589
   vertex -0.025011 0.10874 -0.031589
   vertex -0.026118 0.111369 -0.030854
  endloop
 endfacet
 facet normal -0.390899 0.0914587 -0.915878
  outer loop
   vertex -0.025011 0.10874 -0.031589
   vertex -0.027757 0.10874 -0.030417
   vertex -0.026118 0.111369 -0.030854
  endloop
 endfacet
 facet normal -0.516783 0.183167 -0.836293
  outer loop
   vertex -0.026118 0.111369 -0.030854
   vertex -0.027757 0.10874 -0.030417
   vertex -0.028882 0.111369 -0.029146
  endloop
 endfacet
 facet normal -0.644269 0.0913996 -0.759317
  outer loop
   vertex -0.027757 0.10874 -0.030417
   vertex -0.030034 0.10874 -0.028485
   vertex -0.028882 0.111369 -0.029146
  endloop
 endfacet
 facet normal -0.751958 0.169318 -0.637095
  outer loop
   vertex -0.028882 0.111369 -0.029146
   vertex -0.030034 0.10874 -0.028485
   vertex -0.030811 0.111129 -0.026933
  endloop
 endfacet
 facet normal -0.827124 0.091254 -0.554562
  outer loop
   vertex -0.030034 0.10874 -0.028485
   vertex -0.031444 0.10874 -0.026382
   vertex -0.030811 0.111129 -0.026933
  endloop
 endfacet
 facet normal -0.827124 -0.091254 -0.554562
  outer loop
   vertex -0.030034 0.10874 -0.028485
   vertex -0.030811 0.106351 -0.026933
   vertex -0.031444 0.10874 -0.026382
  endloop
 endfacet
 facet normal -0.644269 -0.0913996 -0.759317
  outer loop
   vertex -0.027757 0.10874 -0.030417
   vertex -0.028882 0.106111 -0.029146
   vertex -0.030034 0.10874 -0.028485
  endloop
 endfacet
 facet normal -0.390899 -0.0914587 -0.915878
  outer loop
   vertex -0.025011 0.10874 -0.031589
   vertex -0.026118 0.106111 -0.030854
   vertex -0.027757 0.10874 -0.030417
  endloop
 endfacet
 facet normal -0.751958 -0.169318 -0.637095
  outer loop
   vertex -0.030034 0.10874 -0.028485
   vertex -0.028882 0.106111 -0.029146
   vertex -0.030811 0.106351 -0.026933
  endloop
 endfacet
 facet normal -0.725985 -0.343961 -0.595514
  outer loop
   vertex -0.028882 0.106111 -0.029146
   vertex -0.029382 0.10374 -0.027167
   vertex -0.030811 0.106351 -0.026933
  endloop
 endfacet
 facet normal -0.516783 -0.183167 -0.836293
  outer loop
   vertex -0.027757 0.10874 -0.030417
   vertex -0.026118 0.106111 -0.030854
   vertex -0.028882 0.106111 -0.029146
  endloop
 endfacet
 facet normal -0.491058 -0.356895 -0.794662
  outer loop
   vertex -0.026118 0.106111 -0.030854
   vertex -0.026972 0.103483 -0.029146
   vertex -0.028882 0.106111 -0.029146
  endloop
 endfacet
 facet normal -0.598657 -0.435097 -0.672533
  outer loop
   vertex -0.028882 0.106111 -0.029146
   vertex -0.026972 0.103483 -0.029146
   vertex -0.029382 0.10374 -0.027167
  endloop
 endfacet
 facet normal -0.551379 -0.584158 -0.595601
  outer loop
   vertex -0.026972 0.103483 -0.029146
   vertex -0.02734 0.101574 -0.026933
   vertex -0.029382 0.10374 -0.027167
  endloop
 endfacet
 facet normal -0.233325 -0.169451 -0.957521
  outer loop
   vertex -0.025011 0.10874 -0.031589
   vertex -0.023276 0.106351 -0.031589
   vertex -0.026118 0.106111 -0.030854
  endloop
 endfacet
 facet normal -0.207851 -0.343516 -0.915858
  outer loop
   vertex -0.023276 0.106351 -0.031589
   vertex -0.024125 0.10374 -0.030417
   vertex -0.026118 0.106111 -0.030854
  endloop
 endfacet
 facet normal -0.334054 -0.43492 -0.836213
  outer loop
   vertex -0.026118 0.106111 -0.030854
   vertex -0.024125 0.10374 -0.030417
   vertex -0.026972 0.103483 -0.029146
  endloop
 endfacet
 facet normal -0.286233 -0.584386 -0.759318
  outer loop
   vertex -0.024125 0.10374 -0.030417
   vertex -0.024828 0.101574 -0.028485
   vertex -0.026972 0.103483 -0.029146
  endloop
 endfacet
 facet normal -0.393627 -0.662685 -0.637108
  outer loop
   vertex -0.026972 0.103483 -0.029146
   vertex -0.024828 0.101574 -0.028485
   vertex -0.02734 0.101574 -0.026933
  endloop
 endfacet
 facet normal -0.342493 -0.758552 -0.554344
  outer loop
   vertex -0.024828 0.101574 -0.028485
   vertex -0.025264 0.100234 -0.026382
   vertex -0.02734 0.101574 -0.026933
  endloop
 endfacet
 facet normal 0.723015 0.412034 -0.554506
  outer loop
   vertex -0.014373 0.111692 -0.026933
   vertex -0.016405 0.113169 -0.028485
   vertex -0.015264 0.113997 -0.026382
  endloop
 endfacet
 facet normal 0.789589 0.148568 -0.59538
  outer loop
   vertex -0.013994 0.10874 -0.027167
   vertex -0.015792 0.110365 -0.029146
   vertex -0.014373 0.111692 -0.026933
  endloop
 endfacet
 facet normal 0.789589 -0.148568 -0.59538
  outer loop
   vertex -0.014373 0.105788 -0.026933
   vertex -0.015792 0.107115 -0.029146
   vertex -0.013994 0.10874 -0.027167
  endloop
 endfacet
 facet normal 0.708089 0.304936 -0.636886
  outer loop
   vertex -0.014373 0.111692 -0.026933
   vertex -0.015792 0.110365 -0.029146
   vertex -0.016405 0.113169 -0.028485
  endloop
 endfacet
 facet normal 0.574948 0.304695 -0.759339
  outer loop
   vertex -0.015792 0.110365 -0.029146
   vertex -0.018247 0.11183 -0.030417
   vertex -0.016405 0.113169 -0.028485
  endloop
 endfacet
 facet normal 0.740143 0 -0.672449
  outer loop
   vertex -0.013994 0.10874 -0.027167
   vertex -0.015792 0.107115 -0.029146
   vertex -0.015792 0.110365 -0.029146
  endloop
 endfacet
 facet normal 0.607028 0 -0.794681
  outer loop
   vertex -0.015792 0.107115 -0.029146
   vertex -0.018028 0.10874 -0.030854
   vertex -0.015792 0.110365 -0.029146
  endloop
 endfacet
 facet normal 0.525774 0.155534 -0.836284
  outer loop
   vertex -0.015792 0.110365 -0.029146
   vertex -0.018028 0.10874 -0.030854
   vertex -0.018247 0.11183 -0.030417
  endloop
 endfacet
 facet normal 0.370096 0.155752 -0.915844
  outer loop
   vertex -0.018028 0.10874 -0.030854
   vertex -0.020468 0.110216 -0.031589
   vertex -0.018247 0.11183 -0.030417
  endloop
 endfacet
 facet normal 0.708089 -0.304936 -0.636886
  outer loop
   vertex -0.014373 0.105788 -0.026933
   vertex -0.016405 0.104311 -0.028485
   vertex -0.015792 0.107115 -0.029146
  endloop
 endfacet
 facet normal 0.574948 -0.304695 -0.759339
  outer loop
   vertex -0.016405 0.104311 -0.028485
   vertex -0.018247 0.10565 -0.030417
   vertex -0.015792 0.107115 -0.029146
  endloop
 endfacet
 facet normal 0.525774 -0.155534 -0.836284
  outer loop
   vertex -0.015792 0.107115 -0.029146
   vertex -0.018247 0.10565 -0.030417
   vertex -0.018028 0.10874 -0.030854
  endloop
 endfacet
 facet normal 0.370096 -0.155752 -0.915844
  outer loop
   vertex -0.018247 0.10565 -0.030417
   vertex -0.020468 0.107264 -0.031589
   vertex -0.018028 0.10874 -0.030854
  endloop
 endfacet
 facet normal 0.288428 0 -0.957502
  outer loop
   vertex -0.018028 0.10874 -0.030854
   vertex -0.020468 0.107264 -0.031589
   vertex -0.020468 0.110216 -0.031589
  endloop
 endfacet
 facet normal 0.156037 0 -0.987751
  outer loop
   vertex -0.020468 0.107264 -0.031589
   vertex -0.0225 0.10874 -0.03191
   vertex -0.020468 0.110216 -0.031589
  endloop
 endfacet
 facet normal -0.168666 -0.815046 -0.554303
  outer loop
   vertex -0.024828 0.101574 -0.028485
   vertex -0.022796 0.100098 -0.026933
   vertex -0.025264 0.100234 -0.026382
  endloop
 endfacet
 facet normal -0.112009 -0.640965 -0.759354
  outer loop
   vertex -0.024125 0.10374 -0.030417
   vertex -0.021972 0.101858 -0.029146
   vertex -0.024828 0.101574 -0.028485
  endloop
 endfacet
 facet normal -0.0336945 -0.400135 -0.915836
  outer loop
   vertex -0.023276 0.106351 -0.031589
   vertex -0.021118 0.104487 -0.030854
   vertex -0.024125 0.10374 -0.030417
  endloop
 endfacet
 facet normal -0.0710868 -0.767617 -0.636955
  outer loop
   vertex -0.024828 0.101574 -0.028485
   vertex -0.021972 0.101858 -0.029146
   vertex -0.022796 0.100098 -0.026933
  endloop
 endfacet
 facet normal 0.102735 -0.796801 -0.595444
  outer loop
   vertex -0.021972 0.101858 -0.029146
   vertex -0.019871 0.10065 -0.027167
   vertex -0.022796 0.100098 -0.026933
  endloop
 endfacet
 facet normal 0.0146149 -0.548074 -0.836302
  outer loop
   vertex -0.024125 0.10374 -0.030417
   vertex -0.021118 0.104487 -0.030854
   vertex -0.021972 0.101858 -0.029146
  endloop
 endfacet
 facet normal 0.187559 -0.577248 -0.794737
  outer loop
   vertex -0.021118 0.104487 -0.030854
   vertex -0.018882 0.102862 -0.029146
   vertex -0.021972 0.101858 -0.029146
  endloop
 endfacet
 facet normal 0.228709 -0.703897 -0.672474
  outer loop
   vertex -0.021972 0.101858 -0.029146
   vertex -0.018882 0.102862 -0.029146
   vertex -0.019871 0.10065 -0.027167
  endloop
 endfacet
 facet normal 0.38541 -0.704977 -0.595371
  outer loop
   vertex -0.018882 0.102862 -0.029146
   vertex -0.017181 0.101923 -0.026933
   vertex -0.019871 0.10065 -0.027167
  endloop
 endfacet
 facet normal 0.0891868 -0.274301 -0.957499
  outer loop
   vertex -0.023276 0.106351 -0.031589
   vertex -0.020468 0.107264 -0.031589
   vertex -0.021118 0.104487 -0.030854
  endloop
 endfacet
 facet normal 0.262485 -0.303841 -0.915851
  outer loop
   vertex -0.020468 0.107264 -0.031589
   vertex -0.018247 0.10565 -0.030417
   vertex -0.021118 0.104487 -0.030854
  endloop
 endfacet
 facet normal 0.310374 -0.451949 -0.836307
  outer loop
   vertex -0.021118 0.104487 -0.030854
   vertex -0.018247 0.10565 -0.030417
   vertex -0.018882 0.102862 -0.029146
  endloop
 endfacet
 facet normal 0.467426 -0.452641 -0.759361
  outer loop
   vertex -0.018247 0.10565 -0.030417
   vertex -0.016405 0.104311 -0.028485
   vertex -0.018882 0.102862 -0.029146
  endloop
 endfacet
 facet normal 0.508799 -0.579247 -0.636864
  outer loop
   vertex -0.018882 0.102862 -0.029146
   vertex -0.016405 0.104311 -0.028485
   vertex -0.017181 0.101923 -0.026933
  endloop
 endfacet
 facet normal 0.61533 -0.560308 -0.554459
  outer loop
   vertex -0.016405 0.104311 -0.028485
   vertex -0.015264 0.103483 -0.026382
   vertex -0.017181 0.101923 -0.026933
  endloop
 endfacet
endsolid ExportedfromBlender-3.5.1
