solid ExportedfromBlender-3.5.1
 facet normal 0.0482486 -0.148392 -0.987751
  outer loop
   vertex 0.01829 0.06266 -0.01546
   vertex 0.020322 0.061184 -0.015139
   vertex 0.017514 0.060271 -0.015139
  endloop
 endfacet
 facet normal 0.723015 -0.412034 -0.554506
  outer loop
   vertex 0.025526 0.057403 -0.009932
   vertex 0.024385 0.058231 -0.012035
   vertex 0.026417 0.059708 -0.010483
  endloop
 endfacet
 facet normal -0.126271 -0.0917039 -0.987748
  outer loop
   vertex 0.01829 0.06266 -0.01546
   vertex 0.017514 0.060271 -0.015139
   vertex 0.015779 0.06266 -0.015139
  endloop
 endfacet
 facet normal -0.126271 0.0917039 -0.987748
  outer loop
   vertex 0.01829 0.06266 -0.01546
   vertex 0.015779 0.06266 -0.015139
   vertex 0.017514 0.065049 -0.015139
  endloop
 endfacet
 facet normal 0.0482486 0.148392 -0.987751
  outer loop
   vertex 0.01829 0.06266 -0.01546
   vertex 0.017514 0.065049 -0.015139
   vertex 0.020322 0.064136 -0.015139
  endloop
 endfacet
 facet normal 0.819189 -0.412026 -0.398954
  outer loop
   vertex 0.025526 0.057403 -0.009932
   vertex 0.026417 0.059708 -0.010483
   vertex 0.026897 0.058231 -0.007972
  endloop
 endfacet
 facet normal -0.138975 -0.90647 -0.398746
  outer loop
   vertex 0.015526 0.054154 -0.009932
   vertex 0.017994 0.054018 -0.010483
   vertex 0.016738 0.053106 -0.007972
  endloop
 endfacet
 facet normal -0.905177 -0.147939 -0.398459
  outer loop
   vertex 0.009346 0.06266 -0.009932
   vertex 0.009979 0.060271 -0.010483
   vertex 0.008724 0.061184 -0.007971
  endloop
 endfacet
 facet normal -0.420269 0.815078 -0.398776
  outer loop
   vertex 0.015526 0.071166 -0.009932
   vertex 0.01345 0.069826 -0.010483
   vertex 0.01393 0.071302 -0.007972
  endloop
 endfacet
 facet normal 0.645038 0.651744 -0.398942
  outer loop
   vertex 0.025526 0.067917 -0.009932
   vertex 0.023609 0.069477 -0.010483
   vertex 0.025162 0.069477 -0.007972
  endloop
 endfacet
 facet normal 0.771063 -0.560215 -0.302688
  outer loop
   vertex 0.025526 0.057403 -0.009932
   vertex 0.026897 0.058231 -0.007972
   vertex 0.025162 0.055843 -0.007972
  endloop
 endfacet
 facet normal -0.294416 -0.906493 -0.302638
  outer loop
   vertex 0.015526 0.054154 -0.009932
   vertex 0.016738 0.053106 -0.007972
   vertex 0.01393 0.054018 -0.007972
  endloop
 endfacet
 facet normal -0.9532 0 -0.302341
  outer loop
   vertex 0.009346 0.06266 -0.009932
   vertex 0.008724 0.061184 -0.007971
   vertex 0.008724 0.064136 -0.007971
  endloop
 endfacet
 facet normal -0.294416 0.906493 -0.302638
  outer loop
   vertex 0.015526 0.071166 -0.009932
   vertex 0.01393 0.071302 -0.007972
   vertex 0.016738 0.072214 -0.007972
  endloop
 endfacet
 facet normal 0.771063 0.560215 -0.302688
  outer loop
   vertex 0.025526 0.067917 -0.009932
   vertex 0.025162 0.069477 -0.007972
   vertex 0.026897 0.067089 -0.007972
  endloop
 endfacet
 facet normal 0.342493 -0.758552 0.554344
  outer loop
   vertex 0.021054 0.054154 -0.000988
   vertex 0.02313 0.055494 -0.000437
   vertex 0.020618 0.055494 0.001115
  endloop
 endfacet
 facet normal -0.61533 -0.560308 0.554459
  outer loop
   vertex 0.011054 0.057403 -0.000988
   vertex 0.012971 0.055843 -0.000437
   vertex 0.012195 0.058231 0.001115
  endloop
 endfacet
 facet normal -0.723015 0.412034 0.554506
  outer loop
   vertex 0.011054 0.067917 -0.000988
   vertex 0.010163 0.065612 -0.000437
   vertex 0.012195 0.067089 0.001115
  endloop
 endfacet
 facet normal 0.168666 0.815046 0.554303
  outer loop
   vertex 0.021054 0.071166 -0.000988
   vertex 0.018586 0.071302 -0.000437
   vertex 0.020618 0.069826 0.001115
  endloop
 endfacet
 facet normal 0.827124 0.091254 0.554562
  outer loop
   vertex 0.027234 0.06266 -0.000988
   vertex 0.026601 0.065049 -0.000437
   vertex 0.025824 0.06266 0.001115
  endloop
 endfacet
 facet normal 0.126271 0.0917039 0.987748
  outer loop
   vertex 0.020801 0.06266 0.004219
   vertex 0.019066 0.065049 0.004219
   vertex 0.01829 0.06266 0.00454
  endloop
 endfacet
 facet normal 0.390899 0.0914587 0.915878
  outer loop
   vertex 0.023547 0.06266 0.003047
   vertex 0.021908 0.065289 0.003484
   vertex 0.020801 0.06266 0.004219
  endloop
 endfacet
 facet normal 0.644269 0.0913996 0.759317
  outer loop
   vertex 0.025824 0.06266 0.001115
   vertex 0.024672 0.065289 0.001776
   vertex 0.023547 0.06266 0.003047
  endloop
 endfacet
 facet normal 0.233325 0.169451 0.957521
  outer loop
   vertex 0.020801 0.06266 0.004219
   vertex 0.021908 0.065289 0.003484
   vertex 0.019066 0.065049 0.004219
  endloop
 endfacet
 facet normal 0.207851 0.343516 0.915858
  outer loop
   vertex 0.021908 0.065289 0.003484
   vertex 0.019915 0.06766 0.003047
   vertex 0.019066 0.065049 0.004219
  endloop
 endfacet
 facet normal 0.516783 0.183167 0.836293
  outer loop
   vertex 0.023547 0.06266 0.003047
   vertex 0.024672 0.065289 0.001776
   vertex 0.021908 0.065289 0.003484
  endloop
 endfacet
 facet normal 0.491058 0.356895 0.794662
  outer loop
   vertex 0.024672 0.065289 0.001776
   vertex 0.022762 0.067917 0.001776
   vertex 0.021908 0.065289 0.003484
  endloop
 endfacet
 facet normal 0.334054 0.43492 0.836213
  outer loop
   vertex 0.021908 0.065289 0.003484
   vertex 0.022762 0.067917 0.001776
   vertex 0.019915 0.06766 0.003047
  endloop
 endfacet
 facet normal 0.286233 0.584386 0.759318
  outer loop
   vertex 0.022762 0.067917 0.001776
   vertex 0.020618 0.069826 0.001115
   vertex 0.019915 0.06766 0.003047
  endloop
 endfacet
 facet normal 0.751958 0.169318 0.637095
  outer loop
   vertex 0.025824 0.06266 0.001115
   vertex 0.026601 0.065049 -0.000437
   vertex 0.024672 0.065289 0.001776
  endloop
 endfacet
 facet normal 0.725985 0.343961 0.595514
  outer loop
   vertex 0.026601 0.065049 -0.000437
   vertex 0.025172 0.06766 -0.000203
   vertex 0.024672 0.065289 0.001776
  endloop
 endfacet
 facet normal 0.598657 0.435097 0.672533
  outer loop
   vertex 0.024672 0.065289 0.001776
   vertex 0.025172 0.06766 -0.000203
   vertex 0.022762 0.067917 0.001776
  endloop
 endfacet
 facet normal 0.551379 0.584158 0.595601
  outer loop
   vertex 0.025172 0.06766 -0.000203
   vertex 0.02313 0.069826 -0.000437
   vertex 0.022762 0.067917 0.001776
  endloop
 endfacet
 facet normal 0.393627 0.662685 0.637108
  outer loop
   vertex 0.022762 0.067917 0.001776
   vertex 0.02313 0.069826 -0.000437
   vertex 0.020618 0.069826 0.001115
  endloop
 endfacet
 facet normal 0.342493 0.758552 0.554344
  outer loop
   vertex 0.02313 0.069826 -0.000437
   vertex 0.021054 0.071166 -0.000988
   vertex 0.020618 0.069826 0.001115
  endloop
 endfacet
 facet normal -0.0482486 0.148392 0.987751
  outer loop
   vertex 0.019066 0.065049 0.004219
   vertex 0.016258 0.064136 0.004219
   vertex 0.01829 0.06266 0.00454
  endloop
 endfacet
 facet normal 0.0336945 0.400135 0.915836
  outer loop
   vertex 0.019915 0.06766 0.003047
   vertex 0.016908 0.066913 0.003484
   vertex 0.019066 0.065049 0.004219
  endloop
 endfacet
 facet normal 0.112009 0.640965 0.759354
  outer loop
   vertex 0.020618 0.069826 0.001115
   vertex 0.017762 0.069542 0.001776
   vertex 0.019915 0.06766 0.003047
  endloop
 endfacet
 facet normal -0.0891868 0.274301 0.957499
  outer loop
   vertex 0.019066 0.065049 0.004219
   vertex 0.016908 0.066913 0.003484
   vertex 0.016258 0.064136 0.004219
  endloop
 endfacet
 facet normal -0.262485 0.303841 0.915851
  outer loop
   vertex 0.016908 0.066913 0.003484
   vertex 0.014037 0.06575 0.003047
   vertex 0.016258 0.064136 0.004219
  endloop
 endfacet
 facet normal -0.0146149 0.548074 0.836302
  outer loop
   vertex 0.019915 0.06766 0.003047
   vertex 0.017762 0.069542 0.001776
   vertex 0.016908 0.066913 0.003484
  endloop
 endfacet
 facet normal -0.187559 0.577248 0.794737
  outer loop
   vertex 0.017762 0.069542 0.001776
   vertex 0.014672 0.068538 0.001776
   vertex 0.016908 0.066913 0.003484
  endloop
 endfacet
 facet normal -0.310374 0.451949 0.836307
  outer loop
   vertex 0.016908 0.066913 0.003484
   vertex 0.014672 0.068538 0.001776
   vertex 0.014037 0.06575 0.003047
  endloop
 endfacet
 facet normal -0.467426 0.452641 0.759361
  outer loop
   vertex 0.014672 0.068538 0.001776
   vertex 0.012195 0.067089 0.001115
   vertex 0.014037 0.06575 0.003047
  endloop
 endfacet
 facet normal 0.0710868 0.767617 0.636955
  outer loop
   vertex 0.020618 0.069826 0.001115
   vertex 0.018586 0.071302 -0.000437
   vertex 0.017762 0.069542 0.001776
  endloop
 endfacet
 facet normal -0.102735 0.796801 0.595444
  outer loop
   vertex 0.018586 0.071302 -0.000437
   vertex 0.015661 0.07075 -0.000203
   vertex 0.017762 0.069542 0.001776
  endloop
 endfacet
 facet normal -0.228709 0.703897 0.672474
  outer loop
   vertex 0.017762 0.069542 0.001776
   vertex 0.015661 0.07075 -0.000203
   vertex 0.014672 0.068538 0.001776
  endloop
 endfacet
 facet normal -0.38541 0.704977 0.595371
  outer loop
   vertex 0.015661 0.07075 -0.000203
   vertex 0.012971 0.069477 -0.000437
   vertex 0.014672 0.068538 0.001776
  endloop
 endfacet
 facet normal -0.508799 0.579247 0.636864
  outer loop
   vertex 0.014672 0.068538 0.001776
   vertex 0.012971 0.069477 -0.000437
   vertex 0.012195 0.067089 0.001115
  endloop
 endfacet
 facet normal -0.61533 0.560308 0.554459
  outer loop
   vertex 0.012971 0.069477 -0.000437
   vertex 0.011054 0.067917 -0.000988
   vertex 0.012195 0.067089 0.001115
  endloop
 endfacet
 facet normal -0.156037 0 0.987751
  outer loop
   vertex 0.016258 0.064136 0.004219
   vertex 0.016258 0.061184 0.004219
   vertex 0.01829 0.06266 0.00454
  endloop
 endfacet
 facet normal -0.370096 0.155752 0.915844
  outer loop
   vertex 0.014037 0.06575 0.003047
   vertex 0.013818 0.06266 0.003484
   vertex 0.016258 0.064136 0.004219
  endloop
 endfacet
 facet normal -0.574948 0.304695 0.759339
  outer loop
   vertex 0.012195 0.067089 0.001115
   vertex 0.011582 0.064285 0.001776
   vertex 0.014037 0.06575 0.003047
  endloop
 endfacet
 facet normal -0.288428 0 0.957502
  outer loop
   vertex 0.016258 0.064136 0.004219
   vertex 0.013818 0.06266 0.003484
   vertex 0.016258 0.061184 0.004219
  endloop
 endfacet
 facet normal -0.370096 -0.155752 0.915844
  outer loop
   vertex 0.013818 0.06266 0.003484
   vertex 0.014037 0.05957 0.003047
   vertex 0.016258 0.061184 0.004219
  endloop
 endfacet
 facet normal -0.525774 0.155534 0.836284
  outer loop
   vertex 0.014037 0.06575 0.003047
   vertex 0.011582 0.064285 0.001776
   vertex 0.013818 0.06266 0.003484
  endloop
 endfacet
 facet normal -0.607028 0 0.794681
  outer loop
   vertex 0.011582 0.064285 0.001776
   vertex 0.011582 0.061035 0.001776
   vertex 0.013818 0.06266 0.003484
  endloop
 endfacet
 facet normal -0.525774 -0.155534 0.836284
  outer loop
   vertex 0.013818 0.06266 0.003484
   vertex 0.011582 0.061035 0.001776
   vertex 0.014037 0.05957 0.003047
  endloop
 endfacet
 facet normal -0.574948 -0.304695 0.759339
  outer loop
   vertex 0.011582 0.061035 0.001776
   vertex 0.012195 0.058231 0.001115
   vertex 0.014037 0.05957 0.003047
  endloop
 endfacet
 facet normal -0.708089 0.304936 0.636886
  outer loop
   vertex 0.012195 0.067089 0.001115
   vertex 0.010163 0.065612 -0.000437
   vertex 0.011582 0.064285 0.001776
  endloop
 endfacet
 facet normal -0.789589 0.148568 0.59538
  outer loop
   vertex 0.010163 0.065612 -0.000437
   vertex 0.009784 0.06266 -0.000203
   vertex 0.011582 0.064285 0.001776
  endloop
 endfacet
 facet normal -0.740143 0 0.672449
  outer loop
   vertex 0.011582 0.064285 0.001776
   vertex 0.009784 0.06266 -0.000203
   vertex 0.011582 0.061035 0.001776
  endloop
 endfacet
 facet normal -0.789589 -0.148568 0.59538
  outer loop
   vertex 0.009784 0.06266 -0.000203
   vertex 0.010163 0.059708 -0.000437
   vertex 0.011582 0.061035 0.001776
  endloop
 endfacet
 facet normal -0.708089 -0.304936 0.636886
  outer loop
   vertex 0.011582 0.061035 0.001776
   vertex 0.010163 0.059708 -0.000437
   vertex 0.012195 0.058231 0.001115
  endloop
 endfacet
 facet normal -0.723015 -0.412034 0.554506
  outer loop
   vertex 0.010163 0.059708 -0.000437
   vertex 0.011054 0.057403 -0.000988
   vertex 0.012195 0.058231 0.001115
  endloop
 endfacet
 facet normal -0.0482486 -0.148392 0.987751
  outer loop
   vertex 0.016258 0.061184 0.004219
   vertex 0.019066 0.060271 0.004219
   vertex 0.01829 0.06266 0.00454
  endloop
 endfacet
 facet normal -0.262485 -0.303841 0.915851
  outer loop
   vertex 0.014037 0.05957 0.003047
   vertex 0.016908 0.058407 0.003484
   vertex 0.016258 0.061184 0.004219
  endloop
 endfacet
 facet normal -0.467426 -0.452641 0.759361
  outer loop
   vertex 0.012195 0.058231 0.001115
   vertex 0.014672 0.056782 0.001776
   vertex 0.014037 0.05957 0.003047
  endloop
 endfacet
 facet normal -0.0891868 -0.274301 0.957499
  outer loop
   vertex 0.016258 0.061184 0.004219
   vertex 0.016908 0.058407 0.003484
   vertex 0.019066 0.060271 0.004219
  endloop
 endfacet
 facet normal 0.0336945 -0.400135 0.915836
  outer loop
   vertex 0.016908 0.058407 0.003484
   vertex 0.019915 0.05766 0.003047
   vertex 0.019066 0.060271 0.004219
  endloop
 endfacet
 facet normal -0.310374 -0.451949 0.836307
  outer loop
   vertex 0.014037 0.05957 0.003047
   vertex 0.014672 0.056782 0.001776
   vertex 0.016908 0.058407 0.003484
  endloop
 endfacet
 facet normal -0.187559 -0.577248 0.794737
  outer loop
   vertex 0.014672 0.056782 0.001776
   vertex 0.017762 0.055778 0.001776
   vertex 0.016908 0.058407 0.003484
  endloop
 endfacet
 facet normal -0.0146149 -0.548074 0.836302
  outer loop
   vertex 0.016908 0.058407 0.003484
   vertex 0.017762 0.055778 0.001776
   vertex 0.019915 0.05766 0.003047
  endloop
 endfacet
 facet normal 0.112009 -0.640965 0.759354
  outer loop
   vertex 0.017762 0.055778 0.001776
   vertex 0.020618 0.055494 0.001115
   vertex 0.019915 0.05766 0.003047
  endloop
 endfacet
 facet normal -0.508799 -0.579247 0.636864
  outer loop
   vertex 0.012195 0.058231 0.001115
   vertex 0.012971 0.055843 -0.000437
   vertex 0.014672 0.056782 0.001776
  endloop
 endfacet
 facet normal -0.38541 -0.704977 0.595371
  outer loop
   vertex 0.012971 0.055843 -0.000437
   vertex 0.015661 0.05457 -0.000203
   vertex 0.014672 0.056782 0.001776
  endloop
 endfacet
 facet normal -0.228709 -0.703897 0.672474
  outer loop
   vertex 0.014672 0.056782 0.001776
   vertex 0.015661 0.05457 -0.000203
   vertex 0.017762 0.055778 0.001776
  endloop
 endfacet
 facet normal -0.102735 -0.796801 0.595444
  outer loop
   vertex 0.015661 0.05457 -0.000203
   vertex 0.018586 0.054018 -0.000437
   vertex 0.017762 0.055778 0.001776
  endloop
 endfacet
 facet normal 0.0710868 -0.767617 0.636955
  outer loop
   vertex 0.017762 0.055778 0.001776
   vertex 0.018586 0.054018 -0.000437
   vertex 0.020618 0.055494 0.001115
  endloop
 endfacet
 facet normal 0.168666 -0.815046 0.554303
  outer loop
   vertex 0.018586 0.054018 -0.000437
   vertex 0.021054 0.054154 -0.000988
   vertex 0.020618 0.055494 0.001115
  endloop
 endfacet
 facet normal 0.126271 -0.0917039 0.987748
  outer loop
   vertex 0.019066 0.060271 0.004219
   vertex 0.020801 0.06266 0.004219
   vertex 0.01829 0.06266 0.00454
  endloop
 endfacet
 facet normal 0.207851 -0.343516 0.915858
  outer loop
   vertex 0.019915 0.05766 0.003047
   vertex 0.021908 0.060031 0.003484
   vertex 0.019066 0.060271 0.004219
  endloop
 endfacet
 facet normal 0.286233 -0.584386 0.759318
  outer loop
   vertex 0.020618 0.055494 0.001115
   vertex 0.022762 0.057403 0.001776
   vertex 0.019915 0.05766 0.003047
  endloop
 endfacet
 facet normal 0.233325 -0.169451 0.957521
  outer loop
   vertex 0.019066 0.060271 0.004219
   vertex 0.021908 0.060031 0.003484
   vertex 0.020801 0.06266 0.004219
  endloop
 endfacet
 facet normal 0.390899 -0.0914587 0.915878
  outer loop
   vertex 0.021908 0.060031 0.003484
   vertex 0.023547 0.06266 0.003047
   vertex 0.020801 0.06266 0.004219
  endloop
 endfacet
 facet normal 0.334054 -0.43492 0.836213
  outer loop
   vertex 0.019915 0.05766 0.003047
   vertex 0.022762 0.057403 0.001776
   vertex 0.021908 0.060031 0.003484
  endloop
 endfacet
 facet normal 0.491058 -0.356895 0.794662
  outer loop
   vertex 0.022762 0.057403 0.001776
   vertex 0.024672 0.060031 0.001776
   vertex 0.021908 0.060031 0.003484
  endloop
 endfacet
 facet normal 0.516783 -0.183167 0.836293
  outer loop
   vertex 0.021908 0.060031 0.003484
   vertex 0.024672 0.060031 0.001776
   vertex 0.023547 0.06266 0.003047
  endloop
 endfacet
 facet normal 0.644269 -0.0913996 0.759317
  outer loop
   vertex 0.024672 0.060031 0.001776
   vertex 0.025824 0.06266 0.001115
   vertex 0.023547 0.06266 0.003047
  endloop
 endfacet
 facet normal 0.393627 -0.662685 0.637108
  outer loop
   vertex 0.020618 0.055494 0.001115
   vertex 0.02313 0.055494 -0.000437
   vertex 0.022762 0.057403 0.001776
  endloop
 endfacet
 facet normal 0.551379 -0.584158 0.595601
  outer loop
   vertex 0.02313 0.055494 -0.000437
   vertex 0.025172 0.05766 -0.000203
   vertex 0.022762 0.057403 0.001776
  endloop
 endfacet
 facet normal 0.598657 -0.435097 0.672533
  outer loop
   vertex 0.022762 0.057403 0.001776
   vertex 0.025172 0.05766 -0.000203
   vertex 0.024672 0.060031 0.001776
  endloop
 endfacet
 facet normal 0.725985 -0.343961 0.595514
  outer loop
   vertex 0.025172 0.05766 -0.000203
   vertex 0.026601 0.060271 -0.000437
   vertex 0.024672 0.060031 0.001776
  endloop
 endfacet
 facet normal 0.751958 -0.169318 0.637095
  outer loop
   vertex 0.024672 0.060031 0.001776
   vertex 0.026601 0.060271 -0.000437
   vertex 0.025824 0.06266 0.001115
  endloop
 endfacet
 facet normal 0.827124 -0.091254 0.554562
  outer loop
   vertex 0.026601 0.060271 -0.000437
   vertex 0.027234 0.06266 -0.000988
   vertex 0.025824 0.06266 0.001115
  endloop
 endfacet
 facet normal 0.905177 0.147939 0.398459
  outer loop
   vertex 0.027856 0.064136 -0.002949
   vertex 0.026601 0.065049 -0.000437
   vertex 0.027234 0.06266 -0.000988
  endloop
 endfacet
 facet normal 0.93657 0.303801 0.17476
  outer loop
   vertex 0.027801 0.06575 -0.00546
   vertex 0.026908 0.066913 -0.002696
   vertex 0.027856 0.064136 -0.002949
  endloop
 endfacet
 facet normal 0.888212 0.452708 -0.078331
  outer loop
   vertex 0.026897 0.067089 -0.007972
   vertex 0.02638 0.068538 -0.00546
   vertex 0.027801 0.06575 -0.00546
  endloop
 endfacet
 facet normal 0.89641 0.274294 0.348155
  outer loop
   vertex 0.027856 0.064136 -0.002949
   vertex 0.026908 0.066913 -0.002696
   vertex 0.026601 0.065049 -0.000437
  endloop
 endfacet
 facet normal 0.803858 0.400541 0.439749
  outer loop
   vertex 0.026908 0.066913 -0.002696
   vertex 0.025172 0.06766 -0.000203
   vertex 0.026601 0.065049 -0.000437
  endloop
 endfacet
 facet normal 0.886806 0.451991 0.0963284
  outer loop
   vertex 0.027801 0.06575 -0.00546
   vertex 0.02638 0.068538 -0.00546
   vertex 0.026908 0.066913 -0.002696
  endloop
 endfacet
 facet normal 0.794662 0.577331 0.18762
  outer loop
   vertex 0.02638 0.068538 -0.00546
   vertex 0.024998 0.069542 -0.002696
   vertex 0.026908 0.066913 -0.002696
  endloop
 endfacet
 facet normal 0.754436 0.548107 0.361117
  outer loop
   vertex 0.026908 0.066913 -0.002696
   vertex 0.024998 0.069542 -0.002696
   vertex 0.025172 0.06766 -0.000203
  endloop
 endfacet
 facet normal 0.629279 0.640767 0.439803
  outer loop
   vertex 0.024998 0.069542 -0.002696
   vertex 0.02313 0.069826 -0.000437
   vertex 0.025172 0.06766 -0.000203
  endloop
 endfacet
 facet normal 0.797233 0.579229 -0.170037
  outer loop
   vertex 0.026897 0.067089 -0.007972
   vertex 0.025162 0.069477 -0.007972
   vertex 0.02638 0.068538 -0.00546
  endloop
 endfacet
 facet normal 0.704936 0.704936 -0.0782949
  outer loop
   vertex 0.025162 0.069477 -0.007972
   vertex 0.024168 0.07075 -0.00546
   vertex 0.02638 0.068538 -0.00546
  endloop
 endfacet
 facet normal 0.703824 0.703824 0.0962537
  outer loop
   vertex 0.02638 0.068538 -0.00546
   vertex 0.024168 0.07075 -0.00546
   vertex 0.024998 0.069542 -0.002696
  endloop
 endfacet
 facet normal 0.578519 0.796783 0.174509
  outer loop
   vertex 0.024168 0.07075 -0.00546
   vertex 0.02265 0.071302 -0.002948
   vertex 0.024998 0.069542 -0.002696
  endloop
 endfacet
 facet normal 0.537986 0.767602 0.348366
  outer loop
   vertex 0.024998 0.069542 -0.002696
   vertex 0.02265 0.071302 -0.002948
   vertex 0.02313 0.069826 -0.000437
  endloop
 endfacet
 facet normal 0.420269 0.815078 0.398776
  outer loop
   vertex 0.02265 0.071302 -0.002948
   vertex 0.021054 0.071166 -0.000988
   vertex 0.02313 0.069826 -0.000437
  endloop
 endfacet
 facet normal 0.138975 0.90647 0.398746
  outer loop
   vertex 0.019842 0.072214 -0.002948
   vertex 0.018586 0.071302 -0.000437
   vertex 0.021054 0.071166 -0.000988
  endloop
 endfacet
 facet normal 0.000555151 0.98466 0.174481
  outer loop
   vertex 0.01829 0.07266 -0.00546
   vertex 0.016908 0.072171 -0.002696
   vertex 0.019842 0.072214 -0.002948
  endloop
 endfacet
 facet normal -0.155824 0.984657 -0.07855
  outer loop
   vertex 0.016738 0.072214 -0.007972
   vertex 0.0152 0.072171 -0.00546
   vertex 0.01829 0.07266 -0.00546
  endloop
 endfacet
 facet normal 0.0161962 0.937175 0.348485
  outer loop
   vertex 0.019842 0.072214 -0.002948
   vertex 0.016908 0.072171 -0.002696
   vertex 0.018586 0.071302 -0.000437
  endloop
 endfacet
 facet normal -0.132412 0.888171 0.440021
  outer loop
   vertex 0.016908 0.072171 -0.002696
   vertex 0.015661 0.07075 -0.000203
   vertex 0.018586 0.071302 -0.000437
  endloop
 endfacet
 facet normal -0.155583 0.983133 0.0961419
  outer loop
   vertex 0.01829 0.07266 -0.00546
   vertex 0.0152 0.072171 -0.00546
   vertex 0.016908 0.072171 -0.002696
  endloop
 endfacet
 facet normal -0.303796 0.934059 0.187729
  outer loop
   vertex 0.0152 0.072171 -0.00546
   vertex 0.013818 0.071166 -0.002696
   vertex 0.016908 0.072171 -0.002696
  endloop
 endfacet
 facet normal -0.288415 0.886769 0.361189
  outer loop
   vertex 0.016908 0.072171 -0.002696
   vertex 0.013818 0.071166 -0.002696
   vertex 0.015661 0.07075 -0.000203
  endloop
 endfacet
 facet normal -0.415138 0.796394 0.439791
  outer loop
   vertex 0.013818 0.071166 -0.002696
   vertex 0.012971 0.069477 -0.000437
   vertex 0.015661 0.07075 -0.000203
  endloop
 endfacet
 facet normal -0.304389 0.937197 -0.170322
  outer loop
   vertex 0.016738 0.072214 -0.007972
   vertex 0.01393 0.071302 -0.007972
   vertex 0.0152 0.072171 -0.00546
  endloop
 endfacet
 facet normal -0.452705 0.888208 -0.0783901
  outer loop
   vertex 0.01393 0.071302 -0.007972
   vertex 0.012412 0.07075 -0.00546
   vertex 0.0152 0.072171 -0.00546
  endloop
 endfacet
 facet normal -0.451986 0.886796 0.0964489
  outer loop
   vertex 0.0152 0.072171 -0.00546
   vertex 0.012412 0.07075 -0.00546
   vertex 0.013818 0.071166 -0.002696
  endloop
 endfacet
 facet normal -0.578874 0.796508 0.174584
  outer loop
   vertex 0.012412 0.07075 -0.00546
   vertex 0.011418 0.069477 -0.002948
   vertex 0.013818 0.071166 -0.002696
  endloop
 endfacet
 facet normal -0.563623 0.748876 0.348589
  outer loop
   vertex 0.013818 0.071166 -0.002696
   vertex 0.011418 0.069477 -0.002948
   vertex 0.012971 0.069477 -0.000437
  endloop
 endfacet
 facet normal -0.645038 0.651744 0.398942
  outer loop
   vertex 0.011418 0.069477 -0.002948
   vertex 0.011054 0.067917 -0.000988
   vertex 0.012971 0.069477 -0.000437
  endloop
 endfacet
 facet normal -0.819189 0.412026 0.398954
  outer loop
   vertex 0.009683 0.067089 -0.002948
   vertex 0.010163 0.065612 -0.000437
   vertex 0.011054 0.067917 -0.000988
  endloop
 endfacet
 facet normal -0.936352 0.304548 0.174631
  outer loop
   vertex 0.008779 0.06575 -0.00546
   vertex 0.008818 0.064285 -0.002696
   vertex 0.009683 0.067089 -0.002948
  endloop
 endfacet
 facet normal -0.984653 0.155824 -0.0785916
  outer loop
   vertex 0.008724 0.064136 -0.007971
   vertex 0.00829 0.06266 -0.00546
   vertex 0.008779 0.06575 -0.00546
  endloop
 endfacet
 facet normal -0.886309 0.304753 0.348685
  outer loop
   vertex 0.009683 0.067089 -0.002948
   vertex 0.008818 0.064285 -0.002696
   vertex 0.010163 0.065612 -0.000437
  endloop
 endfacet
 facet normal -0.885615 0.148581 0.440011
  outer loop
   vertex 0.008818 0.064285 -0.002696
   vertex 0.009784 0.06266 -0.000203
   vertex 0.010163 0.065612 -0.000437
  endloop
 endfacet
 facet normal -0.983115 0.15558 0.0963335
  outer loop
   vertex 0.008779 0.06575 -0.00546
   vertex 0.00829 0.06266 -0.00546
   vertex 0.008818 0.064285 -0.002696
  endloop
 endfacet
 facet normal -0.982239 0 0.187634
  outer loop
   vertex 0.00829 0.06266 -0.00546
   vertex 0.008818 0.061035 -0.002696
   vertex 0.008818 0.064285 -0.002696
  endloop
 endfacet
 facet normal -0.932446 0 0.361309
  outer loop
   vertex 0.008818 0.064285 -0.002696
   vertex 0.008818 0.061035 -0.002696
   vertex 0.009784 0.06266 -0.000203
  endloop
 endfacet
 facet normal -0.885615 -0.148581 0.440011
  outer loop
   vertex 0.008818 0.061035 -0.002696
   vertex 0.010163 0.059708 -0.000437
   vertex 0.009784 0.06266 -0.000203
  endloop
 endfacet
 facet normal -0.98539 -0 -0.170314
  outer loop
   vertex 0.008724 0.064136 -0.007971
   vertex 0.008724 0.061184 -0.007971
   vertex 0.00829 0.06266 -0.00546
  endloop
 endfacet
 facet normal -0.984653 -0.155824 -0.0785916
  outer loop
   vertex 0.008724 0.061184 -0.007971
   vertex 0.008779 0.05957 -0.00546
   vertex 0.00829 0.06266 -0.00546
  endloop
 endfacet
 facet normal -0.983115 -0.15558 0.0963335
  outer loop
   vertex 0.00829 0.06266 -0.00546
   vertex 0.008779 0.05957 -0.00546
   vertex 0.008818 0.061035 -0.002696
  endloop
 endfacet
 facet normal -0.936352 -0.304548 0.174631
  outer loop
   vertex 0.008779 0.05957 -0.00546
   vertex 0.009683 0.058231 -0.002948
   vertex 0.008818 0.061035 -0.002696
  endloop
 endfacet
 facet normal -0.886309 -0.304753 0.348685
  outer loop
   vertex 0.008818 0.061035 -0.002696
   vertex 0.009683 0.058231 -0.002948
   vertex 0.010163 0.059708 -0.000437
  endloop
 endfacet
 facet normal -0.819189 -0.412026 0.398954
  outer loop
   vertex 0.009683 0.058231 -0.002948
   vertex 0.011054 0.057403 -0.000988
   vertex 0.010163 0.059708 -0.000437
  endloop
 endfacet
 facet normal -0.645038 -0.651744 0.398942
  outer loop
   vertex 0.011418 0.055843 -0.002948
   vertex 0.012971 0.055843 -0.000437
   vertex 0.011054 0.057403 -0.000988
  endloop
 endfacet
 facet normal -0.578874 -0.796508 0.174584
  outer loop
   vertex 0.012412 0.05457 -0.00546
   vertex 0.013818 0.054154 -0.002696
   vertex 0.011418 0.055843 -0.002948
  endloop
 endfacet
 facet normal -0.452705 -0.888208 -0.0783901
  outer loop
   vertex 0.01393 0.054018 -0.007972
   vertex 0.0152 0.053149 -0.00546
   vertex 0.012412 0.05457 -0.00546
  endloop
 endfacet
 facet normal -0.563623 -0.748876 0.348589
  outer loop
   vertex 0.011418 0.055843 -0.002948
   vertex 0.013818 0.054154 -0.002696
   vertex 0.012971 0.055843 -0.000437
  endloop
 endfacet
 facet normal -0.415138 -0.796394 0.439791
  outer loop
   vertex 0.013818 0.054154 -0.002696
   vertex 0.015661 0.05457 -0.000203
   vertex 0.012971 0.055843 -0.000437
  endloop
 endfacet
 facet normal -0.451986 -0.886796 0.0964489
  outer loop
   vertex 0.012412 0.05457 -0.00546
   vertex 0.0152 0.053149 -0.00546
   vertex 0.013818 0.054154 -0.002696
  endloop
 endfacet
 facet normal -0.303796 -0.934059 0.187729
  outer loop
   vertex 0.0152 0.053149 -0.00546
   vertex 0.016908 0.053149 -0.002696
   vertex 0.013818 0.054154 -0.002696
  endloop
 endfacet
 facet normal -0.288415 -0.886769 0.361189
  outer loop
   vertex 0.013818 0.054154 -0.002696
   vertex 0.016908 0.053149 -0.002696
   vertex 0.015661 0.05457 -0.000203
  endloop
 endfacet
 facet normal -0.132412 -0.888171 0.440021
  outer loop
   vertex 0.016908 0.053149 -0.002696
   vertex 0.018586 0.054018 -0.000437
   vertex 0.015661 0.05457 -0.000203
  endloop
 endfacet
 facet normal -0.304389 -0.937197 -0.170322
  outer loop
   vertex 0.01393 0.054018 -0.007972
   vertex 0.016738 0.053106 -0.007972
   vertex 0.0152 0.053149 -0.00546
  endloop
 endfacet
 facet normal -0.155824 -0.984657 -0.07855
  outer loop
   vertex 0.016738 0.053106 -0.007972
   vertex 0.01829 0.05266 -0.00546
   vertex 0.0152 0.053149 -0.00546
  endloop
 endfacet
 facet normal -0.155583 -0.983133 0.0961419
  outer loop
   vertex 0.0152 0.053149 -0.00546
   vertex 0.01829 0.05266 -0.00546
   vertex 0.016908 0.053149 -0.002696
  endloop
 endfacet
 facet normal 0.000555151 -0.98466 0.174481
  outer loop
   vertex 0.01829 0.05266 -0.00546
   vertex 0.019842 0.053106 -0.002948
   vertex 0.016908 0.053149 -0.002696
  endloop
 endfacet
 facet normal 0.0161962 -0.937175 0.348485
  outer loop
   vertex 0.016908 0.053149 -0.002696
   vertex 0.019842 0.053106 -0.002948
   vertex 0.018586 0.054018 -0.000437
  endloop
 endfacet
 facet normal 0.138975 -0.90647 0.398746
  outer loop
   vertex 0.019842 0.053106 -0.002948
   vertex 0.021054 0.054154 -0.000988
   vertex 0.018586 0.054018 -0.000437
  endloop
 endfacet
 facet normal 0.420269 -0.815078 0.398776
  outer loop
   vertex 0.02265 0.054018 -0.002948
   vertex 0.02313 0.055494 -0.000437
   vertex 0.021054 0.054154 -0.000988
  endloop
 endfacet
 facet normal 0.578519 -0.796783 0.174509
  outer loop
   vertex 0.024168 0.05457 -0.00546
   vertex 0.024998 0.055778 -0.002696
   vertex 0.02265 0.054018 -0.002948
  endloop
 endfacet
 facet normal 0.704936 -0.704936 -0.0782949
  outer loop
   vertex 0.025162 0.055843 -0.007972
   vertex 0.02638 0.056782 -0.00546
   vertex 0.024168 0.05457 -0.00546
  endloop
 endfacet
 facet normal 0.537986 -0.767602 0.348366
  outer loop
   vertex 0.02265 0.054018 -0.002948
   vertex 0.024998 0.055778 -0.002696
   vertex 0.02313 0.055494 -0.000437
  endloop
 endfacet
 facet normal 0.629279 -0.640767 0.439803
  outer loop
   vertex 0.024998 0.055778 -0.002696
   vertex 0.025172 0.05766 -0.000203
   vertex 0.02313 0.055494 -0.000437
  endloop
 endfacet
 facet normal 0.703824 -0.703824 0.0962537
  outer loop
   vertex 0.024168 0.05457 -0.00546
   vertex 0.02638 0.056782 -0.00546
   vertex 0.024998 0.055778 -0.002696
  endloop
 endfacet
 facet normal 0.794662 -0.577331 0.18762
  outer loop
   vertex 0.02638 0.056782 -0.00546
   vertex 0.026908 0.058407 -0.002696
   vertex 0.024998 0.055778 -0.002696
  endloop
 endfacet
 facet normal 0.754436 -0.548107 0.361117
  outer loop
   vertex 0.024998 0.055778 -0.002696
   vertex 0.026908 0.058407 -0.002696
   vertex 0.025172 0.05766 -0.000203
  endloop
 endfacet
 facet normal 0.803858 -0.400541 0.439749
  outer loop
   vertex 0.026908 0.058407 -0.002696
   vertex 0.026601 0.060271 -0.000437
   vertex 0.025172 0.05766 -0.000203
  endloop
 endfacet
 facet normal 0.797233 -0.579229 -0.170037
  outer loop
   vertex 0.025162 0.055843 -0.007972
   vertex 0.026897 0.058231 -0.007972
   vertex 0.02638 0.056782 -0.00546
  endloop
 endfacet
 facet normal 0.888212 -0.452708 -0.078331
  outer loop
   vertex 0.026897 0.058231 -0.007972
   vertex 0.027801 0.05957 -0.00546
   vertex 0.02638 0.056782 -0.00546
  endloop
 endfacet
 facet normal 0.886806 -0.451991 0.0963284
  outer loop
   vertex 0.02638 0.056782 -0.00546
   vertex 0.027801 0.05957 -0.00546
   vertex 0.026908 0.058407 -0.002696
  endloop
 endfacet
 facet normal 0.93657 -0.303801 0.17476
  outer loop
   vertex 0.027801 0.05957 -0.00546
   vertex 0.027856 0.061184 -0.002949
   vertex 0.026908 0.058407 -0.002696
  endloop
 endfacet
 facet normal 0.89641 -0.274294 0.348155
  outer loop
   vertex 0.026908 0.058407 -0.002696
   vertex 0.027856 0.061184 -0.002949
   vertex 0.026601 0.060271 -0.000437
  endloop
 endfacet
 facet normal 0.905177 -0.147939 0.398459
  outer loop
   vertex 0.027856 0.061184 -0.002949
   vertex 0.027234 0.06266 -0.000988
   vertex 0.026601 0.060271 -0.000437
  endloop
 endfacet
 facet normal 0.294416 0.906493 0.302638
  outer loop
   vertex 0.02265 0.071302 -0.002948
   vertex 0.019842 0.072214 -0.002948
   vertex 0.021054 0.071166 -0.000988
  endloop
 endfacet
 facet normal 0.452705 0.888208 0.0783901
  outer loop
   vertex 0.024168 0.07075 -0.00546
   vertex 0.02138 0.072171 -0.00546
   vertex 0.02265 0.071302 -0.002948
  endloop
 endfacet
 facet normal 0.578874 0.796508 -0.174584
  outer loop
   vertex 0.025162 0.069477 -0.007972
   vertex 0.022762 0.071166 -0.008224
   vertex 0.024168 0.07075 -0.00546
  endloop
 endfacet
 facet normal 0.304389 0.937197 0.170322
  outer loop
   vertex 0.02265 0.071302 -0.002948
   vertex 0.02138 0.072171 -0.00546
   vertex 0.019842 0.072214 -0.002948
  endloop
 endfacet
 facet normal 0.155824 0.984657 0.07855
  outer loop
   vertex 0.02138 0.072171 -0.00546
   vertex 0.01829 0.07266 -0.00546
   vertex 0.019842 0.072214 -0.002948
  endloop
 endfacet
 facet normal 0.451986 0.886796 -0.0964489
  outer loop
   vertex 0.024168 0.07075 -0.00546
   vertex 0.022762 0.071166 -0.008224
   vertex 0.02138 0.072171 -0.00546
  endloop
 endfacet
 facet normal 0.303796 0.934059 -0.187729
  outer loop
   vertex 0.022762 0.071166 -0.008224
   vertex 0.019672 0.072171 -0.008224
   vertex 0.02138 0.072171 -0.00546
  endloop
 endfacet
 facet normal 0.155583 0.983133 -0.0961419
  outer loop
   vertex 0.02138 0.072171 -0.00546
   vertex 0.019672 0.072171 -0.008224
   vertex 0.01829 0.07266 -0.00546
  endloop
 endfacet
 facet normal -0.000555151 0.98466 -0.174481
  outer loop
   vertex 0.019672 0.072171 -0.008224
   vertex 0.016738 0.072214 -0.007972
   vertex 0.01829 0.07266 -0.00546
  endloop
 endfacet
 facet normal 0.563623 0.748876 -0.348589
  outer loop
   vertex 0.025162 0.069477 -0.007972
   vertex 0.023609 0.069477 -0.010483
   vertex 0.022762 0.071166 -0.008224
  endloop
 endfacet
 facet normal 0.415138 0.796394 -0.439791
  outer loop
   vertex 0.023609 0.069477 -0.010483
   vertex 0.020919 0.07075 -0.010717
   vertex 0.022762 0.071166 -0.008224
  endloop
 endfacet
 facet normal 0.288415 0.886769 -0.361189
  outer loop
   vertex 0.022762 0.071166 -0.008224
   vertex 0.020919 0.07075 -0.010717
   vertex 0.019672 0.072171 -0.008224
  endloop
 endfacet
 facet normal 0.132412 0.888171 -0.440021
  outer loop
   vertex 0.020919 0.07075 -0.010717
   vertex 0.017994 0.071302 -0.010483
   vertex 0.019672 0.072171 -0.008224
  endloop
 endfacet
 facet normal -0.0161962 0.937175 -0.348485
  outer loop
   vertex 0.019672 0.072171 -0.008224
   vertex 0.017994 0.071302 -0.010483
   vertex 0.016738 0.072214 -0.007972
  endloop
 endfacet
 facet normal -0.138975 0.90647 -0.398746
  outer loop
   vertex 0.017994 0.071302 -0.010483
   vertex 0.015526 0.071166 -0.009932
   vertex 0.016738 0.072214 -0.007972
  endloop
 endfacet
 facet normal -0.771063 0.560215 0.302688
  outer loop
   vertex 0.011418 0.069477 -0.002948
   vertex 0.009683 0.067089 -0.002948
   vertex 0.011054 0.067917 -0.000988
  endloop
 endfacet
 facet normal -0.704936 0.704936 0.0782949
  outer loop
   vertex 0.012412 0.07075 -0.00546
   vertex 0.0102 0.068538 -0.00546
   vertex 0.011418 0.069477 -0.002948
  endloop
 endfacet
 facet normal -0.578519 0.796783 -0.174509
  outer loop
   vertex 0.01393 0.071302 -0.007972
   vertex 0.011582 0.069542 -0.008224
   vertex 0.012412 0.07075 -0.00546
  endloop
 endfacet
 facet normal -0.797233 0.579229 0.170037
  outer loop
   vertex 0.011418 0.069477 -0.002948
   vertex 0.0102 0.068538 -0.00546
   vertex 0.009683 0.067089 -0.002948
  endloop
 endfacet
 facet normal -0.888212 0.452708 0.078331
  outer loop
   vertex 0.0102 0.068538 -0.00546
   vertex 0.008779 0.06575 -0.00546
   vertex 0.009683 0.067089 -0.002948
  endloop
 endfacet
 facet normal -0.703824 0.703824 -0.0962537
  outer loop
   vertex 0.012412 0.07075 -0.00546
   vertex 0.011582 0.069542 -0.008224
   vertex 0.0102 0.068538 -0.00546
  endloop
 endfacet
 facet normal -0.794662 0.577331 -0.18762
  outer loop
   vertex 0.011582 0.069542 -0.008224
   vertex 0.009672 0.066913 -0.008224
   vertex 0.0102 0.068538 -0.00546
  endloop
 endfacet
 facet normal -0.886806 0.451991 -0.0963284
  outer loop
   vertex 0.0102 0.068538 -0.00546
   vertex 0.009672 0.066913 -0.008224
   vertex 0.008779 0.06575 -0.00546
  endloop
 endfacet
 facet normal -0.93657 0.303801 -0.17476
  outer loop
   vertex 0.009672 0.066913 -0.008224
   vertex 0.008724 0.064136 -0.007971
   vertex 0.008779 0.06575 -0.00546
  endloop
 endfacet
 facet normal -0.537986 0.767602 -0.348366
  outer loop
   vertex 0.01393 0.071302 -0.007972
   vertex 0.01345 0.069826 -0.010483
   vertex 0.011582 0.069542 -0.008224
  endloop
 endfacet
 facet normal -0.629279 0.640767 -0.439803
  outer loop
   vertex 0.01345 0.069826 -0.010483
   vertex 0.011408 0.06766 -0.010717
   vertex 0.011582 0.069542 -0.008224
  endloop
 endfacet
 facet normal -0.754436 0.548107 -0.361117
  outer loop
   vertex 0.011582 0.069542 -0.008224
   vertex 0.011408 0.06766 -0.010717
   vertex 0.009672 0.066913 -0.008224
  endloop
 endfacet
 facet normal -0.803858 0.400541 -0.439749
  outer loop
   vertex 0.011408 0.06766 -0.010717
   vertex 0.009979 0.065049 -0.010483
   vertex 0.009672 0.066913 -0.008224
  endloop
 endfacet
 facet normal -0.89641 0.274294 -0.348155
  outer loop
   vertex 0.009672 0.066913 -0.008224
   vertex 0.009979 0.065049 -0.010483
   vertex 0.008724 0.064136 -0.007971
  endloop
 endfacet
 facet normal -0.905177 0.147939 -0.398459
  outer loop
   vertex 0.009979 0.065049 -0.010483
   vertex 0.009346 0.06266 -0.009932
   vertex 0.008724 0.064136 -0.007971
  endloop
 endfacet
 facet normal -0.771063 -0.560215 0.302688
  outer loop
   vertex 0.009683 0.058231 -0.002948
   vertex 0.011418 0.055843 -0.002948
   vertex 0.011054 0.057403 -0.000988
  endloop
 endfacet
 facet normal -0.888212 -0.452708 0.078331
  outer loop
   vertex 0.008779 0.05957 -0.00546
   vertex 0.0102 0.056782 -0.00546
   vertex 0.009683 0.058231 -0.002948
  endloop
 endfacet
 facet normal -0.93657 -0.303801 -0.17476
  outer loop
   vertex 0.008724 0.061184 -0.007971
   vertex 0.009672 0.058407 -0.008224
   vertex 0.008779 0.05957 -0.00546
  endloop
 endfacet
 facet normal -0.797233 -0.579229 0.170037
  outer loop
   vertex 0.009683 0.058231 -0.002948
   vertex 0.0102 0.056782 -0.00546
   vertex 0.011418 0.055843 -0.002948
  endloop
 endfacet
 facet normal -0.704936 -0.704936 0.0782949
  outer loop
   vertex 0.0102 0.056782 -0.00546
   vertex 0.012412 0.05457 -0.00546
   vertex 0.011418 0.055843 -0.002948
  endloop
 endfacet
 facet normal -0.886806 -0.451991 -0.0963284
  outer loop
   vertex 0.008779 0.05957 -0.00546
   vertex 0.009672 0.058407 -0.008224
   vertex 0.0102 0.056782 -0.00546
  endloop
 endfacet
 facet normal -0.794662 -0.577331 -0.18762
  outer loop
   vertex 0.009672 0.058407 -0.008224
   vertex 0.011582 0.055778 -0.008224
   vertex 0.0102 0.056782 -0.00546
  endloop
 endfacet
 facet normal -0.703824 -0.703824 -0.0962537
  outer loop
   vertex 0.0102 0.056782 -0.00546
   vertex 0.011582 0.055778 -0.008224
   vertex 0.012412 0.05457 -0.00546
  endloop
 endfacet
 facet normal -0.578519 -0.796783 -0.174509
  outer loop
   vertex 0.011582 0.055778 -0.008224
   vertex 0.01393 0.054018 -0.007972
   vertex 0.012412 0.05457 -0.00546
  endloop
 endfacet
 facet normal -0.89641 -0.274294 -0.348155
  outer loop
   vertex 0.008724 0.061184 -0.007971
   vertex 0.009979 0.060271 -0.010483
   vertex 0.009672 0.058407 -0.008224
  endloop
 endfacet
 facet normal -0.803858 -0.400541 -0.439749
  outer loop
   vertex 0.009979 0.060271 -0.010483
   vertex 0.011408 0.05766 -0.010717
   vertex 0.009672 0.058407 -0.008224
  endloop
 endfacet
 facet normal -0.754436 -0.548107 -0.361117
  outer loop
   vertex 0.009672 0.058407 -0.008224
   vertex 0.011408 0.05766 -0.010717
   vertex 0.011582 0.055778 -0.008224
  endloop
 endfacet
 facet normal -0.629279 -0.640767 -0.439803
  outer loop
   vertex 0.011408 0.05766 -0.010717
   vertex 0.01345 0.055494 -0.010483
   vertex 0.011582 0.055778 -0.008224
  endloop
 endfacet
 facet normal -0.537986 -0.767602 -0.348366
  outer loop
   vertex 0.011582 0.055778 -0.008224
   vertex 0.01345 0.055494 -0.010483
   vertex 0.01393 0.054018 -0.007972
  endloop
 endfacet
 facet normal -0.420269 -0.815078 -0.398776
  outer loop
   vertex 0.01345 0.055494 -0.010483
   vertex 0.015526 0.054154 -0.009932
   vertex 0.01393 0.054018 -0.007972
  endloop
 endfacet
 facet normal 0.294416 -0.906493 0.302638
  outer loop
   vertex 0.019842 0.053106 -0.002948
   vertex 0.02265 0.054018 -0.002948
   vertex 0.021054 0.054154 -0.000988
  endloop
 endfacet
 facet normal 0.155824 -0.984657 0.07855
  outer loop
   vertex 0.01829 0.05266 -0.00546
   vertex 0.02138 0.053149 -0.00546
   vertex 0.019842 0.053106 -0.002948
  endloop
 endfacet
 facet normal -0.000555151 -0.98466 -0.174481
  outer loop
   vertex 0.016738 0.053106 -0.007972
   vertex 0.019672 0.053149 -0.008224
   vertex 0.01829 0.05266 -0.00546
  endloop
 endfacet
 facet normal 0.304389 -0.937197 0.170322
  outer loop
   vertex 0.019842 0.053106 -0.002948
   vertex 0.02138 0.053149 -0.00546
   vertex 0.02265 0.054018 -0.002948
  endloop
 endfacet
 facet normal 0.452705 -0.888208 0.0783901
  outer loop
   vertex 0.02138 0.053149 -0.00546
   vertex 0.024168 0.05457 -0.00546
   vertex 0.02265 0.054018 -0.002948
  endloop
 endfacet
 facet normal 0.155583 -0.983133 -0.0961419
  outer loop
   vertex 0.01829 0.05266 -0.00546
   vertex 0.019672 0.053149 -0.008224
   vertex 0.02138 0.053149 -0.00546
  endloop
 endfacet
 facet normal 0.303796 -0.934059 -0.187729
  outer loop
   vertex 0.019672 0.053149 -0.008224
   vertex 0.022762 0.054154 -0.008224
   vertex 0.02138 0.053149 -0.00546
  endloop
 endfacet
 facet normal 0.451986 -0.886796 -0.0964489
  outer loop
   vertex 0.02138 0.053149 -0.00546
   vertex 0.022762 0.054154 -0.008224
   vertex 0.024168 0.05457 -0.00546
  endloop
 endfacet
 facet normal 0.578874 -0.796508 -0.174584
  outer loop
   vertex 0.022762 0.054154 -0.008224
   vertex 0.025162 0.055843 -0.007972
   vertex 0.024168 0.05457 -0.00546
  endloop
 endfacet
 facet normal -0.0161962 -0.937175 -0.348485
  outer loop
   vertex 0.016738 0.053106 -0.007972
   vertex 0.017994 0.054018 -0.010483
   vertex 0.019672 0.053149 -0.008224
  endloop
 endfacet
 facet normal 0.132412 -0.888171 -0.440021
  outer loop
   vertex 0.017994 0.054018 -0.010483
   vertex 0.020919 0.05457 -0.010717
   vertex 0.019672 0.053149 -0.008224
  endloop
 endfacet
 facet normal 0.288415 -0.886769 -0.361189
  outer loop
   vertex 0.019672 0.053149 -0.008224
   vertex 0.020919 0.05457 -0.010717
   vertex 0.022762 0.054154 -0.008224
  endloop
 endfacet
 facet normal 0.415138 -0.796394 -0.439791
  outer loop
   vertex 0.020919 0.05457 -0.010717
   vertex 0.023609 0.055843 -0.010483
   vertex 0.022762 0.054154 -0.008224
  endloop
 endfacet
 facet normal 0.563623 -0.748876 -0.348589
  outer loop
   vertex 0.022762 0.054154 -0.008224
   vertex 0.023609 0.055843 -0.010483
   vertex 0.025162 0.055843 -0.007972
  endloop
 endfacet
 facet normal 0.645038 -0.651744 -0.398942
  outer loop
   vertex 0.023609 0.055843 -0.010483
   vertex 0.025526 0.057403 -0.009932
   vertex 0.025162 0.055843 -0.007972
  endloop
 endfacet
 facet normal 0.9532 -0 0.302341
  outer loop
   vertex 0.027856 0.061184 -0.002949
   vertex 0.027856 0.064136 -0.002949
   vertex 0.027234 0.06266 -0.000988
  endloop
 endfacet
 facet normal 0.984653 -0.155824 0.0785916
  outer loop
   vertex 0.027801 0.05957 -0.00546
   vertex 0.02829 0.06266 -0.00546
   vertex 0.027856 0.061184 -0.002949
  endloop
 endfacet
 facet normal 0.936352 -0.304548 -0.174631
  outer loop
   vertex 0.026897 0.058231 -0.007972
   vertex 0.027762 0.061035 -0.008224
   vertex 0.027801 0.05957 -0.00546
  endloop
 endfacet
 facet normal 0.98539 -0 0.170314
  outer loop
   vertex 0.027856 0.061184 -0.002949
   vertex 0.02829 0.06266 -0.00546
   vertex 0.027856 0.064136 -0.002949
  endloop
 endfacet
 facet normal 0.984653 0.155824 0.0785916
  outer loop
   vertex 0.02829 0.06266 -0.00546
   vertex 0.027801 0.06575 -0.00546
   vertex 0.027856 0.064136 -0.002949
  endloop
 endfacet
 facet normal 0.983115 -0.15558 -0.0963335
  outer loop
   vertex 0.027801 0.05957 -0.00546
   vertex 0.027762 0.061035 -0.008224
   vertex 0.02829 0.06266 -0.00546
  endloop
 endfacet
 facet normal 0.982239 0 -0.187634
  outer loop
   vertex 0.027762 0.061035 -0.008224
   vertex 0.027762 0.064285 -0.008224
   vertex 0.02829 0.06266 -0.00546
  endloop
 endfacet
 facet normal 0.983115 0.15558 -0.0963335
  outer loop
   vertex 0.02829 0.06266 -0.00546
   vertex 0.027762 0.064285 -0.008224
   vertex 0.027801 0.06575 -0.00546
  endloop
 endfacet
 facet normal 0.936352 0.304548 -0.174631
  outer loop
   vertex 0.027762 0.064285 -0.008224
   vertex 0.026897 0.067089 -0.007972
   vertex 0.027801 0.06575 -0.00546
  endloop
 endfacet
 facet normal 0.886309 -0.304753 -0.348685
  outer loop
   vertex 0.026897 0.058231 -0.007972
   vertex 0.026417 0.059708 -0.010483
   vertex 0.027762 0.061035 -0.008224
  endloop
 endfacet
 facet normal 0.885615 -0.148581 -0.440011
  outer loop
   vertex 0.026417 0.059708 -0.010483
   vertex 0.026796 0.06266 -0.010717
   vertex 0.027762 0.061035 -0.008224
  endloop
 endfacet
 facet normal 0.932446 0 -0.361309
  outer loop
   vertex 0.027762 0.061035 -0.008224
   vertex 0.026796 0.06266 -0.010717
   vertex 0.027762 0.064285 -0.008224
  endloop
 endfacet
 facet normal 0.885615 0.148581 -0.440011
  outer loop
   vertex 0.026796 0.06266 -0.010717
   vertex 0.026417 0.065612 -0.010483
   vertex 0.027762 0.064285 -0.008224
  endloop
 endfacet
 facet normal 0.886309 0.304753 -0.348685
  outer loop
   vertex 0.027762 0.064285 -0.008224
   vertex 0.026417 0.065612 -0.010483
   vertex 0.026897 0.067089 -0.007972
  endloop
 endfacet
 facet normal 0.819189 0.412026 -0.398954
  outer loop
   vertex 0.026417 0.065612 -0.010483
   vertex 0.025526 0.067917 -0.009932
   vertex 0.026897 0.067089 -0.007972
  endloop
 endfacet
 facet normal 0.61533 0.560308 -0.554459
  outer loop
   vertex 0.024385 0.067089 -0.012035
   vertex 0.023609 0.069477 -0.010483
   vertex 0.025526 0.067917 -0.009932
  endloop
 endfacet
 facet normal 0.467426 0.452641 -0.759361
  outer loop
   vertex 0.022543 0.06575 -0.013967
   vertex 0.021908 0.068538 -0.012696
   vertex 0.024385 0.067089 -0.012035
  endloop
 endfacet
 facet normal 0.262485 0.303841 -0.915851
  outer loop
   vertex 0.020322 0.064136 -0.015139
   vertex 0.019672 0.066913 -0.014404
   vertex 0.022543 0.06575 -0.013967
  endloop
 endfacet
 facet normal 0.508799 0.579247 -0.636864
  outer loop
   vertex 0.024385 0.067089 -0.012035
   vertex 0.021908 0.068538 -0.012696
   vertex 0.023609 0.069477 -0.010483
  endloop
 endfacet
 facet normal 0.38541 0.704977 -0.595371
  outer loop
   vertex 0.021908 0.068538 -0.012696
   vertex 0.020919 0.07075 -0.010717
   vertex 0.023609 0.069477 -0.010483
  endloop
 endfacet
 facet normal 0.310374 0.451949 -0.836307
  outer loop
   vertex 0.022543 0.06575 -0.013967
   vertex 0.019672 0.066913 -0.014404
   vertex 0.021908 0.068538 -0.012696
  endloop
 endfacet
 facet normal 0.187559 0.577248 -0.794737
  outer loop
   vertex 0.019672 0.066913 -0.014404
   vertex 0.018818 0.069542 -0.012696
   vertex 0.021908 0.068538 -0.012696
  endloop
 endfacet
 facet normal 0.228709 0.703897 -0.672474
  outer loop
   vertex 0.021908 0.068538 -0.012696
   vertex 0.018818 0.069542 -0.012696
   vertex 0.020919 0.07075 -0.010717
  endloop
 endfacet
 facet normal 0.102735 0.796801 -0.595444
  outer loop
   vertex 0.018818 0.069542 -0.012696
   vertex 0.017994 0.071302 -0.010483
   vertex 0.020919 0.07075 -0.010717
  endloop
 endfacet
 facet normal 0.0891868 0.274301 -0.957499
  outer loop
   vertex 0.020322 0.064136 -0.015139
   vertex 0.017514 0.065049 -0.015139
   vertex 0.019672 0.066913 -0.014404
  endloop
 endfacet
 facet normal -0.0336945 0.400135 -0.915836
  outer loop
   vertex 0.017514 0.065049 -0.015139
   vertex 0.016665 0.06766 -0.013967
   vertex 0.019672 0.066913 -0.014404
  endloop
 endfacet
 facet normal 0.0146149 0.548074 -0.836302
  outer loop
   vertex 0.019672 0.066913 -0.014404
   vertex 0.016665 0.06766 -0.013967
   vertex 0.018818 0.069542 -0.012696
  endloop
 endfacet
 facet normal -0.112009 0.640965 -0.759354
  outer loop
   vertex 0.016665 0.06766 -0.013967
   vertex 0.015962 0.069826 -0.012035
   vertex 0.018818 0.069542 -0.012696
  endloop
 endfacet
 facet normal -0.0710868 0.767617 -0.636955
  outer loop
   vertex 0.018818 0.069542 -0.012696
   vertex 0.015962 0.069826 -0.012035
   vertex 0.017994 0.071302 -0.010483
  endloop
 endfacet
 facet normal -0.168666 0.815046 -0.554303
  outer loop
   vertex 0.015962 0.069826 -0.012035
   vertex 0.015526 0.071166 -0.009932
   vertex 0.017994 0.071302 -0.010483
  endloop
 endfacet
 facet normal -0.342493 0.758552 -0.554344
  outer loop
   vertex 0.015962 0.069826 -0.012035
   vertex 0.01345 0.069826 -0.010483
   vertex 0.015526 0.071166 -0.009932
  endloop
 endfacet
 facet normal -0.286233 0.584386 -0.759318
  outer loop
   vertex 0.016665 0.06766 -0.013967
   vertex 0.013818 0.067917 -0.012696
   vertex 0.015962 0.069826 -0.012035
  endloop
 endfacet
 facet normal -0.207851 0.343516 -0.915858
  outer loop
   vertex 0.017514 0.065049 -0.015139
   vertex 0.014672 0.065289 -0.014404
   vertex 0.016665 0.06766 -0.013967
  endloop
 endfacet
 facet normal -0.393627 0.662685 -0.637108
  outer loop
   vertex 0.015962 0.069826 -0.012035
   vertex 0.013818 0.067917 -0.012696
   vertex 0.01345 0.069826 -0.010483
  endloop
 endfacet
 facet normal -0.551379 0.584158 -0.595601
  outer loop
   vertex 0.013818 0.067917 -0.012696
   vertex 0.011408 0.06766 -0.010717
   vertex 0.01345 0.069826 -0.010483
  endloop
 endfacet
 facet normal -0.334054 0.43492 -0.836213
  outer loop
   vertex 0.016665 0.06766 -0.013967
   vertex 0.014672 0.065289 -0.014404
   vertex 0.013818 0.067917 -0.012696
  endloop
 endfacet
 facet normal -0.491058 0.356895 -0.794662
  outer loop
   vertex 0.014672 0.065289 -0.014404
   vertex 0.011908 0.065289 -0.012696
   vertex 0.013818 0.067917 -0.012696
  endloop
 endfacet
 facet normal -0.598657 0.435097 -0.672533
  outer loop
   vertex 0.013818 0.067917 -0.012696
   vertex 0.011908 0.065289 -0.012696
   vertex 0.011408 0.06766 -0.010717
  endloop
 endfacet
 facet normal -0.725985 0.343961 -0.595514
  outer loop
   vertex 0.011908 0.065289 -0.012696
   vertex 0.009979 0.065049 -0.010483
   vertex 0.011408 0.06766 -0.010717
  endloop
 endfacet
 facet normal -0.233325 0.169451 -0.957521
  outer loop
   vertex 0.017514 0.065049 -0.015139
   vertex 0.015779 0.06266 -0.015139
   vertex 0.014672 0.065289 -0.014404
  endloop
 endfacet
 facet normal -0.390899 0.0914587 -0.915878
  outer loop
   vertex 0.015779 0.06266 -0.015139
   vertex 0.013033 0.06266 -0.013967
   vertex 0.014672 0.065289 -0.014404
  endloop
 endfacet
 facet normal -0.516783 0.183167 -0.836293
  outer loop
   vertex 0.014672 0.065289 -0.014404
   vertex 0.013033 0.06266 -0.013967
   vertex 0.011908 0.065289 -0.012696
  endloop
 endfacet
 facet normal -0.644269 0.0913996 -0.759317
  outer loop
   vertex 0.013033 0.06266 -0.013967
   vertex 0.010756 0.06266 -0.012035
   vertex 0.011908 0.065289 -0.012696
  endloop
 endfacet
 facet normal -0.751958 0.169318 -0.637095
  outer loop
   vertex 0.011908 0.065289 -0.012696
   vertex 0.010756 0.06266 -0.012035
   vertex 0.009979 0.065049 -0.010483
  endloop
 endfacet
 facet normal -0.827124 0.091254 -0.554562
  outer loop
   vertex 0.010756 0.06266 -0.012035
   vertex 0.009346 0.06266 -0.009932
   vertex 0.009979 0.065049 -0.010483
  endloop
 endfacet
 facet normal -0.827124 -0.091254 -0.554562
  outer loop
   vertex 0.010756 0.06266 -0.012035
   vertex 0.009979 0.060271 -0.010483
   vertex 0.009346 0.06266 -0.009932
  endloop
 endfacet
 facet normal -0.644269 -0.0913996 -0.759317
  outer loop
   vertex 0.013033 0.06266 -0.013967
   vertex 0.011908 0.060031 -0.012696
   vertex 0.010756 0.06266 -0.012035
  endloop
 endfacet
 facet normal -0.390899 -0.0914587 -0.915878
  outer loop
   vertex 0.015779 0.06266 -0.015139
   vertex 0.014672 0.060031 -0.014404
   vertex 0.013033 0.06266 -0.013967
  endloop
 endfacet
 facet normal -0.751958 -0.169318 -0.637095
  outer loop
   vertex 0.010756 0.06266 -0.012035
   vertex 0.011908 0.060031 -0.012696
   vertex 0.009979 0.060271 -0.010483
  endloop
 endfacet
 facet normal -0.725985 -0.343961 -0.595514
  outer loop
   vertex 0.011908 0.060031 -0.012696
   vertex 0.011408 0.05766 -0.010717
   vertex 0.009979 0.060271 -0.010483
  endloop
 endfacet
 facet normal -0.516783 -0.183167 -0.836293
  outer loop
   vertex 0.013033 0.06266 -0.013967
   vertex 0.014672 0.060031 -0.014404
   vertex 0.011908 0.060031 -0.012696
  endloop
 endfacet
 facet normal -0.491058 -0.356895 -0.794662
  outer loop
   vertex 0.014672 0.060031 -0.014404
   vertex 0.013818 0.057403 -0.012696
   vertex 0.011908 0.060031 -0.012696
  endloop
 endfacet
 facet normal -0.598657 -0.435097 -0.672533
  outer loop
   vertex 0.011908 0.060031 -0.012696
   vertex 0.013818 0.057403 -0.012696
   vertex 0.011408 0.05766 -0.010717
  endloop
 endfacet
 facet normal -0.551379 -0.584158 -0.595601
  outer loop
   vertex 0.013818 0.057403 -0.012696
   vertex 0.01345 0.055494 -0.010483
   vertex 0.011408 0.05766 -0.010717
  endloop
 endfacet
 facet normal -0.233325 -0.169451 -0.957521
  outer loop
   vertex 0.015779 0.06266 -0.015139
   vertex 0.017514 0.060271 -0.015139
   vertex 0.014672 0.060031 -0.014404
  endloop
 endfacet
 facet normal -0.207851 -0.343516 -0.915858
  outer loop
   vertex 0.017514 0.060271 -0.015139
   vertex 0.016665 0.05766 -0.013967
   vertex 0.014672 0.060031 -0.014404
  endloop
 endfacet
 facet normal -0.334054 -0.43492 -0.836213
  outer loop
   vertex 0.014672 0.060031 -0.014404
   vertex 0.016665 0.05766 -0.013967
   vertex 0.013818 0.057403 -0.012696
  endloop
 endfacet
 facet normal -0.286233 -0.584386 -0.759318
  outer loop
   vertex 0.016665 0.05766 -0.013967
   vertex 0.015962 0.055494 -0.012035
   vertex 0.013818 0.057403 -0.012696
  endloop
 endfacet
 facet normal -0.393627 -0.662685 -0.637108
  outer loop
   vertex 0.013818 0.057403 -0.012696
   vertex 0.015962 0.055494 -0.012035
   vertex 0.01345 0.055494 -0.010483
  endloop
 endfacet
 facet normal -0.342493 -0.758552 -0.554344
  outer loop
   vertex 0.015962 0.055494 -0.012035
   vertex 0.015526 0.054154 -0.009932
   vertex 0.01345 0.055494 -0.010483
  endloop
 endfacet
 facet normal 0.723015 0.412034 -0.554506
  outer loop
   vertex 0.026417 0.065612 -0.010483
   vertex 0.024385 0.067089 -0.012035
   vertex 0.025526 0.067917 -0.009932
  endloop
 endfacet
 facet normal 0.789589 0.148568 -0.59538
  outer loop
   vertex 0.026796 0.06266 -0.010717
   vertex 0.024998 0.064285 -0.012696
   vertex 0.026417 0.065612 -0.010483
  endloop
 endfacet
 facet normal 0.789589 -0.148568 -0.59538
  outer loop
   vertex 0.026417 0.059708 -0.010483
   vertex 0.024998 0.061035 -0.012696
   vertex 0.026796 0.06266 -0.010717
  endloop
 endfacet
 facet normal 0.708089 0.304936 -0.636886
  outer loop
   vertex 0.026417 0.065612 -0.010483
   vertex 0.024998 0.064285 -0.012696
   vertex 0.024385 0.067089 -0.012035
  endloop
 endfacet
 facet normal 0.574948 0.304695 -0.759339
  outer loop
   vertex 0.024998 0.064285 -0.012696
   vertex 0.022543 0.06575 -0.013967
   vertex 0.024385 0.067089 -0.012035
  endloop
 endfacet
 facet normal 0.740143 0 -0.672449
  outer loop
   vertex 0.026796 0.06266 -0.010717
   vertex 0.024998 0.061035 -0.012696
   vertex 0.024998 0.064285 -0.012696
  endloop
 endfacet
 facet normal 0.607028 0 -0.794681
  outer loop
   vertex 0.024998 0.061035 -0.012696
   vertex 0.022762 0.06266 -0.014404
   vertex 0.024998 0.064285 -0.012696
  endloop
 endfacet
 facet normal 0.525774 0.155534 -0.836284
  outer loop
   vertex 0.024998 0.064285 -0.012696
   vertex 0.022762 0.06266 -0.014404
   vertex 0.022543 0.06575 -0.013967
  endloop
 endfacet
 facet normal 0.370096 0.155752 -0.915844
  outer loop
   vertex 0.022762 0.06266 -0.014404
   vertex 0.020322 0.064136 -0.015139
   vertex 0.022543 0.06575 -0.013967
  endloop
 endfacet
 facet normal 0.708089 -0.304936 -0.636886
  outer loop
   vertex 0.026417 0.059708 -0.010483
   vertex 0.024385 0.058231 -0.012035
   vertex 0.024998 0.061035 -0.012696
  endloop
 endfacet
 facet normal 0.574948 -0.304695 -0.759339
  outer loop
   vertex 0.024385 0.058231 -0.012035
   vertex 0.022543 0.05957 -0.013967
   vertex 0.024998 0.061035 -0.012696
  endloop
 endfacet
 facet normal 0.525774 -0.155534 -0.836284
  outer loop
   vertex 0.024998 0.061035 -0.012696
   vertex 0.022543 0.05957 -0.013967
   vertex 0.022762 0.06266 -0.014404
  endloop
 endfacet
 facet normal 0.370096 -0.155752 -0.915844
  outer loop
   vertex 0.022543 0.05957 -0.013967
   vertex 0.020322 0.061184 -0.015139
   vertex 0.022762 0.06266 -0.014404
  endloop
 endfacet
 facet normal 0.288428 0 -0.957502
  outer loop
   vertex 0.022762 0.06266 -0.014404
   vertex 0.020322 0.061184 -0.015139
   vertex 0.020322 0.064136 -0.015139
  endloop
 endfacet
 facet normal 0.156037 0 -0.987751
  outer loop
   vertex 0.020322 0.061184 -0.015139
   vertex 0.01829 0.06266 -0.01546
   vertex 0.020322 0.064136 -0.015139
  endloop
 endfacet
 facet normal -0.168666 -0.815046 -0.554303
  outer loop
   vertex 0.015962 0.055494 -0.012035
   vertex 0.017994 0.054018 -0.010483
   vertex 0.015526 0.054154 -0.009932
  endloop
 endfacet
 facet normal -0.112009 -0.640965 -0.759354
  outer loop
   vertex 0.016665 0.05766 -0.013967
   vertex 0.018818 0.055778 -0.012696
   vertex 0.015962 0.055494 -0.012035
  endloop
 endfacet
 facet normal -0.0336945 -0.400135 -0.915836
  outer loop
   vertex 0.017514 0.060271 -0.015139
   vertex 0.019672 0.058407 -0.014404
   vertex 0.016665 0.05766 -0.013967
  endloop
 endfacet
 facet normal -0.0710868 -0.767617 -0.636955
  outer loop
   vertex 0.015962 0.055494 -0.012035
   vertex 0.018818 0.055778 -0.012696
   vertex 0.017994 0.054018 -0.010483
  endloop
 endfacet
 facet normal 0.102735 -0.796801 -0.595444
  outer loop
   vertex 0.018818 0.055778 -0.012696
   vertex 0.020919 0.05457 -0.010717
   vertex 0.017994 0.054018 -0.010483
  endloop
 endfacet
 facet normal 0.0146149 -0.548074 -0.836302
  outer loop
   vertex 0.016665 0.05766 -0.013967
   vertex 0.019672 0.058407 -0.014404
   vertex 0.018818 0.055778 -0.012696
  endloop
 endfacet
 facet normal 0.187559 -0.577248 -0.794737
  outer loop
   vertex 0.019672 0.058407 -0.014404
   vertex 0.021908 0.056782 -0.012696
   vertex 0.018818 0.055778 -0.012696
  endloop
 endfacet
 facet normal 0.228709 -0.703897 -0.672474
  outer loop
   vertex 0.018818 0.055778 -0.012696
   vertex 0.021908 0.056782 -0.012696
   vertex 0.020919 0.05457 -0.010717
  endloop
 endfacet
 facet normal 0.38541 -0.704977 -0.595371
  outer loop
   vertex 0.021908 0.056782 -0.012696
   vertex 0.023609 0.055843 -0.010483
   vertex 0.020919 0.05457 -0.010717
  endloop
 endfacet
 facet normal 0.0891868 -0.274301 -0.957499
  outer loop
   vertex 0.017514 0.060271 -0.015139
   vertex 0.020322 0.061184 -0.015139
   vertex 0.019672 0.058407 -0.014404
  endloop
 endfacet
 facet normal 0.262485 -0.303841 -0.915851
  outer loop
   vertex 0.020322 0.061184 -0.015139
   vertex 0.022543 0.05957 -0.013967
   vertex 0.019672 0.058407 -0.014404
  endloop
 endfacet
 facet normal 0.310374 -0.451949 -0.836307
  outer loop
   vertex 0.019672 0.058407 -0.014404
   vertex 0.022543 0.05957 -0.013967
   vertex 0.021908 0.056782 -0.012696
  endloop
 endfacet
 facet normal 0.467426 -0.452641 -0.759361
  outer loop
   vertex 0.022543 0.05957 -0.013967
   vertex 0.024385 0.058231 -0.012035
   vertex 0.021908 0.056782 -0.012696
  endloop
 endfacet
 facet normal 0.508799 -0.579247 -0.636864
  outer loop
   vertex 0.021908 0.056782 -0.012696
   vertex 0.024385 0.058231 -0.012035
   vertex 0.023609 0.055843 -0.010483
  endloop
 endfacet
 facet normal 0.61533 -0.560308 -0.554459
  outer loop
   vertex 0.024385 0.058231 -0.012035
   vertex 0.025526 0.057403 -0.009932
   vertex 0.023609 0.055843 -0.010483
  endloop
 endfacet
endsolid ExportedfromBlender-3.5.1
