solid ExportedfromBlender-3.5.1
 facet normal 0.0482486 -0.148392 -0.987751
  outer loop
   vertex -0.01599 0.14734 0.01527
   vertex -0.013958 0.145864 0.015591
   vertex -0.016766 0.144951 0.015591
  endloop
 endfacet
 facet normal 0.723015 -0.412034 -0.554506
  outer loop
   vertex -0.008754 0.142083 0.020798
   vertex -0.009895 0.142911 0.018695
   vertex -0.007863 0.144388 0.020247
  endloop
 endfacet
 facet normal -0.126271 -0.0917039 -0.987748
  outer loop
   vertex -0.01599 0.14734 0.01527
   vertex -0.016766 0.144951 0.015591
   vertex -0.018501 0.14734 0.015591
  endloop
 endfacet
 facet normal -0.126271 0.0917039 -0.987748
  outer loop
   vertex -0.01599 0.14734 0.01527
   vertex -0.018501 0.14734 0.015591
   vertex -0.016766 0.149729 0.015591
  endloop
 endfacet
 facet normal 0.0482486 0.148392 -0.987751
  outer loop
   vertex -0.01599 0.14734 0.01527
   vertex -0.016766 0.149729 0.015591
   vertex -0.013958 0.148816 0.015591
  endloop
 endfacet
 facet normal 0.819189 -0.412026 -0.398954
  outer loop
   vertex -0.008754 0.142083 0.020798
   vertex -0.007863 0.144388 0.020247
   vertex -0.007383 0.142911 0.022758
  endloop
 endfacet
 facet normal -0.138975 -0.90647 -0.398746
  outer loop
   vertex -0.018754 0.138834 0.020798
   vertex -0.016286 0.138698 0.020247
   vertex -0.017542 0.137786 0.022758
  endloop
 endfacet
 facet normal -0.905177 -0.147939 -0.398459
  outer loop
   vertex -0.024934 0.14734 0.020798
   vertex -0.024301 0.144951 0.020247
   vertex -0.025556 0.145864 0.022759
  endloop
 endfacet
 facet normal -0.420269 0.815078 -0.398776
  outer loop
   vertex -0.018754 0.155846 0.020798
   vertex -0.02083 0.154506 0.020247
   vertex -0.02035 0.155982 0.022758
  endloop
 endfacet
 facet normal 0.645038 0.651744 -0.398942
  outer loop
   vertex -0.008754 0.152597 0.020798
   vertex -0.010671 0.154157 0.020247
   vertex -0.009118 0.154157 0.022758
  endloop
 endfacet
 facet normal 0.771063 -0.560215 -0.302688
  outer loop
   vertex -0.008754 0.142083 0.020798
   vertex -0.007383 0.142911 0.022758
   vertex -0.009118 0.140523 0.022758
  endloop
 endfacet
 facet normal -0.294416 -0.906493 -0.302638
  outer loop
   vertex -0.018754 0.138834 0.020798
   vertex -0.017542 0.137786 0.022758
   vertex -0.02035 0.138698 0.022758
  endloop
 endfacet
 facet normal -0.9532 0 -0.302341
  outer loop
   vertex -0.024934 0.14734 0.020798
   vertex -0.025556 0.145864 0.022759
   vertex -0.025556 0.148816 0.022759
  endloop
 endfacet
 facet normal -0.294416 0.906493 -0.302638
  outer loop
   vertex -0.018754 0.155846 0.020798
   vertex -0.02035 0.155982 0.022758
   vertex -0.017542 0.156894 0.022758
  endloop
 endfacet
 facet normal 0.771063 0.560215 -0.302688
  outer loop
   vertex -0.008754 0.152597 0.020798
   vertex -0.009118 0.154157 0.022758
   vertex -0.007383 0.151769 0.022758
  endloop
 endfacet
 facet normal 0.342493 -0.758552 0.554344
  outer loop
   vertex -0.013226 0.138834 0.029742
   vertex -0.01115 0.140174 0.030293
   vertex -0.013662 0.140174 0.031845
  endloop
 endfacet
 facet normal -0.61533 -0.560308 0.554459
  outer loop
   vertex -0.023226 0.142083 0.029742
   vertex -0.021309 0.140523 0.030293
   vertex -0.022085 0.142911 0.031845
  endloop
 endfacet
 facet normal -0.723015 0.412034 0.554506
  outer loop
   vertex -0.023226 0.152597 0.029742
   vertex -0.024117 0.150292 0.030293
   vertex -0.022085 0.151769 0.031845
  endloop
 endfacet
 facet normal 0.168666 0.815046 0.554303
  outer loop
   vertex -0.013226 0.155846 0.029742
   vertex -0.015694 0.155982 0.030293
   vertex -0.013662 0.154506 0.031845
  endloop
 endfacet
 facet normal 0.827124 0.091254 0.554562
  outer loop
   vertex -0.007046 0.14734 0.029742
   vertex -0.007679 0.149729 0.030293
   vertex -0.008456 0.14734 0.031845
  endloop
 endfacet
 facet normal 0.126271 0.0917039 0.987748
  outer loop
   vertex -0.013479 0.14734 0.034949
   vertex -0.015214 0.149729 0.034949
   vertex -0.01599 0.14734 0.03527
  endloop
 endfacet
 facet normal 0.390899 0.0914587 0.915878
  outer loop
   vertex -0.010733 0.14734 0.033777
   vertex -0.012372 0.149969 0.034214
   vertex -0.013479 0.14734 0.034949
  endloop
 endfacet
 facet normal 0.644269 0.0913996 0.759317
  outer loop
   vertex -0.008456 0.14734 0.031845
   vertex -0.009608 0.149969 0.032506
   vertex -0.010733 0.14734 0.033777
  endloop
 endfacet
 facet normal 0.233325 0.169451 0.957521
  outer loop
   vertex -0.013479 0.14734 0.034949
   vertex -0.012372 0.149969 0.034214
   vertex -0.015214 0.149729 0.034949
  endloop
 endfacet
 facet normal 0.207851 0.343516 0.915858
  outer loop
   vertex -0.012372 0.149969 0.034214
   vertex -0.014365 0.15234 0.033777
   vertex -0.015214 0.149729 0.034949
  endloop
 endfacet
 facet normal 0.516783 0.183167 0.836293
  outer loop
   vertex -0.010733 0.14734 0.033777
   vertex -0.009608 0.149969 0.032506
   vertex -0.012372 0.149969 0.034214
  endloop
 endfacet
 facet normal 0.491058 0.356895 0.794662
  outer loop
   vertex -0.009608 0.149969 0.032506
   vertex -0.011518 0.152597 0.032506
   vertex -0.012372 0.149969 0.034214
  endloop
 endfacet
 facet normal 0.334054 0.43492 0.836213
  outer loop
   vertex -0.012372 0.149969 0.034214
   vertex -0.011518 0.152597 0.032506
   vertex -0.014365 0.15234 0.033777
  endloop
 endfacet
 facet normal 0.286233 0.584386 0.759318
  outer loop
   vertex -0.011518 0.152597 0.032506
   vertex -0.013662 0.154506 0.031845
   vertex -0.014365 0.15234 0.033777
  endloop
 endfacet
 facet normal 0.751958 0.169318 0.637095
  outer loop
   vertex -0.008456 0.14734 0.031845
   vertex -0.007679 0.149729 0.030293
   vertex -0.009608 0.149969 0.032506
  endloop
 endfacet
 facet normal 0.725985 0.343961 0.595514
  outer loop
   vertex -0.007679 0.149729 0.030293
   vertex -0.009108 0.15234 0.030527
   vertex -0.009608 0.149969 0.032506
  endloop
 endfacet
 facet normal 0.598657 0.435097 0.672533
  outer loop
   vertex -0.009608 0.149969 0.032506
   vertex -0.009108 0.15234 0.030527
   vertex -0.011518 0.152597 0.032506
  endloop
 endfacet
 facet normal 0.551379 0.584158 0.595601
  outer loop
   vertex -0.009108 0.15234 0.030527
   vertex -0.01115 0.154506 0.030293
   vertex -0.011518 0.152597 0.032506
  endloop
 endfacet
 facet normal 0.393627 0.662685 0.637108
  outer loop
   vertex -0.011518 0.152597 0.032506
   vertex -0.01115 0.154506 0.030293
   vertex -0.013662 0.154506 0.031845
  endloop
 endfacet
 facet normal 0.342493 0.758552 0.554344
  outer loop
   vertex -0.01115 0.154506 0.030293
   vertex -0.013226 0.155846 0.029742
   vertex -0.013662 0.154506 0.031845
  endloop
 endfacet
 facet normal -0.0482486 0.148392 0.987751
  outer loop
   vertex -0.015214 0.149729 0.034949
   vertex -0.018022 0.148816 0.034949
   vertex -0.01599 0.14734 0.03527
  endloop
 endfacet
 facet normal 0.0336945 0.400135 0.915836
  outer loop
   vertex -0.014365 0.15234 0.033777
   vertex -0.017372 0.151593 0.034214
   vertex -0.015214 0.149729 0.034949
  endloop
 endfacet
 facet normal 0.112009 0.640965 0.759354
  outer loop
   vertex -0.013662 0.154506 0.031845
   vertex -0.016518 0.154222 0.032506
   vertex -0.014365 0.15234 0.033777
  endloop
 endfacet
 facet normal -0.0891868 0.274301 0.957499
  outer loop
   vertex -0.015214 0.149729 0.034949
   vertex -0.017372 0.151593 0.034214
   vertex -0.018022 0.148816 0.034949
  endloop
 endfacet
 facet normal -0.262485 0.303841 0.915851
  outer loop
   vertex -0.017372 0.151593 0.034214
   vertex -0.020243 0.15043 0.033777
   vertex -0.018022 0.148816 0.034949
  endloop
 endfacet
 facet normal -0.0146149 0.548074 0.836302
  outer loop
   vertex -0.014365 0.15234 0.033777
   vertex -0.016518 0.154222 0.032506
   vertex -0.017372 0.151593 0.034214
  endloop
 endfacet
 facet normal -0.187559 0.577248 0.794737
  outer loop
   vertex -0.016518 0.154222 0.032506
   vertex -0.019608 0.153218 0.032506
   vertex -0.017372 0.151593 0.034214
  endloop
 endfacet
 facet normal -0.310374 0.451949 0.836307
  outer loop
   vertex -0.017372 0.151593 0.034214
   vertex -0.019608 0.153218 0.032506
   vertex -0.020243 0.15043 0.033777
  endloop
 endfacet
 facet normal -0.467426 0.452641 0.759361
  outer loop
   vertex -0.019608 0.153218 0.032506
   vertex -0.022085 0.151769 0.031845
   vertex -0.020243 0.15043 0.033777
  endloop
 endfacet
 facet normal 0.0710868 0.767617 0.636955
  outer loop
   vertex -0.013662 0.154506 0.031845
   vertex -0.015694 0.155982 0.030293
   vertex -0.016518 0.154222 0.032506
  endloop
 endfacet
 facet normal -0.102735 0.796801 0.595444
  outer loop
   vertex -0.015694 0.155982 0.030293
   vertex -0.018619 0.15543 0.030527
   vertex -0.016518 0.154222 0.032506
  endloop
 endfacet
 facet normal -0.228709 0.703897 0.672474
  outer loop
   vertex -0.016518 0.154222 0.032506
   vertex -0.018619 0.15543 0.030527
   vertex -0.019608 0.153218 0.032506
  endloop
 endfacet
 facet normal -0.38541 0.704977 0.595371
  outer loop
   vertex -0.018619 0.15543 0.030527
   vertex -0.021309 0.154157 0.030293
   vertex -0.019608 0.153218 0.032506
  endloop
 endfacet
 facet normal -0.508799 0.579247 0.636864
  outer loop
   vertex -0.019608 0.153218 0.032506
   vertex -0.021309 0.154157 0.030293
   vertex -0.022085 0.151769 0.031845
  endloop
 endfacet
 facet normal -0.61533 0.560308 0.554459
  outer loop
   vertex -0.021309 0.154157 0.030293
   vertex -0.023226 0.152597 0.029742
   vertex -0.022085 0.151769 0.031845
  endloop
 endfacet
 facet normal -0.156037 0 0.987751
  outer loop
   vertex -0.018022 0.148816 0.034949
   vertex -0.018022 0.145864 0.034949
   vertex -0.01599 0.14734 0.03527
  endloop
 endfacet
 facet normal -0.370096 0.155752 0.915844
  outer loop
   vertex -0.020243 0.15043 0.033777
   vertex -0.020462 0.14734 0.034214
   vertex -0.018022 0.148816 0.034949
  endloop
 endfacet
 facet normal -0.574948 0.304695 0.759339
  outer loop
   vertex -0.022085 0.151769 0.031845
   vertex -0.022698 0.148965 0.032506
   vertex -0.020243 0.15043 0.033777
  endloop
 endfacet
 facet normal -0.288428 0 0.957502
  outer loop
   vertex -0.018022 0.148816 0.034949
   vertex -0.020462 0.14734 0.034214
   vertex -0.018022 0.145864 0.034949
  endloop
 endfacet
 facet normal -0.370096 -0.155752 0.915844
  outer loop
   vertex -0.020462 0.14734 0.034214
   vertex -0.020243 0.14425 0.033777
   vertex -0.018022 0.145864 0.034949
  endloop
 endfacet
 facet normal -0.525774 0.155534 0.836284
  outer loop
   vertex -0.020243 0.15043 0.033777
   vertex -0.022698 0.148965 0.032506
   vertex -0.020462 0.14734 0.034214
  endloop
 endfacet
 facet normal -0.607028 0 0.794681
  outer loop
   vertex -0.022698 0.148965 0.032506
   vertex -0.022698 0.145715 0.032506
   vertex -0.020462 0.14734 0.034214
  endloop
 endfacet
 facet normal -0.525774 -0.155534 0.836284
  outer loop
   vertex -0.020462 0.14734 0.034214
   vertex -0.022698 0.145715 0.032506
   vertex -0.020243 0.14425 0.033777
  endloop
 endfacet
 facet normal -0.574948 -0.304695 0.759339
  outer loop
   vertex -0.022698 0.145715 0.032506
   vertex -0.022085 0.142911 0.031845
   vertex -0.020243 0.14425 0.033777
  endloop
 endfacet
 facet normal -0.708089 0.304936 0.636886
  outer loop
   vertex -0.022085 0.151769 0.031845
   vertex -0.024117 0.150292 0.030293
   vertex -0.022698 0.148965 0.032506
  endloop
 endfacet
 facet normal -0.789589 0.148568 0.59538
  outer loop
   vertex -0.024117 0.150292 0.030293
   vertex -0.024496 0.14734 0.030527
   vertex -0.022698 0.148965 0.032506
  endloop
 endfacet
 facet normal -0.740143 0 0.672449
  outer loop
   vertex -0.022698 0.148965 0.032506
   vertex -0.024496 0.14734 0.030527
   vertex -0.022698 0.145715 0.032506
  endloop
 endfacet
 facet normal -0.789589 -0.148568 0.59538
  outer loop
   vertex -0.024496 0.14734 0.030527
   vertex -0.024117 0.144388 0.030293
   vertex -0.022698 0.145715 0.032506
  endloop
 endfacet
 facet normal -0.708089 -0.304936 0.636886
  outer loop
   vertex -0.022698 0.145715 0.032506
   vertex -0.024117 0.144388 0.030293
   vertex -0.022085 0.142911 0.031845
  endloop
 endfacet
 facet normal -0.723015 -0.412034 0.554506
  outer loop
   vertex -0.024117 0.144388 0.030293
   vertex -0.023226 0.142083 0.029742
   vertex -0.022085 0.142911 0.031845
  endloop
 endfacet
 facet normal -0.0482486 -0.148392 0.987751
  outer loop
   vertex -0.018022 0.145864 0.034949
   vertex -0.015214 0.144951 0.034949
   vertex -0.01599 0.14734 0.03527
  endloop
 endfacet
 facet normal -0.262485 -0.303841 0.915851
  outer loop
   vertex -0.020243 0.14425 0.033777
   vertex -0.017372 0.143087 0.034214
   vertex -0.018022 0.145864 0.034949
  endloop
 endfacet
 facet normal -0.467426 -0.452641 0.759361
  outer loop
   vertex -0.022085 0.142911 0.031845
   vertex -0.019608 0.141462 0.032506
   vertex -0.020243 0.14425 0.033777
  endloop
 endfacet
 facet normal -0.0891868 -0.274301 0.957499
  outer loop
   vertex -0.018022 0.145864 0.034949
   vertex -0.017372 0.143087 0.034214
   vertex -0.015214 0.144951 0.034949
  endloop
 endfacet
 facet normal 0.0336945 -0.400135 0.915836
  outer loop
   vertex -0.017372 0.143087 0.034214
   vertex -0.014365 0.14234 0.033777
   vertex -0.015214 0.144951 0.034949
  endloop
 endfacet
 facet normal -0.310374 -0.451949 0.836307
  outer loop
   vertex -0.020243 0.14425 0.033777
   vertex -0.019608 0.141462 0.032506
   vertex -0.017372 0.143087 0.034214
  endloop
 endfacet
 facet normal -0.187559 -0.577248 0.794737
  outer loop
   vertex -0.019608 0.141462 0.032506
   vertex -0.016518 0.140458 0.032506
   vertex -0.017372 0.143087 0.034214
  endloop
 endfacet
 facet normal -0.0146149 -0.548074 0.836302
  outer loop
   vertex -0.017372 0.143087 0.034214
   vertex -0.016518 0.140458 0.032506
   vertex -0.014365 0.14234 0.033777
  endloop
 endfacet
 facet normal 0.112009 -0.640965 0.759354
  outer loop
   vertex -0.016518 0.140458 0.032506
   vertex -0.013662 0.140174 0.031845
   vertex -0.014365 0.14234 0.033777
  endloop
 endfacet
 facet normal -0.508799 -0.579247 0.636864
  outer loop
   vertex -0.022085 0.142911 0.031845
   vertex -0.021309 0.140523 0.030293
   vertex -0.019608 0.141462 0.032506
  endloop
 endfacet
 facet normal -0.38541 -0.704977 0.595371
  outer loop
   vertex -0.021309 0.140523 0.030293
   vertex -0.018619 0.13925 0.030527
   vertex -0.019608 0.141462 0.032506
  endloop
 endfacet
 facet normal -0.228709 -0.703897 0.672474
  outer loop
   vertex -0.019608 0.141462 0.032506
   vertex -0.018619 0.13925 0.030527
   vertex -0.016518 0.140458 0.032506
  endloop
 endfacet
 facet normal -0.102735 -0.796801 0.595444
  outer loop
   vertex -0.018619 0.13925 0.030527
   vertex -0.015694 0.138698 0.030293
   vertex -0.016518 0.140458 0.032506
  endloop
 endfacet
 facet normal 0.0710868 -0.767617 0.636955
  outer loop
   vertex -0.016518 0.140458 0.032506
   vertex -0.015694 0.138698 0.030293
   vertex -0.013662 0.140174 0.031845
  endloop
 endfacet
 facet normal 0.168666 -0.815046 0.554303
  outer loop
   vertex -0.015694 0.138698 0.030293
   vertex -0.013226 0.138834 0.029742
   vertex -0.013662 0.140174 0.031845
  endloop
 endfacet
 facet normal 0.126271 -0.0917039 0.987748
  outer loop
   vertex -0.015214 0.144951 0.034949
   vertex -0.013479 0.14734 0.034949
   vertex -0.01599 0.14734 0.03527
  endloop
 endfacet
 facet normal 0.207851 -0.343516 0.915858
  outer loop
   vertex -0.014365 0.14234 0.033777
   vertex -0.012372 0.144711 0.034214
   vertex -0.015214 0.144951 0.034949
  endloop
 endfacet
 facet normal 0.286233 -0.584386 0.759318
  outer loop
   vertex -0.013662 0.140174 0.031845
   vertex -0.011518 0.142083 0.032506
   vertex -0.014365 0.14234 0.033777
  endloop
 endfacet
 facet normal 0.233325 -0.169451 0.957521
  outer loop
   vertex -0.015214 0.144951 0.034949
   vertex -0.012372 0.144711 0.034214
   vertex -0.013479 0.14734 0.034949
  endloop
 endfacet
 facet normal 0.390899 -0.0914587 0.915878
  outer loop
   vertex -0.012372 0.144711 0.034214
   vertex -0.010733 0.14734 0.033777
   vertex -0.013479 0.14734 0.034949
  endloop
 endfacet
 facet normal 0.334054 -0.43492 0.836213
  outer loop
   vertex -0.014365 0.14234 0.033777
   vertex -0.011518 0.142083 0.032506
   vertex -0.012372 0.144711 0.034214
  endloop
 endfacet
 facet normal 0.491058 -0.356895 0.794662
  outer loop
   vertex -0.011518 0.142083 0.032506
   vertex -0.009608 0.144711 0.032506
   vertex -0.012372 0.144711 0.034214
  endloop
 endfacet
 facet normal 0.516783 -0.183167 0.836293
  outer loop
   vertex -0.012372 0.144711 0.034214
   vertex -0.009608 0.144711 0.032506
   vertex -0.010733 0.14734 0.033777
  endloop
 endfacet
 facet normal 0.644269 -0.0913996 0.759317
  outer loop
   vertex -0.009608 0.144711 0.032506
   vertex -0.008456 0.14734 0.031845
   vertex -0.010733 0.14734 0.033777
  endloop
 endfacet
 facet normal 0.393627 -0.662685 0.637108
  outer loop
   vertex -0.013662 0.140174 0.031845
   vertex -0.01115 0.140174 0.030293
   vertex -0.011518 0.142083 0.032506
  endloop
 endfacet
 facet normal 0.551379 -0.584158 0.595601
  outer loop
   vertex -0.01115 0.140174 0.030293
   vertex -0.009108 0.14234 0.030527
   vertex -0.011518 0.142083 0.032506
  endloop
 endfacet
 facet normal 0.598657 -0.435097 0.672533
  outer loop
   vertex -0.011518 0.142083 0.032506
   vertex -0.009108 0.14234 0.030527
   vertex -0.009608 0.144711 0.032506
  endloop
 endfacet
 facet normal 0.725985 -0.343961 0.595514
  outer loop
   vertex -0.009108 0.14234 0.030527
   vertex -0.007679 0.144951 0.030293
   vertex -0.009608 0.144711 0.032506
  endloop
 endfacet
 facet normal 0.751958 -0.169318 0.637095
  outer loop
   vertex -0.009608 0.144711 0.032506
   vertex -0.007679 0.144951 0.030293
   vertex -0.008456 0.14734 0.031845
  endloop
 endfacet
 facet normal 0.827124 -0.091254 0.554562
  outer loop
   vertex -0.007679 0.144951 0.030293
   vertex -0.007046 0.14734 0.029742
   vertex -0.008456 0.14734 0.031845
  endloop
 endfacet
 facet normal 0.905177 0.147939 0.398459
  outer loop
   vertex -0.006424 0.148816 0.027781
   vertex -0.007679 0.149729 0.030293
   vertex -0.007046 0.14734 0.029742
  endloop
 endfacet
 facet normal 0.93657 0.303801 0.17476
  outer loop
   vertex -0.006479 0.15043 0.02527
   vertex -0.007372 0.151593 0.028034
   vertex -0.006424 0.148816 0.027781
  endloop
 endfacet
 facet normal 0.888212 0.452708 -0.078331
  outer loop
   vertex -0.007383 0.151769 0.022758
   vertex -0.0079 0.153218 0.02527
   vertex -0.006479 0.15043 0.02527
  endloop
 endfacet
 facet normal 0.89641 0.274294 0.348155
  outer loop
   vertex -0.006424 0.148816 0.027781
   vertex -0.007372 0.151593 0.028034
   vertex -0.007679 0.149729 0.030293
  endloop
 endfacet
 facet normal 0.803858 0.400541 0.439749
  outer loop
   vertex -0.007372 0.151593 0.028034
   vertex -0.009108 0.15234 0.030527
   vertex -0.007679 0.149729 0.030293
  endloop
 endfacet
 facet normal 0.886806 0.451991 0.0963284
  outer loop
   vertex -0.006479 0.15043 0.02527
   vertex -0.0079 0.153218 0.02527
   vertex -0.007372 0.151593 0.028034
  endloop
 endfacet
 facet normal 0.794662 0.577331 0.18762
  outer loop
   vertex -0.0079 0.153218 0.02527
   vertex -0.009282 0.154222 0.028034
   vertex -0.007372 0.151593 0.028034
  endloop
 endfacet
 facet normal 0.754436 0.548107 0.361117
  outer loop
   vertex -0.007372 0.151593 0.028034
   vertex -0.009282 0.154222 0.028034
   vertex -0.009108 0.15234 0.030527
  endloop
 endfacet
 facet normal 0.629279 0.640767 0.439803
  outer loop
   vertex -0.009282 0.154222 0.028034
   vertex -0.01115 0.154506 0.030293
   vertex -0.009108 0.15234 0.030527
  endloop
 endfacet
 facet normal 0.797233 0.579229 -0.170037
  outer loop
   vertex -0.007383 0.151769 0.022758
   vertex -0.009118 0.154157 0.022758
   vertex -0.0079 0.153218 0.02527
  endloop
 endfacet
 facet normal 0.704936 0.704936 -0.0782949
  outer loop
   vertex -0.009118 0.154157 0.022758
   vertex -0.010112 0.15543 0.02527
   vertex -0.0079 0.153218 0.02527
  endloop
 endfacet
 facet normal 0.703824 0.703824 0.0962537
  outer loop
   vertex -0.0079 0.153218 0.02527
   vertex -0.010112 0.15543 0.02527
   vertex -0.009282 0.154222 0.028034
  endloop
 endfacet
 facet normal 0.578519 0.796783 0.174509
  outer loop
   vertex -0.010112 0.15543 0.02527
   vertex -0.01163 0.155982 0.027782
   vertex -0.009282 0.154222 0.028034
  endloop
 endfacet
 facet normal 0.537986 0.767602 0.348366
  outer loop
   vertex -0.009282 0.154222 0.028034
   vertex -0.01163 0.155982 0.027782
   vertex -0.01115 0.154506 0.030293
  endloop
 endfacet
 facet normal 0.420269 0.815078 0.398776
  outer loop
   vertex -0.01163 0.155982 0.027782
   vertex -0.013226 0.155846 0.029742
   vertex -0.01115 0.154506 0.030293
  endloop
 endfacet
 facet normal 0.138975 0.90647 0.398746
  outer loop
   vertex -0.014438 0.156894 0.027782
   vertex -0.015694 0.155982 0.030293
   vertex -0.013226 0.155846 0.029742
  endloop
 endfacet
 facet normal 0.000555151 0.98466 0.174481
  outer loop
   vertex -0.01599 0.15734 0.02527
   vertex -0.017372 0.156851 0.028034
   vertex -0.014438 0.156894 0.027782
  endloop
 endfacet
 facet normal -0.155824 0.984657 -0.07855
  outer loop
   vertex -0.017542 0.156894 0.022758
   vertex -0.01908 0.156851 0.02527
   vertex -0.01599 0.15734 0.02527
  endloop
 endfacet
 facet normal 0.0161962 0.937175 0.348485
  outer loop
   vertex -0.014438 0.156894 0.027782
   vertex -0.017372 0.156851 0.028034
   vertex -0.015694 0.155982 0.030293
  endloop
 endfacet
 facet normal -0.132412 0.888171 0.440021
  outer loop
   vertex -0.017372 0.156851 0.028034
   vertex -0.018619 0.15543 0.030527
   vertex -0.015694 0.155982 0.030293
  endloop
 endfacet
 facet normal -0.155583 0.983133 0.0961419
  outer loop
   vertex -0.01599 0.15734 0.02527
   vertex -0.01908 0.156851 0.02527
   vertex -0.017372 0.156851 0.028034
  endloop
 endfacet
 facet normal -0.303796 0.934059 0.187729
  outer loop
   vertex -0.01908 0.156851 0.02527
   vertex -0.020462 0.155846 0.028034
   vertex -0.017372 0.156851 0.028034
  endloop
 endfacet
 facet normal -0.288415 0.886769 0.361189
  outer loop
   vertex -0.017372 0.156851 0.028034
   vertex -0.020462 0.155846 0.028034
   vertex -0.018619 0.15543 0.030527
  endloop
 endfacet
 facet normal -0.415138 0.796394 0.439791
  outer loop
   vertex -0.020462 0.155846 0.028034
   vertex -0.021309 0.154157 0.030293
   vertex -0.018619 0.15543 0.030527
  endloop
 endfacet
 facet normal -0.304389 0.937197 -0.170322
  outer loop
   vertex -0.017542 0.156894 0.022758
   vertex -0.02035 0.155982 0.022758
   vertex -0.01908 0.156851 0.02527
  endloop
 endfacet
 facet normal -0.452705 0.888208 -0.0783901
  outer loop
   vertex -0.02035 0.155982 0.022758
   vertex -0.021868 0.15543 0.02527
   vertex -0.01908 0.156851 0.02527
  endloop
 endfacet
 facet normal -0.451986 0.886796 0.0964489
  outer loop
   vertex -0.01908 0.156851 0.02527
   vertex -0.021868 0.15543 0.02527
   vertex -0.020462 0.155846 0.028034
  endloop
 endfacet
 facet normal -0.578874 0.796508 0.174584
  outer loop
   vertex -0.021868 0.15543 0.02527
   vertex -0.022862 0.154157 0.027782
   vertex -0.020462 0.155846 0.028034
  endloop
 endfacet
 facet normal -0.563623 0.748876 0.348589
  outer loop
   vertex -0.020462 0.155846 0.028034
   vertex -0.022862 0.154157 0.027782
   vertex -0.021309 0.154157 0.030293
  endloop
 endfacet
 facet normal -0.645038 0.651744 0.398942
  outer loop
   vertex -0.022862 0.154157 0.027782
   vertex -0.023226 0.152597 0.029742
   vertex -0.021309 0.154157 0.030293
  endloop
 endfacet
 facet normal -0.819189 0.412026 0.398954
  outer loop
   vertex -0.024597 0.151769 0.027782
   vertex -0.024117 0.150292 0.030293
   vertex -0.023226 0.152597 0.029742
  endloop
 endfacet
 facet normal -0.936352 0.304548 0.174631
  outer loop
   vertex -0.025501 0.15043 0.02527
   vertex -0.025462 0.148965 0.028034
   vertex -0.024597 0.151769 0.027782
  endloop
 endfacet
 facet normal -0.984653 0.155824 -0.0785916
  outer loop
   vertex -0.025556 0.148816 0.022759
   vertex -0.02599 0.14734 0.02527
   vertex -0.025501 0.15043 0.02527
  endloop
 endfacet
 facet normal -0.886309 0.304753 0.348685
  outer loop
   vertex -0.024597 0.151769 0.027782
   vertex -0.025462 0.148965 0.028034
   vertex -0.024117 0.150292 0.030293
  endloop
 endfacet
 facet normal -0.885615 0.148581 0.440011
  outer loop
   vertex -0.025462 0.148965 0.028034
   vertex -0.024496 0.14734 0.030527
   vertex -0.024117 0.150292 0.030293
  endloop
 endfacet
 facet normal -0.983115 0.15558 0.0963335
  outer loop
   vertex -0.025501 0.15043 0.02527
   vertex -0.02599 0.14734 0.02527
   vertex -0.025462 0.148965 0.028034
  endloop
 endfacet
 facet normal -0.982239 0 0.187634
  outer loop
   vertex -0.02599 0.14734 0.02527
   vertex -0.025462 0.145715 0.028034
   vertex -0.025462 0.148965 0.028034
  endloop
 endfacet
 facet normal -0.932446 0 0.361309
  outer loop
   vertex -0.025462 0.148965 0.028034
   vertex -0.025462 0.145715 0.028034
   vertex -0.024496 0.14734 0.030527
  endloop
 endfacet
 facet normal -0.885615 -0.148581 0.440011
  outer loop
   vertex -0.025462 0.145715 0.028034
   vertex -0.024117 0.144388 0.030293
   vertex -0.024496 0.14734 0.030527
  endloop
 endfacet
 facet normal -0.98539 -0 -0.170314
  outer loop
   vertex -0.025556 0.148816 0.022759
   vertex -0.025556 0.145864 0.022759
   vertex -0.02599 0.14734 0.02527
  endloop
 endfacet
 facet normal -0.984653 -0.155824 -0.0785916
  outer loop
   vertex -0.025556 0.145864 0.022759
   vertex -0.025501 0.14425 0.02527
   vertex -0.02599 0.14734 0.02527
  endloop
 endfacet
 facet normal -0.983115 -0.15558 0.0963335
  outer loop
   vertex -0.02599 0.14734 0.02527
   vertex -0.025501 0.14425 0.02527
   vertex -0.025462 0.145715 0.028034
  endloop
 endfacet
 facet normal -0.936352 -0.304548 0.174631
  outer loop
   vertex -0.025501 0.14425 0.02527
   vertex -0.024597 0.142911 0.027782
   vertex -0.025462 0.145715 0.028034
  endloop
 endfacet
 facet normal -0.886309 -0.304753 0.348685
  outer loop
   vertex -0.025462 0.145715 0.028034
   vertex -0.024597 0.142911 0.027782
   vertex -0.024117 0.144388 0.030293
  endloop
 endfacet
 facet normal -0.819189 -0.412026 0.398954
  outer loop
   vertex -0.024597 0.142911 0.027782
   vertex -0.023226 0.142083 0.029742
   vertex -0.024117 0.144388 0.030293
  endloop
 endfacet
 facet normal -0.645038 -0.651744 0.398942
  outer loop
   vertex -0.022862 0.140523 0.027782
   vertex -0.021309 0.140523 0.030293
   vertex -0.023226 0.142083 0.029742
  endloop
 endfacet
 facet normal -0.578874 -0.796508 0.174584
  outer loop
   vertex -0.021868 0.13925 0.02527
   vertex -0.020462 0.138834 0.028034
   vertex -0.022862 0.140523 0.027782
  endloop
 endfacet
 facet normal -0.452705 -0.888208 -0.0783901
  outer loop
   vertex -0.02035 0.138698 0.022758
   vertex -0.01908 0.137829 0.02527
   vertex -0.021868 0.13925 0.02527
  endloop
 endfacet
 facet normal -0.563623 -0.748876 0.348589
  outer loop
   vertex -0.022862 0.140523 0.027782
   vertex -0.020462 0.138834 0.028034
   vertex -0.021309 0.140523 0.030293
  endloop
 endfacet
 facet normal -0.415138 -0.796394 0.439791
  outer loop
   vertex -0.020462 0.138834 0.028034
   vertex -0.018619 0.13925 0.030527
   vertex -0.021309 0.140523 0.030293
  endloop
 endfacet
 facet normal -0.451986 -0.886796 0.0964489
  outer loop
   vertex -0.021868 0.13925 0.02527
   vertex -0.01908 0.137829 0.02527
   vertex -0.020462 0.138834 0.028034
  endloop
 endfacet
 facet normal -0.303796 -0.934059 0.187729
  outer loop
   vertex -0.01908 0.137829 0.02527
   vertex -0.017372 0.137829 0.028034
   vertex -0.020462 0.138834 0.028034
  endloop
 endfacet
 facet normal -0.288415 -0.886769 0.361189
  outer loop
   vertex -0.020462 0.138834 0.028034
   vertex -0.017372 0.137829 0.028034
   vertex -0.018619 0.13925 0.030527
  endloop
 endfacet
 facet normal -0.132412 -0.888171 0.440021
  outer loop
   vertex -0.017372 0.137829 0.028034
   vertex -0.015694 0.138698 0.030293
   vertex -0.018619 0.13925 0.030527
  endloop
 endfacet
 facet normal -0.304389 -0.937197 -0.170322
  outer loop
   vertex -0.02035 0.138698 0.022758
   vertex -0.017542 0.137786 0.022758
   vertex -0.01908 0.137829 0.02527
  endloop
 endfacet
 facet normal -0.155824 -0.984657 -0.07855
  outer loop
   vertex -0.017542 0.137786 0.022758
   vertex -0.01599 0.13734 0.02527
   vertex -0.01908 0.137829 0.02527
  endloop
 endfacet
 facet normal -0.155583 -0.983133 0.0961419
  outer loop
   vertex -0.01908 0.137829 0.02527
   vertex -0.01599 0.13734 0.02527
   vertex -0.017372 0.137829 0.028034
  endloop
 endfacet
 facet normal 0.000555151 -0.98466 0.174481
  outer loop
   vertex -0.01599 0.13734 0.02527
   vertex -0.014438 0.137786 0.027782
   vertex -0.017372 0.137829 0.028034
  endloop
 endfacet
 facet normal 0.0161962 -0.937175 0.348485
  outer loop
   vertex -0.017372 0.137829 0.028034
   vertex -0.014438 0.137786 0.027782
   vertex -0.015694 0.138698 0.030293
  endloop
 endfacet
 facet normal 0.138975 -0.90647 0.398746
  outer loop
   vertex -0.014438 0.137786 0.027782
   vertex -0.013226 0.138834 0.029742
   vertex -0.015694 0.138698 0.030293
  endloop
 endfacet
 facet normal 0.420269 -0.815078 0.398776
  outer loop
   vertex -0.01163 0.138698 0.027782
   vertex -0.01115 0.140174 0.030293
   vertex -0.013226 0.138834 0.029742
  endloop
 endfacet
 facet normal 0.578519 -0.796783 0.174509
  outer loop
   vertex -0.010112 0.13925 0.02527
   vertex -0.009282 0.140458 0.028034
   vertex -0.01163 0.138698 0.027782
  endloop
 endfacet
 facet normal 0.704936 -0.704936 -0.0782949
  outer loop
   vertex -0.009118 0.140523 0.022758
   vertex -0.0079 0.141462 0.02527
   vertex -0.010112 0.13925 0.02527
  endloop
 endfacet
 facet normal 0.537986 -0.767602 0.348366
  outer loop
   vertex -0.01163 0.138698 0.027782
   vertex -0.009282 0.140458 0.028034
   vertex -0.01115 0.140174 0.030293
  endloop
 endfacet
 facet normal 0.629279 -0.640767 0.439803
  outer loop
   vertex -0.009282 0.140458 0.028034
   vertex -0.009108 0.14234 0.030527
   vertex -0.01115 0.140174 0.030293
  endloop
 endfacet
 facet normal 0.703824 -0.703824 0.0962537
  outer loop
   vertex -0.010112 0.13925 0.02527
   vertex -0.0079 0.141462 0.02527
   vertex -0.009282 0.140458 0.028034
  endloop
 endfacet
 facet normal 0.794662 -0.577331 0.18762
  outer loop
   vertex -0.0079 0.141462 0.02527
   vertex -0.007372 0.143087 0.028034
   vertex -0.009282 0.140458 0.028034
  endloop
 endfacet
 facet normal 0.754436 -0.548107 0.361117
  outer loop
   vertex -0.009282 0.140458 0.028034
   vertex -0.007372 0.143087 0.028034
   vertex -0.009108 0.14234 0.030527
  endloop
 endfacet
 facet normal 0.803858 -0.400541 0.439749
  outer loop
   vertex -0.007372 0.143087 0.028034
   vertex -0.007679 0.144951 0.030293
   vertex -0.009108 0.14234 0.030527
  endloop
 endfacet
 facet normal 0.797233 -0.579229 -0.170037
  outer loop
   vertex -0.009118 0.140523 0.022758
   vertex -0.007383 0.142911 0.022758
   vertex -0.0079 0.141462 0.02527
  endloop
 endfacet
 facet normal 0.888212 -0.452708 -0.078331
  outer loop
   vertex -0.007383 0.142911 0.022758
   vertex -0.006479 0.14425 0.02527
   vertex -0.0079 0.141462 0.02527
  endloop
 endfacet
 facet normal 0.886806 -0.451991 0.0963284
  outer loop
   vertex -0.0079 0.141462 0.02527
   vertex -0.006479 0.14425 0.02527
   vertex -0.007372 0.143087 0.028034
  endloop
 endfacet
 facet normal 0.93657 -0.303801 0.17476
  outer loop
   vertex -0.006479 0.14425 0.02527
   vertex -0.006424 0.145864 0.027781
   vertex -0.007372 0.143087 0.028034
  endloop
 endfacet
 facet normal 0.89641 -0.274294 0.348155
  outer loop
   vertex -0.007372 0.143087 0.028034
   vertex -0.006424 0.145864 0.027781
   vertex -0.007679 0.144951 0.030293
  endloop
 endfacet
 facet normal 0.905177 -0.147939 0.398459
  outer loop
   vertex -0.006424 0.145864 0.027781
   vertex -0.007046 0.14734 0.029742
   vertex -0.007679 0.144951 0.030293
  endloop
 endfacet
 facet normal 0.294416 0.906493 0.302638
  outer loop
   vertex -0.01163 0.155982 0.027782
   vertex -0.014438 0.156894 0.027782
   vertex -0.013226 0.155846 0.029742
  endloop
 endfacet
 facet normal 0.452705 0.888208 0.0783901
  outer loop
   vertex -0.010112 0.15543 0.02527
   vertex -0.0129 0.156851 0.02527
   vertex -0.01163 0.155982 0.027782
  endloop
 endfacet
 facet normal 0.578874 0.796508 -0.174584
  outer loop
   vertex -0.009118 0.154157 0.022758
   vertex -0.011518 0.155846 0.022506
   vertex -0.010112 0.15543 0.02527
  endloop
 endfacet
 facet normal 0.304389 0.937197 0.170322
  outer loop
   vertex -0.01163 0.155982 0.027782
   vertex -0.0129 0.156851 0.02527
   vertex -0.014438 0.156894 0.027782
  endloop
 endfacet
 facet normal 0.155824 0.984657 0.07855
  outer loop
   vertex -0.0129 0.156851 0.02527
   vertex -0.01599 0.15734 0.02527
   vertex -0.014438 0.156894 0.027782
  endloop
 endfacet
 facet normal 0.451986 0.886796 -0.0964489
  outer loop
   vertex -0.010112 0.15543 0.02527
   vertex -0.011518 0.155846 0.022506
   vertex -0.0129 0.156851 0.02527
  endloop
 endfacet
 facet normal 0.303796 0.934059 -0.187729
  outer loop
   vertex -0.011518 0.155846 0.022506
   vertex -0.014608 0.156851 0.022506
   vertex -0.0129 0.156851 0.02527
  endloop
 endfacet
 facet normal 0.155583 0.983133 -0.0961419
  outer loop
   vertex -0.0129 0.156851 0.02527
   vertex -0.014608 0.156851 0.022506
   vertex -0.01599 0.15734 0.02527
  endloop
 endfacet
 facet normal -0.000555151 0.98466 -0.174481
  outer loop
   vertex -0.014608 0.156851 0.022506
   vertex -0.017542 0.156894 0.022758
   vertex -0.01599 0.15734 0.02527
  endloop
 endfacet
 facet normal 0.563623 0.748876 -0.348589
  outer loop
   vertex -0.009118 0.154157 0.022758
   vertex -0.010671 0.154157 0.020247
   vertex -0.011518 0.155846 0.022506
  endloop
 endfacet
 facet normal 0.415138 0.796394 -0.439791
  outer loop
   vertex -0.010671 0.154157 0.020247
   vertex -0.013361 0.15543 0.020013
   vertex -0.011518 0.155846 0.022506
  endloop
 endfacet
 facet normal 0.288415 0.886769 -0.361189
  outer loop
   vertex -0.011518 0.155846 0.022506
   vertex -0.013361 0.15543 0.020013
   vertex -0.014608 0.156851 0.022506
  endloop
 endfacet
 facet normal 0.132412 0.888171 -0.440021
  outer loop
   vertex -0.013361 0.15543 0.020013
   vertex -0.016286 0.155982 0.020247
   vertex -0.014608 0.156851 0.022506
  endloop
 endfacet
 facet normal -0.0161962 0.937175 -0.348485
  outer loop
   vertex -0.014608 0.156851 0.022506
   vertex -0.016286 0.155982 0.020247
   vertex -0.017542 0.156894 0.022758
  endloop
 endfacet
 facet normal -0.138975 0.90647 -0.398746
  outer loop
   vertex -0.016286 0.155982 0.020247
   vertex -0.018754 0.155846 0.020798
   vertex -0.017542 0.156894 0.022758
  endloop
 endfacet
 facet normal -0.771063 0.560215 0.302688
  outer loop
   vertex -0.022862 0.154157 0.027782
   vertex -0.024597 0.151769 0.027782
   vertex -0.023226 0.152597 0.029742
  endloop
 endfacet
 facet normal -0.704936 0.704936 0.0782949
  outer loop
   vertex -0.021868 0.15543 0.02527
   vertex -0.02408 0.153218 0.02527
   vertex -0.022862 0.154157 0.027782
  endloop
 endfacet
 facet normal -0.578519 0.796783 -0.174509
  outer loop
   vertex -0.02035 0.155982 0.022758
   vertex -0.022698 0.154222 0.022506
   vertex -0.021868 0.15543 0.02527
  endloop
 endfacet
 facet normal -0.797233 0.579229 0.170037
  outer loop
   vertex -0.022862 0.154157 0.027782
   vertex -0.02408 0.153218 0.02527
   vertex -0.024597 0.151769 0.027782
  endloop
 endfacet
 facet normal -0.888212 0.452708 0.078331
  outer loop
   vertex -0.02408 0.153218 0.02527
   vertex -0.025501 0.15043 0.02527
   vertex -0.024597 0.151769 0.027782
  endloop
 endfacet
 facet normal -0.703824 0.703824 -0.0962537
  outer loop
   vertex -0.021868 0.15543 0.02527
   vertex -0.022698 0.154222 0.022506
   vertex -0.02408 0.153218 0.02527
  endloop
 endfacet
 facet normal -0.794662 0.577331 -0.18762
  outer loop
   vertex -0.022698 0.154222 0.022506
   vertex -0.024608 0.151593 0.022506
   vertex -0.02408 0.153218 0.02527
  endloop
 endfacet
 facet normal -0.886806 0.451991 -0.0963284
  outer loop
   vertex -0.02408 0.153218 0.02527
   vertex -0.024608 0.151593 0.022506
   vertex -0.025501 0.15043 0.02527
  endloop
 endfacet
 facet normal -0.93657 0.303801 -0.17476
  outer loop
   vertex -0.024608 0.151593 0.022506
   vertex -0.025556 0.148816 0.022759
   vertex -0.025501 0.15043 0.02527
  endloop
 endfacet
 facet normal -0.537986 0.767602 -0.348366
  outer loop
   vertex -0.02035 0.155982 0.022758
   vertex -0.02083 0.154506 0.020247
   vertex -0.022698 0.154222 0.022506
  endloop
 endfacet
 facet normal -0.629279 0.640767 -0.439803
  outer loop
   vertex -0.02083 0.154506 0.020247
   vertex -0.022872 0.15234 0.020013
   vertex -0.022698 0.154222 0.022506
  endloop
 endfacet
 facet normal -0.754436 0.548107 -0.361117
  outer loop
   vertex -0.022698 0.154222 0.022506
   vertex -0.022872 0.15234 0.020013
   vertex -0.024608 0.151593 0.022506
  endloop
 endfacet
 facet normal -0.803858 0.400541 -0.439749
  outer loop
   vertex -0.022872 0.15234 0.020013
   vertex -0.024301 0.149729 0.020247
   vertex -0.024608 0.151593 0.022506
  endloop
 endfacet
 facet normal -0.89641 0.274294 -0.348155
  outer loop
   vertex -0.024608 0.151593 0.022506
   vertex -0.024301 0.149729 0.020247
   vertex -0.025556 0.148816 0.022759
  endloop
 endfacet
 facet normal -0.905177 0.147939 -0.398459
  outer loop
   vertex -0.024301 0.149729 0.020247
   vertex -0.024934 0.14734 0.020798
   vertex -0.025556 0.148816 0.022759
  endloop
 endfacet
 facet normal -0.771063 -0.560215 0.302688
  outer loop
   vertex -0.024597 0.142911 0.027782
   vertex -0.022862 0.140523 0.027782
   vertex -0.023226 0.142083 0.029742
  endloop
 endfacet
 facet normal -0.888212 -0.452708 0.078331
  outer loop
   vertex -0.025501 0.14425 0.02527
   vertex -0.02408 0.141462 0.02527
   vertex -0.024597 0.142911 0.027782
  endloop
 endfacet
 facet normal -0.93657 -0.303801 -0.17476
  outer loop
   vertex -0.025556 0.145864 0.022759
   vertex -0.024608 0.143087 0.022506
   vertex -0.025501 0.14425 0.02527
  endloop
 endfacet
 facet normal -0.797233 -0.579229 0.170037
  outer loop
   vertex -0.024597 0.142911 0.027782
   vertex -0.02408 0.141462 0.02527
   vertex -0.022862 0.140523 0.027782
  endloop
 endfacet
 facet normal -0.704936 -0.704936 0.0782949
  outer loop
   vertex -0.02408 0.141462 0.02527
   vertex -0.021868 0.13925 0.02527
   vertex -0.022862 0.140523 0.027782
  endloop
 endfacet
 facet normal -0.886806 -0.451991 -0.0963284
  outer loop
   vertex -0.025501 0.14425 0.02527
   vertex -0.024608 0.143087 0.022506
   vertex -0.02408 0.141462 0.02527
  endloop
 endfacet
 facet normal -0.794662 -0.577331 -0.18762
  outer loop
   vertex -0.024608 0.143087 0.022506
   vertex -0.022698 0.140458 0.022506
   vertex -0.02408 0.141462 0.02527
  endloop
 endfacet
 facet normal -0.703824 -0.703824 -0.0962537
  outer loop
   vertex -0.02408 0.141462 0.02527
   vertex -0.022698 0.140458 0.022506
   vertex -0.021868 0.13925 0.02527
  endloop
 endfacet
 facet normal -0.578519 -0.796783 -0.174509
  outer loop
   vertex -0.022698 0.140458 0.022506
   vertex -0.02035 0.138698 0.022758
   vertex -0.021868 0.13925 0.02527
  endloop
 endfacet
 facet normal -0.89641 -0.274294 -0.348155
  outer loop
   vertex -0.025556 0.145864 0.022759
   vertex -0.024301 0.144951 0.020247
   vertex -0.024608 0.143087 0.022506
  endloop
 endfacet
 facet normal -0.803858 -0.400541 -0.439749
  outer loop
   vertex -0.024301 0.144951 0.020247
   vertex -0.022872 0.14234 0.020013
   vertex -0.024608 0.143087 0.022506
  endloop
 endfacet
 facet normal -0.754436 -0.548107 -0.361117
  outer loop
   vertex -0.024608 0.143087 0.022506
   vertex -0.022872 0.14234 0.020013
   vertex -0.022698 0.140458 0.022506
  endloop
 endfacet
 facet normal -0.629279 -0.640767 -0.439803
  outer loop
   vertex -0.022872 0.14234 0.020013
   vertex -0.02083 0.140174 0.020247
   vertex -0.022698 0.140458 0.022506
  endloop
 endfacet
 facet normal -0.537986 -0.767602 -0.348366
  outer loop
   vertex -0.022698 0.140458 0.022506
   vertex -0.02083 0.140174 0.020247
   vertex -0.02035 0.138698 0.022758
  endloop
 endfacet
 facet normal -0.420269 -0.815078 -0.398776
  outer loop
   vertex -0.02083 0.140174 0.020247
   vertex -0.018754 0.138834 0.020798
   vertex -0.02035 0.138698 0.022758
  endloop
 endfacet
 facet normal 0.294416 -0.906493 0.302638
  outer loop
   vertex -0.014438 0.137786 0.027782
   vertex -0.01163 0.138698 0.027782
   vertex -0.013226 0.138834 0.029742
  endloop
 endfacet
 facet normal 0.155824 -0.984657 0.07855
  outer loop
   vertex -0.01599 0.13734 0.02527
   vertex -0.0129 0.137829 0.02527
   vertex -0.014438 0.137786 0.027782
  endloop
 endfacet
 facet normal -0.000555151 -0.98466 -0.174481
  outer loop
   vertex -0.017542 0.137786 0.022758
   vertex -0.014608 0.137829 0.022506
   vertex -0.01599 0.13734 0.02527
  endloop
 endfacet
 facet normal 0.304389 -0.937197 0.170322
  outer loop
   vertex -0.014438 0.137786 0.027782
   vertex -0.0129 0.137829 0.02527
   vertex -0.01163 0.138698 0.027782
  endloop
 endfacet
 facet normal 0.452705 -0.888208 0.0783901
  outer loop
   vertex -0.0129 0.137829 0.02527
   vertex -0.010112 0.13925 0.02527
   vertex -0.01163 0.138698 0.027782
  endloop
 endfacet
 facet normal 0.155583 -0.983133 -0.0961419
  outer loop
   vertex -0.01599 0.13734 0.02527
   vertex -0.014608 0.137829 0.022506
   vertex -0.0129 0.137829 0.02527
  endloop
 endfacet
 facet normal 0.303796 -0.934059 -0.187729
  outer loop
   vertex -0.014608 0.137829 0.022506
   vertex -0.011518 0.138834 0.022506
   vertex -0.0129 0.137829 0.02527
  endloop
 endfacet
 facet normal 0.451986 -0.886796 -0.0964489
  outer loop
   vertex -0.0129 0.137829 0.02527
   vertex -0.011518 0.138834 0.022506
   vertex -0.010112 0.13925 0.02527
  endloop
 endfacet
 facet normal 0.578874 -0.796508 -0.174584
  outer loop
   vertex -0.011518 0.138834 0.022506
   vertex -0.009118 0.140523 0.022758
   vertex -0.010112 0.13925 0.02527
  endloop
 endfacet
 facet normal -0.0161962 -0.937175 -0.348485
  outer loop
   vertex -0.017542 0.137786 0.022758
   vertex -0.016286 0.138698 0.020247
   vertex -0.014608 0.137829 0.022506
  endloop
 endfacet
 facet normal 0.132412 -0.888171 -0.440021
  outer loop
   vertex -0.016286 0.138698 0.020247
   vertex -0.013361 0.13925 0.020013
   vertex -0.014608 0.137829 0.022506
  endloop
 endfacet
 facet normal 0.288415 -0.886769 -0.361189
  outer loop
   vertex -0.014608 0.137829 0.022506
   vertex -0.013361 0.13925 0.020013
   vertex -0.011518 0.138834 0.022506
  endloop
 endfacet
 facet normal 0.415138 -0.796394 -0.439791
  outer loop
   vertex -0.013361 0.13925 0.020013
   vertex -0.010671 0.140523 0.020247
   vertex -0.011518 0.138834 0.022506
  endloop
 endfacet
 facet normal 0.563623 -0.748876 -0.348589
  outer loop
   vertex -0.011518 0.138834 0.022506
   vertex -0.010671 0.140523 0.020247
   vertex -0.009118 0.140523 0.022758
  endloop
 endfacet
 facet normal 0.645038 -0.651744 -0.398942
  outer loop
   vertex -0.010671 0.140523 0.020247
   vertex -0.008754 0.142083 0.020798
   vertex -0.009118 0.140523 0.022758
  endloop
 endfacet
 facet normal 0.9532 -0 0.302341
  outer loop
   vertex -0.006424 0.145864 0.027781
   vertex -0.006424 0.148816 0.027781
   vertex -0.007046 0.14734 0.029742
  endloop
 endfacet
 facet normal 0.984653 -0.155824 0.0785916
  outer loop
   vertex -0.006479 0.14425 0.02527
   vertex -0.00599 0.14734 0.02527
   vertex -0.006424 0.145864 0.027781
  endloop
 endfacet
 facet normal 0.936352 -0.304548 -0.174631
  outer loop
   vertex -0.007383 0.142911 0.022758
   vertex -0.006518 0.145715 0.022506
   vertex -0.006479 0.14425 0.02527
  endloop
 endfacet
 facet normal 0.98539 -0 0.170314
  outer loop
   vertex -0.006424 0.145864 0.027781
   vertex -0.00599 0.14734 0.02527
   vertex -0.006424 0.148816 0.027781
  endloop
 endfacet
 facet normal 0.984653 0.155824 0.0785916
  outer loop
   vertex -0.00599 0.14734 0.02527
   vertex -0.006479 0.15043 0.02527
   vertex -0.006424 0.148816 0.027781
  endloop
 endfacet
 facet normal 0.983115 -0.15558 -0.0963335
  outer loop
   vertex -0.006479 0.14425 0.02527
   vertex -0.006518 0.145715 0.022506
   vertex -0.00599 0.14734 0.02527
  endloop
 endfacet
 facet normal 0.982239 0 -0.187634
  outer loop
   vertex -0.006518 0.145715 0.022506
   vertex -0.006518 0.148965 0.022506
   vertex -0.00599 0.14734 0.02527
  endloop
 endfacet
 facet normal 0.983115 0.15558 -0.0963335
  outer loop
   vertex -0.00599 0.14734 0.02527
   vertex -0.006518 0.148965 0.022506
   vertex -0.006479 0.15043 0.02527
  endloop
 endfacet
 facet normal 0.936352 0.304548 -0.174631
  outer loop
   vertex -0.006518 0.148965 0.022506
   vertex -0.007383 0.151769 0.022758
   vertex -0.006479 0.15043 0.02527
  endloop
 endfacet
 facet normal 0.886309 -0.304753 -0.348685
  outer loop
   vertex -0.007383 0.142911 0.022758
   vertex -0.007863 0.144388 0.020247
   vertex -0.006518 0.145715 0.022506
  endloop
 endfacet
 facet normal 0.885615 -0.148581 -0.440011
  outer loop
   vertex -0.007863 0.144388 0.020247
   vertex -0.007484 0.14734 0.020013
   vertex -0.006518 0.145715 0.022506
  endloop
 endfacet
 facet normal 0.932446 0 -0.361309
  outer loop
   vertex -0.006518 0.145715 0.022506
   vertex -0.007484 0.14734 0.020013
   vertex -0.006518 0.148965 0.022506
  endloop
 endfacet
 facet normal 0.885615 0.148581 -0.440011
  outer loop
   vertex -0.007484 0.14734 0.020013
   vertex -0.007863 0.150292 0.020247
   vertex -0.006518 0.148965 0.022506
  endloop
 endfacet
 facet normal 0.886309 0.304753 -0.348685
  outer loop
   vertex -0.006518 0.148965 0.022506
   vertex -0.007863 0.150292 0.020247
   vertex -0.007383 0.151769 0.022758
  endloop
 endfacet
 facet normal 0.819189 0.412026 -0.398954
  outer loop
   vertex -0.007863 0.150292 0.020247
   vertex -0.008754 0.152597 0.020798
   vertex -0.007383 0.151769 0.022758
  endloop
 endfacet
 facet normal 0.61533 0.560308 -0.554459
  outer loop
   vertex -0.009895 0.151769 0.018695
   vertex -0.010671 0.154157 0.020247
   vertex -0.008754 0.152597 0.020798
  endloop
 endfacet
 facet normal 0.467426 0.452641 -0.759361
  outer loop
   vertex -0.011737 0.15043 0.016763
   vertex -0.012372 0.153218 0.018034
   vertex -0.009895 0.151769 0.018695
  endloop
 endfacet
 facet normal 0.262485 0.303841 -0.915851
  outer loop
   vertex -0.013958 0.148816 0.015591
   vertex -0.014608 0.151593 0.016326
   vertex -0.011737 0.15043 0.016763
  endloop
 endfacet
 facet normal 0.508799 0.579247 -0.636864
  outer loop
   vertex -0.009895 0.151769 0.018695
   vertex -0.012372 0.153218 0.018034
   vertex -0.010671 0.154157 0.020247
  endloop
 endfacet
 facet normal 0.38541 0.704977 -0.595371
  outer loop
   vertex -0.012372 0.153218 0.018034
   vertex -0.013361 0.15543 0.020013
   vertex -0.010671 0.154157 0.020247
  endloop
 endfacet
 facet normal 0.310374 0.451949 -0.836307
  outer loop
   vertex -0.011737 0.15043 0.016763
   vertex -0.014608 0.151593 0.016326
   vertex -0.012372 0.153218 0.018034
  endloop
 endfacet
 facet normal 0.187559 0.577248 -0.794737
  outer loop
   vertex -0.014608 0.151593 0.016326
   vertex -0.015462 0.154222 0.018034
   vertex -0.012372 0.153218 0.018034
  endloop
 endfacet
 facet normal 0.228709 0.703897 -0.672474
  outer loop
   vertex -0.012372 0.153218 0.018034
   vertex -0.015462 0.154222 0.018034
   vertex -0.013361 0.15543 0.020013
  endloop
 endfacet
 facet normal 0.102735 0.796801 -0.595444
  outer loop
   vertex -0.015462 0.154222 0.018034
   vertex -0.016286 0.155982 0.020247
   vertex -0.013361 0.15543 0.020013
  endloop
 endfacet
 facet normal 0.0891868 0.274301 -0.957499
  outer loop
   vertex -0.013958 0.148816 0.015591
   vertex -0.016766 0.149729 0.015591
   vertex -0.014608 0.151593 0.016326
  endloop
 endfacet
 facet normal -0.0336945 0.400135 -0.915836
  outer loop
   vertex -0.016766 0.149729 0.015591
   vertex -0.017615 0.15234 0.016763
   vertex -0.014608 0.151593 0.016326
  endloop
 endfacet
 facet normal 0.0146149 0.548074 -0.836302
  outer loop
   vertex -0.014608 0.151593 0.016326
   vertex -0.017615 0.15234 0.016763
   vertex -0.015462 0.154222 0.018034
  endloop
 endfacet
 facet normal -0.112009 0.640965 -0.759354
  outer loop
   vertex -0.017615 0.15234 0.016763
   vertex -0.018318 0.154506 0.018695
   vertex -0.015462 0.154222 0.018034
  endloop
 endfacet
 facet normal -0.0710868 0.767617 -0.636955
  outer loop
   vertex -0.015462 0.154222 0.018034
   vertex -0.018318 0.154506 0.018695
   vertex -0.016286 0.155982 0.020247
  endloop
 endfacet
 facet normal -0.168666 0.815046 -0.554303
  outer loop
   vertex -0.018318 0.154506 0.018695
   vertex -0.018754 0.155846 0.020798
   vertex -0.016286 0.155982 0.020247
  endloop
 endfacet
 facet normal -0.342493 0.758552 -0.554344
  outer loop
   vertex -0.018318 0.154506 0.018695
   vertex -0.02083 0.154506 0.020247
   vertex -0.018754 0.155846 0.020798
  endloop
 endfacet
 facet normal -0.286233 0.584386 -0.759318
  outer loop
   vertex -0.017615 0.15234 0.016763
   vertex -0.020462 0.152597 0.018034
   vertex -0.018318 0.154506 0.018695
  endloop
 endfacet
 facet normal -0.207851 0.343516 -0.915858
  outer loop
   vertex -0.016766 0.149729 0.015591
   vertex -0.019608 0.149969 0.016326
   vertex -0.017615 0.15234 0.016763
  endloop
 endfacet
 facet normal -0.393627 0.662685 -0.637108
  outer loop
   vertex -0.018318 0.154506 0.018695
   vertex -0.020462 0.152597 0.018034
   vertex -0.02083 0.154506 0.020247
  endloop
 endfacet
 facet normal -0.551379 0.584158 -0.595601
  outer loop
   vertex -0.020462 0.152597 0.018034
   vertex -0.022872 0.15234 0.020013
   vertex -0.02083 0.154506 0.020247
  endloop
 endfacet
 facet normal -0.334054 0.43492 -0.836213
  outer loop
   vertex -0.017615 0.15234 0.016763
   vertex -0.019608 0.149969 0.016326
   vertex -0.020462 0.152597 0.018034
  endloop
 endfacet
 facet normal -0.491058 0.356895 -0.794662
  outer loop
   vertex -0.019608 0.149969 0.016326
   vertex -0.022372 0.149969 0.018034
   vertex -0.020462 0.152597 0.018034
  endloop
 endfacet
 facet normal -0.598657 0.435097 -0.672533
  outer loop
   vertex -0.020462 0.152597 0.018034
   vertex -0.022372 0.149969 0.018034
   vertex -0.022872 0.15234 0.020013
  endloop
 endfacet
 facet normal -0.725985 0.343961 -0.595514
  outer loop
   vertex -0.022372 0.149969 0.018034
   vertex -0.024301 0.149729 0.020247
   vertex -0.022872 0.15234 0.020013
  endloop
 endfacet
 facet normal -0.233325 0.169451 -0.957521
  outer loop
   vertex -0.016766 0.149729 0.015591
   vertex -0.018501 0.14734 0.015591
   vertex -0.019608 0.149969 0.016326
  endloop
 endfacet
 facet normal -0.390899 0.0914587 -0.915878
  outer loop
   vertex -0.018501 0.14734 0.015591
   vertex -0.021247 0.14734 0.016763
   vertex -0.019608 0.149969 0.016326
  endloop
 endfacet
 facet normal -0.516783 0.183167 -0.836293
  outer loop
   vertex -0.019608 0.149969 0.016326
   vertex -0.021247 0.14734 0.016763
   vertex -0.022372 0.149969 0.018034
  endloop
 endfacet
 facet normal -0.644269 0.0913996 -0.759317
  outer loop
   vertex -0.021247 0.14734 0.016763
   vertex -0.023524 0.14734 0.018695
   vertex -0.022372 0.149969 0.018034
  endloop
 endfacet
 facet normal -0.751958 0.169318 -0.637095
  outer loop
   vertex -0.022372 0.149969 0.018034
   vertex -0.023524 0.14734 0.018695
   vertex -0.024301 0.149729 0.020247
  endloop
 endfacet
 facet normal -0.827124 0.091254 -0.554562
  outer loop
   vertex -0.023524 0.14734 0.018695
   vertex -0.024934 0.14734 0.020798
   vertex -0.024301 0.149729 0.020247
  endloop
 endfacet
 facet normal -0.827124 -0.091254 -0.554562
  outer loop
   vertex -0.023524 0.14734 0.018695
   vertex -0.024301 0.144951 0.020247
   vertex -0.024934 0.14734 0.020798
  endloop
 endfacet
 facet normal -0.644269 -0.0913996 -0.759317
  outer loop
   vertex -0.021247 0.14734 0.016763
   vertex -0.022372 0.144711 0.018034
   vertex -0.023524 0.14734 0.018695
  endloop
 endfacet
 facet normal -0.390899 -0.0914587 -0.915878
  outer loop
   vertex -0.018501 0.14734 0.015591
   vertex -0.019608 0.144711 0.016326
   vertex -0.021247 0.14734 0.016763
  endloop
 endfacet
 facet normal -0.751958 -0.169318 -0.637095
  outer loop
   vertex -0.023524 0.14734 0.018695
   vertex -0.022372 0.144711 0.018034
   vertex -0.024301 0.144951 0.020247
  endloop
 endfacet
 facet normal -0.725985 -0.343961 -0.595514
  outer loop
   vertex -0.022372 0.144711 0.018034
   vertex -0.022872 0.14234 0.020013
   vertex -0.024301 0.144951 0.020247
  endloop
 endfacet
 facet normal -0.516783 -0.183167 -0.836293
  outer loop
   vertex -0.021247 0.14734 0.016763
   vertex -0.019608 0.144711 0.016326
   vertex -0.022372 0.144711 0.018034
  endloop
 endfacet
 facet normal -0.491058 -0.356895 -0.794662
  outer loop
   vertex -0.019608 0.144711 0.016326
   vertex -0.020462 0.142083 0.018034
   vertex -0.022372 0.144711 0.018034
  endloop
 endfacet
 facet normal -0.598657 -0.435097 -0.672533
  outer loop
   vertex -0.022372 0.144711 0.018034
   vertex -0.020462 0.142083 0.018034
   vertex -0.022872 0.14234 0.020013
  endloop
 endfacet
 facet normal -0.551379 -0.584158 -0.595601
  outer loop
   vertex -0.020462 0.142083 0.018034
   vertex -0.02083 0.140174 0.020247
   vertex -0.022872 0.14234 0.020013
  endloop
 endfacet
 facet normal -0.233325 -0.169451 -0.957521
  outer loop
   vertex -0.018501 0.14734 0.015591
   vertex -0.016766 0.144951 0.015591
   vertex -0.019608 0.144711 0.016326
  endloop
 endfacet
 facet normal -0.207851 -0.343516 -0.915858
  outer loop
   vertex -0.016766 0.144951 0.015591
   vertex -0.017615 0.14234 0.016763
   vertex -0.019608 0.144711 0.016326
  endloop
 endfacet
 facet normal -0.334054 -0.43492 -0.836213
  outer loop
   vertex -0.019608 0.144711 0.016326
   vertex -0.017615 0.14234 0.016763
   vertex -0.020462 0.142083 0.018034
  endloop
 endfacet
 facet normal -0.286233 -0.584386 -0.759318
  outer loop
   vertex -0.017615 0.14234 0.016763
   vertex -0.018318 0.140174 0.018695
   vertex -0.020462 0.142083 0.018034
  endloop
 endfacet
 facet normal -0.393627 -0.662685 -0.637108
  outer loop
   vertex -0.020462 0.142083 0.018034
   vertex -0.018318 0.140174 0.018695
   vertex -0.02083 0.140174 0.020247
  endloop
 endfacet
 facet normal -0.342493 -0.758552 -0.554344
  outer loop
   vertex -0.018318 0.140174 0.018695
   vertex -0.018754 0.138834 0.020798
   vertex -0.02083 0.140174 0.020247
  endloop
 endfacet
 facet normal 0.723015 0.412034 -0.554506
  outer loop
   vertex -0.007863 0.150292 0.020247
   vertex -0.009895 0.151769 0.018695
   vertex -0.008754 0.152597 0.020798
  endloop
 endfacet
 facet normal 0.789589 0.148568 -0.59538
  outer loop
   vertex -0.007484 0.14734 0.020013
   vertex -0.009282 0.148965 0.018034
   vertex -0.007863 0.150292 0.020247
  endloop
 endfacet
 facet normal 0.789589 -0.148568 -0.59538
  outer loop
   vertex -0.007863 0.144388 0.020247
   vertex -0.009282 0.145715 0.018034
   vertex -0.007484 0.14734 0.020013
  endloop
 endfacet
 facet normal 0.708089 0.304936 -0.636886
  outer loop
   vertex -0.007863 0.150292 0.020247
   vertex -0.009282 0.148965 0.018034
   vertex -0.009895 0.151769 0.018695
  endloop
 endfacet
 facet normal 0.574948 0.304695 -0.759339
  outer loop
   vertex -0.009282 0.148965 0.018034
   vertex -0.011737 0.15043 0.016763
   vertex -0.009895 0.151769 0.018695
  endloop
 endfacet
 facet normal 0.740143 0 -0.672449
  outer loop
   vertex -0.007484 0.14734 0.020013
   vertex -0.009282 0.145715 0.018034
   vertex -0.009282 0.148965 0.018034
  endloop
 endfacet
 facet normal 0.607028 0 -0.794681
  outer loop
   vertex -0.009282 0.145715 0.018034
   vertex -0.011518 0.14734 0.016326
   vertex -0.009282 0.148965 0.018034
  endloop
 endfacet
 facet normal 0.525774 0.155534 -0.836284
  outer loop
   vertex -0.009282 0.148965 0.018034
   vertex -0.011518 0.14734 0.016326
   vertex -0.011737 0.15043 0.016763
  endloop
 endfacet
 facet normal 0.370096 0.155752 -0.915844
  outer loop
   vertex -0.011518 0.14734 0.016326
   vertex -0.013958 0.148816 0.015591
   vertex -0.011737 0.15043 0.016763
  endloop
 endfacet
 facet normal 0.708089 -0.304936 -0.636886
  outer loop
   vertex -0.007863 0.144388 0.020247
   vertex -0.009895 0.142911 0.018695
   vertex -0.009282 0.145715 0.018034
  endloop
 endfacet
 facet normal 0.574948 -0.304695 -0.759339
  outer loop
   vertex -0.009895 0.142911 0.018695
   vertex -0.011737 0.14425 0.016763
   vertex -0.009282 0.145715 0.018034
  endloop
 endfacet
 facet normal 0.525774 -0.155534 -0.836284
  outer loop
   vertex -0.009282 0.145715 0.018034
   vertex -0.011737 0.14425 0.016763
   vertex -0.011518 0.14734 0.016326
  endloop
 endfacet
 facet normal 0.370096 -0.155752 -0.915844
  outer loop
   vertex -0.011737 0.14425 0.016763
   vertex -0.013958 0.145864 0.015591
   vertex -0.011518 0.14734 0.016326
  endloop
 endfacet
 facet normal 0.288428 0 -0.957502
  outer loop
   vertex -0.011518 0.14734 0.016326
   vertex -0.013958 0.145864 0.015591
   vertex -0.013958 0.148816 0.015591
  endloop
 endfacet
 facet normal 0.156037 0 -0.987751
  outer loop
   vertex -0.013958 0.145864 0.015591
   vertex -0.01599 0.14734 0.01527
   vertex -0.013958 0.148816 0.015591
  endloop
 endfacet
 facet normal -0.168666 -0.815046 -0.554303
  outer loop
   vertex -0.018318 0.140174 0.018695
   vertex -0.016286 0.138698 0.020247
   vertex -0.018754 0.138834 0.020798
  endloop
 endfacet
 facet normal -0.112009 -0.640965 -0.759354
  outer loop
   vertex -0.017615 0.14234 0.016763
   vertex -0.015462 0.140458 0.018034
   vertex -0.018318 0.140174 0.018695
  endloop
 endfacet
 facet normal -0.0336945 -0.400135 -0.915836
  outer loop
   vertex -0.016766 0.144951 0.015591
   vertex -0.014608 0.143087 0.016326
   vertex -0.017615 0.14234 0.016763
  endloop
 endfacet
 facet normal -0.0710868 -0.767617 -0.636955
  outer loop
   vertex -0.018318 0.140174 0.018695
   vertex -0.015462 0.140458 0.018034
   vertex -0.016286 0.138698 0.020247
  endloop
 endfacet
 facet normal 0.102735 -0.796801 -0.595444
  outer loop
   vertex -0.015462 0.140458 0.018034
   vertex -0.013361 0.13925 0.020013
   vertex -0.016286 0.138698 0.020247
  endloop
 endfacet
 facet normal 0.0146149 -0.548074 -0.836302
  outer loop
   vertex -0.017615 0.14234 0.016763
   vertex -0.014608 0.143087 0.016326
   vertex -0.015462 0.140458 0.018034
  endloop
 endfacet
 facet normal 0.187559 -0.577248 -0.794737
  outer loop
   vertex -0.014608 0.143087 0.016326
   vertex -0.012372 0.141462 0.018034
   vertex -0.015462 0.140458 0.018034
  endloop
 endfacet
 facet normal 0.228709 -0.703897 -0.672474
  outer loop
   vertex -0.015462 0.140458 0.018034
   vertex -0.012372 0.141462 0.018034
   vertex -0.013361 0.13925 0.020013
  endloop
 endfacet
 facet normal 0.38541 -0.704977 -0.595371
  outer loop
   vertex -0.012372 0.141462 0.018034
   vertex -0.010671 0.140523 0.020247
   vertex -0.013361 0.13925 0.020013
  endloop
 endfacet
 facet normal 0.0891868 -0.274301 -0.957499
  outer loop
   vertex -0.016766 0.144951 0.015591
   vertex -0.013958 0.145864 0.015591
   vertex -0.014608 0.143087 0.016326
  endloop
 endfacet
 facet normal 0.262485 -0.303841 -0.915851
  outer loop
   vertex -0.013958 0.145864 0.015591
   vertex -0.011737 0.14425 0.016763
   vertex -0.014608 0.143087 0.016326
  endloop
 endfacet
 facet normal 0.310374 -0.451949 -0.836307
  outer loop
   vertex -0.014608 0.143087 0.016326
   vertex -0.011737 0.14425 0.016763
   vertex -0.012372 0.141462 0.018034
  endloop
 endfacet
 facet normal 0.467426 -0.452641 -0.759361
  outer loop
   vertex -0.011737 0.14425 0.016763
   vertex -0.009895 0.142911 0.018695
   vertex -0.012372 0.141462 0.018034
  endloop
 endfacet
 facet normal 0.508799 -0.579247 -0.636864
  outer loop
   vertex -0.012372 0.141462 0.018034
   vertex -0.009895 0.142911 0.018695
   vertex -0.010671 0.140523 0.020247
  endloop
 endfacet
 facet normal 0.61533 -0.560308 -0.554459
  outer loop
   vertex -0.009895 0.142911 0.018695
   vertex -0.008754 0.142083 0.020798
   vertex -0.010671 0.140523 0.020247
  endloop
 endfacet
endsolid ExportedfromBlender-3.5.1
