solid ExportedfromBlender-3.5.1
 facet normal 0.0482486 -0.148392 -0.987751
  outer loop
   vertex -0.0263 0.35916 -0.02589
   vertex -0.024268 0.357684 -0.025569
   vertex -0.027076 0.356771 -0.025569
  endloop
 endfacet
 facet normal 0.723015 -0.412034 -0.554506
  outer loop
   vertex -0.019064 0.353903 -0.020362
   vertex -0.020205 0.354731 -0.022465
   vertex -0.018173 0.356208 -0.020913
  endloop
 endfacet
 facet normal -0.126271 -0.0917039 -0.987748
  outer loop
   vertex -0.0263 0.35916 -0.02589
   vertex -0.027076 0.356771 -0.025569
   vertex -0.028811 0.35916 -0.025569
  endloop
 endfacet
 facet normal -0.126271 0.0917039 -0.987748
  outer loop
   vertex -0.0263 0.35916 -0.02589
   vertex -0.028811 0.35916 -0.025569
   vertex -0.027076 0.361549 -0.025569
  endloop
 endfacet
 facet normal 0.0482486 0.148392 -0.987751
  outer loop
   vertex -0.0263 0.35916 -0.02589
   vertex -0.027076 0.361549 -0.025569
   vertex -0.024268 0.360636 -0.025569
  endloop
 endfacet
 facet normal 0.819189 -0.412026 -0.398954
  outer loop
   vertex -0.019064 0.353903 -0.020362
   vertex -0.018173 0.356208 -0.020913
   vertex -0.017693 0.354731 -0.018402
  endloop
 endfacet
 facet normal -0.138975 -0.90647 -0.398746
  outer loop
   vertex -0.029064 0.350654 -0.020362
   vertex -0.026596 0.350518 -0.020913
   vertex -0.027852 0.349606 -0.018402
  endloop
 endfacet
 facet normal -0.905177 -0.147939 -0.398459
  outer loop
   vertex -0.035244 0.35916 -0.020362
   vertex -0.034611 0.356771 -0.020913
   vertex -0.035866 0.357684 -0.018401
  endloop
 endfacet
 facet normal -0.420269 0.815078 -0.398776
  outer loop
   vertex -0.029064 0.367666 -0.020362
   vertex -0.03114 0.366326 -0.020913
   vertex -0.03066 0.367802 -0.018402
  endloop
 endfacet
 facet normal 0.645038 0.651744 -0.398942
  outer loop
   vertex -0.019064 0.364417 -0.020362
   vertex -0.020981 0.365977 -0.020913
   vertex -0.019428 0.365977 -0.018402
  endloop
 endfacet
 facet normal 0.771063 -0.560215 -0.302688
  outer loop
   vertex -0.019064 0.353903 -0.020362
   vertex -0.017693 0.354731 -0.018402
   vertex -0.019428 0.352343 -0.018402
  endloop
 endfacet
 facet normal -0.294416 -0.906493 -0.302638
  outer loop
   vertex -0.029064 0.350654 -0.020362
   vertex -0.027852 0.349606 -0.018402
   vertex -0.03066 0.350518 -0.018402
  endloop
 endfacet
 facet normal -0.9532 0 -0.302341
  outer loop
   vertex -0.035244 0.35916 -0.020362
   vertex -0.035866 0.357684 -0.018401
   vertex -0.035866 0.360636 -0.018401
  endloop
 endfacet
 facet normal -0.294416 0.906493 -0.302638
  outer loop
   vertex -0.029064 0.367666 -0.020362
   vertex -0.03066 0.367802 -0.018402
   vertex -0.027852 0.368714 -0.018402
  endloop
 endfacet
 facet normal 0.771063 0.560215 -0.302688
  outer loop
   vertex -0.019064 0.364417 -0.020362
   vertex -0.019428 0.365977 -0.018402
   vertex -0.017693 0.363589 -0.018402
  endloop
 endfacet
 facet normal 0.342493 -0.758552 0.554344
  outer loop
   vertex -0.023536 0.350654 -0.011418
   vertex -0.02146 0.351994 -0.010867
   vertex -0.023972 0.351994 -0.009315
  endloop
 endfacet
 facet normal -0.61533 -0.560308 0.554459
  outer loop
   vertex -0.033536 0.353903 -0.011418
   vertex -0.031619 0.352343 -0.010867
   vertex -0.032395 0.354731 -0.009315
  endloop
 endfacet
 facet normal -0.723015 0.412034 0.554506
  outer loop
   vertex -0.033536 0.364417 -0.011418
   vertex -0.034427 0.362112 -0.010867
   vertex -0.032395 0.363589 -0.009315
  endloop
 endfacet
 facet normal 0.168666 0.815046 0.554303
  outer loop
   vertex -0.023536 0.367666 -0.011418
   vertex -0.026004 0.367802 -0.010867
   vertex -0.023972 0.366326 -0.009315
  endloop
 endfacet
 facet normal 0.827124 0.091254 0.554562
  outer loop
   vertex -0.017356 0.35916 -0.011418
   vertex -0.017989 0.361549 -0.010867
   vertex -0.018766 0.35916 -0.009315
  endloop
 endfacet
 facet normal 0.126271 0.0917039 0.987748
  outer loop
   vertex -0.023789 0.35916 -0.006211
   vertex -0.025524 0.361549 -0.006211
   vertex -0.0263 0.35916 -0.00589
  endloop
 endfacet
 facet normal 0.390899 0.0914587 0.915878
  outer loop
   vertex -0.021043 0.35916 -0.007383
   vertex -0.022682 0.361789 -0.006946
   vertex -0.023789 0.35916 -0.006211
  endloop
 endfacet
 facet normal 0.644269 0.0913996 0.759317
  outer loop
   vertex -0.018766 0.35916 -0.009315
   vertex -0.019918 0.361789 -0.008654
   vertex -0.021043 0.35916 -0.007383
  endloop
 endfacet
 facet normal 0.233325 0.169451 0.957521
  outer loop
   vertex -0.023789 0.35916 -0.006211
   vertex -0.022682 0.361789 -0.006946
   vertex -0.025524 0.361549 -0.006211
  endloop
 endfacet
 facet normal 0.207851 0.343516 0.915858
  outer loop
   vertex -0.022682 0.361789 -0.006946
   vertex -0.024675 0.36416 -0.007383
   vertex -0.025524 0.361549 -0.006211
  endloop
 endfacet
 facet normal 0.516783 0.183167 0.836293
  outer loop
   vertex -0.021043 0.35916 -0.007383
   vertex -0.019918 0.361789 -0.008654
   vertex -0.022682 0.361789 -0.006946
  endloop
 endfacet
 facet normal 0.491058 0.356895 0.794662
  outer loop
   vertex -0.019918 0.361789 -0.008654
   vertex -0.021828 0.364417 -0.008654
   vertex -0.022682 0.361789 -0.006946
  endloop
 endfacet
 facet normal 0.334054 0.43492 0.836213
  outer loop
   vertex -0.022682 0.361789 -0.006946
   vertex -0.021828 0.364417 -0.008654
   vertex -0.024675 0.36416 -0.007383
  endloop
 endfacet
 facet normal 0.286233 0.584386 0.759318
  outer loop
   vertex -0.021828 0.364417 -0.008654
   vertex -0.023972 0.366326 -0.009315
   vertex -0.024675 0.36416 -0.007383
  endloop
 endfacet
 facet normal 0.751958 0.169318 0.637095
  outer loop
   vertex -0.018766 0.35916 -0.009315
   vertex -0.017989 0.361549 -0.010867
   vertex -0.019918 0.361789 -0.008654
  endloop
 endfacet
 facet normal 0.725985 0.343961 0.595514
  outer loop
   vertex -0.017989 0.361549 -0.010867
   vertex -0.019418 0.36416 -0.010633
   vertex -0.019918 0.361789 -0.008654
  endloop
 endfacet
 facet normal 0.598657 0.435097 0.672533
  outer loop
   vertex -0.019918 0.361789 -0.008654
   vertex -0.019418 0.36416 -0.010633
   vertex -0.021828 0.364417 -0.008654
  endloop
 endfacet
 facet normal 0.551379 0.584158 0.595601
  outer loop
   vertex -0.019418 0.36416 -0.010633
   vertex -0.02146 0.366326 -0.010867
   vertex -0.021828 0.364417 -0.008654
  endloop
 endfacet
 facet normal 0.393627 0.662685 0.637108
  outer loop
   vertex -0.021828 0.364417 -0.008654
   vertex -0.02146 0.366326 -0.010867
   vertex -0.023972 0.366326 -0.009315
  endloop
 endfacet
 facet normal 0.342493 0.758552 0.554344
  outer loop
   vertex -0.02146 0.366326 -0.010867
   vertex -0.023536 0.367666 -0.011418
   vertex -0.023972 0.366326 -0.009315
  endloop
 endfacet
 facet normal -0.0482486 0.148392 0.987751
  outer loop
   vertex -0.025524 0.361549 -0.006211
   vertex -0.028332 0.360636 -0.006211
   vertex -0.0263 0.35916 -0.00589
  endloop
 endfacet
 facet normal 0.0336945 0.400135 0.915836
  outer loop
   vertex -0.024675 0.36416 -0.007383
   vertex -0.027682 0.363413 -0.006946
   vertex -0.025524 0.361549 -0.006211
  endloop
 endfacet
 facet normal 0.112009 0.640965 0.759354
  outer loop
   vertex -0.023972 0.366326 -0.009315
   vertex -0.026828 0.366042 -0.008654
   vertex -0.024675 0.36416 -0.007383
  endloop
 endfacet
 facet normal -0.0891868 0.274301 0.957499
  outer loop
   vertex -0.025524 0.361549 -0.006211
   vertex -0.027682 0.363413 -0.006946
   vertex -0.028332 0.360636 -0.006211
  endloop
 endfacet
 facet normal -0.262485 0.303841 0.915851
  outer loop
   vertex -0.027682 0.363413 -0.006946
   vertex -0.030553 0.36225 -0.007383
   vertex -0.028332 0.360636 -0.006211
  endloop
 endfacet
 facet normal -0.0146149 0.548074 0.836302
  outer loop
   vertex -0.024675 0.36416 -0.007383
   vertex -0.026828 0.366042 -0.008654
   vertex -0.027682 0.363413 -0.006946
  endloop
 endfacet
 facet normal -0.187559 0.577248 0.794737
  outer loop
   vertex -0.026828 0.366042 -0.008654
   vertex -0.029918 0.365038 -0.008654
   vertex -0.027682 0.363413 -0.006946
  endloop
 endfacet
 facet normal -0.310374 0.451949 0.836307
  outer loop
   vertex -0.027682 0.363413 -0.006946
   vertex -0.029918 0.365038 -0.008654
   vertex -0.030553 0.36225 -0.007383
  endloop
 endfacet
 facet normal -0.467426 0.452641 0.759361
  outer loop
   vertex -0.029918 0.365038 -0.008654
   vertex -0.032395 0.363589 -0.009315
   vertex -0.030553 0.36225 -0.007383
  endloop
 endfacet
 facet normal 0.0710868 0.767617 0.636955
  outer loop
   vertex -0.023972 0.366326 -0.009315
   vertex -0.026004 0.367802 -0.010867
   vertex -0.026828 0.366042 -0.008654
  endloop
 endfacet
 facet normal -0.102735 0.796801 0.595444
  outer loop
   vertex -0.026004 0.367802 -0.010867
   vertex -0.028929 0.36725 -0.010633
   vertex -0.026828 0.366042 -0.008654
  endloop
 endfacet
 facet normal -0.228709 0.703897 0.672474
  outer loop
   vertex -0.026828 0.366042 -0.008654
   vertex -0.028929 0.36725 -0.010633
   vertex -0.029918 0.365038 -0.008654
  endloop
 endfacet
 facet normal -0.38541 0.704977 0.595371
  outer loop
   vertex -0.028929 0.36725 -0.010633
   vertex -0.031619 0.365977 -0.010867
   vertex -0.029918 0.365038 -0.008654
  endloop
 endfacet
 facet normal -0.508799 0.579247 0.636864
  outer loop
   vertex -0.029918 0.365038 -0.008654
   vertex -0.031619 0.365977 -0.010867
   vertex -0.032395 0.363589 -0.009315
  endloop
 endfacet
 facet normal -0.61533 0.560308 0.554459
  outer loop
   vertex -0.031619 0.365977 -0.010867
   vertex -0.033536 0.364417 -0.011418
   vertex -0.032395 0.363589 -0.009315
  endloop
 endfacet
 facet normal -0.156037 0 0.987751
  outer loop
   vertex -0.028332 0.360636 -0.006211
   vertex -0.028332 0.357684 -0.006211
   vertex -0.0263 0.35916 -0.00589
  endloop
 endfacet
 facet normal -0.370096 0.155752 0.915844
  outer loop
   vertex -0.030553 0.36225 -0.007383
   vertex -0.030772 0.35916 -0.006946
   vertex -0.028332 0.360636 -0.006211
  endloop
 endfacet
 facet normal -0.574948 0.304695 0.759339
  outer loop
   vertex -0.032395 0.363589 -0.009315
   vertex -0.033008 0.360785 -0.008654
   vertex -0.030553 0.36225 -0.007383
  endloop
 endfacet
 facet normal -0.288428 0 0.957502
  outer loop
   vertex -0.028332 0.360636 -0.006211
   vertex -0.030772 0.35916 -0.006946
   vertex -0.028332 0.357684 -0.006211
  endloop
 endfacet
 facet normal -0.370096 -0.155752 0.915844
  outer loop
   vertex -0.030772 0.35916 -0.006946
   vertex -0.030553 0.35607 -0.007383
   vertex -0.028332 0.357684 -0.006211
  endloop
 endfacet
 facet normal -0.525774 0.155534 0.836284
  outer loop
   vertex -0.030553 0.36225 -0.007383
   vertex -0.033008 0.360785 -0.008654
   vertex -0.030772 0.35916 -0.006946
  endloop
 endfacet
 facet normal -0.607028 0 0.794681
  outer loop
   vertex -0.033008 0.360785 -0.008654
   vertex -0.033008 0.357535 -0.008654
   vertex -0.030772 0.35916 -0.006946
  endloop
 endfacet
 facet normal -0.525774 -0.155534 0.836284
  outer loop
   vertex -0.030772 0.35916 -0.006946
   vertex -0.033008 0.357535 -0.008654
   vertex -0.030553 0.35607 -0.007383
  endloop
 endfacet
 facet normal -0.574948 -0.304695 0.759339
  outer loop
   vertex -0.033008 0.357535 -0.008654
   vertex -0.032395 0.354731 -0.009315
   vertex -0.030553 0.35607 -0.007383
  endloop
 endfacet
 facet normal -0.708089 0.304936 0.636886
  outer loop
   vertex -0.032395 0.363589 -0.009315
   vertex -0.034427 0.362112 -0.010867
   vertex -0.033008 0.360785 -0.008654
  endloop
 endfacet
 facet normal -0.789589 0.148568 0.59538
  outer loop
   vertex -0.034427 0.362112 -0.010867
   vertex -0.034806 0.35916 -0.010633
   vertex -0.033008 0.360785 -0.008654
  endloop
 endfacet
 facet normal -0.740143 0 0.672449
  outer loop
   vertex -0.033008 0.360785 -0.008654
   vertex -0.034806 0.35916 -0.010633
   vertex -0.033008 0.357535 -0.008654
  endloop
 endfacet
 facet normal -0.789589 -0.148568 0.59538
  outer loop
   vertex -0.034806 0.35916 -0.010633
   vertex -0.034427 0.356208 -0.010867
   vertex -0.033008 0.357535 -0.008654
  endloop
 endfacet
 facet normal -0.708089 -0.304936 0.636886
  outer loop
   vertex -0.033008 0.357535 -0.008654
   vertex -0.034427 0.356208 -0.010867
   vertex -0.032395 0.354731 -0.009315
  endloop
 endfacet
 facet normal -0.723015 -0.412034 0.554506
  outer loop
   vertex -0.034427 0.356208 -0.010867
   vertex -0.033536 0.353903 -0.011418
   vertex -0.032395 0.354731 -0.009315
  endloop
 endfacet
 facet normal -0.0482486 -0.148392 0.987751
  outer loop
   vertex -0.028332 0.357684 -0.006211
   vertex -0.025524 0.356771 -0.006211
   vertex -0.0263 0.35916 -0.00589
  endloop
 endfacet
 facet normal -0.262485 -0.303841 0.915851
  outer loop
   vertex -0.030553 0.35607 -0.007383
   vertex -0.027682 0.354907 -0.006946
   vertex -0.028332 0.357684 -0.006211
  endloop
 endfacet
 facet normal -0.467426 -0.452641 0.759361
  outer loop
   vertex -0.032395 0.354731 -0.009315
   vertex -0.029918 0.353282 -0.008654
   vertex -0.030553 0.35607 -0.007383
  endloop
 endfacet
 facet normal -0.0891868 -0.274301 0.957499
  outer loop
   vertex -0.028332 0.357684 -0.006211
   vertex -0.027682 0.354907 -0.006946
   vertex -0.025524 0.356771 -0.006211
  endloop
 endfacet
 facet normal 0.0336945 -0.400135 0.915836
  outer loop
   vertex -0.027682 0.354907 -0.006946
   vertex -0.024675 0.35416 -0.007383
   vertex -0.025524 0.356771 -0.006211
  endloop
 endfacet
 facet normal -0.310374 -0.451949 0.836307
  outer loop
   vertex -0.030553 0.35607 -0.007383
   vertex -0.029918 0.353282 -0.008654
   vertex -0.027682 0.354907 -0.006946
  endloop
 endfacet
 facet normal -0.187559 -0.577248 0.794737
  outer loop
   vertex -0.029918 0.353282 -0.008654
   vertex -0.026828 0.352278 -0.008654
   vertex -0.027682 0.354907 -0.006946
  endloop
 endfacet
 facet normal -0.0146149 -0.548074 0.836302
  outer loop
   vertex -0.027682 0.354907 -0.006946
   vertex -0.026828 0.352278 -0.008654
   vertex -0.024675 0.35416 -0.007383
  endloop
 endfacet
 facet normal 0.112009 -0.640965 0.759354
  outer loop
   vertex -0.026828 0.352278 -0.008654
   vertex -0.023972 0.351994 -0.009315
   vertex -0.024675 0.35416 -0.007383
  endloop
 endfacet
 facet normal -0.508799 -0.579247 0.636864
  outer loop
   vertex -0.032395 0.354731 -0.009315
   vertex -0.031619 0.352343 -0.010867
   vertex -0.029918 0.353282 -0.008654
  endloop
 endfacet
 facet normal -0.38541 -0.704977 0.595371
  outer loop
   vertex -0.031619 0.352343 -0.010867
   vertex -0.028929 0.35107 -0.010633
   vertex -0.029918 0.353282 -0.008654
  endloop
 endfacet
 facet normal -0.228709 -0.703897 0.672474
  outer loop
   vertex -0.029918 0.353282 -0.008654
   vertex -0.028929 0.35107 -0.010633
   vertex -0.026828 0.352278 -0.008654
  endloop
 endfacet
 facet normal -0.102735 -0.796801 0.595444
  outer loop
   vertex -0.028929 0.35107 -0.010633
   vertex -0.026004 0.350518 -0.010867
   vertex -0.026828 0.352278 -0.008654
  endloop
 endfacet
 facet normal 0.0710868 -0.767617 0.636955
  outer loop
   vertex -0.026828 0.352278 -0.008654
   vertex -0.026004 0.350518 -0.010867
   vertex -0.023972 0.351994 -0.009315
  endloop
 endfacet
 facet normal 0.168666 -0.815046 0.554303
  outer loop
   vertex -0.026004 0.350518 -0.010867
   vertex -0.023536 0.350654 -0.011418
   vertex -0.023972 0.351994 -0.009315
  endloop
 endfacet
 facet normal 0.126271 -0.0917039 0.987748
  outer loop
   vertex -0.025524 0.356771 -0.006211
   vertex -0.023789 0.35916 -0.006211
   vertex -0.0263 0.35916 -0.00589
  endloop
 endfacet
 facet normal 0.207851 -0.343516 0.915858
  outer loop
   vertex -0.024675 0.35416 -0.007383
   vertex -0.022682 0.356531 -0.006946
   vertex -0.025524 0.356771 -0.006211
  endloop
 endfacet
 facet normal 0.286233 -0.584386 0.759318
  outer loop
   vertex -0.023972 0.351994 -0.009315
   vertex -0.021828 0.353903 -0.008654
   vertex -0.024675 0.35416 -0.007383
  endloop
 endfacet
 facet normal 0.233325 -0.169451 0.957521
  outer loop
   vertex -0.025524 0.356771 -0.006211
   vertex -0.022682 0.356531 -0.006946
   vertex -0.023789 0.35916 -0.006211
  endloop
 endfacet
 facet normal 0.390899 -0.0914587 0.915878
  outer loop
   vertex -0.022682 0.356531 -0.006946
   vertex -0.021043 0.35916 -0.007383
   vertex -0.023789 0.35916 -0.006211
  endloop
 endfacet
 facet normal 0.334054 -0.43492 0.836213
  outer loop
   vertex -0.024675 0.35416 -0.007383
   vertex -0.021828 0.353903 -0.008654
   vertex -0.022682 0.356531 -0.006946
  endloop
 endfacet
 facet normal 0.491058 -0.356895 0.794662
  outer loop
   vertex -0.021828 0.353903 -0.008654
   vertex -0.019918 0.356531 -0.008654
   vertex -0.022682 0.356531 -0.006946
  endloop
 endfacet
 facet normal 0.516783 -0.183167 0.836293
  outer loop
   vertex -0.022682 0.356531 -0.006946
   vertex -0.019918 0.356531 -0.008654
   vertex -0.021043 0.35916 -0.007383
  endloop
 endfacet
 facet normal 0.644269 -0.0913996 0.759317
  outer loop
   vertex -0.019918 0.356531 -0.008654
   vertex -0.018766 0.35916 -0.009315
   vertex -0.021043 0.35916 -0.007383
  endloop
 endfacet
 facet normal 0.393627 -0.662685 0.637108
  outer loop
   vertex -0.023972 0.351994 -0.009315
   vertex -0.02146 0.351994 -0.010867
   vertex -0.021828 0.353903 -0.008654
  endloop
 endfacet
 facet normal 0.551379 -0.584158 0.595601
  outer loop
   vertex -0.02146 0.351994 -0.010867
   vertex -0.019418 0.35416 -0.010633
   vertex -0.021828 0.353903 -0.008654
  endloop
 endfacet
 facet normal 0.598657 -0.435097 0.672533
  outer loop
   vertex -0.021828 0.353903 -0.008654
   vertex -0.019418 0.35416 -0.010633
   vertex -0.019918 0.356531 -0.008654
  endloop
 endfacet
 facet normal 0.725985 -0.343961 0.595514
  outer loop
   vertex -0.019418 0.35416 -0.010633
   vertex -0.017989 0.356771 -0.010867
   vertex -0.019918 0.356531 -0.008654
  endloop
 endfacet
 facet normal 0.751958 -0.169318 0.637095
  outer loop
   vertex -0.019918 0.356531 -0.008654
   vertex -0.017989 0.356771 -0.010867
   vertex -0.018766 0.35916 -0.009315
  endloop
 endfacet
 facet normal 0.827124 -0.091254 0.554562
  outer loop
   vertex -0.017989 0.356771 -0.010867
   vertex -0.017356 0.35916 -0.011418
   vertex -0.018766 0.35916 -0.009315
  endloop
 endfacet
 facet normal 0.905177 0.147939 0.398459
  outer loop
   vertex -0.016734 0.360636 -0.013379
   vertex -0.017989 0.361549 -0.010867
   vertex -0.017356 0.35916 -0.011418
  endloop
 endfacet
 facet normal 0.93657 0.303801 0.17476
  outer loop
   vertex -0.016789 0.36225 -0.01589
   vertex -0.017682 0.363413 -0.013126
   vertex -0.016734 0.360636 -0.013379
  endloop
 endfacet
 facet normal 0.888212 0.452708 -0.078331
  outer loop
   vertex -0.017693 0.363589 -0.018402
   vertex -0.01821 0.365038 -0.01589
   vertex -0.016789 0.36225 -0.01589
  endloop
 endfacet
 facet normal 0.89641 0.274294 0.348155
  outer loop
   vertex -0.016734 0.360636 -0.013379
   vertex -0.017682 0.363413 -0.013126
   vertex -0.017989 0.361549 -0.010867
  endloop
 endfacet
 facet normal 0.803858 0.400541 0.439749
  outer loop
   vertex -0.017682 0.363413 -0.013126
   vertex -0.019418 0.36416 -0.010633
   vertex -0.017989 0.361549 -0.010867
  endloop
 endfacet
 facet normal 0.886806 0.451991 0.0963284
  outer loop
   vertex -0.016789 0.36225 -0.01589
   vertex -0.01821 0.365038 -0.01589
   vertex -0.017682 0.363413 -0.013126
  endloop
 endfacet
 facet normal 0.794662 0.577331 0.18762
  outer loop
   vertex -0.01821 0.365038 -0.01589
   vertex -0.019592 0.366042 -0.013126
   vertex -0.017682 0.363413 -0.013126
  endloop
 endfacet
 facet normal 0.754436 0.548107 0.361117
  outer loop
   vertex -0.017682 0.363413 -0.013126
   vertex -0.019592 0.366042 -0.013126
   vertex -0.019418 0.36416 -0.010633
  endloop
 endfacet
 facet normal 0.629279 0.640767 0.439803
  outer loop
   vertex -0.019592 0.366042 -0.013126
   vertex -0.02146 0.366326 -0.010867
   vertex -0.019418 0.36416 -0.010633
  endloop
 endfacet
 facet normal 0.797233 0.579229 -0.170037
  outer loop
   vertex -0.017693 0.363589 -0.018402
   vertex -0.019428 0.365977 -0.018402
   vertex -0.01821 0.365038 -0.01589
  endloop
 endfacet
 facet normal 0.704936 0.704936 -0.0782949
  outer loop
   vertex -0.019428 0.365977 -0.018402
   vertex -0.020422 0.36725 -0.01589
   vertex -0.01821 0.365038 -0.01589
  endloop
 endfacet
 facet normal 0.703824 0.703824 0.0962537
  outer loop
   vertex -0.01821 0.365038 -0.01589
   vertex -0.020422 0.36725 -0.01589
   vertex -0.019592 0.366042 -0.013126
  endloop
 endfacet
 facet normal 0.578519 0.796783 0.174509
  outer loop
   vertex -0.020422 0.36725 -0.01589
   vertex -0.02194 0.367802 -0.013378
   vertex -0.019592 0.366042 -0.013126
  endloop
 endfacet
 facet normal 0.537986 0.767602 0.348366
  outer loop
   vertex -0.019592 0.366042 -0.013126
   vertex -0.02194 0.367802 -0.013378
   vertex -0.02146 0.366326 -0.010867
  endloop
 endfacet
 facet normal 0.420269 0.815078 0.398776
  outer loop
   vertex -0.02194 0.367802 -0.013378
   vertex -0.023536 0.367666 -0.011418
   vertex -0.02146 0.366326 -0.010867
  endloop
 endfacet
 facet normal 0.138975 0.90647 0.398746
  outer loop
   vertex -0.024748 0.368714 -0.013378
   vertex -0.026004 0.367802 -0.010867
   vertex -0.023536 0.367666 -0.011418
  endloop
 endfacet
 facet normal 0.000555151 0.98466 0.174481
  outer loop
   vertex -0.0263 0.36916 -0.01589
   vertex -0.027682 0.368671 -0.013126
   vertex -0.024748 0.368714 -0.013378
  endloop
 endfacet
 facet normal -0.155824 0.984657 -0.07855
  outer loop
   vertex -0.027852 0.368714 -0.018402
   vertex -0.02939 0.368671 -0.01589
   vertex -0.0263 0.36916 -0.01589
  endloop
 endfacet
 facet normal 0.0161962 0.937175 0.348485
  outer loop
   vertex -0.024748 0.368714 -0.013378
   vertex -0.027682 0.368671 -0.013126
   vertex -0.026004 0.367802 -0.010867
  endloop
 endfacet
 facet normal -0.132412 0.888171 0.440021
  outer loop
   vertex -0.027682 0.368671 -0.013126
   vertex -0.028929 0.36725 -0.010633
   vertex -0.026004 0.367802 -0.010867
  endloop
 endfacet
 facet normal -0.155583 0.983133 0.0961419
  outer loop
   vertex -0.0263 0.36916 -0.01589
   vertex -0.02939 0.368671 -0.01589
   vertex -0.027682 0.368671 -0.013126
  endloop
 endfacet
 facet normal -0.303796 0.934059 0.187729
  outer loop
   vertex -0.02939 0.368671 -0.01589
   vertex -0.030772 0.367666 -0.013126
   vertex -0.027682 0.368671 -0.013126
  endloop
 endfacet
 facet normal -0.288415 0.886769 0.361189
  outer loop
   vertex -0.027682 0.368671 -0.013126
   vertex -0.030772 0.367666 -0.013126
   vertex -0.028929 0.36725 -0.010633
  endloop
 endfacet
 facet normal -0.415138 0.796394 0.439791
  outer loop
   vertex -0.030772 0.367666 -0.013126
   vertex -0.031619 0.365977 -0.010867
   vertex -0.028929 0.36725 -0.010633
  endloop
 endfacet
 facet normal -0.304389 0.937197 -0.170322
  outer loop
   vertex -0.027852 0.368714 -0.018402
   vertex -0.03066 0.367802 -0.018402
   vertex -0.02939 0.368671 -0.01589
  endloop
 endfacet
 facet normal -0.452705 0.888208 -0.0783901
  outer loop
   vertex -0.03066 0.367802 -0.018402
   vertex -0.032178 0.36725 -0.01589
   vertex -0.02939 0.368671 -0.01589
  endloop
 endfacet
 facet normal -0.451986 0.886796 0.0964489
  outer loop
   vertex -0.02939 0.368671 -0.01589
   vertex -0.032178 0.36725 -0.01589
   vertex -0.030772 0.367666 -0.013126
  endloop
 endfacet
 facet normal -0.578874 0.796508 0.174584
  outer loop
   vertex -0.032178 0.36725 -0.01589
   vertex -0.033172 0.365977 -0.013378
   vertex -0.030772 0.367666 -0.013126
  endloop
 endfacet
 facet normal -0.563623 0.748876 0.348589
  outer loop
   vertex -0.030772 0.367666 -0.013126
   vertex -0.033172 0.365977 -0.013378
   vertex -0.031619 0.365977 -0.010867
  endloop
 endfacet
 facet normal -0.645038 0.651744 0.398942
  outer loop
   vertex -0.033172 0.365977 -0.013378
   vertex -0.033536 0.364417 -0.011418
   vertex -0.031619 0.365977 -0.010867
  endloop
 endfacet
 facet normal -0.819189 0.412026 0.398954
  outer loop
   vertex -0.034907 0.363589 -0.013378
   vertex -0.034427 0.362112 -0.010867
   vertex -0.033536 0.364417 -0.011418
  endloop
 endfacet
 facet normal -0.936352 0.304548 0.174631
  outer loop
   vertex -0.035811 0.36225 -0.01589
   vertex -0.035772 0.360785 -0.013126
   vertex -0.034907 0.363589 -0.013378
  endloop
 endfacet
 facet normal -0.984653 0.155824 -0.0785916
  outer loop
   vertex -0.035866 0.360636 -0.018401
   vertex -0.0363 0.35916 -0.01589
   vertex -0.035811 0.36225 -0.01589
  endloop
 endfacet
 facet normal -0.886309 0.304753 0.348685
  outer loop
   vertex -0.034907 0.363589 -0.013378
   vertex -0.035772 0.360785 -0.013126
   vertex -0.034427 0.362112 -0.010867
  endloop
 endfacet
 facet normal -0.885615 0.148581 0.440011
  outer loop
   vertex -0.035772 0.360785 -0.013126
   vertex -0.034806 0.35916 -0.010633
   vertex -0.034427 0.362112 -0.010867
  endloop
 endfacet
 facet normal -0.983115 0.15558 0.0963335
  outer loop
   vertex -0.035811 0.36225 -0.01589
   vertex -0.0363 0.35916 -0.01589
   vertex -0.035772 0.360785 -0.013126
  endloop
 endfacet
 facet normal -0.982239 0 0.187634
  outer loop
   vertex -0.0363 0.35916 -0.01589
   vertex -0.035772 0.357535 -0.013126
   vertex -0.035772 0.360785 -0.013126
  endloop
 endfacet
 facet normal -0.932446 0 0.361309
  outer loop
   vertex -0.035772 0.360785 -0.013126
   vertex -0.035772 0.357535 -0.013126
   vertex -0.034806 0.35916 -0.010633
  endloop
 endfacet
 facet normal -0.885615 -0.148581 0.440011
  outer loop
   vertex -0.035772 0.357535 -0.013126
   vertex -0.034427 0.356208 -0.010867
   vertex -0.034806 0.35916 -0.010633
  endloop
 endfacet
 facet normal -0.98539 -0 -0.170314
  outer loop
   vertex -0.035866 0.360636 -0.018401
   vertex -0.035866 0.357684 -0.018401
   vertex -0.0363 0.35916 -0.01589
  endloop
 endfacet
 facet normal -0.984653 -0.155824 -0.0785916
  outer loop
   vertex -0.035866 0.357684 -0.018401
   vertex -0.035811 0.35607 -0.01589
   vertex -0.0363 0.35916 -0.01589
  endloop
 endfacet
 facet normal -0.983115 -0.15558 0.0963335
  outer loop
   vertex -0.0363 0.35916 -0.01589
   vertex -0.035811 0.35607 -0.01589
   vertex -0.035772 0.357535 -0.013126
  endloop
 endfacet
 facet normal -0.936352 -0.304548 0.174631
  outer loop
   vertex -0.035811 0.35607 -0.01589
   vertex -0.034907 0.354731 -0.013378
   vertex -0.035772 0.357535 -0.013126
  endloop
 endfacet
 facet normal -0.886309 -0.304753 0.348685
  outer loop
   vertex -0.035772 0.357535 -0.013126
   vertex -0.034907 0.354731 -0.013378
   vertex -0.034427 0.356208 -0.010867
  endloop
 endfacet
 facet normal -0.819189 -0.412026 0.398954
  outer loop
   vertex -0.034907 0.354731 -0.013378
   vertex -0.033536 0.353903 -0.011418
   vertex -0.034427 0.356208 -0.010867
  endloop
 endfacet
 facet normal -0.645038 -0.651744 0.398942
  outer loop
   vertex -0.033172 0.352343 -0.013378
   vertex -0.031619 0.352343 -0.010867
   vertex -0.033536 0.353903 -0.011418
  endloop
 endfacet
 facet normal -0.578874 -0.796508 0.174584
  outer loop
   vertex -0.032178 0.35107 -0.01589
   vertex -0.030772 0.350654 -0.013126
   vertex -0.033172 0.352343 -0.013378
  endloop
 endfacet
 facet normal -0.452705 -0.888208 -0.0783901
  outer loop
   vertex -0.03066 0.350518 -0.018402
   vertex -0.02939 0.349649 -0.01589
   vertex -0.032178 0.35107 -0.01589
  endloop
 endfacet
 facet normal -0.563623 -0.748876 0.348589
  outer loop
   vertex -0.033172 0.352343 -0.013378
   vertex -0.030772 0.350654 -0.013126
   vertex -0.031619 0.352343 -0.010867
  endloop
 endfacet
 facet normal -0.415138 -0.796394 0.439791
  outer loop
   vertex -0.030772 0.350654 -0.013126
   vertex -0.028929 0.35107 -0.010633
   vertex -0.031619 0.352343 -0.010867
  endloop
 endfacet
 facet normal -0.451986 -0.886796 0.0964489
  outer loop
   vertex -0.032178 0.35107 -0.01589
   vertex -0.02939 0.349649 -0.01589
   vertex -0.030772 0.350654 -0.013126
  endloop
 endfacet
 facet normal -0.303796 -0.934059 0.187729
  outer loop
   vertex -0.02939 0.349649 -0.01589
   vertex -0.027682 0.349649 -0.013126
   vertex -0.030772 0.350654 -0.013126
  endloop
 endfacet
 facet normal -0.288415 -0.886769 0.361189
  outer loop
   vertex -0.030772 0.350654 -0.013126
   vertex -0.027682 0.349649 -0.013126
   vertex -0.028929 0.35107 -0.010633
  endloop
 endfacet
 facet normal -0.132412 -0.888171 0.440021
  outer loop
   vertex -0.027682 0.349649 -0.013126
   vertex -0.026004 0.350518 -0.010867
   vertex -0.028929 0.35107 -0.010633
  endloop
 endfacet
 facet normal -0.304389 -0.937197 -0.170322
  outer loop
   vertex -0.03066 0.350518 -0.018402
   vertex -0.027852 0.349606 -0.018402
   vertex -0.02939 0.349649 -0.01589
  endloop
 endfacet
 facet normal -0.155824 -0.984657 -0.07855
  outer loop
   vertex -0.027852 0.349606 -0.018402
   vertex -0.0263 0.34916 -0.01589
   vertex -0.02939 0.349649 -0.01589
  endloop
 endfacet
 facet normal -0.155583 -0.983133 0.0961419
  outer loop
   vertex -0.02939 0.349649 -0.01589
   vertex -0.0263 0.34916 -0.01589
   vertex -0.027682 0.349649 -0.013126
  endloop
 endfacet
 facet normal 0.000555151 -0.98466 0.174481
  outer loop
   vertex -0.0263 0.34916 -0.01589
   vertex -0.024748 0.349606 -0.013378
   vertex -0.027682 0.349649 -0.013126
  endloop
 endfacet
 facet normal 0.0161962 -0.937175 0.348485
  outer loop
   vertex -0.027682 0.349649 -0.013126
   vertex -0.024748 0.349606 -0.013378
   vertex -0.026004 0.350518 -0.010867
  endloop
 endfacet
 facet normal 0.138975 -0.90647 0.398746
  outer loop
   vertex -0.024748 0.349606 -0.013378
   vertex -0.023536 0.350654 -0.011418
   vertex -0.026004 0.350518 -0.010867
  endloop
 endfacet
 facet normal 0.420269 -0.815078 0.398776
  outer loop
   vertex -0.02194 0.350518 -0.013378
   vertex -0.02146 0.351994 -0.010867
   vertex -0.023536 0.350654 -0.011418
  endloop
 endfacet
 facet normal 0.578519 -0.796783 0.174509
  outer loop
   vertex -0.020422 0.35107 -0.01589
   vertex -0.019592 0.352278 -0.013126
   vertex -0.02194 0.350518 -0.013378
  endloop
 endfacet
 facet normal 0.704936 -0.704936 -0.0782949
  outer loop
   vertex -0.019428 0.352343 -0.018402
   vertex -0.01821 0.353282 -0.01589
   vertex -0.020422 0.35107 -0.01589
  endloop
 endfacet
 facet normal 0.537986 -0.767602 0.348366
  outer loop
   vertex -0.02194 0.350518 -0.013378
   vertex -0.019592 0.352278 -0.013126
   vertex -0.02146 0.351994 -0.010867
  endloop
 endfacet
 facet normal 0.629279 -0.640767 0.439803
  outer loop
   vertex -0.019592 0.352278 -0.013126
   vertex -0.019418 0.35416 -0.010633
   vertex -0.02146 0.351994 -0.010867
  endloop
 endfacet
 facet normal 0.703824 -0.703824 0.0962537
  outer loop
   vertex -0.020422 0.35107 -0.01589
   vertex -0.01821 0.353282 -0.01589
   vertex -0.019592 0.352278 -0.013126
  endloop
 endfacet
 facet normal 0.794662 -0.577331 0.18762
  outer loop
   vertex -0.01821 0.353282 -0.01589
   vertex -0.017682 0.354907 -0.013126
   vertex -0.019592 0.352278 -0.013126
  endloop
 endfacet
 facet normal 0.754436 -0.548107 0.361117
  outer loop
   vertex -0.019592 0.352278 -0.013126
   vertex -0.017682 0.354907 -0.013126
   vertex -0.019418 0.35416 -0.010633
  endloop
 endfacet
 facet normal 0.803858 -0.400541 0.439749
  outer loop
   vertex -0.017682 0.354907 -0.013126
   vertex -0.017989 0.356771 -0.010867
   vertex -0.019418 0.35416 -0.010633
  endloop
 endfacet
 facet normal 0.797233 -0.579229 -0.170037
  outer loop
   vertex -0.019428 0.352343 -0.018402
   vertex -0.017693 0.354731 -0.018402
   vertex -0.01821 0.353282 -0.01589
  endloop
 endfacet
 facet normal 0.888212 -0.452708 -0.078331
  outer loop
   vertex -0.017693 0.354731 -0.018402
   vertex -0.016789 0.35607 -0.01589
   vertex -0.01821 0.353282 -0.01589
  endloop
 endfacet
 facet normal 0.886806 -0.451991 0.0963284
  outer loop
   vertex -0.01821 0.353282 -0.01589
   vertex -0.016789 0.35607 -0.01589
   vertex -0.017682 0.354907 -0.013126
  endloop
 endfacet
 facet normal 0.93657 -0.303801 0.17476
  outer loop
   vertex -0.016789 0.35607 -0.01589
   vertex -0.016734 0.357684 -0.013379
   vertex -0.017682 0.354907 -0.013126
  endloop
 endfacet
 facet normal 0.89641 -0.274294 0.348155
  outer loop
   vertex -0.017682 0.354907 -0.013126
   vertex -0.016734 0.357684 -0.013379
   vertex -0.017989 0.356771 -0.010867
  endloop
 endfacet
 facet normal 0.905177 -0.147939 0.398459
  outer loop
   vertex -0.016734 0.357684 -0.013379
   vertex -0.017356 0.35916 -0.011418
   vertex -0.017989 0.356771 -0.010867
  endloop
 endfacet
 facet normal 0.294416 0.906493 0.302638
  outer loop
   vertex -0.02194 0.367802 -0.013378
   vertex -0.024748 0.368714 -0.013378
   vertex -0.023536 0.367666 -0.011418
  endloop
 endfacet
 facet normal 0.452705 0.888208 0.0783901
  outer loop
   vertex -0.020422 0.36725 -0.01589
   vertex -0.02321 0.368671 -0.01589
   vertex -0.02194 0.367802 -0.013378
  endloop
 endfacet
 facet normal 0.578874 0.796508 -0.174584
  outer loop
   vertex -0.019428 0.365977 -0.018402
   vertex -0.021828 0.367666 -0.018654
   vertex -0.020422 0.36725 -0.01589
  endloop
 endfacet
 facet normal 0.304389 0.937197 0.170322
  outer loop
   vertex -0.02194 0.367802 -0.013378
   vertex -0.02321 0.368671 -0.01589
   vertex -0.024748 0.368714 -0.013378
  endloop
 endfacet
 facet normal 0.155824 0.984657 0.07855
  outer loop
   vertex -0.02321 0.368671 -0.01589
   vertex -0.0263 0.36916 -0.01589
   vertex -0.024748 0.368714 -0.013378
  endloop
 endfacet
 facet normal 0.451986 0.886796 -0.0964489
  outer loop
   vertex -0.020422 0.36725 -0.01589
   vertex -0.021828 0.367666 -0.018654
   vertex -0.02321 0.368671 -0.01589
  endloop
 endfacet
 facet normal 0.303796 0.934059 -0.187729
  outer loop
   vertex -0.021828 0.367666 -0.018654
   vertex -0.024918 0.368671 -0.018654
   vertex -0.02321 0.368671 -0.01589
  endloop
 endfacet
 facet normal 0.155583 0.983133 -0.0961419
  outer loop
   vertex -0.02321 0.368671 -0.01589
   vertex -0.024918 0.368671 -0.018654
   vertex -0.0263 0.36916 -0.01589
  endloop
 endfacet
 facet normal -0.000555151 0.98466 -0.174481
  outer loop
   vertex -0.024918 0.368671 -0.018654
   vertex -0.027852 0.368714 -0.018402
   vertex -0.0263 0.36916 -0.01589
  endloop
 endfacet
 facet normal 0.563623 0.748876 -0.348589
  outer loop
   vertex -0.019428 0.365977 -0.018402
   vertex -0.020981 0.365977 -0.020913
   vertex -0.021828 0.367666 -0.018654
  endloop
 endfacet
 facet normal 0.415138 0.796394 -0.439791
  outer loop
   vertex -0.020981 0.365977 -0.020913
   vertex -0.023671 0.36725 -0.021147
   vertex -0.021828 0.367666 -0.018654
  endloop
 endfacet
 facet normal 0.288415 0.886769 -0.361189
  outer loop
   vertex -0.021828 0.367666 -0.018654
   vertex -0.023671 0.36725 -0.021147
   vertex -0.024918 0.368671 -0.018654
  endloop
 endfacet
 facet normal 0.132412 0.888171 -0.440021
  outer loop
   vertex -0.023671 0.36725 -0.021147
   vertex -0.026596 0.367802 -0.020913
   vertex -0.024918 0.368671 -0.018654
  endloop
 endfacet
 facet normal -0.0161962 0.937175 -0.348485
  outer loop
   vertex -0.024918 0.368671 -0.018654
   vertex -0.026596 0.367802 -0.020913
   vertex -0.027852 0.368714 -0.018402
  endloop
 endfacet
 facet normal -0.138975 0.90647 -0.398746
  outer loop
   vertex -0.026596 0.367802 -0.020913
   vertex -0.029064 0.367666 -0.020362
   vertex -0.027852 0.368714 -0.018402
  endloop
 endfacet
 facet normal -0.771063 0.560215 0.302688
  outer loop
   vertex -0.033172 0.365977 -0.013378
   vertex -0.034907 0.363589 -0.013378
   vertex -0.033536 0.364417 -0.011418
  endloop
 endfacet
 facet normal -0.704936 0.704936 0.0782949
  outer loop
   vertex -0.032178 0.36725 -0.01589
   vertex -0.03439 0.365038 -0.01589
   vertex -0.033172 0.365977 -0.013378
  endloop
 endfacet
 facet normal -0.578519 0.796783 -0.174509
  outer loop
   vertex -0.03066 0.367802 -0.018402
   vertex -0.033008 0.366042 -0.018654
   vertex -0.032178 0.36725 -0.01589
  endloop
 endfacet
 facet normal -0.797233 0.579229 0.170037
  outer loop
   vertex -0.033172 0.365977 -0.013378
   vertex -0.03439 0.365038 -0.01589
   vertex -0.034907 0.363589 -0.013378
  endloop
 endfacet
 facet normal -0.888212 0.452708 0.078331
  outer loop
   vertex -0.03439 0.365038 -0.01589
   vertex -0.035811 0.36225 -0.01589
   vertex -0.034907 0.363589 -0.013378
  endloop
 endfacet
 facet normal -0.703824 0.703824 -0.0962537
  outer loop
   vertex -0.032178 0.36725 -0.01589
   vertex -0.033008 0.366042 -0.018654
   vertex -0.03439 0.365038 -0.01589
  endloop
 endfacet
 facet normal -0.794662 0.577331 -0.18762
  outer loop
   vertex -0.033008 0.366042 -0.018654
   vertex -0.034918 0.363413 -0.018654
   vertex -0.03439 0.365038 -0.01589
  endloop
 endfacet
 facet normal -0.886806 0.451991 -0.0963284
  outer loop
   vertex -0.03439 0.365038 -0.01589
   vertex -0.034918 0.363413 -0.018654
   vertex -0.035811 0.36225 -0.01589
  endloop
 endfacet
 facet normal -0.93657 0.303801 -0.17476
  outer loop
   vertex -0.034918 0.363413 -0.018654
   vertex -0.035866 0.360636 -0.018401
   vertex -0.035811 0.36225 -0.01589
  endloop
 endfacet
 facet normal -0.537986 0.767602 -0.348366
  outer loop
   vertex -0.03066 0.367802 -0.018402
   vertex -0.03114 0.366326 -0.020913
   vertex -0.033008 0.366042 -0.018654
  endloop
 endfacet
 facet normal -0.629279 0.640767 -0.439803
  outer loop
   vertex -0.03114 0.366326 -0.020913
   vertex -0.033182 0.36416 -0.021147
   vertex -0.033008 0.366042 -0.018654
  endloop
 endfacet
 facet normal -0.754436 0.548107 -0.361117
  outer loop
   vertex -0.033008 0.366042 -0.018654
   vertex -0.033182 0.36416 -0.021147
   vertex -0.034918 0.363413 -0.018654
  endloop
 endfacet
 facet normal -0.803858 0.400541 -0.439749
  outer loop
   vertex -0.033182 0.36416 -0.021147
   vertex -0.034611 0.361549 -0.020913
   vertex -0.034918 0.363413 -0.018654
  endloop
 endfacet
 facet normal -0.89641 0.274294 -0.348155
  outer loop
   vertex -0.034918 0.363413 -0.018654
   vertex -0.034611 0.361549 -0.020913
   vertex -0.035866 0.360636 -0.018401
  endloop
 endfacet
 facet normal -0.905177 0.147939 -0.398459
  outer loop
   vertex -0.034611 0.361549 -0.020913
   vertex -0.035244 0.35916 -0.020362
   vertex -0.035866 0.360636 -0.018401
  endloop
 endfacet
 facet normal -0.771063 -0.560215 0.302688
  outer loop
   vertex -0.034907 0.354731 -0.013378
   vertex -0.033172 0.352343 -0.013378
   vertex -0.033536 0.353903 -0.011418
  endloop
 endfacet
 facet normal -0.888212 -0.452708 0.078331
  outer loop
   vertex -0.035811 0.35607 -0.01589
   vertex -0.03439 0.353282 -0.01589
   vertex -0.034907 0.354731 -0.013378
  endloop
 endfacet
 facet normal -0.93657 -0.303801 -0.17476
  outer loop
   vertex -0.035866 0.357684 -0.018401
   vertex -0.034918 0.354907 -0.018654
   vertex -0.035811 0.35607 -0.01589
  endloop
 endfacet
 facet normal -0.797233 -0.579229 0.170037
  outer loop
   vertex -0.034907 0.354731 -0.013378
   vertex -0.03439 0.353282 -0.01589
   vertex -0.033172 0.352343 -0.013378
  endloop
 endfacet
 facet normal -0.704936 -0.704936 0.0782949
  outer loop
   vertex -0.03439 0.353282 -0.01589
   vertex -0.032178 0.35107 -0.01589
   vertex -0.033172 0.352343 -0.013378
  endloop
 endfacet
 facet normal -0.886806 -0.451991 -0.0963284
  outer loop
   vertex -0.035811 0.35607 -0.01589
   vertex -0.034918 0.354907 -0.018654
   vertex -0.03439 0.353282 -0.01589
  endloop
 endfacet
 facet normal -0.794662 -0.577331 -0.18762
  outer loop
   vertex -0.034918 0.354907 -0.018654
   vertex -0.033008 0.352278 -0.018654
   vertex -0.03439 0.353282 -0.01589
  endloop
 endfacet
 facet normal -0.703824 -0.703824 -0.0962537
  outer loop
   vertex -0.03439 0.353282 -0.01589
   vertex -0.033008 0.352278 -0.018654
   vertex -0.032178 0.35107 -0.01589
  endloop
 endfacet
 facet normal -0.578519 -0.796783 -0.174509
  outer loop
   vertex -0.033008 0.352278 -0.018654
   vertex -0.03066 0.350518 -0.018402
   vertex -0.032178 0.35107 -0.01589
  endloop
 endfacet
 facet normal -0.89641 -0.274294 -0.348155
  outer loop
   vertex -0.035866 0.357684 -0.018401
   vertex -0.034611 0.356771 -0.020913
   vertex -0.034918 0.354907 -0.018654
  endloop
 endfacet
 facet normal -0.803858 -0.400541 -0.439749
  outer loop
   vertex -0.034611 0.356771 -0.020913
   vertex -0.033182 0.35416 -0.021147
   vertex -0.034918 0.354907 -0.018654
  endloop
 endfacet
 facet normal -0.754436 -0.548107 -0.361117
  outer loop
   vertex -0.034918 0.354907 -0.018654
   vertex -0.033182 0.35416 -0.021147
   vertex -0.033008 0.352278 -0.018654
  endloop
 endfacet
 facet normal -0.629279 -0.640767 -0.439803
  outer loop
   vertex -0.033182 0.35416 -0.021147
   vertex -0.03114 0.351994 -0.020913
   vertex -0.033008 0.352278 -0.018654
  endloop
 endfacet
 facet normal -0.537986 -0.767602 -0.348366
  outer loop
   vertex -0.033008 0.352278 -0.018654
   vertex -0.03114 0.351994 -0.020913
   vertex -0.03066 0.350518 -0.018402
  endloop
 endfacet
 facet normal -0.420269 -0.815078 -0.398776
  outer loop
   vertex -0.03114 0.351994 -0.020913
   vertex -0.029064 0.350654 -0.020362
   vertex -0.03066 0.350518 -0.018402
  endloop
 endfacet
 facet normal 0.294416 -0.906493 0.302638
  outer loop
   vertex -0.024748 0.349606 -0.013378
   vertex -0.02194 0.350518 -0.013378
   vertex -0.023536 0.350654 -0.011418
  endloop
 endfacet
 facet normal 0.155824 -0.984657 0.07855
  outer loop
   vertex -0.0263 0.34916 -0.01589
   vertex -0.02321 0.349649 -0.01589
   vertex -0.024748 0.349606 -0.013378
  endloop
 endfacet
 facet normal -0.000555151 -0.98466 -0.174481
  outer loop
   vertex -0.027852 0.349606 -0.018402
   vertex -0.024918 0.349649 -0.018654
   vertex -0.0263 0.34916 -0.01589
  endloop
 endfacet
 facet normal 0.304389 -0.937197 0.170322
  outer loop
   vertex -0.024748 0.349606 -0.013378
   vertex -0.02321 0.349649 -0.01589
   vertex -0.02194 0.350518 -0.013378
  endloop
 endfacet
 facet normal 0.452705 -0.888208 0.0783901
  outer loop
   vertex -0.02321 0.349649 -0.01589
   vertex -0.020422 0.35107 -0.01589
   vertex -0.02194 0.350518 -0.013378
  endloop
 endfacet
 facet normal 0.155583 -0.983133 -0.0961419
  outer loop
   vertex -0.0263 0.34916 -0.01589
   vertex -0.024918 0.349649 -0.018654
   vertex -0.02321 0.349649 -0.01589
  endloop
 endfacet
 facet normal 0.303796 -0.934059 -0.187729
  outer loop
   vertex -0.024918 0.349649 -0.018654
   vertex -0.021828 0.350654 -0.018654
   vertex -0.02321 0.349649 -0.01589
  endloop
 endfacet
 facet normal 0.451986 -0.886796 -0.0964489
  outer loop
   vertex -0.02321 0.349649 -0.01589
   vertex -0.021828 0.350654 -0.018654
   vertex -0.020422 0.35107 -0.01589
  endloop
 endfacet
 facet normal 0.578874 -0.796508 -0.174584
  outer loop
   vertex -0.021828 0.350654 -0.018654
   vertex -0.019428 0.352343 -0.018402
   vertex -0.020422 0.35107 -0.01589
  endloop
 endfacet
 facet normal -0.0161962 -0.937175 -0.348485
  outer loop
   vertex -0.027852 0.349606 -0.018402
   vertex -0.026596 0.350518 -0.020913
   vertex -0.024918 0.349649 -0.018654
  endloop
 endfacet
 facet normal 0.132412 -0.888171 -0.440021
  outer loop
   vertex -0.026596 0.350518 -0.020913
   vertex -0.023671 0.35107 -0.021147
   vertex -0.024918 0.349649 -0.018654
  endloop
 endfacet
 facet normal 0.288415 -0.886769 -0.361189
  outer loop
   vertex -0.024918 0.349649 -0.018654
   vertex -0.023671 0.35107 -0.021147
   vertex -0.021828 0.350654 -0.018654
  endloop
 endfacet
 facet normal 0.415138 -0.796394 -0.439791
  outer loop
   vertex -0.023671 0.35107 -0.021147
   vertex -0.020981 0.352343 -0.020913
   vertex -0.021828 0.350654 -0.018654
  endloop
 endfacet
 facet normal 0.563623 -0.748876 -0.348589
  outer loop
   vertex -0.021828 0.350654 -0.018654
   vertex -0.020981 0.352343 -0.020913
   vertex -0.019428 0.352343 -0.018402
  endloop
 endfacet
 facet normal 0.645038 -0.651744 -0.398942
  outer loop
   vertex -0.020981 0.352343 -0.020913
   vertex -0.019064 0.353903 -0.020362
   vertex -0.019428 0.352343 -0.018402
  endloop
 endfacet
 facet normal 0.9532 -0 0.302341
  outer loop
   vertex -0.016734 0.357684 -0.013379
   vertex -0.016734 0.360636 -0.013379
   vertex -0.017356 0.35916 -0.011418
  endloop
 endfacet
 facet normal 0.984653 -0.155824 0.0785916
  outer loop
   vertex -0.016789 0.35607 -0.01589
   vertex -0.0163 0.35916 -0.01589
   vertex -0.016734 0.357684 -0.013379
  endloop
 endfacet
 facet normal 0.936352 -0.304548 -0.174631
  outer loop
   vertex -0.017693 0.354731 -0.018402
   vertex -0.016828 0.357535 -0.018654
   vertex -0.016789 0.35607 -0.01589
  endloop
 endfacet
 facet normal 0.98539 -0 0.170314
  outer loop
   vertex -0.016734 0.357684 -0.013379
   vertex -0.0163 0.35916 -0.01589
   vertex -0.016734 0.360636 -0.013379
  endloop
 endfacet
 facet normal 0.984653 0.155824 0.0785916
  outer loop
   vertex -0.0163 0.35916 -0.01589
   vertex -0.016789 0.36225 -0.01589
   vertex -0.016734 0.360636 -0.013379
  endloop
 endfacet
 facet normal 0.983115 -0.15558 -0.0963335
  outer loop
   vertex -0.016789 0.35607 -0.01589
   vertex -0.016828 0.357535 -0.018654
   vertex -0.0163 0.35916 -0.01589
  endloop
 endfacet
 facet normal 0.982239 0 -0.187634
  outer loop
   vertex -0.016828 0.357535 -0.018654
   vertex -0.016828 0.360785 -0.018654
   vertex -0.0163 0.35916 -0.01589
  endloop
 endfacet
 facet normal 0.983115 0.15558 -0.0963335
  outer loop
   vertex -0.0163 0.35916 -0.01589
   vertex -0.016828 0.360785 -0.018654
   vertex -0.016789 0.36225 -0.01589
  endloop
 endfacet
 facet normal 0.936352 0.304548 -0.174631
  outer loop
   vertex -0.016828 0.360785 -0.018654
   vertex -0.017693 0.363589 -0.018402
   vertex -0.016789 0.36225 -0.01589
  endloop
 endfacet
 facet normal 0.886309 -0.304753 -0.348685
  outer loop
   vertex -0.017693 0.354731 -0.018402
   vertex -0.018173 0.356208 -0.020913
   vertex -0.016828 0.357535 -0.018654
  endloop
 endfacet
 facet normal 0.885615 -0.148581 -0.440011
  outer loop
   vertex -0.018173 0.356208 -0.020913
   vertex -0.017794 0.35916 -0.021147
   vertex -0.016828 0.357535 -0.018654
  endloop
 endfacet
 facet normal 0.932446 0 -0.361309
  outer loop
   vertex -0.016828 0.357535 -0.018654
   vertex -0.017794 0.35916 -0.021147
   vertex -0.016828 0.360785 -0.018654
  endloop
 endfacet
 facet normal 0.885615 0.148581 -0.440011
  outer loop
   vertex -0.017794 0.35916 -0.021147
   vertex -0.018173 0.362112 -0.020913
   vertex -0.016828 0.360785 -0.018654
  endloop
 endfacet
 facet normal 0.886309 0.304753 -0.348685
  outer loop
   vertex -0.016828 0.360785 -0.018654
   vertex -0.018173 0.362112 -0.020913
   vertex -0.017693 0.363589 -0.018402
  endloop
 endfacet
 facet normal 0.819189 0.412026 -0.398954
  outer loop
   vertex -0.018173 0.362112 -0.020913
   vertex -0.019064 0.364417 -0.020362
   vertex -0.017693 0.363589 -0.018402
  endloop
 endfacet
 facet normal 0.61533 0.560308 -0.554459
  outer loop
   vertex -0.020205 0.363589 -0.022465
   vertex -0.020981 0.365977 -0.020913
   vertex -0.019064 0.364417 -0.020362
  endloop
 endfacet
 facet normal 0.467426 0.452641 -0.759361
  outer loop
   vertex -0.022047 0.36225 -0.024397
   vertex -0.022682 0.365038 -0.023126
   vertex -0.020205 0.363589 -0.022465
  endloop
 endfacet
 facet normal 0.262485 0.303841 -0.915851
  outer loop
   vertex -0.024268 0.360636 -0.025569
   vertex -0.024918 0.363413 -0.024834
   vertex -0.022047 0.36225 -0.024397
  endloop
 endfacet
 facet normal 0.508799 0.579247 -0.636864
  outer loop
   vertex -0.020205 0.363589 -0.022465
   vertex -0.022682 0.365038 -0.023126
   vertex -0.020981 0.365977 -0.020913
  endloop
 endfacet
 facet normal 0.38541 0.704977 -0.595371
  outer loop
   vertex -0.022682 0.365038 -0.023126
   vertex -0.023671 0.36725 -0.021147
   vertex -0.020981 0.365977 -0.020913
  endloop
 endfacet
 facet normal 0.310374 0.451949 -0.836307
  outer loop
   vertex -0.022047 0.36225 -0.024397
   vertex -0.024918 0.363413 -0.024834
   vertex -0.022682 0.365038 -0.023126
  endloop
 endfacet
 facet normal 0.187559 0.577248 -0.794737
  outer loop
   vertex -0.024918 0.363413 -0.024834
   vertex -0.025772 0.366042 -0.023126
   vertex -0.022682 0.365038 -0.023126
  endloop
 endfacet
 facet normal 0.228709 0.703897 -0.672474
  outer loop
   vertex -0.022682 0.365038 -0.023126
   vertex -0.025772 0.366042 -0.023126
   vertex -0.023671 0.36725 -0.021147
  endloop
 endfacet
 facet normal 0.102735 0.796801 -0.595444
  outer loop
   vertex -0.025772 0.366042 -0.023126
   vertex -0.026596 0.367802 -0.020913
   vertex -0.023671 0.36725 -0.021147
  endloop
 endfacet
 facet normal 0.0891868 0.274301 -0.957499
  outer loop
   vertex -0.024268 0.360636 -0.025569
   vertex -0.027076 0.361549 -0.025569
   vertex -0.024918 0.363413 -0.024834
  endloop
 endfacet
 facet normal -0.0336945 0.400135 -0.915836
  outer loop
   vertex -0.027076 0.361549 -0.025569
   vertex -0.027925 0.36416 -0.024397
   vertex -0.024918 0.363413 -0.024834
  endloop
 endfacet
 facet normal 0.0146149 0.548074 -0.836302
  outer loop
   vertex -0.024918 0.363413 -0.024834
   vertex -0.027925 0.36416 -0.024397
   vertex -0.025772 0.366042 -0.023126
  endloop
 endfacet
 facet normal -0.112009 0.640965 -0.759354
  outer loop
   vertex -0.027925 0.36416 -0.024397
   vertex -0.028628 0.366326 -0.022465
   vertex -0.025772 0.366042 -0.023126
  endloop
 endfacet
 facet normal -0.0710868 0.767617 -0.636955
  outer loop
   vertex -0.025772 0.366042 -0.023126
   vertex -0.028628 0.366326 -0.022465
   vertex -0.026596 0.367802 -0.020913
  endloop
 endfacet
 facet normal -0.168666 0.815046 -0.554303
  outer loop
   vertex -0.028628 0.366326 -0.022465
   vertex -0.029064 0.367666 -0.020362
   vertex -0.026596 0.367802 -0.020913
  endloop
 endfacet
 facet normal -0.342493 0.758552 -0.554344
  outer loop
   vertex -0.028628 0.366326 -0.022465
   vertex -0.03114 0.366326 -0.020913
   vertex -0.029064 0.367666 -0.020362
  endloop
 endfacet
 facet normal -0.286233 0.584386 -0.759318
  outer loop
   vertex -0.027925 0.36416 -0.024397
   vertex -0.030772 0.364417 -0.023126
   vertex -0.028628 0.366326 -0.022465
  endloop
 endfacet
 facet normal -0.207851 0.343516 -0.915858
  outer loop
   vertex -0.027076 0.361549 -0.025569
   vertex -0.029918 0.361789 -0.024834
   vertex -0.027925 0.36416 -0.024397
  endloop
 endfacet
 facet normal -0.393627 0.662685 -0.637108
  outer loop
   vertex -0.028628 0.366326 -0.022465
   vertex -0.030772 0.364417 -0.023126
   vertex -0.03114 0.366326 -0.020913
  endloop
 endfacet
 facet normal -0.551379 0.584158 -0.595601
  outer loop
   vertex -0.030772 0.364417 -0.023126
   vertex -0.033182 0.36416 -0.021147
   vertex -0.03114 0.366326 -0.020913
  endloop
 endfacet
 facet normal -0.334054 0.43492 -0.836213
  outer loop
   vertex -0.027925 0.36416 -0.024397
   vertex -0.029918 0.361789 -0.024834
   vertex -0.030772 0.364417 -0.023126
  endloop
 endfacet
 facet normal -0.491058 0.356895 -0.794662
  outer loop
   vertex -0.029918 0.361789 -0.024834
   vertex -0.032682 0.361789 -0.023126
   vertex -0.030772 0.364417 -0.023126
  endloop
 endfacet
 facet normal -0.598657 0.435097 -0.672533
  outer loop
   vertex -0.030772 0.364417 -0.023126
   vertex -0.032682 0.361789 -0.023126
   vertex -0.033182 0.36416 -0.021147
  endloop
 endfacet
 facet normal -0.725985 0.343961 -0.595514
  outer loop
   vertex -0.032682 0.361789 -0.023126
   vertex -0.034611 0.361549 -0.020913
   vertex -0.033182 0.36416 -0.021147
  endloop
 endfacet
 facet normal -0.233325 0.169451 -0.957521
  outer loop
   vertex -0.027076 0.361549 -0.025569
   vertex -0.028811 0.35916 -0.025569
   vertex -0.029918 0.361789 -0.024834
  endloop
 endfacet
 facet normal -0.390899 0.0914587 -0.915878
  outer loop
   vertex -0.028811 0.35916 -0.025569
   vertex -0.031557 0.35916 -0.024397
   vertex -0.029918 0.361789 -0.024834
  endloop
 endfacet
 facet normal -0.516783 0.183167 -0.836293
  outer loop
   vertex -0.029918 0.361789 -0.024834
   vertex -0.031557 0.35916 -0.024397
   vertex -0.032682 0.361789 -0.023126
  endloop
 endfacet
 facet normal -0.644269 0.0913996 -0.759317
  outer loop
   vertex -0.031557 0.35916 -0.024397
   vertex -0.033834 0.35916 -0.022465
   vertex -0.032682 0.361789 -0.023126
  endloop
 endfacet
 facet normal -0.751958 0.169318 -0.637095
  outer loop
   vertex -0.032682 0.361789 -0.023126
   vertex -0.033834 0.35916 -0.022465
   vertex -0.034611 0.361549 -0.020913
  endloop
 endfacet
 facet normal -0.827124 0.091254 -0.554562
  outer loop
   vertex -0.033834 0.35916 -0.022465
   vertex -0.035244 0.35916 -0.020362
   vertex -0.034611 0.361549 -0.020913
  endloop
 endfacet
 facet normal -0.827124 -0.091254 -0.554562
  outer loop
   vertex -0.033834 0.35916 -0.022465
   vertex -0.034611 0.356771 -0.020913
   vertex -0.035244 0.35916 -0.020362
  endloop
 endfacet
 facet normal -0.644269 -0.0913996 -0.759317
  outer loop
   vertex -0.031557 0.35916 -0.024397
   vertex -0.032682 0.356531 -0.023126
   vertex -0.033834 0.35916 -0.022465
  endloop
 endfacet
 facet normal -0.390899 -0.0914587 -0.915878
  outer loop
   vertex -0.028811 0.35916 -0.025569
   vertex -0.029918 0.356531 -0.024834
   vertex -0.031557 0.35916 -0.024397
  endloop
 endfacet
 facet normal -0.751958 -0.169318 -0.637095
  outer loop
   vertex -0.033834 0.35916 -0.022465
   vertex -0.032682 0.356531 -0.023126
   vertex -0.034611 0.356771 -0.020913
  endloop
 endfacet
 facet normal -0.725985 -0.343961 -0.595514
  outer loop
   vertex -0.032682 0.356531 -0.023126
   vertex -0.033182 0.35416 -0.021147
   vertex -0.034611 0.356771 -0.020913
  endloop
 endfacet
 facet normal -0.516783 -0.183167 -0.836293
  outer loop
   vertex -0.031557 0.35916 -0.024397
   vertex -0.029918 0.356531 -0.024834
   vertex -0.032682 0.356531 -0.023126
  endloop
 endfacet
 facet normal -0.491058 -0.356895 -0.794662
  outer loop
   vertex -0.029918 0.356531 -0.024834
   vertex -0.030772 0.353903 -0.023126
   vertex -0.032682 0.356531 -0.023126
  endloop
 endfacet
 facet normal -0.598657 -0.435097 -0.672533
  outer loop
   vertex -0.032682 0.356531 -0.023126
   vertex -0.030772 0.353903 -0.023126
   vertex -0.033182 0.35416 -0.021147
  endloop
 endfacet
 facet normal -0.551379 -0.584158 -0.595601
  outer loop
   vertex -0.030772 0.353903 -0.023126
   vertex -0.03114 0.351994 -0.020913
   vertex -0.033182 0.35416 -0.021147
  endloop
 endfacet
 facet normal -0.233325 -0.169451 -0.957521
  outer loop
   vertex -0.028811 0.35916 -0.025569
   vertex -0.027076 0.356771 -0.025569
   vertex -0.029918 0.356531 -0.024834
  endloop
 endfacet
 facet normal -0.207851 -0.343516 -0.915858
  outer loop
   vertex -0.027076 0.356771 -0.025569
   vertex -0.027925 0.35416 -0.024397
   vertex -0.029918 0.356531 -0.024834
  endloop
 endfacet
 facet normal -0.334054 -0.43492 -0.836213
  outer loop
   vertex -0.029918 0.356531 -0.024834
   vertex -0.027925 0.35416 -0.024397
   vertex -0.030772 0.353903 -0.023126
  endloop
 endfacet
 facet normal -0.286233 -0.584386 -0.759318
  outer loop
   vertex -0.027925 0.35416 -0.024397
   vertex -0.028628 0.351994 -0.022465
   vertex -0.030772 0.353903 -0.023126
  endloop
 endfacet
 facet normal -0.393627 -0.662685 -0.637108
  outer loop
   vertex -0.030772 0.353903 -0.023126
   vertex -0.028628 0.351994 -0.022465
   vertex -0.03114 0.351994 -0.020913
  endloop
 endfacet
 facet normal -0.342493 -0.758552 -0.554344
  outer loop
   vertex -0.028628 0.351994 -0.022465
   vertex -0.029064 0.350654 -0.020362
   vertex -0.03114 0.351994 -0.020913
  endloop
 endfacet
 facet normal 0.723015 0.412034 -0.554506
  outer loop
   vertex -0.018173 0.362112 -0.020913
   vertex -0.020205 0.363589 -0.022465
   vertex -0.019064 0.364417 -0.020362
  endloop
 endfacet
 facet normal 0.789589 0.148568 -0.59538
  outer loop
   vertex -0.017794 0.35916 -0.021147
   vertex -0.019592 0.360785 -0.023126
   vertex -0.018173 0.362112 -0.020913
  endloop
 endfacet
 facet normal 0.789589 -0.148568 -0.59538
  outer loop
   vertex -0.018173 0.356208 -0.020913
   vertex -0.019592 0.357535 -0.023126
   vertex -0.017794 0.35916 -0.021147
  endloop
 endfacet
 facet normal 0.708089 0.304936 -0.636886
  outer loop
   vertex -0.018173 0.362112 -0.020913
   vertex -0.019592 0.360785 -0.023126
   vertex -0.020205 0.363589 -0.022465
  endloop
 endfacet
 facet normal 0.574948 0.304695 -0.759339
  outer loop
   vertex -0.019592 0.360785 -0.023126
   vertex -0.022047 0.36225 -0.024397
   vertex -0.020205 0.363589 -0.022465
  endloop
 endfacet
 facet normal 0.740143 0 -0.672449
  outer loop
   vertex -0.017794 0.35916 -0.021147
   vertex -0.019592 0.357535 -0.023126
   vertex -0.019592 0.360785 -0.023126
  endloop
 endfacet
 facet normal 0.607028 0 -0.794681
  outer loop
   vertex -0.019592 0.357535 -0.023126
   vertex -0.021828 0.35916 -0.024834
   vertex -0.019592 0.360785 -0.023126
  endloop
 endfacet
 facet normal 0.525774 0.155534 -0.836284
  outer loop
   vertex -0.019592 0.360785 -0.023126
   vertex -0.021828 0.35916 -0.024834
   vertex -0.022047 0.36225 -0.024397
  endloop
 endfacet
 facet normal 0.370096 0.155752 -0.915844
  outer loop
   vertex -0.021828 0.35916 -0.024834
   vertex -0.024268 0.360636 -0.025569
   vertex -0.022047 0.36225 -0.024397
  endloop
 endfacet
 facet normal 0.708089 -0.304936 -0.636886
  outer loop
   vertex -0.018173 0.356208 -0.020913
   vertex -0.020205 0.354731 -0.022465
   vertex -0.019592 0.357535 -0.023126
  endloop
 endfacet
 facet normal 0.574948 -0.304695 -0.759339
  outer loop
   vertex -0.020205 0.354731 -0.022465
   vertex -0.022047 0.35607 -0.024397
   vertex -0.019592 0.357535 -0.023126
  endloop
 endfacet
 facet normal 0.525774 -0.155534 -0.836284
  outer loop
   vertex -0.019592 0.357535 -0.023126
   vertex -0.022047 0.35607 -0.024397
   vertex -0.021828 0.35916 -0.024834
  endloop
 endfacet
 facet normal 0.370096 -0.155752 -0.915844
  outer loop
   vertex -0.022047 0.35607 -0.024397
   vertex -0.024268 0.357684 -0.025569
   vertex -0.021828 0.35916 -0.024834
  endloop
 endfacet
 facet normal 0.288428 0 -0.957502
  outer loop
   vertex -0.021828 0.35916 -0.024834
   vertex -0.024268 0.357684 -0.025569
   vertex -0.024268 0.360636 -0.025569
  endloop
 endfacet
 facet normal 0.156037 0 -0.987751
  outer loop
   vertex -0.024268 0.357684 -0.025569
   vertex -0.0263 0.35916 -0.02589
   vertex -0.024268 0.360636 -0.025569
  endloop
 endfacet
 facet normal -0.168666 -0.815046 -0.554303
  outer loop
   vertex -0.028628 0.351994 -0.022465
   vertex -0.026596 0.350518 -0.020913
   vertex -0.029064 0.350654 -0.020362
  endloop
 endfacet
 facet normal -0.112009 -0.640965 -0.759354
  outer loop
   vertex -0.027925 0.35416 -0.024397
   vertex -0.025772 0.352278 -0.023126
   vertex -0.028628 0.351994 -0.022465
  endloop
 endfacet
 facet normal -0.0336945 -0.400135 -0.915836
  outer loop
   vertex -0.027076 0.356771 -0.025569
   vertex -0.024918 0.354907 -0.024834
   vertex -0.027925 0.35416 -0.024397
  endloop
 endfacet
 facet normal -0.0710868 -0.767617 -0.636955
  outer loop
   vertex -0.028628 0.351994 -0.022465
   vertex -0.025772 0.352278 -0.023126
   vertex -0.026596 0.350518 -0.020913
  endloop
 endfacet
 facet normal 0.102735 -0.796801 -0.595444
  outer loop
   vertex -0.025772 0.352278 -0.023126
   vertex -0.023671 0.35107 -0.021147
   vertex -0.026596 0.350518 -0.020913
  endloop
 endfacet
 facet normal 0.0146149 -0.548074 -0.836302
  outer loop
   vertex -0.027925 0.35416 -0.024397
   vertex -0.024918 0.354907 -0.024834
   vertex -0.025772 0.352278 -0.023126
  endloop
 endfacet
 facet normal 0.187559 -0.577248 -0.794737
  outer loop
   vertex -0.024918 0.354907 -0.024834
   vertex -0.022682 0.353282 -0.023126
   vertex -0.025772 0.352278 -0.023126
  endloop
 endfacet
 facet normal 0.228709 -0.703897 -0.672474
  outer loop
   vertex -0.025772 0.352278 -0.023126
   vertex -0.022682 0.353282 -0.023126
   vertex -0.023671 0.35107 -0.021147
  endloop
 endfacet
 facet normal 0.38541 -0.704977 -0.595371
  outer loop
   vertex -0.022682 0.353282 -0.023126
   vertex -0.020981 0.352343 -0.020913
   vertex -0.023671 0.35107 -0.021147
  endloop
 endfacet
 facet normal 0.0891868 -0.274301 -0.957499
  outer loop
   vertex -0.027076 0.356771 -0.025569
   vertex -0.024268 0.357684 -0.025569
   vertex -0.024918 0.354907 -0.024834
  endloop
 endfacet
 facet normal 0.262485 -0.303841 -0.915851
  outer loop
   vertex -0.024268 0.357684 -0.025569
   vertex -0.022047 0.35607 -0.024397
   vertex -0.024918 0.354907 -0.024834
  endloop
 endfacet
 facet normal 0.310374 -0.451949 -0.836307
  outer loop
   vertex -0.024918 0.354907 -0.024834
   vertex -0.022047 0.35607 -0.024397
   vertex -0.022682 0.353282 -0.023126
  endloop
 endfacet
 facet normal 0.467426 -0.452641 -0.759361
  outer loop
   vertex -0.022047 0.35607 -0.024397
   vertex -0.020205 0.354731 -0.022465
   vertex -0.022682 0.353282 -0.023126
  endloop
 endfacet
 facet normal 0.508799 -0.579247 -0.636864
  outer loop
   vertex -0.022682 0.353282 -0.023126
   vertex -0.020205 0.354731 -0.022465
   vertex -0.020981 0.352343 -0.020913
  endloop
 endfacet
 facet normal 0.61533 -0.560308 -0.554459
  outer loop
   vertex -0.020205 0.354731 -0.022465
   vertex -0.019064 0.353903 -0.020362
   vertex -0.020981 0.352343 -0.020913
  endloop
 endfacet
endsolid ExportedfromBlender-3.5.1
