solid ExportedfromBlender-3.5.1
 facet normal 0.0482486 -0.148392 -0.987751
  outer loop
   vertex -0.02155 0.267 -0.00619
   vertex -0.019518 0.265524 -0.005869
   vertex -0.022326 0.264611 -0.005869
  endloop
 endfacet
 facet normal 0.723015 -0.412034 -0.554506
  outer loop
   vertex -0.014314 0.261743 -0.000662
   vertex -0.015455 0.262571 -0.002765
   vertex -0.013423 0.264048 -0.001213
  endloop
 endfacet
 facet normal -0.126271 -0.0917039 -0.987748
  outer loop
   vertex -0.02155 0.267 -0.00619
   vertex -0.022326 0.264611 -0.005869
   vertex -0.024061 0.267 -0.005869
  endloop
 endfacet
 facet normal -0.126271 0.0917039 -0.987748
  outer loop
   vertex -0.02155 0.267 -0.00619
   vertex -0.024061 0.267 -0.005869
   vertex -0.022326 0.269389 -0.005869
  endloop
 endfacet
 facet normal 0.0482486 0.148392 -0.987751
  outer loop
   vertex -0.02155 0.267 -0.00619
   vertex -0.022326 0.269389 -0.005869
   vertex -0.019518 0.268476 -0.005869
  endloop
 endfacet
 facet normal 0.819189 -0.412026 -0.398954
  outer loop
   vertex -0.014314 0.261743 -0.000662
   vertex -0.013423 0.264048 -0.001213
   vertex -0.012943 0.262571 0.001298
  endloop
 endfacet
 facet normal -0.138975 -0.90647 -0.398746
  outer loop
   vertex -0.024314 0.258494 -0.000662
   vertex -0.021846 0.258358 -0.001213
   vertex -0.023102 0.257446 0.001298
  endloop
 endfacet
 facet normal -0.905177 -0.147939 -0.398459
  outer loop
   vertex -0.030494 0.267 -0.000662
   vertex -0.029861 0.264611 -0.001213
   vertex -0.031116 0.265524 0.001299
  endloop
 endfacet
 facet normal -0.420269 0.815078 -0.398776
  outer loop
   vertex -0.024314 0.275506 -0.000662
   vertex -0.02639 0.274166 -0.001213
   vertex -0.02591 0.275642 0.001298
  endloop
 endfacet
 facet normal 0.645038 0.651744 -0.398942
  outer loop
   vertex -0.014314 0.272257 -0.000662
   vertex -0.016231 0.273817 -0.001213
   vertex -0.014678 0.273817 0.001298
  endloop
 endfacet
 facet normal 0.771063 -0.560215 -0.302688
  outer loop
   vertex -0.014314 0.261743 -0.000662
   vertex -0.012943 0.262571 0.001298
   vertex -0.014678 0.260183 0.001298
  endloop
 endfacet
 facet normal -0.294416 -0.906493 -0.302638
  outer loop
   vertex -0.024314 0.258494 -0.000662
   vertex -0.023102 0.257446 0.001298
   vertex -0.02591 0.258358 0.001298
  endloop
 endfacet
 facet normal -0.9532 0 -0.302341
  outer loop
   vertex -0.030494 0.267 -0.000662
   vertex -0.031116 0.265524 0.001299
   vertex -0.031116 0.268476 0.001299
  endloop
 endfacet
 facet normal -0.294416 0.906493 -0.302638
  outer loop
   vertex -0.024314 0.275506 -0.000662
   vertex -0.02591 0.275642 0.001298
   vertex -0.023102 0.276554 0.001298
  endloop
 endfacet
 facet normal 0.771063 0.560215 -0.302688
  outer loop
   vertex -0.014314 0.272257 -0.000662
   vertex -0.014678 0.273817 0.001298
   vertex -0.012943 0.271429 0.001298
  endloop
 endfacet
 facet normal 0.342493 -0.758552 0.554344
  outer loop
   vertex -0.018786 0.258494 0.008282
   vertex -0.01671 0.259834 0.008833
   vertex -0.019222 0.259834 0.010385
  endloop
 endfacet
 facet normal -0.61533 -0.560308 0.554459
  outer loop
   vertex -0.028786 0.261743 0.008282
   vertex -0.026869 0.260183 0.008833
   vertex -0.027645 0.262571 0.010385
  endloop
 endfacet
 facet normal -0.723015 0.412034 0.554506
  outer loop
   vertex -0.028786 0.272257 0.008282
   vertex -0.029677 0.269952 0.008833
   vertex -0.027645 0.271429 0.010385
  endloop
 endfacet
 facet normal 0.168666 0.815046 0.554303
  outer loop
   vertex -0.018786 0.275506 0.008282
   vertex -0.021254 0.275642 0.008833
   vertex -0.019222 0.274166 0.010385
  endloop
 endfacet
 facet normal 0.827124 0.091254 0.554562
  outer loop
   vertex -0.012606 0.267 0.008282
   vertex -0.013239 0.269389 0.008833
   vertex -0.014016 0.267 0.010385
  endloop
 endfacet
 facet normal 0.126271 0.0917039 0.987748
  outer loop
   vertex -0.019039 0.267 0.013489
   vertex -0.020774 0.269389 0.013489
   vertex -0.02155 0.267 0.01381
  endloop
 endfacet
 facet normal 0.390899 0.0914587 0.915878
  outer loop
   vertex -0.016293 0.267 0.012317
   vertex -0.017932 0.269629 0.012754
   vertex -0.019039 0.267 0.013489
  endloop
 endfacet
 facet normal 0.644269 0.0913996 0.759317
  outer loop
   vertex -0.014016 0.267 0.010385
   vertex -0.015168 0.269629 0.011046
   vertex -0.016293 0.267 0.012317
  endloop
 endfacet
 facet normal 0.233325 0.169451 0.957521
  outer loop
   vertex -0.019039 0.267 0.013489
   vertex -0.017932 0.269629 0.012754
   vertex -0.020774 0.269389 0.013489
  endloop
 endfacet
 facet normal 0.207851 0.343516 0.915858
  outer loop
   vertex -0.017932 0.269629 0.012754
   vertex -0.019925 0.272 0.012317
   vertex -0.020774 0.269389 0.013489
  endloop
 endfacet
 facet normal 0.516783 0.183167 0.836293
  outer loop
   vertex -0.016293 0.267 0.012317
   vertex -0.015168 0.269629 0.011046
   vertex -0.017932 0.269629 0.012754
  endloop
 endfacet
 facet normal 0.491058 0.356895 0.794662
  outer loop
   vertex -0.015168 0.269629 0.011046
   vertex -0.017078 0.272257 0.011046
   vertex -0.017932 0.269629 0.012754
  endloop
 endfacet
 facet normal 0.334054 0.43492 0.836213
  outer loop
   vertex -0.017932 0.269629 0.012754
   vertex -0.017078 0.272257 0.011046
   vertex -0.019925 0.272 0.012317
  endloop
 endfacet
 facet normal 0.286233 0.584386 0.759318
  outer loop
   vertex -0.017078 0.272257 0.011046
   vertex -0.019222 0.274166 0.010385
   vertex -0.019925 0.272 0.012317
  endloop
 endfacet
 facet normal 0.751958 0.169318 0.637095
  outer loop
   vertex -0.014016 0.267 0.010385
   vertex -0.013239 0.269389 0.008833
   vertex -0.015168 0.269629 0.011046
  endloop
 endfacet
 facet normal 0.725985 0.343961 0.595514
  outer loop
   vertex -0.013239 0.269389 0.008833
   vertex -0.014668 0.272 0.009067
   vertex -0.015168 0.269629 0.011046
  endloop
 endfacet
 facet normal 0.598657 0.435097 0.672533
  outer loop
   vertex -0.015168 0.269629 0.011046
   vertex -0.014668 0.272 0.009067
   vertex -0.017078 0.272257 0.011046
  endloop
 endfacet
 facet normal 0.551379 0.584158 0.595601
  outer loop
   vertex -0.014668 0.272 0.009067
   vertex -0.01671 0.274166 0.008833
   vertex -0.017078 0.272257 0.011046
  endloop
 endfacet
 facet normal 0.393627 0.662685 0.637108
  outer loop
   vertex -0.017078 0.272257 0.011046
   vertex -0.01671 0.274166 0.008833
   vertex -0.019222 0.274166 0.010385
  endloop
 endfacet
 facet normal 0.342493 0.758552 0.554344
  outer loop
   vertex -0.01671 0.274166 0.008833
   vertex -0.018786 0.275506 0.008282
   vertex -0.019222 0.274166 0.010385
  endloop
 endfacet
 facet normal -0.0482486 0.148392 0.987751
  outer loop
   vertex -0.020774 0.269389 0.013489
   vertex -0.023582 0.268476 0.013489
   vertex -0.02155 0.267 0.01381
  endloop
 endfacet
 facet normal 0.0336945 0.400135 0.915836
  outer loop
   vertex -0.019925 0.272 0.012317
   vertex -0.022932 0.271253 0.012754
   vertex -0.020774 0.269389 0.013489
  endloop
 endfacet
 facet normal 0.112009 0.640965 0.759354
  outer loop
   vertex -0.019222 0.274166 0.010385
   vertex -0.022078 0.273882 0.011046
   vertex -0.019925 0.272 0.012317
  endloop
 endfacet
 facet normal -0.0891868 0.274301 0.957499
  outer loop
   vertex -0.020774 0.269389 0.013489
   vertex -0.022932 0.271253 0.012754
   vertex -0.023582 0.268476 0.013489
  endloop
 endfacet
 facet normal -0.262485 0.303841 0.915851
  outer loop
   vertex -0.022932 0.271253 0.012754
   vertex -0.025803 0.27009 0.012317
   vertex -0.023582 0.268476 0.013489
  endloop
 endfacet
 facet normal -0.0146149 0.548074 0.836302
  outer loop
   vertex -0.019925 0.272 0.012317
   vertex -0.022078 0.273882 0.011046
   vertex -0.022932 0.271253 0.012754
  endloop
 endfacet
 facet normal -0.187559 0.577248 0.794737
  outer loop
   vertex -0.022078 0.273882 0.011046
   vertex -0.025168 0.272878 0.011046
   vertex -0.022932 0.271253 0.012754
  endloop
 endfacet
 facet normal -0.310374 0.451949 0.836307
  outer loop
   vertex -0.022932 0.271253 0.012754
   vertex -0.025168 0.272878 0.011046
   vertex -0.025803 0.27009 0.012317
  endloop
 endfacet
 facet normal -0.467426 0.452641 0.759361
  outer loop
   vertex -0.025168 0.272878 0.011046
   vertex -0.027645 0.271429 0.010385
   vertex -0.025803 0.27009 0.012317
  endloop
 endfacet
 facet normal 0.0710868 0.767617 0.636955
  outer loop
   vertex -0.019222 0.274166 0.010385
   vertex -0.021254 0.275642 0.008833
   vertex -0.022078 0.273882 0.011046
  endloop
 endfacet
 facet normal -0.102735 0.796801 0.595444
  outer loop
   vertex -0.021254 0.275642 0.008833
   vertex -0.024179 0.27509 0.009067
   vertex -0.022078 0.273882 0.011046
  endloop
 endfacet
 facet normal -0.228709 0.703897 0.672474
  outer loop
   vertex -0.022078 0.273882 0.011046
   vertex -0.024179 0.27509 0.009067
   vertex -0.025168 0.272878 0.011046
  endloop
 endfacet
 facet normal -0.38541 0.704977 0.595371
  outer loop
   vertex -0.024179 0.27509 0.009067
   vertex -0.026869 0.273817 0.008833
   vertex -0.025168 0.272878 0.011046
  endloop
 endfacet
 facet normal -0.508799 0.579247 0.636864
  outer loop
   vertex -0.025168 0.272878 0.011046
   vertex -0.026869 0.273817 0.008833
   vertex -0.027645 0.271429 0.010385
  endloop
 endfacet
 facet normal -0.61533 0.560308 0.554459
  outer loop
   vertex -0.026869 0.273817 0.008833
   vertex -0.028786 0.272257 0.008282
   vertex -0.027645 0.271429 0.010385
  endloop
 endfacet
 facet normal -0.156037 0 0.987751
  outer loop
   vertex -0.023582 0.268476 0.013489
   vertex -0.023582 0.265524 0.013489
   vertex -0.02155 0.267 0.01381
  endloop
 endfacet
 facet normal -0.370096 0.155752 0.915844
  outer loop
   vertex -0.025803 0.27009 0.012317
   vertex -0.026022 0.267 0.012754
   vertex -0.023582 0.268476 0.013489
  endloop
 endfacet
 facet normal -0.574948 0.304695 0.759339
  outer loop
   vertex -0.027645 0.271429 0.010385
   vertex -0.028258 0.268625 0.011046
   vertex -0.025803 0.27009 0.012317
  endloop
 endfacet
 facet normal -0.288428 0 0.957502
  outer loop
   vertex -0.023582 0.268476 0.013489
   vertex -0.026022 0.267 0.012754
   vertex -0.023582 0.265524 0.013489
  endloop
 endfacet
 facet normal -0.370096 -0.155752 0.915844
  outer loop
   vertex -0.026022 0.267 0.012754
   vertex -0.025803 0.26391 0.012317
   vertex -0.023582 0.265524 0.013489
  endloop
 endfacet
 facet normal -0.525774 0.155534 0.836284
  outer loop
   vertex -0.025803 0.27009 0.012317
   vertex -0.028258 0.268625 0.011046
   vertex -0.026022 0.267 0.012754
  endloop
 endfacet
 facet normal -0.607028 0 0.794681
  outer loop
   vertex -0.028258 0.268625 0.011046
   vertex -0.028258 0.265375 0.011046
   vertex -0.026022 0.267 0.012754
  endloop
 endfacet
 facet normal -0.525774 -0.155534 0.836284
  outer loop
   vertex -0.026022 0.267 0.012754
   vertex -0.028258 0.265375 0.011046
   vertex -0.025803 0.26391 0.012317
  endloop
 endfacet
 facet normal -0.574948 -0.304695 0.759339
  outer loop
   vertex -0.028258 0.265375 0.011046
   vertex -0.027645 0.262571 0.010385
   vertex -0.025803 0.26391 0.012317
  endloop
 endfacet
 facet normal -0.708089 0.304936 0.636886
  outer loop
   vertex -0.027645 0.271429 0.010385
   vertex -0.029677 0.269952 0.008833
   vertex -0.028258 0.268625 0.011046
  endloop
 endfacet
 facet normal -0.789589 0.148568 0.59538
  outer loop
   vertex -0.029677 0.269952 0.008833
   vertex -0.030056 0.267 0.009067
   vertex -0.028258 0.268625 0.011046
  endloop
 endfacet
 facet normal -0.740143 0 0.672449
  outer loop
   vertex -0.028258 0.268625 0.011046
   vertex -0.030056 0.267 0.009067
   vertex -0.028258 0.265375 0.011046
  endloop
 endfacet
 facet normal -0.789589 -0.148568 0.59538
  outer loop
   vertex -0.030056 0.267 0.009067
   vertex -0.029677 0.264048 0.008833
   vertex -0.028258 0.265375 0.011046
  endloop
 endfacet
 facet normal -0.708089 -0.304936 0.636886
  outer loop
   vertex -0.028258 0.265375 0.011046
   vertex -0.029677 0.264048 0.008833
   vertex -0.027645 0.262571 0.010385
  endloop
 endfacet
 facet normal -0.723015 -0.412034 0.554506
  outer loop
   vertex -0.029677 0.264048 0.008833
   vertex -0.028786 0.261743 0.008282
   vertex -0.027645 0.262571 0.010385
  endloop
 endfacet
 facet normal -0.0482486 -0.148392 0.987751
  outer loop
   vertex -0.023582 0.265524 0.013489
   vertex -0.020774 0.264611 0.013489
   vertex -0.02155 0.267 0.01381
  endloop
 endfacet
 facet normal -0.262485 -0.303841 0.915851
  outer loop
   vertex -0.025803 0.26391 0.012317
   vertex -0.022932 0.262747 0.012754
   vertex -0.023582 0.265524 0.013489
  endloop
 endfacet
 facet normal -0.467426 -0.452641 0.759361
  outer loop
   vertex -0.027645 0.262571 0.010385
   vertex -0.025168 0.261122 0.011046
   vertex -0.025803 0.26391 0.012317
  endloop
 endfacet
 facet normal -0.0891868 -0.274301 0.957499
  outer loop
   vertex -0.023582 0.265524 0.013489
   vertex -0.022932 0.262747 0.012754
   vertex -0.020774 0.264611 0.013489
  endloop
 endfacet
 facet normal 0.0336945 -0.400135 0.915836
  outer loop
   vertex -0.022932 0.262747 0.012754
   vertex -0.019925 0.262 0.012317
   vertex -0.020774 0.264611 0.013489
  endloop
 endfacet
 facet normal -0.310374 -0.451949 0.836307
  outer loop
   vertex -0.025803 0.26391 0.012317
   vertex -0.025168 0.261122 0.011046
   vertex -0.022932 0.262747 0.012754
  endloop
 endfacet
 facet normal -0.187559 -0.577248 0.794737
  outer loop
   vertex -0.025168 0.261122 0.011046
   vertex -0.022078 0.260118 0.011046
   vertex -0.022932 0.262747 0.012754
  endloop
 endfacet
 facet normal -0.0146149 -0.548074 0.836302
  outer loop
   vertex -0.022932 0.262747 0.012754
   vertex -0.022078 0.260118 0.011046
   vertex -0.019925 0.262 0.012317
  endloop
 endfacet
 facet normal 0.112009 -0.640965 0.759354
  outer loop
   vertex -0.022078 0.260118 0.011046
   vertex -0.019222 0.259834 0.010385
   vertex -0.019925 0.262 0.012317
  endloop
 endfacet
 facet normal -0.508799 -0.579247 0.636864
  outer loop
   vertex -0.027645 0.262571 0.010385
   vertex -0.026869 0.260183 0.008833
   vertex -0.025168 0.261122 0.011046
  endloop
 endfacet
 facet normal -0.38541 -0.704977 0.595371
  outer loop
   vertex -0.026869 0.260183 0.008833
   vertex -0.024179 0.25891 0.009067
   vertex -0.025168 0.261122 0.011046
  endloop
 endfacet
 facet normal -0.228709 -0.703897 0.672474
  outer loop
   vertex -0.025168 0.261122 0.011046
   vertex -0.024179 0.25891 0.009067
   vertex -0.022078 0.260118 0.011046
  endloop
 endfacet
 facet normal -0.102735 -0.796801 0.595444
  outer loop
   vertex -0.024179 0.25891 0.009067
   vertex -0.021254 0.258358 0.008833
   vertex -0.022078 0.260118 0.011046
  endloop
 endfacet
 facet normal 0.0710868 -0.767617 0.636955
  outer loop
   vertex -0.022078 0.260118 0.011046
   vertex -0.021254 0.258358 0.008833
   vertex -0.019222 0.259834 0.010385
  endloop
 endfacet
 facet normal 0.168666 -0.815046 0.554303
  outer loop
   vertex -0.021254 0.258358 0.008833
   vertex -0.018786 0.258494 0.008282
   vertex -0.019222 0.259834 0.010385
  endloop
 endfacet
 facet normal 0.126271 -0.0917039 0.987748
  outer loop
   vertex -0.020774 0.264611 0.013489
   vertex -0.019039 0.267 0.013489
   vertex -0.02155 0.267 0.01381
  endloop
 endfacet
 facet normal 0.207851 -0.343516 0.915858
  outer loop
   vertex -0.019925 0.262 0.012317
   vertex -0.017932 0.264371 0.012754
   vertex -0.020774 0.264611 0.013489
  endloop
 endfacet
 facet normal 0.286233 -0.584386 0.759318
  outer loop
   vertex -0.019222 0.259834 0.010385
   vertex -0.017078 0.261743 0.011046
   vertex -0.019925 0.262 0.012317
  endloop
 endfacet
 facet normal 0.233325 -0.169451 0.957521
  outer loop
   vertex -0.020774 0.264611 0.013489
   vertex -0.017932 0.264371 0.012754
   vertex -0.019039 0.267 0.013489
  endloop
 endfacet
 facet normal 0.390899 -0.0914587 0.915878
  outer loop
   vertex -0.017932 0.264371 0.012754
   vertex -0.016293 0.267 0.012317
   vertex -0.019039 0.267 0.013489
  endloop
 endfacet
 facet normal 0.334054 -0.43492 0.836213
  outer loop
   vertex -0.019925 0.262 0.012317
   vertex -0.017078 0.261743 0.011046
   vertex -0.017932 0.264371 0.012754
  endloop
 endfacet
 facet normal 0.491058 -0.356895 0.794662
  outer loop
   vertex -0.017078 0.261743 0.011046
   vertex -0.015168 0.264371 0.011046
   vertex -0.017932 0.264371 0.012754
  endloop
 endfacet
 facet normal 0.516783 -0.183167 0.836293
  outer loop
   vertex -0.017932 0.264371 0.012754
   vertex -0.015168 0.264371 0.011046
   vertex -0.016293 0.267 0.012317
  endloop
 endfacet
 facet normal 0.644269 -0.0913996 0.759317
  outer loop
   vertex -0.015168 0.264371 0.011046
   vertex -0.014016 0.267 0.010385
   vertex -0.016293 0.267 0.012317
  endloop
 endfacet
 facet normal 0.393627 -0.662685 0.637108
  outer loop
   vertex -0.019222 0.259834 0.010385
   vertex -0.01671 0.259834 0.008833
   vertex -0.017078 0.261743 0.011046
  endloop
 endfacet
 facet normal 0.551379 -0.584158 0.595601
  outer loop
   vertex -0.01671 0.259834 0.008833
   vertex -0.014668 0.262 0.009067
   vertex -0.017078 0.261743 0.011046
  endloop
 endfacet
 facet normal 0.598657 -0.435097 0.672533
  outer loop
   vertex -0.017078 0.261743 0.011046
   vertex -0.014668 0.262 0.009067
   vertex -0.015168 0.264371 0.011046
  endloop
 endfacet
 facet normal 0.725985 -0.343961 0.595514
  outer loop
   vertex -0.014668 0.262 0.009067
   vertex -0.013239 0.264611 0.008833
   vertex -0.015168 0.264371 0.011046
  endloop
 endfacet
 facet normal 0.751958 -0.169318 0.637095
  outer loop
   vertex -0.015168 0.264371 0.011046
   vertex -0.013239 0.264611 0.008833
   vertex -0.014016 0.267 0.010385
  endloop
 endfacet
 facet normal 0.827124 -0.091254 0.554562
  outer loop
   vertex -0.013239 0.264611 0.008833
   vertex -0.012606 0.267 0.008282
   vertex -0.014016 0.267 0.010385
  endloop
 endfacet
 facet normal 0.905177 0.147939 0.398459
  outer loop
   vertex -0.011984 0.268476 0.006321
   vertex -0.013239 0.269389 0.008833
   vertex -0.012606 0.267 0.008282
  endloop
 endfacet
 facet normal 0.93657 0.303801 0.17476
  outer loop
   vertex -0.012039 0.27009 0.00381
   vertex -0.012932 0.271253 0.006574
   vertex -0.011984 0.268476 0.006321
  endloop
 endfacet
 facet normal 0.888212 0.452708 -0.078331
  outer loop
   vertex -0.012943 0.271429 0.001298
   vertex -0.01346 0.272878 0.00381
   vertex -0.012039 0.27009 0.00381
  endloop
 endfacet
 facet normal 0.89641 0.274294 0.348155
  outer loop
   vertex -0.011984 0.268476 0.006321
   vertex -0.012932 0.271253 0.006574
   vertex -0.013239 0.269389 0.008833
  endloop
 endfacet
 facet normal 0.803858 0.400541 0.439749
  outer loop
   vertex -0.012932 0.271253 0.006574
   vertex -0.014668 0.272 0.009067
   vertex -0.013239 0.269389 0.008833
  endloop
 endfacet
 facet normal 0.886806 0.451991 0.0963284
  outer loop
   vertex -0.012039 0.27009 0.00381
   vertex -0.01346 0.272878 0.00381
   vertex -0.012932 0.271253 0.006574
  endloop
 endfacet
 facet normal 0.794662 0.577331 0.18762
  outer loop
   vertex -0.01346 0.272878 0.00381
   vertex -0.014842 0.273882 0.006574
   vertex -0.012932 0.271253 0.006574
  endloop
 endfacet
 facet normal 0.754436 0.548107 0.361117
  outer loop
   vertex -0.012932 0.271253 0.006574
   vertex -0.014842 0.273882 0.006574
   vertex -0.014668 0.272 0.009067
  endloop
 endfacet
 facet normal 0.629279 0.640767 0.439803
  outer loop
   vertex -0.014842 0.273882 0.006574
   vertex -0.01671 0.274166 0.008833
   vertex -0.014668 0.272 0.009067
  endloop
 endfacet
 facet normal 0.797233 0.579229 -0.170037
  outer loop
   vertex -0.012943 0.271429 0.001298
   vertex -0.014678 0.273817 0.001298
   vertex -0.01346 0.272878 0.00381
  endloop
 endfacet
 facet normal 0.704936 0.704936 -0.0782949
  outer loop
   vertex -0.014678 0.273817 0.001298
   vertex -0.015672 0.27509 0.00381
   vertex -0.01346 0.272878 0.00381
  endloop
 endfacet
 facet normal 0.703824 0.703824 0.0962537
  outer loop
   vertex -0.01346 0.272878 0.00381
   vertex -0.015672 0.27509 0.00381
   vertex -0.014842 0.273882 0.006574
  endloop
 endfacet
 facet normal 0.578519 0.796783 0.174509
  outer loop
   vertex -0.015672 0.27509 0.00381
   vertex -0.01719 0.275642 0.006322
   vertex -0.014842 0.273882 0.006574
  endloop
 endfacet
 facet normal 0.537986 0.767602 0.348366
  outer loop
   vertex -0.014842 0.273882 0.006574
   vertex -0.01719 0.275642 0.006322
   vertex -0.01671 0.274166 0.008833
  endloop
 endfacet
 facet normal 0.420269 0.815078 0.398776
  outer loop
   vertex -0.01719 0.275642 0.006322
   vertex -0.018786 0.275506 0.008282
   vertex -0.01671 0.274166 0.008833
  endloop
 endfacet
 facet normal 0.138975 0.90647 0.398746
  outer loop
   vertex -0.019998 0.276554 0.006322
   vertex -0.021254 0.275642 0.008833
   vertex -0.018786 0.275506 0.008282
  endloop
 endfacet
 facet normal 0.000555151 0.98466 0.174481
  outer loop
   vertex -0.02155 0.277 0.00381
   vertex -0.022932 0.276511 0.006574
   vertex -0.019998 0.276554 0.006322
  endloop
 endfacet
 facet normal -0.155824 0.984657 -0.07855
  outer loop
   vertex -0.023102 0.276554 0.001298
   vertex -0.02464 0.276511 0.00381
   vertex -0.02155 0.277 0.00381
  endloop
 endfacet
 facet normal 0.0161962 0.937175 0.348485
  outer loop
   vertex -0.019998 0.276554 0.006322
   vertex -0.022932 0.276511 0.006574
   vertex -0.021254 0.275642 0.008833
  endloop
 endfacet
 facet normal -0.132412 0.888171 0.440021
  outer loop
   vertex -0.022932 0.276511 0.006574
   vertex -0.024179 0.27509 0.009067
   vertex -0.021254 0.275642 0.008833
  endloop
 endfacet
 facet normal -0.155583 0.983133 0.0961419
  outer loop
   vertex -0.02155 0.277 0.00381
   vertex -0.02464 0.276511 0.00381
   vertex -0.022932 0.276511 0.006574
  endloop
 endfacet
 facet normal -0.303796 0.934059 0.187729
  outer loop
   vertex -0.02464 0.276511 0.00381
   vertex -0.026022 0.275506 0.006574
   vertex -0.022932 0.276511 0.006574
  endloop
 endfacet
 facet normal -0.288415 0.886769 0.361189
  outer loop
   vertex -0.022932 0.276511 0.006574
   vertex -0.026022 0.275506 0.006574
   vertex -0.024179 0.27509 0.009067
  endloop
 endfacet
 facet normal -0.415138 0.796394 0.439791
  outer loop
   vertex -0.026022 0.275506 0.006574
   vertex -0.026869 0.273817 0.008833
   vertex -0.024179 0.27509 0.009067
  endloop
 endfacet
 facet normal -0.304389 0.937197 -0.170322
  outer loop
   vertex -0.023102 0.276554 0.001298
   vertex -0.02591 0.275642 0.001298
   vertex -0.02464 0.276511 0.00381
  endloop
 endfacet
 facet normal -0.452705 0.888208 -0.0783901
  outer loop
   vertex -0.02591 0.275642 0.001298
   vertex -0.027428 0.27509 0.00381
   vertex -0.02464 0.276511 0.00381
  endloop
 endfacet
 facet normal -0.451986 0.886796 0.0964489
  outer loop
   vertex -0.02464 0.276511 0.00381
   vertex -0.027428 0.27509 0.00381
   vertex -0.026022 0.275506 0.006574
  endloop
 endfacet
 facet normal -0.578874 0.796508 0.174584
  outer loop
   vertex -0.027428 0.27509 0.00381
   vertex -0.028422 0.273817 0.006322
   vertex -0.026022 0.275506 0.006574
  endloop
 endfacet
 facet normal -0.563623 0.748876 0.348589
  outer loop
   vertex -0.026022 0.275506 0.006574
   vertex -0.028422 0.273817 0.006322
   vertex -0.026869 0.273817 0.008833
  endloop
 endfacet
 facet normal -0.645038 0.651744 0.398942
  outer loop
   vertex -0.028422 0.273817 0.006322
   vertex -0.028786 0.272257 0.008282
   vertex -0.026869 0.273817 0.008833
  endloop
 endfacet
 facet normal -0.819189 0.412026 0.398954
  outer loop
   vertex -0.030157 0.271429 0.006322
   vertex -0.029677 0.269952 0.008833
   vertex -0.028786 0.272257 0.008282
  endloop
 endfacet
 facet normal -0.936352 0.304548 0.174631
  outer loop
   vertex -0.031061 0.27009 0.00381
   vertex -0.031022 0.268625 0.006574
   vertex -0.030157 0.271429 0.006322
  endloop
 endfacet
 facet normal -0.984653 0.155824 -0.0785916
  outer loop
   vertex -0.031116 0.268476 0.001299
   vertex -0.03155 0.267 0.00381
   vertex -0.031061 0.27009 0.00381
  endloop
 endfacet
 facet normal -0.886309 0.304753 0.348685
  outer loop
   vertex -0.030157 0.271429 0.006322
   vertex -0.031022 0.268625 0.006574
   vertex -0.029677 0.269952 0.008833
  endloop
 endfacet
 facet normal -0.885615 0.148581 0.440011
  outer loop
   vertex -0.031022 0.268625 0.006574
   vertex -0.030056 0.267 0.009067
   vertex -0.029677 0.269952 0.008833
  endloop
 endfacet
 facet normal -0.983115 0.15558 0.0963335
  outer loop
   vertex -0.031061 0.27009 0.00381
   vertex -0.03155 0.267 0.00381
   vertex -0.031022 0.268625 0.006574
  endloop
 endfacet
 facet normal -0.982239 0 0.187634
  outer loop
   vertex -0.03155 0.267 0.00381
   vertex -0.031022 0.265375 0.006574
   vertex -0.031022 0.268625 0.006574
  endloop
 endfacet
 facet normal -0.932446 0 0.361309
  outer loop
   vertex -0.031022 0.268625 0.006574
   vertex -0.031022 0.265375 0.006574
   vertex -0.030056 0.267 0.009067
  endloop
 endfacet
 facet normal -0.885615 -0.148581 0.440011
  outer loop
   vertex -0.031022 0.265375 0.006574
   vertex -0.029677 0.264048 0.008833
   vertex -0.030056 0.267 0.009067
  endloop
 endfacet
 facet normal -0.98539 -0 -0.170314
  outer loop
   vertex -0.031116 0.268476 0.001299
   vertex -0.031116 0.265524 0.001299
   vertex -0.03155 0.267 0.00381
  endloop
 endfacet
 facet normal -0.984653 -0.155824 -0.0785916
  outer loop
   vertex -0.031116 0.265524 0.001299
   vertex -0.031061 0.26391 0.00381
   vertex -0.03155 0.267 0.00381
  endloop
 endfacet
 facet normal -0.983115 -0.15558 0.0963335
  outer loop
   vertex -0.03155 0.267 0.00381
   vertex -0.031061 0.26391 0.00381
   vertex -0.031022 0.265375 0.006574
  endloop
 endfacet
 facet normal -0.936352 -0.304548 0.174631
  outer loop
   vertex -0.031061 0.26391 0.00381
   vertex -0.030157 0.262571 0.006322
   vertex -0.031022 0.265375 0.006574
  endloop
 endfacet
 facet normal -0.886309 -0.304753 0.348685
  outer loop
   vertex -0.031022 0.265375 0.006574
   vertex -0.030157 0.262571 0.006322
   vertex -0.029677 0.264048 0.008833
  endloop
 endfacet
 facet normal -0.819189 -0.412026 0.398954
  outer loop
   vertex -0.030157 0.262571 0.006322
   vertex -0.028786 0.261743 0.008282
   vertex -0.029677 0.264048 0.008833
  endloop
 endfacet
 facet normal -0.645038 -0.651744 0.398942
  outer loop
   vertex -0.028422 0.260183 0.006322
   vertex -0.026869 0.260183 0.008833
   vertex -0.028786 0.261743 0.008282
  endloop
 endfacet
 facet normal -0.578874 -0.796508 0.174584
  outer loop
   vertex -0.027428 0.25891 0.00381
   vertex -0.026022 0.258494 0.006574
   vertex -0.028422 0.260183 0.006322
  endloop
 endfacet
 facet normal -0.452705 -0.888208 -0.0783901
  outer loop
   vertex -0.02591 0.258358 0.001298
   vertex -0.02464 0.257489 0.00381
   vertex -0.027428 0.25891 0.00381
  endloop
 endfacet
 facet normal -0.563623 -0.748876 0.348589
  outer loop
   vertex -0.028422 0.260183 0.006322
   vertex -0.026022 0.258494 0.006574
   vertex -0.026869 0.260183 0.008833
  endloop
 endfacet
 facet normal -0.415138 -0.796394 0.439791
  outer loop
   vertex -0.026022 0.258494 0.006574
   vertex -0.024179 0.25891 0.009067
   vertex -0.026869 0.260183 0.008833
  endloop
 endfacet
 facet normal -0.451986 -0.886796 0.0964489
  outer loop
   vertex -0.027428 0.25891 0.00381
   vertex -0.02464 0.257489 0.00381
   vertex -0.026022 0.258494 0.006574
  endloop
 endfacet
 facet normal -0.303796 -0.934059 0.187729
  outer loop
   vertex -0.02464 0.257489 0.00381
   vertex -0.022932 0.257489 0.006574
   vertex -0.026022 0.258494 0.006574
  endloop
 endfacet
 facet normal -0.288415 -0.886769 0.361189
  outer loop
   vertex -0.026022 0.258494 0.006574
   vertex -0.022932 0.257489 0.006574
   vertex -0.024179 0.25891 0.009067
  endloop
 endfacet
 facet normal -0.132412 -0.888171 0.440021
  outer loop
   vertex -0.022932 0.257489 0.006574
   vertex -0.021254 0.258358 0.008833
   vertex -0.024179 0.25891 0.009067
  endloop
 endfacet
 facet normal -0.304389 -0.937197 -0.170322
  outer loop
   vertex -0.02591 0.258358 0.001298
   vertex -0.023102 0.257446 0.001298
   vertex -0.02464 0.257489 0.00381
  endloop
 endfacet
 facet normal -0.155824 -0.984657 -0.07855
  outer loop
   vertex -0.023102 0.257446 0.001298
   vertex -0.02155 0.257 0.00381
   vertex -0.02464 0.257489 0.00381
  endloop
 endfacet
 facet normal -0.155583 -0.983133 0.0961419
  outer loop
   vertex -0.02464 0.257489 0.00381
   vertex -0.02155 0.257 0.00381
   vertex -0.022932 0.257489 0.006574
  endloop
 endfacet
 facet normal 0.000555151 -0.98466 0.174481
  outer loop
   vertex -0.02155 0.257 0.00381
   vertex -0.019998 0.257446 0.006322
   vertex -0.022932 0.257489 0.006574
  endloop
 endfacet
 facet normal 0.0161962 -0.937175 0.348485
  outer loop
   vertex -0.022932 0.257489 0.006574
   vertex -0.019998 0.257446 0.006322
   vertex -0.021254 0.258358 0.008833
  endloop
 endfacet
 facet normal 0.138975 -0.90647 0.398746
  outer loop
   vertex -0.019998 0.257446 0.006322
   vertex -0.018786 0.258494 0.008282
   vertex -0.021254 0.258358 0.008833
  endloop
 endfacet
 facet normal 0.420269 -0.815078 0.398776
  outer loop
   vertex -0.01719 0.258358 0.006322
   vertex -0.01671 0.259834 0.008833
   vertex -0.018786 0.258494 0.008282
  endloop
 endfacet
 facet normal 0.578519 -0.796783 0.174509
  outer loop
   vertex -0.015672 0.25891 0.00381
   vertex -0.014842 0.260118 0.006574
   vertex -0.01719 0.258358 0.006322
  endloop
 endfacet
 facet normal 0.704936 -0.704936 -0.0782949
  outer loop
   vertex -0.014678 0.260183 0.001298
   vertex -0.01346 0.261122 0.00381
   vertex -0.015672 0.25891 0.00381
  endloop
 endfacet
 facet normal 0.537986 -0.767602 0.348366
  outer loop
   vertex -0.01719 0.258358 0.006322
   vertex -0.014842 0.260118 0.006574
   vertex -0.01671 0.259834 0.008833
  endloop
 endfacet
 facet normal 0.629279 -0.640767 0.439803
  outer loop
   vertex -0.014842 0.260118 0.006574
   vertex -0.014668 0.262 0.009067
   vertex -0.01671 0.259834 0.008833
  endloop
 endfacet
 facet normal 0.703824 -0.703824 0.0962537
  outer loop
   vertex -0.015672 0.25891 0.00381
   vertex -0.01346 0.261122 0.00381
   vertex -0.014842 0.260118 0.006574
  endloop
 endfacet
 facet normal 0.794662 -0.577331 0.18762
  outer loop
   vertex -0.01346 0.261122 0.00381
   vertex -0.012932 0.262747 0.006574
   vertex -0.014842 0.260118 0.006574
  endloop
 endfacet
 facet normal 0.754436 -0.548107 0.361117
  outer loop
   vertex -0.014842 0.260118 0.006574
   vertex -0.012932 0.262747 0.006574
   vertex -0.014668 0.262 0.009067
  endloop
 endfacet
 facet normal 0.803858 -0.400541 0.439749
  outer loop
   vertex -0.012932 0.262747 0.006574
   vertex -0.013239 0.264611 0.008833
   vertex -0.014668 0.262 0.009067
  endloop
 endfacet
 facet normal 0.797233 -0.579229 -0.170037
  outer loop
   vertex -0.014678 0.260183 0.001298
   vertex -0.012943 0.262571 0.001298
   vertex -0.01346 0.261122 0.00381
  endloop
 endfacet
 facet normal 0.888212 -0.452708 -0.078331
  outer loop
   vertex -0.012943 0.262571 0.001298
   vertex -0.012039 0.26391 0.00381
   vertex -0.01346 0.261122 0.00381
  endloop
 endfacet
 facet normal 0.886806 -0.451991 0.0963284
  outer loop
   vertex -0.01346 0.261122 0.00381
   vertex -0.012039 0.26391 0.00381
   vertex -0.012932 0.262747 0.006574
  endloop
 endfacet
 facet normal 0.93657 -0.303801 0.17476
  outer loop
   vertex -0.012039 0.26391 0.00381
   vertex -0.011984 0.265524 0.006321
   vertex -0.012932 0.262747 0.006574
  endloop
 endfacet
 facet normal 0.89641 -0.274294 0.348155
  outer loop
   vertex -0.012932 0.262747 0.006574
   vertex -0.011984 0.265524 0.006321
   vertex -0.013239 0.264611 0.008833
  endloop
 endfacet
 facet normal 0.905177 -0.147939 0.398459
  outer loop
   vertex -0.011984 0.265524 0.006321
   vertex -0.012606 0.267 0.008282
   vertex -0.013239 0.264611 0.008833
  endloop
 endfacet
 facet normal 0.294416 0.906493 0.302638
  outer loop
   vertex -0.01719 0.275642 0.006322
   vertex -0.019998 0.276554 0.006322
   vertex -0.018786 0.275506 0.008282
  endloop
 endfacet
 facet normal 0.452705 0.888208 0.0783901
  outer loop
   vertex -0.015672 0.27509 0.00381
   vertex -0.01846 0.276511 0.00381
   vertex -0.01719 0.275642 0.006322
  endloop
 endfacet
 facet normal 0.578874 0.796508 -0.174584
  outer loop
   vertex -0.014678 0.273817 0.001298
   vertex -0.017078 0.275506 0.001046
   vertex -0.015672 0.27509 0.00381
  endloop
 endfacet
 facet normal 0.304389 0.937197 0.170322
  outer loop
   vertex -0.01719 0.275642 0.006322
   vertex -0.01846 0.276511 0.00381
   vertex -0.019998 0.276554 0.006322
  endloop
 endfacet
 facet normal 0.155824 0.984657 0.07855
  outer loop
   vertex -0.01846 0.276511 0.00381
   vertex -0.02155 0.277 0.00381
   vertex -0.019998 0.276554 0.006322
  endloop
 endfacet
 facet normal 0.451986 0.886796 -0.0964489
  outer loop
   vertex -0.015672 0.27509 0.00381
   vertex -0.017078 0.275506 0.001046
   vertex -0.01846 0.276511 0.00381
  endloop
 endfacet
 facet normal 0.303796 0.934059 -0.187729
  outer loop
   vertex -0.017078 0.275506 0.001046
   vertex -0.020168 0.276511 0.001046
   vertex -0.01846 0.276511 0.00381
  endloop
 endfacet
 facet normal 0.155583 0.983133 -0.0961419
  outer loop
   vertex -0.01846 0.276511 0.00381
   vertex -0.020168 0.276511 0.001046
   vertex -0.02155 0.277 0.00381
  endloop
 endfacet
 facet normal -0.000555151 0.98466 -0.174481
  outer loop
   vertex -0.020168 0.276511 0.001046
   vertex -0.023102 0.276554 0.001298
   vertex -0.02155 0.277 0.00381
  endloop
 endfacet
 facet normal 0.563623 0.748876 -0.348589
  outer loop
   vertex -0.014678 0.273817 0.001298
   vertex -0.016231 0.273817 -0.001213
   vertex -0.017078 0.275506 0.001046
  endloop
 endfacet
 facet normal 0.415138 0.796394 -0.439791
  outer loop
   vertex -0.016231 0.273817 -0.001213
   vertex -0.018921 0.27509 -0.001447
   vertex -0.017078 0.275506 0.001046
  endloop
 endfacet
 facet normal 0.288415 0.886769 -0.361189
  outer loop
   vertex -0.017078 0.275506 0.001046
   vertex -0.018921 0.27509 -0.001447
   vertex -0.020168 0.276511 0.001046
  endloop
 endfacet
 facet normal 0.132412 0.888171 -0.440021
  outer loop
   vertex -0.018921 0.27509 -0.001447
   vertex -0.021846 0.275642 -0.001213
   vertex -0.020168 0.276511 0.001046
  endloop
 endfacet
 facet normal -0.0161962 0.937175 -0.348485
  outer loop
   vertex -0.020168 0.276511 0.001046
   vertex -0.021846 0.275642 -0.001213
   vertex -0.023102 0.276554 0.001298
  endloop
 endfacet
 facet normal -0.138975 0.90647 -0.398746
  outer loop
   vertex -0.021846 0.275642 -0.001213
   vertex -0.024314 0.275506 -0.000662
   vertex -0.023102 0.276554 0.001298
  endloop
 endfacet
 facet normal -0.771063 0.560215 0.302688
  outer loop
   vertex -0.028422 0.273817 0.006322
   vertex -0.030157 0.271429 0.006322
   vertex -0.028786 0.272257 0.008282
  endloop
 endfacet
 facet normal -0.704936 0.704936 0.0782949
  outer loop
   vertex -0.027428 0.27509 0.00381
   vertex -0.02964 0.272878 0.00381
   vertex -0.028422 0.273817 0.006322
  endloop
 endfacet
 facet normal -0.578519 0.796783 -0.174509
  outer loop
   vertex -0.02591 0.275642 0.001298
   vertex -0.028258 0.273882 0.001046
   vertex -0.027428 0.27509 0.00381
  endloop
 endfacet
 facet normal -0.797233 0.579229 0.170037
  outer loop
   vertex -0.028422 0.273817 0.006322
   vertex -0.02964 0.272878 0.00381
   vertex -0.030157 0.271429 0.006322
  endloop
 endfacet
 facet normal -0.888212 0.452708 0.078331
  outer loop
   vertex -0.02964 0.272878 0.00381
   vertex -0.031061 0.27009 0.00381
   vertex -0.030157 0.271429 0.006322
  endloop
 endfacet
 facet normal -0.703824 0.703824 -0.0962537
  outer loop
   vertex -0.027428 0.27509 0.00381
   vertex -0.028258 0.273882 0.001046
   vertex -0.02964 0.272878 0.00381
  endloop
 endfacet
 facet normal -0.794662 0.577331 -0.18762
  outer loop
   vertex -0.028258 0.273882 0.001046
   vertex -0.030168 0.271253 0.001046
   vertex -0.02964 0.272878 0.00381
  endloop
 endfacet
 facet normal -0.886806 0.451991 -0.0963284
  outer loop
   vertex -0.02964 0.272878 0.00381
   vertex -0.030168 0.271253 0.001046
   vertex -0.031061 0.27009 0.00381
  endloop
 endfacet
 facet normal -0.93657 0.303801 -0.17476
  outer loop
   vertex -0.030168 0.271253 0.001046
   vertex -0.031116 0.268476 0.001299
   vertex -0.031061 0.27009 0.00381
  endloop
 endfacet
 facet normal -0.537986 0.767602 -0.348366
  outer loop
   vertex -0.02591 0.275642 0.001298
   vertex -0.02639 0.274166 -0.001213
   vertex -0.028258 0.273882 0.001046
  endloop
 endfacet
 facet normal -0.629279 0.640767 -0.439803
  outer loop
   vertex -0.02639 0.274166 -0.001213
   vertex -0.028432 0.272 -0.001447
   vertex -0.028258 0.273882 0.001046
  endloop
 endfacet
 facet normal -0.754436 0.548107 -0.361117
  outer loop
   vertex -0.028258 0.273882 0.001046
   vertex -0.028432 0.272 -0.001447
   vertex -0.030168 0.271253 0.001046
  endloop
 endfacet
 facet normal -0.803858 0.400541 -0.439749
  outer loop
   vertex -0.028432 0.272 -0.001447
   vertex -0.029861 0.269389 -0.001213
   vertex -0.030168 0.271253 0.001046
  endloop
 endfacet
 facet normal -0.89641 0.274294 -0.348155
  outer loop
   vertex -0.030168 0.271253 0.001046
   vertex -0.029861 0.269389 -0.001213
   vertex -0.031116 0.268476 0.001299
  endloop
 endfacet
 facet normal -0.905177 0.147939 -0.398459
  outer loop
   vertex -0.029861 0.269389 -0.001213
   vertex -0.030494 0.267 -0.000662
   vertex -0.031116 0.268476 0.001299
  endloop
 endfacet
 facet normal -0.771063 -0.560215 0.302688
  outer loop
   vertex -0.030157 0.262571 0.006322
   vertex -0.028422 0.260183 0.006322
   vertex -0.028786 0.261743 0.008282
  endloop
 endfacet
 facet normal -0.888212 -0.452708 0.078331
  outer loop
   vertex -0.031061 0.26391 0.00381
   vertex -0.02964 0.261122 0.00381
   vertex -0.030157 0.262571 0.006322
  endloop
 endfacet
 facet normal -0.93657 -0.303801 -0.17476
  outer loop
   vertex -0.031116 0.265524 0.001299
   vertex -0.030168 0.262747 0.001046
   vertex -0.031061 0.26391 0.00381
  endloop
 endfacet
 facet normal -0.797233 -0.579229 0.170037
  outer loop
   vertex -0.030157 0.262571 0.006322
   vertex -0.02964 0.261122 0.00381
   vertex -0.028422 0.260183 0.006322
  endloop
 endfacet
 facet normal -0.704936 -0.704936 0.0782949
  outer loop
   vertex -0.02964 0.261122 0.00381
   vertex -0.027428 0.25891 0.00381
   vertex -0.028422 0.260183 0.006322
  endloop
 endfacet
 facet normal -0.886806 -0.451991 -0.0963284
  outer loop
   vertex -0.031061 0.26391 0.00381
   vertex -0.030168 0.262747 0.001046
   vertex -0.02964 0.261122 0.00381
  endloop
 endfacet
 facet normal -0.794662 -0.577331 -0.18762
  outer loop
   vertex -0.030168 0.262747 0.001046
   vertex -0.028258 0.260118 0.001046
   vertex -0.02964 0.261122 0.00381
  endloop
 endfacet
 facet normal -0.703824 -0.703824 -0.0962537
  outer loop
   vertex -0.02964 0.261122 0.00381
   vertex -0.028258 0.260118 0.001046
   vertex -0.027428 0.25891 0.00381
  endloop
 endfacet
 facet normal -0.578519 -0.796783 -0.174509
  outer loop
   vertex -0.028258 0.260118 0.001046
   vertex -0.02591 0.258358 0.001298
   vertex -0.027428 0.25891 0.00381
  endloop
 endfacet
 facet normal -0.89641 -0.274294 -0.348155
  outer loop
   vertex -0.031116 0.265524 0.001299
   vertex -0.029861 0.264611 -0.001213
   vertex -0.030168 0.262747 0.001046
  endloop
 endfacet
 facet normal -0.803858 -0.400541 -0.439749
  outer loop
   vertex -0.029861 0.264611 -0.001213
   vertex -0.028432 0.262 -0.001447
   vertex -0.030168 0.262747 0.001046
  endloop
 endfacet
 facet normal -0.754436 -0.548107 -0.361117
  outer loop
   vertex -0.030168 0.262747 0.001046
   vertex -0.028432 0.262 -0.001447
   vertex -0.028258 0.260118 0.001046
  endloop
 endfacet
 facet normal -0.629279 -0.640767 -0.439803
  outer loop
   vertex -0.028432 0.262 -0.001447
   vertex -0.02639 0.259834 -0.001213
   vertex -0.028258 0.260118 0.001046
  endloop
 endfacet
 facet normal -0.537986 -0.767602 -0.348366
  outer loop
   vertex -0.028258 0.260118 0.001046
   vertex -0.02639 0.259834 -0.001213
   vertex -0.02591 0.258358 0.001298
  endloop
 endfacet
 facet normal -0.420269 -0.815078 -0.398776
  outer loop
   vertex -0.02639 0.259834 -0.001213
   vertex -0.024314 0.258494 -0.000662
   vertex -0.02591 0.258358 0.001298
  endloop
 endfacet
 facet normal 0.294416 -0.906493 0.302638
  outer loop
   vertex -0.019998 0.257446 0.006322
   vertex -0.01719 0.258358 0.006322
   vertex -0.018786 0.258494 0.008282
  endloop
 endfacet
 facet normal 0.155824 -0.984657 0.07855
  outer loop
   vertex -0.02155 0.257 0.00381
   vertex -0.01846 0.257489 0.00381
   vertex -0.019998 0.257446 0.006322
  endloop
 endfacet
 facet normal -0.000555151 -0.98466 -0.174481
  outer loop
   vertex -0.023102 0.257446 0.001298
   vertex -0.020168 0.257489 0.001046
   vertex -0.02155 0.257 0.00381
  endloop
 endfacet
 facet normal 0.304389 -0.937197 0.170322
  outer loop
   vertex -0.019998 0.257446 0.006322
   vertex -0.01846 0.257489 0.00381
   vertex -0.01719 0.258358 0.006322
  endloop
 endfacet
 facet normal 0.452705 -0.888208 0.0783901
  outer loop
   vertex -0.01846 0.257489 0.00381
   vertex -0.015672 0.25891 0.00381
   vertex -0.01719 0.258358 0.006322
  endloop
 endfacet
 facet normal 0.155583 -0.983133 -0.0961419
  outer loop
   vertex -0.02155 0.257 0.00381
   vertex -0.020168 0.257489 0.001046
   vertex -0.01846 0.257489 0.00381
  endloop
 endfacet
 facet normal 0.303796 -0.934059 -0.187729
  outer loop
   vertex -0.020168 0.257489 0.001046
   vertex -0.017078 0.258494 0.001046
   vertex -0.01846 0.257489 0.00381
  endloop
 endfacet
 facet normal 0.451986 -0.886796 -0.0964489
  outer loop
   vertex -0.01846 0.257489 0.00381
   vertex -0.017078 0.258494 0.001046
   vertex -0.015672 0.25891 0.00381
  endloop
 endfacet
 facet normal 0.578874 -0.796508 -0.174584
  outer loop
   vertex -0.017078 0.258494 0.001046
   vertex -0.014678 0.260183 0.001298
   vertex -0.015672 0.25891 0.00381
  endloop
 endfacet
 facet normal -0.0161962 -0.937175 -0.348485
  outer loop
   vertex -0.023102 0.257446 0.001298
   vertex -0.021846 0.258358 -0.001213
   vertex -0.020168 0.257489 0.001046
  endloop
 endfacet
 facet normal 0.132412 -0.888171 -0.440021
  outer loop
   vertex -0.021846 0.258358 -0.001213
   vertex -0.018921 0.25891 -0.001447
   vertex -0.020168 0.257489 0.001046
  endloop
 endfacet
 facet normal 0.288415 -0.886769 -0.361189
  outer loop
   vertex -0.020168 0.257489 0.001046
   vertex -0.018921 0.25891 -0.001447
   vertex -0.017078 0.258494 0.001046
  endloop
 endfacet
 facet normal 0.415138 -0.796394 -0.439791
  outer loop
   vertex -0.018921 0.25891 -0.001447
   vertex -0.016231 0.260183 -0.001213
   vertex -0.017078 0.258494 0.001046
  endloop
 endfacet
 facet normal 0.563623 -0.748876 -0.348589
  outer loop
   vertex -0.017078 0.258494 0.001046
   vertex -0.016231 0.260183 -0.001213
   vertex -0.014678 0.260183 0.001298
  endloop
 endfacet
 facet normal 0.645038 -0.651744 -0.398942
  outer loop
   vertex -0.016231 0.260183 -0.001213
   vertex -0.014314 0.261743 -0.000662
   vertex -0.014678 0.260183 0.001298
  endloop
 endfacet
 facet normal 0.9532 -0 0.302341
  outer loop
   vertex -0.011984 0.265524 0.006321
   vertex -0.011984 0.268476 0.006321
   vertex -0.012606 0.267 0.008282
  endloop
 endfacet
 facet normal 0.984653 -0.155824 0.0785916
  outer loop
   vertex -0.012039 0.26391 0.00381
   vertex -0.01155 0.267 0.00381
   vertex -0.011984 0.265524 0.006321
  endloop
 endfacet
 facet normal 0.936352 -0.304548 -0.174631
  outer loop
   vertex -0.012943 0.262571 0.001298
   vertex -0.012078 0.265375 0.001046
   vertex -0.012039 0.26391 0.00381
  endloop
 endfacet
 facet normal 0.98539 -0 0.170314
  outer loop
   vertex -0.011984 0.265524 0.006321
   vertex -0.01155 0.267 0.00381
   vertex -0.011984 0.268476 0.006321
  endloop
 endfacet
 facet normal 0.984653 0.155824 0.0785916
  outer loop
   vertex -0.01155 0.267 0.00381
   vertex -0.012039 0.27009 0.00381
   vertex -0.011984 0.268476 0.006321
  endloop
 endfacet
 facet normal 0.983115 -0.15558 -0.0963335
  outer loop
   vertex -0.012039 0.26391 0.00381
   vertex -0.012078 0.265375 0.001046
   vertex -0.01155 0.267 0.00381
  endloop
 endfacet
 facet normal 0.982239 0 -0.187634
  outer loop
   vertex -0.012078 0.265375 0.001046
   vertex -0.012078 0.268625 0.001046
   vertex -0.01155 0.267 0.00381
  endloop
 endfacet
 facet normal 0.983115 0.15558 -0.0963335
  outer loop
   vertex -0.01155 0.267 0.00381
   vertex -0.012078 0.268625 0.001046
   vertex -0.012039 0.27009 0.00381
  endloop
 endfacet
 facet normal 0.936352 0.304548 -0.174631
  outer loop
   vertex -0.012078 0.268625 0.001046
   vertex -0.012943 0.271429 0.001298
   vertex -0.012039 0.27009 0.00381
  endloop
 endfacet
 facet normal 0.886309 -0.304753 -0.348685
  outer loop
   vertex -0.012943 0.262571 0.001298
   vertex -0.013423 0.264048 -0.001213
   vertex -0.012078 0.265375 0.001046
  endloop
 endfacet
 facet normal 0.885615 -0.148581 -0.440011
  outer loop
   vertex -0.013423 0.264048 -0.001213
   vertex -0.013044 0.267 -0.001447
   vertex -0.012078 0.265375 0.001046
  endloop
 endfacet
 facet normal 0.932446 0 -0.361309
  outer loop
   vertex -0.012078 0.265375 0.001046
   vertex -0.013044 0.267 -0.001447
   vertex -0.012078 0.268625 0.001046
  endloop
 endfacet
 facet normal 0.885615 0.148581 -0.440011
  outer loop
   vertex -0.013044 0.267 -0.001447
   vertex -0.013423 0.269952 -0.001213
   vertex -0.012078 0.268625 0.001046
  endloop
 endfacet
 facet normal 0.886309 0.304753 -0.348685
  outer loop
   vertex -0.012078 0.268625 0.001046
   vertex -0.013423 0.269952 -0.001213
   vertex -0.012943 0.271429 0.001298
  endloop
 endfacet
 facet normal 0.819189 0.412026 -0.398954
  outer loop
   vertex -0.013423 0.269952 -0.001213
   vertex -0.014314 0.272257 -0.000662
   vertex -0.012943 0.271429 0.001298
  endloop
 endfacet
 facet normal 0.61533 0.560308 -0.554459
  outer loop
   vertex -0.015455 0.271429 -0.002765
   vertex -0.016231 0.273817 -0.001213
   vertex -0.014314 0.272257 -0.000662
  endloop
 endfacet
 facet normal 0.467426 0.452641 -0.759361
  outer loop
   vertex -0.017297 0.27009 -0.004697
   vertex -0.017932 0.272878 -0.003426
   vertex -0.015455 0.271429 -0.002765
  endloop
 endfacet
 facet normal 0.262485 0.303841 -0.915851
  outer loop
   vertex -0.019518 0.268476 -0.005869
   vertex -0.020168 0.271253 -0.005134
   vertex -0.017297 0.27009 -0.004697
  endloop
 endfacet
 facet normal 0.508799 0.579247 -0.636864
  outer loop
   vertex -0.015455 0.271429 -0.002765
   vertex -0.017932 0.272878 -0.003426
   vertex -0.016231 0.273817 -0.001213
  endloop
 endfacet
 facet normal 0.38541 0.704977 -0.595371
  outer loop
   vertex -0.017932 0.272878 -0.003426
   vertex -0.018921 0.27509 -0.001447
   vertex -0.016231 0.273817 -0.001213
  endloop
 endfacet
 facet normal 0.310374 0.451949 -0.836307
  outer loop
   vertex -0.017297 0.27009 -0.004697
   vertex -0.020168 0.271253 -0.005134
   vertex -0.017932 0.272878 -0.003426
  endloop
 endfacet
 facet normal 0.187559 0.577248 -0.794737
  outer loop
   vertex -0.020168 0.271253 -0.005134
   vertex -0.021022 0.273882 -0.003426
   vertex -0.017932 0.272878 -0.003426
  endloop
 endfacet
 facet normal 0.228709 0.703897 -0.672474
  outer loop
   vertex -0.017932 0.272878 -0.003426
   vertex -0.021022 0.273882 -0.003426
   vertex -0.018921 0.27509 -0.001447
  endloop
 endfacet
 facet normal 0.102735 0.796801 -0.595444
  outer loop
   vertex -0.021022 0.273882 -0.003426
   vertex -0.021846 0.275642 -0.001213
   vertex -0.018921 0.27509 -0.001447
  endloop
 endfacet
 facet normal 0.0891868 0.274301 -0.957499
  outer loop
   vertex -0.019518 0.268476 -0.005869
   vertex -0.022326 0.269389 -0.005869
   vertex -0.020168 0.271253 -0.005134
  endloop
 endfacet
 facet normal -0.0336945 0.400135 -0.915836
  outer loop
   vertex -0.022326 0.269389 -0.005869
   vertex -0.023175 0.272 -0.004697
   vertex -0.020168 0.271253 -0.005134
  endloop
 endfacet
 facet normal 0.0146149 0.548074 -0.836302
  outer loop
   vertex -0.020168 0.271253 -0.005134
   vertex -0.023175 0.272 -0.004697
   vertex -0.021022 0.273882 -0.003426
  endloop
 endfacet
 facet normal -0.112009 0.640965 -0.759354
  outer loop
   vertex -0.023175 0.272 -0.004697
   vertex -0.023878 0.274166 -0.002765
   vertex -0.021022 0.273882 -0.003426
  endloop
 endfacet
 facet normal -0.0710868 0.767617 -0.636955
  outer loop
   vertex -0.021022 0.273882 -0.003426
   vertex -0.023878 0.274166 -0.002765
   vertex -0.021846 0.275642 -0.001213
  endloop
 endfacet
 facet normal -0.168666 0.815046 -0.554303
  outer loop
   vertex -0.023878 0.274166 -0.002765
   vertex -0.024314 0.275506 -0.000662
   vertex -0.021846 0.275642 -0.001213
  endloop
 endfacet
 facet normal -0.342493 0.758552 -0.554344
  outer loop
   vertex -0.023878 0.274166 -0.002765
   vertex -0.02639 0.274166 -0.001213
   vertex -0.024314 0.275506 -0.000662
  endloop
 endfacet
 facet normal -0.286233 0.584386 -0.759318
  outer loop
   vertex -0.023175 0.272 -0.004697
   vertex -0.026022 0.272257 -0.003426
   vertex -0.023878 0.274166 -0.002765
  endloop
 endfacet
 facet normal -0.207851 0.343516 -0.915858
  outer loop
   vertex -0.022326 0.269389 -0.005869
   vertex -0.025168 0.269629 -0.005134
   vertex -0.023175 0.272 -0.004697
  endloop
 endfacet
 facet normal -0.393627 0.662685 -0.637108
  outer loop
   vertex -0.023878 0.274166 -0.002765
   vertex -0.026022 0.272257 -0.003426
   vertex -0.02639 0.274166 -0.001213
  endloop
 endfacet
 facet normal -0.551379 0.584158 -0.595601
  outer loop
   vertex -0.026022 0.272257 -0.003426
   vertex -0.028432 0.272 -0.001447
   vertex -0.02639 0.274166 -0.001213
  endloop
 endfacet
 facet normal -0.334054 0.43492 -0.836213
  outer loop
   vertex -0.023175 0.272 -0.004697
   vertex -0.025168 0.269629 -0.005134
   vertex -0.026022 0.272257 -0.003426
  endloop
 endfacet
 facet normal -0.491058 0.356895 -0.794662
  outer loop
   vertex -0.025168 0.269629 -0.005134
   vertex -0.027932 0.269629 -0.003426
   vertex -0.026022 0.272257 -0.003426
  endloop
 endfacet
 facet normal -0.598657 0.435097 -0.672533
  outer loop
   vertex -0.026022 0.272257 -0.003426
   vertex -0.027932 0.269629 -0.003426
   vertex -0.028432 0.272 -0.001447
  endloop
 endfacet
 facet normal -0.725985 0.343961 -0.595514
  outer loop
   vertex -0.027932 0.269629 -0.003426
   vertex -0.029861 0.269389 -0.001213
   vertex -0.028432 0.272 -0.001447
  endloop
 endfacet
 facet normal -0.233325 0.169451 -0.957521
  outer loop
   vertex -0.022326 0.269389 -0.005869
   vertex -0.024061 0.267 -0.005869
   vertex -0.025168 0.269629 -0.005134
  endloop
 endfacet
 facet normal -0.390899 0.0914587 -0.915878
  outer loop
   vertex -0.024061 0.267 -0.005869
   vertex -0.026807 0.267 -0.004697
   vertex -0.025168 0.269629 -0.005134
  endloop
 endfacet
 facet normal -0.516783 0.183167 -0.836293
  outer loop
   vertex -0.025168 0.269629 -0.005134
   vertex -0.026807 0.267 -0.004697
   vertex -0.027932 0.269629 -0.003426
  endloop
 endfacet
 facet normal -0.644269 0.0913996 -0.759317
  outer loop
   vertex -0.026807 0.267 -0.004697
   vertex -0.029084 0.267 -0.002765
   vertex -0.027932 0.269629 -0.003426
  endloop
 endfacet
 facet normal -0.751958 0.169318 -0.637095
  outer loop
   vertex -0.027932 0.269629 -0.003426
   vertex -0.029084 0.267 -0.002765
   vertex -0.029861 0.269389 -0.001213
  endloop
 endfacet
 facet normal -0.827124 0.091254 -0.554562
  outer loop
   vertex -0.029084 0.267 -0.002765
   vertex -0.030494 0.267 -0.000662
   vertex -0.029861 0.269389 -0.001213
  endloop
 endfacet
 facet normal -0.827124 -0.091254 -0.554562
  outer loop
   vertex -0.029084 0.267 -0.002765
   vertex -0.029861 0.264611 -0.001213
   vertex -0.030494 0.267 -0.000662
  endloop
 endfacet
 facet normal -0.644269 -0.0913996 -0.759317
  outer loop
   vertex -0.026807 0.267 -0.004697
   vertex -0.027932 0.264371 -0.003426
   vertex -0.029084 0.267 -0.002765
  endloop
 endfacet
 facet normal -0.390899 -0.0914587 -0.915878
  outer loop
   vertex -0.024061 0.267 -0.005869
   vertex -0.025168 0.264371 -0.005134
   vertex -0.026807 0.267 -0.004697
  endloop
 endfacet
 facet normal -0.751958 -0.169318 -0.637095
  outer loop
   vertex -0.029084 0.267 -0.002765
   vertex -0.027932 0.264371 -0.003426
   vertex -0.029861 0.264611 -0.001213
  endloop
 endfacet
 facet normal -0.725985 -0.343961 -0.595514
  outer loop
   vertex -0.027932 0.264371 -0.003426
   vertex -0.028432 0.262 -0.001447
   vertex -0.029861 0.264611 -0.001213
  endloop
 endfacet
 facet normal -0.516783 -0.183167 -0.836293
  outer loop
   vertex -0.026807 0.267 -0.004697
   vertex -0.025168 0.264371 -0.005134
   vertex -0.027932 0.264371 -0.003426
  endloop
 endfacet
 facet normal -0.491058 -0.356895 -0.794662
  outer loop
   vertex -0.025168 0.264371 -0.005134
   vertex -0.026022 0.261743 -0.003426
   vertex -0.027932 0.264371 -0.003426
  endloop
 endfacet
 facet normal -0.598657 -0.435097 -0.672533
  outer loop
   vertex -0.027932 0.264371 -0.003426
   vertex -0.026022 0.261743 -0.003426
   vertex -0.028432 0.262 -0.001447
  endloop
 endfacet
 facet normal -0.551379 -0.584158 -0.595601
  outer loop
   vertex -0.026022 0.261743 -0.003426
   vertex -0.02639 0.259834 -0.001213
   vertex -0.028432 0.262 -0.001447
  endloop
 endfacet
 facet normal -0.233325 -0.169451 -0.957521
  outer loop
   vertex -0.024061 0.267 -0.005869
   vertex -0.022326 0.264611 -0.005869
   vertex -0.025168 0.264371 -0.005134
  endloop
 endfacet
 facet normal -0.207851 -0.343516 -0.915858
  outer loop
   vertex -0.022326 0.264611 -0.005869
   vertex -0.023175 0.262 -0.004697
   vertex -0.025168 0.264371 -0.005134
  endloop
 endfacet
 facet normal -0.334054 -0.43492 -0.836213
  outer loop
   vertex -0.025168 0.264371 -0.005134
   vertex -0.023175 0.262 -0.004697
   vertex -0.026022 0.261743 -0.003426
  endloop
 endfacet
 facet normal -0.286233 -0.584386 -0.759318
  outer loop
   vertex -0.023175 0.262 -0.004697
   vertex -0.023878 0.259834 -0.002765
   vertex -0.026022 0.261743 -0.003426
  endloop
 endfacet
 facet normal -0.393627 -0.662685 -0.637108
  outer loop
   vertex -0.026022 0.261743 -0.003426
   vertex -0.023878 0.259834 -0.002765
   vertex -0.02639 0.259834 -0.001213
  endloop
 endfacet
 facet normal -0.342493 -0.758552 -0.554344
  outer loop
   vertex -0.023878 0.259834 -0.002765
   vertex -0.024314 0.258494 -0.000662
   vertex -0.02639 0.259834 -0.001213
  endloop
 endfacet
 facet normal 0.723015 0.412034 -0.554506
  outer loop
   vertex -0.013423 0.269952 -0.001213
   vertex -0.015455 0.271429 -0.002765
   vertex -0.014314 0.272257 -0.000662
  endloop
 endfacet
 facet normal 0.789589 0.148568 -0.59538
  outer loop
   vertex -0.013044 0.267 -0.001447
   vertex -0.014842 0.268625 -0.003426
   vertex -0.013423 0.269952 -0.001213
  endloop
 endfacet
 facet normal 0.789589 -0.148568 -0.59538
  outer loop
   vertex -0.013423 0.264048 -0.001213
   vertex -0.014842 0.265375 -0.003426
   vertex -0.013044 0.267 -0.001447
  endloop
 endfacet
 facet normal 0.708089 0.304936 -0.636886
  outer loop
   vertex -0.013423 0.269952 -0.001213
   vertex -0.014842 0.268625 -0.003426
   vertex -0.015455 0.271429 -0.002765
  endloop
 endfacet
 facet normal 0.574948 0.304695 -0.759339
  outer loop
   vertex -0.014842 0.268625 -0.003426
   vertex -0.017297 0.27009 -0.004697
   vertex -0.015455 0.271429 -0.002765
  endloop
 endfacet
 facet normal 0.740143 0 -0.672449
  outer loop
   vertex -0.013044 0.267 -0.001447
   vertex -0.014842 0.265375 -0.003426
   vertex -0.014842 0.268625 -0.003426
  endloop
 endfacet
 facet normal 0.607028 0 -0.794681
  outer loop
   vertex -0.014842 0.265375 -0.003426
   vertex -0.017078 0.267 -0.005134
   vertex -0.014842 0.268625 -0.003426
  endloop
 endfacet
 facet normal 0.525774 0.155534 -0.836284
  outer loop
   vertex -0.014842 0.268625 -0.003426
   vertex -0.017078 0.267 -0.005134
   vertex -0.017297 0.27009 -0.004697
  endloop
 endfacet
 facet normal 0.370096 0.155752 -0.915844
  outer loop
   vertex -0.017078 0.267 -0.005134
   vertex -0.019518 0.268476 -0.005869
   vertex -0.017297 0.27009 -0.004697
  endloop
 endfacet
 facet normal 0.708089 -0.304936 -0.636886
  outer loop
   vertex -0.013423 0.264048 -0.001213
   vertex -0.015455 0.262571 -0.002765
   vertex -0.014842 0.265375 -0.003426
  endloop
 endfacet
 facet normal 0.574948 -0.304695 -0.759339
  outer loop
   vertex -0.015455 0.262571 -0.002765
   vertex -0.017297 0.26391 -0.004697
   vertex -0.014842 0.265375 -0.003426
  endloop
 endfacet
 facet normal 0.525774 -0.155534 -0.836284
  outer loop
   vertex -0.014842 0.265375 -0.003426
   vertex -0.017297 0.26391 -0.004697
   vertex -0.017078 0.267 -0.005134
  endloop
 endfacet
 facet normal 0.370096 -0.155752 -0.915844
  outer loop
   vertex -0.017297 0.26391 -0.004697
   vertex -0.019518 0.265524 -0.005869
   vertex -0.017078 0.267 -0.005134
  endloop
 endfacet
 facet normal 0.288428 0 -0.957502
  outer loop
   vertex -0.017078 0.267 -0.005134
   vertex -0.019518 0.265524 -0.005869
   vertex -0.019518 0.268476 -0.005869
  endloop
 endfacet
 facet normal 0.156037 0 -0.987751
  outer loop
   vertex -0.019518 0.265524 -0.005869
   vertex -0.02155 0.267 -0.00619
   vertex -0.019518 0.268476 -0.005869
  endloop
 endfacet
 facet normal -0.168666 -0.815046 -0.554303
  outer loop
   vertex -0.023878 0.259834 -0.002765
   vertex -0.021846 0.258358 -0.001213
   vertex -0.024314 0.258494 -0.000662
  endloop
 endfacet
 facet normal -0.112009 -0.640965 -0.759354
  outer loop
   vertex -0.023175 0.262 -0.004697
   vertex -0.021022 0.260118 -0.003426
   vertex -0.023878 0.259834 -0.002765
  endloop
 endfacet
 facet normal -0.0336945 -0.400135 -0.915836
  outer loop
   vertex -0.022326 0.264611 -0.005869
   vertex -0.020168 0.262747 -0.005134
   vertex -0.023175 0.262 -0.004697
  endloop
 endfacet
 facet normal -0.0710868 -0.767617 -0.636955
  outer loop
   vertex -0.023878 0.259834 -0.002765
   vertex -0.021022 0.260118 -0.003426
   vertex -0.021846 0.258358 -0.001213
  endloop
 endfacet
 facet normal 0.102735 -0.796801 -0.595444
  outer loop
   vertex -0.021022 0.260118 -0.003426
   vertex -0.018921 0.25891 -0.001447
   vertex -0.021846 0.258358 -0.001213
  endloop
 endfacet
 facet normal 0.0146149 -0.548074 -0.836302
  outer loop
   vertex -0.023175 0.262 -0.004697
   vertex -0.020168 0.262747 -0.005134
   vertex -0.021022 0.260118 -0.003426
  endloop
 endfacet
 facet normal 0.187559 -0.577248 -0.794737
  outer loop
   vertex -0.020168 0.262747 -0.005134
   vertex -0.017932 0.261122 -0.003426
   vertex -0.021022 0.260118 -0.003426
  endloop
 endfacet
 facet normal 0.228709 -0.703897 -0.672474
  outer loop
   vertex -0.021022 0.260118 -0.003426
   vertex -0.017932 0.261122 -0.003426
   vertex -0.018921 0.25891 -0.001447
  endloop
 endfacet
 facet normal 0.38541 -0.704977 -0.595371
  outer loop
   vertex -0.017932 0.261122 -0.003426
   vertex -0.016231 0.260183 -0.001213
   vertex -0.018921 0.25891 -0.001447
  endloop
 endfacet
 facet normal 0.0891868 -0.274301 -0.957499
  outer loop
   vertex -0.022326 0.264611 -0.005869
   vertex -0.019518 0.265524 -0.005869
   vertex -0.020168 0.262747 -0.005134
  endloop
 endfacet
 facet normal 0.262485 -0.303841 -0.915851
  outer loop
   vertex -0.019518 0.265524 -0.005869
   vertex -0.017297 0.26391 -0.004697
   vertex -0.020168 0.262747 -0.005134
  endloop
 endfacet
 facet normal 0.310374 -0.451949 -0.836307
  outer loop
   vertex -0.020168 0.262747 -0.005134
   vertex -0.017297 0.26391 -0.004697
   vertex -0.017932 0.261122 -0.003426
  endloop
 endfacet
 facet normal 0.467426 -0.452641 -0.759361
  outer loop
   vertex -0.017297 0.26391 -0.004697
   vertex -0.015455 0.262571 -0.002765
   vertex -0.017932 0.261122 -0.003426
  endloop
 endfacet
 facet normal 0.508799 -0.579247 -0.636864
  outer loop
   vertex -0.017932 0.261122 -0.003426
   vertex -0.015455 0.262571 -0.002765
   vertex -0.016231 0.260183 -0.001213
  endloop
 endfacet
 facet normal 0.61533 -0.560308 -0.554459
  outer loop
   vertex -0.015455 0.262571 -0.002765
   vertex -0.014314 0.261743 -0.000662
   vertex -0.016231 0.260183 -0.001213
  endloop
 endfacet
endsolid ExportedfromBlender-3.5.1
