solid ExportedfromBlender-3.5.1
 facet normal 0.0482486 -0.148392 -0.987751
  outer loop
   vertex 0.02377 0.25355 -0.01494
   vertex 0.025802 0.252074 -0.014619
   vertex 0.022994 0.251161 -0.014619
  endloop
 endfacet
 facet normal 0.723015 -0.412034 -0.554506
  outer loop
   vertex 0.031006 0.248293 -0.009412
   vertex 0.029865 0.249121 -0.011515
   vertex 0.031897 0.250598 -0.009963
  endloop
 endfacet
 facet normal -0.126271 -0.0917039 -0.987748
  outer loop
   vertex 0.02377 0.25355 -0.01494
   vertex 0.022994 0.251161 -0.014619
   vertex 0.021259 0.25355 -0.014619
  endloop
 endfacet
 facet normal -0.126271 0.0917039 -0.987748
  outer loop
   vertex 0.02377 0.25355 -0.01494
   vertex 0.021259 0.25355 -0.014619
   vertex 0.022994 0.255939 -0.014619
  endloop
 endfacet
 facet normal 0.0482486 0.148392 -0.987751
  outer loop
   vertex 0.02377 0.25355 -0.01494
   vertex 0.022994 0.255939 -0.014619
   vertex 0.025802 0.255026 -0.014619
  endloop
 endfacet
 facet normal 0.819189 -0.412026 -0.398954
  outer loop
   vertex 0.031006 0.248293 -0.009412
   vertex 0.031897 0.250598 -0.009963
   vertex 0.032377 0.249121 -0.007452
  endloop
 endfacet
 facet normal -0.138975 -0.90647 -0.398746
  outer loop
   vertex 0.021006 0.245044 -0.009412
   vertex 0.023474 0.244908 -0.009963
   vertex 0.022218 0.243996 -0.007452
  endloop
 endfacet
 facet normal -0.905177 -0.147939 -0.398459
  outer loop
   vertex 0.014826 0.25355 -0.009412
   vertex 0.015459 0.251161 -0.009963
   vertex 0.014204 0.252074 -0.007451
  endloop
 endfacet
 facet normal -0.420269 0.815078 -0.398776
  outer loop
   vertex 0.021006 0.262056 -0.009412
   vertex 0.01893 0.260716 -0.009963
   vertex 0.01941 0.262192 -0.007452
  endloop
 endfacet
 facet normal 0.645038 0.651744 -0.398942
  outer loop
   vertex 0.031006 0.258807 -0.009412
   vertex 0.029089 0.260367 -0.009963
   vertex 0.030642 0.260367 -0.007452
  endloop
 endfacet
 facet normal 0.771063 -0.560215 -0.302688
  outer loop
   vertex 0.031006 0.248293 -0.009412
   vertex 0.032377 0.249121 -0.007452
   vertex 0.030642 0.246733 -0.007452
  endloop
 endfacet
 facet normal -0.294416 -0.906493 -0.302638
  outer loop
   vertex 0.021006 0.245044 -0.009412
   vertex 0.022218 0.243996 -0.007452
   vertex 0.01941 0.244908 -0.007452
  endloop
 endfacet
 facet normal -0.9532 0 -0.302341
  outer loop
   vertex 0.014826 0.25355 -0.009412
   vertex 0.014204 0.252074 -0.007451
   vertex 0.014204 0.255026 -0.007451
  endloop
 endfacet
 facet normal -0.294416 0.906493 -0.302638
  outer loop
   vertex 0.021006 0.262056 -0.009412
   vertex 0.01941 0.262192 -0.007452
   vertex 0.022218 0.263104 -0.007452
  endloop
 endfacet
 facet normal 0.771063 0.560215 -0.302688
  outer loop
   vertex 0.031006 0.258807 -0.009412
   vertex 0.030642 0.260367 -0.007452
   vertex 0.032377 0.257979 -0.007452
  endloop
 endfacet
 facet normal 0.342493 -0.758552 0.554344
  outer loop
   vertex 0.026534 0.245044 -0.000468
   vertex 0.02861 0.246384 8.29998e-05
   vertex 0.026098 0.246384 0.001635
  endloop
 endfacet
 facet normal -0.61533 -0.560308 0.554459
  outer loop
   vertex 0.016534 0.248293 -0.000468
   vertex 0.018451 0.246733 8.29998e-05
   vertex 0.017675 0.249121 0.001635
  endloop
 endfacet
 facet normal -0.723015 0.412034 0.554506
  outer loop
   vertex 0.016534 0.258807 -0.000468
   vertex 0.015643 0.256502 8.29998e-05
   vertex 0.017675 0.257979 0.001635
  endloop
 endfacet
 facet normal 0.168666 0.815046 0.554303
  outer loop
   vertex 0.026534 0.262056 -0.000468
   vertex 0.024066 0.262192 8.29998e-05
   vertex 0.026098 0.260716 0.001635
  endloop
 endfacet
 facet normal 0.827124 0.091254 0.554562
  outer loop
   vertex 0.032714 0.25355 -0.000468
   vertex 0.032081 0.255939 8.29998e-05
   vertex 0.031304 0.25355 0.001635
  endloop
 endfacet
 facet normal 0.126271 0.0917039 0.987748
  outer loop
   vertex 0.026281 0.25355 0.004739
   vertex 0.024546 0.255939 0.004739
   vertex 0.02377 0.25355 0.00506
  endloop
 endfacet
 facet normal 0.390899 0.0914587 0.915878
  outer loop
   vertex 0.029027 0.25355 0.003567
   vertex 0.027388 0.256179 0.004004
   vertex 0.026281 0.25355 0.004739
  endloop
 endfacet
 facet normal 0.644269 0.0913996 0.759317
  outer loop
   vertex 0.031304 0.25355 0.001635
   vertex 0.030152 0.256179 0.002296
   vertex 0.029027 0.25355 0.003567
  endloop
 endfacet
 facet normal 0.233325 0.169451 0.957521
  outer loop
   vertex 0.026281 0.25355 0.004739
   vertex 0.027388 0.256179 0.004004
   vertex 0.024546 0.255939 0.004739
  endloop
 endfacet
 facet normal 0.207851 0.343516 0.915858
  outer loop
   vertex 0.027388 0.256179 0.004004
   vertex 0.025395 0.25855 0.003567
   vertex 0.024546 0.255939 0.004739
  endloop
 endfacet
 facet normal 0.516783 0.183167 0.836293
  outer loop
   vertex 0.029027 0.25355 0.003567
   vertex 0.030152 0.256179 0.002296
   vertex 0.027388 0.256179 0.004004
  endloop
 endfacet
 facet normal 0.491058 0.356895 0.794662
  outer loop
   vertex 0.030152 0.256179 0.002296
   vertex 0.028242 0.258807 0.002296
   vertex 0.027388 0.256179 0.004004
  endloop
 endfacet
 facet normal 0.334054 0.43492 0.836213
  outer loop
   vertex 0.027388 0.256179 0.004004
   vertex 0.028242 0.258807 0.002296
   vertex 0.025395 0.25855 0.003567
  endloop
 endfacet
 facet normal 0.286233 0.584386 0.759318
  outer loop
   vertex 0.028242 0.258807 0.002296
   vertex 0.026098 0.260716 0.001635
   vertex 0.025395 0.25855 0.003567
  endloop
 endfacet
 facet normal 0.751958 0.169318 0.637095
  outer loop
   vertex 0.031304 0.25355 0.001635
   vertex 0.032081 0.255939 8.29998e-05
   vertex 0.030152 0.256179 0.002296
  endloop
 endfacet
 facet normal 0.725985 0.343961 0.595514
  outer loop
   vertex 0.032081 0.255939 8.29998e-05
   vertex 0.030652 0.25855 0.000317
   vertex 0.030152 0.256179 0.002296
  endloop
 endfacet
 facet normal 0.598657 0.435097 0.672533
  outer loop
   vertex 0.030152 0.256179 0.002296
   vertex 0.030652 0.25855 0.000317
   vertex 0.028242 0.258807 0.002296
  endloop
 endfacet
 facet normal 0.551379 0.584158 0.595601
  outer loop
   vertex 0.030652 0.25855 0.000317
   vertex 0.02861 0.260716 8.29998e-05
   vertex 0.028242 0.258807 0.002296
  endloop
 endfacet
 facet normal 0.393627 0.662685 0.637108
  outer loop
   vertex 0.028242 0.258807 0.002296
   vertex 0.02861 0.260716 8.29998e-05
   vertex 0.026098 0.260716 0.001635
  endloop
 endfacet
 facet normal 0.342493 0.758552 0.554344
  outer loop
   vertex 0.02861 0.260716 8.29998e-05
   vertex 0.026534 0.262056 -0.000468
   vertex 0.026098 0.260716 0.001635
  endloop
 endfacet
 facet normal -0.0482486 0.148392 0.987751
  outer loop
   vertex 0.024546 0.255939 0.004739
   vertex 0.021738 0.255026 0.004739
   vertex 0.02377 0.25355 0.00506
  endloop
 endfacet
 facet normal 0.0336945 0.400135 0.915836
  outer loop
   vertex 0.025395 0.25855 0.003567
   vertex 0.022388 0.257803 0.004004
   vertex 0.024546 0.255939 0.004739
  endloop
 endfacet
 facet normal 0.112009 0.640965 0.759354
  outer loop
   vertex 0.026098 0.260716 0.001635
   vertex 0.023242 0.260432 0.002296
   vertex 0.025395 0.25855 0.003567
  endloop
 endfacet
 facet normal -0.0891868 0.274301 0.957499
  outer loop
   vertex 0.024546 0.255939 0.004739
   vertex 0.022388 0.257803 0.004004
   vertex 0.021738 0.255026 0.004739
  endloop
 endfacet
 facet normal -0.262485 0.303841 0.915851
  outer loop
   vertex 0.022388 0.257803 0.004004
   vertex 0.019517 0.25664 0.003567
   vertex 0.021738 0.255026 0.004739
  endloop
 endfacet
 facet normal -0.0146149 0.548074 0.836302
  outer loop
   vertex 0.025395 0.25855 0.003567
   vertex 0.023242 0.260432 0.002296
   vertex 0.022388 0.257803 0.004004
  endloop
 endfacet
 facet normal -0.187559 0.577248 0.794737
  outer loop
   vertex 0.023242 0.260432 0.002296
   vertex 0.020152 0.259428 0.002296
   vertex 0.022388 0.257803 0.004004
  endloop
 endfacet
 facet normal -0.310374 0.451949 0.836307
  outer loop
   vertex 0.022388 0.257803 0.004004
   vertex 0.020152 0.259428 0.002296
   vertex 0.019517 0.25664 0.003567
  endloop
 endfacet
 facet normal -0.467426 0.452641 0.759361
  outer loop
   vertex 0.020152 0.259428 0.002296
   vertex 0.017675 0.257979 0.001635
   vertex 0.019517 0.25664 0.003567
  endloop
 endfacet
 facet normal 0.0710868 0.767617 0.636955
  outer loop
   vertex 0.026098 0.260716 0.001635
   vertex 0.024066 0.262192 8.29998e-05
   vertex 0.023242 0.260432 0.002296
  endloop
 endfacet
 facet normal -0.102735 0.796801 0.595444
  outer loop
   vertex 0.024066 0.262192 8.29998e-05
   vertex 0.021141 0.26164 0.000317
   vertex 0.023242 0.260432 0.002296
  endloop
 endfacet
 facet normal -0.228709 0.703897 0.672474
  outer loop
   vertex 0.023242 0.260432 0.002296
   vertex 0.021141 0.26164 0.000317
   vertex 0.020152 0.259428 0.002296
  endloop
 endfacet
 facet normal -0.38541 0.704977 0.595371
  outer loop
   vertex 0.021141 0.26164 0.000317
   vertex 0.018451 0.260367 8.29998e-05
   vertex 0.020152 0.259428 0.002296
  endloop
 endfacet
 facet normal -0.508799 0.579247 0.636864
  outer loop
   vertex 0.020152 0.259428 0.002296
   vertex 0.018451 0.260367 8.29998e-05
   vertex 0.017675 0.257979 0.001635
  endloop
 endfacet
 facet normal -0.61533 0.560308 0.554459
  outer loop
   vertex 0.018451 0.260367 8.29998e-05
   vertex 0.016534 0.258807 -0.000468
   vertex 0.017675 0.257979 0.001635
  endloop
 endfacet
 facet normal -0.156037 0 0.987751
  outer loop
   vertex 0.021738 0.255026 0.004739
   vertex 0.021738 0.252074 0.004739
   vertex 0.02377 0.25355 0.00506
  endloop
 endfacet
 facet normal -0.370096 0.155752 0.915844
  outer loop
   vertex 0.019517 0.25664 0.003567
   vertex 0.019298 0.25355 0.004004
   vertex 0.021738 0.255026 0.004739
  endloop
 endfacet
 facet normal -0.574948 0.304695 0.759339
  outer loop
   vertex 0.017675 0.257979 0.001635
   vertex 0.017062 0.255175 0.002296
   vertex 0.019517 0.25664 0.003567
  endloop
 endfacet
 facet normal -0.288428 0 0.957502
  outer loop
   vertex 0.021738 0.255026 0.004739
   vertex 0.019298 0.25355 0.004004
   vertex 0.021738 0.252074 0.004739
  endloop
 endfacet
 facet normal -0.370096 -0.155752 0.915844
  outer loop
   vertex 0.019298 0.25355 0.004004
   vertex 0.019517 0.25046 0.003567
   vertex 0.021738 0.252074 0.004739
  endloop
 endfacet
 facet normal -0.525774 0.155534 0.836284
  outer loop
   vertex 0.019517 0.25664 0.003567
   vertex 0.017062 0.255175 0.002296
   vertex 0.019298 0.25355 0.004004
  endloop
 endfacet
 facet normal -0.607028 0 0.794681
  outer loop
   vertex 0.017062 0.255175 0.002296
   vertex 0.017062 0.251925 0.002296
   vertex 0.019298 0.25355 0.004004
  endloop
 endfacet
 facet normal -0.525774 -0.155534 0.836284
  outer loop
   vertex 0.019298 0.25355 0.004004
   vertex 0.017062 0.251925 0.002296
   vertex 0.019517 0.25046 0.003567
  endloop
 endfacet
 facet normal -0.574948 -0.304695 0.759339
  outer loop
   vertex 0.017062 0.251925 0.002296
   vertex 0.017675 0.249121 0.001635
   vertex 0.019517 0.25046 0.003567
  endloop
 endfacet
 facet normal -0.708089 0.304936 0.636886
  outer loop
   vertex 0.017675 0.257979 0.001635
   vertex 0.015643 0.256502 8.29998e-05
   vertex 0.017062 0.255175 0.002296
  endloop
 endfacet
 facet normal -0.789589 0.148568 0.59538
  outer loop
   vertex 0.015643 0.256502 8.29998e-05
   vertex 0.015264 0.25355 0.000317
   vertex 0.017062 0.255175 0.002296
  endloop
 endfacet
 facet normal -0.740143 0 0.672449
  outer loop
   vertex 0.017062 0.255175 0.002296
   vertex 0.015264 0.25355 0.000317
   vertex 0.017062 0.251925 0.002296
  endloop
 endfacet
 facet normal -0.789589 -0.148568 0.59538
  outer loop
   vertex 0.015264 0.25355 0.000317
   vertex 0.015643 0.250598 8.29998e-05
   vertex 0.017062 0.251925 0.002296
  endloop
 endfacet
 facet normal -0.708089 -0.304936 0.636886
  outer loop
   vertex 0.017062 0.251925 0.002296
   vertex 0.015643 0.250598 8.29998e-05
   vertex 0.017675 0.249121 0.001635
  endloop
 endfacet
 facet normal -0.723015 -0.412034 0.554506
  outer loop
   vertex 0.015643 0.250598 8.29998e-05
   vertex 0.016534 0.248293 -0.000468
   vertex 0.017675 0.249121 0.001635
  endloop
 endfacet
 facet normal -0.0482486 -0.148392 0.987751
  outer loop
   vertex 0.021738 0.252074 0.004739
   vertex 0.024546 0.251161 0.004739
   vertex 0.02377 0.25355 0.00506
  endloop
 endfacet
 facet normal -0.262485 -0.303841 0.915851
  outer loop
   vertex 0.019517 0.25046 0.003567
   vertex 0.022388 0.249297 0.004004
   vertex 0.021738 0.252074 0.004739
  endloop
 endfacet
 facet normal -0.467426 -0.452641 0.759361
  outer loop
   vertex 0.017675 0.249121 0.001635
   vertex 0.020152 0.247672 0.002296
   vertex 0.019517 0.25046 0.003567
  endloop
 endfacet
 facet normal -0.0891868 -0.274301 0.957499
  outer loop
   vertex 0.021738 0.252074 0.004739
   vertex 0.022388 0.249297 0.004004
   vertex 0.024546 0.251161 0.004739
  endloop
 endfacet
 facet normal 0.0336945 -0.400135 0.915836
  outer loop
   vertex 0.022388 0.249297 0.004004
   vertex 0.025395 0.24855 0.003567
   vertex 0.024546 0.251161 0.004739
  endloop
 endfacet
 facet normal -0.310374 -0.451949 0.836307
  outer loop
   vertex 0.019517 0.25046 0.003567
   vertex 0.020152 0.247672 0.002296
   vertex 0.022388 0.249297 0.004004
  endloop
 endfacet
 facet normal -0.187559 -0.577248 0.794737
  outer loop
   vertex 0.020152 0.247672 0.002296
   vertex 0.023242 0.246668 0.002296
   vertex 0.022388 0.249297 0.004004
  endloop
 endfacet
 facet normal -0.0146149 -0.548074 0.836302
  outer loop
   vertex 0.022388 0.249297 0.004004
   vertex 0.023242 0.246668 0.002296
   vertex 0.025395 0.24855 0.003567
  endloop
 endfacet
 facet normal 0.112009 -0.640965 0.759354
  outer loop
   vertex 0.023242 0.246668 0.002296
   vertex 0.026098 0.246384 0.001635
   vertex 0.025395 0.24855 0.003567
  endloop
 endfacet
 facet normal -0.508799 -0.579247 0.636864
  outer loop
   vertex 0.017675 0.249121 0.001635
   vertex 0.018451 0.246733 8.29998e-05
   vertex 0.020152 0.247672 0.002296
  endloop
 endfacet
 facet normal -0.38541 -0.704977 0.595371
  outer loop
   vertex 0.018451 0.246733 8.29998e-05
   vertex 0.021141 0.24546 0.000317
   vertex 0.020152 0.247672 0.002296
  endloop
 endfacet
 facet normal -0.228709 -0.703897 0.672474
  outer loop
   vertex 0.020152 0.247672 0.002296
   vertex 0.021141 0.24546 0.000317
   vertex 0.023242 0.246668 0.002296
  endloop
 endfacet
 facet normal -0.102735 -0.796801 0.595444
  outer loop
   vertex 0.021141 0.24546 0.000317
   vertex 0.024066 0.244908 8.29998e-05
   vertex 0.023242 0.246668 0.002296
  endloop
 endfacet
 facet normal 0.0710868 -0.767617 0.636955
  outer loop
   vertex 0.023242 0.246668 0.002296
   vertex 0.024066 0.244908 8.29998e-05
   vertex 0.026098 0.246384 0.001635
  endloop
 endfacet
 facet normal 0.168666 -0.815046 0.554303
  outer loop
   vertex 0.024066 0.244908 8.29998e-05
   vertex 0.026534 0.245044 -0.000468
   vertex 0.026098 0.246384 0.001635
  endloop
 endfacet
 facet normal 0.126271 -0.0917039 0.987748
  outer loop
   vertex 0.024546 0.251161 0.004739
   vertex 0.026281 0.25355 0.004739
   vertex 0.02377 0.25355 0.00506
  endloop
 endfacet
 facet normal 0.207851 -0.343516 0.915858
  outer loop
   vertex 0.025395 0.24855 0.003567
   vertex 0.027388 0.250921 0.004004
   vertex 0.024546 0.251161 0.004739
  endloop
 endfacet
 facet normal 0.286233 -0.584386 0.759318
  outer loop
   vertex 0.026098 0.246384 0.001635
   vertex 0.028242 0.248293 0.002296
   vertex 0.025395 0.24855 0.003567
  endloop
 endfacet
 facet normal 0.233325 -0.169451 0.957521
  outer loop
   vertex 0.024546 0.251161 0.004739
   vertex 0.027388 0.250921 0.004004
   vertex 0.026281 0.25355 0.004739
  endloop
 endfacet
 facet normal 0.390899 -0.0914587 0.915878
  outer loop
   vertex 0.027388 0.250921 0.004004
   vertex 0.029027 0.25355 0.003567
   vertex 0.026281 0.25355 0.004739
  endloop
 endfacet
 facet normal 0.334054 -0.43492 0.836213
  outer loop
   vertex 0.025395 0.24855 0.003567
   vertex 0.028242 0.248293 0.002296
   vertex 0.027388 0.250921 0.004004
  endloop
 endfacet
 facet normal 0.491058 -0.356895 0.794662
  outer loop
   vertex 0.028242 0.248293 0.002296
   vertex 0.030152 0.250921 0.002296
   vertex 0.027388 0.250921 0.004004
  endloop
 endfacet
 facet normal 0.516783 -0.183167 0.836293
  outer loop
   vertex 0.027388 0.250921 0.004004
   vertex 0.030152 0.250921 0.002296
   vertex 0.029027 0.25355 0.003567
  endloop
 endfacet
 facet normal 0.644269 -0.0913996 0.759317
  outer loop
   vertex 0.030152 0.250921 0.002296
   vertex 0.031304 0.25355 0.001635
   vertex 0.029027 0.25355 0.003567
  endloop
 endfacet
 facet normal 0.393627 -0.662685 0.637108
  outer loop
   vertex 0.026098 0.246384 0.001635
   vertex 0.02861 0.246384 8.29998e-05
   vertex 0.028242 0.248293 0.002296
  endloop
 endfacet
 facet normal 0.551379 -0.584158 0.595601
  outer loop
   vertex 0.02861 0.246384 8.29998e-05
   vertex 0.030652 0.24855 0.000317
   vertex 0.028242 0.248293 0.002296
  endloop
 endfacet
 facet normal 0.598657 -0.435097 0.672533
  outer loop
   vertex 0.028242 0.248293 0.002296
   vertex 0.030652 0.24855 0.000317
   vertex 0.030152 0.250921 0.002296
  endloop
 endfacet
 facet normal 0.725985 -0.343961 0.595514
  outer loop
   vertex 0.030652 0.24855 0.000317
   vertex 0.032081 0.251161 8.29998e-05
   vertex 0.030152 0.250921 0.002296
  endloop
 endfacet
 facet normal 0.751958 -0.169318 0.637095
  outer loop
   vertex 0.030152 0.250921 0.002296
   vertex 0.032081 0.251161 8.29998e-05
   vertex 0.031304 0.25355 0.001635
  endloop
 endfacet
 facet normal 0.827124 -0.091254 0.554562
  outer loop
   vertex 0.032081 0.251161 8.29998e-05
   vertex 0.032714 0.25355 -0.000468
   vertex 0.031304 0.25355 0.001635
  endloop
 endfacet
 facet normal 0.905177 0.147939 0.398459
  outer loop
   vertex 0.033336 0.255026 -0.002429
   vertex 0.032081 0.255939 8.29998e-05
   vertex 0.032714 0.25355 -0.000468
  endloop
 endfacet
 facet normal 0.93657 0.303801 0.17476
  outer loop
   vertex 0.033281 0.25664 -0.00494
   vertex 0.032388 0.257803 -0.002176
   vertex 0.033336 0.255026 -0.002429
  endloop
 endfacet
 facet normal 0.888212 0.452708 -0.078331
  outer loop
   vertex 0.032377 0.257979 -0.007452
   vertex 0.03186 0.259428 -0.00494
   vertex 0.033281 0.25664 -0.00494
  endloop
 endfacet
 facet normal 0.89641 0.274294 0.348155
  outer loop
   vertex 0.033336 0.255026 -0.002429
   vertex 0.032388 0.257803 -0.002176
   vertex 0.032081 0.255939 8.29998e-05
  endloop
 endfacet
 facet normal 0.803858 0.400541 0.439749
  outer loop
   vertex 0.032388 0.257803 -0.002176
   vertex 0.030652 0.25855 0.000317
   vertex 0.032081 0.255939 8.29998e-05
  endloop
 endfacet
 facet normal 0.886806 0.451991 0.0963284
  outer loop
   vertex 0.033281 0.25664 -0.00494
   vertex 0.03186 0.259428 -0.00494
   vertex 0.032388 0.257803 -0.002176
  endloop
 endfacet
 facet normal 0.794662 0.577331 0.18762
  outer loop
   vertex 0.03186 0.259428 -0.00494
   vertex 0.030478 0.260432 -0.002176
   vertex 0.032388 0.257803 -0.002176
  endloop
 endfacet
 facet normal 0.754436 0.548107 0.361117
  outer loop
   vertex 0.032388 0.257803 -0.002176
   vertex 0.030478 0.260432 -0.002176
   vertex 0.030652 0.25855 0.000317
  endloop
 endfacet
 facet normal 0.629279 0.640767 0.439803
  outer loop
   vertex 0.030478 0.260432 -0.002176
   vertex 0.02861 0.260716 8.29998e-05
   vertex 0.030652 0.25855 0.000317
  endloop
 endfacet
 facet normal 0.797233 0.579229 -0.170037
  outer loop
   vertex 0.032377 0.257979 -0.007452
   vertex 0.030642 0.260367 -0.007452
   vertex 0.03186 0.259428 -0.00494
  endloop
 endfacet
 facet normal 0.704936 0.704936 -0.0782949
  outer loop
   vertex 0.030642 0.260367 -0.007452
   vertex 0.029648 0.26164 -0.00494
   vertex 0.03186 0.259428 -0.00494
  endloop
 endfacet
 facet normal 0.703824 0.703824 0.0962537
  outer loop
   vertex 0.03186 0.259428 -0.00494
   vertex 0.029648 0.26164 -0.00494
   vertex 0.030478 0.260432 -0.002176
  endloop
 endfacet
 facet normal 0.578519 0.796783 0.174509
  outer loop
   vertex 0.029648 0.26164 -0.00494
   vertex 0.02813 0.262192 -0.002428
   vertex 0.030478 0.260432 -0.002176
  endloop
 endfacet
 facet normal 0.537986 0.767602 0.348366
  outer loop
   vertex 0.030478 0.260432 -0.002176
   vertex 0.02813 0.262192 -0.002428
   vertex 0.02861 0.260716 8.29998e-05
  endloop
 endfacet
 facet normal 0.420269 0.815078 0.398776
  outer loop
   vertex 0.02813 0.262192 -0.002428
   vertex 0.026534 0.262056 -0.000468
   vertex 0.02861 0.260716 8.29998e-05
  endloop
 endfacet
 facet normal 0.138975 0.90647 0.398746
  outer loop
   vertex 0.025322 0.263104 -0.002428
   vertex 0.024066 0.262192 8.29998e-05
   vertex 0.026534 0.262056 -0.000468
  endloop
 endfacet
 facet normal 0.000555151 0.98466 0.174481
  outer loop
   vertex 0.02377 0.26355 -0.00494
   vertex 0.022388 0.263061 -0.002176
   vertex 0.025322 0.263104 -0.002428
  endloop
 endfacet
 facet normal -0.155824 0.984657 -0.07855
  outer loop
   vertex 0.022218 0.263104 -0.007452
   vertex 0.02068 0.263061 -0.00494
   vertex 0.02377 0.26355 -0.00494
  endloop
 endfacet
 facet normal 0.0161962 0.937175 0.348485
  outer loop
   vertex 0.025322 0.263104 -0.002428
   vertex 0.022388 0.263061 -0.002176
   vertex 0.024066 0.262192 8.29998e-05
  endloop
 endfacet
 facet normal -0.132412 0.888171 0.440021
  outer loop
   vertex 0.022388 0.263061 -0.002176
   vertex 0.021141 0.26164 0.000317
   vertex 0.024066 0.262192 8.29998e-05
  endloop
 endfacet
 facet normal -0.155583 0.983133 0.0961419
  outer loop
   vertex 0.02377 0.26355 -0.00494
   vertex 0.02068 0.263061 -0.00494
   vertex 0.022388 0.263061 -0.002176
  endloop
 endfacet
 facet normal -0.303796 0.934059 0.187729
  outer loop
   vertex 0.02068 0.263061 -0.00494
   vertex 0.019298 0.262056 -0.002176
   vertex 0.022388 0.263061 -0.002176
  endloop
 endfacet
 facet normal -0.288415 0.886769 0.361189
  outer loop
   vertex 0.022388 0.263061 -0.002176
   vertex 0.019298 0.262056 -0.002176
   vertex 0.021141 0.26164 0.000317
  endloop
 endfacet
 facet normal -0.415138 0.796394 0.439791
  outer loop
   vertex 0.019298 0.262056 -0.002176
   vertex 0.018451 0.260367 8.29998e-05
   vertex 0.021141 0.26164 0.000317
  endloop
 endfacet
 facet normal -0.304389 0.937197 -0.170322
  outer loop
   vertex 0.022218 0.263104 -0.007452
   vertex 0.01941 0.262192 -0.007452
   vertex 0.02068 0.263061 -0.00494
  endloop
 endfacet
 facet normal -0.452705 0.888208 -0.0783901
  outer loop
   vertex 0.01941 0.262192 -0.007452
   vertex 0.017892 0.26164 -0.00494
   vertex 0.02068 0.263061 -0.00494
  endloop
 endfacet
 facet normal -0.451986 0.886796 0.0964489
  outer loop
   vertex 0.02068 0.263061 -0.00494
   vertex 0.017892 0.26164 -0.00494
   vertex 0.019298 0.262056 -0.002176
  endloop
 endfacet
 facet normal -0.578874 0.796508 0.174584
  outer loop
   vertex 0.017892 0.26164 -0.00494
   vertex 0.016898 0.260367 -0.002428
   vertex 0.019298 0.262056 -0.002176
  endloop
 endfacet
 facet normal -0.563623 0.748876 0.348589
  outer loop
   vertex 0.019298 0.262056 -0.002176
   vertex 0.016898 0.260367 -0.002428
   vertex 0.018451 0.260367 8.29998e-05
  endloop
 endfacet
 facet normal -0.645038 0.651744 0.398942
  outer loop
   vertex 0.016898 0.260367 -0.002428
   vertex 0.016534 0.258807 -0.000468
   vertex 0.018451 0.260367 8.29998e-05
  endloop
 endfacet
 facet normal -0.819189 0.412026 0.398954
  outer loop
   vertex 0.015163 0.257979 -0.002428
   vertex 0.015643 0.256502 8.29998e-05
   vertex 0.016534 0.258807 -0.000468
  endloop
 endfacet
 facet normal -0.936352 0.304548 0.174631
  outer loop
   vertex 0.014259 0.25664 -0.00494
   vertex 0.014298 0.255175 -0.002176
   vertex 0.015163 0.257979 -0.002428
  endloop
 endfacet
 facet normal -0.984653 0.155824 -0.0785916
  outer loop
   vertex 0.014204 0.255026 -0.007451
   vertex 0.01377 0.25355 -0.00494
   vertex 0.014259 0.25664 -0.00494
  endloop
 endfacet
 facet normal -0.886309 0.304753 0.348685
  outer loop
   vertex 0.015163 0.257979 -0.002428
   vertex 0.014298 0.255175 -0.002176
   vertex 0.015643 0.256502 8.29998e-05
  endloop
 endfacet
 facet normal -0.885615 0.148581 0.440011
  outer loop
   vertex 0.014298 0.255175 -0.002176
   vertex 0.015264 0.25355 0.000317
   vertex 0.015643 0.256502 8.29998e-05
  endloop
 endfacet
 facet normal -0.983115 0.15558 0.0963335
  outer loop
   vertex 0.014259 0.25664 -0.00494
   vertex 0.01377 0.25355 -0.00494
   vertex 0.014298 0.255175 -0.002176
  endloop
 endfacet
 facet normal -0.982239 0 0.187634
  outer loop
   vertex 0.01377 0.25355 -0.00494
   vertex 0.014298 0.251925 -0.002176
   vertex 0.014298 0.255175 -0.002176
  endloop
 endfacet
 facet normal -0.932446 0 0.361309
  outer loop
   vertex 0.014298 0.255175 -0.002176
   vertex 0.014298 0.251925 -0.002176
   vertex 0.015264 0.25355 0.000317
  endloop
 endfacet
 facet normal -0.885615 -0.148581 0.440011
  outer loop
   vertex 0.014298 0.251925 -0.002176
   vertex 0.015643 0.250598 8.29998e-05
   vertex 0.015264 0.25355 0.000317
  endloop
 endfacet
 facet normal -0.98539 -0 -0.170314
  outer loop
   vertex 0.014204 0.255026 -0.007451
   vertex 0.014204 0.252074 -0.007451
   vertex 0.01377 0.25355 -0.00494
  endloop
 endfacet
 facet normal -0.984653 -0.155824 -0.0785916
  outer loop
   vertex 0.014204 0.252074 -0.007451
   vertex 0.014259 0.25046 -0.00494
   vertex 0.01377 0.25355 -0.00494
  endloop
 endfacet
 facet normal -0.983115 -0.15558 0.0963335
  outer loop
   vertex 0.01377 0.25355 -0.00494
   vertex 0.014259 0.25046 -0.00494
   vertex 0.014298 0.251925 -0.002176
  endloop
 endfacet
 facet normal -0.936352 -0.304548 0.174631
  outer loop
   vertex 0.014259 0.25046 -0.00494
   vertex 0.015163 0.249121 -0.002428
   vertex 0.014298 0.251925 -0.002176
  endloop
 endfacet
 facet normal -0.886309 -0.304753 0.348685
  outer loop
   vertex 0.014298 0.251925 -0.002176
   vertex 0.015163 0.249121 -0.002428
   vertex 0.015643 0.250598 8.29998e-05
  endloop
 endfacet
 facet normal -0.819189 -0.412026 0.398954
  outer loop
   vertex 0.015163 0.249121 -0.002428
   vertex 0.016534 0.248293 -0.000468
   vertex 0.015643 0.250598 8.29998e-05
  endloop
 endfacet
 facet normal -0.645038 -0.651744 0.398942
  outer loop
   vertex 0.016898 0.246733 -0.002428
   vertex 0.018451 0.246733 8.29998e-05
   vertex 0.016534 0.248293 -0.000468
  endloop
 endfacet
 facet normal -0.578874 -0.796508 0.174584
  outer loop
   vertex 0.017892 0.24546 -0.00494
   vertex 0.019298 0.245044 -0.002176
   vertex 0.016898 0.246733 -0.002428
  endloop
 endfacet
 facet normal -0.452705 -0.888208 -0.0783901
  outer loop
   vertex 0.01941 0.244908 -0.007452
   vertex 0.02068 0.244039 -0.00494
   vertex 0.017892 0.24546 -0.00494
  endloop
 endfacet
 facet normal -0.563623 -0.748876 0.348589
  outer loop
   vertex 0.016898 0.246733 -0.002428
   vertex 0.019298 0.245044 -0.002176
   vertex 0.018451 0.246733 8.29998e-05
  endloop
 endfacet
 facet normal -0.415138 -0.796394 0.439791
  outer loop
   vertex 0.019298 0.245044 -0.002176
   vertex 0.021141 0.24546 0.000317
   vertex 0.018451 0.246733 8.29998e-05
  endloop
 endfacet
 facet normal -0.451986 -0.886796 0.0964489
  outer loop
   vertex 0.017892 0.24546 -0.00494
   vertex 0.02068 0.244039 -0.00494
   vertex 0.019298 0.245044 -0.002176
  endloop
 endfacet
 facet normal -0.303796 -0.934059 0.187729
  outer loop
   vertex 0.02068 0.244039 -0.00494
   vertex 0.022388 0.244039 -0.002176
   vertex 0.019298 0.245044 -0.002176
  endloop
 endfacet
 facet normal -0.288415 -0.886769 0.361189
  outer loop
   vertex 0.019298 0.245044 -0.002176
   vertex 0.022388 0.244039 -0.002176
   vertex 0.021141 0.24546 0.000317
  endloop
 endfacet
 facet normal -0.132412 -0.888171 0.440021
  outer loop
   vertex 0.022388 0.244039 -0.002176
   vertex 0.024066 0.244908 8.29998e-05
   vertex 0.021141 0.24546 0.000317
  endloop
 endfacet
 facet normal -0.304389 -0.937197 -0.170322
  outer loop
   vertex 0.01941 0.244908 -0.007452
   vertex 0.022218 0.243996 -0.007452
   vertex 0.02068 0.244039 -0.00494
  endloop
 endfacet
 facet normal -0.155824 -0.984657 -0.07855
  outer loop
   vertex 0.022218 0.243996 -0.007452
   vertex 0.02377 0.24355 -0.00494
   vertex 0.02068 0.244039 -0.00494
  endloop
 endfacet
 facet normal -0.155583 -0.983133 0.0961419
  outer loop
   vertex 0.02068 0.244039 -0.00494
   vertex 0.02377 0.24355 -0.00494
   vertex 0.022388 0.244039 -0.002176
  endloop
 endfacet
 facet normal 0.000555151 -0.98466 0.174481
  outer loop
   vertex 0.02377 0.24355 -0.00494
   vertex 0.025322 0.243996 -0.002428
   vertex 0.022388 0.244039 -0.002176
  endloop
 endfacet
 facet normal 0.0161962 -0.937175 0.348485
  outer loop
   vertex 0.022388 0.244039 -0.002176
   vertex 0.025322 0.243996 -0.002428
   vertex 0.024066 0.244908 8.29998e-05
  endloop
 endfacet
 facet normal 0.138975 -0.90647 0.398746
  outer loop
   vertex 0.025322 0.243996 -0.002428
   vertex 0.026534 0.245044 -0.000468
   vertex 0.024066 0.244908 8.29998e-05
  endloop
 endfacet
 facet normal 0.420269 -0.815078 0.398776
  outer loop
   vertex 0.02813 0.244908 -0.002428
   vertex 0.02861 0.246384 8.29998e-05
   vertex 0.026534 0.245044 -0.000468
  endloop
 endfacet
 facet normal 0.578519 -0.796783 0.174509
  outer loop
   vertex 0.029648 0.24546 -0.00494
   vertex 0.030478 0.246668 -0.002176
   vertex 0.02813 0.244908 -0.002428
  endloop
 endfacet
 facet normal 0.704936 -0.704936 -0.0782949
  outer loop
   vertex 0.030642 0.246733 -0.007452
   vertex 0.03186 0.247672 -0.00494
   vertex 0.029648 0.24546 -0.00494
  endloop
 endfacet
 facet normal 0.537986 -0.767602 0.348366
  outer loop
   vertex 0.02813 0.244908 -0.002428
   vertex 0.030478 0.246668 -0.002176
   vertex 0.02861 0.246384 8.29998e-05
  endloop
 endfacet
 facet normal 0.629279 -0.640767 0.439803
  outer loop
   vertex 0.030478 0.246668 -0.002176
   vertex 0.030652 0.24855 0.000317
   vertex 0.02861 0.246384 8.29998e-05
  endloop
 endfacet
 facet normal 0.703824 -0.703824 0.0962537
  outer loop
   vertex 0.029648 0.24546 -0.00494
   vertex 0.03186 0.247672 -0.00494
   vertex 0.030478 0.246668 -0.002176
  endloop
 endfacet
 facet normal 0.794662 -0.577331 0.18762
  outer loop
   vertex 0.03186 0.247672 -0.00494
   vertex 0.032388 0.249297 -0.002176
   vertex 0.030478 0.246668 -0.002176
  endloop
 endfacet
 facet normal 0.754436 -0.548107 0.361117
  outer loop
   vertex 0.030478 0.246668 -0.002176
   vertex 0.032388 0.249297 -0.002176
   vertex 0.030652 0.24855 0.000317
  endloop
 endfacet
 facet normal 0.803858 -0.400541 0.439749
  outer loop
   vertex 0.032388 0.249297 -0.002176
   vertex 0.032081 0.251161 8.29998e-05
   vertex 0.030652 0.24855 0.000317
  endloop
 endfacet
 facet normal 0.797233 -0.579229 -0.170037
  outer loop
   vertex 0.030642 0.246733 -0.007452
   vertex 0.032377 0.249121 -0.007452
   vertex 0.03186 0.247672 -0.00494
  endloop
 endfacet
 facet normal 0.888212 -0.452708 -0.078331
  outer loop
   vertex 0.032377 0.249121 -0.007452
   vertex 0.033281 0.25046 -0.00494
   vertex 0.03186 0.247672 -0.00494
  endloop
 endfacet
 facet normal 0.886806 -0.451991 0.0963284
  outer loop
   vertex 0.03186 0.247672 -0.00494
   vertex 0.033281 0.25046 -0.00494
   vertex 0.032388 0.249297 -0.002176
  endloop
 endfacet
 facet normal 0.93657 -0.303801 0.17476
  outer loop
   vertex 0.033281 0.25046 -0.00494
   vertex 0.033336 0.252074 -0.002429
   vertex 0.032388 0.249297 -0.002176
  endloop
 endfacet
 facet normal 0.89641 -0.274294 0.348155
  outer loop
   vertex 0.032388 0.249297 -0.002176
   vertex 0.033336 0.252074 -0.002429
   vertex 0.032081 0.251161 8.29998e-05
  endloop
 endfacet
 facet normal 0.905177 -0.147939 0.398459
  outer loop
   vertex 0.033336 0.252074 -0.002429
   vertex 0.032714 0.25355 -0.000468
   vertex 0.032081 0.251161 8.29998e-05
  endloop
 endfacet
 facet normal 0.294416 0.906493 0.302638
  outer loop
   vertex 0.02813 0.262192 -0.002428
   vertex 0.025322 0.263104 -0.002428
   vertex 0.026534 0.262056 -0.000468
  endloop
 endfacet
 facet normal 0.452705 0.888208 0.0783901
  outer loop
   vertex 0.029648 0.26164 -0.00494
   vertex 0.02686 0.263061 -0.00494
   vertex 0.02813 0.262192 -0.002428
  endloop
 endfacet
 facet normal 0.578874 0.796508 -0.174584
  outer loop
   vertex 0.030642 0.260367 -0.007452
   vertex 0.028242 0.262056 -0.007704
   vertex 0.029648 0.26164 -0.00494
  endloop
 endfacet
 facet normal 0.304389 0.937197 0.170322
  outer loop
   vertex 0.02813 0.262192 -0.002428
   vertex 0.02686 0.263061 -0.00494
   vertex 0.025322 0.263104 -0.002428
  endloop
 endfacet
 facet normal 0.155824 0.984657 0.07855
  outer loop
   vertex 0.02686 0.263061 -0.00494
   vertex 0.02377 0.26355 -0.00494
   vertex 0.025322 0.263104 -0.002428
  endloop
 endfacet
 facet normal 0.451986 0.886796 -0.0964489
  outer loop
   vertex 0.029648 0.26164 -0.00494
   vertex 0.028242 0.262056 -0.007704
   vertex 0.02686 0.263061 -0.00494
  endloop
 endfacet
 facet normal 0.303796 0.934059 -0.187729
  outer loop
   vertex 0.028242 0.262056 -0.007704
   vertex 0.025152 0.263061 -0.007704
   vertex 0.02686 0.263061 -0.00494
  endloop
 endfacet
 facet normal 0.155583 0.983133 -0.0961419
  outer loop
   vertex 0.02686 0.263061 -0.00494
   vertex 0.025152 0.263061 -0.007704
   vertex 0.02377 0.26355 -0.00494
  endloop
 endfacet
 facet normal -0.000555151 0.98466 -0.174481
  outer loop
   vertex 0.025152 0.263061 -0.007704
   vertex 0.022218 0.263104 -0.007452
   vertex 0.02377 0.26355 -0.00494
  endloop
 endfacet
 facet normal 0.563623 0.748876 -0.348589
  outer loop
   vertex 0.030642 0.260367 -0.007452
   vertex 0.029089 0.260367 -0.009963
   vertex 0.028242 0.262056 -0.007704
  endloop
 endfacet
 facet normal 0.415138 0.796394 -0.439791
  outer loop
   vertex 0.029089 0.260367 -0.009963
   vertex 0.026399 0.26164 -0.010197
   vertex 0.028242 0.262056 -0.007704
  endloop
 endfacet
 facet normal 0.288415 0.886769 -0.361189
  outer loop
   vertex 0.028242 0.262056 -0.007704
   vertex 0.026399 0.26164 -0.010197
   vertex 0.025152 0.263061 -0.007704
  endloop
 endfacet
 facet normal 0.132412 0.888171 -0.440021
  outer loop
   vertex 0.026399 0.26164 -0.010197
   vertex 0.023474 0.262192 -0.009963
   vertex 0.025152 0.263061 -0.007704
  endloop
 endfacet
 facet normal -0.0161962 0.937175 -0.348485
  outer loop
   vertex 0.025152 0.263061 -0.007704
   vertex 0.023474 0.262192 -0.009963
   vertex 0.022218 0.263104 -0.007452
  endloop
 endfacet
 facet normal -0.138975 0.90647 -0.398746
  outer loop
   vertex 0.023474 0.262192 -0.009963
   vertex 0.021006 0.262056 -0.009412
   vertex 0.022218 0.263104 -0.007452
  endloop
 endfacet
 facet normal -0.771063 0.560215 0.302688
  outer loop
   vertex 0.016898 0.260367 -0.002428
   vertex 0.015163 0.257979 -0.002428
   vertex 0.016534 0.258807 -0.000468
  endloop
 endfacet
 facet normal -0.704936 0.704936 0.0782949
  outer loop
   vertex 0.017892 0.26164 -0.00494
   vertex 0.01568 0.259428 -0.00494
   vertex 0.016898 0.260367 -0.002428
  endloop
 endfacet
 facet normal -0.578519 0.796783 -0.174509
  outer loop
   vertex 0.01941 0.262192 -0.007452
   vertex 0.017062 0.260432 -0.007704
   vertex 0.017892 0.26164 -0.00494
  endloop
 endfacet
 facet normal -0.797233 0.579229 0.170037
  outer loop
   vertex 0.016898 0.260367 -0.002428
   vertex 0.01568 0.259428 -0.00494
   vertex 0.015163 0.257979 -0.002428
  endloop
 endfacet
 facet normal -0.888212 0.452708 0.078331
  outer loop
   vertex 0.01568 0.259428 -0.00494
   vertex 0.014259 0.25664 -0.00494
   vertex 0.015163 0.257979 -0.002428
  endloop
 endfacet
 facet normal -0.703824 0.703824 -0.0962537
  outer loop
   vertex 0.017892 0.26164 -0.00494
   vertex 0.017062 0.260432 -0.007704
   vertex 0.01568 0.259428 -0.00494
  endloop
 endfacet
 facet normal -0.794662 0.577331 -0.18762
  outer loop
   vertex 0.017062 0.260432 -0.007704
   vertex 0.015152 0.257803 -0.007704
   vertex 0.01568 0.259428 -0.00494
  endloop
 endfacet
 facet normal -0.886806 0.451991 -0.0963284
  outer loop
   vertex 0.01568 0.259428 -0.00494
   vertex 0.015152 0.257803 -0.007704
   vertex 0.014259 0.25664 -0.00494
  endloop
 endfacet
 facet normal -0.93657 0.303801 -0.17476
  outer loop
   vertex 0.015152 0.257803 -0.007704
   vertex 0.014204 0.255026 -0.007451
   vertex 0.014259 0.25664 -0.00494
  endloop
 endfacet
 facet normal -0.537986 0.767602 -0.348366
  outer loop
   vertex 0.01941 0.262192 -0.007452
   vertex 0.01893 0.260716 -0.009963
   vertex 0.017062 0.260432 -0.007704
  endloop
 endfacet
 facet normal -0.629279 0.640767 -0.439803
  outer loop
   vertex 0.01893 0.260716 -0.009963
   vertex 0.016888 0.25855 -0.010197
   vertex 0.017062 0.260432 -0.007704
  endloop
 endfacet
 facet normal -0.754436 0.548107 -0.361117
  outer loop
   vertex 0.017062 0.260432 -0.007704
   vertex 0.016888 0.25855 -0.010197
   vertex 0.015152 0.257803 -0.007704
  endloop
 endfacet
 facet normal -0.803858 0.400541 -0.439749
  outer loop
   vertex 0.016888 0.25855 -0.010197
   vertex 0.015459 0.255939 -0.009963
   vertex 0.015152 0.257803 -0.007704
  endloop
 endfacet
 facet normal -0.89641 0.274294 -0.348155
  outer loop
   vertex 0.015152 0.257803 -0.007704
   vertex 0.015459 0.255939 -0.009963
   vertex 0.014204 0.255026 -0.007451
  endloop
 endfacet
 facet normal -0.905177 0.147939 -0.398459
  outer loop
   vertex 0.015459 0.255939 -0.009963
   vertex 0.014826 0.25355 -0.009412
   vertex 0.014204 0.255026 -0.007451
  endloop
 endfacet
 facet normal -0.771063 -0.560215 0.302688
  outer loop
   vertex 0.015163 0.249121 -0.002428
   vertex 0.016898 0.246733 -0.002428
   vertex 0.016534 0.248293 -0.000468
  endloop
 endfacet
 facet normal -0.888212 -0.452708 0.078331
  outer loop
   vertex 0.014259 0.25046 -0.00494
   vertex 0.01568 0.247672 -0.00494
   vertex 0.015163 0.249121 -0.002428
  endloop
 endfacet
 facet normal -0.93657 -0.303801 -0.17476
  outer loop
   vertex 0.014204 0.252074 -0.007451
   vertex 0.015152 0.249297 -0.007704
   vertex 0.014259 0.25046 -0.00494
  endloop
 endfacet
 facet normal -0.797233 -0.579229 0.170037
  outer loop
   vertex 0.015163 0.249121 -0.002428
   vertex 0.01568 0.247672 -0.00494
   vertex 0.016898 0.246733 -0.002428
  endloop
 endfacet
 facet normal -0.704936 -0.704936 0.0782949
  outer loop
   vertex 0.01568 0.247672 -0.00494
   vertex 0.017892 0.24546 -0.00494
   vertex 0.016898 0.246733 -0.002428
  endloop
 endfacet
 facet normal -0.886806 -0.451991 -0.0963284
  outer loop
   vertex 0.014259 0.25046 -0.00494
   vertex 0.015152 0.249297 -0.007704
   vertex 0.01568 0.247672 -0.00494
  endloop
 endfacet
 facet normal -0.794662 -0.577331 -0.18762
  outer loop
   vertex 0.015152 0.249297 -0.007704
   vertex 0.017062 0.246668 -0.007704
   vertex 0.01568 0.247672 -0.00494
  endloop
 endfacet
 facet normal -0.703824 -0.703824 -0.0962537
  outer loop
   vertex 0.01568 0.247672 -0.00494
   vertex 0.017062 0.246668 -0.007704
   vertex 0.017892 0.24546 -0.00494
  endloop
 endfacet
 facet normal -0.578519 -0.796783 -0.174509
  outer loop
   vertex 0.017062 0.246668 -0.007704
   vertex 0.01941 0.244908 -0.007452
   vertex 0.017892 0.24546 -0.00494
  endloop
 endfacet
 facet normal -0.89641 -0.274294 -0.348155
  outer loop
   vertex 0.014204 0.252074 -0.007451
   vertex 0.015459 0.251161 -0.009963
   vertex 0.015152 0.249297 -0.007704
  endloop
 endfacet
 facet normal -0.803858 -0.400541 -0.439749
  outer loop
   vertex 0.015459 0.251161 -0.009963
   vertex 0.016888 0.24855 -0.010197
   vertex 0.015152 0.249297 -0.007704
  endloop
 endfacet
 facet normal -0.754436 -0.548107 -0.361117
  outer loop
   vertex 0.015152 0.249297 -0.007704
   vertex 0.016888 0.24855 -0.010197
   vertex 0.017062 0.246668 -0.007704
  endloop
 endfacet
 facet normal -0.629279 -0.640767 -0.439803
  outer loop
   vertex 0.016888 0.24855 -0.010197
   vertex 0.01893 0.246384 -0.009963
   vertex 0.017062 0.246668 -0.007704
  endloop
 endfacet
 facet normal -0.537986 -0.767602 -0.348366
  outer loop
   vertex 0.017062 0.246668 -0.007704
   vertex 0.01893 0.246384 -0.009963
   vertex 0.01941 0.244908 -0.007452
  endloop
 endfacet
 facet normal -0.420269 -0.815078 -0.398776
  outer loop
   vertex 0.01893 0.246384 -0.009963
   vertex 0.021006 0.245044 -0.009412
   vertex 0.01941 0.244908 -0.007452
  endloop
 endfacet
 facet normal 0.294416 -0.906493 0.302638
  outer loop
   vertex 0.025322 0.243996 -0.002428
   vertex 0.02813 0.244908 -0.002428
   vertex 0.026534 0.245044 -0.000468
  endloop
 endfacet
 facet normal 0.155824 -0.984657 0.07855
  outer loop
   vertex 0.02377 0.24355 -0.00494
   vertex 0.02686 0.244039 -0.00494
   vertex 0.025322 0.243996 -0.002428
  endloop
 endfacet
 facet normal -0.000555151 -0.98466 -0.174481
  outer loop
   vertex 0.022218 0.243996 -0.007452
   vertex 0.025152 0.244039 -0.007704
   vertex 0.02377 0.24355 -0.00494
  endloop
 endfacet
 facet normal 0.304389 -0.937197 0.170322
  outer loop
   vertex 0.025322 0.243996 -0.002428
   vertex 0.02686 0.244039 -0.00494
   vertex 0.02813 0.244908 -0.002428
  endloop
 endfacet
 facet normal 0.452705 -0.888208 0.0783901
  outer loop
   vertex 0.02686 0.244039 -0.00494
   vertex 0.029648 0.24546 -0.00494
   vertex 0.02813 0.244908 -0.002428
  endloop
 endfacet
 facet normal 0.155583 -0.983133 -0.0961419
  outer loop
   vertex 0.02377 0.24355 -0.00494
   vertex 0.025152 0.244039 -0.007704
   vertex 0.02686 0.244039 -0.00494
  endloop
 endfacet
 facet normal 0.303796 -0.934059 -0.187729
  outer loop
   vertex 0.025152 0.244039 -0.007704
   vertex 0.028242 0.245044 -0.007704
   vertex 0.02686 0.244039 -0.00494
  endloop
 endfacet
 facet normal 0.451986 -0.886796 -0.0964489
  outer loop
   vertex 0.02686 0.244039 -0.00494
   vertex 0.028242 0.245044 -0.007704
   vertex 0.029648 0.24546 -0.00494
  endloop
 endfacet
 facet normal 0.578874 -0.796508 -0.174584
  outer loop
   vertex 0.028242 0.245044 -0.007704
   vertex 0.030642 0.246733 -0.007452
   vertex 0.029648 0.24546 -0.00494
  endloop
 endfacet
 facet normal -0.0161962 -0.937175 -0.348485
  outer loop
   vertex 0.022218 0.243996 -0.007452
   vertex 0.023474 0.244908 -0.009963
   vertex 0.025152 0.244039 -0.007704
  endloop
 endfacet
 facet normal 0.132412 -0.888171 -0.440021
  outer loop
   vertex 0.023474 0.244908 -0.009963
   vertex 0.026399 0.24546 -0.010197
   vertex 0.025152 0.244039 -0.007704
  endloop
 endfacet
 facet normal 0.288415 -0.886769 -0.361189
  outer loop
   vertex 0.025152 0.244039 -0.007704
   vertex 0.026399 0.24546 -0.010197
   vertex 0.028242 0.245044 -0.007704
  endloop
 endfacet
 facet normal 0.415138 -0.796394 -0.439791
  outer loop
   vertex 0.026399 0.24546 -0.010197
   vertex 0.029089 0.246733 -0.009963
   vertex 0.028242 0.245044 -0.007704
  endloop
 endfacet
 facet normal 0.563623 -0.748876 -0.348589
  outer loop
   vertex 0.028242 0.245044 -0.007704
   vertex 0.029089 0.246733 -0.009963
   vertex 0.030642 0.246733 -0.007452
  endloop
 endfacet
 facet normal 0.645038 -0.651744 -0.398942
  outer loop
   vertex 0.029089 0.246733 -0.009963
   vertex 0.031006 0.248293 -0.009412
   vertex 0.030642 0.246733 -0.007452
  endloop
 endfacet
 facet normal 0.9532 -0 0.302341
  outer loop
   vertex 0.033336 0.252074 -0.002429
   vertex 0.033336 0.255026 -0.002429
   vertex 0.032714 0.25355 -0.000468
  endloop
 endfacet
 facet normal 0.984653 -0.155824 0.0785916
  outer loop
   vertex 0.033281 0.25046 -0.00494
   vertex 0.03377 0.25355 -0.00494
   vertex 0.033336 0.252074 -0.002429
  endloop
 endfacet
 facet normal 0.936352 -0.304548 -0.174631
  outer loop
   vertex 0.032377 0.249121 -0.007452
   vertex 0.033242 0.251925 -0.007704
   vertex 0.033281 0.25046 -0.00494
  endloop
 endfacet
 facet normal 0.98539 -0 0.170314
  outer loop
   vertex 0.033336 0.252074 -0.002429
   vertex 0.03377 0.25355 -0.00494
   vertex 0.033336 0.255026 -0.002429
  endloop
 endfacet
 facet normal 0.984653 0.155824 0.0785916
  outer loop
   vertex 0.03377 0.25355 -0.00494
   vertex 0.033281 0.25664 -0.00494
   vertex 0.033336 0.255026 -0.002429
  endloop
 endfacet
 facet normal 0.983115 -0.15558 -0.0963335
  outer loop
   vertex 0.033281 0.25046 -0.00494
   vertex 0.033242 0.251925 -0.007704
   vertex 0.03377 0.25355 -0.00494
  endloop
 endfacet
 facet normal 0.982239 0 -0.187634
  outer loop
   vertex 0.033242 0.251925 -0.007704
   vertex 0.033242 0.255175 -0.007704
   vertex 0.03377 0.25355 -0.00494
  endloop
 endfacet
 facet normal 0.983115 0.15558 -0.0963335
  outer loop
   vertex 0.03377 0.25355 -0.00494
   vertex 0.033242 0.255175 -0.007704
   vertex 0.033281 0.25664 -0.00494
  endloop
 endfacet
 facet normal 0.936352 0.304548 -0.174631
  outer loop
   vertex 0.033242 0.255175 -0.007704
   vertex 0.032377 0.257979 -0.007452
   vertex 0.033281 0.25664 -0.00494
  endloop
 endfacet
 facet normal 0.886309 -0.304753 -0.348685
  outer loop
   vertex 0.032377 0.249121 -0.007452
   vertex 0.031897 0.250598 -0.009963
   vertex 0.033242 0.251925 -0.007704
  endloop
 endfacet
 facet normal 0.885615 -0.148581 -0.440011
  outer loop
   vertex 0.031897 0.250598 -0.009963
   vertex 0.032276 0.25355 -0.010197
   vertex 0.033242 0.251925 -0.007704
  endloop
 endfacet
 facet normal 0.932446 0 -0.361309
  outer loop
   vertex 0.033242 0.251925 -0.007704
   vertex 0.032276 0.25355 -0.010197
   vertex 0.033242 0.255175 -0.007704
  endloop
 endfacet
 facet normal 0.885615 0.148581 -0.440011
  outer loop
   vertex 0.032276 0.25355 -0.010197
   vertex 0.031897 0.256502 -0.009963
   vertex 0.033242 0.255175 -0.007704
  endloop
 endfacet
 facet normal 0.886309 0.304753 -0.348685
  outer loop
   vertex 0.033242 0.255175 -0.007704
   vertex 0.031897 0.256502 -0.009963
   vertex 0.032377 0.257979 -0.007452
  endloop
 endfacet
 facet normal 0.819189 0.412026 -0.398954
  outer loop
   vertex 0.031897 0.256502 -0.009963
   vertex 0.031006 0.258807 -0.009412
   vertex 0.032377 0.257979 -0.007452
  endloop
 endfacet
 facet normal 0.61533 0.560308 -0.554459
  outer loop
   vertex 0.029865 0.257979 -0.011515
   vertex 0.029089 0.260367 -0.009963
   vertex 0.031006 0.258807 -0.009412
  endloop
 endfacet
 facet normal 0.467426 0.452641 -0.759361
  outer loop
   vertex 0.028023 0.25664 -0.013447
   vertex 0.027388 0.259428 -0.012176
   vertex 0.029865 0.257979 -0.011515
  endloop
 endfacet
 facet normal 0.262485 0.303841 -0.915851
  outer loop
   vertex 0.025802 0.255026 -0.014619
   vertex 0.025152 0.257803 -0.013884
   vertex 0.028023 0.25664 -0.013447
  endloop
 endfacet
 facet normal 0.508799 0.579247 -0.636864
  outer loop
   vertex 0.029865 0.257979 -0.011515
   vertex 0.027388 0.259428 -0.012176
   vertex 0.029089 0.260367 -0.009963
  endloop
 endfacet
 facet normal 0.38541 0.704977 -0.595371
  outer loop
   vertex 0.027388 0.259428 -0.012176
   vertex 0.026399 0.26164 -0.010197
   vertex 0.029089 0.260367 -0.009963
  endloop
 endfacet
 facet normal 0.310374 0.451949 -0.836307
  outer loop
   vertex 0.028023 0.25664 -0.013447
   vertex 0.025152 0.257803 -0.013884
   vertex 0.027388 0.259428 -0.012176
  endloop
 endfacet
 facet normal 0.187559 0.577248 -0.794737
  outer loop
   vertex 0.025152 0.257803 -0.013884
   vertex 0.024298 0.260432 -0.012176
   vertex 0.027388 0.259428 -0.012176
  endloop
 endfacet
 facet normal 0.228709 0.703897 -0.672474
  outer loop
   vertex 0.027388 0.259428 -0.012176
   vertex 0.024298 0.260432 -0.012176
   vertex 0.026399 0.26164 -0.010197
  endloop
 endfacet
 facet normal 0.102735 0.796801 -0.595444
  outer loop
   vertex 0.024298 0.260432 -0.012176
   vertex 0.023474 0.262192 -0.009963
   vertex 0.026399 0.26164 -0.010197
  endloop
 endfacet
 facet normal 0.0891868 0.274301 -0.957499
  outer loop
   vertex 0.025802 0.255026 -0.014619
   vertex 0.022994 0.255939 -0.014619
   vertex 0.025152 0.257803 -0.013884
  endloop
 endfacet
 facet normal -0.0336945 0.400135 -0.915836
  outer loop
   vertex 0.022994 0.255939 -0.014619
   vertex 0.022145 0.25855 -0.013447
   vertex 0.025152 0.257803 -0.013884
  endloop
 endfacet
 facet normal 0.0146149 0.548074 -0.836302
  outer loop
   vertex 0.025152 0.257803 -0.013884
   vertex 0.022145 0.25855 -0.013447
   vertex 0.024298 0.260432 -0.012176
  endloop
 endfacet
 facet normal -0.112009 0.640965 -0.759354
  outer loop
   vertex 0.022145 0.25855 -0.013447
   vertex 0.021442 0.260716 -0.011515
   vertex 0.024298 0.260432 -0.012176
  endloop
 endfacet
 facet normal -0.0710868 0.767617 -0.636955
  outer loop
   vertex 0.024298 0.260432 -0.012176
   vertex 0.021442 0.260716 -0.011515
   vertex 0.023474 0.262192 -0.009963
  endloop
 endfacet
 facet normal -0.168666 0.815046 -0.554303
  outer loop
   vertex 0.021442 0.260716 -0.011515
   vertex 0.021006 0.262056 -0.009412
   vertex 0.023474 0.262192 -0.009963
  endloop
 endfacet
 facet normal -0.342493 0.758552 -0.554344
  outer loop
   vertex 0.021442 0.260716 -0.011515
   vertex 0.01893 0.260716 -0.009963
   vertex 0.021006 0.262056 -0.009412
  endloop
 endfacet
 facet normal -0.286233 0.584386 -0.759318
  outer loop
   vertex 0.022145 0.25855 -0.013447
   vertex 0.019298 0.258807 -0.012176
   vertex 0.021442 0.260716 -0.011515
  endloop
 endfacet
 facet normal -0.207851 0.343516 -0.915858
  outer loop
   vertex 0.022994 0.255939 -0.014619
   vertex 0.020152 0.256179 -0.013884
   vertex 0.022145 0.25855 -0.013447
  endloop
 endfacet
 facet normal -0.393627 0.662685 -0.637108
  outer loop
   vertex 0.021442 0.260716 -0.011515
   vertex 0.019298 0.258807 -0.012176
   vertex 0.01893 0.260716 -0.009963
  endloop
 endfacet
 facet normal -0.551379 0.584158 -0.595601
  outer loop
   vertex 0.019298 0.258807 -0.012176
   vertex 0.016888 0.25855 -0.010197
   vertex 0.01893 0.260716 -0.009963
  endloop
 endfacet
 facet normal -0.334054 0.43492 -0.836213
  outer loop
   vertex 0.022145 0.25855 -0.013447
   vertex 0.020152 0.256179 -0.013884
   vertex 0.019298 0.258807 -0.012176
  endloop
 endfacet
 facet normal -0.491058 0.356895 -0.794662
  outer loop
   vertex 0.020152 0.256179 -0.013884
   vertex 0.017388 0.256179 -0.012176
   vertex 0.019298 0.258807 -0.012176
  endloop
 endfacet
 facet normal -0.598657 0.435097 -0.672533
  outer loop
   vertex 0.019298 0.258807 -0.012176
   vertex 0.017388 0.256179 -0.012176
   vertex 0.016888 0.25855 -0.010197
  endloop
 endfacet
 facet normal -0.725985 0.343961 -0.595514
  outer loop
   vertex 0.017388 0.256179 -0.012176
   vertex 0.015459 0.255939 -0.009963
   vertex 0.016888 0.25855 -0.010197
  endloop
 endfacet
 facet normal -0.233325 0.169451 -0.957521
  outer loop
   vertex 0.022994 0.255939 -0.014619
   vertex 0.021259 0.25355 -0.014619
   vertex 0.020152 0.256179 -0.013884
  endloop
 endfacet
 facet normal -0.390899 0.0914587 -0.915878
  outer loop
   vertex 0.021259 0.25355 -0.014619
   vertex 0.018513 0.25355 -0.013447
   vertex 0.020152 0.256179 -0.013884
  endloop
 endfacet
 facet normal -0.516783 0.183167 -0.836293
  outer loop
   vertex 0.020152 0.256179 -0.013884
   vertex 0.018513 0.25355 -0.013447
   vertex 0.017388 0.256179 -0.012176
  endloop
 endfacet
 facet normal -0.644269 0.0913996 -0.759317
  outer loop
   vertex 0.018513 0.25355 -0.013447
   vertex 0.016236 0.25355 -0.011515
   vertex 0.017388 0.256179 -0.012176
  endloop
 endfacet
 facet normal -0.751958 0.169318 -0.637095
  outer loop
   vertex 0.017388 0.256179 -0.012176
   vertex 0.016236 0.25355 -0.011515
   vertex 0.015459 0.255939 -0.009963
  endloop
 endfacet
 facet normal -0.827124 0.091254 -0.554562
  outer loop
   vertex 0.016236 0.25355 -0.011515
   vertex 0.014826 0.25355 -0.009412
   vertex 0.015459 0.255939 -0.009963
  endloop
 endfacet
 facet normal -0.827124 -0.091254 -0.554562
  outer loop
   vertex 0.016236 0.25355 -0.011515
   vertex 0.015459 0.251161 -0.009963
   vertex 0.014826 0.25355 -0.009412
  endloop
 endfacet
 facet normal -0.644269 -0.0913996 -0.759317
  outer loop
   vertex 0.018513 0.25355 -0.013447
   vertex 0.017388 0.250921 -0.012176
   vertex 0.016236 0.25355 -0.011515
  endloop
 endfacet
 facet normal -0.390899 -0.0914587 -0.915878
  outer loop
   vertex 0.021259 0.25355 -0.014619
   vertex 0.020152 0.250921 -0.013884
   vertex 0.018513 0.25355 -0.013447
  endloop
 endfacet
 facet normal -0.751958 -0.169318 -0.637095
  outer loop
   vertex 0.016236 0.25355 -0.011515
   vertex 0.017388 0.250921 -0.012176
   vertex 0.015459 0.251161 -0.009963
  endloop
 endfacet
 facet normal -0.725985 -0.343961 -0.595514
  outer loop
   vertex 0.017388 0.250921 -0.012176
   vertex 0.016888 0.24855 -0.010197
   vertex 0.015459 0.251161 -0.009963
  endloop
 endfacet
 facet normal -0.516783 -0.183167 -0.836293
  outer loop
   vertex 0.018513 0.25355 -0.013447
   vertex 0.020152 0.250921 -0.013884
   vertex 0.017388 0.250921 -0.012176
  endloop
 endfacet
 facet normal -0.491058 -0.356895 -0.794662
  outer loop
   vertex 0.020152 0.250921 -0.013884
   vertex 0.019298 0.248293 -0.012176
   vertex 0.017388 0.250921 -0.012176
  endloop
 endfacet
 facet normal -0.598657 -0.435097 -0.672533
  outer loop
   vertex 0.017388 0.250921 -0.012176
   vertex 0.019298 0.248293 -0.012176
   vertex 0.016888 0.24855 -0.010197
  endloop
 endfacet
 facet normal -0.551379 -0.584158 -0.595601
  outer loop
   vertex 0.019298 0.248293 -0.012176
   vertex 0.01893 0.246384 -0.009963
   vertex 0.016888 0.24855 -0.010197
  endloop
 endfacet
 facet normal -0.233325 -0.169451 -0.957521
  outer loop
   vertex 0.021259 0.25355 -0.014619
   vertex 0.022994 0.251161 -0.014619
   vertex 0.020152 0.250921 -0.013884
  endloop
 endfacet
 facet normal -0.207851 -0.343516 -0.915858
  outer loop
   vertex 0.022994 0.251161 -0.014619
   vertex 0.022145 0.24855 -0.013447
   vertex 0.020152 0.250921 -0.013884
  endloop
 endfacet
 facet normal -0.334054 -0.43492 -0.836213
  outer loop
   vertex 0.020152 0.250921 -0.013884
   vertex 0.022145 0.24855 -0.013447
   vertex 0.019298 0.248293 -0.012176
  endloop
 endfacet
 facet normal -0.286233 -0.584386 -0.759318
  outer loop
   vertex 0.022145 0.24855 -0.013447
   vertex 0.021442 0.246384 -0.011515
   vertex 0.019298 0.248293 -0.012176
  endloop
 endfacet
 facet normal -0.393627 -0.662685 -0.637108
  outer loop
   vertex 0.019298 0.248293 -0.012176
   vertex 0.021442 0.246384 -0.011515
   vertex 0.01893 0.246384 -0.009963
  endloop
 endfacet
 facet normal -0.342493 -0.758552 -0.554344
  outer loop
   vertex 0.021442 0.246384 -0.011515
   vertex 0.021006 0.245044 -0.009412
   vertex 0.01893 0.246384 -0.009963
  endloop
 endfacet
 facet normal 0.723015 0.412034 -0.554506
  outer loop
   vertex 0.031897 0.256502 -0.009963
   vertex 0.029865 0.257979 -0.011515
   vertex 0.031006 0.258807 -0.009412
  endloop
 endfacet
 facet normal 0.789589 0.148568 -0.59538
  outer loop
   vertex 0.032276 0.25355 -0.010197
   vertex 0.030478 0.255175 -0.012176
   vertex 0.031897 0.256502 -0.009963
  endloop
 endfacet
 facet normal 0.789589 -0.148568 -0.59538
  outer loop
   vertex 0.031897 0.250598 -0.009963
   vertex 0.030478 0.251925 -0.012176
   vertex 0.032276 0.25355 -0.010197
  endloop
 endfacet
 facet normal 0.708089 0.304936 -0.636886
  outer loop
   vertex 0.031897 0.256502 -0.009963
   vertex 0.030478 0.255175 -0.012176
   vertex 0.029865 0.257979 -0.011515
  endloop
 endfacet
 facet normal 0.574948 0.304695 -0.759339
  outer loop
   vertex 0.030478 0.255175 -0.012176
   vertex 0.028023 0.25664 -0.013447
   vertex 0.029865 0.257979 -0.011515
  endloop
 endfacet
 facet normal 0.740143 0 -0.672449
  outer loop
   vertex 0.032276 0.25355 -0.010197
   vertex 0.030478 0.251925 -0.012176
   vertex 0.030478 0.255175 -0.012176
  endloop
 endfacet
 facet normal 0.607028 0 -0.794681
  outer loop
   vertex 0.030478 0.251925 -0.012176
   vertex 0.028242 0.25355 -0.013884
   vertex 0.030478 0.255175 -0.012176
  endloop
 endfacet
 facet normal 0.525774 0.155534 -0.836284
  outer loop
   vertex 0.030478 0.255175 -0.012176
   vertex 0.028242 0.25355 -0.013884
   vertex 0.028023 0.25664 -0.013447
  endloop
 endfacet
 facet normal 0.370096 0.155752 -0.915844
  outer loop
   vertex 0.028242 0.25355 -0.013884
   vertex 0.025802 0.255026 -0.014619
   vertex 0.028023 0.25664 -0.013447
  endloop
 endfacet
 facet normal 0.708089 -0.304936 -0.636886
  outer loop
   vertex 0.031897 0.250598 -0.009963
   vertex 0.029865 0.249121 -0.011515
   vertex 0.030478 0.251925 -0.012176
  endloop
 endfacet
 facet normal 0.574948 -0.304695 -0.759339
  outer loop
   vertex 0.029865 0.249121 -0.011515
   vertex 0.028023 0.25046 -0.013447
   vertex 0.030478 0.251925 -0.012176
  endloop
 endfacet
 facet normal 0.525774 -0.155534 -0.836284
  outer loop
   vertex 0.030478 0.251925 -0.012176
   vertex 0.028023 0.25046 -0.013447
   vertex 0.028242 0.25355 -0.013884
  endloop
 endfacet
 facet normal 0.370096 -0.155752 -0.915844
  outer loop
   vertex 0.028023 0.25046 -0.013447
   vertex 0.025802 0.252074 -0.014619
   vertex 0.028242 0.25355 -0.013884
  endloop
 endfacet
 facet normal 0.288428 0 -0.957502
  outer loop
   vertex 0.028242 0.25355 -0.013884
   vertex 0.025802 0.252074 -0.014619
   vertex 0.025802 0.255026 -0.014619
  endloop
 endfacet
 facet normal 0.156037 0 -0.987751
  outer loop
   vertex 0.025802 0.252074 -0.014619
   vertex 0.02377 0.25355 -0.01494
   vertex 0.025802 0.255026 -0.014619
  endloop
 endfacet
 facet normal -0.168666 -0.815046 -0.554303
  outer loop
   vertex 0.021442 0.246384 -0.011515
   vertex 0.023474 0.244908 -0.009963
   vertex 0.021006 0.245044 -0.009412
  endloop
 endfacet
 facet normal -0.112009 -0.640965 -0.759354
  outer loop
   vertex 0.022145 0.24855 -0.013447
   vertex 0.024298 0.246668 -0.012176
   vertex 0.021442 0.246384 -0.011515
  endloop
 endfacet
 facet normal -0.0336945 -0.400135 -0.915836
  outer loop
   vertex 0.022994 0.251161 -0.014619
   vertex 0.025152 0.249297 -0.013884
   vertex 0.022145 0.24855 -0.013447
  endloop
 endfacet
 facet normal -0.0710868 -0.767617 -0.636955
  outer loop
   vertex 0.021442 0.246384 -0.011515
   vertex 0.024298 0.246668 -0.012176
   vertex 0.023474 0.244908 -0.009963
  endloop
 endfacet
 facet normal 0.102735 -0.796801 -0.595444
  outer loop
   vertex 0.024298 0.246668 -0.012176
   vertex 0.026399 0.24546 -0.010197
   vertex 0.023474 0.244908 -0.009963
  endloop
 endfacet
 facet normal 0.0146149 -0.548074 -0.836302
  outer loop
   vertex 0.022145 0.24855 -0.013447
   vertex 0.025152 0.249297 -0.013884
   vertex 0.024298 0.246668 -0.012176
  endloop
 endfacet
 facet normal 0.187559 -0.577248 -0.794737
  outer loop
   vertex 0.025152 0.249297 -0.013884
   vertex 0.027388 0.247672 -0.012176
   vertex 0.024298 0.246668 -0.012176
  endloop
 endfacet
 facet normal 0.228709 -0.703897 -0.672474
  outer loop
   vertex 0.024298 0.246668 -0.012176
   vertex 0.027388 0.247672 -0.012176
   vertex 0.026399 0.24546 -0.010197
  endloop
 endfacet
 facet normal 0.38541 -0.704977 -0.595371
  outer loop
   vertex 0.027388 0.247672 -0.012176
   vertex 0.029089 0.246733 -0.009963
   vertex 0.026399 0.24546 -0.010197
  endloop
 endfacet
 facet normal 0.0891868 -0.274301 -0.957499
  outer loop
   vertex 0.022994 0.251161 -0.014619
   vertex 0.025802 0.252074 -0.014619
   vertex 0.025152 0.249297 -0.013884
  endloop
 endfacet
 facet normal 0.262485 -0.303841 -0.915851
  outer loop
   vertex 0.025802 0.252074 -0.014619
   vertex 0.028023 0.25046 -0.013447
   vertex 0.025152 0.249297 -0.013884
  endloop
 endfacet
 facet normal 0.310374 -0.451949 -0.836307
  outer loop
   vertex 0.025152 0.249297 -0.013884
   vertex 0.028023 0.25046 -0.013447
   vertex 0.027388 0.247672 -0.012176
  endloop
 endfacet
 facet normal 0.467426 -0.452641 -0.759361
  outer loop
   vertex 0.028023 0.25046 -0.013447
   vertex 0.029865 0.249121 -0.011515
   vertex 0.027388 0.247672 -0.012176
  endloop
 endfacet
 facet normal 0.508799 -0.579247 -0.636864
  outer loop
   vertex 0.027388 0.247672 -0.012176
   vertex 0.029865 0.249121 -0.011515
   vertex 0.029089 0.246733 -0.009963
  endloop
 endfacet
 facet normal 0.61533 -0.560308 -0.554459
  outer loop
   vertex 0.029865 0.249121 -0.011515
   vertex 0.031006 0.248293 -0.009412
   vertex 0.029089 0.246733 -0.009963
  endloop
 endfacet
endsolid ExportedfromBlender-3.5.1
