solid ExportedfromBlender-3.5.1
 facet normal 0.0482486 -0.148392 -0.987751
  outer loop
   vertex 0.02468 0.10131 0.01303
   vertex 0.026712 0.099834 0.013351
   vertex 0.023904 0.098921 0.013351
  endloop
 endfacet
 facet normal 0.723015 -0.412034 -0.554506
  outer loop
   vertex 0.031916 0.096053 0.018558
   vertex 0.030775 0.096881 0.016455
   vertex 0.032807 0.098358 0.018007
  endloop
 endfacet
 facet normal -0.126271 -0.0917039 -0.987748
  outer loop
   vertex 0.02468 0.10131 0.01303
   vertex 0.023904 0.098921 0.013351
   vertex 0.022169 0.10131 0.013351
  endloop
 endfacet
 facet normal -0.126271 0.0917039 -0.987748
  outer loop
   vertex 0.02468 0.10131 0.01303
   vertex 0.022169 0.10131 0.013351
   vertex 0.023904 0.103699 0.013351
  endloop
 endfacet
 facet normal 0.0482486 0.148392 -0.987751
  outer loop
   vertex 0.02468 0.10131 0.01303
   vertex 0.023904 0.103699 0.013351
   vertex 0.026712 0.102786 0.013351
  endloop
 endfacet
 facet normal 0.819189 -0.412026 -0.398954
  outer loop
   vertex 0.031916 0.096053 0.018558
   vertex 0.032807 0.098358 0.018007
   vertex 0.033287 0.096881 0.020518
  endloop
 endfacet
 facet normal -0.138975 -0.90647 -0.398746
  outer loop
   vertex 0.021916 0.092804 0.018558
   vertex 0.024384 0.092668 0.018007
   vertex 0.023128 0.091756 0.020518
  endloop
 endfacet
 facet normal -0.905177 -0.147939 -0.398459
  outer loop
   vertex 0.015736 0.10131 0.018558
   vertex 0.016369 0.098921 0.018007
   vertex 0.015114 0.099834 0.020519
  endloop
 endfacet
 facet normal -0.420269 0.815078 -0.398776
  outer loop
   vertex 0.021916 0.109816 0.018558
   vertex 0.01984 0.108476 0.018007
   vertex 0.02032 0.109952 0.020518
  endloop
 endfacet
 facet normal 0.645038 0.651744 -0.398942
  outer loop
   vertex 0.031916 0.106567 0.018558
   vertex 0.029999 0.108127 0.018007
   vertex 0.031552 0.108127 0.020518
  endloop
 endfacet
 facet normal 0.771063 -0.560215 -0.302688
  outer loop
   vertex 0.031916 0.096053 0.018558
   vertex 0.033287 0.096881 0.020518
   vertex 0.031552 0.094493 0.020518
  endloop
 endfacet
 facet normal -0.294416 -0.906493 -0.302638
  outer loop
   vertex 0.021916 0.092804 0.018558
   vertex 0.023128 0.091756 0.020518
   vertex 0.02032 0.092668 0.020518
  endloop
 endfacet
 facet normal -0.9532 0 -0.302341
  outer loop
   vertex 0.015736 0.10131 0.018558
   vertex 0.015114 0.099834 0.020519
   vertex 0.015114 0.102786 0.020519
  endloop
 endfacet
 facet normal -0.294416 0.906493 -0.302638
  outer loop
   vertex 0.021916 0.109816 0.018558
   vertex 0.02032 0.109952 0.020518
   vertex 0.023128 0.110864 0.020518
  endloop
 endfacet
 facet normal 0.771063 0.560215 -0.302688
  outer loop
   vertex 0.031916 0.106567 0.018558
   vertex 0.031552 0.108127 0.020518
   vertex 0.033287 0.105739 0.020518
  endloop
 endfacet
 facet normal 0.342493 -0.758552 0.554344
  outer loop
   vertex 0.027444 0.092804 0.027502
   vertex 0.02952 0.094144 0.028053
   vertex 0.027008 0.094144 0.029605
  endloop
 endfacet
 facet normal -0.61533 -0.560308 0.554459
  outer loop
   vertex 0.017444 0.096053 0.027502
   vertex 0.019361 0.094493 0.028053
   vertex 0.018585 0.096881 0.029605
  endloop
 endfacet
 facet normal -0.723015 0.412034 0.554506
  outer loop
   vertex 0.017444 0.106567 0.027502
   vertex 0.016553 0.104262 0.028053
   vertex 0.018585 0.105739 0.029605
  endloop
 endfacet
 facet normal 0.168666 0.815046 0.554303
  outer loop
   vertex 0.027444 0.109816 0.027502
   vertex 0.024976 0.109952 0.028053
   vertex 0.027008 0.108476 0.029605
  endloop
 endfacet
 facet normal 0.827124 0.091254 0.554562
  outer loop
   vertex 0.033624 0.10131 0.027502
   vertex 0.032991 0.103699 0.028053
   vertex 0.032214 0.10131 0.029605
  endloop
 endfacet
 facet normal 0.126271 0.0917039 0.987748
  outer loop
   vertex 0.027191 0.10131 0.032709
   vertex 0.025456 0.103699 0.032709
   vertex 0.02468 0.10131 0.03303
  endloop
 endfacet
 facet normal 0.390899 0.0914587 0.915878
  outer loop
   vertex 0.029937 0.10131 0.031537
   vertex 0.028298 0.103939 0.031974
   vertex 0.027191 0.10131 0.032709
  endloop
 endfacet
 facet normal 0.644269 0.0913996 0.759317
  outer loop
   vertex 0.032214 0.10131 0.029605
   vertex 0.031062 0.103939 0.030266
   vertex 0.029937 0.10131 0.031537
  endloop
 endfacet
 facet normal 0.233325 0.169451 0.957521
  outer loop
   vertex 0.027191 0.10131 0.032709
   vertex 0.028298 0.103939 0.031974
   vertex 0.025456 0.103699 0.032709
  endloop
 endfacet
 facet normal 0.207851 0.343516 0.915858
  outer loop
   vertex 0.028298 0.103939 0.031974
   vertex 0.026305 0.10631 0.031537
   vertex 0.025456 0.103699 0.032709
  endloop
 endfacet
 facet normal 0.516783 0.183167 0.836293
  outer loop
   vertex 0.029937 0.10131 0.031537
   vertex 0.031062 0.103939 0.030266
   vertex 0.028298 0.103939 0.031974
  endloop
 endfacet
 facet normal 0.491058 0.356895 0.794662
  outer loop
   vertex 0.031062 0.103939 0.030266
   vertex 0.029152 0.106567 0.030266
   vertex 0.028298 0.103939 0.031974
  endloop
 endfacet
 facet normal 0.334054 0.43492 0.836213
  outer loop
   vertex 0.028298 0.103939 0.031974
   vertex 0.029152 0.106567 0.030266
   vertex 0.026305 0.10631 0.031537
  endloop
 endfacet
 facet normal 0.286233 0.584386 0.759318
  outer loop
   vertex 0.029152 0.106567 0.030266
   vertex 0.027008 0.108476 0.029605
   vertex 0.026305 0.10631 0.031537
  endloop
 endfacet
 facet normal 0.751958 0.169318 0.637095
  outer loop
   vertex 0.032214 0.10131 0.029605
   vertex 0.032991 0.103699 0.028053
   vertex 0.031062 0.103939 0.030266
  endloop
 endfacet
 facet normal 0.725985 0.343961 0.595514
  outer loop
   vertex 0.032991 0.103699 0.028053
   vertex 0.031562 0.10631 0.028287
   vertex 0.031062 0.103939 0.030266
  endloop
 endfacet
 facet normal 0.598657 0.435097 0.672533
  outer loop
   vertex 0.031062 0.103939 0.030266
   vertex 0.031562 0.10631 0.028287
   vertex 0.029152 0.106567 0.030266
  endloop
 endfacet
 facet normal 0.551379 0.584158 0.595601
  outer loop
   vertex 0.031562 0.10631 0.028287
   vertex 0.02952 0.108476 0.028053
   vertex 0.029152 0.106567 0.030266
  endloop
 endfacet
 facet normal 0.393627 0.662685 0.637108
  outer loop
   vertex 0.029152 0.106567 0.030266
   vertex 0.02952 0.108476 0.028053
   vertex 0.027008 0.108476 0.029605
  endloop
 endfacet
 facet normal 0.342493 0.758552 0.554344
  outer loop
   vertex 0.02952 0.108476 0.028053
   vertex 0.027444 0.109816 0.027502
   vertex 0.027008 0.108476 0.029605
  endloop
 endfacet
 facet normal -0.0482486 0.148392 0.987751
  outer loop
   vertex 0.025456 0.103699 0.032709
   vertex 0.022648 0.102786 0.032709
   vertex 0.02468 0.10131 0.03303
  endloop
 endfacet
 facet normal 0.0336945 0.400135 0.915836
  outer loop
   vertex 0.026305 0.10631 0.031537
   vertex 0.023298 0.105563 0.031974
   vertex 0.025456 0.103699 0.032709
  endloop
 endfacet
 facet normal 0.112009 0.640965 0.759354
  outer loop
   vertex 0.027008 0.108476 0.029605
   vertex 0.024152 0.108192 0.030266
   vertex 0.026305 0.10631 0.031537
  endloop
 endfacet
 facet normal -0.0891868 0.274301 0.957499
  outer loop
   vertex 0.025456 0.103699 0.032709
   vertex 0.023298 0.105563 0.031974
   vertex 0.022648 0.102786 0.032709
  endloop
 endfacet
 facet normal -0.262485 0.303841 0.915851
  outer loop
   vertex 0.023298 0.105563 0.031974
   vertex 0.020427 0.1044 0.031537
   vertex 0.022648 0.102786 0.032709
  endloop
 endfacet
 facet normal -0.0146149 0.548074 0.836302
  outer loop
   vertex 0.026305 0.10631 0.031537
   vertex 0.024152 0.108192 0.030266
   vertex 0.023298 0.105563 0.031974
  endloop
 endfacet
 facet normal -0.187559 0.577248 0.794737
  outer loop
   vertex 0.024152 0.108192 0.030266
   vertex 0.021062 0.107188 0.030266
   vertex 0.023298 0.105563 0.031974
  endloop
 endfacet
 facet normal -0.310374 0.451949 0.836307
  outer loop
   vertex 0.023298 0.105563 0.031974
   vertex 0.021062 0.107188 0.030266
   vertex 0.020427 0.1044 0.031537
  endloop
 endfacet
 facet normal -0.467426 0.452641 0.759361
  outer loop
   vertex 0.021062 0.107188 0.030266
   vertex 0.018585 0.105739 0.029605
   vertex 0.020427 0.1044 0.031537
  endloop
 endfacet
 facet normal 0.0710868 0.767617 0.636955
  outer loop
   vertex 0.027008 0.108476 0.029605
   vertex 0.024976 0.109952 0.028053
   vertex 0.024152 0.108192 0.030266
  endloop
 endfacet
 facet normal -0.102735 0.796801 0.595444
  outer loop
   vertex 0.024976 0.109952 0.028053
   vertex 0.022051 0.1094 0.028287
   vertex 0.024152 0.108192 0.030266
  endloop
 endfacet
 facet normal -0.228709 0.703897 0.672474
  outer loop
   vertex 0.024152 0.108192 0.030266
   vertex 0.022051 0.1094 0.028287
   vertex 0.021062 0.107188 0.030266
  endloop
 endfacet
 facet normal -0.38541 0.704977 0.595371
  outer loop
   vertex 0.022051 0.1094 0.028287
   vertex 0.019361 0.108127 0.028053
   vertex 0.021062 0.107188 0.030266
  endloop
 endfacet
 facet normal -0.508799 0.579247 0.636864
  outer loop
   vertex 0.021062 0.107188 0.030266
   vertex 0.019361 0.108127 0.028053
   vertex 0.018585 0.105739 0.029605
  endloop
 endfacet
 facet normal -0.61533 0.560308 0.554459
  outer loop
   vertex 0.019361 0.108127 0.028053
   vertex 0.017444 0.106567 0.027502
   vertex 0.018585 0.105739 0.029605
  endloop
 endfacet
 facet normal -0.156037 0 0.987751
  outer loop
   vertex 0.022648 0.102786 0.032709
   vertex 0.022648 0.099834 0.032709
   vertex 0.02468 0.10131 0.03303
  endloop
 endfacet
 facet normal -0.370096 0.155752 0.915844
  outer loop
   vertex 0.020427 0.1044 0.031537
   vertex 0.020208 0.10131 0.031974
   vertex 0.022648 0.102786 0.032709
  endloop
 endfacet
 facet normal -0.574948 0.304695 0.759339
  outer loop
   vertex 0.018585 0.105739 0.029605
   vertex 0.017972 0.102935 0.030266
   vertex 0.020427 0.1044 0.031537
  endloop
 endfacet
 facet normal -0.288428 0 0.957502
  outer loop
   vertex 0.022648 0.102786 0.032709
   vertex 0.020208 0.10131 0.031974
   vertex 0.022648 0.099834 0.032709
  endloop
 endfacet
 facet normal -0.370096 -0.155752 0.915844
  outer loop
   vertex 0.020208 0.10131 0.031974
   vertex 0.020427 0.09822 0.031537
   vertex 0.022648 0.099834 0.032709
  endloop
 endfacet
 facet normal -0.525774 0.155534 0.836284
  outer loop
   vertex 0.020427 0.1044 0.031537
   vertex 0.017972 0.102935 0.030266
   vertex 0.020208 0.10131 0.031974
  endloop
 endfacet
 facet normal -0.607028 0 0.794681
  outer loop
   vertex 0.017972 0.102935 0.030266
   vertex 0.017972 0.099685 0.030266
   vertex 0.020208 0.10131 0.031974
  endloop
 endfacet
 facet normal -0.525774 -0.155534 0.836284
  outer loop
   vertex 0.020208 0.10131 0.031974
   vertex 0.017972 0.099685 0.030266
   vertex 0.020427 0.09822 0.031537
  endloop
 endfacet
 facet normal -0.574948 -0.304695 0.759339
  outer loop
   vertex 0.017972 0.099685 0.030266
   vertex 0.018585 0.096881 0.029605
   vertex 0.020427 0.09822 0.031537
  endloop
 endfacet
 facet normal -0.708089 0.304936 0.636886
  outer loop
   vertex 0.018585 0.105739 0.029605
   vertex 0.016553 0.104262 0.028053
   vertex 0.017972 0.102935 0.030266
  endloop
 endfacet
 facet normal -0.789589 0.148568 0.59538
  outer loop
   vertex 0.016553 0.104262 0.028053
   vertex 0.016174 0.10131 0.028287
   vertex 0.017972 0.102935 0.030266
  endloop
 endfacet
 facet normal -0.740143 0 0.672449
  outer loop
   vertex 0.017972 0.102935 0.030266
   vertex 0.016174 0.10131 0.028287
   vertex 0.017972 0.099685 0.030266
  endloop
 endfacet
 facet normal -0.789589 -0.148568 0.59538
  outer loop
   vertex 0.016174 0.10131 0.028287
   vertex 0.016553 0.098358 0.028053
   vertex 0.017972 0.099685 0.030266
  endloop
 endfacet
 facet normal -0.708089 -0.304936 0.636886
  outer loop
   vertex 0.017972 0.099685 0.030266
   vertex 0.016553 0.098358 0.028053
   vertex 0.018585 0.096881 0.029605
  endloop
 endfacet
 facet normal -0.723015 -0.412034 0.554506
  outer loop
   vertex 0.016553 0.098358 0.028053
   vertex 0.017444 0.096053 0.027502
   vertex 0.018585 0.096881 0.029605
  endloop
 endfacet
 facet normal -0.0482486 -0.148392 0.987751
  outer loop
   vertex 0.022648 0.099834 0.032709
   vertex 0.025456 0.098921 0.032709
   vertex 0.02468 0.10131 0.03303
  endloop
 endfacet
 facet normal -0.262485 -0.303841 0.915851
  outer loop
   vertex 0.020427 0.09822 0.031537
   vertex 0.023298 0.097057 0.031974
   vertex 0.022648 0.099834 0.032709
  endloop
 endfacet
 facet normal -0.467426 -0.452641 0.759361
  outer loop
   vertex 0.018585 0.096881 0.029605
   vertex 0.021062 0.095432 0.030266
   vertex 0.020427 0.09822 0.031537
  endloop
 endfacet
 facet normal -0.0891868 -0.274301 0.957499
  outer loop
   vertex 0.022648 0.099834 0.032709
   vertex 0.023298 0.097057 0.031974
   vertex 0.025456 0.098921 0.032709
  endloop
 endfacet
 facet normal 0.0336945 -0.400135 0.915836
  outer loop
   vertex 0.023298 0.097057 0.031974
   vertex 0.026305 0.09631 0.031537
   vertex 0.025456 0.098921 0.032709
  endloop
 endfacet
 facet normal -0.310374 -0.451949 0.836307
  outer loop
   vertex 0.020427 0.09822 0.031537
   vertex 0.021062 0.095432 0.030266
   vertex 0.023298 0.097057 0.031974
  endloop
 endfacet
 facet normal -0.187559 -0.577248 0.794737
  outer loop
   vertex 0.021062 0.095432 0.030266
   vertex 0.024152 0.094428 0.030266
   vertex 0.023298 0.097057 0.031974
  endloop
 endfacet
 facet normal -0.0146149 -0.548074 0.836302
  outer loop
   vertex 0.023298 0.097057 0.031974
   vertex 0.024152 0.094428 0.030266
   vertex 0.026305 0.09631 0.031537
  endloop
 endfacet
 facet normal 0.112009 -0.640965 0.759354
  outer loop
   vertex 0.024152 0.094428 0.030266
   vertex 0.027008 0.094144 0.029605
   vertex 0.026305 0.09631 0.031537
  endloop
 endfacet
 facet normal -0.508799 -0.579247 0.636864
  outer loop
   vertex 0.018585 0.096881 0.029605
   vertex 0.019361 0.094493 0.028053
   vertex 0.021062 0.095432 0.030266
  endloop
 endfacet
 facet normal -0.38541 -0.704977 0.595371
  outer loop
   vertex 0.019361 0.094493 0.028053
   vertex 0.022051 0.09322 0.028287
   vertex 0.021062 0.095432 0.030266
  endloop
 endfacet
 facet normal -0.228709 -0.703897 0.672474
  outer loop
   vertex 0.021062 0.095432 0.030266
   vertex 0.022051 0.09322 0.028287
   vertex 0.024152 0.094428 0.030266
  endloop
 endfacet
 facet normal -0.102735 -0.796801 0.595444
  outer loop
   vertex 0.022051 0.09322 0.028287
   vertex 0.024976 0.092668 0.028053
   vertex 0.024152 0.094428 0.030266
  endloop
 endfacet
 facet normal 0.0710868 -0.767617 0.636955
  outer loop
   vertex 0.024152 0.094428 0.030266
   vertex 0.024976 0.092668 0.028053
   vertex 0.027008 0.094144 0.029605
  endloop
 endfacet
 facet normal 0.168666 -0.815046 0.554303
  outer loop
   vertex 0.024976 0.092668 0.028053
   vertex 0.027444 0.092804 0.027502
   vertex 0.027008 0.094144 0.029605
  endloop
 endfacet
 facet normal 0.126271 -0.0917039 0.987748
  outer loop
   vertex 0.025456 0.098921 0.032709
   vertex 0.027191 0.10131 0.032709
   vertex 0.02468 0.10131 0.03303
  endloop
 endfacet
 facet normal 0.207851 -0.343516 0.915858
  outer loop
   vertex 0.026305 0.09631 0.031537
   vertex 0.028298 0.098681 0.031974
   vertex 0.025456 0.098921 0.032709
  endloop
 endfacet
 facet normal 0.286233 -0.584386 0.759318
  outer loop
   vertex 0.027008 0.094144 0.029605
   vertex 0.029152 0.096053 0.030266
   vertex 0.026305 0.09631 0.031537
  endloop
 endfacet
 facet normal 0.233325 -0.169451 0.957521
  outer loop
   vertex 0.025456 0.098921 0.032709
   vertex 0.028298 0.098681 0.031974
   vertex 0.027191 0.10131 0.032709
  endloop
 endfacet
 facet normal 0.390899 -0.0914587 0.915878
  outer loop
   vertex 0.028298 0.098681 0.031974
   vertex 0.029937 0.10131 0.031537
   vertex 0.027191 0.10131 0.032709
  endloop
 endfacet
 facet normal 0.334054 -0.43492 0.836213
  outer loop
   vertex 0.026305 0.09631 0.031537
   vertex 0.029152 0.096053 0.030266
   vertex 0.028298 0.098681 0.031974
  endloop
 endfacet
 facet normal 0.491058 -0.356895 0.794662
  outer loop
   vertex 0.029152 0.096053 0.030266
   vertex 0.031062 0.098681 0.030266
   vertex 0.028298 0.098681 0.031974
  endloop
 endfacet
 facet normal 0.516783 -0.183167 0.836293
  outer loop
   vertex 0.028298 0.098681 0.031974
   vertex 0.031062 0.098681 0.030266
   vertex 0.029937 0.10131 0.031537
  endloop
 endfacet
 facet normal 0.644269 -0.0913996 0.759317
  outer loop
   vertex 0.031062 0.098681 0.030266
   vertex 0.032214 0.10131 0.029605
   vertex 0.029937 0.10131 0.031537
  endloop
 endfacet
 facet normal 0.393627 -0.662685 0.637108
  outer loop
   vertex 0.027008 0.094144 0.029605
   vertex 0.02952 0.094144 0.028053
   vertex 0.029152 0.096053 0.030266
  endloop
 endfacet
 facet normal 0.551379 -0.584158 0.595601
  outer loop
   vertex 0.02952 0.094144 0.028053
   vertex 0.031562 0.09631 0.028287
   vertex 0.029152 0.096053 0.030266
  endloop
 endfacet
 facet normal 0.598657 -0.435097 0.672533
  outer loop
   vertex 0.029152 0.096053 0.030266
   vertex 0.031562 0.09631 0.028287
   vertex 0.031062 0.098681 0.030266
  endloop
 endfacet
 facet normal 0.725985 -0.343961 0.595514
  outer loop
   vertex 0.031562 0.09631 0.028287
   vertex 0.032991 0.098921 0.028053
   vertex 0.031062 0.098681 0.030266
  endloop
 endfacet
 facet normal 0.751958 -0.169318 0.637095
  outer loop
   vertex 0.031062 0.098681 0.030266
   vertex 0.032991 0.098921 0.028053
   vertex 0.032214 0.10131 0.029605
  endloop
 endfacet
 facet normal 0.827124 -0.091254 0.554562
  outer loop
   vertex 0.032991 0.098921 0.028053
   vertex 0.033624 0.10131 0.027502
   vertex 0.032214 0.10131 0.029605
  endloop
 endfacet
 facet normal 0.905177 0.147939 0.398459
  outer loop
   vertex 0.034246 0.102786 0.025541
   vertex 0.032991 0.103699 0.028053
   vertex 0.033624 0.10131 0.027502
  endloop
 endfacet
 facet normal 0.93657 0.303801 0.17476
  outer loop
   vertex 0.034191 0.1044 0.02303
   vertex 0.033298 0.105563 0.025794
   vertex 0.034246 0.102786 0.025541
  endloop
 endfacet
 facet normal 0.888212 0.452708 -0.078331
  outer loop
   vertex 0.033287 0.105739 0.020518
   vertex 0.03277 0.107188 0.02303
   vertex 0.034191 0.1044 0.02303
  endloop
 endfacet
 facet normal 0.89641 0.274294 0.348155
  outer loop
   vertex 0.034246 0.102786 0.025541
   vertex 0.033298 0.105563 0.025794
   vertex 0.032991 0.103699 0.028053
  endloop
 endfacet
 facet normal 0.803858 0.400541 0.439749
  outer loop
   vertex 0.033298 0.105563 0.025794
   vertex 0.031562 0.10631 0.028287
   vertex 0.032991 0.103699 0.028053
  endloop
 endfacet
 facet normal 0.886806 0.451991 0.0963284
  outer loop
   vertex 0.034191 0.1044 0.02303
   vertex 0.03277 0.107188 0.02303
   vertex 0.033298 0.105563 0.025794
  endloop
 endfacet
 facet normal 0.794662 0.577331 0.18762
  outer loop
   vertex 0.03277 0.107188 0.02303
   vertex 0.031388 0.108192 0.025794
   vertex 0.033298 0.105563 0.025794
  endloop
 endfacet
 facet normal 0.754436 0.548107 0.361117
  outer loop
   vertex 0.033298 0.105563 0.025794
   vertex 0.031388 0.108192 0.025794
   vertex 0.031562 0.10631 0.028287
  endloop
 endfacet
 facet normal 0.629279 0.640767 0.439803
  outer loop
   vertex 0.031388 0.108192 0.025794
   vertex 0.02952 0.108476 0.028053
   vertex 0.031562 0.10631 0.028287
  endloop
 endfacet
 facet normal 0.797233 0.579229 -0.170037
  outer loop
   vertex 0.033287 0.105739 0.020518
   vertex 0.031552 0.108127 0.020518
   vertex 0.03277 0.107188 0.02303
  endloop
 endfacet
 facet normal 0.704936 0.704936 -0.0782949
  outer loop
   vertex 0.031552 0.108127 0.020518
   vertex 0.030558 0.1094 0.02303
   vertex 0.03277 0.107188 0.02303
  endloop
 endfacet
 facet normal 0.703824 0.703824 0.0962537
  outer loop
   vertex 0.03277 0.107188 0.02303
   vertex 0.030558 0.1094 0.02303
   vertex 0.031388 0.108192 0.025794
  endloop
 endfacet
 facet normal 0.578519 0.796783 0.174509
  outer loop
   vertex 0.030558 0.1094 0.02303
   vertex 0.02904 0.109952 0.025542
   vertex 0.031388 0.108192 0.025794
  endloop
 endfacet
 facet normal 0.537986 0.767602 0.348366
  outer loop
   vertex 0.031388 0.108192 0.025794
   vertex 0.02904 0.109952 0.025542
   vertex 0.02952 0.108476 0.028053
  endloop
 endfacet
 facet normal 0.420269 0.815078 0.398776
  outer loop
   vertex 0.02904 0.109952 0.025542
   vertex 0.027444 0.109816 0.027502
   vertex 0.02952 0.108476 0.028053
  endloop
 endfacet
 facet normal 0.138975 0.90647 0.398746
  outer loop
   vertex 0.026232 0.110864 0.025542
   vertex 0.024976 0.109952 0.028053
   vertex 0.027444 0.109816 0.027502
  endloop
 endfacet
 facet normal 0.000555151 0.98466 0.174481
  outer loop
   vertex 0.02468 0.11131 0.02303
   vertex 0.023298 0.110821 0.025794
   vertex 0.026232 0.110864 0.025542
  endloop
 endfacet
 facet normal -0.155824 0.984657 -0.07855
  outer loop
   vertex 0.023128 0.110864 0.020518
   vertex 0.02159 0.110821 0.02303
   vertex 0.02468 0.11131 0.02303
  endloop
 endfacet
 facet normal 0.0161962 0.937175 0.348485
  outer loop
   vertex 0.026232 0.110864 0.025542
   vertex 0.023298 0.110821 0.025794
   vertex 0.024976 0.109952 0.028053
  endloop
 endfacet
 facet normal -0.132412 0.888171 0.440021
  outer loop
   vertex 0.023298 0.110821 0.025794
   vertex 0.022051 0.1094 0.028287
   vertex 0.024976 0.109952 0.028053
  endloop
 endfacet
 facet normal -0.155583 0.983133 0.0961419
  outer loop
   vertex 0.02468 0.11131 0.02303
   vertex 0.02159 0.110821 0.02303
   vertex 0.023298 0.110821 0.025794
  endloop
 endfacet
 facet normal -0.303796 0.934059 0.187729
  outer loop
   vertex 0.02159 0.110821 0.02303
   vertex 0.020208 0.109816 0.025794
   vertex 0.023298 0.110821 0.025794
  endloop
 endfacet
 facet normal -0.288415 0.886769 0.361189
  outer loop
   vertex 0.023298 0.110821 0.025794
   vertex 0.020208 0.109816 0.025794
   vertex 0.022051 0.1094 0.028287
  endloop
 endfacet
 facet normal -0.415138 0.796394 0.439791
  outer loop
   vertex 0.020208 0.109816 0.025794
   vertex 0.019361 0.108127 0.028053
   vertex 0.022051 0.1094 0.028287
  endloop
 endfacet
 facet normal -0.304389 0.937197 -0.170322
  outer loop
   vertex 0.023128 0.110864 0.020518
   vertex 0.02032 0.109952 0.020518
   vertex 0.02159 0.110821 0.02303
  endloop
 endfacet
 facet normal -0.452705 0.888208 -0.0783901
  outer loop
   vertex 0.02032 0.109952 0.020518
   vertex 0.018802 0.1094 0.02303
   vertex 0.02159 0.110821 0.02303
  endloop
 endfacet
 facet normal -0.451986 0.886796 0.0964489
  outer loop
   vertex 0.02159 0.110821 0.02303
   vertex 0.018802 0.1094 0.02303
   vertex 0.020208 0.109816 0.025794
  endloop
 endfacet
 facet normal -0.578874 0.796508 0.174584
  outer loop
   vertex 0.018802 0.1094 0.02303
   vertex 0.017808 0.108127 0.025542
   vertex 0.020208 0.109816 0.025794
  endloop
 endfacet
 facet normal -0.563623 0.748876 0.348589
  outer loop
   vertex 0.020208 0.109816 0.025794
   vertex 0.017808 0.108127 0.025542
   vertex 0.019361 0.108127 0.028053
  endloop
 endfacet
 facet normal -0.645038 0.651744 0.398942
  outer loop
   vertex 0.017808 0.108127 0.025542
   vertex 0.017444 0.106567 0.027502
   vertex 0.019361 0.108127 0.028053
  endloop
 endfacet
 facet normal -0.819189 0.412026 0.398954
  outer loop
   vertex 0.016073 0.105739 0.025542
   vertex 0.016553 0.104262 0.028053
   vertex 0.017444 0.106567 0.027502
  endloop
 endfacet
 facet normal -0.936352 0.304548 0.174631
  outer loop
   vertex 0.015169 0.1044 0.02303
   vertex 0.015208 0.102935 0.025794
   vertex 0.016073 0.105739 0.025542
  endloop
 endfacet
 facet normal -0.984653 0.155824 -0.0785916
  outer loop
   vertex 0.015114 0.102786 0.020519
   vertex 0.01468 0.10131 0.02303
   vertex 0.015169 0.1044 0.02303
  endloop
 endfacet
 facet normal -0.886309 0.304753 0.348685
  outer loop
   vertex 0.016073 0.105739 0.025542
   vertex 0.015208 0.102935 0.025794
   vertex 0.016553 0.104262 0.028053
  endloop
 endfacet
 facet normal -0.885615 0.148581 0.440011
  outer loop
   vertex 0.015208 0.102935 0.025794
   vertex 0.016174 0.10131 0.028287
   vertex 0.016553 0.104262 0.028053
  endloop
 endfacet
 facet normal -0.983115 0.15558 0.0963335
  outer loop
   vertex 0.015169 0.1044 0.02303
   vertex 0.01468 0.10131 0.02303
   vertex 0.015208 0.102935 0.025794
  endloop
 endfacet
 facet normal -0.982239 0 0.187634
  outer loop
   vertex 0.01468 0.10131 0.02303
   vertex 0.015208 0.099685 0.025794
   vertex 0.015208 0.102935 0.025794
  endloop
 endfacet
 facet normal -0.932446 0 0.361309
  outer loop
   vertex 0.015208 0.102935 0.025794
   vertex 0.015208 0.099685 0.025794
   vertex 0.016174 0.10131 0.028287
  endloop
 endfacet
 facet normal -0.885615 -0.148581 0.440011
  outer loop
   vertex 0.015208 0.099685 0.025794
   vertex 0.016553 0.098358 0.028053
   vertex 0.016174 0.10131 0.028287
  endloop
 endfacet
 facet normal -0.98539 -0 -0.170314
  outer loop
   vertex 0.015114 0.102786 0.020519
   vertex 0.015114 0.099834 0.020519
   vertex 0.01468 0.10131 0.02303
  endloop
 endfacet
 facet normal -0.984653 -0.155824 -0.0785916
  outer loop
   vertex 0.015114 0.099834 0.020519
   vertex 0.015169 0.09822 0.02303
   vertex 0.01468 0.10131 0.02303
  endloop
 endfacet
 facet normal -0.983115 -0.15558 0.0963335
  outer loop
   vertex 0.01468 0.10131 0.02303
   vertex 0.015169 0.09822 0.02303
   vertex 0.015208 0.099685 0.025794
  endloop
 endfacet
 facet normal -0.936352 -0.304548 0.174631
  outer loop
   vertex 0.015169 0.09822 0.02303
   vertex 0.016073 0.096881 0.025542
   vertex 0.015208 0.099685 0.025794
  endloop
 endfacet
 facet normal -0.886309 -0.304753 0.348685
  outer loop
   vertex 0.015208 0.099685 0.025794
   vertex 0.016073 0.096881 0.025542
   vertex 0.016553 0.098358 0.028053
  endloop
 endfacet
 facet normal -0.819189 -0.412026 0.398954
  outer loop
   vertex 0.016073 0.096881 0.025542
   vertex 0.017444 0.096053 0.027502
   vertex 0.016553 0.098358 0.028053
  endloop
 endfacet
 facet normal -0.645038 -0.651744 0.398942
  outer loop
   vertex 0.017808 0.094493 0.025542
   vertex 0.019361 0.094493 0.028053
   vertex 0.017444 0.096053 0.027502
  endloop
 endfacet
 facet normal -0.578874 -0.796508 0.174584
  outer loop
   vertex 0.018802 0.09322 0.02303
   vertex 0.020208 0.092804 0.025794
   vertex 0.017808 0.094493 0.025542
  endloop
 endfacet
 facet normal -0.452705 -0.888208 -0.0783901
  outer loop
   vertex 0.02032 0.092668 0.020518
   vertex 0.02159 0.091799 0.02303
   vertex 0.018802 0.09322 0.02303
  endloop
 endfacet
 facet normal -0.563623 -0.748876 0.348589
  outer loop
   vertex 0.017808 0.094493 0.025542
   vertex 0.020208 0.092804 0.025794
   vertex 0.019361 0.094493 0.028053
  endloop
 endfacet
 facet normal -0.415138 -0.796394 0.439791
  outer loop
   vertex 0.020208 0.092804 0.025794
   vertex 0.022051 0.09322 0.028287
   vertex 0.019361 0.094493 0.028053
  endloop
 endfacet
 facet normal -0.451986 -0.886796 0.0964489
  outer loop
   vertex 0.018802 0.09322 0.02303
   vertex 0.02159 0.091799 0.02303
   vertex 0.020208 0.092804 0.025794
  endloop
 endfacet
 facet normal -0.303796 -0.934059 0.187729
  outer loop
   vertex 0.02159 0.091799 0.02303
   vertex 0.023298 0.091799 0.025794
   vertex 0.020208 0.092804 0.025794
  endloop
 endfacet
 facet normal -0.288415 -0.886769 0.361189
  outer loop
   vertex 0.020208 0.092804 0.025794
   vertex 0.023298 0.091799 0.025794
   vertex 0.022051 0.09322 0.028287
  endloop
 endfacet
 facet normal -0.132412 -0.888171 0.440021
  outer loop
   vertex 0.023298 0.091799 0.025794
   vertex 0.024976 0.092668 0.028053
   vertex 0.022051 0.09322 0.028287
  endloop
 endfacet
 facet normal -0.304389 -0.937197 -0.170322
  outer loop
   vertex 0.02032 0.092668 0.020518
   vertex 0.023128 0.091756 0.020518
   vertex 0.02159 0.091799 0.02303
  endloop
 endfacet
 facet normal -0.155824 -0.984657 -0.07855
  outer loop
   vertex 0.023128 0.091756 0.020518
   vertex 0.02468 0.09131 0.02303
   vertex 0.02159 0.091799 0.02303
  endloop
 endfacet
 facet normal -0.155583 -0.983133 0.0961419
  outer loop
   vertex 0.02159 0.091799 0.02303
   vertex 0.02468 0.09131 0.02303
   vertex 0.023298 0.091799 0.025794
  endloop
 endfacet
 facet normal 0.000555151 -0.98466 0.174481
  outer loop
   vertex 0.02468 0.09131 0.02303
   vertex 0.026232 0.091756 0.025542
   vertex 0.023298 0.091799 0.025794
  endloop
 endfacet
 facet normal 0.0161962 -0.937175 0.348485
  outer loop
   vertex 0.023298 0.091799 0.025794
   vertex 0.026232 0.091756 0.025542
   vertex 0.024976 0.092668 0.028053
  endloop
 endfacet
 facet normal 0.138975 -0.90647 0.398746
  outer loop
   vertex 0.026232 0.091756 0.025542
   vertex 0.027444 0.092804 0.027502
   vertex 0.024976 0.092668 0.028053
  endloop
 endfacet
 facet normal 0.420269 -0.815078 0.398776
  outer loop
   vertex 0.02904 0.092668 0.025542
   vertex 0.02952 0.094144 0.028053
   vertex 0.027444 0.092804 0.027502
  endloop
 endfacet
 facet normal 0.578519 -0.796783 0.174509
  outer loop
   vertex 0.030558 0.09322 0.02303
   vertex 0.031388 0.094428 0.025794
   vertex 0.02904 0.092668 0.025542
  endloop
 endfacet
 facet normal 0.704936 -0.704936 -0.0782949
  outer loop
   vertex 0.031552 0.094493 0.020518
   vertex 0.03277 0.095432 0.02303
   vertex 0.030558 0.09322 0.02303
  endloop
 endfacet
 facet normal 0.537986 -0.767602 0.348366
  outer loop
   vertex 0.02904 0.092668 0.025542
   vertex 0.031388 0.094428 0.025794
   vertex 0.02952 0.094144 0.028053
  endloop
 endfacet
 facet normal 0.629279 -0.640767 0.439803
  outer loop
   vertex 0.031388 0.094428 0.025794
   vertex 0.031562 0.09631 0.028287
   vertex 0.02952 0.094144 0.028053
  endloop
 endfacet
 facet normal 0.703824 -0.703824 0.0962537
  outer loop
   vertex 0.030558 0.09322 0.02303
   vertex 0.03277 0.095432 0.02303
   vertex 0.031388 0.094428 0.025794
  endloop
 endfacet
 facet normal 0.794662 -0.577331 0.18762
  outer loop
   vertex 0.03277 0.095432 0.02303
   vertex 0.033298 0.097057 0.025794
   vertex 0.031388 0.094428 0.025794
  endloop
 endfacet
 facet normal 0.754436 -0.548107 0.361117
  outer loop
   vertex 0.031388 0.094428 0.025794
   vertex 0.033298 0.097057 0.025794
   vertex 0.031562 0.09631 0.028287
  endloop
 endfacet
 facet normal 0.803858 -0.400541 0.439749
  outer loop
   vertex 0.033298 0.097057 0.025794
   vertex 0.032991 0.098921 0.028053
   vertex 0.031562 0.09631 0.028287
  endloop
 endfacet
 facet normal 0.797233 -0.579229 -0.170037
  outer loop
   vertex 0.031552 0.094493 0.020518
   vertex 0.033287 0.096881 0.020518
   vertex 0.03277 0.095432 0.02303
  endloop
 endfacet
 facet normal 0.888212 -0.452708 -0.078331
  outer loop
   vertex 0.033287 0.096881 0.020518
   vertex 0.034191 0.09822 0.02303
   vertex 0.03277 0.095432 0.02303
  endloop
 endfacet
 facet normal 0.886806 -0.451991 0.0963284
  outer loop
   vertex 0.03277 0.095432 0.02303
   vertex 0.034191 0.09822 0.02303
   vertex 0.033298 0.097057 0.025794
  endloop
 endfacet
 facet normal 0.93657 -0.303801 0.17476
  outer loop
   vertex 0.034191 0.09822 0.02303
   vertex 0.034246 0.099834 0.025541
   vertex 0.033298 0.097057 0.025794
  endloop
 endfacet
 facet normal 0.89641 -0.274294 0.348155
  outer loop
   vertex 0.033298 0.097057 0.025794
   vertex 0.034246 0.099834 0.025541
   vertex 0.032991 0.098921 0.028053
  endloop
 endfacet
 facet normal 0.905177 -0.147939 0.398459
  outer loop
   vertex 0.034246 0.099834 0.025541
   vertex 0.033624 0.10131 0.027502
   vertex 0.032991 0.098921 0.028053
  endloop
 endfacet
 facet normal 0.294416 0.906493 0.302638
  outer loop
   vertex 0.02904 0.109952 0.025542
   vertex 0.026232 0.110864 0.025542
   vertex 0.027444 0.109816 0.027502
  endloop
 endfacet
 facet normal 0.452705 0.888208 0.0783901
  outer loop
   vertex 0.030558 0.1094 0.02303
   vertex 0.02777 0.110821 0.02303
   vertex 0.02904 0.109952 0.025542
  endloop
 endfacet
 facet normal 0.578874 0.796508 -0.174584
  outer loop
   vertex 0.031552 0.108127 0.020518
   vertex 0.029152 0.109816 0.020266
   vertex 0.030558 0.1094 0.02303
  endloop
 endfacet
 facet normal 0.304389 0.937197 0.170322
  outer loop
   vertex 0.02904 0.109952 0.025542
   vertex 0.02777 0.110821 0.02303
   vertex 0.026232 0.110864 0.025542
  endloop
 endfacet
 facet normal 0.155824 0.984657 0.07855
  outer loop
   vertex 0.02777 0.110821 0.02303
   vertex 0.02468 0.11131 0.02303
   vertex 0.026232 0.110864 0.025542
  endloop
 endfacet
 facet normal 0.451986 0.886796 -0.0964489
  outer loop
   vertex 0.030558 0.1094 0.02303
   vertex 0.029152 0.109816 0.020266
   vertex 0.02777 0.110821 0.02303
  endloop
 endfacet
 facet normal 0.303796 0.934059 -0.187729
  outer loop
   vertex 0.029152 0.109816 0.020266
   vertex 0.026062 0.110821 0.020266
   vertex 0.02777 0.110821 0.02303
  endloop
 endfacet
 facet normal 0.155583 0.983133 -0.0961419
  outer loop
   vertex 0.02777 0.110821 0.02303
   vertex 0.026062 0.110821 0.020266
   vertex 0.02468 0.11131 0.02303
  endloop
 endfacet
 facet normal -0.000555151 0.98466 -0.174481
  outer loop
   vertex 0.026062 0.110821 0.020266
   vertex 0.023128 0.110864 0.020518
   vertex 0.02468 0.11131 0.02303
  endloop
 endfacet
 facet normal 0.563623 0.748876 -0.348589
  outer loop
   vertex 0.031552 0.108127 0.020518
   vertex 0.029999 0.108127 0.018007
   vertex 0.029152 0.109816 0.020266
  endloop
 endfacet
 facet normal 0.415138 0.796394 -0.439791
  outer loop
   vertex 0.029999 0.108127 0.018007
   vertex 0.027309 0.1094 0.017773
   vertex 0.029152 0.109816 0.020266
  endloop
 endfacet
 facet normal 0.288415 0.886769 -0.361189
  outer loop
   vertex 0.029152 0.109816 0.020266
   vertex 0.027309 0.1094 0.017773
   vertex 0.026062 0.110821 0.020266
  endloop
 endfacet
 facet normal 0.132412 0.888171 -0.440021
  outer loop
   vertex 0.027309 0.1094 0.017773
   vertex 0.024384 0.109952 0.018007
   vertex 0.026062 0.110821 0.020266
  endloop
 endfacet
 facet normal -0.0161962 0.937175 -0.348485
  outer loop
   vertex 0.026062 0.110821 0.020266
   vertex 0.024384 0.109952 0.018007
   vertex 0.023128 0.110864 0.020518
  endloop
 endfacet
 facet normal -0.138975 0.90647 -0.398746
  outer loop
   vertex 0.024384 0.109952 0.018007
   vertex 0.021916 0.109816 0.018558
   vertex 0.023128 0.110864 0.020518
  endloop
 endfacet
 facet normal -0.771063 0.560215 0.302688
  outer loop
   vertex 0.017808 0.108127 0.025542
   vertex 0.016073 0.105739 0.025542
   vertex 0.017444 0.106567 0.027502
  endloop
 endfacet
 facet normal -0.704936 0.704936 0.0782949
  outer loop
   vertex 0.018802 0.1094 0.02303
   vertex 0.01659 0.107188 0.02303
   vertex 0.017808 0.108127 0.025542
  endloop
 endfacet
 facet normal -0.578519 0.796783 -0.174509
  outer loop
   vertex 0.02032 0.109952 0.020518
   vertex 0.017972 0.108192 0.020266
   vertex 0.018802 0.1094 0.02303
  endloop
 endfacet
 facet normal -0.797233 0.579229 0.170037
  outer loop
   vertex 0.017808 0.108127 0.025542
   vertex 0.01659 0.107188 0.02303
   vertex 0.016073 0.105739 0.025542
  endloop
 endfacet
 facet normal -0.888212 0.452708 0.078331
  outer loop
   vertex 0.01659 0.107188 0.02303
   vertex 0.015169 0.1044 0.02303
   vertex 0.016073 0.105739 0.025542
  endloop
 endfacet
 facet normal -0.703824 0.703824 -0.0962537
  outer loop
   vertex 0.018802 0.1094 0.02303
   vertex 0.017972 0.108192 0.020266
   vertex 0.01659 0.107188 0.02303
  endloop
 endfacet
 facet normal -0.794662 0.577331 -0.18762
  outer loop
   vertex 0.017972 0.108192 0.020266
   vertex 0.016062 0.105563 0.020266
   vertex 0.01659 0.107188 0.02303
  endloop
 endfacet
 facet normal -0.886806 0.451991 -0.0963284
  outer loop
   vertex 0.01659 0.107188 0.02303
   vertex 0.016062 0.105563 0.020266
   vertex 0.015169 0.1044 0.02303
  endloop
 endfacet
 facet normal -0.93657 0.303801 -0.17476
  outer loop
   vertex 0.016062 0.105563 0.020266
   vertex 0.015114 0.102786 0.020519
   vertex 0.015169 0.1044 0.02303
  endloop
 endfacet
 facet normal -0.537986 0.767602 -0.348366
  outer loop
   vertex 0.02032 0.109952 0.020518
   vertex 0.01984 0.108476 0.018007
   vertex 0.017972 0.108192 0.020266
  endloop
 endfacet
 facet normal -0.629279 0.640767 -0.439803
  outer loop
   vertex 0.01984 0.108476 0.018007
   vertex 0.017798 0.10631 0.017773
   vertex 0.017972 0.108192 0.020266
  endloop
 endfacet
 facet normal -0.754436 0.548107 -0.361117
  outer loop
   vertex 0.017972 0.108192 0.020266
   vertex 0.017798 0.10631 0.017773
   vertex 0.016062 0.105563 0.020266
  endloop
 endfacet
 facet normal -0.803858 0.400541 -0.439749
  outer loop
   vertex 0.017798 0.10631 0.017773
   vertex 0.016369 0.103699 0.018007
   vertex 0.016062 0.105563 0.020266
  endloop
 endfacet
 facet normal -0.89641 0.274294 -0.348155
  outer loop
   vertex 0.016062 0.105563 0.020266
   vertex 0.016369 0.103699 0.018007
   vertex 0.015114 0.102786 0.020519
  endloop
 endfacet
 facet normal -0.905177 0.147939 -0.398459
  outer loop
   vertex 0.016369 0.103699 0.018007
   vertex 0.015736 0.10131 0.018558
   vertex 0.015114 0.102786 0.020519
  endloop
 endfacet
 facet normal -0.771063 -0.560215 0.302688
  outer loop
   vertex 0.016073 0.096881 0.025542
   vertex 0.017808 0.094493 0.025542
   vertex 0.017444 0.096053 0.027502
  endloop
 endfacet
 facet normal -0.888212 -0.452708 0.078331
  outer loop
   vertex 0.015169 0.09822 0.02303
   vertex 0.01659 0.095432 0.02303
   vertex 0.016073 0.096881 0.025542
  endloop
 endfacet
 facet normal -0.93657 -0.303801 -0.17476
  outer loop
   vertex 0.015114 0.099834 0.020519
   vertex 0.016062 0.097057 0.020266
   vertex 0.015169 0.09822 0.02303
  endloop
 endfacet
 facet normal -0.797233 -0.579229 0.170037
  outer loop
   vertex 0.016073 0.096881 0.025542
   vertex 0.01659 0.095432 0.02303
   vertex 0.017808 0.094493 0.025542
  endloop
 endfacet
 facet normal -0.704936 -0.704936 0.0782949
  outer loop
   vertex 0.01659 0.095432 0.02303
   vertex 0.018802 0.09322 0.02303
   vertex 0.017808 0.094493 0.025542
  endloop
 endfacet
 facet normal -0.886806 -0.451991 -0.0963284
  outer loop
   vertex 0.015169 0.09822 0.02303
   vertex 0.016062 0.097057 0.020266
   vertex 0.01659 0.095432 0.02303
  endloop
 endfacet
 facet normal -0.794662 -0.577331 -0.18762
  outer loop
   vertex 0.016062 0.097057 0.020266
   vertex 0.017972 0.094428 0.020266
   vertex 0.01659 0.095432 0.02303
  endloop
 endfacet
 facet normal -0.703824 -0.703824 -0.0962537
  outer loop
   vertex 0.01659 0.095432 0.02303
   vertex 0.017972 0.094428 0.020266
   vertex 0.018802 0.09322 0.02303
  endloop
 endfacet
 facet normal -0.578519 -0.796783 -0.174509
  outer loop
   vertex 0.017972 0.094428 0.020266
   vertex 0.02032 0.092668 0.020518
   vertex 0.018802 0.09322 0.02303
  endloop
 endfacet
 facet normal -0.89641 -0.274294 -0.348155
  outer loop
   vertex 0.015114 0.099834 0.020519
   vertex 0.016369 0.098921 0.018007
   vertex 0.016062 0.097057 0.020266
  endloop
 endfacet
 facet normal -0.803858 -0.400541 -0.439749
  outer loop
   vertex 0.016369 0.098921 0.018007
   vertex 0.017798 0.09631 0.017773
   vertex 0.016062 0.097057 0.020266
  endloop
 endfacet
 facet normal -0.754436 -0.548107 -0.361117
  outer loop
   vertex 0.016062 0.097057 0.020266
   vertex 0.017798 0.09631 0.017773
   vertex 0.017972 0.094428 0.020266
  endloop
 endfacet
 facet normal -0.629279 -0.640767 -0.439803
  outer loop
   vertex 0.017798 0.09631 0.017773
   vertex 0.01984 0.094144 0.018007
   vertex 0.017972 0.094428 0.020266
  endloop
 endfacet
 facet normal -0.537986 -0.767602 -0.348366
  outer loop
   vertex 0.017972 0.094428 0.020266
   vertex 0.01984 0.094144 0.018007
   vertex 0.02032 0.092668 0.020518
  endloop
 endfacet
 facet normal -0.420269 -0.815078 -0.398776
  outer loop
   vertex 0.01984 0.094144 0.018007
   vertex 0.021916 0.092804 0.018558
   vertex 0.02032 0.092668 0.020518
  endloop
 endfacet
 facet normal 0.294416 -0.906493 0.302638
  outer loop
   vertex 0.026232 0.091756 0.025542
   vertex 0.02904 0.092668 0.025542
   vertex 0.027444 0.092804 0.027502
  endloop
 endfacet
 facet normal 0.155824 -0.984657 0.07855
  outer loop
   vertex 0.02468 0.09131 0.02303
   vertex 0.02777 0.091799 0.02303
   vertex 0.026232 0.091756 0.025542
  endloop
 endfacet
 facet normal -0.000555151 -0.98466 -0.174481
  outer loop
   vertex 0.023128 0.091756 0.020518
   vertex 0.026062 0.091799 0.020266
   vertex 0.02468 0.09131 0.02303
  endloop
 endfacet
 facet normal 0.304389 -0.937197 0.170322
  outer loop
   vertex 0.026232 0.091756 0.025542
   vertex 0.02777 0.091799 0.02303
   vertex 0.02904 0.092668 0.025542
  endloop
 endfacet
 facet normal 0.452705 -0.888208 0.0783901
  outer loop
   vertex 0.02777 0.091799 0.02303
   vertex 0.030558 0.09322 0.02303
   vertex 0.02904 0.092668 0.025542
  endloop
 endfacet
 facet normal 0.155583 -0.983133 -0.0961419
  outer loop
   vertex 0.02468 0.09131 0.02303
   vertex 0.026062 0.091799 0.020266
   vertex 0.02777 0.091799 0.02303
  endloop
 endfacet
 facet normal 0.303796 -0.934059 -0.187729
  outer loop
   vertex 0.026062 0.091799 0.020266
   vertex 0.029152 0.092804 0.020266
   vertex 0.02777 0.091799 0.02303
  endloop
 endfacet
 facet normal 0.451986 -0.886796 -0.0964489
  outer loop
   vertex 0.02777 0.091799 0.02303
   vertex 0.029152 0.092804 0.020266
   vertex 0.030558 0.09322 0.02303
  endloop
 endfacet
 facet normal 0.578874 -0.796508 -0.174584
  outer loop
   vertex 0.029152 0.092804 0.020266
   vertex 0.031552 0.094493 0.020518
   vertex 0.030558 0.09322 0.02303
  endloop
 endfacet
 facet normal -0.0161962 -0.937175 -0.348485
  outer loop
   vertex 0.023128 0.091756 0.020518
   vertex 0.024384 0.092668 0.018007
   vertex 0.026062 0.091799 0.020266
  endloop
 endfacet
 facet normal 0.132412 -0.888171 -0.440021
  outer loop
   vertex 0.024384 0.092668 0.018007
   vertex 0.027309 0.09322 0.017773
   vertex 0.026062 0.091799 0.020266
  endloop
 endfacet
 facet normal 0.288415 -0.886769 -0.361189
  outer loop
   vertex 0.026062 0.091799 0.020266
   vertex 0.027309 0.09322 0.017773
   vertex 0.029152 0.092804 0.020266
  endloop
 endfacet
 facet normal 0.415138 -0.796394 -0.439791
  outer loop
   vertex 0.027309 0.09322 0.017773
   vertex 0.029999 0.094493 0.018007
   vertex 0.029152 0.092804 0.020266
  endloop
 endfacet
 facet normal 0.563623 -0.748876 -0.348589
  outer loop
   vertex 0.029152 0.092804 0.020266
   vertex 0.029999 0.094493 0.018007
   vertex 0.031552 0.094493 0.020518
  endloop
 endfacet
 facet normal 0.645038 -0.651744 -0.398942
  outer loop
   vertex 0.029999 0.094493 0.018007
   vertex 0.031916 0.096053 0.018558
   vertex 0.031552 0.094493 0.020518
  endloop
 endfacet
 facet normal 0.9532 -0 0.302341
  outer loop
   vertex 0.034246 0.099834 0.025541
   vertex 0.034246 0.102786 0.025541
   vertex 0.033624 0.10131 0.027502
  endloop
 endfacet
 facet normal 0.984653 -0.155824 0.0785916
  outer loop
   vertex 0.034191 0.09822 0.02303
   vertex 0.03468 0.10131 0.02303
   vertex 0.034246 0.099834 0.025541
  endloop
 endfacet
 facet normal 0.936352 -0.304548 -0.174631
  outer loop
   vertex 0.033287 0.096881 0.020518
   vertex 0.034152 0.099685 0.020266
   vertex 0.034191 0.09822 0.02303
  endloop
 endfacet
 facet normal 0.98539 -0 0.170314
  outer loop
   vertex 0.034246 0.099834 0.025541
   vertex 0.03468 0.10131 0.02303
   vertex 0.034246 0.102786 0.025541
  endloop
 endfacet
 facet normal 0.984653 0.155824 0.0785916
  outer loop
   vertex 0.03468 0.10131 0.02303
   vertex 0.034191 0.1044 0.02303
   vertex 0.034246 0.102786 0.025541
  endloop
 endfacet
 facet normal 0.983115 -0.15558 -0.0963335
  outer loop
   vertex 0.034191 0.09822 0.02303
   vertex 0.034152 0.099685 0.020266
   vertex 0.03468 0.10131 0.02303
  endloop
 endfacet
 facet normal 0.982239 0 -0.187634
  outer loop
   vertex 0.034152 0.099685 0.020266
   vertex 0.034152 0.102935 0.020266
   vertex 0.03468 0.10131 0.02303
  endloop
 endfacet
 facet normal 0.983115 0.15558 -0.0963335
  outer loop
   vertex 0.03468 0.10131 0.02303
   vertex 0.034152 0.102935 0.020266
   vertex 0.034191 0.1044 0.02303
  endloop
 endfacet
 facet normal 0.936352 0.304548 -0.174631
  outer loop
   vertex 0.034152 0.102935 0.020266
   vertex 0.033287 0.105739 0.020518
   vertex 0.034191 0.1044 0.02303
  endloop
 endfacet
 facet normal 0.886309 -0.304753 -0.348685
  outer loop
   vertex 0.033287 0.096881 0.020518
   vertex 0.032807 0.098358 0.018007
   vertex 0.034152 0.099685 0.020266
  endloop
 endfacet
 facet normal 0.885615 -0.148581 -0.440011
  outer loop
   vertex 0.032807 0.098358 0.018007
   vertex 0.033186 0.10131 0.017773
   vertex 0.034152 0.099685 0.020266
  endloop
 endfacet
 facet normal 0.932446 0 -0.361309
  outer loop
   vertex 0.034152 0.099685 0.020266
   vertex 0.033186 0.10131 0.017773
   vertex 0.034152 0.102935 0.020266
  endloop
 endfacet
 facet normal 0.885615 0.148581 -0.440011
  outer loop
   vertex 0.033186 0.10131 0.017773
   vertex 0.032807 0.104262 0.018007
   vertex 0.034152 0.102935 0.020266
  endloop
 endfacet
 facet normal 0.886309 0.304753 -0.348685
  outer loop
   vertex 0.034152 0.102935 0.020266
   vertex 0.032807 0.104262 0.018007
   vertex 0.033287 0.105739 0.020518
  endloop
 endfacet
 facet normal 0.819189 0.412026 -0.398954
  outer loop
   vertex 0.032807 0.104262 0.018007
   vertex 0.031916 0.106567 0.018558
   vertex 0.033287 0.105739 0.020518
  endloop
 endfacet
 facet normal 0.61533 0.560308 -0.554459
  outer loop
   vertex 0.030775 0.105739 0.016455
   vertex 0.029999 0.108127 0.018007
   vertex 0.031916 0.106567 0.018558
  endloop
 endfacet
 facet normal 0.467426 0.452641 -0.759361
  outer loop
   vertex 0.028933 0.1044 0.014523
   vertex 0.028298 0.107188 0.015794
   vertex 0.030775 0.105739 0.016455
  endloop
 endfacet
 facet normal 0.262485 0.303841 -0.915851
  outer loop
   vertex 0.026712 0.102786 0.013351
   vertex 0.026062 0.105563 0.014086
   vertex 0.028933 0.1044 0.014523
  endloop
 endfacet
 facet normal 0.508799 0.579247 -0.636864
  outer loop
   vertex 0.030775 0.105739 0.016455
   vertex 0.028298 0.107188 0.015794
   vertex 0.029999 0.108127 0.018007
  endloop
 endfacet
 facet normal 0.38541 0.704977 -0.595371
  outer loop
   vertex 0.028298 0.107188 0.015794
   vertex 0.027309 0.1094 0.017773
   vertex 0.029999 0.108127 0.018007
  endloop
 endfacet
 facet normal 0.310374 0.451949 -0.836307
  outer loop
   vertex 0.028933 0.1044 0.014523
   vertex 0.026062 0.105563 0.014086
   vertex 0.028298 0.107188 0.015794
  endloop
 endfacet
 facet normal 0.187559 0.577248 -0.794737
  outer loop
   vertex 0.026062 0.105563 0.014086
   vertex 0.025208 0.108192 0.015794
   vertex 0.028298 0.107188 0.015794
  endloop
 endfacet
 facet normal 0.228709 0.703897 -0.672474
  outer loop
   vertex 0.028298 0.107188 0.015794
   vertex 0.025208 0.108192 0.015794
   vertex 0.027309 0.1094 0.017773
  endloop
 endfacet
 facet normal 0.102735 0.796801 -0.595444
  outer loop
   vertex 0.025208 0.108192 0.015794
   vertex 0.024384 0.109952 0.018007
   vertex 0.027309 0.1094 0.017773
  endloop
 endfacet
 facet normal 0.0891868 0.274301 -0.957499
  outer loop
   vertex 0.026712 0.102786 0.013351
   vertex 0.023904 0.103699 0.013351
   vertex 0.026062 0.105563 0.014086
  endloop
 endfacet
 facet normal -0.0336945 0.400135 -0.915836
  outer loop
   vertex 0.023904 0.103699 0.013351
   vertex 0.023055 0.10631 0.014523
   vertex 0.026062 0.105563 0.014086
  endloop
 endfacet
 facet normal 0.0146149 0.548074 -0.836302
  outer loop
   vertex 0.026062 0.105563 0.014086
   vertex 0.023055 0.10631 0.014523
   vertex 0.025208 0.108192 0.015794
  endloop
 endfacet
 facet normal -0.112009 0.640965 -0.759354
  outer loop
   vertex 0.023055 0.10631 0.014523
   vertex 0.022352 0.108476 0.016455
   vertex 0.025208 0.108192 0.015794
  endloop
 endfacet
 facet normal -0.0710868 0.767617 -0.636955
  outer loop
   vertex 0.025208 0.108192 0.015794
   vertex 0.022352 0.108476 0.016455
   vertex 0.024384 0.109952 0.018007
  endloop
 endfacet
 facet normal -0.168666 0.815046 -0.554303
  outer loop
   vertex 0.022352 0.108476 0.016455
   vertex 0.021916 0.109816 0.018558
   vertex 0.024384 0.109952 0.018007
  endloop
 endfacet
 facet normal -0.342493 0.758552 -0.554344
  outer loop
   vertex 0.022352 0.108476 0.016455
   vertex 0.01984 0.108476 0.018007
   vertex 0.021916 0.109816 0.018558
  endloop
 endfacet
 facet normal -0.286233 0.584386 -0.759318
  outer loop
   vertex 0.023055 0.10631 0.014523
   vertex 0.020208 0.106567 0.015794
   vertex 0.022352 0.108476 0.016455
  endloop
 endfacet
 facet normal -0.207851 0.343516 -0.915858
  outer loop
   vertex 0.023904 0.103699 0.013351
   vertex 0.021062 0.103939 0.014086
   vertex 0.023055 0.10631 0.014523
  endloop
 endfacet
 facet normal -0.393627 0.662685 -0.637108
  outer loop
   vertex 0.022352 0.108476 0.016455
   vertex 0.020208 0.106567 0.015794
   vertex 0.01984 0.108476 0.018007
  endloop
 endfacet
 facet normal -0.551379 0.584158 -0.595601
  outer loop
   vertex 0.020208 0.106567 0.015794
   vertex 0.017798 0.10631 0.017773
   vertex 0.01984 0.108476 0.018007
  endloop
 endfacet
 facet normal -0.334054 0.43492 -0.836213
  outer loop
   vertex 0.023055 0.10631 0.014523
   vertex 0.021062 0.103939 0.014086
   vertex 0.020208 0.106567 0.015794
  endloop
 endfacet
 facet normal -0.491058 0.356895 -0.794662
  outer loop
   vertex 0.021062 0.103939 0.014086
   vertex 0.018298 0.103939 0.015794
   vertex 0.020208 0.106567 0.015794
  endloop
 endfacet
 facet normal -0.598657 0.435097 -0.672533
  outer loop
   vertex 0.020208 0.106567 0.015794
   vertex 0.018298 0.103939 0.015794
   vertex 0.017798 0.10631 0.017773
  endloop
 endfacet
 facet normal -0.725985 0.343961 -0.595514
  outer loop
   vertex 0.018298 0.103939 0.015794
   vertex 0.016369 0.103699 0.018007
   vertex 0.017798 0.10631 0.017773
  endloop
 endfacet
 facet normal -0.233325 0.169451 -0.957521
  outer loop
   vertex 0.023904 0.103699 0.013351
   vertex 0.022169 0.10131 0.013351
   vertex 0.021062 0.103939 0.014086
  endloop
 endfacet
 facet normal -0.390899 0.0914587 -0.915878
  outer loop
   vertex 0.022169 0.10131 0.013351
   vertex 0.019423 0.10131 0.014523
   vertex 0.021062 0.103939 0.014086
  endloop
 endfacet
 facet normal -0.516783 0.183167 -0.836293
  outer loop
   vertex 0.021062 0.103939 0.014086
   vertex 0.019423 0.10131 0.014523
   vertex 0.018298 0.103939 0.015794
  endloop
 endfacet
 facet normal -0.644269 0.0913996 -0.759317
  outer loop
   vertex 0.019423 0.10131 0.014523
   vertex 0.017146 0.10131 0.016455
   vertex 0.018298 0.103939 0.015794
  endloop
 endfacet
 facet normal -0.751958 0.169318 -0.637095
  outer loop
   vertex 0.018298 0.103939 0.015794
   vertex 0.017146 0.10131 0.016455
   vertex 0.016369 0.103699 0.018007
  endloop
 endfacet
 facet normal -0.827124 0.091254 -0.554562
  outer loop
   vertex 0.017146 0.10131 0.016455
   vertex 0.015736 0.10131 0.018558
   vertex 0.016369 0.103699 0.018007
  endloop
 endfacet
 facet normal -0.827124 -0.091254 -0.554562
  outer loop
   vertex 0.017146 0.10131 0.016455
   vertex 0.016369 0.098921 0.018007
   vertex 0.015736 0.10131 0.018558
  endloop
 endfacet
 facet normal -0.644269 -0.0913996 -0.759317
  outer loop
   vertex 0.019423 0.10131 0.014523
   vertex 0.018298 0.098681 0.015794
   vertex 0.017146 0.10131 0.016455
  endloop
 endfacet
 facet normal -0.390899 -0.0914587 -0.915878
  outer loop
   vertex 0.022169 0.10131 0.013351
   vertex 0.021062 0.098681 0.014086
   vertex 0.019423 0.10131 0.014523
  endloop
 endfacet
 facet normal -0.751958 -0.169318 -0.637095
  outer loop
   vertex 0.017146 0.10131 0.016455
   vertex 0.018298 0.098681 0.015794
   vertex 0.016369 0.098921 0.018007
  endloop
 endfacet
 facet normal -0.725985 -0.343961 -0.595514
  outer loop
   vertex 0.018298 0.098681 0.015794
   vertex 0.017798 0.09631 0.017773
   vertex 0.016369 0.098921 0.018007
  endloop
 endfacet
 facet normal -0.516783 -0.183167 -0.836293
  outer loop
   vertex 0.019423 0.10131 0.014523
   vertex 0.021062 0.098681 0.014086
   vertex 0.018298 0.098681 0.015794
  endloop
 endfacet
 facet normal -0.491058 -0.356895 -0.794662
  outer loop
   vertex 0.021062 0.098681 0.014086
   vertex 0.020208 0.096053 0.015794
   vertex 0.018298 0.098681 0.015794
  endloop
 endfacet
 facet normal -0.598657 -0.435097 -0.672533
  outer loop
   vertex 0.018298 0.098681 0.015794
   vertex 0.020208 0.096053 0.015794
   vertex 0.017798 0.09631 0.017773
  endloop
 endfacet
 facet normal -0.551379 -0.584158 -0.595601
  outer loop
   vertex 0.020208 0.096053 0.015794
   vertex 0.01984 0.094144 0.018007
   vertex 0.017798 0.09631 0.017773
  endloop
 endfacet
 facet normal -0.233325 -0.169451 -0.957521
  outer loop
   vertex 0.022169 0.10131 0.013351
   vertex 0.023904 0.098921 0.013351
   vertex 0.021062 0.098681 0.014086
  endloop
 endfacet
 facet normal -0.207851 -0.343516 -0.915858
  outer loop
   vertex 0.023904 0.098921 0.013351
   vertex 0.023055 0.09631 0.014523
   vertex 0.021062 0.098681 0.014086
  endloop
 endfacet
 facet normal -0.334054 -0.43492 -0.836213
  outer loop
   vertex 0.021062 0.098681 0.014086
   vertex 0.023055 0.09631 0.014523
   vertex 0.020208 0.096053 0.015794
  endloop
 endfacet
 facet normal -0.286233 -0.584386 -0.759318
  outer loop
   vertex 0.023055 0.09631 0.014523
   vertex 0.022352 0.094144 0.016455
   vertex 0.020208 0.096053 0.015794
  endloop
 endfacet
 facet normal -0.393627 -0.662685 -0.637108
  outer loop
   vertex 0.020208 0.096053 0.015794
   vertex 0.022352 0.094144 0.016455
   vertex 0.01984 0.094144 0.018007
  endloop
 endfacet
 facet normal -0.342493 -0.758552 -0.554344
  outer loop
   vertex 0.022352 0.094144 0.016455
   vertex 0.021916 0.092804 0.018558
   vertex 0.01984 0.094144 0.018007
  endloop
 endfacet
 facet normal 0.723015 0.412034 -0.554506
  outer loop
   vertex 0.032807 0.104262 0.018007
   vertex 0.030775 0.105739 0.016455
   vertex 0.031916 0.106567 0.018558
  endloop
 endfacet
 facet normal 0.789589 0.148568 -0.59538
  outer loop
   vertex 0.033186 0.10131 0.017773
   vertex 0.031388 0.102935 0.015794
   vertex 0.032807 0.104262 0.018007
  endloop
 endfacet
 facet normal 0.789589 -0.148568 -0.59538
  outer loop
   vertex 0.032807 0.098358 0.018007
   vertex 0.031388 0.099685 0.015794
   vertex 0.033186 0.10131 0.017773
  endloop
 endfacet
 facet normal 0.708089 0.304936 -0.636886
  outer loop
   vertex 0.032807 0.104262 0.018007
   vertex 0.031388 0.102935 0.015794
   vertex 0.030775 0.105739 0.016455
  endloop
 endfacet
 facet normal 0.574948 0.304695 -0.759339
  outer loop
   vertex 0.031388 0.102935 0.015794
   vertex 0.028933 0.1044 0.014523
   vertex 0.030775 0.105739 0.016455
  endloop
 endfacet
 facet normal 0.740143 0 -0.672449
  outer loop
   vertex 0.033186 0.10131 0.017773
   vertex 0.031388 0.099685 0.015794
   vertex 0.031388 0.102935 0.015794
  endloop
 endfacet
 facet normal 0.607028 0 -0.794681
  outer loop
   vertex 0.031388 0.099685 0.015794
   vertex 0.029152 0.10131 0.014086
   vertex 0.031388 0.102935 0.015794
  endloop
 endfacet
 facet normal 0.525774 0.155534 -0.836284
  outer loop
   vertex 0.031388 0.102935 0.015794
   vertex 0.029152 0.10131 0.014086
   vertex 0.028933 0.1044 0.014523
  endloop
 endfacet
 facet normal 0.370096 0.155752 -0.915844
  outer loop
   vertex 0.029152 0.10131 0.014086
   vertex 0.026712 0.102786 0.013351
   vertex 0.028933 0.1044 0.014523
  endloop
 endfacet
 facet normal 0.708089 -0.304936 -0.636886
  outer loop
   vertex 0.032807 0.098358 0.018007
   vertex 0.030775 0.096881 0.016455
   vertex 0.031388 0.099685 0.015794
  endloop
 endfacet
 facet normal 0.574948 -0.304695 -0.759339
  outer loop
   vertex 0.030775 0.096881 0.016455
   vertex 0.028933 0.09822 0.014523
   vertex 0.031388 0.099685 0.015794
  endloop
 endfacet
 facet normal 0.525774 -0.155534 -0.836284
  outer loop
   vertex 0.031388 0.099685 0.015794
   vertex 0.028933 0.09822 0.014523
   vertex 0.029152 0.10131 0.014086
  endloop
 endfacet
 facet normal 0.370096 -0.155752 -0.915844
  outer loop
   vertex 0.028933 0.09822 0.014523
   vertex 0.026712 0.099834 0.013351
   vertex 0.029152 0.10131 0.014086
  endloop
 endfacet
 facet normal 0.288428 0 -0.957502
  outer loop
   vertex 0.029152 0.10131 0.014086
   vertex 0.026712 0.099834 0.013351
   vertex 0.026712 0.102786 0.013351
  endloop
 endfacet
 facet normal 0.156037 0 -0.987751
  outer loop
   vertex 0.026712 0.099834 0.013351
   vertex 0.02468 0.10131 0.01303
   vertex 0.026712 0.102786 0.013351
  endloop
 endfacet
 facet normal -0.168666 -0.815046 -0.554303
  outer loop
   vertex 0.022352 0.094144 0.016455
   vertex 0.024384 0.092668 0.018007
   vertex 0.021916 0.092804 0.018558
  endloop
 endfacet
 facet normal -0.112009 -0.640965 -0.759354
  outer loop
   vertex 0.023055 0.09631 0.014523
   vertex 0.025208 0.094428 0.015794
   vertex 0.022352 0.094144 0.016455
  endloop
 endfacet
 facet normal -0.0336945 -0.400135 -0.915836
  outer loop
   vertex 0.023904 0.098921 0.013351
   vertex 0.026062 0.097057 0.014086
   vertex 0.023055 0.09631 0.014523
  endloop
 endfacet
 facet normal -0.0710868 -0.767617 -0.636955
  outer loop
   vertex 0.022352 0.094144 0.016455
   vertex 0.025208 0.094428 0.015794
   vertex 0.024384 0.092668 0.018007
  endloop
 endfacet
 facet normal 0.102735 -0.796801 -0.595444
  outer loop
   vertex 0.025208 0.094428 0.015794
   vertex 0.027309 0.09322 0.017773
   vertex 0.024384 0.092668 0.018007
  endloop
 endfacet
 facet normal 0.0146149 -0.548074 -0.836302
  outer loop
   vertex 0.023055 0.09631 0.014523
   vertex 0.026062 0.097057 0.014086
   vertex 0.025208 0.094428 0.015794
  endloop
 endfacet
 facet normal 0.187559 -0.577248 -0.794737
  outer loop
   vertex 0.026062 0.097057 0.014086
   vertex 0.028298 0.095432 0.015794
   vertex 0.025208 0.094428 0.015794
  endloop
 endfacet
 facet normal 0.228709 -0.703897 -0.672474
  outer loop
   vertex 0.025208 0.094428 0.015794
   vertex 0.028298 0.095432 0.015794
   vertex 0.027309 0.09322 0.017773
  endloop
 endfacet
 facet normal 0.38541 -0.704977 -0.595371
  outer loop
   vertex 0.028298 0.095432 0.015794
   vertex 0.029999 0.094493 0.018007
   vertex 0.027309 0.09322 0.017773
  endloop
 endfacet
 facet normal 0.0891868 -0.274301 -0.957499
  outer loop
   vertex 0.023904 0.098921 0.013351
   vertex 0.026712 0.099834 0.013351
   vertex 0.026062 0.097057 0.014086
  endloop
 endfacet
 facet normal 0.262485 -0.303841 -0.915851
  outer loop
   vertex 0.026712 0.099834 0.013351
   vertex 0.028933 0.09822 0.014523
   vertex 0.026062 0.097057 0.014086
  endloop
 endfacet
 facet normal 0.310374 -0.451949 -0.836307
  outer loop
   vertex 0.026062 0.097057 0.014086
   vertex 0.028933 0.09822 0.014523
   vertex 0.028298 0.095432 0.015794
  endloop
 endfacet
 facet normal 0.467426 -0.452641 -0.759361
  outer loop
   vertex 0.028933 0.09822 0.014523
   vertex 0.030775 0.096881 0.016455
   vertex 0.028298 0.095432 0.015794
  endloop
 endfacet
 facet normal 0.508799 -0.579247 -0.636864
  outer loop
   vertex 0.028298 0.095432 0.015794
   vertex 0.030775 0.096881 0.016455
   vertex 0.029999 0.094493 0.018007
  endloop
 endfacet
 facet normal 0.61533 -0.560308 -0.554459
  outer loop
   vertex 0.030775 0.096881 0.016455
   vertex 0.031916 0.096053 0.018558
   vertex 0.029999 0.094493 0.018007
  endloop
 endfacet
endsolid ExportedfromBlender-3.5.1
