solid ExportedfromBlender-3.5.1
 facet normal 0.0482486 -0.148392 -0.987751
  outer loop
   vertex 0.02534 0.32632 -0.00092
   vertex 0.027372 0.324844 -0.000599
   vertex 0.024564 0.323931 -0.000599
  endloop
 endfacet
 facet normal 0.723015 -0.412034 -0.554506
  outer loop
   vertex 0.032576 0.321063 0.004608
   vertex 0.031435 0.321891 0.002505
   vertex 0.033467 0.323368 0.004057
  endloop
 endfacet
 facet normal -0.126271 -0.0917039 -0.987748
  outer loop
   vertex 0.02534 0.32632 -0.00092
   vertex 0.024564 0.323931 -0.000599
   vertex 0.022829 0.32632 -0.000599
  endloop
 endfacet
 facet normal -0.126271 0.0917039 -0.987748
  outer loop
   vertex 0.02534 0.32632 -0.00092
   vertex 0.022829 0.32632 -0.000599
   vertex 0.024564 0.328709 -0.000599
  endloop
 endfacet
 facet normal 0.0482486 0.148392 -0.987751
  outer loop
   vertex 0.02534 0.32632 -0.00092
   vertex 0.024564 0.328709 -0.000599
   vertex 0.027372 0.327796 -0.000599
  endloop
 endfacet
 facet normal 0.819189 -0.412026 -0.398954
  outer loop
   vertex 0.032576 0.321063 0.004608
   vertex 0.033467 0.323368 0.004057
   vertex 0.033947 0.321891 0.006568
  endloop
 endfacet
 facet normal -0.138975 -0.90647 -0.398746
  outer loop
   vertex 0.022576 0.317814 0.004608
   vertex 0.025044 0.317678 0.004057
   vertex 0.023788 0.316766 0.006568
  endloop
 endfacet
 facet normal -0.905177 -0.147939 -0.398459
  outer loop
   vertex 0.016396 0.32632 0.004608
   vertex 0.017029 0.323931 0.004057
   vertex 0.015774 0.324844 0.006569
  endloop
 endfacet
 facet normal -0.420269 0.815078 -0.398776
  outer loop
   vertex 0.022576 0.334826 0.004608
   vertex 0.0205 0.333486 0.004057
   vertex 0.02098 0.334962 0.006568
  endloop
 endfacet
 facet normal 0.645038 0.651744 -0.398942
  outer loop
   vertex 0.032576 0.331577 0.004608
   vertex 0.030659 0.333137 0.004057
   vertex 0.032212 0.333137 0.006568
  endloop
 endfacet
 facet normal 0.771063 -0.560215 -0.302688
  outer loop
   vertex 0.032576 0.321063 0.004608
   vertex 0.033947 0.321891 0.006568
   vertex 0.032212 0.319503 0.006568
  endloop
 endfacet
 facet normal -0.294416 -0.906493 -0.302638
  outer loop
   vertex 0.022576 0.317814 0.004608
   vertex 0.023788 0.316766 0.006568
   vertex 0.02098 0.317678 0.006568
  endloop
 endfacet
 facet normal -0.9532 0 -0.302341
  outer loop
   vertex 0.016396 0.32632 0.004608
   vertex 0.015774 0.324844 0.006569
   vertex 0.015774 0.327796 0.006569
  endloop
 endfacet
 facet normal -0.294416 0.906493 -0.302638
  outer loop
   vertex 0.022576 0.334826 0.004608
   vertex 0.02098 0.334962 0.006568
   vertex 0.023788 0.335874 0.006568
  endloop
 endfacet
 facet normal 0.771063 0.560215 -0.302688
  outer loop
   vertex 0.032576 0.331577 0.004608
   vertex 0.032212 0.333137 0.006568
   vertex 0.033947 0.330749 0.006568
  endloop
 endfacet
 facet normal 0.342493 -0.758552 0.554344
  outer loop
   vertex 0.028104 0.317814 0.013552
   vertex 0.03018 0.319154 0.014103
   vertex 0.027668 0.319154 0.015655
  endloop
 endfacet
 facet normal -0.61533 -0.560308 0.554459
  outer loop
   vertex 0.018104 0.321063 0.013552
   vertex 0.020021 0.319503 0.014103
   vertex 0.019245 0.321891 0.015655
  endloop
 endfacet
 facet normal -0.723015 0.412034 0.554506
  outer loop
   vertex 0.018104 0.331577 0.013552
   vertex 0.017213 0.329272 0.014103
   vertex 0.019245 0.330749 0.015655
  endloop
 endfacet
 facet normal 0.168666 0.815046 0.554303
  outer loop
   vertex 0.028104 0.334826 0.013552
   vertex 0.025636 0.334962 0.014103
   vertex 0.027668 0.333486 0.015655
  endloop
 endfacet
 facet normal 0.827124 0.091254 0.554562
  outer loop
   vertex 0.034284 0.32632 0.013552
   vertex 0.033651 0.328709 0.014103
   vertex 0.032874 0.32632 0.015655
  endloop
 endfacet
 facet normal 0.126271 0.0917039 0.987748
  outer loop
   vertex 0.027851 0.32632 0.018759
   vertex 0.026116 0.328709 0.018759
   vertex 0.02534 0.32632 0.01908
  endloop
 endfacet
 facet normal 0.390899 0.0914587 0.915878
  outer loop
   vertex 0.030597 0.32632 0.017587
   vertex 0.028958 0.328949 0.018024
   vertex 0.027851 0.32632 0.018759
  endloop
 endfacet
 facet normal 0.644269 0.0913996 0.759317
  outer loop
   vertex 0.032874 0.32632 0.015655
   vertex 0.031722 0.328949 0.016316
   vertex 0.030597 0.32632 0.017587
  endloop
 endfacet
 facet normal 0.233325 0.169451 0.957521
  outer loop
   vertex 0.027851 0.32632 0.018759
   vertex 0.028958 0.328949 0.018024
   vertex 0.026116 0.328709 0.018759
  endloop
 endfacet
 facet normal 0.207851 0.343516 0.915858
  outer loop
   vertex 0.028958 0.328949 0.018024
   vertex 0.026965 0.33132 0.017587
   vertex 0.026116 0.328709 0.018759
  endloop
 endfacet
 facet normal 0.516783 0.183167 0.836293
  outer loop
   vertex 0.030597 0.32632 0.017587
   vertex 0.031722 0.328949 0.016316
   vertex 0.028958 0.328949 0.018024
  endloop
 endfacet
 facet normal 0.491058 0.356895 0.794662
  outer loop
   vertex 0.031722 0.328949 0.016316
   vertex 0.029812 0.331577 0.016316
   vertex 0.028958 0.328949 0.018024
  endloop
 endfacet
 facet normal 0.334054 0.43492 0.836213
  outer loop
   vertex 0.028958 0.328949 0.018024
   vertex 0.029812 0.331577 0.016316
   vertex 0.026965 0.33132 0.017587
  endloop
 endfacet
 facet normal 0.286233 0.584386 0.759318
  outer loop
   vertex 0.029812 0.331577 0.016316
   vertex 0.027668 0.333486 0.015655
   vertex 0.026965 0.33132 0.017587
  endloop
 endfacet
 facet normal 0.751958 0.169318 0.637095
  outer loop
   vertex 0.032874 0.32632 0.015655
   vertex 0.033651 0.328709 0.014103
   vertex 0.031722 0.328949 0.016316
  endloop
 endfacet
 facet normal 0.725985 0.343961 0.595514
  outer loop
   vertex 0.033651 0.328709 0.014103
   vertex 0.032222 0.33132 0.014337
   vertex 0.031722 0.328949 0.016316
  endloop
 endfacet
 facet normal 0.598657 0.435097 0.672533
  outer loop
   vertex 0.031722 0.328949 0.016316
   vertex 0.032222 0.33132 0.014337
   vertex 0.029812 0.331577 0.016316
  endloop
 endfacet
 facet normal 0.551379 0.584158 0.595601
  outer loop
   vertex 0.032222 0.33132 0.014337
   vertex 0.03018 0.333486 0.014103
   vertex 0.029812 0.331577 0.016316
  endloop
 endfacet
 facet normal 0.393627 0.662685 0.637108
  outer loop
   vertex 0.029812 0.331577 0.016316
   vertex 0.03018 0.333486 0.014103
   vertex 0.027668 0.333486 0.015655
  endloop
 endfacet
 facet normal 0.342493 0.758552 0.554344
  outer loop
   vertex 0.03018 0.333486 0.014103
   vertex 0.028104 0.334826 0.013552
   vertex 0.027668 0.333486 0.015655
  endloop
 endfacet
 facet normal -0.0482486 0.148392 0.987751
  outer loop
   vertex 0.026116 0.328709 0.018759
   vertex 0.023308 0.327796 0.018759
   vertex 0.02534 0.32632 0.01908
  endloop
 endfacet
 facet normal 0.0336945 0.400135 0.915836
  outer loop
   vertex 0.026965 0.33132 0.017587
   vertex 0.023958 0.330573 0.018024
   vertex 0.026116 0.328709 0.018759
  endloop
 endfacet
 facet normal 0.112009 0.640965 0.759354
  outer loop
   vertex 0.027668 0.333486 0.015655
   vertex 0.024812 0.333202 0.016316
   vertex 0.026965 0.33132 0.017587
  endloop
 endfacet
 facet normal -0.0891868 0.274301 0.957499
  outer loop
   vertex 0.026116 0.328709 0.018759
   vertex 0.023958 0.330573 0.018024
   vertex 0.023308 0.327796 0.018759
  endloop
 endfacet
 facet normal -0.262485 0.303841 0.915851
  outer loop
   vertex 0.023958 0.330573 0.018024
   vertex 0.021087 0.32941 0.017587
   vertex 0.023308 0.327796 0.018759
  endloop
 endfacet
 facet normal -0.0146149 0.548074 0.836302
  outer loop
   vertex 0.026965 0.33132 0.017587
   vertex 0.024812 0.333202 0.016316
   vertex 0.023958 0.330573 0.018024
  endloop
 endfacet
 facet normal -0.187559 0.577248 0.794737
  outer loop
   vertex 0.024812 0.333202 0.016316
   vertex 0.021722 0.332198 0.016316
   vertex 0.023958 0.330573 0.018024
  endloop
 endfacet
 facet normal -0.310374 0.451949 0.836307
  outer loop
   vertex 0.023958 0.330573 0.018024
   vertex 0.021722 0.332198 0.016316
   vertex 0.021087 0.32941 0.017587
  endloop
 endfacet
 facet normal -0.467426 0.452641 0.759361
  outer loop
   vertex 0.021722 0.332198 0.016316
   vertex 0.019245 0.330749 0.015655
   vertex 0.021087 0.32941 0.017587
  endloop
 endfacet
 facet normal 0.0710868 0.767617 0.636955
  outer loop
   vertex 0.027668 0.333486 0.015655
   vertex 0.025636 0.334962 0.014103
   vertex 0.024812 0.333202 0.016316
  endloop
 endfacet
 facet normal -0.102735 0.796801 0.595444
  outer loop
   vertex 0.025636 0.334962 0.014103
   vertex 0.022711 0.33441 0.014337
   vertex 0.024812 0.333202 0.016316
  endloop
 endfacet
 facet normal -0.228709 0.703897 0.672474
  outer loop
   vertex 0.024812 0.333202 0.016316
   vertex 0.022711 0.33441 0.014337
   vertex 0.021722 0.332198 0.016316
  endloop
 endfacet
 facet normal -0.38541 0.704977 0.595371
  outer loop
   vertex 0.022711 0.33441 0.014337
   vertex 0.020021 0.333137 0.014103
   vertex 0.021722 0.332198 0.016316
  endloop
 endfacet
 facet normal -0.508799 0.579247 0.636864
  outer loop
   vertex 0.021722 0.332198 0.016316
   vertex 0.020021 0.333137 0.014103
   vertex 0.019245 0.330749 0.015655
  endloop
 endfacet
 facet normal -0.61533 0.560308 0.554459
  outer loop
   vertex 0.020021 0.333137 0.014103
   vertex 0.018104 0.331577 0.013552
   vertex 0.019245 0.330749 0.015655
  endloop
 endfacet
 facet normal -0.156037 0 0.987751
  outer loop
   vertex 0.023308 0.327796 0.018759
   vertex 0.023308 0.324844 0.018759
   vertex 0.02534 0.32632 0.01908
  endloop
 endfacet
 facet normal -0.370096 0.155752 0.915844
  outer loop
   vertex 0.021087 0.32941 0.017587
   vertex 0.020868 0.32632 0.018024
   vertex 0.023308 0.327796 0.018759
  endloop
 endfacet
 facet normal -0.574948 0.304695 0.759339
  outer loop
   vertex 0.019245 0.330749 0.015655
   vertex 0.018632 0.327945 0.016316
   vertex 0.021087 0.32941 0.017587
  endloop
 endfacet
 facet normal -0.288428 0 0.957502
  outer loop
   vertex 0.023308 0.327796 0.018759
   vertex 0.020868 0.32632 0.018024
   vertex 0.023308 0.324844 0.018759
  endloop
 endfacet
 facet normal -0.370096 -0.155752 0.915844
  outer loop
   vertex 0.020868 0.32632 0.018024
   vertex 0.021087 0.32323 0.017587
   vertex 0.023308 0.324844 0.018759
  endloop
 endfacet
 facet normal -0.525774 0.155534 0.836284
  outer loop
   vertex 0.021087 0.32941 0.017587
   vertex 0.018632 0.327945 0.016316
   vertex 0.020868 0.32632 0.018024
  endloop
 endfacet
 facet normal -0.607028 0 0.794681
  outer loop
   vertex 0.018632 0.327945 0.016316
   vertex 0.018632 0.324695 0.016316
   vertex 0.020868 0.32632 0.018024
  endloop
 endfacet
 facet normal -0.525774 -0.155534 0.836284
  outer loop
   vertex 0.020868 0.32632 0.018024
   vertex 0.018632 0.324695 0.016316
   vertex 0.021087 0.32323 0.017587
  endloop
 endfacet
 facet normal -0.574948 -0.304695 0.759339
  outer loop
   vertex 0.018632 0.324695 0.016316
   vertex 0.019245 0.321891 0.015655
   vertex 0.021087 0.32323 0.017587
  endloop
 endfacet
 facet normal -0.708089 0.304936 0.636886
  outer loop
   vertex 0.019245 0.330749 0.015655
   vertex 0.017213 0.329272 0.014103
   vertex 0.018632 0.327945 0.016316
  endloop
 endfacet
 facet normal -0.789589 0.148568 0.59538
  outer loop
   vertex 0.017213 0.329272 0.014103
   vertex 0.016834 0.32632 0.014337
   vertex 0.018632 0.327945 0.016316
  endloop
 endfacet
 facet normal -0.740143 0 0.672449
  outer loop
   vertex 0.018632 0.327945 0.016316
   vertex 0.016834 0.32632 0.014337
   vertex 0.018632 0.324695 0.016316
  endloop
 endfacet
 facet normal -0.789589 -0.148568 0.59538
  outer loop
   vertex 0.016834 0.32632 0.014337
   vertex 0.017213 0.323368 0.014103
   vertex 0.018632 0.324695 0.016316
  endloop
 endfacet
 facet normal -0.708089 -0.304936 0.636886
  outer loop
   vertex 0.018632 0.324695 0.016316
   vertex 0.017213 0.323368 0.014103
   vertex 0.019245 0.321891 0.015655
  endloop
 endfacet
 facet normal -0.723015 -0.412034 0.554506
  outer loop
   vertex 0.017213 0.323368 0.014103
   vertex 0.018104 0.321063 0.013552
   vertex 0.019245 0.321891 0.015655
  endloop
 endfacet
 facet normal -0.0482486 -0.148392 0.987751
  outer loop
   vertex 0.023308 0.324844 0.018759
   vertex 0.026116 0.323931 0.018759
   vertex 0.02534 0.32632 0.01908
  endloop
 endfacet
 facet normal -0.262485 -0.303841 0.915851
  outer loop
   vertex 0.021087 0.32323 0.017587
   vertex 0.023958 0.322067 0.018024
   vertex 0.023308 0.324844 0.018759
  endloop
 endfacet
 facet normal -0.467426 -0.452641 0.759361
  outer loop
   vertex 0.019245 0.321891 0.015655
   vertex 0.021722 0.320442 0.016316
   vertex 0.021087 0.32323 0.017587
  endloop
 endfacet
 facet normal -0.0891868 -0.274301 0.957499
  outer loop
   vertex 0.023308 0.324844 0.018759
   vertex 0.023958 0.322067 0.018024
   vertex 0.026116 0.323931 0.018759
  endloop
 endfacet
 facet normal 0.0336945 -0.400135 0.915836
  outer loop
   vertex 0.023958 0.322067 0.018024
   vertex 0.026965 0.32132 0.017587
   vertex 0.026116 0.323931 0.018759
  endloop
 endfacet
 facet normal -0.310374 -0.451949 0.836307
  outer loop
   vertex 0.021087 0.32323 0.017587
   vertex 0.021722 0.320442 0.016316
   vertex 0.023958 0.322067 0.018024
  endloop
 endfacet
 facet normal -0.187559 -0.577248 0.794737
  outer loop
   vertex 0.021722 0.320442 0.016316
   vertex 0.024812 0.319438 0.016316
   vertex 0.023958 0.322067 0.018024
  endloop
 endfacet
 facet normal -0.0146149 -0.548074 0.836302
  outer loop
   vertex 0.023958 0.322067 0.018024
   vertex 0.024812 0.319438 0.016316
   vertex 0.026965 0.32132 0.017587
  endloop
 endfacet
 facet normal 0.112009 -0.640965 0.759354
  outer loop
   vertex 0.024812 0.319438 0.016316
   vertex 0.027668 0.319154 0.015655
   vertex 0.026965 0.32132 0.017587
  endloop
 endfacet
 facet normal -0.508799 -0.579247 0.636864
  outer loop
   vertex 0.019245 0.321891 0.015655
   vertex 0.020021 0.319503 0.014103
   vertex 0.021722 0.320442 0.016316
  endloop
 endfacet
 facet normal -0.38541 -0.704977 0.595371
  outer loop
   vertex 0.020021 0.319503 0.014103
   vertex 0.022711 0.31823 0.014337
   vertex 0.021722 0.320442 0.016316
  endloop
 endfacet
 facet normal -0.228709 -0.703897 0.672474
  outer loop
   vertex 0.021722 0.320442 0.016316
   vertex 0.022711 0.31823 0.014337
   vertex 0.024812 0.319438 0.016316
  endloop
 endfacet
 facet normal -0.102735 -0.796801 0.595444
  outer loop
   vertex 0.022711 0.31823 0.014337
   vertex 0.025636 0.317678 0.014103
   vertex 0.024812 0.319438 0.016316
  endloop
 endfacet
 facet normal 0.0710868 -0.767617 0.636955
  outer loop
   vertex 0.024812 0.319438 0.016316
   vertex 0.025636 0.317678 0.014103
   vertex 0.027668 0.319154 0.015655
  endloop
 endfacet
 facet normal 0.168666 -0.815046 0.554303
  outer loop
   vertex 0.025636 0.317678 0.014103
   vertex 0.028104 0.317814 0.013552
   vertex 0.027668 0.319154 0.015655
  endloop
 endfacet
 facet normal 0.126271 -0.0917039 0.987748
  outer loop
   vertex 0.026116 0.323931 0.018759
   vertex 0.027851 0.32632 0.018759
   vertex 0.02534 0.32632 0.01908
  endloop
 endfacet
 facet normal 0.207851 -0.343516 0.915858
  outer loop
   vertex 0.026965 0.32132 0.017587
   vertex 0.028958 0.323691 0.018024
   vertex 0.026116 0.323931 0.018759
  endloop
 endfacet
 facet normal 0.286233 -0.584386 0.759318
  outer loop
   vertex 0.027668 0.319154 0.015655
   vertex 0.029812 0.321063 0.016316
   vertex 0.026965 0.32132 0.017587
  endloop
 endfacet
 facet normal 0.233325 -0.169451 0.957521
  outer loop
   vertex 0.026116 0.323931 0.018759
   vertex 0.028958 0.323691 0.018024
   vertex 0.027851 0.32632 0.018759
  endloop
 endfacet
 facet normal 0.390899 -0.0914587 0.915878
  outer loop
   vertex 0.028958 0.323691 0.018024
   vertex 0.030597 0.32632 0.017587
   vertex 0.027851 0.32632 0.018759
  endloop
 endfacet
 facet normal 0.334054 -0.43492 0.836213
  outer loop
   vertex 0.026965 0.32132 0.017587
   vertex 0.029812 0.321063 0.016316
   vertex 0.028958 0.323691 0.018024
  endloop
 endfacet
 facet normal 0.491058 -0.356895 0.794662
  outer loop
   vertex 0.029812 0.321063 0.016316
   vertex 0.031722 0.323691 0.016316
   vertex 0.028958 0.323691 0.018024
  endloop
 endfacet
 facet normal 0.516783 -0.183167 0.836293
  outer loop
   vertex 0.028958 0.323691 0.018024
   vertex 0.031722 0.323691 0.016316
   vertex 0.030597 0.32632 0.017587
  endloop
 endfacet
 facet normal 0.644269 -0.0913996 0.759317
  outer loop
   vertex 0.031722 0.323691 0.016316
   vertex 0.032874 0.32632 0.015655
   vertex 0.030597 0.32632 0.017587
  endloop
 endfacet
 facet normal 0.393627 -0.662685 0.637108
  outer loop
   vertex 0.027668 0.319154 0.015655
   vertex 0.03018 0.319154 0.014103
   vertex 0.029812 0.321063 0.016316
  endloop
 endfacet
 facet normal 0.551379 -0.584158 0.595601
  outer loop
   vertex 0.03018 0.319154 0.014103
   vertex 0.032222 0.32132 0.014337
   vertex 0.029812 0.321063 0.016316
  endloop
 endfacet
 facet normal 0.598657 -0.435097 0.672533
  outer loop
   vertex 0.029812 0.321063 0.016316
   vertex 0.032222 0.32132 0.014337
   vertex 0.031722 0.323691 0.016316
  endloop
 endfacet
 facet normal 0.725985 -0.343961 0.595514
  outer loop
   vertex 0.032222 0.32132 0.014337
   vertex 0.033651 0.323931 0.014103
   vertex 0.031722 0.323691 0.016316
  endloop
 endfacet
 facet normal 0.751958 -0.169318 0.637095
  outer loop
   vertex 0.031722 0.323691 0.016316
   vertex 0.033651 0.323931 0.014103
   vertex 0.032874 0.32632 0.015655
  endloop
 endfacet
 facet normal 0.827124 -0.091254 0.554562
  outer loop
   vertex 0.033651 0.323931 0.014103
   vertex 0.034284 0.32632 0.013552
   vertex 0.032874 0.32632 0.015655
  endloop
 endfacet
 facet normal 0.905177 0.147939 0.398459
  outer loop
   vertex 0.034906 0.327796 0.011591
   vertex 0.033651 0.328709 0.014103
   vertex 0.034284 0.32632 0.013552
  endloop
 endfacet
 facet normal 0.93657 0.303801 0.17476
  outer loop
   vertex 0.034851 0.32941 0.00908
   vertex 0.033958 0.330573 0.011844
   vertex 0.034906 0.327796 0.011591
  endloop
 endfacet
 facet normal 0.888212 0.452708 -0.078331
  outer loop
   vertex 0.033947 0.330749 0.006568
   vertex 0.03343 0.332198 0.00908
   vertex 0.034851 0.32941 0.00908
  endloop
 endfacet
 facet normal 0.89641 0.274294 0.348155
  outer loop
   vertex 0.034906 0.327796 0.011591
   vertex 0.033958 0.330573 0.011844
   vertex 0.033651 0.328709 0.014103
  endloop
 endfacet
 facet normal 0.803858 0.400541 0.439749
  outer loop
   vertex 0.033958 0.330573 0.011844
   vertex 0.032222 0.33132 0.014337
   vertex 0.033651 0.328709 0.014103
  endloop
 endfacet
 facet normal 0.886806 0.451991 0.0963284
  outer loop
   vertex 0.034851 0.32941 0.00908
   vertex 0.03343 0.332198 0.00908
   vertex 0.033958 0.330573 0.011844
  endloop
 endfacet
 facet normal 0.794662 0.577331 0.18762
  outer loop
   vertex 0.03343 0.332198 0.00908
   vertex 0.032048 0.333202 0.011844
   vertex 0.033958 0.330573 0.011844
  endloop
 endfacet
 facet normal 0.754436 0.548107 0.361117
  outer loop
   vertex 0.033958 0.330573 0.011844
   vertex 0.032048 0.333202 0.011844
   vertex 0.032222 0.33132 0.014337
  endloop
 endfacet
 facet normal 0.629279 0.640767 0.439803
  outer loop
   vertex 0.032048 0.333202 0.011844
   vertex 0.03018 0.333486 0.014103
   vertex 0.032222 0.33132 0.014337
  endloop
 endfacet
 facet normal 0.797233 0.579229 -0.170037
  outer loop
   vertex 0.033947 0.330749 0.006568
   vertex 0.032212 0.333137 0.006568
   vertex 0.03343 0.332198 0.00908
  endloop
 endfacet
 facet normal 0.704936 0.704936 -0.0782949
  outer loop
   vertex 0.032212 0.333137 0.006568
   vertex 0.031218 0.33441 0.00908
   vertex 0.03343 0.332198 0.00908
  endloop
 endfacet
 facet normal 0.703824 0.703824 0.0962537
  outer loop
   vertex 0.03343 0.332198 0.00908
   vertex 0.031218 0.33441 0.00908
   vertex 0.032048 0.333202 0.011844
  endloop
 endfacet
 facet normal 0.578519 0.796783 0.174509
  outer loop
   vertex 0.031218 0.33441 0.00908
   vertex 0.0297 0.334962 0.011592
   vertex 0.032048 0.333202 0.011844
  endloop
 endfacet
 facet normal 0.537986 0.767602 0.348366
  outer loop
   vertex 0.032048 0.333202 0.011844
   vertex 0.0297 0.334962 0.011592
   vertex 0.03018 0.333486 0.014103
  endloop
 endfacet
 facet normal 0.420269 0.815078 0.398776
  outer loop
   vertex 0.0297 0.334962 0.011592
   vertex 0.028104 0.334826 0.013552
   vertex 0.03018 0.333486 0.014103
  endloop
 endfacet
 facet normal 0.138975 0.90647 0.398746
  outer loop
   vertex 0.026892 0.335874 0.011592
   vertex 0.025636 0.334962 0.014103
   vertex 0.028104 0.334826 0.013552
  endloop
 endfacet
 facet normal 0.000555151 0.98466 0.174481
  outer loop
   vertex 0.02534 0.33632 0.00908
   vertex 0.023958 0.335831 0.011844
   vertex 0.026892 0.335874 0.011592
  endloop
 endfacet
 facet normal -0.155824 0.984657 -0.07855
  outer loop
   vertex 0.023788 0.335874 0.006568
   vertex 0.02225 0.335831 0.00908
   vertex 0.02534 0.33632 0.00908
  endloop
 endfacet
 facet normal 0.0161962 0.937175 0.348485
  outer loop
   vertex 0.026892 0.335874 0.011592
   vertex 0.023958 0.335831 0.011844
   vertex 0.025636 0.334962 0.014103
  endloop
 endfacet
 facet normal -0.132412 0.888171 0.440021
  outer loop
   vertex 0.023958 0.335831 0.011844
   vertex 0.022711 0.33441 0.014337
   vertex 0.025636 0.334962 0.014103
  endloop
 endfacet
 facet normal -0.155583 0.983133 0.0961419
  outer loop
   vertex 0.02534 0.33632 0.00908
   vertex 0.02225 0.335831 0.00908
   vertex 0.023958 0.335831 0.011844
  endloop
 endfacet
 facet normal -0.303796 0.934059 0.187729
  outer loop
   vertex 0.02225 0.335831 0.00908
   vertex 0.020868 0.334826 0.011844
   vertex 0.023958 0.335831 0.011844
  endloop
 endfacet
 facet normal -0.288415 0.886769 0.361189
  outer loop
   vertex 0.023958 0.335831 0.011844
   vertex 0.020868 0.334826 0.011844
   vertex 0.022711 0.33441 0.014337
  endloop
 endfacet
 facet normal -0.415138 0.796394 0.439791
  outer loop
   vertex 0.020868 0.334826 0.011844
   vertex 0.020021 0.333137 0.014103
   vertex 0.022711 0.33441 0.014337
  endloop
 endfacet
 facet normal -0.304389 0.937197 -0.170322
  outer loop
   vertex 0.023788 0.335874 0.006568
   vertex 0.02098 0.334962 0.006568
   vertex 0.02225 0.335831 0.00908
  endloop
 endfacet
 facet normal -0.452705 0.888208 -0.0783901
  outer loop
   vertex 0.02098 0.334962 0.006568
   vertex 0.019462 0.33441 0.00908
   vertex 0.02225 0.335831 0.00908
  endloop
 endfacet
 facet normal -0.451986 0.886796 0.0964489
  outer loop
   vertex 0.02225 0.335831 0.00908
   vertex 0.019462 0.33441 0.00908
   vertex 0.020868 0.334826 0.011844
  endloop
 endfacet
 facet normal -0.578874 0.796508 0.174584
  outer loop
   vertex 0.019462 0.33441 0.00908
   vertex 0.018468 0.333137 0.011592
   vertex 0.020868 0.334826 0.011844
  endloop
 endfacet
 facet normal -0.563623 0.748876 0.348589
  outer loop
   vertex 0.020868 0.334826 0.011844
   vertex 0.018468 0.333137 0.011592
   vertex 0.020021 0.333137 0.014103
  endloop
 endfacet
 facet normal -0.645038 0.651744 0.398942
  outer loop
   vertex 0.018468 0.333137 0.011592
   vertex 0.018104 0.331577 0.013552
   vertex 0.020021 0.333137 0.014103
  endloop
 endfacet
 facet normal -0.819189 0.412026 0.398954
  outer loop
   vertex 0.016733 0.330749 0.011592
   vertex 0.017213 0.329272 0.014103
   vertex 0.018104 0.331577 0.013552
  endloop
 endfacet
 facet normal -0.936352 0.304548 0.174631
  outer loop
   vertex 0.015829 0.32941 0.00908
   vertex 0.015868 0.327945 0.011844
   vertex 0.016733 0.330749 0.011592
  endloop
 endfacet
 facet normal -0.984653 0.155824 -0.0785916
  outer loop
   vertex 0.015774 0.327796 0.006569
   vertex 0.01534 0.32632 0.00908
   vertex 0.015829 0.32941 0.00908
  endloop
 endfacet
 facet normal -0.886309 0.304753 0.348685
  outer loop
   vertex 0.016733 0.330749 0.011592
   vertex 0.015868 0.327945 0.011844
   vertex 0.017213 0.329272 0.014103
  endloop
 endfacet
 facet normal -0.885615 0.148581 0.440011
  outer loop
   vertex 0.015868 0.327945 0.011844
   vertex 0.016834 0.32632 0.014337
   vertex 0.017213 0.329272 0.014103
  endloop
 endfacet
 facet normal -0.983115 0.15558 0.0963335
  outer loop
   vertex 0.015829 0.32941 0.00908
   vertex 0.01534 0.32632 0.00908
   vertex 0.015868 0.327945 0.011844
  endloop
 endfacet
 facet normal -0.982239 0 0.187634
  outer loop
   vertex 0.01534 0.32632 0.00908
   vertex 0.015868 0.324695 0.011844
   vertex 0.015868 0.327945 0.011844
  endloop
 endfacet
 facet normal -0.932446 0 0.361309
  outer loop
   vertex 0.015868 0.327945 0.011844
   vertex 0.015868 0.324695 0.011844
   vertex 0.016834 0.32632 0.014337
  endloop
 endfacet
 facet normal -0.885615 -0.148581 0.440011
  outer loop
   vertex 0.015868 0.324695 0.011844
   vertex 0.017213 0.323368 0.014103
   vertex 0.016834 0.32632 0.014337
  endloop
 endfacet
 facet normal -0.98539 -0 -0.170314
  outer loop
   vertex 0.015774 0.327796 0.006569
   vertex 0.015774 0.324844 0.006569
   vertex 0.01534 0.32632 0.00908
  endloop
 endfacet
 facet normal -0.984653 -0.155824 -0.0785916
  outer loop
   vertex 0.015774 0.324844 0.006569
   vertex 0.015829 0.32323 0.00908
   vertex 0.01534 0.32632 0.00908
  endloop
 endfacet
 facet normal -0.983115 -0.15558 0.0963335
  outer loop
   vertex 0.01534 0.32632 0.00908
   vertex 0.015829 0.32323 0.00908
   vertex 0.015868 0.324695 0.011844
  endloop
 endfacet
 facet normal -0.936352 -0.304548 0.174631
  outer loop
   vertex 0.015829 0.32323 0.00908
   vertex 0.016733 0.321891 0.011592
   vertex 0.015868 0.324695 0.011844
  endloop
 endfacet
 facet normal -0.886309 -0.304753 0.348685
  outer loop
   vertex 0.015868 0.324695 0.011844
   vertex 0.016733 0.321891 0.011592
   vertex 0.017213 0.323368 0.014103
  endloop
 endfacet
 facet normal -0.819189 -0.412026 0.398954
  outer loop
   vertex 0.016733 0.321891 0.011592
   vertex 0.018104 0.321063 0.013552
   vertex 0.017213 0.323368 0.014103
  endloop
 endfacet
 facet normal -0.645038 -0.651744 0.398942
  outer loop
   vertex 0.018468 0.319503 0.011592
   vertex 0.020021 0.319503 0.014103
   vertex 0.018104 0.321063 0.013552
  endloop
 endfacet
 facet normal -0.578874 -0.796508 0.174584
  outer loop
   vertex 0.019462 0.31823 0.00908
   vertex 0.020868 0.317814 0.011844
   vertex 0.018468 0.319503 0.011592
  endloop
 endfacet
 facet normal -0.452705 -0.888208 -0.0783901
  outer loop
   vertex 0.02098 0.317678 0.006568
   vertex 0.02225 0.316809 0.00908
   vertex 0.019462 0.31823 0.00908
  endloop
 endfacet
 facet normal -0.563623 -0.748876 0.348589
  outer loop
   vertex 0.018468 0.319503 0.011592
   vertex 0.020868 0.317814 0.011844
   vertex 0.020021 0.319503 0.014103
  endloop
 endfacet
 facet normal -0.415138 -0.796394 0.439791
  outer loop
   vertex 0.020868 0.317814 0.011844
   vertex 0.022711 0.31823 0.014337
   vertex 0.020021 0.319503 0.014103
  endloop
 endfacet
 facet normal -0.451986 -0.886796 0.0964489
  outer loop
   vertex 0.019462 0.31823 0.00908
   vertex 0.02225 0.316809 0.00908
   vertex 0.020868 0.317814 0.011844
  endloop
 endfacet
 facet normal -0.303796 -0.934059 0.187729
  outer loop
   vertex 0.02225 0.316809 0.00908
   vertex 0.023958 0.316809 0.011844
   vertex 0.020868 0.317814 0.011844
  endloop
 endfacet
 facet normal -0.288415 -0.886769 0.361189
  outer loop
   vertex 0.020868 0.317814 0.011844
   vertex 0.023958 0.316809 0.011844
   vertex 0.022711 0.31823 0.014337
  endloop
 endfacet
 facet normal -0.132412 -0.888171 0.440021
  outer loop
   vertex 0.023958 0.316809 0.011844
   vertex 0.025636 0.317678 0.014103
   vertex 0.022711 0.31823 0.014337
  endloop
 endfacet
 facet normal -0.304389 -0.937197 -0.170322
  outer loop
   vertex 0.02098 0.317678 0.006568
   vertex 0.023788 0.316766 0.006568
   vertex 0.02225 0.316809 0.00908
  endloop
 endfacet
 facet normal -0.155824 -0.984657 -0.07855
  outer loop
   vertex 0.023788 0.316766 0.006568
   vertex 0.02534 0.31632 0.00908
   vertex 0.02225 0.316809 0.00908
  endloop
 endfacet
 facet normal -0.155583 -0.983133 0.0961419
  outer loop
   vertex 0.02225 0.316809 0.00908
   vertex 0.02534 0.31632 0.00908
   vertex 0.023958 0.316809 0.011844
  endloop
 endfacet
 facet normal 0.000555151 -0.98466 0.174481
  outer loop
   vertex 0.02534 0.31632 0.00908
   vertex 0.026892 0.316766 0.011592
   vertex 0.023958 0.316809 0.011844
  endloop
 endfacet
 facet normal 0.0161962 -0.937175 0.348485
  outer loop
   vertex 0.023958 0.316809 0.011844
   vertex 0.026892 0.316766 0.011592
   vertex 0.025636 0.317678 0.014103
  endloop
 endfacet
 facet normal 0.138975 -0.90647 0.398746
  outer loop
   vertex 0.026892 0.316766 0.011592
   vertex 0.028104 0.317814 0.013552
   vertex 0.025636 0.317678 0.014103
  endloop
 endfacet
 facet normal 0.420269 -0.815078 0.398776
  outer loop
   vertex 0.0297 0.317678 0.011592
   vertex 0.03018 0.319154 0.014103
   vertex 0.028104 0.317814 0.013552
  endloop
 endfacet
 facet normal 0.578519 -0.796783 0.174509
  outer loop
   vertex 0.031218 0.31823 0.00908
   vertex 0.032048 0.319438 0.011844
   vertex 0.0297 0.317678 0.011592
  endloop
 endfacet
 facet normal 0.704936 -0.704936 -0.0782949
  outer loop
   vertex 0.032212 0.319503 0.006568
   vertex 0.03343 0.320442 0.00908
   vertex 0.031218 0.31823 0.00908
  endloop
 endfacet
 facet normal 0.537986 -0.767602 0.348366
  outer loop
   vertex 0.0297 0.317678 0.011592
   vertex 0.032048 0.319438 0.011844
   vertex 0.03018 0.319154 0.014103
  endloop
 endfacet
 facet normal 0.629279 -0.640767 0.439803
  outer loop
   vertex 0.032048 0.319438 0.011844
   vertex 0.032222 0.32132 0.014337
   vertex 0.03018 0.319154 0.014103
  endloop
 endfacet
 facet normal 0.703824 -0.703824 0.0962537
  outer loop
   vertex 0.031218 0.31823 0.00908
   vertex 0.03343 0.320442 0.00908
   vertex 0.032048 0.319438 0.011844
  endloop
 endfacet
 facet normal 0.794662 -0.577331 0.18762
  outer loop
   vertex 0.03343 0.320442 0.00908
   vertex 0.033958 0.322067 0.011844
   vertex 0.032048 0.319438 0.011844
  endloop
 endfacet
 facet normal 0.754436 -0.548107 0.361117
  outer loop
   vertex 0.032048 0.319438 0.011844
   vertex 0.033958 0.322067 0.011844
   vertex 0.032222 0.32132 0.014337
  endloop
 endfacet
 facet normal 0.803858 -0.400541 0.439749
  outer loop
   vertex 0.033958 0.322067 0.011844
   vertex 0.033651 0.323931 0.014103
   vertex 0.032222 0.32132 0.014337
  endloop
 endfacet
 facet normal 0.797233 -0.579229 -0.170037
  outer loop
   vertex 0.032212 0.319503 0.006568
   vertex 0.033947 0.321891 0.006568
   vertex 0.03343 0.320442 0.00908
  endloop
 endfacet
 facet normal 0.888212 -0.452708 -0.078331
  outer loop
   vertex 0.033947 0.321891 0.006568
   vertex 0.034851 0.32323 0.00908
   vertex 0.03343 0.320442 0.00908
  endloop
 endfacet
 facet normal 0.886806 -0.451991 0.0963284
  outer loop
   vertex 0.03343 0.320442 0.00908
   vertex 0.034851 0.32323 0.00908
   vertex 0.033958 0.322067 0.011844
  endloop
 endfacet
 facet normal 0.93657 -0.303801 0.17476
  outer loop
   vertex 0.034851 0.32323 0.00908
   vertex 0.034906 0.324844 0.011591
   vertex 0.033958 0.322067 0.011844
  endloop
 endfacet
 facet normal 0.89641 -0.274294 0.348155
  outer loop
   vertex 0.033958 0.322067 0.011844
   vertex 0.034906 0.324844 0.011591
   vertex 0.033651 0.323931 0.014103
  endloop
 endfacet
 facet normal 0.905177 -0.147939 0.398459
  outer loop
   vertex 0.034906 0.324844 0.011591
   vertex 0.034284 0.32632 0.013552
   vertex 0.033651 0.323931 0.014103
  endloop
 endfacet
 facet normal 0.294416 0.906493 0.302638
  outer loop
   vertex 0.0297 0.334962 0.011592
   vertex 0.026892 0.335874 0.011592
   vertex 0.028104 0.334826 0.013552
  endloop
 endfacet
 facet normal 0.452705 0.888208 0.0783901
  outer loop
   vertex 0.031218 0.33441 0.00908
   vertex 0.02843 0.335831 0.00908
   vertex 0.0297 0.334962 0.011592
  endloop
 endfacet
 facet normal 0.578874 0.796508 -0.174584
  outer loop
   vertex 0.032212 0.333137 0.006568
   vertex 0.029812 0.334826 0.006316
   vertex 0.031218 0.33441 0.00908
  endloop
 endfacet
 facet normal 0.304389 0.937197 0.170322
  outer loop
   vertex 0.0297 0.334962 0.011592
   vertex 0.02843 0.335831 0.00908
   vertex 0.026892 0.335874 0.011592
  endloop
 endfacet
 facet normal 0.155824 0.984657 0.07855
  outer loop
   vertex 0.02843 0.335831 0.00908
   vertex 0.02534 0.33632 0.00908
   vertex 0.026892 0.335874 0.011592
  endloop
 endfacet
 facet normal 0.451986 0.886796 -0.0964489
  outer loop
   vertex 0.031218 0.33441 0.00908
   vertex 0.029812 0.334826 0.006316
   vertex 0.02843 0.335831 0.00908
  endloop
 endfacet
 facet normal 0.303796 0.934059 -0.187729
  outer loop
   vertex 0.029812 0.334826 0.006316
   vertex 0.026722 0.335831 0.006316
   vertex 0.02843 0.335831 0.00908
  endloop
 endfacet
 facet normal 0.155583 0.983133 -0.0961419
  outer loop
   vertex 0.02843 0.335831 0.00908
   vertex 0.026722 0.335831 0.006316
   vertex 0.02534 0.33632 0.00908
  endloop
 endfacet
 facet normal -0.000555151 0.98466 -0.174481
  outer loop
   vertex 0.026722 0.335831 0.006316
   vertex 0.023788 0.335874 0.006568
   vertex 0.02534 0.33632 0.00908
  endloop
 endfacet
 facet normal 0.563623 0.748876 -0.348589
  outer loop
   vertex 0.032212 0.333137 0.006568
   vertex 0.030659 0.333137 0.004057
   vertex 0.029812 0.334826 0.006316
  endloop
 endfacet
 facet normal 0.415138 0.796394 -0.439791
  outer loop
   vertex 0.030659 0.333137 0.004057
   vertex 0.027969 0.33441 0.003823
   vertex 0.029812 0.334826 0.006316
  endloop
 endfacet
 facet normal 0.288415 0.886769 -0.361189
  outer loop
   vertex 0.029812 0.334826 0.006316
   vertex 0.027969 0.33441 0.003823
   vertex 0.026722 0.335831 0.006316
  endloop
 endfacet
 facet normal 0.132412 0.888171 -0.440021
  outer loop
   vertex 0.027969 0.33441 0.003823
   vertex 0.025044 0.334962 0.004057
   vertex 0.026722 0.335831 0.006316
  endloop
 endfacet
 facet normal -0.0161962 0.937175 -0.348485
  outer loop
   vertex 0.026722 0.335831 0.006316
   vertex 0.025044 0.334962 0.004057
   vertex 0.023788 0.335874 0.006568
  endloop
 endfacet
 facet normal -0.138975 0.90647 -0.398746
  outer loop
   vertex 0.025044 0.334962 0.004057
   vertex 0.022576 0.334826 0.004608
   vertex 0.023788 0.335874 0.006568
  endloop
 endfacet
 facet normal -0.771063 0.560215 0.302688
  outer loop
   vertex 0.018468 0.333137 0.011592
   vertex 0.016733 0.330749 0.011592
   vertex 0.018104 0.331577 0.013552
  endloop
 endfacet
 facet normal -0.704936 0.704936 0.0782949
  outer loop
   vertex 0.019462 0.33441 0.00908
   vertex 0.01725 0.332198 0.00908
   vertex 0.018468 0.333137 0.011592
  endloop
 endfacet
 facet normal -0.578519 0.796783 -0.174509
  outer loop
   vertex 0.02098 0.334962 0.006568
   vertex 0.018632 0.333202 0.006316
   vertex 0.019462 0.33441 0.00908
  endloop
 endfacet
 facet normal -0.797233 0.579229 0.170037
  outer loop
   vertex 0.018468 0.333137 0.011592
   vertex 0.01725 0.332198 0.00908
   vertex 0.016733 0.330749 0.011592
  endloop
 endfacet
 facet normal -0.888212 0.452708 0.078331
  outer loop
   vertex 0.01725 0.332198 0.00908
   vertex 0.015829 0.32941 0.00908
   vertex 0.016733 0.330749 0.011592
  endloop
 endfacet
 facet normal -0.703824 0.703824 -0.0962537
  outer loop
   vertex 0.019462 0.33441 0.00908
   vertex 0.018632 0.333202 0.006316
   vertex 0.01725 0.332198 0.00908
  endloop
 endfacet
 facet normal -0.794662 0.577331 -0.18762
  outer loop
   vertex 0.018632 0.333202 0.006316
   vertex 0.016722 0.330573 0.006316
   vertex 0.01725 0.332198 0.00908
  endloop
 endfacet
 facet normal -0.886806 0.451991 -0.0963284
  outer loop
   vertex 0.01725 0.332198 0.00908
   vertex 0.016722 0.330573 0.006316
   vertex 0.015829 0.32941 0.00908
  endloop
 endfacet
 facet normal -0.93657 0.303801 -0.17476
  outer loop
   vertex 0.016722 0.330573 0.006316
   vertex 0.015774 0.327796 0.006569
   vertex 0.015829 0.32941 0.00908
  endloop
 endfacet
 facet normal -0.537986 0.767602 -0.348366
  outer loop
   vertex 0.02098 0.334962 0.006568
   vertex 0.0205 0.333486 0.004057
   vertex 0.018632 0.333202 0.006316
  endloop
 endfacet
 facet normal -0.629279 0.640767 -0.439803
  outer loop
   vertex 0.0205 0.333486 0.004057
   vertex 0.018458 0.33132 0.003823
   vertex 0.018632 0.333202 0.006316
  endloop
 endfacet
 facet normal -0.754436 0.548107 -0.361117
  outer loop
   vertex 0.018632 0.333202 0.006316
   vertex 0.018458 0.33132 0.003823
   vertex 0.016722 0.330573 0.006316
  endloop
 endfacet
 facet normal -0.803858 0.400541 -0.439749
  outer loop
   vertex 0.018458 0.33132 0.003823
   vertex 0.017029 0.328709 0.004057
   vertex 0.016722 0.330573 0.006316
  endloop
 endfacet
 facet normal -0.89641 0.274294 -0.348155
  outer loop
   vertex 0.016722 0.330573 0.006316
   vertex 0.017029 0.328709 0.004057
   vertex 0.015774 0.327796 0.006569
  endloop
 endfacet
 facet normal -0.905177 0.147939 -0.398459
  outer loop
   vertex 0.017029 0.328709 0.004057
   vertex 0.016396 0.32632 0.004608
   vertex 0.015774 0.327796 0.006569
  endloop
 endfacet
 facet normal -0.771063 -0.560215 0.302688
  outer loop
   vertex 0.016733 0.321891 0.011592
   vertex 0.018468 0.319503 0.011592
   vertex 0.018104 0.321063 0.013552
  endloop
 endfacet
 facet normal -0.888212 -0.452708 0.078331
  outer loop
   vertex 0.015829 0.32323 0.00908
   vertex 0.01725 0.320442 0.00908
   vertex 0.016733 0.321891 0.011592
  endloop
 endfacet
 facet normal -0.93657 -0.303801 -0.17476
  outer loop
   vertex 0.015774 0.324844 0.006569
   vertex 0.016722 0.322067 0.006316
   vertex 0.015829 0.32323 0.00908
  endloop
 endfacet
 facet normal -0.797233 -0.579229 0.170037
  outer loop
   vertex 0.016733 0.321891 0.011592
   vertex 0.01725 0.320442 0.00908
   vertex 0.018468 0.319503 0.011592
  endloop
 endfacet
 facet normal -0.704936 -0.704936 0.0782949
  outer loop
   vertex 0.01725 0.320442 0.00908
   vertex 0.019462 0.31823 0.00908
   vertex 0.018468 0.319503 0.011592
  endloop
 endfacet
 facet normal -0.886806 -0.451991 -0.0963284
  outer loop
   vertex 0.015829 0.32323 0.00908
   vertex 0.016722 0.322067 0.006316
   vertex 0.01725 0.320442 0.00908
  endloop
 endfacet
 facet normal -0.794662 -0.577331 -0.18762
  outer loop
   vertex 0.016722 0.322067 0.006316
   vertex 0.018632 0.319438 0.006316
   vertex 0.01725 0.320442 0.00908
  endloop
 endfacet
 facet normal -0.703824 -0.703824 -0.0962537
  outer loop
   vertex 0.01725 0.320442 0.00908
   vertex 0.018632 0.319438 0.006316
   vertex 0.019462 0.31823 0.00908
  endloop
 endfacet
 facet normal -0.578519 -0.796783 -0.174509
  outer loop
   vertex 0.018632 0.319438 0.006316
   vertex 0.02098 0.317678 0.006568
   vertex 0.019462 0.31823 0.00908
  endloop
 endfacet
 facet normal -0.89641 -0.274294 -0.348155
  outer loop
   vertex 0.015774 0.324844 0.006569
   vertex 0.017029 0.323931 0.004057
   vertex 0.016722 0.322067 0.006316
  endloop
 endfacet
 facet normal -0.803858 -0.400541 -0.439749
  outer loop
   vertex 0.017029 0.323931 0.004057
   vertex 0.018458 0.32132 0.003823
   vertex 0.016722 0.322067 0.006316
  endloop
 endfacet
 facet normal -0.754436 -0.548107 -0.361117
  outer loop
   vertex 0.016722 0.322067 0.006316
   vertex 0.018458 0.32132 0.003823
   vertex 0.018632 0.319438 0.006316
  endloop
 endfacet
 facet normal -0.629279 -0.640767 -0.439803
  outer loop
   vertex 0.018458 0.32132 0.003823
   vertex 0.0205 0.319154 0.004057
   vertex 0.018632 0.319438 0.006316
  endloop
 endfacet
 facet normal -0.537986 -0.767602 -0.348366
  outer loop
   vertex 0.018632 0.319438 0.006316
   vertex 0.0205 0.319154 0.004057
   vertex 0.02098 0.317678 0.006568
  endloop
 endfacet
 facet normal -0.420269 -0.815078 -0.398776
  outer loop
   vertex 0.0205 0.319154 0.004057
   vertex 0.022576 0.317814 0.004608
   vertex 0.02098 0.317678 0.006568
  endloop
 endfacet
 facet normal 0.294416 -0.906493 0.302638
  outer loop
   vertex 0.026892 0.316766 0.011592
   vertex 0.0297 0.317678 0.011592
   vertex 0.028104 0.317814 0.013552
  endloop
 endfacet
 facet normal 0.155824 -0.984657 0.07855
  outer loop
   vertex 0.02534 0.31632 0.00908
   vertex 0.02843 0.316809 0.00908
   vertex 0.026892 0.316766 0.011592
  endloop
 endfacet
 facet normal -0.000555151 -0.98466 -0.174481
  outer loop
   vertex 0.023788 0.316766 0.006568
   vertex 0.026722 0.316809 0.006316
   vertex 0.02534 0.31632 0.00908
  endloop
 endfacet
 facet normal 0.304389 -0.937197 0.170322
  outer loop
   vertex 0.026892 0.316766 0.011592
   vertex 0.02843 0.316809 0.00908
   vertex 0.0297 0.317678 0.011592
  endloop
 endfacet
 facet normal 0.452705 -0.888208 0.0783901
  outer loop
   vertex 0.02843 0.316809 0.00908
   vertex 0.031218 0.31823 0.00908
   vertex 0.0297 0.317678 0.011592
  endloop
 endfacet
 facet normal 0.155583 -0.983133 -0.0961419
  outer loop
   vertex 0.02534 0.31632 0.00908
   vertex 0.026722 0.316809 0.006316
   vertex 0.02843 0.316809 0.00908
  endloop
 endfacet
 facet normal 0.303796 -0.934059 -0.187729
  outer loop
   vertex 0.026722 0.316809 0.006316
   vertex 0.029812 0.317814 0.006316
   vertex 0.02843 0.316809 0.00908
  endloop
 endfacet
 facet normal 0.451986 -0.886796 -0.0964489
  outer loop
   vertex 0.02843 0.316809 0.00908
   vertex 0.029812 0.317814 0.006316
   vertex 0.031218 0.31823 0.00908
  endloop
 endfacet
 facet normal 0.578874 -0.796508 -0.174584
  outer loop
   vertex 0.029812 0.317814 0.006316
   vertex 0.032212 0.319503 0.006568
   vertex 0.031218 0.31823 0.00908
  endloop
 endfacet
 facet normal -0.0161962 -0.937175 -0.348485
  outer loop
   vertex 0.023788 0.316766 0.006568
   vertex 0.025044 0.317678 0.004057
   vertex 0.026722 0.316809 0.006316
  endloop
 endfacet
 facet normal 0.132412 -0.888171 -0.440021
  outer loop
   vertex 0.025044 0.317678 0.004057
   vertex 0.027969 0.31823 0.003823
   vertex 0.026722 0.316809 0.006316
  endloop
 endfacet
 facet normal 0.288415 -0.886769 -0.361189
  outer loop
   vertex 0.026722 0.316809 0.006316
   vertex 0.027969 0.31823 0.003823
   vertex 0.029812 0.317814 0.006316
  endloop
 endfacet
 facet normal 0.415138 -0.796394 -0.439791
  outer loop
   vertex 0.027969 0.31823 0.003823
   vertex 0.030659 0.319503 0.004057
   vertex 0.029812 0.317814 0.006316
  endloop
 endfacet
 facet normal 0.563623 -0.748876 -0.348589
  outer loop
   vertex 0.029812 0.317814 0.006316
   vertex 0.030659 0.319503 0.004057
   vertex 0.032212 0.319503 0.006568
  endloop
 endfacet
 facet normal 0.645038 -0.651744 -0.398942
  outer loop
   vertex 0.030659 0.319503 0.004057
   vertex 0.032576 0.321063 0.004608
   vertex 0.032212 0.319503 0.006568
  endloop
 endfacet
 facet normal 0.9532 -0 0.302341
  outer loop
   vertex 0.034906 0.324844 0.011591
   vertex 0.034906 0.327796 0.011591
   vertex 0.034284 0.32632 0.013552
  endloop
 endfacet
 facet normal 0.984653 -0.155824 0.0785916
  outer loop
   vertex 0.034851 0.32323 0.00908
   vertex 0.03534 0.32632 0.00908
   vertex 0.034906 0.324844 0.011591
  endloop
 endfacet
 facet normal 0.936352 -0.304548 -0.174631
  outer loop
   vertex 0.033947 0.321891 0.006568
   vertex 0.034812 0.324695 0.006316
   vertex 0.034851 0.32323 0.00908
  endloop
 endfacet
 facet normal 0.98539 -0 0.170314
  outer loop
   vertex 0.034906 0.324844 0.011591
   vertex 0.03534 0.32632 0.00908
   vertex 0.034906 0.327796 0.011591
  endloop
 endfacet
 facet normal 0.984653 0.155824 0.0785916
  outer loop
   vertex 0.03534 0.32632 0.00908
   vertex 0.034851 0.32941 0.00908
   vertex 0.034906 0.327796 0.011591
  endloop
 endfacet
 facet normal 0.983115 -0.15558 -0.0963335
  outer loop
   vertex 0.034851 0.32323 0.00908
   vertex 0.034812 0.324695 0.006316
   vertex 0.03534 0.32632 0.00908
  endloop
 endfacet
 facet normal 0.982239 0 -0.187634
  outer loop
   vertex 0.034812 0.324695 0.006316
   vertex 0.034812 0.327945 0.006316
   vertex 0.03534 0.32632 0.00908
  endloop
 endfacet
 facet normal 0.983115 0.15558 -0.0963335
  outer loop
   vertex 0.03534 0.32632 0.00908
   vertex 0.034812 0.327945 0.006316
   vertex 0.034851 0.32941 0.00908
  endloop
 endfacet
 facet normal 0.936352 0.304548 -0.174631
  outer loop
   vertex 0.034812 0.327945 0.006316
   vertex 0.033947 0.330749 0.006568
   vertex 0.034851 0.32941 0.00908
  endloop
 endfacet
 facet normal 0.886309 -0.304753 -0.348685
  outer loop
   vertex 0.033947 0.321891 0.006568
   vertex 0.033467 0.323368 0.004057
   vertex 0.034812 0.324695 0.006316
  endloop
 endfacet
 facet normal 0.885615 -0.148581 -0.440011
  outer loop
   vertex 0.033467 0.323368 0.004057
   vertex 0.033846 0.32632 0.003823
   vertex 0.034812 0.324695 0.006316
  endloop
 endfacet
 facet normal 0.932446 0 -0.361309
  outer loop
   vertex 0.034812 0.324695 0.006316
   vertex 0.033846 0.32632 0.003823
   vertex 0.034812 0.327945 0.006316
  endloop
 endfacet
 facet normal 0.885615 0.148581 -0.440011
  outer loop
   vertex 0.033846 0.32632 0.003823
   vertex 0.033467 0.329272 0.004057
   vertex 0.034812 0.327945 0.006316
  endloop
 endfacet
 facet normal 0.886309 0.304753 -0.348685
  outer loop
   vertex 0.034812 0.327945 0.006316
   vertex 0.033467 0.329272 0.004057
   vertex 0.033947 0.330749 0.006568
  endloop
 endfacet
 facet normal 0.819189 0.412026 -0.398954
  outer loop
   vertex 0.033467 0.329272 0.004057
   vertex 0.032576 0.331577 0.004608
   vertex 0.033947 0.330749 0.006568
  endloop
 endfacet
 facet normal 0.61533 0.560308 -0.554459
  outer loop
   vertex 0.031435 0.330749 0.002505
   vertex 0.030659 0.333137 0.004057
   vertex 0.032576 0.331577 0.004608
  endloop
 endfacet
 facet normal 0.467426 0.452641 -0.759361
  outer loop
   vertex 0.029593 0.32941 0.000573
   vertex 0.028958 0.332198 0.001844
   vertex 0.031435 0.330749 0.002505
  endloop
 endfacet
 facet normal 0.262485 0.303841 -0.915851
  outer loop
   vertex 0.027372 0.327796 -0.000599
   vertex 0.026722 0.330573 0.000136
   vertex 0.029593 0.32941 0.000573
  endloop
 endfacet
 facet normal 0.508799 0.579247 -0.636864
  outer loop
   vertex 0.031435 0.330749 0.002505
   vertex 0.028958 0.332198 0.001844
   vertex 0.030659 0.333137 0.004057
  endloop
 endfacet
 facet normal 0.38541 0.704977 -0.595371
  outer loop
   vertex 0.028958 0.332198 0.001844
   vertex 0.027969 0.33441 0.003823
   vertex 0.030659 0.333137 0.004057
  endloop
 endfacet
 facet normal 0.310374 0.451949 -0.836307
  outer loop
   vertex 0.029593 0.32941 0.000573
   vertex 0.026722 0.330573 0.000136
   vertex 0.028958 0.332198 0.001844
  endloop
 endfacet
 facet normal 0.187559 0.577248 -0.794737
  outer loop
   vertex 0.026722 0.330573 0.000136
   vertex 0.025868 0.333202 0.001844
   vertex 0.028958 0.332198 0.001844
  endloop
 endfacet
 facet normal 0.228709 0.703897 -0.672474
  outer loop
   vertex 0.028958 0.332198 0.001844
   vertex 0.025868 0.333202 0.001844
   vertex 0.027969 0.33441 0.003823
  endloop
 endfacet
 facet normal 0.102735 0.796801 -0.595444
  outer loop
   vertex 0.025868 0.333202 0.001844
   vertex 0.025044 0.334962 0.004057
   vertex 0.027969 0.33441 0.003823
  endloop
 endfacet
 facet normal 0.0891868 0.274301 -0.957499
  outer loop
   vertex 0.027372 0.327796 -0.000599
   vertex 0.024564 0.328709 -0.000599
   vertex 0.026722 0.330573 0.000136
  endloop
 endfacet
 facet normal -0.0336945 0.400135 -0.915836
  outer loop
   vertex 0.024564 0.328709 -0.000599
   vertex 0.023715 0.33132 0.000573
   vertex 0.026722 0.330573 0.000136
  endloop
 endfacet
 facet normal 0.0146149 0.548074 -0.836302
  outer loop
   vertex 0.026722 0.330573 0.000136
   vertex 0.023715 0.33132 0.000573
   vertex 0.025868 0.333202 0.001844
  endloop
 endfacet
 facet normal -0.112009 0.640965 -0.759354
  outer loop
   vertex 0.023715 0.33132 0.000573
   vertex 0.023012 0.333486 0.002505
   vertex 0.025868 0.333202 0.001844
  endloop
 endfacet
 facet normal -0.0710868 0.767617 -0.636955
  outer loop
   vertex 0.025868 0.333202 0.001844
   vertex 0.023012 0.333486 0.002505
   vertex 0.025044 0.334962 0.004057
  endloop
 endfacet
 facet normal -0.168666 0.815046 -0.554303
  outer loop
   vertex 0.023012 0.333486 0.002505
   vertex 0.022576 0.334826 0.004608
   vertex 0.025044 0.334962 0.004057
  endloop
 endfacet
 facet normal -0.342493 0.758552 -0.554344
  outer loop
   vertex 0.023012 0.333486 0.002505
   vertex 0.0205 0.333486 0.004057
   vertex 0.022576 0.334826 0.004608
  endloop
 endfacet
 facet normal -0.286233 0.584386 -0.759318
  outer loop
   vertex 0.023715 0.33132 0.000573
   vertex 0.020868 0.331577 0.001844
   vertex 0.023012 0.333486 0.002505
  endloop
 endfacet
 facet normal -0.207851 0.343516 -0.915858
  outer loop
   vertex 0.024564 0.328709 -0.000599
   vertex 0.021722 0.328949 0.000136
   vertex 0.023715 0.33132 0.000573
  endloop
 endfacet
 facet normal -0.393627 0.662685 -0.637108
  outer loop
   vertex 0.023012 0.333486 0.002505
   vertex 0.020868 0.331577 0.001844
   vertex 0.0205 0.333486 0.004057
  endloop
 endfacet
 facet normal -0.551379 0.584158 -0.595601
  outer loop
   vertex 0.020868 0.331577 0.001844
   vertex 0.018458 0.33132 0.003823
   vertex 0.0205 0.333486 0.004057
  endloop
 endfacet
 facet normal -0.334054 0.43492 -0.836213
  outer loop
   vertex 0.023715 0.33132 0.000573
   vertex 0.021722 0.328949 0.000136
   vertex 0.020868 0.331577 0.001844
  endloop
 endfacet
 facet normal -0.491058 0.356895 -0.794662
  outer loop
   vertex 0.021722 0.328949 0.000136
   vertex 0.018958 0.328949 0.001844
   vertex 0.020868 0.331577 0.001844
  endloop
 endfacet
 facet normal -0.598657 0.435097 -0.672533
  outer loop
   vertex 0.020868 0.331577 0.001844
   vertex 0.018958 0.328949 0.001844
   vertex 0.018458 0.33132 0.003823
  endloop
 endfacet
 facet normal -0.725985 0.343961 -0.595514
  outer loop
   vertex 0.018958 0.328949 0.001844
   vertex 0.017029 0.328709 0.004057
   vertex 0.018458 0.33132 0.003823
  endloop
 endfacet
 facet normal -0.233325 0.169451 -0.957521
  outer loop
   vertex 0.024564 0.328709 -0.000599
   vertex 0.022829 0.32632 -0.000599
   vertex 0.021722 0.328949 0.000136
  endloop
 endfacet
 facet normal -0.390899 0.0914587 -0.915878
  outer loop
   vertex 0.022829 0.32632 -0.000599
   vertex 0.020083 0.32632 0.000573
   vertex 0.021722 0.328949 0.000136
  endloop
 endfacet
 facet normal -0.516783 0.183167 -0.836293
  outer loop
   vertex 0.021722 0.328949 0.000136
   vertex 0.020083 0.32632 0.000573
   vertex 0.018958 0.328949 0.001844
  endloop
 endfacet
 facet normal -0.644269 0.0913996 -0.759317
  outer loop
   vertex 0.020083 0.32632 0.000573
   vertex 0.017806 0.32632 0.002505
   vertex 0.018958 0.328949 0.001844
  endloop
 endfacet
 facet normal -0.751958 0.169318 -0.637095
  outer loop
   vertex 0.018958 0.328949 0.001844
   vertex 0.017806 0.32632 0.002505
   vertex 0.017029 0.328709 0.004057
  endloop
 endfacet
 facet normal -0.827124 0.091254 -0.554562
  outer loop
   vertex 0.017806 0.32632 0.002505
   vertex 0.016396 0.32632 0.004608
   vertex 0.017029 0.328709 0.004057
  endloop
 endfacet
 facet normal -0.827124 -0.091254 -0.554562
  outer loop
   vertex 0.017806 0.32632 0.002505
   vertex 0.017029 0.323931 0.004057
   vertex 0.016396 0.32632 0.004608
  endloop
 endfacet
 facet normal -0.644269 -0.0913996 -0.759317
  outer loop
   vertex 0.020083 0.32632 0.000573
   vertex 0.018958 0.323691 0.001844
   vertex 0.017806 0.32632 0.002505
  endloop
 endfacet
 facet normal -0.390899 -0.0914587 -0.915878
  outer loop
   vertex 0.022829 0.32632 -0.000599
   vertex 0.021722 0.323691 0.000136
   vertex 0.020083 0.32632 0.000573
  endloop
 endfacet
 facet normal -0.751958 -0.169318 -0.637095
  outer loop
   vertex 0.017806 0.32632 0.002505
   vertex 0.018958 0.323691 0.001844
   vertex 0.017029 0.323931 0.004057
  endloop
 endfacet
 facet normal -0.725985 -0.343961 -0.595514
  outer loop
   vertex 0.018958 0.323691 0.001844
   vertex 0.018458 0.32132 0.003823
   vertex 0.017029 0.323931 0.004057
  endloop
 endfacet
 facet normal -0.516783 -0.183167 -0.836293
  outer loop
   vertex 0.020083 0.32632 0.000573
   vertex 0.021722 0.323691 0.000136
   vertex 0.018958 0.323691 0.001844
  endloop
 endfacet
 facet normal -0.491058 -0.356895 -0.794662
  outer loop
   vertex 0.021722 0.323691 0.000136
   vertex 0.020868 0.321063 0.001844
   vertex 0.018958 0.323691 0.001844
  endloop
 endfacet
 facet normal -0.598657 -0.435097 -0.672533
  outer loop
   vertex 0.018958 0.323691 0.001844
   vertex 0.020868 0.321063 0.001844
   vertex 0.018458 0.32132 0.003823
  endloop
 endfacet
 facet normal -0.551379 -0.584158 -0.595601
  outer loop
   vertex 0.020868 0.321063 0.001844
   vertex 0.0205 0.319154 0.004057
   vertex 0.018458 0.32132 0.003823
  endloop
 endfacet
 facet normal -0.233325 -0.169451 -0.957521
  outer loop
   vertex 0.022829 0.32632 -0.000599
   vertex 0.024564 0.323931 -0.000599
   vertex 0.021722 0.323691 0.000136
  endloop
 endfacet
 facet normal -0.207851 -0.343516 -0.915858
  outer loop
   vertex 0.024564 0.323931 -0.000599
   vertex 0.023715 0.32132 0.000573
   vertex 0.021722 0.323691 0.000136
  endloop
 endfacet
 facet normal -0.334054 -0.43492 -0.836213
  outer loop
   vertex 0.021722 0.323691 0.000136
   vertex 0.023715 0.32132 0.000573
   vertex 0.020868 0.321063 0.001844
  endloop
 endfacet
 facet normal -0.286233 -0.584386 -0.759318
  outer loop
   vertex 0.023715 0.32132 0.000573
   vertex 0.023012 0.319154 0.002505
   vertex 0.020868 0.321063 0.001844
  endloop
 endfacet
 facet normal -0.393627 -0.662685 -0.637108
  outer loop
   vertex 0.020868 0.321063 0.001844
   vertex 0.023012 0.319154 0.002505
   vertex 0.0205 0.319154 0.004057
  endloop
 endfacet
 facet normal -0.342493 -0.758552 -0.554344
  outer loop
   vertex 0.023012 0.319154 0.002505
   vertex 0.022576 0.317814 0.004608
   vertex 0.0205 0.319154 0.004057
  endloop
 endfacet
 facet normal 0.723015 0.412034 -0.554506
  outer loop
   vertex 0.033467 0.329272 0.004057
   vertex 0.031435 0.330749 0.002505
   vertex 0.032576 0.331577 0.004608
  endloop
 endfacet
 facet normal 0.789589 0.148568 -0.59538
  outer loop
   vertex 0.033846 0.32632 0.003823
   vertex 0.032048 0.327945 0.001844
   vertex 0.033467 0.329272 0.004057
  endloop
 endfacet
 facet normal 0.789589 -0.148568 -0.59538
  outer loop
   vertex 0.033467 0.323368 0.004057
   vertex 0.032048 0.324695 0.001844
   vertex 0.033846 0.32632 0.003823
  endloop
 endfacet
 facet normal 0.708089 0.304936 -0.636886
  outer loop
   vertex 0.033467 0.329272 0.004057
   vertex 0.032048 0.327945 0.001844
   vertex 0.031435 0.330749 0.002505
  endloop
 endfacet
 facet normal 0.574948 0.304695 -0.759339
  outer loop
   vertex 0.032048 0.327945 0.001844
   vertex 0.029593 0.32941 0.000573
   vertex 0.031435 0.330749 0.002505
  endloop
 endfacet
 facet normal 0.740143 0 -0.672449
  outer loop
   vertex 0.033846 0.32632 0.003823
   vertex 0.032048 0.324695 0.001844
   vertex 0.032048 0.327945 0.001844
  endloop
 endfacet
 facet normal 0.607028 0 -0.794681
  outer loop
   vertex 0.032048 0.324695 0.001844
   vertex 0.029812 0.32632 0.000136
   vertex 0.032048 0.327945 0.001844
  endloop
 endfacet
 facet normal 0.525774 0.155534 -0.836284
  outer loop
   vertex 0.032048 0.327945 0.001844
   vertex 0.029812 0.32632 0.000136
   vertex 0.029593 0.32941 0.000573
  endloop
 endfacet
 facet normal 0.370096 0.155752 -0.915844
  outer loop
   vertex 0.029812 0.32632 0.000136
   vertex 0.027372 0.327796 -0.000599
   vertex 0.029593 0.32941 0.000573
  endloop
 endfacet
 facet normal 0.708089 -0.304936 -0.636886
  outer loop
   vertex 0.033467 0.323368 0.004057
   vertex 0.031435 0.321891 0.002505
   vertex 0.032048 0.324695 0.001844
  endloop
 endfacet
 facet normal 0.574948 -0.304695 -0.759339
  outer loop
   vertex 0.031435 0.321891 0.002505
   vertex 0.029593 0.32323 0.000573
   vertex 0.032048 0.324695 0.001844
  endloop
 endfacet
 facet normal 0.525774 -0.155534 -0.836284
  outer loop
   vertex 0.032048 0.324695 0.001844
   vertex 0.029593 0.32323 0.000573
   vertex 0.029812 0.32632 0.000136
  endloop
 endfacet
 facet normal 0.370096 -0.155752 -0.915844
  outer loop
   vertex 0.029593 0.32323 0.000573
   vertex 0.027372 0.324844 -0.000599
   vertex 0.029812 0.32632 0.000136
  endloop
 endfacet
 facet normal 0.288428 0 -0.957502
  outer loop
   vertex 0.029812 0.32632 0.000136
   vertex 0.027372 0.324844 -0.000599
   vertex 0.027372 0.327796 -0.000599
  endloop
 endfacet
 facet normal 0.156037 0 -0.987751
  outer loop
   vertex 0.027372 0.324844 -0.000599
   vertex 0.02534 0.32632 -0.00092
   vertex 0.027372 0.327796 -0.000599
  endloop
 endfacet
 facet normal -0.168666 -0.815046 -0.554303
  outer loop
   vertex 0.023012 0.319154 0.002505
   vertex 0.025044 0.317678 0.004057
   vertex 0.022576 0.317814 0.004608
  endloop
 endfacet
 facet normal -0.112009 -0.640965 -0.759354
  outer loop
   vertex 0.023715 0.32132 0.000573
   vertex 0.025868 0.319438 0.001844
   vertex 0.023012 0.319154 0.002505
  endloop
 endfacet
 facet normal -0.0336945 -0.400135 -0.915836
  outer loop
   vertex 0.024564 0.323931 -0.000599
   vertex 0.026722 0.322067 0.000136
   vertex 0.023715 0.32132 0.000573
  endloop
 endfacet
 facet normal -0.0710868 -0.767617 -0.636955
  outer loop
   vertex 0.023012 0.319154 0.002505
   vertex 0.025868 0.319438 0.001844
   vertex 0.025044 0.317678 0.004057
  endloop
 endfacet
 facet normal 0.102735 -0.796801 -0.595444
  outer loop
   vertex 0.025868 0.319438 0.001844
   vertex 0.027969 0.31823 0.003823
   vertex 0.025044 0.317678 0.004057
  endloop
 endfacet
 facet normal 0.0146149 -0.548074 -0.836302
  outer loop
   vertex 0.023715 0.32132 0.000573
   vertex 0.026722 0.322067 0.000136
   vertex 0.025868 0.319438 0.001844
  endloop
 endfacet
 facet normal 0.187559 -0.577248 -0.794737
  outer loop
   vertex 0.026722 0.322067 0.000136
   vertex 0.028958 0.320442 0.001844
   vertex 0.025868 0.319438 0.001844
  endloop
 endfacet
 facet normal 0.228709 -0.703897 -0.672474
  outer loop
   vertex 0.025868 0.319438 0.001844
   vertex 0.028958 0.320442 0.001844
   vertex 0.027969 0.31823 0.003823
  endloop
 endfacet
 facet normal 0.38541 -0.704977 -0.595371
  outer loop
   vertex 0.028958 0.320442 0.001844
   vertex 0.030659 0.319503 0.004057
   vertex 0.027969 0.31823 0.003823
  endloop
 endfacet
 facet normal 0.0891868 -0.274301 -0.957499
  outer loop
   vertex 0.024564 0.323931 -0.000599
   vertex 0.027372 0.324844 -0.000599
   vertex 0.026722 0.322067 0.000136
  endloop
 endfacet
 facet normal 0.262485 -0.303841 -0.915851
  outer loop
   vertex 0.027372 0.324844 -0.000599
   vertex 0.029593 0.32323 0.000573
   vertex 0.026722 0.322067 0.000136
  endloop
 endfacet
 facet normal 0.310374 -0.451949 -0.836307
  outer loop
   vertex 0.026722 0.322067 0.000136
   vertex 0.029593 0.32323 0.000573
   vertex 0.028958 0.320442 0.001844
  endloop
 endfacet
 facet normal 0.467426 -0.452641 -0.759361
  outer loop
   vertex 0.029593 0.32323 0.000573
   vertex 0.031435 0.321891 0.002505
   vertex 0.028958 0.320442 0.001844
  endloop
 endfacet
 facet normal 0.508799 -0.579247 -0.636864
  outer loop
   vertex 0.028958 0.320442 0.001844
   vertex 0.031435 0.321891 0.002505
   vertex 0.030659 0.319503 0.004057
  endloop
 endfacet
 facet normal 0.61533 -0.560308 -0.554459
  outer loop
   vertex 0.031435 0.321891 0.002505
   vertex 0.032576 0.321063 0.004608
   vertex 0.030659 0.319503 0.004057
  endloop
 endfacet
endsolid ExportedfromBlender-3.5.1
