solid ExportedfromBlender-3.5.1
 facet normal 0.0482486 -0.148392 -0.987751
  outer loop
   vertex -0.0211 0.28056 0.01677
   vertex -0.019068 0.279084 0.017091
   vertex -0.021876 0.278171 0.017091
  endloop
 endfacet
 facet normal 0.723015 -0.412034 -0.554506
  outer loop
   vertex -0.013864 0.275303 0.022298
   vertex -0.015005 0.276131 0.020195
   vertex -0.012973 0.277608 0.021747
  endloop
 endfacet
 facet normal -0.126271 -0.0917039 -0.987748
  outer loop
   vertex -0.0211 0.28056 0.01677
   vertex -0.021876 0.278171 0.017091
   vertex -0.023611 0.28056 0.017091
  endloop
 endfacet
 facet normal -0.126271 0.0917039 -0.987748
  outer loop
   vertex -0.0211 0.28056 0.01677
   vertex -0.023611 0.28056 0.017091
   vertex -0.021876 0.282949 0.017091
  endloop
 endfacet
 facet normal 0.0482486 0.148392 -0.987751
  outer loop
   vertex -0.0211 0.28056 0.01677
   vertex -0.021876 0.282949 0.017091
   vertex -0.019068 0.282036 0.017091
  endloop
 endfacet
 facet normal 0.819189 -0.412026 -0.398954
  outer loop
   vertex -0.013864 0.275303 0.022298
   vertex -0.012973 0.277608 0.021747
   vertex -0.012493 0.276131 0.024258
  endloop
 endfacet
 facet normal -0.138975 -0.90647 -0.398746
  outer loop
   vertex -0.023864 0.272054 0.022298
   vertex -0.021396 0.271918 0.021747
   vertex -0.022652 0.271006 0.024258
  endloop
 endfacet
 facet normal -0.905177 -0.147939 -0.398459
  outer loop
   vertex -0.030044 0.28056 0.022298
   vertex -0.029411 0.278171 0.021747
   vertex -0.030666 0.279084 0.024259
  endloop
 endfacet
 facet normal -0.420269 0.815078 -0.398776
  outer loop
   vertex -0.023864 0.289066 0.022298
   vertex -0.02594 0.287726 0.021747
   vertex -0.02546 0.289202 0.024258
  endloop
 endfacet
 facet normal 0.645038 0.651744 -0.398942
  outer loop
   vertex -0.013864 0.285817 0.022298
   vertex -0.015781 0.287377 0.021747
   vertex -0.014228 0.287377 0.024258
  endloop
 endfacet
 facet normal 0.771063 -0.560215 -0.302688
  outer loop
   vertex -0.013864 0.275303 0.022298
   vertex -0.012493 0.276131 0.024258
   vertex -0.014228 0.273743 0.024258
  endloop
 endfacet
 facet normal -0.294416 -0.906493 -0.302638
  outer loop
   vertex -0.023864 0.272054 0.022298
   vertex -0.022652 0.271006 0.024258
   vertex -0.02546 0.271918 0.024258
  endloop
 endfacet
 facet normal -0.9532 0 -0.302341
  outer loop
   vertex -0.030044 0.28056 0.022298
   vertex -0.030666 0.279084 0.024259
   vertex -0.030666 0.282036 0.024259
  endloop
 endfacet
 facet normal -0.294416 0.906493 -0.302638
  outer loop
   vertex -0.023864 0.289066 0.022298
   vertex -0.02546 0.289202 0.024258
   vertex -0.022652 0.290114 0.024258
  endloop
 endfacet
 facet normal 0.771063 0.560215 -0.302688
  outer loop
   vertex -0.013864 0.285817 0.022298
   vertex -0.014228 0.287377 0.024258
   vertex -0.012493 0.284989 0.024258
  endloop
 endfacet
 facet normal 0.342493 -0.758552 0.554344
  outer loop
   vertex -0.018336 0.272054 0.031242
   vertex -0.01626 0.273394 0.031793
   vertex -0.018772 0.273394 0.033345
  endloop
 endfacet
 facet normal -0.61533 -0.560308 0.554459
  outer loop
   vertex -0.028336 0.275303 0.031242
   vertex -0.026419 0.273743 0.031793
   vertex -0.027195 0.276131 0.033345
  endloop
 endfacet
 facet normal -0.723015 0.412034 0.554506
  outer loop
   vertex -0.028336 0.285817 0.031242
   vertex -0.029227 0.283512 0.031793
   vertex -0.027195 0.284989 0.033345
  endloop
 endfacet
 facet normal 0.168666 0.815046 0.554303
  outer loop
   vertex -0.018336 0.289066 0.031242
   vertex -0.020804 0.289202 0.031793
   vertex -0.018772 0.287726 0.033345
  endloop
 endfacet
 facet normal 0.827124 0.091254 0.554562
  outer loop
   vertex -0.012156 0.28056 0.031242
   vertex -0.012789 0.282949 0.031793
   vertex -0.013566 0.28056 0.033345
  endloop
 endfacet
 facet normal 0.126271 0.0917039 0.987748
  outer loop
   vertex -0.018589 0.28056 0.036449
   vertex -0.020324 0.282949 0.036449
   vertex -0.0211 0.28056 0.03677
  endloop
 endfacet
 facet normal 0.390899 0.0914587 0.915878
  outer loop
   vertex -0.015843 0.28056 0.035277
   vertex -0.017482 0.283189 0.035714
   vertex -0.018589 0.28056 0.036449
  endloop
 endfacet
 facet normal 0.644269 0.0913996 0.759317
  outer loop
   vertex -0.013566 0.28056 0.033345
   vertex -0.014718 0.283189 0.034006
   vertex -0.015843 0.28056 0.035277
  endloop
 endfacet
 facet normal 0.233325 0.169451 0.957521
  outer loop
   vertex -0.018589 0.28056 0.036449
   vertex -0.017482 0.283189 0.035714
   vertex -0.020324 0.282949 0.036449
  endloop
 endfacet
 facet normal 0.207851 0.343516 0.915858
  outer loop
   vertex -0.017482 0.283189 0.035714
   vertex -0.019475 0.28556 0.035277
   vertex -0.020324 0.282949 0.036449
  endloop
 endfacet
 facet normal 0.516783 0.183167 0.836293
  outer loop
   vertex -0.015843 0.28056 0.035277
   vertex -0.014718 0.283189 0.034006
   vertex -0.017482 0.283189 0.035714
  endloop
 endfacet
 facet normal 0.491058 0.356895 0.794662
  outer loop
   vertex -0.014718 0.283189 0.034006
   vertex -0.016628 0.285817 0.034006
   vertex -0.017482 0.283189 0.035714
  endloop
 endfacet
 facet normal 0.334054 0.43492 0.836213
  outer loop
   vertex -0.017482 0.283189 0.035714
   vertex -0.016628 0.285817 0.034006
   vertex -0.019475 0.28556 0.035277
  endloop
 endfacet
 facet normal 0.286233 0.584386 0.759318
  outer loop
   vertex -0.016628 0.285817 0.034006
   vertex -0.018772 0.287726 0.033345
   vertex -0.019475 0.28556 0.035277
  endloop
 endfacet
 facet normal 0.751958 0.169318 0.637095
  outer loop
   vertex -0.013566 0.28056 0.033345
   vertex -0.012789 0.282949 0.031793
   vertex -0.014718 0.283189 0.034006
  endloop
 endfacet
 facet normal 0.725985 0.343961 0.595514
  outer loop
   vertex -0.012789 0.282949 0.031793
   vertex -0.014218 0.28556 0.032027
   vertex -0.014718 0.283189 0.034006
  endloop
 endfacet
 facet normal 0.598657 0.435097 0.672533
  outer loop
   vertex -0.014718 0.283189 0.034006
   vertex -0.014218 0.28556 0.032027
   vertex -0.016628 0.285817 0.034006
  endloop
 endfacet
 facet normal 0.551379 0.584158 0.595601
  outer loop
   vertex -0.014218 0.28556 0.032027
   vertex -0.01626 0.287726 0.031793
   vertex -0.016628 0.285817 0.034006
  endloop
 endfacet
 facet normal 0.393627 0.662685 0.637108
  outer loop
   vertex -0.016628 0.285817 0.034006
   vertex -0.01626 0.287726 0.031793
   vertex -0.018772 0.287726 0.033345
  endloop
 endfacet
 facet normal 0.342493 0.758552 0.554344
  outer loop
   vertex -0.01626 0.287726 0.031793
   vertex -0.018336 0.289066 0.031242
   vertex -0.018772 0.287726 0.033345
  endloop
 endfacet
 facet normal -0.0482486 0.148392 0.987751
  outer loop
   vertex -0.020324 0.282949 0.036449
   vertex -0.023132 0.282036 0.036449
   vertex -0.0211 0.28056 0.03677
  endloop
 endfacet
 facet normal 0.0336945 0.400135 0.915836
  outer loop
   vertex -0.019475 0.28556 0.035277
   vertex -0.022482 0.284813 0.035714
   vertex -0.020324 0.282949 0.036449
  endloop
 endfacet
 facet normal 0.112009 0.640965 0.759354
  outer loop
   vertex -0.018772 0.287726 0.033345
   vertex -0.021628 0.287442 0.034006
   vertex -0.019475 0.28556 0.035277
  endloop
 endfacet
 facet normal -0.0891868 0.274301 0.957499
  outer loop
   vertex -0.020324 0.282949 0.036449
   vertex -0.022482 0.284813 0.035714
   vertex -0.023132 0.282036 0.036449
  endloop
 endfacet
 facet normal -0.262485 0.303841 0.915851
  outer loop
   vertex -0.022482 0.284813 0.035714
   vertex -0.025353 0.28365 0.035277
   vertex -0.023132 0.282036 0.036449
  endloop
 endfacet
 facet normal -0.0146149 0.548074 0.836302
  outer loop
   vertex -0.019475 0.28556 0.035277
   vertex -0.021628 0.287442 0.034006
   vertex -0.022482 0.284813 0.035714
  endloop
 endfacet
 facet normal -0.187559 0.577248 0.794737
  outer loop
   vertex -0.021628 0.287442 0.034006
   vertex -0.024718 0.286438 0.034006
   vertex -0.022482 0.284813 0.035714
  endloop
 endfacet
 facet normal -0.310374 0.451949 0.836307
  outer loop
   vertex -0.022482 0.284813 0.035714
   vertex -0.024718 0.286438 0.034006
   vertex -0.025353 0.28365 0.035277
  endloop
 endfacet
 facet normal -0.467426 0.452641 0.759361
  outer loop
   vertex -0.024718 0.286438 0.034006
   vertex -0.027195 0.284989 0.033345
   vertex -0.025353 0.28365 0.035277
  endloop
 endfacet
 facet normal 0.0710868 0.767617 0.636955
  outer loop
   vertex -0.018772 0.287726 0.033345
   vertex -0.020804 0.289202 0.031793
   vertex -0.021628 0.287442 0.034006
  endloop
 endfacet
 facet normal -0.102735 0.796801 0.595444
  outer loop
   vertex -0.020804 0.289202 0.031793
   vertex -0.023729 0.28865 0.032027
   vertex -0.021628 0.287442 0.034006
  endloop
 endfacet
 facet normal -0.228709 0.703897 0.672474
  outer loop
   vertex -0.021628 0.287442 0.034006
   vertex -0.023729 0.28865 0.032027
   vertex -0.024718 0.286438 0.034006
  endloop
 endfacet
 facet normal -0.38541 0.704977 0.595371
  outer loop
   vertex -0.023729 0.28865 0.032027
   vertex -0.026419 0.287377 0.031793
   vertex -0.024718 0.286438 0.034006
  endloop
 endfacet
 facet normal -0.508799 0.579247 0.636864
  outer loop
   vertex -0.024718 0.286438 0.034006
   vertex -0.026419 0.287377 0.031793
   vertex -0.027195 0.284989 0.033345
  endloop
 endfacet
 facet normal -0.61533 0.560308 0.554459
  outer loop
   vertex -0.026419 0.287377 0.031793
   vertex -0.028336 0.285817 0.031242
   vertex -0.027195 0.284989 0.033345
  endloop
 endfacet
 facet normal -0.156037 0 0.987751
  outer loop
   vertex -0.023132 0.282036 0.036449
   vertex -0.023132 0.279084 0.036449
   vertex -0.0211 0.28056 0.03677
  endloop
 endfacet
 facet normal -0.370096 0.155752 0.915844
  outer loop
   vertex -0.025353 0.28365 0.035277
   vertex -0.025572 0.28056 0.035714
   vertex -0.023132 0.282036 0.036449
  endloop
 endfacet
 facet normal -0.574948 0.304695 0.759339
  outer loop
   vertex -0.027195 0.284989 0.033345
   vertex -0.027808 0.282185 0.034006
   vertex -0.025353 0.28365 0.035277
  endloop
 endfacet
 facet normal -0.288428 0 0.957502
  outer loop
   vertex -0.023132 0.282036 0.036449
   vertex -0.025572 0.28056 0.035714
   vertex -0.023132 0.279084 0.036449
  endloop
 endfacet
 facet normal -0.370096 -0.155752 0.915844
  outer loop
   vertex -0.025572 0.28056 0.035714
   vertex -0.025353 0.27747 0.035277
   vertex -0.023132 0.279084 0.036449
  endloop
 endfacet
 facet normal -0.525774 0.155534 0.836284
  outer loop
   vertex -0.025353 0.28365 0.035277
   vertex -0.027808 0.282185 0.034006
   vertex -0.025572 0.28056 0.035714
  endloop
 endfacet
 facet normal -0.607028 0 0.794681
  outer loop
   vertex -0.027808 0.282185 0.034006
   vertex -0.027808 0.278935 0.034006
   vertex -0.025572 0.28056 0.035714
  endloop
 endfacet
 facet normal -0.525774 -0.155534 0.836284
  outer loop
   vertex -0.025572 0.28056 0.035714
   vertex -0.027808 0.278935 0.034006
   vertex -0.025353 0.27747 0.035277
  endloop
 endfacet
 facet normal -0.574948 -0.304695 0.759339
  outer loop
   vertex -0.027808 0.278935 0.034006
   vertex -0.027195 0.276131 0.033345
   vertex -0.025353 0.27747 0.035277
  endloop
 endfacet
 facet normal -0.708089 0.304936 0.636886
  outer loop
   vertex -0.027195 0.284989 0.033345
   vertex -0.029227 0.283512 0.031793
   vertex -0.027808 0.282185 0.034006
  endloop
 endfacet
 facet normal -0.789589 0.148568 0.59538
  outer loop
   vertex -0.029227 0.283512 0.031793
   vertex -0.029606 0.28056 0.032027
   vertex -0.027808 0.282185 0.034006
  endloop
 endfacet
 facet normal -0.740143 0 0.672449
  outer loop
   vertex -0.027808 0.282185 0.034006
   vertex -0.029606 0.28056 0.032027
   vertex -0.027808 0.278935 0.034006
  endloop
 endfacet
 facet normal -0.789589 -0.148568 0.59538
  outer loop
   vertex -0.029606 0.28056 0.032027
   vertex -0.029227 0.277608 0.031793
   vertex -0.027808 0.278935 0.034006
  endloop
 endfacet
 facet normal -0.708089 -0.304936 0.636886
  outer loop
   vertex -0.027808 0.278935 0.034006
   vertex -0.029227 0.277608 0.031793
   vertex -0.027195 0.276131 0.033345
  endloop
 endfacet
 facet normal -0.723015 -0.412034 0.554506
  outer loop
   vertex -0.029227 0.277608 0.031793
   vertex -0.028336 0.275303 0.031242
   vertex -0.027195 0.276131 0.033345
  endloop
 endfacet
 facet normal -0.0482486 -0.148392 0.987751
  outer loop
   vertex -0.023132 0.279084 0.036449
   vertex -0.020324 0.278171 0.036449
   vertex -0.0211 0.28056 0.03677
  endloop
 endfacet
 facet normal -0.262485 -0.303841 0.915851
  outer loop
   vertex -0.025353 0.27747 0.035277
   vertex -0.022482 0.276307 0.035714
   vertex -0.023132 0.279084 0.036449
  endloop
 endfacet
 facet normal -0.467426 -0.452641 0.759361
  outer loop
   vertex -0.027195 0.276131 0.033345
   vertex -0.024718 0.274682 0.034006
   vertex -0.025353 0.27747 0.035277
  endloop
 endfacet
 facet normal -0.0891868 -0.274301 0.957499
  outer loop
   vertex -0.023132 0.279084 0.036449
   vertex -0.022482 0.276307 0.035714
   vertex -0.020324 0.278171 0.036449
  endloop
 endfacet
 facet normal 0.0336945 -0.400135 0.915836
  outer loop
   vertex -0.022482 0.276307 0.035714
   vertex -0.019475 0.27556 0.035277
   vertex -0.020324 0.278171 0.036449
  endloop
 endfacet
 facet normal -0.310374 -0.451949 0.836307
  outer loop
   vertex -0.025353 0.27747 0.035277
   vertex -0.024718 0.274682 0.034006
   vertex -0.022482 0.276307 0.035714
  endloop
 endfacet
 facet normal -0.187559 -0.577248 0.794737
  outer loop
   vertex -0.024718 0.274682 0.034006
   vertex -0.021628 0.273678 0.034006
   vertex -0.022482 0.276307 0.035714
  endloop
 endfacet
 facet normal -0.0146149 -0.548074 0.836302
  outer loop
   vertex -0.022482 0.276307 0.035714
   vertex -0.021628 0.273678 0.034006
   vertex -0.019475 0.27556 0.035277
  endloop
 endfacet
 facet normal 0.112009 -0.640965 0.759354
  outer loop
   vertex -0.021628 0.273678 0.034006
   vertex -0.018772 0.273394 0.033345
   vertex -0.019475 0.27556 0.035277
  endloop
 endfacet
 facet normal -0.508799 -0.579247 0.636864
  outer loop
   vertex -0.027195 0.276131 0.033345
   vertex -0.026419 0.273743 0.031793
   vertex -0.024718 0.274682 0.034006
  endloop
 endfacet
 facet normal -0.38541 -0.704977 0.595371
  outer loop
   vertex -0.026419 0.273743 0.031793
   vertex -0.023729 0.27247 0.032027
   vertex -0.024718 0.274682 0.034006
  endloop
 endfacet
 facet normal -0.228709 -0.703897 0.672474
  outer loop
   vertex -0.024718 0.274682 0.034006
   vertex -0.023729 0.27247 0.032027
   vertex -0.021628 0.273678 0.034006
  endloop
 endfacet
 facet normal -0.102735 -0.796801 0.595444
  outer loop
   vertex -0.023729 0.27247 0.032027
   vertex -0.020804 0.271918 0.031793
   vertex -0.021628 0.273678 0.034006
  endloop
 endfacet
 facet normal 0.0710868 -0.767617 0.636955
  outer loop
   vertex -0.021628 0.273678 0.034006
   vertex -0.020804 0.271918 0.031793
   vertex -0.018772 0.273394 0.033345
  endloop
 endfacet
 facet normal 0.168666 -0.815046 0.554303
  outer loop
   vertex -0.020804 0.271918 0.031793
   vertex -0.018336 0.272054 0.031242
   vertex -0.018772 0.273394 0.033345
  endloop
 endfacet
 facet normal 0.126271 -0.0917039 0.987748
  outer loop
   vertex -0.020324 0.278171 0.036449
   vertex -0.018589 0.28056 0.036449
   vertex -0.0211 0.28056 0.03677
  endloop
 endfacet
 facet normal 0.207851 -0.343516 0.915858
  outer loop
   vertex -0.019475 0.27556 0.035277
   vertex -0.017482 0.277931 0.035714
   vertex -0.020324 0.278171 0.036449
  endloop
 endfacet
 facet normal 0.286233 -0.584386 0.759318
  outer loop
   vertex -0.018772 0.273394 0.033345
   vertex -0.016628 0.275303 0.034006
   vertex -0.019475 0.27556 0.035277
  endloop
 endfacet
 facet normal 0.233325 -0.169451 0.957521
  outer loop
   vertex -0.020324 0.278171 0.036449
   vertex -0.017482 0.277931 0.035714
   vertex -0.018589 0.28056 0.036449
  endloop
 endfacet
 facet normal 0.390899 -0.0914587 0.915878
  outer loop
   vertex -0.017482 0.277931 0.035714
   vertex -0.015843 0.28056 0.035277
   vertex -0.018589 0.28056 0.036449
  endloop
 endfacet
 facet normal 0.334054 -0.43492 0.836213
  outer loop
   vertex -0.019475 0.27556 0.035277
   vertex -0.016628 0.275303 0.034006
   vertex -0.017482 0.277931 0.035714
  endloop
 endfacet
 facet normal 0.491058 -0.356895 0.794662
  outer loop
   vertex -0.016628 0.275303 0.034006
   vertex -0.014718 0.277931 0.034006
   vertex -0.017482 0.277931 0.035714
  endloop
 endfacet
 facet normal 0.516783 -0.183167 0.836293
  outer loop
   vertex -0.017482 0.277931 0.035714
   vertex -0.014718 0.277931 0.034006
   vertex -0.015843 0.28056 0.035277
  endloop
 endfacet
 facet normal 0.644269 -0.0913996 0.759317
  outer loop
   vertex -0.014718 0.277931 0.034006
   vertex -0.013566 0.28056 0.033345
   vertex -0.015843 0.28056 0.035277
  endloop
 endfacet
 facet normal 0.393627 -0.662685 0.637108
  outer loop
   vertex -0.018772 0.273394 0.033345
   vertex -0.01626 0.273394 0.031793
   vertex -0.016628 0.275303 0.034006
  endloop
 endfacet
 facet normal 0.551379 -0.584158 0.595601
  outer loop
   vertex -0.01626 0.273394 0.031793
   vertex -0.014218 0.27556 0.032027
   vertex -0.016628 0.275303 0.034006
  endloop
 endfacet
 facet normal 0.598657 -0.435097 0.672533
  outer loop
   vertex -0.016628 0.275303 0.034006
   vertex -0.014218 0.27556 0.032027
   vertex -0.014718 0.277931 0.034006
  endloop
 endfacet
 facet normal 0.725985 -0.343961 0.595514
  outer loop
   vertex -0.014218 0.27556 0.032027
   vertex -0.012789 0.278171 0.031793
   vertex -0.014718 0.277931 0.034006
  endloop
 endfacet
 facet normal 0.751958 -0.169318 0.637095
  outer loop
   vertex -0.014718 0.277931 0.034006
   vertex -0.012789 0.278171 0.031793
   vertex -0.013566 0.28056 0.033345
  endloop
 endfacet
 facet normal 0.827124 -0.091254 0.554562
  outer loop
   vertex -0.012789 0.278171 0.031793
   vertex -0.012156 0.28056 0.031242
   vertex -0.013566 0.28056 0.033345
  endloop
 endfacet
 facet normal 0.905177 0.147939 0.398459
  outer loop
   vertex -0.011534 0.282036 0.029281
   vertex -0.012789 0.282949 0.031793
   vertex -0.012156 0.28056 0.031242
  endloop
 endfacet
 facet normal 0.93657 0.303801 0.17476
  outer loop
   vertex -0.011589 0.28365 0.02677
   vertex -0.012482 0.284813 0.029534
   vertex -0.011534 0.282036 0.029281
  endloop
 endfacet
 facet normal 0.888212 0.452708 -0.078331
  outer loop
   vertex -0.012493 0.284989 0.024258
   vertex -0.01301 0.286438 0.02677
   vertex -0.011589 0.28365 0.02677
  endloop
 endfacet
 facet normal 0.89641 0.274294 0.348155
  outer loop
   vertex -0.011534 0.282036 0.029281
   vertex -0.012482 0.284813 0.029534
   vertex -0.012789 0.282949 0.031793
  endloop
 endfacet
 facet normal 0.803858 0.400541 0.439749
  outer loop
   vertex -0.012482 0.284813 0.029534
   vertex -0.014218 0.28556 0.032027
   vertex -0.012789 0.282949 0.031793
  endloop
 endfacet
 facet normal 0.886806 0.451991 0.0963284
  outer loop
   vertex -0.011589 0.28365 0.02677
   vertex -0.01301 0.286438 0.02677
   vertex -0.012482 0.284813 0.029534
  endloop
 endfacet
 facet normal 0.794662 0.577331 0.18762
  outer loop
   vertex -0.01301 0.286438 0.02677
   vertex -0.014392 0.287442 0.029534
   vertex -0.012482 0.284813 0.029534
  endloop
 endfacet
 facet normal 0.754436 0.548107 0.361117
  outer loop
   vertex -0.012482 0.284813 0.029534
   vertex -0.014392 0.287442 0.029534
   vertex -0.014218 0.28556 0.032027
  endloop
 endfacet
 facet normal 0.629279 0.640767 0.439803
  outer loop
   vertex -0.014392 0.287442 0.029534
   vertex -0.01626 0.287726 0.031793
   vertex -0.014218 0.28556 0.032027
  endloop
 endfacet
 facet normal 0.797233 0.579229 -0.170037
  outer loop
   vertex -0.012493 0.284989 0.024258
   vertex -0.014228 0.287377 0.024258
   vertex -0.01301 0.286438 0.02677
  endloop
 endfacet
 facet normal 0.704936 0.704936 -0.0782949
  outer loop
   vertex -0.014228 0.287377 0.024258
   vertex -0.015222 0.28865 0.02677
   vertex -0.01301 0.286438 0.02677
  endloop
 endfacet
 facet normal 0.703824 0.703824 0.0962537
  outer loop
   vertex -0.01301 0.286438 0.02677
   vertex -0.015222 0.28865 0.02677
   vertex -0.014392 0.287442 0.029534
  endloop
 endfacet
 facet normal 0.578519 0.796783 0.174509
  outer loop
   vertex -0.015222 0.28865 0.02677
   vertex -0.01674 0.289202 0.029282
   vertex -0.014392 0.287442 0.029534
  endloop
 endfacet
 facet normal 0.537986 0.767602 0.348366
  outer loop
   vertex -0.014392 0.287442 0.029534
   vertex -0.01674 0.289202 0.029282
   vertex -0.01626 0.287726 0.031793
  endloop
 endfacet
 facet normal 0.420269 0.815078 0.398776
  outer loop
   vertex -0.01674 0.289202 0.029282
   vertex -0.018336 0.289066 0.031242
   vertex -0.01626 0.287726 0.031793
  endloop
 endfacet
 facet normal 0.138975 0.90647 0.398746
  outer loop
   vertex -0.019548 0.290114 0.029282
   vertex -0.020804 0.289202 0.031793
   vertex -0.018336 0.289066 0.031242
  endloop
 endfacet
 facet normal 0.000555151 0.98466 0.174481
  outer loop
   vertex -0.0211 0.29056 0.02677
   vertex -0.022482 0.290071 0.029534
   vertex -0.019548 0.290114 0.029282
  endloop
 endfacet
 facet normal -0.155824 0.984657 -0.07855
  outer loop
   vertex -0.022652 0.290114 0.024258
   vertex -0.02419 0.290071 0.02677
   vertex -0.0211 0.29056 0.02677
  endloop
 endfacet
 facet normal 0.0161962 0.937175 0.348485
  outer loop
   vertex -0.019548 0.290114 0.029282
   vertex -0.022482 0.290071 0.029534
   vertex -0.020804 0.289202 0.031793
  endloop
 endfacet
 facet normal -0.132412 0.888171 0.440021
  outer loop
   vertex -0.022482 0.290071 0.029534
   vertex -0.023729 0.28865 0.032027
   vertex -0.020804 0.289202 0.031793
  endloop
 endfacet
 facet normal -0.155583 0.983133 0.0961419
  outer loop
   vertex -0.0211 0.29056 0.02677
   vertex -0.02419 0.290071 0.02677
   vertex -0.022482 0.290071 0.029534
  endloop
 endfacet
 facet normal -0.303796 0.934059 0.187729
  outer loop
   vertex -0.02419 0.290071 0.02677
   vertex -0.025572 0.289066 0.029534
   vertex -0.022482 0.290071 0.029534
  endloop
 endfacet
 facet normal -0.288415 0.886769 0.361189
  outer loop
   vertex -0.022482 0.290071 0.029534
   vertex -0.025572 0.289066 0.029534
   vertex -0.023729 0.28865 0.032027
  endloop
 endfacet
 facet normal -0.415138 0.796394 0.439791
  outer loop
   vertex -0.025572 0.289066 0.029534
   vertex -0.026419 0.287377 0.031793
   vertex -0.023729 0.28865 0.032027
  endloop
 endfacet
 facet normal -0.304389 0.937197 -0.170322
  outer loop
   vertex -0.022652 0.290114 0.024258
   vertex -0.02546 0.289202 0.024258
   vertex -0.02419 0.290071 0.02677
  endloop
 endfacet
 facet normal -0.452705 0.888208 -0.0783901
  outer loop
   vertex -0.02546 0.289202 0.024258
   vertex -0.026978 0.28865 0.02677
   vertex -0.02419 0.290071 0.02677
  endloop
 endfacet
 facet normal -0.451986 0.886796 0.0964489
  outer loop
   vertex -0.02419 0.290071 0.02677
   vertex -0.026978 0.28865 0.02677
   vertex -0.025572 0.289066 0.029534
  endloop
 endfacet
 facet normal -0.578874 0.796508 0.174584
  outer loop
   vertex -0.026978 0.28865 0.02677
   vertex -0.027972 0.287377 0.029282
   vertex -0.025572 0.289066 0.029534
  endloop
 endfacet
 facet normal -0.563623 0.748876 0.348589
  outer loop
   vertex -0.025572 0.289066 0.029534
   vertex -0.027972 0.287377 0.029282
   vertex -0.026419 0.287377 0.031793
  endloop
 endfacet
 facet normal -0.645038 0.651744 0.398942
  outer loop
   vertex -0.027972 0.287377 0.029282
   vertex -0.028336 0.285817 0.031242
   vertex -0.026419 0.287377 0.031793
  endloop
 endfacet
 facet normal -0.819189 0.412026 0.398954
  outer loop
   vertex -0.029707 0.284989 0.029282
   vertex -0.029227 0.283512 0.031793
   vertex -0.028336 0.285817 0.031242
  endloop
 endfacet
 facet normal -0.936352 0.304548 0.174631
  outer loop
   vertex -0.030611 0.28365 0.02677
   vertex -0.030572 0.282185 0.029534
   vertex -0.029707 0.284989 0.029282
  endloop
 endfacet
 facet normal -0.984653 0.155824 -0.0785916
  outer loop
   vertex -0.030666 0.282036 0.024259
   vertex -0.0311 0.28056 0.02677
   vertex -0.030611 0.28365 0.02677
  endloop
 endfacet
 facet normal -0.886309 0.304753 0.348685
  outer loop
   vertex -0.029707 0.284989 0.029282
   vertex -0.030572 0.282185 0.029534
   vertex -0.029227 0.283512 0.031793
  endloop
 endfacet
 facet normal -0.885615 0.148581 0.440011
  outer loop
   vertex -0.030572 0.282185 0.029534
   vertex -0.029606 0.28056 0.032027
   vertex -0.029227 0.283512 0.031793
  endloop
 endfacet
 facet normal -0.983115 0.15558 0.0963335
  outer loop
   vertex -0.030611 0.28365 0.02677
   vertex -0.0311 0.28056 0.02677
   vertex -0.030572 0.282185 0.029534
  endloop
 endfacet
 facet normal -0.982239 0 0.187634
  outer loop
   vertex -0.0311 0.28056 0.02677
   vertex -0.030572 0.278935 0.029534
   vertex -0.030572 0.282185 0.029534
  endloop
 endfacet
 facet normal -0.932446 0 0.361309
  outer loop
   vertex -0.030572 0.282185 0.029534
   vertex -0.030572 0.278935 0.029534
   vertex -0.029606 0.28056 0.032027
  endloop
 endfacet
 facet normal -0.885615 -0.148581 0.440011
  outer loop
   vertex -0.030572 0.278935 0.029534
   vertex -0.029227 0.277608 0.031793
   vertex -0.029606 0.28056 0.032027
  endloop
 endfacet
 facet normal -0.98539 -0 -0.170314
  outer loop
   vertex -0.030666 0.282036 0.024259
   vertex -0.030666 0.279084 0.024259
   vertex -0.0311 0.28056 0.02677
  endloop
 endfacet
 facet normal -0.984653 -0.155824 -0.0785916
  outer loop
   vertex -0.030666 0.279084 0.024259
   vertex -0.030611 0.27747 0.02677
   vertex -0.0311 0.28056 0.02677
  endloop
 endfacet
 facet normal -0.983115 -0.15558 0.0963335
  outer loop
   vertex -0.0311 0.28056 0.02677
   vertex -0.030611 0.27747 0.02677
   vertex -0.030572 0.278935 0.029534
  endloop
 endfacet
 facet normal -0.936352 -0.304548 0.174631
  outer loop
   vertex -0.030611 0.27747 0.02677
   vertex -0.029707 0.276131 0.029282
   vertex -0.030572 0.278935 0.029534
  endloop
 endfacet
 facet normal -0.886309 -0.304753 0.348685
  outer loop
   vertex -0.030572 0.278935 0.029534
   vertex -0.029707 0.276131 0.029282
   vertex -0.029227 0.277608 0.031793
  endloop
 endfacet
 facet normal -0.819189 -0.412026 0.398954
  outer loop
   vertex -0.029707 0.276131 0.029282
   vertex -0.028336 0.275303 0.031242
   vertex -0.029227 0.277608 0.031793
  endloop
 endfacet
 facet normal -0.645038 -0.651744 0.398942
  outer loop
   vertex -0.027972 0.273743 0.029282
   vertex -0.026419 0.273743 0.031793
   vertex -0.028336 0.275303 0.031242
  endloop
 endfacet
 facet normal -0.578874 -0.796508 0.174584
  outer loop
   vertex -0.026978 0.27247 0.02677
   vertex -0.025572 0.272054 0.029534
   vertex -0.027972 0.273743 0.029282
  endloop
 endfacet
 facet normal -0.452705 -0.888208 -0.0783901
  outer loop
   vertex -0.02546 0.271918 0.024258
   vertex -0.02419 0.271049 0.02677
   vertex -0.026978 0.27247 0.02677
  endloop
 endfacet
 facet normal -0.563623 -0.748876 0.348589
  outer loop
   vertex -0.027972 0.273743 0.029282
   vertex -0.025572 0.272054 0.029534
   vertex -0.026419 0.273743 0.031793
  endloop
 endfacet
 facet normal -0.415138 -0.796394 0.439791
  outer loop
   vertex -0.025572 0.272054 0.029534
   vertex -0.023729 0.27247 0.032027
   vertex -0.026419 0.273743 0.031793
  endloop
 endfacet
 facet normal -0.451986 -0.886796 0.0964489
  outer loop
   vertex -0.026978 0.27247 0.02677
   vertex -0.02419 0.271049 0.02677
   vertex -0.025572 0.272054 0.029534
  endloop
 endfacet
 facet normal -0.303796 -0.934059 0.187729
  outer loop
   vertex -0.02419 0.271049 0.02677
   vertex -0.022482 0.271049 0.029534
   vertex -0.025572 0.272054 0.029534
  endloop
 endfacet
 facet normal -0.288415 -0.886769 0.361189
  outer loop
   vertex -0.025572 0.272054 0.029534
   vertex -0.022482 0.271049 0.029534
   vertex -0.023729 0.27247 0.032027
  endloop
 endfacet
 facet normal -0.132412 -0.888171 0.440021
  outer loop
   vertex -0.022482 0.271049 0.029534
   vertex -0.020804 0.271918 0.031793
   vertex -0.023729 0.27247 0.032027
  endloop
 endfacet
 facet normal -0.304389 -0.937197 -0.170322
  outer loop
   vertex -0.02546 0.271918 0.024258
   vertex -0.022652 0.271006 0.024258
   vertex -0.02419 0.271049 0.02677
  endloop
 endfacet
 facet normal -0.155824 -0.984657 -0.07855
  outer loop
   vertex -0.022652 0.271006 0.024258
   vertex -0.0211 0.27056 0.02677
   vertex -0.02419 0.271049 0.02677
  endloop
 endfacet
 facet normal -0.155583 -0.983133 0.0961419
  outer loop
   vertex -0.02419 0.271049 0.02677
   vertex -0.0211 0.27056 0.02677
   vertex -0.022482 0.271049 0.029534
  endloop
 endfacet
 facet normal 0.000555151 -0.98466 0.174481
  outer loop
   vertex -0.0211 0.27056 0.02677
   vertex -0.019548 0.271006 0.029282
   vertex -0.022482 0.271049 0.029534
  endloop
 endfacet
 facet normal 0.0161962 -0.937175 0.348485
  outer loop
   vertex -0.022482 0.271049 0.029534
   vertex -0.019548 0.271006 0.029282
   vertex -0.020804 0.271918 0.031793
  endloop
 endfacet
 facet normal 0.138975 -0.90647 0.398746
  outer loop
   vertex -0.019548 0.271006 0.029282
   vertex -0.018336 0.272054 0.031242
   vertex -0.020804 0.271918 0.031793
  endloop
 endfacet
 facet normal 0.420269 -0.815078 0.398776
  outer loop
   vertex -0.01674 0.271918 0.029282
   vertex -0.01626 0.273394 0.031793
   vertex -0.018336 0.272054 0.031242
  endloop
 endfacet
 facet normal 0.578519 -0.796783 0.174509
  outer loop
   vertex -0.015222 0.27247 0.02677
   vertex -0.014392 0.273678 0.029534
   vertex -0.01674 0.271918 0.029282
  endloop
 endfacet
 facet normal 0.704936 -0.704936 -0.0782949
  outer loop
   vertex -0.014228 0.273743 0.024258
   vertex -0.01301 0.274682 0.02677
   vertex -0.015222 0.27247 0.02677
  endloop
 endfacet
 facet normal 0.537986 -0.767602 0.348366
  outer loop
   vertex -0.01674 0.271918 0.029282
   vertex -0.014392 0.273678 0.029534
   vertex -0.01626 0.273394 0.031793
  endloop
 endfacet
 facet normal 0.629279 -0.640767 0.439803
  outer loop
   vertex -0.014392 0.273678 0.029534
   vertex -0.014218 0.27556 0.032027
   vertex -0.01626 0.273394 0.031793
  endloop
 endfacet
 facet normal 0.703824 -0.703824 0.0962537
  outer loop
   vertex -0.015222 0.27247 0.02677
   vertex -0.01301 0.274682 0.02677
   vertex -0.014392 0.273678 0.029534
  endloop
 endfacet
 facet normal 0.794662 -0.577331 0.18762
  outer loop
   vertex -0.01301 0.274682 0.02677
   vertex -0.012482 0.276307 0.029534
   vertex -0.014392 0.273678 0.029534
  endloop
 endfacet
 facet normal 0.754436 -0.548107 0.361117
  outer loop
   vertex -0.014392 0.273678 0.029534
   vertex -0.012482 0.276307 0.029534
   vertex -0.014218 0.27556 0.032027
  endloop
 endfacet
 facet normal 0.803858 -0.400541 0.439749
  outer loop
   vertex -0.012482 0.276307 0.029534
   vertex -0.012789 0.278171 0.031793
   vertex -0.014218 0.27556 0.032027
  endloop
 endfacet
 facet normal 0.797233 -0.579229 -0.170037
  outer loop
   vertex -0.014228 0.273743 0.024258
   vertex -0.012493 0.276131 0.024258
   vertex -0.01301 0.274682 0.02677
  endloop
 endfacet
 facet normal 0.888212 -0.452708 -0.078331
  outer loop
   vertex -0.012493 0.276131 0.024258
   vertex -0.011589 0.27747 0.02677
   vertex -0.01301 0.274682 0.02677
  endloop
 endfacet
 facet normal 0.886806 -0.451991 0.0963284
  outer loop
   vertex -0.01301 0.274682 0.02677
   vertex -0.011589 0.27747 0.02677
   vertex -0.012482 0.276307 0.029534
  endloop
 endfacet
 facet normal 0.93657 -0.303801 0.17476
  outer loop
   vertex -0.011589 0.27747 0.02677
   vertex -0.011534 0.279084 0.029281
   vertex -0.012482 0.276307 0.029534
  endloop
 endfacet
 facet normal 0.89641 -0.274294 0.348155
  outer loop
   vertex -0.012482 0.276307 0.029534
   vertex -0.011534 0.279084 0.029281
   vertex -0.012789 0.278171 0.031793
  endloop
 endfacet
 facet normal 0.905177 -0.147939 0.398459
  outer loop
   vertex -0.011534 0.279084 0.029281
   vertex -0.012156 0.28056 0.031242
   vertex -0.012789 0.278171 0.031793
  endloop
 endfacet
 facet normal 0.294416 0.906493 0.302638
  outer loop
   vertex -0.01674 0.289202 0.029282
   vertex -0.019548 0.290114 0.029282
   vertex -0.018336 0.289066 0.031242
  endloop
 endfacet
 facet normal 0.452705 0.888208 0.0783901
  outer loop
   vertex -0.015222 0.28865 0.02677
   vertex -0.01801 0.290071 0.02677
   vertex -0.01674 0.289202 0.029282
  endloop
 endfacet
 facet normal 0.578874 0.796508 -0.174584
  outer loop
   vertex -0.014228 0.287377 0.024258
   vertex -0.016628 0.289066 0.024006
   vertex -0.015222 0.28865 0.02677
  endloop
 endfacet
 facet normal 0.304389 0.937197 0.170322
  outer loop
   vertex -0.01674 0.289202 0.029282
   vertex -0.01801 0.290071 0.02677
   vertex -0.019548 0.290114 0.029282
  endloop
 endfacet
 facet normal 0.155824 0.984657 0.07855
  outer loop
   vertex -0.01801 0.290071 0.02677
   vertex -0.0211 0.29056 0.02677
   vertex -0.019548 0.290114 0.029282
  endloop
 endfacet
 facet normal 0.451986 0.886796 -0.0964489
  outer loop
   vertex -0.015222 0.28865 0.02677
   vertex -0.016628 0.289066 0.024006
   vertex -0.01801 0.290071 0.02677
  endloop
 endfacet
 facet normal 0.303796 0.934059 -0.187729
  outer loop
   vertex -0.016628 0.289066 0.024006
   vertex -0.019718 0.290071 0.024006
   vertex -0.01801 0.290071 0.02677
  endloop
 endfacet
 facet normal 0.155583 0.983133 -0.0961419
  outer loop
   vertex -0.01801 0.290071 0.02677
   vertex -0.019718 0.290071 0.024006
   vertex -0.0211 0.29056 0.02677
  endloop
 endfacet
 facet normal -0.000555151 0.98466 -0.174481
  outer loop
   vertex -0.019718 0.290071 0.024006
   vertex -0.022652 0.290114 0.024258
   vertex -0.0211 0.29056 0.02677
  endloop
 endfacet
 facet normal 0.563623 0.748876 -0.348589
  outer loop
   vertex -0.014228 0.287377 0.024258
   vertex -0.015781 0.287377 0.021747
   vertex -0.016628 0.289066 0.024006
  endloop
 endfacet
 facet normal 0.415138 0.796394 -0.439791
  outer loop
   vertex -0.015781 0.287377 0.021747
   vertex -0.018471 0.28865 0.021513
   vertex -0.016628 0.289066 0.024006
  endloop
 endfacet
 facet normal 0.288415 0.886769 -0.361189
  outer loop
   vertex -0.016628 0.289066 0.024006
   vertex -0.018471 0.28865 0.021513
   vertex -0.019718 0.290071 0.024006
  endloop
 endfacet
 facet normal 0.132412 0.888171 -0.440021
  outer loop
   vertex -0.018471 0.28865 0.021513
   vertex -0.021396 0.289202 0.021747
   vertex -0.019718 0.290071 0.024006
  endloop
 endfacet
 facet normal -0.0161962 0.937175 -0.348485
  outer loop
   vertex -0.019718 0.290071 0.024006
   vertex -0.021396 0.289202 0.021747
   vertex -0.022652 0.290114 0.024258
  endloop
 endfacet
 facet normal -0.138975 0.90647 -0.398746
  outer loop
   vertex -0.021396 0.289202 0.021747
   vertex -0.023864 0.289066 0.022298
   vertex -0.022652 0.290114 0.024258
  endloop
 endfacet
 facet normal -0.771063 0.560215 0.302688
  outer loop
   vertex -0.027972 0.287377 0.029282
   vertex -0.029707 0.284989 0.029282
   vertex -0.028336 0.285817 0.031242
  endloop
 endfacet
 facet normal -0.704936 0.704936 0.0782949
  outer loop
   vertex -0.026978 0.28865 0.02677
   vertex -0.02919 0.286438 0.02677
   vertex -0.027972 0.287377 0.029282
  endloop
 endfacet
 facet normal -0.578519 0.796783 -0.174509
  outer loop
   vertex -0.02546 0.289202 0.024258
   vertex -0.027808 0.287442 0.024006
   vertex -0.026978 0.28865 0.02677
  endloop
 endfacet
 facet normal -0.797233 0.579229 0.170037
  outer loop
   vertex -0.027972 0.287377 0.029282
   vertex -0.02919 0.286438 0.02677
   vertex -0.029707 0.284989 0.029282
  endloop
 endfacet
 facet normal -0.888212 0.452708 0.078331
  outer loop
   vertex -0.02919 0.286438 0.02677
   vertex -0.030611 0.28365 0.02677
   vertex -0.029707 0.284989 0.029282
  endloop
 endfacet
 facet normal -0.703824 0.703824 -0.0962537
  outer loop
   vertex -0.026978 0.28865 0.02677
   vertex -0.027808 0.287442 0.024006
   vertex -0.02919 0.286438 0.02677
  endloop
 endfacet
 facet normal -0.794662 0.577331 -0.18762
  outer loop
   vertex -0.027808 0.287442 0.024006
   vertex -0.029718 0.284813 0.024006
   vertex -0.02919 0.286438 0.02677
  endloop
 endfacet
 facet normal -0.886806 0.451991 -0.0963284
  outer loop
   vertex -0.02919 0.286438 0.02677
   vertex -0.029718 0.284813 0.024006
   vertex -0.030611 0.28365 0.02677
  endloop
 endfacet
 facet normal -0.93657 0.303801 -0.17476
  outer loop
   vertex -0.029718 0.284813 0.024006
   vertex -0.030666 0.282036 0.024259
   vertex -0.030611 0.28365 0.02677
  endloop
 endfacet
 facet normal -0.537986 0.767602 -0.348366
  outer loop
   vertex -0.02546 0.289202 0.024258
   vertex -0.02594 0.287726 0.021747
   vertex -0.027808 0.287442 0.024006
  endloop
 endfacet
 facet normal -0.629279 0.640767 -0.439803
  outer loop
   vertex -0.02594 0.287726 0.021747
   vertex -0.027982 0.28556 0.021513
   vertex -0.027808 0.287442 0.024006
  endloop
 endfacet
 facet normal -0.754436 0.548107 -0.361117
  outer loop
   vertex -0.027808 0.287442 0.024006
   vertex -0.027982 0.28556 0.021513
   vertex -0.029718 0.284813 0.024006
  endloop
 endfacet
 facet normal -0.803858 0.400541 -0.439749
  outer loop
   vertex -0.027982 0.28556 0.021513
   vertex -0.029411 0.282949 0.021747
   vertex -0.029718 0.284813 0.024006
  endloop
 endfacet
 facet normal -0.89641 0.274294 -0.348155
  outer loop
   vertex -0.029718 0.284813 0.024006
   vertex -0.029411 0.282949 0.021747
   vertex -0.030666 0.282036 0.024259
  endloop
 endfacet
 facet normal -0.905177 0.147939 -0.398459
  outer loop
   vertex -0.029411 0.282949 0.021747
   vertex -0.030044 0.28056 0.022298
   vertex -0.030666 0.282036 0.024259
  endloop
 endfacet
 facet normal -0.771063 -0.560215 0.302688
  outer loop
   vertex -0.029707 0.276131 0.029282
   vertex -0.027972 0.273743 0.029282
   vertex -0.028336 0.275303 0.031242
  endloop
 endfacet
 facet normal -0.888212 -0.452708 0.078331
  outer loop
   vertex -0.030611 0.27747 0.02677
   vertex -0.02919 0.274682 0.02677
   vertex -0.029707 0.276131 0.029282
  endloop
 endfacet
 facet normal -0.93657 -0.303801 -0.17476
  outer loop
   vertex -0.030666 0.279084 0.024259
   vertex -0.029718 0.276307 0.024006
   vertex -0.030611 0.27747 0.02677
  endloop
 endfacet
 facet normal -0.797233 -0.579229 0.170037
  outer loop
   vertex -0.029707 0.276131 0.029282
   vertex -0.02919 0.274682 0.02677
   vertex -0.027972 0.273743 0.029282
  endloop
 endfacet
 facet normal -0.704936 -0.704936 0.0782949
  outer loop
   vertex -0.02919 0.274682 0.02677
   vertex -0.026978 0.27247 0.02677
   vertex -0.027972 0.273743 0.029282
  endloop
 endfacet
 facet normal -0.886806 -0.451991 -0.0963284
  outer loop
   vertex -0.030611 0.27747 0.02677
   vertex -0.029718 0.276307 0.024006
   vertex -0.02919 0.274682 0.02677
  endloop
 endfacet
 facet normal -0.794662 -0.577331 -0.18762
  outer loop
   vertex -0.029718 0.276307 0.024006
   vertex -0.027808 0.273678 0.024006
   vertex -0.02919 0.274682 0.02677
  endloop
 endfacet
 facet normal -0.703824 -0.703824 -0.0962537
  outer loop
   vertex -0.02919 0.274682 0.02677
   vertex -0.027808 0.273678 0.024006
   vertex -0.026978 0.27247 0.02677
  endloop
 endfacet
 facet normal -0.578519 -0.796783 -0.174509
  outer loop
   vertex -0.027808 0.273678 0.024006
   vertex -0.02546 0.271918 0.024258
   vertex -0.026978 0.27247 0.02677
  endloop
 endfacet
 facet normal -0.89641 -0.274294 -0.348155
  outer loop
   vertex -0.030666 0.279084 0.024259
   vertex -0.029411 0.278171 0.021747
   vertex -0.029718 0.276307 0.024006
  endloop
 endfacet
 facet normal -0.803858 -0.400541 -0.439749
  outer loop
   vertex -0.029411 0.278171 0.021747
   vertex -0.027982 0.27556 0.021513
   vertex -0.029718 0.276307 0.024006
  endloop
 endfacet
 facet normal -0.754436 -0.548107 -0.361117
  outer loop
   vertex -0.029718 0.276307 0.024006
   vertex -0.027982 0.27556 0.021513
   vertex -0.027808 0.273678 0.024006
  endloop
 endfacet
 facet normal -0.629279 -0.640767 -0.439803
  outer loop
   vertex -0.027982 0.27556 0.021513
   vertex -0.02594 0.273394 0.021747
   vertex -0.027808 0.273678 0.024006
  endloop
 endfacet
 facet normal -0.537986 -0.767602 -0.348366
  outer loop
   vertex -0.027808 0.273678 0.024006
   vertex -0.02594 0.273394 0.021747
   vertex -0.02546 0.271918 0.024258
  endloop
 endfacet
 facet normal -0.420269 -0.815078 -0.398776
  outer loop
   vertex -0.02594 0.273394 0.021747
   vertex -0.023864 0.272054 0.022298
   vertex -0.02546 0.271918 0.024258
  endloop
 endfacet
 facet normal 0.294416 -0.906493 0.302638
  outer loop
   vertex -0.019548 0.271006 0.029282
   vertex -0.01674 0.271918 0.029282
   vertex -0.018336 0.272054 0.031242
  endloop
 endfacet
 facet normal 0.155824 -0.984657 0.07855
  outer loop
   vertex -0.0211 0.27056 0.02677
   vertex -0.01801 0.271049 0.02677
   vertex -0.019548 0.271006 0.029282
  endloop
 endfacet
 facet normal -0.000555151 -0.98466 -0.174481
  outer loop
   vertex -0.022652 0.271006 0.024258
   vertex -0.019718 0.271049 0.024006
   vertex -0.0211 0.27056 0.02677
  endloop
 endfacet
 facet normal 0.304389 -0.937197 0.170322
  outer loop
   vertex -0.019548 0.271006 0.029282
   vertex -0.01801 0.271049 0.02677
   vertex -0.01674 0.271918 0.029282
  endloop
 endfacet
 facet normal 0.452705 -0.888208 0.0783901
  outer loop
   vertex -0.01801 0.271049 0.02677
   vertex -0.015222 0.27247 0.02677
   vertex -0.01674 0.271918 0.029282
  endloop
 endfacet
 facet normal 0.155583 -0.983133 -0.0961419
  outer loop
   vertex -0.0211 0.27056 0.02677
   vertex -0.019718 0.271049 0.024006
   vertex -0.01801 0.271049 0.02677
  endloop
 endfacet
 facet normal 0.303796 -0.934059 -0.187729
  outer loop
   vertex -0.019718 0.271049 0.024006
   vertex -0.016628 0.272054 0.024006
   vertex -0.01801 0.271049 0.02677
  endloop
 endfacet
 facet normal 0.451986 -0.886796 -0.0964489
  outer loop
   vertex -0.01801 0.271049 0.02677
   vertex -0.016628 0.272054 0.024006
   vertex -0.015222 0.27247 0.02677
  endloop
 endfacet
 facet normal 0.578874 -0.796508 -0.174584
  outer loop
   vertex -0.016628 0.272054 0.024006
   vertex -0.014228 0.273743 0.024258
   vertex -0.015222 0.27247 0.02677
  endloop
 endfacet
 facet normal -0.0161962 -0.937175 -0.348485
  outer loop
   vertex -0.022652 0.271006 0.024258
   vertex -0.021396 0.271918 0.021747
   vertex -0.019718 0.271049 0.024006
  endloop
 endfacet
 facet normal 0.132412 -0.888171 -0.440021
  outer loop
   vertex -0.021396 0.271918 0.021747
   vertex -0.018471 0.27247 0.021513
   vertex -0.019718 0.271049 0.024006
  endloop
 endfacet
 facet normal 0.288415 -0.886769 -0.361189
  outer loop
   vertex -0.019718 0.271049 0.024006
   vertex -0.018471 0.27247 0.021513
   vertex -0.016628 0.272054 0.024006
  endloop
 endfacet
 facet normal 0.415138 -0.796394 -0.439791
  outer loop
   vertex -0.018471 0.27247 0.021513
   vertex -0.015781 0.273743 0.021747
   vertex -0.016628 0.272054 0.024006
  endloop
 endfacet
 facet normal 0.563623 -0.748876 -0.348589
  outer loop
   vertex -0.016628 0.272054 0.024006
   vertex -0.015781 0.273743 0.021747
   vertex -0.014228 0.273743 0.024258
  endloop
 endfacet
 facet normal 0.645038 -0.651744 -0.398942
  outer loop
   vertex -0.015781 0.273743 0.021747
   vertex -0.013864 0.275303 0.022298
   vertex -0.014228 0.273743 0.024258
  endloop
 endfacet
 facet normal 0.9532 -0 0.302341
  outer loop
   vertex -0.011534 0.279084 0.029281
   vertex -0.011534 0.282036 0.029281
   vertex -0.012156 0.28056 0.031242
  endloop
 endfacet
 facet normal 0.984653 -0.155824 0.0785916
  outer loop
   vertex -0.011589 0.27747 0.02677
   vertex -0.0111 0.28056 0.02677
   vertex -0.011534 0.279084 0.029281
  endloop
 endfacet
 facet normal 0.936352 -0.304548 -0.174631
  outer loop
   vertex -0.012493 0.276131 0.024258
   vertex -0.011628 0.278935 0.024006
   vertex -0.011589 0.27747 0.02677
  endloop
 endfacet
 facet normal 0.98539 -0 0.170314
  outer loop
   vertex -0.011534 0.279084 0.029281
   vertex -0.0111 0.28056 0.02677
   vertex -0.011534 0.282036 0.029281
  endloop
 endfacet
 facet normal 0.984653 0.155824 0.0785916
  outer loop
   vertex -0.0111 0.28056 0.02677
   vertex -0.011589 0.28365 0.02677
   vertex -0.011534 0.282036 0.029281
  endloop
 endfacet
 facet normal 0.983115 -0.15558 -0.0963335
  outer loop
   vertex -0.011589 0.27747 0.02677
   vertex -0.011628 0.278935 0.024006
   vertex -0.0111 0.28056 0.02677
  endloop
 endfacet
 facet normal 0.982239 0 -0.187634
  outer loop
   vertex -0.011628 0.278935 0.024006
   vertex -0.011628 0.282185 0.024006
   vertex -0.0111 0.28056 0.02677
  endloop
 endfacet
 facet normal 0.983115 0.15558 -0.0963335
  outer loop
   vertex -0.0111 0.28056 0.02677
   vertex -0.011628 0.282185 0.024006
   vertex -0.011589 0.28365 0.02677
  endloop
 endfacet
 facet normal 0.936352 0.304548 -0.174631
  outer loop
   vertex -0.011628 0.282185 0.024006
   vertex -0.012493 0.284989 0.024258
   vertex -0.011589 0.28365 0.02677
  endloop
 endfacet
 facet normal 0.886309 -0.304753 -0.348685
  outer loop
   vertex -0.012493 0.276131 0.024258
   vertex -0.012973 0.277608 0.021747
   vertex -0.011628 0.278935 0.024006
  endloop
 endfacet
 facet normal 0.885615 -0.148581 -0.440011
  outer loop
   vertex -0.012973 0.277608 0.021747
   vertex -0.012594 0.28056 0.021513
   vertex -0.011628 0.278935 0.024006
  endloop
 endfacet
 facet normal 0.932446 0 -0.361309
  outer loop
   vertex -0.011628 0.278935 0.024006
   vertex -0.012594 0.28056 0.021513
   vertex -0.011628 0.282185 0.024006
  endloop
 endfacet
 facet normal 0.885615 0.148581 -0.440011
  outer loop
   vertex -0.012594 0.28056 0.021513
   vertex -0.012973 0.283512 0.021747
   vertex -0.011628 0.282185 0.024006
  endloop
 endfacet
 facet normal 0.886309 0.304753 -0.348685
  outer loop
   vertex -0.011628 0.282185 0.024006
   vertex -0.012973 0.283512 0.021747
   vertex -0.012493 0.284989 0.024258
  endloop
 endfacet
 facet normal 0.819189 0.412026 -0.398954
  outer loop
   vertex -0.012973 0.283512 0.021747
   vertex -0.013864 0.285817 0.022298
   vertex -0.012493 0.284989 0.024258
  endloop
 endfacet
 facet normal 0.61533 0.560308 -0.554459
  outer loop
   vertex -0.015005 0.284989 0.020195
   vertex -0.015781 0.287377 0.021747
   vertex -0.013864 0.285817 0.022298
  endloop
 endfacet
 facet normal 0.467426 0.452641 -0.759361
  outer loop
   vertex -0.016847 0.28365 0.018263
   vertex -0.017482 0.286438 0.019534
   vertex -0.015005 0.284989 0.020195
  endloop
 endfacet
 facet normal 0.262485 0.303841 -0.915851
  outer loop
   vertex -0.019068 0.282036 0.017091
   vertex -0.019718 0.284813 0.017826
   vertex -0.016847 0.28365 0.018263
  endloop
 endfacet
 facet normal 0.508799 0.579247 -0.636864
  outer loop
   vertex -0.015005 0.284989 0.020195
   vertex -0.017482 0.286438 0.019534
   vertex -0.015781 0.287377 0.021747
  endloop
 endfacet
 facet normal 0.38541 0.704977 -0.595371
  outer loop
   vertex -0.017482 0.286438 0.019534
   vertex -0.018471 0.28865 0.021513
   vertex -0.015781 0.287377 0.021747
  endloop
 endfacet
 facet normal 0.310374 0.451949 -0.836307
  outer loop
   vertex -0.016847 0.28365 0.018263
   vertex -0.019718 0.284813 0.017826
   vertex -0.017482 0.286438 0.019534
  endloop
 endfacet
 facet normal 0.187559 0.577248 -0.794737
  outer loop
   vertex -0.019718 0.284813 0.017826
   vertex -0.020572 0.287442 0.019534
   vertex -0.017482 0.286438 0.019534
  endloop
 endfacet
 facet normal 0.228709 0.703897 -0.672474
  outer loop
   vertex -0.017482 0.286438 0.019534
   vertex -0.020572 0.287442 0.019534
   vertex -0.018471 0.28865 0.021513
  endloop
 endfacet
 facet normal 0.102735 0.796801 -0.595444
  outer loop
   vertex -0.020572 0.287442 0.019534
   vertex -0.021396 0.289202 0.021747
   vertex -0.018471 0.28865 0.021513
  endloop
 endfacet
 facet normal 0.0891868 0.274301 -0.957499
  outer loop
   vertex -0.019068 0.282036 0.017091
   vertex -0.021876 0.282949 0.017091
   vertex -0.019718 0.284813 0.017826
  endloop
 endfacet
 facet normal -0.0336945 0.400135 -0.915836
  outer loop
   vertex -0.021876 0.282949 0.017091
   vertex -0.022725 0.28556 0.018263
   vertex -0.019718 0.284813 0.017826
  endloop
 endfacet
 facet normal 0.0146149 0.548074 -0.836302
  outer loop
   vertex -0.019718 0.284813 0.017826
   vertex -0.022725 0.28556 0.018263
   vertex -0.020572 0.287442 0.019534
  endloop
 endfacet
 facet normal -0.112009 0.640965 -0.759354
  outer loop
   vertex -0.022725 0.28556 0.018263
   vertex -0.023428 0.287726 0.020195
   vertex -0.020572 0.287442 0.019534
  endloop
 endfacet
 facet normal -0.0710868 0.767617 -0.636955
  outer loop
   vertex -0.020572 0.287442 0.019534
   vertex -0.023428 0.287726 0.020195
   vertex -0.021396 0.289202 0.021747
  endloop
 endfacet
 facet normal -0.168666 0.815046 -0.554303
  outer loop
   vertex -0.023428 0.287726 0.020195
   vertex -0.023864 0.289066 0.022298
   vertex -0.021396 0.289202 0.021747
  endloop
 endfacet
 facet normal -0.342493 0.758552 -0.554344
  outer loop
   vertex -0.023428 0.287726 0.020195
   vertex -0.02594 0.287726 0.021747
   vertex -0.023864 0.289066 0.022298
  endloop
 endfacet
 facet normal -0.286233 0.584386 -0.759318
  outer loop
   vertex -0.022725 0.28556 0.018263
   vertex -0.025572 0.285817 0.019534
   vertex -0.023428 0.287726 0.020195
  endloop
 endfacet
 facet normal -0.207851 0.343516 -0.915858
  outer loop
   vertex -0.021876 0.282949 0.017091
   vertex -0.024718 0.283189 0.017826
   vertex -0.022725 0.28556 0.018263
  endloop
 endfacet
 facet normal -0.393627 0.662685 -0.637108
  outer loop
   vertex -0.023428 0.287726 0.020195
   vertex -0.025572 0.285817 0.019534
   vertex -0.02594 0.287726 0.021747
  endloop
 endfacet
 facet normal -0.551379 0.584158 -0.595601
  outer loop
   vertex -0.025572 0.285817 0.019534
   vertex -0.027982 0.28556 0.021513
   vertex -0.02594 0.287726 0.021747
  endloop
 endfacet
 facet normal -0.334054 0.43492 -0.836213
  outer loop
   vertex -0.022725 0.28556 0.018263
   vertex -0.024718 0.283189 0.017826
   vertex -0.025572 0.285817 0.019534
  endloop
 endfacet
 facet normal -0.491058 0.356895 -0.794662
  outer loop
   vertex -0.024718 0.283189 0.017826
   vertex -0.027482 0.283189 0.019534
   vertex -0.025572 0.285817 0.019534
  endloop
 endfacet
 facet normal -0.598657 0.435097 -0.672533
  outer loop
   vertex -0.025572 0.285817 0.019534
   vertex -0.027482 0.283189 0.019534
   vertex -0.027982 0.28556 0.021513
  endloop
 endfacet
 facet normal -0.725985 0.343961 -0.595514
  outer loop
   vertex -0.027482 0.283189 0.019534
   vertex -0.029411 0.282949 0.021747
   vertex -0.027982 0.28556 0.021513
  endloop
 endfacet
 facet normal -0.233325 0.169451 -0.957521
  outer loop
   vertex -0.021876 0.282949 0.017091
   vertex -0.023611 0.28056 0.017091
   vertex -0.024718 0.283189 0.017826
  endloop
 endfacet
 facet normal -0.390899 0.0914587 -0.915878
  outer loop
   vertex -0.023611 0.28056 0.017091
   vertex -0.026357 0.28056 0.018263
   vertex -0.024718 0.283189 0.017826
  endloop
 endfacet
 facet normal -0.516783 0.183167 -0.836293
  outer loop
   vertex -0.024718 0.283189 0.017826
   vertex -0.026357 0.28056 0.018263
   vertex -0.027482 0.283189 0.019534
  endloop
 endfacet
 facet normal -0.644269 0.0913996 -0.759317
  outer loop
   vertex -0.026357 0.28056 0.018263
   vertex -0.028634 0.28056 0.020195
   vertex -0.027482 0.283189 0.019534
  endloop
 endfacet
 facet normal -0.751958 0.169318 -0.637095
  outer loop
   vertex -0.027482 0.283189 0.019534
   vertex -0.028634 0.28056 0.020195
   vertex -0.029411 0.282949 0.021747
  endloop
 endfacet
 facet normal -0.827124 0.091254 -0.554562
  outer loop
   vertex -0.028634 0.28056 0.020195
   vertex -0.030044 0.28056 0.022298
   vertex -0.029411 0.282949 0.021747
  endloop
 endfacet
 facet normal -0.827124 -0.091254 -0.554562
  outer loop
   vertex -0.028634 0.28056 0.020195
   vertex -0.029411 0.278171 0.021747
   vertex -0.030044 0.28056 0.022298
  endloop
 endfacet
 facet normal -0.644269 -0.0913996 -0.759317
  outer loop
   vertex -0.026357 0.28056 0.018263
   vertex -0.027482 0.277931 0.019534
   vertex -0.028634 0.28056 0.020195
  endloop
 endfacet
 facet normal -0.390899 -0.0914587 -0.915878
  outer loop
   vertex -0.023611 0.28056 0.017091
   vertex -0.024718 0.277931 0.017826
   vertex -0.026357 0.28056 0.018263
  endloop
 endfacet
 facet normal -0.751958 -0.169318 -0.637095
  outer loop
   vertex -0.028634 0.28056 0.020195
   vertex -0.027482 0.277931 0.019534
   vertex -0.029411 0.278171 0.021747
  endloop
 endfacet
 facet normal -0.725985 -0.343961 -0.595514
  outer loop
   vertex -0.027482 0.277931 0.019534
   vertex -0.027982 0.27556 0.021513
   vertex -0.029411 0.278171 0.021747
  endloop
 endfacet
 facet normal -0.516783 -0.183167 -0.836293
  outer loop
   vertex -0.026357 0.28056 0.018263
   vertex -0.024718 0.277931 0.017826
   vertex -0.027482 0.277931 0.019534
  endloop
 endfacet
 facet normal -0.491058 -0.356895 -0.794662
  outer loop
   vertex -0.024718 0.277931 0.017826
   vertex -0.025572 0.275303 0.019534
   vertex -0.027482 0.277931 0.019534
  endloop
 endfacet
 facet normal -0.598657 -0.435097 -0.672533
  outer loop
   vertex -0.027482 0.277931 0.019534
   vertex -0.025572 0.275303 0.019534
   vertex -0.027982 0.27556 0.021513
  endloop
 endfacet
 facet normal -0.551379 -0.584158 -0.595601
  outer loop
   vertex -0.025572 0.275303 0.019534
   vertex -0.02594 0.273394 0.021747
   vertex -0.027982 0.27556 0.021513
  endloop
 endfacet
 facet normal -0.233325 -0.169451 -0.957521
  outer loop
   vertex -0.023611 0.28056 0.017091
   vertex -0.021876 0.278171 0.017091
   vertex -0.024718 0.277931 0.017826
  endloop
 endfacet
 facet normal -0.207851 -0.343516 -0.915858
  outer loop
   vertex -0.021876 0.278171 0.017091
   vertex -0.022725 0.27556 0.018263
   vertex -0.024718 0.277931 0.017826
  endloop
 endfacet
 facet normal -0.334054 -0.43492 -0.836213
  outer loop
   vertex -0.024718 0.277931 0.017826
   vertex -0.022725 0.27556 0.018263
   vertex -0.025572 0.275303 0.019534
  endloop
 endfacet
 facet normal -0.286233 -0.584386 -0.759318
  outer loop
   vertex -0.022725 0.27556 0.018263
   vertex -0.023428 0.273394 0.020195
   vertex -0.025572 0.275303 0.019534
  endloop
 endfacet
 facet normal -0.393627 -0.662685 -0.637108
  outer loop
   vertex -0.025572 0.275303 0.019534
   vertex -0.023428 0.273394 0.020195
   vertex -0.02594 0.273394 0.021747
  endloop
 endfacet
 facet normal -0.342493 -0.758552 -0.554344
  outer loop
   vertex -0.023428 0.273394 0.020195
   vertex -0.023864 0.272054 0.022298
   vertex -0.02594 0.273394 0.021747
  endloop
 endfacet
 facet normal 0.723015 0.412034 -0.554506
  outer loop
   vertex -0.012973 0.283512 0.021747
   vertex -0.015005 0.284989 0.020195
   vertex -0.013864 0.285817 0.022298
  endloop
 endfacet
 facet normal 0.789589 0.148568 -0.59538
  outer loop
   vertex -0.012594 0.28056 0.021513
   vertex -0.014392 0.282185 0.019534
   vertex -0.012973 0.283512 0.021747
  endloop
 endfacet
 facet normal 0.789589 -0.148568 -0.59538
  outer loop
   vertex -0.012973 0.277608 0.021747
   vertex -0.014392 0.278935 0.019534
   vertex -0.012594 0.28056 0.021513
  endloop
 endfacet
 facet normal 0.708089 0.304936 -0.636886
  outer loop
   vertex -0.012973 0.283512 0.021747
   vertex -0.014392 0.282185 0.019534
   vertex -0.015005 0.284989 0.020195
  endloop
 endfacet
 facet normal 0.574948 0.304695 -0.759339
  outer loop
   vertex -0.014392 0.282185 0.019534
   vertex -0.016847 0.28365 0.018263
   vertex -0.015005 0.284989 0.020195
  endloop
 endfacet
 facet normal 0.740143 0 -0.672449
  outer loop
   vertex -0.012594 0.28056 0.021513
   vertex -0.014392 0.278935 0.019534
   vertex -0.014392 0.282185 0.019534
  endloop
 endfacet
 facet normal 0.607028 0 -0.794681
  outer loop
   vertex -0.014392 0.278935 0.019534
   vertex -0.016628 0.28056 0.017826
   vertex -0.014392 0.282185 0.019534
  endloop
 endfacet
 facet normal 0.525774 0.155534 -0.836284
  outer loop
   vertex -0.014392 0.282185 0.019534
   vertex -0.016628 0.28056 0.017826
   vertex -0.016847 0.28365 0.018263
  endloop
 endfacet
 facet normal 0.370096 0.155752 -0.915844
  outer loop
   vertex -0.016628 0.28056 0.017826
   vertex -0.019068 0.282036 0.017091
   vertex -0.016847 0.28365 0.018263
  endloop
 endfacet
 facet normal 0.708089 -0.304936 -0.636886
  outer loop
   vertex -0.012973 0.277608 0.021747
   vertex -0.015005 0.276131 0.020195
   vertex -0.014392 0.278935 0.019534
  endloop
 endfacet
 facet normal 0.574948 -0.304695 -0.759339
  outer loop
   vertex -0.015005 0.276131 0.020195
   vertex -0.016847 0.27747 0.018263
   vertex -0.014392 0.278935 0.019534
  endloop
 endfacet
 facet normal 0.525774 -0.155534 -0.836284
  outer loop
   vertex -0.014392 0.278935 0.019534
   vertex -0.016847 0.27747 0.018263
   vertex -0.016628 0.28056 0.017826
  endloop
 endfacet
 facet normal 0.370096 -0.155752 -0.915844
  outer loop
   vertex -0.016847 0.27747 0.018263
   vertex -0.019068 0.279084 0.017091
   vertex -0.016628 0.28056 0.017826
  endloop
 endfacet
 facet normal 0.288428 0 -0.957502
  outer loop
   vertex -0.016628 0.28056 0.017826
   vertex -0.019068 0.279084 0.017091
   vertex -0.019068 0.282036 0.017091
  endloop
 endfacet
 facet normal 0.156037 0 -0.987751
  outer loop
   vertex -0.019068 0.279084 0.017091
   vertex -0.0211 0.28056 0.01677
   vertex -0.019068 0.282036 0.017091
  endloop
 endfacet
 facet normal -0.168666 -0.815046 -0.554303
  outer loop
   vertex -0.023428 0.273394 0.020195
   vertex -0.021396 0.271918 0.021747
   vertex -0.023864 0.272054 0.022298
  endloop
 endfacet
 facet normal -0.112009 -0.640965 -0.759354
  outer loop
   vertex -0.022725 0.27556 0.018263
   vertex -0.020572 0.273678 0.019534
   vertex -0.023428 0.273394 0.020195
  endloop
 endfacet
 facet normal -0.0336945 -0.400135 -0.915836
  outer loop
   vertex -0.021876 0.278171 0.017091
   vertex -0.019718 0.276307 0.017826
   vertex -0.022725 0.27556 0.018263
  endloop
 endfacet
 facet normal -0.0710868 -0.767617 -0.636955
  outer loop
   vertex -0.023428 0.273394 0.020195
   vertex -0.020572 0.273678 0.019534
   vertex -0.021396 0.271918 0.021747
  endloop
 endfacet
 facet normal 0.102735 -0.796801 -0.595444
  outer loop
   vertex -0.020572 0.273678 0.019534
   vertex -0.018471 0.27247 0.021513
   vertex -0.021396 0.271918 0.021747
  endloop
 endfacet
 facet normal 0.0146149 -0.548074 -0.836302
  outer loop
   vertex -0.022725 0.27556 0.018263
   vertex -0.019718 0.276307 0.017826
   vertex -0.020572 0.273678 0.019534
  endloop
 endfacet
 facet normal 0.187559 -0.577248 -0.794737
  outer loop
   vertex -0.019718 0.276307 0.017826
   vertex -0.017482 0.274682 0.019534
   vertex -0.020572 0.273678 0.019534
  endloop
 endfacet
 facet normal 0.228709 -0.703897 -0.672474
  outer loop
   vertex -0.020572 0.273678 0.019534
   vertex -0.017482 0.274682 0.019534
   vertex -0.018471 0.27247 0.021513
  endloop
 endfacet
 facet normal 0.38541 -0.704977 -0.595371
  outer loop
   vertex -0.017482 0.274682 0.019534
   vertex -0.015781 0.273743 0.021747
   vertex -0.018471 0.27247 0.021513
  endloop
 endfacet
 facet normal 0.0891868 -0.274301 -0.957499
  outer loop
   vertex -0.021876 0.278171 0.017091
   vertex -0.019068 0.279084 0.017091
   vertex -0.019718 0.276307 0.017826
  endloop
 endfacet
 facet normal 0.262485 -0.303841 -0.915851
  outer loop
   vertex -0.019068 0.279084 0.017091
   vertex -0.016847 0.27747 0.018263
   vertex -0.019718 0.276307 0.017826
  endloop
 endfacet
 facet normal 0.310374 -0.451949 -0.836307
  outer loop
   vertex -0.019718 0.276307 0.017826
   vertex -0.016847 0.27747 0.018263
   vertex -0.017482 0.274682 0.019534
  endloop
 endfacet
 facet normal 0.467426 -0.452641 -0.759361
  outer loop
   vertex -0.016847 0.27747 0.018263
   vertex -0.015005 0.276131 0.020195
   vertex -0.017482 0.274682 0.019534
  endloop
 endfacet
 facet normal 0.508799 -0.579247 -0.636864
  outer loop
   vertex -0.017482 0.274682 0.019534
   vertex -0.015005 0.276131 0.020195
   vertex -0.015781 0.273743 0.021747
  endloop
 endfacet
 facet normal 0.61533 -0.560308 -0.554459
  outer loop
   vertex -0.015005 0.276131 0.020195
   vertex -0.013864 0.275303 0.022298
   vertex -0.015781 0.273743 0.021747
  endloop
 endfacet
endsolid ExportedfromBlender-3.5.1
