solid ExportedfromBlender-3.5.1
 facet normal 0.0482486 -0.148392 -0.987751
  outer loop
   vertex -0.02456 0.06221 -0.02027
   vertex -0.022528 0.060734 -0.019949
   vertex -0.025336 0.059821 -0.019949
  endloop
 endfacet
 facet normal 0.723015 -0.412034 -0.554506
  outer loop
   vertex -0.017324 0.056953 -0.014742
   vertex -0.018465 0.057781 -0.016845
   vertex -0.016433 0.059258 -0.015293
  endloop
 endfacet
 facet normal -0.126271 -0.0917039 -0.987748
  outer loop
   vertex -0.02456 0.06221 -0.02027
   vertex -0.025336 0.059821 -0.019949
   vertex -0.027071 0.06221 -0.019949
  endloop
 endfacet
 facet normal -0.126271 0.0917039 -0.987748
  outer loop
   vertex -0.02456 0.06221 -0.02027
   vertex -0.027071 0.06221 -0.019949
   vertex -0.025336 0.064599 -0.019949
  endloop
 endfacet
 facet normal 0.0482486 0.148392 -0.987751
  outer loop
   vertex -0.02456 0.06221 -0.02027
   vertex -0.025336 0.064599 -0.019949
   vertex -0.022528 0.063686 -0.019949
  endloop
 endfacet
 facet normal 0.819189 -0.412026 -0.398954
  outer loop
   vertex -0.017324 0.056953 -0.014742
   vertex -0.016433 0.059258 -0.015293
   vertex -0.015953 0.057781 -0.012782
  endloop
 endfacet
 facet normal -0.138975 -0.90647 -0.398746
  outer loop
   vertex -0.027324 0.053704 -0.014742
   vertex -0.024856 0.053568 -0.015293
   vertex -0.026112 0.052656 -0.012782
  endloop
 endfacet
 facet normal -0.905177 -0.147939 -0.398459
  outer loop
   vertex -0.033504 0.06221 -0.014742
   vertex -0.032871 0.059821 -0.015293
   vertex -0.034126 0.060734 -0.012781
  endloop
 endfacet
 facet normal -0.420269 0.815078 -0.398776
  outer loop
   vertex -0.027324 0.070716 -0.014742
   vertex -0.0294 0.069376 -0.015293
   vertex -0.02892 0.070852 -0.012782
  endloop
 endfacet
 facet normal 0.645038 0.651744 -0.398942
  outer loop
   vertex -0.017324 0.067467 -0.014742
   vertex -0.019241 0.069027 -0.015293
   vertex -0.017688 0.069027 -0.012782
  endloop
 endfacet
 facet normal 0.771063 -0.560215 -0.302688
  outer loop
   vertex -0.017324 0.056953 -0.014742
   vertex -0.015953 0.057781 -0.012782
   vertex -0.017688 0.055393 -0.012782
  endloop
 endfacet
 facet normal -0.294416 -0.906493 -0.302638
  outer loop
   vertex -0.027324 0.053704 -0.014742
   vertex -0.026112 0.052656 -0.012782
   vertex -0.02892 0.053568 -0.012782
  endloop
 endfacet
 facet normal -0.9532 0 -0.302341
  outer loop
   vertex -0.033504 0.06221 -0.014742
   vertex -0.034126 0.060734 -0.012781
   vertex -0.034126 0.063686 -0.012781
  endloop
 endfacet
 facet normal -0.294416 0.906493 -0.302638
  outer loop
   vertex -0.027324 0.070716 -0.014742
   vertex -0.02892 0.070852 -0.012782
   vertex -0.026112 0.071764 -0.012782
  endloop
 endfacet
 facet normal 0.771063 0.560215 -0.302688
  outer loop
   vertex -0.017324 0.067467 -0.014742
   vertex -0.017688 0.069027 -0.012782
   vertex -0.015953 0.066639 -0.012782
  endloop
 endfacet
 facet normal 0.342493 -0.758552 0.554344
  outer loop
   vertex -0.021796 0.053704 -0.005798
   vertex -0.01972 0.055044 -0.005247
   vertex -0.022232 0.055044 -0.003695
  endloop
 endfacet
 facet normal -0.61533 -0.560308 0.554459
  outer loop
   vertex -0.031796 0.056953 -0.005798
   vertex -0.029879 0.055393 -0.005247
   vertex -0.030655 0.057781 -0.003695
  endloop
 endfacet
 facet normal -0.723015 0.412034 0.554506
  outer loop
   vertex -0.031796 0.067467 -0.005798
   vertex -0.032687 0.065162 -0.005247
   vertex -0.030655 0.066639 -0.003695
  endloop
 endfacet
 facet normal 0.168666 0.815046 0.554303
  outer loop
   vertex -0.021796 0.070716 -0.005798
   vertex -0.024264 0.070852 -0.005247
   vertex -0.022232 0.069376 -0.003695
  endloop
 endfacet
 facet normal 0.827124 0.091254 0.554562
  outer loop
   vertex -0.015616 0.06221 -0.005798
   vertex -0.016249 0.064599 -0.005247
   vertex -0.017026 0.06221 -0.003695
  endloop
 endfacet
 facet normal 0.126271 0.0917039 0.987748
  outer loop
   vertex -0.022049 0.06221 -0.000591
   vertex -0.023784 0.064599 -0.000591
   vertex -0.02456 0.06221 -0.00027
  endloop
 endfacet
 facet normal 0.390899 0.0914587 0.915878
  outer loop
   vertex -0.019303 0.06221 -0.001763
   vertex -0.020942 0.064839 -0.001326
   vertex -0.022049 0.06221 -0.000591
  endloop
 endfacet
 facet normal 0.644269 0.0913996 0.759317
  outer loop
   vertex -0.017026 0.06221 -0.003695
   vertex -0.018178 0.064839 -0.003034
   vertex -0.019303 0.06221 -0.001763
  endloop
 endfacet
 facet normal 0.233325 0.169451 0.957521
  outer loop
   vertex -0.022049 0.06221 -0.000591
   vertex -0.020942 0.064839 -0.001326
   vertex -0.023784 0.064599 -0.000591
  endloop
 endfacet
 facet normal 0.207851 0.343516 0.915858
  outer loop
   vertex -0.020942 0.064839 -0.001326
   vertex -0.022935 0.06721 -0.001763
   vertex -0.023784 0.064599 -0.000591
  endloop
 endfacet
 facet normal 0.516783 0.183167 0.836293
  outer loop
   vertex -0.019303 0.06221 -0.001763
   vertex -0.018178 0.064839 -0.003034
   vertex -0.020942 0.064839 -0.001326
  endloop
 endfacet
 facet normal 0.491058 0.356895 0.794662
  outer loop
   vertex -0.018178 0.064839 -0.003034
   vertex -0.020088 0.067467 -0.003034
   vertex -0.020942 0.064839 -0.001326
  endloop
 endfacet
 facet normal 0.334054 0.43492 0.836213
  outer loop
   vertex -0.020942 0.064839 -0.001326
   vertex -0.020088 0.067467 -0.003034
   vertex -0.022935 0.06721 -0.001763
  endloop
 endfacet
 facet normal 0.286233 0.584386 0.759318
  outer loop
   vertex -0.020088 0.067467 -0.003034
   vertex -0.022232 0.069376 -0.003695
   vertex -0.022935 0.06721 -0.001763
  endloop
 endfacet
 facet normal 0.751958 0.169318 0.637095
  outer loop
   vertex -0.017026 0.06221 -0.003695
   vertex -0.016249 0.064599 -0.005247
   vertex -0.018178 0.064839 -0.003034
  endloop
 endfacet
 facet normal 0.725985 0.343961 0.595514
  outer loop
   vertex -0.016249 0.064599 -0.005247
   vertex -0.017678 0.06721 -0.005013
   vertex -0.018178 0.064839 -0.003034
  endloop
 endfacet
 facet normal 0.598657 0.435097 0.672533
  outer loop
   vertex -0.018178 0.064839 -0.003034
   vertex -0.017678 0.06721 -0.005013
   vertex -0.020088 0.067467 -0.003034
  endloop
 endfacet
 facet normal 0.551379 0.584158 0.595601
  outer loop
   vertex -0.017678 0.06721 -0.005013
   vertex -0.01972 0.069376 -0.005247
   vertex -0.020088 0.067467 -0.003034
  endloop
 endfacet
 facet normal 0.393627 0.662685 0.637108
  outer loop
   vertex -0.020088 0.067467 -0.003034
   vertex -0.01972 0.069376 -0.005247
   vertex -0.022232 0.069376 -0.003695
  endloop
 endfacet
 facet normal 0.342493 0.758552 0.554344
  outer loop
   vertex -0.01972 0.069376 -0.005247
   vertex -0.021796 0.070716 -0.005798
   vertex -0.022232 0.069376 -0.003695
  endloop
 endfacet
 facet normal -0.0482486 0.148392 0.987751
  outer loop
   vertex -0.023784 0.064599 -0.000591
   vertex -0.026592 0.063686 -0.000591
   vertex -0.02456 0.06221 -0.00027
  endloop
 endfacet
 facet normal 0.0336945 0.400135 0.915836
  outer loop
   vertex -0.022935 0.06721 -0.001763
   vertex -0.025942 0.066463 -0.001326
   vertex -0.023784 0.064599 -0.000591
  endloop
 endfacet
 facet normal 0.112009 0.640965 0.759354
  outer loop
   vertex -0.022232 0.069376 -0.003695
   vertex -0.025088 0.069092 -0.003034
   vertex -0.022935 0.06721 -0.001763
  endloop
 endfacet
 facet normal -0.0891868 0.274301 0.957499
  outer loop
   vertex -0.023784 0.064599 -0.000591
   vertex -0.025942 0.066463 -0.001326
   vertex -0.026592 0.063686 -0.000591
  endloop
 endfacet
 facet normal -0.262485 0.303841 0.915851
  outer loop
   vertex -0.025942 0.066463 -0.001326
   vertex -0.028813 0.0653 -0.001763
   vertex -0.026592 0.063686 -0.000591
  endloop
 endfacet
 facet normal -0.0146149 0.548074 0.836302
  outer loop
   vertex -0.022935 0.06721 -0.001763
   vertex -0.025088 0.069092 -0.003034
   vertex -0.025942 0.066463 -0.001326
  endloop
 endfacet
 facet normal -0.187559 0.577248 0.794737
  outer loop
   vertex -0.025088 0.069092 -0.003034
   vertex -0.028178 0.068088 -0.003034
   vertex -0.025942 0.066463 -0.001326
  endloop
 endfacet
 facet normal -0.310374 0.451949 0.836307
  outer loop
   vertex -0.025942 0.066463 -0.001326
   vertex -0.028178 0.068088 -0.003034
   vertex -0.028813 0.0653 -0.001763
  endloop
 endfacet
 facet normal -0.467426 0.452641 0.759361
  outer loop
   vertex -0.028178 0.068088 -0.003034
   vertex -0.030655 0.066639 -0.003695
   vertex -0.028813 0.0653 -0.001763
  endloop
 endfacet
 facet normal 0.0710868 0.767617 0.636955
  outer loop
   vertex -0.022232 0.069376 -0.003695
   vertex -0.024264 0.070852 -0.005247
   vertex -0.025088 0.069092 -0.003034
  endloop
 endfacet
 facet normal -0.102735 0.796801 0.595444
  outer loop
   vertex -0.024264 0.070852 -0.005247
   vertex -0.027189 0.0703 -0.005013
   vertex -0.025088 0.069092 -0.003034
  endloop
 endfacet
 facet normal -0.228709 0.703897 0.672474
  outer loop
   vertex -0.025088 0.069092 -0.003034
   vertex -0.027189 0.0703 -0.005013
   vertex -0.028178 0.068088 -0.003034
  endloop
 endfacet
 facet normal -0.38541 0.704977 0.595371
  outer loop
   vertex -0.027189 0.0703 -0.005013
   vertex -0.029879 0.069027 -0.005247
   vertex -0.028178 0.068088 -0.003034
  endloop
 endfacet
 facet normal -0.508799 0.579247 0.636864
  outer loop
   vertex -0.028178 0.068088 -0.003034
   vertex -0.029879 0.069027 -0.005247
   vertex -0.030655 0.066639 -0.003695
  endloop
 endfacet
 facet normal -0.61533 0.560308 0.554459
  outer loop
   vertex -0.029879 0.069027 -0.005247
   vertex -0.031796 0.067467 -0.005798
   vertex -0.030655 0.066639 -0.003695
  endloop
 endfacet
 facet normal -0.156037 0 0.987751
  outer loop
   vertex -0.026592 0.063686 -0.000591
   vertex -0.026592 0.060734 -0.000591
   vertex -0.02456 0.06221 -0.00027
  endloop
 endfacet
 facet normal -0.370096 0.155752 0.915844
  outer loop
   vertex -0.028813 0.0653 -0.001763
   vertex -0.029032 0.06221 -0.001326
   vertex -0.026592 0.063686 -0.000591
  endloop
 endfacet
 facet normal -0.574948 0.304695 0.759339
  outer loop
   vertex -0.030655 0.066639 -0.003695
   vertex -0.031268 0.063835 -0.003034
   vertex -0.028813 0.0653 -0.001763
  endloop
 endfacet
 facet normal -0.288428 0 0.957502
  outer loop
   vertex -0.026592 0.063686 -0.000591
   vertex -0.029032 0.06221 -0.001326
   vertex -0.026592 0.060734 -0.000591
  endloop
 endfacet
 facet normal -0.370096 -0.155752 0.915844
  outer loop
   vertex -0.029032 0.06221 -0.001326
   vertex -0.028813 0.05912 -0.001763
   vertex -0.026592 0.060734 -0.000591
  endloop
 endfacet
 facet normal -0.525774 0.155534 0.836284
  outer loop
   vertex -0.028813 0.0653 -0.001763
   vertex -0.031268 0.063835 -0.003034
   vertex -0.029032 0.06221 -0.001326
  endloop
 endfacet
 facet normal -0.607028 0 0.794681
  outer loop
   vertex -0.031268 0.063835 -0.003034
   vertex -0.031268 0.060585 -0.003034
   vertex -0.029032 0.06221 -0.001326
  endloop
 endfacet
 facet normal -0.525774 -0.155534 0.836284
  outer loop
   vertex -0.029032 0.06221 -0.001326
   vertex -0.031268 0.060585 -0.003034
   vertex -0.028813 0.05912 -0.001763
  endloop
 endfacet
 facet normal -0.574948 -0.304695 0.759339
  outer loop
   vertex -0.031268 0.060585 -0.003034
   vertex -0.030655 0.057781 -0.003695
   vertex -0.028813 0.05912 -0.001763
  endloop
 endfacet
 facet normal -0.708089 0.304936 0.636886
  outer loop
   vertex -0.030655 0.066639 -0.003695
   vertex -0.032687 0.065162 -0.005247
   vertex -0.031268 0.063835 -0.003034
  endloop
 endfacet
 facet normal -0.789589 0.148568 0.59538
  outer loop
   vertex -0.032687 0.065162 -0.005247
   vertex -0.033066 0.06221 -0.005013
   vertex -0.031268 0.063835 -0.003034
  endloop
 endfacet
 facet normal -0.740143 0 0.672449
  outer loop
   vertex -0.031268 0.063835 -0.003034
   vertex -0.033066 0.06221 -0.005013
   vertex -0.031268 0.060585 -0.003034
  endloop
 endfacet
 facet normal -0.789589 -0.148568 0.59538
  outer loop
   vertex -0.033066 0.06221 -0.005013
   vertex -0.032687 0.059258 -0.005247
   vertex -0.031268 0.060585 -0.003034
  endloop
 endfacet
 facet normal -0.708089 -0.304936 0.636886
  outer loop
   vertex -0.031268 0.060585 -0.003034
   vertex -0.032687 0.059258 -0.005247
   vertex -0.030655 0.057781 -0.003695
  endloop
 endfacet
 facet normal -0.723015 -0.412034 0.554506
  outer loop
   vertex -0.032687 0.059258 -0.005247
   vertex -0.031796 0.056953 -0.005798
   vertex -0.030655 0.057781 -0.003695
  endloop
 endfacet
 facet normal -0.0482486 -0.148392 0.987751
  outer loop
   vertex -0.026592 0.060734 -0.000591
   vertex -0.023784 0.059821 -0.000591
   vertex -0.02456 0.06221 -0.00027
  endloop
 endfacet
 facet normal -0.262485 -0.303841 0.915851
  outer loop
   vertex -0.028813 0.05912 -0.001763
   vertex -0.025942 0.057957 -0.001326
   vertex -0.026592 0.060734 -0.000591
  endloop
 endfacet
 facet normal -0.467426 -0.452641 0.759361
  outer loop
   vertex -0.030655 0.057781 -0.003695
   vertex -0.028178 0.056332 -0.003034
   vertex -0.028813 0.05912 -0.001763
  endloop
 endfacet
 facet normal -0.0891868 -0.274301 0.957499
  outer loop
   vertex -0.026592 0.060734 -0.000591
   vertex -0.025942 0.057957 -0.001326
   vertex -0.023784 0.059821 -0.000591
  endloop
 endfacet
 facet normal 0.0336945 -0.400135 0.915836
  outer loop
   vertex -0.025942 0.057957 -0.001326
   vertex -0.022935 0.05721 -0.001763
   vertex -0.023784 0.059821 -0.000591
  endloop
 endfacet
 facet normal -0.310374 -0.451949 0.836307
  outer loop
   vertex -0.028813 0.05912 -0.001763
   vertex -0.028178 0.056332 -0.003034
   vertex -0.025942 0.057957 -0.001326
  endloop
 endfacet
 facet normal -0.187559 -0.577248 0.794737
  outer loop
   vertex -0.028178 0.056332 -0.003034
   vertex -0.025088 0.055328 -0.003034
   vertex -0.025942 0.057957 -0.001326
  endloop
 endfacet
 facet normal -0.0146149 -0.548074 0.836302
  outer loop
   vertex -0.025942 0.057957 -0.001326
   vertex -0.025088 0.055328 -0.003034
   vertex -0.022935 0.05721 -0.001763
  endloop
 endfacet
 facet normal 0.112009 -0.640965 0.759354
  outer loop
   vertex -0.025088 0.055328 -0.003034
   vertex -0.022232 0.055044 -0.003695
   vertex -0.022935 0.05721 -0.001763
  endloop
 endfacet
 facet normal -0.508799 -0.579247 0.636864
  outer loop
   vertex -0.030655 0.057781 -0.003695
   vertex -0.029879 0.055393 -0.005247
   vertex -0.028178 0.056332 -0.003034
  endloop
 endfacet
 facet normal -0.38541 -0.704977 0.595371
  outer loop
   vertex -0.029879 0.055393 -0.005247
   vertex -0.027189 0.05412 -0.005013
   vertex -0.028178 0.056332 -0.003034
  endloop
 endfacet
 facet normal -0.228709 -0.703897 0.672474
  outer loop
   vertex -0.028178 0.056332 -0.003034
   vertex -0.027189 0.05412 -0.005013
   vertex -0.025088 0.055328 -0.003034
  endloop
 endfacet
 facet normal -0.102735 -0.796801 0.595444
  outer loop
   vertex -0.027189 0.05412 -0.005013
   vertex -0.024264 0.053568 -0.005247
   vertex -0.025088 0.055328 -0.003034
  endloop
 endfacet
 facet normal 0.0710868 -0.767617 0.636955
  outer loop
   vertex -0.025088 0.055328 -0.003034
   vertex -0.024264 0.053568 -0.005247
   vertex -0.022232 0.055044 -0.003695
  endloop
 endfacet
 facet normal 0.168666 -0.815046 0.554303
  outer loop
   vertex -0.024264 0.053568 -0.005247
   vertex -0.021796 0.053704 -0.005798
   vertex -0.022232 0.055044 -0.003695
  endloop
 endfacet
 facet normal 0.126271 -0.0917039 0.987748
  outer loop
   vertex -0.023784 0.059821 -0.000591
   vertex -0.022049 0.06221 -0.000591
   vertex -0.02456 0.06221 -0.00027
  endloop
 endfacet
 facet normal 0.207851 -0.343516 0.915858
  outer loop
   vertex -0.022935 0.05721 -0.001763
   vertex -0.020942 0.059581 -0.001326
   vertex -0.023784 0.059821 -0.000591
  endloop
 endfacet
 facet normal 0.286233 -0.584386 0.759318
  outer loop
   vertex -0.022232 0.055044 -0.003695
   vertex -0.020088 0.056953 -0.003034
   vertex -0.022935 0.05721 -0.001763
  endloop
 endfacet
 facet normal 0.233325 -0.169451 0.957521
  outer loop
   vertex -0.023784 0.059821 -0.000591
   vertex -0.020942 0.059581 -0.001326
   vertex -0.022049 0.06221 -0.000591
  endloop
 endfacet
 facet normal 0.390899 -0.0914587 0.915878
  outer loop
   vertex -0.020942 0.059581 -0.001326
   vertex -0.019303 0.06221 -0.001763
   vertex -0.022049 0.06221 -0.000591
  endloop
 endfacet
 facet normal 0.334054 -0.43492 0.836213
  outer loop
   vertex -0.022935 0.05721 -0.001763
   vertex -0.020088 0.056953 -0.003034
   vertex -0.020942 0.059581 -0.001326
  endloop
 endfacet
 facet normal 0.491058 -0.356895 0.794662
  outer loop
   vertex -0.020088 0.056953 -0.003034
   vertex -0.018178 0.059581 -0.003034
   vertex -0.020942 0.059581 -0.001326
  endloop
 endfacet
 facet normal 0.516783 -0.183167 0.836293
  outer loop
   vertex -0.020942 0.059581 -0.001326
   vertex -0.018178 0.059581 -0.003034
   vertex -0.019303 0.06221 -0.001763
  endloop
 endfacet
 facet normal 0.644269 -0.0913996 0.759317
  outer loop
   vertex -0.018178 0.059581 -0.003034
   vertex -0.017026 0.06221 -0.003695
   vertex -0.019303 0.06221 -0.001763
  endloop
 endfacet
 facet normal 0.393627 -0.662685 0.637108
  outer loop
   vertex -0.022232 0.055044 -0.003695
   vertex -0.01972 0.055044 -0.005247
   vertex -0.020088 0.056953 -0.003034
  endloop
 endfacet
 facet normal 0.551379 -0.584158 0.595601
  outer loop
   vertex -0.01972 0.055044 -0.005247
   vertex -0.017678 0.05721 -0.005013
   vertex -0.020088 0.056953 -0.003034
  endloop
 endfacet
 facet normal 0.598657 -0.435097 0.672533
  outer loop
   vertex -0.020088 0.056953 -0.003034
   vertex -0.017678 0.05721 -0.005013
   vertex -0.018178 0.059581 -0.003034
  endloop
 endfacet
 facet normal 0.725985 -0.343961 0.595514
  outer loop
   vertex -0.017678 0.05721 -0.005013
   vertex -0.016249 0.059821 -0.005247
   vertex -0.018178 0.059581 -0.003034
  endloop
 endfacet
 facet normal 0.751958 -0.169318 0.637095
  outer loop
   vertex -0.018178 0.059581 -0.003034
   vertex -0.016249 0.059821 -0.005247
   vertex -0.017026 0.06221 -0.003695
  endloop
 endfacet
 facet normal 0.827124 -0.091254 0.554562
  outer loop
   vertex -0.016249 0.059821 -0.005247
   vertex -0.015616 0.06221 -0.005798
   vertex -0.017026 0.06221 -0.003695
  endloop
 endfacet
 facet normal 0.905177 0.147939 0.398459
  outer loop
   vertex -0.014994 0.063686 -0.007759
   vertex -0.016249 0.064599 -0.005247
   vertex -0.015616 0.06221 -0.005798
  endloop
 endfacet
 facet normal 0.93657 0.303801 0.17476
  outer loop
   vertex -0.015049 0.0653 -0.01027
   vertex -0.015942 0.066463 -0.007506
   vertex -0.014994 0.063686 -0.007759
  endloop
 endfacet
 facet normal 0.888212 0.452708 -0.078331
  outer loop
   vertex -0.015953 0.066639 -0.012782
   vertex -0.01647 0.068088 -0.01027
   vertex -0.015049 0.0653 -0.01027
  endloop
 endfacet
 facet normal 0.89641 0.274294 0.348155
  outer loop
   vertex -0.014994 0.063686 -0.007759
   vertex -0.015942 0.066463 -0.007506
   vertex -0.016249 0.064599 -0.005247
  endloop
 endfacet
 facet normal 0.803858 0.400541 0.439749
  outer loop
   vertex -0.015942 0.066463 -0.007506
   vertex -0.017678 0.06721 -0.005013
   vertex -0.016249 0.064599 -0.005247
  endloop
 endfacet
 facet normal 0.886806 0.451991 0.0963284
  outer loop
   vertex -0.015049 0.0653 -0.01027
   vertex -0.01647 0.068088 -0.01027
   vertex -0.015942 0.066463 -0.007506
  endloop
 endfacet
 facet normal 0.794662 0.577331 0.18762
  outer loop
   vertex -0.01647 0.068088 -0.01027
   vertex -0.017852 0.069092 -0.007506
   vertex -0.015942 0.066463 -0.007506
  endloop
 endfacet
 facet normal 0.754436 0.548107 0.361117
  outer loop
   vertex -0.015942 0.066463 -0.007506
   vertex -0.017852 0.069092 -0.007506
   vertex -0.017678 0.06721 -0.005013
  endloop
 endfacet
 facet normal 0.629279 0.640767 0.439803
  outer loop
   vertex -0.017852 0.069092 -0.007506
   vertex -0.01972 0.069376 -0.005247
   vertex -0.017678 0.06721 -0.005013
  endloop
 endfacet
 facet normal 0.797233 0.579229 -0.170037
  outer loop
   vertex -0.015953 0.066639 -0.012782
   vertex -0.017688 0.069027 -0.012782
   vertex -0.01647 0.068088 -0.01027
  endloop
 endfacet
 facet normal 0.704936 0.704936 -0.0782949
  outer loop
   vertex -0.017688 0.069027 -0.012782
   vertex -0.018682 0.0703 -0.01027
   vertex -0.01647 0.068088 -0.01027
  endloop
 endfacet
 facet normal 0.703824 0.703824 0.0962537
  outer loop
   vertex -0.01647 0.068088 -0.01027
   vertex -0.018682 0.0703 -0.01027
   vertex -0.017852 0.069092 -0.007506
  endloop
 endfacet
 facet normal 0.578519 0.796783 0.174509
  outer loop
   vertex -0.018682 0.0703 -0.01027
   vertex -0.0202 0.070852 -0.007758
   vertex -0.017852 0.069092 -0.007506
  endloop
 endfacet
 facet normal 0.537986 0.767602 0.348366
  outer loop
   vertex -0.017852 0.069092 -0.007506
   vertex -0.0202 0.070852 -0.007758
   vertex -0.01972 0.069376 -0.005247
  endloop
 endfacet
 facet normal 0.420269 0.815078 0.398776
  outer loop
   vertex -0.0202 0.070852 -0.007758
   vertex -0.021796 0.070716 -0.005798
   vertex -0.01972 0.069376 -0.005247
  endloop
 endfacet
 facet normal 0.138975 0.90647 0.398746
  outer loop
   vertex -0.023008 0.071764 -0.007758
   vertex -0.024264 0.070852 -0.005247
   vertex -0.021796 0.070716 -0.005798
  endloop
 endfacet
 facet normal 0.000555151 0.98466 0.174481
  outer loop
   vertex -0.02456 0.07221 -0.01027
   vertex -0.025942 0.071721 -0.007506
   vertex -0.023008 0.071764 -0.007758
  endloop
 endfacet
 facet normal -0.155824 0.984657 -0.07855
  outer loop
   vertex -0.026112 0.071764 -0.012782
   vertex -0.02765 0.071721 -0.01027
   vertex -0.02456 0.07221 -0.01027
  endloop
 endfacet
 facet normal 0.0161962 0.937175 0.348485
  outer loop
   vertex -0.023008 0.071764 -0.007758
   vertex -0.025942 0.071721 -0.007506
   vertex -0.024264 0.070852 -0.005247
  endloop
 endfacet
 facet normal -0.132412 0.888171 0.440021
  outer loop
   vertex -0.025942 0.071721 -0.007506
   vertex -0.027189 0.0703 -0.005013
   vertex -0.024264 0.070852 -0.005247
  endloop
 endfacet
 facet normal -0.155583 0.983133 0.0961419
  outer loop
   vertex -0.02456 0.07221 -0.01027
   vertex -0.02765 0.071721 -0.01027
   vertex -0.025942 0.071721 -0.007506
  endloop
 endfacet
 facet normal -0.303796 0.934059 0.187729
  outer loop
   vertex -0.02765 0.071721 -0.01027
   vertex -0.029032 0.070716 -0.007506
   vertex -0.025942 0.071721 -0.007506
  endloop
 endfacet
 facet normal -0.288415 0.886769 0.361189
  outer loop
   vertex -0.025942 0.071721 -0.007506
   vertex -0.029032 0.070716 -0.007506
   vertex -0.027189 0.0703 -0.005013
  endloop
 endfacet
 facet normal -0.415138 0.796394 0.439791
  outer loop
   vertex -0.029032 0.070716 -0.007506
   vertex -0.029879 0.069027 -0.005247
   vertex -0.027189 0.0703 -0.005013
  endloop
 endfacet
 facet normal -0.304389 0.937197 -0.170322
  outer loop
   vertex -0.026112 0.071764 -0.012782
   vertex -0.02892 0.070852 -0.012782
   vertex -0.02765 0.071721 -0.01027
  endloop
 endfacet
 facet normal -0.452705 0.888208 -0.0783901
  outer loop
   vertex -0.02892 0.070852 -0.012782
   vertex -0.030438 0.0703 -0.01027
   vertex -0.02765 0.071721 -0.01027
  endloop
 endfacet
 facet normal -0.451986 0.886796 0.0964489
  outer loop
   vertex -0.02765 0.071721 -0.01027
   vertex -0.030438 0.0703 -0.01027
   vertex -0.029032 0.070716 -0.007506
  endloop
 endfacet
 facet normal -0.578874 0.796508 0.174584
  outer loop
   vertex -0.030438 0.0703 -0.01027
   vertex -0.031432 0.069027 -0.007758
   vertex -0.029032 0.070716 -0.007506
  endloop
 endfacet
 facet normal -0.563623 0.748876 0.348589
  outer loop
   vertex -0.029032 0.070716 -0.007506
   vertex -0.031432 0.069027 -0.007758
   vertex -0.029879 0.069027 -0.005247
  endloop
 endfacet
 facet normal -0.645038 0.651744 0.398942
  outer loop
   vertex -0.031432 0.069027 -0.007758
   vertex -0.031796 0.067467 -0.005798
   vertex -0.029879 0.069027 -0.005247
  endloop
 endfacet
 facet normal -0.819189 0.412026 0.398954
  outer loop
   vertex -0.033167 0.066639 -0.007758
   vertex -0.032687 0.065162 -0.005247
   vertex -0.031796 0.067467 -0.005798
  endloop
 endfacet
 facet normal -0.936352 0.304548 0.174631
  outer loop
   vertex -0.034071 0.0653 -0.01027
   vertex -0.034032 0.063835 -0.007506
   vertex -0.033167 0.066639 -0.007758
  endloop
 endfacet
 facet normal -0.984653 0.155824 -0.0785916
  outer loop
   vertex -0.034126 0.063686 -0.012781
   vertex -0.03456 0.06221 -0.01027
   vertex -0.034071 0.0653 -0.01027
  endloop
 endfacet
 facet normal -0.886309 0.304753 0.348685
  outer loop
   vertex -0.033167 0.066639 -0.007758
   vertex -0.034032 0.063835 -0.007506
   vertex -0.032687 0.065162 -0.005247
  endloop
 endfacet
 facet normal -0.885615 0.148581 0.440011
  outer loop
   vertex -0.034032 0.063835 -0.007506
   vertex -0.033066 0.06221 -0.005013
   vertex -0.032687 0.065162 -0.005247
  endloop
 endfacet
 facet normal -0.983115 0.15558 0.0963335
  outer loop
   vertex -0.034071 0.0653 -0.01027
   vertex -0.03456 0.06221 -0.01027
   vertex -0.034032 0.063835 -0.007506
  endloop
 endfacet
 facet normal -0.982239 0 0.187634
  outer loop
   vertex -0.03456 0.06221 -0.01027
   vertex -0.034032 0.060585 -0.007506
   vertex -0.034032 0.063835 -0.007506
  endloop
 endfacet
 facet normal -0.932446 0 0.361309
  outer loop
   vertex -0.034032 0.063835 -0.007506
   vertex -0.034032 0.060585 -0.007506
   vertex -0.033066 0.06221 -0.005013
  endloop
 endfacet
 facet normal -0.885615 -0.148581 0.440011
  outer loop
   vertex -0.034032 0.060585 -0.007506
   vertex -0.032687 0.059258 -0.005247
   vertex -0.033066 0.06221 -0.005013
  endloop
 endfacet
 facet normal -0.98539 -0 -0.170314
  outer loop
   vertex -0.034126 0.063686 -0.012781
   vertex -0.034126 0.060734 -0.012781
   vertex -0.03456 0.06221 -0.01027
  endloop
 endfacet
 facet normal -0.984653 -0.155824 -0.0785916
  outer loop
   vertex -0.034126 0.060734 -0.012781
   vertex -0.034071 0.05912 -0.01027
   vertex -0.03456 0.06221 -0.01027
  endloop
 endfacet
 facet normal -0.983115 -0.15558 0.0963335
  outer loop
   vertex -0.03456 0.06221 -0.01027
   vertex -0.034071 0.05912 -0.01027
   vertex -0.034032 0.060585 -0.007506
  endloop
 endfacet
 facet normal -0.936352 -0.304548 0.174631
  outer loop
   vertex -0.034071 0.05912 -0.01027
   vertex -0.033167 0.057781 -0.007758
   vertex -0.034032 0.060585 -0.007506
  endloop
 endfacet
 facet normal -0.886309 -0.304753 0.348685
  outer loop
   vertex -0.034032 0.060585 -0.007506
   vertex -0.033167 0.057781 -0.007758
   vertex -0.032687 0.059258 -0.005247
  endloop
 endfacet
 facet normal -0.819189 -0.412026 0.398954
  outer loop
   vertex -0.033167 0.057781 -0.007758
   vertex -0.031796 0.056953 -0.005798
   vertex -0.032687 0.059258 -0.005247
  endloop
 endfacet
 facet normal -0.645038 -0.651744 0.398942
  outer loop
   vertex -0.031432 0.055393 -0.007758
   vertex -0.029879 0.055393 -0.005247
   vertex -0.031796 0.056953 -0.005798
  endloop
 endfacet
 facet normal -0.578874 -0.796508 0.174584
  outer loop
   vertex -0.030438 0.05412 -0.01027
   vertex -0.029032 0.053704 -0.007506
   vertex -0.031432 0.055393 -0.007758
  endloop
 endfacet
 facet normal -0.452705 -0.888208 -0.0783901
  outer loop
   vertex -0.02892 0.053568 -0.012782
   vertex -0.02765 0.052699 -0.01027
   vertex -0.030438 0.05412 -0.01027
  endloop
 endfacet
 facet normal -0.563623 -0.748876 0.348589
  outer loop
   vertex -0.031432 0.055393 -0.007758
   vertex -0.029032 0.053704 -0.007506
   vertex -0.029879 0.055393 -0.005247
  endloop
 endfacet
 facet normal -0.415138 -0.796394 0.439791
  outer loop
   vertex -0.029032 0.053704 -0.007506
   vertex -0.027189 0.05412 -0.005013
   vertex -0.029879 0.055393 -0.005247
  endloop
 endfacet
 facet normal -0.451986 -0.886796 0.0964489
  outer loop
   vertex -0.030438 0.05412 -0.01027
   vertex -0.02765 0.052699 -0.01027
   vertex -0.029032 0.053704 -0.007506
  endloop
 endfacet
 facet normal -0.303796 -0.934059 0.187729
  outer loop
   vertex -0.02765 0.052699 -0.01027
   vertex -0.025942 0.052699 -0.007506
   vertex -0.029032 0.053704 -0.007506
  endloop
 endfacet
 facet normal -0.288415 -0.886769 0.361189
  outer loop
   vertex -0.029032 0.053704 -0.007506
   vertex -0.025942 0.052699 -0.007506
   vertex -0.027189 0.05412 -0.005013
  endloop
 endfacet
 facet normal -0.132412 -0.888171 0.440021
  outer loop
   vertex -0.025942 0.052699 -0.007506
   vertex -0.024264 0.053568 -0.005247
   vertex -0.027189 0.05412 -0.005013
  endloop
 endfacet
 facet normal -0.304389 -0.937197 -0.170322
  outer loop
   vertex -0.02892 0.053568 -0.012782
   vertex -0.026112 0.052656 -0.012782
   vertex -0.02765 0.052699 -0.01027
  endloop
 endfacet
 facet normal -0.155824 -0.984657 -0.07855
  outer loop
   vertex -0.026112 0.052656 -0.012782
   vertex -0.02456 0.05221 -0.01027
   vertex -0.02765 0.052699 -0.01027
  endloop
 endfacet
 facet normal -0.155583 -0.983133 0.0961419
  outer loop
   vertex -0.02765 0.052699 -0.01027
   vertex -0.02456 0.05221 -0.01027
   vertex -0.025942 0.052699 -0.007506
  endloop
 endfacet
 facet normal 0.000555151 -0.98466 0.174481
  outer loop
   vertex -0.02456 0.05221 -0.01027
   vertex -0.023008 0.052656 -0.007758
   vertex -0.025942 0.052699 -0.007506
  endloop
 endfacet
 facet normal 0.0161962 -0.937175 0.348485
  outer loop
   vertex -0.025942 0.052699 -0.007506
   vertex -0.023008 0.052656 -0.007758
   vertex -0.024264 0.053568 -0.005247
  endloop
 endfacet
 facet normal 0.138975 -0.90647 0.398746
  outer loop
   vertex -0.023008 0.052656 -0.007758
   vertex -0.021796 0.053704 -0.005798
   vertex -0.024264 0.053568 -0.005247
  endloop
 endfacet
 facet normal 0.420269 -0.815078 0.398776
  outer loop
   vertex -0.0202 0.053568 -0.007758
   vertex -0.01972 0.055044 -0.005247
   vertex -0.021796 0.053704 -0.005798
  endloop
 endfacet
 facet normal 0.578519 -0.796783 0.174509
  outer loop
   vertex -0.018682 0.05412 -0.01027
   vertex -0.017852 0.055328 -0.007506
   vertex -0.0202 0.053568 -0.007758
  endloop
 endfacet
 facet normal 0.704936 -0.704936 -0.0782949
  outer loop
   vertex -0.017688 0.055393 -0.012782
   vertex -0.01647 0.056332 -0.01027
   vertex -0.018682 0.05412 -0.01027
  endloop
 endfacet
 facet normal 0.537986 -0.767602 0.348366
  outer loop
   vertex -0.0202 0.053568 -0.007758
   vertex -0.017852 0.055328 -0.007506
   vertex -0.01972 0.055044 -0.005247
  endloop
 endfacet
 facet normal 0.629279 -0.640767 0.439803
  outer loop
   vertex -0.017852 0.055328 -0.007506
   vertex -0.017678 0.05721 -0.005013
   vertex -0.01972 0.055044 -0.005247
  endloop
 endfacet
 facet normal 0.703824 -0.703824 0.0962537
  outer loop
   vertex -0.018682 0.05412 -0.01027
   vertex -0.01647 0.056332 -0.01027
   vertex -0.017852 0.055328 -0.007506
  endloop
 endfacet
 facet normal 0.794662 -0.577331 0.18762
  outer loop
   vertex -0.01647 0.056332 -0.01027
   vertex -0.015942 0.057957 -0.007506
   vertex -0.017852 0.055328 -0.007506
  endloop
 endfacet
 facet normal 0.754436 -0.548107 0.361117
  outer loop
   vertex -0.017852 0.055328 -0.007506
   vertex -0.015942 0.057957 -0.007506
   vertex -0.017678 0.05721 -0.005013
  endloop
 endfacet
 facet normal 0.803858 -0.400541 0.439749
  outer loop
   vertex -0.015942 0.057957 -0.007506
   vertex -0.016249 0.059821 -0.005247
   vertex -0.017678 0.05721 -0.005013
  endloop
 endfacet
 facet normal 0.797233 -0.579229 -0.170037
  outer loop
   vertex -0.017688 0.055393 -0.012782
   vertex -0.015953 0.057781 -0.012782
   vertex -0.01647 0.056332 -0.01027
  endloop
 endfacet
 facet normal 0.888212 -0.452708 -0.078331
  outer loop
   vertex -0.015953 0.057781 -0.012782
   vertex -0.015049 0.05912 -0.01027
   vertex -0.01647 0.056332 -0.01027
  endloop
 endfacet
 facet normal 0.886806 -0.451991 0.0963284
  outer loop
   vertex -0.01647 0.056332 -0.01027
   vertex -0.015049 0.05912 -0.01027
   vertex -0.015942 0.057957 -0.007506
  endloop
 endfacet
 facet normal 0.93657 -0.303801 0.17476
  outer loop
   vertex -0.015049 0.05912 -0.01027
   vertex -0.014994 0.060734 -0.007759
   vertex -0.015942 0.057957 -0.007506
  endloop
 endfacet
 facet normal 0.89641 -0.274294 0.348155
  outer loop
   vertex -0.015942 0.057957 -0.007506
   vertex -0.014994 0.060734 -0.007759
   vertex -0.016249 0.059821 -0.005247
  endloop
 endfacet
 facet normal 0.905177 -0.147939 0.398459
  outer loop
   vertex -0.014994 0.060734 -0.007759
   vertex -0.015616 0.06221 -0.005798
   vertex -0.016249 0.059821 -0.005247
  endloop
 endfacet
 facet normal 0.294416 0.906493 0.302638
  outer loop
   vertex -0.0202 0.070852 -0.007758
   vertex -0.023008 0.071764 -0.007758
   vertex -0.021796 0.070716 -0.005798
  endloop
 endfacet
 facet normal 0.452705 0.888208 0.0783901
  outer loop
   vertex -0.018682 0.0703 -0.01027
   vertex -0.02147 0.071721 -0.01027
   vertex -0.0202 0.070852 -0.007758
  endloop
 endfacet
 facet normal 0.578874 0.796508 -0.174584
  outer loop
   vertex -0.017688 0.069027 -0.012782
   vertex -0.020088 0.070716 -0.013034
   vertex -0.018682 0.0703 -0.01027
  endloop
 endfacet
 facet normal 0.304389 0.937197 0.170322
  outer loop
   vertex -0.0202 0.070852 -0.007758
   vertex -0.02147 0.071721 -0.01027
   vertex -0.023008 0.071764 -0.007758
  endloop
 endfacet
 facet normal 0.155824 0.984657 0.07855
  outer loop
   vertex -0.02147 0.071721 -0.01027
   vertex -0.02456 0.07221 -0.01027
   vertex -0.023008 0.071764 -0.007758
  endloop
 endfacet
 facet normal 0.451986 0.886796 -0.0964489
  outer loop
   vertex -0.018682 0.0703 -0.01027
   vertex -0.020088 0.070716 -0.013034
   vertex -0.02147 0.071721 -0.01027
  endloop
 endfacet
 facet normal 0.303796 0.934059 -0.187729
  outer loop
   vertex -0.020088 0.070716 -0.013034
   vertex -0.023178 0.071721 -0.013034
   vertex -0.02147 0.071721 -0.01027
  endloop
 endfacet
 facet normal 0.155583 0.983133 -0.0961419
  outer loop
   vertex -0.02147 0.071721 -0.01027
   vertex -0.023178 0.071721 -0.013034
   vertex -0.02456 0.07221 -0.01027
  endloop
 endfacet
 facet normal -0.000555151 0.98466 -0.174481
  outer loop
   vertex -0.023178 0.071721 -0.013034
   vertex -0.026112 0.071764 -0.012782
   vertex -0.02456 0.07221 -0.01027
  endloop
 endfacet
 facet normal 0.563623 0.748876 -0.348589
  outer loop
   vertex -0.017688 0.069027 -0.012782
   vertex -0.019241 0.069027 -0.015293
   vertex -0.020088 0.070716 -0.013034
  endloop
 endfacet
 facet normal 0.415138 0.796394 -0.439791
  outer loop
   vertex -0.019241 0.069027 -0.015293
   vertex -0.021931 0.0703 -0.015527
   vertex -0.020088 0.070716 -0.013034
  endloop
 endfacet
 facet normal 0.288415 0.886769 -0.361189
  outer loop
   vertex -0.020088 0.070716 -0.013034
   vertex -0.021931 0.0703 -0.015527
   vertex -0.023178 0.071721 -0.013034
  endloop
 endfacet
 facet normal 0.132412 0.888171 -0.440021
  outer loop
   vertex -0.021931 0.0703 -0.015527
   vertex -0.024856 0.070852 -0.015293
   vertex -0.023178 0.071721 -0.013034
  endloop
 endfacet
 facet normal -0.0161962 0.937175 -0.348485
  outer loop
   vertex -0.023178 0.071721 -0.013034
   vertex -0.024856 0.070852 -0.015293
   vertex -0.026112 0.071764 -0.012782
  endloop
 endfacet
 facet normal -0.138975 0.90647 -0.398746
  outer loop
   vertex -0.024856 0.070852 -0.015293
   vertex -0.027324 0.070716 -0.014742
   vertex -0.026112 0.071764 -0.012782
  endloop
 endfacet
 facet normal -0.771063 0.560215 0.302688
  outer loop
   vertex -0.031432 0.069027 -0.007758
   vertex -0.033167 0.066639 -0.007758
   vertex -0.031796 0.067467 -0.005798
  endloop
 endfacet
 facet normal -0.704936 0.704936 0.0782949
  outer loop
   vertex -0.030438 0.0703 -0.01027
   vertex -0.03265 0.068088 -0.01027
   vertex -0.031432 0.069027 -0.007758
  endloop
 endfacet
 facet normal -0.578519 0.796783 -0.174509
  outer loop
   vertex -0.02892 0.070852 -0.012782
   vertex -0.031268 0.069092 -0.013034
   vertex -0.030438 0.0703 -0.01027
  endloop
 endfacet
 facet normal -0.797233 0.579229 0.170037
  outer loop
   vertex -0.031432 0.069027 -0.007758
   vertex -0.03265 0.068088 -0.01027
   vertex -0.033167 0.066639 -0.007758
  endloop
 endfacet
 facet normal -0.888212 0.452708 0.078331
  outer loop
   vertex -0.03265 0.068088 -0.01027
   vertex -0.034071 0.0653 -0.01027
   vertex -0.033167 0.066639 -0.007758
  endloop
 endfacet
 facet normal -0.703824 0.703824 -0.0962537
  outer loop
   vertex -0.030438 0.0703 -0.01027
   vertex -0.031268 0.069092 -0.013034
   vertex -0.03265 0.068088 -0.01027
  endloop
 endfacet
 facet normal -0.794662 0.577331 -0.18762
  outer loop
   vertex -0.031268 0.069092 -0.013034
   vertex -0.033178 0.066463 -0.013034
   vertex -0.03265 0.068088 -0.01027
  endloop
 endfacet
 facet normal -0.886806 0.451991 -0.0963284
  outer loop
   vertex -0.03265 0.068088 -0.01027
   vertex -0.033178 0.066463 -0.013034
   vertex -0.034071 0.0653 -0.01027
  endloop
 endfacet
 facet normal -0.93657 0.303801 -0.17476
  outer loop
   vertex -0.033178 0.066463 -0.013034
   vertex -0.034126 0.063686 -0.012781
   vertex -0.034071 0.0653 -0.01027
  endloop
 endfacet
 facet normal -0.537986 0.767602 -0.348366
  outer loop
   vertex -0.02892 0.070852 -0.012782
   vertex -0.0294 0.069376 -0.015293
   vertex -0.031268 0.069092 -0.013034
  endloop
 endfacet
 facet normal -0.629279 0.640767 -0.439803
  outer loop
   vertex -0.0294 0.069376 -0.015293
   vertex -0.031442 0.06721 -0.015527
   vertex -0.031268 0.069092 -0.013034
  endloop
 endfacet
 facet normal -0.754436 0.548107 -0.361117
  outer loop
   vertex -0.031268 0.069092 -0.013034
   vertex -0.031442 0.06721 -0.015527
   vertex -0.033178 0.066463 -0.013034
  endloop
 endfacet
 facet normal -0.803858 0.400541 -0.439749
  outer loop
   vertex -0.031442 0.06721 -0.015527
   vertex -0.032871 0.064599 -0.015293
   vertex -0.033178 0.066463 -0.013034
  endloop
 endfacet
 facet normal -0.89641 0.274294 -0.348155
  outer loop
   vertex -0.033178 0.066463 -0.013034
   vertex -0.032871 0.064599 -0.015293
   vertex -0.034126 0.063686 -0.012781
  endloop
 endfacet
 facet normal -0.905177 0.147939 -0.398459
  outer loop
   vertex -0.032871 0.064599 -0.015293
   vertex -0.033504 0.06221 -0.014742
   vertex -0.034126 0.063686 -0.012781
  endloop
 endfacet
 facet normal -0.771063 -0.560215 0.302688
  outer loop
   vertex -0.033167 0.057781 -0.007758
   vertex -0.031432 0.055393 -0.007758
   vertex -0.031796 0.056953 -0.005798
  endloop
 endfacet
 facet normal -0.888212 -0.452708 0.078331
  outer loop
   vertex -0.034071 0.05912 -0.01027
   vertex -0.03265 0.056332 -0.01027
   vertex -0.033167 0.057781 -0.007758
  endloop
 endfacet
 facet normal -0.93657 -0.303801 -0.17476
  outer loop
   vertex -0.034126 0.060734 -0.012781
   vertex -0.033178 0.057957 -0.013034
   vertex -0.034071 0.05912 -0.01027
  endloop
 endfacet
 facet normal -0.797233 -0.579229 0.170037
  outer loop
   vertex -0.033167 0.057781 -0.007758
   vertex -0.03265 0.056332 -0.01027
   vertex -0.031432 0.055393 -0.007758
  endloop
 endfacet
 facet normal -0.704936 -0.704936 0.0782949
  outer loop
   vertex -0.03265 0.056332 -0.01027
   vertex -0.030438 0.05412 -0.01027
   vertex -0.031432 0.055393 -0.007758
  endloop
 endfacet
 facet normal -0.886806 -0.451991 -0.0963284
  outer loop
   vertex -0.034071 0.05912 -0.01027
   vertex -0.033178 0.057957 -0.013034
   vertex -0.03265 0.056332 -0.01027
  endloop
 endfacet
 facet normal -0.794662 -0.577331 -0.18762
  outer loop
   vertex -0.033178 0.057957 -0.013034
   vertex -0.031268 0.055328 -0.013034
   vertex -0.03265 0.056332 -0.01027
  endloop
 endfacet
 facet normal -0.703824 -0.703824 -0.0962537
  outer loop
   vertex -0.03265 0.056332 -0.01027
   vertex -0.031268 0.055328 -0.013034
   vertex -0.030438 0.05412 -0.01027
  endloop
 endfacet
 facet normal -0.578519 -0.796783 -0.174509
  outer loop
   vertex -0.031268 0.055328 -0.013034
   vertex -0.02892 0.053568 -0.012782
   vertex -0.030438 0.05412 -0.01027
  endloop
 endfacet
 facet normal -0.89641 -0.274294 -0.348155
  outer loop
   vertex -0.034126 0.060734 -0.012781
   vertex -0.032871 0.059821 -0.015293
   vertex -0.033178 0.057957 -0.013034
  endloop
 endfacet
 facet normal -0.803858 -0.400541 -0.439749
  outer loop
   vertex -0.032871 0.059821 -0.015293
   vertex -0.031442 0.05721 -0.015527
   vertex -0.033178 0.057957 -0.013034
  endloop
 endfacet
 facet normal -0.754436 -0.548107 -0.361117
  outer loop
   vertex -0.033178 0.057957 -0.013034
   vertex -0.031442 0.05721 -0.015527
   vertex -0.031268 0.055328 -0.013034
  endloop
 endfacet
 facet normal -0.629279 -0.640767 -0.439803
  outer loop
   vertex -0.031442 0.05721 -0.015527
   vertex -0.0294 0.055044 -0.015293
   vertex -0.031268 0.055328 -0.013034
  endloop
 endfacet
 facet normal -0.537986 -0.767602 -0.348366
  outer loop
   vertex -0.031268 0.055328 -0.013034
   vertex -0.0294 0.055044 -0.015293
   vertex -0.02892 0.053568 -0.012782
  endloop
 endfacet
 facet normal -0.420269 -0.815078 -0.398776
  outer loop
   vertex -0.0294 0.055044 -0.015293
   vertex -0.027324 0.053704 -0.014742
   vertex -0.02892 0.053568 -0.012782
  endloop
 endfacet
 facet normal 0.294416 -0.906493 0.302638
  outer loop
   vertex -0.023008 0.052656 -0.007758
   vertex -0.0202 0.053568 -0.007758
   vertex -0.021796 0.053704 -0.005798
  endloop
 endfacet
 facet normal 0.155824 -0.984657 0.07855
  outer loop
   vertex -0.02456 0.05221 -0.01027
   vertex -0.02147 0.052699 -0.01027
   vertex -0.023008 0.052656 -0.007758
  endloop
 endfacet
 facet normal -0.000555151 -0.98466 -0.174481
  outer loop
   vertex -0.026112 0.052656 -0.012782
   vertex -0.023178 0.052699 -0.013034
   vertex -0.02456 0.05221 -0.01027
  endloop
 endfacet
 facet normal 0.304389 -0.937197 0.170322
  outer loop
   vertex -0.023008 0.052656 -0.007758
   vertex -0.02147 0.052699 -0.01027
   vertex -0.0202 0.053568 -0.007758
  endloop
 endfacet
 facet normal 0.452705 -0.888208 0.0783901
  outer loop
   vertex -0.02147 0.052699 -0.01027
   vertex -0.018682 0.05412 -0.01027
   vertex -0.0202 0.053568 -0.007758
  endloop
 endfacet
 facet normal 0.155583 -0.983133 -0.0961419
  outer loop
   vertex -0.02456 0.05221 -0.01027
   vertex -0.023178 0.052699 -0.013034
   vertex -0.02147 0.052699 -0.01027
  endloop
 endfacet
 facet normal 0.303796 -0.934059 -0.187729
  outer loop
   vertex -0.023178 0.052699 -0.013034
   vertex -0.020088 0.053704 -0.013034
   vertex -0.02147 0.052699 -0.01027
  endloop
 endfacet
 facet normal 0.451986 -0.886796 -0.0964489
  outer loop
   vertex -0.02147 0.052699 -0.01027
   vertex -0.020088 0.053704 -0.013034
   vertex -0.018682 0.05412 -0.01027
  endloop
 endfacet
 facet normal 0.578874 -0.796508 -0.174584
  outer loop
   vertex -0.020088 0.053704 -0.013034
   vertex -0.017688 0.055393 -0.012782
   vertex -0.018682 0.05412 -0.01027
  endloop
 endfacet
 facet normal -0.0161962 -0.937175 -0.348485
  outer loop
   vertex -0.026112 0.052656 -0.012782
   vertex -0.024856 0.053568 -0.015293
   vertex -0.023178 0.052699 -0.013034
  endloop
 endfacet
 facet normal 0.132412 -0.888171 -0.440021
  outer loop
   vertex -0.024856 0.053568 -0.015293
   vertex -0.021931 0.05412 -0.015527
   vertex -0.023178 0.052699 -0.013034
  endloop
 endfacet
 facet normal 0.288415 -0.886769 -0.361189
  outer loop
   vertex -0.023178 0.052699 -0.013034
   vertex -0.021931 0.05412 -0.015527
   vertex -0.020088 0.053704 -0.013034
  endloop
 endfacet
 facet normal 0.415138 -0.796394 -0.439791
  outer loop
   vertex -0.021931 0.05412 -0.015527
   vertex -0.019241 0.055393 -0.015293
   vertex -0.020088 0.053704 -0.013034
  endloop
 endfacet
 facet normal 0.563623 -0.748876 -0.348589
  outer loop
   vertex -0.020088 0.053704 -0.013034
   vertex -0.019241 0.055393 -0.015293
   vertex -0.017688 0.055393 -0.012782
  endloop
 endfacet
 facet normal 0.645038 -0.651744 -0.398942
  outer loop
   vertex -0.019241 0.055393 -0.015293
   vertex -0.017324 0.056953 -0.014742
   vertex -0.017688 0.055393 -0.012782
  endloop
 endfacet
 facet normal 0.9532 -0 0.302341
  outer loop
   vertex -0.014994 0.060734 -0.007759
   vertex -0.014994 0.063686 -0.007759
   vertex -0.015616 0.06221 -0.005798
  endloop
 endfacet
 facet normal 0.984653 -0.155824 0.0785916
  outer loop
   vertex -0.015049 0.05912 -0.01027
   vertex -0.01456 0.06221 -0.01027
   vertex -0.014994 0.060734 -0.007759
  endloop
 endfacet
 facet normal 0.936352 -0.304548 -0.174631
  outer loop
   vertex -0.015953 0.057781 -0.012782
   vertex -0.015088 0.060585 -0.013034
   vertex -0.015049 0.05912 -0.01027
  endloop
 endfacet
 facet normal 0.98539 -0 0.170314
  outer loop
   vertex -0.014994 0.060734 -0.007759
   vertex -0.01456 0.06221 -0.01027
   vertex -0.014994 0.063686 -0.007759
  endloop
 endfacet
 facet normal 0.984653 0.155824 0.0785916
  outer loop
   vertex -0.01456 0.06221 -0.01027
   vertex -0.015049 0.0653 -0.01027
   vertex -0.014994 0.063686 -0.007759
  endloop
 endfacet
 facet normal 0.983115 -0.15558 -0.0963335
  outer loop
   vertex -0.015049 0.05912 -0.01027
   vertex -0.015088 0.060585 -0.013034
   vertex -0.01456 0.06221 -0.01027
  endloop
 endfacet
 facet normal 0.982239 0 -0.187634
  outer loop
   vertex -0.015088 0.060585 -0.013034
   vertex -0.015088 0.063835 -0.013034
   vertex -0.01456 0.06221 -0.01027
  endloop
 endfacet
 facet normal 0.983115 0.15558 -0.0963335
  outer loop
   vertex -0.01456 0.06221 -0.01027
   vertex -0.015088 0.063835 -0.013034
   vertex -0.015049 0.0653 -0.01027
  endloop
 endfacet
 facet normal 0.936352 0.304548 -0.174631
  outer loop
   vertex -0.015088 0.063835 -0.013034
   vertex -0.015953 0.066639 -0.012782
   vertex -0.015049 0.0653 -0.01027
  endloop
 endfacet
 facet normal 0.886309 -0.304753 -0.348685
  outer loop
   vertex -0.015953 0.057781 -0.012782
   vertex -0.016433 0.059258 -0.015293
   vertex -0.015088 0.060585 -0.013034
  endloop
 endfacet
 facet normal 0.885615 -0.148581 -0.440011
  outer loop
   vertex -0.016433 0.059258 -0.015293
   vertex -0.016054 0.06221 -0.015527
   vertex -0.015088 0.060585 -0.013034
  endloop
 endfacet
 facet normal 0.932446 0 -0.361309
  outer loop
   vertex -0.015088 0.060585 -0.013034
   vertex -0.016054 0.06221 -0.015527
   vertex -0.015088 0.063835 -0.013034
  endloop
 endfacet
 facet normal 0.885615 0.148581 -0.440011
  outer loop
   vertex -0.016054 0.06221 -0.015527
   vertex -0.016433 0.065162 -0.015293
   vertex -0.015088 0.063835 -0.013034
  endloop
 endfacet
 facet normal 0.886309 0.304753 -0.348685
  outer loop
   vertex -0.015088 0.063835 -0.013034
   vertex -0.016433 0.065162 -0.015293
   vertex -0.015953 0.066639 -0.012782
  endloop
 endfacet
 facet normal 0.819189 0.412026 -0.398954
  outer loop
   vertex -0.016433 0.065162 -0.015293
   vertex -0.017324 0.067467 -0.014742
   vertex -0.015953 0.066639 -0.012782
  endloop
 endfacet
 facet normal 0.61533 0.560308 -0.554459
  outer loop
   vertex -0.018465 0.066639 -0.016845
   vertex -0.019241 0.069027 -0.015293
   vertex -0.017324 0.067467 -0.014742
  endloop
 endfacet
 facet normal 0.467426 0.452641 -0.759361
  outer loop
   vertex -0.020307 0.0653 -0.018777
   vertex -0.020942 0.068088 -0.017506
   vertex -0.018465 0.066639 -0.016845
  endloop
 endfacet
 facet normal 0.262485 0.303841 -0.915851
  outer loop
   vertex -0.022528 0.063686 -0.019949
   vertex -0.023178 0.066463 -0.019214
   vertex -0.020307 0.0653 -0.018777
  endloop
 endfacet
 facet normal 0.508799 0.579247 -0.636864
  outer loop
   vertex -0.018465 0.066639 -0.016845
   vertex -0.020942 0.068088 -0.017506
   vertex -0.019241 0.069027 -0.015293
  endloop
 endfacet
 facet normal 0.38541 0.704977 -0.595371
  outer loop
   vertex -0.020942 0.068088 -0.017506
   vertex -0.021931 0.0703 -0.015527
   vertex -0.019241 0.069027 -0.015293
  endloop
 endfacet
 facet normal 0.310374 0.451949 -0.836307
  outer loop
   vertex -0.020307 0.0653 -0.018777
   vertex -0.023178 0.066463 -0.019214
   vertex -0.020942 0.068088 -0.017506
  endloop
 endfacet
 facet normal 0.187559 0.577248 -0.794737
  outer loop
   vertex -0.023178 0.066463 -0.019214
   vertex -0.024032 0.069092 -0.017506
   vertex -0.020942 0.068088 -0.017506
  endloop
 endfacet
 facet normal 0.228709 0.703897 -0.672474
  outer loop
   vertex -0.020942 0.068088 -0.017506
   vertex -0.024032 0.069092 -0.017506
   vertex -0.021931 0.0703 -0.015527
  endloop
 endfacet
 facet normal 0.102735 0.796801 -0.595444
  outer loop
   vertex -0.024032 0.069092 -0.017506
   vertex -0.024856 0.070852 -0.015293
   vertex -0.021931 0.0703 -0.015527
  endloop
 endfacet
 facet normal 0.0891868 0.274301 -0.957499
  outer loop
   vertex -0.022528 0.063686 -0.019949
   vertex -0.025336 0.064599 -0.019949
   vertex -0.023178 0.066463 -0.019214
  endloop
 endfacet
 facet normal -0.0336945 0.400135 -0.915836
  outer loop
   vertex -0.025336 0.064599 -0.019949
   vertex -0.026185 0.06721 -0.018777
   vertex -0.023178 0.066463 -0.019214
  endloop
 endfacet
 facet normal 0.0146149 0.548074 -0.836302
  outer loop
   vertex -0.023178 0.066463 -0.019214
   vertex -0.026185 0.06721 -0.018777
   vertex -0.024032 0.069092 -0.017506
  endloop
 endfacet
 facet normal -0.112009 0.640965 -0.759354
  outer loop
   vertex -0.026185 0.06721 -0.018777
   vertex -0.026888 0.069376 -0.016845
   vertex -0.024032 0.069092 -0.017506
  endloop
 endfacet
 facet normal -0.0710868 0.767617 -0.636955
  outer loop
   vertex -0.024032 0.069092 -0.017506
   vertex -0.026888 0.069376 -0.016845
   vertex -0.024856 0.070852 -0.015293
  endloop
 endfacet
 facet normal -0.168666 0.815046 -0.554303
  outer loop
   vertex -0.026888 0.069376 -0.016845
   vertex -0.027324 0.070716 -0.014742
   vertex -0.024856 0.070852 -0.015293
  endloop
 endfacet
 facet normal -0.342493 0.758552 -0.554344
  outer loop
   vertex -0.026888 0.069376 -0.016845
   vertex -0.0294 0.069376 -0.015293
   vertex -0.027324 0.070716 -0.014742
  endloop
 endfacet
 facet normal -0.286233 0.584386 -0.759318
  outer loop
   vertex -0.026185 0.06721 -0.018777
   vertex -0.029032 0.067467 -0.017506
   vertex -0.026888 0.069376 -0.016845
  endloop
 endfacet
 facet normal -0.207851 0.343516 -0.915858
  outer loop
   vertex -0.025336 0.064599 -0.019949
   vertex -0.028178 0.064839 -0.019214
   vertex -0.026185 0.06721 -0.018777
  endloop
 endfacet
 facet normal -0.393627 0.662685 -0.637108
  outer loop
   vertex -0.026888 0.069376 -0.016845
   vertex -0.029032 0.067467 -0.017506
   vertex -0.0294 0.069376 -0.015293
  endloop
 endfacet
 facet normal -0.551379 0.584158 -0.595601
  outer loop
   vertex -0.029032 0.067467 -0.017506
   vertex -0.031442 0.06721 -0.015527
   vertex -0.0294 0.069376 -0.015293
  endloop
 endfacet
 facet normal -0.334054 0.43492 -0.836213
  outer loop
   vertex -0.026185 0.06721 -0.018777
   vertex -0.028178 0.064839 -0.019214
   vertex -0.029032 0.067467 -0.017506
  endloop
 endfacet
 facet normal -0.491058 0.356895 -0.794662
  outer loop
   vertex -0.028178 0.064839 -0.019214
   vertex -0.030942 0.064839 -0.017506
   vertex -0.029032 0.067467 -0.017506
  endloop
 endfacet
 facet normal -0.598657 0.435097 -0.672533
  outer loop
   vertex -0.029032 0.067467 -0.017506
   vertex -0.030942 0.064839 -0.017506
   vertex -0.031442 0.06721 -0.015527
  endloop
 endfacet
 facet normal -0.725985 0.343961 -0.595514
  outer loop
   vertex -0.030942 0.064839 -0.017506
   vertex -0.032871 0.064599 -0.015293
   vertex -0.031442 0.06721 -0.015527
  endloop
 endfacet
 facet normal -0.233325 0.169451 -0.957521
  outer loop
   vertex -0.025336 0.064599 -0.019949
   vertex -0.027071 0.06221 -0.019949
   vertex -0.028178 0.064839 -0.019214
  endloop
 endfacet
 facet normal -0.390899 0.0914587 -0.915878
  outer loop
   vertex -0.027071 0.06221 -0.019949
   vertex -0.029817 0.06221 -0.018777
   vertex -0.028178 0.064839 -0.019214
  endloop
 endfacet
 facet normal -0.516783 0.183167 -0.836293
  outer loop
   vertex -0.028178 0.064839 -0.019214
   vertex -0.029817 0.06221 -0.018777
   vertex -0.030942 0.064839 -0.017506
  endloop
 endfacet
 facet normal -0.644269 0.0913996 -0.759317
  outer loop
   vertex -0.029817 0.06221 -0.018777
   vertex -0.032094 0.06221 -0.016845
   vertex -0.030942 0.064839 -0.017506
  endloop
 endfacet
 facet normal -0.751958 0.169318 -0.637095
  outer loop
   vertex -0.030942 0.064839 -0.017506
   vertex -0.032094 0.06221 -0.016845
   vertex -0.032871 0.064599 -0.015293
  endloop
 endfacet
 facet normal -0.827124 0.091254 -0.554562
  outer loop
   vertex -0.032094 0.06221 -0.016845
   vertex -0.033504 0.06221 -0.014742
   vertex -0.032871 0.064599 -0.015293
  endloop
 endfacet
 facet normal -0.827124 -0.091254 -0.554562
  outer loop
   vertex -0.032094 0.06221 -0.016845
   vertex -0.032871 0.059821 -0.015293
   vertex -0.033504 0.06221 -0.014742
  endloop
 endfacet
 facet normal -0.644269 -0.0913996 -0.759317
  outer loop
   vertex -0.029817 0.06221 -0.018777
   vertex -0.030942 0.059581 -0.017506
   vertex -0.032094 0.06221 -0.016845
  endloop
 endfacet
 facet normal -0.390899 -0.0914587 -0.915878
  outer loop
   vertex -0.027071 0.06221 -0.019949
   vertex -0.028178 0.059581 -0.019214
   vertex -0.029817 0.06221 -0.018777
  endloop
 endfacet
 facet normal -0.751958 -0.169318 -0.637095
  outer loop
   vertex -0.032094 0.06221 -0.016845
   vertex -0.030942 0.059581 -0.017506
   vertex -0.032871 0.059821 -0.015293
  endloop
 endfacet
 facet normal -0.725985 -0.343961 -0.595514
  outer loop
   vertex -0.030942 0.059581 -0.017506
   vertex -0.031442 0.05721 -0.015527
   vertex -0.032871 0.059821 -0.015293
  endloop
 endfacet
 facet normal -0.516783 -0.183167 -0.836293
  outer loop
   vertex -0.029817 0.06221 -0.018777
   vertex -0.028178 0.059581 -0.019214
   vertex -0.030942 0.059581 -0.017506
  endloop
 endfacet
 facet normal -0.491058 -0.356895 -0.794662
  outer loop
   vertex -0.028178 0.059581 -0.019214
   vertex -0.029032 0.056953 -0.017506
   vertex -0.030942 0.059581 -0.017506
  endloop
 endfacet
 facet normal -0.598657 -0.435097 -0.672533
  outer loop
   vertex -0.030942 0.059581 -0.017506
   vertex -0.029032 0.056953 -0.017506
   vertex -0.031442 0.05721 -0.015527
  endloop
 endfacet
 facet normal -0.551379 -0.584158 -0.595601
  outer loop
   vertex -0.029032 0.056953 -0.017506
   vertex -0.0294 0.055044 -0.015293
   vertex -0.031442 0.05721 -0.015527
  endloop
 endfacet
 facet normal -0.233325 -0.169451 -0.957521
  outer loop
   vertex -0.027071 0.06221 -0.019949
   vertex -0.025336 0.059821 -0.019949
   vertex -0.028178 0.059581 -0.019214
  endloop
 endfacet
 facet normal -0.207851 -0.343516 -0.915858
  outer loop
   vertex -0.025336 0.059821 -0.019949
   vertex -0.026185 0.05721 -0.018777
   vertex -0.028178 0.059581 -0.019214
  endloop
 endfacet
 facet normal -0.334054 -0.43492 -0.836213
  outer loop
   vertex -0.028178 0.059581 -0.019214
   vertex -0.026185 0.05721 -0.018777
   vertex -0.029032 0.056953 -0.017506
  endloop
 endfacet
 facet normal -0.286233 -0.584386 -0.759318
  outer loop
   vertex -0.026185 0.05721 -0.018777
   vertex -0.026888 0.055044 -0.016845
   vertex -0.029032 0.056953 -0.017506
  endloop
 endfacet
 facet normal -0.393627 -0.662685 -0.637108
  outer loop
   vertex -0.029032 0.056953 -0.017506
   vertex -0.026888 0.055044 -0.016845
   vertex -0.0294 0.055044 -0.015293
  endloop
 endfacet
 facet normal -0.342493 -0.758552 -0.554344
  outer loop
   vertex -0.026888 0.055044 -0.016845
   vertex -0.027324 0.053704 -0.014742
   vertex -0.0294 0.055044 -0.015293
  endloop
 endfacet
 facet normal 0.723015 0.412034 -0.554506
  outer loop
   vertex -0.016433 0.065162 -0.015293
   vertex -0.018465 0.066639 -0.016845
   vertex -0.017324 0.067467 -0.014742
  endloop
 endfacet
 facet normal 0.789589 0.148568 -0.59538
  outer loop
   vertex -0.016054 0.06221 -0.015527
   vertex -0.017852 0.063835 -0.017506
   vertex -0.016433 0.065162 -0.015293
  endloop
 endfacet
 facet normal 0.789589 -0.148568 -0.59538
  outer loop
   vertex -0.016433 0.059258 -0.015293
   vertex -0.017852 0.060585 -0.017506
   vertex -0.016054 0.06221 -0.015527
  endloop
 endfacet
 facet normal 0.708089 0.304936 -0.636886
  outer loop
   vertex -0.016433 0.065162 -0.015293
   vertex -0.017852 0.063835 -0.017506
   vertex -0.018465 0.066639 -0.016845
  endloop
 endfacet
 facet normal 0.574948 0.304695 -0.759339
  outer loop
   vertex -0.017852 0.063835 -0.017506
   vertex -0.020307 0.0653 -0.018777
   vertex -0.018465 0.066639 -0.016845
  endloop
 endfacet
 facet normal 0.740143 0 -0.672449
  outer loop
   vertex -0.016054 0.06221 -0.015527
   vertex -0.017852 0.060585 -0.017506
   vertex -0.017852 0.063835 -0.017506
  endloop
 endfacet
 facet normal 0.607028 0 -0.794681
  outer loop
   vertex -0.017852 0.060585 -0.017506
   vertex -0.020088 0.06221 -0.019214
   vertex -0.017852 0.063835 -0.017506
  endloop
 endfacet
 facet normal 0.525774 0.155534 -0.836284
  outer loop
   vertex -0.017852 0.063835 -0.017506
   vertex -0.020088 0.06221 -0.019214
   vertex -0.020307 0.0653 -0.018777
  endloop
 endfacet
 facet normal 0.370096 0.155752 -0.915844
  outer loop
   vertex -0.020088 0.06221 -0.019214
   vertex -0.022528 0.063686 -0.019949
   vertex -0.020307 0.0653 -0.018777
  endloop
 endfacet
 facet normal 0.708089 -0.304936 -0.636886
  outer loop
   vertex -0.016433 0.059258 -0.015293
   vertex -0.018465 0.057781 -0.016845
   vertex -0.017852 0.060585 -0.017506
  endloop
 endfacet
 facet normal 0.574948 -0.304695 -0.759339
  outer loop
   vertex -0.018465 0.057781 -0.016845
   vertex -0.020307 0.05912 -0.018777
   vertex -0.017852 0.060585 -0.017506
  endloop
 endfacet
 facet normal 0.525774 -0.155534 -0.836284
  outer loop
   vertex -0.017852 0.060585 -0.017506
   vertex -0.020307 0.05912 -0.018777
   vertex -0.020088 0.06221 -0.019214
  endloop
 endfacet
 facet normal 0.370096 -0.155752 -0.915844
  outer loop
   vertex -0.020307 0.05912 -0.018777
   vertex -0.022528 0.060734 -0.019949
   vertex -0.020088 0.06221 -0.019214
  endloop
 endfacet
 facet normal 0.288428 0 -0.957502
  outer loop
   vertex -0.020088 0.06221 -0.019214
   vertex -0.022528 0.060734 -0.019949
   vertex -0.022528 0.063686 -0.019949
  endloop
 endfacet
 facet normal 0.156037 0 -0.987751
  outer loop
   vertex -0.022528 0.060734 -0.019949
   vertex -0.02456 0.06221 -0.02027
   vertex -0.022528 0.063686 -0.019949
  endloop
 endfacet
 facet normal -0.168666 -0.815046 -0.554303
  outer loop
   vertex -0.026888 0.055044 -0.016845
   vertex -0.024856 0.053568 -0.015293
   vertex -0.027324 0.053704 -0.014742
  endloop
 endfacet
 facet normal -0.112009 -0.640965 -0.759354
  outer loop
   vertex -0.026185 0.05721 -0.018777
   vertex -0.024032 0.055328 -0.017506
   vertex -0.026888 0.055044 -0.016845
  endloop
 endfacet
 facet normal -0.0336945 -0.400135 -0.915836
  outer loop
   vertex -0.025336 0.059821 -0.019949
   vertex -0.023178 0.057957 -0.019214
   vertex -0.026185 0.05721 -0.018777
  endloop
 endfacet
 facet normal -0.0710868 -0.767617 -0.636955
  outer loop
   vertex -0.026888 0.055044 -0.016845
   vertex -0.024032 0.055328 -0.017506
   vertex -0.024856 0.053568 -0.015293
  endloop
 endfacet
 facet normal 0.102735 -0.796801 -0.595444
  outer loop
   vertex -0.024032 0.055328 -0.017506
   vertex -0.021931 0.05412 -0.015527
   vertex -0.024856 0.053568 -0.015293
  endloop
 endfacet
 facet normal 0.0146149 -0.548074 -0.836302
  outer loop
   vertex -0.026185 0.05721 -0.018777
   vertex -0.023178 0.057957 -0.019214
   vertex -0.024032 0.055328 -0.017506
  endloop
 endfacet
 facet normal 0.187559 -0.577248 -0.794737
  outer loop
   vertex -0.023178 0.057957 -0.019214
   vertex -0.020942 0.056332 -0.017506
   vertex -0.024032 0.055328 -0.017506
  endloop
 endfacet
 facet normal 0.228709 -0.703897 -0.672474
  outer loop
   vertex -0.024032 0.055328 -0.017506
   vertex -0.020942 0.056332 -0.017506
   vertex -0.021931 0.05412 -0.015527
  endloop
 endfacet
 facet normal 0.38541 -0.704977 -0.595371
  outer loop
   vertex -0.020942 0.056332 -0.017506
   vertex -0.019241 0.055393 -0.015293
   vertex -0.021931 0.05412 -0.015527
  endloop
 endfacet
 facet normal 0.0891868 -0.274301 -0.957499
  outer loop
   vertex -0.025336 0.059821 -0.019949
   vertex -0.022528 0.060734 -0.019949
   vertex -0.023178 0.057957 -0.019214
  endloop
 endfacet
 facet normal 0.262485 -0.303841 -0.915851
  outer loop
   vertex -0.022528 0.060734 -0.019949
   vertex -0.020307 0.05912 -0.018777
   vertex -0.023178 0.057957 -0.019214
  endloop
 endfacet
 facet normal 0.310374 -0.451949 -0.836307
  outer loop
   vertex -0.023178 0.057957 -0.019214
   vertex -0.020307 0.05912 -0.018777
   vertex -0.020942 0.056332 -0.017506
  endloop
 endfacet
 facet normal 0.467426 -0.452641 -0.759361
  outer loop
   vertex -0.020307 0.05912 -0.018777
   vertex -0.018465 0.057781 -0.016845
   vertex -0.020942 0.056332 -0.017506
  endloop
 endfacet
 facet normal 0.508799 -0.579247 -0.636864
  outer loop
   vertex -0.020942 0.056332 -0.017506
   vertex -0.018465 0.057781 -0.016845
   vertex -0.019241 0.055393 -0.015293
  endloop
 endfacet
 facet normal 0.61533 -0.560308 -0.554459
  outer loop
   vertex -0.018465 0.057781 -0.016845
   vertex -0.017324 0.056953 -0.014742
   vertex -0.019241 0.055393 -0.015293
  endloop
 endfacet
endsolid ExportedfromBlender-3.5.1
