solid ExportedfromBlender-3.5.1
 facet normal 0.0482486 -0.148392 -0.987751
  outer loop
   vertex 0.00186 0.07737 -0.03628
   vertex 0.003892 0.075894 -0.035959
   vertex 0.001084 0.074981 -0.035959
  endloop
 endfacet
 facet normal 0.723015 -0.412034 -0.554506
  outer loop
   vertex 0.009096 0.072113 -0.030752
   vertex 0.007955 0.072941 -0.032855
   vertex 0.009987 0.074418 -0.031303
  endloop
 endfacet
 facet normal -0.126271 -0.0917039 -0.987748
  outer loop
   vertex 0.00186 0.07737 -0.03628
   vertex 0.001084 0.074981 -0.035959
   vertex -0.000651 0.07737 -0.035959
  endloop
 endfacet
 facet normal -0.126271 0.0917039 -0.987748
  outer loop
   vertex 0.00186 0.07737 -0.03628
   vertex -0.000651 0.07737 -0.035959
   vertex 0.001084 0.079759 -0.035959
  endloop
 endfacet
 facet normal 0.0482486 0.148392 -0.987751
  outer loop
   vertex 0.00186 0.07737 -0.03628
   vertex 0.001084 0.079759 -0.035959
   vertex 0.003892 0.078846 -0.035959
  endloop
 endfacet
 facet normal 0.819189 -0.412026 -0.398954
  outer loop
   vertex 0.009096 0.072113 -0.030752
   vertex 0.009987 0.074418 -0.031303
   vertex 0.010467 0.072941 -0.028792
  endloop
 endfacet
 facet normal -0.138975 -0.90647 -0.398746
  outer loop
   vertex -0.000904 0.068864 -0.030752
   vertex 0.001564 0.068728 -0.031303
   vertex 0.000308 0.067816 -0.028792
  endloop
 endfacet
 facet normal -0.905177 -0.147939 -0.398459
  outer loop
   vertex -0.007084 0.07737 -0.030752
   vertex -0.006451 0.074981 -0.031303
   vertex -0.007706 0.075894 -0.028791
  endloop
 endfacet
 facet normal -0.420269 0.815078 -0.398776
  outer loop
   vertex -0.000904 0.085876 -0.030752
   vertex -0.00298 0.084536 -0.031303
   vertex -0.0025 0.086012 -0.028792
  endloop
 endfacet
 facet normal 0.645038 0.651744 -0.398942
  outer loop
   vertex 0.009096 0.082627 -0.030752
   vertex 0.007179 0.084187 -0.031303
   vertex 0.008732 0.084187 -0.028792
  endloop
 endfacet
 facet normal 0.771063 -0.560215 -0.302688
  outer loop
   vertex 0.009096 0.072113 -0.030752
   vertex 0.010467 0.072941 -0.028792
   vertex 0.008732 0.070553 -0.028792
  endloop
 endfacet
 facet normal -0.294416 -0.906493 -0.302638
  outer loop
   vertex -0.000904 0.068864 -0.030752
   vertex 0.000308 0.067816 -0.028792
   vertex -0.0025 0.068728 -0.028792
  endloop
 endfacet
 facet normal -0.9532 0 -0.302341
  outer loop
   vertex -0.007084 0.07737 -0.030752
   vertex -0.007706 0.075894 -0.028791
   vertex -0.007706 0.078846 -0.028791
  endloop
 endfacet
 facet normal -0.294416 0.906493 -0.302638
  outer loop
   vertex -0.000904 0.085876 -0.030752
   vertex -0.0025 0.086012 -0.028792
   vertex 0.000308 0.086924 -0.028792
  endloop
 endfacet
 facet normal 0.771063 0.560215 -0.302688
  outer loop
   vertex 0.009096 0.082627 -0.030752
   vertex 0.008732 0.084187 -0.028792
   vertex 0.010467 0.081799 -0.028792
  endloop
 endfacet
 facet normal 0.342493 -0.758552 0.554344
  outer loop
   vertex 0.004624 0.068864 -0.021808
   vertex 0.0067 0.070204 -0.021257
   vertex 0.004188 0.070204 -0.019705
  endloop
 endfacet
 facet normal -0.61533 -0.560308 0.554459
  outer loop
   vertex -0.005376 0.072113 -0.021808
   vertex -0.003459 0.070553 -0.021257
   vertex -0.004235 0.072941 -0.019705
  endloop
 endfacet
 facet normal -0.723015 0.412034 0.554506
  outer loop
   vertex -0.005376 0.082627 -0.021808
   vertex -0.006267 0.080322 -0.021257
   vertex -0.004235 0.081799 -0.019705
  endloop
 endfacet
 facet normal 0.168666 0.815046 0.554303
  outer loop
   vertex 0.004624 0.085876 -0.021808
   vertex 0.002156 0.086012 -0.021257
   vertex 0.004188 0.084536 -0.019705
  endloop
 endfacet
 facet normal 0.827124 0.091254 0.554562
  outer loop
   vertex 0.010804 0.07737 -0.021808
   vertex 0.010171 0.079759 -0.021257
   vertex 0.009394 0.07737 -0.019705
  endloop
 endfacet
 facet normal 0.126271 0.0917039 0.987748
  outer loop
   vertex 0.004371 0.07737 -0.016601
   vertex 0.002636 0.079759 -0.016601
   vertex 0.00186 0.07737 -0.01628
  endloop
 endfacet
 facet normal 0.390899 0.0914587 0.915878
  outer loop
   vertex 0.007117 0.07737 -0.017773
   vertex 0.005478 0.079999 -0.017336
   vertex 0.004371 0.07737 -0.016601
  endloop
 endfacet
 facet normal 0.644269 0.0913996 0.759317
  outer loop
   vertex 0.009394 0.07737 -0.019705
   vertex 0.008242 0.079999 -0.019044
   vertex 0.007117 0.07737 -0.017773
  endloop
 endfacet
 facet normal 0.233325 0.169451 0.957521
  outer loop
   vertex 0.004371 0.07737 -0.016601
   vertex 0.005478 0.079999 -0.017336
   vertex 0.002636 0.079759 -0.016601
  endloop
 endfacet
 facet normal 0.207851 0.343516 0.915858
  outer loop
   vertex 0.005478 0.079999 -0.017336
   vertex 0.003485 0.08237 -0.017773
   vertex 0.002636 0.079759 -0.016601
  endloop
 endfacet
 facet normal 0.516783 0.183167 0.836293
  outer loop
   vertex 0.007117 0.07737 -0.017773
   vertex 0.008242 0.079999 -0.019044
   vertex 0.005478 0.079999 -0.017336
  endloop
 endfacet
 facet normal 0.491058 0.356895 0.794662
  outer loop
   vertex 0.008242 0.079999 -0.019044
   vertex 0.006332 0.082627 -0.019044
   vertex 0.005478 0.079999 -0.017336
  endloop
 endfacet
 facet normal 0.334054 0.43492 0.836213
  outer loop
   vertex 0.005478 0.079999 -0.017336
   vertex 0.006332 0.082627 -0.019044
   vertex 0.003485 0.08237 -0.017773
  endloop
 endfacet
 facet normal 0.286233 0.584386 0.759318
  outer loop
   vertex 0.006332 0.082627 -0.019044
   vertex 0.004188 0.084536 -0.019705
   vertex 0.003485 0.08237 -0.017773
  endloop
 endfacet
 facet normal 0.751958 0.169318 0.637095
  outer loop
   vertex 0.009394 0.07737 -0.019705
   vertex 0.010171 0.079759 -0.021257
   vertex 0.008242 0.079999 -0.019044
  endloop
 endfacet
 facet normal 0.725985 0.343961 0.595514
  outer loop
   vertex 0.010171 0.079759 -0.021257
   vertex 0.008742 0.08237 -0.021023
   vertex 0.008242 0.079999 -0.019044
  endloop
 endfacet
 facet normal 0.598657 0.435097 0.672533
  outer loop
   vertex 0.008242 0.079999 -0.019044
   vertex 0.008742 0.08237 -0.021023
   vertex 0.006332 0.082627 -0.019044
  endloop
 endfacet
 facet normal 0.551379 0.584158 0.595601
  outer loop
   vertex 0.008742 0.08237 -0.021023
   vertex 0.0067 0.084536 -0.021257
   vertex 0.006332 0.082627 -0.019044
  endloop
 endfacet
 facet normal 0.393627 0.662685 0.637108
  outer loop
   vertex 0.006332 0.082627 -0.019044
   vertex 0.0067 0.084536 -0.021257
   vertex 0.004188 0.084536 -0.019705
  endloop
 endfacet
 facet normal 0.342493 0.758552 0.554344
  outer loop
   vertex 0.0067 0.084536 -0.021257
   vertex 0.004624 0.085876 -0.021808
   vertex 0.004188 0.084536 -0.019705
  endloop
 endfacet
 facet normal -0.0482486 0.148392 0.987751
  outer loop
   vertex 0.002636 0.079759 -0.016601
   vertex -0.000172 0.078846 -0.016601
   vertex 0.00186 0.07737 -0.01628
  endloop
 endfacet
 facet normal 0.0336945 0.400135 0.915836
  outer loop
   vertex 0.003485 0.08237 -0.017773
   vertex 0.000478 0.081623 -0.017336
   vertex 0.002636 0.079759 -0.016601
  endloop
 endfacet
 facet normal 0.112009 0.640965 0.759354
  outer loop
   vertex 0.004188 0.084536 -0.019705
   vertex 0.001332 0.084252 -0.019044
   vertex 0.003485 0.08237 -0.017773
  endloop
 endfacet
 facet normal -0.0891868 0.274301 0.957499
  outer loop
   vertex 0.002636 0.079759 -0.016601
   vertex 0.000478 0.081623 -0.017336
   vertex -0.000172 0.078846 -0.016601
  endloop
 endfacet
 facet normal -0.262485 0.303841 0.915851
  outer loop
   vertex 0.000478 0.081623 -0.017336
   vertex -0.002393 0.08046 -0.017773
   vertex -0.000172 0.078846 -0.016601
  endloop
 endfacet
 facet normal -0.0146149 0.548074 0.836302
  outer loop
   vertex 0.003485 0.08237 -0.017773
   vertex 0.001332 0.084252 -0.019044
   vertex 0.000478 0.081623 -0.017336
  endloop
 endfacet
 facet normal -0.187559 0.577248 0.794737
  outer loop
   vertex 0.001332 0.084252 -0.019044
   vertex -0.001758 0.083248 -0.019044
   vertex 0.000478 0.081623 -0.017336
  endloop
 endfacet
 facet normal -0.310374 0.451949 0.836307
  outer loop
   vertex 0.000478 0.081623 -0.017336
   vertex -0.001758 0.083248 -0.019044
   vertex -0.002393 0.08046 -0.017773
  endloop
 endfacet
 facet normal -0.467426 0.452641 0.759361
  outer loop
   vertex -0.001758 0.083248 -0.019044
   vertex -0.004235 0.081799 -0.019705
   vertex -0.002393 0.08046 -0.017773
  endloop
 endfacet
 facet normal 0.0710868 0.767617 0.636955
  outer loop
   vertex 0.004188 0.084536 -0.019705
   vertex 0.002156 0.086012 -0.021257
   vertex 0.001332 0.084252 -0.019044
  endloop
 endfacet
 facet normal -0.102735 0.796801 0.595444
  outer loop
   vertex 0.002156 0.086012 -0.021257
   vertex -0.000769 0.08546 -0.021023
   vertex 0.001332 0.084252 -0.019044
  endloop
 endfacet
 facet normal -0.228709 0.703897 0.672474
  outer loop
   vertex 0.001332 0.084252 -0.019044
   vertex -0.000769 0.08546 -0.021023
   vertex -0.001758 0.083248 -0.019044
  endloop
 endfacet
 facet normal -0.38541 0.704977 0.595371
  outer loop
   vertex -0.000769 0.08546 -0.021023
   vertex -0.003459 0.084187 -0.021257
   vertex -0.001758 0.083248 -0.019044
  endloop
 endfacet
 facet normal -0.508799 0.579247 0.636864
  outer loop
   vertex -0.001758 0.083248 -0.019044
   vertex -0.003459 0.084187 -0.021257
   vertex -0.004235 0.081799 -0.019705
  endloop
 endfacet
 facet normal -0.61533 0.560308 0.554459
  outer loop
   vertex -0.003459 0.084187 -0.021257
   vertex -0.005376 0.082627 -0.021808
   vertex -0.004235 0.081799 -0.019705
  endloop
 endfacet
 facet normal -0.156037 0 0.987751
  outer loop
   vertex -0.000172 0.078846 -0.016601
   vertex -0.000172 0.075894 -0.016601
   vertex 0.00186 0.07737 -0.01628
  endloop
 endfacet
 facet normal -0.370096 0.155752 0.915844
  outer loop
   vertex -0.002393 0.08046 -0.017773
   vertex -0.002612 0.07737 -0.017336
   vertex -0.000172 0.078846 -0.016601
  endloop
 endfacet
 facet normal -0.574948 0.304695 0.759339
  outer loop
   vertex -0.004235 0.081799 -0.019705
   vertex -0.004848 0.078995 -0.019044
   vertex -0.002393 0.08046 -0.017773
  endloop
 endfacet
 facet normal -0.288428 0 0.957502
  outer loop
   vertex -0.000172 0.078846 -0.016601
   vertex -0.002612 0.07737 -0.017336
   vertex -0.000172 0.075894 -0.016601
  endloop
 endfacet
 facet normal -0.370096 -0.155752 0.915844
  outer loop
   vertex -0.002612 0.07737 -0.017336
   vertex -0.002393 0.07428 -0.017773
   vertex -0.000172 0.075894 -0.016601
  endloop
 endfacet
 facet normal -0.525774 0.155534 0.836284
  outer loop
   vertex -0.002393 0.08046 -0.017773
   vertex -0.004848 0.078995 -0.019044
   vertex -0.002612 0.07737 -0.017336
  endloop
 endfacet
 facet normal -0.607028 0 0.794681
  outer loop
   vertex -0.004848 0.078995 -0.019044
   vertex -0.004848 0.075745 -0.019044
   vertex -0.002612 0.07737 -0.017336
  endloop
 endfacet
 facet normal -0.525774 -0.155534 0.836284
  outer loop
   vertex -0.002612 0.07737 -0.017336
   vertex -0.004848 0.075745 -0.019044
   vertex -0.002393 0.07428 -0.017773
  endloop
 endfacet
 facet normal -0.574948 -0.304695 0.759339
  outer loop
   vertex -0.004848 0.075745 -0.019044
   vertex -0.004235 0.072941 -0.019705
   vertex -0.002393 0.07428 -0.017773
  endloop
 endfacet
 facet normal -0.708089 0.304936 0.636886
  outer loop
   vertex -0.004235 0.081799 -0.019705
   vertex -0.006267 0.080322 -0.021257
   vertex -0.004848 0.078995 -0.019044
  endloop
 endfacet
 facet normal -0.789589 0.148568 0.59538
  outer loop
   vertex -0.006267 0.080322 -0.021257
   vertex -0.006646 0.07737 -0.021023
   vertex -0.004848 0.078995 -0.019044
  endloop
 endfacet
 facet normal -0.740143 0 0.672449
  outer loop
   vertex -0.004848 0.078995 -0.019044
   vertex -0.006646 0.07737 -0.021023
   vertex -0.004848 0.075745 -0.019044
  endloop
 endfacet
 facet normal -0.789589 -0.148568 0.59538
  outer loop
   vertex -0.006646 0.07737 -0.021023
   vertex -0.006267 0.074418 -0.021257
   vertex -0.004848 0.075745 -0.019044
  endloop
 endfacet
 facet normal -0.708089 -0.304936 0.636886
  outer loop
   vertex -0.004848 0.075745 -0.019044
   vertex -0.006267 0.074418 -0.021257
   vertex -0.004235 0.072941 -0.019705
  endloop
 endfacet
 facet normal -0.723015 -0.412034 0.554506
  outer loop
   vertex -0.006267 0.074418 -0.021257
   vertex -0.005376 0.072113 -0.021808
   vertex -0.004235 0.072941 -0.019705
  endloop
 endfacet
 facet normal -0.0482486 -0.148392 0.987751
  outer loop
   vertex -0.000172 0.075894 -0.016601
   vertex 0.002636 0.074981 -0.016601
   vertex 0.00186 0.07737 -0.01628
  endloop
 endfacet
 facet normal -0.262485 -0.303841 0.915851
  outer loop
   vertex -0.002393 0.07428 -0.017773
   vertex 0.000478 0.073117 -0.017336
   vertex -0.000172 0.075894 -0.016601
  endloop
 endfacet
 facet normal -0.467426 -0.452641 0.759361
  outer loop
   vertex -0.004235 0.072941 -0.019705
   vertex -0.001758 0.071492 -0.019044
   vertex -0.002393 0.07428 -0.017773
  endloop
 endfacet
 facet normal -0.0891868 -0.274301 0.957499
  outer loop
   vertex -0.000172 0.075894 -0.016601
   vertex 0.000478 0.073117 -0.017336
   vertex 0.002636 0.074981 -0.016601
  endloop
 endfacet
 facet normal 0.0336945 -0.400135 0.915836
  outer loop
   vertex 0.000478 0.073117 -0.017336
   vertex 0.003485 0.07237 -0.017773
   vertex 0.002636 0.074981 -0.016601
  endloop
 endfacet
 facet normal -0.310374 -0.451949 0.836307
  outer loop
   vertex -0.002393 0.07428 -0.017773
   vertex -0.001758 0.071492 -0.019044
   vertex 0.000478 0.073117 -0.017336
  endloop
 endfacet
 facet normal -0.187559 -0.577248 0.794737
  outer loop
   vertex -0.001758 0.071492 -0.019044
   vertex 0.001332 0.070488 -0.019044
   vertex 0.000478 0.073117 -0.017336
  endloop
 endfacet
 facet normal -0.0146149 -0.548074 0.836302
  outer loop
   vertex 0.000478 0.073117 -0.017336
   vertex 0.001332 0.070488 -0.019044
   vertex 0.003485 0.07237 -0.017773
  endloop
 endfacet
 facet normal 0.112009 -0.640965 0.759354
  outer loop
   vertex 0.001332 0.070488 -0.019044
   vertex 0.004188 0.070204 -0.019705
   vertex 0.003485 0.07237 -0.017773
  endloop
 endfacet
 facet normal -0.508799 -0.579247 0.636864
  outer loop
   vertex -0.004235 0.072941 -0.019705
   vertex -0.003459 0.070553 -0.021257
   vertex -0.001758 0.071492 -0.019044
  endloop
 endfacet
 facet normal -0.38541 -0.704977 0.595371
  outer loop
   vertex -0.003459 0.070553 -0.021257
   vertex -0.000769 0.06928 -0.021023
   vertex -0.001758 0.071492 -0.019044
  endloop
 endfacet
 facet normal -0.228709 -0.703897 0.672474
  outer loop
   vertex -0.001758 0.071492 -0.019044
   vertex -0.000769 0.06928 -0.021023
   vertex 0.001332 0.070488 -0.019044
  endloop
 endfacet
 facet normal -0.102735 -0.796801 0.595444
  outer loop
   vertex -0.000769 0.06928 -0.021023
   vertex 0.002156 0.068728 -0.021257
   vertex 0.001332 0.070488 -0.019044
  endloop
 endfacet
 facet normal 0.0710868 -0.767617 0.636955
  outer loop
   vertex 0.001332 0.070488 -0.019044
   vertex 0.002156 0.068728 -0.021257
   vertex 0.004188 0.070204 -0.019705
  endloop
 endfacet
 facet normal 0.168666 -0.815046 0.554303
  outer loop
   vertex 0.002156 0.068728 -0.021257
   vertex 0.004624 0.068864 -0.021808
   vertex 0.004188 0.070204 -0.019705
  endloop
 endfacet
 facet normal 0.126271 -0.0917039 0.987748
  outer loop
   vertex 0.002636 0.074981 -0.016601
   vertex 0.004371 0.07737 -0.016601
   vertex 0.00186 0.07737 -0.01628
  endloop
 endfacet
 facet normal 0.207851 -0.343516 0.915858
  outer loop
   vertex 0.003485 0.07237 -0.017773
   vertex 0.005478 0.074741 -0.017336
   vertex 0.002636 0.074981 -0.016601
  endloop
 endfacet
 facet normal 0.286233 -0.584386 0.759318
  outer loop
   vertex 0.004188 0.070204 -0.019705
   vertex 0.006332 0.072113 -0.019044
   vertex 0.003485 0.07237 -0.017773
  endloop
 endfacet
 facet normal 0.233325 -0.169451 0.957521
  outer loop
   vertex 0.002636 0.074981 -0.016601
   vertex 0.005478 0.074741 -0.017336
   vertex 0.004371 0.07737 -0.016601
  endloop
 endfacet
 facet normal 0.390899 -0.0914587 0.915878
  outer loop
   vertex 0.005478 0.074741 -0.017336
   vertex 0.007117 0.07737 -0.017773
   vertex 0.004371 0.07737 -0.016601
  endloop
 endfacet
 facet normal 0.334054 -0.43492 0.836213
  outer loop
   vertex 0.003485 0.07237 -0.017773
   vertex 0.006332 0.072113 -0.019044
   vertex 0.005478 0.074741 -0.017336
  endloop
 endfacet
 facet normal 0.491058 -0.356895 0.794662
  outer loop
   vertex 0.006332 0.072113 -0.019044
   vertex 0.008242 0.074741 -0.019044
   vertex 0.005478 0.074741 -0.017336
  endloop
 endfacet
 facet normal 0.516783 -0.183167 0.836293
  outer loop
   vertex 0.005478 0.074741 -0.017336
   vertex 0.008242 0.074741 -0.019044
   vertex 0.007117 0.07737 -0.017773
  endloop
 endfacet
 facet normal 0.644269 -0.0913996 0.759317
  outer loop
   vertex 0.008242 0.074741 -0.019044
   vertex 0.009394 0.07737 -0.019705
   vertex 0.007117 0.07737 -0.017773
  endloop
 endfacet
 facet normal 0.393627 -0.662685 0.637108
  outer loop
   vertex 0.004188 0.070204 -0.019705
   vertex 0.0067 0.070204 -0.021257
   vertex 0.006332 0.072113 -0.019044
  endloop
 endfacet
 facet normal 0.551379 -0.584158 0.595601
  outer loop
   vertex 0.0067 0.070204 -0.021257
   vertex 0.008742 0.07237 -0.021023
   vertex 0.006332 0.072113 -0.019044
  endloop
 endfacet
 facet normal 0.598657 -0.435097 0.672533
  outer loop
   vertex 0.006332 0.072113 -0.019044
   vertex 0.008742 0.07237 -0.021023
   vertex 0.008242 0.074741 -0.019044
  endloop
 endfacet
 facet normal 0.725985 -0.343961 0.595514
  outer loop
   vertex 0.008742 0.07237 -0.021023
   vertex 0.010171 0.074981 -0.021257
   vertex 0.008242 0.074741 -0.019044
  endloop
 endfacet
 facet normal 0.751958 -0.169318 0.637095
  outer loop
   vertex 0.008242 0.074741 -0.019044
   vertex 0.010171 0.074981 -0.021257
   vertex 0.009394 0.07737 -0.019705
  endloop
 endfacet
 facet normal 0.827124 -0.091254 0.554562
  outer loop
   vertex 0.010171 0.074981 -0.021257
   vertex 0.010804 0.07737 -0.021808
   vertex 0.009394 0.07737 -0.019705
  endloop
 endfacet
 facet normal 0.905177 0.147939 0.398459
  outer loop
   vertex 0.011426 0.078846 -0.023769
   vertex 0.010171 0.079759 -0.021257
   vertex 0.010804 0.07737 -0.021808
  endloop
 endfacet
 facet normal 0.93657 0.303801 0.17476
  outer loop
   vertex 0.011371 0.08046 -0.02628
   vertex 0.010478 0.081623 -0.023516
   vertex 0.011426 0.078846 -0.023769
  endloop
 endfacet
 facet normal 0.888212 0.452708 -0.078331
  outer loop
   vertex 0.010467 0.081799 -0.028792
   vertex 0.00995 0.083248 -0.02628
   vertex 0.011371 0.08046 -0.02628
  endloop
 endfacet
 facet normal 0.89641 0.274294 0.348155
  outer loop
   vertex 0.011426 0.078846 -0.023769
   vertex 0.010478 0.081623 -0.023516
   vertex 0.010171 0.079759 -0.021257
  endloop
 endfacet
 facet normal 0.803858 0.400541 0.439749
  outer loop
   vertex 0.010478 0.081623 -0.023516
   vertex 0.008742 0.08237 -0.021023
   vertex 0.010171 0.079759 -0.021257
  endloop
 endfacet
 facet normal 0.886806 0.451991 0.0963284
  outer loop
   vertex 0.011371 0.08046 -0.02628
   vertex 0.00995 0.083248 -0.02628
   vertex 0.010478 0.081623 -0.023516
  endloop
 endfacet
 facet normal 0.794662 0.577331 0.18762
  outer loop
   vertex 0.00995 0.083248 -0.02628
   vertex 0.008568 0.084252 -0.023516
   vertex 0.010478 0.081623 -0.023516
  endloop
 endfacet
 facet normal 0.754436 0.548107 0.361117
  outer loop
   vertex 0.010478 0.081623 -0.023516
   vertex 0.008568 0.084252 -0.023516
   vertex 0.008742 0.08237 -0.021023
  endloop
 endfacet
 facet normal 0.629279 0.640767 0.439803
  outer loop
   vertex 0.008568 0.084252 -0.023516
   vertex 0.0067 0.084536 -0.021257
   vertex 0.008742 0.08237 -0.021023
  endloop
 endfacet
 facet normal 0.797233 0.579229 -0.170037
  outer loop
   vertex 0.010467 0.081799 -0.028792
   vertex 0.008732 0.084187 -0.028792
   vertex 0.00995 0.083248 -0.02628
  endloop
 endfacet
 facet normal 0.704936 0.704936 -0.0782949
  outer loop
   vertex 0.008732 0.084187 -0.028792
   vertex 0.007738 0.08546 -0.02628
   vertex 0.00995 0.083248 -0.02628
  endloop
 endfacet
 facet normal 0.703824 0.703824 0.0962537
  outer loop
   vertex 0.00995 0.083248 -0.02628
   vertex 0.007738 0.08546 -0.02628
   vertex 0.008568 0.084252 -0.023516
  endloop
 endfacet
 facet normal 0.578519 0.796783 0.174509
  outer loop
   vertex 0.007738 0.08546 -0.02628
   vertex 0.00622 0.086012 -0.023768
   vertex 0.008568 0.084252 -0.023516
  endloop
 endfacet
 facet normal 0.537986 0.767602 0.348366
  outer loop
   vertex 0.008568 0.084252 -0.023516
   vertex 0.00622 0.086012 -0.023768
   vertex 0.0067 0.084536 -0.021257
  endloop
 endfacet
 facet normal 0.420269 0.815078 0.398776
  outer loop
   vertex 0.00622 0.086012 -0.023768
   vertex 0.004624 0.085876 -0.021808
   vertex 0.0067 0.084536 -0.021257
  endloop
 endfacet
 facet normal 0.138975 0.90647 0.398746
  outer loop
   vertex 0.003412 0.086924 -0.023768
   vertex 0.002156 0.086012 -0.021257
   vertex 0.004624 0.085876 -0.021808
  endloop
 endfacet
 facet normal 0.000555151 0.98466 0.174481
  outer loop
   vertex 0.00186 0.08737 -0.02628
   vertex 0.000478 0.086881 -0.023516
   vertex 0.003412 0.086924 -0.023768
  endloop
 endfacet
 facet normal -0.155824 0.984657 -0.07855
  outer loop
   vertex 0.000308 0.086924 -0.028792
   vertex -0.00123 0.086881 -0.02628
   vertex 0.00186 0.08737 -0.02628
  endloop
 endfacet
 facet normal 0.0161962 0.937175 0.348485
  outer loop
   vertex 0.003412 0.086924 -0.023768
   vertex 0.000478 0.086881 -0.023516
   vertex 0.002156 0.086012 -0.021257
  endloop
 endfacet
 facet normal -0.132412 0.888171 0.440021
  outer loop
   vertex 0.000478 0.086881 -0.023516
   vertex -0.000769 0.08546 -0.021023
   vertex 0.002156 0.086012 -0.021257
  endloop
 endfacet
 facet normal -0.155583 0.983133 0.0961419
  outer loop
   vertex 0.00186 0.08737 -0.02628
   vertex -0.00123 0.086881 -0.02628
   vertex 0.000478 0.086881 -0.023516
  endloop
 endfacet
 facet normal -0.303796 0.934059 0.187729
  outer loop
   vertex -0.00123 0.086881 -0.02628
   vertex -0.002612 0.085876 -0.023516
   vertex 0.000478 0.086881 -0.023516
  endloop
 endfacet
 facet normal -0.288415 0.886769 0.361189
  outer loop
   vertex 0.000478 0.086881 -0.023516
   vertex -0.002612 0.085876 -0.023516
   vertex -0.000769 0.08546 -0.021023
  endloop
 endfacet
 facet normal -0.415138 0.796394 0.439791
  outer loop
   vertex -0.002612 0.085876 -0.023516
   vertex -0.003459 0.084187 -0.021257
   vertex -0.000769 0.08546 -0.021023
  endloop
 endfacet
 facet normal -0.304389 0.937197 -0.170322
  outer loop
   vertex 0.000308 0.086924 -0.028792
   vertex -0.0025 0.086012 -0.028792
   vertex -0.00123 0.086881 -0.02628
  endloop
 endfacet
 facet normal -0.452705 0.888208 -0.0783901
  outer loop
   vertex -0.0025 0.086012 -0.028792
   vertex -0.004018 0.08546 -0.02628
   vertex -0.00123 0.086881 -0.02628
  endloop
 endfacet
 facet normal -0.451986 0.886796 0.0964489
  outer loop
   vertex -0.00123 0.086881 -0.02628
   vertex -0.004018 0.08546 -0.02628
   vertex -0.002612 0.085876 -0.023516
  endloop
 endfacet
 facet normal -0.578874 0.796508 0.174584
  outer loop
   vertex -0.004018 0.08546 -0.02628
   vertex -0.005012 0.084187 -0.023768
   vertex -0.002612 0.085876 -0.023516
  endloop
 endfacet
 facet normal -0.563623 0.748876 0.348589
  outer loop
   vertex -0.002612 0.085876 -0.023516
   vertex -0.005012 0.084187 -0.023768
   vertex -0.003459 0.084187 -0.021257
  endloop
 endfacet
 facet normal -0.645038 0.651744 0.398942
  outer loop
   vertex -0.005012 0.084187 -0.023768
   vertex -0.005376 0.082627 -0.021808
   vertex -0.003459 0.084187 -0.021257
  endloop
 endfacet
 facet normal -0.819189 0.412026 0.398954
  outer loop
   vertex -0.006747 0.081799 -0.023768
   vertex -0.006267 0.080322 -0.021257
   vertex -0.005376 0.082627 -0.021808
  endloop
 endfacet
 facet normal -0.936352 0.304548 0.174631
  outer loop
   vertex -0.007651 0.08046 -0.02628
   vertex -0.007612 0.078995 -0.023516
   vertex -0.006747 0.081799 -0.023768
  endloop
 endfacet
 facet normal -0.984653 0.155824 -0.0785916
  outer loop
   vertex -0.007706 0.078846 -0.028791
   vertex -0.00814 0.07737 -0.02628
   vertex -0.007651 0.08046 -0.02628
  endloop
 endfacet
 facet normal -0.886309 0.304753 0.348685
  outer loop
   vertex -0.006747 0.081799 -0.023768
   vertex -0.007612 0.078995 -0.023516
   vertex -0.006267 0.080322 -0.021257
  endloop
 endfacet
 facet normal -0.885615 0.148581 0.440011
  outer loop
   vertex -0.007612 0.078995 -0.023516
   vertex -0.006646 0.07737 -0.021023
   vertex -0.006267 0.080322 -0.021257
  endloop
 endfacet
 facet normal -0.983115 0.15558 0.0963335
  outer loop
   vertex -0.007651 0.08046 -0.02628
   vertex -0.00814 0.07737 -0.02628
   vertex -0.007612 0.078995 -0.023516
  endloop
 endfacet
 facet normal -0.982239 0 0.187634
  outer loop
   vertex -0.00814 0.07737 -0.02628
   vertex -0.007612 0.075745 -0.023516
   vertex -0.007612 0.078995 -0.023516
  endloop
 endfacet
 facet normal -0.932446 0 0.361309
  outer loop
   vertex -0.007612 0.078995 -0.023516
   vertex -0.007612 0.075745 -0.023516
   vertex -0.006646 0.07737 -0.021023
  endloop
 endfacet
 facet normal -0.885615 -0.148581 0.440011
  outer loop
   vertex -0.007612 0.075745 -0.023516
   vertex -0.006267 0.074418 -0.021257
   vertex -0.006646 0.07737 -0.021023
  endloop
 endfacet
 facet normal -0.98539 -0 -0.170314
  outer loop
   vertex -0.007706 0.078846 -0.028791
   vertex -0.007706 0.075894 -0.028791
   vertex -0.00814 0.07737 -0.02628
  endloop
 endfacet
 facet normal -0.984653 -0.155824 -0.0785916
  outer loop
   vertex -0.007706 0.075894 -0.028791
   vertex -0.007651 0.07428 -0.02628
   vertex -0.00814 0.07737 -0.02628
  endloop
 endfacet
 facet normal -0.983115 -0.15558 0.0963335
  outer loop
   vertex -0.00814 0.07737 -0.02628
   vertex -0.007651 0.07428 -0.02628
   vertex -0.007612 0.075745 -0.023516
  endloop
 endfacet
 facet normal -0.936352 -0.304548 0.174631
  outer loop
   vertex -0.007651 0.07428 -0.02628
   vertex -0.006747 0.072941 -0.023768
   vertex -0.007612 0.075745 -0.023516
  endloop
 endfacet
 facet normal -0.886309 -0.304753 0.348685
  outer loop
   vertex -0.007612 0.075745 -0.023516
   vertex -0.006747 0.072941 -0.023768
   vertex -0.006267 0.074418 -0.021257
  endloop
 endfacet
 facet normal -0.819189 -0.412026 0.398954
  outer loop
   vertex -0.006747 0.072941 -0.023768
   vertex -0.005376 0.072113 -0.021808
   vertex -0.006267 0.074418 -0.021257
  endloop
 endfacet
 facet normal -0.645038 -0.651744 0.398942
  outer loop
   vertex -0.005012 0.070553 -0.023768
   vertex -0.003459 0.070553 -0.021257
   vertex -0.005376 0.072113 -0.021808
  endloop
 endfacet
 facet normal -0.578874 -0.796508 0.174584
  outer loop
   vertex -0.004018 0.06928 -0.02628
   vertex -0.002612 0.068864 -0.023516
   vertex -0.005012 0.070553 -0.023768
  endloop
 endfacet
 facet normal -0.452705 -0.888208 -0.0783901
  outer loop
   vertex -0.0025 0.068728 -0.028792
   vertex -0.00123 0.067859 -0.02628
   vertex -0.004018 0.06928 -0.02628
  endloop
 endfacet
 facet normal -0.563623 -0.748876 0.348589
  outer loop
   vertex -0.005012 0.070553 -0.023768
   vertex -0.002612 0.068864 -0.023516
   vertex -0.003459 0.070553 -0.021257
  endloop
 endfacet
 facet normal -0.415138 -0.796394 0.439791
  outer loop
   vertex -0.002612 0.068864 -0.023516
   vertex -0.000769 0.06928 -0.021023
   vertex -0.003459 0.070553 -0.021257
  endloop
 endfacet
 facet normal -0.451986 -0.886796 0.0964489
  outer loop
   vertex -0.004018 0.06928 -0.02628
   vertex -0.00123 0.067859 -0.02628
   vertex -0.002612 0.068864 -0.023516
  endloop
 endfacet
 facet normal -0.303796 -0.934059 0.187729
  outer loop
   vertex -0.00123 0.067859 -0.02628
   vertex 0.000478 0.067859 -0.023516
   vertex -0.002612 0.068864 -0.023516
  endloop
 endfacet
 facet normal -0.288415 -0.886769 0.361189
  outer loop
   vertex -0.002612 0.068864 -0.023516
   vertex 0.000478 0.067859 -0.023516
   vertex -0.000769 0.06928 -0.021023
  endloop
 endfacet
 facet normal -0.132412 -0.888171 0.440021
  outer loop
   vertex 0.000478 0.067859 -0.023516
   vertex 0.002156 0.068728 -0.021257
   vertex -0.000769 0.06928 -0.021023
  endloop
 endfacet
 facet normal -0.304389 -0.937197 -0.170322
  outer loop
   vertex -0.0025 0.068728 -0.028792
   vertex 0.000308 0.067816 -0.028792
   vertex -0.00123 0.067859 -0.02628
  endloop
 endfacet
 facet normal -0.155824 -0.984657 -0.07855
  outer loop
   vertex 0.000308 0.067816 -0.028792
   vertex 0.00186 0.06737 -0.02628
   vertex -0.00123 0.067859 -0.02628
  endloop
 endfacet
 facet normal -0.155583 -0.983133 0.0961419
  outer loop
   vertex -0.00123 0.067859 -0.02628
   vertex 0.00186 0.06737 -0.02628
   vertex 0.000478 0.067859 -0.023516
  endloop
 endfacet
 facet normal 0.000555151 -0.98466 0.174481
  outer loop
   vertex 0.00186 0.06737 -0.02628
   vertex 0.003412 0.067816 -0.023768
   vertex 0.000478 0.067859 -0.023516
  endloop
 endfacet
 facet normal 0.0161962 -0.937175 0.348485
  outer loop
   vertex 0.000478 0.067859 -0.023516
   vertex 0.003412 0.067816 -0.023768
   vertex 0.002156 0.068728 -0.021257
  endloop
 endfacet
 facet normal 0.138975 -0.90647 0.398746
  outer loop
   vertex 0.003412 0.067816 -0.023768
   vertex 0.004624 0.068864 -0.021808
   vertex 0.002156 0.068728 -0.021257
  endloop
 endfacet
 facet normal 0.420269 -0.815078 0.398776
  outer loop
   vertex 0.00622 0.068728 -0.023768
   vertex 0.0067 0.070204 -0.021257
   vertex 0.004624 0.068864 -0.021808
  endloop
 endfacet
 facet normal 0.578519 -0.796783 0.174509
  outer loop
   vertex 0.007738 0.06928 -0.02628
   vertex 0.008568 0.070488 -0.023516
   vertex 0.00622 0.068728 -0.023768
  endloop
 endfacet
 facet normal 0.704936 -0.704936 -0.0782949
  outer loop
   vertex 0.008732 0.070553 -0.028792
   vertex 0.00995 0.071492 -0.02628
   vertex 0.007738 0.06928 -0.02628
  endloop
 endfacet
 facet normal 0.537986 -0.767602 0.348366
  outer loop
   vertex 0.00622 0.068728 -0.023768
   vertex 0.008568 0.070488 -0.023516
   vertex 0.0067 0.070204 -0.021257
  endloop
 endfacet
 facet normal 0.629279 -0.640767 0.439803
  outer loop
   vertex 0.008568 0.070488 -0.023516
   vertex 0.008742 0.07237 -0.021023
   vertex 0.0067 0.070204 -0.021257
  endloop
 endfacet
 facet normal 0.703824 -0.703824 0.0962537
  outer loop
   vertex 0.007738 0.06928 -0.02628
   vertex 0.00995 0.071492 -0.02628
   vertex 0.008568 0.070488 -0.023516
  endloop
 endfacet
 facet normal 0.794662 -0.577331 0.18762
  outer loop
   vertex 0.00995 0.071492 -0.02628
   vertex 0.010478 0.073117 -0.023516
   vertex 0.008568 0.070488 -0.023516
  endloop
 endfacet
 facet normal 0.754436 -0.548107 0.361117
  outer loop
   vertex 0.008568 0.070488 -0.023516
   vertex 0.010478 0.073117 -0.023516
   vertex 0.008742 0.07237 -0.021023
  endloop
 endfacet
 facet normal 0.803858 -0.400541 0.439749
  outer loop
   vertex 0.010478 0.073117 -0.023516
   vertex 0.010171 0.074981 -0.021257
   vertex 0.008742 0.07237 -0.021023
  endloop
 endfacet
 facet normal 0.797233 -0.579229 -0.170037
  outer loop
   vertex 0.008732 0.070553 -0.028792
   vertex 0.010467 0.072941 -0.028792
   vertex 0.00995 0.071492 -0.02628
  endloop
 endfacet
 facet normal 0.888212 -0.452708 -0.078331
  outer loop
   vertex 0.010467 0.072941 -0.028792
   vertex 0.011371 0.07428 -0.02628
   vertex 0.00995 0.071492 -0.02628
  endloop
 endfacet
 facet normal 0.886806 -0.451991 0.0963284
  outer loop
   vertex 0.00995 0.071492 -0.02628
   vertex 0.011371 0.07428 -0.02628
   vertex 0.010478 0.073117 -0.023516
  endloop
 endfacet
 facet normal 0.93657 -0.303801 0.17476
  outer loop
   vertex 0.011371 0.07428 -0.02628
   vertex 0.011426 0.075894 -0.023769
   vertex 0.010478 0.073117 -0.023516
  endloop
 endfacet
 facet normal 0.89641 -0.274294 0.348155
  outer loop
   vertex 0.010478 0.073117 -0.023516
   vertex 0.011426 0.075894 -0.023769
   vertex 0.010171 0.074981 -0.021257
  endloop
 endfacet
 facet normal 0.905177 -0.147939 0.398459
  outer loop
   vertex 0.011426 0.075894 -0.023769
   vertex 0.010804 0.07737 -0.021808
   vertex 0.010171 0.074981 -0.021257
  endloop
 endfacet
 facet normal 0.294416 0.906493 0.302638
  outer loop
   vertex 0.00622 0.086012 -0.023768
   vertex 0.003412 0.086924 -0.023768
   vertex 0.004624 0.085876 -0.021808
  endloop
 endfacet
 facet normal 0.452705 0.888208 0.0783901
  outer loop
   vertex 0.007738 0.08546 -0.02628
   vertex 0.00495 0.086881 -0.02628
   vertex 0.00622 0.086012 -0.023768
  endloop
 endfacet
 facet normal 0.578874 0.796508 -0.174584
  outer loop
   vertex 0.008732 0.084187 -0.028792
   vertex 0.006332 0.085876 -0.029044
   vertex 0.007738 0.08546 -0.02628
  endloop
 endfacet
 facet normal 0.304389 0.937197 0.170322
  outer loop
   vertex 0.00622 0.086012 -0.023768
   vertex 0.00495 0.086881 -0.02628
   vertex 0.003412 0.086924 -0.023768
  endloop
 endfacet
 facet normal 0.155824 0.984657 0.07855
  outer loop
   vertex 0.00495 0.086881 -0.02628
   vertex 0.00186 0.08737 -0.02628
   vertex 0.003412 0.086924 -0.023768
  endloop
 endfacet
 facet normal 0.451986 0.886796 -0.0964489
  outer loop
   vertex 0.007738 0.08546 -0.02628
   vertex 0.006332 0.085876 -0.029044
   vertex 0.00495 0.086881 -0.02628
  endloop
 endfacet
 facet normal 0.303796 0.934059 -0.187729
  outer loop
   vertex 0.006332 0.085876 -0.029044
   vertex 0.003242 0.086881 -0.029044
   vertex 0.00495 0.086881 -0.02628
  endloop
 endfacet
 facet normal 0.155583 0.983133 -0.0961419
  outer loop
   vertex 0.00495 0.086881 -0.02628
   vertex 0.003242 0.086881 -0.029044
   vertex 0.00186 0.08737 -0.02628
  endloop
 endfacet
 facet normal -0.000555151 0.98466 -0.174481
  outer loop
   vertex 0.003242 0.086881 -0.029044
   vertex 0.000308 0.086924 -0.028792
   vertex 0.00186 0.08737 -0.02628
  endloop
 endfacet
 facet normal 0.563623 0.748876 -0.348589
  outer loop
   vertex 0.008732 0.084187 -0.028792
   vertex 0.007179 0.084187 -0.031303
   vertex 0.006332 0.085876 -0.029044
  endloop
 endfacet
 facet normal 0.415138 0.796394 -0.439791
  outer loop
   vertex 0.007179 0.084187 -0.031303
   vertex 0.004489 0.08546 -0.031537
   vertex 0.006332 0.085876 -0.029044
  endloop
 endfacet
 facet normal 0.288415 0.886769 -0.361189
  outer loop
   vertex 0.006332 0.085876 -0.029044
   vertex 0.004489 0.08546 -0.031537
   vertex 0.003242 0.086881 -0.029044
  endloop
 endfacet
 facet normal 0.132412 0.888171 -0.440021
  outer loop
   vertex 0.004489 0.08546 -0.031537
   vertex 0.001564 0.086012 -0.031303
   vertex 0.003242 0.086881 -0.029044
  endloop
 endfacet
 facet normal -0.0161962 0.937175 -0.348485
  outer loop
   vertex 0.003242 0.086881 -0.029044
   vertex 0.001564 0.086012 -0.031303
   vertex 0.000308 0.086924 -0.028792
  endloop
 endfacet
 facet normal -0.138975 0.90647 -0.398746
  outer loop
   vertex 0.001564 0.086012 -0.031303
   vertex -0.000904 0.085876 -0.030752
   vertex 0.000308 0.086924 -0.028792
  endloop
 endfacet
 facet normal -0.771063 0.560215 0.302688
  outer loop
   vertex -0.005012 0.084187 -0.023768
   vertex -0.006747 0.081799 -0.023768
   vertex -0.005376 0.082627 -0.021808
  endloop
 endfacet
 facet normal -0.704936 0.704936 0.0782949
  outer loop
   vertex -0.004018 0.08546 -0.02628
   vertex -0.00623 0.083248 -0.02628
   vertex -0.005012 0.084187 -0.023768
  endloop
 endfacet
 facet normal -0.578519 0.796783 -0.174509
  outer loop
   vertex -0.0025 0.086012 -0.028792
   vertex -0.004848 0.084252 -0.029044
   vertex -0.004018 0.08546 -0.02628
  endloop
 endfacet
 facet normal -0.797233 0.579229 0.170037
  outer loop
   vertex -0.005012 0.084187 -0.023768
   vertex -0.00623 0.083248 -0.02628
   vertex -0.006747 0.081799 -0.023768
  endloop
 endfacet
 facet normal -0.888212 0.452708 0.078331
  outer loop
   vertex -0.00623 0.083248 -0.02628
   vertex -0.007651 0.08046 -0.02628
   vertex -0.006747 0.081799 -0.023768
  endloop
 endfacet
 facet normal -0.703824 0.703824 -0.0962537
  outer loop
   vertex -0.004018 0.08546 -0.02628
   vertex -0.004848 0.084252 -0.029044
   vertex -0.00623 0.083248 -0.02628
  endloop
 endfacet
 facet normal -0.794662 0.577331 -0.18762
  outer loop
   vertex -0.004848 0.084252 -0.029044
   vertex -0.006758 0.081623 -0.029044
   vertex -0.00623 0.083248 -0.02628
  endloop
 endfacet
 facet normal -0.886806 0.451991 -0.0963284
  outer loop
   vertex -0.00623 0.083248 -0.02628
   vertex -0.006758 0.081623 -0.029044
   vertex -0.007651 0.08046 -0.02628
  endloop
 endfacet
 facet normal -0.93657 0.303801 -0.17476
  outer loop
   vertex -0.006758 0.081623 -0.029044
   vertex -0.007706 0.078846 -0.028791
   vertex -0.007651 0.08046 -0.02628
  endloop
 endfacet
 facet normal -0.537986 0.767602 -0.348366
  outer loop
   vertex -0.0025 0.086012 -0.028792
   vertex -0.00298 0.084536 -0.031303
   vertex -0.004848 0.084252 -0.029044
  endloop
 endfacet
 facet normal -0.629279 0.640767 -0.439803
  outer loop
   vertex -0.00298 0.084536 -0.031303
   vertex -0.005022 0.08237 -0.031537
   vertex -0.004848 0.084252 -0.029044
  endloop
 endfacet
 facet normal -0.754436 0.548107 -0.361117
  outer loop
   vertex -0.004848 0.084252 -0.029044
   vertex -0.005022 0.08237 -0.031537
   vertex -0.006758 0.081623 -0.029044
  endloop
 endfacet
 facet normal -0.803858 0.400541 -0.439749
  outer loop
   vertex -0.005022 0.08237 -0.031537
   vertex -0.006451 0.079759 -0.031303
   vertex -0.006758 0.081623 -0.029044
  endloop
 endfacet
 facet normal -0.89641 0.274294 -0.348155
  outer loop
   vertex -0.006758 0.081623 -0.029044
   vertex -0.006451 0.079759 -0.031303
   vertex -0.007706 0.078846 -0.028791
  endloop
 endfacet
 facet normal -0.905177 0.147939 -0.398459
  outer loop
   vertex -0.006451 0.079759 -0.031303
   vertex -0.007084 0.07737 -0.030752
   vertex -0.007706 0.078846 -0.028791
  endloop
 endfacet
 facet normal -0.771063 -0.560215 0.302688
  outer loop
   vertex -0.006747 0.072941 -0.023768
   vertex -0.005012 0.070553 -0.023768
   vertex -0.005376 0.072113 -0.021808
  endloop
 endfacet
 facet normal -0.888212 -0.452708 0.078331
  outer loop
   vertex -0.007651 0.07428 -0.02628
   vertex -0.00623 0.071492 -0.02628
   vertex -0.006747 0.072941 -0.023768
  endloop
 endfacet
 facet normal -0.93657 -0.303801 -0.17476
  outer loop
   vertex -0.007706 0.075894 -0.028791
   vertex -0.006758 0.073117 -0.029044
   vertex -0.007651 0.07428 -0.02628
  endloop
 endfacet
 facet normal -0.797233 -0.579229 0.170037
  outer loop
   vertex -0.006747 0.072941 -0.023768
   vertex -0.00623 0.071492 -0.02628
   vertex -0.005012 0.070553 -0.023768
  endloop
 endfacet
 facet normal -0.704936 -0.704936 0.0782949
  outer loop
   vertex -0.00623 0.071492 -0.02628
   vertex -0.004018 0.06928 -0.02628
   vertex -0.005012 0.070553 -0.023768
  endloop
 endfacet
 facet normal -0.886806 -0.451991 -0.0963284
  outer loop
   vertex -0.007651 0.07428 -0.02628
   vertex -0.006758 0.073117 -0.029044
   vertex -0.00623 0.071492 -0.02628
  endloop
 endfacet
 facet normal -0.794662 -0.577331 -0.18762
  outer loop
   vertex -0.006758 0.073117 -0.029044
   vertex -0.004848 0.070488 -0.029044
   vertex -0.00623 0.071492 -0.02628
  endloop
 endfacet
 facet normal -0.703824 -0.703824 -0.0962537
  outer loop
   vertex -0.00623 0.071492 -0.02628
   vertex -0.004848 0.070488 -0.029044
   vertex -0.004018 0.06928 -0.02628
  endloop
 endfacet
 facet normal -0.578519 -0.796783 -0.174509
  outer loop
   vertex -0.004848 0.070488 -0.029044
   vertex -0.0025 0.068728 -0.028792
   vertex -0.004018 0.06928 -0.02628
  endloop
 endfacet
 facet normal -0.89641 -0.274294 -0.348155
  outer loop
   vertex -0.007706 0.075894 -0.028791
   vertex -0.006451 0.074981 -0.031303
   vertex -0.006758 0.073117 -0.029044
  endloop
 endfacet
 facet normal -0.803858 -0.400541 -0.439749
  outer loop
   vertex -0.006451 0.074981 -0.031303
   vertex -0.005022 0.07237 -0.031537
   vertex -0.006758 0.073117 -0.029044
  endloop
 endfacet
 facet normal -0.754436 -0.548107 -0.361117
  outer loop
   vertex -0.006758 0.073117 -0.029044
   vertex -0.005022 0.07237 -0.031537
   vertex -0.004848 0.070488 -0.029044
  endloop
 endfacet
 facet normal -0.629279 -0.640767 -0.439803
  outer loop
   vertex -0.005022 0.07237 -0.031537
   vertex -0.00298 0.070204 -0.031303
   vertex -0.004848 0.070488 -0.029044
  endloop
 endfacet
 facet normal -0.537986 -0.767602 -0.348366
  outer loop
   vertex -0.004848 0.070488 -0.029044
   vertex -0.00298 0.070204 -0.031303
   vertex -0.0025 0.068728 -0.028792
  endloop
 endfacet
 facet normal -0.420269 -0.815078 -0.398776
  outer loop
   vertex -0.00298 0.070204 -0.031303
   vertex -0.000904 0.068864 -0.030752
   vertex -0.0025 0.068728 -0.028792
  endloop
 endfacet
 facet normal 0.294416 -0.906493 0.302638
  outer loop
   vertex 0.003412 0.067816 -0.023768
   vertex 0.00622 0.068728 -0.023768
   vertex 0.004624 0.068864 -0.021808
  endloop
 endfacet
 facet normal 0.155824 -0.984657 0.07855
  outer loop
   vertex 0.00186 0.06737 -0.02628
   vertex 0.00495 0.067859 -0.02628
   vertex 0.003412 0.067816 -0.023768
  endloop
 endfacet
 facet normal -0.000555151 -0.98466 -0.174481
  outer loop
   vertex 0.000308 0.067816 -0.028792
   vertex 0.003242 0.067859 -0.029044
   vertex 0.00186 0.06737 -0.02628
  endloop
 endfacet
 facet normal 0.304389 -0.937197 0.170322
  outer loop
   vertex 0.003412 0.067816 -0.023768
   vertex 0.00495 0.067859 -0.02628
   vertex 0.00622 0.068728 -0.023768
  endloop
 endfacet
 facet normal 0.452705 -0.888208 0.0783901
  outer loop
   vertex 0.00495 0.067859 -0.02628
   vertex 0.007738 0.06928 -0.02628
   vertex 0.00622 0.068728 -0.023768
  endloop
 endfacet
 facet normal 0.155583 -0.983133 -0.0961419
  outer loop
   vertex 0.00186 0.06737 -0.02628
   vertex 0.003242 0.067859 -0.029044
   vertex 0.00495 0.067859 -0.02628
  endloop
 endfacet
 facet normal 0.303796 -0.934059 -0.187729
  outer loop
   vertex 0.003242 0.067859 -0.029044
   vertex 0.006332 0.068864 -0.029044
   vertex 0.00495 0.067859 -0.02628
  endloop
 endfacet
 facet normal 0.451986 -0.886796 -0.0964489
  outer loop
   vertex 0.00495 0.067859 -0.02628
   vertex 0.006332 0.068864 -0.029044
   vertex 0.007738 0.06928 -0.02628
  endloop
 endfacet
 facet normal 0.578874 -0.796508 -0.174584
  outer loop
   vertex 0.006332 0.068864 -0.029044
   vertex 0.008732 0.070553 -0.028792
   vertex 0.007738 0.06928 -0.02628
  endloop
 endfacet
 facet normal -0.0161962 -0.937175 -0.348485
  outer loop
   vertex 0.000308 0.067816 -0.028792
   vertex 0.001564 0.068728 -0.031303
   vertex 0.003242 0.067859 -0.029044
  endloop
 endfacet
 facet normal 0.132412 -0.888171 -0.440021
  outer loop
   vertex 0.001564 0.068728 -0.031303
   vertex 0.004489 0.06928 -0.031537
   vertex 0.003242 0.067859 -0.029044
  endloop
 endfacet
 facet normal 0.288415 -0.886769 -0.361189
  outer loop
   vertex 0.003242 0.067859 -0.029044
   vertex 0.004489 0.06928 -0.031537
   vertex 0.006332 0.068864 -0.029044
  endloop
 endfacet
 facet normal 0.415138 -0.796394 -0.439791
  outer loop
   vertex 0.004489 0.06928 -0.031537
   vertex 0.007179 0.070553 -0.031303
   vertex 0.006332 0.068864 -0.029044
  endloop
 endfacet
 facet normal 0.563623 -0.748876 -0.348589
  outer loop
   vertex 0.006332 0.068864 -0.029044
   vertex 0.007179 0.070553 -0.031303
   vertex 0.008732 0.070553 -0.028792
  endloop
 endfacet
 facet normal 0.645038 -0.651744 -0.398942
  outer loop
   vertex 0.007179 0.070553 -0.031303
   vertex 0.009096 0.072113 -0.030752
   vertex 0.008732 0.070553 -0.028792
  endloop
 endfacet
 facet normal 0.9532 -0 0.302341
  outer loop
   vertex 0.011426 0.075894 -0.023769
   vertex 0.011426 0.078846 -0.023769
   vertex 0.010804 0.07737 -0.021808
  endloop
 endfacet
 facet normal 0.984653 -0.155824 0.0785916
  outer loop
   vertex 0.011371 0.07428 -0.02628
   vertex 0.01186 0.07737 -0.02628
   vertex 0.011426 0.075894 -0.023769
  endloop
 endfacet
 facet normal 0.936352 -0.304548 -0.174631
  outer loop
   vertex 0.010467 0.072941 -0.028792
   vertex 0.011332 0.075745 -0.029044
   vertex 0.011371 0.07428 -0.02628
  endloop
 endfacet
 facet normal 0.98539 -0 0.170314
  outer loop
   vertex 0.011426 0.075894 -0.023769
   vertex 0.01186 0.07737 -0.02628
   vertex 0.011426 0.078846 -0.023769
  endloop
 endfacet
 facet normal 0.984653 0.155824 0.0785916
  outer loop
   vertex 0.01186 0.07737 -0.02628
   vertex 0.011371 0.08046 -0.02628
   vertex 0.011426 0.078846 -0.023769
  endloop
 endfacet
 facet normal 0.983115 -0.15558 -0.0963335
  outer loop
   vertex 0.011371 0.07428 -0.02628
   vertex 0.011332 0.075745 -0.029044
   vertex 0.01186 0.07737 -0.02628
  endloop
 endfacet
 facet normal 0.982239 0 -0.187634
  outer loop
   vertex 0.011332 0.075745 -0.029044
   vertex 0.011332 0.078995 -0.029044
   vertex 0.01186 0.07737 -0.02628
  endloop
 endfacet
 facet normal 0.983115 0.15558 -0.0963335
  outer loop
   vertex 0.01186 0.07737 -0.02628
   vertex 0.011332 0.078995 -0.029044
   vertex 0.011371 0.08046 -0.02628
  endloop
 endfacet
 facet normal 0.936352 0.304548 -0.174631
  outer loop
   vertex 0.011332 0.078995 -0.029044
   vertex 0.010467 0.081799 -0.028792
   vertex 0.011371 0.08046 -0.02628
  endloop
 endfacet
 facet normal 0.886309 -0.304753 -0.348685
  outer loop
   vertex 0.010467 0.072941 -0.028792
   vertex 0.009987 0.074418 -0.031303
   vertex 0.011332 0.075745 -0.029044
  endloop
 endfacet
 facet normal 0.885615 -0.148581 -0.440011
  outer loop
   vertex 0.009987 0.074418 -0.031303
   vertex 0.010366 0.07737 -0.031537
   vertex 0.011332 0.075745 -0.029044
  endloop
 endfacet
 facet normal 0.932446 0 -0.361309
  outer loop
   vertex 0.011332 0.075745 -0.029044
   vertex 0.010366 0.07737 -0.031537
   vertex 0.011332 0.078995 -0.029044
  endloop
 endfacet
 facet normal 0.885615 0.148581 -0.440011
  outer loop
   vertex 0.010366 0.07737 -0.031537
   vertex 0.009987 0.080322 -0.031303
   vertex 0.011332 0.078995 -0.029044
  endloop
 endfacet
 facet normal 0.886309 0.304753 -0.348685
  outer loop
   vertex 0.011332 0.078995 -0.029044
   vertex 0.009987 0.080322 -0.031303
   vertex 0.010467 0.081799 -0.028792
  endloop
 endfacet
 facet normal 0.819189 0.412026 -0.398954
  outer loop
   vertex 0.009987 0.080322 -0.031303
   vertex 0.009096 0.082627 -0.030752
   vertex 0.010467 0.081799 -0.028792
  endloop
 endfacet
 facet normal 0.61533 0.560308 -0.554459
  outer loop
   vertex 0.007955 0.081799 -0.032855
   vertex 0.007179 0.084187 -0.031303
   vertex 0.009096 0.082627 -0.030752
  endloop
 endfacet
 facet normal 0.467426 0.452641 -0.759361
  outer loop
   vertex 0.006113 0.08046 -0.034787
   vertex 0.005478 0.083248 -0.033516
   vertex 0.007955 0.081799 -0.032855
  endloop
 endfacet
 facet normal 0.262485 0.303841 -0.915851
  outer loop
   vertex 0.003892 0.078846 -0.035959
   vertex 0.003242 0.081623 -0.035224
   vertex 0.006113 0.08046 -0.034787
  endloop
 endfacet
 facet normal 0.508799 0.579247 -0.636864
  outer loop
   vertex 0.007955 0.081799 -0.032855
   vertex 0.005478 0.083248 -0.033516
   vertex 0.007179 0.084187 -0.031303
  endloop
 endfacet
 facet normal 0.38541 0.704977 -0.595371
  outer loop
   vertex 0.005478 0.083248 -0.033516
   vertex 0.004489 0.08546 -0.031537
   vertex 0.007179 0.084187 -0.031303
  endloop
 endfacet
 facet normal 0.310374 0.451949 -0.836307
  outer loop
   vertex 0.006113 0.08046 -0.034787
   vertex 0.003242 0.081623 -0.035224
   vertex 0.005478 0.083248 -0.033516
  endloop
 endfacet
 facet normal 0.187559 0.577248 -0.794737
  outer loop
   vertex 0.003242 0.081623 -0.035224
   vertex 0.002388 0.084252 -0.033516
   vertex 0.005478 0.083248 -0.033516
  endloop
 endfacet
 facet normal 0.228709 0.703897 -0.672474
  outer loop
   vertex 0.005478 0.083248 -0.033516
   vertex 0.002388 0.084252 -0.033516
   vertex 0.004489 0.08546 -0.031537
  endloop
 endfacet
 facet normal 0.102735 0.796801 -0.595444
  outer loop
   vertex 0.002388 0.084252 -0.033516
   vertex 0.001564 0.086012 -0.031303
   vertex 0.004489 0.08546 -0.031537
  endloop
 endfacet
 facet normal 0.0891868 0.274301 -0.957499
  outer loop
   vertex 0.003892 0.078846 -0.035959
   vertex 0.001084 0.079759 -0.035959
   vertex 0.003242 0.081623 -0.035224
  endloop
 endfacet
 facet normal -0.0336945 0.400135 -0.915836
  outer loop
   vertex 0.001084 0.079759 -0.035959
   vertex 0.000235 0.08237 -0.034787
   vertex 0.003242 0.081623 -0.035224
  endloop
 endfacet
 facet normal 0.0146149 0.548074 -0.836302
  outer loop
   vertex 0.003242 0.081623 -0.035224
   vertex 0.000235 0.08237 -0.034787
   vertex 0.002388 0.084252 -0.033516
  endloop
 endfacet
 facet normal -0.112009 0.640965 -0.759354
  outer loop
   vertex 0.000235 0.08237 -0.034787
   vertex -0.000468 0.084536 -0.032855
   vertex 0.002388 0.084252 -0.033516
  endloop
 endfacet
 facet normal -0.0710868 0.767617 -0.636955
  outer loop
   vertex 0.002388 0.084252 -0.033516
   vertex -0.000468 0.084536 -0.032855
   vertex 0.001564 0.086012 -0.031303
  endloop
 endfacet
 facet normal -0.168666 0.815046 -0.554303
  outer loop
   vertex -0.000468 0.084536 -0.032855
   vertex -0.000904 0.085876 -0.030752
   vertex 0.001564 0.086012 -0.031303
  endloop
 endfacet
 facet normal -0.342493 0.758552 -0.554344
  outer loop
   vertex -0.000468 0.084536 -0.032855
   vertex -0.00298 0.084536 -0.031303
   vertex -0.000904 0.085876 -0.030752
  endloop
 endfacet
 facet normal -0.286233 0.584386 -0.759318
  outer loop
   vertex 0.000235 0.08237 -0.034787
   vertex -0.002612 0.082627 -0.033516
   vertex -0.000468 0.084536 -0.032855
  endloop
 endfacet
 facet normal -0.207851 0.343516 -0.915858
  outer loop
   vertex 0.001084 0.079759 -0.035959
   vertex -0.001758 0.079999 -0.035224
   vertex 0.000235 0.08237 -0.034787
  endloop
 endfacet
 facet normal -0.393627 0.662685 -0.637108
  outer loop
   vertex -0.000468 0.084536 -0.032855
   vertex -0.002612 0.082627 -0.033516
   vertex -0.00298 0.084536 -0.031303
  endloop
 endfacet
 facet normal -0.551379 0.584158 -0.595601
  outer loop
   vertex -0.002612 0.082627 -0.033516
   vertex -0.005022 0.08237 -0.031537
   vertex -0.00298 0.084536 -0.031303
  endloop
 endfacet
 facet normal -0.334054 0.43492 -0.836213
  outer loop
   vertex 0.000235 0.08237 -0.034787
   vertex -0.001758 0.079999 -0.035224
   vertex -0.002612 0.082627 -0.033516
  endloop
 endfacet
 facet normal -0.491058 0.356895 -0.794662
  outer loop
   vertex -0.001758 0.079999 -0.035224
   vertex -0.004522 0.079999 -0.033516
   vertex -0.002612 0.082627 -0.033516
  endloop
 endfacet
 facet normal -0.598657 0.435097 -0.672533
  outer loop
   vertex -0.002612 0.082627 -0.033516
   vertex -0.004522 0.079999 -0.033516
   vertex -0.005022 0.08237 -0.031537
  endloop
 endfacet
 facet normal -0.725985 0.343961 -0.595514
  outer loop
   vertex -0.004522 0.079999 -0.033516
   vertex -0.006451 0.079759 -0.031303
   vertex -0.005022 0.08237 -0.031537
  endloop
 endfacet
 facet normal -0.233325 0.169451 -0.957521
  outer loop
   vertex 0.001084 0.079759 -0.035959
   vertex -0.000651 0.07737 -0.035959
   vertex -0.001758 0.079999 -0.035224
  endloop
 endfacet
 facet normal -0.390899 0.0914587 -0.915878
  outer loop
   vertex -0.000651 0.07737 -0.035959
   vertex -0.003397 0.07737 -0.034787
   vertex -0.001758 0.079999 -0.035224
  endloop
 endfacet
 facet normal -0.516783 0.183167 -0.836293
  outer loop
   vertex -0.001758 0.079999 -0.035224
   vertex -0.003397 0.07737 -0.034787
   vertex -0.004522 0.079999 -0.033516
  endloop
 endfacet
 facet normal -0.644269 0.0913996 -0.759317
  outer loop
   vertex -0.003397 0.07737 -0.034787
   vertex -0.005674 0.07737 -0.032855
   vertex -0.004522 0.079999 -0.033516
  endloop
 endfacet
 facet normal -0.751958 0.169318 -0.637095
  outer loop
   vertex -0.004522 0.079999 -0.033516
   vertex -0.005674 0.07737 -0.032855
   vertex -0.006451 0.079759 -0.031303
  endloop
 endfacet
 facet normal -0.827124 0.091254 -0.554562
  outer loop
   vertex -0.005674 0.07737 -0.032855
   vertex -0.007084 0.07737 -0.030752
   vertex -0.006451 0.079759 -0.031303
  endloop
 endfacet
 facet normal -0.827124 -0.091254 -0.554562
  outer loop
   vertex -0.005674 0.07737 -0.032855
   vertex -0.006451 0.074981 -0.031303
   vertex -0.007084 0.07737 -0.030752
  endloop
 endfacet
 facet normal -0.644269 -0.0913996 -0.759317
  outer loop
   vertex -0.003397 0.07737 -0.034787
   vertex -0.004522 0.074741 -0.033516
   vertex -0.005674 0.07737 -0.032855
  endloop
 endfacet
 facet normal -0.390899 -0.0914587 -0.915878
  outer loop
   vertex -0.000651 0.07737 -0.035959
   vertex -0.001758 0.074741 -0.035224
   vertex -0.003397 0.07737 -0.034787
  endloop
 endfacet
 facet normal -0.751958 -0.169318 -0.637095
  outer loop
   vertex -0.005674 0.07737 -0.032855
   vertex -0.004522 0.074741 -0.033516
   vertex -0.006451 0.074981 -0.031303
  endloop
 endfacet
 facet normal -0.725985 -0.343961 -0.595514
  outer loop
   vertex -0.004522 0.074741 -0.033516
   vertex -0.005022 0.07237 -0.031537
   vertex -0.006451 0.074981 -0.031303
  endloop
 endfacet
 facet normal -0.516783 -0.183167 -0.836293
  outer loop
   vertex -0.003397 0.07737 -0.034787
   vertex -0.001758 0.074741 -0.035224
   vertex -0.004522 0.074741 -0.033516
  endloop
 endfacet
 facet normal -0.491058 -0.356895 -0.794662
  outer loop
   vertex -0.001758 0.074741 -0.035224
   vertex -0.002612 0.072113 -0.033516
   vertex -0.004522 0.074741 -0.033516
  endloop
 endfacet
 facet normal -0.598657 -0.435097 -0.672533
  outer loop
   vertex -0.004522 0.074741 -0.033516
   vertex -0.002612 0.072113 -0.033516
   vertex -0.005022 0.07237 -0.031537
  endloop
 endfacet
 facet normal -0.551379 -0.584158 -0.595601
  outer loop
   vertex -0.002612 0.072113 -0.033516
   vertex -0.00298 0.070204 -0.031303
   vertex -0.005022 0.07237 -0.031537
  endloop
 endfacet
 facet normal -0.233325 -0.169451 -0.957521
  outer loop
   vertex -0.000651 0.07737 -0.035959
   vertex 0.001084 0.074981 -0.035959
   vertex -0.001758 0.074741 -0.035224
  endloop
 endfacet
 facet normal -0.207851 -0.343516 -0.915858
  outer loop
   vertex 0.001084 0.074981 -0.035959
   vertex 0.000235 0.07237 -0.034787
   vertex -0.001758 0.074741 -0.035224
  endloop
 endfacet
 facet normal -0.334054 -0.43492 -0.836213
  outer loop
   vertex -0.001758 0.074741 -0.035224
   vertex 0.000235 0.07237 -0.034787
   vertex -0.002612 0.072113 -0.033516
  endloop
 endfacet
 facet normal -0.286233 -0.584386 -0.759318
  outer loop
   vertex 0.000235 0.07237 -0.034787
   vertex -0.000468 0.070204 -0.032855
   vertex -0.002612 0.072113 -0.033516
  endloop
 endfacet
 facet normal -0.393627 -0.662685 -0.637108
  outer loop
   vertex -0.002612 0.072113 -0.033516
   vertex -0.000468 0.070204 -0.032855
   vertex -0.00298 0.070204 -0.031303
  endloop
 endfacet
 facet normal -0.342493 -0.758552 -0.554344
  outer loop
   vertex -0.000468 0.070204 -0.032855
   vertex -0.000904 0.068864 -0.030752
   vertex -0.00298 0.070204 -0.031303
  endloop
 endfacet
 facet normal 0.723015 0.412034 -0.554506
  outer loop
   vertex 0.009987 0.080322 -0.031303
   vertex 0.007955 0.081799 -0.032855
   vertex 0.009096 0.082627 -0.030752
  endloop
 endfacet
 facet normal 0.789589 0.148568 -0.59538
  outer loop
   vertex 0.010366 0.07737 -0.031537
   vertex 0.008568 0.078995 -0.033516
   vertex 0.009987 0.080322 -0.031303
  endloop
 endfacet
 facet normal 0.789589 -0.148568 -0.59538
  outer loop
   vertex 0.009987 0.074418 -0.031303
   vertex 0.008568 0.075745 -0.033516
   vertex 0.010366 0.07737 -0.031537
  endloop
 endfacet
 facet normal 0.708089 0.304936 -0.636886
  outer loop
   vertex 0.009987 0.080322 -0.031303
   vertex 0.008568 0.078995 -0.033516
   vertex 0.007955 0.081799 -0.032855
  endloop
 endfacet
 facet normal 0.574948 0.304695 -0.759339
  outer loop
   vertex 0.008568 0.078995 -0.033516
   vertex 0.006113 0.08046 -0.034787
   vertex 0.007955 0.081799 -0.032855
  endloop
 endfacet
 facet normal 0.740143 0 -0.672449
  outer loop
   vertex 0.010366 0.07737 -0.031537
   vertex 0.008568 0.075745 -0.033516
   vertex 0.008568 0.078995 -0.033516
  endloop
 endfacet
 facet normal 0.607028 0 -0.794681
  outer loop
   vertex 0.008568 0.075745 -0.033516
   vertex 0.006332 0.07737 -0.035224
   vertex 0.008568 0.078995 -0.033516
  endloop
 endfacet
 facet normal 0.525774 0.155534 -0.836284
  outer loop
   vertex 0.008568 0.078995 -0.033516
   vertex 0.006332 0.07737 -0.035224
   vertex 0.006113 0.08046 -0.034787
  endloop
 endfacet
 facet normal 0.370096 0.155752 -0.915844
  outer loop
   vertex 0.006332 0.07737 -0.035224
   vertex 0.003892 0.078846 -0.035959
   vertex 0.006113 0.08046 -0.034787
  endloop
 endfacet
 facet normal 0.708089 -0.304936 -0.636886
  outer loop
   vertex 0.009987 0.074418 -0.031303
   vertex 0.007955 0.072941 -0.032855
   vertex 0.008568 0.075745 -0.033516
  endloop
 endfacet
 facet normal 0.574948 -0.304695 -0.759339
  outer loop
   vertex 0.007955 0.072941 -0.032855
   vertex 0.006113 0.07428 -0.034787
   vertex 0.008568 0.075745 -0.033516
  endloop
 endfacet
 facet normal 0.525774 -0.155534 -0.836284
  outer loop
   vertex 0.008568 0.075745 -0.033516
   vertex 0.006113 0.07428 -0.034787
   vertex 0.006332 0.07737 -0.035224
  endloop
 endfacet
 facet normal 0.370096 -0.155752 -0.915844
  outer loop
   vertex 0.006113 0.07428 -0.034787
   vertex 0.003892 0.075894 -0.035959
   vertex 0.006332 0.07737 -0.035224
  endloop
 endfacet
 facet normal 0.288428 0 -0.957502
  outer loop
   vertex 0.006332 0.07737 -0.035224
   vertex 0.003892 0.075894 -0.035959
   vertex 0.003892 0.078846 -0.035959
  endloop
 endfacet
 facet normal 0.156037 0 -0.987751
  outer loop
   vertex 0.003892 0.075894 -0.035959
   vertex 0.00186 0.07737 -0.03628
   vertex 0.003892 0.078846 -0.035959
  endloop
 endfacet
 facet normal -0.168666 -0.815046 -0.554303
  outer loop
   vertex -0.000468 0.070204 -0.032855
   vertex 0.001564 0.068728 -0.031303
   vertex -0.000904 0.068864 -0.030752
  endloop
 endfacet
 facet normal -0.112009 -0.640965 -0.759354
  outer loop
   vertex 0.000235 0.07237 -0.034787
   vertex 0.002388 0.070488 -0.033516
   vertex -0.000468 0.070204 -0.032855
  endloop
 endfacet
 facet normal -0.0336945 -0.400135 -0.915836
  outer loop
   vertex 0.001084 0.074981 -0.035959
   vertex 0.003242 0.073117 -0.035224
   vertex 0.000235 0.07237 -0.034787
  endloop
 endfacet
 facet normal -0.0710868 -0.767617 -0.636955
  outer loop
   vertex -0.000468 0.070204 -0.032855
   vertex 0.002388 0.070488 -0.033516
   vertex 0.001564 0.068728 -0.031303
  endloop
 endfacet
 facet normal 0.102735 -0.796801 -0.595444
  outer loop
   vertex 0.002388 0.070488 -0.033516
   vertex 0.004489 0.06928 -0.031537
   vertex 0.001564 0.068728 -0.031303
  endloop
 endfacet
 facet normal 0.0146149 -0.548074 -0.836302
  outer loop
   vertex 0.000235 0.07237 -0.034787
   vertex 0.003242 0.073117 -0.035224
   vertex 0.002388 0.070488 -0.033516
  endloop
 endfacet
 facet normal 0.187559 -0.577248 -0.794737
  outer loop
   vertex 0.003242 0.073117 -0.035224
   vertex 0.005478 0.071492 -0.033516
   vertex 0.002388 0.070488 -0.033516
  endloop
 endfacet
 facet normal 0.228709 -0.703897 -0.672474
  outer loop
   vertex 0.002388 0.070488 -0.033516
   vertex 0.005478 0.071492 -0.033516
   vertex 0.004489 0.06928 -0.031537
  endloop
 endfacet
 facet normal 0.38541 -0.704977 -0.595371
  outer loop
   vertex 0.005478 0.071492 -0.033516
   vertex 0.007179 0.070553 -0.031303
   vertex 0.004489 0.06928 -0.031537
  endloop
 endfacet
 facet normal 0.0891868 -0.274301 -0.957499
  outer loop
   vertex 0.001084 0.074981 -0.035959
   vertex 0.003892 0.075894 -0.035959
   vertex 0.003242 0.073117 -0.035224
  endloop
 endfacet
 facet normal 0.262485 -0.303841 -0.915851
  outer loop
   vertex 0.003892 0.075894 -0.035959
   vertex 0.006113 0.07428 -0.034787
   vertex 0.003242 0.073117 -0.035224
  endloop
 endfacet
 facet normal 0.310374 -0.451949 -0.836307
  outer loop
   vertex 0.003242 0.073117 -0.035224
   vertex 0.006113 0.07428 -0.034787
   vertex 0.005478 0.071492 -0.033516
  endloop
 endfacet
 facet normal 0.467426 -0.452641 -0.759361
  outer loop
   vertex 0.006113 0.07428 -0.034787
   vertex 0.007955 0.072941 -0.032855
   vertex 0.005478 0.071492 -0.033516
  endloop
 endfacet
 facet normal 0.508799 -0.579247 -0.636864
  outer loop
   vertex 0.005478 0.071492 -0.033516
   vertex 0.007955 0.072941 -0.032855
   vertex 0.007179 0.070553 -0.031303
  endloop
 endfacet
 facet normal 0.61533 -0.560308 -0.554459
  outer loop
   vertex 0.007955 0.072941 -0.032855
   vertex 0.009096 0.072113 -0.030752
   vertex 0.007179 0.070553 -0.031303
  endloop
 endfacet
endsolid ExportedfromBlender-3.5.1
