solid ExportedfromBlender-3.5.1
 facet normal 0.0482486 -0.148392 -0.987751
  outer loop
   vertex -0.0261 0.08607 0.0153
   vertex -0.024068 0.084594 0.015621
   vertex -0.026876 0.083681 0.015621
  endloop
 endfacet
 facet normal 0.723015 -0.412034 -0.554506
  outer loop
   vertex -0.018864 0.080813 0.020828
   vertex -0.020005 0.081641 0.018725
   vertex -0.017973 0.083118 0.020277
  endloop
 endfacet
 facet normal -0.126271 -0.0917039 -0.987748
  outer loop
   vertex -0.0261 0.08607 0.0153
   vertex -0.026876 0.083681 0.015621
   vertex -0.028611 0.08607 0.015621
  endloop
 endfacet
 facet normal -0.126271 0.0917039 -0.987748
  outer loop
   vertex -0.0261 0.08607 0.0153
   vertex -0.028611 0.08607 0.015621
   vertex -0.026876 0.088459 0.015621
  endloop
 endfacet
 facet normal 0.0482486 0.148392 -0.987751
  outer loop
   vertex -0.0261 0.08607 0.0153
   vertex -0.026876 0.088459 0.015621
   vertex -0.024068 0.087546 0.015621
  endloop
 endfacet
 facet normal 0.819189 -0.412026 -0.398954
  outer loop
   vertex -0.018864 0.080813 0.020828
   vertex -0.017973 0.083118 0.020277
   vertex -0.017493 0.081641 0.022788
  endloop
 endfacet
 facet normal -0.138975 -0.90647 -0.398746
  outer loop
   vertex -0.028864 0.077564 0.020828
   vertex -0.026396 0.077428 0.020277
   vertex -0.027652 0.076516 0.022788
  endloop
 endfacet
 facet normal -0.905177 -0.147939 -0.398459
  outer loop
   vertex -0.035044 0.08607 0.020828
   vertex -0.034411 0.083681 0.020277
   vertex -0.035666 0.084594 0.022789
  endloop
 endfacet
 facet normal -0.420269 0.815078 -0.398776
  outer loop
   vertex -0.028864 0.094576 0.020828
   vertex -0.03094 0.093236 0.020277
   vertex -0.03046 0.094712 0.022788
  endloop
 endfacet
 facet normal 0.645038 0.651744 -0.398942
  outer loop
   vertex -0.018864 0.091327 0.020828
   vertex -0.020781 0.092887 0.020277
   vertex -0.019228 0.092887 0.022788
  endloop
 endfacet
 facet normal 0.771063 -0.560215 -0.302688
  outer loop
   vertex -0.018864 0.080813 0.020828
   vertex -0.017493 0.081641 0.022788
   vertex -0.019228 0.079253 0.022788
  endloop
 endfacet
 facet normal -0.294416 -0.906493 -0.302638
  outer loop
   vertex -0.028864 0.077564 0.020828
   vertex -0.027652 0.076516 0.022788
   vertex -0.03046 0.077428 0.022788
  endloop
 endfacet
 facet normal -0.9532 0 -0.302341
  outer loop
   vertex -0.035044 0.08607 0.020828
   vertex -0.035666 0.084594 0.022789
   vertex -0.035666 0.087546 0.022789
  endloop
 endfacet
 facet normal -0.294416 0.906493 -0.302638
  outer loop
   vertex -0.028864 0.094576 0.020828
   vertex -0.03046 0.094712 0.022788
   vertex -0.027652 0.095624 0.022788
  endloop
 endfacet
 facet normal 0.771063 0.560215 -0.302688
  outer loop
   vertex -0.018864 0.091327 0.020828
   vertex -0.019228 0.092887 0.022788
   vertex -0.017493 0.090499 0.022788
  endloop
 endfacet
 facet normal 0.342493 -0.758552 0.554344
  outer loop
   vertex -0.023336 0.077564 0.029772
   vertex -0.02126 0.078904 0.030323
   vertex -0.023772 0.078904 0.031875
  endloop
 endfacet
 facet normal -0.61533 -0.560308 0.554459
  outer loop
   vertex -0.033336 0.080813 0.029772
   vertex -0.031419 0.079253 0.030323
   vertex -0.032195 0.081641 0.031875
  endloop
 endfacet
 facet normal -0.723015 0.412034 0.554506
  outer loop
   vertex -0.033336 0.091327 0.029772
   vertex -0.034227 0.089022 0.030323
   vertex -0.032195 0.090499 0.031875
  endloop
 endfacet
 facet normal 0.168666 0.815046 0.554303
  outer loop
   vertex -0.023336 0.094576 0.029772
   vertex -0.025804 0.094712 0.030323
   vertex -0.023772 0.093236 0.031875
  endloop
 endfacet
 facet normal 0.827124 0.091254 0.554562
  outer loop
   vertex -0.017156 0.08607 0.029772
   vertex -0.017789 0.088459 0.030323
   vertex -0.018566 0.08607 0.031875
  endloop
 endfacet
 facet normal 0.126271 0.0917039 0.987748
  outer loop
   vertex -0.023589 0.08607 0.034979
   vertex -0.025324 0.088459 0.034979
   vertex -0.0261 0.08607 0.0353
  endloop
 endfacet
 facet normal 0.390899 0.0914587 0.915878
  outer loop
   vertex -0.020843 0.08607 0.033807
   vertex -0.022482 0.088699 0.034244
   vertex -0.023589 0.08607 0.034979
  endloop
 endfacet
 facet normal 0.644269 0.0913996 0.759317
  outer loop
   vertex -0.018566 0.08607 0.031875
   vertex -0.019718 0.088699 0.032536
   vertex -0.020843 0.08607 0.033807
  endloop
 endfacet
 facet normal 0.233325 0.169451 0.957521
  outer loop
   vertex -0.023589 0.08607 0.034979
   vertex -0.022482 0.088699 0.034244
   vertex -0.025324 0.088459 0.034979
  endloop
 endfacet
 facet normal 0.207851 0.343516 0.915858
  outer loop
   vertex -0.022482 0.088699 0.034244
   vertex -0.024475 0.09107 0.033807
   vertex -0.025324 0.088459 0.034979
  endloop
 endfacet
 facet normal 0.516783 0.183167 0.836293
  outer loop
   vertex -0.020843 0.08607 0.033807
   vertex -0.019718 0.088699 0.032536
   vertex -0.022482 0.088699 0.034244
  endloop
 endfacet
 facet normal 0.491058 0.356895 0.794662
  outer loop
   vertex -0.019718 0.088699 0.032536
   vertex -0.021628 0.091327 0.032536
   vertex -0.022482 0.088699 0.034244
  endloop
 endfacet
 facet normal 0.334054 0.43492 0.836213
  outer loop
   vertex -0.022482 0.088699 0.034244
   vertex -0.021628 0.091327 0.032536
   vertex -0.024475 0.09107 0.033807
  endloop
 endfacet
 facet normal 0.286233 0.584386 0.759318
  outer loop
   vertex -0.021628 0.091327 0.032536
   vertex -0.023772 0.093236 0.031875
   vertex -0.024475 0.09107 0.033807
  endloop
 endfacet
 facet normal 0.751958 0.169318 0.637095
  outer loop
   vertex -0.018566 0.08607 0.031875
   vertex -0.017789 0.088459 0.030323
   vertex -0.019718 0.088699 0.032536
  endloop
 endfacet
 facet normal 0.725985 0.343961 0.595514
  outer loop
   vertex -0.017789 0.088459 0.030323
   vertex -0.019218 0.09107 0.030557
   vertex -0.019718 0.088699 0.032536
  endloop
 endfacet
 facet normal 0.598657 0.435097 0.672533
  outer loop
   vertex -0.019718 0.088699 0.032536
   vertex -0.019218 0.09107 0.030557
   vertex -0.021628 0.091327 0.032536
  endloop
 endfacet
 facet normal 0.551379 0.584158 0.595601
  outer loop
   vertex -0.019218 0.09107 0.030557
   vertex -0.02126 0.093236 0.030323
   vertex -0.021628 0.091327 0.032536
  endloop
 endfacet
 facet normal 0.393627 0.662685 0.637108
  outer loop
   vertex -0.021628 0.091327 0.032536
   vertex -0.02126 0.093236 0.030323
   vertex -0.023772 0.093236 0.031875
  endloop
 endfacet
 facet normal 0.342493 0.758552 0.554344
  outer loop
   vertex -0.02126 0.093236 0.030323
   vertex -0.023336 0.094576 0.029772
   vertex -0.023772 0.093236 0.031875
  endloop
 endfacet
 facet normal -0.0482486 0.148392 0.987751
  outer loop
   vertex -0.025324 0.088459 0.034979
   vertex -0.028132 0.087546 0.034979
   vertex -0.0261 0.08607 0.0353
  endloop
 endfacet
 facet normal 0.0336945 0.400135 0.915836
  outer loop
   vertex -0.024475 0.09107 0.033807
   vertex -0.027482 0.090323 0.034244
   vertex -0.025324 0.088459 0.034979
  endloop
 endfacet
 facet normal 0.112009 0.640965 0.759354
  outer loop
   vertex -0.023772 0.093236 0.031875
   vertex -0.026628 0.092952 0.032536
   vertex -0.024475 0.09107 0.033807
  endloop
 endfacet
 facet normal -0.0891868 0.274301 0.957499
  outer loop
   vertex -0.025324 0.088459 0.034979
   vertex -0.027482 0.090323 0.034244
   vertex -0.028132 0.087546 0.034979
  endloop
 endfacet
 facet normal -0.262485 0.303841 0.915851
  outer loop
   vertex -0.027482 0.090323 0.034244
   vertex -0.030353 0.08916 0.033807
   vertex -0.028132 0.087546 0.034979
  endloop
 endfacet
 facet normal -0.0146149 0.548074 0.836302
  outer loop
   vertex -0.024475 0.09107 0.033807
   vertex -0.026628 0.092952 0.032536
   vertex -0.027482 0.090323 0.034244
  endloop
 endfacet
 facet normal -0.187559 0.577248 0.794737
  outer loop
   vertex -0.026628 0.092952 0.032536
   vertex -0.029718 0.091948 0.032536
   vertex -0.027482 0.090323 0.034244
  endloop
 endfacet
 facet normal -0.310374 0.451949 0.836307
  outer loop
   vertex -0.027482 0.090323 0.034244
   vertex -0.029718 0.091948 0.032536
   vertex -0.030353 0.08916 0.033807
  endloop
 endfacet
 facet normal -0.467426 0.452641 0.759361
  outer loop
   vertex -0.029718 0.091948 0.032536
   vertex -0.032195 0.090499 0.031875
   vertex -0.030353 0.08916 0.033807
  endloop
 endfacet
 facet normal 0.0710868 0.767617 0.636955
  outer loop
   vertex -0.023772 0.093236 0.031875
   vertex -0.025804 0.094712 0.030323
   vertex -0.026628 0.092952 0.032536
  endloop
 endfacet
 facet normal -0.102735 0.796801 0.595444
  outer loop
   vertex -0.025804 0.094712 0.030323
   vertex -0.028729 0.09416 0.030557
   vertex -0.026628 0.092952 0.032536
  endloop
 endfacet
 facet normal -0.228709 0.703897 0.672474
  outer loop
   vertex -0.026628 0.092952 0.032536
   vertex -0.028729 0.09416 0.030557
   vertex -0.029718 0.091948 0.032536
  endloop
 endfacet
 facet normal -0.38541 0.704977 0.595371
  outer loop
   vertex -0.028729 0.09416 0.030557
   vertex -0.031419 0.092887 0.030323
   vertex -0.029718 0.091948 0.032536
  endloop
 endfacet
 facet normal -0.508799 0.579247 0.636864
  outer loop
   vertex -0.029718 0.091948 0.032536
   vertex -0.031419 0.092887 0.030323
   vertex -0.032195 0.090499 0.031875
  endloop
 endfacet
 facet normal -0.61533 0.560308 0.554459
  outer loop
   vertex -0.031419 0.092887 0.030323
   vertex -0.033336 0.091327 0.029772
   vertex -0.032195 0.090499 0.031875
  endloop
 endfacet
 facet normal -0.156037 0 0.987751
  outer loop
   vertex -0.028132 0.087546 0.034979
   vertex -0.028132 0.084594 0.034979
   vertex -0.0261 0.08607 0.0353
  endloop
 endfacet
 facet normal -0.370096 0.155752 0.915844
  outer loop
   vertex -0.030353 0.08916 0.033807
   vertex -0.030572 0.08607 0.034244
   vertex -0.028132 0.087546 0.034979
  endloop
 endfacet
 facet normal -0.574948 0.304695 0.759339
  outer loop
   vertex -0.032195 0.090499 0.031875
   vertex -0.032808 0.087695 0.032536
   vertex -0.030353 0.08916 0.033807
  endloop
 endfacet
 facet normal -0.288428 0 0.957502
  outer loop
   vertex -0.028132 0.087546 0.034979
   vertex -0.030572 0.08607 0.034244
   vertex -0.028132 0.084594 0.034979
  endloop
 endfacet
 facet normal -0.370096 -0.155752 0.915844
  outer loop
   vertex -0.030572 0.08607 0.034244
   vertex -0.030353 0.08298 0.033807
   vertex -0.028132 0.084594 0.034979
  endloop
 endfacet
 facet normal -0.525774 0.155534 0.836284
  outer loop
   vertex -0.030353 0.08916 0.033807
   vertex -0.032808 0.087695 0.032536
   vertex -0.030572 0.08607 0.034244
  endloop
 endfacet
 facet normal -0.607028 0 0.794681
  outer loop
   vertex -0.032808 0.087695 0.032536
   vertex -0.032808 0.084445 0.032536
   vertex -0.030572 0.08607 0.034244
  endloop
 endfacet
 facet normal -0.525774 -0.155534 0.836284
  outer loop
   vertex -0.030572 0.08607 0.034244
   vertex -0.032808 0.084445 0.032536
   vertex -0.030353 0.08298 0.033807
  endloop
 endfacet
 facet normal -0.574948 -0.304695 0.759339
  outer loop
   vertex -0.032808 0.084445 0.032536
   vertex -0.032195 0.081641 0.031875
   vertex -0.030353 0.08298 0.033807
  endloop
 endfacet
 facet normal -0.708089 0.304936 0.636886
  outer loop
   vertex -0.032195 0.090499 0.031875
   vertex -0.034227 0.089022 0.030323
   vertex -0.032808 0.087695 0.032536
  endloop
 endfacet
 facet normal -0.789589 0.148568 0.59538
  outer loop
   vertex -0.034227 0.089022 0.030323
   vertex -0.034606 0.08607 0.030557
   vertex -0.032808 0.087695 0.032536
  endloop
 endfacet
 facet normal -0.740143 0 0.672449
  outer loop
   vertex -0.032808 0.087695 0.032536
   vertex -0.034606 0.08607 0.030557
   vertex -0.032808 0.084445 0.032536
  endloop
 endfacet
 facet normal -0.789589 -0.148568 0.59538
  outer loop
   vertex -0.034606 0.08607 0.030557
   vertex -0.034227 0.083118 0.030323
   vertex -0.032808 0.084445 0.032536
  endloop
 endfacet
 facet normal -0.708089 -0.304936 0.636886
  outer loop
   vertex -0.032808 0.084445 0.032536
   vertex -0.034227 0.083118 0.030323
   vertex -0.032195 0.081641 0.031875
  endloop
 endfacet
 facet normal -0.723015 -0.412034 0.554506
  outer loop
   vertex -0.034227 0.083118 0.030323
   vertex -0.033336 0.080813 0.029772
   vertex -0.032195 0.081641 0.031875
  endloop
 endfacet
 facet normal -0.0482486 -0.148392 0.987751
  outer loop
   vertex -0.028132 0.084594 0.034979
   vertex -0.025324 0.083681 0.034979
   vertex -0.0261 0.08607 0.0353
  endloop
 endfacet
 facet normal -0.262485 -0.303841 0.915851
  outer loop
   vertex -0.030353 0.08298 0.033807
   vertex -0.027482 0.081817 0.034244
   vertex -0.028132 0.084594 0.034979
  endloop
 endfacet
 facet normal -0.467426 -0.452641 0.759361
  outer loop
   vertex -0.032195 0.081641 0.031875
   vertex -0.029718 0.080192 0.032536
   vertex -0.030353 0.08298 0.033807
  endloop
 endfacet
 facet normal -0.0891868 -0.274301 0.957499
  outer loop
   vertex -0.028132 0.084594 0.034979
   vertex -0.027482 0.081817 0.034244
   vertex -0.025324 0.083681 0.034979
  endloop
 endfacet
 facet normal 0.0336945 -0.400135 0.915836
  outer loop
   vertex -0.027482 0.081817 0.034244
   vertex -0.024475 0.08107 0.033807
   vertex -0.025324 0.083681 0.034979
  endloop
 endfacet
 facet normal -0.310374 -0.451949 0.836307
  outer loop
   vertex -0.030353 0.08298 0.033807
   vertex -0.029718 0.080192 0.032536
   vertex -0.027482 0.081817 0.034244
  endloop
 endfacet
 facet normal -0.187559 -0.577248 0.794737
  outer loop
   vertex -0.029718 0.080192 0.032536
   vertex -0.026628 0.079188 0.032536
   vertex -0.027482 0.081817 0.034244
  endloop
 endfacet
 facet normal -0.0146149 -0.548074 0.836302
  outer loop
   vertex -0.027482 0.081817 0.034244
   vertex -0.026628 0.079188 0.032536
   vertex -0.024475 0.08107 0.033807
  endloop
 endfacet
 facet normal 0.112009 -0.640965 0.759354
  outer loop
   vertex -0.026628 0.079188 0.032536
   vertex -0.023772 0.078904 0.031875
   vertex -0.024475 0.08107 0.033807
  endloop
 endfacet
 facet normal -0.508799 -0.579247 0.636864
  outer loop
   vertex -0.032195 0.081641 0.031875
   vertex -0.031419 0.079253 0.030323
   vertex -0.029718 0.080192 0.032536
  endloop
 endfacet
 facet normal -0.38541 -0.704977 0.595371
  outer loop
   vertex -0.031419 0.079253 0.030323
   vertex -0.028729 0.07798 0.030557
   vertex -0.029718 0.080192 0.032536
  endloop
 endfacet
 facet normal -0.228709 -0.703897 0.672474
  outer loop
   vertex -0.029718 0.080192 0.032536
   vertex -0.028729 0.07798 0.030557
   vertex -0.026628 0.079188 0.032536
  endloop
 endfacet
 facet normal -0.102735 -0.796801 0.595444
  outer loop
   vertex -0.028729 0.07798 0.030557
   vertex -0.025804 0.077428 0.030323
   vertex -0.026628 0.079188 0.032536
  endloop
 endfacet
 facet normal 0.0710868 -0.767617 0.636955
  outer loop
   vertex -0.026628 0.079188 0.032536
   vertex -0.025804 0.077428 0.030323
   vertex -0.023772 0.078904 0.031875
  endloop
 endfacet
 facet normal 0.168666 -0.815046 0.554303
  outer loop
   vertex -0.025804 0.077428 0.030323
   vertex -0.023336 0.077564 0.029772
   vertex -0.023772 0.078904 0.031875
  endloop
 endfacet
 facet normal 0.126271 -0.0917039 0.987748
  outer loop
   vertex -0.025324 0.083681 0.034979
   vertex -0.023589 0.08607 0.034979
   vertex -0.0261 0.08607 0.0353
  endloop
 endfacet
 facet normal 0.207851 -0.343516 0.915858
  outer loop
   vertex -0.024475 0.08107 0.033807
   vertex -0.022482 0.083441 0.034244
   vertex -0.025324 0.083681 0.034979
  endloop
 endfacet
 facet normal 0.286233 -0.584386 0.759318
  outer loop
   vertex -0.023772 0.078904 0.031875
   vertex -0.021628 0.080813 0.032536
   vertex -0.024475 0.08107 0.033807
  endloop
 endfacet
 facet normal 0.233325 -0.169451 0.957521
  outer loop
   vertex -0.025324 0.083681 0.034979
   vertex -0.022482 0.083441 0.034244
   vertex -0.023589 0.08607 0.034979
  endloop
 endfacet
 facet normal 0.390899 -0.0914587 0.915878
  outer loop
   vertex -0.022482 0.083441 0.034244
   vertex -0.020843 0.08607 0.033807
   vertex -0.023589 0.08607 0.034979
  endloop
 endfacet
 facet normal 0.334054 -0.43492 0.836213
  outer loop
   vertex -0.024475 0.08107 0.033807
   vertex -0.021628 0.080813 0.032536
   vertex -0.022482 0.083441 0.034244
  endloop
 endfacet
 facet normal 0.491058 -0.356895 0.794662
  outer loop
   vertex -0.021628 0.080813 0.032536
   vertex -0.019718 0.083441 0.032536
   vertex -0.022482 0.083441 0.034244
  endloop
 endfacet
 facet normal 0.516783 -0.183167 0.836293
  outer loop
   vertex -0.022482 0.083441 0.034244
   vertex -0.019718 0.083441 0.032536
   vertex -0.020843 0.08607 0.033807
  endloop
 endfacet
 facet normal 0.644269 -0.0913996 0.759317
  outer loop
   vertex -0.019718 0.083441 0.032536
   vertex -0.018566 0.08607 0.031875
   vertex -0.020843 0.08607 0.033807
  endloop
 endfacet
 facet normal 0.393627 -0.662685 0.637108
  outer loop
   vertex -0.023772 0.078904 0.031875
   vertex -0.02126 0.078904 0.030323
   vertex -0.021628 0.080813 0.032536
  endloop
 endfacet
 facet normal 0.551379 -0.584158 0.595601
  outer loop
   vertex -0.02126 0.078904 0.030323
   vertex -0.019218 0.08107 0.030557
   vertex -0.021628 0.080813 0.032536
  endloop
 endfacet
 facet normal 0.598657 -0.435097 0.672533
  outer loop
   vertex -0.021628 0.080813 0.032536
   vertex -0.019218 0.08107 0.030557
   vertex -0.019718 0.083441 0.032536
  endloop
 endfacet
 facet normal 0.725985 -0.343961 0.595514
  outer loop
   vertex -0.019218 0.08107 0.030557
   vertex -0.017789 0.083681 0.030323
   vertex -0.019718 0.083441 0.032536
  endloop
 endfacet
 facet normal 0.751958 -0.169318 0.637095
  outer loop
   vertex -0.019718 0.083441 0.032536
   vertex -0.017789 0.083681 0.030323
   vertex -0.018566 0.08607 0.031875
  endloop
 endfacet
 facet normal 0.827124 -0.091254 0.554562
  outer loop
   vertex -0.017789 0.083681 0.030323
   vertex -0.017156 0.08607 0.029772
   vertex -0.018566 0.08607 0.031875
  endloop
 endfacet
 facet normal 0.905177 0.147939 0.398459
  outer loop
   vertex -0.016534 0.087546 0.027811
   vertex -0.017789 0.088459 0.030323
   vertex -0.017156 0.08607 0.029772
  endloop
 endfacet
 facet normal 0.93657 0.303801 0.17476
  outer loop
   vertex -0.016589 0.08916 0.0253
   vertex -0.017482 0.090323 0.028064
   vertex -0.016534 0.087546 0.027811
  endloop
 endfacet
 facet normal 0.888212 0.452708 -0.078331
  outer loop
   vertex -0.017493 0.090499 0.022788
   vertex -0.01801 0.091948 0.0253
   vertex -0.016589 0.08916 0.0253
  endloop
 endfacet
 facet normal 0.89641 0.274294 0.348155
  outer loop
   vertex -0.016534 0.087546 0.027811
   vertex -0.017482 0.090323 0.028064
   vertex -0.017789 0.088459 0.030323
  endloop
 endfacet
 facet normal 0.803858 0.400541 0.439749
  outer loop
   vertex -0.017482 0.090323 0.028064
   vertex -0.019218 0.09107 0.030557
   vertex -0.017789 0.088459 0.030323
  endloop
 endfacet
 facet normal 0.886806 0.451991 0.0963284
  outer loop
   vertex -0.016589 0.08916 0.0253
   vertex -0.01801 0.091948 0.0253
   vertex -0.017482 0.090323 0.028064
  endloop
 endfacet
 facet normal 0.794662 0.577331 0.18762
  outer loop
   vertex -0.01801 0.091948 0.0253
   vertex -0.019392 0.092952 0.028064
   vertex -0.017482 0.090323 0.028064
  endloop
 endfacet
 facet normal 0.754436 0.548107 0.361117
  outer loop
   vertex -0.017482 0.090323 0.028064
   vertex -0.019392 0.092952 0.028064
   vertex -0.019218 0.09107 0.030557
  endloop
 endfacet
 facet normal 0.629279 0.640767 0.439803
  outer loop
   vertex -0.019392 0.092952 0.028064
   vertex -0.02126 0.093236 0.030323
   vertex -0.019218 0.09107 0.030557
  endloop
 endfacet
 facet normal 0.797233 0.579229 -0.170037
  outer loop
   vertex -0.017493 0.090499 0.022788
   vertex -0.019228 0.092887 0.022788
   vertex -0.01801 0.091948 0.0253
  endloop
 endfacet
 facet normal 0.704936 0.704936 -0.0782949
  outer loop
   vertex -0.019228 0.092887 0.022788
   vertex -0.020222 0.09416 0.0253
   vertex -0.01801 0.091948 0.0253
  endloop
 endfacet
 facet normal 0.703824 0.703824 0.0962537
  outer loop
   vertex -0.01801 0.091948 0.0253
   vertex -0.020222 0.09416 0.0253
   vertex -0.019392 0.092952 0.028064
  endloop
 endfacet
 facet normal 0.578519 0.796783 0.174509
  outer loop
   vertex -0.020222 0.09416 0.0253
   vertex -0.02174 0.094712 0.027812
   vertex -0.019392 0.092952 0.028064
  endloop
 endfacet
 facet normal 0.537986 0.767602 0.348366
  outer loop
   vertex -0.019392 0.092952 0.028064
   vertex -0.02174 0.094712 0.027812
   vertex -0.02126 0.093236 0.030323
  endloop
 endfacet
 facet normal 0.420269 0.815078 0.398776
  outer loop
   vertex -0.02174 0.094712 0.027812
   vertex -0.023336 0.094576 0.029772
   vertex -0.02126 0.093236 0.030323
  endloop
 endfacet
 facet normal 0.138975 0.90647 0.398746
  outer loop
   vertex -0.024548 0.095624 0.027812
   vertex -0.025804 0.094712 0.030323
   vertex -0.023336 0.094576 0.029772
  endloop
 endfacet
 facet normal 0.000555151 0.98466 0.174481
  outer loop
   vertex -0.0261 0.09607 0.0253
   vertex -0.027482 0.095581 0.028064
   vertex -0.024548 0.095624 0.027812
  endloop
 endfacet
 facet normal -0.155824 0.984657 -0.07855
  outer loop
   vertex -0.027652 0.095624 0.022788
   vertex -0.02919 0.095581 0.0253
   vertex -0.0261 0.09607 0.0253
  endloop
 endfacet
 facet normal 0.0161962 0.937175 0.348485
  outer loop
   vertex -0.024548 0.095624 0.027812
   vertex -0.027482 0.095581 0.028064
   vertex -0.025804 0.094712 0.030323
  endloop
 endfacet
 facet normal -0.132412 0.888171 0.440021
  outer loop
   vertex -0.027482 0.095581 0.028064
   vertex -0.028729 0.09416 0.030557
   vertex -0.025804 0.094712 0.030323
  endloop
 endfacet
 facet normal -0.155583 0.983133 0.0961419
  outer loop
   vertex -0.0261 0.09607 0.0253
   vertex -0.02919 0.095581 0.0253
   vertex -0.027482 0.095581 0.028064
  endloop
 endfacet
 facet normal -0.303796 0.934059 0.187729
  outer loop
   vertex -0.02919 0.095581 0.0253
   vertex -0.030572 0.094576 0.028064
   vertex -0.027482 0.095581 0.028064
  endloop
 endfacet
 facet normal -0.288415 0.886769 0.361189
  outer loop
   vertex -0.027482 0.095581 0.028064
   vertex -0.030572 0.094576 0.028064
   vertex -0.028729 0.09416 0.030557
  endloop
 endfacet
 facet normal -0.415138 0.796394 0.439791
  outer loop
   vertex -0.030572 0.094576 0.028064
   vertex -0.031419 0.092887 0.030323
   vertex -0.028729 0.09416 0.030557
  endloop
 endfacet
 facet normal -0.304389 0.937197 -0.170322
  outer loop
   vertex -0.027652 0.095624 0.022788
   vertex -0.03046 0.094712 0.022788
   vertex -0.02919 0.095581 0.0253
  endloop
 endfacet
 facet normal -0.452705 0.888208 -0.0783901
  outer loop
   vertex -0.03046 0.094712 0.022788
   vertex -0.031978 0.09416 0.0253
   vertex -0.02919 0.095581 0.0253
  endloop
 endfacet
 facet normal -0.451986 0.886796 0.0964489
  outer loop
   vertex -0.02919 0.095581 0.0253
   vertex -0.031978 0.09416 0.0253
   vertex -0.030572 0.094576 0.028064
  endloop
 endfacet
 facet normal -0.578874 0.796508 0.174584
  outer loop
   vertex -0.031978 0.09416 0.0253
   vertex -0.032972 0.092887 0.027812
   vertex -0.030572 0.094576 0.028064
  endloop
 endfacet
 facet normal -0.563623 0.748876 0.348589
  outer loop
   vertex -0.030572 0.094576 0.028064
   vertex -0.032972 0.092887 0.027812
   vertex -0.031419 0.092887 0.030323
  endloop
 endfacet
 facet normal -0.645038 0.651744 0.398942
  outer loop
   vertex -0.032972 0.092887 0.027812
   vertex -0.033336 0.091327 0.029772
   vertex -0.031419 0.092887 0.030323
  endloop
 endfacet
 facet normal -0.819189 0.412026 0.398954
  outer loop
   vertex -0.034707 0.090499 0.027812
   vertex -0.034227 0.089022 0.030323
   vertex -0.033336 0.091327 0.029772
  endloop
 endfacet
 facet normal -0.936352 0.304548 0.174631
  outer loop
   vertex -0.035611 0.08916 0.0253
   vertex -0.035572 0.087695 0.028064
   vertex -0.034707 0.090499 0.027812
  endloop
 endfacet
 facet normal -0.984653 0.155824 -0.0785916
  outer loop
   vertex -0.035666 0.087546 0.022789
   vertex -0.0361 0.08607 0.0253
   vertex -0.035611 0.08916 0.0253
  endloop
 endfacet
 facet normal -0.886309 0.304753 0.348685
  outer loop
   vertex -0.034707 0.090499 0.027812
   vertex -0.035572 0.087695 0.028064
   vertex -0.034227 0.089022 0.030323
  endloop
 endfacet
 facet normal -0.885615 0.148581 0.440011
  outer loop
   vertex -0.035572 0.087695 0.028064
   vertex -0.034606 0.08607 0.030557
   vertex -0.034227 0.089022 0.030323
  endloop
 endfacet
 facet normal -0.983115 0.15558 0.0963335
  outer loop
   vertex -0.035611 0.08916 0.0253
   vertex -0.0361 0.08607 0.0253
   vertex -0.035572 0.087695 0.028064
  endloop
 endfacet
 facet normal -0.982239 0 0.187634
  outer loop
   vertex -0.0361 0.08607 0.0253
   vertex -0.035572 0.084445 0.028064
   vertex -0.035572 0.087695 0.028064
  endloop
 endfacet
 facet normal -0.932446 0 0.361309
  outer loop
   vertex -0.035572 0.087695 0.028064
   vertex -0.035572 0.084445 0.028064
   vertex -0.034606 0.08607 0.030557
  endloop
 endfacet
 facet normal -0.885615 -0.148581 0.440011
  outer loop
   vertex -0.035572 0.084445 0.028064
   vertex -0.034227 0.083118 0.030323
   vertex -0.034606 0.08607 0.030557
  endloop
 endfacet
 facet normal -0.98539 -0 -0.170314
  outer loop
   vertex -0.035666 0.087546 0.022789
   vertex -0.035666 0.084594 0.022789
   vertex -0.0361 0.08607 0.0253
  endloop
 endfacet
 facet normal -0.984653 -0.155824 -0.0785916
  outer loop
   vertex -0.035666 0.084594 0.022789
   vertex -0.035611 0.08298 0.0253
   vertex -0.0361 0.08607 0.0253
  endloop
 endfacet
 facet normal -0.983115 -0.15558 0.0963335
  outer loop
   vertex -0.0361 0.08607 0.0253
   vertex -0.035611 0.08298 0.0253
   vertex -0.035572 0.084445 0.028064
  endloop
 endfacet
 facet normal -0.936352 -0.304548 0.174631
  outer loop
   vertex -0.035611 0.08298 0.0253
   vertex -0.034707 0.081641 0.027812
   vertex -0.035572 0.084445 0.028064
  endloop
 endfacet
 facet normal -0.886309 -0.304753 0.348685
  outer loop
   vertex -0.035572 0.084445 0.028064
   vertex -0.034707 0.081641 0.027812
   vertex -0.034227 0.083118 0.030323
  endloop
 endfacet
 facet normal -0.819189 -0.412026 0.398954
  outer loop
   vertex -0.034707 0.081641 0.027812
   vertex -0.033336 0.080813 0.029772
   vertex -0.034227 0.083118 0.030323
  endloop
 endfacet
 facet normal -0.645038 -0.651744 0.398942
  outer loop
   vertex -0.032972 0.079253 0.027812
   vertex -0.031419 0.079253 0.030323
   vertex -0.033336 0.080813 0.029772
  endloop
 endfacet
 facet normal -0.578874 -0.796508 0.174584
  outer loop
   vertex -0.031978 0.07798 0.0253
   vertex -0.030572 0.077564 0.028064
   vertex -0.032972 0.079253 0.027812
  endloop
 endfacet
 facet normal -0.452705 -0.888208 -0.0783901
  outer loop
   vertex -0.03046 0.077428 0.022788
   vertex -0.02919 0.076559 0.0253
   vertex -0.031978 0.07798 0.0253
  endloop
 endfacet
 facet normal -0.563623 -0.748876 0.348589
  outer loop
   vertex -0.032972 0.079253 0.027812
   vertex -0.030572 0.077564 0.028064
   vertex -0.031419 0.079253 0.030323
  endloop
 endfacet
 facet normal -0.415138 -0.796394 0.439791
  outer loop
   vertex -0.030572 0.077564 0.028064
   vertex -0.028729 0.07798 0.030557
   vertex -0.031419 0.079253 0.030323
  endloop
 endfacet
 facet normal -0.451986 -0.886796 0.0964489
  outer loop
   vertex -0.031978 0.07798 0.0253
   vertex -0.02919 0.076559 0.0253
   vertex -0.030572 0.077564 0.028064
  endloop
 endfacet
 facet normal -0.303796 -0.934059 0.187729
  outer loop
   vertex -0.02919 0.076559 0.0253
   vertex -0.027482 0.076559 0.028064
   vertex -0.030572 0.077564 0.028064
  endloop
 endfacet
 facet normal -0.288415 -0.886769 0.361189
  outer loop
   vertex -0.030572 0.077564 0.028064
   vertex -0.027482 0.076559 0.028064
   vertex -0.028729 0.07798 0.030557
  endloop
 endfacet
 facet normal -0.132412 -0.888171 0.440021
  outer loop
   vertex -0.027482 0.076559 0.028064
   vertex -0.025804 0.077428 0.030323
   vertex -0.028729 0.07798 0.030557
  endloop
 endfacet
 facet normal -0.304389 -0.937197 -0.170322
  outer loop
   vertex -0.03046 0.077428 0.022788
   vertex -0.027652 0.076516 0.022788
   vertex -0.02919 0.076559 0.0253
  endloop
 endfacet
 facet normal -0.155824 -0.984657 -0.07855
  outer loop
   vertex -0.027652 0.076516 0.022788
   vertex -0.0261 0.07607 0.0253
   vertex -0.02919 0.076559 0.0253
  endloop
 endfacet
 facet normal -0.155583 -0.983133 0.0961419
  outer loop
   vertex -0.02919 0.076559 0.0253
   vertex -0.0261 0.07607 0.0253
   vertex -0.027482 0.076559 0.028064
  endloop
 endfacet
 facet normal 0.000555151 -0.98466 0.174481
  outer loop
   vertex -0.0261 0.07607 0.0253
   vertex -0.024548 0.076516 0.027812
   vertex -0.027482 0.076559 0.028064
  endloop
 endfacet
 facet normal 0.0161962 -0.937175 0.348485
  outer loop
   vertex -0.027482 0.076559 0.028064
   vertex -0.024548 0.076516 0.027812
   vertex -0.025804 0.077428 0.030323
  endloop
 endfacet
 facet normal 0.138975 -0.90647 0.398746
  outer loop
   vertex -0.024548 0.076516 0.027812
   vertex -0.023336 0.077564 0.029772
   vertex -0.025804 0.077428 0.030323
  endloop
 endfacet
 facet normal 0.420269 -0.815078 0.398776
  outer loop
   vertex -0.02174 0.077428 0.027812
   vertex -0.02126 0.078904 0.030323
   vertex -0.023336 0.077564 0.029772
  endloop
 endfacet
 facet normal 0.578519 -0.796783 0.174509
  outer loop
   vertex -0.020222 0.07798 0.0253
   vertex -0.019392 0.079188 0.028064
   vertex -0.02174 0.077428 0.027812
  endloop
 endfacet
 facet normal 0.704936 -0.704936 -0.0782949
  outer loop
   vertex -0.019228 0.079253 0.022788
   vertex -0.01801 0.080192 0.0253
   vertex -0.020222 0.07798 0.0253
  endloop
 endfacet
 facet normal 0.537986 -0.767602 0.348366
  outer loop
   vertex -0.02174 0.077428 0.027812
   vertex -0.019392 0.079188 0.028064
   vertex -0.02126 0.078904 0.030323
  endloop
 endfacet
 facet normal 0.629279 -0.640767 0.439803
  outer loop
   vertex -0.019392 0.079188 0.028064
   vertex -0.019218 0.08107 0.030557
   vertex -0.02126 0.078904 0.030323
  endloop
 endfacet
 facet normal 0.703824 -0.703824 0.0962537
  outer loop
   vertex -0.020222 0.07798 0.0253
   vertex -0.01801 0.080192 0.0253
   vertex -0.019392 0.079188 0.028064
  endloop
 endfacet
 facet normal 0.794662 -0.577331 0.18762
  outer loop
   vertex -0.01801 0.080192 0.0253
   vertex -0.017482 0.081817 0.028064
   vertex -0.019392 0.079188 0.028064
  endloop
 endfacet
 facet normal 0.754436 -0.548107 0.361117
  outer loop
   vertex -0.019392 0.079188 0.028064
   vertex -0.017482 0.081817 0.028064
   vertex -0.019218 0.08107 0.030557
  endloop
 endfacet
 facet normal 0.803858 -0.400541 0.439749
  outer loop
   vertex -0.017482 0.081817 0.028064
   vertex -0.017789 0.083681 0.030323
   vertex -0.019218 0.08107 0.030557
  endloop
 endfacet
 facet normal 0.797233 -0.579229 -0.170037
  outer loop
   vertex -0.019228 0.079253 0.022788
   vertex -0.017493 0.081641 0.022788
   vertex -0.01801 0.080192 0.0253
  endloop
 endfacet
 facet normal 0.888212 -0.452708 -0.078331
  outer loop
   vertex -0.017493 0.081641 0.022788
   vertex -0.016589 0.08298 0.0253
   vertex -0.01801 0.080192 0.0253
  endloop
 endfacet
 facet normal 0.886806 -0.451991 0.0963284
  outer loop
   vertex -0.01801 0.080192 0.0253
   vertex -0.016589 0.08298 0.0253
   vertex -0.017482 0.081817 0.028064
  endloop
 endfacet
 facet normal 0.93657 -0.303801 0.17476
  outer loop
   vertex -0.016589 0.08298 0.0253
   vertex -0.016534 0.084594 0.027811
   vertex -0.017482 0.081817 0.028064
  endloop
 endfacet
 facet normal 0.89641 -0.274294 0.348155
  outer loop
   vertex -0.017482 0.081817 0.028064
   vertex -0.016534 0.084594 0.027811
   vertex -0.017789 0.083681 0.030323
  endloop
 endfacet
 facet normal 0.905177 -0.147939 0.398459
  outer loop
   vertex -0.016534 0.084594 0.027811
   vertex -0.017156 0.08607 0.029772
   vertex -0.017789 0.083681 0.030323
  endloop
 endfacet
 facet normal 0.294416 0.906493 0.302638
  outer loop
   vertex -0.02174 0.094712 0.027812
   vertex -0.024548 0.095624 0.027812
   vertex -0.023336 0.094576 0.029772
  endloop
 endfacet
 facet normal 0.452705 0.888208 0.0783901
  outer loop
   vertex -0.020222 0.09416 0.0253
   vertex -0.02301 0.095581 0.0253
   vertex -0.02174 0.094712 0.027812
  endloop
 endfacet
 facet normal 0.578874 0.796508 -0.174584
  outer loop
   vertex -0.019228 0.092887 0.022788
   vertex -0.021628 0.094576 0.022536
   vertex -0.020222 0.09416 0.0253
  endloop
 endfacet
 facet normal 0.304389 0.937197 0.170322
  outer loop
   vertex -0.02174 0.094712 0.027812
   vertex -0.02301 0.095581 0.0253
   vertex -0.024548 0.095624 0.027812
  endloop
 endfacet
 facet normal 0.155824 0.984657 0.07855
  outer loop
   vertex -0.02301 0.095581 0.0253
   vertex -0.0261 0.09607 0.0253
   vertex -0.024548 0.095624 0.027812
  endloop
 endfacet
 facet normal 0.451986 0.886796 -0.0964489
  outer loop
   vertex -0.020222 0.09416 0.0253
   vertex -0.021628 0.094576 0.022536
   vertex -0.02301 0.095581 0.0253
  endloop
 endfacet
 facet normal 0.303796 0.934059 -0.187729
  outer loop
   vertex -0.021628 0.094576 0.022536
   vertex -0.024718 0.095581 0.022536
   vertex -0.02301 0.095581 0.0253
  endloop
 endfacet
 facet normal 0.155583 0.983133 -0.0961419
  outer loop
   vertex -0.02301 0.095581 0.0253
   vertex -0.024718 0.095581 0.022536
   vertex -0.0261 0.09607 0.0253
  endloop
 endfacet
 facet normal -0.000555151 0.98466 -0.174481
  outer loop
   vertex -0.024718 0.095581 0.022536
   vertex -0.027652 0.095624 0.022788
   vertex -0.0261 0.09607 0.0253
  endloop
 endfacet
 facet normal 0.563623 0.748876 -0.348589
  outer loop
   vertex -0.019228 0.092887 0.022788
   vertex -0.020781 0.092887 0.020277
   vertex -0.021628 0.094576 0.022536
  endloop
 endfacet
 facet normal 0.415138 0.796394 -0.439791
  outer loop
   vertex -0.020781 0.092887 0.020277
   vertex -0.023471 0.09416 0.020043
   vertex -0.021628 0.094576 0.022536
  endloop
 endfacet
 facet normal 0.288415 0.886769 -0.361189
  outer loop
   vertex -0.021628 0.094576 0.022536
   vertex -0.023471 0.09416 0.020043
   vertex -0.024718 0.095581 0.022536
  endloop
 endfacet
 facet normal 0.132412 0.888171 -0.440021
  outer loop
   vertex -0.023471 0.09416 0.020043
   vertex -0.026396 0.094712 0.020277
   vertex -0.024718 0.095581 0.022536
  endloop
 endfacet
 facet normal -0.0161962 0.937175 -0.348485
  outer loop
   vertex -0.024718 0.095581 0.022536
   vertex -0.026396 0.094712 0.020277
   vertex -0.027652 0.095624 0.022788
  endloop
 endfacet
 facet normal -0.138975 0.90647 -0.398746
  outer loop
   vertex -0.026396 0.094712 0.020277
   vertex -0.028864 0.094576 0.020828
   vertex -0.027652 0.095624 0.022788
  endloop
 endfacet
 facet normal -0.771063 0.560215 0.302688
  outer loop
   vertex -0.032972 0.092887 0.027812
   vertex -0.034707 0.090499 0.027812
   vertex -0.033336 0.091327 0.029772
  endloop
 endfacet
 facet normal -0.704936 0.704936 0.0782949
  outer loop
   vertex -0.031978 0.09416 0.0253
   vertex -0.03419 0.091948 0.0253
   vertex -0.032972 0.092887 0.027812
  endloop
 endfacet
 facet normal -0.578519 0.796783 -0.174509
  outer loop
   vertex -0.03046 0.094712 0.022788
   vertex -0.032808 0.092952 0.022536
   vertex -0.031978 0.09416 0.0253
  endloop
 endfacet
 facet normal -0.797233 0.579229 0.170037
  outer loop
   vertex -0.032972 0.092887 0.027812
   vertex -0.03419 0.091948 0.0253
   vertex -0.034707 0.090499 0.027812
  endloop
 endfacet
 facet normal -0.888212 0.452708 0.078331
  outer loop
   vertex -0.03419 0.091948 0.0253
   vertex -0.035611 0.08916 0.0253
   vertex -0.034707 0.090499 0.027812
  endloop
 endfacet
 facet normal -0.703824 0.703824 -0.0962537
  outer loop
   vertex -0.031978 0.09416 0.0253
   vertex -0.032808 0.092952 0.022536
   vertex -0.03419 0.091948 0.0253
  endloop
 endfacet
 facet normal -0.794662 0.577331 -0.18762
  outer loop
   vertex -0.032808 0.092952 0.022536
   vertex -0.034718 0.090323 0.022536
   vertex -0.03419 0.091948 0.0253
  endloop
 endfacet
 facet normal -0.886806 0.451991 -0.0963284
  outer loop
   vertex -0.03419 0.091948 0.0253
   vertex -0.034718 0.090323 0.022536
   vertex -0.035611 0.08916 0.0253
  endloop
 endfacet
 facet normal -0.93657 0.303801 -0.17476
  outer loop
   vertex -0.034718 0.090323 0.022536
   vertex -0.035666 0.087546 0.022789
   vertex -0.035611 0.08916 0.0253
  endloop
 endfacet
 facet normal -0.537986 0.767602 -0.348366
  outer loop
   vertex -0.03046 0.094712 0.022788
   vertex -0.03094 0.093236 0.020277
   vertex -0.032808 0.092952 0.022536
  endloop
 endfacet
 facet normal -0.629279 0.640767 -0.439803
  outer loop
   vertex -0.03094 0.093236 0.020277
   vertex -0.032982 0.09107 0.020043
   vertex -0.032808 0.092952 0.022536
  endloop
 endfacet
 facet normal -0.754436 0.548107 -0.361117
  outer loop
   vertex -0.032808 0.092952 0.022536
   vertex -0.032982 0.09107 0.020043
   vertex -0.034718 0.090323 0.022536
  endloop
 endfacet
 facet normal -0.803858 0.400541 -0.439749
  outer loop
   vertex -0.032982 0.09107 0.020043
   vertex -0.034411 0.088459 0.020277
   vertex -0.034718 0.090323 0.022536
  endloop
 endfacet
 facet normal -0.89641 0.274294 -0.348155
  outer loop
   vertex -0.034718 0.090323 0.022536
   vertex -0.034411 0.088459 0.020277
   vertex -0.035666 0.087546 0.022789
  endloop
 endfacet
 facet normal -0.905177 0.147939 -0.398459
  outer loop
   vertex -0.034411 0.088459 0.020277
   vertex -0.035044 0.08607 0.020828
   vertex -0.035666 0.087546 0.022789
  endloop
 endfacet
 facet normal -0.771063 -0.560215 0.302688
  outer loop
   vertex -0.034707 0.081641 0.027812
   vertex -0.032972 0.079253 0.027812
   vertex -0.033336 0.080813 0.029772
  endloop
 endfacet
 facet normal -0.888212 -0.452708 0.078331
  outer loop
   vertex -0.035611 0.08298 0.0253
   vertex -0.03419 0.080192 0.0253
   vertex -0.034707 0.081641 0.027812
  endloop
 endfacet
 facet normal -0.93657 -0.303801 -0.17476
  outer loop
   vertex -0.035666 0.084594 0.022789
   vertex -0.034718 0.081817 0.022536
   vertex -0.035611 0.08298 0.0253
  endloop
 endfacet
 facet normal -0.797233 -0.579229 0.170037
  outer loop
   vertex -0.034707 0.081641 0.027812
   vertex -0.03419 0.080192 0.0253
   vertex -0.032972 0.079253 0.027812
  endloop
 endfacet
 facet normal -0.704936 -0.704936 0.0782949
  outer loop
   vertex -0.03419 0.080192 0.0253
   vertex -0.031978 0.07798 0.0253
   vertex -0.032972 0.079253 0.027812
  endloop
 endfacet
 facet normal -0.886806 -0.451991 -0.0963284
  outer loop
   vertex -0.035611 0.08298 0.0253
   vertex -0.034718 0.081817 0.022536
   vertex -0.03419 0.080192 0.0253
  endloop
 endfacet
 facet normal -0.794662 -0.577331 -0.18762
  outer loop
   vertex -0.034718 0.081817 0.022536
   vertex -0.032808 0.079188 0.022536
   vertex -0.03419 0.080192 0.0253
  endloop
 endfacet
 facet normal -0.703824 -0.703824 -0.0962537
  outer loop
   vertex -0.03419 0.080192 0.0253
   vertex -0.032808 0.079188 0.022536
   vertex -0.031978 0.07798 0.0253
  endloop
 endfacet
 facet normal -0.578519 -0.796783 -0.174509
  outer loop
   vertex -0.032808 0.079188 0.022536
   vertex -0.03046 0.077428 0.022788
   vertex -0.031978 0.07798 0.0253
  endloop
 endfacet
 facet normal -0.89641 -0.274294 -0.348155
  outer loop
   vertex -0.035666 0.084594 0.022789
   vertex -0.034411 0.083681 0.020277
   vertex -0.034718 0.081817 0.022536
  endloop
 endfacet
 facet normal -0.803858 -0.400541 -0.439749
  outer loop
   vertex -0.034411 0.083681 0.020277
   vertex -0.032982 0.08107 0.020043
   vertex -0.034718 0.081817 0.022536
  endloop
 endfacet
 facet normal -0.754436 -0.548107 -0.361117
  outer loop
   vertex -0.034718 0.081817 0.022536
   vertex -0.032982 0.08107 0.020043
   vertex -0.032808 0.079188 0.022536
  endloop
 endfacet
 facet normal -0.629279 -0.640767 -0.439803
  outer loop
   vertex -0.032982 0.08107 0.020043
   vertex -0.03094 0.078904 0.020277
   vertex -0.032808 0.079188 0.022536
  endloop
 endfacet
 facet normal -0.537986 -0.767602 -0.348366
  outer loop
   vertex -0.032808 0.079188 0.022536
   vertex -0.03094 0.078904 0.020277
   vertex -0.03046 0.077428 0.022788
  endloop
 endfacet
 facet normal -0.420269 -0.815078 -0.398776
  outer loop
   vertex -0.03094 0.078904 0.020277
   vertex -0.028864 0.077564 0.020828
   vertex -0.03046 0.077428 0.022788
  endloop
 endfacet
 facet normal 0.294416 -0.906493 0.302638
  outer loop
   vertex -0.024548 0.076516 0.027812
   vertex -0.02174 0.077428 0.027812
   vertex -0.023336 0.077564 0.029772
  endloop
 endfacet
 facet normal 0.155824 -0.984657 0.07855
  outer loop
   vertex -0.0261 0.07607 0.0253
   vertex -0.02301 0.076559 0.0253
   vertex -0.024548 0.076516 0.027812
  endloop
 endfacet
 facet normal -0.000555151 -0.98466 -0.174481
  outer loop
   vertex -0.027652 0.076516 0.022788
   vertex -0.024718 0.076559 0.022536
   vertex -0.0261 0.07607 0.0253
  endloop
 endfacet
 facet normal 0.304389 -0.937197 0.170322
  outer loop
   vertex -0.024548 0.076516 0.027812
   vertex -0.02301 0.076559 0.0253
   vertex -0.02174 0.077428 0.027812
  endloop
 endfacet
 facet normal 0.452705 -0.888208 0.0783901
  outer loop
   vertex -0.02301 0.076559 0.0253
   vertex -0.020222 0.07798 0.0253
   vertex -0.02174 0.077428 0.027812
  endloop
 endfacet
 facet normal 0.155583 -0.983133 -0.0961419
  outer loop
   vertex -0.0261 0.07607 0.0253
   vertex -0.024718 0.076559 0.022536
   vertex -0.02301 0.076559 0.0253
  endloop
 endfacet
 facet normal 0.303796 -0.934059 -0.187729
  outer loop
   vertex -0.024718 0.076559 0.022536
   vertex -0.021628 0.077564 0.022536
   vertex -0.02301 0.076559 0.0253
  endloop
 endfacet
 facet normal 0.451986 -0.886796 -0.0964489
  outer loop
   vertex -0.02301 0.076559 0.0253
   vertex -0.021628 0.077564 0.022536
   vertex -0.020222 0.07798 0.0253
  endloop
 endfacet
 facet normal 0.578874 -0.796508 -0.174584
  outer loop
   vertex -0.021628 0.077564 0.022536
   vertex -0.019228 0.079253 0.022788
   vertex -0.020222 0.07798 0.0253
  endloop
 endfacet
 facet normal -0.0161962 -0.937175 -0.348485
  outer loop
   vertex -0.027652 0.076516 0.022788
   vertex -0.026396 0.077428 0.020277
   vertex -0.024718 0.076559 0.022536
  endloop
 endfacet
 facet normal 0.132412 -0.888171 -0.440021
  outer loop
   vertex -0.026396 0.077428 0.020277
   vertex -0.023471 0.07798 0.020043
   vertex -0.024718 0.076559 0.022536
  endloop
 endfacet
 facet normal 0.288415 -0.886769 -0.361189
  outer loop
   vertex -0.024718 0.076559 0.022536
   vertex -0.023471 0.07798 0.020043
   vertex -0.021628 0.077564 0.022536
  endloop
 endfacet
 facet normal 0.415138 -0.796394 -0.439791
  outer loop
   vertex -0.023471 0.07798 0.020043
   vertex -0.020781 0.079253 0.020277
   vertex -0.021628 0.077564 0.022536
  endloop
 endfacet
 facet normal 0.563623 -0.748876 -0.348589
  outer loop
   vertex -0.021628 0.077564 0.022536
   vertex -0.020781 0.079253 0.020277
   vertex -0.019228 0.079253 0.022788
  endloop
 endfacet
 facet normal 0.645038 -0.651744 -0.398942
  outer loop
   vertex -0.020781 0.079253 0.020277
   vertex -0.018864 0.080813 0.020828
   vertex -0.019228 0.079253 0.022788
  endloop
 endfacet
 facet normal 0.9532 -0 0.302341
  outer loop
   vertex -0.016534 0.084594 0.027811
   vertex -0.016534 0.087546 0.027811
   vertex -0.017156 0.08607 0.029772
  endloop
 endfacet
 facet normal 0.984653 -0.155824 0.0785916
  outer loop
   vertex -0.016589 0.08298 0.0253
   vertex -0.0161 0.08607 0.0253
   vertex -0.016534 0.084594 0.027811
  endloop
 endfacet
 facet normal 0.936352 -0.304548 -0.174631
  outer loop
   vertex -0.017493 0.081641 0.022788
   vertex -0.016628 0.084445 0.022536
   vertex -0.016589 0.08298 0.0253
  endloop
 endfacet
 facet normal 0.98539 -0 0.170314
  outer loop
   vertex -0.016534 0.084594 0.027811
   vertex -0.0161 0.08607 0.0253
   vertex -0.016534 0.087546 0.027811
  endloop
 endfacet
 facet normal 0.984653 0.155824 0.0785916
  outer loop
   vertex -0.0161 0.08607 0.0253
   vertex -0.016589 0.08916 0.0253
   vertex -0.016534 0.087546 0.027811
  endloop
 endfacet
 facet normal 0.983115 -0.15558 -0.0963335
  outer loop
   vertex -0.016589 0.08298 0.0253
   vertex -0.016628 0.084445 0.022536
   vertex -0.0161 0.08607 0.0253
  endloop
 endfacet
 facet normal 0.982239 0 -0.187634
  outer loop
   vertex -0.016628 0.084445 0.022536
   vertex -0.016628 0.087695 0.022536
   vertex -0.0161 0.08607 0.0253
  endloop
 endfacet
 facet normal 0.983115 0.15558 -0.0963335
  outer loop
   vertex -0.0161 0.08607 0.0253
   vertex -0.016628 0.087695 0.022536
   vertex -0.016589 0.08916 0.0253
  endloop
 endfacet
 facet normal 0.936352 0.304548 -0.174631
  outer loop
   vertex -0.016628 0.087695 0.022536
   vertex -0.017493 0.090499 0.022788
   vertex -0.016589 0.08916 0.0253
  endloop
 endfacet
 facet normal 0.886309 -0.304753 -0.348685
  outer loop
   vertex -0.017493 0.081641 0.022788
   vertex -0.017973 0.083118 0.020277
   vertex -0.016628 0.084445 0.022536
  endloop
 endfacet
 facet normal 0.885615 -0.148581 -0.440011
  outer loop
   vertex -0.017973 0.083118 0.020277
   vertex -0.017594 0.08607 0.020043
   vertex -0.016628 0.084445 0.022536
  endloop
 endfacet
 facet normal 0.932446 0 -0.361309
  outer loop
   vertex -0.016628 0.084445 0.022536
   vertex -0.017594 0.08607 0.020043
   vertex -0.016628 0.087695 0.022536
  endloop
 endfacet
 facet normal 0.885615 0.148581 -0.440011
  outer loop
   vertex -0.017594 0.08607 0.020043
   vertex -0.017973 0.089022 0.020277
   vertex -0.016628 0.087695 0.022536
  endloop
 endfacet
 facet normal 0.886309 0.304753 -0.348685
  outer loop
   vertex -0.016628 0.087695 0.022536
   vertex -0.017973 0.089022 0.020277
   vertex -0.017493 0.090499 0.022788
  endloop
 endfacet
 facet normal 0.819189 0.412026 -0.398954
  outer loop
   vertex -0.017973 0.089022 0.020277
   vertex -0.018864 0.091327 0.020828
   vertex -0.017493 0.090499 0.022788
  endloop
 endfacet
 facet normal 0.61533 0.560308 -0.554459
  outer loop
   vertex -0.020005 0.090499 0.018725
   vertex -0.020781 0.092887 0.020277
   vertex -0.018864 0.091327 0.020828
  endloop
 endfacet
 facet normal 0.467426 0.452641 -0.759361
  outer loop
   vertex -0.021847 0.08916 0.016793
   vertex -0.022482 0.091948 0.018064
   vertex -0.020005 0.090499 0.018725
  endloop
 endfacet
 facet normal 0.262485 0.303841 -0.915851
  outer loop
   vertex -0.024068 0.087546 0.015621
   vertex -0.024718 0.090323 0.016356
   vertex -0.021847 0.08916 0.016793
  endloop
 endfacet
 facet normal 0.508799 0.579247 -0.636864
  outer loop
   vertex -0.020005 0.090499 0.018725
   vertex -0.022482 0.091948 0.018064
   vertex -0.020781 0.092887 0.020277
  endloop
 endfacet
 facet normal 0.38541 0.704977 -0.595371
  outer loop
   vertex -0.022482 0.091948 0.018064
   vertex -0.023471 0.09416 0.020043
   vertex -0.020781 0.092887 0.020277
  endloop
 endfacet
 facet normal 0.310374 0.451949 -0.836307
  outer loop
   vertex -0.021847 0.08916 0.016793
   vertex -0.024718 0.090323 0.016356
   vertex -0.022482 0.091948 0.018064
  endloop
 endfacet
 facet normal 0.187559 0.577248 -0.794737
  outer loop
   vertex -0.024718 0.090323 0.016356
   vertex -0.025572 0.092952 0.018064
   vertex -0.022482 0.091948 0.018064
  endloop
 endfacet
 facet normal 0.228709 0.703897 -0.672474
  outer loop
   vertex -0.022482 0.091948 0.018064
   vertex -0.025572 0.092952 0.018064
   vertex -0.023471 0.09416 0.020043
  endloop
 endfacet
 facet normal 0.102735 0.796801 -0.595444
  outer loop
   vertex -0.025572 0.092952 0.018064
   vertex -0.026396 0.094712 0.020277
   vertex -0.023471 0.09416 0.020043
  endloop
 endfacet
 facet normal 0.0891868 0.274301 -0.957499
  outer loop
   vertex -0.024068 0.087546 0.015621
   vertex -0.026876 0.088459 0.015621
   vertex -0.024718 0.090323 0.016356
  endloop
 endfacet
 facet normal -0.0336945 0.400135 -0.915836
  outer loop
   vertex -0.026876 0.088459 0.015621
   vertex -0.027725 0.09107 0.016793
   vertex -0.024718 0.090323 0.016356
  endloop
 endfacet
 facet normal 0.0146149 0.548074 -0.836302
  outer loop
   vertex -0.024718 0.090323 0.016356
   vertex -0.027725 0.09107 0.016793
   vertex -0.025572 0.092952 0.018064
  endloop
 endfacet
 facet normal -0.112009 0.640965 -0.759354
  outer loop
   vertex -0.027725 0.09107 0.016793
   vertex -0.028428 0.093236 0.018725
   vertex -0.025572 0.092952 0.018064
  endloop
 endfacet
 facet normal -0.0710868 0.767617 -0.636955
  outer loop
   vertex -0.025572 0.092952 0.018064
   vertex -0.028428 0.093236 0.018725
   vertex -0.026396 0.094712 0.020277
  endloop
 endfacet
 facet normal -0.168666 0.815046 -0.554303
  outer loop
   vertex -0.028428 0.093236 0.018725
   vertex -0.028864 0.094576 0.020828
   vertex -0.026396 0.094712 0.020277
  endloop
 endfacet
 facet normal -0.342493 0.758552 -0.554344
  outer loop
   vertex -0.028428 0.093236 0.018725
   vertex -0.03094 0.093236 0.020277
   vertex -0.028864 0.094576 0.020828
  endloop
 endfacet
 facet normal -0.286233 0.584386 -0.759318
  outer loop
   vertex -0.027725 0.09107 0.016793
   vertex -0.030572 0.091327 0.018064
   vertex -0.028428 0.093236 0.018725
  endloop
 endfacet
 facet normal -0.207851 0.343516 -0.915858
  outer loop
   vertex -0.026876 0.088459 0.015621
   vertex -0.029718 0.088699 0.016356
   vertex -0.027725 0.09107 0.016793
  endloop
 endfacet
 facet normal -0.393627 0.662685 -0.637108
  outer loop
   vertex -0.028428 0.093236 0.018725
   vertex -0.030572 0.091327 0.018064
   vertex -0.03094 0.093236 0.020277
  endloop
 endfacet
 facet normal -0.551379 0.584158 -0.595601
  outer loop
   vertex -0.030572 0.091327 0.018064
   vertex -0.032982 0.09107 0.020043
   vertex -0.03094 0.093236 0.020277
  endloop
 endfacet
 facet normal -0.334054 0.43492 -0.836213
  outer loop
   vertex -0.027725 0.09107 0.016793
   vertex -0.029718 0.088699 0.016356
   vertex -0.030572 0.091327 0.018064
  endloop
 endfacet
 facet normal -0.491058 0.356895 -0.794662
  outer loop
   vertex -0.029718 0.088699 0.016356
   vertex -0.032482 0.088699 0.018064
   vertex -0.030572 0.091327 0.018064
  endloop
 endfacet
 facet normal -0.598657 0.435097 -0.672533
  outer loop
   vertex -0.030572 0.091327 0.018064
   vertex -0.032482 0.088699 0.018064
   vertex -0.032982 0.09107 0.020043
  endloop
 endfacet
 facet normal -0.725985 0.343961 -0.595514
  outer loop
   vertex -0.032482 0.088699 0.018064
   vertex -0.034411 0.088459 0.020277
   vertex -0.032982 0.09107 0.020043
  endloop
 endfacet
 facet normal -0.233325 0.169451 -0.957521
  outer loop
   vertex -0.026876 0.088459 0.015621
   vertex -0.028611 0.08607 0.015621
   vertex -0.029718 0.088699 0.016356
  endloop
 endfacet
 facet normal -0.390899 0.0914587 -0.915878
  outer loop
   vertex -0.028611 0.08607 0.015621
   vertex -0.031357 0.08607 0.016793
   vertex -0.029718 0.088699 0.016356
  endloop
 endfacet
 facet normal -0.516783 0.183167 -0.836293
  outer loop
   vertex -0.029718 0.088699 0.016356
   vertex -0.031357 0.08607 0.016793
   vertex -0.032482 0.088699 0.018064
  endloop
 endfacet
 facet normal -0.644269 0.0913996 -0.759317
  outer loop
   vertex -0.031357 0.08607 0.016793
   vertex -0.033634 0.08607 0.018725
   vertex -0.032482 0.088699 0.018064
  endloop
 endfacet
 facet normal -0.751958 0.169318 -0.637095
  outer loop
   vertex -0.032482 0.088699 0.018064
   vertex -0.033634 0.08607 0.018725
   vertex -0.034411 0.088459 0.020277
  endloop
 endfacet
 facet normal -0.827124 0.091254 -0.554562
  outer loop
   vertex -0.033634 0.08607 0.018725
   vertex -0.035044 0.08607 0.020828
   vertex -0.034411 0.088459 0.020277
  endloop
 endfacet
 facet normal -0.827124 -0.091254 -0.554562
  outer loop
   vertex -0.033634 0.08607 0.018725
   vertex -0.034411 0.083681 0.020277
   vertex -0.035044 0.08607 0.020828
  endloop
 endfacet
 facet normal -0.644269 -0.0913996 -0.759317
  outer loop
   vertex -0.031357 0.08607 0.016793
   vertex -0.032482 0.083441 0.018064
   vertex -0.033634 0.08607 0.018725
  endloop
 endfacet
 facet normal -0.390899 -0.0914587 -0.915878
  outer loop
   vertex -0.028611 0.08607 0.015621
   vertex -0.029718 0.083441 0.016356
   vertex -0.031357 0.08607 0.016793
  endloop
 endfacet
 facet normal -0.751958 -0.169318 -0.637095
  outer loop
   vertex -0.033634 0.08607 0.018725
   vertex -0.032482 0.083441 0.018064
   vertex -0.034411 0.083681 0.020277
  endloop
 endfacet
 facet normal -0.725985 -0.343961 -0.595514
  outer loop
   vertex -0.032482 0.083441 0.018064
   vertex -0.032982 0.08107 0.020043
   vertex -0.034411 0.083681 0.020277
  endloop
 endfacet
 facet normal -0.516783 -0.183167 -0.836293
  outer loop
   vertex -0.031357 0.08607 0.016793
   vertex -0.029718 0.083441 0.016356
   vertex -0.032482 0.083441 0.018064
  endloop
 endfacet
 facet normal -0.491058 -0.356895 -0.794662
  outer loop
   vertex -0.029718 0.083441 0.016356
   vertex -0.030572 0.080813 0.018064
   vertex -0.032482 0.083441 0.018064
  endloop
 endfacet
 facet normal -0.598657 -0.435097 -0.672533
  outer loop
   vertex -0.032482 0.083441 0.018064
   vertex -0.030572 0.080813 0.018064
   vertex -0.032982 0.08107 0.020043
  endloop
 endfacet
 facet normal -0.551379 -0.584158 -0.595601
  outer loop
   vertex -0.030572 0.080813 0.018064
   vertex -0.03094 0.078904 0.020277
   vertex -0.032982 0.08107 0.020043
  endloop
 endfacet
 facet normal -0.233325 -0.169451 -0.957521
  outer loop
   vertex -0.028611 0.08607 0.015621
   vertex -0.026876 0.083681 0.015621
   vertex -0.029718 0.083441 0.016356
  endloop
 endfacet
 facet normal -0.207851 -0.343516 -0.915858
  outer loop
   vertex -0.026876 0.083681 0.015621
   vertex -0.027725 0.08107 0.016793
   vertex -0.029718 0.083441 0.016356
  endloop
 endfacet
 facet normal -0.334054 -0.43492 -0.836213
  outer loop
   vertex -0.029718 0.083441 0.016356
   vertex -0.027725 0.08107 0.016793
   vertex -0.030572 0.080813 0.018064
  endloop
 endfacet
 facet normal -0.286233 -0.584386 -0.759318
  outer loop
   vertex -0.027725 0.08107 0.016793
   vertex -0.028428 0.078904 0.018725
   vertex -0.030572 0.080813 0.018064
  endloop
 endfacet
 facet normal -0.393627 -0.662685 -0.637108
  outer loop
   vertex -0.030572 0.080813 0.018064
   vertex -0.028428 0.078904 0.018725
   vertex -0.03094 0.078904 0.020277
  endloop
 endfacet
 facet normal -0.342493 -0.758552 -0.554344
  outer loop
   vertex -0.028428 0.078904 0.018725
   vertex -0.028864 0.077564 0.020828
   vertex -0.03094 0.078904 0.020277
  endloop
 endfacet
 facet normal 0.723015 0.412034 -0.554506
  outer loop
   vertex -0.017973 0.089022 0.020277
   vertex -0.020005 0.090499 0.018725
   vertex -0.018864 0.091327 0.020828
  endloop
 endfacet
 facet normal 0.789589 0.148568 -0.59538
  outer loop
   vertex -0.017594 0.08607 0.020043
   vertex -0.019392 0.087695 0.018064
   vertex -0.017973 0.089022 0.020277
  endloop
 endfacet
 facet normal 0.789589 -0.148568 -0.59538
  outer loop
   vertex -0.017973 0.083118 0.020277
   vertex -0.019392 0.084445 0.018064
   vertex -0.017594 0.08607 0.020043
  endloop
 endfacet
 facet normal 0.708089 0.304936 -0.636886
  outer loop
   vertex -0.017973 0.089022 0.020277
   vertex -0.019392 0.087695 0.018064
   vertex -0.020005 0.090499 0.018725
  endloop
 endfacet
 facet normal 0.574948 0.304695 -0.759339
  outer loop
   vertex -0.019392 0.087695 0.018064
   vertex -0.021847 0.08916 0.016793
   vertex -0.020005 0.090499 0.018725
  endloop
 endfacet
 facet normal 0.740143 0 -0.672449
  outer loop
   vertex -0.017594 0.08607 0.020043
   vertex -0.019392 0.084445 0.018064
   vertex -0.019392 0.087695 0.018064
  endloop
 endfacet
 facet normal 0.607028 0 -0.794681
  outer loop
   vertex -0.019392 0.084445 0.018064
   vertex -0.021628 0.08607 0.016356
   vertex -0.019392 0.087695 0.018064
  endloop
 endfacet
 facet normal 0.525774 0.155534 -0.836284
  outer loop
   vertex -0.019392 0.087695 0.018064
   vertex -0.021628 0.08607 0.016356
   vertex -0.021847 0.08916 0.016793
  endloop
 endfacet
 facet normal 0.370096 0.155752 -0.915844
  outer loop
   vertex -0.021628 0.08607 0.016356
   vertex -0.024068 0.087546 0.015621
   vertex -0.021847 0.08916 0.016793
  endloop
 endfacet
 facet normal 0.708089 -0.304936 -0.636886
  outer loop
   vertex -0.017973 0.083118 0.020277
   vertex -0.020005 0.081641 0.018725
   vertex -0.019392 0.084445 0.018064
  endloop
 endfacet
 facet normal 0.574948 -0.304695 -0.759339
  outer loop
   vertex -0.020005 0.081641 0.018725
   vertex -0.021847 0.08298 0.016793
   vertex -0.019392 0.084445 0.018064
  endloop
 endfacet
 facet normal 0.525774 -0.155534 -0.836284
  outer loop
   vertex -0.019392 0.084445 0.018064
   vertex -0.021847 0.08298 0.016793
   vertex -0.021628 0.08607 0.016356
  endloop
 endfacet
 facet normal 0.370096 -0.155752 -0.915844
  outer loop
   vertex -0.021847 0.08298 0.016793
   vertex -0.024068 0.084594 0.015621
   vertex -0.021628 0.08607 0.016356
  endloop
 endfacet
 facet normal 0.288428 0 -0.957502
  outer loop
   vertex -0.021628 0.08607 0.016356
   vertex -0.024068 0.084594 0.015621
   vertex -0.024068 0.087546 0.015621
  endloop
 endfacet
 facet normal 0.156037 0 -0.987751
  outer loop
   vertex -0.024068 0.084594 0.015621
   vertex -0.0261 0.08607 0.0153
   vertex -0.024068 0.087546 0.015621
  endloop
 endfacet
 facet normal -0.168666 -0.815046 -0.554303
  outer loop
   vertex -0.028428 0.078904 0.018725
   vertex -0.026396 0.077428 0.020277
   vertex -0.028864 0.077564 0.020828
  endloop
 endfacet
 facet normal -0.112009 -0.640965 -0.759354
  outer loop
   vertex -0.027725 0.08107 0.016793
   vertex -0.025572 0.079188 0.018064
   vertex -0.028428 0.078904 0.018725
  endloop
 endfacet
 facet normal -0.0336945 -0.400135 -0.915836
  outer loop
   vertex -0.026876 0.083681 0.015621
   vertex -0.024718 0.081817 0.016356
   vertex -0.027725 0.08107 0.016793
  endloop
 endfacet
 facet normal -0.0710868 -0.767617 -0.636955
  outer loop
   vertex -0.028428 0.078904 0.018725
   vertex -0.025572 0.079188 0.018064
   vertex -0.026396 0.077428 0.020277
  endloop
 endfacet
 facet normal 0.102735 -0.796801 -0.595444
  outer loop
   vertex -0.025572 0.079188 0.018064
   vertex -0.023471 0.07798 0.020043
   vertex -0.026396 0.077428 0.020277
  endloop
 endfacet
 facet normal 0.0146149 -0.548074 -0.836302
  outer loop
   vertex -0.027725 0.08107 0.016793
   vertex -0.024718 0.081817 0.016356
   vertex -0.025572 0.079188 0.018064
  endloop
 endfacet
 facet normal 0.187559 -0.577248 -0.794737
  outer loop
   vertex -0.024718 0.081817 0.016356
   vertex -0.022482 0.080192 0.018064
   vertex -0.025572 0.079188 0.018064
  endloop
 endfacet
 facet normal 0.228709 -0.703897 -0.672474
  outer loop
   vertex -0.025572 0.079188 0.018064
   vertex -0.022482 0.080192 0.018064
   vertex -0.023471 0.07798 0.020043
  endloop
 endfacet
 facet normal 0.38541 -0.704977 -0.595371
  outer loop
   vertex -0.022482 0.080192 0.018064
   vertex -0.020781 0.079253 0.020277
   vertex -0.023471 0.07798 0.020043
  endloop
 endfacet
 facet normal 0.0891868 -0.274301 -0.957499
  outer loop
   vertex -0.026876 0.083681 0.015621
   vertex -0.024068 0.084594 0.015621
   vertex -0.024718 0.081817 0.016356
  endloop
 endfacet
 facet normal 0.262485 -0.303841 -0.915851
  outer loop
   vertex -0.024068 0.084594 0.015621
   vertex -0.021847 0.08298 0.016793
   vertex -0.024718 0.081817 0.016356
  endloop
 endfacet
 facet normal 0.310374 -0.451949 -0.836307
  outer loop
   vertex -0.024718 0.081817 0.016356
   vertex -0.021847 0.08298 0.016793
   vertex -0.022482 0.080192 0.018064
  endloop
 endfacet
 facet normal 0.467426 -0.452641 -0.759361
  outer loop
   vertex -0.021847 0.08298 0.016793
   vertex -0.020005 0.081641 0.018725
   vertex -0.022482 0.080192 0.018064
  endloop
 endfacet
 facet normal 0.508799 -0.579247 -0.636864
  outer loop
   vertex -0.022482 0.080192 0.018064
   vertex -0.020005 0.081641 0.018725
   vertex -0.020781 0.079253 0.020277
  endloop
 endfacet
 facet normal 0.61533 -0.560308 -0.554459
  outer loop
   vertex -0.020005 0.081641 0.018725
   vertex -0.018864 0.080813 0.020828
   vertex -0.020781 0.079253 0.020277
  endloop
 endfacet
endsolid ExportedfromBlender-3.5.1
