solid ExportedfromBlender-3.5.1
 facet normal 0.0482486 -0.148392 -0.987751
  outer loop
   vertex -0.00229 0.11634 -0.01048
   vertex -0.000258 0.114864 -0.010159
   vertex -0.003066 0.113951 -0.010159
  endloop
 endfacet
 facet normal 0.723015 -0.412034 -0.554506
  outer loop
   vertex 0.004946 0.111083 -0.004952
   vertex 0.003805 0.111911 -0.007055
   vertex 0.005837 0.113388 -0.005503
  endloop
 endfacet
 facet normal -0.126271 -0.0917039 -0.987748
  outer loop
   vertex -0.00229 0.11634 -0.01048
   vertex -0.003066 0.113951 -0.010159
   vertex -0.004801 0.11634 -0.010159
  endloop
 endfacet
 facet normal -0.126271 0.0917039 -0.987748
  outer loop
   vertex -0.00229 0.11634 -0.01048
   vertex -0.004801 0.11634 -0.010159
   vertex -0.003066 0.118729 -0.010159
  endloop
 endfacet
 facet normal 0.0482486 0.148392 -0.987751
  outer loop
   vertex -0.00229 0.11634 -0.01048
   vertex -0.003066 0.118729 -0.010159
   vertex -0.000258 0.117816 -0.010159
  endloop
 endfacet
 facet normal 0.819189 -0.412026 -0.398954
  outer loop
   vertex 0.004946 0.111083 -0.004952
   vertex 0.005837 0.113388 -0.005503
   vertex 0.006317 0.111911 -0.002992
  endloop
 endfacet
 facet normal -0.138975 -0.90647 -0.398746
  outer loop
   vertex -0.005054 0.107834 -0.004952
   vertex -0.002586 0.107698 -0.005503
   vertex -0.003842 0.106786 -0.002992
  endloop
 endfacet
 facet normal -0.905177 -0.147939 -0.398459
  outer loop
   vertex -0.011234 0.11634 -0.004952
   vertex -0.010601 0.113951 -0.005503
   vertex -0.011856 0.114864 -0.002991
  endloop
 endfacet
 facet normal -0.420269 0.815078 -0.398776
  outer loop
   vertex -0.005054 0.124846 -0.004952
   vertex -0.00713 0.123506 -0.005503
   vertex -0.00665 0.124982 -0.002992
  endloop
 endfacet
 facet normal 0.645038 0.651744 -0.398942
  outer loop
   vertex 0.004946 0.121597 -0.004952
   vertex 0.003029 0.123157 -0.005503
   vertex 0.004582 0.123157 -0.002992
  endloop
 endfacet
 facet normal 0.771063 -0.560215 -0.302688
  outer loop
   vertex 0.004946 0.111083 -0.004952
   vertex 0.006317 0.111911 -0.002992
   vertex 0.004582 0.109523 -0.002992
  endloop
 endfacet
 facet normal -0.294416 -0.906493 -0.302638
  outer loop
   vertex -0.005054 0.107834 -0.004952
   vertex -0.003842 0.106786 -0.002992
   vertex -0.00665 0.107698 -0.002992
  endloop
 endfacet
 facet normal -0.9532 0 -0.302341
  outer loop
   vertex -0.011234 0.11634 -0.004952
   vertex -0.011856 0.114864 -0.002991
   vertex -0.011856 0.117816 -0.002991
  endloop
 endfacet
 facet normal -0.294416 0.906493 -0.302638
  outer loop
   vertex -0.005054 0.124846 -0.004952
   vertex -0.00665 0.124982 -0.002992
   vertex -0.003842 0.125894 -0.002992
  endloop
 endfacet
 facet normal 0.771063 0.560215 -0.302688
  outer loop
   vertex 0.004946 0.121597 -0.004952
   vertex 0.004582 0.123157 -0.002992
   vertex 0.006317 0.120769 -0.002992
  endloop
 endfacet
 facet normal 0.342493 -0.758552 0.554344
  outer loop
   vertex 0.000474 0.107834 0.003992
   vertex 0.00255 0.109174 0.004543
   vertex 3.8e-05 0.109174 0.006095
  endloop
 endfacet
 facet normal -0.61533 -0.560308 0.554459
  outer loop
   vertex -0.009526 0.111083 0.003992
   vertex -0.007609 0.109523 0.004543
   vertex -0.008385 0.111911 0.006095
  endloop
 endfacet
 facet normal -0.723015 0.412034 0.554506
  outer loop
   vertex -0.009526 0.121597 0.003992
   vertex -0.010417 0.119292 0.004543
   vertex -0.008385 0.120769 0.006095
  endloop
 endfacet
 facet normal 0.168666 0.815046 0.554303
  outer loop
   vertex 0.000474 0.124846 0.003992
   vertex -0.001994 0.124982 0.004543
   vertex 3.8e-05 0.123506 0.006095
  endloop
 endfacet
 facet normal 0.827124 0.091254 0.554562
  outer loop
   vertex 0.006654 0.11634 0.003992
   vertex 0.006021 0.118729 0.004543
   vertex 0.005244 0.11634 0.006095
  endloop
 endfacet
 facet normal 0.126271 0.0917039 0.987748
  outer loop
   vertex 0.000221 0.11634 0.009199
   vertex -0.001514 0.118729 0.009199
   vertex -0.00229 0.11634 0.00952
  endloop
 endfacet
 facet normal 0.390899 0.0914587 0.915878
  outer loop
   vertex 0.002967 0.11634 0.008027
   vertex 0.001328 0.118969 0.008464
   vertex 0.000221 0.11634 0.009199
  endloop
 endfacet
 facet normal 0.644269 0.0913996 0.759317
  outer loop
   vertex 0.005244 0.11634 0.006095
   vertex 0.004092 0.118969 0.006756
   vertex 0.002967 0.11634 0.008027
  endloop
 endfacet
 facet normal 0.233325 0.169451 0.957521
  outer loop
   vertex 0.000221 0.11634 0.009199
   vertex 0.001328 0.118969 0.008464
   vertex -0.001514 0.118729 0.009199
  endloop
 endfacet
 facet normal 0.207851 0.343516 0.915858
  outer loop
   vertex 0.001328 0.118969 0.008464
   vertex -0.000665 0.12134 0.008027
   vertex -0.001514 0.118729 0.009199
  endloop
 endfacet
 facet normal 0.516783 0.183167 0.836293
  outer loop
   vertex 0.002967 0.11634 0.008027
   vertex 0.004092 0.118969 0.006756
   vertex 0.001328 0.118969 0.008464
  endloop
 endfacet
 facet normal 0.491058 0.356895 0.794662
  outer loop
   vertex 0.004092 0.118969 0.006756
   vertex 0.002182 0.121597 0.006756
   vertex 0.001328 0.118969 0.008464
  endloop
 endfacet
 facet normal 0.334054 0.43492 0.836213
  outer loop
   vertex 0.001328 0.118969 0.008464
   vertex 0.002182 0.121597 0.006756
   vertex -0.000665 0.12134 0.008027
  endloop
 endfacet
 facet normal 0.286233 0.584386 0.759318
  outer loop
   vertex 0.002182 0.121597 0.006756
   vertex 3.8e-05 0.123506 0.006095
   vertex -0.000665 0.12134 0.008027
  endloop
 endfacet
 facet normal 0.751958 0.169318 0.637095
  outer loop
   vertex 0.005244 0.11634 0.006095
   vertex 0.006021 0.118729 0.004543
   vertex 0.004092 0.118969 0.006756
  endloop
 endfacet
 facet normal 0.725985 0.343961 0.595514
  outer loop
   vertex 0.006021 0.118729 0.004543
   vertex 0.004592 0.12134 0.004777
   vertex 0.004092 0.118969 0.006756
  endloop
 endfacet
 facet normal 0.598657 0.435097 0.672533
  outer loop
   vertex 0.004092 0.118969 0.006756
   vertex 0.004592 0.12134 0.004777
   vertex 0.002182 0.121597 0.006756
  endloop
 endfacet
 facet normal 0.551379 0.584158 0.595601
  outer loop
   vertex 0.004592 0.12134 0.004777
   vertex 0.00255 0.123506 0.004543
   vertex 0.002182 0.121597 0.006756
  endloop
 endfacet
 facet normal 0.393627 0.662685 0.637108
  outer loop
   vertex 0.002182 0.121597 0.006756
   vertex 0.00255 0.123506 0.004543
   vertex 3.8e-05 0.123506 0.006095
  endloop
 endfacet
 facet normal 0.342493 0.758552 0.554344
  outer loop
   vertex 0.00255 0.123506 0.004543
   vertex 0.000474 0.124846 0.003992
   vertex 3.8e-05 0.123506 0.006095
  endloop
 endfacet
 facet normal -0.0482486 0.148392 0.987751
  outer loop
   vertex -0.001514 0.118729 0.009199
   vertex -0.004322 0.117816 0.009199
   vertex -0.00229 0.11634 0.00952
  endloop
 endfacet
 facet normal 0.0336945 0.400135 0.915836
  outer loop
   vertex -0.000665 0.12134 0.008027
   vertex -0.003672 0.120593 0.008464
   vertex -0.001514 0.118729 0.009199
  endloop
 endfacet
 facet normal 0.112009 0.640965 0.759354
  outer loop
   vertex 3.8e-05 0.123506 0.006095
   vertex -0.002818 0.123222 0.006756
   vertex -0.000665 0.12134 0.008027
  endloop
 endfacet
 facet normal -0.0891868 0.274301 0.957499
  outer loop
   vertex -0.001514 0.118729 0.009199
   vertex -0.003672 0.120593 0.008464
   vertex -0.004322 0.117816 0.009199
  endloop
 endfacet
 facet normal -0.262485 0.303841 0.915851
  outer loop
   vertex -0.003672 0.120593 0.008464
   vertex -0.006543 0.11943 0.008027
   vertex -0.004322 0.117816 0.009199
  endloop
 endfacet
 facet normal -0.0146149 0.548074 0.836302
  outer loop
   vertex -0.000665 0.12134 0.008027
   vertex -0.002818 0.123222 0.006756
   vertex -0.003672 0.120593 0.008464
  endloop
 endfacet
 facet normal -0.187559 0.577248 0.794737
  outer loop
   vertex -0.002818 0.123222 0.006756
   vertex -0.005908 0.122218 0.006756
   vertex -0.003672 0.120593 0.008464
  endloop
 endfacet
 facet normal -0.310374 0.451949 0.836307
  outer loop
   vertex -0.003672 0.120593 0.008464
   vertex -0.005908 0.122218 0.006756
   vertex -0.006543 0.11943 0.008027
  endloop
 endfacet
 facet normal -0.467426 0.452641 0.759361
  outer loop
   vertex -0.005908 0.122218 0.006756
   vertex -0.008385 0.120769 0.006095
   vertex -0.006543 0.11943 0.008027
  endloop
 endfacet
 facet normal 0.0710868 0.767617 0.636955
  outer loop
   vertex 3.8e-05 0.123506 0.006095
   vertex -0.001994 0.124982 0.004543
   vertex -0.002818 0.123222 0.006756
  endloop
 endfacet
 facet normal -0.102735 0.796801 0.595444
  outer loop
   vertex -0.001994 0.124982 0.004543
   vertex -0.004919 0.12443 0.004777
   vertex -0.002818 0.123222 0.006756
  endloop
 endfacet
 facet normal -0.228709 0.703897 0.672474
  outer loop
   vertex -0.002818 0.123222 0.006756
   vertex -0.004919 0.12443 0.004777
   vertex -0.005908 0.122218 0.006756
  endloop
 endfacet
 facet normal -0.38541 0.704977 0.595371
  outer loop
   vertex -0.004919 0.12443 0.004777
   vertex -0.007609 0.123157 0.004543
   vertex -0.005908 0.122218 0.006756
  endloop
 endfacet
 facet normal -0.508799 0.579247 0.636864
  outer loop
   vertex -0.005908 0.122218 0.006756
   vertex -0.007609 0.123157 0.004543
   vertex -0.008385 0.120769 0.006095
  endloop
 endfacet
 facet normal -0.61533 0.560308 0.554459
  outer loop
   vertex -0.007609 0.123157 0.004543
   vertex -0.009526 0.121597 0.003992
   vertex -0.008385 0.120769 0.006095
  endloop
 endfacet
 facet normal -0.156037 0 0.987751
  outer loop
   vertex -0.004322 0.117816 0.009199
   vertex -0.004322 0.114864 0.009199
   vertex -0.00229 0.11634 0.00952
  endloop
 endfacet
 facet normal -0.370096 0.155752 0.915844
  outer loop
   vertex -0.006543 0.11943 0.008027
   vertex -0.006762 0.11634 0.008464
   vertex -0.004322 0.117816 0.009199
  endloop
 endfacet
 facet normal -0.574948 0.304695 0.759339
  outer loop
   vertex -0.008385 0.120769 0.006095
   vertex -0.008998 0.117965 0.006756
   vertex -0.006543 0.11943 0.008027
  endloop
 endfacet
 facet normal -0.288428 0 0.957502
  outer loop
   vertex -0.004322 0.117816 0.009199
   vertex -0.006762 0.11634 0.008464
   vertex -0.004322 0.114864 0.009199
  endloop
 endfacet
 facet normal -0.370096 -0.155752 0.915844
  outer loop
   vertex -0.006762 0.11634 0.008464
   vertex -0.006543 0.11325 0.008027
   vertex -0.004322 0.114864 0.009199
  endloop
 endfacet
 facet normal -0.525774 0.155534 0.836284
  outer loop
   vertex -0.006543 0.11943 0.008027
   vertex -0.008998 0.117965 0.006756
   vertex -0.006762 0.11634 0.008464
  endloop
 endfacet
 facet normal -0.607028 0 0.794681
  outer loop
   vertex -0.008998 0.117965 0.006756
   vertex -0.008998 0.114715 0.006756
   vertex -0.006762 0.11634 0.008464
  endloop
 endfacet
 facet normal -0.525774 -0.155534 0.836284
  outer loop
   vertex -0.006762 0.11634 0.008464
   vertex -0.008998 0.114715 0.006756
   vertex -0.006543 0.11325 0.008027
  endloop
 endfacet
 facet normal -0.574948 -0.304695 0.759339
  outer loop
   vertex -0.008998 0.114715 0.006756
   vertex -0.008385 0.111911 0.006095
   vertex -0.006543 0.11325 0.008027
  endloop
 endfacet
 facet normal -0.708089 0.304936 0.636886
  outer loop
   vertex -0.008385 0.120769 0.006095
   vertex -0.010417 0.119292 0.004543
   vertex -0.008998 0.117965 0.006756
  endloop
 endfacet
 facet normal -0.789589 0.148568 0.59538
  outer loop
   vertex -0.010417 0.119292 0.004543
   vertex -0.010796 0.11634 0.004777
   vertex -0.008998 0.117965 0.006756
  endloop
 endfacet
 facet normal -0.740143 0 0.672449
  outer loop
   vertex -0.008998 0.117965 0.006756
   vertex -0.010796 0.11634 0.004777
   vertex -0.008998 0.114715 0.006756
  endloop
 endfacet
 facet normal -0.789589 -0.148568 0.59538
  outer loop
   vertex -0.010796 0.11634 0.004777
   vertex -0.010417 0.113388 0.004543
   vertex -0.008998 0.114715 0.006756
  endloop
 endfacet
 facet normal -0.708089 -0.304936 0.636886
  outer loop
   vertex -0.008998 0.114715 0.006756
   vertex -0.010417 0.113388 0.004543
   vertex -0.008385 0.111911 0.006095
  endloop
 endfacet
 facet normal -0.723015 -0.412034 0.554506
  outer loop
   vertex -0.010417 0.113388 0.004543
   vertex -0.009526 0.111083 0.003992
   vertex -0.008385 0.111911 0.006095
  endloop
 endfacet
 facet normal -0.0482486 -0.148392 0.987751
  outer loop
   vertex -0.004322 0.114864 0.009199
   vertex -0.001514 0.113951 0.009199
   vertex -0.00229 0.11634 0.00952
  endloop
 endfacet
 facet normal -0.262485 -0.303841 0.915851
  outer loop
   vertex -0.006543 0.11325 0.008027
   vertex -0.003672 0.112087 0.008464
   vertex -0.004322 0.114864 0.009199
  endloop
 endfacet
 facet normal -0.467426 -0.452641 0.759361
  outer loop
   vertex -0.008385 0.111911 0.006095
   vertex -0.005908 0.110462 0.006756
   vertex -0.006543 0.11325 0.008027
  endloop
 endfacet
 facet normal -0.0891868 -0.274301 0.957499
  outer loop
   vertex -0.004322 0.114864 0.009199
   vertex -0.003672 0.112087 0.008464
   vertex -0.001514 0.113951 0.009199
  endloop
 endfacet
 facet normal 0.0336945 -0.400135 0.915836
  outer loop
   vertex -0.003672 0.112087 0.008464
   vertex -0.000665 0.11134 0.008027
   vertex -0.001514 0.113951 0.009199
  endloop
 endfacet
 facet normal -0.310374 -0.451949 0.836307
  outer loop
   vertex -0.006543 0.11325 0.008027
   vertex -0.005908 0.110462 0.006756
   vertex -0.003672 0.112087 0.008464
  endloop
 endfacet
 facet normal -0.187559 -0.577248 0.794737
  outer loop
   vertex -0.005908 0.110462 0.006756
   vertex -0.002818 0.109458 0.006756
   vertex -0.003672 0.112087 0.008464
  endloop
 endfacet
 facet normal -0.0146149 -0.548074 0.836302
  outer loop
   vertex -0.003672 0.112087 0.008464
   vertex -0.002818 0.109458 0.006756
   vertex -0.000665 0.11134 0.008027
  endloop
 endfacet
 facet normal 0.112009 -0.640965 0.759354
  outer loop
   vertex -0.002818 0.109458 0.006756
   vertex 3.8e-05 0.109174 0.006095
   vertex -0.000665 0.11134 0.008027
  endloop
 endfacet
 facet normal -0.508799 -0.579247 0.636864
  outer loop
   vertex -0.008385 0.111911 0.006095
   vertex -0.007609 0.109523 0.004543
   vertex -0.005908 0.110462 0.006756
  endloop
 endfacet
 facet normal -0.38541 -0.704977 0.595371
  outer loop
   vertex -0.007609 0.109523 0.004543
   vertex -0.004919 0.10825 0.004777
   vertex -0.005908 0.110462 0.006756
  endloop
 endfacet
 facet normal -0.228709 -0.703897 0.672474
  outer loop
   vertex -0.005908 0.110462 0.006756
   vertex -0.004919 0.10825 0.004777
   vertex -0.002818 0.109458 0.006756
  endloop
 endfacet
 facet normal -0.102735 -0.796801 0.595444
  outer loop
   vertex -0.004919 0.10825 0.004777
   vertex -0.001994 0.107698 0.004543
   vertex -0.002818 0.109458 0.006756
  endloop
 endfacet
 facet normal 0.0710868 -0.767617 0.636955
  outer loop
   vertex -0.002818 0.109458 0.006756
   vertex -0.001994 0.107698 0.004543
   vertex 3.8e-05 0.109174 0.006095
  endloop
 endfacet
 facet normal 0.168666 -0.815046 0.554303
  outer loop
   vertex -0.001994 0.107698 0.004543
   vertex 0.000474 0.107834 0.003992
   vertex 3.8e-05 0.109174 0.006095
  endloop
 endfacet
 facet normal 0.126271 -0.0917039 0.987748
  outer loop
   vertex -0.001514 0.113951 0.009199
   vertex 0.000221 0.11634 0.009199
   vertex -0.00229 0.11634 0.00952
  endloop
 endfacet
 facet normal 0.207851 -0.343516 0.915858
  outer loop
   vertex -0.000665 0.11134 0.008027
   vertex 0.001328 0.113711 0.008464
   vertex -0.001514 0.113951 0.009199
  endloop
 endfacet
 facet normal 0.286233 -0.584386 0.759318
  outer loop
   vertex 3.8e-05 0.109174 0.006095
   vertex 0.002182 0.111083 0.006756
   vertex -0.000665 0.11134 0.008027
  endloop
 endfacet
 facet normal 0.233325 -0.169451 0.957521
  outer loop
   vertex -0.001514 0.113951 0.009199
   vertex 0.001328 0.113711 0.008464
   vertex 0.000221 0.11634 0.009199
  endloop
 endfacet
 facet normal 0.390899 -0.0914587 0.915878
  outer loop
   vertex 0.001328 0.113711 0.008464
   vertex 0.002967 0.11634 0.008027
   vertex 0.000221 0.11634 0.009199
  endloop
 endfacet
 facet normal 0.334054 -0.43492 0.836213
  outer loop
   vertex -0.000665 0.11134 0.008027
   vertex 0.002182 0.111083 0.006756
   vertex 0.001328 0.113711 0.008464
  endloop
 endfacet
 facet normal 0.491058 -0.356895 0.794662
  outer loop
   vertex 0.002182 0.111083 0.006756
   vertex 0.004092 0.113711 0.006756
   vertex 0.001328 0.113711 0.008464
  endloop
 endfacet
 facet normal 0.516783 -0.183167 0.836293
  outer loop
   vertex 0.001328 0.113711 0.008464
   vertex 0.004092 0.113711 0.006756
   vertex 0.002967 0.11634 0.008027
  endloop
 endfacet
 facet normal 0.644269 -0.0913996 0.759317
  outer loop
   vertex 0.004092 0.113711 0.006756
   vertex 0.005244 0.11634 0.006095
   vertex 0.002967 0.11634 0.008027
  endloop
 endfacet
 facet normal 0.393627 -0.662685 0.637108
  outer loop
   vertex 3.8e-05 0.109174 0.006095
   vertex 0.00255 0.109174 0.004543
   vertex 0.002182 0.111083 0.006756
  endloop
 endfacet
 facet normal 0.551379 -0.584158 0.595601
  outer loop
   vertex 0.00255 0.109174 0.004543
   vertex 0.004592 0.11134 0.004777
   vertex 0.002182 0.111083 0.006756
  endloop
 endfacet
 facet normal 0.598657 -0.435097 0.672533
  outer loop
   vertex 0.002182 0.111083 0.006756
   vertex 0.004592 0.11134 0.004777
   vertex 0.004092 0.113711 0.006756
  endloop
 endfacet
 facet normal 0.725985 -0.343961 0.595514
  outer loop
   vertex 0.004592 0.11134 0.004777
   vertex 0.006021 0.113951 0.004543
   vertex 0.004092 0.113711 0.006756
  endloop
 endfacet
 facet normal 0.751958 -0.169318 0.637095
  outer loop
   vertex 0.004092 0.113711 0.006756
   vertex 0.006021 0.113951 0.004543
   vertex 0.005244 0.11634 0.006095
  endloop
 endfacet
 facet normal 0.827124 -0.091254 0.554562
  outer loop
   vertex 0.006021 0.113951 0.004543
   vertex 0.006654 0.11634 0.003992
   vertex 0.005244 0.11634 0.006095
  endloop
 endfacet
 facet normal 0.905177 0.147939 0.398459
  outer loop
   vertex 0.007276 0.117816 0.002031
   vertex 0.006021 0.118729 0.004543
   vertex 0.006654 0.11634 0.003992
  endloop
 endfacet
 facet normal 0.93657 0.303801 0.17476
  outer loop
   vertex 0.007221 0.11943 -0.00048
   vertex 0.006328 0.120593 0.002284
   vertex 0.007276 0.117816 0.002031
  endloop
 endfacet
 facet normal 0.888212 0.452708 -0.078331
  outer loop
   vertex 0.006317 0.120769 -0.002992
   vertex 0.0058 0.122218 -0.00048
   vertex 0.007221 0.11943 -0.00048
  endloop
 endfacet
 facet normal 0.89641 0.274294 0.348155
  outer loop
   vertex 0.007276 0.117816 0.002031
   vertex 0.006328 0.120593 0.002284
   vertex 0.006021 0.118729 0.004543
  endloop
 endfacet
 facet normal 0.803858 0.400541 0.439749
  outer loop
   vertex 0.006328 0.120593 0.002284
   vertex 0.004592 0.12134 0.004777
   vertex 0.006021 0.118729 0.004543
  endloop
 endfacet
 facet normal 0.886806 0.451991 0.0963284
  outer loop
   vertex 0.007221 0.11943 -0.00048
   vertex 0.0058 0.122218 -0.00048
   vertex 0.006328 0.120593 0.002284
  endloop
 endfacet
 facet normal 0.794662 0.577331 0.18762
  outer loop
   vertex 0.0058 0.122218 -0.00048
   vertex 0.004418 0.123222 0.002284
   vertex 0.006328 0.120593 0.002284
  endloop
 endfacet
 facet normal 0.754436 0.548107 0.361117
  outer loop
   vertex 0.006328 0.120593 0.002284
   vertex 0.004418 0.123222 0.002284
   vertex 0.004592 0.12134 0.004777
  endloop
 endfacet
 facet normal 0.629279 0.640767 0.439803
  outer loop
   vertex 0.004418 0.123222 0.002284
   vertex 0.00255 0.123506 0.004543
   vertex 0.004592 0.12134 0.004777
  endloop
 endfacet
 facet normal 0.797233 0.579229 -0.170037
  outer loop
   vertex 0.006317 0.120769 -0.002992
   vertex 0.004582 0.123157 -0.002992
   vertex 0.0058 0.122218 -0.00048
  endloop
 endfacet
 facet normal 0.704936 0.704936 -0.0782949
  outer loop
   vertex 0.004582 0.123157 -0.002992
   vertex 0.003588 0.12443 -0.00048
   vertex 0.0058 0.122218 -0.00048
  endloop
 endfacet
 facet normal 0.703824 0.703824 0.0962537
  outer loop
   vertex 0.0058 0.122218 -0.00048
   vertex 0.003588 0.12443 -0.00048
   vertex 0.004418 0.123222 0.002284
  endloop
 endfacet
 facet normal 0.578519 0.796783 0.174509
  outer loop
   vertex 0.003588 0.12443 -0.00048
   vertex 0.00207 0.124982 0.002032
   vertex 0.004418 0.123222 0.002284
  endloop
 endfacet
 facet normal 0.537986 0.767602 0.348366
  outer loop
   vertex 0.004418 0.123222 0.002284
   vertex 0.00207 0.124982 0.002032
   vertex 0.00255 0.123506 0.004543
  endloop
 endfacet
 facet normal 0.420269 0.815078 0.398776
  outer loop
   vertex 0.00207 0.124982 0.002032
   vertex 0.000474 0.124846 0.003992
   vertex 0.00255 0.123506 0.004543
  endloop
 endfacet
 facet normal 0.138975 0.90647 0.398746
  outer loop
   vertex -0.000738 0.125894 0.002032
   vertex -0.001994 0.124982 0.004543
   vertex 0.000474 0.124846 0.003992
  endloop
 endfacet
 facet normal 0.000555151 0.98466 0.174481
  outer loop
   vertex -0.00229 0.12634 -0.00048
   vertex -0.003672 0.125851 0.002284
   vertex -0.000738 0.125894 0.002032
  endloop
 endfacet
 facet normal -0.155824 0.984657 -0.07855
  outer loop
   vertex -0.003842 0.125894 -0.002992
   vertex -0.00538 0.125851 -0.00048
   vertex -0.00229 0.12634 -0.00048
  endloop
 endfacet
 facet normal 0.0161962 0.937175 0.348485
  outer loop
   vertex -0.000738 0.125894 0.002032
   vertex -0.003672 0.125851 0.002284
   vertex -0.001994 0.124982 0.004543
  endloop
 endfacet
 facet normal -0.132412 0.888171 0.440021
  outer loop
   vertex -0.003672 0.125851 0.002284
   vertex -0.004919 0.12443 0.004777
   vertex -0.001994 0.124982 0.004543
  endloop
 endfacet
 facet normal -0.155583 0.983133 0.0961419
  outer loop
   vertex -0.00229 0.12634 -0.00048
   vertex -0.00538 0.125851 -0.00048
   vertex -0.003672 0.125851 0.002284
  endloop
 endfacet
 facet normal -0.303796 0.934059 0.187729
  outer loop
   vertex -0.00538 0.125851 -0.00048
   vertex -0.006762 0.124846 0.002284
   vertex -0.003672 0.125851 0.002284
  endloop
 endfacet
 facet normal -0.288415 0.886769 0.361189
  outer loop
   vertex -0.003672 0.125851 0.002284
   vertex -0.006762 0.124846 0.002284
   vertex -0.004919 0.12443 0.004777
  endloop
 endfacet
 facet normal -0.415138 0.796394 0.439791
  outer loop
   vertex -0.006762 0.124846 0.002284
   vertex -0.007609 0.123157 0.004543
   vertex -0.004919 0.12443 0.004777
  endloop
 endfacet
 facet normal -0.304389 0.937197 -0.170322
  outer loop
   vertex -0.003842 0.125894 -0.002992
   vertex -0.00665 0.124982 -0.002992
   vertex -0.00538 0.125851 -0.00048
  endloop
 endfacet
 facet normal -0.452705 0.888208 -0.0783901
  outer loop
   vertex -0.00665 0.124982 -0.002992
   vertex -0.008168 0.12443 -0.00048
   vertex -0.00538 0.125851 -0.00048
  endloop
 endfacet
 facet normal -0.451986 0.886796 0.0964489
  outer loop
   vertex -0.00538 0.125851 -0.00048
   vertex -0.008168 0.12443 -0.00048
   vertex -0.006762 0.124846 0.002284
  endloop
 endfacet
 facet normal -0.578874 0.796508 0.174584
  outer loop
   vertex -0.008168 0.12443 -0.00048
   vertex -0.009162 0.123157 0.002032
   vertex -0.006762 0.124846 0.002284
  endloop
 endfacet
 facet normal -0.563623 0.748876 0.348589
  outer loop
   vertex -0.006762 0.124846 0.002284
   vertex -0.009162 0.123157 0.002032
   vertex -0.007609 0.123157 0.004543
  endloop
 endfacet
 facet normal -0.645038 0.651744 0.398942
  outer loop
   vertex -0.009162 0.123157 0.002032
   vertex -0.009526 0.121597 0.003992
   vertex -0.007609 0.123157 0.004543
  endloop
 endfacet
 facet normal -0.819189 0.412026 0.398954
  outer loop
   vertex -0.010897 0.120769 0.002032
   vertex -0.010417 0.119292 0.004543
   vertex -0.009526 0.121597 0.003992
  endloop
 endfacet
 facet normal -0.936352 0.304548 0.174631
  outer loop
   vertex -0.011801 0.11943 -0.00048
   vertex -0.011762 0.117965 0.002284
   vertex -0.010897 0.120769 0.002032
  endloop
 endfacet
 facet normal -0.984653 0.155824 -0.0785916
  outer loop
   vertex -0.011856 0.117816 -0.002991
   vertex -0.01229 0.11634 -0.00048
   vertex -0.011801 0.11943 -0.00048
  endloop
 endfacet
 facet normal -0.886309 0.304753 0.348685
  outer loop
   vertex -0.010897 0.120769 0.002032
   vertex -0.011762 0.117965 0.002284
   vertex -0.010417 0.119292 0.004543
  endloop
 endfacet
 facet normal -0.885615 0.148581 0.440011
  outer loop
   vertex -0.011762 0.117965 0.002284
   vertex -0.010796 0.11634 0.004777
   vertex -0.010417 0.119292 0.004543
  endloop
 endfacet
 facet normal -0.983115 0.15558 0.0963335
  outer loop
   vertex -0.011801 0.11943 -0.00048
   vertex -0.01229 0.11634 -0.00048
   vertex -0.011762 0.117965 0.002284
  endloop
 endfacet
 facet normal -0.982239 0 0.187634
  outer loop
   vertex -0.01229 0.11634 -0.00048
   vertex -0.011762 0.114715 0.002284
   vertex -0.011762 0.117965 0.002284
  endloop
 endfacet
 facet normal -0.932446 0 0.361309
  outer loop
   vertex -0.011762 0.117965 0.002284
   vertex -0.011762 0.114715 0.002284
   vertex -0.010796 0.11634 0.004777
  endloop
 endfacet
 facet normal -0.885615 -0.148581 0.440011
  outer loop
   vertex -0.011762 0.114715 0.002284
   vertex -0.010417 0.113388 0.004543
   vertex -0.010796 0.11634 0.004777
  endloop
 endfacet
 facet normal -0.98539 -0 -0.170314
  outer loop
   vertex -0.011856 0.117816 -0.002991
   vertex -0.011856 0.114864 -0.002991
   vertex -0.01229 0.11634 -0.00048
  endloop
 endfacet
 facet normal -0.984653 -0.155824 -0.0785916
  outer loop
   vertex -0.011856 0.114864 -0.002991
   vertex -0.011801 0.11325 -0.00048
   vertex -0.01229 0.11634 -0.00048
  endloop
 endfacet
 facet normal -0.983115 -0.15558 0.0963335
  outer loop
   vertex -0.01229 0.11634 -0.00048
   vertex -0.011801 0.11325 -0.00048
   vertex -0.011762 0.114715 0.002284
  endloop
 endfacet
 facet normal -0.936352 -0.304548 0.174631
  outer loop
   vertex -0.011801 0.11325 -0.00048
   vertex -0.010897 0.111911 0.002032
   vertex -0.011762 0.114715 0.002284
  endloop
 endfacet
 facet normal -0.886309 -0.304753 0.348685
  outer loop
   vertex -0.011762 0.114715 0.002284
   vertex -0.010897 0.111911 0.002032
   vertex -0.010417 0.113388 0.004543
  endloop
 endfacet
 facet normal -0.819189 -0.412026 0.398954
  outer loop
   vertex -0.010897 0.111911 0.002032
   vertex -0.009526 0.111083 0.003992
   vertex -0.010417 0.113388 0.004543
  endloop
 endfacet
 facet normal -0.645038 -0.651744 0.398942
  outer loop
   vertex -0.009162 0.109523 0.002032
   vertex -0.007609 0.109523 0.004543
   vertex -0.009526 0.111083 0.003992
  endloop
 endfacet
 facet normal -0.578874 -0.796508 0.174584
  outer loop
   vertex -0.008168 0.10825 -0.00048
   vertex -0.006762 0.107834 0.002284
   vertex -0.009162 0.109523 0.002032
  endloop
 endfacet
 facet normal -0.452705 -0.888208 -0.0783901
  outer loop
   vertex -0.00665 0.107698 -0.002992
   vertex -0.00538 0.106829 -0.00048
   vertex -0.008168 0.10825 -0.00048
  endloop
 endfacet
 facet normal -0.563623 -0.748876 0.348589
  outer loop
   vertex -0.009162 0.109523 0.002032
   vertex -0.006762 0.107834 0.002284
   vertex -0.007609 0.109523 0.004543
  endloop
 endfacet
 facet normal -0.415138 -0.796394 0.439791
  outer loop
   vertex -0.006762 0.107834 0.002284
   vertex -0.004919 0.10825 0.004777
   vertex -0.007609 0.109523 0.004543
  endloop
 endfacet
 facet normal -0.451986 -0.886796 0.0964489
  outer loop
   vertex -0.008168 0.10825 -0.00048
   vertex -0.00538 0.106829 -0.00048
   vertex -0.006762 0.107834 0.002284
  endloop
 endfacet
 facet normal -0.303796 -0.934059 0.187729
  outer loop
   vertex -0.00538 0.106829 -0.00048
   vertex -0.003672 0.106829 0.002284
   vertex -0.006762 0.107834 0.002284
  endloop
 endfacet
 facet normal -0.288415 -0.886769 0.361189
  outer loop
   vertex -0.006762 0.107834 0.002284
   vertex -0.003672 0.106829 0.002284
   vertex -0.004919 0.10825 0.004777
  endloop
 endfacet
 facet normal -0.132412 -0.888171 0.440021
  outer loop
   vertex -0.003672 0.106829 0.002284
   vertex -0.001994 0.107698 0.004543
   vertex -0.004919 0.10825 0.004777
  endloop
 endfacet
 facet normal -0.304389 -0.937197 -0.170322
  outer loop
   vertex -0.00665 0.107698 -0.002992
   vertex -0.003842 0.106786 -0.002992
   vertex -0.00538 0.106829 -0.00048
  endloop
 endfacet
 facet normal -0.155824 -0.984657 -0.07855
  outer loop
   vertex -0.003842 0.106786 -0.002992
   vertex -0.00229 0.10634 -0.00048
   vertex -0.00538 0.106829 -0.00048
  endloop
 endfacet
 facet normal -0.155583 -0.983133 0.0961419
  outer loop
   vertex -0.00538 0.106829 -0.00048
   vertex -0.00229 0.10634 -0.00048
   vertex -0.003672 0.106829 0.002284
  endloop
 endfacet
 facet normal 0.000555151 -0.98466 0.174481
  outer loop
   vertex -0.00229 0.10634 -0.00048
   vertex -0.000738 0.106786 0.002032
   vertex -0.003672 0.106829 0.002284
  endloop
 endfacet
 facet normal 0.0161962 -0.937175 0.348485
  outer loop
   vertex -0.003672 0.106829 0.002284
   vertex -0.000738 0.106786 0.002032
   vertex -0.001994 0.107698 0.004543
  endloop
 endfacet
 facet normal 0.138975 -0.90647 0.398746
  outer loop
   vertex -0.000738 0.106786 0.002032
   vertex 0.000474 0.107834 0.003992
   vertex -0.001994 0.107698 0.004543
  endloop
 endfacet
 facet normal 0.420269 -0.815078 0.398776
  outer loop
   vertex 0.00207 0.107698 0.002032
   vertex 0.00255 0.109174 0.004543
   vertex 0.000474 0.107834 0.003992
  endloop
 endfacet
 facet normal 0.578519 -0.796783 0.174509
  outer loop
   vertex 0.003588 0.10825 -0.00048
   vertex 0.004418 0.109458 0.002284
   vertex 0.00207 0.107698 0.002032
  endloop
 endfacet
 facet normal 0.704936 -0.704936 -0.0782949
  outer loop
   vertex 0.004582 0.109523 -0.002992
   vertex 0.0058 0.110462 -0.00048
   vertex 0.003588 0.10825 -0.00048
  endloop
 endfacet
 facet normal 0.537986 -0.767602 0.348366
  outer loop
   vertex 0.00207 0.107698 0.002032
   vertex 0.004418 0.109458 0.002284
   vertex 0.00255 0.109174 0.004543
  endloop
 endfacet
 facet normal 0.629279 -0.640767 0.439803
  outer loop
   vertex 0.004418 0.109458 0.002284
   vertex 0.004592 0.11134 0.004777
   vertex 0.00255 0.109174 0.004543
  endloop
 endfacet
 facet normal 0.703824 -0.703824 0.0962537
  outer loop
   vertex 0.003588 0.10825 -0.00048
   vertex 0.0058 0.110462 -0.00048
   vertex 0.004418 0.109458 0.002284
  endloop
 endfacet
 facet normal 0.794662 -0.577331 0.18762
  outer loop
   vertex 0.0058 0.110462 -0.00048
   vertex 0.006328 0.112087 0.002284
   vertex 0.004418 0.109458 0.002284
  endloop
 endfacet
 facet normal 0.754436 -0.548107 0.361117
  outer loop
   vertex 0.004418 0.109458 0.002284
   vertex 0.006328 0.112087 0.002284
   vertex 0.004592 0.11134 0.004777
  endloop
 endfacet
 facet normal 0.803858 -0.400541 0.439749
  outer loop
   vertex 0.006328 0.112087 0.002284
   vertex 0.006021 0.113951 0.004543
   vertex 0.004592 0.11134 0.004777
  endloop
 endfacet
 facet normal 0.797233 -0.579229 -0.170037
  outer loop
   vertex 0.004582 0.109523 -0.002992
   vertex 0.006317 0.111911 -0.002992
   vertex 0.0058 0.110462 -0.00048
  endloop
 endfacet
 facet normal 0.888212 -0.452708 -0.078331
  outer loop
   vertex 0.006317 0.111911 -0.002992
   vertex 0.007221 0.11325 -0.00048
   vertex 0.0058 0.110462 -0.00048
  endloop
 endfacet
 facet normal 0.886806 -0.451991 0.0963284
  outer loop
   vertex 0.0058 0.110462 -0.00048
   vertex 0.007221 0.11325 -0.00048
   vertex 0.006328 0.112087 0.002284
  endloop
 endfacet
 facet normal 0.93657 -0.303801 0.17476
  outer loop
   vertex 0.007221 0.11325 -0.00048
   vertex 0.007276 0.114864 0.002031
   vertex 0.006328 0.112087 0.002284
  endloop
 endfacet
 facet normal 0.89641 -0.274294 0.348155
  outer loop
   vertex 0.006328 0.112087 0.002284
   vertex 0.007276 0.114864 0.002031
   vertex 0.006021 0.113951 0.004543
  endloop
 endfacet
 facet normal 0.905177 -0.147939 0.398459
  outer loop
   vertex 0.007276 0.114864 0.002031
   vertex 0.006654 0.11634 0.003992
   vertex 0.006021 0.113951 0.004543
  endloop
 endfacet
 facet normal 0.294416 0.906493 0.302638
  outer loop
   vertex 0.00207 0.124982 0.002032
   vertex -0.000738 0.125894 0.002032
   vertex 0.000474 0.124846 0.003992
  endloop
 endfacet
 facet normal 0.452705 0.888208 0.0783901
  outer loop
   vertex 0.003588 0.12443 -0.00048
   vertex 0.0008 0.125851 -0.00048
   vertex 0.00207 0.124982 0.002032
  endloop
 endfacet
 facet normal 0.578874 0.796508 -0.174584
  outer loop
   vertex 0.004582 0.123157 -0.002992
   vertex 0.002182 0.124846 -0.003244
   vertex 0.003588 0.12443 -0.00048
  endloop
 endfacet
 facet normal 0.304389 0.937197 0.170322
  outer loop
   vertex 0.00207 0.124982 0.002032
   vertex 0.0008 0.125851 -0.00048
   vertex -0.000738 0.125894 0.002032
  endloop
 endfacet
 facet normal 0.155824 0.984657 0.07855
  outer loop
   vertex 0.0008 0.125851 -0.00048
   vertex -0.00229 0.12634 -0.00048
   vertex -0.000738 0.125894 0.002032
  endloop
 endfacet
 facet normal 0.451986 0.886796 -0.0964489
  outer loop
   vertex 0.003588 0.12443 -0.00048
   vertex 0.002182 0.124846 -0.003244
   vertex 0.0008 0.125851 -0.00048
  endloop
 endfacet
 facet normal 0.303796 0.934059 -0.187729
  outer loop
   vertex 0.002182 0.124846 -0.003244
   vertex -0.000908 0.125851 -0.003244
   vertex 0.0008 0.125851 -0.00048
  endloop
 endfacet
 facet normal 0.155583 0.983133 -0.0961419
  outer loop
   vertex 0.0008 0.125851 -0.00048
   vertex -0.000908 0.125851 -0.003244
   vertex -0.00229 0.12634 -0.00048
  endloop
 endfacet
 facet normal -0.000555151 0.98466 -0.174481
  outer loop
   vertex -0.000908 0.125851 -0.003244
   vertex -0.003842 0.125894 -0.002992
   vertex -0.00229 0.12634 -0.00048
  endloop
 endfacet
 facet normal 0.563623 0.748876 -0.348589
  outer loop
   vertex 0.004582 0.123157 -0.002992
   vertex 0.003029 0.123157 -0.005503
   vertex 0.002182 0.124846 -0.003244
  endloop
 endfacet
 facet normal 0.415138 0.796394 -0.439791
  outer loop
   vertex 0.003029 0.123157 -0.005503
   vertex 0.000339 0.12443 -0.005737
   vertex 0.002182 0.124846 -0.003244
  endloop
 endfacet
 facet normal 0.288415 0.886769 -0.361189
  outer loop
   vertex 0.002182 0.124846 -0.003244
   vertex 0.000339 0.12443 -0.005737
   vertex -0.000908 0.125851 -0.003244
  endloop
 endfacet
 facet normal 0.132412 0.888171 -0.440021
  outer loop
   vertex 0.000339 0.12443 -0.005737
   vertex -0.002586 0.124982 -0.005503
   vertex -0.000908 0.125851 -0.003244
  endloop
 endfacet
 facet normal -0.0161962 0.937175 -0.348485
  outer loop
   vertex -0.000908 0.125851 -0.003244
   vertex -0.002586 0.124982 -0.005503
   vertex -0.003842 0.125894 -0.002992
  endloop
 endfacet
 facet normal -0.138975 0.90647 -0.398746
  outer loop
   vertex -0.002586 0.124982 -0.005503
   vertex -0.005054 0.124846 -0.004952
   vertex -0.003842 0.125894 -0.002992
  endloop
 endfacet
 facet normal -0.771063 0.560215 0.302688
  outer loop
   vertex -0.009162 0.123157 0.002032
   vertex -0.010897 0.120769 0.002032
   vertex -0.009526 0.121597 0.003992
  endloop
 endfacet
 facet normal -0.704936 0.704936 0.0782949
  outer loop
   vertex -0.008168 0.12443 -0.00048
   vertex -0.01038 0.122218 -0.00048
   vertex -0.009162 0.123157 0.002032
  endloop
 endfacet
 facet normal -0.578519 0.796783 -0.174509
  outer loop
   vertex -0.00665 0.124982 -0.002992
   vertex -0.008998 0.123222 -0.003244
   vertex -0.008168 0.12443 -0.00048
  endloop
 endfacet
 facet normal -0.797233 0.579229 0.170037
  outer loop
   vertex -0.009162 0.123157 0.002032
   vertex -0.01038 0.122218 -0.00048
   vertex -0.010897 0.120769 0.002032
  endloop
 endfacet
 facet normal -0.888212 0.452708 0.078331
  outer loop
   vertex -0.01038 0.122218 -0.00048
   vertex -0.011801 0.11943 -0.00048
   vertex -0.010897 0.120769 0.002032
  endloop
 endfacet
 facet normal -0.703824 0.703824 -0.0962537
  outer loop
   vertex -0.008168 0.12443 -0.00048
   vertex -0.008998 0.123222 -0.003244
   vertex -0.01038 0.122218 -0.00048
  endloop
 endfacet
 facet normal -0.794662 0.577331 -0.18762
  outer loop
   vertex -0.008998 0.123222 -0.003244
   vertex -0.010908 0.120593 -0.003244
   vertex -0.01038 0.122218 -0.00048
  endloop
 endfacet
 facet normal -0.886806 0.451991 -0.0963284
  outer loop
   vertex -0.01038 0.122218 -0.00048
   vertex -0.010908 0.120593 -0.003244
   vertex -0.011801 0.11943 -0.00048
  endloop
 endfacet
 facet normal -0.93657 0.303801 -0.17476
  outer loop
   vertex -0.010908 0.120593 -0.003244
   vertex -0.011856 0.117816 -0.002991
   vertex -0.011801 0.11943 -0.00048
  endloop
 endfacet
 facet normal -0.537986 0.767602 -0.348366
  outer loop
   vertex -0.00665 0.124982 -0.002992
   vertex -0.00713 0.123506 -0.005503
   vertex -0.008998 0.123222 -0.003244
  endloop
 endfacet
 facet normal -0.629279 0.640767 -0.439803
  outer loop
   vertex -0.00713 0.123506 -0.005503
   vertex -0.009172 0.12134 -0.005737
   vertex -0.008998 0.123222 -0.003244
  endloop
 endfacet
 facet normal -0.754436 0.548107 -0.361117
  outer loop
   vertex -0.008998 0.123222 -0.003244
   vertex -0.009172 0.12134 -0.005737
   vertex -0.010908 0.120593 -0.003244
  endloop
 endfacet
 facet normal -0.803858 0.400541 -0.439749
  outer loop
   vertex -0.009172 0.12134 -0.005737
   vertex -0.010601 0.118729 -0.005503
   vertex -0.010908 0.120593 -0.003244
  endloop
 endfacet
 facet normal -0.89641 0.274294 -0.348155
  outer loop
   vertex -0.010908 0.120593 -0.003244
   vertex -0.010601 0.118729 -0.005503
   vertex -0.011856 0.117816 -0.002991
  endloop
 endfacet
 facet normal -0.905177 0.147939 -0.398459
  outer loop
   vertex -0.010601 0.118729 -0.005503
   vertex -0.011234 0.11634 -0.004952
   vertex -0.011856 0.117816 -0.002991
  endloop
 endfacet
 facet normal -0.771063 -0.560215 0.302688
  outer loop
   vertex -0.010897 0.111911 0.002032
   vertex -0.009162 0.109523 0.002032
   vertex -0.009526 0.111083 0.003992
  endloop
 endfacet
 facet normal -0.888212 -0.452708 0.078331
  outer loop
   vertex -0.011801 0.11325 -0.00048
   vertex -0.01038 0.110462 -0.00048
   vertex -0.010897 0.111911 0.002032
  endloop
 endfacet
 facet normal -0.93657 -0.303801 -0.17476
  outer loop
   vertex -0.011856 0.114864 -0.002991
   vertex -0.010908 0.112087 -0.003244
   vertex -0.011801 0.11325 -0.00048
  endloop
 endfacet
 facet normal -0.797233 -0.579229 0.170037
  outer loop
   vertex -0.010897 0.111911 0.002032
   vertex -0.01038 0.110462 -0.00048
   vertex -0.009162 0.109523 0.002032
  endloop
 endfacet
 facet normal -0.704936 -0.704936 0.0782949
  outer loop
   vertex -0.01038 0.110462 -0.00048
   vertex -0.008168 0.10825 -0.00048
   vertex -0.009162 0.109523 0.002032
  endloop
 endfacet
 facet normal -0.886806 -0.451991 -0.0963284
  outer loop
   vertex -0.011801 0.11325 -0.00048
   vertex -0.010908 0.112087 -0.003244
   vertex -0.01038 0.110462 -0.00048
  endloop
 endfacet
 facet normal -0.794662 -0.577331 -0.18762
  outer loop
   vertex -0.010908 0.112087 -0.003244
   vertex -0.008998 0.109458 -0.003244
   vertex -0.01038 0.110462 -0.00048
  endloop
 endfacet
 facet normal -0.703824 -0.703824 -0.0962537
  outer loop
   vertex -0.01038 0.110462 -0.00048
   vertex -0.008998 0.109458 -0.003244
   vertex -0.008168 0.10825 -0.00048
  endloop
 endfacet
 facet normal -0.578519 -0.796783 -0.174509
  outer loop
   vertex -0.008998 0.109458 -0.003244
   vertex -0.00665 0.107698 -0.002992
   vertex -0.008168 0.10825 -0.00048
  endloop
 endfacet
 facet normal -0.89641 -0.274294 -0.348155
  outer loop
   vertex -0.011856 0.114864 -0.002991
   vertex -0.010601 0.113951 -0.005503
   vertex -0.010908 0.112087 -0.003244
  endloop
 endfacet
 facet normal -0.803858 -0.400541 -0.439749
  outer loop
   vertex -0.010601 0.113951 -0.005503
   vertex -0.009172 0.11134 -0.005737
   vertex -0.010908 0.112087 -0.003244
  endloop
 endfacet
 facet normal -0.754436 -0.548107 -0.361117
  outer loop
   vertex -0.010908 0.112087 -0.003244
   vertex -0.009172 0.11134 -0.005737
   vertex -0.008998 0.109458 -0.003244
  endloop
 endfacet
 facet normal -0.629279 -0.640767 -0.439803
  outer loop
   vertex -0.009172 0.11134 -0.005737
   vertex -0.00713 0.109174 -0.005503
   vertex -0.008998 0.109458 -0.003244
  endloop
 endfacet
 facet normal -0.537986 -0.767602 -0.348366
  outer loop
   vertex -0.008998 0.109458 -0.003244
   vertex -0.00713 0.109174 -0.005503
   vertex -0.00665 0.107698 -0.002992
  endloop
 endfacet
 facet normal -0.420269 -0.815078 -0.398776
  outer loop
   vertex -0.00713 0.109174 -0.005503
   vertex -0.005054 0.107834 -0.004952
   vertex -0.00665 0.107698 -0.002992
  endloop
 endfacet
 facet normal 0.294416 -0.906493 0.302638
  outer loop
   vertex -0.000738 0.106786 0.002032
   vertex 0.00207 0.107698 0.002032
   vertex 0.000474 0.107834 0.003992
  endloop
 endfacet
 facet normal 0.155824 -0.984657 0.07855
  outer loop
   vertex -0.00229 0.10634 -0.00048
   vertex 0.0008 0.106829 -0.00048
   vertex -0.000738 0.106786 0.002032
  endloop
 endfacet
 facet normal -0.000555151 -0.98466 -0.174481
  outer loop
   vertex -0.003842 0.106786 -0.002992
   vertex -0.000908 0.106829 -0.003244
   vertex -0.00229 0.10634 -0.00048
  endloop
 endfacet
 facet normal 0.304389 -0.937197 0.170322
  outer loop
   vertex -0.000738 0.106786 0.002032
   vertex 0.0008 0.106829 -0.00048
   vertex 0.00207 0.107698 0.002032
  endloop
 endfacet
 facet normal 0.452705 -0.888208 0.0783901
  outer loop
   vertex 0.0008 0.106829 -0.00048
   vertex 0.003588 0.10825 -0.00048
   vertex 0.00207 0.107698 0.002032
  endloop
 endfacet
 facet normal 0.155583 -0.983133 -0.0961419
  outer loop
   vertex -0.00229 0.10634 -0.00048
   vertex -0.000908 0.106829 -0.003244
   vertex 0.0008 0.106829 -0.00048
  endloop
 endfacet
 facet normal 0.303796 -0.934059 -0.187729
  outer loop
   vertex -0.000908 0.106829 -0.003244
   vertex 0.002182 0.107834 -0.003244
   vertex 0.0008 0.106829 -0.00048
  endloop
 endfacet
 facet normal 0.451986 -0.886796 -0.0964489
  outer loop
   vertex 0.0008 0.106829 -0.00048
   vertex 0.002182 0.107834 -0.003244
   vertex 0.003588 0.10825 -0.00048
  endloop
 endfacet
 facet normal 0.578874 -0.796508 -0.174584
  outer loop
   vertex 0.002182 0.107834 -0.003244
   vertex 0.004582 0.109523 -0.002992
   vertex 0.003588 0.10825 -0.00048
  endloop
 endfacet
 facet normal -0.0161962 -0.937175 -0.348485
  outer loop
   vertex -0.003842 0.106786 -0.002992
   vertex -0.002586 0.107698 -0.005503
   vertex -0.000908 0.106829 -0.003244
  endloop
 endfacet
 facet normal 0.132412 -0.888171 -0.440021
  outer loop
   vertex -0.002586 0.107698 -0.005503
   vertex 0.000339 0.10825 -0.005737
   vertex -0.000908 0.106829 -0.003244
  endloop
 endfacet
 facet normal 0.288415 -0.886769 -0.361189
  outer loop
   vertex -0.000908 0.106829 -0.003244
   vertex 0.000339 0.10825 -0.005737
   vertex 0.002182 0.107834 -0.003244
  endloop
 endfacet
 facet normal 0.415138 -0.796394 -0.439791
  outer loop
   vertex 0.000339 0.10825 -0.005737
   vertex 0.003029 0.109523 -0.005503
   vertex 0.002182 0.107834 -0.003244
  endloop
 endfacet
 facet normal 0.563623 -0.748876 -0.348589
  outer loop
   vertex 0.002182 0.107834 -0.003244
   vertex 0.003029 0.109523 -0.005503
   vertex 0.004582 0.109523 -0.002992
  endloop
 endfacet
 facet normal 0.645038 -0.651744 -0.398942
  outer loop
   vertex 0.003029 0.109523 -0.005503
   vertex 0.004946 0.111083 -0.004952
   vertex 0.004582 0.109523 -0.002992
  endloop
 endfacet
 facet normal 0.9532 -0 0.302341
  outer loop
   vertex 0.007276 0.114864 0.002031
   vertex 0.007276 0.117816 0.002031
   vertex 0.006654 0.11634 0.003992
  endloop
 endfacet
 facet normal 0.984653 -0.155824 0.0785916
  outer loop
   vertex 0.007221 0.11325 -0.00048
   vertex 0.00771 0.11634 -0.00048
   vertex 0.007276 0.114864 0.002031
  endloop
 endfacet
 facet normal 0.936352 -0.304548 -0.174631
  outer loop
   vertex 0.006317 0.111911 -0.002992
   vertex 0.007182 0.114715 -0.003244
   vertex 0.007221 0.11325 -0.00048
  endloop
 endfacet
 facet normal 0.98539 -0 0.170314
  outer loop
   vertex 0.007276 0.114864 0.002031
   vertex 0.00771 0.11634 -0.00048
   vertex 0.007276 0.117816 0.002031
  endloop
 endfacet
 facet normal 0.984653 0.155824 0.0785916
  outer loop
   vertex 0.00771 0.11634 -0.00048
   vertex 0.007221 0.11943 -0.00048
   vertex 0.007276 0.117816 0.002031
  endloop
 endfacet
 facet normal 0.983115 -0.15558 -0.0963335
  outer loop
   vertex 0.007221 0.11325 -0.00048
   vertex 0.007182 0.114715 -0.003244
   vertex 0.00771 0.11634 -0.00048
  endloop
 endfacet
 facet normal 0.982239 0 -0.187634
  outer loop
   vertex 0.007182 0.114715 -0.003244
   vertex 0.007182 0.117965 -0.003244
   vertex 0.00771 0.11634 -0.00048
  endloop
 endfacet
 facet normal 0.983115 0.15558 -0.0963335
  outer loop
   vertex 0.00771 0.11634 -0.00048
   vertex 0.007182 0.117965 -0.003244
   vertex 0.007221 0.11943 -0.00048
  endloop
 endfacet
 facet normal 0.936352 0.304548 -0.174631
  outer loop
   vertex 0.007182 0.117965 -0.003244
   vertex 0.006317 0.120769 -0.002992
   vertex 0.007221 0.11943 -0.00048
  endloop
 endfacet
 facet normal 0.886309 -0.304753 -0.348685
  outer loop
   vertex 0.006317 0.111911 -0.002992
   vertex 0.005837 0.113388 -0.005503
   vertex 0.007182 0.114715 -0.003244
  endloop
 endfacet
 facet normal 0.885615 -0.148581 -0.440011
  outer loop
   vertex 0.005837 0.113388 -0.005503
   vertex 0.006216 0.11634 -0.005737
   vertex 0.007182 0.114715 -0.003244
  endloop
 endfacet
 facet normal 0.932446 0 -0.361309
  outer loop
   vertex 0.007182 0.114715 -0.003244
   vertex 0.006216 0.11634 -0.005737
   vertex 0.007182 0.117965 -0.003244
  endloop
 endfacet
 facet normal 0.885615 0.148581 -0.440011
  outer loop
   vertex 0.006216 0.11634 -0.005737
   vertex 0.005837 0.119292 -0.005503
   vertex 0.007182 0.117965 -0.003244
  endloop
 endfacet
 facet normal 0.886309 0.304753 -0.348685
  outer loop
   vertex 0.007182 0.117965 -0.003244
   vertex 0.005837 0.119292 -0.005503
   vertex 0.006317 0.120769 -0.002992
  endloop
 endfacet
 facet normal 0.819189 0.412026 -0.398954
  outer loop
   vertex 0.005837 0.119292 -0.005503
   vertex 0.004946 0.121597 -0.004952
   vertex 0.006317 0.120769 -0.002992
  endloop
 endfacet
 facet normal 0.61533 0.560308 -0.554459
  outer loop
   vertex 0.003805 0.120769 -0.007055
   vertex 0.003029 0.123157 -0.005503
   vertex 0.004946 0.121597 -0.004952
  endloop
 endfacet
 facet normal 0.467426 0.452641 -0.759361
  outer loop
   vertex 0.001963 0.11943 -0.008987
   vertex 0.001328 0.122218 -0.007716
   vertex 0.003805 0.120769 -0.007055
  endloop
 endfacet
 facet normal 0.262485 0.303841 -0.915851
  outer loop
   vertex -0.000258 0.117816 -0.010159
   vertex -0.000908 0.120593 -0.009424
   vertex 0.001963 0.11943 -0.008987
  endloop
 endfacet
 facet normal 0.508799 0.579247 -0.636864
  outer loop
   vertex 0.003805 0.120769 -0.007055
   vertex 0.001328 0.122218 -0.007716
   vertex 0.003029 0.123157 -0.005503
  endloop
 endfacet
 facet normal 0.38541 0.704977 -0.595371
  outer loop
   vertex 0.001328 0.122218 -0.007716
   vertex 0.000339 0.12443 -0.005737
   vertex 0.003029 0.123157 -0.005503
  endloop
 endfacet
 facet normal 0.310374 0.451949 -0.836307
  outer loop
   vertex 0.001963 0.11943 -0.008987
   vertex -0.000908 0.120593 -0.009424
   vertex 0.001328 0.122218 -0.007716
  endloop
 endfacet
 facet normal 0.187559 0.577248 -0.794737
  outer loop
   vertex -0.000908 0.120593 -0.009424
   vertex -0.001762 0.123222 -0.007716
   vertex 0.001328 0.122218 -0.007716
  endloop
 endfacet
 facet normal 0.228709 0.703897 -0.672474
  outer loop
   vertex 0.001328 0.122218 -0.007716
   vertex -0.001762 0.123222 -0.007716
   vertex 0.000339 0.12443 -0.005737
  endloop
 endfacet
 facet normal 0.102735 0.796801 -0.595444
  outer loop
   vertex -0.001762 0.123222 -0.007716
   vertex -0.002586 0.124982 -0.005503
   vertex 0.000339 0.12443 -0.005737
  endloop
 endfacet
 facet normal 0.0891868 0.274301 -0.957499
  outer loop
   vertex -0.000258 0.117816 -0.010159
   vertex -0.003066 0.118729 -0.010159
   vertex -0.000908 0.120593 -0.009424
  endloop
 endfacet
 facet normal -0.0336945 0.400135 -0.915836
  outer loop
   vertex -0.003066 0.118729 -0.010159
   vertex -0.003915 0.12134 -0.008987
   vertex -0.000908 0.120593 -0.009424
  endloop
 endfacet
 facet normal 0.0146149 0.548074 -0.836302
  outer loop
   vertex -0.000908 0.120593 -0.009424
   vertex -0.003915 0.12134 -0.008987
   vertex -0.001762 0.123222 -0.007716
  endloop
 endfacet
 facet normal -0.112009 0.640965 -0.759354
  outer loop
   vertex -0.003915 0.12134 -0.008987
   vertex -0.004618 0.123506 -0.007055
   vertex -0.001762 0.123222 -0.007716
  endloop
 endfacet
 facet normal -0.0710868 0.767617 -0.636955
  outer loop
   vertex -0.001762 0.123222 -0.007716
   vertex -0.004618 0.123506 -0.007055
   vertex -0.002586 0.124982 -0.005503
  endloop
 endfacet
 facet normal -0.168666 0.815046 -0.554303
  outer loop
   vertex -0.004618 0.123506 -0.007055
   vertex -0.005054 0.124846 -0.004952
   vertex -0.002586 0.124982 -0.005503
  endloop
 endfacet
 facet normal -0.342493 0.758552 -0.554344
  outer loop
   vertex -0.004618 0.123506 -0.007055
   vertex -0.00713 0.123506 -0.005503
   vertex -0.005054 0.124846 -0.004952
  endloop
 endfacet
 facet normal -0.286233 0.584386 -0.759318
  outer loop
   vertex -0.003915 0.12134 -0.008987
   vertex -0.006762 0.121597 -0.007716
   vertex -0.004618 0.123506 -0.007055
  endloop
 endfacet
 facet normal -0.207851 0.343516 -0.915858
  outer loop
   vertex -0.003066 0.118729 -0.010159
   vertex -0.005908 0.118969 -0.009424
   vertex -0.003915 0.12134 -0.008987
  endloop
 endfacet
 facet normal -0.393627 0.662685 -0.637108
  outer loop
   vertex -0.004618 0.123506 -0.007055
   vertex -0.006762 0.121597 -0.007716
   vertex -0.00713 0.123506 -0.005503
  endloop
 endfacet
 facet normal -0.551379 0.584158 -0.595601
  outer loop
   vertex -0.006762 0.121597 -0.007716
   vertex -0.009172 0.12134 -0.005737
   vertex -0.00713 0.123506 -0.005503
  endloop
 endfacet
 facet normal -0.334054 0.43492 -0.836213
  outer loop
   vertex -0.003915 0.12134 -0.008987
   vertex -0.005908 0.118969 -0.009424
   vertex -0.006762 0.121597 -0.007716
  endloop
 endfacet
 facet normal -0.491058 0.356895 -0.794662
  outer loop
   vertex -0.005908 0.118969 -0.009424
   vertex -0.008672 0.118969 -0.007716
   vertex -0.006762 0.121597 -0.007716
  endloop
 endfacet
 facet normal -0.598657 0.435097 -0.672533
  outer loop
   vertex -0.006762 0.121597 -0.007716
   vertex -0.008672 0.118969 -0.007716
   vertex -0.009172 0.12134 -0.005737
  endloop
 endfacet
 facet normal -0.725985 0.343961 -0.595514
  outer loop
   vertex -0.008672 0.118969 -0.007716
   vertex -0.010601 0.118729 -0.005503
   vertex -0.009172 0.12134 -0.005737
  endloop
 endfacet
 facet normal -0.233325 0.169451 -0.957521
  outer loop
   vertex -0.003066 0.118729 -0.010159
   vertex -0.004801 0.11634 -0.010159
   vertex -0.005908 0.118969 -0.009424
  endloop
 endfacet
 facet normal -0.390899 0.0914587 -0.915878
  outer loop
   vertex -0.004801 0.11634 -0.010159
   vertex -0.007547 0.11634 -0.008987
   vertex -0.005908 0.118969 -0.009424
  endloop
 endfacet
 facet normal -0.516783 0.183167 -0.836293
  outer loop
   vertex -0.005908 0.118969 -0.009424
   vertex -0.007547 0.11634 -0.008987
   vertex -0.008672 0.118969 -0.007716
  endloop
 endfacet
 facet normal -0.644269 0.0913996 -0.759317
  outer loop
   vertex -0.007547 0.11634 -0.008987
   vertex -0.009824 0.11634 -0.007055
   vertex -0.008672 0.118969 -0.007716
  endloop
 endfacet
 facet normal -0.751958 0.169318 -0.637095
  outer loop
   vertex -0.008672 0.118969 -0.007716
   vertex -0.009824 0.11634 -0.007055
   vertex -0.010601 0.118729 -0.005503
  endloop
 endfacet
 facet normal -0.827124 0.091254 -0.554562
  outer loop
   vertex -0.009824 0.11634 -0.007055
   vertex -0.011234 0.11634 -0.004952
   vertex -0.010601 0.118729 -0.005503
  endloop
 endfacet
 facet normal -0.827124 -0.091254 -0.554562
  outer loop
   vertex -0.009824 0.11634 -0.007055
   vertex -0.010601 0.113951 -0.005503
   vertex -0.011234 0.11634 -0.004952
  endloop
 endfacet
 facet normal -0.644269 -0.0913996 -0.759317
  outer loop
   vertex -0.007547 0.11634 -0.008987
   vertex -0.008672 0.113711 -0.007716
   vertex -0.009824 0.11634 -0.007055
  endloop
 endfacet
 facet normal -0.390899 -0.0914587 -0.915878
  outer loop
   vertex -0.004801 0.11634 -0.010159
   vertex -0.005908 0.113711 -0.009424
   vertex -0.007547 0.11634 -0.008987
  endloop
 endfacet
 facet normal -0.751958 -0.169318 -0.637095
  outer loop
   vertex -0.009824 0.11634 -0.007055
   vertex -0.008672 0.113711 -0.007716
   vertex -0.010601 0.113951 -0.005503
  endloop
 endfacet
 facet normal -0.725985 -0.343961 -0.595514
  outer loop
   vertex -0.008672 0.113711 -0.007716
   vertex -0.009172 0.11134 -0.005737
   vertex -0.010601 0.113951 -0.005503
  endloop
 endfacet
 facet normal -0.516783 -0.183167 -0.836293
  outer loop
   vertex -0.007547 0.11634 -0.008987
   vertex -0.005908 0.113711 -0.009424
   vertex -0.008672 0.113711 -0.007716
  endloop
 endfacet
 facet normal -0.491058 -0.356895 -0.794662
  outer loop
   vertex -0.005908 0.113711 -0.009424
   vertex -0.006762 0.111083 -0.007716
   vertex -0.008672 0.113711 -0.007716
  endloop
 endfacet
 facet normal -0.598657 -0.435097 -0.672533
  outer loop
   vertex -0.008672 0.113711 -0.007716
   vertex -0.006762 0.111083 -0.007716
   vertex -0.009172 0.11134 -0.005737
  endloop
 endfacet
 facet normal -0.551379 -0.584158 -0.595601
  outer loop
   vertex -0.006762 0.111083 -0.007716
   vertex -0.00713 0.109174 -0.005503
   vertex -0.009172 0.11134 -0.005737
  endloop
 endfacet
 facet normal -0.233325 -0.169451 -0.957521
  outer loop
   vertex -0.004801 0.11634 -0.010159
   vertex -0.003066 0.113951 -0.010159
   vertex -0.005908 0.113711 -0.009424
  endloop
 endfacet
 facet normal -0.207851 -0.343516 -0.915858
  outer loop
   vertex -0.003066 0.113951 -0.010159
   vertex -0.003915 0.11134 -0.008987
   vertex -0.005908 0.113711 -0.009424
  endloop
 endfacet
 facet normal -0.334054 -0.43492 -0.836213
  outer loop
   vertex -0.005908 0.113711 -0.009424
   vertex -0.003915 0.11134 -0.008987
   vertex -0.006762 0.111083 -0.007716
  endloop
 endfacet
 facet normal -0.286233 -0.584386 -0.759318
  outer loop
   vertex -0.003915 0.11134 -0.008987
   vertex -0.004618 0.109174 -0.007055
   vertex -0.006762 0.111083 -0.007716
  endloop
 endfacet
 facet normal -0.393627 -0.662685 -0.637108
  outer loop
   vertex -0.006762 0.111083 -0.007716
   vertex -0.004618 0.109174 -0.007055
   vertex -0.00713 0.109174 -0.005503
  endloop
 endfacet
 facet normal -0.342493 -0.758552 -0.554344
  outer loop
   vertex -0.004618 0.109174 -0.007055
   vertex -0.005054 0.107834 -0.004952
   vertex -0.00713 0.109174 -0.005503
  endloop
 endfacet
 facet normal 0.723015 0.412034 -0.554506
  outer loop
   vertex 0.005837 0.119292 -0.005503
   vertex 0.003805 0.120769 -0.007055
   vertex 0.004946 0.121597 -0.004952
  endloop
 endfacet
 facet normal 0.789589 0.148568 -0.59538
  outer loop
   vertex 0.006216 0.11634 -0.005737
   vertex 0.004418 0.117965 -0.007716
   vertex 0.005837 0.119292 -0.005503
  endloop
 endfacet
 facet normal 0.789589 -0.148568 -0.59538
  outer loop
   vertex 0.005837 0.113388 -0.005503
   vertex 0.004418 0.114715 -0.007716
   vertex 0.006216 0.11634 -0.005737
  endloop
 endfacet
 facet normal 0.708089 0.304936 -0.636886
  outer loop
   vertex 0.005837 0.119292 -0.005503
   vertex 0.004418 0.117965 -0.007716
   vertex 0.003805 0.120769 -0.007055
  endloop
 endfacet
 facet normal 0.574948 0.304695 -0.759339
  outer loop
   vertex 0.004418 0.117965 -0.007716
   vertex 0.001963 0.11943 -0.008987
   vertex 0.003805 0.120769 -0.007055
  endloop
 endfacet
 facet normal 0.740143 0 -0.672449
  outer loop
   vertex 0.006216 0.11634 -0.005737
   vertex 0.004418 0.114715 -0.007716
   vertex 0.004418 0.117965 -0.007716
  endloop
 endfacet
 facet normal 0.607028 0 -0.794681
  outer loop
   vertex 0.004418 0.114715 -0.007716
   vertex 0.002182 0.11634 -0.009424
   vertex 0.004418 0.117965 -0.007716
  endloop
 endfacet
 facet normal 0.525774 0.155534 -0.836284
  outer loop
   vertex 0.004418 0.117965 -0.007716
   vertex 0.002182 0.11634 -0.009424
   vertex 0.001963 0.11943 -0.008987
  endloop
 endfacet
 facet normal 0.370096 0.155752 -0.915844
  outer loop
   vertex 0.002182 0.11634 -0.009424
   vertex -0.000258 0.117816 -0.010159
   vertex 0.001963 0.11943 -0.008987
  endloop
 endfacet
 facet normal 0.708089 -0.304936 -0.636886
  outer loop
   vertex 0.005837 0.113388 -0.005503
   vertex 0.003805 0.111911 -0.007055
   vertex 0.004418 0.114715 -0.007716
  endloop
 endfacet
 facet normal 0.574948 -0.304695 -0.759339
  outer loop
   vertex 0.003805 0.111911 -0.007055
   vertex 0.001963 0.11325 -0.008987
   vertex 0.004418 0.114715 -0.007716
  endloop
 endfacet
 facet normal 0.525774 -0.155534 -0.836284
  outer loop
   vertex 0.004418 0.114715 -0.007716
   vertex 0.001963 0.11325 -0.008987
   vertex 0.002182 0.11634 -0.009424
  endloop
 endfacet
 facet normal 0.370096 -0.155752 -0.915844
  outer loop
   vertex 0.001963 0.11325 -0.008987
   vertex -0.000258 0.114864 -0.010159
   vertex 0.002182 0.11634 -0.009424
  endloop
 endfacet
 facet normal 0.288428 0 -0.957502
  outer loop
   vertex 0.002182 0.11634 -0.009424
   vertex -0.000258 0.114864 -0.010159
   vertex -0.000258 0.117816 -0.010159
  endloop
 endfacet
 facet normal 0.156037 0 -0.987751
  outer loop
   vertex -0.000258 0.114864 -0.010159
   vertex -0.00229 0.11634 -0.01048
   vertex -0.000258 0.117816 -0.010159
  endloop
 endfacet
 facet normal -0.168666 -0.815046 -0.554303
  outer loop
   vertex -0.004618 0.109174 -0.007055
   vertex -0.002586 0.107698 -0.005503
   vertex -0.005054 0.107834 -0.004952
  endloop
 endfacet
 facet normal -0.112009 -0.640965 -0.759354
  outer loop
   vertex -0.003915 0.11134 -0.008987
   vertex -0.001762 0.109458 -0.007716
   vertex -0.004618 0.109174 -0.007055
  endloop
 endfacet
 facet normal -0.0336945 -0.400135 -0.915836
  outer loop
   vertex -0.003066 0.113951 -0.010159
   vertex -0.000908 0.112087 -0.009424
   vertex -0.003915 0.11134 -0.008987
  endloop
 endfacet
 facet normal -0.0710868 -0.767617 -0.636955
  outer loop
   vertex -0.004618 0.109174 -0.007055
   vertex -0.001762 0.109458 -0.007716
   vertex -0.002586 0.107698 -0.005503
  endloop
 endfacet
 facet normal 0.102735 -0.796801 -0.595444
  outer loop
   vertex -0.001762 0.109458 -0.007716
   vertex 0.000339 0.10825 -0.005737
   vertex -0.002586 0.107698 -0.005503
  endloop
 endfacet
 facet normal 0.0146149 -0.548074 -0.836302
  outer loop
   vertex -0.003915 0.11134 -0.008987
   vertex -0.000908 0.112087 -0.009424
   vertex -0.001762 0.109458 -0.007716
  endloop
 endfacet
 facet normal 0.187559 -0.577248 -0.794737
  outer loop
   vertex -0.000908 0.112087 -0.009424
   vertex 0.001328 0.110462 -0.007716
   vertex -0.001762 0.109458 -0.007716
  endloop
 endfacet
 facet normal 0.228709 -0.703897 -0.672474
  outer loop
   vertex -0.001762 0.109458 -0.007716
   vertex 0.001328 0.110462 -0.007716
   vertex 0.000339 0.10825 -0.005737
  endloop
 endfacet
 facet normal 0.38541 -0.704977 -0.595371
  outer loop
   vertex 0.001328 0.110462 -0.007716
   vertex 0.003029 0.109523 -0.005503
   vertex 0.000339 0.10825 -0.005737
  endloop
 endfacet
 facet normal 0.0891868 -0.274301 -0.957499
  outer loop
   vertex -0.003066 0.113951 -0.010159
   vertex -0.000258 0.114864 -0.010159
   vertex -0.000908 0.112087 -0.009424
  endloop
 endfacet
 facet normal 0.262485 -0.303841 -0.915851
  outer loop
   vertex -0.000258 0.114864 -0.010159
   vertex 0.001963 0.11325 -0.008987
   vertex -0.000908 0.112087 -0.009424
  endloop
 endfacet
 facet normal 0.310374 -0.451949 -0.836307
  outer loop
   vertex -0.000908 0.112087 -0.009424
   vertex 0.001963 0.11325 -0.008987
   vertex 0.001328 0.110462 -0.007716
  endloop
 endfacet
 facet normal 0.467426 -0.452641 -0.759361
  outer loop
   vertex 0.001963 0.11325 -0.008987
   vertex 0.003805 0.111911 -0.007055
   vertex 0.001328 0.110462 -0.007716
  endloop
 endfacet
 facet normal 0.508799 -0.579247 -0.636864
  outer loop
   vertex 0.001328 0.110462 -0.007716
   vertex 0.003805 0.111911 -0.007055
   vertex 0.003029 0.109523 -0.005503
  endloop
 endfacet
 facet normal 0.61533 -0.560308 -0.554459
  outer loop
   vertex 0.003805 0.111911 -0.007055
   vertex 0.004946 0.111083 -0.004952
   vertex 0.003029 0.109523 -0.005503
  endloop
 endfacet
endsolid ExportedfromBlender-3.5.1
