solid ExportedfromBlender-3.5.1
 facet normal 0.0482486 -0.148392 -0.987751
  outer loop
   vertex 0.02169 0.1852 0.01412
   vertex 0.023722 0.183724 0.014441
   vertex 0.020914 0.182811 0.014441
  endloop
 endfacet
 facet normal 0.723015 -0.412034 -0.554506
  outer loop
   vertex 0.028926 0.179943 0.019648
   vertex 0.027785 0.180771 0.017545
   vertex 0.029817 0.182248 0.019097
  endloop
 endfacet
 facet normal -0.126271 -0.0917039 -0.987748
  outer loop
   vertex 0.02169 0.1852 0.01412
   vertex 0.020914 0.182811 0.014441
   vertex 0.019179 0.1852 0.014441
  endloop
 endfacet
 facet normal -0.126271 0.0917039 -0.987748
  outer loop
   vertex 0.02169 0.1852 0.01412
   vertex 0.019179 0.1852 0.014441
   vertex 0.020914 0.187589 0.014441
  endloop
 endfacet
 facet normal 0.0482486 0.148392 -0.987751
  outer loop
   vertex 0.02169 0.1852 0.01412
   vertex 0.020914 0.187589 0.014441
   vertex 0.023722 0.186676 0.014441
  endloop
 endfacet
 facet normal 0.819189 -0.412026 -0.398954
  outer loop
   vertex 0.028926 0.179943 0.019648
   vertex 0.029817 0.182248 0.019097
   vertex 0.030297 0.180771 0.021608
  endloop
 endfacet
 facet normal -0.138975 -0.90647 -0.398746
  outer loop
   vertex 0.018926 0.176694 0.019648
   vertex 0.021394 0.176558 0.019097
   vertex 0.020138 0.175646 0.021608
  endloop
 endfacet
 facet normal -0.905177 -0.147939 -0.398459
  outer loop
   vertex 0.012746 0.1852 0.019648
   vertex 0.013379 0.182811 0.019097
   vertex 0.012124 0.183724 0.021609
  endloop
 endfacet
 facet normal -0.420269 0.815078 -0.398776
  outer loop
   vertex 0.018926 0.193706 0.019648
   vertex 0.01685 0.192366 0.019097
   vertex 0.01733 0.193842 0.021608
  endloop
 endfacet
 facet normal 0.645038 0.651744 -0.398942
  outer loop
   vertex 0.028926 0.190457 0.019648
   vertex 0.027009 0.192017 0.019097
   vertex 0.028562 0.192017 0.021608
  endloop
 endfacet
 facet normal 0.771063 -0.560215 -0.302688
  outer loop
   vertex 0.028926 0.179943 0.019648
   vertex 0.030297 0.180771 0.021608
   vertex 0.028562 0.178383 0.021608
  endloop
 endfacet
 facet normal -0.294416 -0.906493 -0.302638
  outer loop
   vertex 0.018926 0.176694 0.019648
   vertex 0.020138 0.175646 0.021608
   vertex 0.01733 0.176558 0.021608
  endloop
 endfacet
 facet normal -0.9532 0 -0.302341
  outer loop
   vertex 0.012746 0.1852 0.019648
   vertex 0.012124 0.183724 0.021609
   vertex 0.012124 0.186676 0.021609
  endloop
 endfacet
 facet normal -0.294416 0.906493 -0.302638
  outer loop
   vertex 0.018926 0.193706 0.019648
   vertex 0.01733 0.193842 0.021608
   vertex 0.020138 0.194754 0.021608
  endloop
 endfacet
 facet normal 0.771063 0.560215 -0.302688
  outer loop
   vertex 0.028926 0.190457 0.019648
   vertex 0.028562 0.192017 0.021608
   vertex 0.030297 0.189629 0.021608
  endloop
 endfacet
 facet normal 0.342493 -0.758552 0.554344
  outer loop
   vertex 0.024454 0.176694 0.028592
   vertex 0.02653 0.178034 0.029143
   vertex 0.024018 0.178034 0.030695
  endloop
 endfacet
 facet normal -0.61533 -0.560308 0.554459
  outer loop
   vertex 0.014454 0.179943 0.028592
   vertex 0.016371 0.178383 0.029143
   vertex 0.015595 0.180771 0.030695
  endloop
 endfacet
 facet normal -0.723015 0.412034 0.554506
  outer loop
   vertex 0.014454 0.190457 0.028592
   vertex 0.013563 0.188152 0.029143
   vertex 0.015595 0.189629 0.030695
  endloop
 endfacet
 facet normal 0.168666 0.815046 0.554303
  outer loop
   vertex 0.024454 0.193706 0.028592
   vertex 0.021986 0.193842 0.029143
   vertex 0.024018 0.192366 0.030695
  endloop
 endfacet
 facet normal 0.827124 0.091254 0.554562
  outer loop
   vertex 0.030634 0.1852 0.028592
   vertex 0.030001 0.187589 0.029143
   vertex 0.029224 0.1852 0.030695
  endloop
 endfacet
 facet normal 0.126271 0.0917039 0.987748
  outer loop
   vertex 0.024201 0.1852 0.033799
   vertex 0.022466 0.187589 0.033799
   vertex 0.02169 0.1852 0.03412
  endloop
 endfacet
 facet normal 0.390899 0.0914587 0.915878
  outer loop
   vertex 0.026947 0.1852 0.032627
   vertex 0.025308 0.187829 0.033064
   vertex 0.024201 0.1852 0.033799
  endloop
 endfacet
 facet normal 0.644269 0.0913996 0.759317
  outer loop
   vertex 0.029224 0.1852 0.030695
   vertex 0.028072 0.187829 0.031356
   vertex 0.026947 0.1852 0.032627
  endloop
 endfacet
 facet normal 0.233325 0.169451 0.957521
  outer loop
   vertex 0.024201 0.1852 0.033799
   vertex 0.025308 0.187829 0.033064
   vertex 0.022466 0.187589 0.033799
  endloop
 endfacet
 facet normal 0.207851 0.343516 0.915858
  outer loop
   vertex 0.025308 0.187829 0.033064
   vertex 0.023315 0.1902 0.032627
   vertex 0.022466 0.187589 0.033799
  endloop
 endfacet
 facet normal 0.516783 0.183167 0.836293
  outer loop
   vertex 0.026947 0.1852 0.032627
   vertex 0.028072 0.187829 0.031356
   vertex 0.025308 0.187829 0.033064
  endloop
 endfacet
 facet normal 0.491058 0.356895 0.794662
  outer loop
   vertex 0.028072 0.187829 0.031356
   vertex 0.026162 0.190457 0.031356
   vertex 0.025308 0.187829 0.033064
  endloop
 endfacet
 facet normal 0.334054 0.43492 0.836213
  outer loop
   vertex 0.025308 0.187829 0.033064
   vertex 0.026162 0.190457 0.031356
   vertex 0.023315 0.1902 0.032627
  endloop
 endfacet
 facet normal 0.286233 0.584386 0.759318
  outer loop
   vertex 0.026162 0.190457 0.031356
   vertex 0.024018 0.192366 0.030695
   vertex 0.023315 0.1902 0.032627
  endloop
 endfacet
 facet normal 0.751958 0.169318 0.637095
  outer loop
   vertex 0.029224 0.1852 0.030695
   vertex 0.030001 0.187589 0.029143
   vertex 0.028072 0.187829 0.031356
  endloop
 endfacet
 facet normal 0.725985 0.343961 0.595514
  outer loop
   vertex 0.030001 0.187589 0.029143
   vertex 0.028572 0.1902 0.029377
   vertex 0.028072 0.187829 0.031356
  endloop
 endfacet
 facet normal 0.598657 0.435097 0.672533
  outer loop
   vertex 0.028072 0.187829 0.031356
   vertex 0.028572 0.1902 0.029377
   vertex 0.026162 0.190457 0.031356
  endloop
 endfacet
 facet normal 0.551379 0.584158 0.595601
  outer loop
   vertex 0.028572 0.1902 0.029377
   vertex 0.02653 0.192366 0.029143
   vertex 0.026162 0.190457 0.031356
  endloop
 endfacet
 facet normal 0.393627 0.662685 0.637108
  outer loop
   vertex 0.026162 0.190457 0.031356
   vertex 0.02653 0.192366 0.029143
   vertex 0.024018 0.192366 0.030695
  endloop
 endfacet
 facet normal 0.342493 0.758552 0.554344
  outer loop
   vertex 0.02653 0.192366 0.029143
   vertex 0.024454 0.193706 0.028592
   vertex 0.024018 0.192366 0.030695
  endloop
 endfacet
 facet normal -0.0482486 0.148392 0.987751
  outer loop
   vertex 0.022466 0.187589 0.033799
   vertex 0.019658 0.186676 0.033799
   vertex 0.02169 0.1852 0.03412
  endloop
 endfacet
 facet normal 0.0336945 0.400135 0.915836
  outer loop
   vertex 0.023315 0.1902 0.032627
   vertex 0.020308 0.189453 0.033064
   vertex 0.022466 0.187589 0.033799
  endloop
 endfacet
 facet normal 0.112009 0.640965 0.759354
  outer loop
   vertex 0.024018 0.192366 0.030695
   vertex 0.021162 0.192082 0.031356
   vertex 0.023315 0.1902 0.032627
  endloop
 endfacet
 facet normal -0.0891868 0.274301 0.957499
  outer loop
   vertex 0.022466 0.187589 0.033799
   vertex 0.020308 0.189453 0.033064
   vertex 0.019658 0.186676 0.033799
  endloop
 endfacet
 facet normal -0.262485 0.303841 0.915851
  outer loop
   vertex 0.020308 0.189453 0.033064
   vertex 0.017437 0.18829 0.032627
   vertex 0.019658 0.186676 0.033799
  endloop
 endfacet
 facet normal -0.0146149 0.548074 0.836302
  outer loop
   vertex 0.023315 0.1902 0.032627
   vertex 0.021162 0.192082 0.031356
   vertex 0.020308 0.189453 0.033064
  endloop
 endfacet
 facet normal -0.187559 0.577248 0.794737
  outer loop
   vertex 0.021162 0.192082 0.031356
   vertex 0.018072 0.191078 0.031356
   vertex 0.020308 0.189453 0.033064
  endloop
 endfacet
 facet normal -0.310374 0.451949 0.836307
  outer loop
   vertex 0.020308 0.189453 0.033064
   vertex 0.018072 0.191078 0.031356
   vertex 0.017437 0.18829 0.032627
  endloop
 endfacet
 facet normal -0.467426 0.452641 0.759361
  outer loop
   vertex 0.018072 0.191078 0.031356
   vertex 0.015595 0.189629 0.030695
   vertex 0.017437 0.18829 0.032627
  endloop
 endfacet
 facet normal 0.0710868 0.767617 0.636955
  outer loop
   vertex 0.024018 0.192366 0.030695
   vertex 0.021986 0.193842 0.029143
   vertex 0.021162 0.192082 0.031356
  endloop
 endfacet
 facet normal -0.102735 0.796801 0.595444
  outer loop
   vertex 0.021986 0.193842 0.029143
   vertex 0.019061 0.19329 0.029377
   vertex 0.021162 0.192082 0.031356
  endloop
 endfacet
 facet normal -0.228709 0.703897 0.672474
  outer loop
   vertex 0.021162 0.192082 0.031356
   vertex 0.019061 0.19329 0.029377
   vertex 0.018072 0.191078 0.031356
  endloop
 endfacet
 facet normal -0.38541 0.704977 0.595371
  outer loop
   vertex 0.019061 0.19329 0.029377
   vertex 0.016371 0.192017 0.029143
   vertex 0.018072 0.191078 0.031356
  endloop
 endfacet
 facet normal -0.508799 0.579247 0.636864
  outer loop
   vertex 0.018072 0.191078 0.031356
   vertex 0.016371 0.192017 0.029143
   vertex 0.015595 0.189629 0.030695
  endloop
 endfacet
 facet normal -0.61533 0.560308 0.554459
  outer loop
   vertex 0.016371 0.192017 0.029143
   vertex 0.014454 0.190457 0.028592
   vertex 0.015595 0.189629 0.030695
  endloop
 endfacet
 facet normal -0.156037 0 0.987751
  outer loop
   vertex 0.019658 0.186676 0.033799
   vertex 0.019658 0.183724 0.033799
   vertex 0.02169 0.1852 0.03412
  endloop
 endfacet
 facet normal -0.370096 0.155752 0.915844
  outer loop
   vertex 0.017437 0.18829 0.032627
   vertex 0.017218 0.1852 0.033064
   vertex 0.019658 0.186676 0.033799
  endloop
 endfacet
 facet normal -0.574948 0.304695 0.759339
  outer loop
   vertex 0.015595 0.189629 0.030695
   vertex 0.014982 0.186825 0.031356
   vertex 0.017437 0.18829 0.032627
  endloop
 endfacet
 facet normal -0.288428 0 0.957502
  outer loop
   vertex 0.019658 0.186676 0.033799
   vertex 0.017218 0.1852 0.033064
   vertex 0.019658 0.183724 0.033799
  endloop
 endfacet
 facet normal -0.370096 -0.155752 0.915844
  outer loop
   vertex 0.017218 0.1852 0.033064
   vertex 0.017437 0.18211 0.032627
   vertex 0.019658 0.183724 0.033799
  endloop
 endfacet
 facet normal -0.525774 0.155534 0.836284
  outer loop
   vertex 0.017437 0.18829 0.032627
   vertex 0.014982 0.186825 0.031356
   vertex 0.017218 0.1852 0.033064
  endloop
 endfacet
 facet normal -0.607028 0 0.794681
  outer loop
   vertex 0.014982 0.186825 0.031356
   vertex 0.014982 0.183575 0.031356
   vertex 0.017218 0.1852 0.033064
  endloop
 endfacet
 facet normal -0.525774 -0.155534 0.836284
  outer loop
   vertex 0.017218 0.1852 0.033064
   vertex 0.014982 0.183575 0.031356
   vertex 0.017437 0.18211 0.032627
  endloop
 endfacet
 facet normal -0.574948 -0.304695 0.759339
  outer loop
   vertex 0.014982 0.183575 0.031356
   vertex 0.015595 0.180771 0.030695
   vertex 0.017437 0.18211 0.032627
  endloop
 endfacet
 facet normal -0.708089 0.304936 0.636886
  outer loop
   vertex 0.015595 0.189629 0.030695
   vertex 0.013563 0.188152 0.029143
   vertex 0.014982 0.186825 0.031356
  endloop
 endfacet
 facet normal -0.789589 0.148568 0.59538
  outer loop
   vertex 0.013563 0.188152 0.029143
   vertex 0.013184 0.1852 0.029377
   vertex 0.014982 0.186825 0.031356
  endloop
 endfacet
 facet normal -0.740143 0 0.672449
  outer loop
   vertex 0.014982 0.186825 0.031356
   vertex 0.013184 0.1852 0.029377
   vertex 0.014982 0.183575 0.031356
  endloop
 endfacet
 facet normal -0.789589 -0.148568 0.59538
  outer loop
   vertex 0.013184 0.1852 0.029377
   vertex 0.013563 0.182248 0.029143
   vertex 0.014982 0.183575 0.031356
  endloop
 endfacet
 facet normal -0.708089 -0.304936 0.636886
  outer loop
   vertex 0.014982 0.183575 0.031356
   vertex 0.013563 0.182248 0.029143
   vertex 0.015595 0.180771 0.030695
  endloop
 endfacet
 facet normal -0.723015 -0.412034 0.554506
  outer loop
   vertex 0.013563 0.182248 0.029143
   vertex 0.014454 0.179943 0.028592
   vertex 0.015595 0.180771 0.030695
  endloop
 endfacet
 facet normal -0.0482486 -0.148392 0.987751
  outer loop
   vertex 0.019658 0.183724 0.033799
   vertex 0.022466 0.182811 0.033799
   vertex 0.02169 0.1852 0.03412
  endloop
 endfacet
 facet normal -0.262485 -0.303841 0.915851
  outer loop
   vertex 0.017437 0.18211 0.032627
   vertex 0.020308 0.180947 0.033064
   vertex 0.019658 0.183724 0.033799
  endloop
 endfacet
 facet normal -0.467426 -0.452641 0.759361
  outer loop
   vertex 0.015595 0.180771 0.030695
   vertex 0.018072 0.179322 0.031356
   vertex 0.017437 0.18211 0.032627
  endloop
 endfacet
 facet normal -0.0891868 -0.274301 0.957499
  outer loop
   vertex 0.019658 0.183724 0.033799
   vertex 0.020308 0.180947 0.033064
   vertex 0.022466 0.182811 0.033799
  endloop
 endfacet
 facet normal 0.0336945 -0.400135 0.915836
  outer loop
   vertex 0.020308 0.180947 0.033064
   vertex 0.023315 0.1802 0.032627
   vertex 0.022466 0.182811 0.033799
  endloop
 endfacet
 facet normal -0.310374 -0.451949 0.836307
  outer loop
   vertex 0.017437 0.18211 0.032627
   vertex 0.018072 0.179322 0.031356
   vertex 0.020308 0.180947 0.033064
  endloop
 endfacet
 facet normal -0.187559 -0.577248 0.794737
  outer loop
   vertex 0.018072 0.179322 0.031356
   vertex 0.021162 0.178318 0.031356
   vertex 0.020308 0.180947 0.033064
  endloop
 endfacet
 facet normal -0.0146149 -0.548074 0.836302
  outer loop
   vertex 0.020308 0.180947 0.033064
   vertex 0.021162 0.178318 0.031356
   vertex 0.023315 0.1802 0.032627
  endloop
 endfacet
 facet normal 0.112009 -0.640965 0.759354
  outer loop
   vertex 0.021162 0.178318 0.031356
   vertex 0.024018 0.178034 0.030695
   vertex 0.023315 0.1802 0.032627
  endloop
 endfacet
 facet normal -0.508799 -0.579247 0.636864
  outer loop
   vertex 0.015595 0.180771 0.030695
   vertex 0.016371 0.178383 0.029143
   vertex 0.018072 0.179322 0.031356
  endloop
 endfacet
 facet normal -0.38541 -0.704977 0.595371
  outer loop
   vertex 0.016371 0.178383 0.029143
   vertex 0.019061 0.17711 0.029377
   vertex 0.018072 0.179322 0.031356
  endloop
 endfacet
 facet normal -0.228709 -0.703897 0.672474
  outer loop
   vertex 0.018072 0.179322 0.031356
   vertex 0.019061 0.17711 0.029377
   vertex 0.021162 0.178318 0.031356
  endloop
 endfacet
 facet normal -0.102735 -0.796801 0.595444
  outer loop
   vertex 0.019061 0.17711 0.029377
   vertex 0.021986 0.176558 0.029143
   vertex 0.021162 0.178318 0.031356
  endloop
 endfacet
 facet normal 0.0710868 -0.767617 0.636955
  outer loop
   vertex 0.021162 0.178318 0.031356
   vertex 0.021986 0.176558 0.029143
   vertex 0.024018 0.178034 0.030695
  endloop
 endfacet
 facet normal 0.168666 -0.815046 0.554303
  outer loop
   vertex 0.021986 0.176558 0.029143
   vertex 0.024454 0.176694 0.028592
   vertex 0.024018 0.178034 0.030695
  endloop
 endfacet
 facet normal 0.126271 -0.0917039 0.987748
  outer loop
   vertex 0.022466 0.182811 0.033799
   vertex 0.024201 0.1852 0.033799
   vertex 0.02169 0.1852 0.03412
  endloop
 endfacet
 facet normal 0.207851 -0.343516 0.915858
  outer loop
   vertex 0.023315 0.1802 0.032627
   vertex 0.025308 0.182571 0.033064
   vertex 0.022466 0.182811 0.033799
  endloop
 endfacet
 facet normal 0.286233 -0.584386 0.759318
  outer loop
   vertex 0.024018 0.178034 0.030695
   vertex 0.026162 0.179943 0.031356
   vertex 0.023315 0.1802 0.032627
  endloop
 endfacet
 facet normal 0.233325 -0.169451 0.957521
  outer loop
   vertex 0.022466 0.182811 0.033799
   vertex 0.025308 0.182571 0.033064
   vertex 0.024201 0.1852 0.033799
  endloop
 endfacet
 facet normal 0.390899 -0.0914587 0.915878
  outer loop
   vertex 0.025308 0.182571 0.033064
   vertex 0.026947 0.1852 0.032627
   vertex 0.024201 0.1852 0.033799
  endloop
 endfacet
 facet normal 0.334054 -0.43492 0.836213
  outer loop
   vertex 0.023315 0.1802 0.032627
   vertex 0.026162 0.179943 0.031356
   vertex 0.025308 0.182571 0.033064
  endloop
 endfacet
 facet normal 0.491058 -0.356895 0.794662
  outer loop
   vertex 0.026162 0.179943 0.031356
   vertex 0.028072 0.182571 0.031356
   vertex 0.025308 0.182571 0.033064
  endloop
 endfacet
 facet normal 0.516783 -0.183167 0.836293
  outer loop
   vertex 0.025308 0.182571 0.033064
   vertex 0.028072 0.182571 0.031356
   vertex 0.026947 0.1852 0.032627
  endloop
 endfacet
 facet normal 0.644269 -0.0913996 0.759317
  outer loop
   vertex 0.028072 0.182571 0.031356
   vertex 0.029224 0.1852 0.030695
   vertex 0.026947 0.1852 0.032627
  endloop
 endfacet
 facet normal 0.393627 -0.662685 0.637108
  outer loop
   vertex 0.024018 0.178034 0.030695
   vertex 0.02653 0.178034 0.029143
   vertex 0.026162 0.179943 0.031356
  endloop
 endfacet
 facet normal 0.551379 -0.584158 0.595601
  outer loop
   vertex 0.02653 0.178034 0.029143
   vertex 0.028572 0.1802 0.029377
   vertex 0.026162 0.179943 0.031356
  endloop
 endfacet
 facet normal 0.598657 -0.435097 0.672533
  outer loop
   vertex 0.026162 0.179943 0.031356
   vertex 0.028572 0.1802 0.029377
   vertex 0.028072 0.182571 0.031356
  endloop
 endfacet
 facet normal 0.725985 -0.343961 0.595514
  outer loop
   vertex 0.028572 0.1802 0.029377
   vertex 0.030001 0.182811 0.029143
   vertex 0.028072 0.182571 0.031356
  endloop
 endfacet
 facet normal 0.751958 -0.169318 0.637095
  outer loop
   vertex 0.028072 0.182571 0.031356
   vertex 0.030001 0.182811 0.029143
   vertex 0.029224 0.1852 0.030695
  endloop
 endfacet
 facet normal 0.827124 -0.091254 0.554562
  outer loop
   vertex 0.030001 0.182811 0.029143
   vertex 0.030634 0.1852 0.028592
   vertex 0.029224 0.1852 0.030695
  endloop
 endfacet
 facet normal 0.905177 0.147939 0.398459
  outer loop
   vertex 0.031256 0.186676 0.026631
   vertex 0.030001 0.187589 0.029143
   vertex 0.030634 0.1852 0.028592
  endloop
 endfacet
 facet normal 0.93657 0.303801 0.17476
  outer loop
   vertex 0.031201 0.18829 0.02412
   vertex 0.030308 0.189453 0.026884
   vertex 0.031256 0.186676 0.026631
  endloop
 endfacet
 facet normal 0.888212 0.452708 -0.078331
  outer loop
   vertex 0.030297 0.189629 0.021608
   vertex 0.02978 0.191078 0.02412
   vertex 0.031201 0.18829 0.02412
  endloop
 endfacet
 facet normal 0.89641 0.274294 0.348155
  outer loop
   vertex 0.031256 0.186676 0.026631
   vertex 0.030308 0.189453 0.026884
   vertex 0.030001 0.187589 0.029143
  endloop
 endfacet
 facet normal 0.803858 0.400541 0.439749
  outer loop
   vertex 0.030308 0.189453 0.026884
   vertex 0.028572 0.1902 0.029377
   vertex 0.030001 0.187589 0.029143
  endloop
 endfacet
 facet normal 0.886806 0.451991 0.0963284
  outer loop
   vertex 0.031201 0.18829 0.02412
   vertex 0.02978 0.191078 0.02412
   vertex 0.030308 0.189453 0.026884
  endloop
 endfacet
 facet normal 0.794662 0.577331 0.18762
  outer loop
   vertex 0.02978 0.191078 0.02412
   vertex 0.028398 0.192082 0.026884
   vertex 0.030308 0.189453 0.026884
  endloop
 endfacet
 facet normal 0.754436 0.548107 0.361117
  outer loop
   vertex 0.030308 0.189453 0.026884
   vertex 0.028398 0.192082 0.026884
   vertex 0.028572 0.1902 0.029377
  endloop
 endfacet
 facet normal 0.629279 0.640767 0.439803
  outer loop
   vertex 0.028398 0.192082 0.026884
   vertex 0.02653 0.192366 0.029143
   vertex 0.028572 0.1902 0.029377
  endloop
 endfacet
 facet normal 0.797233 0.579229 -0.170037
  outer loop
   vertex 0.030297 0.189629 0.021608
   vertex 0.028562 0.192017 0.021608
   vertex 0.02978 0.191078 0.02412
  endloop
 endfacet
 facet normal 0.704936 0.704936 -0.0782949
  outer loop
   vertex 0.028562 0.192017 0.021608
   vertex 0.027568 0.19329 0.02412
   vertex 0.02978 0.191078 0.02412
  endloop
 endfacet
 facet normal 0.703824 0.703824 0.0962537
  outer loop
   vertex 0.02978 0.191078 0.02412
   vertex 0.027568 0.19329 0.02412
   vertex 0.028398 0.192082 0.026884
  endloop
 endfacet
 facet normal 0.578519 0.796783 0.174509
  outer loop
   vertex 0.027568 0.19329 0.02412
   vertex 0.02605 0.193842 0.026632
   vertex 0.028398 0.192082 0.026884
  endloop
 endfacet
 facet normal 0.537986 0.767602 0.348366
  outer loop
   vertex 0.028398 0.192082 0.026884
   vertex 0.02605 0.193842 0.026632
   vertex 0.02653 0.192366 0.029143
  endloop
 endfacet
 facet normal 0.420269 0.815078 0.398776
  outer loop
   vertex 0.02605 0.193842 0.026632
   vertex 0.024454 0.193706 0.028592
   vertex 0.02653 0.192366 0.029143
  endloop
 endfacet
 facet normal 0.138975 0.90647 0.398746
  outer loop
   vertex 0.023242 0.194754 0.026632
   vertex 0.021986 0.193842 0.029143
   vertex 0.024454 0.193706 0.028592
  endloop
 endfacet
 facet normal 0.000555151 0.98466 0.174481
  outer loop
   vertex 0.02169 0.1952 0.02412
   vertex 0.020308 0.194711 0.026884
   vertex 0.023242 0.194754 0.026632
  endloop
 endfacet
 facet normal -0.155824 0.984657 -0.07855
  outer loop
   vertex 0.020138 0.194754 0.021608
   vertex 0.0186 0.194711 0.02412
   vertex 0.02169 0.1952 0.02412
  endloop
 endfacet
 facet normal 0.0161962 0.937175 0.348485
  outer loop
   vertex 0.023242 0.194754 0.026632
   vertex 0.020308 0.194711 0.026884
   vertex 0.021986 0.193842 0.029143
  endloop
 endfacet
 facet normal -0.132412 0.888171 0.440021
  outer loop
   vertex 0.020308 0.194711 0.026884
   vertex 0.019061 0.19329 0.029377
   vertex 0.021986 0.193842 0.029143
  endloop
 endfacet
 facet normal -0.155583 0.983133 0.0961419
  outer loop
   vertex 0.02169 0.1952 0.02412
   vertex 0.0186 0.194711 0.02412
   vertex 0.020308 0.194711 0.026884
  endloop
 endfacet
 facet normal -0.303796 0.934059 0.187729
  outer loop
   vertex 0.0186 0.194711 0.02412
   vertex 0.017218 0.193706 0.026884
   vertex 0.020308 0.194711 0.026884
  endloop
 endfacet
 facet normal -0.288415 0.886769 0.361189
  outer loop
   vertex 0.020308 0.194711 0.026884
   vertex 0.017218 0.193706 0.026884
   vertex 0.019061 0.19329 0.029377
  endloop
 endfacet
 facet normal -0.415138 0.796394 0.439791
  outer loop
   vertex 0.017218 0.193706 0.026884
   vertex 0.016371 0.192017 0.029143
   vertex 0.019061 0.19329 0.029377
  endloop
 endfacet
 facet normal -0.304389 0.937197 -0.170322
  outer loop
   vertex 0.020138 0.194754 0.021608
   vertex 0.01733 0.193842 0.021608
   vertex 0.0186 0.194711 0.02412
  endloop
 endfacet
 facet normal -0.452705 0.888208 -0.0783901
  outer loop
   vertex 0.01733 0.193842 0.021608
   vertex 0.015812 0.19329 0.02412
   vertex 0.0186 0.194711 0.02412
  endloop
 endfacet
 facet normal -0.451986 0.886796 0.0964489
  outer loop
   vertex 0.0186 0.194711 0.02412
   vertex 0.015812 0.19329 0.02412
   vertex 0.017218 0.193706 0.026884
  endloop
 endfacet
 facet normal -0.578874 0.796508 0.174584
  outer loop
   vertex 0.015812 0.19329 0.02412
   vertex 0.014818 0.192017 0.026632
   vertex 0.017218 0.193706 0.026884
  endloop
 endfacet
 facet normal -0.563623 0.748876 0.348589
  outer loop
   vertex 0.017218 0.193706 0.026884
   vertex 0.014818 0.192017 0.026632
   vertex 0.016371 0.192017 0.029143
  endloop
 endfacet
 facet normal -0.645038 0.651744 0.398942
  outer loop
   vertex 0.014818 0.192017 0.026632
   vertex 0.014454 0.190457 0.028592
   vertex 0.016371 0.192017 0.029143
  endloop
 endfacet
 facet normal -0.819189 0.412026 0.398954
  outer loop
   vertex 0.013083 0.189629 0.026632
   vertex 0.013563 0.188152 0.029143
   vertex 0.014454 0.190457 0.028592
  endloop
 endfacet
 facet normal -0.936352 0.304548 0.174631
  outer loop
   vertex 0.012179 0.18829 0.02412
   vertex 0.012218 0.186825 0.026884
   vertex 0.013083 0.189629 0.026632
  endloop
 endfacet
 facet normal -0.984653 0.155824 -0.0785916
  outer loop
   vertex 0.012124 0.186676 0.021609
   vertex 0.01169 0.1852 0.02412
   vertex 0.012179 0.18829 0.02412
  endloop
 endfacet
 facet normal -0.886309 0.304753 0.348685
  outer loop
   vertex 0.013083 0.189629 0.026632
   vertex 0.012218 0.186825 0.026884
   vertex 0.013563 0.188152 0.029143
  endloop
 endfacet
 facet normal -0.885615 0.148581 0.440011
  outer loop
   vertex 0.012218 0.186825 0.026884
   vertex 0.013184 0.1852 0.029377
   vertex 0.013563 0.188152 0.029143
  endloop
 endfacet
 facet normal -0.983115 0.15558 0.0963335
  outer loop
   vertex 0.012179 0.18829 0.02412
   vertex 0.01169 0.1852 0.02412
   vertex 0.012218 0.186825 0.026884
  endloop
 endfacet
 facet normal -0.982239 0 0.187634
  outer loop
   vertex 0.01169 0.1852 0.02412
   vertex 0.012218 0.183575 0.026884
   vertex 0.012218 0.186825 0.026884
  endloop
 endfacet
 facet normal -0.932446 0 0.361309
  outer loop
   vertex 0.012218 0.186825 0.026884
   vertex 0.012218 0.183575 0.026884
   vertex 0.013184 0.1852 0.029377
  endloop
 endfacet
 facet normal -0.885615 -0.148581 0.440011
  outer loop
   vertex 0.012218 0.183575 0.026884
   vertex 0.013563 0.182248 0.029143
   vertex 0.013184 0.1852 0.029377
  endloop
 endfacet
 facet normal -0.98539 -0 -0.170314
  outer loop
   vertex 0.012124 0.186676 0.021609
   vertex 0.012124 0.183724 0.021609
   vertex 0.01169 0.1852 0.02412
  endloop
 endfacet
 facet normal -0.984653 -0.155824 -0.0785916
  outer loop
   vertex 0.012124 0.183724 0.021609
   vertex 0.012179 0.18211 0.02412
   vertex 0.01169 0.1852 0.02412
  endloop
 endfacet
 facet normal -0.983115 -0.15558 0.0963335
  outer loop
   vertex 0.01169 0.1852 0.02412
   vertex 0.012179 0.18211 0.02412
   vertex 0.012218 0.183575 0.026884
  endloop
 endfacet
 facet normal -0.936352 -0.304548 0.174631
  outer loop
   vertex 0.012179 0.18211 0.02412
   vertex 0.013083 0.180771 0.026632
   vertex 0.012218 0.183575 0.026884
  endloop
 endfacet
 facet normal -0.886309 -0.304753 0.348685
  outer loop
   vertex 0.012218 0.183575 0.026884
   vertex 0.013083 0.180771 0.026632
   vertex 0.013563 0.182248 0.029143
  endloop
 endfacet
 facet normal -0.819189 -0.412026 0.398954
  outer loop
   vertex 0.013083 0.180771 0.026632
   vertex 0.014454 0.179943 0.028592
   vertex 0.013563 0.182248 0.029143
  endloop
 endfacet
 facet normal -0.645038 -0.651744 0.398942
  outer loop
   vertex 0.014818 0.178383 0.026632
   vertex 0.016371 0.178383 0.029143
   vertex 0.014454 0.179943 0.028592
  endloop
 endfacet
 facet normal -0.578874 -0.796508 0.174584
  outer loop
   vertex 0.015812 0.17711 0.02412
   vertex 0.017218 0.176694 0.026884
   vertex 0.014818 0.178383 0.026632
  endloop
 endfacet
 facet normal -0.452705 -0.888208 -0.0783901
  outer loop
   vertex 0.01733 0.176558 0.021608
   vertex 0.0186 0.175689 0.02412
   vertex 0.015812 0.17711 0.02412
  endloop
 endfacet
 facet normal -0.563623 -0.748876 0.348589
  outer loop
   vertex 0.014818 0.178383 0.026632
   vertex 0.017218 0.176694 0.026884
   vertex 0.016371 0.178383 0.029143
  endloop
 endfacet
 facet normal -0.415138 -0.796394 0.439791
  outer loop
   vertex 0.017218 0.176694 0.026884
   vertex 0.019061 0.17711 0.029377
   vertex 0.016371 0.178383 0.029143
  endloop
 endfacet
 facet normal -0.451986 -0.886796 0.0964489
  outer loop
   vertex 0.015812 0.17711 0.02412
   vertex 0.0186 0.175689 0.02412
   vertex 0.017218 0.176694 0.026884
  endloop
 endfacet
 facet normal -0.303796 -0.934059 0.187729
  outer loop
   vertex 0.0186 0.175689 0.02412
   vertex 0.020308 0.175689 0.026884
   vertex 0.017218 0.176694 0.026884
  endloop
 endfacet
 facet normal -0.288415 -0.886769 0.361189
  outer loop
   vertex 0.017218 0.176694 0.026884
   vertex 0.020308 0.175689 0.026884
   vertex 0.019061 0.17711 0.029377
  endloop
 endfacet
 facet normal -0.132412 -0.888171 0.440021
  outer loop
   vertex 0.020308 0.175689 0.026884
   vertex 0.021986 0.176558 0.029143
   vertex 0.019061 0.17711 0.029377
  endloop
 endfacet
 facet normal -0.304389 -0.937197 -0.170322
  outer loop
   vertex 0.01733 0.176558 0.021608
   vertex 0.020138 0.175646 0.021608
   vertex 0.0186 0.175689 0.02412
  endloop
 endfacet
 facet normal -0.155824 -0.984657 -0.07855
  outer loop
   vertex 0.020138 0.175646 0.021608
   vertex 0.02169 0.1752 0.02412
   vertex 0.0186 0.175689 0.02412
  endloop
 endfacet
 facet normal -0.155583 -0.983133 0.0961419
  outer loop
   vertex 0.0186 0.175689 0.02412
   vertex 0.02169 0.1752 0.02412
   vertex 0.020308 0.175689 0.026884
  endloop
 endfacet
 facet normal 0.000555151 -0.98466 0.174481
  outer loop
   vertex 0.02169 0.1752 0.02412
   vertex 0.023242 0.175646 0.026632
   vertex 0.020308 0.175689 0.026884
  endloop
 endfacet
 facet normal 0.0161962 -0.937175 0.348485
  outer loop
   vertex 0.020308 0.175689 0.026884
   vertex 0.023242 0.175646 0.026632
   vertex 0.021986 0.176558 0.029143
  endloop
 endfacet
 facet normal 0.138975 -0.90647 0.398746
  outer loop
   vertex 0.023242 0.175646 0.026632
   vertex 0.024454 0.176694 0.028592
   vertex 0.021986 0.176558 0.029143
  endloop
 endfacet
 facet normal 0.420269 -0.815078 0.398776
  outer loop
   vertex 0.02605 0.176558 0.026632
   vertex 0.02653 0.178034 0.029143
   vertex 0.024454 0.176694 0.028592
  endloop
 endfacet
 facet normal 0.578519 -0.796783 0.174509
  outer loop
   vertex 0.027568 0.17711 0.02412
   vertex 0.028398 0.178318 0.026884
   vertex 0.02605 0.176558 0.026632
  endloop
 endfacet
 facet normal 0.704936 -0.704936 -0.0782949
  outer loop
   vertex 0.028562 0.178383 0.021608
   vertex 0.02978 0.179322 0.02412
   vertex 0.027568 0.17711 0.02412
  endloop
 endfacet
 facet normal 0.537986 -0.767602 0.348366
  outer loop
   vertex 0.02605 0.176558 0.026632
   vertex 0.028398 0.178318 0.026884
   vertex 0.02653 0.178034 0.029143
  endloop
 endfacet
 facet normal 0.629279 -0.640767 0.439803
  outer loop
   vertex 0.028398 0.178318 0.026884
   vertex 0.028572 0.1802 0.029377
   vertex 0.02653 0.178034 0.029143
  endloop
 endfacet
 facet normal 0.703824 -0.703824 0.0962537
  outer loop
   vertex 0.027568 0.17711 0.02412
   vertex 0.02978 0.179322 0.02412
   vertex 0.028398 0.178318 0.026884
  endloop
 endfacet
 facet normal 0.794662 -0.577331 0.18762
  outer loop
   vertex 0.02978 0.179322 0.02412
   vertex 0.030308 0.180947 0.026884
   vertex 0.028398 0.178318 0.026884
  endloop
 endfacet
 facet normal 0.754436 -0.548107 0.361117
  outer loop
   vertex 0.028398 0.178318 0.026884
   vertex 0.030308 0.180947 0.026884
   vertex 0.028572 0.1802 0.029377
  endloop
 endfacet
 facet normal 0.803858 -0.400541 0.439749
  outer loop
   vertex 0.030308 0.180947 0.026884
   vertex 0.030001 0.182811 0.029143
   vertex 0.028572 0.1802 0.029377
  endloop
 endfacet
 facet normal 0.797233 -0.579229 -0.170037
  outer loop
   vertex 0.028562 0.178383 0.021608
   vertex 0.030297 0.180771 0.021608
   vertex 0.02978 0.179322 0.02412
  endloop
 endfacet
 facet normal 0.888212 -0.452708 -0.078331
  outer loop
   vertex 0.030297 0.180771 0.021608
   vertex 0.031201 0.18211 0.02412
   vertex 0.02978 0.179322 0.02412
  endloop
 endfacet
 facet normal 0.886806 -0.451991 0.0963284
  outer loop
   vertex 0.02978 0.179322 0.02412
   vertex 0.031201 0.18211 0.02412
   vertex 0.030308 0.180947 0.026884
  endloop
 endfacet
 facet normal 0.93657 -0.303801 0.17476
  outer loop
   vertex 0.031201 0.18211 0.02412
   vertex 0.031256 0.183724 0.026631
   vertex 0.030308 0.180947 0.026884
  endloop
 endfacet
 facet normal 0.89641 -0.274294 0.348155
  outer loop
   vertex 0.030308 0.180947 0.026884
   vertex 0.031256 0.183724 0.026631
   vertex 0.030001 0.182811 0.029143
  endloop
 endfacet
 facet normal 0.905177 -0.147939 0.398459
  outer loop
   vertex 0.031256 0.183724 0.026631
   vertex 0.030634 0.1852 0.028592
   vertex 0.030001 0.182811 0.029143
  endloop
 endfacet
 facet normal 0.294416 0.906493 0.302638
  outer loop
   vertex 0.02605 0.193842 0.026632
   vertex 0.023242 0.194754 0.026632
   vertex 0.024454 0.193706 0.028592
  endloop
 endfacet
 facet normal 0.452705 0.888208 0.0783901
  outer loop
   vertex 0.027568 0.19329 0.02412
   vertex 0.02478 0.194711 0.02412
   vertex 0.02605 0.193842 0.026632
  endloop
 endfacet
 facet normal 0.578874 0.796508 -0.174584
  outer loop
   vertex 0.028562 0.192017 0.021608
   vertex 0.026162 0.193706 0.021356
   vertex 0.027568 0.19329 0.02412
  endloop
 endfacet
 facet normal 0.304389 0.937197 0.170322
  outer loop
   vertex 0.02605 0.193842 0.026632
   vertex 0.02478 0.194711 0.02412
   vertex 0.023242 0.194754 0.026632
  endloop
 endfacet
 facet normal 0.155824 0.984657 0.07855
  outer loop
   vertex 0.02478 0.194711 0.02412
   vertex 0.02169 0.1952 0.02412
   vertex 0.023242 0.194754 0.026632
  endloop
 endfacet
 facet normal 0.451986 0.886796 -0.0964489
  outer loop
   vertex 0.027568 0.19329 0.02412
   vertex 0.026162 0.193706 0.021356
   vertex 0.02478 0.194711 0.02412
  endloop
 endfacet
 facet normal 0.303796 0.934059 -0.187729
  outer loop
   vertex 0.026162 0.193706 0.021356
   vertex 0.023072 0.194711 0.021356
   vertex 0.02478 0.194711 0.02412
  endloop
 endfacet
 facet normal 0.155583 0.983133 -0.0961419
  outer loop
   vertex 0.02478 0.194711 0.02412
   vertex 0.023072 0.194711 0.021356
   vertex 0.02169 0.1952 0.02412
  endloop
 endfacet
 facet normal -0.000555151 0.98466 -0.174481
  outer loop
   vertex 0.023072 0.194711 0.021356
   vertex 0.020138 0.194754 0.021608
   vertex 0.02169 0.1952 0.02412
  endloop
 endfacet
 facet normal 0.563623 0.748876 -0.348589
  outer loop
   vertex 0.028562 0.192017 0.021608
   vertex 0.027009 0.192017 0.019097
   vertex 0.026162 0.193706 0.021356
  endloop
 endfacet
 facet normal 0.415138 0.796394 -0.439791
  outer loop
   vertex 0.027009 0.192017 0.019097
   vertex 0.024319 0.19329 0.018863
   vertex 0.026162 0.193706 0.021356
  endloop
 endfacet
 facet normal 0.288415 0.886769 -0.361189
  outer loop
   vertex 0.026162 0.193706 0.021356
   vertex 0.024319 0.19329 0.018863
   vertex 0.023072 0.194711 0.021356
  endloop
 endfacet
 facet normal 0.132412 0.888171 -0.440021
  outer loop
   vertex 0.024319 0.19329 0.018863
   vertex 0.021394 0.193842 0.019097
   vertex 0.023072 0.194711 0.021356
  endloop
 endfacet
 facet normal -0.0161962 0.937175 -0.348485
  outer loop
   vertex 0.023072 0.194711 0.021356
   vertex 0.021394 0.193842 0.019097
   vertex 0.020138 0.194754 0.021608
  endloop
 endfacet
 facet normal -0.138975 0.90647 -0.398746
  outer loop
   vertex 0.021394 0.193842 0.019097
   vertex 0.018926 0.193706 0.019648
   vertex 0.020138 0.194754 0.021608
  endloop
 endfacet
 facet normal -0.771063 0.560215 0.302688
  outer loop
   vertex 0.014818 0.192017 0.026632
   vertex 0.013083 0.189629 0.026632
   vertex 0.014454 0.190457 0.028592
  endloop
 endfacet
 facet normal -0.704936 0.704936 0.0782949
  outer loop
   vertex 0.015812 0.19329 0.02412
   vertex 0.0136 0.191078 0.02412
   vertex 0.014818 0.192017 0.026632
  endloop
 endfacet
 facet normal -0.578519 0.796783 -0.174509
  outer loop
   vertex 0.01733 0.193842 0.021608
   vertex 0.014982 0.192082 0.021356
   vertex 0.015812 0.19329 0.02412
  endloop
 endfacet
 facet normal -0.797233 0.579229 0.170037
  outer loop
   vertex 0.014818 0.192017 0.026632
   vertex 0.0136 0.191078 0.02412
   vertex 0.013083 0.189629 0.026632
  endloop
 endfacet
 facet normal -0.888212 0.452708 0.078331
  outer loop
   vertex 0.0136 0.191078 0.02412
   vertex 0.012179 0.18829 0.02412
   vertex 0.013083 0.189629 0.026632
  endloop
 endfacet
 facet normal -0.703824 0.703824 -0.0962537
  outer loop
   vertex 0.015812 0.19329 0.02412
   vertex 0.014982 0.192082 0.021356
   vertex 0.0136 0.191078 0.02412
  endloop
 endfacet
 facet normal -0.794662 0.577331 -0.18762
  outer loop
   vertex 0.014982 0.192082 0.021356
   vertex 0.013072 0.189453 0.021356
   vertex 0.0136 0.191078 0.02412
  endloop
 endfacet
 facet normal -0.886806 0.451991 -0.0963284
  outer loop
   vertex 0.0136 0.191078 0.02412
   vertex 0.013072 0.189453 0.021356
   vertex 0.012179 0.18829 0.02412
  endloop
 endfacet
 facet normal -0.93657 0.303801 -0.17476
  outer loop
   vertex 0.013072 0.189453 0.021356
   vertex 0.012124 0.186676 0.021609
   vertex 0.012179 0.18829 0.02412
  endloop
 endfacet
 facet normal -0.537986 0.767602 -0.348366
  outer loop
   vertex 0.01733 0.193842 0.021608
   vertex 0.01685 0.192366 0.019097
   vertex 0.014982 0.192082 0.021356
  endloop
 endfacet
 facet normal -0.629279 0.640767 -0.439803
  outer loop
   vertex 0.01685 0.192366 0.019097
   vertex 0.014808 0.1902 0.018863
   vertex 0.014982 0.192082 0.021356
  endloop
 endfacet
 facet normal -0.754436 0.548107 -0.361117
  outer loop
   vertex 0.014982 0.192082 0.021356
   vertex 0.014808 0.1902 0.018863
   vertex 0.013072 0.189453 0.021356
  endloop
 endfacet
 facet normal -0.803858 0.400541 -0.439749
  outer loop
   vertex 0.014808 0.1902 0.018863
   vertex 0.013379 0.187589 0.019097
   vertex 0.013072 0.189453 0.021356
  endloop
 endfacet
 facet normal -0.89641 0.274294 -0.348155
  outer loop
   vertex 0.013072 0.189453 0.021356
   vertex 0.013379 0.187589 0.019097
   vertex 0.012124 0.186676 0.021609
  endloop
 endfacet
 facet normal -0.905177 0.147939 -0.398459
  outer loop
   vertex 0.013379 0.187589 0.019097
   vertex 0.012746 0.1852 0.019648
   vertex 0.012124 0.186676 0.021609
  endloop
 endfacet
 facet normal -0.771063 -0.560215 0.302688
  outer loop
   vertex 0.013083 0.180771 0.026632
   vertex 0.014818 0.178383 0.026632
   vertex 0.014454 0.179943 0.028592
  endloop
 endfacet
 facet normal -0.888212 -0.452708 0.078331
  outer loop
   vertex 0.012179 0.18211 0.02412
   vertex 0.0136 0.179322 0.02412
   vertex 0.013083 0.180771 0.026632
  endloop
 endfacet
 facet normal -0.93657 -0.303801 -0.17476
  outer loop
   vertex 0.012124 0.183724 0.021609
   vertex 0.013072 0.180947 0.021356
   vertex 0.012179 0.18211 0.02412
  endloop
 endfacet
 facet normal -0.797233 -0.579229 0.170037
  outer loop
   vertex 0.013083 0.180771 0.026632
   vertex 0.0136 0.179322 0.02412
   vertex 0.014818 0.178383 0.026632
  endloop
 endfacet
 facet normal -0.704936 -0.704936 0.0782949
  outer loop
   vertex 0.0136 0.179322 0.02412
   vertex 0.015812 0.17711 0.02412
   vertex 0.014818 0.178383 0.026632
  endloop
 endfacet
 facet normal -0.886806 -0.451991 -0.0963284
  outer loop
   vertex 0.012179 0.18211 0.02412
   vertex 0.013072 0.180947 0.021356
   vertex 0.0136 0.179322 0.02412
  endloop
 endfacet
 facet normal -0.794662 -0.577331 -0.18762
  outer loop
   vertex 0.013072 0.180947 0.021356
   vertex 0.014982 0.178318 0.021356
   vertex 0.0136 0.179322 0.02412
  endloop
 endfacet
 facet normal -0.703824 -0.703824 -0.0962537
  outer loop
   vertex 0.0136 0.179322 0.02412
   vertex 0.014982 0.178318 0.021356
   vertex 0.015812 0.17711 0.02412
  endloop
 endfacet
 facet normal -0.578519 -0.796783 -0.174509
  outer loop
   vertex 0.014982 0.178318 0.021356
   vertex 0.01733 0.176558 0.021608
   vertex 0.015812 0.17711 0.02412
  endloop
 endfacet
 facet normal -0.89641 -0.274294 -0.348155
  outer loop
   vertex 0.012124 0.183724 0.021609
   vertex 0.013379 0.182811 0.019097
   vertex 0.013072 0.180947 0.021356
  endloop
 endfacet
 facet normal -0.803858 -0.400541 -0.439749
  outer loop
   vertex 0.013379 0.182811 0.019097
   vertex 0.014808 0.1802 0.018863
   vertex 0.013072 0.180947 0.021356
  endloop
 endfacet
 facet normal -0.754436 -0.548107 -0.361117
  outer loop
   vertex 0.013072 0.180947 0.021356
   vertex 0.014808 0.1802 0.018863
   vertex 0.014982 0.178318 0.021356
  endloop
 endfacet
 facet normal -0.629279 -0.640767 -0.439803
  outer loop
   vertex 0.014808 0.1802 0.018863
   vertex 0.01685 0.178034 0.019097
   vertex 0.014982 0.178318 0.021356
  endloop
 endfacet
 facet normal -0.537986 -0.767602 -0.348366
  outer loop
   vertex 0.014982 0.178318 0.021356
   vertex 0.01685 0.178034 0.019097
   vertex 0.01733 0.176558 0.021608
  endloop
 endfacet
 facet normal -0.420269 -0.815078 -0.398776
  outer loop
   vertex 0.01685 0.178034 0.019097
   vertex 0.018926 0.176694 0.019648
   vertex 0.01733 0.176558 0.021608
  endloop
 endfacet
 facet normal 0.294416 -0.906493 0.302638
  outer loop
   vertex 0.023242 0.175646 0.026632
   vertex 0.02605 0.176558 0.026632
   vertex 0.024454 0.176694 0.028592
  endloop
 endfacet
 facet normal 0.155824 -0.984657 0.07855
  outer loop
   vertex 0.02169 0.1752 0.02412
   vertex 0.02478 0.175689 0.02412
   vertex 0.023242 0.175646 0.026632
  endloop
 endfacet
 facet normal -0.000555151 -0.98466 -0.174481
  outer loop
   vertex 0.020138 0.175646 0.021608
   vertex 0.023072 0.175689 0.021356
   vertex 0.02169 0.1752 0.02412
  endloop
 endfacet
 facet normal 0.304389 -0.937197 0.170322
  outer loop
   vertex 0.023242 0.175646 0.026632
   vertex 0.02478 0.175689 0.02412
   vertex 0.02605 0.176558 0.026632
  endloop
 endfacet
 facet normal 0.452705 -0.888208 0.0783901
  outer loop
   vertex 0.02478 0.175689 0.02412
   vertex 0.027568 0.17711 0.02412
   vertex 0.02605 0.176558 0.026632
  endloop
 endfacet
 facet normal 0.155583 -0.983133 -0.0961419
  outer loop
   vertex 0.02169 0.1752 0.02412
   vertex 0.023072 0.175689 0.021356
   vertex 0.02478 0.175689 0.02412
  endloop
 endfacet
 facet normal 0.303796 -0.934059 -0.187729
  outer loop
   vertex 0.023072 0.175689 0.021356
   vertex 0.026162 0.176694 0.021356
   vertex 0.02478 0.175689 0.02412
  endloop
 endfacet
 facet normal 0.451986 -0.886796 -0.0964489
  outer loop
   vertex 0.02478 0.175689 0.02412
   vertex 0.026162 0.176694 0.021356
   vertex 0.027568 0.17711 0.02412
  endloop
 endfacet
 facet normal 0.578874 -0.796508 -0.174584
  outer loop
   vertex 0.026162 0.176694 0.021356
   vertex 0.028562 0.178383 0.021608
   vertex 0.027568 0.17711 0.02412
  endloop
 endfacet
 facet normal -0.0161962 -0.937175 -0.348485
  outer loop
   vertex 0.020138 0.175646 0.021608
   vertex 0.021394 0.176558 0.019097
   vertex 0.023072 0.175689 0.021356
  endloop
 endfacet
 facet normal 0.132412 -0.888171 -0.440021
  outer loop
   vertex 0.021394 0.176558 0.019097
   vertex 0.024319 0.17711 0.018863
   vertex 0.023072 0.175689 0.021356
  endloop
 endfacet
 facet normal 0.288415 -0.886769 -0.361189
  outer loop
   vertex 0.023072 0.175689 0.021356
   vertex 0.024319 0.17711 0.018863
   vertex 0.026162 0.176694 0.021356
  endloop
 endfacet
 facet normal 0.415138 -0.796394 -0.439791
  outer loop
   vertex 0.024319 0.17711 0.018863
   vertex 0.027009 0.178383 0.019097
   vertex 0.026162 0.176694 0.021356
  endloop
 endfacet
 facet normal 0.563623 -0.748876 -0.348589
  outer loop
   vertex 0.026162 0.176694 0.021356
   vertex 0.027009 0.178383 0.019097
   vertex 0.028562 0.178383 0.021608
  endloop
 endfacet
 facet normal 0.645038 -0.651744 -0.398942
  outer loop
   vertex 0.027009 0.178383 0.019097
   vertex 0.028926 0.179943 0.019648
   vertex 0.028562 0.178383 0.021608
  endloop
 endfacet
 facet normal 0.9532 -0 0.302341
  outer loop
   vertex 0.031256 0.183724 0.026631
   vertex 0.031256 0.186676 0.026631
   vertex 0.030634 0.1852 0.028592
  endloop
 endfacet
 facet normal 0.984653 -0.155824 0.0785916
  outer loop
   vertex 0.031201 0.18211 0.02412
   vertex 0.03169 0.1852 0.02412
   vertex 0.031256 0.183724 0.026631
  endloop
 endfacet
 facet normal 0.936352 -0.304548 -0.174631
  outer loop
   vertex 0.030297 0.180771 0.021608
   vertex 0.031162 0.183575 0.021356
   vertex 0.031201 0.18211 0.02412
  endloop
 endfacet
 facet normal 0.98539 -0 0.170314
  outer loop
   vertex 0.031256 0.183724 0.026631
   vertex 0.03169 0.1852 0.02412
   vertex 0.031256 0.186676 0.026631
  endloop
 endfacet
 facet normal 0.984653 0.155824 0.0785916
  outer loop
   vertex 0.03169 0.1852 0.02412
   vertex 0.031201 0.18829 0.02412
   vertex 0.031256 0.186676 0.026631
  endloop
 endfacet
 facet normal 0.983115 -0.15558 -0.0963335
  outer loop
   vertex 0.031201 0.18211 0.02412
   vertex 0.031162 0.183575 0.021356
   vertex 0.03169 0.1852 0.02412
  endloop
 endfacet
 facet normal 0.982239 0 -0.187634
  outer loop
   vertex 0.031162 0.183575 0.021356
   vertex 0.031162 0.186825 0.021356
   vertex 0.03169 0.1852 0.02412
  endloop
 endfacet
 facet normal 0.983115 0.15558 -0.0963335
  outer loop
   vertex 0.03169 0.1852 0.02412
   vertex 0.031162 0.186825 0.021356
   vertex 0.031201 0.18829 0.02412
  endloop
 endfacet
 facet normal 0.936352 0.304548 -0.174631
  outer loop
   vertex 0.031162 0.186825 0.021356
   vertex 0.030297 0.189629 0.021608
   vertex 0.031201 0.18829 0.02412
  endloop
 endfacet
 facet normal 0.886309 -0.304753 -0.348685
  outer loop
   vertex 0.030297 0.180771 0.021608
   vertex 0.029817 0.182248 0.019097
   vertex 0.031162 0.183575 0.021356
  endloop
 endfacet
 facet normal 0.885615 -0.148581 -0.440011
  outer loop
   vertex 0.029817 0.182248 0.019097
   vertex 0.030196 0.1852 0.018863
   vertex 0.031162 0.183575 0.021356
  endloop
 endfacet
 facet normal 0.932446 0 -0.361309
  outer loop
   vertex 0.031162 0.183575 0.021356
   vertex 0.030196 0.1852 0.018863
   vertex 0.031162 0.186825 0.021356
  endloop
 endfacet
 facet normal 0.885615 0.148581 -0.440011
  outer loop
   vertex 0.030196 0.1852 0.018863
   vertex 0.029817 0.188152 0.019097
   vertex 0.031162 0.186825 0.021356
  endloop
 endfacet
 facet normal 0.886309 0.304753 -0.348685
  outer loop
   vertex 0.031162 0.186825 0.021356
   vertex 0.029817 0.188152 0.019097
   vertex 0.030297 0.189629 0.021608
  endloop
 endfacet
 facet normal 0.819189 0.412026 -0.398954
  outer loop
   vertex 0.029817 0.188152 0.019097
   vertex 0.028926 0.190457 0.019648
   vertex 0.030297 0.189629 0.021608
  endloop
 endfacet
 facet normal 0.61533 0.560308 -0.554459
  outer loop
   vertex 0.027785 0.189629 0.017545
   vertex 0.027009 0.192017 0.019097
   vertex 0.028926 0.190457 0.019648
  endloop
 endfacet
 facet normal 0.467426 0.452641 -0.759361
  outer loop
   vertex 0.025943 0.18829 0.015613
   vertex 0.025308 0.191078 0.016884
   vertex 0.027785 0.189629 0.017545
  endloop
 endfacet
 facet normal 0.262485 0.303841 -0.915851
  outer loop
   vertex 0.023722 0.186676 0.014441
   vertex 0.023072 0.189453 0.015176
   vertex 0.025943 0.18829 0.015613
  endloop
 endfacet
 facet normal 0.508799 0.579247 -0.636864
  outer loop
   vertex 0.027785 0.189629 0.017545
   vertex 0.025308 0.191078 0.016884
   vertex 0.027009 0.192017 0.019097
  endloop
 endfacet
 facet normal 0.38541 0.704977 -0.595371
  outer loop
   vertex 0.025308 0.191078 0.016884
   vertex 0.024319 0.19329 0.018863
   vertex 0.027009 0.192017 0.019097
  endloop
 endfacet
 facet normal 0.310374 0.451949 -0.836307
  outer loop
   vertex 0.025943 0.18829 0.015613
   vertex 0.023072 0.189453 0.015176
   vertex 0.025308 0.191078 0.016884
  endloop
 endfacet
 facet normal 0.187559 0.577248 -0.794737
  outer loop
   vertex 0.023072 0.189453 0.015176
   vertex 0.022218 0.192082 0.016884
   vertex 0.025308 0.191078 0.016884
  endloop
 endfacet
 facet normal 0.228709 0.703897 -0.672474
  outer loop
   vertex 0.025308 0.191078 0.016884
   vertex 0.022218 0.192082 0.016884
   vertex 0.024319 0.19329 0.018863
  endloop
 endfacet
 facet normal 0.102735 0.796801 -0.595444
  outer loop
   vertex 0.022218 0.192082 0.016884
   vertex 0.021394 0.193842 0.019097
   vertex 0.024319 0.19329 0.018863
  endloop
 endfacet
 facet normal 0.0891868 0.274301 -0.957499
  outer loop
   vertex 0.023722 0.186676 0.014441
   vertex 0.020914 0.187589 0.014441
   vertex 0.023072 0.189453 0.015176
  endloop
 endfacet
 facet normal -0.0336945 0.400135 -0.915836
  outer loop
   vertex 0.020914 0.187589 0.014441
   vertex 0.020065 0.1902 0.015613
   vertex 0.023072 0.189453 0.015176
  endloop
 endfacet
 facet normal 0.0146149 0.548074 -0.836302
  outer loop
   vertex 0.023072 0.189453 0.015176
   vertex 0.020065 0.1902 0.015613
   vertex 0.022218 0.192082 0.016884
  endloop
 endfacet
 facet normal -0.112009 0.640965 -0.759354
  outer loop
   vertex 0.020065 0.1902 0.015613
   vertex 0.019362 0.192366 0.017545
   vertex 0.022218 0.192082 0.016884
  endloop
 endfacet
 facet normal -0.0710868 0.767617 -0.636955
  outer loop
   vertex 0.022218 0.192082 0.016884
   vertex 0.019362 0.192366 0.017545
   vertex 0.021394 0.193842 0.019097
  endloop
 endfacet
 facet normal -0.168666 0.815046 -0.554303
  outer loop
   vertex 0.019362 0.192366 0.017545
   vertex 0.018926 0.193706 0.019648
   vertex 0.021394 0.193842 0.019097
  endloop
 endfacet
 facet normal -0.342493 0.758552 -0.554344
  outer loop
   vertex 0.019362 0.192366 0.017545
   vertex 0.01685 0.192366 0.019097
   vertex 0.018926 0.193706 0.019648
  endloop
 endfacet
 facet normal -0.286233 0.584386 -0.759318
  outer loop
   vertex 0.020065 0.1902 0.015613
   vertex 0.017218 0.190457 0.016884
   vertex 0.019362 0.192366 0.017545
  endloop
 endfacet
 facet normal -0.207851 0.343516 -0.915858
  outer loop
   vertex 0.020914 0.187589 0.014441
   vertex 0.018072 0.187829 0.015176
   vertex 0.020065 0.1902 0.015613
  endloop
 endfacet
 facet normal -0.393627 0.662685 -0.637108
  outer loop
   vertex 0.019362 0.192366 0.017545
   vertex 0.017218 0.190457 0.016884
   vertex 0.01685 0.192366 0.019097
  endloop
 endfacet
 facet normal -0.551379 0.584158 -0.595601
  outer loop
   vertex 0.017218 0.190457 0.016884
   vertex 0.014808 0.1902 0.018863
   vertex 0.01685 0.192366 0.019097
  endloop
 endfacet
 facet normal -0.334054 0.43492 -0.836213
  outer loop
   vertex 0.020065 0.1902 0.015613
   vertex 0.018072 0.187829 0.015176
   vertex 0.017218 0.190457 0.016884
  endloop
 endfacet
 facet normal -0.491058 0.356895 -0.794662
  outer loop
   vertex 0.018072 0.187829 0.015176
   vertex 0.015308 0.187829 0.016884
   vertex 0.017218 0.190457 0.016884
  endloop
 endfacet
 facet normal -0.598657 0.435097 -0.672533
  outer loop
   vertex 0.017218 0.190457 0.016884
   vertex 0.015308 0.187829 0.016884
   vertex 0.014808 0.1902 0.018863
  endloop
 endfacet
 facet normal -0.725985 0.343961 -0.595514
  outer loop
   vertex 0.015308 0.187829 0.016884
   vertex 0.013379 0.187589 0.019097
   vertex 0.014808 0.1902 0.018863
  endloop
 endfacet
 facet normal -0.233325 0.169451 -0.957521
  outer loop
   vertex 0.020914 0.187589 0.014441
   vertex 0.019179 0.1852 0.014441
   vertex 0.018072 0.187829 0.015176
  endloop
 endfacet
 facet normal -0.390899 0.0914587 -0.915878
  outer loop
   vertex 0.019179 0.1852 0.014441
   vertex 0.016433 0.1852 0.015613
   vertex 0.018072 0.187829 0.015176
  endloop
 endfacet
 facet normal -0.516783 0.183167 -0.836293
  outer loop
   vertex 0.018072 0.187829 0.015176
   vertex 0.016433 0.1852 0.015613
   vertex 0.015308 0.187829 0.016884
  endloop
 endfacet
 facet normal -0.644269 0.0913996 -0.759317
  outer loop
   vertex 0.016433 0.1852 0.015613
   vertex 0.014156 0.1852 0.017545
   vertex 0.015308 0.187829 0.016884
  endloop
 endfacet
 facet normal -0.751958 0.169318 -0.637095
  outer loop
   vertex 0.015308 0.187829 0.016884
   vertex 0.014156 0.1852 0.017545
   vertex 0.013379 0.187589 0.019097
  endloop
 endfacet
 facet normal -0.827124 0.091254 -0.554562
  outer loop
   vertex 0.014156 0.1852 0.017545
   vertex 0.012746 0.1852 0.019648
   vertex 0.013379 0.187589 0.019097
  endloop
 endfacet
 facet normal -0.827124 -0.091254 -0.554562
  outer loop
   vertex 0.014156 0.1852 0.017545
   vertex 0.013379 0.182811 0.019097
   vertex 0.012746 0.1852 0.019648
  endloop
 endfacet
 facet normal -0.644269 -0.0913996 -0.759317
  outer loop
   vertex 0.016433 0.1852 0.015613
   vertex 0.015308 0.182571 0.016884
   vertex 0.014156 0.1852 0.017545
  endloop
 endfacet
 facet normal -0.390899 -0.0914587 -0.915878
  outer loop
   vertex 0.019179 0.1852 0.014441
   vertex 0.018072 0.182571 0.015176
   vertex 0.016433 0.1852 0.015613
  endloop
 endfacet
 facet normal -0.751958 -0.169318 -0.637095
  outer loop
   vertex 0.014156 0.1852 0.017545
   vertex 0.015308 0.182571 0.016884
   vertex 0.013379 0.182811 0.019097
  endloop
 endfacet
 facet normal -0.725985 -0.343961 -0.595514
  outer loop
   vertex 0.015308 0.182571 0.016884
   vertex 0.014808 0.1802 0.018863
   vertex 0.013379 0.182811 0.019097
  endloop
 endfacet
 facet normal -0.516783 -0.183167 -0.836293
  outer loop
   vertex 0.016433 0.1852 0.015613
   vertex 0.018072 0.182571 0.015176
   vertex 0.015308 0.182571 0.016884
  endloop
 endfacet
 facet normal -0.491058 -0.356895 -0.794662
  outer loop
   vertex 0.018072 0.182571 0.015176
   vertex 0.017218 0.179943 0.016884
   vertex 0.015308 0.182571 0.016884
  endloop
 endfacet
 facet normal -0.598657 -0.435097 -0.672533
  outer loop
   vertex 0.015308 0.182571 0.016884
   vertex 0.017218 0.179943 0.016884
   vertex 0.014808 0.1802 0.018863
  endloop
 endfacet
 facet normal -0.551379 -0.584158 -0.595601
  outer loop
   vertex 0.017218 0.179943 0.016884
   vertex 0.01685 0.178034 0.019097
   vertex 0.014808 0.1802 0.018863
  endloop
 endfacet
 facet normal -0.233325 -0.169451 -0.957521
  outer loop
   vertex 0.019179 0.1852 0.014441
   vertex 0.020914 0.182811 0.014441
   vertex 0.018072 0.182571 0.015176
  endloop
 endfacet
 facet normal -0.207851 -0.343516 -0.915858
  outer loop
   vertex 0.020914 0.182811 0.014441
   vertex 0.020065 0.1802 0.015613
   vertex 0.018072 0.182571 0.015176
  endloop
 endfacet
 facet normal -0.334054 -0.43492 -0.836213
  outer loop
   vertex 0.018072 0.182571 0.015176
   vertex 0.020065 0.1802 0.015613
   vertex 0.017218 0.179943 0.016884
  endloop
 endfacet
 facet normal -0.286233 -0.584386 -0.759318
  outer loop
   vertex 0.020065 0.1802 0.015613
   vertex 0.019362 0.178034 0.017545
   vertex 0.017218 0.179943 0.016884
  endloop
 endfacet
 facet normal -0.393627 -0.662685 -0.637108
  outer loop
   vertex 0.017218 0.179943 0.016884
   vertex 0.019362 0.178034 0.017545
   vertex 0.01685 0.178034 0.019097
  endloop
 endfacet
 facet normal -0.342493 -0.758552 -0.554344
  outer loop
   vertex 0.019362 0.178034 0.017545
   vertex 0.018926 0.176694 0.019648
   vertex 0.01685 0.178034 0.019097
  endloop
 endfacet
 facet normal 0.723015 0.412034 -0.554506
  outer loop
   vertex 0.029817 0.188152 0.019097
   vertex 0.027785 0.189629 0.017545
   vertex 0.028926 0.190457 0.019648
  endloop
 endfacet
 facet normal 0.789589 0.148568 -0.59538
  outer loop
   vertex 0.030196 0.1852 0.018863
   vertex 0.028398 0.186825 0.016884
   vertex 0.029817 0.188152 0.019097
  endloop
 endfacet
 facet normal 0.789589 -0.148568 -0.59538
  outer loop
   vertex 0.029817 0.182248 0.019097
   vertex 0.028398 0.183575 0.016884
   vertex 0.030196 0.1852 0.018863
  endloop
 endfacet
 facet normal 0.708089 0.304936 -0.636886
  outer loop
   vertex 0.029817 0.188152 0.019097
   vertex 0.028398 0.186825 0.016884
   vertex 0.027785 0.189629 0.017545
  endloop
 endfacet
 facet normal 0.574948 0.304695 -0.759339
  outer loop
   vertex 0.028398 0.186825 0.016884
   vertex 0.025943 0.18829 0.015613
   vertex 0.027785 0.189629 0.017545
  endloop
 endfacet
 facet normal 0.740143 0 -0.672449
  outer loop
   vertex 0.030196 0.1852 0.018863
   vertex 0.028398 0.183575 0.016884
   vertex 0.028398 0.186825 0.016884
  endloop
 endfacet
 facet normal 0.607028 0 -0.794681
  outer loop
   vertex 0.028398 0.183575 0.016884
   vertex 0.026162 0.1852 0.015176
   vertex 0.028398 0.186825 0.016884
  endloop
 endfacet
 facet normal 0.525774 0.155534 -0.836284
  outer loop
   vertex 0.028398 0.186825 0.016884
   vertex 0.026162 0.1852 0.015176
   vertex 0.025943 0.18829 0.015613
  endloop
 endfacet
 facet normal 0.370096 0.155752 -0.915844
  outer loop
   vertex 0.026162 0.1852 0.015176
   vertex 0.023722 0.186676 0.014441
   vertex 0.025943 0.18829 0.015613
  endloop
 endfacet
 facet normal 0.708089 -0.304936 -0.636886
  outer loop
   vertex 0.029817 0.182248 0.019097
   vertex 0.027785 0.180771 0.017545
   vertex 0.028398 0.183575 0.016884
  endloop
 endfacet
 facet normal 0.574948 -0.304695 -0.759339
  outer loop
   vertex 0.027785 0.180771 0.017545
   vertex 0.025943 0.18211 0.015613
   vertex 0.028398 0.183575 0.016884
  endloop
 endfacet
 facet normal 0.525774 -0.155534 -0.836284
  outer loop
   vertex 0.028398 0.183575 0.016884
   vertex 0.025943 0.18211 0.015613
   vertex 0.026162 0.1852 0.015176
  endloop
 endfacet
 facet normal 0.370096 -0.155752 -0.915844
  outer loop
   vertex 0.025943 0.18211 0.015613
   vertex 0.023722 0.183724 0.014441
   vertex 0.026162 0.1852 0.015176
  endloop
 endfacet
 facet normal 0.288428 0 -0.957502
  outer loop
   vertex 0.026162 0.1852 0.015176
   vertex 0.023722 0.183724 0.014441
   vertex 0.023722 0.186676 0.014441
  endloop
 endfacet
 facet normal 0.156037 0 -0.987751
  outer loop
   vertex 0.023722 0.183724 0.014441
   vertex 0.02169 0.1852 0.01412
   vertex 0.023722 0.186676 0.014441
  endloop
 endfacet
 facet normal -0.168666 -0.815046 -0.554303
  outer loop
   vertex 0.019362 0.178034 0.017545
   vertex 0.021394 0.176558 0.019097
   vertex 0.018926 0.176694 0.019648
  endloop
 endfacet
 facet normal -0.112009 -0.640965 -0.759354
  outer loop
   vertex 0.020065 0.1802 0.015613
   vertex 0.022218 0.178318 0.016884
   vertex 0.019362 0.178034 0.017545
  endloop
 endfacet
 facet normal -0.0336945 -0.400135 -0.915836
  outer loop
   vertex 0.020914 0.182811 0.014441
   vertex 0.023072 0.180947 0.015176
   vertex 0.020065 0.1802 0.015613
  endloop
 endfacet
 facet normal -0.0710868 -0.767617 -0.636955
  outer loop
   vertex 0.019362 0.178034 0.017545
   vertex 0.022218 0.178318 0.016884
   vertex 0.021394 0.176558 0.019097
  endloop
 endfacet
 facet normal 0.102735 -0.796801 -0.595444
  outer loop
   vertex 0.022218 0.178318 0.016884
   vertex 0.024319 0.17711 0.018863
   vertex 0.021394 0.176558 0.019097
  endloop
 endfacet
 facet normal 0.0146149 -0.548074 -0.836302
  outer loop
   vertex 0.020065 0.1802 0.015613
   vertex 0.023072 0.180947 0.015176
   vertex 0.022218 0.178318 0.016884
  endloop
 endfacet
 facet normal 0.187559 -0.577248 -0.794737
  outer loop
   vertex 0.023072 0.180947 0.015176
   vertex 0.025308 0.179322 0.016884
   vertex 0.022218 0.178318 0.016884
  endloop
 endfacet
 facet normal 0.228709 -0.703897 -0.672474
  outer loop
   vertex 0.022218 0.178318 0.016884
   vertex 0.025308 0.179322 0.016884
   vertex 0.024319 0.17711 0.018863
  endloop
 endfacet
 facet normal 0.38541 -0.704977 -0.595371
  outer loop
   vertex 0.025308 0.179322 0.016884
   vertex 0.027009 0.178383 0.019097
   vertex 0.024319 0.17711 0.018863
  endloop
 endfacet
 facet normal 0.0891868 -0.274301 -0.957499
  outer loop
   vertex 0.020914 0.182811 0.014441
   vertex 0.023722 0.183724 0.014441
   vertex 0.023072 0.180947 0.015176
  endloop
 endfacet
 facet normal 0.262485 -0.303841 -0.915851
  outer loop
   vertex 0.023722 0.183724 0.014441
   vertex 0.025943 0.18211 0.015613
   vertex 0.023072 0.180947 0.015176
  endloop
 endfacet
 facet normal 0.310374 -0.451949 -0.836307
  outer loop
   vertex 0.023072 0.180947 0.015176
   vertex 0.025943 0.18211 0.015613
   vertex 0.025308 0.179322 0.016884
  endloop
 endfacet
 facet normal 0.467426 -0.452641 -0.759361
  outer loop
   vertex 0.025943 0.18211 0.015613
   vertex 0.027785 0.180771 0.017545
   vertex 0.025308 0.179322 0.016884
  endloop
 endfacet
 facet normal 0.508799 -0.579247 -0.636864
  outer loop
   vertex 0.025308 0.179322 0.016884
   vertex 0.027785 0.180771 0.017545
   vertex 0.027009 0.178383 0.019097
  endloop
 endfacet
 facet normal 0.61533 -0.560308 -0.554459
  outer loop
   vertex 0.027785 0.180771 0.017545
   vertex 0.028926 0.179943 0.019648
   vertex 0.027009 0.178383 0.019097
  endloop
 endfacet
endsolid ExportedfromBlender-3.5.1
