solid ExportedfromBlender-3.5.1
 facet normal 0.0482486 -0.148392 -0.987751
  outer loop
   vertex -0.02346 0.23827 -0.00611
   vertex -0.021428 0.236794 -0.005789
   vertex -0.024236 0.235881 -0.005789
  endloop
 endfacet
 facet normal 0.723015 -0.412034 -0.554506
  outer loop
   vertex -0.016224 0.233013 -0.000582
   vertex -0.017365 0.233841 -0.002685
   vertex -0.015333 0.235318 -0.001133
  endloop
 endfacet
 facet normal -0.126271 -0.0917039 -0.987748
  outer loop
   vertex -0.02346 0.23827 -0.00611
   vertex -0.024236 0.235881 -0.005789
   vertex -0.025971 0.23827 -0.005789
  endloop
 endfacet
 facet normal -0.126271 0.0917039 -0.987748
  outer loop
   vertex -0.02346 0.23827 -0.00611
   vertex -0.025971 0.23827 -0.005789
   vertex -0.024236 0.240659 -0.005789
  endloop
 endfacet
 facet normal 0.0482486 0.148392 -0.987751
  outer loop
   vertex -0.02346 0.23827 -0.00611
   vertex -0.024236 0.240659 -0.005789
   vertex -0.021428 0.239746 -0.005789
  endloop
 endfacet
 facet normal 0.819189 -0.412026 -0.398954
  outer loop
   vertex -0.016224 0.233013 -0.000582
   vertex -0.015333 0.235318 -0.001133
   vertex -0.014853 0.233841 0.001378
  endloop
 endfacet
 facet normal -0.138975 -0.90647 -0.398746
  outer loop
   vertex -0.026224 0.229764 -0.000582
   vertex -0.023756 0.229628 -0.001133
   vertex -0.025012 0.228716 0.001378
  endloop
 endfacet
 facet normal -0.905177 -0.147939 -0.398459
  outer loop
   vertex -0.032404 0.23827 -0.000582
   vertex -0.031771 0.235881 -0.001133
   vertex -0.033026 0.236794 0.001379
  endloop
 endfacet
 facet normal -0.420269 0.815078 -0.398776
  outer loop
   vertex -0.026224 0.246776 -0.000582
   vertex -0.0283 0.245436 -0.001133
   vertex -0.02782 0.246912 0.001378
  endloop
 endfacet
 facet normal 0.645038 0.651744 -0.398942
  outer loop
   vertex -0.016224 0.243527 -0.000582
   vertex -0.018141 0.245087 -0.001133
   vertex -0.016588 0.245087 0.001378
  endloop
 endfacet
 facet normal 0.771063 -0.560215 -0.302688
  outer loop
   vertex -0.016224 0.233013 -0.000582
   vertex -0.014853 0.233841 0.001378
   vertex -0.016588 0.231453 0.001378
  endloop
 endfacet
 facet normal -0.294416 -0.906493 -0.302638
  outer loop
   vertex -0.026224 0.229764 -0.000582
   vertex -0.025012 0.228716 0.001378
   vertex -0.02782 0.229628 0.001378
  endloop
 endfacet
 facet normal -0.9532 0 -0.302341
  outer loop
   vertex -0.032404 0.23827 -0.000582
   vertex -0.033026 0.236794 0.001379
   vertex -0.033026 0.239746 0.001379
  endloop
 endfacet
 facet normal -0.294416 0.906493 -0.302638
  outer loop
   vertex -0.026224 0.246776 -0.000582
   vertex -0.02782 0.246912 0.001378
   vertex -0.025012 0.247824 0.001378
  endloop
 endfacet
 facet normal 0.771063 0.560215 -0.302688
  outer loop
   vertex -0.016224 0.243527 -0.000582
   vertex -0.016588 0.245087 0.001378
   vertex -0.014853 0.242699 0.001378
  endloop
 endfacet
 facet normal 0.342493 -0.758552 0.554344
  outer loop
   vertex -0.020696 0.229764 0.008362
   vertex -0.01862 0.231104 0.008913
   vertex -0.021132 0.231104 0.010465
  endloop
 endfacet
 facet normal -0.61533 -0.560308 0.554459
  outer loop
   vertex -0.030696 0.233013 0.008362
   vertex -0.028779 0.231453 0.008913
   vertex -0.029555 0.233841 0.010465
  endloop
 endfacet
 facet normal -0.723015 0.412034 0.554506
  outer loop
   vertex -0.030696 0.243527 0.008362
   vertex -0.031587 0.241222 0.008913
   vertex -0.029555 0.242699 0.010465
  endloop
 endfacet
 facet normal 0.168666 0.815046 0.554303
  outer loop
   vertex -0.020696 0.246776 0.008362
   vertex -0.023164 0.246912 0.008913
   vertex -0.021132 0.245436 0.010465
  endloop
 endfacet
 facet normal 0.827124 0.091254 0.554562
  outer loop
   vertex -0.014516 0.23827 0.008362
   vertex -0.015149 0.240659 0.008913
   vertex -0.015926 0.23827 0.010465
  endloop
 endfacet
 facet normal 0.126271 0.0917039 0.987748
  outer loop
   vertex -0.020949 0.23827 0.013569
   vertex -0.022684 0.240659 0.013569
   vertex -0.02346 0.23827 0.01389
  endloop
 endfacet
 facet normal 0.390899 0.0914587 0.915878
  outer loop
   vertex -0.018203 0.23827 0.012397
   vertex -0.019842 0.240899 0.012834
   vertex -0.020949 0.23827 0.013569
  endloop
 endfacet
 facet normal 0.644269 0.0913996 0.759317
  outer loop
   vertex -0.015926 0.23827 0.010465
   vertex -0.017078 0.240899 0.011126
   vertex -0.018203 0.23827 0.012397
  endloop
 endfacet
 facet normal 0.233325 0.169451 0.957521
  outer loop
   vertex -0.020949 0.23827 0.013569
   vertex -0.019842 0.240899 0.012834
   vertex -0.022684 0.240659 0.013569
  endloop
 endfacet
 facet normal 0.207851 0.343516 0.915858
  outer loop
   vertex -0.019842 0.240899 0.012834
   vertex -0.021835 0.24327 0.012397
   vertex -0.022684 0.240659 0.013569
  endloop
 endfacet
 facet normal 0.516783 0.183167 0.836293
  outer loop
   vertex -0.018203 0.23827 0.012397
   vertex -0.017078 0.240899 0.011126
   vertex -0.019842 0.240899 0.012834
  endloop
 endfacet
 facet normal 0.491058 0.356895 0.794662
  outer loop
   vertex -0.017078 0.240899 0.011126
   vertex -0.018988 0.243527 0.011126
   vertex -0.019842 0.240899 0.012834
  endloop
 endfacet
 facet normal 0.334054 0.43492 0.836213
  outer loop
   vertex -0.019842 0.240899 0.012834
   vertex -0.018988 0.243527 0.011126
   vertex -0.021835 0.24327 0.012397
  endloop
 endfacet
 facet normal 0.286233 0.584386 0.759318
  outer loop
   vertex -0.018988 0.243527 0.011126
   vertex -0.021132 0.245436 0.010465
   vertex -0.021835 0.24327 0.012397
  endloop
 endfacet
 facet normal 0.751958 0.169318 0.637095
  outer loop
   vertex -0.015926 0.23827 0.010465
   vertex -0.015149 0.240659 0.008913
   vertex -0.017078 0.240899 0.011126
  endloop
 endfacet
 facet normal 0.725985 0.343961 0.595514
  outer loop
   vertex -0.015149 0.240659 0.008913
   vertex -0.016578 0.24327 0.009147
   vertex -0.017078 0.240899 0.011126
  endloop
 endfacet
 facet normal 0.598657 0.435097 0.672533
  outer loop
   vertex -0.017078 0.240899 0.011126
   vertex -0.016578 0.24327 0.009147
   vertex -0.018988 0.243527 0.011126
  endloop
 endfacet
 facet normal 0.551379 0.584158 0.595601
  outer loop
   vertex -0.016578 0.24327 0.009147
   vertex -0.01862 0.245436 0.008913
   vertex -0.018988 0.243527 0.011126
  endloop
 endfacet
 facet normal 0.393627 0.662685 0.637108
  outer loop
   vertex -0.018988 0.243527 0.011126
   vertex -0.01862 0.245436 0.008913
   vertex -0.021132 0.245436 0.010465
  endloop
 endfacet
 facet normal 0.342493 0.758552 0.554344
  outer loop
   vertex -0.01862 0.245436 0.008913
   vertex -0.020696 0.246776 0.008362
   vertex -0.021132 0.245436 0.010465
  endloop
 endfacet
 facet normal -0.0482486 0.148392 0.987751
  outer loop
   vertex -0.022684 0.240659 0.013569
   vertex -0.025492 0.239746 0.013569
   vertex -0.02346 0.23827 0.01389
  endloop
 endfacet
 facet normal 0.0336945 0.400135 0.915836
  outer loop
   vertex -0.021835 0.24327 0.012397
   vertex -0.024842 0.242523 0.012834
   vertex -0.022684 0.240659 0.013569
  endloop
 endfacet
 facet normal 0.112009 0.640965 0.759354
  outer loop
   vertex -0.021132 0.245436 0.010465
   vertex -0.023988 0.245152 0.011126
   vertex -0.021835 0.24327 0.012397
  endloop
 endfacet
 facet normal -0.0891868 0.274301 0.957499
  outer loop
   vertex -0.022684 0.240659 0.013569
   vertex -0.024842 0.242523 0.012834
   vertex -0.025492 0.239746 0.013569
  endloop
 endfacet
 facet normal -0.262485 0.303841 0.915851
  outer loop
   vertex -0.024842 0.242523 0.012834
   vertex -0.027713 0.24136 0.012397
   vertex -0.025492 0.239746 0.013569
  endloop
 endfacet
 facet normal -0.0146149 0.548074 0.836302
  outer loop
   vertex -0.021835 0.24327 0.012397
   vertex -0.023988 0.245152 0.011126
   vertex -0.024842 0.242523 0.012834
  endloop
 endfacet
 facet normal -0.187559 0.577248 0.794737
  outer loop
   vertex -0.023988 0.245152 0.011126
   vertex -0.027078 0.244148 0.011126
   vertex -0.024842 0.242523 0.012834
  endloop
 endfacet
 facet normal -0.310374 0.451949 0.836307
  outer loop
   vertex -0.024842 0.242523 0.012834
   vertex -0.027078 0.244148 0.011126
   vertex -0.027713 0.24136 0.012397
  endloop
 endfacet
 facet normal -0.467426 0.452641 0.759361
  outer loop
   vertex -0.027078 0.244148 0.011126
   vertex -0.029555 0.242699 0.010465
   vertex -0.027713 0.24136 0.012397
  endloop
 endfacet
 facet normal 0.0710868 0.767617 0.636955
  outer loop
   vertex -0.021132 0.245436 0.010465
   vertex -0.023164 0.246912 0.008913
   vertex -0.023988 0.245152 0.011126
  endloop
 endfacet
 facet normal -0.102735 0.796801 0.595444
  outer loop
   vertex -0.023164 0.246912 0.008913
   vertex -0.026089 0.24636 0.009147
   vertex -0.023988 0.245152 0.011126
  endloop
 endfacet
 facet normal -0.228709 0.703897 0.672474
  outer loop
   vertex -0.023988 0.245152 0.011126
   vertex -0.026089 0.24636 0.009147
   vertex -0.027078 0.244148 0.011126
  endloop
 endfacet
 facet normal -0.38541 0.704977 0.595371
  outer loop
   vertex -0.026089 0.24636 0.009147
   vertex -0.028779 0.245087 0.008913
   vertex -0.027078 0.244148 0.011126
  endloop
 endfacet
 facet normal -0.508799 0.579247 0.636864
  outer loop
   vertex -0.027078 0.244148 0.011126
   vertex -0.028779 0.245087 0.008913
   vertex -0.029555 0.242699 0.010465
  endloop
 endfacet
 facet normal -0.61533 0.560308 0.554459
  outer loop
   vertex -0.028779 0.245087 0.008913
   vertex -0.030696 0.243527 0.008362
   vertex -0.029555 0.242699 0.010465
  endloop
 endfacet
 facet normal -0.156037 0 0.987751
  outer loop
   vertex -0.025492 0.239746 0.013569
   vertex -0.025492 0.236794 0.013569
   vertex -0.02346 0.23827 0.01389
  endloop
 endfacet
 facet normal -0.370096 0.155752 0.915844
  outer loop
   vertex -0.027713 0.24136 0.012397
   vertex -0.027932 0.23827 0.012834
   vertex -0.025492 0.239746 0.013569
  endloop
 endfacet
 facet normal -0.574948 0.304695 0.759339
  outer loop
   vertex -0.029555 0.242699 0.010465
   vertex -0.030168 0.239895 0.011126
   vertex -0.027713 0.24136 0.012397
  endloop
 endfacet
 facet normal -0.288428 0 0.957502
  outer loop
   vertex -0.025492 0.239746 0.013569
   vertex -0.027932 0.23827 0.012834
   vertex -0.025492 0.236794 0.013569
  endloop
 endfacet
 facet normal -0.370096 -0.155752 0.915844
  outer loop
   vertex -0.027932 0.23827 0.012834
   vertex -0.027713 0.23518 0.012397
   vertex -0.025492 0.236794 0.013569
  endloop
 endfacet
 facet normal -0.525774 0.155534 0.836284
  outer loop
   vertex -0.027713 0.24136 0.012397
   vertex -0.030168 0.239895 0.011126
   vertex -0.027932 0.23827 0.012834
  endloop
 endfacet
 facet normal -0.607028 0 0.794681
  outer loop
   vertex -0.030168 0.239895 0.011126
   vertex -0.030168 0.236645 0.011126
   vertex -0.027932 0.23827 0.012834
  endloop
 endfacet
 facet normal -0.525774 -0.155534 0.836284
  outer loop
   vertex -0.027932 0.23827 0.012834
   vertex -0.030168 0.236645 0.011126
   vertex -0.027713 0.23518 0.012397
  endloop
 endfacet
 facet normal -0.574948 -0.304695 0.759339
  outer loop
   vertex -0.030168 0.236645 0.011126
   vertex -0.029555 0.233841 0.010465
   vertex -0.027713 0.23518 0.012397
  endloop
 endfacet
 facet normal -0.708089 0.304936 0.636886
  outer loop
   vertex -0.029555 0.242699 0.010465
   vertex -0.031587 0.241222 0.008913
   vertex -0.030168 0.239895 0.011126
  endloop
 endfacet
 facet normal -0.789589 0.148568 0.59538
  outer loop
   vertex -0.031587 0.241222 0.008913
   vertex -0.031966 0.23827 0.009147
   vertex -0.030168 0.239895 0.011126
  endloop
 endfacet
 facet normal -0.740143 0 0.672449
  outer loop
   vertex -0.030168 0.239895 0.011126
   vertex -0.031966 0.23827 0.009147
   vertex -0.030168 0.236645 0.011126
  endloop
 endfacet
 facet normal -0.789589 -0.148568 0.59538
  outer loop
   vertex -0.031966 0.23827 0.009147
   vertex -0.031587 0.235318 0.008913
   vertex -0.030168 0.236645 0.011126
  endloop
 endfacet
 facet normal -0.708089 -0.304936 0.636886
  outer loop
   vertex -0.030168 0.236645 0.011126
   vertex -0.031587 0.235318 0.008913
   vertex -0.029555 0.233841 0.010465
  endloop
 endfacet
 facet normal -0.723015 -0.412034 0.554506
  outer loop
   vertex -0.031587 0.235318 0.008913
   vertex -0.030696 0.233013 0.008362
   vertex -0.029555 0.233841 0.010465
  endloop
 endfacet
 facet normal -0.0482486 -0.148392 0.987751
  outer loop
   vertex -0.025492 0.236794 0.013569
   vertex -0.022684 0.235881 0.013569
   vertex -0.02346 0.23827 0.01389
  endloop
 endfacet
 facet normal -0.262485 -0.303841 0.915851
  outer loop
   vertex -0.027713 0.23518 0.012397
   vertex -0.024842 0.234017 0.012834
   vertex -0.025492 0.236794 0.013569
  endloop
 endfacet
 facet normal -0.467426 -0.452641 0.759361
  outer loop
   vertex -0.029555 0.233841 0.010465
   vertex -0.027078 0.232392 0.011126
   vertex -0.027713 0.23518 0.012397
  endloop
 endfacet
 facet normal -0.0891868 -0.274301 0.957499
  outer loop
   vertex -0.025492 0.236794 0.013569
   vertex -0.024842 0.234017 0.012834
   vertex -0.022684 0.235881 0.013569
  endloop
 endfacet
 facet normal 0.0336945 -0.400135 0.915836
  outer loop
   vertex -0.024842 0.234017 0.012834
   vertex -0.021835 0.23327 0.012397
   vertex -0.022684 0.235881 0.013569
  endloop
 endfacet
 facet normal -0.310374 -0.451949 0.836307
  outer loop
   vertex -0.027713 0.23518 0.012397
   vertex -0.027078 0.232392 0.011126
   vertex -0.024842 0.234017 0.012834
  endloop
 endfacet
 facet normal -0.187559 -0.577248 0.794737
  outer loop
   vertex -0.027078 0.232392 0.011126
   vertex -0.023988 0.231388 0.011126
   vertex -0.024842 0.234017 0.012834
  endloop
 endfacet
 facet normal -0.0146149 -0.548074 0.836302
  outer loop
   vertex -0.024842 0.234017 0.012834
   vertex -0.023988 0.231388 0.011126
   vertex -0.021835 0.23327 0.012397
  endloop
 endfacet
 facet normal 0.112009 -0.640965 0.759354
  outer loop
   vertex -0.023988 0.231388 0.011126
   vertex -0.021132 0.231104 0.010465
   vertex -0.021835 0.23327 0.012397
  endloop
 endfacet
 facet normal -0.508799 -0.579247 0.636864
  outer loop
   vertex -0.029555 0.233841 0.010465
   vertex -0.028779 0.231453 0.008913
   vertex -0.027078 0.232392 0.011126
  endloop
 endfacet
 facet normal -0.38541 -0.704977 0.595371
  outer loop
   vertex -0.028779 0.231453 0.008913
   vertex -0.026089 0.23018 0.009147
   vertex -0.027078 0.232392 0.011126
  endloop
 endfacet
 facet normal -0.228709 -0.703897 0.672474
  outer loop
   vertex -0.027078 0.232392 0.011126
   vertex -0.026089 0.23018 0.009147
   vertex -0.023988 0.231388 0.011126
  endloop
 endfacet
 facet normal -0.102735 -0.796801 0.595444
  outer loop
   vertex -0.026089 0.23018 0.009147
   vertex -0.023164 0.229628 0.008913
   vertex -0.023988 0.231388 0.011126
  endloop
 endfacet
 facet normal 0.0710868 -0.767617 0.636955
  outer loop
   vertex -0.023988 0.231388 0.011126
   vertex -0.023164 0.229628 0.008913
   vertex -0.021132 0.231104 0.010465
  endloop
 endfacet
 facet normal 0.168666 -0.815046 0.554303
  outer loop
   vertex -0.023164 0.229628 0.008913
   vertex -0.020696 0.229764 0.008362
   vertex -0.021132 0.231104 0.010465
  endloop
 endfacet
 facet normal 0.126271 -0.0917039 0.987748
  outer loop
   vertex -0.022684 0.235881 0.013569
   vertex -0.020949 0.23827 0.013569
   vertex -0.02346 0.23827 0.01389
  endloop
 endfacet
 facet normal 0.207851 -0.343516 0.915858
  outer loop
   vertex -0.021835 0.23327 0.012397
   vertex -0.019842 0.235641 0.012834
   vertex -0.022684 0.235881 0.013569
  endloop
 endfacet
 facet normal 0.286233 -0.584386 0.759318
  outer loop
   vertex -0.021132 0.231104 0.010465
   vertex -0.018988 0.233013 0.011126
   vertex -0.021835 0.23327 0.012397
  endloop
 endfacet
 facet normal 0.233325 -0.169451 0.957521
  outer loop
   vertex -0.022684 0.235881 0.013569
   vertex -0.019842 0.235641 0.012834
   vertex -0.020949 0.23827 0.013569
  endloop
 endfacet
 facet normal 0.390899 -0.0914587 0.915878
  outer loop
   vertex -0.019842 0.235641 0.012834
   vertex -0.018203 0.23827 0.012397
   vertex -0.020949 0.23827 0.013569
  endloop
 endfacet
 facet normal 0.334054 -0.43492 0.836213
  outer loop
   vertex -0.021835 0.23327 0.012397
   vertex -0.018988 0.233013 0.011126
   vertex -0.019842 0.235641 0.012834
  endloop
 endfacet
 facet normal 0.491058 -0.356895 0.794662
  outer loop
   vertex -0.018988 0.233013 0.011126
   vertex -0.017078 0.235641 0.011126
   vertex -0.019842 0.235641 0.012834
  endloop
 endfacet
 facet normal 0.516783 -0.183167 0.836293
  outer loop
   vertex -0.019842 0.235641 0.012834
   vertex -0.017078 0.235641 0.011126
   vertex -0.018203 0.23827 0.012397
  endloop
 endfacet
 facet normal 0.644269 -0.0913996 0.759317
  outer loop
   vertex -0.017078 0.235641 0.011126
   vertex -0.015926 0.23827 0.010465
   vertex -0.018203 0.23827 0.012397
  endloop
 endfacet
 facet normal 0.393627 -0.662685 0.637108
  outer loop
   vertex -0.021132 0.231104 0.010465
   vertex -0.01862 0.231104 0.008913
   vertex -0.018988 0.233013 0.011126
  endloop
 endfacet
 facet normal 0.551379 -0.584158 0.595601
  outer loop
   vertex -0.01862 0.231104 0.008913
   vertex -0.016578 0.23327 0.009147
   vertex -0.018988 0.233013 0.011126
  endloop
 endfacet
 facet normal 0.598657 -0.435097 0.672533
  outer loop
   vertex -0.018988 0.233013 0.011126
   vertex -0.016578 0.23327 0.009147
   vertex -0.017078 0.235641 0.011126
  endloop
 endfacet
 facet normal 0.725985 -0.343961 0.595514
  outer loop
   vertex -0.016578 0.23327 0.009147
   vertex -0.015149 0.235881 0.008913
   vertex -0.017078 0.235641 0.011126
  endloop
 endfacet
 facet normal 0.751958 -0.169318 0.637095
  outer loop
   vertex -0.017078 0.235641 0.011126
   vertex -0.015149 0.235881 0.008913
   vertex -0.015926 0.23827 0.010465
  endloop
 endfacet
 facet normal 0.827124 -0.091254 0.554562
  outer loop
   vertex -0.015149 0.235881 0.008913
   vertex -0.014516 0.23827 0.008362
   vertex -0.015926 0.23827 0.010465
  endloop
 endfacet
 facet normal 0.905177 0.147939 0.398459
  outer loop
   vertex -0.013894 0.239746 0.006401
   vertex -0.015149 0.240659 0.008913
   vertex -0.014516 0.23827 0.008362
  endloop
 endfacet
 facet normal 0.93657 0.303801 0.17476
  outer loop
   vertex -0.013949 0.24136 0.00389
   vertex -0.014842 0.242523 0.006654
   vertex -0.013894 0.239746 0.006401
  endloop
 endfacet
 facet normal 0.888212 0.452708 -0.078331
  outer loop
   vertex -0.014853 0.242699 0.001378
   vertex -0.01537 0.244148 0.00389
   vertex -0.013949 0.24136 0.00389
  endloop
 endfacet
 facet normal 0.89641 0.274294 0.348155
  outer loop
   vertex -0.013894 0.239746 0.006401
   vertex -0.014842 0.242523 0.006654
   vertex -0.015149 0.240659 0.008913
  endloop
 endfacet
 facet normal 0.803858 0.400541 0.439749
  outer loop
   vertex -0.014842 0.242523 0.006654
   vertex -0.016578 0.24327 0.009147
   vertex -0.015149 0.240659 0.008913
  endloop
 endfacet
 facet normal 0.886806 0.451991 0.0963284
  outer loop
   vertex -0.013949 0.24136 0.00389
   vertex -0.01537 0.244148 0.00389
   vertex -0.014842 0.242523 0.006654
  endloop
 endfacet
 facet normal 0.794662 0.577331 0.18762
  outer loop
   vertex -0.01537 0.244148 0.00389
   vertex -0.016752 0.245152 0.006654
   vertex -0.014842 0.242523 0.006654
  endloop
 endfacet
 facet normal 0.754436 0.548107 0.361117
  outer loop
   vertex -0.014842 0.242523 0.006654
   vertex -0.016752 0.245152 0.006654
   vertex -0.016578 0.24327 0.009147
  endloop
 endfacet
 facet normal 0.629279 0.640767 0.439803
  outer loop
   vertex -0.016752 0.245152 0.006654
   vertex -0.01862 0.245436 0.008913
   vertex -0.016578 0.24327 0.009147
  endloop
 endfacet
 facet normal 0.797233 0.579229 -0.170037
  outer loop
   vertex -0.014853 0.242699 0.001378
   vertex -0.016588 0.245087 0.001378
   vertex -0.01537 0.244148 0.00389
  endloop
 endfacet
 facet normal 0.704936 0.704936 -0.0782949
  outer loop
   vertex -0.016588 0.245087 0.001378
   vertex -0.017582 0.24636 0.00389
   vertex -0.01537 0.244148 0.00389
  endloop
 endfacet
 facet normal 0.703824 0.703824 0.0962537
  outer loop
   vertex -0.01537 0.244148 0.00389
   vertex -0.017582 0.24636 0.00389
   vertex -0.016752 0.245152 0.006654
  endloop
 endfacet
 facet normal 0.578519 0.796783 0.174509
  outer loop
   vertex -0.017582 0.24636 0.00389
   vertex -0.0191 0.246912 0.006402
   vertex -0.016752 0.245152 0.006654
  endloop
 endfacet
 facet normal 0.537986 0.767602 0.348366
  outer loop
   vertex -0.016752 0.245152 0.006654
   vertex -0.0191 0.246912 0.006402
   vertex -0.01862 0.245436 0.008913
  endloop
 endfacet
 facet normal 0.420269 0.815078 0.398776
  outer loop
   vertex -0.0191 0.246912 0.006402
   vertex -0.020696 0.246776 0.008362
   vertex -0.01862 0.245436 0.008913
  endloop
 endfacet
 facet normal 0.138975 0.90647 0.398746
  outer loop
   vertex -0.021908 0.247824 0.006402
   vertex -0.023164 0.246912 0.008913
   vertex -0.020696 0.246776 0.008362
  endloop
 endfacet
 facet normal 0.000555151 0.98466 0.174481
  outer loop
   vertex -0.02346 0.24827 0.00389
   vertex -0.024842 0.247781 0.006654
   vertex -0.021908 0.247824 0.006402
  endloop
 endfacet
 facet normal -0.155824 0.984657 -0.07855
  outer loop
   vertex -0.025012 0.247824 0.001378
   vertex -0.02655 0.247781 0.00389
   vertex -0.02346 0.24827 0.00389
  endloop
 endfacet
 facet normal 0.0161962 0.937175 0.348485
  outer loop
   vertex -0.021908 0.247824 0.006402
   vertex -0.024842 0.247781 0.006654
   vertex -0.023164 0.246912 0.008913
  endloop
 endfacet
 facet normal -0.132412 0.888171 0.440021
  outer loop
   vertex -0.024842 0.247781 0.006654
   vertex -0.026089 0.24636 0.009147
   vertex -0.023164 0.246912 0.008913
  endloop
 endfacet
 facet normal -0.155583 0.983133 0.0961419
  outer loop
   vertex -0.02346 0.24827 0.00389
   vertex -0.02655 0.247781 0.00389
   vertex -0.024842 0.247781 0.006654
  endloop
 endfacet
 facet normal -0.303796 0.934059 0.187729
  outer loop
   vertex -0.02655 0.247781 0.00389
   vertex -0.027932 0.246776 0.006654
   vertex -0.024842 0.247781 0.006654
  endloop
 endfacet
 facet normal -0.288415 0.886769 0.361189
  outer loop
   vertex -0.024842 0.247781 0.006654
   vertex -0.027932 0.246776 0.006654
   vertex -0.026089 0.24636 0.009147
  endloop
 endfacet
 facet normal -0.415138 0.796394 0.439791
  outer loop
   vertex -0.027932 0.246776 0.006654
   vertex -0.028779 0.245087 0.008913
   vertex -0.026089 0.24636 0.009147
  endloop
 endfacet
 facet normal -0.304389 0.937197 -0.170322
  outer loop
   vertex -0.025012 0.247824 0.001378
   vertex -0.02782 0.246912 0.001378
   vertex -0.02655 0.247781 0.00389
  endloop
 endfacet
 facet normal -0.452705 0.888208 -0.0783901
  outer loop
   vertex -0.02782 0.246912 0.001378
   vertex -0.029338 0.24636 0.00389
   vertex -0.02655 0.247781 0.00389
  endloop
 endfacet
 facet normal -0.451986 0.886796 0.0964489
  outer loop
   vertex -0.02655 0.247781 0.00389
   vertex -0.029338 0.24636 0.00389
   vertex -0.027932 0.246776 0.006654
  endloop
 endfacet
 facet normal -0.578874 0.796508 0.174584
  outer loop
   vertex -0.029338 0.24636 0.00389
   vertex -0.030332 0.245087 0.006402
   vertex -0.027932 0.246776 0.006654
  endloop
 endfacet
 facet normal -0.563623 0.748876 0.348589
  outer loop
   vertex -0.027932 0.246776 0.006654
   vertex -0.030332 0.245087 0.006402
   vertex -0.028779 0.245087 0.008913
  endloop
 endfacet
 facet normal -0.645038 0.651744 0.398942
  outer loop
   vertex -0.030332 0.245087 0.006402
   vertex -0.030696 0.243527 0.008362
   vertex -0.028779 0.245087 0.008913
  endloop
 endfacet
 facet normal -0.819189 0.412026 0.398954
  outer loop
   vertex -0.032067 0.242699 0.006402
   vertex -0.031587 0.241222 0.008913
   vertex -0.030696 0.243527 0.008362
  endloop
 endfacet
 facet normal -0.936352 0.304548 0.174631
  outer loop
   vertex -0.032971 0.24136 0.00389
   vertex -0.032932 0.239895 0.006654
   vertex -0.032067 0.242699 0.006402
  endloop
 endfacet
 facet normal -0.984653 0.155824 -0.0785916
  outer loop
   vertex -0.033026 0.239746 0.001379
   vertex -0.03346 0.23827 0.00389
   vertex -0.032971 0.24136 0.00389
  endloop
 endfacet
 facet normal -0.886309 0.304753 0.348685
  outer loop
   vertex -0.032067 0.242699 0.006402
   vertex -0.032932 0.239895 0.006654
   vertex -0.031587 0.241222 0.008913
  endloop
 endfacet
 facet normal -0.885615 0.148581 0.440011
  outer loop
   vertex -0.032932 0.239895 0.006654
   vertex -0.031966 0.23827 0.009147
   vertex -0.031587 0.241222 0.008913
  endloop
 endfacet
 facet normal -0.983115 0.15558 0.0963335
  outer loop
   vertex -0.032971 0.24136 0.00389
   vertex -0.03346 0.23827 0.00389
   vertex -0.032932 0.239895 0.006654
  endloop
 endfacet
 facet normal -0.982239 0 0.187634
  outer loop
   vertex -0.03346 0.23827 0.00389
   vertex -0.032932 0.236645 0.006654
   vertex -0.032932 0.239895 0.006654
  endloop
 endfacet
 facet normal -0.932446 0 0.361309
  outer loop
   vertex -0.032932 0.239895 0.006654
   vertex -0.032932 0.236645 0.006654
   vertex -0.031966 0.23827 0.009147
  endloop
 endfacet
 facet normal -0.885615 -0.148581 0.440011
  outer loop
   vertex -0.032932 0.236645 0.006654
   vertex -0.031587 0.235318 0.008913
   vertex -0.031966 0.23827 0.009147
  endloop
 endfacet
 facet normal -0.98539 -0 -0.170314
  outer loop
   vertex -0.033026 0.239746 0.001379
   vertex -0.033026 0.236794 0.001379
   vertex -0.03346 0.23827 0.00389
  endloop
 endfacet
 facet normal -0.984653 -0.155824 -0.0785916
  outer loop
   vertex -0.033026 0.236794 0.001379
   vertex -0.032971 0.23518 0.00389
   vertex -0.03346 0.23827 0.00389
  endloop
 endfacet
 facet normal -0.983115 -0.15558 0.0963335
  outer loop
   vertex -0.03346 0.23827 0.00389
   vertex -0.032971 0.23518 0.00389
   vertex -0.032932 0.236645 0.006654
  endloop
 endfacet
 facet normal -0.936352 -0.304548 0.174631
  outer loop
   vertex -0.032971 0.23518 0.00389
   vertex -0.032067 0.233841 0.006402
   vertex -0.032932 0.236645 0.006654
  endloop
 endfacet
 facet normal -0.886309 -0.304753 0.348685
  outer loop
   vertex -0.032932 0.236645 0.006654
   vertex -0.032067 0.233841 0.006402
   vertex -0.031587 0.235318 0.008913
  endloop
 endfacet
 facet normal -0.819189 -0.412026 0.398954
  outer loop
   vertex -0.032067 0.233841 0.006402
   vertex -0.030696 0.233013 0.008362
   vertex -0.031587 0.235318 0.008913
  endloop
 endfacet
 facet normal -0.645038 -0.651744 0.398942
  outer loop
   vertex -0.030332 0.231453 0.006402
   vertex -0.028779 0.231453 0.008913
   vertex -0.030696 0.233013 0.008362
  endloop
 endfacet
 facet normal -0.578874 -0.796508 0.174584
  outer loop
   vertex -0.029338 0.23018 0.00389
   vertex -0.027932 0.229764 0.006654
   vertex -0.030332 0.231453 0.006402
  endloop
 endfacet
 facet normal -0.452705 -0.888208 -0.0783901
  outer loop
   vertex -0.02782 0.229628 0.001378
   vertex -0.02655 0.228759 0.00389
   vertex -0.029338 0.23018 0.00389
  endloop
 endfacet
 facet normal -0.563623 -0.748876 0.348589
  outer loop
   vertex -0.030332 0.231453 0.006402
   vertex -0.027932 0.229764 0.006654
   vertex -0.028779 0.231453 0.008913
  endloop
 endfacet
 facet normal -0.415138 -0.796394 0.439791
  outer loop
   vertex -0.027932 0.229764 0.006654
   vertex -0.026089 0.23018 0.009147
   vertex -0.028779 0.231453 0.008913
  endloop
 endfacet
 facet normal -0.451986 -0.886796 0.0964489
  outer loop
   vertex -0.029338 0.23018 0.00389
   vertex -0.02655 0.228759 0.00389
   vertex -0.027932 0.229764 0.006654
  endloop
 endfacet
 facet normal -0.303796 -0.934059 0.187729
  outer loop
   vertex -0.02655 0.228759 0.00389
   vertex -0.024842 0.228759 0.006654
   vertex -0.027932 0.229764 0.006654
  endloop
 endfacet
 facet normal -0.288415 -0.886769 0.361189
  outer loop
   vertex -0.027932 0.229764 0.006654
   vertex -0.024842 0.228759 0.006654
   vertex -0.026089 0.23018 0.009147
  endloop
 endfacet
 facet normal -0.132412 -0.888171 0.440021
  outer loop
   vertex -0.024842 0.228759 0.006654
   vertex -0.023164 0.229628 0.008913
   vertex -0.026089 0.23018 0.009147
  endloop
 endfacet
 facet normal -0.304389 -0.937197 -0.170322
  outer loop
   vertex -0.02782 0.229628 0.001378
   vertex -0.025012 0.228716 0.001378
   vertex -0.02655 0.228759 0.00389
  endloop
 endfacet
 facet normal -0.155824 -0.984657 -0.07855
  outer loop
   vertex -0.025012 0.228716 0.001378
   vertex -0.02346 0.22827 0.00389
   vertex -0.02655 0.228759 0.00389
  endloop
 endfacet
 facet normal -0.155583 -0.983133 0.0961419
  outer loop
   vertex -0.02655 0.228759 0.00389
   vertex -0.02346 0.22827 0.00389
   vertex -0.024842 0.228759 0.006654
  endloop
 endfacet
 facet normal 0.000555151 -0.98466 0.174481
  outer loop
   vertex -0.02346 0.22827 0.00389
   vertex -0.021908 0.228716 0.006402
   vertex -0.024842 0.228759 0.006654
  endloop
 endfacet
 facet normal 0.0161962 -0.937175 0.348485
  outer loop
   vertex -0.024842 0.228759 0.006654
   vertex -0.021908 0.228716 0.006402
   vertex -0.023164 0.229628 0.008913
  endloop
 endfacet
 facet normal 0.138975 -0.90647 0.398746
  outer loop
   vertex -0.021908 0.228716 0.006402
   vertex -0.020696 0.229764 0.008362
   vertex -0.023164 0.229628 0.008913
  endloop
 endfacet
 facet normal 0.420269 -0.815078 0.398776
  outer loop
   vertex -0.0191 0.229628 0.006402
   vertex -0.01862 0.231104 0.008913
   vertex -0.020696 0.229764 0.008362
  endloop
 endfacet
 facet normal 0.578519 -0.796783 0.174509
  outer loop
   vertex -0.017582 0.23018 0.00389
   vertex -0.016752 0.231388 0.006654
   vertex -0.0191 0.229628 0.006402
  endloop
 endfacet
 facet normal 0.704936 -0.704936 -0.0782949
  outer loop
   vertex -0.016588 0.231453 0.001378
   vertex -0.01537 0.232392 0.00389
   vertex -0.017582 0.23018 0.00389
  endloop
 endfacet
 facet normal 0.537986 -0.767602 0.348366
  outer loop
   vertex -0.0191 0.229628 0.006402
   vertex -0.016752 0.231388 0.006654
   vertex -0.01862 0.231104 0.008913
  endloop
 endfacet
 facet normal 0.629279 -0.640767 0.439803
  outer loop
   vertex -0.016752 0.231388 0.006654
   vertex -0.016578 0.23327 0.009147
   vertex -0.01862 0.231104 0.008913
  endloop
 endfacet
 facet normal 0.703824 -0.703824 0.0962537
  outer loop
   vertex -0.017582 0.23018 0.00389
   vertex -0.01537 0.232392 0.00389
   vertex -0.016752 0.231388 0.006654
  endloop
 endfacet
 facet normal 0.794662 -0.577331 0.18762
  outer loop
   vertex -0.01537 0.232392 0.00389
   vertex -0.014842 0.234017 0.006654
   vertex -0.016752 0.231388 0.006654
  endloop
 endfacet
 facet normal 0.754436 -0.548107 0.361117
  outer loop
   vertex -0.016752 0.231388 0.006654
   vertex -0.014842 0.234017 0.006654
   vertex -0.016578 0.23327 0.009147
  endloop
 endfacet
 facet normal 0.803858 -0.400541 0.439749
  outer loop
   vertex -0.014842 0.234017 0.006654
   vertex -0.015149 0.235881 0.008913
   vertex -0.016578 0.23327 0.009147
  endloop
 endfacet
 facet normal 0.797233 -0.579229 -0.170037
  outer loop
   vertex -0.016588 0.231453 0.001378
   vertex -0.014853 0.233841 0.001378
   vertex -0.01537 0.232392 0.00389
  endloop
 endfacet
 facet normal 0.888212 -0.452708 -0.078331
  outer loop
   vertex -0.014853 0.233841 0.001378
   vertex -0.013949 0.23518 0.00389
   vertex -0.01537 0.232392 0.00389
  endloop
 endfacet
 facet normal 0.886806 -0.451991 0.0963284
  outer loop
   vertex -0.01537 0.232392 0.00389
   vertex -0.013949 0.23518 0.00389
   vertex -0.014842 0.234017 0.006654
  endloop
 endfacet
 facet normal 0.93657 -0.303801 0.17476
  outer loop
   vertex -0.013949 0.23518 0.00389
   vertex -0.013894 0.236794 0.006401
   vertex -0.014842 0.234017 0.006654
  endloop
 endfacet
 facet normal 0.89641 -0.274294 0.348155
  outer loop
   vertex -0.014842 0.234017 0.006654
   vertex -0.013894 0.236794 0.006401
   vertex -0.015149 0.235881 0.008913
  endloop
 endfacet
 facet normal 0.905177 -0.147939 0.398459
  outer loop
   vertex -0.013894 0.236794 0.006401
   vertex -0.014516 0.23827 0.008362
   vertex -0.015149 0.235881 0.008913
  endloop
 endfacet
 facet normal 0.294416 0.906493 0.302638
  outer loop
   vertex -0.0191 0.246912 0.006402
   vertex -0.021908 0.247824 0.006402
   vertex -0.020696 0.246776 0.008362
  endloop
 endfacet
 facet normal 0.452705 0.888208 0.0783901
  outer loop
   vertex -0.017582 0.24636 0.00389
   vertex -0.02037 0.247781 0.00389
   vertex -0.0191 0.246912 0.006402
  endloop
 endfacet
 facet normal 0.578874 0.796508 -0.174584
  outer loop
   vertex -0.016588 0.245087 0.001378
   vertex -0.018988 0.246776 0.001126
   vertex -0.017582 0.24636 0.00389
  endloop
 endfacet
 facet normal 0.304389 0.937197 0.170322
  outer loop
   vertex -0.0191 0.246912 0.006402
   vertex -0.02037 0.247781 0.00389
   vertex -0.021908 0.247824 0.006402
  endloop
 endfacet
 facet normal 0.155824 0.984657 0.07855
  outer loop
   vertex -0.02037 0.247781 0.00389
   vertex -0.02346 0.24827 0.00389
   vertex -0.021908 0.247824 0.006402
  endloop
 endfacet
 facet normal 0.451986 0.886796 -0.0964489
  outer loop
   vertex -0.017582 0.24636 0.00389
   vertex -0.018988 0.246776 0.001126
   vertex -0.02037 0.247781 0.00389
  endloop
 endfacet
 facet normal 0.303796 0.934059 -0.187729
  outer loop
   vertex -0.018988 0.246776 0.001126
   vertex -0.022078 0.247781 0.001126
   vertex -0.02037 0.247781 0.00389
  endloop
 endfacet
 facet normal 0.155583 0.983133 -0.0961419
  outer loop
   vertex -0.02037 0.247781 0.00389
   vertex -0.022078 0.247781 0.001126
   vertex -0.02346 0.24827 0.00389
  endloop
 endfacet
 facet normal -0.000555151 0.98466 -0.174481
  outer loop
   vertex -0.022078 0.247781 0.001126
   vertex -0.025012 0.247824 0.001378
   vertex -0.02346 0.24827 0.00389
  endloop
 endfacet
 facet normal 0.563623 0.748876 -0.348589
  outer loop
   vertex -0.016588 0.245087 0.001378
   vertex -0.018141 0.245087 -0.001133
   vertex -0.018988 0.246776 0.001126
  endloop
 endfacet
 facet normal 0.415138 0.796394 -0.439791
  outer loop
   vertex -0.018141 0.245087 -0.001133
   vertex -0.020831 0.24636 -0.001367
   vertex -0.018988 0.246776 0.001126
  endloop
 endfacet
 facet normal 0.288415 0.886769 -0.361189
  outer loop
   vertex -0.018988 0.246776 0.001126
   vertex -0.020831 0.24636 -0.001367
   vertex -0.022078 0.247781 0.001126
  endloop
 endfacet
 facet normal 0.132412 0.888171 -0.440021
  outer loop
   vertex -0.020831 0.24636 -0.001367
   vertex -0.023756 0.246912 -0.001133
   vertex -0.022078 0.247781 0.001126
  endloop
 endfacet
 facet normal -0.0161962 0.937175 -0.348485
  outer loop
   vertex -0.022078 0.247781 0.001126
   vertex -0.023756 0.246912 -0.001133
   vertex -0.025012 0.247824 0.001378
  endloop
 endfacet
 facet normal -0.138975 0.90647 -0.398746
  outer loop
   vertex -0.023756 0.246912 -0.001133
   vertex -0.026224 0.246776 -0.000582
   vertex -0.025012 0.247824 0.001378
  endloop
 endfacet
 facet normal -0.771063 0.560215 0.302688
  outer loop
   vertex -0.030332 0.245087 0.006402
   vertex -0.032067 0.242699 0.006402
   vertex -0.030696 0.243527 0.008362
  endloop
 endfacet
 facet normal -0.704936 0.704936 0.0782949
  outer loop
   vertex -0.029338 0.24636 0.00389
   vertex -0.03155 0.244148 0.00389
   vertex -0.030332 0.245087 0.006402
  endloop
 endfacet
 facet normal -0.578519 0.796783 -0.174509
  outer loop
   vertex -0.02782 0.246912 0.001378
   vertex -0.030168 0.245152 0.001126
   vertex -0.029338 0.24636 0.00389
  endloop
 endfacet
 facet normal -0.797233 0.579229 0.170037
  outer loop
   vertex -0.030332 0.245087 0.006402
   vertex -0.03155 0.244148 0.00389
   vertex -0.032067 0.242699 0.006402
  endloop
 endfacet
 facet normal -0.888212 0.452708 0.078331
  outer loop
   vertex -0.03155 0.244148 0.00389
   vertex -0.032971 0.24136 0.00389
   vertex -0.032067 0.242699 0.006402
  endloop
 endfacet
 facet normal -0.703824 0.703824 -0.0962537
  outer loop
   vertex -0.029338 0.24636 0.00389
   vertex -0.030168 0.245152 0.001126
   vertex -0.03155 0.244148 0.00389
  endloop
 endfacet
 facet normal -0.794662 0.577331 -0.18762
  outer loop
   vertex -0.030168 0.245152 0.001126
   vertex -0.032078 0.242523 0.001126
   vertex -0.03155 0.244148 0.00389
  endloop
 endfacet
 facet normal -0.886806 0.451991 -0.0963284
  outer loop
   vertex -0.03155 0.244148 0.00389
   vertex -0.032078 0.242523 0.001126
   vertex -0.032971 0.24136 0.00389
  endloop
 endfacet
 facet normal -0.93657 0.303801 -0.17476
  outer loop
   vertex -0.032078 0.242523 0.001126
   vertex -0.033026 0.239746 0.001379
   vertex -0.032971 0.24136 0.00389
  endloop
 endfacet
 facet normal -0.537986 0.767602 -0.348366
  outer loop
   vertex -0.02782 0.246912 0.001378
   vertex -0.0283 0.245436 -0.001133
   vertex -0.030168 0.245152 0.001126
  endloop
 endfacet
 facet normal -0.629279 0.640767 -0.439803
  outer loop
   vertex -0.0283 0.245436 -0.001133
   vertex -0.030342 0.24327 -0.001367
   vertex -0.030168 0.245152 0.001126
  endloop
 endfacet
 facet normal -0.754436 0.548107 -0.361117
  outer loop
   vertex -0.030168 0.245152 0.001126
   vertex -0.030342 0.24327 -0.001367
   vertex -0.032078 0.242523 0.001126
  endloop
 endfacet
 facet normal -0.803858 0.400541 -0.439749
  outer loop
   vertex -0.030342 0.24327 -0.001367
   vertex -0.031771 0.240659 -0.001133
   vertex -0.032078 0.242523 0.001126
  endloop
 endfacet
 facet normal -0.89641 0.274294 -0.348155
  outer loop
   vertex -0.032078 0.242523 0.001126
   vertex -0.031771 0.240659 -0.001133
   vertex -0.033026 0.239746 0.001379
  endloop
 endfacet
 facet normal -0.905177 0.147939 -0.398459
  outer loop
   vertex -0.031771 0.240659 -0.001133
   vertex -0.032404 0.23827 -0.000582
   vertex -0.033026 0.239746 0.001379
  endloop
 endfacet
 facet normal -0.771063 -0.560215 0.302688
  outer loop
   vertex -0.032067 0.233841 0.006402
   vertex -0.030332 0.231453 0.006402
   vertex -0.030696 0.233013 0.008362
  endloop
 endfacet
 facet normal -0.888212 -0.452708 0.078331
  outer loop
   vertex -0.032971 0.23518 0.00389
   vertex -0.03155 0.232392 0.00389
   vertex -0.032067 0.233841 0.006402
  endloop
 endfacet
 facet normal -0.93657 -0.303801 -0.17476
  outer loop
   vertex -0.033026 0.236794 0.001379
   vertex -0.032078 0.234017 0.001126
   vertex -0.032971 0.23518 0.00389
  endloop
 endfacet
 facet normal -0.797233 -0.579229 0.170037
  outer loop
   vertex -0.032067 0.233841 0.006402
   vertex -0.03155 0.232392 0.00389
   vertex -0.030332 0.231453 0.006402
  endloop
 endfacet
 facet normal -0.704936 -0.704936 0.0782949
  outer loop
   vertex -0.03155 0.232392 0.00389
   vertex -0.029338 0.23018 0.00389
   vertex -0.030332 0.231453 0.006402
  endloop
 endfacet
 facet normal -0.886806 -0.451991 -0.0963284
  outer loop
   vertex -0.032971 0.23518 0.00389
   vertex -0.032078 0.234017 0.001126
   vertex -0.03155 0.232392 0.00389
  endloop
 endfacet
 facet normal -0.794662 -0.577331 -0.18762
  outer loop
   vertex -0.032078 0.234017 0.001126
   vertex -0.030168 0.231388 0.001126
   vertex -0.03155 0.232392 0.00389
  endloop
 endfacet
 facet normal -0.703824 -0.703824 -0.0962537
  outer loop
   vertex -0.03155 0.232392 0.00389
   vertex -0.030168 0.231388 0.001126
   vertex -0.029338 0.23018 0.00389
  endloop
 endfacet
 facet normal -0.578519 -0.796783 -0.174509
  outer loop
   vertex -0.030168 0.231388 0.001126
   vertex -0.02782 0.229628 0.001378
   vertex -0.029338 0.23018 0.00389
  endloop
 endfacet
 facet normal -0.89641 -0.274294 -0.348155
  outer loop
   vertex -0.033026 0.236794 0.001379
   vertex -0.031771 0.235881 -0.001133
   vertex -0.032078 0.234017 0.001126
  endloop
 endfacet
 facet normal -0.803858 -0.400541 -0.439749
  outer loop
   vertex -0.031771 0.235881 -0.001133
   vertex -0.030342 0.23327 -0.001367
   vertex -0.032078 0.234017 0.001126
  endloop
 endfacet
 facet normal -0.754436 -0.548107 -0.361117
  outer loop
   vertex -0.032078 0.234017 0.001126
   vertex -0.030342 0.23327 -0.001367
   vertex -0.030168 0.231388 0.001126
  endloop
 endfacet
 facet normal -0.629279 -0.640767 -0.439803
  outer loop
   vertex -0.030342 0.23327 -0.001367
   vertex -0.0283 0.231104 -0.001133
   vertex -0.030168 0.231388 0.001126
  endloop
 endfacet
 facet normal -0.537986 -0.767602 -0.348366
  outer loop
   vertex -0.030168 0.231388 0.001126
   vertex -0.0283 0.231104 -0.001133
   vertex -0.02782 0.229628 0.001378
  endloop
 endfacet
 facet normal -0.420269 -0.815078 -0.398776
  outer loop
   vertex -0.0283 0.231104 -0.001133
   vertex -0.026224 0.229764 -0.000582
   vertex -0.02782 0.229628 0.001378
  endloop
 endfacet
 facet normal 0.294416 -0.906493 0.302638
  outer loop
   vertex -0.021908 0.228716 0.006402
   vertex -0.0191 0.229628 0.006402
   vertex -0.020696 0.229764 0.008362
  endloop
 endfacet
 facet normal 0.155824 -0.984657 0.07855
  outer loop
   vertex -0.02346 0.22827 0.00389
   vertex -0.02037 0.228759 0.00389
   vertex -0.021908 0.228716 0.006402
  endloop
 endfacet
 facet normal -0.000555151 -0.98466 -0.174481
  outer loop
   vertex -0.025012 0.228716 0.001378
   vertex -0.022078 0.228759 0.001126
   vertex -0.02346 0.22827 0.00389
  endloop
 endfacet
 facet normal 0.304389 -0.937197 0.170322
  outer loop
   vertex -0.021908 0.228716 0.006402
   vertex -0.02037 0.228759 0.00389
   vertex -0.0191 0.229628 0.006402
  endloop
 endfacet
 facet normal 0.452705 -0.888208 0.0783901
  outer loop
   vertex -0.02037 0.228759 0.00389
   vertex -0.017582 0.23018 0.00389
   vertex -0.0191 0.229628 0.006402
  endloop
 endfacet
 facet normal 0.155583 -0.983133 -0.0961419
  outer loop
   vertex -0.02346 0.22827 0.00389
   vertex -0.022078 0.228759 0.001126
   vertex -0.02037 0.228759 0.00389
  endloop
 endfacet
 facet normal 0.303796 -0.934059 -0.187729
  outer loop
   vertex -0.022078 0.228759 0.001126
   vertex -0.018988 0.229764 0.001126
   vertex -0.02037 0.228759 0.00389
  endloop
 endfacet
 facet normal 0.451986 -0.886796 -0.0964489
  outer loop
   vertex -0.02037 0.228759 0.00389
   vertex -0.018988 0.229764 0.001126
   vertex -0.017582 0.23018 0.00389
  endloop
 endfacet
 facet normal 0.578874 -0.796508 -0.174584
  outer loop
   vertex -0.018988 0.229764 0.001126
   vertex -0.016588 0.231453 0.001378
   vertex -0.017582 0.23018 0.00389
  endloop
 endfacet
 facet normal -0.0161962 -0.937175 -0.348485
  outer loop
   vertex -0.025012 0.228716 0.001378
   vertex -0.023756 0.229628 -0.001133
   vertex -0.022078 0.228759 0.001126
  endloop
 endfacet
 facet normal 0.132412 -0.888171 -0.440021
  outer loop
   vertex -0.023756 0.229628 -0.001133
   vertex -0.020831 0.23018 -0.001367
   vertex -0.022078 0.228759 0.001126
  endloop
 endfacet
 facet normal 0.288415 -0.886769 -0.361189
  outer loop
   vertex -0.022078 0.228759 0.001126
   vertex -0.020831 0.23018 -0.001367
   vertex -0.018988 0.229764 0.001126
  endloop
 endfacet
 facet normal 0.415138 -0.796394 -0.439791
  outer loop
   vertex -0.020831 0.23018 -0.001367
   vertex -0.018141 0.231453 -0.001133
   vertex -0.018988 0.229764 0.001126
  endloop
 endfacet
 facet normal 0.563623 -0.748876 -0.348589
  outer loop
   vertex -0.018988 0.229764 0.001126
   vertex -0.018141 0.231453 -0.001133
   vertex -0.016588 0.231453 0.001378
  endloop
 endfacet
 facet normal 0.645038 -0.651744 -0.398942
  outer loop
   vertex -0.018141 0.231453 -0.001133
   vertex -0.016224 0.233013 -0.000582
   vertex -0.016588 0.231453 0.001378
  endloop
 endfacet
 facet normal 0.9532 -0 0.302341
  outer loop
   vertex -0.013894 0.236794 0.006401
   vertex -0.013894 0.239746 0.006401
   vertex -0.014516 0.23827 0.008362
  endloop
 endfacet
 facet normal 0.984653 -0.155824 0.0785916
  outer loop
   vertex -0.013949 0.23518 0.00389
   vertex -0.01346 0.23827 0.00389
   vertex -0.013894 0.236794 0.006401
  endloop
 endfacet
 facet normal 0.936352 -0.304548 -0.174631
  outer loop
   vertex -0.014853 0.233841 0.001378
   vertex -0.013988 0.236645 0.001126
   vertex -0.013949 0.23518 0.00389
  endloop
 endfacet
 facet normal 0.98539 -0 0.170314
  outer loop
   vertex -0.013894 0.236794 0.006401
   vertex -0.01346 0.23827 0.00389
   vertex -0.013894 0.239746 0.006401
  endloop
 endfacet
 facet normal 0.984653 0.155824 0.0785916
  outer loop
   vertex -0.01346 0.23827 0.00389
   vertex -0.013949 0.24136 0.00389
   vertex -0.013894 0.239746 0.006401
  endloop
 endfacet
 facet normal 0.983115 -0.15558 -0.0963335
  outer loop
   vertex -0.013949 0.23518 0.00389
   vertex -0.013988 0.236645 0.001126
   vertex -0.01346 0.23827 0.00389
  endloop
 endfacet
 facet normal 0.982239 0 -0.187634
  outer loop
   vertex -0.013988 0.236645 0.001126
   vertex -0.013988 0.239895 0.001126
   vertex -0.01346 0.23827 0.00389
  endloop
 endfacet
 facet normal 0.983115 0.15558 -0.0963335
  outer loop
   vertex -0.01346 0.23827 0.00389
   vertex -0.013988 0.239895 0.001126
   vertex -0.013949 0.24136 0.00389
  endloop
 endfacet
 facet normal 0.936352 0.304548 -0.174631
  outer loop
   vertex -0.013988 0.239895 0.001126
   vertex -0.014853 0.242699 0.001378
   vertex -0.013949 0.24136 0.00389
  endloop
 endfacet
 facet normal 0.886309 -0.304753 -0.348685
  outer loop
   vertex -0.014853 0.233841 0.001378
   vertex -0.015333 0.235318 -0.001133
   vertex -0.013988 0.236645 0.001126
  endloop
 endfacet
 facet normal 0.885615 -0.148581 -0.440011
  outer loop
   vertex -0.015333 0.235318 -0.001133
   vertex -0.014954 0.23827 -0.001367
   vertex -0.013988 0.236645 0.001126
  endloop
 endfacet
 facet normal 0.932446 0 -0.361309
  outer loop
   vertex -0.013988 0.236645 0.001126
   vertex -0.014954 0.23827 -0.001367
   vertex -0.013988 0.239895 0.001126
  endloop
 endfacet
 facet normal 0.885615 0.148581 -0.440011
  outer loop
   vertex -0.014954 0.23827 -0.001367
   vertex -0.015333 0.241222 -0.001133
   vertex -0.013988 0.239895 0.001126
  endloop
 endfacet
 facet normal 0.886309 0.304753 -0.348685
  outer loop
   vertex -0.013988 0.239895 0.001126
   vertex -0.015333 0.241222 -0.001133
   vertex -0.014853 0.242699 0.001378
  endloop
 endfacet
 facet normal 0.819189 0.412026 -0.398954
  outer loop
   vertex -0.015333 0.241222 -0.001133
   vertex -0.016224 0.243527 -0.000582
   vertex -0.014853 0.242699 0.001378
  endloop
 endfacet
 facet normal 0.61533 0.560308 -0.554459
  outer loop
   vertex -0.017365 0.242699 -0.002685
   vertex -0.018141 0.245087 -0.001133
   vertex -0.016224 0.243527 -0.000582
  endloop
 endfacet
 facet normal 0.467426 0.452641 -0.759361
  outer loop
   vertex -0.019207 0.24136 -0.004617
   vertex -0.019842 0.244148 -0.003346
   vertex -0.017365 0.242699 -0.002685
  endloop
 endfacet
 facet normal 0.262485 0.303841 -0.915851
  outer loop
   vertex -0.021428 0.239746 -0.005789
   vertex -0.022078 0.242523 -0.005054
   vertex -0.019207 0.24136 -0.004617
  endloop
 endfacet
 facet normal 0.508799 0.579247 -0.636864
  outer loop
   vertex -0.017365 0.242699 -0.002685
   vertex -0.019842 0.244148 -0.003346
   vertex -0.018141 0.245087 -0.001133
  endloop
 endfacet
 facet normal 0.38541 0.704977 -0.595371
  outer loop
   vertex -0.019842 0.244148 -0.003346
   vertex -0.020831 0.24636 -0.001367
   vertex -0.018141 0.245087 -0.001133
  endloop
 endfacet
 facet normal 0.310374 0.451949 -0.836307
  outer loop
   vertex -0.019207 0.24136 -0.004617
   vertex -0.022078 0.242523 -0.005054
   vertex -0.019842 0.244148 -0.003346
  endloop
 endfacet
 facet normal 0.187559 0.577248 -0.794737
  outer loop
   vertex -0.022078 0.242523 -0.005054
   vertex -0.022932 0.245152 -0.003346
   vertex -0.019842 0.244148 -0.003346
  endloop
 endfacet
 facet normal 0.228709 0.703897 -0.672474
  outer loop
   vertex -0.019842 0.244148 -0.003346
   vertex -0.022932 0.245152 -0.003346
   vertex -0.020831 0.24636 -0.001367
  endloop
 endfacet
 facet normal 0.102735 0.796801 -0.595444
  outer loop
   vertex -0.022932 0.245152 -0.003346
   vertex -0.023756 0.246912 -0.001133
   vertex -0.020831 0.24636 -0.001367
  endloop
 endfacet
 facet normal 0.0891868 0.274301 -0.957499
  outer loop
   vertex -0.021428 0.239746 -0.005789
   vertex -0.024236 0.240659 -0.005789
   vertex -0.022078 0.242523 -0.005054
  endloop
 endfacet
 facet normal -0.0336945 0.400135 -0.915836
  outer loop
   vertex -0.024236 0.240659 -0.005789
   vertex -0.025085 0.24327 -0.004617
   vertex -0.022078 0.242523 -0.005054
  endloop
 endfacet
 facet normal 0.0146149 0.548074 -0.836302
  outer loop
   vertex -0.022078 0.242523 -0.005054
   vertex -0.025085 0.24327 -0.004617
   vertex -0.022932 0.245152 -0.003346
  endloop
 endfacet
 facet normal -0.112009 0.640965 -0.759354
  outer loop
   vertex -0.025085 0.24327 -0.004617
   vertex -0.025788 0.245436 -0.002685
   vertex -0.022932 0.245152 -0.003346
  endloop
 endfacet
 facet normal -0.0710868 0.767617 -0.636955
  outer loop
   vertex -0.022932 0.245152 -0.003346
   vertex -0.025788 0.245436 -0.002685
   vertex -0.023756 0.246912 -0.001133
  endloop
 endfacet
 facet normal -0.168666 0.815046 -0.554303
  outer loop
   vertex -0.025788 0.245436 -0.002685
   vertex -0.026224 0.246776 -0.000582
   vertex -0.023756 0.246912 -0.001133
  endloop
 endfacet
 facet normal -0.342493 0.758552 -0.554344
  outer loop
   vertex -0.025788 0.245436 -0.002685
   vertex -0.0283 0.245436 -0.001133
   vertex -0.026224 0.246776 -0.000582
  endloop
 endfacet
 facet normal -0.286233 0.584386 -0.759318
  outer loop
   vertex -0.025085 0.24327 -0.004617
   vertex -0.027932 0.243527 -0.003346
   vertex -0.025788 0.245436 -0.002685
  endloop
 endfacet
 facet normal -0.207851 0.343516 -0.915858
  outer loop
   vertex -0.024236 0.240659 -0.005789
   vertex -0.027078 0.240899 -0.005054
   vertex -0.025085 0.24327 -0.004617
  endloop
 endfacet
 facet normal -0.393627 0.662685 -0.637108
  outer loop
   vertex -0.025788 0.245436 -0.002685
   vertex -0.027932 0.243527 -0.003346
   vertex -0.0283 0.245436 -0.001133
  endloop
 endfacet
 facet normal -0.551379 0.584158 -0.595601
  outer loop
   vertex -0.027932 0.243527 -0.003346
   vertex -0.030342 0.24327 -0.001367
   vertex -0.0283 0.245436 -0.001133
  endloop
 endfacet
 facet normal -0.334054 0.43492 -0.836213
  outer loop
   vertex -0.025085 0.24327 -0.004617
   vertex -0.027078 0.240899 -0.005054
   vertex -0.027932 0.243527 -0.003346
  endloop
 endfacet
 facet normal -0.491058 0.356895 -0.794662
  outer loop
   vertex -0.027078 0.240899 -0.005054
   vertex -0.029842 0.240899 -0.003346
   vertex -0.027932 0.243527 -0.003346
  endloop
 endfacet
 facet normal -0.598657 0.435097 -0.672533
  outer loop
   vertex -0.027932 0.243527 -0.003346
   vertex -0.029842 0.240899 -0.003346
   vertex -0.030342 0.24327 -0.001367
  endloop
 endfacet
 facet normal -0.725985 0.343961 -0.595514
  outer loop
   vertex -0.029842 0.240899 -0.003346
   vertex -0.031771 0.240659 -0.001133
   vertex -0.030342 0.24327 -0.001367
  endloop
 endfacet
 facet normal -0.233325 0.169451 -0.957521
  outer loop
   vertex -0.024236 0.240659 -0.005789
   vertex -0.025971 0.23827 -0.005789
   vertex -0.027078 0.240899 -0.005054
  endloop
 endfacet
 facet normal -0.390899 0.0914587 -0.915878
  outer loop
   vertex -0.025971 0.23827 -0.005789
   vertex -0.028717 0.23827 -0.004617
   vertex -0.027078 0.240899 -0.005054
  endloop
 endfacet
 facet normal -0.516783 0.183167 -0.836293
  outer loop
   vertex -0.027078 0.240899 -0.005054
   vertex -0.028717 0.23827 -0.004617
   vertex -0.029842 0.240899 -0.003346
  endloop
 endfacet
 facet normal -0.644269 0.0913996 -0.759317
  outer loop
   vertex -0.028717 0.23827 -0.004617
   vertex -0.030994 0.23827 -0.002685
   vertex -0.029842 0.240899 -0.003346
  endloop
 endfacet
 facet normal -0.751958 0.169318 -0.637095
  outer loop
   vertex -0.029842 0.240899 -0.003346
   vertex -0.030994 0.23827 -0.002685
   vertex -0.031771 0.240659 -0.001133
  endloop
 endfacet
 facet normal -0.827124 0.091254 -0.554562
  outer loop
   vertex -0.030994 0.23827 -0.002685
   vertex -0.032404 0.23827 -0.000582
   vertex -0.031771 0.240659 -0.001133
  endloop
 endfacet
 facet normal -0.827124 -0.091254 -0.554562
  outer loop
   vertex -0.030994 0.23827 -0.002685
   vertex -0.031771 0.235881 -0.001133
   vertex -0.032404 0.23827 -0.000582
  endloop
 endfacet
 facet normal -0.644269 -0.0913996 -0.759317
  outer loop
   vertex -0.028717 0.23827 -0.004617
   vertex -0.029842 0.235641 -0.003346
   vertex -0.030994 0.23827 -0.002685
  endloop
 endfacet
 facet normal -0.390899 -0.0914587 -0.915878
  outer loop
   vertex -0.025971 0.23827 -0.005789
   vertex -0.027078 0.235641 -0.005054
   vertex -0.028717 0.23827 -0.004617
  endloop
 endfacet
 facet normal -0.751958 -0.169318 -0.637095
  outer loop
   vertex -0.030994 0.23827 -0.002685
   vertex -0.029842 0.235641 -0.003346
   vertex -0.031771 0.235881 -0.001133
  endloop
 endfacet
 facet normal -0.725985 -0.343961 -0.595514
  outer loop
   vertex -0.029842 0.235641 -0.003346
   vertex -0.030342 0.23327 -0.001367
   vertex -0.031771 0.235881 -0.001133
  endloop
 endfacet
 facet normal -0.516783 -0.183167 -0.836293
  outer loop
   vertex -0.028717 0.23827 -0.004617
   vertex -0.027078 0.235641 -0.005054
   vertex -0.029842 0.235641 -0.003346
  endloop
 endfacet
 facet normal -0.491058 -0.356895 -0.794662
  outer loop
   vertex -0.027078 0.235641 -0.005054
   vertex -0.027932 0.233013 -0.003346
   vertex -0.029842 0.235641 -0.003346
  endloop
 endfacet
 facet normal -0.598657 -0.435097 -0.672533
  outer loop
   vertex -0.029842 0.235641 -0.003346
   vertex -0.027932 0.233013 -0.003346
   vertex -0.030342 0.23327 -0.001367
  endloop
 endfacet
 facet normal -0.551379 -0.584158 -0.595601
  outer loop
   vertex -0.027932 0.233013 -0.003346
   vertex -0.0283 0.231104 -0.001133
   vertex -0.030342 0.23327 -0.001367
  endloop
 endfacet
 facet normal -0.233325 -0.169451 -0.957521
  outer loop
   vertex -0.025971 0.23827 -0.005789
   vertex -0.024236 0.235881 -0.005789
   vertex -0.027078 0.235641 -0.005054
  endloop
 endfacet
 facet normal -0.207851 -0.343516 -0.915858
  outer loop
   vertex -0.024236 0.235881 -0.005789
   vertex -0.025085 0.23327 -0.004617
   vertex -0.027078 0.235641 -0.005054
  endloop
 endfacet
 facet normal -0.334054 -0.43492 -0.836213
  outer loop
   vertex -0.027078 0.235641 -0.005054
   vertex -0.025085 0.23327 -0.004617
   vertex -0.027932 0.233013 -0.003346
  endloop
 endfacet
 facet normal -0.286233 -0.584386 -0.759318
  outer loop
   vertex -0.025085 0.23327 -0.004617
   vertex -0.025788 0.231104 -0.002685
   vertex -0.027932 0.233013 -0.003346
  endloop
 endfacet
 facet normal -0.393627 -0.662685 -0.637108
  outer loop
   vertex -0.027932 0.233013 -0.003346
   vertex -0.025788 0.231104 -0.002685
   vertex -0.0283 0.231104 -0.001133
  endloop
 endfacet
 facet normal -0.342493 -0.758552 -0.554344
  outer loop
   vertex -0.025788 0.231104 -0.002685
   vertex -0.026224 0.229764 -0.000582
   vertex -0.0283 0.231104 -0.001133
  endloop
 endfacet
 facet normal 0.723015 0.412034 -0.554506
  outer loop
   vertex -0.015333 0.241222 -0.001133
   vertex -0.017365 0.242699 -0.002685
   vertex -0.016224 0.243527 -0.000582
  endloop
 endfacet
 facet normal 0.789589 0.148568 -0.59538
  outer loop
   vertex -0.014954 0.23827 -0.001367
   vertex -0.016752 0.239895 -0.003346
   vertex -0.015333 0.241222 -0.001133
  endloop
 endfacet
 facet normal 0.789589 -0.148568 -0.59538
  outer loop
   vertex -0.015333 0.235318 -0.001133
   vertex -0.016752 0.236645 -0.003346
   vertex -0.014954 0.23827 -0.001367
  endloop
 endfacet
 facet normal 0.708089 0.304936 -0.636886
  outer loop
   vertex -0.015333 0.241222 -0.001133
   vertex -0.016752 0.239895 -0.003346
   vertex -0.017365 0.242699 -0.002685
  endloop
 endfacet
 facet normal 0.574948 0.304695 -0.759339
  outer loop
   vertex -0.016752 0.239895 -0.003346
   vertex -0.019207 0.24136 -0.004617
   vertex -0.017365 0.242699 -0.002685
  endloop
 endfacet
 facet normal 0.740143 0 -0.672449
  outer loop
   vertex -0.014954 0.23827 -0.001367
   vertex -0.016752 0.236645 -0.003346
   vertex -0.016752 0.239895 -0.003346
  endloop
 endfacet
 facet normal 0.607028 0 -0.794681
  outer loop
   vertex -0.016752 0.236645 -0.003346
   vertex -0.018988 0.23827 -0.005054
   vertex -0.016752 0.239895 -0.003346
  endloop
 endfacet
 facet normal 0.525774 0.155534 -0.836284
  outer loop
   vertex -0.016752 0.239895 -0.003346
   vertex -0.018988 0.23827 -0.005054
   vertex -0.019207 0.24136 -0.004617
  endloop
 endfacet
 facet normal 0.370096 0.155752 -0.915844
  outer loop
   vertex -0.018988 0.23827 -0.005054
   vertex -0.021428 0.239746 -0.005789
   vertex -0.019207 0.24136 -0.004617
  endloop
 endfacet
 facet normal 0.708089 -0.304936 -0.636886
  outer loop
   vertex -0.015333 0.235318 -0.001133
   vertex -0.017365 0.233841 -0.002685
   vertex -0.016752 0.236645 -0.003346
  endloop
 endfacet
 facet normal 0.574948 -0.304695 -0.759339
  outer loop
   vertex -0.017365 0.233841 -0.002685
   vertex -0.019207 0.23518 -0.004617
   vertex -0.016752 0.236645 -0.003346
  endloop
 endfacet
 facet normal 0.525774 -0.155534 -0.836284
  outer loop
   vertex -0.016752 0.236645 -0.003346
   vertex -0.019207 0.23518 -0.004617
   vertex -0.018988 0.23827 -0.005054
  endloop
 endfacet
 facet normal 0.370096 -0.155752 -0.915844
  outer loop
   vertex -0.019207 0.23518 -0.004617
   vertex -0.021428 0.236794 -0.005789
   vertex -0.018988 0.23827 -0.005054
  endloop
 endfacet
 facet normal 0.288428 0 -0.957502
  outer loop
   vertex -0.018988 0.23827 -0.005054
   vertex -0.021428 0.236794 -0.005789
   vertex -0.021428 0.239746 -0.005789
  endloop
 endfacet
 facet normal 0.156037 0 -0.987751
  outer loop
   vertex -0.021428 0.236794 -0.005789
   vertex -0.02346 0.23827 -0.00611
   vertex -0.021428 0.239746 -0.005789
  endloop
 endfacet
 facet normal -0.168666 -0.815046 -0.554303
  outer loop
   vertex -0.025788 0.231104 -0.002685
   vertex -0.023756 0.229628 -0.001133
   vertex -0.026224 0.229764 -0.000582
  endloop
 endfacet
 facet normal -0.112009 -0.640965 -0.759354
  outer loop
   vertex -0.025085 0.23327 -0.004617
   vertex -0.022932 0.231388 -0.003346
   vertex -0.025788 0.231104 -0.002685
  endloop
 endfacet
 facet normal -0.0336945 -0.400135 -0.915836
  outer loop
   vertex -0.024236 0.235881 -0.005789
   vertex -0.022078 0.234017 -0.005054
   vertex -0.025085 0.23327 -0.004617
  endloop
 endfacet
 facet normal -0.0710868 -0.767617 -0.636955
  outer loop
   vertex -0.025788 0.231104 -0.002685
   vertex -0.022932 0.231388 -0.003346
   vertex -0.023756 0.229628 -0.001133
  endloop
 endfacet
 facet normal 0.102735 -0.796801 -0.595444
  outer loop
   vertex -0.022932 0.231388 -0.003346
   vertex -0.020831 0.23018 -0.001367
   vertex -0.023756 0.229628 -0.001133
  endloop
 endfacet
 facet normal 0.0146149 -0.548074 -0.836302
  outer loop
   vertex -0.025085 0.23327 -0.004617
   vertex -0.022078 0.234017 -0.005054
   vertex -0.022932 0.231388 -0.003346
  endloop
 endfacet
 facet normal 0.187559 -0.577248 -0.794737
  outer loop
   vertex -0.022078 0.234017 -0.005054
   vertex -0.019842 0.232392 -0.003346
   vertex -0.022932 0.231388 -0.003346
  endloop
 endfacet
 facet normal 0.228709 -0.703897 -0.672474
  outer loop
   vertex -0.022932 0.231388 -0.003346
   vertex -0.019842 0.232392 -0.003346
   vertex -0.020831 0.23018 -0.001367
  endloop
 endfacet
 facet normal 0.38541 -0.704977 -0.595371
  outer loop
   vertex -0.019842 0.232392 -0.003346
   vertex -0.018141 0.231453 -0.001133
   vertex -0.020831 0.23018 -0.001367
  endloop
 endfacet
 facet normal 0.0891868 -0.274301 -0.957499
  outer loop
   vertex -0.024236 0.235881 -0.005789
   vertex -0.021428 0.236794 -0.005789
   vertex -0.022078 0.234017 -0.005054
  endloop
 endfacet
 facet normal 0.262485 -0.303841 -0.915851
  outer loop
   vertex -0.021428 0.236794 -0.005789
   vertex -0.019207 0.23518 -0.004617
   vertex -0.022078 0.234017 -0.005054
  endloop
 endfacet
 facet normal 0.310374 -0.451949 -0.836307
  outer loop
   vertex -0.022078 0.234017 -0.005054
   vertex -0.019207 0.23518 -0.004617
   vertex -0.019842 0.232392 -0.003346
  endloop
 endfacet
 facet normal 0.467426 -0.452641 -0.759361
  outer loop
   vertex -0.019207 0.23518 -0.004617
   vertex -0.017365 0.233841 -0.002685
   vertex -0.019842 0.232392 -0.003346
  endloop
 endfacet
 facet normal 0.508799 -0.579247 -0.636864
  outer loop
   vertex -0.019842 0.232392 -0.003346
   vertex -0.017365 0.233841 -0.002685
   vertex -0.018141 0.231453 -0.001133
  endloop
 endfacet
 facet normal 0.61533 -0.560308 -0.554459
  outer loop
   vertex -0.017365 0.233841 -0.002685
   vertex -0.016224 0.233013 -0.000582
   vertex -0.018141 0.231453 -0.001133
  endloop
 endfacet
endsolid ExportedfromBlender-3.5.1
