solid ExportedfromBlender-3.5.1
 facet normal 0.0482486 -0.148392 -0.987751
  outer loop
   vertex 0.02484 0.30848 0.01489
   vertex 0.026872 0.307004 0.015211
   vertex 0.024064 0.306091 0.015211
  endloop
 endfacet
 facet normal 0.723015 -0.412034 -0.554506
  outer loop
   vertex 0.032076 0.303223 0.020418
   vertex 0.030935 0.304051 0.018315
   vertex 0.032967 0.305528 0.019867
  endloop
 endfacet
 facet normal -0.126271 -0.0917039 -0.987748
  outer loop
   vertex 0.02484 0.30848 0.01489
   vertex 0.024064 0.306091 0.015211
   vertex 0.022329 0.30848 0.015211
  endloop
 endfacet
 facet normal -0.126271 0.0917039 -0.987748
  outer loop
   vertex 0.02484 0.30848 0.01489
   vertex 0.022329 0.30848 0.015211
   vertex 0.024064 0.310869 0.015211
  endloop
 endfacet
 facet normal 0.0482486 0.148392 -0.987751
  outer loop
   vertex 0.02484 0.30848 0.01489
   vertex 0.024064 0.310869 0.015211
   vertex 0.026872 0.309956 0.015211
  endloop
 endfacet
 facet normal 0.819189 -0.412026 -0.398954
  outer loop
   vertex 0.032076 0.303223 0.020418
   vertex 0.032967 0.305528 0.019867
   vertex 0.033447 0.304051 0.022378
  endloop
 endfacet
 facet normal -0.138975 -0.90647 -0.398746
  outer loop
   vertex 0.022076 0.299974 0.020418
   vertex 0.024544 0.299838 0.019867
   vertex 0.023288 0.298926 0.022378
  endloop
 endfacet
 facet normal -0.905177 -0.147939 -0.398459
  outer loop
   vertex 0.015896 0.30848 0.020418
   vertex 0.016529 0.306091 0.019867
   vertex 0.015274 0.307004 0.022379
  endloop
 endfacet
 facet normal -0.420269 0.815078 -0.398776
  outer loop
   vertex 0.022076 0.316986 0.020418
   vertex 0.02 0.315646 0.019867
   vertex 0.02048 0.317122 0.022378
  endloop
 endfacet
 facet normal 0.645038 0.651744 -0.398942
  outer loop
   vertex 0.032076 0.313737 0.020418
   vertex 0.030159 0.315297 0.019867
   vertex 0.031712 0.315297 0.022378
  endloop
 endfacet
 facet normal 0.771063 -0.560215 -0.302688
  outer loop
   vertex 0.032076 0.303223 0.020418
   vertex 0.033447 0.304051 0.022378
   vertex 0.031712 0.301663 0.022378
  endloop
 endfacet
 facet normal -0.294416 -0.906493 -0.302638
  outer loop
   vertex 0.022076 0.299974 0.020418
   vertex 0.023288 0.298926 0.022378
   vertex 0.02048 0.299838 0.022378
  endloop
 endfacet
 facet normal -0.9532 0 -0.302341
  outer loop
   vertex 0.015896 0.30848 0.020418
   vertex 0.015274 0.307004 0.022379
   vertex 0.015274 0.309956 0.022379
  endloop
 endfacet
 facet normal -0.294416 0.906493 -0.302638
  outer loop
   vertex 0.022076 0.316986 0.020418
   vertex 0.02048 0.317122 0.022378
   vertex 0.023288 0.318034 0.022378
  endloop
 endfacet
 facet normal 0.771063 0.560215 -0.302688
  outer loop
   vertex 0.032076 0.313737 0.020418
   vertex 0.031712 0.315297 0.022378
   vertex 0.033447 0.312909 0.022378
  endloop
 endfacet
 facet normal 0.342493 -0.758552 0.554344
  outer loop
   vertex 0.027604 0.299974 0.029362
   vertex 0.02968 0.301314 0.029913
   vertex 0.027168 0.301314 0.031465
  endloop
 endfacet
 facet normal -0.61533 -0.560308 0.554459
  outer loop
   vertex 0.017604 0.303223 0.029362
   vertex 0.019521 0.301663 0.029913
   vertex 0.018745 0.304051 0.031465
  endloop
 endfacet
 facet normal -0.723015 0.412034 0.554506
  outer loop
   vertex 0.017604 0.313737 0.029362
   vertex 0.016713 0.311432 0.029913
   vertex 0.018745 0.312909 0.031465
  endloop
 endfacet
 facet normal 0.168666 0.815046 0.554303
  outer loop
   vertex 0.027604 0.316986 0.029362
   vertex 0.025136 0.317122 0.029913
   vertex 0.027168 0.315646 0.031465
  endloop
 endfacet
 facet normal 0.827124 0.091254 0.554562
  outer loop
   vertex 0.033784 0.30848 0.029362
   vertex 0.033151 0.310869 0.029913
   vertex 0.032374 0.30848 0.031465
  endloop
 endfacet
 facet normal 0.126271 0.0917039 0.987748
  outer loop
   vertex 0.027351 0.30848 0.034569
   vertex 0.025616 0.310869 0.034569
   vertex 0.02484 0.30848 0.03489
  endloop
 endfacet
 facet normal 0.390899 0.0914587 0.915878
  outer loop
   vertex 0.030097 0.30848 0.033397
   vertex 0.028458 0.311109 0.033834
   vertex 0.027351 0.30848 0.034569
  endloop
 endfacet
 facet normal 0.644269 0.0913996 0.759317
  outer loop
   vertex 0.032374 0.30848 0.031465
   vertex 0.031222 0.311109 0.032126
   vertex 0.030097 0.30848 0.033397
  endloop
 endfacet
 facet normal 0.233325 0.169451 0.957521
  outer loop
   vertex 0.027351 0.30848 0.034569
   vertex 0.028458 0.311109 0.033834
   vertex 0.025616 0.310869 0.034569
  endloop
 endfacet
 facet normal 0.207851 0.343516 0.915858
  outer loop
   vertex 0.028458 0.311109 0.033834
   vertex 0.026465 0.31348 0.033397
   vertex 0.025616 0.310869 0.034569
  endloop
 endfacet
 facet normal 0.516783 0.183167 0.836293
  outer loop
   vertex 0.030097 0.30848 0.033397
   vertex 0.031222 0.311109 0.032126
   vertex 0.028458 0.311109 0.033834
  endloop
 endfacet
 facet normal 0.491058 0.356895 0.794662
  outer loop
   vertex 0.031222 0.311109 0.032126
   vertex 0.029312 0.313737 0.032126
   vertex 0.028458 0.311109 0.033834
  endloop
 endfacet
 facet normal 0.334054 0.43492 0.836213
  outer loop
   vertex 0.028458 0.311109 0.033834
   vertex 0.029312 0.313737 0.032126
   vertex 0.026465 0.31348 0.033397
  endloop
 endfacet
 facet normal 0.286233 0.584386 0.759318
  outer loop
   vertex 0.029312 0.313737 0.032126
   vertex 0.027168 0.315646 0.031465
   vertex 0.026465 0.31348 0.033397
  endloop
 endfacet
 facet normal 0.751958 0.169318 0.637095
  outer loop
   vertex 0.032374 0.30848 0.031465
   vertex 0.033151 0.310869 0.029913
   vertex 0.031222 0.311109 0.032126
  endloop
 endfacet
 facet normal 0.725985 0.343961 0.595514
  outer loop
   vertex 0.033151 0.310869 0.029913
   vertex 0.031722 0.31348 0.030147
   vertex 0.031222 0.311109 0.032126
  endloop
 endfacet
 facet normal 0.598657 0.435097 0.672533
  outer loop
   vertex 0.031222 0.311109 0.032126
   vertex 0.031722 0.31348 0.030147
   vertex 0.029312 0.313737 0.032126
  endloop
 endfacet
 facet normal 0.551379 0.584158 0.595601
  outer loop
   vertex 0.031722 0.31348 0.030147
   vertex 0.02968 0.315646 0.029913
   vertex 0.029312 0.313737 0.032126
  endloop
 endfacet
 facet normal 0.393627 0.662685 0.637108
  outer loop
   vertex 0.029312 0.313737 0.032126
   vertex 0.02968 0.315646 0.029913
   vertex 0.027168 0.315646 0.031465
  endloop
 endfacet
 facet normal 0.342493 0.758552 0.554344
  outer loop
   vertex 0.02968 0.315646 0.029913
   vertex 0.027604 0.316986 0.029362
   vertex 0.027168 0.315646 0.031465
  endloop
 endfacet
 facet normal -0.0482486 0.148392 0.987751
  outer loop
   vertex 0.025616 0.310869 0.034569
   vertex 0.022808 0.309956 0.034569
   vertex 0.02484 0.30848 0.03489
  endloop
 endfacet
 facet normal 0.0336945 0.400135 0.915836
  outer loop
   vertex 0.026465 0.31348 0.033397
   vertex 0.023458 0.312733 0.033834
   vertex 0.025616 0.310869 0.034569
  endloop
 endfacet
 facet normal 0.112009 0.640965 0.759354
  outer loop
   vertex 0.027168 0.315646 0.031465
   vertex 0.024312 0.315362 0.032126
   vertex 0.026465 0.31348 0.033397
  endloop
 endfacet
 facet normal -0.0891868 0.274301 0.957499
  outer loop
   vertex 0.025616 0.310869 0.034569
   vertex 0.023458 0.312733 0.033834
   vertex 0.022808 0.309956 0.034569
  endloop
 endfacet
 facet normal -0.262485 0.303841 0.915851
  outer loop
   vertex 0.023458 0.312733 0.033834
   vertex 0.020587 0.31157 0.033397
   vertex 0.022808 0.309956 0.034569
  endloop
 endfacet
 facet normal -0.0146149 0.548074 0.836302
  outer loop
   vertex 0.026465 0.31348 0.033397
   vertex 0.024312 0.315362 0.032126
   vertex 0.023458 0.312733 0.033834
  endloop
 endfacet
 facet normal -0.187559 0.577248 0.794737
  outer loop
   vertex 0.024312 0.315362 0.032126
   vertex 0.021222 0.314358 0.032126
   vertex 0.023458 0.312733 0.033834
  endloop
 endfacet
 facet normal -0.310374 0.451949 0.836307
  outer loop
   vertex 0.023458 0.312733 0.033834
   vertex 0.021222 0.314358 0.032126
   vertex 0.020587 0.31157 0.033397
  endloop
 endfacet
 facet normal -0.467426 0.452641 0.759361
  outer loop
   vertex 0.021222 0.314358 0.032126
   vertex 0.018745 0.312909 0.031465
   vertex 0.020587 0.31157 0.033397
  endloop
 endfacet
 facet normal 0.0710868 0.767617 0.636955
  outer loop
   vertex 0.027168 0.315646 0.031465
   vertex 0.025136 0.317122 0.029913
   vertex 0.024312 0.315362 0.032126
  endloop
 endfacet
 facet normal -0.102735 0.796801 0.595444
  outer loop
   vertex 0.025136 0.317122 0.029913
   vertex 0.022211 0.31657 0.030147
   vertex 0.024312 0.315362 0.032126
  endloop
 endfacet
 facet normal -0.228709 0.703897 0.672474
  outer loop
   vertex 0.024312 0.315362 0.032126
   vertex 0.022211 0.31657 0.030147
   vertex 0.021222 0.314358 0.032126
  endloop
 endfacet
 facet normal -0.38541 0.704977 0.595371
  outer loop
   vertex 0.022211 0.31657 0.030147
   vertex 0.019521 0.315297 0.029913
   vertex 0.021222 0.314358 0.032126
  endloop
 endfacet
 facet normal -0.508799 0.579247 0.636864
  outer loop
   vertex 0.021222 0.314358 0.032126
   vertex 0.019521 0.315297 0.029913
   vertex 0.018745 0.312909 0.031465
  endloop
 endfacet
 facet normal -0.61533 0.560308 0.554459
  outer loop
   vertex 0.019521 0.315297 0.029913
   vertex 0.017604 0.313737 0.029362
   vertex 0.018745 0.312909 0.031465
  endloop
 endfacet
 facet normal -0.156037 0 0.987751
  outer loop
   vertex 0.022808 0.309956 0.034569
   vertex 0.022808 0.307004 0.034569
   vertex 0.02484 0.30848 0.03489
  endloop
 endfacet
 facet normal -0.370096 0.155752 0.915844
  outer loop
   vertex 0.020587 0.31157 0.033397
   vertex 0.020368 0.30848 0.033834
   vertex 0.022808 0.309956 0.034569
  endloop
 endfacet
 facet normal -0.574948 0.304695 0.759339
  outer loop
   vertex 0.018745 0.312909 0.031465
   vertex 0.018132 0.310105 0.032126
   vertex 0.020587 0.31157 0.033397
  endloop
 endfacet
 facet normal -0.288428 0 0.957502
  outer loop
   vertex 0.022808 0.309956 0.034569
   vertex 0.020368 0.30848 0.033834
   vertex 0.022808 0.307004 0.034569
  endloop
 endfacet
 facet normal -0.370096 -0.155752 0.915844
  outer loop
   vertex 0.020368 0.30848 0.033834
   vertex 0.020587 0.30539 0.033397
   vertex 0.022808 0.307004 0.034569
  endloop
 endfacet
 facet normal -0.525774 0.155534 0.836284
  outer loop
   vertex 0.020587 0.31157 0.033397
   vertex 0.018132 0.310105 0.032126
   vertex 0.020368 0.30848 0.033834
  endloop
 endfacet
 facet normal -0.607028 0 0.794681
  outer loop
   vertex 0.018132 0.310105 0.032126
   vertex 0.018132 0.306855 0.032126
   vertex 0.020368 0.30848 0.033834
  endloop
 endfacet
 facet normal -0.525774 -0.155534 0.836284
  outer loop
   vertex 0.020368 0.30848 0.033834
   vertex 0.018132 0.306855 0.032126
   vertex 0.020587 0.30539 0.033397
  endloop
 endfacet
 facet normal -0.574948 -0.304695 0.759339
  outer loop
   vertex 0.018132 0.306855 0.032126
   vertex 0.018745 0.304051 0.031465
   vertex 0.020587 0.30539 0.033397
  endloop
 endfacet
 facet normal -0.708089 0.304936 0.636886
  outer loop
   vertex 0.018745 0.312909 0.031465
   vertex 0.016713 0.311432 0.029913
   vertex 0.018132 0.310105 0.032126
  endloop
 endfacet
 facet normal -0.789589 0.148568 0.59538
  outer loop
   vertex 0.016713 0.311432 0.029913
   vertex 0.016334 0.30848 0.030147
   vertex 0.018132 0.310105 0.032126
  endloop
 endfacet
 facet normal -0.740143 0 0.672449
  outer loop
   vertex 0.018132 0.310105 0.032126
   vertex 0.016334 0.30848 0.030147
   vertex 0.018132 0.306855 0.032126
  endloop
 endfacet
 facet normal -0.789589 -0.148568 0.59538
  outer loop
   vertex 0.016334 0.30848 0.030147
   vertex 0.016713 0.305528 0.029913
   vertex 0.018132 0.306855 0.032126
  endloop
 endfacet
 facet normal -0.708089 -0.304936 0.636886
  outer loop
   vertex 0.018132 0.306855 0.032126
   vertex 0.016713 0.305528 0.029913
   vertex 0.018745 0.304051 0.031465
  endloop
 endfacet
 facet normal -0.723015 -0.412034 0.554506
  outer loop
   vertex 0.016713 0.305528 0.029913
   vertex 0.017604 0.303223 0.029362
   vertex 0.018745 0.304051 0.031465
  endloop
 endfacet
 facet normal -0.0482486 -0.148392 0.987751
  outer loop
   vertex 0.022808 0.307004 0.034569
   vertex 0.025616 0.306091 0.034569
   vertex 0.02484 0.30848 0.03489
  endloop
 endfacet
 facet normal -0.262485 -0.303841 0.915851
  outer loop
   vertex 0.020587 0.30539 0.033397
   vertex 0.023458 0.304227 0.033834
   vertex 0.022808 0.307004 0.034569
  endloop
 endfacet
 facet normal -0.467426 -0.452641 0.759361
  outer loop
   vertex 0.018745 0.304051 0.031465
   vertex 0.021222 0.302602 0.032126
   vertex 0.020587 0.30539 0.033397
  endloop
 endfacet
 facet normal -0.0891868 -0.274301 0.957499
  outer loop
   vertex 0.022808 0.307004 0.034569
   vertex 0.023458 0.304227 0.033834
   vertex 0.025616 0.306091 0.034569
  endloop
 endfacet
 facet normal 0.0336945 -0.400135 0.915836
  outer loop
   vertex 0.023458 0.304227 0.033834
   vertex 0.026465 0.30348 0.033397
   vertex 0.025616 0.306091 0.034569
  endloop
 endfacet
 facet normal -0.310374 -0.451949 0.836307
  outer loop
   vertex 0.020587 0.30539 0.033397
   vertex 0.021222 0.302602 0.032126
   vertex 0.023458 0.304227 0.033834
  endloop
 endfacet
 facet normal -0.187559 -0.577248 0.794737
  outer loop
   vertex 0.021222 0.302602 0.032126
   vertex 0.024312 0.301598 0.032126
   vertex 0.023458 0.304227 0.033834
  endloop
 endfacet
 facet normal -0.0146149 -0.548074 0.836302
  outer loop
   vertex 0.023458 0.304227 0.033834
   vertex 0.024312 0.301598 0.032126
   vertex 0.026465 0.30348 0.033397
  endloop
 endfacet
 facet normal 0.112009 -0.640965 0.759354
  outer loop
   vertex 0.024312 0.301598 0.032126
   vertex 0.027168 0.301314 0.031465
   vertex 0.026465 0.30348 0.033397
  endloop
 endfacet
 facet normal -0.508799 -0.579247 0.636864
  outer loop
   vertex 0.018745 0.304051 0.031465
   vertex 0.019521 0.301663 0.029913
   vertex 0.021222 0.302602 0.032126
  endloop
 endfacet
 facet normal -0.38541 -0.704977 0.595371
  outer loop
   vertex 0.019521 0.301663 0.029913
   vertex 0.022211 0.30039 0.030147
   vertex 0.021222 0.302602 0.032126
  endloop
 endfacet
 facet normal -0.228709 -0.703897 0.672474
  outer loop
   vertex 0.021222 0.302602 0.032126
   vertex 0.022211 0.30039 0.030147
   vertex 0.024312 0.301598 0.032126
  endloop
 endfacet
 facet normal -0.102735 -0.796801 0.595444
  outer loop
   vertex 0.022211 0.30039 0.030147
   vertex 0.025136 0.299838 0.029913
   vertex 0.024312 0.301598 0.032126
  endloop
 endfacet
 facet normal 0.0710868 -0.767617 0.636955
  outer loop
   vertex 0.024312 0.301598 0.032126
   vertex 0.025136 0.299838 0.029913
   vertex 0.027168 0.301314 0.031465
  endloop
 endfacet
 facet normal 0.168666 -0.815046 0.554303
  outer loop
   vertex 0.025136 0.299838 0.029913
   vertex 0.027604 0.299974 0.029362
   vertex 0.027168 0.301314 0.031465
  endloop
 endfacet
 facet normal 0.126271 -0.0917039 0.987748
  outer loop
   vertex 0.025616 0.306091 0.034569
   vertex 0.027351 0.30848 0.034569
   vertex 0.02484 0.30848 0.03489
  endloop
 endfacet
 facet normal 0.207851 -0.343516 0.915858
  outer loop
   vertex 0.026465 0.30348 0.033397
   vertex 0.028458 0.305851 0.033834
   vertex 0.025616 0.306091 0.034569
  endloop
 endfacet
 facet normal 0.286233 -0.584386 0.759318
  outer loop
   vertex 0.027168 0.301314 0.031465
   vertex 0.029312 0.303223 0.032126
   vertex 0.026465 0.30348 0.033397
  endloop
 endfacet
 facet normal 0.233325 -0.169451 0.957521
  outer loop
   vertex 0.025616 0.306091 0.034569
   vertex 0.028458 0.305851 0.033834
   vertex 0.027351 0.30848 0.034569
  endloop
 endfacet
 facet normal 0.390899 -0.0914587 0.915878
  outer loop
   vertex 0.028458 0.305851 0.033834
   vertex 0.030097 0.30848 0.033397
   vertex 0.027351 0.30848 0.034569
  endloop
 endfacet
 facet normal 0.334054 -0.43492 0.836213
  outer loop
   vertex 0.026465 0.30348 0.033397
   vertex 0.029312 0.303223 0.032126
   vertex 0.028458 0.305851 0.033834
  endloop
 endfacet
 facet normal 0.491058 -0.356895 0.794662
  outer loop
   vertex 0.029312 0.303223 0.032126
   vertex 0.031222 0.305851 0.032126
   vertex 0.028458 0.305851 0.033834
  endloop
 endfacet
 facet normal 0.516783 -0.183167 0.836293
  outer loop
   vertex 0.028458 0.305851 0.033834
   vertex 0.031222 0.305851 0.032126
   vertex 0.030097 0.30848 0.033397
  endloop
 endfacet
 facet normal 0.644269 -0.0913996 0.759317
  outer loop
   vertex 0.031222 0.305851 0.032126
   vertex 0.032374 0.30848 0.031465
   vertex 0.030097 0.30848 0.033397
  endloop
 endfacet
 facet normal 0.393627 -0.662685 0.637108
  outer loop
   vertex 0.027168 0.301314 0.031465
   vertex 0.02968 0.301314 0.029913
   vertex 0.029312 0.303223 0.032126
  endloop
 endfacet
 facet normal 0.551379 -0.584158 0.595601
  outer loop
   vertex 0.02968 0.301314 0.029913
   vertex 0.031722 0.30348 0.030147
   vertex 0.029312 0.303223 0.032126
  endloop
 endfacet
 facet normal 0.598657 -0.435097 0.672533
  outer loop
   vertex 0.029312 0.303223 0.032126
   vertex 0.031722 0.30348 0.030147
   vertex 0.031222 0.305851 0.032126
  endloop
 endfacet
 facet normal 0.725985 -0.343961 0.595514
  outer loop
   vertex 0.031722 0.30348 0.030147
   vertex 0.033151 0.306091 0.029913
   vertex 0.031222 0.305851 0.032126
  endloop
 endfacet
 facet normal 0.751958 -0.169318 0.637095
  outer loop
   vertex 0.031222 0.305851 0.032126
   vertex 0.033151 0.306091 0.029913
   vertex 0.032374 0.30848 0.031465
  endloop
 endfacet
 facet normal 0.827124 -0.091254 0.554562
  outer loop
   vertex 0.033151 0.306091 0.029913
   vertex 0.033784 0.30848 0.029362
   vertex 0.032374 0.30848 0.031465
  endloop
 endfacet
 facet normal 0.905177 0.147939 0.398459
  outer loop
   vertex 0.034406 0.309956 0.027401
   vertex 0.033151 0.310869 0.029913
   vertex 0.033784 0.30848 0.029362
  endloop
 endfacet
 facet normal 0.93657 0.303801 0.17476
  outer loop
   vertex 0.034351 0.31157 0.02489
   vertex 0.033458 0.312733 0.027654
   vertex 0.034406 0.309956 0.027401
  endloop
 endfacet
 facet normal 0.888212 0.452708 -0.078331
  outer loop
   vertex 0.033447 0.312909 0.022378
   vertex 0.03293 0.314358 0.02489
   vertex 0.034351 0.31157 0.02489
  endloop
 endfacet
 facet normal 0.89641 0.274294 0.348155
  outer loop
   vertex 0.034406 0.309956 0.027401
   vertex 0.033458 0.312733 0.027654
   vertex 0.033151 0.310869 0.029913
  endloop
 endfacet
 facet normal 0.803858 0.400541 0.439749
  outer loop
   vertex 0.033458 0.312733 0.027654
   vertex 0.031722 0.31348 0.030147
   vertex 0.033151 0.310869 0.029913
  endloop
 endfacet
 facet normal 0.886806 0.451991 0.0963284
  outer loop
   vertex 0.034351 0.31157 0.02489
   vertex 0.03293 0.314358 0.02489
   vertex 0.033458 0.312733 0.027654
  endloop
 endfacet
 facet normal 0.794662 0.577331 0.18762
  outer loop
   vertex 0.03293 0.314358 0.02489
   vertex 0.031548 0.315362 0.027654
   vertex 0.033458 0.312733 0.027654
  endloop
 endfacet
 facet normal 0.754436 0.548107 0.361117
  outer loop
   vertex 0.033458 0.312733 0.027654
   vertex 0.031548 0.315362 0.027654
   vertex 0.031722 0.31348 0.030147
  endloop
 endfacet
 facet normal 0.629279 0.640767 0.439803
  outer loop
   vertex 0.031548 0.315362 0.027654
   vertex 0.02968 0.315646 0.029913
   vertex 0.031722 0.31348 0.030147
  endloop
 endfacet
 facet normal 0.797233 0.579229 -0.170037
  outer loop
   vertex 0.033447 0.312909 0.022378
   vertex 0.031712 0.315297 0.022378
   vertex 0.03293 0.314358 0.02489
  endloop
 endfacet
 facet normal 0.704936 0.704936 -0.0782949
  outer loop
   vertex 0.031712 0.315297 0.022378
   vertex 0.030718 0.31657 0.02489
   vertex 0.03293 0.314358 0.02489
  endloop
 endfacet
 facet normal 0.703824 0.703824 0.0962537
  outer loop
   vertex 0.03293 0.314358 0.02489
   vertex 0.030718 0.31657 0.02489
   vertex 0.031548 0.315362 0.027654
  endloop
 endfacet
 facet normal 0.578519 0.796783 0.174509
  outer loop
   vertex 0.030718 0.31657 0.02489
   vertex 0.0292 0.317122 0.027402
   vertex 0.031548 0.315362 0.027654
  endloop
 endfacet
 facet normal 0.537986 0.767602 0.348366
  outer loop
   vertex 0.031548 0.315362 0.027654
   vertex 0.0292 0.317122 0.027402
   vertex 0.02968 0.315646 0.029913
  endloop
 endfacet
 facet normal 0.420269 0.815078 0.398776
  outer loop
   vertex 0.0292 0.317122 0.027402
   vertex 0.027604 0.316986 0.029362
   vertex 0.02968 0.315646 0.029913
  endloop
 endfacet
 facet normal 0.138975 0.90647 0.398746
  outer loop
   vertex 0.026392 0.318034 0.027402
   vertex 0.025136 0.317122 0.029913
   vertex 0.027604 0.316986 0.029362
  endloop
 endfacet
 facet normal 0.000555151 0.98466 0.174481
  outer loop
   vertex 0.02484 0.31848 0.02489
   vertex 0.023458 0.317991 0.027654
   vertex 0.026392 0.318034 0.027402
  endloop
 endfacet
 facet normal -0.155824 0.984657 -0.07855
  outer loop
   vertex 0.023288 0.318034 0.022378
   vertex 0.02175 0.317991 0.02489
   vertex 0.02484 0.31848 0.02489
  endloop
 endfacet
 facet normal 0.0161962 0.937175 0.348485
  outer loop
   vertex 0.026392 0.318034 0.027402
   vertex 0.023458 0.317991 0.027654
   vertex 0.025136 0.317122 0.029913
  endloop
 endfacet
 facet normal -0.132412 0.888171 0.440021
  outer loop
   vertex 0.023458 0.317991 0.027654
   vertex 0.022211 0.31657 0.030147
   vertex 0.025136 0.317122 0.029913
  endloop
 endfacet
 facet normal -0.155583 0.983133 0.0961419
  outer loop
   vertex 0.02484 0.31848 0.02489
   vertex 0.02175 0.317991 0.02489
   vertex 0.023458 0.317991 0.027654
  endloop
 endfacet
 facet normal -0.303796 0.934059 0.187729
  outer loop
   vertex 0.02175 0.317991 0.02489
   vertex 0.020368 0.316986 0.027654
   vertex 0.023458 0.317991 0.027654
  endloop
 endfacet
 facet normal -0.288415 0.886769 0.361189
  outer loop
   vertex 0.023458 0.317991 0.027654
   vertex 0.020368 0.316986 0.027654
   vertex 0.022211 0.31657 0.030147
  endloop
 endfacet
 facet normal -0.415138 0.796394 0.439791
  outer loop
   vertex 0.020368 0.316986 0.027654
   vertex 0.019521 0.315297 0.029913
   vertex 0.022211 0.31657 0.030147
  endloop
 endfacet
 facet normal -0.304389 0.937197 -0.170322
  outer loop
   vertex 0.023288 0.318034 0.022378
   vertex 0.02048 0.317122 0.022378
   vertex 0.02175 0.317991 0.02489
  endloop
 endfacet
 facet normal -0.452705 0.888208 -0.0783901
  outer loop
   vertex 0.02048 0.317122 0.022378
   vertex 0.018962 0.31657 0.02489
   vertex 0.02175 0.317991 0.02489
  endloop
 endfacet
 facet normal -0.451986 0.886796 0.0964489
  outer loop
   vertex 0.02175 0.317991 0.02489
   vertex 0.018962 0.31657 0.02489
   vertex 0.020368 0.316986 0.027654
  endloop
 endfacet
 facet normal -0.578874 0.796508 0.174584
  outer loop
   vertex 0.018962 0.31657 0.02489
   vertex 0.017968 0.315297 0.027402
   vertex 0.020368 0.316986 0.027654
  endloop
 endfacet
 facet normal -0.563623 0.748876 0.348589
  outer loop
   vertex 0.020368 0.316986 0.027654
   vertex 0.017968 0.315297 0.027402
   vertex 0.019521 0.315297 0.029913
  endloop
 endfacet
 facet normal -0.645038 0.651744 0.398942
  outer loop
   vertex 0.017968 0.315297 0.027402
   vertex 0.017604 0.313737 0.029362
   vertex 0.019521 0.315297 0.029913
  endloop
 endfacet
 facet normal -0.819189 0.412026 0.398954
  outer loop
   vertex 0.016233 0.312909 0.027402
   vertex 0.016713 0.311432 0.029913
   vertex 0.017604 0.313737 0.029362
  endloop
 endfacet
 facet normal -0.936352 0.304548 0.174631
  outer loop
   vertex 0.015329 0.31157 0.02489
   vertex 0.015368 0.310105 0.027654
   vertex 0.016233 0.312909 0.027402
  endloop
 endfacet
 facet normal -0.984653 0.155824 -0.0785916
  outer loop
   vertex 0.015274 0.309956 0.022379
   vertex 0.01484 0.30848 0.02489
   vertex 0.015329 0.31157 0.02489
  endloop
 endfacet
 facet normal -0.886309 0.304753 0.348685
  outer loop
   vertex 0.016233 0.312909 0.027402
   vertex 0.015368 0.310105 0.027654
   vertex 0.016713 0.311432 0.029913
  endloop
 endfacet
 facet normal -0.885615 0.148581 0.440011
  outer loop
   vertex 0.015368 0.310105 0.027654
   vertex 0.016334 0.30848 0.030147
   vertex 0.016713 0.311432 0.029913
  endloop
 endfacet
 facet normal -0.983115 0.15558 0.0963335
  outer loop
   vertex 0.015329 0.31157 0.02489
   vertex 0.01484 0.30848 0.02489
   vertex 0.015368 0.310105 0.027654
  endloop
 endfacet
 facet normal -0.982239 0 0.187634
  outer loop
   vertex 0.01484 0.30848 0.02489
   vertex 0.015368 0.306855 0.027654
   vertex 0.015368 0.310105 0.027654
  endloop
 endfacet
 facet normal -0.932446 0 0.361309
  outer loop
   vertex 0.015368 0.310105 0.027654
   vertex 0.015368 0.306855 0.027654
   vertex 0.016334 0.30848 0.030147
  endloop
 endfacet
 facet normal -0.885615 -0.148581 0.440011
  outer loop
   vertex 0.015368 0.306855 0.027654
   vertex 0.016713 0.305528 0.029913
   vertex 0.016334 0.30848 0.030147
  endloop
 endfacet
 facet normal -0.98539 -0 -0.170314
  outer loop
   vertex 0.015274 0.309956 0.022379
   vertex 0.015274 0.307004 0.022379
   vertex 0.01484 0.30848 0.02489
  endloop
 endfacet
 facet normal -0.984653 -0.155824 -0.0785916
  outer loop
   vertex 0.015274 0.307004 0.022379
   vertex 0.015329 0.30539 0.02489
   vertex 0.01484 0.30848 0.02489
  endloop
 endfacet
 facet normal -0.983115 -0.15558 0.0963335
  outer loop
   vertex 0.01484 0.30848 0.02489
   vertex 0.015329 0.30539 0.02489
   vertex 0.015368 0.306855 0.027654
  endloop
 endfacet
 facet normal -0.936352 -0.304548 0.174631
  outer loop
   vertex 0.015329 0.30539 0.02489
   vertex 0.016233 0.304051 0.027402
   vertex 0.015368 0.306855 0.027654
  endloop
 endfacet
 facet normal -0.886309 -0.304753 0.348685
  outer loop
   vertex 0.015368 0.306855 0.027654
   vertex 0.016233 0.304051 0.027402
   vertex 0.016713 0.305528 0.029913
  endloop
 endfacet
 facet normal -0.819189 -0.412026 0.398954
  outer loop
   vertex 0.016233 0.304051 0.027402
   vertex 0.017604 0.303223 0.029362
   vertex 0.016713 0.305528 0.029913
  endloop
 endfacet
 facet normal -0.645038 -0.651744 0.398942
  outer loop
   vertex 0.017968 0.301663 0.027402
   vertex 0.019521 0.301663 0.029913
   vertex 0.017604 0.303223 0.029362
  endloop
 endfacet
 facet normal -0.578874 -0.796508 0.174584
  outer loop
   vertex 0.018962 0.30039 0.02489
   vertex 0.020368 0.299974 0.027654
   vertex 0.017968 0.301663 0.027402
  endloop
 endfacet
 facet normal -0.452705 -0.888208 -0.0783901
  outer loop
   vertex 0.02048 0.299838 0.022378
   vertex 0.02175 0.298969 0.02489
   vertex 0.018962 0.30039 0.02489
  endloop
 endfacet
 facet normal -0.563623 -0.748876 0.348589
  outer loop
   vertex 0.017968 0.301663 0.027402
   vertex 0.020368 0.299974 0.027654
   vertex 0.019521 0.301663 0.029913
  endloop
 endfacet
 facet normal -0.415138 -0.796394 0.439791
  outer loop
   vertex 0.020368 0.299974 0.027654
   vertex 0.022211 0.30039 0.030147
   vertex 0.019521 0.301663 0.029913
  endloop
 endfacet
 facet normal -0.451986 -0.886796 0.0964489
  outer loop
   vertex 0.018962 0.30039 0.02489
   vertex 0.02175 0.298969 0.02489
   vertex 0.020368 0.299974 0.027654
  endloop
 endfacet
 facet normal -0.303796 -0.934059 0.187729
  outer loop
   vertex 0.02175 0.298969 0.02489
   vertex 0.023458 0.298969 0.027654
   vertex 0.020368 0.299974 0.027654
  endloop
 endfacet
 facet normal -0.288415 -0.886769 0.361189
  outer loop
   vertex 0.020368 0.299974 0.027654
   vertex 0.023458 0.298969 0.027654
   vertex 0.022211 0.30039 0.030147
  endloop
 endfacet
 facet normal -0.132412 -0.888171 0.440021
  outer loop
   vertex 0.023458 0.298969 0.027654
   vertex 0.025136 0.299838 0.029913
   vertex 0.022211 0.30039 0.030147
  endloop
 endfacet
 facet normal -0.304389 -0.937197 -0.170322
  outer loop
   vertex 0.02048 0.299838 0.022378
   vertex 0.023288 0.298926 0.022378
   vertex 0.02175 0.298969 0.02489
  endloop
 endfacet
 facet normal -0.155824 -0.984657 -0.07855
  outer loop
   vertex 0.023288 0.298926 0.022378
   vertex 0.02484 0.29848 0.02489
   vertex 0.02175 0.298969 0.02489
  endloop
 endfacet
 facet normal -0.155583 -0.983133 0.0961419
  outer loop
   vertex 0.02175 0.298969 0.02489
   vertex 0.02484 0.29848 0.02489
   vertex 0.023458 0.298969 0.027654
  endloop
 endfacet
 facet normal 0.000555151 -0.98466 0.174481
  outer loop
   vertex 0.02484 0.29848 0.02489
   vertex 0.026392 0.298926 0.027402
   vertex 0.023458 0.298969 0.027654
  endloop
 endfacet
 facet normal 0.0161962 -0.937175 0.348485
  outer loop
   vertex 0.023458 0.298969 0.027654
   vertex 0.026392 0.298926 0.027402
   vertex 0.025136 0.299838 0.029913
  endloop
 endfacet
 facet normal 0.138975 -0.90647 0.398746
  outer loop
   vertex 0.026392 0.298926 0.027402
   vertex 0.027604 0.299974 0.029362
   vertex 0.025136 0.299838 0.029913
  endloop
 endfacet
 facet normal 0.420269 -0.815078 0.398776
  outer loop
   vertex 0.0292 0.299838 0.027402
   vertex 0.02968 0.301314 0.029913
   vertex 0.027604 0.299974 0.029362
  endloop
 endfacet
 facet normal 0.578519 -0.796783 0.174509
  outer loop
   vertex 0.030718 0.30039 0.02489
   vertex 0.031548 0.301598 0.027654
   vertex 0.0292 0.299838 0.027402
  endloop
 endfacet
 facet normal 0.704936 -0.704936 -0.0782949
  outer loop
   vertex 0.031712 0.301663 0.022378
   vertex 0.03293 0.302602 0.02489
   vertex 0.030718 0.30039 0.02489
  endloop
 endfacet
 facet normal 0.537986 -0.767602 0.348366
  outer loop
   vertex 0.0292 0.299838 0.027402
   vertex 0.031548 0.301598 0.027654
   vertex 0.02968 0.301314 0.029913
  endloop
 endfacet
 facet normal 0.629279 -0.640767 0.439803
  outer loop
   vertex 0.031548 0.301598 0.027654
   vertex 0.031722 0.30348 0.030147
   vertex 0.02968 0.301314 0.029913
  endloop
 endfacet
 facet normal 0.703824 -0.703824 0.0962537
  outer loop
   vertex 0.030718 0.30039 0.02489
   vertex 0.03293 0.302602 0.02489
   vertex 0.031548 0.301598 0.027654
  endloop
 endfacet
 facet normal 0.794662 -0.577331 0.18762
  outer loop
   vertex 0.03293 0.302602 0.02489
   vertex 0.033458 0.304227 0.027654
   vertex 0.031548 0.301598 0.027654
  endloop
 endfacet
 facet normal 0.754436 -0.548107 0.361117
  outer loop
   vertex 0.031548 0.301598 0.027654
   vertex 0.033458 0.304227 0.027654
   vertex 0.031722 0.30348 0.030147
  endloop
 endfacet
 facet normal 0.803858 -0.400541 0.439749
  outer loop
   vertex 0.033458 0.304227 0.027654
   vertex 0.033151 0.306091 0.029913
   vertex 0.031722 0.30348 0.030147
  endloop
 endfacet
 facet normal 0.797233 -0.579229 -0.170037
  outer loop
   vertex 0.031712 0.301663 0.022378
   vertex 0.033447 0.304051 0.022378
   vertex 0.03293 0.302602 0.02489
  endloop
 endfacet
 facet normal 0.888212 -0.452708 -0.078331
  outer loop
   vertex 0.033447 0.304051 0.022378
   vertex 0.034351 0.30539 0.02489
   vertex 0.03293 0.302602 0.02489
  endloop
 endfacet
 facet normal 0.886806 -0.451991 0.0963284
  outer loop
   vertex 0.03293 0.302602 0.02489
   vertex 0.034351 0.30539 0.02489
   vertex 0.033458 0.304227 0.027654
  endloop
 endfacet
 facet normal 0.93657 -0.303801 0.17476
  outer loop
   vertex 0.034351 0.30539 0.02489
   vertex 0.034406 0.307004 0.027401
   vertex 0.033458 0.304227 0.027654
  endloop
 endfacet
 facet normal 0.89641 -0.274294 0.348155
  outer loop
   vertex 0.033458 0.304227 0.027654
   vertex 0.034406 0.307004 0.027401
   vertex 0.033151 0.306091 0.029913
  endloop
 endfacet
 facet normal 0.905177 -0.147939 0.398459
  outer loop
   vertex 0.034406 0.307004 0.027401
   vertex 0.033784 0.30848 0.029362
   vertex 0.033151 0.306091 0.029913
  endloop
 endfacet
 facet normal 0.294416 0.906493 0.302638
  outer loop
   vertex 0.0292 0.317122 0.027402
   vertex 0.026392 0.318034 0.027402
   vertex 0.027604 0.316986 0.029362
  endloop
 endfacet
 facet normal 0.452705 0.888208 0.0783901
  outer loop
   vertex 0.030718 0.31657 0.02489
   vertex 0.02793 0.317991 0.02489
   vertex 0.0292 0.317122 0.027402
  endloop
 endfacet
 facet normal 0.578874 0.796508 -0.174584
  outer loop
   vertex 0.031712 0.315297 0.022378
   vertex 0.029312 0.316986 0.022126
   vertex 0.030718 0.31657 0.02489
  endloop
 endfacet
 facet normal 0.304389 0.937197 0.170322
  outer loop
   vertex 0.0292 0.317122 0.027402
   vertex 0.02793 0.317991 0.02489
   vertex 0.026392 0.318034 0.027402
  endloop
 endfacet
 facet normal 0.155824 0.984657 0.07855
  outer loop
   vertex 0.02793 0.317991 0.02489
   vertex 0.02484 0.31848 0.02489
   vertex 0.026392 0.318034 0.027402
  endloop
 endfacet
 facet normal 0.451986 0.886796 -0.0964489
  outer loop
   vertex 0.030718 0.31657 0.02489
   vertex 0.029312 0.316986 0.022126
   vertex 0.02793 0.317991 0.02489
  endloop
 endfacet
 facet normal 0.303796 0.934059 -0.187729
  outer loop
   vertex 0.029312 0.316986 0.022126
   vertex 0.026222 0.317991 0.022126
   vertex 0.02793 0.317991 0.02489
  endloop
 endfacet
 facet normal 0.155583 0.983133 -0.0961419
  outer loop
   vertex 0.02793 0.317991 0.02489
   vertex 0.026222 0.317991 0.022126
   vertex 0.02484 0.31848 0.02489
  endloop
 endfacet
 facet normal -0.000555151 0.98466 -0.174481
  outer loop
   vertex 0.026222 0.317991 0.022126
   vertex 0.023288 0.318034 0.022378
   vertex 0.02484 0.31848 0.02489
  endloop
 endfacet
 facet normal 0.563623 0.748876 -0.348589
  outer loop
   vertex 0.031712 0.315297 0.022378
   vertex 0.030159 0.315297 0.019867
   vertex 0.029312 0.316986 0.022126
  endloop
 endfacet
 facet normal 0.415138 0.796394 -0.439791
  outer loop
   vertex 0.030159 0.315297 0.019867
   vertex 0.027469 0.31657 0.019633
   vertex 0.029312 0.316986 0.022126
  endloop
 endfacet
 facet normal 0.288415 0.886769 -0.361189
  outer loop
   vertex 0.029312 0.316986 0.022126
   vertex 0.027469 0.31657 0.019633
   vertex 0.026222 0.317991 0.022126
  endloop
 endfacet
 facet normal 0.132412 0.888171 -0.440021
  outer loop
   vertex 0.027469 0.31657 0.019633
   vertex 0.024544 0.317122 0.019867
   vertex 0.026222 0.317991 0.022126
  endloop
 endfacet
 facet normal -0.0161962 0.937175 -0.348485
  outer loop
   vertex 0.026222 0.317991 0.022126
   vertex 0.024544 0.317122 0.019867
   vertex 0.023288 0.318034 0.022378
  endloop
 endfacet
 facet normal -0.138975 0.90647 -0.398746
  outer loop
   vertex 0.024544 0.317122 0.019867
   vertex 0.022076 0.316986 0.020418
   vertex 0.023288 0.318034 0.022378
  endloop
 endfacet
 facet normal -0.771063 0.560215 0.302688
  outer loop
   vertex 0.017968 0.315297 0.027402
   vertex 0.016233 0.312909 0.027402
   vertex 0.017604 0.313737 0.029362
  endloop
 endfacet
 facet normal -0.704936 0.704936 0.0782949
  outer loop
   vertex 0.018962 0.31657 0.02489
   vertex 0.01675 0.314358 0.02489
   vertex 0.017968 0.315297 0.027402
  endloop
 endfacet
 facet normal -0.578519 0.796783 -0.174509
  outer loop
   vertex 0.02048 0.317122 0.022378
   vertex 0.018132 0.315362 0.022126
   vertex 0.018962 0.31657 0.02489
  endloop
 endfacet
 facet normal -0.797233 0.579229 0.170037
  outer loop
   vertex 0.017968 0.315297 0.027402
   vertex 0.01675 0.314358 0.02489
   vertex 0.016233 0.312909 0.027402
  endloop
 endfacet
 facet normal -0.888212 0.452708 0.078331
  outer loop
   vertex 0.01675 0.314358 0.02489
   vertex 0.015329 0.31157 0.02489
   vertex 0.016233 0.312909 0.027402
  endloop
 endfacet
 facet normal -0.703824 0.703824 -0.0962537
  outer loop
   vertex 0.018962 0.31657 0.02489
   vertex 0.018132 0.315362 0.022126
   vertex 0.01675 0.314358 0.02489
  endloop
 endfacet
 facet normal -0.794662 0.577331 -0.18762
  outer loop
   vertex 0.018132 0.315362 0.022126
   vertex 0.016222 0.312733 0.022126
   vertex 0.01675 0.314358 0.02489
  endloop
 endfacet
 facet normal -0.886806 0.451991 -0.0963284
  outer loop
   vertex 0.01675 0.314358 0.02489
   vertex 0.016222 0.312733 0.022126
   vertex 0.015329 0.31157 0.02489
  endloop
 endfacet
 facet normal -0.93657 0.303801 -0.17476
  outer loop
   vertex 0.016222 0.312733 0.022126
   vertex 0.015274 0.309956 0.022379
   vertex 0.015329 0.31157 0.02489
  endloop
 endfacet
 facet normal -0.537986 0.767602 -0.348366
  outer loop
   vertex 0.02048 0.317122 0.022378
   vertex 0.02 0.315646 0.019867
   vertex 0.018132 0.315362 0.022126
  endloop
 endfacet
 facet normal -0.629279 0.640767 -0.439803
  outer loop
   vertex 0.02 0.315646 0.019867
   vertex 0.017958 0.31348 0.019633
   vertex 0.018132 0.315362 0.022126
  endloop
 endfacet
 facet normal -0.754436 0.548107 -0.361117
  outer loop
   vertex 0.018132 0.315362 0.022126
   vertex 0.017958 0.31348 0.019633
   vertex 0.016222 0.312733 0.022126
  endloop
 endfacet
 facet normal -0.803858 0.400541 -0.439749
  outer loop
   vertex 0.017958 0.31348 0.019633
   vertex 0.016529 0.310869 0.019867
   vertex 0.016222 0.312733 0.022126
  endloop
 endfacet
 facet normal -0.89641 0.274294 -0.348155
  outer loop
   vertex 0.016222 0.312733 0.022126
   vertex 0.016529 0.310869 0.019867
   vertex 0.015274 0.309956 0.022379
  endloop
 endfacet
 facet normal -0.905177 0.147939 -0.398459
  outer loop
   vertex 0.016529 0.310869 0.019867
   vertex 0.015896 0.30848 0.020418
   vertex 0.015274 0.309956 0.022379
  endloop
 endfacet
 facet normal -0.771063 -0.560215 0.302688
  outer loop
   vertex 0.016233 0.304051 0.027402
   vertex 0.017968 0.301663 0.027402
   vertex 0.017604 0.303223 0.029362
  endloop
 endfacet
 facet normal -0.888212 -0.452708 0.078331
  outer loop
   vertex 0.015329 0.30539 0.02489
   vertex 0.01675 0.302602 0.02489
   vertex 0.016233 0.304051 0.027402
  endloop
 endfacet
 facet normal -0.93657 -0.303801 -0.17476
  outer loop
   vertex 0.015274 0.307004 0.022379
   vertex 0.016222 0.304227 0.022126
   vertex 0.015329 0.30539 0.02489
  endloop
 endfacet
 facet normal -0.797233 -0.579229 0.170037
  outer loop
   vertex 0.016233 0.304051 0.027402
   vertex 0.01675 0.302602 0.02489
   vertex 0.017968 0.301663 0.027402
  endloop
 endfacet
 facet normal -0.704936 -0.704936 0.0782949
  outer loop
   vertex 0.01675 0.302602 0.02489
   vertex 0.018962 0.30039 0.02489
   vertex 0.017968 0.301663 0.027402
  endloop
 endfacet
 facet normal -0.886806 -0.451991 -0.0963284
  outer loop
   vertex 0.015329 0.30539 0.02489
   vertex 0.016222 0.304227 0.022126
   vertex 0.01675 0.302602 0.02489
  endloop
 endfacet
 facet normal -0.794662 -0.577331 -0.18762
  outer loop
   vertex 0.016222 0.304227 0.022126
   vertex 0.018132 0.301598 0.022126
   vertex 0.01675 0.302602 0.02489
  endloop
 endfacet
 facet normal -0.703824 -0.703824 -0.0962537
  outer loop
   vertex 0.01675 0.302602 0.02489
   vertex 0.018132 0.301598 0.022126
   vertex 0.018962 0.30039 0.02489
  endloop
 endfacet
 facet normal -0.578519 -0.796783 -0.174509
  outer loop
   vertex 0.018132 0.301598 0.022126
   vertex 0.02048 0.299838 0.022378
   vertex 0.018962 0.30039 0.02489
  endloop
 endfacet
 facet normal -0.89641 -0.274294 -0.348155
  outer loop
   vertex 0.015274 0.307004 0.022379
   vertex 0.016529 0.306091 0.019867
   vertex 0.016222 0.304227 0.022126
  endloop
 endfacet
 facet normal -0.803858 -0.400541 -0.439749
  outer loop
   vertex 0.016529 0.306091 0.019867
   vertex 0.017958 0.30348 0.019633
   vertex 0.016222 0.304227 0.022126
  endloop
 endfacet
 facet normal -0.754436 -0.548107 -0.361117
  outer loop
   vertex 0.016222 0.304227 0.022126
   vertex 0.017958 0.30348 0.019633
   vertex 0.018132 0.301598 0.022126
  endloop
 endfacet
 facet normal -0.629279 -0.640767 -0.439803
  outer loop
   vertex 0.017958 0.30348 0.019633
   vertex 0.02 0.301314 0.019867
   vertex 0.018132 0.301598 0.022126
  endloop
 endfacet
 facet normal -0.537986 -0.767602 -0.348366
  outer loop
   vertex 0.018132 0.301598 0.022126
   vertex 0.02 0.301314 0.019867
   vertex 0.02048 0.299838 0.022378
  endloop
 endfacet
 facet normal -0.420269 -0.815078 -0.398776
  outer loop
   vertex 0.02 0.301314 0.019867
   vertex 0.022076 0.299974 0.020418
   vertex 0.02048 0.299838 0.022378
  endloop
 endfacet
 facet normal 0.294416 -0.906493 0.302638
  outer loop
   vertex 0.026392 0.298926 0.027402
   vertex 0.0292 0.299838 0.027402
   vertex 0.027604 0.299974 0.029362
  endloop
 endfacet
 facet normal 0.155824 -0.984657 0.07855
  outer loop
   vertex 0.02484 0.29848 0.02489
   vertex 0.02793 0.298969 0.02489
   vertex 0.026392 0.298926 0.027402
  endloop
 endfacet
 facet normal -0.000555151 -0.98466 -0.174481
  outer loop
   vertex 0.023288 0.298926 0.022378
   vertex 0.026222 0.298969 0.022126
   vertex 0.02484 0.29848 0.02489
  endloop
 endfacet
 facet normal 0.304389 -0.937197 0.170322
  outer loop
   vertex 0.026392 0.298926 0.027402
   vertex 0.02793 0.298969 0.02489
   vertex 0.0292 0.299838 0.027402
  endloop
 endfacet
 facet normal 0.452705 -0.888208 0.0783901
  outer loop
   vertex 0.02793 0.298969 0.02489
   vertex 0.030718 0.30039 0.02489
   vertex 0.0292 0.299838 0.027402
  endloop
 endfacet
 facet normal 0.155583 -0.983133 -0.0961419
  outer loop
   vertex 0.02484 0.29848 0.02489
   vertex 0.026222 0.298969 0.022126
   vertex 0.02793 0.298969 0.02489
  endloop
 endfacet
 facet normal 0.303796 -0.934059 -0.187729
  outer loop
   vertex 0.026222 0.298969 0.022126
   vertex 0.029312 0.299974 0.022126
   vertex 0.02793 0.298969 0.02489
  endloop
 endfacet
 facet normal 0.451986 -0.886796 -0.0964489
  outer loop
   vertex 0.02793 0.298969 0.02489
   vertex 0.029312 0.299974 0.022126
   vertex 0.030718 0.30039 0.02489
  endloop
 endfacet
 facet normal 0.578874 -0.796508 -0.174584
  outer loop
   vertex 0.029312 0.299974 0.022126
   vertex 0.031712 0.301663 0.022378
   vertex 0.030718 0.30039 0.02489
  endloop
 endfacet
 facet normal -0.0161962 -0.937175 -0.348485
  outer loop
   vertex 0.023288 0.298926 0.022378
   vertex 0.024544 0.299838 0.019867
   vertex 0.026222 0.298969 0.022126
  endloop
 endfacet
 facet normal 0.132412 -0.888171 -0.440021
  outer loop
   vertex 0.024544 0.299838 0.019867
   vertex 0.027469 0.30039 0.019633
   vertex 0.026222 0.298969 0.022126
  endloop
 endfacet
 facet normal 0.288415 -0.886769 -0.361189
  outer loop
   vertex 0.026222 0.298969 0.022126
   vertex 0.027469 0.30039 0.019633
   vertex 0.029312 0.299974 0.022126
  endloop
 endfacet
 facet normal 0.415138 -0.796394 -0.439791
  outer loop
   vertex 0.027469 0.30039 0.019633
   vertex 0.030159 0.301663 0.019867
   vertex 0.029312 0.299974 0.022126
  endloop
 endfacet
 facet normal 0.563623 -0.748876 -0.348589
  outer loop
   vertex 0.029312 0.299974 0.022126
   vertex 0.030159 0.301663 0.019867
   vertex 0.031712 0.301663 0.022378
  endloop
 endfacet
 facet normal 0.645038 -0.651744 -0.398942
  outer loop
   vertex 0.030159 0.301663 0.019867
   vertex 0.032076 0.303223 0.020418
   vertex 0.031712 0.301663 0.022378
  endloop
 endfacet
 facet normal 0.9532 -0 0.302341
  outer loop
   vertex 0.034406 0.307004 0.027401
   vertex 0.034406 0.309956 0.027401
   vertex 0.033784 0.30848 0.029362
  endloop
 endfacet
 facet normal 0.984653 -0.155824 0.0785916
  outer loop
   vertex 0.034351 0.30539 0.02489
   vertex 0.03484 0.30848 0.02489
   vertex 0.034406 0.307004 0.027401
  endloop
 endfacet
 facet normal 0.936352 -0.304548 -0.174631
  outer loop
   vertex 0.033447 0.304051 0.022378
   vertex 0.034312 0.306855 0.022126
   vertex 0.034351 0.30539 0.02489
  endloop
 endfacet
 facet normal 0.98539 -0 0.170314
  outer loop
   vertex 0.034406 0.307004 0.027401
   vertex 0.03484 0.30848 0.02489
   vertex 0.034406 0.309956 0.027401
  endloop
 endfacet
 facet normal 0.984653 0.155824 0.0785916
  outer loop
   vertex 0.03484 0.30848 0.02489
   vertex 0.034351 0.31157 0.02489
   vertex 0.034406 0.309956 0.027401
  endloop
 endfacet
 facet normal 0.983115 -0.15558 -0.0963335
  outer loop
   vertex 0.034351 0.30539 0.02489
   vertex 0.034312 0.306855 0.022126
   vertex 0.03484 0.30848 0.02489
  endloop
 endfacet
 facet normal 0.982239 0 -0.187634
  outer loop
   vertex 0.034312 0.306855 0.022126
   vertex 0.034312 0.310105 0.022126
   vertex 0.03484 0.30848 0.02489
  endloop
 endfacet
 facet normal 0.983115 0.15558 -0.0963335
  outer loop
   vertex 0.03484 0.30848 0.02489
   vertex 0.034312 0.310105 0.022126
   vertex 0.034351 0.31157 0.02489
  endloop
 endfacet
 facet normal 0.936352 0.304548 -0.174631
  outer loop
   vertex 0.034312 0.310105 0.022126
   vertex 0.033447 0.312909 0.022378
   vertex 0.034351 0.31157 0.02489
  endloop
 endfacet
 facet normal 0.886309 -0.304753 -0.348685
  outer loop
   vertex 0.033447 0.304051 0.022378
   vertex 0.032967 0.305528 0.019867
   vertex 0.034312 0.306855 0.022126
  endloop
 endfacet
 facet normal 0.885615 -0.148581 -0.440011
  outer loop
   vertex 0.032967 0.305528 0.019867
   vertex 0.033346 0.30848 0.019633
   vertex 0.034312 0.306855 0.022126
  endloop
 endfacet
 facet normal 0.932446 0 -0.361309
  outer loop
   vertex 0.034312 0.306855 0.022126
   vertex 0.033346 0.30848 0.019633
   vertex 0.034312 0.310105 0.022126
  endloop
 endfacet
 facet normal 0.885615 0.148581 -0.440011
  outer loop
   vertex 0.033346 0.30848 0.019633
   vertex 0.032967 0.311432 0.019867
   vertex 0.034312 0.310105 0.022126
  endloop
 endfacet
 facet normal 0.886309 0.304753 -0.348685
  outer loop
   vertex 0.034312 0.310105 0.022126
   vertex 0.032967 0.311432 0.019867
   vertex 0.033447 0.312909 0.022378
  endloop
 endfacet
 facet normal 0.819189 0.412026 -0.398954
  outer loop
   vertex 0.032967 0.311432 0.019867
   vertex 0.032076 0.313737 0.020418
   vertex 0.033447 0.312909 0.022378
  endloop
 endfacet
 facet normal 0.61533 0.560308 -0.554459
  outer loop
   vertex 0.030935 0.312909 0.018315
   vertex 0.030159 0.315297 0.019867
   vertex 0.032076 0.313737 0.020418
  endloop
 endfacet
 facet normal 0.467426 0.452641 -0.759361
  outer loop
   vertex 0.029093 0.31157 0.016383
   vertex 0.028458 0.314358 0.017654
   vertex 0.030935 0.312909 0.018315
  endloop
 endfacet
 facet normal 0.262485 0.303841 -0.915851
  outer loop
   vertex 0.026872 0.309956 0.015211
   vertex 0.026222 0.312733 0.015946
   vertex 0.029093 0.31157 0.016383
  endloop
 endfacet
 facet normal 0.508799 0.579247 -0.636864
  outer loop
   vertex 0.030935 0.312909 0.018315
   vertex 0.028458 0.314358 0.017654
   vertex 0.030159 0.315297 0.019867
  endloop
 endfacet
 facet normal 0.38541 0.704977 -0.595371
  outer loop
   vertex 0.028458 0.314358 0.017654
   vertex 0.027469 0.31657 0.019633
   vertex 0.030159 0.315297 0.019867
  endloop
 endfacet
 facet normal 0.310374 0.451949 -0.836307
  outer loop
   vertex 0.029093 0.31157 0.016383
   vertex 0.026222 0.312733 0.015946
   vertex 0.028458 0.314358 0.017654
  endloop
 endfacet
 facet normal 0.187559 0.577248 -0.794737
  outer loop
   vertex 0.026222 0.312733 0.015946
   vertex 0.025368 0.315362 0.017654
   vertex 0.028458 0.314358 0.017654
  endloop
 endfacet
 facet normal 0.228709 0.703897 -0.672474
  outer loop
   vertex 0.028458 0.314358 0.017654
   vertex 0.025368 0.315362 0.017654
   vertex 0.027469 0.31657 0.019633
  endloop
 endfacet
 facet normal 0.102735 0.796801 -0.595444
  outer loop
   vertex 0.025368 0.315362 0.017654
   vertex 0.024544 0.317122 0.019867
   vertex 0.027469 0.31657 0.019633
  endloop
 endfacet
 facet normal 0.0891868 0.274301 -0.957499
  outer loop
   vertex 0.026872 0.309956 0.015211
   vertex 0.024064 0.310869 0.015211
   vertex 0.026222 0.312733 0.015946
  endloop
 endfacet
 facet normal -0.0336945 0.400135 -0.915836
  outer loop
   vertex 0.024064 0.310869 0.015211
   vertex 0.023215 0.31348 0.016383
   vertex 0.026222 0.312733 0.015946
  endloop
 endfacet
 facet normal 0.0146149 0.548074 -0.836302
  outer loop
   vertex 0.026222 0.312733 0.015946
   vertex 0.023215 0.31348 0.016383
   vertex 0.025368 0.315362 0.017654
  endloop
 endfacet
 facet normal -0.112009 0.640965 -0.759354
  outer loop
   vertex 0.023215 0.31348 0.016383
   vertex 0.022512 0.315646 0.018315
   vertex 0.025368 0.315362 0.017654
  endloop
 endfacet
 facet normal -0.0710868 0.767617 -0.636955
  outer loop
   vertex 0.025368 0.315362 0.017654
   vertex 0.022512 0.315646 0.018315
   vertex 0.024544 0.317122 0.019867
  endloop
 endfacet
 facet normal -0.168666 0.815046 -0.554303
  outer loop
   vertex 0.022512 0.315646 0.018315
   vertex 0.022076 0.316986 0.020418
   vertex 0.024544 0.317122 0.019867
  endloop
 endfacet
 facet normal -0.342493 0.758552 -0.554344
  outer loop
   vertex 0.022512 0.315646 0.018315
   vertex 0.02 0.315646 0.019867
   vertex 0.022076 0.316986 0.020418
  endloop
 endfacet
 facet normal -0.286233 0.584386 -0.759318
  outer loop
   vertex 0.023215 0.31348 0.016383
   vertex 0.020368 0.313737 0.017654
   vertex 0.022512 0.315646 0.018315
  endloop
 endfacet
 facet normal -0.207851 0.343516 -0.915858
  outer loop
   vertex 0.024064 0.310869 0.015211
   vertex 0.021222 0.311109 0.015946
   vertex 0.023215 0.31348 0.016383
  endloop
 endfacet
 facet normal -0.393627 0.662685 -0.637108
  outer loop
   vertex 0.022512 0.315646 0.018315
   vertex 0.020368 0.313737 0.017654
   vertex 0.02 0.315646 0.019867
  endloop
 endfacet
 facet normal -0.551379 0.584158 -0.595601
  outer loop
   vertex 0.020368 0.313737 0.017654
   vertex 0.017958 0.31348 0.019633
   vertex 0.02 0.315646 0.019867
  endloop
 endfacet
 facet normal -0.334054 0.43492 -0.836213
  outer loop
   vertex 0.023215 0.31348 0.016383
   vertex 0.021222 0.311109 0.015946
   vertex 0.020368 0.313737 0.017654
  endloop
 endfacet
 facet normal -0.491058 0.356895 -0.794662
  outer loop
   vertex 0.021222 0.311109 0.015946
   vertex 0.018458 0.311109 0.017654
   vertex 0.020368 0.313737 0.017654
  endloop
 endfacet
 facet normal -0.598657 0.435097 -0.672533
  outer loop
   vertex 0.020368 0.313737 0.017654
   vertex 0.018458 0.311109 0.017654
   vertex 0.017958 0.31348 0.019633
  endloop
 endfacet
 facet normal -0.725985 0.343961 -0.595514
  outer loop
   vertex 0.018458 0.311109 0.017654
   vertex 0.016529 0.310869 0.019867
   vertex 0.017958 0.31348 0.019633
  endloop
 endfacet
 facet normal -0.233325 0.169451 -0.957521
  outer loop
   vertex 0.024064 0.310869 0.015211
   vertex 0.022329 0.30848 0.015211
   vertex 0.021222 0.311109 0.015946
  endloop
 endfacet
 facet normal -0.390899 0.0914587 -0.915878
  outer loop
   vertex 0.022329 0.30848 0.015211
   vertex 0.019583 0.30848 0.016383
   vertex 0.021222 0.311109 0.015946
  endloop
 endfacet
 facet normal -0.516783 0.183167 -0.836293
  outer loop
   vertex 0.021222 0.311109 0.015946
   vertex 0.019583 0.30848 0.016383
   vertex 0.018458 0.311109 0.017654
  endloop
 endfacet
 facet normal -0.644269 0.0913996 -0.759317
  outer loop
   vertex 0.019583 0.30848 0.016383
   vertex 0.017306 0.30848 0.018315
   vertex 0.018458 0.311109 0.017654
  endloop
 endfacet
 facet normal -0.751958 0.169318 -0.637095
  outer loop
   vertex 0.018458 0.311109 0.017654
   vertex 0.017306 0.30848 0.018315
   vertex 0.016529 0.310869 0.019867
  endloop
 endfacet
 facet normal -0.827124 0.091254 -0.554562
  outer loop
   vertex 0.017306 0.30848 0.018315
   vertex 0.015896 0.30848 0.020418
   vertex 0.016529 0.310869 0.019867
  endloop
 endfacet
 facet normal -0.827124 -0.091254 -0.554562
  outer loop
   vertex 0.017306 0.30848 0.018315
   vertex 0.016529 0.306091 0.019867
   vertex 0.015896 0.30848 0.020418
  endloop
 endfacet
 facet normal -0.644269 -0.0913996 -0.759317
  outer loop
   vertex 0.019583 0.30848 0.016383
   vertex 0.018458 0.305851 0.017654
   vertex 0.017306 0.30848 0.018315
  endloop
 endfacet
 facet normal -0.390899 -0.0914587 -0.915878
  outer loop
   vertex 0.022329 0.30848 0.015211
   vertex 0.021222 0.305851 0.015946
   vertex 0.019583 0.30848 0.016383
  endloop
 endfacet
 facet normal -0.751958 -0.169318 -0.637095
  outer loop
   vertex 0.017306 0.30848 0.018315
   vertex 0.018458 0.305851 0.017654
   vertex 0.016529 0.306091 0.019867
  endloop
 endfacet
 facet normal -0.725985 -0.343961 -0.595514
  outer loop
   vertex 0.018458 0.305851 0.017654
   vertex 0.017958 0.30348 0.019633
   vertex 0.016529 0.306091 0.019867
  endloop
 endfacet
 facet normal -0.516783 -0.183167 -0.836293
  outer loop
   vertex 0.019583 0.30848 0.016383
   vertex 0.021222 0.305851 0.015946
   vertex 0.018458 0.305851 0.017654
  endloop
 endfacet
 facet normal -0.491058 -0.356895 -0.794662
  outer loop
   vertex 0.021222 0.305851 0.015946
   vertex 0.020368 0.303223 0.017654
   vertex 0.018458 0.305851 0.017654
  endloop
 endfacet
 facet normal -0.598657 -0.435097 -0.672533
  outer loop
   vertex 0.018458 0.305851 0.017654
   vertex 0.020368 0.303223 0.017654
   vertex 0.017958 0.30348 0.019633
  endloop
 endfacet
 facet normal -0.551379 -0.584158 -0.595601
  outer loop
   vertex 0.020368 0.303223 0.017654
   vertex 0.02 0.301314 0.019867
   vertex 0.017958 0.30348 0.019633
  endloop
 endfacet
 facet normal -0.233325 -0.169451 -0.957521
  outer loop
   vertex 0.022329 0.30848 0.015211
   vertex 0.024064 0.306091 0.015211
   vertex 0.021222 0.305851 0.015946
  endloop
 endfacet
 facet normal -0.207851 -0.343516 -0.915858
  outer loop
   vertex 0.024064 0.306091 0.015211
   vertex 0.023215 0.30348 0.016383
   vertex 0.021222 0.305851 0.015946
  endloop
 endfacet
 facet normal -0.334054 -0.43492 -0.836213
  outer loop
   vertex 0.021222 0.305851 0.015946
   vertex 0.023215 0.30348 0.016383
   vertex 0.020368 0.303223 0.017654
  endloop
 endfacet
 facet normal -0.286233 -0.584386 -0.759318
  outer loop
   vertex 0.023215 0.30348 0.016383
   vertex 0.022512 0.301314 0.018315
   vertex 0.020368 0.303223 0.017654
  endloop
 endfacet
 facet normal -0.393627 -0.662685 -0.637108
  outer loop
   vertex 0.020368 0.303223 0.017654
   vertex 0.022512 0.301314 0.018315
   vertex 0.02 0.301314 0.019867
  endloop
 endfacet
 facet normal -0.342493 -0.758552 -0.554344
  outer loop
   vertex 0.022512 0.301314 0.018315
   vertex 0.022076 0.299974 0.020418
   vertex 0.02 0.301314 0.019867
  endloop
 endfacet
 facet normal 0.723015 0.412034 -0.554506
  outer loop
   vertex 0.032967 0.311432 0.019867
   vertex 0.030935 0.312909 0.018315
   vertex 0.032076 0.313737 0.020418
  endloop
 endfacet
 facet normal 0.789589 0.148568 -0.59538
  outer loop
   vertex 0.033346 0.30848 0.019633
   vertex 0.031548 0.310105 0.017654
   vertex 0.032967 0.311432 0.019867
  endloop
 endfacet
 facet normal 0.789589 -0.148568 -0.59538
  outer loop
   vertex 0.032967 0.305528 0.019867
   vertex 0.031548 0.306855 0.017654
   vertex 0.033346 0.30848 0.019633
  endloop
 endfacet
 facet normal 0.708089 0.304936 -0.636886
  outer loop
   vertex 0.032967 0.311432 0.019867
   vertex 0.031548 0.310105 0.017654
   vertex 0.030935 0.312909 0.018315
  endloop
 endfacet
 facet normal 0.574948 0.304695 -0.759339
  outer loop
   vertex 0.031548 0.310105 0.017654
   vertex 0.029093 0.31157 0.016383
   vertex 0.030935 0.312909 0.018315
  endloop
 endfacet
 facet normal 0.740143 0 -0.672449
  outer loop
   vertex 0.033346 0.30848 0.019633
   vertex 0.031548 0.306855 0.017654
   vertex 0.031548 0.310105 0.017654
  endloop
 endfacet
 facet normal 0.607028 0 -0.794681
  outer loop
   vertex 0.031548 0.306855 0.017654
   vertex 0.029312 0.30848 0.015946
   vertex 0.031548 0.310105 0.017654
  endloop
 endfacet
 facet normal 0.525774 0.155534 -0.836284
  outer loop
   vertex 0.031548 0.310105 0.017654
   vertex 0.029312 0.30848 0.015946
   vertex 0.029093 0.31157 0.016383
  endloop
 endfacet
 facet normal 0.370096 0.155752 -0.915844
  outer loop
   vertex 0.029312 0.30848 0.015946
   vertex 0.026872 0.309956 0.015211
   vertex 0.029093 0.31157 0.016383
  endloop
 endfacet
 facet normal 0.708089 -0.304936 -0.636886
  outer loop
   vertex 0.032967 0.305528 0.019867
   vertex 0.030935 0.304051 0.018315
   vertex 0.031548 0.306855 0.017654
  endloop
 endfacet
 facet normal 0.574948 -0.304695 -0.759339
  outer loop
   vertex 0.030935 0.304051 0.018315
   vertex 0.029093 0.30539 0.016383
   vertex 0.031548 0.306855 0.017654
  endloop
 endfacet
 facet normal 0.525774 -0.155534 -0.836284
  outer loop
   vertex 0.031548 0.306855 0.017654
   vertex 0.029093 0.30539 0.016383
   vertex 0.029312 0.30848 0.015946
  endloop
 endfacet
 facet normal 0.370096 -0.155752 -0.915844
  outer loop
   vertex 0.029093 0.30539 0.016383
   vertex 0.026872 0.307004 0.015211
   vertex 0.029312 0.30848 0.015946
  endloop
 endfacet
 facet normal 0.288428 0 -0.957502
  outer loop
   vertex 0.029312 0.30848 0.015946
   vertex 0.026872 0.307004 0.015211
   vertex 0.026872 0.309956 0.015211
  endloop
 endfacet
 facet normal 0.156037 0 -0.987751
  outer loop
   vertex 0.026872 0.307004 0.015211
   vertex 0.02484 0.30848 0.01489
   vertex 0.026872 0.309956 0.015211
  endloop
 endfacet
 facet normal -0.168666 -0.815046 -0.554303
  outer loop
   vertex 0.022512 0.301314 0.018315
   vertex 0.024544 0.299838 0.019867
   vertex 0.022076 0.299974 0.020418
  endloop
 endfacet
 facet normal -0.112009 -0.640965 -0.759354
  outer loop
   vertex 0.023215 0.30348 0.016383
   vertex 0.025368 0.301598 0.017654
   vertex 0.022512 0.301314 0.018315
  endloop
 endfacet
 facet normal -0.0336945 -0.400135 -0.915836
  outer loop
   vertex 0.024064 0.306091 0.015211
   vertex 0.026222 0.304227 0.015946
   vertex 0.023215 0.30348 0.016383
  endloop
 endfacet
 facet normal -0.0710868 -0.767617 -0.636955
  outer loop
   vertex 0.022512 0.301314 0.018315
   vertex 0.025368 0.301598 0.017654
   vertex 0.024544 0.299838 0.019867
  endloop
 endfacet
 facet normal 0.102735 -0.796801 -0.595444
  outer loop
   vertex 0.025368 0.301598 0.017654
   vertex 0.027469 0.30039 0.019633
   vertex 0.024544 0.299838 0.019867
  endloop
 endfacet
 facet normal 0.0146149 -0.548074 -0.836302
  outer loop
   vertex 0.023215 0.30348 0.016383
   vertex 0.026222 0.304227 0.015946
   vertex 0.025368 0.301598 0.017654
  endloop
 endfacet
 facet normal 0.187559 -0.577248 -0.794737
  outer loop
   vertex 0.026222 0.304227 0.015946
   vertex 0.028458 0.302602 0.017654
   vertex 0.025368 0.301598 0.017654
  endloop
 endfacet
 facet normal 0.228709 -0.703897 -0.672474
  outer loop
   vertex 0.025368 0.301598 0.017654
   vertex 0.028458 0.302602 0.017654
   vertex 0.027469 0.30039 0.019633
  endloop
 endfacet
 facet normal 0.38541 -0.704977 -0.595371
  outer loop
   vertex 0.028458 0.302602 0.017654
   vertex 0.030159 0.301663 0.019867
   vertex 0.027469 0.30039 0.019633
  endloop
 endfacet
 facet normal 0.0891868 -0.274301 -0.957499
  outer loop
   vertex 0.024064 0.306091 0.015211
   vertex 0.026872 0.307004 0.015211
   vertex 0.026222 0.304227 0.015946
  endloop
 endfacet
 facet normal 0.262485 -0.303841 -0.915851
  outer loop
   vertex 0.026872 0.307004 0.015211
   vertex 0.029093 0.30539 0.016383
   vertex 0.026222 0.304227 0.015946
  endloop
 endfacet
 facet normal 0.310374 -0.451949 -0.836307
  outer loop
   vertex 0.026222 0.304227 0.015946
   vertex 0.029093 0.30539 0.016383
   vertex 0.028458 0.302602 0.017654
  endloop
 endfacet
 facet normal 0.467426 -0.452641 -0.759361
  outer loop
   vertex 0.029093 0.30539 0.016383
   vertex 0.030935 0.304051 0.018315
   vertex 0.028458 0.302602 0.017654
  endloop
 endfacet
 facet normal 0.508799 -0.579247 -0.636864
  outer loop
   vertex 0.028458 0.302602 0.017654
   vertex 0.030935 0.304051 0.018315
   vertex 0.030159 0.301663 0.019867
  endloop
 endfacet
 facet normal 0.61533 -0.560308 -0.554459
  outer loop
   vertex 0.030935 0.304051 0.018315
   vertex 0.032076 0.303223 0.020418
   vertex 0.030159 0.301663 0.019867
  endloop
 endfacet
endsolid ExportedfromBlender-3.5.1
