solid ExportedfromBlender-3.5.1
 facet normal 0.0482486 -0.148392 -0.987751
  outer loop
   vertex -0.02325 0.07595 -0.0353
   vertex -0.021218 0.074474 -0.034979
   vertex -0.024026 0.073561 -0.034979
  endloop
 endfacet
 facet normal 0.723015 -0.412034 -0.554506
  outer loop
   vertex -0.016014 0.070693 -0.029772
   vertex -0.017155 0.071521 -0.031875
   vertex -0.015123 0.072998 -0.030323
  endloop
 endfacet
 facet normal -0.126271 -0.0917039 -0.987748
  outer loop
   vertex -0.02325 0.07595 -0.0353
   vertex -0.024026 0.073561 -0.034979
   vertex -0.025761 0.07595 -0.034979
  endloop
 endfacet
 facet normal -0.126271 0.0917039 -0.987748
  outer loop
   vertex -0.02325 0.07595 -0.0353
   vertex -0.025761 0.07595 -0.034979
   vertex -0.024026 0.078339 -0.034979
  endloop
 endfacet
 facet normal 0.0482486 0.148392 -0.987751
  outer loop
   vertex -0.02325 0.07595 -0.0353
   vertex -0.024026 0.078339 -0.034979
   vertex -0.021218 0.077426 -0.034979
  endloop
 endfacet
 facet normal 0.819189 -0.412026 -0.398954
  outer loop
   vertex -0.016014 0.070693 -0.029772
   vertex -0.015123 0.072998 -0.030323
   vertex -0.014643 0.071521 -0.027812
  endloop
 endfacet
 facet normal -0.138975 -0.90647 -0.398746
  outer loop
   vertex -0.026014 0.067444 -0.029772
   vertex -0.023546 0.067308 -0.030323
   vertex -0.024802 0.066396 -0.027812
  endloop
 endfacet
 facet normal -0.905177 -0.147939 -0.398459
  outer loop
   vertex -0.032194 0.07595 -0.029772
   vertex -0.031561 0.073561 -0.030323
   vertex -0.032816 0.074474 -0.027811
  endloop
 endfacet
 facet normal -0.420269 0.815078 -0.398776
  outer loop
   vertex -0.026014 0.084456 -0.029772
   vertex -0.02809 0.083116 -0.030323
   vertex -0.02761 0.084592 -0.027812
  endloop
 endfacet
 facet normal 0.645038 0.651744 -0.398942
  outer loop
   vertex -0.016014 0.081207 -0.029772
   vertex -0.017931 0.082767 -0.030323
   vertex -0.016378 0.082767 -0.027812
  endloop
 endfacet
 facet normal 0.771063 -0.560215 -0.302688
  outer loop
   vertex -0.016014 0.070693 -0.029772
   vertex -0.014643 0.071521 -0.027812
   vertex -0.016378 0.069133 -0.027812
  endloop
 endfacet
 facet normal -0.294416 -0.906493 -0.302638
  outer loop
   vertex -0.026014 0.067444 -0.029772
   vertex -0.024802 0.066396 -0.027812
   vertex -0.02761 0.067308 -0.027812
  endloop
 endfacet
 facet normal -0.9532 0 -0.302341
  outer loop
   vertex -0.032194 0.07595 -0.029772
   vertex -0.032816 0.074474 -0.027811
   vertex -0.032816 0.077426 -0.027811
  endloop
 endfacet
 facet normal -0.294416 0.906493 -0.302638
  outer loop
   vertex -0.026014 0.084456 -0.029772
   vertex -0.02761 0.084592 -0.027812
   vertex -0.024802 0.085504 -0.027812
  endloop
 endfacet
 facet normal 0.771063 0.560215 -0.302688
  outer loop
   vertex -0.016014 0.081207 -0.029772
   vertex -0.016378 0.082767 -0.027812
   vertex -0.014643 0.080379 -0.027812
  endloop
 endfacet
 facet normal 0.342493 -0.758552 0.554344
  outer loop
   vertex -0.020486 0.067444 -0.020828
   vertex -0.01841 0.068784 -0.020277
   vertex -0.020922 0.068784 -0.018725
  endloop
 endfacet
 facet normal -0.61533 -0.560308 0.554459
  outer loop
   vertex -0.030486 0.070693 -0.020828
   vertex -0.028569 0.069133 -0.020277
   vertex -0.029345 0.071521 -0.018725
  endloop
 endfacet
 facet normal -0.723015 0.412034 0.554506
  outer loop
   vertex -0.030486 0.081207 -0.020828
   vertex -0.031377 0.078902 -0.020277
   vertex -0.029345 0.080379 -0.018725
  endloop
 endfacet
 facet normal 0.168666 0.815046 0.554303
  outer loop
   vertex -0.020486 0.084456 -0.020828
   vertex -0.022954 0.084592 -0.020277
   vertex -0.020922 0.083116 -0.018725
  endloop
 endfacet
 facet normal 0.827124 0.091254 0.554562
  outer loop
   vertex -0.014306 0.07595 -0.020828
   vertex -0.014939 0.078339 -0.020277
   vertex -0.015716 0.07595 -0.018725
  endloop
 endfacet
 facet normal 0.126271 0.0917039 0.987748
  outer loop
   vertex -0.020739 0.07595 -0.015621
   vertex -0.022474 0.078339 -0.015621
   vertex -0.02325 0.07595 -0.0153
  endloop
 endfacet
 facet normal 0.390899 0.0914587 0.915878
  outer loop
   vertex -0.017993 0.07595 -0.016793
   vertex -0.019632 0.078579 -0.016356
   vertex -0.020739 0.07595 -0.015621
  endloop
 endfacet
 facet normal 0.644269 0.0913996 0.759317
  outer loop
   vertex -0.015716 0.07595 -0.018725
   vertex -0.016868 0.078579 -0.018064
   vertex -0.017993 0.07595 -0.016793
  endloop
 endfacet
 facet normal 0.233325 0.169451 0.957521
  outer loop
   vertex -0.020739 0.07595 -0.015621
   vertex -0.019632 0.078579 -0.016356
   vertex -0.022474 0.078339 -0.015621
  endloop
 endfacet
 facet normal 0.207851 0.343516 0.915858
  outer loop
   vertex -0.019632 0.078579 -0.016356
   vertex -0.021625 0.08095 -0.016793
   vertex -0.022474 0.078339 -0.015621
  endloop
 endfacet
 facet normal 0.516783 0.183167 0.836293
  outer loop
   vertex -0.017993 0.07595 -0.016793
   vertex -0.016868 0.078579 -0.018064
   vertex -0.019632 0.078579 -0.016356
  endloop
 endfacet
 facet normal 0.491058 0.356895 0.794662
  outer loop
   vertex -0.016868 0.078579 -0.018064
   vertex -0.018778 0.081207 -0.018064
   vertex -0.019632 0.078579 -0.016356
  endloop
 endfacet
 facet normal 0.334054 0.43492 0.836213
  outer loop
   vertex -0.019632 0.078579 -0.016356
   vertex -0.018778 0.081207 -0.018064
   vertex -0.021625 0.08095 -0.016793
  endloop
 endfacet
 facet normal 0.286233 0.584386 0.759318
  outer loop
   vertex -0.018778 0.081207 -0.018064
   vertex -0.020922 0.083116 -0.018725
   vertex -0.021625 0.08095 -0.016793
  endloop
 endfacet
 facet normal 0.751958 0.169318 0.637095
  outer loop
   vertex -0.015716 0.07595 -0.018725
   vertex -0.014939 0.078339 -0.020277
   vertex -0.016868 0.078579 -0.018064
  endloop
 endfacet
 facet normal 0.725985 0.343961 0.595514
  outer loop
   vertex -0.014939 0.078339 -0.020277
   vertex -0.016368 0.08095 -0.020043
   vertex -0.016868 0.078579 -0.018064
  endloop
 endfacet
 facet normal 0.598657 0.435097 0.672533
  outer loop
   vertex -0.016868 0.078579 -0.018064
   vertex -0.016368 0.08095 -0.020043
   vertex -0.018778 0.081207 -0.018064
  endloop
 endfacet
 facet normal 0.551379 0.584158 0.595601
  outer loop
   vertex -0.016368 0.08095 -0.020043
   vertex -0.01841 0.083116 -0.020277
   vertex -0.018778 0.081207 -0.018064
  endloop
 endfacet
 facet normal 0.393627 0.662685 0.637108
  outer loop
   vertex -0.018778 0.081207 -0.018064
   vertex -0.01841 0.083116 -0.020277
   vertex -0.020922 0.083116 -0.018725
  endloop
 endfacet
 facet normal 0.342493 0.758552 0.554344
  outer loop
   vertex -0.01841 0.083116 -0.020277
   vertex -0.020486 0.084456 -0.020828
   vertex -0.020922 0.083116 -0.018725
  endloop
 endfacet
 facet normal -0.0482486 0.148392 0.987751
  outer loop
   vertex -0.022474 0.078339 -0.015621
   vertex -0.025282 0.077426 -0.015621
   vertex -0.02325 0.07595 -0.0153
  endloop
 endfacet
 facet normal 0.0336945 0.400135 0.915836
  outer loop
   vertex -0.021625 0.08095 -0.016793
   vertex -0.024632 0.080203 -0.016356
   vertex -0.022474 0.078339 -0.015621
  endloop
 endfacet
 facet normal 0.112009 0.640965 0.759354
  outer loop
   vertex -0.020922 0.083116 -0.018725
   vertex -0.023778 0.082832 -0.018064
   vertex -0.021625 0.08095 -0.016793
  endloop
 endfacet
 facet normal -0.0891868 0.274301 0.957499
  outer loop
   vertex -0.022474 0.078339 -0.015621
   vertex -0.024632 0.080203 -0.016356
   vertex -0.025282 0.077426 -0.015621
  endloop
 endfacet
 facet normal -0.262485 0.303841 0.915851
  outer loop
   vertex -0.024632 0.080203 -0.016356
   vertex -0.027503 0.07904 -0.016793
   vertex -0.025282 0.077426 -0.015621
  endloop
 endfacet
 facet normal -0.0146149 0.548074 0.836302
  outer loop
   vertex -0.021625 0.08095 -0.016793
   vertex -0.023778 0.082832 -0.018064
   vertex -0.024632 0.080203 -0.016356
  endloop
 endfacet
 facet normal -0.187559 0.577248 0.794737
  outer loop
   vertex -0.023778 0.082832 -0.018064
   vertex -0.026868 0.081828 -0.018064
   vertex -0.024632 0.080203 -0.016356
  endloop
 endfacet
 facet normal -0.310374 0.451949 0.836307
  outer loop
   vertex -0.024632 0.080203 -0.016356
   vertex -0.026868 0.081828 -0.018064
   vertex -0.027503 0.07904 -0.016793
  endloop
 endfacet
 facet normal -0.467426 0.452641 0.759361
  outer loop
   vertex -0.026868 0.081828 -0.018064
   vertex -0.029345 0.080379 -0.018725
   vertex -0.027503 0.07904 -0.016793
  endloop
 endfacet
 facet normal 0.0710868 0.767617 0.636955
  outer loop
   vertex -0.020922 0.083116 -0.018725
   vertex -0.022954 0.084592 -0.020277
   vertex -0.023778 0.082832 -0.018064
  endloop
 endfacet
 facet normal -0.102735 0.796801 0.595444
  outer loop
   vertex -0.022954 0.084592 -0.020277
   vertex -0.025879 0.08404 -0.020043
   vertex -0.023778 0.082832 -0.018064
  endloop
 endfacet
 facet normal -0.228709 0.703897 0.672474
  outer loop
   vertex -0.023778 0.082832 -0.018064
   vertex -0.025879 0.08404 -0.020043
   vertex -0.026868 0.081828 -0.018064
  endloop
 endfacet
 facet normal -0.38541 0.704977 0.595371
  outer loop
   vertex -0.025879 0.08404 -0.020043
   vertex -0.028569 0.082767 -0.020277
   vertex -0.026868 0.081828 -0.018064
  endloop
 endfacet
 facet normal -0.508799 0.579247 0.636864
  outer loop
   vertex -0.026868 0.081828 -0.018064
   vertex -0.028569 0.082767 -0.020277
   vertex -0.029345 0.080379 -0.018725
  endloop
 endfacet
 facet normal -0.61533 0.560308 0.554459
  outer loop
   vertex -0.028569 0.082767 -0.020277
   vertex -0.030486 0.081207 -0.020828
   vertex -0.029345 0.080379 -0.018725
  endloop
 endfacet
 facet normal -0.156037 0 0.987751
  outer loop
   vertex -0.025282 0.077426 -0.015621
   vertex -0.025282 0.074474 -0.015621
   vertex -0.02325 0.07595 -0.0153
  endloop
 endfacet
 facet normal -0.370096 0.155752 0.915844
  outer loop
   vertex -0.027503 0.07904 -0.016793
   vertex -0.027722 0.07595 -0.016356
   vertex -0.025282 0.077426 -0.015621
  endloop
 endfacet
 facet normal -0.574948 0.304695 0.759339
  outer loop
   vertex -0.029345 0.080379 -0.018725
   vertex -0.029958 0.077575 -0.018064
   vertex -0.027503 0.07904 -0.016793
  endloop
 endfacet
 facet normal -0.288428 0 0.957502
  outer loop
   vertex -0.025282 0.077426 -0.015621
   vertex -0.027722 0.07595 -0.016356
   vertex -0.025282 0.074474 -0.015621
  endloop
 endfacet
 facet normal -0.370096 -0.155752 0.915844
  outer loop
   vertex -0.027722 0.07595 -0.016356
   vertex -0.027503 0.07286 -0.016793
   vertex -0.025282 0.074474 -0.015621
  endloop
 endfacet
 facet normal -0.525774 0.155534 0.836284
  outer loop
   vertex -0.027503 0.07904 -0.016793
   vertex -0.029958 0.077575 -0.018064
   vertex -0.027722 0.07595 -0.016356
  endloop
 endfacet
 facet normal -0.607028 0 0.794681
  outer loop
   vertex -0.029958 0.077575 -0.018064
   vertex -0.029958 0.074325 -0.018064
   vertex -0.027722 0.07595 -0.016356
  endloop
 endfacet
 facet normal -0.525774 -0.155534 0.836284
  outer loop
   vertex -0.027722 0.07595 -0.016356
   vertex -0.029958 0.074325 -0.018064
   vertex -0.027503 0.07286 -0.016793
  endloop
 endfacet
 facet normal -0.574948 -0.304695 0.759339
  outer loop
   vertex -0.029958 0.074325 -0.018064
   vertex -0.029345 0.071521 -0.018725
   vertex -0.027503 0.07286 -0.016793
  endloop
 endfacet
 facet normal -0.708089 0.304936 0.636886
  outer loop
   vertex -0.029345 0.080379 -0.018725
   vertex -0.031377 0.078902 -0.020277
   vertex -0.029958 0.077575 -0.018064
  endloop
 endfacet
 facet normal -0.789589 0.148568 0.59538
  outer loop
   vertex -0.031377 0.078902 -0.020277
   vertex -0.031756 0.07595 -0.020043
   vertex -0.029958 0.077575 -0.018064
  endloop
 endfacet
 facet normal -0.740143 0 0.672449
  outer loop
   vertex -0.029958 0.077575 -0.018064
   vertex -0.031756 0.07595 -0.020043
   vertex -0.029958 0.074325 -0.018064
  endloop
 endfacet
 facet normal -0.789589 -0.148568 0.59538
  outer loop
   vertex -0.031756 0.07595 -0.020043
   vertex -0.031377 0.072998 -0.020277
   vertex -0.029958 0.074325 -0.018064
  endloop
 endfacet
 facet normal -0.708089 -0.304936 0.636886
  outer loop
   vertex -0.029958 0.074325 -0.018064
   vertex -0.031377 0.072998 -0.020277
   vertex -0.029345 0.071521 -0.018725
  endloop
 endfacet
 facet normal -0.723015 -0.412034 0.554506
  outer loop
   vertex -0.031377 0.072998 -0.020277
   vertex -0.030486 0.070693 -0.020828
   vertex -0.029345 0.071521 -0.018725
  endloop
 endfacet
 facet normal -0.0482486 -0.148392 0.987751
  outer loop
   vertex -0.025282 0.074474 -0.015621
   vertex -0.022474 0.073561 -0.015621
   vertex -0.02325 0.07595 -0.0153
  endloop
 endfacet
 facet normal -0.262485 -0.303841 0.915851
  outer loop
   vertex -0.027503 0.07286 -0.016793
   vertex -0.024632 0.071697 -0.016356
   vertex -0.025282 0.074474 -0.015621
  endloop
 endfacet
 facet normal -0.467426 -0.452641 0.759361
  outer loop
   vertex -0.029345 0.071521 -0.018725
   vertex -0.026868 0.070072 -0.018064
   vertex -0.027503 0.07286 -0.016793
  endloop
 endfacet
 facet normal -0.0891868 -0.274301 0.957499
  outer loop
   vertex -0.025282 0.074474 -0.015621
   vertex -0.024632 0.071697 -0.016356
   vertex -0.022474 0.073561 -0.015621
  endloop
 endfacet
 facet normal 0.0336945 -0.400135 0.915836
  outer loop
   vertex -0.024632 0.071697 -0.016356
   vertex -0.021625 0.07095 -0.016793
   vertex -0.022474 0.073561 -0.015621
  endloop
 endfacet
 facet normal -0.310374 -0.451949 0.836307
  outer loop
   vertex -0.027503 0.07286 -0.016793
   vertex -0.026868 0.070072 -0.018064
   vertex -0.024632 0.071697 -0.016356
  endloop
 endfacet
 facet normal -0.187559 -0.577248 0.794737
  outer loop
   vertex -0.026868 0.070072 -0.018064
   vertex -0.023778 0.069068 -0.018064
   vertex -0.024632 0.071697 -0.016356
  endloop
 endfacet
 facet normal -0.0146149 -0.548074 0.836302
  outer loop
   vertex -0.024632 0.071697 -0.016356
   vertex -0.023778 0.069068 -0.018064
   vertex -0.021625 0.07095 -0.016793
  endloop
 endfacet
 facet normal 0.112009 -0.640965 0.759354
  outer loop
   vertex -0.023778 0.069068 -0.018064
   vertex -0.020922 0.068784 -0.018725
   vertex -0.021625 0.07095 -0.016793
  endloop
 endfacet
 facet normal -0.508799 -0.579247 0.636864
  outer loop
   vertex -0.029345 0.071521 -0.018725
   vertex -0.028569 0.069133 -0.020277
   vertex -0.026868 0.070072 -0.018064
  endloop
 endfacet
 facet normal -0.38541 -0.704977 0.595371
  outer loop
   vertex -0.028569 0.069133 -0.020277
   vertex -0.025879 0.06786 -0.020043
   vertex -0.026868 0.070072 -0.018064
  endloop
 endfacet
 facet normal -0.228709 -0.703897 0.672474
  outer loop
   vertex -0.026868 0.070072 -0.018064
   vertex -0.025879 0.06786 -0.020043
   vertex -0.023778 0.069068 -0.018064
  endloop
 endfacet
 facet normal -0.102735 -0.796801 0.595444
  outer loop
   vertex -0.025879 0.06786 -0.020043
   vertex -0.022954 0.067308 -0.020277
   vertex -0.023778 0.069068 -0.018064
  endloop
 endfacet
 facet normal 0.0710868 -0.767617 0.636955
  outer loop
   vertex -0.023778 0.069068 -0.018064
   vertex -0.022954 0.067308 -0.020277
   vertex -0.020922 0.068784 -0.018725
  endloop
 endfacet
 facet normal 0.168666 -0.815046 0.554303
  outer loop
   vertex -0.022954 0.067308 -0.020277
   vertex -0.020486 0.067444 -0.020828
   vertex -0.020922 0.068784 -0.018725
  endloop
 endfacet
 facet normal 0.126271 -0.0917039 0.987748
  outer loop
   vertex -0.022474 0.073561 -0.015621
   vertex -0.020739 0.07595 -0.015621
   vertex -0.02325 0.07595 -0.0153
  endloop
 endfacet
 facet normal 0.207851 -0.343516 0.915858
  outer loop
   vertex -0.021625 0.07095 -0.016793
   vertex -0.019632 0.073321 -0.016356
   vertex -0.022474 0.073561 -0.015621
  endloop
 endfacet
 facet normal 0.286233 -0.584386 0.759318
  outer loop
   vertex -0.020922 0.068784 -0.018725
   vertex -0.018778 0.070693 -0.018064
   vertex -0.021625 0.07095 -0.016793
  endloop
 endfacet
 facet normal 0.233325 -0.169451 0.957521
  outer loop
   vertex -0.022474 0.073561 -0.015621
   vertex -0.019632 0.073321 -0.016356
   vertex -0.020739 0.07595 -0.015621
  endloop
 endfacet
 facet normal 0.390899 -0.0914587 0.915878
  outer loop
   vertex -0.019632 0.073321 -0.016356
   vertex -0.017993 0.07595 -0.016793
   vertex -0.020739 0.07595 -0.015621
  endloop
 endfacet
 facet normal 0.334054 -0.43492 0.836213
  outer loop
   vertex -0.021625 0.07095 -0.016793
   vertex -0.018778 0.070693 -0.018064
   vertex -0.019632 0.073321 -0.016356
  endloop
 endfacet
 facet normal 0.491058 -0.356895 0.794662
  outer loop
   vertex -0.018778 0.070693 -0.018064
   vertex -0.016868 0.073321 -0.018064
   vertex -0.019632 0.073321 -0.016356
  endloop
 endfacet
 facet normal 0.516783 -0.183167 0.836293
  outer loop
   vertex -0.019632 0.073321 -0.016356
   vertex -0.016868 0.073321 -0.018064
   vertex -0.017993 0.07595 -0.016793
  endloop
 endfacet
 facet normal 0.644269 -0.0913996 0.759317
  outer loop
   vertex -0.016868 0.073321 -0.018064
   vertex -0.015716 0.07595 -0.018725
   vertex -0.017993 0.07595 -0.016793
  endloop
 endfacet
 facet normal 0.393627 -0.662685 0.637108
  outer loop
   vertex -0.020922 0.068784 -0.018725
   vertex -0.01841 0.068784 -0.020277
   vertex -0.018778 0.070693 -0.018064
  endloop
 endfacet
 facet normal 0.551379 -0.584158 0.595601
  outer loop
   vertex -0.01841 0.068784 -0.020277
   vertex -0.016368 0.07095 -0.020043
   vertex -0.018778 0.070693 -0.018064
  endloop
 endfacet
 facet normal 0.598657 -0.435097 0.672533
  outer loop
   vertex -0.018778 0.070693 -0.018064
   vertex -0.016368 0.07095 -0.020043
   vertex -0.016868 0.073321 -0.018064
  endloop
 endfacet
 facet normal 0.725985 -0.343961 0.595514
  outer loop
   vertex -0.016368 0.07095 -0.020043
   vertex -0.014939 0.073561 -0.020277
   vertex -0.016868 0.073321 -0.018064
  endloop
 endfacet
 facet normal 0.751958 -0.169318 0.637095
  outer loop
   vertex -0.016868 0.073321 -0.018064
   vertex -0.014939 0.073561 -0.020277
   vertex -0.015716 0.07595 -0.018725
  endloop
 endfacet
 facet normal 0.827124 -0.091254 0.554562
  outer loop
   vertex -0.014939 0.073561 -0.020277
   vertex -0.014306 0.07595 -0.020828
   vertex -0.015716 0.07595 -0.018725
  endloop
 endfacet
 facet normal 0.905177 0.147939 0.398459
  outer loop
   vertex -0.013684 0.077426 -0.022789
   vertex -0.014939 0.078339 -0.020277
   vertex -0.014306 0.07595 -0.020828
  endloop
 endfacet
 facet normal 0.93657 0.303801 0.17476
  outer loop
   vertex -0.013739 0.07904 -0.0253
   vertex -0.014632 0.080203 -0.022536
   vertex -0.013684 0.077426 -0.022789
  endloop
 endfacet
 facet normal 0.888212 0.452708 -0.078331
  outer loop
   vertex -0.014643 0.080379 -0.027812
   vertex -0.01516 0.081828 -0.0253
   vertex -0.013739 0.07904 -0.0253
  endloop
 endfacet
 facet normal 0.89641 0.274294 0.348155
  outer loop
   vertex -0.013684 0.077426 -0.022789
   vertex -0.014632 0.080203 -0.022536
   vertex -0.014939 0.078339 -0.020277
  endloop
 endfacet
 facet normal 0.803858 0.400541 0.439749
  outer loop
   vertex -0.014632 0.080203 -0.022536
   vertex -0.016368 0.08095 -0.020043
   vertex -0.014939 0.078339 -0.020277
  endloop
 endfacet
 facet normal 0.886806 0.451991 0.0963284
  outer loop
   vertex -0.013739 0.07904 -0.0253
   vertex -0.01516 0.081828 -0.0253
   vertex -0.014632 0.080203 -0.022536
  endloop
 endfacet
 facet normal 0.794662 0.577331 0.18762
  outer loop
   vertex -0.01516 0.081828 -0.0253
   vertex -0.016542 0.082832 -0.022536
   vertex -0.014632 0.080203 -0.022536
  endloop
 endfacet
 facet normal 0.754436 0.548107 0.361117
  outer loop
   vertex -0.014632 0.080203 -0.022536
   vertex -0.016542 0.082832 -0.022536
   vertex -0.016368 0.08095 -0.020043
  endloop
 endfacet
 facet normal 0.629279 0.640767 0.439803
  outer loop
   vertex -0.016542 0.082832 -0.022536
   vertex -0.01841 0.083116 -0.020277
   vertex -0.016368 0.08095 -0.020043
  endloop
 endfacet
 facet normal 0.797233 0.579229 -0.170037
  outer loop
   vertex -0.014643 0.080379 -0.027812
   vertex -0.016378 0.082767 -0.027812
   vertex -0.01516 0.081828 -0.0253
  endloop
 endfacet
 facet normal 0.704936 0.704936 -0.0782949
  outer loop
   vertex -0.016378 0.082767 -0.027812
   vertex -0.017372 0.08404 -0.0253
   vertex -0.01516 0.081828 -0.0253
  endloop
 endfacet
 facet normal 0.703824 0.703824 0.0962537
  outer loop
   vertex -0.01516 0.081828 -0.0253
   vertex -0.017372 0.08404 -0.0253
   vertex -0.016542 0.082832 -0.022536
  endloop
 endfacet
 facet normal 0.578519 0.796783 0.174509
  outer loop
   vertex -0.017372 0.08404 -0.0253
   vertex -0.01889 0.084592 -0.022788
   vertex -0.016542 0.082832 -0.022536
  endloop
 endfacet
 facet normal 0.537986 0.767602 0.348366
  outer loop
   vertex -0.016542 0.082832 -0.022536
   vertex -0.01889 0.084592 -0.022788
   vertex -0.01841 0.083116 -0.020277
  endloop
 endfacet
 facet normal 0.420269 0.815078 0.398776
  outer loop
   vertex -0.01889 0.084592 -0.022788
   vertex -0.020486 0.084456 -0.020828
   vertex -0.01841 0.083116 -0.020277
  endloop
 endfacet
 facet normal 0.138975 0.90647 0.398746
  outer loop
   vertex -0.021698 0.085504 -0.022788
   vertex -0.022954 0.084592 -0.020277
   vertex -0.020486 0.084456 -0.020828
  endloop
 endfacet
 facet normal 0.000555151 0.98466 0.174481
  outer loop
   vertex -0.02325 0.08595 -0.0253
   vertex -0.024632 0.085461 -0.022536
   vertex -0.021698 0.085504 -0.022788
  endloop
 endfacet
 facet normal -0.155824 0.984657 -0.07855
  outer loop
   vertex -0.024802 0.085504 -0.027812
   vertex -0.02634 0.085461 -0.0253
   vertex -0.02325 0.08595 -0.0253
  endloop
 endfacet
 facet normal 0.0161962 0.937175 0.348485
  outer loop
   vertex -0.021698 0.085504 -0.022788
   vertex -0.024632 0.085461 -0.022536
   vertex -0.022954 0.084592 -0.020277
  endloop
 endfacet
 facet normal -0.132412 0.888171 0.440021
  outer loop
   vertex -0.024632 0.085461 -0.022536
   vertex -0.025879 0.08404 -0.020043
   vertex -0.022954 0.084592 -0.020277
  endloop
 endfacet
 facet normal -0.155583 0.983133 0.0961419
  outer loop
   vertex -0.02325 0.08595 -0.0253
   vertex -0.02634 0.085461 -0.0253
   vertex -0.024632 0.085461 -0.022536
  endloop
 endfacet
 facet normal -0.303796 0.934059 0.187729
  outer loop
   vertex -0.02634 0.085461 -0.0253
   vertex -0.027722 0.084456 -0.022536
   vertex -0.024632 0.085461 -0.022536
  endloop
 endfacet
 facet normal -0.288415 0.886769 0.361189
  outer loop
   vertex -0.024632 0.085461 -0.022536
   vertex -0.027722 0.084456 -0.022536
   vertex -0.025879 0.08404 -0.020043
  endloop
 endfacet
 facet normal -0.415138 0.796394 0.439791
  outer loop
   vertex -0.027722 0.084456 -0.022536
   vertex -0.028569 0.082767 -0.020277
   vertex -0.025879 0.08404 -0.020043
  endloop
 endfacet
 facet normal -0.304389 0.937197 -0.170322
  outer loop
   vertex -0.024802 0.085504 -0.027812
   vertex -0.02761 0.084592 -0.027812
   vertex -0.02634 0.085461 -0.0253
  endloop
 endfacet
 facet normal -0.452705 0.888208 -0.0783901
  outer loop
   vertex -0.02761 0.084592 -0.027812
   vertex -0.029128 0.08404 -0.0253
   vertex -0.02634 0.085461 -0.0253
  endloop
 endfacet
 facet normal -0.451986 0.886796 0.0964489
  outer loop
   vertex -0.02634 0.085461 -0.0253
   vertex -0.029128 0.08404 -0.0253
   vertex -0.027722 0.084456 -0.022536
  endloop
 endfacet
 facet normal -0.578874 0.796508 0.174584
  outer loop
   vertex -0.029128 0.08404 -0.0253
   vertex -0.030122 0.082767 -0.022788
   vertex -0.027722 0.084456 -0.022536
  endloop
 endfacet
 facet normal -0.563623 0.748876 0.348589
  outer loop
   vertex -0.027722 0.084456 -0.022536
   vertex -0.030122 0.082767 -0.022788
   vertex -0.028569 0.082767 -0.020277
  endloop
 endfacet
 facet normal -0.645038 0.651744 0.398942
  outer loop
   vertex -0.030122 0.082767 -0.022788
   vertex -0.030486 0.081207 -0.020828
   vertex -0.028569 0.082767 -0.020277
  endloop
 endfacet
 facet normal -0.819189 0.412026 0.398954
  outer loop
   vertex -0.031857 0.080379 -0.022788
   vertex -0.031377 0.078902 -0.020277
   vertex -0.030486 0.081207 -0.020828
  endloop
 endfacet
 facet normal -0.936352 0.304548 0.174631
  outer loop
   vertex -0.032761 0.07904 -0.0253
   vertex -0.032722 0.077575 -0.022536
   vertex -0.031857 0.080379 -0.022788
  endloop
 endfacet
 facet normal -0.984653 0.155824 -0.0785916
  outer loop
   vertex -0.032816 0.077426 -0.027811
   vertex -0.03325 0.07595 -0.0253
   vertex -0.032761 0.07904 -0.0253
  endloop
 endfacet
 facet normal -0.886309 0.304753 0.348685
  outer loop
   vertex -0.031857 0.080379 -0.022788
   vertex -0.032722 0.077575 -0.022536
   vertex -0.031377 0.078902 -0.020277
  endloop
 endfacet
 facet normal -0.885615 0.148581 0.440011
  outer loop
   vertex -0.032722 0.077575 -0.022536
   vertex -0.031756 0.07595 -0.020043
   vertex -0.031377 0.078902 -0.020277
  endloop
 endfacet
 facet normal -0.983115 0.15558 0.0963335
  outer loop
   vertex -0.032761 0.07904 -0.0253
   vertex -0.03325 0.07595 -0.0253
   vertex -0.032722 0.077575 -0.022536
  endloop
 endfacet
 facet normal -0.982239 0 0.187634
  outer loop
   vertex -0.03325 0.07595 -0.0253
   vertex -0.032722 0.074325 -0.022536
   vertex -0.032722 0.077575 -0.022536
  endloop
 endfacet
 facet normal -0.932446 0 0.361309
  outer loop
   vertex -0.032722 0.077575 -0.022536
   vertex -0.032722 0.074325 -0.022536
   vertex -0.031756 0.07595 -0.020043
  endloop
 endfacet
 facet normal -0.885615 -0.148581 0.440011
  outer loop
   vertex -0.032722 0.074325 -0.022536
   vertex -0.031377 0.072998 -0.020277
   vertex -0.031756 0.07595 -0.020043
  endloop
 endfacet
 facet normal -0.98539 -0 -0.170314
  outer loop
   vertex -0.032816 0.077426 -0.027811
   vertex -0.032816 0.074474 -0.027811
   vertex -0.03325 0.07595 -0.0253
  endloop
 endfacet
 facet normal -0.984653 -0.155824 -0.0785916
  outer loop
   vertex -0.032816 0.074474 -0.027811
   vertex -0.032761 0.07286 -0.0253
   vertex -0.03325 0.07595 -0.0253
  endloop
 endfacet
 facet normal -0.983115 -0.15558 0.0963335
  outer loop
   vertex -0.03325 0.07595 -0.0253
   vertex -0.032761 0.07286 -0.0253
   vertex -0.032722 0.074325 -0.022536
  endloop
 endfacet
 facet normal -0.936352 -0.304548 0.174631
  outer loop
   vertex -0.032761 0.07286 -0.0253
   vertex -0.031857 0.071521 -0.022788
   vertex -0.032722 0.074325 -0.022536
  endloop
 endfacet
 facet normal -0.886309 -0.304753 0.348685
  outer loop
   vertex -0.032722 0.074325 -0.022536
   vertex -0.031857 0.071521 -0.022788
   vertex -0.031377 0.072998 -0.020277
  endloop
 endfacet
 facet normal -0.819189 -0.412026 0.398954
  outer loop
   vertex -0.031857 0.071521 -0.022788
   vertex -0.030486 0.070693 -0.020828
   vertex -0.031377 0.072998 -0.020277
  endloop
 endfacet
 facet normal -0.645038 -0.651744 0.398942
  outer loop
   vertex -0.030122 0.069133 -0.022788
   vertex -0.028569 0.069133 -0.020277
   vertex -0.030486 0.070693 -0.020828
  endloop
 endfacet
 facet normal -0.578874 -0.796508 0.174584
  outer loop
   vertex -0.029128 0.06786 -0.0253
   vertex -0.027722 0.067444 -0.022536
   vertex -0.030122 0.069133 -0.022788
  endloop
 endfacet
 facet normal -0.452705 -0.888208 -0.0783901
  outer loop
   vertex -0.02761 0.067308 -0.027812
   vertex -0.02634 0.066439 -0.0253
   vertex -0.029128 0.06786 -0.0253
  endloop
 endfacet
 facet normal -0.563623 -0.748876 0.348589
  outer loop
   vertex -0.030122 0.069133 -0.022788
   vertex -0.027722 0.067444 -0.022536
   vertex -0.028569 0.069133 -0.020277
  endloop
 endfacet
 facet normal -0.415138 -0.796394 0.439791
  outer loop
   vertex -0.027722 0.067444 -0.022536
   vertex -0.025879 0.06786 -0.020043
   vertex -0.028569 0.069133 -0.020277
  endloop
 endfacet
 facet normal -0.451986 -0.886796 0.0964489
  outer loop
   vertex -0.029128 0.06786 -0.0253
   vertex -0.02634 0.066439 -0.0253
   vertex -0.027722 0.067444 -0.022536
  endloop
 endfacet
 facet normal -0.303796 -0.934059 0.187729
  outer loop
   vertex -0.02634 0.066439 -0.0253
   vertex -0.024632 0.066439 -0.022536
   vertex -0.027722 0.067444 -0.022536
  endloop
 endfacet
 facet normal -0.288415 -0.886769 0.361189
  outer loop
   vertex -0.027722 0.067444 -0.022536
   vertex -0.024632 0.066439 -0.022536
   vertex -0.025879 0.06786 -0.020043
  endloop
 endfacet
 facet normal -0.132412 -0.888171 0.440021
  outer loop
   vertex -0.024632 0.066439 -0.022536
   vertex -0.022954 0.067308 -0.020277
   vertex -0.025879 0.06786 -0.020043
  endloop
 endfacet
 facet normal -0.304389 -0.937197 -0.170322
  outer loop
   vertex -0.02761 0.067308 -0.027812
   vertex -0.024802 0.066396 -0.027812
   vertex -0.02634 0.066439 -0.0253
  endloop
 endfacet
 facet normal -0.155824 -0.984657 -0.07855
  outer loop
   vertex -0.024802 0.066396 -0.027812
   vertex -0.02325 0.06595 -0.0253
   vertex -0.02634 0.066439 -0.0253
  endloop
 endfacet
 facet normal -0.155583 -0.983133 0.0961419
  outer loop
   vertex -0.02634 0.066439 -0.0253
   vertex -0.02325 0.06595 -0.0253
   vertex -0.024632 0.066439 -0.022536
  endloop
 endfacet
 facet normal 0.000555151 -0.98466 0.174481
  outer loop
   vertex -0.02325 0.06595 -0.0253
   vertex -0.021698 0.066396 -0.022788
   vertex -0.024632 0.066439 -0.022536
  endloop
 endfacet
 facet normal 0.0161962 -0.937175 0.348485
  outer loop
   vertex -0.024632 0.066439 -0.022536
   vertex -0.021698 0.066396 -0.022788
   vertex -0.022954 0.067308 -0.020277
  endloop
 endfacet
 facet normal 0.138975 -0.90647 0.398746
  outer loop
   vertex -0.021698 0.066396 -0.022788
   vertex -0.020486 0.067444 -0.020828
   vertex -0.022954 0.067308 -0.020277
  endloop
 endfacet
 facet normal 0.420269 -0.815078 0.398776
  outer loop
   vertex -0.01889 0.067308 -0.022788
   vertex -0.01841 0.068784 -0.020277
   vertex -0.020486 0.067444 -0.020828
  endloop
 endfacet
 facet normal 0.578519 -0.796783 0.174509
  outer loop
   vertex -0.017372 0.06786 -0.0253
   vertex -0.016542 0.069068 -0.022536
   vertex -0.01889 0.067308 -0.022788
  endloop
 endfacet
 facet normal 0.704936 -0.704936 -0.0782949
  outer loop
   vertex -0.016378 0.069133 -0.027812
   vertex -0.01516 0.070072 -0.0253
   vertex -0.017372 0.06786 -0.0253
  endloop
 endfacet
 facet normal 0.537986 -0.767602 0.348366
  outer loop
   vertex -0.01889 0.067308 -0.022788
   vertex -0.016542 0.069068 -0.022536
   vertex -0.01841 0.068784 -0.020277
  endloop
 endfacet
 facet normal 0.629279 -0.640767 0.439803
  outer loop
   vertex -0.016542 0.069068 -0.022536
   vertex -0.016368 0.07095 -0.020043
   vertex -0.01841 0.068784 -0.020277
  endloop
 endfacet
 facet normal 0.703824 -0.703824 0.0962537
  outer loop
   vertex -0.017372 0.06786 -0.0253
   vertex -0.01516 0.070072 -0.0253
   vertex -0.016542 0.069068 -0.022536
  endloop
 endfacet
 facet normal 0.794662 -0.577331 0.18762
  outer loop
   vertex -0.01516 0.070072 -0.0253
   vertex -0.014632 0.071697 -0.022536
   vertex -0.016542 0.069068 -0.022536
  endloop
 endfacet
 facet normal 0.754436 -0.548107 0.361117
  outer loop
   vertex -0.016542 0.069068 -0.022536
   vertex -0.014632 0.071697 -0.022536
   vertex -0.016368 0.07095 -0.020043
  endloop
 endfacet
 facet normal 0.803858 -0.400541 0.439749
  outer loop
   vertex -0.014632 0.071697 -0.022536
   vertex -0.014939 0.073561 -0.020277
   vertex -0.016368 0.07095 -0.020043
  endloop
 endfacet
 facet normal 0.797233 -0.579229 -0.170037
  outer loop
   vertex -0.016378 0.069133 -0.027812
   vertex -0.014643 0.071521 -0.027812
   vertex -0.01516 0.070072 -0.0253
  endloop
 endfacet
 facet normal 0.888212 -0.452708 -0.078331
  outer loop
   vertex -0.014643 0.071521 -0.027812
   vertex -0.013739 0.07286 -0.0253
   vertex -0.01516 0.070072 -0.0253
  endloop
 endfacet
 facet normal 0.886806 -0.451991 0.0963284
  outer loop
   vertex -0.01516 0.070072 -0.0253
   vertex -0.013739 0.07286 -0.0253
   vertex -0.014632 0.071697 -0.022536
  endloop
 endfacet
 facet normal 0.93657 -0.303801 0.17476
  outer loop
   vertex -0.013739 0.07286 -0.0253
   vertex -0.013684 0.074474 -0.022789
   vertex -0.014632 0.071697 -0.022536
  endloop
 endfacet
 facet normal 0.89641 -0.274294 0.348155
  outer loop
   vertex -0.014632 0.071697 -0.022536
   vertex -0.013684 0.074474 -0.022789
   vertex -0.014939 0.073561 -0.020277
  endloop
 endfacet
 facet normal 0.905177 -0.147939 0.398459
  outer loop
   vertex -0.013684 0.074474 -0.022789
   vertex -0.014306 0.07595 -0.020828
   vertex -0.014939 0.073561 -0.020277
  endloop
 endfacet
 facet normal 0.294416 0.906493 0.302638
  outer loop
   vertex -0.01889 0.084592 -0.022788
   vertex -0.021698 0.085504 -0.022788
   vertex -0.020486 0.084456 -0.020828
  endloop
 endfacet
 facet normal 0.452705 0.888208 0.0783901
  outer loop
   vertex -0.017372 0.08404 -0.0253
   vertex -0.02016 0.085461 -0.0253
   vertex -0.01889 0.084592 -0.022788
  endloop
 endfacet
 facet normal 0.578874 0.796508 -0.174584
  outer loop
   vertex -0.016378 0.082767 -0.027812
   vertex -0.018778 0.084456 -0.028064
   vertex -0.017372 0.08404 -0.0253
  endloop
 endfacet
 facet normal 0.304389 0.937197 0.170322
  outer loop
   vertex -0.01889 0.084592 -0.022788
   vertex -0.02016 0.085461 -0.0253
   vertex -0.021698 0.085504 -0.022788
  endloop
 endfacet
 facet normal 0.155824 0.984657 0.07855
  outer loop
   vertex -0.02016 0.085461 -0.0253
   vertex -0.02325 0.08595 -0.0253
   vertex -0.021698 0.085504 -0.022788
  endloop
 endfacet
 facet normal 0.451986 0.886796 -0.0964489
  outer loop
   vertex -0.017372 0.08404 -0.0253
   vertex -0.018778 0.084456 -0.028064
   vertex -0.02016 0.085461 -0.0253
  endloop
 endfacet
 facet normal 0.303796 0.934059 -0.187729
  outer loop
   vertex -0.018778 0.084456 -0.028064
   vertex -0.021868 0.085461 -0.028064
   vertex -0.02016 0.085461 -0.0253
  endloop
 endfacet
 facet normal 0.155583 0.983133 -0.0961419
  outer loop
   vertex -0.02016 0.085461 -0.0253
   vertex -0.021868 0.085461 -0.028064
   vertex -0.02325 0.08595 -0.0253
  endloop
 endfacet
 facet normal -0.000555151 0.98466 -0.174481
  outer loop
   vertex -0.021868 0.085461 -0.028064
   vertex -0.024802 0.085504 -0.027812
   vertex -0.02325 0.08595 -0.0253
  endloop
 endfacet
 facet normal 0.563623 0.748876 -0.348589
  outer loop
   vertex -0.016378 0.082767 -0.027812
   vertex -0.017931 0.082767 -0.030323
   vertex -0.018778 0.084456 -0.028064
  endloop
 endfacet
 facet normal 0.415138 0.796394 -0.439791
  outer loop
   vertex -0.017931 0.082767 -0.030323
   vertex -0.020621 0.08404 -0.030557
   vertex -0.018778 0.084456 -0.028064
  endloop
 endfacet
 facet normal 0.288415 0.886769 -0.361189
  outer loop
   vertex -0.018778 0.084456 -0.028064
   vertex -0.020621 0.08404 -0.030557
   vertex -0.021868 0.085461 -0.028064
  endloop
 endfacet
 facet normal 0.132412 0.888171 -0.440021
  outer loop
   vertex -0.020621 0.08404 -0.030557
   vertex -0.023546 0.084592 -0.030323
   vertex -0.021868 0.085461 -0.028064
  endloop
 endfacet
 facet normal -0.0161962 0.937175 -0.348485
  outer loop
   vertex -0.021868 0.085461 -0.028064
   vertex -0.023546 0.084592 -0.030323
   vertex -0.024802 0.085504 -0.027812
  endloop
 endfacet
 facet normal -0.138975 0.90647 -0.398746
  outer loop
   vertex -0.023546 0.084592 -0.030323
   vertex -0.026014 0.084456 -0.029772
   vertex -0.024802 0.085504 -0.027812
  endloop
 endfacet
 facet normal -0.771063 0.560215 0.302688
  outer loop
   vertex -0.030122 0.082767 -0.022788
   vertex -0.031857 0.080379 -0.022788
   vertex -0.030486 0.081207 -0.020828
  endloop
 endfacet
 facet normal -0.704936 0.704936 0.0782949
  outer loop
   vertex -0.029128 0.08404 -0.0253
   vertex -0.03134 0.081828 -0.0253
   vertex -0.030122 0.082767 -0.022788
  endloop
 endfacet
 facet normal -0.578519 0.796783 -0.174509
  outer loop
   vertex -0.02761 0.084592 -0.027812
   vertex -0.029958 0.082832 -0.028064
   vertex -0.029128 0.08404 -0.0253
  endloop
 endfacet
 facet normal -0.797233 0.579229 0.170037
  outer loop
   vertex -0.030122 0.082767 -0.022788
   vertex -0.03134 0.081828 -0.0253
   vertex -0.031857 0.080379 -0.022788
  endloop
 endfacet
 facet normal -0.888212 0.452708 0.078331
  outer loop
   vertex -0.03134 0.081828 -0.0253
   vertex -0.032761 0.07904 -0.0253
   vertex -0.031857 0.080379 -0.022788
  endloop
 endfacet
 facet normal -0.703824 0.703824 -0.0962537
  outer loop
   vertex -0.029128 0.08404 -0.0253
   vertex -0.029958 0.082832 -0.028064
   vertex -0.03134 0.081828 -0.0253
  endloop
 endfacet
 facet normal -0.794662 0.577331 -0.18762
  outer loop
   vertex -0.029958 0.082832 -0.028064
   vertex -0.031868 0.080203 -0.028064
   vertex -0.03134 0.081828 -0.0253
  endloop
 endfacet
 facet normal -0.886806 0.451991 -0.0963284
  outer loop
   vertex -0.03134 0.081828 -0.0253
   vertex -0.031868 0.080203 -0.028064
   vertex -0.032761 0.07904 -0.0253
  endloop
 endfacet
 facet normal -0.93657 0.303801 -0.17476
  outer loop
   vertex -0.031868 0.080203 -0.028064
   vertex -0.032816 0.077426 -0.027811
   vertex -0.032761 0.07904 -0.0253
  endloop
 endfacet
 facet normal -0.537986 0.767602 -0.348366
  outer loop
   vertex -0.02761 0.084592 -0.027812
   vertex -0.02809 0.083116 -0.030323
   vertex -0.029958 0.082832 -0.028064
  endloop
 endfacet
 facet normal -0.629279 0.640767 -0.439803
  outer loop
   vertex -0.02809 0.083116 -0.030323
   vertex -0.030132 0.08095 -0.030557
   vertex -0.029958 0.082832 -0.028064
  endloop
 endfacet
 facet normal -0.754436 0.548107 -0.361117
  outer loop
   vertex -0.029958 0.082832 -0.028064
   vertex -0.030132 0.08095 -0.030557
   vertex -0.031868 0.080203 -0.028064
  endloop
 endfacet
 facet normal -0.803858 0.400541 -0.439749
  outer loop
   vertex -0.030132 0.08095 -0.030557
   vertex -0.031561 0.078339 -0.030323
   vertex -0.031868 0.080203 -0.028064
  endloop
 endfacet
 facet normal -0.89641 0.274294 -0.348155
  outer loop
   vertex -0.031868 0.080203 -0.028064
   vertex -0.031561 0.078339 -0.030323
   vertex -0.032816 0.077426 -0.027811
  endloop
 endfacet
 facet normal -0.905177 0.147939 -0.398459
  outer loop
   vertex -0.031561 0.078339 -0.030323
   vertex -0.032194 0.07595 -0.029772
   vertex -0.032816 0.077426 -0.027811
  endloop
 endfacet
 facet normal -0.771063 -0.560215 0.302688
  outer loop
   vertex -0.031857 0.071521 -0.022788
   vertex -0.030122 0.069133 -0.022788
   vertex -0.030486 0.070693 -0.020828
  endloop
 endfacet
 facet normal -0.888212 -0.452708 0.078331
  outer loop
   vertex -0.032761 0.07286 -0.0253
   vertex -0.03134 0.070072 -0.0253
   vertex -0.031857 0.071521 -0.022788
  endloop
 endfacet
 facet normal -0.93657 -0.303801 -0.17476
  outer loop
   vertex -0.032816 0.074474 -0.027811
   vertex -0.031868 0.071697 -0.028064
   vertex -0.032761 0.07286 -0.0253
  endloop
 endfacet
 facet normal -0.797233 -0.579229 0.170037
  outer loop
   vertex -0.031857 0.071521 -0.022788
   vertex -0.03134 0.070072 -0.0253
   vertex -0.030122 0.069133 -0.022788
  endloop
 endfacet
 facet normal -0.704936 -0.704936 0.0782949
  outer loop
   vertex -0.03134 0.070072 -0.0253
   vertex -0.029128 0.06786 -0.0253
   vertex -0.030122 0.069133 -0.022788
  endloop
 endfacet
 facet normal -0.886806 -0.451991 -0.0963284
  outer loop
   vertex -0.032761 0.07286 -0.0253
   vertex -0.031868 0.071697 -0.028064
   vertex -0.03134 0.070072 -0.0253
  endloop
 endfacet
 facet normal -0.794662 -0.577331 -0.18762
  outer loop
   vertex -0.031868 0.071697 -0.028064
   vertex -0.029958 0.069068 -0.028064
   vertex -0.03134 0.070072 -0.0253
  endloop
 endfacet
 facet normal -0.703824 -0.703824 -0.0962537
  outer loop
   vertex -0.03134 0.070072 -0.0253
   vertex -0.029958 0.069068 -0.028064
   vertex -0.029128 0.06786 -0.0253
  endloop
 endfacet
 facet normal -0.578519 -0.796783 -0.174509
  outer loop
   vertex -0.029958 0.069068 -0.028064
   vertex -0.02761 0.067308 -0.027812
   vertex -0.029128 0.06786 -0.0253
  endloop
 endfacet
 facet normal -0.89641 -0.274294 -0.348155
  outer loop
   vertex -0.032816 0.074474 -0.027811
   vertex -0.031561 0.073561 -0.030323
   vertex -0.031868 0.071697 -0.028064
  endloop
 endfacet
 facet normal -0.803858 -0.400541 -0.439749
  outer loop
   vertex -0.031561 0.073561 -0.030323
   vertex -0.030132 0.07095 -0.030557
   vertex -0.031868 0.071697 -0.028064
  endloop
 endfacet
 facet normal -0.754436 -0.548107 -0.361117
  outer loop
   vertex -0.031868 0.071697 -0.028064
   vertex -0.030132 0.07095 -0.030557
   vertex -0.029958 0.069068 -0.028064
  endloop
 endfacet
 facet normal -0.629279 -0.640767 -0.439803
  outer loop
   vertex -0.030132 0.07095 -0.030557
   vertex -0.02809 0.068784 -0.030323
   vertex -0.029958 0.069068 -0.028064
  endloop
 endfacet
 facet normal -0.537986 -0.767602 -0.348366
  outer loop
   vertex -0.029958 0.069068 -0.028064
   vertex -0.02809 0.068784 -0.030323
   vertex -0.02761 0.067308 -0.027812
  endloop
 endfacet
 facet normal -0.420269 -0.815078 -0.398776
  outer loop
   vertex -0.02809 0.068784 -0.030323
   vertex -0.026014 0.067444 -0.029772
   vertex -0.02761 0.067308 -0.027812
  endloop
 endfacet
 facet normal 0.294416 -0.906493 0.302638
  outer loop
   vertex -0.021698 0.066396 -0.022788
   vertex -0.01889 0.067308 -0.022788
   vertex -0.020486 0.067444 -0.020828
  endloop
 endfacet
 facet normal 0.155824 -0.984657 0.07855
  outer loop
   vertex -0.02325 0.06595 -0.0253
   vertex -0.02016 0.066439 -0.0253
   vertex -0.021698 0.066396 -0.022788
  endloop
 endfacet
 facet normal -0.000555151 -0.98466 -0.174481
  outer loop
   vertex -0.024802 0.066396 -0.027812
   vertex -0.021868 0.066439 -0.028064
   vertex -0.02325 0.06595 -0.0253
  endloop
 endfacet
 facet normal 0.304389 -0.937197 0.170322
  outer loop
   vertex -0.021698 0.066396 -0.022788
   vertex -0.02016 0.066439 -0.0253
   vertex -0.01889 0.067308 -0.022788
  endloop
 endfacet
 facet normal 0.452705 -0.888208 0.0783901
  outer loop
   vertex -0.02016 0.066439 -0.0253
   vertex -0.017372 0.06786 -0.0253
   vertex -0.01889 0.067308 -0.022788
  endloop
 endfacet
 facet normal 0.155583 -0.983133 -0.0961419
  outer loop
   vertex -0.02325 0.06595 -0.0253
   vertex -0.021868 0.066439 -0.028064
   vertex -0.02016 0.066439 -0.0253
  endloop
 endfacet
 facet normal 0.303796 -0.934059 -0.187729
  outer loop
   vertex -0.021868 0.066439 -0.028064
   vertex -0.018778 0.067444 -0.028064
   vertex -0.02016 0.066439 -0.0253
  endloop
 endfacet
 facet normal 0.451986 -0.886796 -0.0964489
  outer loop
   vertex -0.02016 0.066439 -0.0253
   vertex -0.018778 0.067444 -0.028064
   vertex -0.017372 0.06786 -0.0253
  endloop
 endfacet
 facet normal 0.578874 -0.796508 -0.174584
  outer loop
   vertex -0.018778 0.067444 -0.028064
   vertex -0.016378 0.069133 -0.027812
   vertex -0.017372 0.06786 -0.0253
  endloop
 endfacet
 facet normal -0.0161962 -0.937175 -0.348485
  outer loop
   vertex -0.024802 0.066396 -0.027812
   vertex -0.023546 0.067308 -0.030323
   vertex -0.021868 0.066439 -0.028064
  endloop
 endfacet
 facet normal 0.132412 -0.888171 -0.440021
  outer loop
   vertex -0.023546 0.067308 -0.030323
   vertex -0.020621 0.06786 -0.030557
   vertex -0.021868 0.066439 -0.028064
  endloop
 endfacet
 facet normal 0.288415 -0.886769 -0.361189
  outer loop
   vertex -0.021868 0.066439 -0.028064
   vertex -0.020621 0.06786 -0.030557
   vertex -0.018778 0.067444 -0.028064
  endloop
 endfacet
 facet normal 0.415138 -0.796394 -0.439791
  outer loop
   vertex -0.020621 0.06786 -0.030557
   vertex -0.017931 0.069133 -0.030323
   vertex -0.018778 0.067444 -0.028064
  endloop
 endfacet
 facet normal 0.563623 -0.748876 -0.348589
  outer loop
   vertex -0.018778 0.067444 -0.028064
   vertex -0.017931 0.069133 -0.030323
   vertex -0.016378 0.069133 -0.027812
  endloop
 endfacet
 facet normal 0.645038 -0.651744 -0.398942
  outer loop
   vertex -0.017931 0.069133 -0.030323
   vertex -0.016014 0.070693 -0.029772
   vertex -0.016378 0.069133 -0.027812
  endloop
 endfacet
 facet normal 0.9532 -0 0.302341
  outer loop
   vertex -0.013684 0.074474 -0.022789
   vertex -0.013684 0.077426 -0.022789
   vertex -0.014306 0.07595 -0.020828
  endloop
 endfacet
 facet normal 0.984653 -0.155824 0.0785916
  outer loop
   vertex -0.013739 0.07286 -0.0253
   vertex -0.01325 0.07595 -0.0253
   vertex -0.013684 0.074474 -0.022789
  endloop
 endfacet
 facet normal 0.936352 -0.304548 -0.174631
  outer loop
   vertex -0.014643 0.071521 -0.027812
   vertex -0.013778 0.074325 -0.028064
   vertex -0.013739 0.07286 -0.0253
  endloop
 endfacet
 facet normal 0.98539 -0 0.170314
  outer loop
   vertex -0.013684 0.074474 -0.022789
   vertex -0.01325 0.07595 -0.0253
   vertex -0.013684 0.077426 -0.022789
  endloop
 endfacet
 facet normal 0.984653 0.155824 0.0785916
  outer loop
   vertex -0.01325 0.07595 -0.0253
   vertex -0.013739 0.07904 -0.0253
   vertex -0.013684 0.077426 -0.022789
  endloop
 endfacet
 facet normal 0.983115 -0.15558 -0.0963335
  outer loop
   vertex -0.013739 0.07286 -0.0253
   vertex -0.013778 0.074325 -0.028064
   vertex -0.01325 0.07595 -0.0253
  endloop
 endfacet
 facet normal 0.982239 0 -0.187634
  outer loop
   vertex -0.013778 0.074325 -0.028064
   vertex -0.013778 0.077575 -0.028064
   vertex -0.01325 0.07595 -0.0253
  endloop
 endfacet
 facet normal 0.983115 0.15558 -0.0963335
  outer loop
   vertex -0.01325 0.07595 -0.0253
   vertex -0.013778 0.077575 -0.028064
   vertex -0.013739 0.07904 -0.0253
  endloop
 endfacet
 facet normal 0.936352 0.304548 -0.174631
  outer loop
   vertex -0.013778 0.077575 -0.028064
   vertex -0.014643 0.080379 -0.027812
   vertex -0.013739 0.07904 -0.0253
  endloop
 endfacet
 facet normal 0.886309 -0.304753 -0.348685
  outer loop
   vertex -0.014643 0.071521 -0.027812
   vertex -0.015123 0.072998 -0.030323
   vertex -0.013778 0.074325 -0.028064
  endloop
 endfacet
 facet normal 0.885615 -0.148581 -0.440011
  outer loop
   vertex -0.015123 0.072998 -0.030323
   vertex -0.014744 0.07595 -0.030557
   vertex -0.013778 0.074325 -0.028064
  endloop
 endfacet
 facet normal 0.932446 0 -0.361309
  outer loop
   vertex -0.013778 0.074325 -0.028064
   vertex -0.014744 0.07595 -0.030557
   vertex -0.013778 0.077575 -0.028064
  endloop
 endfacet
 facet normal 0.885615 0.148581 -0.440011
  outer loop
   vertex -0.014744 0.07595 -0.030557
   vertex -0.015123 0.078902 -0.030323
   vertex -0.013778 0.077575 -0.028064
  endloop
 endfacet
 facet normal 0.886309 0.304753 -0.348685
  outer loop
   vertex -0.013778 0.077575 -0.028064
   vertex -0.015123 0.078902 -0.030323
   vertex -0.014643 0.080379 -0.027812
  endloop
 endfacet
 facet normal 0.819189 0.412026 -0.398954
  outer loop
   vertex -0.015123 0.078902 -0.030323
   vertex -0.016014 0.081207 -0.029772
   vertex -0.014643 0.080379 -0.027812
  endloop
 endfacet
 facet normal 0.61533 0.560308 -0.554459
  outer loop
   vertex -0.017155 0.080379 -0.031875
   vertex -0.017931 0.082767 -0.030323
   vertex -0.016014 0.081207 -0.029772
  endloop
 endfacet
 facet normal 0.467426 0.452641 -0.759361
  outer loop
   vertex -0.018997 0.07904 -0.033807
   vertex -0.019632 0.081828 -0.032536
   vertex -0.017155 0.080379 -0.031875
  endloop
 endfacet
 facet normal 0.262485 0.303841 -0.915851
  outer loop
   vertex -0.021218 0.077426 -0.034979
   vertex -0.021868 0.080203 -0.034244
   vertex -0.018997 0.07904 -0.033807
  endloop
 endfacet
 facet normal 0.508799 0.579247 -0.636864
  outer loop
   vertex -0.017155 0.080379 -0.031875
   vertex -0.019632 0.081828 -0.032536
   vertex -0.017931 0.082767 -0.030323
  endloop
 endfacet
 facet normal 0.38541 0.704977 -0.595371
  outer loop
   vertex -0.019632 0.081828 -0.032536
   vertex -0.020621 0.08404 -0.030557
   vertex -0.017931 0.082767 -0.030323
  endloop
 endfacet
 facet normal 0.310374 0.451949 -0.836307
  outer loop
   vertex -0.018997 0.07904 -0.033807
   vertex -0.021868 0.080203 -0.034244
   vertex -0.019632 0.081828 -0.032536
  endloop
 endfacet
 facet normal 0.187559 0.577248 -0.794737
  outer loop
   vertex -0.021868 0.080203 -0.034244
   vertex -0.022722 0.082832 -0.032536
   vertex -0.019632 0.081828 -0.032536
  endloop
 endfacet
 facet normal 0.228709 0.703897 -0.672474
  outer loop
   vertex -0.019632 0.081828 -0.032536
   vertex -0.022722 0.082832 -0.032536
   vertex -0.020621 0.08404 -0.030557
  endloop
 endfacet
 facet normal 0.102735 0.796801 -0.595444
  outer loop
   vertex -0.022722 0.082832 -0.032536
   vertex -0.023546 0.084592 -0.030323
   vertex -0.020621 0.08404 -0.030557
  endloop
 endfacet
 facet normal 0.0891868 0.274301 -0.957499
  outer loop
   vertex -0.021218 0.077426 -0.034979
   vertex -0.024026 0.078339 -0.034979
   vertex -0.021868 0.080203 -0.034244
  endloop
 endfacet
 facet normal -0.0336945 0.400135 -0.915836
  outer loop
   vertex -0.024026 0.078339 -0.034979
   vertex -0.024875 0.08095 -0.033807
   vertex -0.021868 0.080203 -0.034244
  endloop
 endfacet
 facet normal 0.0146149 0.548074 -0.836302
  outer loop
   vertex -0.021868 0.080203 -0.034244
   vertex -0.024875 0.08095 -0.033807
   vertex -0.022722 0.082832 -0.032536
  endloop
 endfacet
 facet normal -0.112009 0.640965 -0.759354
  outer loop
   vertex -0.024875 0.08095 -0.033807
   vertex -0.025578 0.083116 -0.031875
   vertex -0.022722 0.082832 -0.032536
  endloop
 endfacet
 facet normal -0.0710868 0.767617 -0.636955
  outer loop
   vertex -0.022722 0.082832 -0.032536
   vertex -0.025578 0.083116 -0.031875
   vertex -0.023546 0.084592 -0.030323
  endloop
 endfacet
 facet normal -0.168666 0.815046 -0.554303
  outer loop
   vertex -0.025578 0.083116 -0.031875
   vertex -0.026014 0.084456 -0.029772
   vertex -0.023546 0.084592 -0.030323
  endloop
 endfacet
 facet normal -0.342493 0.758552 -0.554344
  outer loop
   vertex -0.025578 0.083116 -0.031875
   vertex -0.02809 0.083116 -0.030323
   vertex -0.026014 0.084456 -0.029772
  endloop
 endfacet
 facet normal -0.286233 0.584386 -0.759318
  outer loop
   vertex -0.024875 0.08095 -0.033807
   vertex -0.027722 0.081207 -0.032536
   vertex -0.025578 0.083116 -0.031875
  endloop
 endfacet
 facet normal -0.207851 0.343516 -0.915858
  outer loop
   vertex -0.024026 0.078339 -0.034979
   vertex -0.026868 0.078579 -0.034244
   vertex -0.024875 0.08095 -0.033807
  endloop
 endfacet
 facet normal -0.393627 0.662685 -0.637108
  outer loop
   vertex -0.025578 0.083116 -0.031875
   vertex -0.027722 0.081207 -0.032536
   vertex -0.02809 0.083116 -0.030323
  endloop
 endfacet
 facet normal -0.551379 0.584158 -0.595601
  outer loop
   vertex -0.027722 0.081207 -0.032536
   vertex -0.030132 0.08095 -0.030557
   vertex -0.02809 0.083116 -0.030323
  endloop
 endfacet
 facet normal -0.334054 0.43492 -0.836213
  outer loop
   vertex -0.024875 0.08095 -0.033807
   vertex -0.026868 0.078579 -0.034244
   vertex -0.027722 0.081207 -0.032536
  endloop
 endfacet
 facet normal -0.491058 0.356895 -0.794662
  outer loop
   vertex -0.026868 0.078579 -0.034244
   vertex -0.029632 0.078579 -0.032536
   vertex -0.027722 0.081207 -0.032536
  endloop
 endfacet
 facet normal -0.598657 0.435097 -0.672533
  outer loop
   vertex -0.027722 0.081207 -0.032536
   vertex -0.029632 0.078579 -0.032536
   vertex -0.030132 0.08095 -0.030557
  endloop
 endfacet
 facet normal -0.725985 0.343961 -0.595514
  outer loop
   vertex -0.029632 0.078579 -0.032536
   vertex -0.031561 0.078339 -0.030323
   vertex -0.030132 0.08095 -0.030557
  endloop
 endfacet
 facet normal -0.233325 0.169451 -0.957521
  outer loop
   vertex -0.024026 0.078339 -0.034979
   vertex -0.025761 0.07595 -0.034979
   vertex -0.026868 0.078579 -0.034244
  endloop
 endfacet
 facet normal -0.390899 0.0914587 -0.915878
  outer loop
   vertex -0.025761 0.07595 -0.034979
   vertex -0.028507 0.07595 -0.033807
   vertex -0.026868 0.078579 -0.034244
  endloop
 endfacet
 facet normal -0.516783 0.183167 -0.836293
  outer loop
   vertex -0.026868 0.078579 -0.034244
   vertex -0.028507 0.07595 -0.033807
   vertex -0.029632 0.078579 -0.032536
  endloop
 endfacet
 facet normal -0.644269 0.0913996 -0.759317
  outer loop
   vertex -0.028507 0.07595 -0.033807
   vertex -0.030784 0.07595 -0.031875
   vertex -0.029632 0.078579 -0.032536
  endloop
 endfacet
 facet normal -0.751958 0.169318 -0.637095
  outer loop
   vertex -0.029632 0.078579 -0.032536
   vertex -0.030784 0.07595 -0.031875
   vertex -0.031561 0.078339 -0.030323
  endloop
 endfacet
 facet normal -0.827124 0.091254 -0.554562
  outer loop
   vertex -0.030784 0.07595 -0.031875
   vertex -0.032194 0.07595 -0.029772
   vertex -0.031561 0.078339 -0.030323
  endloop
 endfacet
 facet normal -0.827124 -0.091254 -0.554562
  outer loop
   vertex -0.030784 0.07595 -0.031875
   vertex -0.031561 0.073561 -0.030323
   vertex -0.032194 0.07595 -0.029772
  endloop
 endfacet
 facet normal -0.644269 -0.0913996 -0.759317
  outer loop
   vertex -0.028507 0.07595 -0.033807
   vertex -0.029632 0.073321 -0.032536
   vertex -0.030784 0.07595 -0.031875
  endloop
 endfacet
 facet normal -0.390899 -0.0914587 -0.915878
  outer loop
   vertex -0.025761 0.07595 -0.034979
   vertex -0.026868 0.073321 -0.034244
   vertex -0.028507 0.07595 -0.033807
  endloop
 endfacet
 facet normal -0.751958 -0.169318 -0.637095
  outer loop
   vertex -0.030784 0.07595 -0.031875
   vertex -0.029632 0.073321 -0.032536
   vertex -0.031561 0.073561 -0.030323
  endloop
 endfacet
 facet normal -0.725985 -0.343961 -0.595514
  outer loop
   vertex -0.029632 0.073321 -0.032536
   vertex -0.030132 0.07095 -0.030557
   vertex -0.031561 0.073561 -0.030323
  endloop
 endfacet
 facet normal -0.516783 -0.183167 -0.836293
  outer loop
   vertex -0.028507 0.07595 -0.033807
   vertex -0.026868 0.073321 -0.034244
   vertex -0.029632 0.073321 -0.032536
  endloop
 endfacet
 facet normal -0.491058 -0.356895 -0.794662
  outer loop
   vertex -0.026868 0.073321 -0.034244
   vertex -0.027722 0.070693 -0.032536
   vertex -0.029632 0.073321 -0.032536
  endloop
 endfacet
 facet normal -0.598657 -0.435097 -0.672533
  outer loop
   vertex -0.029632 0.073321 -0.032536
   vertex -0.027722 0.070693 -0.032536
   vertex -0.030132 0.07095 -0.030557
  endloop
 endfacet
 facet normal -0.551379 -0.584158 -0.595601
  outer loop
   vertex -0.027722 0.070693 -0.032536
   vertex -0.02809 0.068784 -0.030323
   vertex -0.030132 0.07095 -0.030557
  endloop
 endfacet
 facet normal -0.233325 -0.169451 -0.957521
  outer loop
   vertex -0.025761 0.07595 -0.034979
   vertex -0.024026 0.073561 -0.034979
   vertex -0.026868 0.073321 -0.034244
  endloop
 endfacet
 facet normal -0.207851 -0.343516 -0.915858
  outer loop
   vertex -0.024026 0.073561 -0.034979
   vertex -0.024875 0.07095 -0.033807
   vertex -0.026868 0.073321 -0.034244
  endloop
 endfacet
 facet normal -0.334054 -0.43492 -0.836213
  outer loop
   vertex -0.026868 0.073321 -0.034244
   vertex -0.024875 0.07095 -0.033807
   vertex -0.027722 0.070693 -0.032536
  endloop
 endfacet
 facet normal -0.286233 -0.584386 -0.759318
  outer loop
   vertex -0.024875 0.07095 -0.033807
   vertex -0.025578 0.068784 -0.031875
   vertex -0.027722 0.070693 -0.032536
  endloop
 endfacet
 facet normal -0.393627 -0.662685 -0.637108
  outer loop
   vertex -0.027722 0.070693 -0.032536
   vertex -0.025578 0.068784 -0.031875
   vertex -0.02809 0.068784 -0.030323
  endloop
 endfacet
 facet normal -0.342493 -0.758552 -0.554344
  outer loop
   vertex -0.025578 0.068784 -0.031875
   vertex -0.026014 0.067444 -0.029772
   vertex -0.02809 0.068784 -0.030323
  endloop
 endfacet
 facet normal 0.723015 0.412034 -0.554506
  outer loop
   vertex -0.015123 0.078902 -0.030323
   vertex -0.017155 0.080379 -0.031875
   vertex -0.016014 0.081207 -0.029772
  endloop
 endfacet
 facet normal 0.789589 0.148568 -0.59538
  outer loop
   vertex -0.014744 0.07595 -0.030557
   vertex -0.016542 0.077575 -0.032536
   vertex -0.015123 0.078902 -0.030323
  endloop
 endfacet
 facet normal 0.789589 -0.148568 -0.59538
  outer loop
   vertex -0.015123 0.072998 -0.030323
   vertex -0.016542 0.074325 -0.032536
   vertex -0.014744 0.07595 -0.030557
  endloop
 endfacet
 facet normal 0.708089 0.304936 -0.636886
  outer loop
   vertex -0.015123 0.078902 -0.030323
   vertex -0.016542 0.077575 -0.032536
   vertex -0.017155 0.080379 -0.031875
  endloop
 endfacet
 facet normal 0.574948 0.304695 -0.759339
  outer loop
   vertex -0.016542 0.077575 -0.032536
   vertex -0.018997 0.07904 -0.033807
   vertex -0.017155 0.080379 -0.031875
  endloop
 endfacet
 facet normal 0.740143 0 -0.672449
  outer loop
   vertex -0.014744 0.07595 -0.030557
   vertex -0.016542 0.074325 -0.032536
   vertex -0.016542 0.077575 -0.032536
  endloop
 endfacet
 facet normal 0.607028 0 -0.794681
  outer loop
   vertex -0.016542 0.074325 -0.032536
   vertex -0.018778 0.07595 -0.034244
   vertex -0.016542 0.077575 -0.032536
  endloop
 endfacet
 facet normal 0.525774 0.155534 -0.836284
  outer loop
   vertex -0.016542 0.077575 -0.032536
   vertex -0.018778 0.07595 -0.034244
   vertex -0.018997 0.07904 -0.033807
  endloop
 endfacet
 facet normal 0.370096 0.155752 -0.915844
  outer loop
   vertex -0.018778 0.07595 -0.034244
   vertex -0.021218 0.077426 -0.034979
   vertex -0.018997 0.07904 -0.033807
  endloop
 endfacet
 facet normal 0.708089 -0.304936 -0.636886
  outer loop
   vertex -0.015123 0.072998 -0.030323
   vertex -0.017155 0.071521 -0.031875
   vertex -0.016542 0.074325 -0.032536
  endloop
 endfacet
 facet normal 0.574948 -0.304695 -0.759339
  outer loop
   vertex -0.017155 0.071521 -0.031875
   vertex -0.018997 0.07286 -0.033807
   vertex -0.016542 0.074325 -0.032536
  endloop
 endfacet
 facet normal 0.525774 -0.155534 -0.836284
  outer loop
   vertex -0.016542 0.074325 -0.032536
   vertex -0.018997 0.07286 -0.033807
   vertex -0.018778 0.07595 -0.034244
  endloop
 endfacet
 facet normal 0.370096 -0.155752 -0.915844
  outer loop
   vertex -0.018997 0.07286 -0.033807
   vertex -0.021218 0.074474 -0.034979
   vertex -0.018778 0.07595 -0.034244
  endloop
 endfacet
 facet normal 0.288428 0 -0.957502
  outer loop
   vertex -0.018778 0.07595 -0.034244
   vertex -0.021218 0.074474 -0.034979
   vertex -0.021218 0.077426 -0.034979
  endloop
 endfacet
 facet normal 0.156037 0 -0.987751
  outer loop
   vertex -0.021218 0.074474 -0.034979
   vertex -0.02325 0.07595 -0.0353
   vertex -0.021218 0.077426 -0.034979
  endloop
 endfacet
 facet normal -0.168666 -0.815046 -0.554303
  outer loop
   vertex -0.025578 0.068784 -0.031875
   vertex -0.023546 0.067308 -0.030323
   vertex -0.026014 0.067444 -0.029772
  endloop
 endfacet
 facet normal -0.112009 -0.640965 -0.759354
  outer loop
   vertex -0.024875 0.07095 -0.033807
   vertex -0.022722 0.069068 -0.032536
   vertex -0.025578 0.068784 -0.031875
  endloop
 endfacet
 facet normal -0.0336945 -0.400135 -0.915836
  outer loop
   vertex -0.024026 0.073561 -0.034979
   vertex -0.021868 0.071697 -0.034244
   vertex -0.024875 0.07095 -0.033807
  endloop
 endfacet
 facet normal -0.0710868 -0.767617 -0.636955
  outer loop
   vertex -0.025578 0.068784 -0.031875
   vertex -0.022722 0.069068 -0.032536
   vertex -0.023546 0.067308 -0.030323
  endloop
 endfacet
 facet normal 0.102735 -0.796801 -0.595444
  outer loop
   vertex -0.022722 0.069068 -0.032536
   vertex -0.020621 0.06786 -0.030557
   vertex -0.023546 0.067308 -0.030323
  endloop
 endfacet
 facet normal 0.0146149 -0.548074 -0.836302
  outer loop
   vertex -0.024875 0.07095 -0.033807
   vertex -0.021868 0.071697 -0.034244
   vertex -0.022722 0.069068 -0.032536
  endloop
 endfacet
 facet normal 0.187559 -0.577248 -0.794737
  outer loop
   vertex -0.021868 0.071697 -0.034244
   vertex -0.019632 0.070072 -0.032536
   vertex -0.022722 0.069068 -0.032536
  endloop
 endfacet
 facet normal 0.228709 -0.703897 -0.672474
  outer loop
   vertex -0.022722 0.069068 -0.032536
   vertex -0.019632 0.070072 -0.032536
   vertex -0.020621 0.06786 -0.030557
  endloop
 endfacet
 facet normal 0.38541 -0.704977 -0.595371
  outer loop
   vertex -0.019632 0.070072 -0.032536
   vertex -0.017931 0.069133 -0.030323
   vertex -0.020621 0.06786 -0.030557
  endloop
 endfacet
 facet normal 0.0891868 -0.274301 -0.957499
  outer loop
   vertex -0.024026 0.073561 -0.034979
   vertex -0.021218 0.074474 -0.034979
   vertex -0.021868 0.071697 -0.034244
  endloop
 endfacet
 facet normal 0.262485 -0.303841 -0.915851
  outer loop
   vertex -0.021218 0.074474 -0.034979
   vertex -0.018997 0.07286 -0.033807
   vertex -0.021868 0.071697 -0.034244
  endloop
 endfacet
 facet normal 0.310374 -0.451949 -0.836307
  outer loop
   vertex -0.021868 0.071697 -0.034244
   vertex -0.018997 0.07286 -0.033807
   vertex -0.019632 0.070072 -0.032536
  endloop
 endfacet
 facet normal 0.467426 -0.452641 -0.759361
  outer loop
   vertex -0.018997 0.07286 -0.033807
   vertex -0.017155 0.071521 -0.031875
   vertex -0.019632 0.070072 -0.032536
  endloop
 endfacet
 facet normal 0.508799 -0.579247 -0.636864
  outer loop
   vertex -0.019632 0.070072 -0.032536
   vertex -0.017155 0.071521 -0.031875
   vertex -0.017931 0.069133 -0.030323
  endloop
 endfacet
 facet normal 0.61533 -0.560308 -0.554459
  outer loop
   vertex -0.017155 0.071521 -0.031875
   vertex -0.016014 0.070693 -0.029772
   vertex -0.017931 0.069133 -0.030323
  endloop
 endfacet
endsolid ExportedfromBlender-3.5.1
