solid ExportedfromBlender-3.5.1
 facet normal 0.0482486 -0.148392 -0.987751
  outer loop
   vertex -0.02178 0.33158 0.01665
   vertex -0.019748 0.330104 0.016971
   vertex -0.022556 0.329191 0.016971
  endloop
 endfacet
 facet normal 0.723015 -0.412034 -0.554506
  outer loop
   vertex -0.014544 0.326323 0.022178
   vertex -0.015685 0.327151 0.020075
   vertex -0.013653 0.328628 0.021627
  endloop
 endfacet
 facet normal -0.126271 -0.0917039 -0.987748
  outer loop
   vertex -0.02178 0.33158 0.01665
   vertex -0.022556 0.329191 0.016971
   vertex -0.024291 0.33158 0.016971
  endloop
 endfacet
 facet normal -0.126271 0.0917039 -0.987748
  outer loop
   vertex -0.02178 0.33158 0.01665
   vertex -0.024291 0.33158 0.016971
   vertex -0.022556 0.333969 0.016971
  endloop
 endfacet
 facet normal 0.0482486 0.148392 -0.987751
  outer loop
   vertex -0.02178 0.33158 0.01665
   vertex -0.022556 0.333969 0.016971
   vertex -0.019748 0.333056 0.016971
  endloop
 endfacet
 facet normal 0.819189 -0.412026 -0.398954
  outer loop
   vertex -0.014544 0.326323 0.022178
   vertex -0.013653 0.328628 0.021627
   vertex -0.013173 0.327151 0.024138
  endloop
 endfacet
 facet normal -0.138975 -0.90647 -0.398746
  outer loop
   vertex -0.024544 0.323074 0.022178
   vertex -0.022076 0.322938 0.021627
   vertex -0.023332 0.322026 0.024138
  endloop
 endfacet
 facet normal -0.905177 -0.147939 -0.398459
  outer loop
   vertex -0.030724 0.33158 0.022178
   vertex -0.030091 0.329191 0.021627
   vertex -0.031346 0.330104 0.024139
  endloop
 endfacet
 facet normal -0.420269 0.815078 -0.398776
  outer loop
   vertex -0.024544 0.340086 0.022178
   vertex -0.02662 0.338746 0.021627
   vertex -0.02614 0.340222 0.024138
  endloop
 endfacet
 facet normal 0.645038 0.651744 -0.398942
  outer loop
   vertex -0.014544 0.336837 0.022178
   vertex -0.016461 0.338397 0.021627
   vertex -0.014908 0.338397 0.024138
  endloop
 endfacet
 facet normal 0.771063 -0.560215 -0.302688
  outer loop
   vertex -0.014544 0.326323 0.022178
   vertex -0.013173 0.327151 0.024138
   vertex -0.014908 0.324763 0.024138
  endloop
 endfacet
 facet normal -0.294416 -0.906493 -0.302638
  outer loop
   vertex -0.024544 0.323074 0.022178
   vertex -0.023332 0.322026 0.024138
   vertex -0.02614 0.322938 0.024138
  endloop
 endfacet
 facet normal -0.9532 0 -0.302341
  outer loop
   vertex -0.030724 0.33158 0.022178
   vertex -0.031346 0.330104 0.024139
   vertex -0.031346 0.333056 0.024139
  endloop
 endfacet
 facet normal -0.294416 0.906493 -0.302638
  outer loop
   vertex -0.024544 0.340086 0.022178
   vertex -0.02614 0.340222 0.024138
   vertex -0.023332 0.341134 0.024138
  endloop
 endfacet
 facet normal 0.771063 0.560215 -0.302688
  outer loop
   vertex -0.014544 0.336837 0.022178
   vertex -0.014908 0.338397 0.024138
   vertex -0.013173 0.336009 0.024138
  endloop
 endfacet
 facet normal 0.342493 -0.758552 0.554344
  outer loop
   vertex -0.019016 0.323074 0.031122
   vertex -0.01694 0.324414 0.031673
   vertex -0.019452 0.324414 0.033225
  endloop
 endfacet
 facet normal -0.61533 -0.560308 0.554459
  outer loop
   vertex -0.029016 0.326323 0.031122
   vertex -0.027099 0.324763 0.031673
   vertex -0.027875 0.327151 0.033225
  endloop
 endfacet
 facet normal -0.723015 0.412034 0.554506
  outer loop
   vertex -0.029016 0.336837 0.031122
   vertex -0.029907 0.334532 0.031673
   vertex -0.027875 0.336009 0.033225
  endloop
 endfacet
 facet normal 0.168666 0.815046 0.554303
  outer loop
   vertex -0.019016 0.340086 0.031122
   vertex -0.021484 0.340222 0.031673
   vertex -0.019452 0.338746 0.033225
  endloop
 endfacet
 facet normal 0.827124 0.091254 0.554562
  outer loop
   vertex -0.012836 0.33158 0.031122
   vertex -0.013469 0.333969 0.031673
   vertex -0.014246 0.33158 0.033225
  endloop
 endfacet
 facet normal 0.126271 0.0917039 0.987748
  outer loop
   vertex -0.019269 0.33158 0.036329
   vertex -0.021004 0.333969 0.036329
   vertex -0.02178 0.33158 0.03665
  endloop
 endfacet
 facet normal 0.390899 0.0914587 0.915878
  outer loop
   vertex -0.016523 0.33158 0.035157
   vertex -0.018162 0.334209 0.035594
   vertex -0.019269 0.33158 0.036329
  endloop
 endfacet
 facet normal 0.644269 0.0913996 0.759317
  outer loop
   vertex -0.014246 0.33158 0.033225
   vertex -0.015398 0.334209 0.033886
   vertex -0.016523 0.33158 0.035157
  endloop
 endfacet
 facet normal 0.233325 0.169451 0.957521
  outer loop
   vertex -0.019269 0.33158 0.036329
   vertex -0.018162 0.334209 0.035594
   vertex -0.021004 0.333969 0.036329
  endloop
 endfacet
 facet normal 0.207851 0.343516 0.915858
  outer loop
   vertex -0.018162 0.334209 0.035594
   vertex -0.020155 0.33658 0.035157
   vertex -0.021004 0.333969 0.036329
  endloop
 endfacet
 facet normal 0.516783 0.183167 0.836293
  outer loop
   vertex -0.016523 0.33158 0.035157
   vertex -0.015398 0.334209 0.033886
   vertex -0.018162 0.334209 0.035594
  endloop
 endfacet
 facet normal 0.491058 0.356895 0.794662
  outer loop
   vertex -0.015398 0.334209 0.033886
   vertex -0.017308 0.336837 0.033886
   vertex -0.018162 0.334209 0.035594
  endloop
 endfacet
 facet normal 0.334054 0.43492 0.836213
  outer loop
   vertex -0.018162 0.334209 0.035594
   vertex -0.017308 0.336837 0.033886
   vertex -0.020155 0.33658 0.035157
  endloop
 endfacet
 facet normal 0.286233 0.584386 0.759318
  outer loop
   vertex -0.017308 0.336837 0.033886
   vertex -0.019452 0.338746 0.033225
   vertex -0.020155 0.33658 0.035157
  endloop
 endfacet
 facet normal 0.751958 0.169318 0.637095
  outer loop
   vertex -0.014246 0.33158 0.033225
   vertex -0.013469 0.333969 0.031673
   vertex -0.015398 0.334209 0.033886
  endloop
 endfacet
 facet normal 0.725985 0.343961 0.595514
  outer loop
   vertex -0.013469 0.333969 0.031673
   vertex -0.014898 0.33658 0.031907
   vertex -0.015398 0.334209 0.033886
  endloop
 endfacet
 facet normal 0.598657 0.435097 0.672533
  outer loop
   vertex -0.015398 0.334209 0.033886
   vertex -0.014898 0.33658 0.031907
   vertex -0.017308 0.336837 0.033886
  endloop
 endfacet
 facet normal 0.551379 0.584158 0.595601
  outer loop
   vertex -0.014898 0.33658 0.031907
   vertex -0.01694 0.338746 0.031673
   vertex -0.017308 0.336837 0.033886
  endloop
 endfacet
 facet normal 0.393627 0.662685 0.637108
  outer loop
   vertex -0.017308 0.336837 0.033886
   vertex -0.01694 0.338746 0.031673
   vertex -0.019452 0.338746 0.033225
  endloop
 endfacet
 facet normal 0.342493 0.758552 0.554344
  outer loop
   vertex -0.01694 0.338746 0.031673
   vertex -0.019016 0.340086 0.031122
   vertex -0.019452 0.338746 0.033225
  endloop
 endfacet
 facet normal -0.0482486 0.148392 0.987751
  outer loop
   vertex -0.021004 0.333969 0.036329
   vertex -0.023812 0.333056 0.036329
   vertex -0.02178 0.33158 0.03665
  endloop
 endfacet
 facet normal 0.0336945 0.400135 0.915836
  outer loop
   vertex -0.020155 0.33658 0.035157
   vertex -0.023162 0.335833 0.035594
   vertex -0.021004 0.333969 0.036329
  endloop
 endfacet
 facet normal 0.112009 0.640965 0.759354
  outer loop
   vertex -0.019452 0.338746 0.033225
   vertex -0.022308 0.338462 0.033886
   vertex -0.020155 0.33658 0.035157
  endloop
 endfacet
 facet normal -0.0891868 0.274301 0.957499
  outer loop
   vertex -0.021004 0.333969 0.036329
   vertex -0.023162 0.335833 0.035594
   vertex -0.023812 0.333056 0.036329
  endloop
 endfacet
 facet normal -0.262485 0.303841 0.915851
  outer loop
   vertex -0.023162 0.335833 0.035594
   vertex -0.026033 0.33467 0.035157
   vertex -0.023812 0.333056 0.036329
  endloop
 endfacet
 facet normal -0.0146149 0.548074 0.836302
  outer loop
   vertex -0.020155 0.33658 0.035157
   vertex -0.022308 0.338462 0.033886
   vertex -0.023162 0.335833 0.035594
  endloop
 endfacet
 facet normal -0.187559 0.577248 0.794737
  outer loop
   vertex -0.022308 0.338462 0.033886
   vertex -0.025398 0.337458 0.033886
   vertex -0.023162 0.335833 0.035594
  endloop
 endfacet
 facet normal -0.310374 0.451949 0.836307
  outer loop
   vertex -0.023162 0.335833 0.035594
   vertex -0.025398 0.337458 0.033886
   vertex -0.026033 0.33467 0.035157
  endloop
 endfacet
 facet normal -0.467426 0.452641 0.759361
  outer loop
   vertex -0.025398 0.337458 0.033886
   vertex -0.027875 0.336009 0.033225
   vertex -0.026033 0.33467 0.035157
  endloop
 endfacet
 facet normal 0.0710868 0.767617 0.636955
  outer loop
   vertex -0.019452 0.338746 0.033225
   vertex -0.021484 0.340222 0.031673
   vertex -0.022308 0.338462 0.033886
  endloop
 endfacet
 facet normal -0.102735 0.796801 0.595444
  outer loop
   vertex -0.021484 0.340222 0.031673
   vertex -0.024409 0.33967 0.031907
   vertex -0.022308 0.338462 0.033886
  endloop
 endfacet
 facet normal -0.228709 0.703897 0.672474
  outer loop
   vertex -0.022308 0.338462 0.033886
   vertex -0.024409 0.33967 0.031907
   vertex -0.025398 0.337458 0.033886
  endloop
 endfacet
 facet normal -0.38541 0.704977 0.595371
  outer loop
   vertex -0.024409 0.33967 0.031907
   vertex -0.027099 0.338397 0.031673
   vertex -0.025398 0.337458 0.033886
  endloop
 endfacet
 facet normal -0.508799 0.579247 0.636864
  outer loop
   vertex -0.025398 0.337458 0.033886
   vertex -0.027099 0.338397 0.031673
   vertex -0.027875 0.336009 0.033225
  endloop
 endfacet
 facet normal -0.61533 0.560308 0.554459
  outer loop
   vertex -0.027099 0.338397 0.031673
   vertex -0.029016 0.336837 0.031122
   vertex -0.027875 0.336009 0.033225
  endloop
 endfacet
 facet normal -0.156037 0 0.987751
  outer loop
   vertex -0.023812 0.333056 0.036329
   vertex -0.023812 0.330104 0.036329
   vertex -0.02178 0.33158 0.03665
  endloop
 endfacet
 facet normal -0.370096 0.155752 0.915844
  outer loop
   vertex -0.026033 0.33467 0.035157
   vertex -0.026252 0.33158 0.035594
   vertex -0.023812 0.333056 0.036329
  endloop
 endfacet
 facet normal -0.574948 0.304695 0.759339
  outer loop
   vertex -0.027875 0.336009 0.033225
   vertex -0.028488 0.333205 0.033886
   vertex -0.026033 0.33467 0.035157
  endloop
 endfacet
 facet normal -0.288428 0 0.957502
  outer loop
   vertex -0.023812 0.333056 0.036329
   vertex -0.026252 0.33158 0.035594
   vertex -0.023812 0.330104 0.036329
  endloop
 endfacet
 facet normal -0.370096 -0.155752 0.915844
  outer loop
   vertex -0.026252 0.33158 0.035594
   vertex -0.026033 0.32849 0.035157
   vertex -0.023812 0.330104 0.036329
  endloop
 endfacet
 facet normal -0.525774 0.155534 0.836284
  outer loop
   vertex -0.026033 0.33467 0.035157
   vertex -0.028488 0.333205 0.033886
   vertex -0.026252 0.33158 0.035594
  endloop
 endfacet
 facet normal -0.607028 0 0.794681
  outer loop
   vertex -0.028488 0.333205 0.033886
   vertex -0.028488 0.329955 0.033886
   vertex -0.026252 0.33158 0.035594
  endloop
 endfacet
 facet normal -0.525774 -0.155534 0.836284
  outer loop
   vertex -0.026252 0.33158 0.035594
   vertex -0.028488 0.329955 0.033886
   vertex -0.026033 0.32849 0.035157
  endloop
 endfacet
 facet normal -0.574948 -0.304695 0.759339
  outer loop
   vertex -0.028488 0.329955 0.033886
   vertex -0.027875 0.327151 0.033225
   vertex -0.026033 0.32849 0.035157
  endloop
 endfacet
 facet normal -0.708089 0.304936 0.636886
  outer loop
   vertex -0.027875 0.336009 0.033225
   vertex -0.029907 0.334532 0.031673
   vertex -0.028488 0.333205 0.033886
  endloop
 endfacet
 facet normal -0.789589 0.148568 0.59538
  outer loop
   vertex -0.029907 0.334532 0.031673
   vertex -0.030286 0.33158 0.031907
   vertex -0.028488 0.333205 0.033886
  endloop
 endfacet
 facet normal -0.740143 0 0.672449
  outer loop
   vertex -0.028488 0.333205 0.033886
   vertex -0.030286 0.33158 0.031907
   vertex -0.028488 0.329955 0.033886
  endloop
 endfacet
 facet normal -0.789589 -0.148568 0.59538
  outer loop
   vertex -0.030286 0.33158 0.031907
   vertex -0.029907 0.328628 0.031673
   vertex -0.028488 0.329955 0.033886
  endloop
 endfacet
 facet normal -0.708089 -0.304936 0.636886
  outer loop
   vertex -0.028488 0.329955 0.033886
   vertex -0.029907 0.328628 0.031673
   vertex -0.027875 0.327151 0.033225
  endloop
 endfacet
 facet normal -0.723015 -0.412034 0.554506
  outer loop
   vertex -0.029907 0.328628 0.031673
   vertex -0.029016 0.326323 0.031122
   vertex -0.027875 0.327151 0.033225
  endloop
 endfacet
 facet normal -0.0482486 -0.148392 0.987751
  outer loop
   vertex -0.023812 0.330104 0.036329
   vertex -0.021004 0.329191 0.036329
   vertex -0.02178 0.33158 0.03665
  endloop
 endfacet
 facet normal -0.262485 -0.303841 0.915851
  outer loop
   vertex -0.026033 0.32849 0.035157
   vertex -0.023162 0.327327 0.035594
   vertex -0.023812 0.330104 0.036329
  endloop
 endfacet
 facet normal -0.467426 -0.452641 0.759361
  outer loop
   vertex -0.027875 0.327151 0.033225
   vertex -0.025398 0.325702 0.033886
   vertex -0.026033 0.32849 0.035157
  endloop
 endfacet
 facet normal -0.0891868 -0.274301 0.957499
  outer loop
   vertex -0.023812 0.330104 0.036329
   vertex -0.023162 0.327327 0.035594
   vertex -0.021004 0.329191 0.036329
  endloop
 endfacet
 facet normal 0.0336945 -0.400135 0.915836
  outer loop
   vertex -0.023162 0.327327 0.035594
   vertex -0.020155 0.32658 0.035157
   vertex -0.021004 0.329191 0.036329
  endloop
 endfacet
 facet normal -0.310374 -0.451949 0.836307
  outer loop
   vertex -0.026033 0.32849 0.035157
   vertex -0.025398 0.325702 0.033886
   vertex -0.023162 0.327327 0.035594
  endloop
 endfacet
 facet normal -0.187559 -0.577248 0.794737
  outer loop
   vertex -0.025398 0.325702 0.033886
   vertex -0.022308 0.324698 0.033886
   vertex -0.023162 0.327327 0.035594
  endloop
 endfacet
 facet normal -0.0146149 -0.548074 0.836302
  outer loop
   vertex -0.023162 0.327327 0.035594
   vertex -0.022308 0.324698 0.033886
   vertex -0.020155 0.32658 0.035157
  endloop
 endfacet
 facet normal 0.112009 -0.640965 0.759354
  outer loop
   vertex -0.022308 0.324698 0.033886
   vertex -0.019452 0.324414 0.033225
   vertex -0.020155 0.32658 0.035157
  endloop
 endfacet
 facet normal -0.508799 -0.579247 0.636864
  outer loop
   vertex -0.027875 0.327151 0.033225
   vertex -0.027099 0.324763 0.031673
   vertex -0.025398 0.325702 0.033886
  endloop
 endfacet
 facet normal -0.38541 -0.704977 0.595371
  outer loop
   vertex -0.027099 0.324763 0.031673
   vertex -0.024409 0.32349 0.031907
   vertex -0.025398 0.325702 0.033886
  endloop
 endfacet
 facet normal -0.228709 -0.703897 0.672474
  outer loop
   vertex -0.025398 0.325702 0.033886
   vertex -0.024409 0.32349 0.031907
   vertex -0.022308 0.324698 0.033886
  endloop
 endfacet
 facet normal -0.102735 -0.796801 0.595444
  outer loop
   vertex -0.024409 0.32349 0.031907
   vertex -0.021484 0.322938 0.031673
   vertex -0.022308 0.324698 0.033886
  endloop
 endfacet
 facet normal 0.0710868 -0.767617 0.636955
  outer loop
   vertex -0.022308 0.324698 0.033886
   vertex -0.021484 0.322938 0.031673
   vertex -0.019452 0.324414 0.033225
  endloop
 endfacet
 facet normal 0.168666 -0.815046 0.554303
  outer loop
   vertex -0.021484 0.322938 0.031673
   vertex -0.019016 0.323074 0.031122
   vertex -0.019452 0.324414 0.033225
  endloop
 endfacet
 facet normal 0.126271 -0.0917039 0.987748
  outer loop
   vertex -0.021004 0.329191 0.036329
   vertex -0.019269 0.33158 0.036329
   vertex -0.02178 0.33158 0.03665
  endloop
 endfacet
 facet normal 0.207851 -0.343516 0.915858
  outer loop
   vertex -0.020155 0.32658 0.035157
   vertex -0.018162 0.328951 0.035594
   vertex -0.021004 0.329191 0.036329
  endloop
 endfacet
 facet normal 0.286233 -0.584386 0.759318
  outer loop
   vertex -0.019452 0.324414 0.033225
   vertex -0.017308 0.326323 0.033886
   vertex -0.020155 0.32658 0.035157
  endloop
 endfacet
 facet normal 0.233325 -0.169451 0.957521
  outer loop
   vertex -0.021004 0.329191 0.036329
   vertex -0.018162 0.328951 0.035594
   vertex -0.019269 0.33158 0.036329
  endloop
 endfacet
 facet normal 0.390899 -0.0914587 0.915878
  outer loop
   vertex -0.018162 0.328951 0.035594
   vertex -0.016523 0.33158 0.035157
   vertex -0.019269 0.33158 0.036329
  endloop
 endfacet
 facet normal 0.334054 -0.43492 0.836213
  outer loop
   vertex -0.020155 0.32658 0.035157
   vertex -0.017308 0.326323 0.033886
   vertex -0.018162 0.328951 0.035594
  endloop
 endfacet
 facet normal 0.491058 -0.356895 0.794662
  outer loop
   vertex -0.017308 0.326323 0.033886
   vertex -0.015398 0.328951 0.033886
   vertex -0.018162 0.328951 0.035594
  endloop
 endfacet
 facet normal 0.516783 -0.183167 0.836293
  outer loop
   vertex -0.018162 0.328951 0.035594
   vertex -0.015398 0.328951 0.033886
   vertex -0.016523 0.33158 0.035157
  endloop
 endfacet
 facet normal 0.644269 -0.0913996 0.759317
  outer loop
   vertex -0.015398 0.328951 0.033886
   vertex -0.014246 0.33158 0.033225
   vertex -0.016523 0.33158 0.035157
  endloop
 endfacet
 facet normal 0.393627 -0.662685 0.637108
  outer loop
   vertex -0.019452 0.324414 0.033225
   vertex -0.01694 0.324414 0.031673
   vertex -0.017308 0.326323 0.033886
  endloop
 endfacet
 facet normal 0.551379 -0.584158 0.595601
  outer loop
   vertex -0.01694 0.324414 0.031673
   vertex -0.014898 0.32658 0.031907
   vertex -0.017308 0.326323 0.033886
  endloop
 endfacet
 facet normal 0.598657 -0.435097 0.672533
  outer loop
   vertex -0.017308 0.326323 0.033886
   vertex -0.014898 0.32658 0.031907
   vertex -0.015398 0.328951 0.033886
  endloop
 endfacet
 facet normal 0.725985 -0.343961 0.595514
  outer loop
   vertex -0.014898 0.32658 0.031907
   vertex -0.013469 0.329191 0.031673
   vertex -0.015398 0.328951 0.033886
  endloop
 endfacet
 facet normal 0.751958 -0.169318 0.637095
  outer loop
   vertex -0.015398 0.328951 0.033886
   vertex -0.013469 0.329191 0.031673
   vertex -0.014246 0.33158 0.033225
  endloop
 endfacet
 facet normal 0.827124 -0.091254 0.554562
  outer loop
   vertex -0.013469 0.329191 0.031673
   vertex -0.012836 0.33158 0.031122
   vertex -0.014246 0.33158 0.033225
  endloop
 endfacet
 facet normal 0.905177 0.147939 0.398459
  outer loop
   vertex -0.012214 0.333056 0.029161
   vertex -0.013469 0.333969 0.031673
   vertex -0.012836 0.33158 0.031122
  endloop
 endfacet
 facet normal 0.93657 0.303801 0.17476
  outer loop
   vertex -0.012269 0.33467 0.02665
   vertex -0.013162 0.335833 0.029414
   vertex -0.012214 0.333056 0.029161
  endloop
 endfacet
 facet normal 0.888212 0.452708 -0.078331
  outer loop
   vertex -0.013173 0.336009 0.024138
   vertex -0.01369 0.337458 0.02665
   vertex -0.012269 0.33467 0.02665
  endloop
 endfacet
 facet normal 0.89641 0.274294 0.348155
  outer loop
   vertex -0.012214 0.333056 0.029161
   vertex -0.013162 0.335833 0.029414
   vertex -0.013469 0.333969 0.031673
  endloop
 endfacet
 facet normal 0.803858 0.400541 0.439749
  outer loop
   vertex -0.013162 0.335833 0.029414
   vertex -0.014898 0.33658 0.031907
   vertex -0.013469 0.333969 0.031673
  endloop
 endfacet
 facet normal 0.886806 0.451991 0.0963284
  outer loop
   vertex -0.012269 0.33467 0.02665
   vertex -0.01369 0.337458 0.02665
   vertex -0.013162 0.335833 0.029414
  endloop
 endfacet
 facet normal 0.794662 0.577331 0.18762
  outer loop
   vertex -0.01369 0.337458 0.02665
   vertex -0.015072 0.338462 0.029414
   vertex -0.013162 0.335833 0.029414
  endloop
 endfacet
 facet normal 0.754436 0.548107 0.361117
  outer loop
   vertex -0.013162 0.335833 0.029414
   vertex -0.015072 0.338462 0.029414
   vertex -0.014898 0.33658 0.031907
  endloop
 endfacet
 facet normal 0.629279 0.640767 0.439803
  outer loop
   vertex -0.015072 0.338462 0.029414
   vertex -0.01694 0.338746 0.031673
   vertex -0.014898 0.33658 0.031907
  endloop
 endfacet
 facet normal 0.797233 0.579229 -0.170037
  outer loop
   vertex -0.013173 0.336009 0.024138
   vertex -0.014908 0.338397 0.024138
   vertex -0.01369 0.337458 0.02665
  endloop
 endfacet
 facet normal 0.704936 0.704936 -0.0782949
  outer loop
   vertex -0.014908 0.338397 0.024138
   vertex -0.015902 0.33967 0.02665
   vertex -0.01369 0.337458 0.02665
  endloop
 endfacet
 facet normal 0.703824 0.703824 0.0962537
  outer loop
   vertex -0.01369 0.337458 0.02665
   vertex -0.015902 0.33967 0.02665
   vertex -0.015072 0.338462 0.029414
  endloop
 endfacet
 facet normal 0.578519 0.796783 0.174509
  outer loop
   vertex -0.015902 0.33967 0.02665
   vertex -0.01742 0.340222 0.029162
   vertex -0.015072 0.338462 0.029414
  endloop
 endfacet
 facet normal 0.537986 0.767602 0.348366
  outer loop
   vertex -0.015072 0.338462 0.029414
   vertex -0.01742 0.340222 0.029162
   vertex -0.01694 0.338746 0.031673
  endloop
 endfacet
 facet normal 0.420269 0.815078 0.398776
  outer loop
   vertex -0.01742 0.340222 0.029162
   vertex -0.019016 0.340086 0.031122
   vertex -0.01694 0.338746 0.031673
  endloop
 endfacet
 facet normal 0.138975 0.90647 0.398746
  outer loop
   vertex -0.020228 0.341134 0.029162
   vertex -0.021484 0.340222 0.031673
   vertex -0.019016 0.340086 0.031122
  endloop
 endfacet
 facet normal 0.000555151 0.98466 0.174481
  outer loop
   vertex -0.02178 0.34158 0.02665
   vertex -0.023162 0.341091 0.029414
   vertex -0.020228 0.341134 0.029162
  endloop
 endfacet
 facet normal -0.155824 0.984657 -0.07855
  outer loop
   vertex -0.023332 0.341134 0.024138
   vertex -0.02487 0.341091 0.02665
   vertex -0.02178 0.34158 0.02665
  endloop
 endfacet
 facet normal 0.0161962 0.937175 0.348485
  outer loop
   vertex -0.020228 0.341134 0.029162
   vertex -0.023162 0.341091 0.029414
   vertex -0.021484 0.340222 0.031673
  endloop
 endfacet
 facet normal -0.132412 0.888171 0.440021
  outer loop
   vertex -0.023162 0.341091 0.029414
   vertex -0.024409 0.33967 0.031907
   vertex -0.021484 0.340222 0.031673
  endloop
 endfacet
 facet normal -0.155583 0.983133 0.0961419
  outer loop
   vertex -0.02178 0.34158 0.02665
   vertex -0.02487 0.341091 0.02665
   vertex -0.023162 0.341091 0.029414
  endloop
 endfacet
 facet normal -0.303796 0.934059 0.187729
  outer loop
   vertex -0.02487 0.341091 0.02665
   vertex -0.026252 0.340086 0.029414
   vertex -0.023162 0.341091 0.029414
  endloop
 endfacet
 facet normal -0.288415 0.886769 0.361189
  outer loop
   vertex -0.023162 0.341091 0.029414
   vertex -0.026252 0.340086 0.029414
   vertex -0.024409 0.33967 0.031907
  endloop
 endfacet
 facet normal -0.415138 0.796394 0.439791
  outer loop
   vertex -0.026252 0.340086 0.029414
   vertex -0.027099 0.338397 0.031673
   vertex -0.024409 0.33967 0.031907
  endloop
 endfacet
 facet normal -0.304389 0.937197 -0.170322
  outer loop
   vertex -0.023332 0.341134 0.024138
   vertex -0.02614 0.340222 0.024138
   vertex -0.02487 0.341091 0.02665
  endloop
 endfacet
 facet normal -0.452705 0.888208 -0.0783901
  outer loop
   vertex -0.02614 0.340222 0.024138
   vertex -0.027658 0.33967 0.02665
   vertex -0.02487 0.341091 0.02665
  endloop
 endfacet
 facet normal -0.451986 0.886796 0.0964489
  outer loop
   vertex -0.02487 0.341091 0.02665
   vertex -0.027658 0.33967 0.02665
   vertex -0.026252 0.340086 0.029414
  endloop
 endfacet
 facet normal -0.578874 0.796508 0.174584
  outer loop
   vertex -0.027658 0.33967 0.02665
   vertex -0.028652 0.338397 0.029162
   vertex -0.026252 0.340086 0.029414
  endloop
 endfacet
 facet normal -0.563623 0.748876 0.348589
  outer loop
   vertex -0.026252 0.340086 0.029414
   vertex -0.028652 0.338397 0.029162
   vertex -0.027099 0.338397 0.031673
  endloop
 endfacet
 facet normal -0.645038 0.651744 0.398942
  outer loop
   vertex -0.028652 0.338397 0.029162
   vertex -0.029016 0.336837 0.031122
   vertex -0.027099 0.338397 0.031673
  endloop
 endfacet
 facet normal -0.819189 0.412026 0.398954
  outer loop
   vertex -0.030387 0.336009 0.029162
   vertex -0.029907 0.334532 0.031673
   vertex -0.029016 0.336837 0.031122
  endloop
 endfacet
 facet normal -0.936352 0.304548 0.174631
  outer loop
   vertex -0.031291 0.33467 0.02665
   vertex -0.031252 0.333205 0.029414
   vertex -0.030387 0.336009 0.029162
  endloop
 endfacet
 facet normal -0.984653 0.155824 -0.0785916
  outer loop
   vertex -0.031346 0.333056 0.024139
   vertex -0.03178 0.33158 0.02665
   vertex -0.031291 0.33467 0.02665
  endloop
 endfacet
 facet normal -0.886309 0.304753 0.348685
  outer loop
   vertex -0.030387 0.336009 0.029162
   vertex -0.031252 0.333205 0.029414
   vertex -0.029907 0.334532 0.031673
  endloop
 endfacet
 facet normal -0.885615 0.148581 0.440011
  outer loop
   vertex -0.031252 0.333205 0.029414
   vertex -0.030286 0.33158 0.031907
   vertex -0.029907 0.334532 0.031673
  endloop
 endfacet
 facet normal -0.983115 0.15558 0.0963335
  outer loop
   vertex -0.031291 0.33467 0.02665
   vertex -0.03178 0.33158 0.02665
   vertex -0.031252 0.333205 0.029414
  endloop
 endfacet
 facet normal -0.982239 0 0.187634
  outer loop
   vertex -0.03178 0.33158 0.02665
   vertex -0.031252 0.329955 0.029414
   vertex -0.031252 0.333205 0.029414
  endloop
 endfacet
 facet normal -0.932446 0 0.361309
  outer loop
   vertex -0.031252 0.333205 0.029414
   vertex -0.031252 0.329955 0.029414
   vertex -0.030286 0.33158 0.031907
  endloop
 endfacet
 facet normal -0.885615 -0.148581 0.440011
  outer loop
   vertex -0.031252 0.329955 0.029414
   vertex -0.029907 0.328628 0.031673
   vertex -0.030286 0.33158 0.031907
  endloop
 endfacet
 facet normal -0.98539 -0 -0.170314
  outer loop
   vertex -0.031346 0.333056 0.024139
   vertex -0.031346 0.330104 0.024139
   vertex -0.03178 0.33158 0.02665
  endloop
 endfacet
 facet normal -0.984653 -0.155824 -0.0785916
  outer loop
   vertex -0.031346 0.330104 0.024139
   vertex -0.031291 0.32849 0.02665
   vertex -0.03178 0.33158 0.02665
  endloop
 endfacet
 facet normal -0.983115 -0.15558 0.0963335
  outer loop
   vertex -0.03178 0.33158 0.02665
   vertex -0.031291 0.32849 0.02665
   vertex -0.031252 0.329955 0.029414
  endloop
 endfacet
 facet normal -0.936352 -0.304548 0.174631
  outer loop
   vertex -0.031291 0.32849 0.02665
   vertex -0.030387 0.327151 0.029162
   vertex -0.031252 0.329955 0.029414
  endloop
 endfacet
 facet normal -0.886309 -0.304753 0.348685
  outer loop
   vertex -0.031252 0.329955 0.029414
   vertex -0.030387 0.327151 0.029162
   vertex -0.029907 0.328628 0.031673
  endloop
 endfacet
 facet normal -0.819189 -0.412026 0.398954
  outer loop
   vertex -0.030387 0.327151 0.029162
   vertex -0.029016 0.326323 0.031122
   vertex -0.029907 0.328628 0.031673
  endloop
 endfacet
 facet normal -0.645038 -0.651744 0.398942
  outer loop
   vertex -0.028652 0.324763 0.029162
   vertex -0.027099 0.324763 0.031673
   vertex -0.029016 0.326323 0.031122
  endloop
 endfacet
 facet normal -0.578874 -0.796508 0.174584
  outer loop
   vertex -0.027658 0.32349 0.02665
   vertex -0.026252 0.323074 0.029414
   vertex -0.028652 0.324763 0.029162
  endloop
 endfacet
 facet normal -0.452705 -0.888208 -0.0783901
  outer loop
   vertex -0.02614 0.322938 0.024138
   vertex -0.02487 0.322069 0.02665
   vertex -0.027658 0.32349 0.02665
  endloop
 endfacet
 facet normal -0.563623 -0.748876 0.348589
  outer loop
   vertex -0.028652 0.324763 0.029162
   vertex -0.026252 0.323074 0.029414
   vertex -0.027099 0.324763 0.031673
  endloop
 endfacet
 facet normal -0.415138 -0.796394 0.439791
  outer loop
   vertex -0.026252 0.323074 0.029414
   vertex -0.024409 0.32349 0.031907
   vertex -0.027099 0.324763 0.031673
  endloop
 endfacet
 facet normal -0.451986 -0.886796 0.0964489
  outer loop
   vertex -0.027658 0.32349 0.02665
   vertex -0.02487 0.322069 0.02665
   vertex -0.026252 0.323074 0.029414
  endloop
 endfacet
 facet normal -0.303796 -0.934059 0.187729
  outer loop
   vertex -0.02487 0.322069 0.02665
   vertex -0.023162 0.322069 0.029414
   vertex -0.026252 0.323074 0.029414
  endloop
 endfacet
 facet normal -0.288415 -0.886769 0.361189
  outer loop
   vertex -0.026252 0.323074 0.029414
   vertex -0.023162 0.322069 0.029414
   vertex -0.024409 0.32349 0.031907
  endloop
 endfacet
 facet normal -0.132412 -0.888171 0.440021
  outer loop
   vertex -0.023162 0.322069 0.029414
   vertex -0.021484 0.322938 0.031673
   vertex -0.024409 0.32349 0.031907
  endloop
 endfacet
 facet normal -0.304389 -0.937197 -0.170322
  outer loop
   vertex -0.02614 0.322938 0.024138
   vertex -0.023332 0.322026 0.024138
   vertex -0.02487 0.322069 0.02665
  endloop
 endfacet
 facet normal -0.155824 -0.984657 -0.07855
  outer loop
   vertex -0.023332 0.322026 0.024138
   vertex -0.02178 0.32158 0.02665
   vertex -0.02487 0.322069 0.02665
  endloop
 endfacet
 facet normal -0.155583 -0.983133 0.0961419
  outer loop
   vertex -0.02487 0.322069 0.02665
   vertex -0.02178 0.32158 0.02665
   vertex -0.023162 0.322069 0.029414
  endloop
 endfacet
 facet normal 0.000555151 -0.98466 0.174481
  outer loop
   vertex -0.02178 0.32158 0.02665
   vertex -0.020228 0.322026 0.029162
   vertex -0.023162 0.322069 0.029414
  endloop
 endfacet
 facet normal 0.0161962 -0.937175 0.348485
  outer loop
   vertex -0.023162 0.322069 0.029414
   vertex -0.020228 0.322026 0.029162
   vertex -0.021484 0.322938 0.031673
  endloop
 endfacet
 facet normal 0.138975 -0.90647 0.398746
  outer loop
   vertex -0.020228 0.322026 0.029162
   vertex -0.019016 0.323074 0.031122
   vertex -0.021484 0.322938 0.031673
  endloop
 endfacet
 facet normal 0.420269 -0.815078 0.398776
  outer loop
   vertex -0.01742 0.322938 0.029162
   vertex -0.01694 0.324414 0.031673
   vertex -0.019016 0.323074 0.031122
  endloop
 endfacet
 facet normal 0.578519 -0.796783 0.174509
  outer loop
   vertex -0.015902 0.32349 0.02665
   vertex -0.015072 0.324698 0.029414
   vertex -0.01742 0.322938 0.029162
  endloop
 endfacet
 facet normal 0.704936 -0.704936 -0.0782949
  outer loop
   vertex -0.014908 0.324763 0.024138
   vertex -0.01369 0.325702 0.02665
   vertex -0.015902 0.32349 0.02665
  endloop
 endfacet
 facet normal 0.537986 -0.767602 0.348366
  outer loop
   vertex -0.01742 0.322938 0.029162
   vertex -0.015072 0.324698 0.029414
   vertex -0.01694 0.324414 0.031673
  endloop
 endfacet
 facet normal 0.629279 -0.640767 0.439803
  outer loop
   vertex -0.015072 0.324698 0.029414
   vertex -0.014898 0.32658 0.031907
   vertex -0.01694 0.324414 0.031673
  endloop
 endfacet
 facet normal 0.703824 -0.703824 0.0962537
  outer loop
   vertex -0.015902 0.32349 0.02665
   vertex -0.01369 0.325702 0.02665
   vertex -0.015072 0.324698 0.029414
  endloop
 endfacet
 facet normal 0.794662 -0.577331 0.18762
  outer loop
   vertex -0.01369 0.325702 0.02665
   vertex -0.013162 0.327327 0.029414
   vertex -0.015072 0.324698 0.029414
  endloop
 endfacet
 facet normal 0.754436 -0.548107 0.361117
  outer loop
   vertex -0.015072 0.324698 0.029414
   vertex -0.013162 0.327327 0.029414
   vertex -0.014898 0.32658 0.031907
  endloop
 endfacet
 facet normal 0.803858 -0.400541 0.439749
  outer loop
   vertex -0.013162 0.327327 0.029414
   vertex -0.013469 0.329191 0.031673
   vertex -0.014898 0.32658 0.031907
  endloop
 endfacet
 facet normal 0.797233 -0.579229 -0.170037
  outer loop
   vertex -0.014908 0.324763 0.024138
   vertex -0.013173 0.327151 0.024138
   vertex -0.01369 0.325702 0.02665
  endloop
 endfacet
 facet normal 0.888212 -0.452708 -0.078331
  outer loop
   vertex -0.013173 0.327151 0.024138
   vertex -0.012269 0.32849 0.02665
   vertex -0.01369 0.325702 0.02665
  endloop
 endfacet
 facet normal 0.886806 -0.451991 0.0963284
  outer loop
   vertex -0.01369 0.325702 0.02665
   vertex -0.012269 0.32849 0.02665
   vertex -0.013162 0.327327 0.029414
  endloop
 endfacet
 facet normal 0.93657 -0.303801 0.17476
  outer loop
   vertex -0.012269 0.32849 0.02665
   vertex -0.012214 0.330104 0.029161
   vertex -0.013162 0.327327 0.029414
  endloop
 endfacet
 facet normal 0.89641 -0.274294 0.348155
  outer loop
   vertex -0.013162 0.327327 0.029414
   vertex -0.012214 0.330104 0.029161
   vertex -0.013469 0.329191 0.031673
  endloop
 endfacet
 facet normal 0.905177 -0.147939 0.398459
  outer loop
   vertex -0.012214 0.330104 0.029161
   vertex -0.012836 0.33158 0.031122
   vertex -0.013469 0.329191 0.031673
  endloop
 endfacet
 facet normal 0.294416 0.906493 0.302638
  outer loop
   vertex -0.01742 0.340222 0.029162
   vertex -0.020228 0.341134 0.029162
   vertex -0.019016 0.340086 0.031122
  endloop
 endfacet
 facet normal 0.452705 0.888208 0.0783901
  outer loop
   vertex -0.015902 0.33967 0.02665
   vertex -0.01869 0.341091 0.02665
   vertex -0.01742 0.340222 0.029162
  endloop
 endfacet
 facet normal 0.578874 0.796508 -0.174584
  outer loop
   vertex -0.014908 0.338397 0.024138
   vertex -0.017308 0.340086 0.023886
   vertex -0.015902 0.33967 0.02665
  endloop
 endfacet
 facet normal 0.304389 0.937197 0.170322
  outer loop
   vertex -0.01742 0.340222 0.029162
   vertex -0.01869 0.341091 0.02665
   vertex -0.020228 0.341134 0.029162
  endloop
 endfacet
 facet normal 0.155824 0.984657 0.07855
  outer loop
   vertex -0.01869 0.341091 0.02665
   vertex -0.02178 0.34158 0.02665
   vertex -0.020228 0.341134 0.029162
  endloop
 endfacet
 facet normal 0.451986 0.886796 -0.0964489
  outer loop
   vertex -0.015902 0.33967 0.02665
   vertex -0.017308 0.340086 0.023886
   vertex -0.01869 0.341091 0.02665
  endloop
 endfacet
 facet normal 0.303796 0.934059 -0.187729
  outer loop
   vertex -0.017308 0.340086 0.023886
   vertex -0.020398 0.341091 0.023886
   vertex -0.01869 0.341091 0.02665
  endloop
 endfacet
 facet normal 0.155583 0.983133 -0.0961419
  outer loop
   vertex -0.01869 0.341091 0.02665
   vertex -0.020398 0.341091 0.023886
   vertex -0.02178 0.34158 0.02665
  endloop
 endfacet
 facet normal -0.000555151 0.98466 -0.174481
  outer loop
   vertex -0.020398 0.341091 0.023886
   vertex -0.023332 0.341134 0.024138
   vertex -0.02178 0.34158 0.02665
  endloop
 endfacet
 facet normal 0.563623 0.748876 -0.348589
  outer loop
   vertex -0.014908 0.338397 0.024138
   vertex -0.016461 0.338397 0.021627
   vertex -0.017308 0.340086 0.023886
  endloop
 endfacet
 facet normal 0.415138 0.796394 -0.439791
  outer loop
   vertex -0.016461 0.338397 0.021627
   vertex -0.019151 0.33967 0.021393
   vertex -0.017308 0.340086 0.023886
  endloop
 endfacet
 facet normal 0.288415 0.886769 -0.361189
  outer loop
   vertex -0.017308 0.340086 0.023886
   vertex -0.019151 0.33967 0.021393
   vertex -0.020398 0.341091 0.023886
  endloop
 endfacet
 facet normal 0.132412 0.888171 -0.440021
  outer loop
   vertex -0.019151 0.33967 0.021393
   vertex -0.022076 0.340222 0.021627
   vertex -0.020398 0.341091 0.023886
  endloop
 endfacet
 facet normal -0.0161962 0.937175 -0.348485
  outer loop
   vertex -0.020398 0.341091 0.023886
   vertex -0.022076 0.340222 0.021627
   vertex -0.023332 0.341134 0.024138
  endloop
 endfacet
 facet normal -0.138975 0.90647 -0.398746
  outer loop
   vertex -0.022076 0.340222 0.021627
   vertex -0.024544 0.340086 0.022178
   vertex -0.023332 0.341134 0.024138
  endloop
 endfacet
 facet normal -0.771063 0.560215 0.302688
  outer loop
   vertex -0.028652 0.338397 0.029162
   vertex -0.030387 0.336009 0.029162
   vertex -0.029016 0.336837 0.031122
  endloop
 endfacet
 facet normal -0.704936 0.704936 0.0782949
  outer loop
   vertex -0.027658 0.33967 0.02665
   vertex -0.02987 0.337458 0.02665
   vertex -0.028652 0.338397 0.029162
  endloop
 endfacet
 facet normal -0.578519 0.796783 -0.174509
  outer loop
   vertex -0.02614 0.340222 0.024138
   vertex -0.028488 0.338462 0.023886
   vertex -0.027658 0.33967 0.02665
  endloop
 endfacet
 facet normal -0.797233 0.579229 0.170037
  outer loop
   vertex -0.028652 0.338397 0.029162
   vertex -0.02987 0.337458 0.02665
   vertex -0.030387 0.336009 0.029162
  endloop
 endfacet
 facet normal -0.888212 0.452708 0.078331
  outer loop
   vertex -0.02987 0.337458 0.02665
   vertex -0.031291 0.33467 0.02665
   vertex -0.030387 0.336009 0.029162
  endloop
 endfacet
 facet normal -0.703824 0.703824 -0.0962537
  outer loop
   vertex -0.027658 0.33967 0.02665
   vertex -0.028488 0.338462 0.023886
   vertex -0.02987 0.337458 0.02665
  endloop
 endfacet
 facet normal -0.794662 0.577331 -0.18762
  outer loop
   vertex -0.028488 0.338462 0.023886
   vertex -0.030398 0.335833 0.023886
   vertex -0.02987 0.337458 0.02665
  endloop
 endfacet
 facet normal -0.886806 0.451991 -0.0963284
  outer loop
   vertex -0.02987 0.337458 0.02665
   vertex -0.030398 0.335833 0.023886
   vertex -0.031291 0.33467 0.02665
  endloop
 endfacet
 facet normal -0.93657 0.303801 -0.17476
  outer loop
   vertex -0.030398 0.335833 0.023886
   vertex -0.031346 0.333056 0.024139
   vertex -0.031291 0.33467 0.02665
  endloop
 endfacet
 facet normal -0.537986 0.767602 -0.348366
  outer loop
   vertex -0.02614 0.340222 0.024138
   vertex -0.02662 0.338746 0.021627
   vertex -0.028488 0.338462 0.023886
  endloop
 endfacet
 facet normal -0.629279 0.640767 -0.439803
  outer loop
   vertex -0.02662 0.338746 0.021627
   vertex -0.028662 0.33658 0.021393
   vertex -0.028488 0.338462 0.023886
  endloop
 endfacet
 facet normal -0.754436 0.548107 -0.361117
  outer loop
   vertex -0.028488 0.338462 0.023886
   vertex -0.028662 0.33658 0.021393
   vertex -0.030398 0.335833 0.023886
  endloop
 endfacet
 facet normal -0.803858 0.400541 -0.439749
  outer loop
   vertex -0.028662 0.33658 0.021393
   vertex -0.030091 0.333969 0.021627
   vertex -0.030398 0.335833 0.023886
  endloop
 endfacet
 facet normal -0.89641 0.274294 -0.348155
  outer loop
   vertex -0.030398 0.335833 0.023886
   vertex -0.030091 0.333969 0.021627
   vertex -0.031346 0.333056 0.024139
  endloop
 endfacet
 facet normal -0.905177 0.147939 -0.398459
  outer loop
   vertex -0.030091 0.333969 0.021627
   vertex -0.030724 0.33158 0.022178
   vertex -0.031346 0.333056 0.024139
  endloop
 endfacet
 facet normal -0.771063 -0.560215 0.302688
  outer loop
   vertex -0.030387 0.327151 0.029162
   vertex -0.028652 0.324763 0.029162
   vertex -0.029016 0.326323 0.031122
  endloop
 endfacet
 facet normal -0.888212 -0.452708 0.078331
  outer loop
   vertex -0.031291 0.32849 0.02665
   vertex -0.02987 0.325702 0.02665
   vertex -0.030387 0.327151 0.029162
  endloop
 endfacet
 facet normal -0.93657 -0.303801 -0.17476
  outer loop
   vertex -0.031346 0.330104 0.024139
   vertex -0.030398 0.327327 0.023886
   vertex -0.031291 0.32849 0.02665
  endloop
 endfacet
 facet normal -0.797233 -0.579229 0.170037
  outer loop
   vertex -0.030387 0.327151 0.029162
   vertex -0.02987 0.325702 0.02665
   vertex -0.028652 0.324763 0.029162
  endloop
 endfacet
 facet normal -0.704936 -0.704936 0.0782949
  outer loop
   vertex -0.02987 0.325702 0.02665
   vertex -0.027658 0.32349 0.02665
   vertex -0.028652 0.324763 0.029162
  endloop
 endfacet
 facet normal -0.886806 -0.451991 -0.0963284
  outer loop
   vertex -0.031291 0.32849 0.02665
   vertex -0.030398 0.327327 0.023886
   vertex -0.02987 0.325702 0.02665
  endloop
 endfacet
 facet normal -0.794662 -0.577331 -0.18762
  outer loop
   vertex -0.030398 0.327327 0.023886
   vertex -0.028488 0.324698 0.023886
   vertex -0.02987 0.325702 0.02665
  endloop
 endfacet
 facet normal -0.703824 -0.703824 -0.0962537
  outer loop
   vertex -0.02987 0.325702 0.02665
   vertex -0.028488 0.324698 0.023886
   vertex -0.027658 0.32349 0.02665
  endloop
 endfacet
 facet normal -0.578519 -0.796783 -0.174509
  outer loop
   vertex -0.028488 0.324698 0.023886
   vertex -0.02614 0.322938 0.024138
   vertex -0.027658 0.32349 0.02665
  endloop
 endfacet
 facet normal -0.89641 -0.274294 -0.348155
  outer loop
   vertex -0.031346 0.330104 0.024139
   vertex -0.030091 0.329191 0.021627
   vertex -0.030398 0.327327 0.023886
  endloop
 endfacet
 facet normal -0.803858 -0.400541 -0.439749
  outer loop
   vertex -0.030091 0.329191 0.021627
   vertex -0.028662 0.32658 0.021393
   vertex -0.030398 0.327327 0.023886
  endloop
 endfacet
 facet normal -0.754436 -0.548107 -0.361117
  outer loop
   vertex -0.030398 0.327327 0.023886
   vertex -0.028662 0.32658 0.021393
   vertex -0.028488 0.324698 0.023886
  endloop
 endfacet
 facet normal -0.629279 -0.640767 -0.439803
  outer loop
   vertex -0.028662 0.32658 0.021393
   vertex -0.02662 0.324414 0.021627
   vertex -0.028488 0.324698 0.023886
  endloop
 endfacet
 facet normal -0.537986 -0.767602 -0.348366
  outer loop
   vertex -0.028488 0.324698 0.023886
   vertex -0.02662 0.324414 0.021627
   vertex -0.02614 0.322938 0.024138
  endloop
 endfacet
 facet normal -0.420269 -0.815078 -0.398776
  outer loop
   vertex -0.02662 0.324414 0.021627
   vertex -0.024544 0.323074 0.022178
   vertex -0.02614 0.322938 0.024138
  endloop
 endfacet
 facet normal 0.294416 -0.906493 0.302638
  outer loop
   vertex -0.020228 0.322026 0.029162
   vertex -0.01742 0.322938 0.029162
   vertex -0.019016 0.323074 0.031122
  endloop
 endfacet
 facet normal 0.155824 -0.984657 0.07855
  outer loop
   vertex -0.02178 0.32158 0.02665
   vertex -0.01869 0.322069 0.02665
   vertex -0.020228 0.322026 0.029162
  endloop
 endfacet
 facet normal -0.000555151 -0.98466 -0.174481
  outer loop
   vertex -0.023332 0.322026 0.024138
   vertex -0.020398 0.322069 0.023886
   vertex -0.02178 0.32158 0.02665
  endloop
 endfacet
 facet normal 0.304389 -0.937197 0.170322
  outer loop
   vertex -0.020228 0.322026 0.029162
   vertex -0.01869 0.322069 0.02665
   vertex -0.01742 0.322938 0.029162
  endloop
 endfacet
 facet normal 0.452705 -0.888208 0.0783901
  outer loop
   vertex -0.01869 0.322069 0.02665
   vertex -0.015902 0.32349 0.02665
   vertex -0.01742 0.322938 0.029162
  endloop
 endfacet
 facet normal 0.155583 -0.983133 -0.0961419
  outer loop
   vertex -0.02178 0.32158 0.02665
   vertex -0.020398 0.322069 0.023886
   vertex -0.01869 0.322069 0.02665
  endloop
 endfacet
 facet normal 0.303796 -0.934059 -0.187729
  outer loop
   vertex -0.020398 0.322069 0.023886
   vertex -0.017308 0.323074 0.023886
   vertex -0.01869 0.322069 0.02665
  endloop
 endfacet
 facet normal 0.451986 -0.886796 -0.0964489
  outer loop
   vertex -0.01869 0.322069 0.02665
   vertex -0.017308 0.323074 0.023886
   vertex -0.015902 0.32349 0.02665
  endloop
 endfacet
 facet normal 0.578874 -0.796508 -0.174584
  outer loop
   vertex -0.017308 0.323074 0.023886
   vertex -0.014908 0.324763 0.024138
   vertex -0.015902 0.32349 0.02665
  endloop
 endfacet
 facet normal -0.0161962 -0.937175 -0.348485
  outer loop
   vertex -0.023332 0.322026 0.024138
   vertex -0.022076 0.322938 0.021627
   vertex -0.020398 0.322069 0.023886
  endloop
 endfacet
 facet normal 0.132412 -0.888171 -0.440021
  outer loop
   vertex -0.022076 0.322938 0.021627
   vertex -0.019151 0.32349 0.021393
   vertex -0.020398 0.322069 0.023886
  endloop
 endfacet
 facet normal 0.288415 -0.886769 -0.361189
  outer loop
   vertex -0.020398 0.322069 0.023886
   vertex -0.019151 0.32349 0.021393
   vertex -0.017308 0.323074 0.023886
  endloop
 endfacet
 facet normal 0.415138 -0.796394 -0.439791
  outer loop
   vertex -0.019151 0.32349 0.021393
   vertex -0.016461 0.324763 0.021627
   vertex -0.017308 0.323074 0.023886
  endloop
 endfacet
 facet normal 0.563623 -0.748876 -0.348589
  outer loop
   vertex -0.017308 0.323074 0.023886
   vertex -0.016461 0.324763 0.021627
   vertex -0.014908 0.324763 0.024138
  endloop
 endfacet
 facet normal 0.645038 -0.651744 -0.398942
  outer loop
   vertex -0.016461 0.324763 0.021627
   vertex -0.014544 0.326323 0.022178
   vertex -0.014908 0.324763 0.024138
  endloop
 endfacet
 facet normal 0.9532 -0 0.302341
  outer loop
   vertex -0.012214 0.330104 0.029161
   vertex -0.012214 0.333056 0.029161
   vertex -0.012836 0.33158 0.031122
  endloop
 endfacet
 facet normal 0.984653 -0.155824 0.0785916
  outer loop
   vertex -0.012269 0.32849 0.02665
   vertex -0.01178 0.33158 0.02665
   vertex -0.012214 0.330104 0.029161
  endloop
 endfacet
 facet normal 0.936352 -0.304548 -0.174631
  outer loop
   vertex -0.013173 0.327151 0.024138
   vertex -0.012308 0.329955 0.023886
   vertex -0.012269 0.32849 0.02665
  endloop
 endfacet
 facet normal 0.98539 -0 0.170314
  outer loop
   vertex -0.012214 0.330104 0.029161
   vertex -0.01178 0.33158 0.02665
   vertex -0.012214 0.333056 0.029161
  endloop
 endfacet
 facet normal 0.984653 0.155824 0.0785916
  outer loop
   vertex -0.01178 0.33158 0.02665
   vertex -0.012269 0.33467 0.02665
   vertex -0.012214 0.333056 0.029161
  endloop
 endfacet
 facet normal 0.983115 -0.15558 -0.0963335
  outer loop
   vertex -0.012269 0.32849 0.02665
   vertex -0.012308 0.329955 0.023886
   vertex -0.01178 0.33158 0.02665
  endloop
 endfacet
 facet normal 0.982239 0 -0.187634
  outer loop
   vertex -0.012308 0.329955 0.023886
   vertex -0.012308 0.333205 0.023886
   vertex -0.01178 0.33158 0.02665
  endloop
 endfacet
 facet normal 0.983115 0.15558 -0.0963335
  outer loop
   vertex -0.01178 0.33158 0.02665
   vertex -0.012308 0.333205 0.023886
   vertex -0.012269 0.33467 0.02665
  endloop
 endfacet
 facet normal 0.936352 0.304548 -0.174631
  outer loop
   vertex -0.012308 0.333205 0.023886
   vertex -0.013173 0.336009 0.024138
   vertex -0.012269 0.33467 0.02665
  endloop
 endfacet
 facet normal 0.886309 -0.304753 -0.348685
  outer loop
   vertex -0.013173 0.327151 0.024138
   vertex -0.013653 0.328628 0.021627
   vertex -0.012308 0.329955 0.023886
  endloop
 endfacet
 facet normal 0.885615 -0.148581 -0.440011
  outer loop
   vertex -0.013653 0.328628 0.021627
   vertex -0.013274 0.33158 0.021393
   vertex -0.012308 0.329955 0.023886
  endloop
 endfacet
 facet normal 0.932446 0 -0.361309
  outer loop
   vertex -0.012308 0.329955 0.023886
   vertex -0.013274 0.33158 0.021393
   vertex -0.012308 0.333205 0.023886
  endloop
 endfacet
 facet normal 0.885615 0.148581 -0.440011
  outer loop
   vertex -0.013274 0.33158 0.021393
   vertex -0.013653 0.334532 0.021627
   vertex -0.012308 0.333205 0.023886
  endloop
 endfacet
 facet normal 0.886309 0.304753 -0.348685
  outer loop
   vertex -0.012308 0.333205 0.023886
   vertex -0.013653 0.334532 0.021627
   vertex -0.013173 0.336009 0.024138
  endloop
 endfacet
 facet normal 0.819189 0.412026 -0.398954
  outer loop
   vertex -0.013653 0.334532 0.021627
   vertex -0.014544 0.336837 0.022178
   vertex -0.013173 0.336009 0.024138
  endloop
 endfacet
 facet normal 0.61533 0.560308 -0.554459
  outer loop
   vertex -0.015685 0.336009 0.020075
   vertex -0.016461 0.338397 0.021627
   vertex -0.014544 0.336837 0.022178
  endloop
 endfacet
 facet normal 0.467426 0.452641 -0.759361
  outer loop
   vertex -0.017527 0.33467 0.018143
   vertex -0.018162 0.337458 0.019414
   vertex -0.015685 0.336009 0.020075
  endloop
 endfacet
 facet normal 0.262485 0.303841 -0.915851
  outer loop
   vertex -0.019748 0.333056 0.016971
   vertex -0.020398 0.335833 0.017706
   vertex -0.017527 0.33467 0.018143
  endloop
 endfacet
 facet normal 0.508799 0.579247 -0.636864
  outer loop
   vertex -0.015685 0.336009 0.020075
   vertex -0.018162 0.337458 0.019414
   vertex -0.016461 0.338397 0.021627
  endloop
 endfacet
 facet normal 0.38541 0.704977 -0.595371
  outer loop
   vertex -0.018162 0.337458 0.019414
   vertex -0.019151 0.33967 0.021393
   vertex -0.016461 0.338397 0.021627
  endloop
 endfacet
 facet normal 0.310374 0.451949 -0.836307
  outer loop
   vertex -0.017527 0.33467 0.018143
   vertex -0.020398 0.335833 0.017706
   vertex -0.018162 0.337458 0.019414
  endloop
 endfacet
 facet normal 0.187559 0.577248 -0.794737
  outer loop
   vertex -0.020398 0.335833 0.017706
   vertex -0.021252 0.338462 0.019414
   vertex -0.018162 0.337458 0.019414
  endloop
 endfacet
 facet normal 0.228709 0.703897 -0.672474
  outer loop
   vertex -0.018162 0.337458 0.019414
   vertex -0.021252 0.338462 0.019414
   vertex -0.019151 0.33967 0.021393
  endloop
 endfacet
 facet normal 0.102735 0.796801 -0.595444
  outer loop
   vertex -0.021252 0.338462 0.019414
   vertex -0.022076 0.340222 0.021627
   vertex -0.019151 0.33967 0.021393
  endloop
 endfacet
 facet normal 0.0891868 0.274301 -0.957499
  outer loop
   vertex -0.019748 0.333056 0.016971
   vertex -0.022556 0.333969 0.016971
   vertex -0.020398 0.335833 0.017706
  endloop
 endfacet
 facet normal -0.0336945 0.400135 -0.915836
  outer loop
   vertex -0.022556 0.333969 0.016971
   vertex -0.023405 0.33658 0.018143
   vertex -0.020398 0.335833 0.017706
  endloop
 endfacet
 facet normal 0.0146149 0.548074 -0.836302
  outer loop
   vertex -0.020398 0.335833 0.017706
   vertex -0.023405 0.33658 0.018143
   vertex -0.021252 0.338462 0.019414
  endloop
 endfacet
 facet normal -0.112009 0.640965 -0.759354
  outer loop
   vertex -0.023405 0.33658 0.018143
   vertex -0.024108 0.338746 0.020075
   vertex -0.021252 0.338462 0.019414
  endloop
 endfacet
 facet normal -0.0710868 0.767617 -0.636955
  outer loop
   vertex -0.021252 0.338462 0.019414
   vertex -0.024108 0.338746 0.020075
   vertex -0.022076 0.340222 0.021627
  endloop
 endfacet
 facet normal -0.168666 0.815046 -0.554303
  outer loop
   vertex -0.024108 0.338746 0.020075
   vertex -0.024544 0.340086 0.022178
   vertex -0.022076 0.340222 0.021627
  endloop
 endfacet
 facet normal -0.342493 0.758552 -0.554344
  outer loop
   vertex -0.024108 0.338746 0.020075
   vertex -0.02662 0.338746 0.021627
   vertex -0.024544 0.340086 0.022178
  endloop
 endfacet
 facet normal -0.286233 0.584386 -0.759318
  outer loop
   vertex -0.023405 0.33658 0.018143
   vertex -0.026252 0.336837 0.019414
   vertex -0.024108 0.338746 0.020075
  endloop
 endfacet
 facet normal -0.207851 0.343516 -0.915858
  outer loop
   vertex -0.022556 0.333969 0.016971
   vertex -0.025398 0.334209 0.017706
   vertex -0.023405 0.33658 0.018143
  endloop
 endfacet
 facet normal -0.393627 0.662685 -0.637108
  outer loop
   vertex -0.024108 0.338746 0.020075
   vertex -0.026252 0.336837 0.019414
   vertex -0.02662 0.338746 0.021627
  endloop
 endfacet
 facet normal -0.551379 0.584158 -0.595601
  outer loop
   vertex -0.026252 0.336837 0.019414
   vertex -0.028662 0.33658 0.021393
   vertex -0.02662 0.338746 0.021627
  endloop
 endfacet
 facet normal -0.334054 0.43492 -0.836213
  outer loop
   vertex -0.023405 0.33658 0.018143
   vertex -0.025398 0.334209 0.017706
   vertex -0.026252 0.336837 0.019414
  endloop
 endfacet
 facet normal -0.491058 0.356895 -0.794662
  outer loop
   vertex -0.025398 0.334209 0.017706
   vertex -0.028162 0.334209 0.019414
   vertex -0.026252 0.336837 0.019414
  endloop
 endfacet
 facet normal -0.598657 0.435097 -0.672533
  outer loop
   vertex -0.026252 0.336837 0.019414
   vertex -0.028162 0.334209 0.019414
   vertex -0.028662 0.33658 0.021393
  endloop
 endfacet
 facet normal -0.725985 0.343961 -0.595514
  outer loop
   vertex -0.028162 0.334209 0.019414
   vertex -0.030091 0.333969 0.021627
   vertex -0.028662 0.33658 0.021393
  endloop
 endfacet
 facet normal -0.233325 0.169451 -0.957521
  outer loop
   vertex -0.022556 0.333969 0.016971
   vertex -0.024291 0.33158 0.016971
   vertex -0.025398 0.334209 0.017706
  endloop
 endfacet
 facet normal -0.390899 0.0914587 -0.915878
  outer loop
   vertex -0.024291 0.33158 0.016971
   vertex -0.027037 0.33158 0.018143
   vertex -0.025398 0.334209 0.017706
  endloop
 endfacet
 facet normal -0.516783 0.183167 -0.836293
  outer loop
   vertex -0.025398 0.334209 0.017706
   vertex -0.027037 0.33158 0.018143
   vertex -0.028162 0.334209 0.019414
  endloop
 endfacet
 facet normal -0.644269 0.0913996 -0.759317
  outer loop
   vertex -0.027037 0.33158 0.018143
   vertex -0.029314 0.33158 0.020075
   vertex -0.028162 0.334209 0.019414
  endloop
 endfacet
 facet normal -0.751958 0.169318 -0.637095
  outer loop
   vertex -0.028162 0.334209 0.019414
   vertex -0.029314 0.33158 0.020075
   vertex -0.030091 0.333969 0.021627
  endloop
 endfacet
 facet normal -0.827124 0.091254 -0.554562
  outer loop
   vertex -0.029314 0.33158 0.020075
   vertex -0.030724 0.33158 0.022178
   vertex -0.030091 0.333969 0.021627
  endloop
 endfacet
 facet normal -0.827124 -0.091254 -0.554562
  outer loop
   vertex -0.029314 0.33158 0.020075
   vertex -0.030091 0.329191 0.021627
   vertex -0.030724 0.33158 0.022178
  endloop
 endfacet
 facet normal -0.644269 -0.0913996 -0.759317
  outer loop
   vertex -0.027037 0.33158 0.018143
   vertex -0.028162 0.328951 0.019414
   vertex -0.029314 0.33158 0.020075
  endloop
 endfacet
 facet normal -0.390899 -0.0914587 -0.915878
  outer loop
   vertex -0.024291 0.33158 0.016971
   vertex -0.025398 0.328951 0.017706
   vertex -0.027037 0.33158 0.018143
  endloop
 endfacet
 facet normal -0.751958 -0.169318 -0.637095
  outer loop
   vertex -0.029314 0.33158 0.020075
   vertex -0.028162 0.328951 0.019414
   vertex -0.030091 0.329191 0.021627
  endloop
 endfacet
 facet normal -0.725985 -0.343961 -0.595514
  outer loop
   vertex -0.028162 0.328951 0.019414
   vertex -0.028662 0.32658 0.021393
   vertex -0.030091 0.329191 0.021627
  endloop
 endfacet
 facet normal -0.516783 -0.183167 -0.836293
  outer loop
   vertex -0.027037 0.33158 0.018143
   vertex -0.025398 0.328951 0.017706
   vertex -0.028162 0.328951 0.019414
  endloop
 endfacet
 facet normal -0.491058 -0.356895 -0.794662
  outer loop
   vertex -0.025398 0.328951 0.017706
   vertex -0.026252 0.326323 0.019414
   vertex -0.028162 0.328951 0.019414
  endloop
 endfacet
 facet normal -0.598657 -0.435097 -0.672533
  outer loop
   vertex -0.028162 0.328951 0.019414
   vertex -0.026252 0.326323 0.019414
   vertex -0.028662 0.32658 0.021393
  endloop
 endfacet
 facet normal -0.551379 -0.584158 -0.595601
  outer loop
   vertex -0.026252 0.326323 0.019414
   vertex -0.02662 0.324414 0.021627
   vertex -0.028662 0.32658 0.021393
  endloop
 endfacet
 facet normal -0.233325 -0.169451 -0.957521
  outer loop
   vertex -0.024291 0.33158 0.016971
   vertex -0.022556 0.329191 0.016971
   vertex -0.025398 0.328951 0.017706
  endloop
 endfacet
 facet normal -0.207851 -0.343516 -0.915858
  outer loop
   vertex -0.022556 0.329191 0.016971
   vertex -0.023405 0.32658 0.018143
   vertex -0.025398 0.328951 0.017706
  endloop
 endfacet
 facet normal -0.334054 -0.43492 -0.836213
  outer loop
   vertex -0.025398 0.328951 0.017706
   vertex -0.023405 0.32658 0.018143
   vertex -0.026252 0.326323 0.019414
  endloop
 endfacet
 facet normal -0.286233 -0.584386 -0.759318
  outer loop
   vertex -0.023405 0.32658 0.018143
   vertex -0.024108 0.324414 0.020075
   vertex -0.026252 0.326323 0.019414
  endloop
 endfacet
 facet normal -0.393627 -0.662685 -0.637108
  outer loop
   vertex -0.026252 0.326323 0.019414
   vertex -0.024108 0.324414 0.020075
   vertex -0.02662 0.324414 0.021627
  endloop
 endfacet
 facet normal -0.342493 -0.758552 -0.554344
  outer loop
   vertex -0.024108 0.324414 0.020075
   vertex -0.024544 0.323074 0.022178
   vertex -0.02662 0.324414 0.021627
  endloop
 endfacet
 facet normal 0.723015 0.412034 -0.554506
  outer loop
   vertex -0.013653 0.334532 0.021627
   vertex -0.015685 0.336009 0.020075
   vertex -0.014544 0.336837 0.022178
  endloop
 endfacet
 facet normal 0.789589 0.148568 -0.59538
  outer loop
   vertex -0.013274 0.33158 0.021393
   vertex -0.015072 0.333205 0.019414
   vertex -0.013653 0.334532 0.021627
  endloop
 endfacet
 facet normal 0.789589 -0.148568 -0.59538
  outer loop
   vertex -0.013653 0.328628 0.021627
   vertex -0.015072 0.329955 0.019414
   vertex -0.013274 0.33158 0.021393
  endloop
 endfacet
 facet normal 0.708089 0.304936 -0.636886
  outer loop
   vertex -0.013653 0.334532 0.021627
   vertex -0.015072 0.333205 0.019414
   vertex -0.015685 0.336009 0.020075
  endloop
 endfacet
 facet normal 0.574948 0.304695 -0.759339
  outer loop
   vertex -0.015072 0.333205 0.019414
   vertex -0.017527 0.33467 0.018143
   vertex -0.015685 0.336009 0.020075
  endloop
 endfacet
 facet normal 0.740143 0 -0.672449
  outer loop
   vertex -0.013274 0.33158 0.021393
   vertex -0.015072 0.329955 0.019414
   vertex -0.015072 0.333205 0.019414
  endloop
 endfacet
 facet normal 0.607028 0 -0.794681
  outer loop
   vertex -0.015072 0.329955 0.019414
   vertex -0.017308 0.33158 0.017706
   vertex -0.015072 0.333205 0.019414
  endloop
 endfacet
 facet normal 0.525774 0.155534 -0.836284
  outer loop
   vertex -0.015072 0.333205 0.019414
   vertex -0.017308 0.33158 0.017706
   vertex -0.017527 0.33467 0.018143
  endloop
 endfacet
 facet normal 0.370096 0.155752 -0.915844
  outer loop
   vertex -0.017308 0.33158 0.017706
   vertex -0.019748 0.333056 0.016971
   vertex -0.017527 0.33467 0.018143
  endloop
 endfacet
 facet normal 0.708089 -0.304936 -0.636886
  outer loop
   vertex -0.013653 0.328628 0.021627
   vertex -0.015685 0.327151 0.020075
   vertex -0.015072 0.329955 0.019414
  endloop
 endfacet
 facet normal 0.574948 -0.304695 -0.759339
  outer loop
   vertex -0.015685 0.327151 0.020075
   vertex -0.017527 0.32849 0.018143
   vertex -0.015072 0.329955 0.019414
  endloop
 endfacet
 facet normal 0.525774 -0.155534 -0.836284
  outer loop
   vertex -0.015072 0.329955 0.019414
   vertex -0.017527 0.32849 0.018143
   vertex -0.017308 0.33158 0.017706
  endloop
 endfacet
 facet normal 0.370096 -0.155752 -0.915844
  outer loop
   vertex -0.017527 0.32849 0.018143
   vertex -0.019748 0.330104 0.016971
   vertex -0.017308 0.33158 0.017706
  endloop
 endfacet
 facet normal 0.288428 0 -0.957502
  outer loop
   vertex -0.017308 0.33158 0.017706
   vertex -0.019748 0.330104 0.016971
   vertex -0.019748 0.333056 0.016971
  endloop
 endfacet
 facet normal 0.156037 0 -0.987751
  outer loop
   vertex -0.019748 0.330104 0.016971
   vertex -0.02178 0.33158 0.01665
   vertex -0.019748 0.333056 0.016971
  endloop
 endfacet
 facet normal -0.168666 -0.815046 -0.554303
  outer loop
   vertex -0.024108 0.324414 0.020075
   vertex -0.022076 0.322938 0.021627
   vertex -0.024544 0.323074 0.022178
  endloop
 endfacet
 facet normal -0.112009 -0.640965 -0.759354
  outer loop
   vertex -0.023405 0.32658 0.018143
   vertex -0.021252 0.324698 0.019414
   vertex -0.024108 0.324414 0.020075
  endloop
 endfacet
 facet normal -0.0336945 -0.400135 -0.915836
  outer loop
   vertex -0.022556 0.329191 0.016971
   vertex -0.020398 0.327327 0.017706
   vertex -0.023405 0.32658 0.018143
  endloop
 endfacet
 facet normal -0.0710868 -0.767617 -0.636955
  outer loop
   vertex -0.024108 0.324414 0.020075
   vertex -0.021252 0.324698 0.019414
   vertex -0.022076 0.322938 0.021627
  endloop
 endfacet
 facet normal 0.102735 -0.796801 -0.595444
  outer loop
   vertex -0.021252 0.324698 0.019414
   vertex -0.019151 0.32349 0.021393
   vertex -0.022076 0.322938 0.021627
  endloop
 endfacet
 facet normal 0.0146149 -0.548074 -0.836302
  outer loop
   vertex -0.023405 0.32658 0.018143
   vertex -0.020398 0.327327 0.017706
   vertex -0.021252 0.324698 0.019414
  endloop
 endfacet
 facet normal 0.187559 -0.577248 -0.794737
  outer loop
   vertex -0.020398 0.327327 0.017706
   vertex -0.018162 0.325702 0.019414
   vertex -0.021252 0.324698 0.019414
  endloop
 endfacet
 facet normal 0.228709 -0.703897 -0.672474
  outer loop
   vertex -0.021252 0.324698 0.019414
   vertex -0.018162 0.325702 0.019414
   vertex -0.019151 0.32349 0.021393
  endloop
 endfacet
 facet normal 0.38541 -0.704977 -0.595371
  outer loop
   vertex -0.018162 0.325702 0.019414
   vertex -0.016461 0.324763 0.021627
   vertex -0.019151 0.32349 0.021393
  endloop
 endfacet
 facet normal 0.0891868 -0.274301 -0.957499
  outer loop
   vertex -0.022556 0.329191 0.016971
   vertex -0.019748 0.330104 0.016971
   vertex -0.020398 0.327327 0.017706
  endloop
 endfacet
 facet normal 0.262485 -0.303841 -0.915851
  outer loop
   vertex -0.019748 0.330104 0.016971
   vertex -0.017527 0.32849 0.018143
   vertex -0.020398 0.327327 0.017706
  endloop
 endfacet
 facet normal 0.310374 -0.451949 -0.836307
  outer loop
   vertex -0.020398 0.327327 0.017706
   vertex -0.017527 0.32849 0.018143
   vertex -0.018162 0.325702 0.019414
  endloop
 endfacet
 facet normal 0.467426 -0.452641 -0.759361
  outer loop
   vertex -0.017527 0.32849 0.018143
   vertex -0.015685 0.327151 0.020075
   vertex -0.018162 0.325702 0.019414
  endloop
 endfacet
 facet normal 0.508799 -0.579247 -0.636864
  outer loop
   vertex -0.018162 0.325702 0.019414
   vertex -0.015685 0.327151 0.020075
   vertex -0.016461 0.324763 0.021627
  endloop
 endfacet
 facet normal 0.61533 -0.560308 -0.554459
  outer loop
   vertex -0.015685 0.327151 0.020075
   vertex -0.014544 0.326323 0.022178
   vertex -0.016461 0.324763 0.021627
  endloop
 endfacet
endsolid ExportedfromBlender-3.5.1
