solid ExportedfromBlender-3.5.1
 facet normal 0.0482486 -0.148392 -0.987751
  outer loop
   vertex 0.02623 0.20245 -0.03649
   vertex 0.028262 0.200974 -0.036169
   vertex 0.025454 0.200061 -0.036169
  endloop
 endfacet
 facet normal 0.723015 -0.412034 -0.554506
  outer loop
   vertex 0.033466 0.197193 -0.030962
   vertex 0.032325 0.198021 -0.033065
   vertex 0.034357 0.199498 -0.031513
  endloop
 endfacet
 facet normal -0.126271 -0.0917039 -0.987748
  outer loop
   vertex 0.02623 0.20245 -0.03649
   vertex 0.025454 0.200061 -0.036169
   vertex 0.023719 0.20245 -0.036169
  endloop
 endfacet
 facet normal -0.126271 0.0917039 -0.987748
  outer loop
   vertex 0.02623 0.20245 -0.03649
   vertex 0.023719 0.20245 -0.036169
   vertex 0.025454 0.204839 -0.036169
  endloop
 endfacet
 facet normal 0.0482486 0.148392 -0.987751
  outer loop
   vertex 0.02623 0.20245 -0.03649
   vertex 0.025454 0.204839 -0.036169
   vertex 0.028262 0.203926 -0.036169
  endloop
 endfacet
 facet normal 0.819189 -0.412026 -0.398954
  outer loop
   vertex 0.033466 0.197193 -0.030962
   vertex 0.034357 0.199498 -0.031513
   vertex 0.034837 0.198021 -0.029002
  endloop
 endfacet
 facet normal -0.138975 -0.90647 -0.398746
  outer loop
   vertex 0.023466 0.193944 -0.030962
   vertex 0.025934 0.193808 -0.031513
   vertex 0.024678 0.192896 -0.029002
  endloop
 endfacet
 facet normal -0.905177 -0.147939 -0.398459
  outer loop
   vertex 0.017286 0.20245 -0.030962
   vertex 0.017919 0.200061 -0.031513
   vertex 0.016664 0.200974 -0.029001
  endloop
 endfacet
 facet normal -0.420269 0.815078 -0.398776
  outer loop
   vertex 0.023466 0.210956 -0.030962
   vertex 0.02139 0.209616 -0.031513
   vertex 0.02187 0.211092 -0.029002
  endloop
 endfacet
 facet normal 0.645038 0.651744 -0.398942
  outer loop
   vertex 0.033466 0.207707 -0.030962
   vertex 0.031549 0.209267 -0.031513
   vertex 0.033102 0.209267 -0.029002
  endloop
 endfacet
 facet normal 0.771063 -0.560215 -0.302688
  outer loop
   vertex 0.033466 0.197193 -0.030962
   vertex 0.034837 0.198021 -0.029002
   vertex 0.033102 0.195633 -0.029002
  endloop
 endfacet
 facet normal -0.294416 -0.906493 -0.302638
  outer loop
   vertex 0.023466 0.193944 -0.030962
   vertex 0.024678 0.192896 -0.029002
   vertex 0.02187 0.193808 -0.029002
  endloop
 endfacet
 facet normal -0.9532 0 -0.302341
  outer loop
   vertex 0.017286 0.20245 -0.030962
   vertex 0.016664 0.200974 -0.029001
   vertex 0.016664 0.203926 -0.029001
  endloop
 endfacet
 facet normal -0.294416 0.906493 -0.302638
  outer loop
   vertex 0.023466 0.210956 -0.030962
   vertex 0.02187 0.211092 -0.029002
   vertex 0.024678 0.212004 -0.029002
  endloop
 endfacet
 facet normal 0.771063 0.560215 -0.302688
  outer loop
   vertex 0.033466 0.207707 -0.030962
   vertex 0.033102 0.209267 -0.029002
   vertex 0.034837 0.206879 -0.029002
  endloop
 endfacet
 facet normal 0.342493 -0.758552 0.554344
  outer loop
   vertex 0.028994 0.193944 -0.022018
   vertex 0.03107 0.195284 -0.021467
   vertex 0.028558 0.195284 -0.019915
  endloop
 endfacet
 facet normal -0.61533 -0.560308 0.554459
  outer loop
   vertex 0.018994 0.197193 -0.022018
   vertex 0.020911 0.195633 -0.021467
   vertex 0.020135 0.198021 -0.019915
  endloop
 endfacet
 facet normal -0.723015 0.412034 0.554506
  outer loop
   vertex 0.018994 0.207707 -0.022018
   vertex 0.018103 0.205402 -0.021467
   vertex 0.020135 0.206879 -0.019915
  endloop
 endfacet
 facet normal 0.168666 0.815046 0.554303
  outer loop
   vertex 0.028994 0.210956 -0.022018
   vertex 0.026526 0.211092 -0.021467
   vertex 0.028558 0.209616 -0.019915
  endloop
 endfacet
 facet normal 0.827124 0.091254 0.554562
  outer loop
   vertex 0.035174 0.20245 -0.022018
   vertex 0.034541 0.204839 -0.021467
   vertex 0.033764 0.20245 -0.019915
  endloop
 endfacet
 facet normal 0.126271 0.0917039 0.987748
  outer loop
   vertex 0.028741 0.20245 -0.016811
   vertex 0.027006 0.204839 -0.016811
   vertex 0.02623 0.20245 -0.01649
  endloop
 endfacet
 facet normal 0.390899 0.0914587 0.915878
  outer loop
   vertex 0.031487 0.20245 -0.017983
   vertex 0.029848 0.205079 -0.017546
   vertex 0.028741 0.20245 -0.016811
  endloop
 endfacet
 facet normal 0.644269 0.0913996 0.759317
  outer loop
   vertex 0.033764 0.20245 -0.019915
   vertex 0.032612 0.205079 -0.019254
   vertex 0.031487 0.20245 -0.017983
  endloop
 endfacet
 facet normal 0.233325 0.169451 0.957521
  outer loop
   vertex 0.028741 0.20245 -0.016811
   vertex 0.029848 0.205079 -0.017546
   vertex 0.027006 0.204839 -0.016811
  endloop
 endfacet
 facet normal 0.207851 0.343516 0.915858
  outer loop
   vertex 0.029848 0.205079 -0.017546
   vertex 0.027855 0.20745 -0.017983
   vertex 0.027006 0.204839 -0.016811
  endloop
 endfacet
 facet normal 0.516783 0.183167 0.836293
  outer loop
   vertex 0.031487 0.20245 -0.017983
   vertex 0.032612 0.205079 -0.019254
   vertex 0.029848 0.205079 -0.017546
  endloop
 endfacet
 facet normal 0.491058 0.356895 0.794662
  outer loop
   vertex 0.032612 0.205079 -0.019254
   vertex 0.030702 0.207707 -0.019254
   vertex 0.029848 0.205079 -0.017546
  endloop
 endfacet
 facet normal 0.334054 0.43492 0.836213
  outer loop
   vertex 0.029848 0.205079 -0.017546
   vertex 0.030702 0.207707 -0.019254
   vertex 0.027855 0.20745 -0.017983
  endloop
 endfacet
 facet normal 0.286233 0.584386 0.759318
  outer loop
   vertex 0.030702 0.207707 -0.019254
   vertex 0.028558 0.209616 -0.019915
   vertex 0.027855 0.20745 -0.017983
  endloop
 endfacet
 facet normal 0.751958 0.169318 0.637095
  outer loop
   vertex 0.033764 0.20245 -0.019915
   vertex 0.034541 0.204839 -0.021467
   vertex 0.032612 0.205079 -0.019254
  endloop
 endfacet
 facet normal 0.725985 0.343961 0.595514
  outer loop
   vertex 0.034541 0.204839 -0.021467
   vertex 0.033112 0.20745 -0.021233
   vertex 0.032612 0.205079 -0.019254
  endloop
 endfacet
 facet normal 0.598657 0.435097 0.672533
  outer loop
   vertex 0.032612 0.205079 -0.019254
   vertex 0.033112 0.20745 -0.021233
   vertex 0.030702 0.207707 -0.019254
  endloop
 endfacet
 facet normal 0.551379 0.584158 0.595601
  outer loop
   vertex 0.033112 0.20745 -0.021233
   vertex 0.03107 0.209616 -0.021467
   vertex 0.030702 0.207707 -0.019254
  endloop
 endfacet
 facet normal 0.393627 0.662685 0.637108
  outer loop
   vertex 0.030702 0.207707 -0.019254
   vertex 0.03107 0.209616 -0.021467
   vertex 0.028558 0.209616 -0.019915
  endloop
 endfacet
 facet normal 0.342493 0.758552 0.554344
  outer loop
   vertex 0.03107 0.209616 -0.021467
   vertex 0.028994 0.210956 -0.022018
   vertex 0.028558 0.209616 -0.019915
  endloop
 endfacet
 facet normal -0.0482486 0.148392 0.987751
  outer loop
   vertex 0.027006 0.204839 -0.016811
   vertex 0.024198 0.203926 -0.016811
   vertex 0.02623 0.20245 -0.01649
  endloop
 endfacet
 facet normal 0.0336945 0.400135 0.915836
  outer loop
   vertex 0.027855 0.20745 -0.017983
   vertex 0.024848 0.206703 -0.017546
   vertex 0.027006 0.204839 -0.016811
  endloop
 endfacet
 facet normal 0.112009 0.640965 0.759354
  outer loop
   vertex 0.028558 0.209616 -0.019915
   vertex 0.025702 0.209332 -0.019254
   vertex 0.027855 0.20745 -0.017983
  endloop
 endfacet
 facet normal -0.0891868 0.274301 0.957499
  outer loop
   vertex 0.027006 0.204839 -0.016811
   vertex 0.024848 0.206703 -0.017546
   vertex 0.024198 0.203926 -0.016811
  endloop
 endfacet
 facet normal -0.262485 0.303841 0.915851
  outer loop
   vertex 0.024848 0.206703 -0.017546
   vertex 0.021977 0.20554 -0.017983
   vertex 0.024198 0.203926 -0.016811
  endloop
 endfacet
 facet normal -0.0146149 0.548074 0.836302
  outer loop
   vertex 0.027855 0.20745 -0.017983
   vertex 0.025702 0.209332 -0.019254
   vertex 0.024848 0.206703 -0.017546
  endloop
 endfacet
 facet normal -0.187559 0.577248 0.794737
  outer loop
   vertex 0.025702 0.209332 -0.019254
   vertex 0.022612 0.208328 -0.019254
   vertex 0.024848 0.206703 -0.017546
  endloop
 endfacet
 facet normal -0.310374 0.451949 0.836307
  outer loop
   vertex 0.024848 0.206703 -0.017546
   vertex 0.022612 0.208328 -0.019254
   vertex 0.021977 0.20554 -0.017983
  endloop
 endfacet
 facet normal -0.467426 0.452641 0.759361
  outer loop
   vertex 0.022612 0.208328 -0.019254
   vertex 0.020135 0.206879 -0.019915
   vertex 0.021977 0.20554 -0.017983
  endloop
 endfacet
 facet normal 0.0710868 0.767617 0.636955
  outer loop
   vertex 0.028558 0.209616 -0.019915
   vertex 0.026526 0.211092 -0.021467
   vertex 0.025702 0.209332 -0.019254
  endloop
 endfacet
 facet normal -0.102735 0.796801 0.595444
  outer loop
   vertex 0.026526 0.211092 -0.021467
   vertex 0.023601 0.21054 -0.021233
   vertex 0.025702 0.209332 -0.019254
  endloop
 endfacet
 facet normal -0.228709 0.703897 0.672474
  outer loop
   vertex 0.025702 0.209332 -0.019254
   vertex 0.023601 0.21054 -0.021233
   vertex 0.022612 0.208328 -0.019254
  endloop
 endfacet
 facet normal -0.38541 0.704977 0.595371
  outer loop
   vertex 0.023601 0.21054 -0.021233
   vertex 0.020911 0.209267 -0.021467
   vertex 0.022612 0.208328 -0.019254
  endloop
 endfacet
 facet normal -0.508799 0.579247 0.636864
  outer loop
   vertex 0.022612 0.208328 -0.019254
   vertex 0.020911 0.209267 -0.021467
   vertex 0.020135 0.206879 -0.019915
  endloop
 endfacet
 facet normal -0.61533 0.560308 0.554459
  outer loop
   vertex 0.020911 0.209267 -0.021467
   vertex 0.018994 0.207707 -0.022018
   vertex 0.020135 0.206879 -0.019915
  endloop
 endfacet
 facet normal -0.156037 0 0.987751
  outer loop
   vertex 0.024198 0.203926 -0.016811
   vertex 0.024198 0.200974 -0.016811
   vertex 0.02623 0.20245 -0.01649
  endloop
 endfacet
 facet normal -0.370096 0.155752 0.915844
  outer loop
   vertex 0.021977 0.20554 -0.017983
   vertex 0.021758 0.20245 -0.017546
   vertex 0.024198 0.203926 -0.016811
  endloop
 endfacet
 facet normal -0.574948 0.304695 0.759339
  outer loop
   vertex 0.020135 0.206879 -0.019915
   vertex 0.019522 0.204075 -0.019254
   vertex 0.021977 0.20554 -0.017983
  endloop
 endfacet
 facet normal -0.288428 0 0.957502
  outer loop
   vertex 0.024198 0.203926 -0.016811
   vertex 0.021758 0.20245 -0.017546
   vertex 0.024198 0.200974 -0.016811
  endloop
 endfacet
 facet normal -0.370096 -0.155752 0.915844
  outer loop
   vertex 0.021758 0.20245 -0.017546
   vertex 0.021977 0.19936 -0.017983
   vertex 0.024198 0.200974 -0.016811
  endloop
 endfacet
 facet normal -0.525774 0.155534 0.836284
  outer loop
   vertex 0.021977 0.20554 -0.017983
   vertex 0.019522 0.204075 -0.019254
   vertex 0.021758 0.20245 -0.017546
  endloop
 endfacet
 facet normal -0.607028 0 0.794681
  outer loop
   vertex 0.019522 0.204075 -0.019254
   vertex 0.019522 0.200825 -0.019254
   vertex 0.021758 0.20245 -0.017546
  endloop
 endfacet
 facet normal -0.525774 -0.155534 0.836284
  outer loop
   vertex 0.021758 0.20245 -0.017546
   vertex 0.019522 0.200825 -0.019254
   vertex 0.021977 0.19936 -0.017983
  endloop
 endfacet
 facet normal -0.574948 -0.304695 0.759339
  outer loop
   vertex 0.019522 0.200825 -0.019254
   vertex 0.020135 0.198021 -0.019915
   vertex 0.021977 0.19936 -0.017983
  endloop
 endfacet
 facet normal -0.708089 0.304936 0.636886
  outer loop
   vertex 0.020135 0.206879 -0.019915
   vertex 0.018103 0.205402 -0.021467
   vertex 0.019522 0.204075 -0.019254
  endloop
 endfacet
 facet normal -0.789589 0.148568 0.59538
  outer loop
   vertex 0.018103 0.205402 -0.021467
   vertex 0.017724 0.20245 -0.021233
   vertex 0.019522 0.204075 -0.019254
  endloop
 endfacet
 facet normal -0.740143 0 0.672449
  outer loop
   vertex 0.019522 0.204075 -0.019254
   vertex 0.017724 0.20245 -0.021233
   vertex 0.019522 0.200825 -0.019254
  endloop
 endfacet
 facet normal -0.789589 -0.148568 0.59538
  outer loop
   vertex 0.017724 0.20245 -0.021233
   vertex 0.018103 0.199498 -0.021467
   vertex 0.019522 0.200825 -0.019254
  endloop
 endfacet
 facet normal -0.708089 -0.304936 0.636886
  outer loop
   vertex 0.019522 0.200825 -0.019254
   vertex 0.018103 0.199498 -0.021467
   vertex 0.020135 0.198021 -0.019915
  endloop
 endfacet
 facet normal -0.723015 -0.412034 0.554506
  outer loop
   vertex 0.018103 0.199498 -0.021467
   vertex 0.018994 0.197193 -0.022018
   vertex 0.020135 0.198021 -0.019915
  endloop
 endfacet
 facet normal -0.0482486 -0.148392 0.987751
  outer loop
   vertex 0.024198 0.200974 -0.016811
   vertex 0.027006 0.200061 -0.016811
   vertex 0.02623 0.20245 -0.01649
  endloop
 endfacet
 facet normal -0.262485 -0.303841 0.915851
  outer loop
   vertex 0.021977 0.19936 -0.017983
   vertex 0.024848 0.198197 -0.017546
   vertex 0.024198 0.200974 -0.016811
  endloop
 endfacet
 facet normal -0.467426 -0.452641 0.759361
  outer loop
   vertex 0.020135 0.198021 -0.019915
   vertex 0.022612 0.196572 -0.019254
   vertex 0.021977 0.19936 -0.017983
  endloop
 endfacet
 facet normal -0.0891868 -0.274301 0.957499
  outer loop
   vertex 0.024198 0.200974 -0.016811
   vertex 0.024848 0.198197 -0.017546
   vertex 0.027006 0.200061 -0.016811
  endloop
 endfacet
 facet normal 0.0336945 -0.400135 0.915836
  outer loop
   vertex 0.024848 0.198197 -0.017546
   vertex 0.027855 0.19745 -0.017983
   vertex 0.027006 0.200061 -0.016811
  endloop
 endfacet
 facet normal -0.310374 -0.451949 0.836307
  outer loop
   vertex 0.021977 0.19936 -0.017983
   vertex 0.022612 0.196572 -0.019254
   vertex 0.024848 0.198197 -0.017546
  endloop
 endfacet
 facet normal -0.187559 -0.577248 0.794737
  outer loop
   vertex 0.022612 0.196572 -0.019254
   vertex 0.025702 0.195568 -0.019254
   vertex 0.024848 0.198197 -0.017546
  endloop
 endfacet
 facet normal -0.0146149 -0.548074 0.836302
  outer loop
   vertex 0.024848 0.198197 -0.017546
   vertex 0.025702 0.195568 -0.019254
   vertex 0.027855 0.19745 -0.017983
  endloop
 endfacet
 facet normal 0.112009 -0.640965 0.759354
  outer loop
   vertex 0.025702 0.195568 -0.019254
   vertex 0.028558 0.195284 -0.019915
   vertex 0.027855 0.19745 -0.017983
  endloop
 endfacet
 facet normal -0.508799 -0.579247 0.636864
  outer loop
   vertex 0.020135 0.198021 -0.019915
   vertex 0.020911 0.195633 -0.021467
   vertex 0.022612 0.196572 -0.019254
  endloop
 endfacet
 facet normal -0.38541 -0.704977 0.595371
  outer loop
   vertex 0.020911 0.195633 -0.021467
   vertex 0.023601 0.19436 -0.021233
   vertex 0.022612 0.196572 -0.019254
  endloop
 endfacet
 facet normal -0.228709 -0.703897 0.672474
  outer loop
   vertex 0.022612 0.196572 -0.019254
   vertex 0.023601 0.19436 -0.021233
   vertex 0.025702 0.195568 -0.019254
  endloop
 endfacet
 facet normal -0.102735 -0.796801 0.595444
  outer loop
   vertex 0.023601 0.19436 -0.021233
   vertex 0.026526 0.193808 -0.021467
   vertex 0.025702 0.195568 -0.019254
  endloop
 endfacet
 facet normal 0.0710868 -0.767617 0.636955
  outer loop
   vertex 0.025702 0.195568 -0.019254
   vertex 0.026526 0.193808 -0.021467
   vertex 0.028558 0.195284 -0.019915
  endloop
 endfacet
 facet normal 0.168666 -0.815046 0.554303
  outer loop
   vertex 0.026526 0.193808 -0.021467
   vertex 0.028994 0.193944 -0.022018
   vertex 0.028558 0.195284 -0.019915
  endloop
 endfacet
 facet normal 0.126271 -0.0917039 0.987748
  outer loop
   vertex 0.027006 0.200061 -0.016811
   vertex 0.028741 0.20245 -0.016811
   vertex 0.02623 0.20245 -0.01649
  endloop
 endfacet
 facet normal 0.207851 -0.343516 0.915858
  outer loop
   vertex 0.027855 0.19745 -0.017983
   vertex 0.029848 0.199821 -0.017546
   vertex 0.027006 0.200061 -0.016811
  endloop
 endfacet
 facet normal 0.286233 -0.584386 0.759318
  outer loop
   vertex 0.028558 0.195284 -0.019915
   vertex 0.030702 0.197193 -0.019254
   vertex 0.027855 0.19745 -0.017983
  endloop
 endfacet
 facet normal 0.233325 -0.169451 0.957521
  outer loop
   vertex 0.027006 0.200061 -0.016811
   vertex 0.029848 0.199821 -0.017546
   vertex 0.028741 0.20245 -0.016811
  endloop
 endfacet
 facet normal 0.390899 -0.0914587 0.915878
  outer loop
   vertex 0.029848 0.199821 -0.017546
   vertex 0.031487 0.20245 -0.017983
   vertex 0.028741 0.20245 -0.016811
  endloop
 endfacet
 facet normal 0.334054 -0.43492 0.836213
  outer loop
   vertex 0.027855 0.19745 -0.017983
   vertex 0.030702 0.197193 -0.019254
   vertex 0.029848 0.199821 -0.017546
  endloop
 endfacet
 facet normal 0.491058 -0.356895 0.794662
  outer loop
   vertex 0.030702 0.197193 -0.019254
   vertex 0.032612 0.199821 -0.019254
   vertex 0.029848 0.199821 -0.017546
  endloop
 endfacet
 facet normal 0.516783 -0.183167 0.836293
  outer loop
   vertex 0.029848 0.199821 -0.017546
   vertex 0.032612 0.199821 -0.019254
   vertex 0.031487 0.20245 -0.017983
  endloop
 endfacet
 facet normal 0.644269 -0.0913996 0.759317
  outer loop
   vertex 0.032612 0.199821 -0.019254
   vertex 0.033764 0.20245 -0.019915
   vertex 0.031487 0.20245 -0.017983
  endloop
 endfacet
 facet normal 0.393627 -0.662685 0.637108
  outer loop
   vertex 0.028558 0.195284 -0.019915
   vertex 0.03107 0.195284 -0.021467
   vertex 0.030702 0.197193 -0.019254
  endloop
 endfacet
 facet normal 0.551379 -0.584158 0.595601
  outer loop
   vertex 0.03107 0.195284 -0.021467
   vertex 0.033112 0.19745 -0.021233
   vertex 0.030702 0.197193 -0.019254
  endloop
 endfacet
 facet normal 0.598657 -0.435097 0.672533
  outer loop
   vertex 0.030702 0.197193 -0.019254
   vertex 0.033112 0.19745 -0.021233
   vertex 0.032612 0.199821 -0.019254
  endloop
 endfacet
 facet normal 0.725985 -0.343961 0.595514
  outer loop
   vertex 0.033112 0.19745 -0.021233
   vertex 0.034541 0.200061 -0.021467
   vertex 0.032612 0.199821 -0.019254
  endloop
 endfacet
 facet normal 0.751958 -0.169318 0.637095
  outer loop
   vertex 0.032612 0.199821 -0.019254
   vertex 0.034541 0.200061 -0.021467
   vertex 0.033764 0.20245 -0.019915
  endloop
 endfacet
 facet normal 0.827124 -0.091254 0.554562
  outer loop
   vertex 0.034541 0.200061 -0.021467
   vertex 0.035174 0.20245 -0.022018
   vertex 0.033764 0.20245 -0.019915
  endloop
 endfacet
 facet normal 0.905177 0.147939 0.398459
  outer loop
   vertex 0.035796 0.203926 -0.023979
   vertex 0.034541 0.204839 -0.021467
   vertex 0.035174 0.20245 -0.022018
  endloop
 endfacet
 facet normal 0.93657 0.303801 0.17476
  outer loop
   vertex 0.035741 0.20554 -0.02649
   vertex 0.034848 0.206703 -0.023726
   vertex 0.035796 0.203926 -0.023979
  endloop
 endfacet
 facet normal 0.888212 0.452708 -0.078331
  outer loop
   vertex 0.034837 0.206879 -0.029002
   vertex 0.03432 0.208328 -0.02649
   vertex 0.035741 0.20554 -0.02649
  endloop
 endfacet
 facet normal 0.89641 0.274294 0.348155
  outer loop
   vertex 0.035796 0.203926 -0.023979
   vertex 0.034848 0.206703 -0.023726
   vertex 0.034541 0.204839 -0.021467
  endloop
 endfacet
 facet normal 0.803858 0.400541 0.439749
  outer loop
   vertex 0.034848 0.206703 -0.023726
   vertex 0.033112 0.20745 -0.021233
   vertex 0.034541 0.204839 -0.021467
  endloop
 endfacet
 facet normal 0.886806 0.451991 0.0963284
  outer loop
   vertex 0.035741 0.20554 -0.02649
   vertex 0.03432 0.208328 -0.02649
   vertex 0.034848 0.206703 -0.023726
  endloop
 endfacet
 facet normal 0.794662 0.577331 0.18762
  outer loop
   vertex 0.03432 0.208328 -0.02649
   vertex 0.032938 0.209332 -0.023726
   vertex 0.034848 0.206703 -0.023726
  endloop
 endfacet
 facet normal 0.754436 0.548107 0.361117
  outer loop
   vertex 0.034848 0.206703 -0.023726
   vertex 0.032938 0.209332 -0.023726
   vertex 0.033112 0.20745 -0.021233
  endloop
 endfacet
 facet normal 0.629279 0.640767 0.439803
  outer loop
   vertex 0.032938 0.209332 -0.023726
   vertex 0.03107 0.209616 -0.021467
   vertex 0.033112 0.20745 -0.021233
  endloop
 endfacet
 facet normal 0.797233 0.579229 -0.170037
  outer loop
   vertex 0.034837 0.206879 -0.029002
   vertex 0.033102 0.209267 -0.029002
   vertex 0.03432 0.208328 -0.02649
  endloop
 endfacet
 facet normal 0.704936 0.704936 -0.0782949
  outer loop
   vertex 0.033102 0.209267 -0.029002
   vertex 0.032108 0.21054 -0.02649
   vertex 0.03432 0.208328 -0.02649
  endloop
 endfacet
 facet normal 0.703824 0.703824 0.0962537
  outer loop
   vertex 0.03432 0.208328 -0.02649
   vertex 0.032108 0.21054 -0.02649
   vertex 0.032938 0.209332 -0.023726
  endloop
 endfacet
 facet normal 0.578519 0.796783 0.174509
  outer loop
   vertex 0.032108 0.21054 -0.02649
   vertex 0.03059 0.211092 -0.023978
   vertex 0.032938 0.209332 -0.023726
  endloop
 endfacet
 facet normal 0.537986 0.767602 0.348366
  outer loop
   vertex 0.032938 0.209332 -0.023726
   vertex 0.03059 0.211092 -0.023978
   vertex 0.03107 0.209616 -0.021467
  endloop
 endfacet
 facet normal 0.420269 0.815078 0.398776
  outer loop
   vertex 0.03059 0.211092 -0.023978
   vertex 0.028994 0.210956 -0.022018
   vertex 0.03107 0.209616 -0.021467
  endloop
 endfacet
 facet normal 0.138975 0.90647 0.398746
  outer loop
   vertex 0.027782 0.212004 -0.023978
   vertex 0.026526 0.211092 -0.021467
   vertex 0.028994 0.210956 -0.022018
  endloop
 endfacet
 facet normal 0.000555151 0.98466 0.174481
  outer loop
   vertex 0.02623 0.21245 -0.02649
   vertex 0.024848 0.211961 -0.023726
   vertex 0.027782 0.212004 -0.023978
  endloop
 endfacet
 facet normal -0.155824 0.984657 -0.07855
  outer loop
   vertex 0.024678 0.212004 -0.029002
   vertex 0.02314 0.211961 -0.02649
   vertex 0.02623 0.21245 -0.02649
  endloop
 endfacet
 facet normal 0.0161962 0.937175 0.348485
  outer loop
   vertex 0.027782 0.212004 -0.023978
   vertex 0.024848 0.211961 -0.023726
   vertex 0.026526 0.211092 -0.021467
  endloop
 endfacet
 facet normal -0.132412 0.888171 0.440021
  outer loop
   vertex 0.024848 0.211961 -0.023726
   vertex 0.023601 0.21054 -0.021233
   vertex 0.026526 0.211092 -0.021467
  endloop
 endfacet
 facet normal -0.155583 0.983133 0.0961419
  outer loop
   vertex 0.02623 0.21245 -0.02649
   vertex 0.02314 0.211961 -0.02649
   vertex 0.024848 0.211961 -0.023726
  endloop
 endfacet
 facet normal -0.303796 0.934059 0.187729
  outer loop
   vertex 0.02314 0.211961 -0.02649
   vertex 0.021758 0.210956 -0.023726
   vertex 0.024848 0.211961 -0.023726
  endloop
 endfacet
 facet normal -0.288415 0.886769 0.361189
  outer loop
   vertex 0.024848 0.211961 -0.023726
   vertex 0.021758 0.210956 -0.023726
   vertex 0.023601 0.21054 -0.021233
  endloop
 endfacet
 facet normal -0.415138 0.796394 0.439791
  outer loop
   vertex 0.021758 0.210956 -0.023726
   vertex 0.020911 0.209267 -0.021467
   vertex 0.023601 0.21054 -0.021233
  endloop
 endfacet
 facet normal -0.304389 0.937197 -0.170322
  outer loop
   vertex 0.024678 0.212004 -0.029002
   vertex 0.02187 0.211092 -0.029002
   vertex 0.02314 0.211961 -0.02649
  endloop
 endfacet
 facet normal -0.452705 0.888208 -0.0783901
  outer loop
   vertex 0.02187 0.211092 -0.029002
   vertex 0.020352 0.21054 -0.02649
   vertex 0.02314 0.211961 -0.02649
  endloop
 endfacet
 facet normal -0.451986 0.886796 0.0964489
  outer loop
   vertex 0.02314 0.211961 -0.02649
   vertex 0.020352 0.21054 -0.02649
   vertex 0.021758 0.210956 -0.023726
  endloop
 endfacet
 facet normal -0.578874 0.796508 0.174584
  outer loop
   vertex 0.020352 0.21054 -0.02649
   vertex 0.019358 0.209267 -0.023978
   vertex 0.021758 0.210956 -0.023726
  endloop
 endfacet
 facet normal -0.563623 0.748876 0.348589
  outer loop
   vertex 0.021758 0.210956 -0.023726
   vertex 0.019358 0.209267 -0.023978
   vertex 0.020911 0.209267 -0.021467
  endloop
 endfacet
 facet normal -0.645038 0.651744 0.398942
  outer loop
   vertex 0.019358 0.209267 -0.023978
   vertex 0.018994 0.207707 -0.022018
   vertex 0.020911 0.209267 -0.021467
  endloop
 endfacet
 facet normal -0.819189 0.412026 0.398954
  outer loop
   vertex 0.017623 0.206879 -0.023978
   vertex 0.018103 0.205402 -0.021467
   vertex 0.018994 0.207707 -0.022018
  endloop
 endfacet
 facet normal -0.936352 0.304548 0.174631
  outer loop
   vertex 0.016719 0.20554 -0.02649
   vertex 0.016758 0.204075 -0.023726
   vertex 0.017623 0.206879 -0.023978
  endloop
 endfacet
 facet normal -0.984653 0.155824 -0.0785916
  outer loop
   vertex 0.016664 0.203926 -0.029001
   vertex 0.01623 0.20245 -0.02649
   vertex 0.016719 0.20554 -0.02649
  endloop
 endfacet
 facet normal -0.886309 0.304753 0.348685
  outer loop
   vertex 0.017623 0.206879 -0.023978
   vertex 0.016758 0.204075 -0.023726
   vertex 0.018103 0.205402 -0.021467
  endloop
 endfacet
 facet normal -0.885615 0.148581 0.440011
  outer loop
   vertex 0.016758 0.204075 -0.023726
   vertex 0.017724 0.20245 -0.021233
   vertex 0.018103 0.205402 -0.021467
  endloop
 endfacet
 facet normal -0.983115 0.15558 0.0963335
  outer loop
   vertex 0.016719 0.20554 -0.02649
   vertex 0.01623 0.20245 -0.02649
   vertex 0.016758 0.204075 -0.023726
  endloop
 endfacet
 facet normal -0.982239 0 0.187634
  outer loop
   vertex 0.01623 0.20245 -0.02649
   vertex 0.016758 0.200825 -0.023726
   vertex 0.016758 0.204075 -0.023726
  endloop
 endfacet
 facet normal -0.932446 0 0.361309
  outer loop
   vertex 0.016758 0.204075 -0.023726
   vertex 0.016758 0.200825 -0.023726
   vertex 0.017724 0.20245 -0.021233
  endloop
 endfacet
 facet normal -0.885615 -0.148581 0.440011
  outer loop
   vertex 0.016758 0.200825 -0.023726
   vertex 0.018103 0.199498 -0.021467
   vertex 0.017724 0.20245 -0.021233
  endloop
 endfacet
 facet normal -0.98539 -0 -0.170314
  outer loop
   vertex 0.016664 0.203926 -0.029001
   vertex 0.016664 0.200974 -0.029001
   vertex 0.01623 0.20245 -0.02649
  endloop
 endfacet
 facet normal -0.984653 -0.155824 -0.0785916
  outer loop
   vertex 0.016664 0.200974 -0.029001
   vertex 0.016719 0.19936 -0.02649
   vertex 0.01623 0.20245 -0.02649
  endloop
 endfacet
 facet normal -0.983115 -0.15558 0.0963335
  outer loop
   vertex 0.01623 0.20245 -0.02649
   vertex 0.016719 0.19936 -0.02649
   vertex 0.016758 0.200825 -0.023726
  endloop
 endfacet
 facet normal -0.936352 -0.304548 0.174631
  outer loop
   vertex 0.016719 0.19936 -0.02649
   vertex 0.017623 0.198021 -0.023978
   vertex 0.016758 0.200825 -0.023726
  endloop
 endfacet
 facet normal -0.886309 -0.304753 0.348685
  outer loop
   vertex 0.016758 0.200825 -0.023726
   vertex 0.017623 0.198021 -0.023978
   vertex 0.018103 0.199498 -0.021467
  endloop
 endfacet
 facet normal -0.819189 -0.412026 0.398954
  outer loop
   vertex 0.017623 0.198021 -0.023978
   vertex 0.018994 0.197193 -0.022018
   vertex 0.018103 0.199498 -0.021467
  endloop
 endfacet
 facet normal -0.645038 -0.651744 0.398942
  outer loop
   vertex 0.019358 0.195633 -0.023978
   vertex 0.020911 0.195633 -0.021467
   vertex 0.018994 0.197193 -0.022018
  endloop
 endfacet
 facet normal -0.578874 -0.796508 0.174584
  outer loop
   vertex 0.020352 0.19436 -0.02649
   vertex 0.021758 0.193944 -0.023726
   vertex 0.019358 0.195633 -0.023978
  endloop
 endfacet
 facet normal -0.452705 -0.888208 -0.0783901
  outer loop
   vertex 0.02187 0.193808 -0.029002
   vertex 0.02314 0.192939 -0.02649
   vertex 0.020352 0.19436 -0.02649
  endloop
 endfacet
 facet normal -0.563623 -0.748876 0.348589
  outer loop
   vertex 0.019358 0.195633 -0.023978
   vertex 0.021758 0.193944 -0.023726
   vertex 0.020911 0.195633 -0.021467
  endloop
 endfacet
 facet normal -0.415138 -0.796394 0.439791
  outer loop
   vertex 0.021758 0.193944 -0.023726
   vertex 0.023601 0.19436 -0.021233
   vertex 0.020911 0.195633 -0.021467
  endloop
 endfacet
 facet normal -0.451986 -0.886796 0.0964489
  outer loop
   vertex 0.020352 0.19436 -0.02649
   vertex 0.02314 0.192939 -0.02649
   vertex 0.021758 0.193944 -0.023726
  endloop
 endfacet
 facet normal -0.303796 -0.934059 0.187729
  outer loop
   vertex 0.02314 0.192939 -0.02649
   vertex 0.024848 0.192939 -0.023726
   vertex 0.021758 0.193944 -0.023726
  endloop
 endfacet
 facet normal -0.288415 -0.886769 0.361189
  outer loop
   vertex 0.021758 0.193944 -0.023726
   vertex 0.024848 0.192939 -0.023726
   vertex 0.023601 0.19436 -0.021233
  endloop
 endfacet
 facet normal -0.132412 -0.888171 0.440021
  outer loop
   vertex 0.024848 0.192939 -0.023726
   vertex 0.026526 0.193808 -0.021467
   vertex 0.023601 0.19436 -0.021233
  endloop
 endfacet
 facet normal -0.304389 -0.937197 -0.170322
  outer loop
   vertex 0.02187 0.193808 -0.029002
   vertex 0.024678 0.192896 -0.029002
   vertex 0.02314 0.192939 -0.02649
  endloop
 endfacet
 facet normal -0.155824 -0.984657 -0.07855
  outer loop
   vertex 0.024678 0.192896 -0.029002
   vertex 0.02623 0.19245 -0.02649
   vertex 0.02314 0.192939 -0.02649
  endloop
 endfacet
 facet normal -0.155583 -0.983133 0.0961419
  outer loop
   vertex 0.02314 0.192939 -0.02649
   vertex 0.02623 0.19245 -0.02649
   vertex 0.024848 0.192939 -0.023726
  endloop
 endfacet
 facet normal 0.000555151 -0.98466 0.174481
  outer loop
   vertex 0.02623 0.19245 -0.02649
   vertex 0.027782 0.192896 -0.023978
   vertex 0.024848 0.192939 -0.023726
  endloop
 endfacet
 facet normal 0.0161962 -0.937175 0.348485
  outer loop
   vertex 0.024848 0.192939 -0.023726
   vertex 0.027782 0.192896 -0.023978
   vertex 0.026526 0.193808 -0.021467
  endloop
 endfacet
 facet normal 0.138975 -0.90647 0.398746
  outer loop
   vertex 0.027782 0.192896 -0.023978
   vertex 0.028994 0.193944 -0.022018
   vertex 0.026526 0.193808 -0.021467
  endloop
 endfacet
 facet normal 0.420269 -0.815078 0.398776
  outer loop
   vertex 0.03059 0.193808 -0.023978
   vertex 0.03107 0.195284 -0.021467
   vertex 0.028994 0.193944 -0.022018
  endloop
 endfacet
 facet normal 0.578519 -0.796783 0.174509
  outer loop
   vertex 0.032108 0.19436 -0.02649
   vertex 0.032938 0.195568 -0.023726
   vertex 0.03059 0.193808 -0.023978
  endloop
 endfacet
 facet normal 0.704936 -0.704936 -0.0782949
  outer loop
   vertex 0.033102 0.195633 -0.029002
   vertex 0.03432 0.196572 -0.02649
   vertex 0.032108 0.19436 -0.02649
  endloop
 endfacet
 facet normal 0.537986 -0.767602 0.348366
  outer loop
   vertex 0.03059 0.193808 -0.023978
   vertex 0.032938 0.195568 -0.023726
   vertex 0.03107 0.195284 -0.021467
  endloop
 endfacet
 facet normal 0.629279 -0.640767 0.439803
  outer loop
   vertex 0.032938 0.195568 -0.023726
   vertex 0.033112 0.19745 -0.021233
   vertex 0.03107 0.195284 -0.021467
  endloop
 endfacet
 facet normal 0.703824 -0.703824 0.0962537
  outer loop
   vertex 0.032108 0.19436 -0.02649
   vertex 0.03432 0.196572 -0.02649
   vertex 0.032938 0.195568 -0.023726
  endloop
 endfacet
 facet normal 0.794662 -0.577331 0.18762
  outer loop
   vertex 0.03432 0.196572 -0.02649
   vertex 0.034848 0.198197 -0.023726
   vertex 0.032938 0.195568 -0.023726
  endloop
 endfacet
 facet normal 0.754436 -0.548107 0.361117
  outer loop
   vertex 0.032938 0.195568 -0.023726
   vertex 0.034848 0.198197 -0.023726
   vertex 0.033112 0.19745 -0.021233
  endloop
 endfacet
 facet normal 0.803858 -0.400541 0.439749
  outer loop
   vertex 0.034848 0.198197 -0.023726
   vertex 0.034541 0.200061 -0.021467
   vertex 0.033112 0.19745 -0.021233
  endloop
 endfacet
 facet normal 0.797233 -0.579229 -0.170037
  outer loop
   vertex 0.033102 0.195633 -0.029002
   vertex 0.034837 0.198021 -0.029002
   vertex 0.03432 0.196572 -0.02649
  endloop
 endfacet
 facet normal 0.888212 -0.452708 -0.078331
  outer loop
   vertex 0.034837 0.198021 -0.029002
   vertex 0.035741 0.19936 -0.02649
   vertex 0.03432 0.196572 -0.02649
  endloop
 endfacet
 facet normal 0.886806 -0.451991 0.0963284
  outer loop
   vertex 0.03432 0.196572 -0.02649
   vertex 0.035741 0.19936 -0.02649
   vertex 0.034848 0.198197 -0.023726
  endloop
 endfacet
 facet normal 0.93657 -0.303801 0.17476
  outer loop
   vertex 0.035741 0.19936 -0.02649
   vertex 0.035796 0.200974 -0.023979
   vertex 0.034848 0.198197 -0.023726
  endloop
 endfacet
 facet normal 0.89641 -0.274294 0.348155
  outer loop
   vertex 0.034848 0.198197 -0.023726
   vertex 0.035796 0.200974 -0.023979
   vertex 0.034541 0.200061 -0.021467
  endloop
 endfacet
 facet normal 0.905177 -0.147939 0.398459
  outer loop
   vertex 0.035796 0.200974 -0.023979
   vertex 0.035174 0.20245 -0.022018
   vertex 0.034541 0.200061 -0.021467
  endloop
 endfacet
 facet normal 0.294416 0.906493 0.302638
  outer loop
   vertex 0.03059 0.211092 -0.023978
   vertex 0.027782 0.212004 -0.023978
   vertex 0.028994 0.210956 -0.022018
  endloop
 endfacet
 facet normal 0.452705 0.888208 0.0783901
  outer loop
   vertex 0.032108 0.21054 -0.02649
   vertex 0.02932 0.211961 -0.02649
   vertex 0.03059 0.211092 -0.023978
  endloop
 endfacet
 facet normal 0.578874 0.796508 -0.174584
  outer loop
   vertex 0.033102 0.209267 -0.029002
   vertex 0.030702 0.210956 -0.029254
   vertex 0.032108 0.21054 -0.02649
  endloop
 endfacet
 facet normal 0.304389 0.937197 0.170322
  outer loop
   vertex 0.03059 0.211092 -0.023978
   vertex 0.02932 0.211961 -0.02649
   vertex 0.027782 0.212004 -0.023978
  endloop
 endfacet
 facet normal 0.155824 0.984657 0.07855
  outer loop
   vertex 0.02932 0.211961 -0.02649
   vertex 0.02623 0.21245 -0.02649
   vertex 0.027782 0.212004 -0.023978
  endloop
 endfacet
 facet normal 0.451986 0.886796 -0.0964489
  outer loop
   vertex 0.032108 0.21054 -0.02649
   vertex 0.030702 0.210956 -0.029254
   vertex 0.02932 0.211961 -0.02649
  endloop
 endfacet
 facet normal 0.303796 0.934059 -0.187729
  outer loop
   vertex 0.030702 0.210956 -0.029254
   vertex 0.027612 0.211961 -0.029254
   vertex 0.02932 0.211961 -0.02649
  endloop
 endfacet
 facet normal 0.155583 0.983133 -0.0961419
  outer loop
   vertex 0.02932 0.211961 -0.02649
   vertex 0.027612 0.211961 -0.029254
   vertex 0.02623 0.21245 -0.02649
  endloop
 endfacet
 facet normal -0.000555151 0.98466 -0.174481
  outer loop
   vertex 0.027612 0.211961 -0.029254
   vertex 0.024678 0.212004 -0.029002
   vertex 0.02623 0.21245 -0.02649
  endloop
 endfacet
 facet normal 0.563623 0.748876 -0.348589
  outer loop
   vertex 0.033102 0.209267 -0.029002
   vertex 0.031549 0.209267 -0.031513
   vertex 0.030702 0.210956 -0.029254
  endloop
 endfacet
 facet normal 0.415138 0.796394 -0.439791
  outer loop
   vertex 0.031549 0.209267 -0.031513
   vertex 0.028859 0.21054 -0.031747
   vertex 0.030702 0.210956 -0.029254
  endloop
 endfacet
 facet normal 0.288415 0.886769 -0.361189
  outer loop
   vertex 0.030702 0.210956 -0.029254
   vertex 0.028859 0.21054 -0.031747
   vertex 0.027612 0.211961 -0.029254
  endloop
 endfacet
 facet normal 0.132412 0.888171 -0.440021
  outer loop
   vertex 0.028859 0.21054 -0.031747
   vertex 0.025934 0.211092 -0.031513
   vertex 0.027612 0.211961 -0.029254
  endloop
 endfacet
 facet normal -0.0161962 0.937175 -0.348485
  outer loop
   vertex 0.027612 0.211961 -0.029254
   vertex 0.025934 0.211092 -0.031513
   vertex 0.024678 0.212004 -0.029002
  endloop
 endfacet
 facet normal -0.138975 0.90647 -0.398746
  outer loop
   vertex 0.025934 0.211092 -0.031513
   vertex 0.023466 0.210956 -0.030962
   vertex 0.024678 0.212004 -0.029002
  endloop
 endfacet
 facet normal -0.771063 0.560215 0.302688
  outer loop
   vertex 0.019358 0.209267 -0.023978
   vertex 0.017623 0.206879 -0.023978
   vertex 0.018994 0.207707 -0.022018
  endloop
 endfacet
 facet normal -0.704936 0.704936 0.0782949
  outer loop
   vertex 0.020352 0.21054 -0.02649
   vertex 0.01814 0.208328 -0.02649
   vertex 0.019358 0.209267 -0.023978
  endloop
 endfacet
 facet normal -0.578519 0.796783 -0.174509
  outer loop
   vertex 0.02187 0.211092 -0.029002
   vertex 0.019522 0.209332 -0.029254
   vertex 0.020352 0.21054 -0.02649
  endloop
 endfacet
 facet normal -0.797233 0.579229 0.170037
  outer loop
   vertex 0.019358 0.209267 -0.023978
   vertex 0.01814 0.208328 -0.02649
   vertex 0.017623 0.206879 -0.023978
  endloop
 endfacet
 facet normal -0.888212 0.452708 0.078331
  outer loop
   vertex 0.01814 0.208328 -0.02649
   vertex 0.016719 0.20554 -0.02649
   vertex 0.017623 0.206879 -0.023978
  endloop
 endfacet
 facet normal -0.703824 0.703824 -0.0962537
  outer loop
   vertex 0.020352 0.21054 -0.02649
   vertex 0.019522 0.209332 -0.029254
   vertex 0.01814 0.208328 -0.02649
  endloop
 endfacet
 facet normal -0.794662 0.577331 -0.18762
  outer loop
   vertex 0.019522 0.209332 -0.029254
   vertex 0.017612 0.206703 -0.029254
   vertex 0.01814 0.208328 -0.02649
  endloop
 endfacet
 facet normal -0.886806 0.451991 -0.0963284
  outer loop
   vertex 0.01814 0.208328 -0.02649
   vertex 0.017612 0.206703 -0.029254
   vertex 0.016719 0.20554 -0.02649
  endloop
 endfacet
 facet normal -0.93657 0.303801 -0.17476
  outer loop
   vertex 0.017612 0.206703 -0.029254
   vertex 0.016664 0.203926 -0.029001
   vertex 0.016719 0.20554 -0.02649
  endloop
 endfacet
 facet normal -0.537986 0.767602 -0.348366
  outer loop
   vertex 0.02187 0.211092 -0.029002
   vertex 0.02139 0.209616 -0.031513
   vertex 0.019522 0.209332 -0.029254
  endloop
 endfacet
 facet normal -0.629279 0.640767 -0.439803
  outer loop
   vertex 0.02139 0.209616 -0.031513
   vertex 0.019348 0.20745 -0.031747
   vertex 0.019522 0.209332 -0.029254
  endloop
 endfacet
 facet normal -0.754436 0.548107 -0.361117
  outer loop
   vertex 0.019522 0.209332 -0.029254
   vertex 0.019348 0.20745 -0.031747
   vertex 0.017612 0.206703 -0.029254
  endloop
 endfacet
 facet normal -0.803858 0.400541 -0.439749
  outer loop
   vertex 0.019348 0.20745 -0.031747
   vertex 0.017919 0.204839 -0.031513
   vertex 0.017612 0.206703 -0.029254
  endloop
 endfacet
 facet normal -0.89641 0.274294 -0.348155
  outer loop
   vertex 0.017612 0.206703 -0.029254
   vertex 0.017919 0.204839 -0.031513
   vertex 0.016664 0.203926 -0.029001
  endloop
 endfacet
 facet normal -0.905177 0.147939 -0.398459
  outer loop
   vertex 0.017919 0.204839 -0.031513
   vertex 0.017286 0.20245 -0.030962
   vertex 0.016664 0.203926 -0.029001
  endloop
 endfacet
 facet normal -0.771063 -0.560215 0.302688
  outer loop
   vertex 0.017623 0.198021 -0.023978
   vertex 0.019358 0.195633 -0.023978
   vertex 0.018994 0.197193 -0.022018
  endloop
 endfacet
 facet normal -0.888212 -0.452708 0.078331
  outer loop
   vertex 0.016719 0.19936 -0.02649
   vertex 0.01814 0.196572 -0.02649
   vertex 0.017623 0.198021 -0.023978
  endloop
 endfacet
 facet normal -0.93657 -0.303801 -0.17476
  outer loop
   vertex 0.016664 0.200974 -0.029001
   vertex 0.017612 0.198197 -0.029254
   vertex 0.016719 0.19936 -0.02649
  endloop
 endfacet
 facet normal -0.797233 -0.579229 0.170037
  outer loop
   vertex 0.017623 0.198021 -0.023978
   vertex 0.01814 0.196572 -0.02649
   vertex 0.019358 0.195633 -0.023978
  endloop
 endfacet
 facet normal -0.704936 -0.704936 0.0782949
  outer loop
   vertex 0.01814 0.196572 -0.02649
   vertex 0.020352 0.19436 -0.02649
   vertex 0.019358 0.195633 -0.023978
  endloop
 endfacet
 facet normal -0.886806 -0.451991 -0.0963284
  outer loop
   vertex 0.016719 0.19936 -0.02649
   vertex 0.017612 0.198197 -0.029254
   vertex 0.01814 0.196572 -0.02649
  endloop
 endfacet
 facet normal -0.794662 -0.577331 -0.18762
  outer loop
   vertex 0.017612 0.198197 -0.029254
   vertex 0.019522 0.195568 -0.029254
   vertex 0.01814 0.196572 -0.02649
  endloop
 endfacet
 facet normal -0.703824 -0.703824 -0.0962537
  outer loop
   vertex 0.01814 0.196572 -0.02649
   vertex 0.019522 0.195568 -0.029254
   vertex 0.020352 0.19436 -0.02649
  endloop
 endfacet
 facet normal -0.578519 -0.796783 -0.174509
  outer loop
   vertex 0.019522 0.195568 -0.029254
   vertex 0.02187 0.193808 -0.029002
   vertex 0.020352 0.19436 -0.02649
  endloop
 endfacet
 facet normal -0.89641 -0.274294 -0.348155
  outer loop
   vertex 0.016664 0.200974 -0.029001
   vertex 0.017919 0.200061 -0.031513
   vertex 0.017612 0.198197 -0.029254
  endloop
 endfacet
 facet normal -0.803858 -0.400541 -0.439749
  outer loop
   vertex 0.017919 0.200061 -0.031513
   vertex 0.019348 0.19745 -0.031747
   vertex 0.017612 0.198197 -0.029254
  endloop
 endfacet
 facet normal -0.754436 -0.548107 -0.361117
  outer loop
   vertex 0.017612 0.198197 -0.029254
   vertex 0.019348 0.19745 -0.031747
   vertex 0.019522 0.195568 -0.029254
  endloop
 endfacet
 facet normal -0.629279 -0.640767 -0.439803
  outer loop
   vertex 0.019348 0.19745 -0.031747
   vertex 0.02139 0.195284 -0.031513
   vertex 0.019522 0.195568 -0.029254
  endloop
 endfacet
 facet normal -0.537986 -0.767602 -0.348366
  outer loop
   vertex 0.019522 0.195568 -0.029254
   vertex 0.02139 0.195284 -0.031513
   vertex 0.02187 0.193808 -0.029002
  endloop
 endfacet
 facet normal -0.420269 -0.815078 -0.398776
  outer loop
   vertex 0.02139 0.195284 -0.031513
   vertex 0.023466 0.193944 -0.030962
   vertex 0.02187 0.193808 -0.029002
  endloop
 endfacet
 facet normal 0.294416 -0.906493 0.302638
  outer loop
   vertex 0.027782 0.192896 -0.023978
   vertex 0.03059 0.193808 -0.023978
   vertex 0.028994 0.193944 -0.022018
  endloop
 endfacet
 facet normal 0.155824 -0.984657 0.07855
  outer loop
   vertex 0.02623 0.19245 -0.02649
   vertex 0.02932 0.192939 -0.02649
   vertex 0.027782 0.192896 -0.023978
  endloop
 endfacet
 facet normal -0.000555151 -0.98466 -0.174481
  outer loop
   vertex 0.024678 0.192896 -0.029002
   vertex 0.027612 0.192939 -0.029254
   vertex 0.02623 0.19245 -0.02649
  endloop
 endfacet
 facet normal 0.304389 -0.937197 0.170322
  outer loop
   vertex 0.027782 0.192896 -0.023978
   vertex 0.02932 0.192939 -0.02649
   vertex 0.03059 0.193808 -0.023978
  endloop
 endfacet
 facet normal 0.452705 -0.888208 0.0783901
  outer loop
   vertex 0.02932 0.192939 -0.02649
   vertex 0.032108 0.19436 -0.02649
   vertex 0.03059 0.193808 -0.023978
  endloop
 endfacet
 facet normal 0.155583 -0.983133 -0.0961419
  outer loop
   vertex 0.02623 0.19245 -0.02649
   vertex 0.027612 0.192939 -0.029254
   vertex 0.02932 0.192939 -0.02649
  endloop
 endfacet
 facet normal 0.303796 -0.934059 -0.187729
  outer loop
   vertex 0.027612 0.192939 -0.029254
   vertex 0.030702 0.193944 -0.029254
   vertex 0.02932 0.192939 -0.02649
  endloop
 endfacet
 facet normal 0.451986 -0.886796 -0.0964489
  outer loop
   vertex 0.02932 0.192939 -0.02649
   vertex 0.030702 0.193944 -0.029254
   vertex 0.032108 0.19436 -0.02649
  endloop
 endfacet
 facet normal 0.578874 -0.796508 -0.174584
  outer loop
   vertex 0.030702 0.193944 -0.029254
   vertex 0.033102 0.195633 -0.029002
   vertex 0.032108 0.19436 -0.02649
  endloop
 endfacet
 facet normal -0.0161962 -0.937175 -0.348485
  outer loop
   vertex 0.024678 0.192896 -0.029002
   vertex 0.025934 0.193808 -0.031513
   vertex 0.027612 0.192939 -0.029254
  endloop
 endfacet
 facet normal 0.132412 -0.888171 -0.440021
  outer loop
   vertex 0.025934 0.193808 -0.031513
   vertex 0.028859 0.19436 -0.031747
   vertex 0.027612 0.192939 -0.029254
  endloop
 endfacet
 facet normal 0.288415 -0.886769 -0.361189
  outer loop
   vertex 0.027612 0.192939 -0.029254
   vertex 0.028859 0.19436 -0.031747
   vertex 0.030702 0.193944 -0.029254
  endloop
 endfacet
 facet normal 0.415138 -0.796394 -0.439791
  outer loop
   vertex 0.028859 0.19436 -0.031747
   vertex 0.031549 0.195633 -0.031513
   vertex 0.030702 0.193944 -0.029254
  endloop
 endfacet
 facet normal 0.563623 -0.748876 -0.348589
  outer loop
   vertex 0.030702 0.193944 -0.029254
   vertex 0.031549 0.195633 -0.031513
   vertex 0.033102 0.195633 -0.029002
  endloop
 endfacet
 facet normal 0.645038 -0.651744 -0.398942
  outer loop
   vertex 0.031549 0.195633 -0.031513
   vertex 0.033466 0.197193 -0.030962
   vertex 0.033102 0.195633 -0.029002
  endloop
 endfacet
 facet normal 0.9532 -0 0.302341
  outer loop
   vertex 0.035796 0.200974 -0.023979
   vertex 0.035796 0.203926 -0.023979
   vertex 0.035174 0.20245 -0.022018
  endloop
 endfacet
 facet normal 0.984653 -0.155824 0.0785916
  outer loop
   vertex 0.035741 0.19936 -0.02649
   vertex 0.03623 0.20245 -0.02649
   vertex 0.035796 0.200974 -0.023979
  endloop
 endfacet
 facet normal 0.936352 -0.304548 -0.174631
  outer loop
   vertex 0.034837 0.198021 -0.029002
   vertex 0.035702 0.200825 -0.029254
   vertex 0.035741 0.19936 -0.02649
  endloop
 endfacet
 facet normal 0.98539 -0 0.170314
  outer loop
   vertex 0.035796 0.200974 -0.023979
   vertex 0.03623 0.20245 -0.02649
   vertex 0.035796 0.203926 -0.023979
  endloop
 endfacet
 facet normal 0.984653 0.155824 0.0785916
  outer loop
   vertex 0.03623 0.20245 -0.02649
   vertex 0.035741 0.20554 -0.02649
   vertex 0.035796 0.203926 -0.023979
  endloop
 endfacet
 facet normal 0.983115 -0.15558 -0.0963335
  outer loop
   vertex 0.035741 0.19936 -0.02649
   vertex 0.035702 0.200825 -0.029254
   vertex 0.03623 0.20245 -0.02649
  endloop
 endfacet
 facet normal 0.982239 0 -0.187634
  outer loop
   vertex 0.035702 0.200825 -0.029254
   vertex 0.035702 0.204075 -0.029254
   vertex 0.03623 0.20245 -0.02649
  endloop
 endfacet
 facet normal 0.983115 0.15558 -0.0963335
  outer loop
   vertex 0.03623 0.20245 -0.02649
   vertex 0.035702 0.204075 -0.029254
   vertex 0.035741 0.20554 -0.02649
  endloop
 endfacet
 facet normal 0.936352 0.304548 -0.174631
  outer loop
   vertex 0.035702 0.204075 -0.029254
   vertex 0.034837 0.206879 -0.029002
   vertex 0.035741 0.20554 -0.02649
  endloop
 endfacet
 facet normal 0.886309 -0.304753 -0.348685
  outer loop
   vertex 0.034837 0.198021 -0.029002
   vertex 0.034357 0.199498 -0.031513
   vertex 0.035702 0.200825 -0.029254
  endloop
 endfacet
 facet normal 0.885615 -0.148581 -0.440011
  outer loop
   vertex 0.034357 0.199498 -0.031513
   vertex 0.034736 0.20245 -0.031747
   vertex 0.035702 0.200825 -0.029254
  endloop
 endfacet
 facet normal 0.932446 0 -0.361309
  outer loop
   vertex 0.035702 0.200825 -0.029254
   vertex 0.034736 0.20245 -0.031747
   vertex 0.035702 0.204075 -0.029254
  endloop
 endfacet
 facet normal 0.885615 0.148581 -0.440011
  outer loop
   vertex 0.034736 0.20245 -0.031747
   vertex 0.034357 0.205402 -0.031513
   vertex 0.035702 0.204075 -0.029254
  endloop
 endfacet
 facet normal 0.886309 0.304753 -0.348685
  outer loop
   vertex 0.035702 0.204075 -0.029254
   vertex 0.034357 0.205402 -0.031513
   vertex 0.034837 0.206879 -0.029002
  endloop
 endfacet
 facet normal 0.819189 0.412026 -0.398954
  outer loop
   vertex 0.034357 0.205402 -0.031513
   vertex 0.033466 0.207707 -0.030962
   vertex 0.034837 0.206879 -0.029002
  endloop
 endfacet
 facet normal 0.61533 0.560308 -0.554459
  outer loop
   vertex 0.032325 0.206879 -0.033065
   vertex 0.031549 0.209267 -0.031513
   vertex 0.033466 0.207707 -0.030962
  endloop
 endfacet
 facet normal 0.467426 0.452641 -0.759361
  outer loop
   vertex 0.030483 0.20554 -0.034997
   vertex 0.029848 0.208328 -0.033726
   vertex 0.032325 0.206879 -0.033065
  endloop
 endfacet
 facet normal 0.262485 0.303841 -0.915851
  outer loop
   vertex 0.028262 0.203926 -0.036169
   vertex 0.027612 0.206703 -0.035434
   vertex 0.030483 0.20554 -0.034997
  endloop
 endfacet
 facet normal 0.508799 0.579247 -0.636864
  outer loop
   vertex 0.032325 0.206879 -0.033065
   vertex 0.029848 0.208328 -0.033726
   vertex 0.031549 0.209267 -0.031513
  endloop
 endfacet
 facet normal 0.38541 0.704977 -0.595371
  outer loop
   vertex 0.029848 0.208328 -0.033726
   vertex 0.028859 0.21054 -0.031747
   vertex 0.031549 0.209267 -0.031513
  endloop
 endfacet
 facet normal 0.310374 0.451949 -0.836307
  outer loop
   vertex 0.030483 0.20554 -0.034997
   vertex 0.027612 0.206703 -0.035434
   vertex 0.029848 0.208328 -0.033726
  endloop
 endfacet
 facet normal 0.187559 0.577248 -0.794737
  outer loop
   vertex 0.027612 0.206703 -0.035434
   vertex 0.026758 0.209332 -0.033726
   vertex 0.029848 0.208328 -0.033726
  endloop
 endfacet
 facet normal 0.228709 0.703897 -0.672474
  outer loop
   vertex 0.029848 0.208328 -0.033726
   vertex 0.026758 0.209332 -0.033726
   vertex 0.028859 0.21054 -0.031747
  endloop
 endfacet
 facet normal 0.102735 0.796801 -0.595444
  outer loop
   vertex 0.026758 0.209332 -0.033726
   vertex 0.025934 0.211092 -0.031513
   vertex 0.028859 0.21054 -0.031747
  endloop
 endfacet
 facet normal 0.0891868 0.274301 -0.957499
  outer loop
   vertex 0.028262 0.203926 -0.036169
   vertex 0.025454 0.204839 -0.036169
   vertex 0.027612 0.206703 -0.035434
  endloop
 endfacet
 facet normal -0.0336945 0.400135 -0.915836
  outer loop
   vertex 0.025454 0.204839 -0.036169
   vertex 0.024605 0.20745 -0.034997
   vertex 0.027612 0.206703 -0.035434
  endloop
 endfacet
 facet normal 0.0146149 0.548074 -0.836302
  outer loop
   vertex 0.027612 0.206703 -0.035434
   vertex 0.024605 0.20745 -0.034997
   vertex 0.026758 0.209332 -0.033726
  endloop
 endfacet
 facet normal -0.112009 0.640965 -0.759354
  outer loop
   vertex 0.024605 0.20745 -0.034997
   vertex 0.023902 0.209616 -0.033065
   vertex 0.026758 0.209332 -0.033726
  endloop
 endfacet
 facet normal -0.0710868 0.767617 -0.636955
  outer loop
   vertex 0.026758 0.209332 -0.033726
   vertex 0.023902 0.209616 -0.033065
   vertex 0.025934 0.211092 -0.031513
  endloop
 endfacet
 facet normal -0.168666 0.815046 -0.554303
  outer loop
   vertex 0.023902 0.209616 -0.033065
   vertex 0.023466 0.210956 -0.030962
   vertex 0.025934 0.211092 -0.031513
  endloop
 endfacet
 facet normal -0.342493 0.758552 -0.554344
  outer loop
   vertex 0.023902 0.209616 -0.033065
   vertex 0.02139 0.209616 -0.031513
   vertex 0.023466 0.210956 -0.030962
  endloop
 endfacet
 facet normal -0.286233 0.584386 -0.759318
  outer loop
   vertex 0.024605 0.20745 -0.034997
   vertex 0.021758 0.207707 -0.033726
   vertex 0.023902 0.209616 -0.033065
  endloop
 endfacet
 facet normal -0.207851 0.343516 -0.915858
  outer loop
   vertex 0.025454 0.204839 -0.036169
   vertex 0.022612 0.205079 -0.035434
   vertex 0.024605 0.20745 -0.034997
  endloop
 endfacet
 facet normal -0.393627 0.662685 -0.637108
  outer loop
   vertex 0.023902 0.209616 -0.033065
   vertex 0.021758 0.207707 -0.033726
   vertex 0.02139 0.209616 -0.031513
  endloop
 endfacet
 facet normal -0.551379 0.584158 -0.595601
  outer loop
   vertex 0.021758 0.207707 -0.033726
   vertex 0.019348 0.20745 -0.031747
   vertex 0.02139 0.209616 -0.031513
  endloop
 endfacet
 facet normal -0.334054 0.43492 -0.836213
  outer loop
   vertex 0.024605 0.20745 -0.034997
   vertex 0.022612 0.205079 -0.035434
   vertex 0.021758 0.207707 -0.033726
  endloop
 endfacet
 facet normal -0.491058 0.356895 -0.794662
  outer loop
   vertex 0.022612 0.205079 -0.035434
   vertex 0.019848 0.205079 -0.033726
   vertex 0.021758 0.207707 -0.033726
  endloop
 endfacet
 facet normal -0.598657 0.435097 -0.672533
  outer loop
   vertex 0.021758 0.207707 -0.033726
   vertex 0.019848 0.205079 -0.033726
   vertex 0.019348 0.20745 -0.031747
  endloop
 endfacet
 facet normal -0.725985 0.343961 -0.595514
  outer loop
   vertex 0.019848 0.205079 -0.033726
   vertex 0.017919 0.204839 -0.031513
   vertex 0.019348 0.20745 -0.031747
  endloop
 endfacet
 facet normal -0.233325 0.169451 -0.957521
  outer loop
   vertex 0.025454 0.204839 -0.036169
   vertex 0.023719 0.20245 -0.036169
   vertex 0.022612 0.205079 -0.035434
  endloop
 endfacet
 facet normal -0.390899 0.0914587 -0.915878
  outer loop
   vertex 0.023719 0.20245 -0.036169
   vertex 0.020973 0.20245 -0.034997
   vertex 0.022612 0.205079 -0.035434
  endloop
 endfacet
 facet normal -0.516783 0.183167 -0.836293
  outer loop
   vertex 0.022612 0.205079 -0.035434
   vertex 0.020973 0.20245 -0.034997
   vertex 0.019848 0.205079 -0.033726
  endloop
 endfacet
 facet normal -0.644269 0.0913996 -0.759317
  outer loop
   vertex 0.020973 0.20245 -0.034997
   vertex 0.018696 0.20245 -0.033065
   vertex 0.019848 0.205079 -0.033726
  endloop
 endfacet
 facet normal -0.751958 0.169318 -0.637095
  outer loop
   vertex 0.019848 0.205079 -0.033726
   vertex 0.018696 0.20245 -0.033065
   vertex 0.017919 0.204839 -0.031513
  endloop
 endfacet
 facet normal -0.827124 0.091254 -0.554562
  outer loop
   vertex 0.018696 0.20245 -0.033065
   vertex 0.017286 0.20245 -0.030962
   vertex 0.017919 0.204839 -0.031513
  endloop
 endfacet
 facet normal -0.827124 -0.091254 -0.554562
  outer loop
   vertex 0.018696 0.20245 -0.033065
   vertex 0.017919 0.200061 -0.031513
   vertex 0.017286 0.20245 -0.030962
  endloop
 endfacet
 facet normal -0.644269 -0.0913996 -0.759317
  outer loop
   vertex 0.020973 0.20245 -0.034997
   vertex 0.019848 0.199821 -0.033726
   vertex 0.018696 0.20245 -0.033065
  endloop
 endfacet
 facet normal -0.390899 -0.0914587 -0.915878
  outer loop
   vertex 0.023719 0.20245 -0.036169
   vertex 0.022612 0.199821 -0.035434
   vertex 0.020973 0.20245 -0.034997
  endloop
 endfacet
 facet normal -0.751958 -0.169318 -0.637095
  outer loop
   vertex 0.018696 0.20245 -0.033065
   vertex 0.019848 0.199821 -0.033726
   vertex 0.017919 0.200061 -0.031513
  endloop
 endfacet
 facet normal -0.725985 -0.343961 -0.595514
  outer loop
   vertex 0.019848 0.199821 -0.033726
   vertex 0.019348 0.19745 -0.031747
   vertex 0.017919 0.200061 -0.031513
  endloop
 endfacet
 facet normal -0.516783 -0.183167 -0.836293
  outer loop
   vertex 0.020973 0.20245 -0.034997
   vertex 0.022612 0.199821 -0.035434
   vertex 0.019848 0.199821 -0.033726
  endloop
 endfacet
 facet normal -0.491058 -0.356895 -0.794662
  outer loop
   vertex 0.022612 0.199821 -0.035434
   vertex 0.021758 0.197193 -0.033726
   vertex 0.019848 0.199821 -0.033726
  endloop
 endfacet
 facet normal -0.598657 -0.435097 -0.672533
  outer loop
   vertex 0.019848 0.199821 -0.033726
   vertex 0.021758 0.197193 -0.033726
   vertex 0.019348 0.19745 -0.031747
  endloop
 endfacet
 facet normal -0.551379 -0.584158 -0.595601
  outer loop
   vertex 0.021758 0.197193 -0.033726
   vertex 0.02139 0.195284 -0.031513
   vertex 0.019348 0.19745 -0.031747
  endloop
 endfacet
 facet normal -0.233325 -0.169451 -0.957521
  outer loop
   vertex 0.023719 0.20245 -0.036169
   vertex 0.025454 0.200061 -0.036169
   vertex 0.022612 0.199821 -0.035434
  endloop
 endfacet
 facet normal -0.207851 -0.343516 -0.915858
  outer loop
   vertex 0.025454 0.200061 -0.036169
   vertex 0.024605 0.19745 -0.034997
   vertex 0.022612 0.199821 -0.035434
  endloop
 endfacet
 facet normal -0.334054 -0.43492 -0.836213
  outer loop
   vertex 0.022612 0.199821 -0.035434
   vertex 0.024605 0.19745 -0.034997
   vertex 0.021758 0.197193 -0.033726
  endloop
 endfacet
 facet normal -0.286233 -0.584386 -0.759318
  outer loop
   vertex 0.024605 0.19745 -0.034997
   vertex 0.023902 0.195284 -0.033065
   vertex 0.021758 0.197193 -0.033726
  endloop
 endfacet
 facet normal -0.393627 -0.662685 -0.637108
  outer loop
   vertex 0.021758 0.197193 -0.033726
   vertex 0.023902 0.195284 -0.033065
   vertex 0.02139 0.195284 -0.031513
  endloop
 endfacet
 facet normal -0.342493 -0.758552 -0.554344
  outer loop
   vertex 0.023902 0.195284 -0.033065
   vertex 0.023466 0.193944 -0.030962
   vertex 0.02139 0.195284 -0.031513
  endloop
 endfacet
 facet normal 0.723015 0.412034 -0.554506
  outer loop
   vertex 0.034357 0.205402 -0.031513
   vertex 0.032325 0.206879 -0.033065
   vertex 0.033466 0.207707 -0.030962
  endloop
 endfacet
 facet normal 0.789589 0.148568 -0.59538
  outer loop
   vertex 0.034736 0.20245 -0.031747
   vertex 0.032938 0.204075 -0.033726
   vertex 0.034357 0.205402 -0.031513
  endloop
 endfacet
 facet normal 0.789589 -0.148568 -0.59538
  outer loop
   vertex 0.034357 0.199498 -0.031513
   vertex 0.032938 0.200825 -0.033726
   vertex 0.034736 0.20245 -0.031747
  endloop
 endfacet
 facet normal 0.708089 0.304936 -0.636886
  outer loop
   vertex 0.034357 0.205402 -0.031513
   vertex 0.032938 0.204075 -0.033726
   vertex 0.032325 0.206879 -0.033065
  endloop
 endfacet
 facet normal 0.574948 0.304695 -0.759339
  outer loop
   vertex 0.032938 0.204075 -0.033726
   vertex 0.030483 0.20554 -0.034997
   vertex 0.032325 0.206879 -0.033065
  endloop
 endfacet
 facet normal 0.740143 0 -0.672449
  outer loop
   vertex 0.034736 0.20245 -0.031747
   vertex 0.032938 0.200825 -0.033726
   vertex 0.032938 0.204075 -0.033726
  endloop
 endfacet
 facet normal 0.607028 0 -0.794681
  outer loop
   vertex 0.032938 0.200825 -0.033726
   vertex 0.030702 0.20245 -0.035434
   vertex 0.032938 0.204075 -0.033726
  endloop
 endfacet
 facet normal 0.525774 0.155534 -0.836284
  outer loop
   vertex 0.032938 0.204075 -0.033726
   vertex 0.030702 0.20245 -0.035434
   vertex 0.030483 0.20554 -0.034997
  endloop
 endfacet
 facet normal 0.370096 0.155752 -0.915844
  outer loop
   vertex 0.030702 0.20245 -0.035434
   vertex 0.028262 0.203926 -0.036169
   vertex 0.030483 0.20554 -0.034997
  endloop
 endfacet
 facet normal 0.708089 -0.304936 -0.636886
  outer loop
   vertex 0.034357 0.199498 -0.031513
   vertex 0.032325 0.198021 -0.033065
   vertex 0.032938 0.200825 -0.033726
  endloop
 endfacet
 facet normal 0.574948 -0.304695 -0.759339
  outer loop
   vertex 0.032325 0.198021 -0.033065
   vertex 0.030483 0.19936 -0.034997
   vertex 0.032938 0.200825 -0.033726
  endloop
 endfacet
 facet normal 0.525774 -0.155534 -0.836284
  outer loop
   vertex 0.032938 0.200825 -0.033726
   vertex 0.030483 0.19936 -0.034997
   vertex 0.030702 0.20245 -0.035434
  endloop
 endfacet
 facet normal 0.370096 -0.155752 -0.915844
  outer loop
   vertex 0.030483 0.19936 -0.034997
   vertex 0.028262 0.200974 -0.036169
   vertex 0.030702 0.20245 -0.035434
  endloop
 endfacet
 facet normal 0.288428 0 -0.957502
  outer loop
   vertex 0.030702 0.20245 -0.035434
   vertex 0.028262 0.200974 -0.036169
   vertex 0.028262 0.203926 -0.036169
  endloop
 endfacet
 facet normal 0.156037 0 -0.987751
  outer loop
   vertex 0.028262 0.200974 -0.036169
   vertex 0.02623 0.20245 -0.03649
   vertex 0.028262 0.203926 -0.036169
  endloop
 endfacet
 facet normal -0.168666 -0.815046 -0.554303
  outer loop
   vertex 0.023902 0.195284 -0.033065
   vertex 0.025934 0.193808 -0.031513
   vertex 0.023466 0.193944 -0.030962
  endloop
 endfacet
 facet normal -0.112009 -0.640965 -0.759354
  outer loop
   vertex 0.024605 0.19745 -0.034997
   vertex 0.026758 0.195568 -0.033726
   vertex 0.023902 0.195284 -0.033065
  endloop
 endfacet
 facet normal -0.0336945 -0.400135 -0.915836
  outer loop
   vertex 0.025454 0.200061 -0.036169
   vertex 0.027612 0.198197 -0.035434
   vertex 0.024605 0.19745 -0.034997
  endloop
 endfacet
 facet normal -0.0710868 -0.767617 -0.636955
  outer loop
   vertex 0.023902 0.195284 -0.033065
   vertex 0.026758 0.195568 -0.033726
   vertex 0.025934 0.193808 -0.031513
  endloop
 endfacet
 facet normal 0.102735 -0.796801 -0.595444
  outer loop
   vertex 0.026758 0.195568 -0.033726
   vertex 0.028859 0.19436 -0.031747
   vertex 0.025934 0.193808 -0.031513
  endloop
 endfacet
 facet normal 0.0146149 -0.548074 -0.836302
  outer loop
   vertex 0.024605 0.19745 -0.034997
   vertex 0.027612 0.198197 -0.035434
   vertex 0.026758 0.195568 -0.033726
  endloop
 endfacet
 facet normal 0.187559 -0.577248 -0.794737
  outer loop
   vertex 0.027612 0.198197 -0.035434
   vertex 0.029848 0.196572 -0.033726
   vertex 0.026758 0.195568 -0.033726
  endloop
 endfacet
 facet normal 0.228709 -0.703897 -0.672474
  outer loop
   vertex 0.026758 0.195568 -0.033726
   vertex 0.029848 0.196572 -0.033726
   vertex 0.028859 0.19436 -0.031747
  endloop
 endfacet
 facet normal 0.38541 -0.704977 -0.595371
  outer loop
   vertex 0.029848 0.196572 -0.033726
   vertex 0.031549 0.195633 -0.031513
   vertex 0.028859 0.19436 -0.031747
  endloop
 endfacet
 facet normal 0.0891868 -0.274301 -0.957499
  outer loop
   vertex 0.025454 0.200061 -0.036169
   vertex 0.028262 0.200974 -0.036169
   vertex 0.027612 0.198197 -0.035434
  endloop
 endfacet
 facet normal 0.262485 -0.303841 -0.915851
  outer loop
   vertex 0.028262 0.200974 -0.036169
   vertex 0.030483 0.19936 -0.034997
   vertex 0.027612 0.198197 -0.035434
  endloop
 endfacet
 facet normal 0.310374 -0.451949 -0.836307
  outer loop
   vertex 0.027612 0.198197 -0.035434
   vertex 0.030483 0.19936 -0.034997
   vertex 0.029848 0.196572 -0.033726
  endloop
 endfacet
 facet normal 0.467426 -0.452641 -0.759361
  outer loop
   vertex 0.030483 0.19936 -0.034997
   vertex 0.032325 0.198021 -0.033065
   vertex 0.029848 0.196572 -0.033726
  endloop
 endfacet
 facet normal 0.508799 -0.579247 -0.636864
  outer loop
   vertex 0.029848 0.196572 -0.033726
   vertex 0.032325 0.198021 -0.033065
   vertex 0.031549 0.195633 -0.031513
  endloop
 endfacet
 facet normal 0.61533 -0.560308 -0.554459
  outer loop
   vertex 0.032325 0.198021 -0.033065
   vertex 0.033466 0.197193 -0.030962
   vertex 0.031549 0.195633 -0.031513
  endloop
 endfacet
endsolid ExportedfromBlender-3.5.1
