solid Exported from Blender-3.5.1
facet normal 0.187597 -0.577354 -0.794651
outer loop
vertex 0.000000 0.000000 -0.010000
vertex 0.007236 -0.005257 -0.004472
vertex -0.002764 -0.008506 -0.004472
endloop
endfacet
facet normal 0.607065 0.000000 -0.794652
outer loop
vertex 0.007236 -0.005257 -0.004472
vertex 0.000000 0.000000 -0.010000
vertex 0.007236 0.005257 -0.004472
endloop
endfacet
facet normal -0.491122 -0.356829 -0.794652
outer loop
vertex 0.000000 0.000000 -0.010000
vertex -0.002764 -0.008506 -0.004472
vertex -0.008944 0.000000 -0.004472
endloop
endfacet
facet normal -0.491122 0.356829 -0.794652
outer loop
vertex 0.000000 0.000000 -0.010000
vertex -0.008944 0.000000 -0.004472
vertex -0.002764 0.008506 -0.004472
endloop
endfacet
facet normal 0.187597 0.577354 -0.794651
outer loop
vertex 0.000000 0.000000 -0.010000
vertex -0.002764 0.008506 -0.004472
vertex 0.007236 0.005257 -0.004472
endloop
endfacet
facet normal 0.982246 0.000000 -0.187597
outer loop
vertex 0.007236 -0.005257 -0.004472
vertex 0.007236 0.005257 -0.004472
vertex 0.008944 0.000000 0.004472
endloop
endfacet
facet normal 0.303536 -0.934172 -0.187589
outer loop
vertex -0.002764 -0.008506 -0.004472
vertex 0.007236 -0.005257 -0.004472
vertex 0.002764 -0.008506 0.004472
endloop
endfacet
facet normal -0.794649 -0.577359 -0.187587
outer loop
vertex -0.008944 0.000000 -0.004472
vertex -0.002764 -0.008506 -0.004472
vertex -0.007236 -0.005257 0.004472
endloop
endfacet
facet normal -0.794649 0.577359 -0.187587
outer loop
vertex -0.002764 0.008506 -0.004472
vertex -0.008944 0.000000 -0.004472
vertex -0.007236 0.005257 0.004472
endloop
endfacet
facet normal 0.303536 0.934172 -0.187589
outer loop
vertex 0.007236 0.005257 -0.004472
vertex -0.002764 0.008506 -0.004472
vertex 0.002764 0.008506 0.004472
endloop
endfacet
facet normal 0.794649 -0.577359 0.187587
outer loop
vertex 0.007236 -0.005257 -0.004472
vertex 0.008944 0.000000 0.004472
vertex 0.002764 -0.008506 0.004472
endloop
endfacet
facet normal -0.303536 -0.934172 0.187589
outer loop
vertex -0.002764 -0.008506 -0.004472
vertex 0.002764 -0.008506 0.004472
vertex -0.007236 -0.005257 0.004472
endloop
endfacet
facet normal -0.982246 0.000000 0.187597
outer loop
vertex -0.008944 0.000000 -0.004472
vertex -0.007236 -0.005257 0.004472
vertex -0.007236 0.005257 0.004472
endloop
endfacet
facet normal -0.303536 0.934172 0.187589
outer loop
vertex -0.002764 0.008506 -0.004472
vertex -0.007236 0.005257 0.004472
vertex 0.002764 0.008506 0.004472
endloop
endfacet
facet normal 0.794649 0.577359 0.187587
outer loop
vertex 0.007236 0.005257 -0.004472
vertex 0.002764 0.008506 0.004472
vertex 0.008944 0.000000 0.004472
endloop
endfacet
facet normal 0.491122 -0.356829 0.794652
outer loop
vertex 0.002764 -0.008506 0.004472
vertex 0.008944 0.000000 0.004472
vertex 0.000000 0.000000 0.010000
endloop
endfacet
facet normal -0.187597 -0.577354 0.794651
outer loop
vertex -0.007236 -0.005257 0.004472
vertex 0.002764 -0.008506 0.004472
vertex 0.000000 0.000000 0.010000
endloop
endfacet
facet normal -0.607065 0.000000 0.794652
outer loop
vertex -0.007236 0.005257 0.004472
vertex -0.007236 -0.005257 0.004472
vertex 0.000000 0.000000 0.010000
endloop
endfacet
facet normal -0.187597 0.577354 0.794651
outer loop
vertex 0.002764 0.008506 0.004472
vertex -0.007236 0.005257 0.004472
vertex 0.000000 0.000000 0.010000
endloop
endfacet
facet normal 0.491122 0.356829 0.794652
outer loop
vertex 0.008944 0.000000 0.004472
vertex 0.002764 0.008506 0.004472
vertex 0.000000 0.000000 0.010000
endloop
endfacet
endsolid Exported from Blender-3.5.1
