solid ExportedfromBlender-3.5.1
 facet normal 0.0482486 -0.148392 -0.987751
  outer loop
   vertex -0.00048 0.19642 -0.03459
   vertex 0.001552 0.194944 -0.034269
   vertex -0.001256 0.194031 -0.034269
  endloop
 endfacet
 facet normal 0.723015 -0.412034 -0.554506
  outer loop
   vertex 0.006756 0.191163 -0.029062
   vertex 0.005615 0.191991 -0.031165
   vertex 0.007647 0.193468 -0.029613
  endloop
 endfacet
 facet normal -0.126271 -0.0917039 -0.987748
  outer loop
   vertex -0.00048 0.19642 -0.03459
   vertex -0.001256 0.194031 -0.034269
   vertex -0.002991 0.19642 -0.034269
  endloop
 endfacet
 facet normal -0.126271 0.0917039 -0.987748
  outer loop
   vertex -0.00048 0.19642 -0.03459
   vertex -0.002991 0.19642 -0.034269
   vertex -0.001256 0.198809 -0.034269
  endloop
 endfacet
 facet normal 0.0482486 0.148392 -0.987751
  outer loop
   vertex -0.00048 0.19642 -0.03459
   vertex -0.001256 0.198809 -0.034269
   vertex 0.001552 0.197896 -0.034269
  endloop
 endfacet
 facet normal 0.819189 -0.412026 -0.398954
  outer loop
   vertex 0.006756 0.191163 -0.029062
   vertex 0.007647 0.193468 -0.029613
   vertex 0.008127 0.191991 -0.027102
  endloop
 endfacet
 facet normal -0.138975 -0.90647 -0.398746
  outer loop
   vertex -0.003244 0.187914 -0.029062
   vertex -0.000776 0.187778 -0.029613
   vertex -0.002032 0.186866 -0.027102
  endloop
 endfacet
 facet normal -0.905177 -0.147939 -0.398459
  outer loop
   vertex -0.009424 0.19642 -0.029062
   vertex -0.008791 0.194031 -0.029613
   vertex -0.010046 0.194944 -0.027101
  endloop
 endfacet
 facet normal -0.420269 0.815078 -0.398776
  outer loop
   vertex -0.003244 0.204926 -0.029062
   vertex -0.00532 0.203586 -0.029613
   vertex -0.00484 0.205062 -0.027102
  endloop
 endfacet
 facet normal 0.645038 0.651744 -0.398942
  outer loop
   vertex 0.006756 0.201677 -0.029062
   vertex 0.004839 0.203237 -0.029613
   vertex 0.006392 0.203237 -0.027102
  endloop
 endfacet
 facet normal 0.771063 -0.560215 -0.302688
  outer loop
   vertex 0.006756 0.191163 -0.029062
   vertex 0.008127 0.191991 -0.027102
   vertex 0.006392 0.189603 -0.027102
  endloop
 endfacet
 facet normal -0.294416 -0.906493 -0.302638
  outer loop
   vertex -0.003244 0.187914 -0.029062
   vertex -0.002032 0.186866 -0.027102
   vertex -0.00484 0.187778 -0.027102
  endloop
 endfacet
 facet normal -0.9532 0 -0.302341
  outer loop
   vertex -0.009424 0.19642 -0.029062
   vertex -0.010046 0.194944 -0.027101
   vertex -0.010046 0.197896 -0.027101
  endloop
 endfacet
 facet normal -0.294416 0.906493 -0.302638
  outer loop
   vertex -0.003244 0.204926 -0.029062
   vertex -0.00484 0.205062 -0.027102
   vertex -0.002032 0.205974 -0.027102
  endloop
 endfacet
 facet normal 0.771063 0.560215 -0.302688
  outer loop
   vertex 0.006756 0.201677 -0.029062
   vertex 0.006392 0.203237 -0.027102
   vertex 0.008127 0.200849 -0.027102
  endloop
 endfacet
 facet normal 0.342493 -0.758552 0.554344
  outer loop
   vertex 0.002284 0.187914 -0.020118
   vertex 0.00436 0.189254 -0.019567
   vertex 0.001848 0.189254 -0.018015
  endloop
 endfacet
 facet normal -0.61533 -0.560308 0.554459
  outer loop
   vertex -0.007716 0.191163 -0.020118
   vertex -0.005799 0.189603 -0.019567
   vertex -0.006575 0.191991 -0.018015
  endloop
 endfacet
 facet normal -0.723015 0.412034 0.554506
  outer loop
   vertex -0.007716 0.201677 -0.020118
   vertex -0.008607 0.199372 -0.019567
   vertex -0.006575 0.200849 -0.018015
  endloop
 endfacet
 facet normal 0.168666 0.815046 0.554303
  outer loop
   vertex 0.002284 0.204926 -0.020118
   vertex -0.000184 0.205062 -0.019567
   vertex 0.001848 0.203586 -0.018015
  endloop
 endfacet
 facet normal 0.827124 0.091254 0.554562
  outer loop
   vertex 0.008464 0.19642 -0.020118
   vertex 0.007831 0.198809 -0.019567
   vertex 0.007054 0.19642 -0.018015
  endloop
 endfacet
 facet normal 0.126271 0.0917039 0.987748
  outer loop
   vertex 0.002031 0.19642 -0.014911
   vertex 0.000296 0.198809 -0.014911
   vertex -0.00048 0.19642 -0.01459
  endloop
 endfacet
 facet normal 0.390899 0.0914587 0.915878
  outer loop
   vertex 0.004777 0.19642 -0.016083
   vertex 0.003138 0.199049 -0.015646
   vertex 0.002031 0.19642 -0.014911
  endloop
 endfacet
 facet normal 0.644269 0.0913996 0.759317
  outer loop
   vertex 0.007054 0.19642 -0.018015
   vertex 0.005902 0.199049 -0.017354
   vertex 0.004777 0.19642 -0.016083
  endloop
 endfacet
 facet normal 0.233325 0.169451 0.957521
  outer loop
   vertex 0.002031 0.19642 -0.014911
   vertex 0.003138 0.199049 -0.015646
   vertex 0.000296 0.198809 -0.014911
  endloop
 endfacet
 facet normal 0.207851 0.343516 0.915858
  outer loop
   vertex 0.003138 0.199049 -0.015646
   vertex 0.001145 0.20142 -0.016083
   vertex 0.000296 0.198809 -0.014911
  endloop
 endfacet
 facet normal 0.516783 0.183167 0.836293
  outer loop
   vertex 0.004777 0.19642 -0.016083
   vertex 0.005902 0.199049 -0.017354
   vertex 0.003138 0.199049 -0.015646
  endloop
 endfacet
 facet normal 0.491058 0.356895 0.794662
  outer loop
   vertex 0.005902 0.199049 -0.017354
   vertex 0.003992 0.201677 -0.017354
   vertex 0.003138 0.199049 -0.015646
  endloop
 endfacet
 facet normal 0.334054 0.43492 0.836213
  outer loop
   vertex 0.003138 0.199049 -0.015646
   vertex 0.003992 0.201677 -0.017354
   vertex 0.001145 0.20142 -0.016083
  endloop
 endfacet
 facet normal 0.286233 0.584386 0.759318
  outer loop
   vertex 0.003992 0.201677 -0.017354
   vertex 0.001848 0.203586 -0.018015
   vertex 0.001145 0.20142 -0.016083
  endloop
 endfacet
 facet normal 0.751958 0.169318 0.637095
  outer loop
   vertex 0.007054 0.19642 -0.018015
   vertex 0.007831 0.198809 -0.019567
   vertex 0.005902 0.199049 -0.017354
  endloop
 endfacet
 facet normal 0.725985 0.343961 0.595514
  outer loop
   vertex 0.007831 0.198809 -0.019567
   vertex 0.006402 0.20142 -0.019333
   vertex 0.005902 0.199049 -0.017354
  endloop
 endfacet
 facet normal 0.598657 0.435097 0.672533
  outer loop
   vertex 0.005902 0.199049 -0.017354
   vertex 0.006402 0.20142 -0.019333
   vertex 0.003992 0.201677 -0.017354
  endloop
 endfacet
 facet normal 0.551379 0.584158 0.595601
  outer loop
   vertex 0.006402 0.20142 -0.019333
   vertex 0.00436 0.203586 -0.019567
   vertex 0.003992 0.201677 -0.017354
  endloop
 endfacet
 facet normal 0.393627 0.662685 0.637108
  outer loop
   vertex 0.003992 0.201677 -0.017354
   vertex 0.00436 0.203586 -0.019567
   vertex 0.001848 0.203586 -0.018015
  endloop
 endfacet
 facet normal 0.342493 0.758552 0.554344
  outer loop
   vertex 0.00436 0.203586 -0.019567
   vertex 0.002284 0.204926 -0.020118
   vertex 0.001848 0.203586 -0.018015
  endloop
 endfacet
 facet normal -0.0482486 0.148392 0.987751
  outer loop
   vertex 0.000296 0.198809 -0.014911
   vertex -0.002512 0.197896 -0.014911
   vertex -0.00048 0.19642 -0.01459
  endloop
 endfacet
 facet normal 0.0336945 0.400135 0.915836
  outer loop
   vertex 0.001145 0.20142 -0.016083
   vertex -0.001862 0.200673 -0.015646
   vertex 0.000296 0.198809 -0.014911
  endloop
 endfacet
 facet normal 0.112009 0.640965 0.759354
  outer loop
   vertex 0.001848 0.203586 -0.018015
   vertex -0.001008 0.203302 -0.017354
   vertex 0.001145 0.20142 -0.016083
  endloop
 endfacet
 facet normal -0.0891868 0.274301 0.957499
  outer loop
   vertex 0.000296 0.198809 -0.014911
   vertex -0.001862 0.200673 -0.015646
   vertex -0.002512 0.197896 -0.014911
  endloop
 endfacet
 facet normal -0.262485 0.303841 0.915851
  outer loop
   vertex -0.001862 0.200673 -0.015646
   vertex -0.004733 0.19951 -0.016083
   vertex -0.002512 0.197896 -0.014911
  endloop
 endfacet
 facet normal -0.0146149 0.548074 0.836302
  outer loop
   vertex 0.001145 0.20142 -0.016083
   vertex -0.001008 0.203302 -0.017354
   vertex -0.001862 0.200673 -0.015646
  endloop
 endfacet
 facet normal -0.187559 0.577248 0.794737
  outer loop
   vertex -0.001008 0.203302 -0.017354
   vertex -0.004098 0.202298 -0.017354
   vertex -0.001862 0.200673 -0.015646
  endloop
 endfacet
 facet normal -0.310374 0.451949 0.836307
  outer loop
   vertex -0.001862 0.200673 -0.015646
   vertex -0.004098 0.202298 -0.017354
   vertex -0.004733 0.19951 -0.016083
  endloop
 endfacet
 facet normal -0.467426 0.452641 0.759361
  outer loop
   vertex -0.004098 0.202298 -0.017354
   vertex -0.006575 0.200849 -0.018015
   vertex -0.004733 0.19951 -0.016083
  endloop
 endfacet
 facet normal 0.0710868 0.767617 0.636955
  outer loop
   vertex 0.001848 0.203586 -0.018015
   vertex -0.000184 0.205062 -0.019567
   vertex -0.001008 0.203302 -0.017354
  endloop
 endfacet
 facet normal -0.102735 0.796801 0.595444
  outer loop
   vertex -0.000184 0.205062 -0.019567
   vertex -0.003109 0.20451 -0.019333
   vertex -0.001008 0.203302 -0.017354
  endloop
 endfacet
 facet normal -0.228709 0.703897 0.672474
  outer loop
   vertex -0.001008 0.203302 -0.017354
   vertex -0.003109 0.20451 -0.019333
   vertex -0.004098 0.202298 -0.017354
  endloop
 endfacet
 facet normal -0.38541 0.704977 0.595371
  outer loop
   vertex -0.003109 0.20451 -0.019333
   vertex -0.005799 0.203237 -0.019567
   vertex -0.004098 0.202298 -0.017354
  endloop
 endfacet
 facet normal -0.508799 0.579247 0.636864
  outer loop
   vertex -0.004098 0.202298 -0.017354
   vertex -0.005799 0.203237 -0.019567
   vertex -0.006575 0.200849 -0.018015
  endloop
 endfacet
 facet normal -0.61533 0.560308 0.554459
  outer loop
   vertex -0.005799 0.203237 -0.019567
   vertex -0.007716 0.201677 -0.020118
   vertex -0.006575 0.200849 -0.018015
  endloop
 endfacet
 facet normal -0.156037 0 0.987751
  outer loop
   vertex -0.002512 0.197896 -0.014911
   vertex -0.002512 0.194944 -0.014911
   vertex -0.00048 0.19642 -0.01459
  endloop
 endfacet
 facet normal -0.370096 0.155752 0.915844
  outer loop
   vertex -0.004733 0.19951 -0.016083
   vertex -0.004952 0.19642 -0.015646
   vertex -0.002512 0.197896 -0.014911
  endloop
 endfacet
 facet normal -0.574948 0.304695 0.759339
  outer loop
   vertex -0.006575 0.200849 -0.018015
   vertex -0.007188 0.198045 -0.017354
   vertex -0.004733 0.19951 -0.016083
  endloop
 endfacet
 facet normal -0.288428 0 0.957502
  outer loop
   vertex -0.002512 0.197896 -0.014911
   vertex -0.004952 0.19642 -0.015646
   vertex -0.002512 0.194944 -0.014911
  endloop
 endfacet
 facet normal -0.370096 -0.155752 0.915844
  outer loop
   vertex -0.004952 0.19642 -0.015646
   vertex -0.004733 0.19333 -0.016083
   vertex -0.002512 0.194944 -0.014911
  endloop
 endfacet
 facet normal -0.525774 0.155534 0.836284
  outer loop
   vertex -0.004733 0.19951 -0.016083
   vertex -0.007188 0.198045 -0.017354
   vertex -0.004952 0.19642 -0.015646
  endloop
 endfacet
 facet normal -0.607028 0 0.794681
  outer loop
   vertex -0.007188 0.198045 -0.017354
   vertex -0.007188 0.194795 -0.017354
   vertex -0.004952 0.19642 -0.015646
  endloop
 endfacet
 facet normal -0.525774 -0.155534 0.836284
  outer loop
   vertex -0.004952 0.19642 -0.015646
   vertex -0.007188 0.194795 -0.017354
   vertex -0.004733 0.19333 -0.016083
  endloop
 endfacet
 facet normal -0.574948 -0.304695 0.759339
  outer loop
   vertex -0.007188 0.194795 -0.017354
   vertex -0.006575 0.191991 -0.018015
   vertex -0.004733 0.19333 -0.016083
  endloop
 endfacet
 facet normal -0.708089 0.304936 0.636886
  outer loop
   vertex -0.006575 0.200849 -0.018015
   vertex -0.008607 0.199372 -0.019567
   vertex -0.007188 0.198045 -0.017354
  endloop
 endfacet
 facet normal -0.789589 0.148568 0.59538
  outer loop
   vertex -0.008607 0.199372 -0.019567
   vertex -0.008986 0.19642 -0.019333
   vertex -0.007188 0.198045 -0.017354
  endloop
 endfacet
 facet normal -0.740143 0 0.672449
  outer loop
   vertex -0.007188 0.198045 -0.017354
   vertex -0.008986 0.19642 -0.019333
   vertex -0.007188 0.194795 -0.017354
  endloop
 endfacet
 facet normal -0.789589 -0.148568 0.59538
  outer loop
   vertex -0.008986 0.19642 -0.019333
   vertex -0.008607 0.193468 -0.019567
   vertex -0.007188 0.194795 -0.017354
  endloop
 endfacet
 facet normal -0.708089 -0.304936 0.636886
  outer loop
   vertex -0.007188 0.194795 -0.017354
   vertex -0.008607 0.193468 -0.019567
   vertex -0.006575 0.191991 -0.018015
  endloop
 endfacet
 facet normal -0.723015 -0.412034 0.554506
  outer loop
   vertex -0.008607 0.193468 -0.019567
   vertex -0.007716 0.191163 -0.020118
   vertex -0.006575 0.191991 -0.018015
  endloop
 endfacet
 facet normal -0.0482486 -0.148392 0.987751
  outer loop
   vertex -0.002512 0.194944 -0.014911
   vertex 0.000296 0.194031 -0.014911
   vertex -0.00048 0.19642 -0.01459
  endloop
 endfacet
 facet normal -0.262485 -0.303841 0.915851
  outer loop
   vertex -0.004733 0.19333 -0.016083
   vertex -0.001862 0.192167 -0.015646
   vertex -0.002512 0.194944 -0.014911
  endloop
 endfacet
 facet normal -0.467426 -0.452641 0.759361
  outer loop
   vertex -0.006575 0.191991 -0.018015
   vertex -0.004098 0.190542 -0.017354
   vertex -0.004733 0.19333 -0.016083
  endloop
 endfacet
 facet normal -0.0891868 -0.274301 0.957499
  outer loop
   vertex -0.002512 0.194944 -0.014911
   vertex -0.001862 0.192167 -0.015646
   vertex 0.000296 0.194031 -0.014911
  endloop
 endfacet
 facet normal 0.0336945 -0.400135 0.915836
  outer loop
   vertex -0.001862 0.192167 -0.015646
   vertex 0.001145 0.19142 -0.016083
   vertex 0.000296 0.194031 -0.014911
  endloop
 endfacet
 facet normal -0.310374 -0.451949 0.836307
  outer loop
   vertex -0.004733 0.19333 -0.016083
   vertex -0.004098 0.190542 -0.017354
   vertex -0.001862 0.192167 -0.015646
  endloop
 endfacet
 facet normal -0.187559 -0.577248 0.794737
  outer loop
   vertex -0.004098 0.190542 -0.017354
   vertex -0.001008 0.189538 -0.017354
   vertex -0.001862 0.192167 -0.015646
  endloop
 endfacet
 facet normal -0.0146149 -0.548074 0.836302
  outer loop
   vertex -0.001862 0.192167 -0.015646
   vertex -0.001008 0.189538 -0.017354
   vertex 0.001145 0.19142 -0.016083
  endloop
 endfacet
 facet normal 0.112009 -0.640965 0.759354
  outer loop
   vertex -0.001008 0.189538 -0.017354
   vertex 0.001848 0.189254 -0.018015
   vertex 0.001145 0.19142 -0.016083
  endloop
 endfacet
 facet normal -0.508799 -0.579247 0.636864
  outer loop
   vertex -0.006575 0.191991 -0.018015
   vertex -0.005799 0.189603 -0.019567
   vertex -0.004098 0.190542 -0.017354
  endloop
 endfacet
 facet normal -0.38541 -0.704977 0.595371
  outer loop
   vertex -0.005799 0.189603 -0.019567
   vertex -0.003109 0.18833 -0.019333
   vertex -0.004098 0.190542 -0.017354
  endloop
 endfacet
 facet normal -0.228709 -0.703897 0.672474
  outer loop
   vertex -0.004098 0.190542 -0.017354
   vertex -0.003109 0.18833 -0.019333
   vertex -0.001008 0.189538 -0.017354
  endloop
 endfacet
 facet normal -0.102735 -0.796801 0.595444
  outer loop
   vertex -0.003109 0.18833 -0.019333
   vertex -0.000184 0.187778 -0.019567
   vertex -0.001008 0.189538 -0.017354
  endloop
 endfacet
 facet normal 0.0710868 -0.767617 0.636955
  outer loop
   vertex -0.001008 0.189538 -0.017354
   vertex -0.000184 0.187778 -0.019567
   vertex 0.001848 0.189254 -0.018015
  endloop
 endfacet
 facet normal 0.168666 -0.815046 0.554303
  outer loop
   vertex -0.000184 0.187778 -0.019567
   vertex 0.002284 0.187914 -0.020118
   vertex 0.001848 0.189254 -0.018015
  endloop
 endfacet
 facet normal 0.126271 -0.0917039 0.987748
  outer loop
   vertex 0.000296 0.194031 -0.014911
   vertex 0.002031 0.19642 -0.014911
   vertex -0.00048 0.19642 -0.01459
  endloop
 endfacet
 facet normal 0.207851 -0.343516 0.915858
  outer loop
   vertex 0.001145 0.19142 -0.016083
   vertex 0.003138 0.193791 -0.015646
   vertex 0.000296 0.194031 -0.014911
  endloop
 endfacet
 facet normal 0.286233 -0.584386 0.759318
  outer loop
   vertex 0.001848 0.189254 -0.018015
   vertex 0.003992 0.191163 -0.017354
   vertex 0.001145 0.19142 -0.016083
  endloop
 endfacet
 facet normal 0.233325 -0.169451 0.957521
  outer loop
   vertex 0.000296 0.194031 -0.014911
   vertex 0.003138 0.193791 -0.015646
   vertex 0.002031 0.19642 -0.014911
  endloop
 endfacet
 facet normal 0.390899 -0.0914587 0.915878
  outer loop
   vertex 0.003138 0.193791 -0.015646
   vertex 0.004777 0.19642 -0.016083
   vertex 0.002031 0.19642 -0.014911
  endloop
 endfacet
 facet normal 0.334054 -0.43492 0.836213
  outer loop
   vertex 0.001145 0.19142 -0.016083
   vertex 0.003992 0.191163 -0.017354
   vertex 0.003138 0.193791 -0.015646
  endloop
 endfacet
 facet normal 0.491058 -0.356895 0.794662
  outer loop
   vertex 0.003992 0.191163 -0.017354
   vertex 0.005902 0.193791 -0.017354
   vertex 0.003138 0.193791 -0.015646
  endloop
 endfacet
 facet normal 0.516783 -0.183167 0.836293
  outer loop
   vertex 0.003138 0.193791 -0.015646
   vertex 0.005902 0.193791 -0.017354
   vertex 0.004777 0.19642 -0.016083
  endloop
 endfacet
 facet normal 0.644269 -0.0913996 0.759317
  outer loop
   vertex 0.005902 0.193791 -0.017354
   vertex 0.007054 0.19642 -0.018015
   vertex 0.004777 0.19642 -0.016083
  endloop
 endfacet
 facet normal 0.393627 -0.662685 0.637108
  outer loop
   vertex 0.001848 0.189254 -0.018015
   vertex 0.00436 0.189254 -0.019567
   vertex 0.003992 0.191163 -0.017354
  endloop
 endfacet
 facet normal 0.551379 -0.584158 0.595601
  outer loop
   vertex 0.00436 0.189254 -0.019567
   vertex 0.006402 0.19142 -0.019333
   vertex 0.003992 0.191163 -0.017354
  endloop
 endfacet
 facet normal 0.598657 -0.435097 0.672533
  outer loop
   vertex 0.003992 0.191163 -0.017354
   vertex 0.006402 0.19142 -0.019333
   vertex 0.005902 0.193791 -0.017354
  endloop
 endfacet
 facet normal 0.725985 -0.343961 0.595514
  outer loop
   vertex 0.006402 0.19142 -0.019333
   vertex 0.007831 0.194031 -0.019567
   vertex 0.005902 0.193791 -0.017354
  endloop
 endfacet
 facet normal 0.751958 -0.169318 0.637095
  outer loop
   vertex 0.005902 0.193791 -0.017354
   vertex 0.007831 0.194031 -0.019567
   vertex 0.007054 0.19642 -0.018015
  endloop
 endfacet
 facet normal 0.827124 -0.091254 0.554562
  outer loop
   vertex 0.007831 0.194031 -0.019567
   vertex 0.008464 0.19642 -0.020118
   vertex 0.007054 0.19642 -0.018015
  endloop
 endfacet
 facet normal 0.905177 0.147939 0.398459
  outer loop
   vertex 0.009086 0.197896 -0.022079
   vertex 0.007831 0.198809 -0.019567
   vertex 0.008464 0.19642 -0.020118
  endloop
 endfacet
 facet normal 0.93657 0.303801 0.17476
  outer loop
   vertex 0.009031 0.19951 -0.02459
   vertex 0.008138 0.200673 -0.021826
   vertex 0.009086 0.197896 -0.022079
  endloop
 endfacet
 facet normal 0.888212 0.452708 -0.078331
  outer loop
   vertex 0.008127 0.200849 -0.027102
   vertex 0.00761 0.202298 -0.02459
   vertex 0.009031 0.19951 -0.02459
  endloop
 endfacet
 facet normal 0.89641 0.274294 0.348155
  outer loop
   vertex 0.009086 0.197896 -0.022079
   vertex 0.008138 0.200673 -0.021826
   vertex 0.007831 0.198809 -0.019567
  endloop
 endfacet
 facet normal 0.803858 0.400541 0.439749
  outer loop
   vertex 0.008138 0.200673 -0.021826
   vertex 0.006402 0.20142 -0.019333
   vertex 0.007831 0.198809 -0.019567
  endloop
 endfacet
 facet normal 0.886806 0.451991 0.0963284
  outer loop
   vertex 0.009031 0.19951 -0.02459
   vertex 0.00761 0.202298 -0.02459
   vertex 0.008138 0.200673 -0.021826
  endloop
 endfacet
 facet normal 0.794662 0.577331 0.18762
  outer loop
   vertex 0.00761 0.202298 -0.02459
   vertex 0.006228 0.203302 -0.021826
   vertex 0.008138 0.200673 -0.021826
  endloop
 endfacet
 facet normal 0.754436 0.548107 0.361117
  outer loop
   vertex 0.008138 0.200673 -0.021826
   vertex 0.006228 0.203302 -0.021826
   vertex 0.006402 0.20142 -0.019333
  endloop
 endfacet
 facet normal 0.629279 0.640767 0.439803
  outer loop
   vertex 0.006228 0.203302 -0.021826
   vertex 0.00436 0.203586 -0.019567
   vertex 0.006402 0.20142 -0.019333
  endloop
 endfacet
 facet normal 0.797233 0.579229 -0.170037
  outer loop
   vertex 0.008127 0.200849 -0.027102
   vertex 0.006392 0.203237 -0.027102
   vertex 0.00761 0.202298 -0.02459
  endloop
 endfacet
 facet normal 0.704936 0.704936 -0.0782949
  outer loop
   vertex 0.006392 0.203237 -0.027102
   vertex 0.005398 0.20451 -0.02459
   vertex 0.00761 0.202298 -0.02459
  endloop
 endfacet
 facet normal 0.703824 0.703824 0.0962537
  outer loop
   vertex 0.00761 0.202298 -0.02459
   vertex 0.005398 0.20451 -0.02459
   vertex 0.006228 0.203302 -0.021826
  endloop
 endfacet
 facet normal 0.578519 0.796783 0.174509
  outer loop
   vertex 0.005398 0.20451 -0.02459
   vertex 0.00388 0.205062 -0.022078
   vertex 0.006228 0.203302 -0.021826
  endloop
 endfacet
 facet normal 0.537986 0.767602 0.348366
  outer loop
   vertex 0.006228 0.203302 -0.021826
   vertex 0.00388 0.205062 -0.022078
   vertex 0.00436 0.203586 -0.019567
  endloop
 endfacet
 facet normal 0.420269 0.815078 0.398776
  outer loop
   vertex 0.00388 0.205062 -0.022078
   vertex 0.002284 0.204926 -0.020118
   vertex 0.00436 0.203586 -0.019567
  endloop
 endfacet
 facet normal 0.138975 0.90647 0.398746
  outer loop
   vertex 0.001072 0.205974 -0.022078
   vertex -0.000184 0.205062 -0.019567
   vertex 0.002284 0.204926 -0.020118
  endloop
 endfacet
 facet normal 0.000555151 0.98466 0.174481
  outer loop
   vertex -0.00048 0.20642 -0.02459
   vertex -0.001862 0.205931 -0.021826
   vertex 0.001072 0.205974 -0.022078
  endloop
 endfacet
 facet normal -0.155824 0.984657 -0.07855
  outer loop
   vertex -0.002032 0.205974 -0.027102
   vertex -0.00357 0.205931 -0.02459
   vertex -0.00048 0.20642 -0.02459
  endloop
 endfacet
 facet normal 0.0161962 0.937175 0.348485
  outer loop
   vertex 0.001072 0.205974 -0.022078
   vertex -0.001862 0.205931 -0.021826
   vertex -0.000184 0.205062 -0.019567
  endloop
 endfacet
 facet normal -0.132412 0.888171 0.440021
  outer loop
   vertex -0.001862 0.205931 -0.021826
   vertex -0.003109 0.20451 -0.019333
   vertex -0.000184 0.205062 -0.019567
  endloop
 endfacet
 facet normal -0.155583 0.983133 0.0961419
  outer loop
   vertex -0.00048 0.20642 -0.02459
   vertex -0.00357 0.205931 -0.02459
   vertex -0.001862 0.205931 -0.021826
  endloop
 endfacet
 facet normal -0.303796 0.934059 0.187729
  outer loop
   vertex -0.00357 0.205931 -0.02459
   vertex -0.004952 0.204926 -0.021826
   vertex -0.001862 0.205931 -0.021826
  endloop
 endfacet
 facet normal -0.288415 0.886769 0.361189
  outer loop
   vertex -0.001862 0.205931 -0.021826
   vertex -0.004952 0.204926 -0.021826
   vertex -0.003109 0.20451 -0.019333
  endloop
 endfacet
 facet normal -0.415138 0.796394 0.439791
  outer loop
   vertex -0.004952 0.204926 -0.021826
   vertex -0.005799 0.203237 -0.019567
   vertex -0.003109 0.20451 -0.019333
  endloop
 endfacet
 facet normal -0.304389 0.937197 -0.170322
  outer loop
   vertex -0.002032 0.205974 -0.027102
   vertex -0.00484 0.205062 -0.027102
   vertex -0.00357 0.205931 -0.02459
  endloop
 endfacet
 facet normal -0.452705 0.888208 -0.0783901
  outer loop
   vertex -0.00484 0.205062 -0.027102
   vertex -0.006358 0.20451 -0.02459
   vertex -0.00357 0.205931 -0.02459
  endloop
 endfacet
 facet normal -0.451986 0.886796 0.0964489
  outer loop
   vertex -0.00357 0.205931 -0.02459
   vertex -0.006358 0.20451 -0.02459
   vertex -0.004952 0.204926 -0.021826
  endloop
 endfacet
 facet normal -0.578874 0.796508 0.174584
  outer loop
   vertex -0.006358 0.20451 -0.02459
   vertex -0.007352 0.203237 -0.022078
   vertex -0.004952 0.204926 -0.021826
  endloop
 endfacet
 facet normal -0.563623 0.748876 0.348589
  outer loop
   vertex -0.004952 0.204926 -0.021826
   vertex -0.007352 0.203237 -0.022078
   vertex -0.005799 0.203237 -0.019567
  endloop
 endfacet
 facet normal -0.645038 0.651744 0.398942
  outer loop
   vertex -0.007352 0.203237 -0.022078
   vertex -0.007716 0.201677 -0.020118
   vertex -0.005799 0.203237 -0.019567
  endloop
 endfacet
 facet normal -0.819189 0.412026 0.398954
  outer loop
   vertex -0.009087 0.200849 -0.022078
   vertex -0.008607 0.199372 -0.019567
   vertex -0.007716 0.201677 -0.020118
  endloop
 endfacet
 facet normal -0.936352 0.304548 0.174631
  outer loop
   vertex -0.009991 0.19951 -0.02459
   vertex -0.009952 0.198045 -0.021826
   vertex -0.009087 0.200849 -0.022078
  endloop
 endfacet
 facet normal -0.984653 0.155824 -0.0785916
  outer loop
   vertex -0.010046 0.197896 -0.027101
   vertex -0.01048 0.19642 -0.02459
   vertex -0.009991 0.19951 -0.02459
  endloop
 endfacet
 facet normal -0.886309 0.304753 0.348685
  outer loop
   vertex -0.009087 0.200849 -0.022078
   vertex -0.009952 0.198045 -0.021826
   vertex -0.008607 0.199372 -0.019567
  endloop
 endfacet
 facet normal -0.885615 0.148581 0.440011
  outer loop
   vertex -0.009952 0.198045 -0.021826
   vertex -0.008986 0.19642 -0.019333
   vertex -0.008607 0.199372 -0.019567
  endloop
 endfacet
 facet normal -0.983115 0.15558 0.0963335
  outer loop
   vertex -0.009991 0.19951 -0.02459
   vertex -0.01048 0.19642 -0.02459
   vertex -0.009952 0.198045 -0.021826
  endloop
 endfacet
 facet normal -0.982239 0 0.187634
  outer loop
   vertex -0.01048 0.19642 -0.02459
   vertex -0.009952 0.194795 -0.021826
   vertex -0.009952 0.198045 -0.021826
  endloop
 endfacet
 facet normal -0.932446 0 0.361309
  outer loop
   vertex -0.009952 0.198045 -0.021826
   vertex -0.009952 0.194795 -0.021826
   vertex -0.008986 0.19642 -0.019333
  endloop
 endfacet
 facet normal -0.885615 -0.148581 0.440011
  outer loop
   vertex -0.009952 0.194795 -0.021826
   vertex -0.008607 0.193468 -0.019567
   vertex -0.008986 0.19642 -0.019333
  endloop
 endfacet
 facet normal -0.98539 -0 -0.170314
  outer loop
   vertex -0.010046 0.197896 -0.027101
   vertex -0.010046 0.194944 -0.027101
   vertex -0.01048 0.19642 -0.02459
  endloop
 endfacet
 facet normal -0.984653 -0.155824 -0.0785916
  outer loop
   vertex -0.010046 0.194944 -0.027101
   vertex -0.009991 0.19333 -0.02459
   vertex -0.01048 0.19642 -0.02459
  endloop
 endfacet
 facet normal -0.983115 -0.15558 0.0963335
  outer loop
   vertex -0.01048 0.19642 -0.02459
   vertex -0.009991 0.19333 -0.02459
   vertex -0.009952 0.194795 -0.021826
  endloop
 endfacet
 facet normal -0.936352 -0.304548 0.174631
  outer loop
   vertex -0.009991 0.19333 -0.02459
   vertex -0.009087 0.191991 -0.022078
   vertex -0.009952 0.194795 -0.021826
  endloop
 endfacet
 facet normal -0.886309 -0.304753 0.348685
  outer loop
   vertex -0.009952 0.194795 -0.021826
   vertex -0.009087 0.191991 -0.022078
   vertex -0.008607 0.193468 -0.019567
  endloop
 endfacet
 facet normal -0.819189 -0.412026 0.398954
  outer loop
   vertex -0.009087 0.191991 -0.022078
   vertex -0.007716 0.191163 -0.020118
   vertex -0.008607 0.193468 -0.019567
  endloop
 endfacet
 facet normal -0.645038 -0.651744 0.398942
  outer loop
   vertex -0.007352 0.189603 -0.022078
   vertex -0.005799 0.189603 -0.019567
   vertex -0.007716 0.191163 -0.020118
  endloop
 endfacet
 facet normal -0.578874 -0.796508 0.174584
  outer loop
   vertex -0.006358 0.18833 -0.02459
   vertex -0.004952 0.187914 -0.021826
   vertex -0.007352 0.189603 -0.022078
  endloop
 endfacet
 facet normal -0.452705 -0.888208 -0.0783901
  outer loop
   vertex -0.00484 0.187778 -0.027102
   vertex -0.00357 0.186909 -0.02459
   vertex -0.006358 0.18833 -0.02459
  endloop
 endfacet
 facet normal -0.563623 -0.748876 0.348589
  outer loop
   vertex -0.007352 0.189603 -0.022078
   vertex -0.004952 0.187914 -0.021826
   vertex -0.005799 0.189603 -0.019567
  endloop
 endfacet
 facet normal -0.415138 -0.796394 0.439791
  outer loop
   vertex -0.004952 0.187914 -0.021826
   vertex -0.003109 0.18833 -0.019333
   vertex -0.005799 0.189603 -0.019567
  endloop
 endfacet
 facet normal -0.451986 -0.886796 0.0964489
  outer loop
   vertex -0.006358 0.18833 -0.02459
   vertex -0.00357 0.186909 -0.02459
   vertex -0.004952 0.187914 -0.021826
  endloop
 endfacet
 facet normal -0.303796 -0.934059 0.187729
  outer loop
   vertex -0.00357 0.186909 -0.02459
   vertex -0.001862 0.186909 -0.021826
   vertex -0.004952 0.187914 -0.021826
  endloop
 endfacet
 facet normal -0.288415 -0.886769 0.361189
  outer loop
   vertex -0.004952 0.187914 -0.021826
   vertex -0.001862 0.186909 -0.021826
   vertex -0.003109 0.18833 -0.019333
  endloop
 endfacet
 facet normal -0.132412 -0.888171 0.440021
  outer loop
   vertex -0.001862 0.186909 -0.021826
   vertex -0.000184 0.187778 -0.019567
   vertex -0.003109 0.18833 -0.019333
  endloop
 endfacet
 facet normal -0.304389 -0.937197 -0.170322
  outer loop
   vertex -0.00484 0.187778 -0.027102
   vertex -0.002032 0.186866 -0.027102
   vertex -0.00357 0.186909 -0.02459
  endloop
 endfacet
 facet normal -0.155824 -0.984657 -0.07855
  outer loop
   vertex -0.002032 0.186866 -0.027102
   vertex -0.00048 0.18642 -0.02459
   vertex -0.00357 0.186909 -0.02459
  endloop
 endfacet
 facet normal -0.155583 -0.983133 0.0961419
  outer loop
   vertex -0.00357 0.186909 -0.02459
   vertex -0.00048 0.18642 -0.02459
   vertex -0.001862 0.186909 -0.021826
  endloop
 endfacet
 facet normal 0.000555151 -0.98466 0.174481
  outer loop
   vertex -0.00048 0.18642 -0.02459
   vertex 0.001072 0.186866 -0.022078
   vertex -0.001862 0.186909 -0.021826
  endloop
 endfacet
 facet normal 0.0161962 -0.937175 0.348485
  outer loop
   vertex -0.001862 0.186909 -0.021826
   vertex 0.001072 0.186866 -0.022078
   vertex -0.000184 0.187778 -0.019567
  endloop
 endfacet
 facet normal 0.138975 -0.90647 0.398746
  outer loop
   vertex 0.001072 0.186866 -0.022078
   vertex 0.002284 0.187914 -0.020118
   vertex -0.000184 0.187778 -0.019567
  endloop
 endfacet
 facet normal 0.420269 -0.815078 0.398776
  outer loop
   vertex 0.00388 0.187778 -0.022078
   vertex 0.00436 0.189254 -0.019567
   vertex 0.002284 0.187914 -0.020118
  endloop
 endfacet
 facet normal 0.578519 -0.796783 0.174509
  outer loop
   vertex 0.005398 0.18833 -0.02459
   vertex 0.006228 0.189538 -0.021826
   vertex 0.00388 0.187778 -0.022078
  endloop
 endfacet
 facet normal 0.704936 -0.704936 -0.0782949
  outer loop
   vertex 0.006392 0.189603 -0.027102
   vertex 0.00761 0.190542 -0.02459
   vertex 0.005398 0.18833 -0.02459
  endloop
 endfacet
 facet normal 0.537986 -0.767602 0.348366
  outer loop
   vertex 0.00388 0.187778 -0.022078
   vertex 0.006228 0.189538 -0.021826
   vertex 0.00436 0.189254 -0.019567
  endloop
 endfacet
 facet normal 0.629279 -0.640767 0.439803
  outer loop
   vertex 0.006228 0.189538 -0.021826
   vertex 0.006402 0.19142 -0.019333
   vertex 0.00436 0.189254 -0.019567
  endloop
 endfacet
 facet normal 0.703824 -0.703824 0.0962537
  outer loop
   vertex 0.005398 0.18833 -0.02459
   vertex 0.00761 0.190542 -0.02459
   vertex 0.006228 0.189538 -0.021826
  endloop
 endfacet
 facet normal 0.794662 -0.577331 0.18762
  outer loop
   vertex 0.00761 0.190542 -0.02459
   vertex 0.008138 0.192167 -0.021826
   vertex 0.006228 0.189538 -0.021826
  endloop
 endfacet
 facet normal 0.754436 -0.548107 0.361117
  outer loop
   vertex 0.006228 0.189538 -0.021826
   vertex 0.008138 0.192167 -0.021826
   vertex 0.006402 0.19142 -0.019333
  endloop
 endfacet
 facet normal 0.803858 -0.400541 0.439749
  outer loop
   vertex 0.008138 0.192167 -0.021826
   vertex 0.007831 0.194031 -0.019567
   vertex 0.006402 0.19142 -0.019333
  endloop
 endfacet
 facet normal 0.797233 -0.579229 -0.170037
  outer loop
   vertex 0.006392 0.189603 -0.027102
   vertex 0.008127 0.191991 -0.027102
   vertex 0.00761 0.190542 -0.02459
  endloop
 endfacet
 facet normal 0.888212 -0.452708 -0.078331
  outer loop
   vertex 0.008127 0.191991 -0.027102
   vertex 0.009031 0.19333 -0.02459
   vertex 0.00761 0.190542 -0.02459
  endloop
 endfacet
 facet normal 0.886806 -0.451991 0.0963284
  outer loop
   vertex 0.00761 0.190542 -0.02459
   vertex 0.009031 0.19333 -0.02459
   vertex 0.008138 0.192167 -0.021826
  endloop
 endfacet
 facet normal 0.93657 -0.303801 0.17476
  outer loop
   vertex 0.009031 0.19333 -0.02459
   vertex 0.009086 0.194944 -0.022079
   vertex 0.008138 0.192167 -0.021826
  endloop
 endfacet
 facet normal 0.89641 -0.274294 0.348155
  outer loop
   vertex 0.008138 0.192167 -0.021826
   vertex 0.009086 0.194944 -0.022079
   vertex 0.007831 0.194031 -0.019567
  endloop
 endfacet
 facet normal 0.905177 -0.147939 0.398459
  outer loop
   vertex 0.009086 0.194944 -0.022079
   vertex 0.008464 0.19642 -0.020118
   vertex 0.007831 0.194031 -0.019567
  endloop
 endfacet
 facet normal 0.294416 0.906493 0.302638
  outer loop
   vertex 0.00388 0.205062 -0.022078
   vertex 0.001072 0.205974 -0.022078
   vertex 0.002284 0.204926 -0.020118
  endloop
 endfacet
 facet normal 0.452705 0.888208 0.0783901
  outer loop
   vertex 0.005398 0.20451 -0.02459
   vertex 0.00261 0.205931 -0.02459
   vertex 0.00388 0.205062 -0.022078
  endloop
 endfacet
 facet normal 0.578874 0.796508 -0.174584
  outer loop
   vertex 0.006392 0.203237 -0.027102
   vertex 0.003992 0.204926 -0.027354
   vertex 0.005398 0.20451 -0.02459
  endloop
 endfacet
 facet normal 0.304389 0.937197 0.170322
  outer loop
   vertex 0.00388 0.205062 -0.022078
   vertex 0.00261 0.205931 -0.02459
   vertex 0.001072 0.205974 -0.022078
  endloop
 endfacet
 facet normal 0.155824 0.984657 0.07855
  outer loop
   vertex 0.00261 0.205931 -0.02459
   vertex -0.00048 0.20642 -0.02459
   vertex 0.001072 0.205974 -0.022078
  endloop
 endfacet
 facet normal 0.451986 0.886796 -0.0964489
  outer loop
   vertex 0.005398 0.20451 -0.02459
   vertex 0.003992 0.204926 -0.027354
   vertex 0.00261 0.205931 -0.02459
  endloop
 endfacet
 facet normal 0.303796 0.934059 -0.187729
  outer loop
   vertex 0.003992 0.204926 -0.027354
   vertex 0.000902 0.205931 -0.027354
   vertex 0.00261 0.205931 -0.02459
  endloop
 endfacet
 facet normal 0.155583 0.983133 -0.0961419
  outer loop
   vertex 0.00261 0.205931 -0.02459
   vertex 0.000902 0.205931 -0.027354
   vertex -0.00048 0.20642 -0.02459
  endloop
 endfacet
 facet normal -0.000555151 0.98466 -0.174481
  outer loop
   vertex 0.000902 0.205931 -0.027354
   vertex -0.002032 0.205974 -0.027102
   vertex -0.00048 0.20642 -0.02459
  endloop
 endfacet
 facet normal 0.563623 0.748876 -0.348589
  outer loop
   vertex 0.006392 0.203237 -0.027102
   vertex 0.004839 0.203237 -0.029613
   vertex 0.003992 0.204926 -0.027354
  endloop
 endfacet
 facet normal 0.415138 0.796394 -0.439791
  outer loop
   vertex 0.004839 0.203237 -0.029613
   vertex 0.002149 0.20451 -0.029847
   vertex 0.003992 0.204926 -0.027354
  endloop
 endfacet
 facet normal 0.288415 0.886769 -0.361189
  outer loop
   vertex 0.003992 0.204926 -0.027354
   vertex 0.002149 0.20451 -0.029847
   vertex 0.000902 0.205931 -0.027354
  endloop
 endfacet
 facet normal 0.132412 0.888171 -0.440021
  outer loop
   vertex 0.002149 0.20451 -0.029847
   vertex -0.000776 0.205062 -0.029613
   vertex 0.000902 0.205931 -0.027354
  endloop
 endfacet
 facet normal -0.0161962 0.937175 -0.348485
  outer loop
   vertex 0.000902 0.205931 -0.027354
   vertex -0.000776 0.205062 -0.029613
   vertex -0.002032 0.205974 -0.027102
  endloop
 endfacet
 facet normal -0.138975 0.90647 -0.398746
  outer loop
   vertex -0.000776 0.205062 -0.029613
   vertex -0.003244 0.204926 -0.029062
   vertex -0.002032 0.205974 -0.027102
  endloop
 endfacet
 facet normal -0.771063 0.560215 0.302688
  outer loop
   vertex -0.007352 0.203237 -0.022078
   vertex -0.009087 0.200849 -0.022078
   vertex -0.007716 0.201677 -0.020118
  endloop
 endfacet
 facet normal -0.704936 0.704936 0.0782949
  outer loop
   vertex -0.006358 0.20451 -0.02459
   vertex -0.00857 0.202298 -0.02459
   vertex -0.007352 0.203237 -0.022078
  endloop
 endfacet
 facet normal -0.578519 0.796783 -0.174509
  outer loop
   vertex -0.00484 0.205062 -0.027102
   vertex -0.007188 0.203302 -0.027354
   vertex -0.006358 0.20451 -0.02459
  endloop
 endfacet
 facet normal -0.797233 0.579229 0.170037
  outer loop
   vertex -0.007352 0.203237 -0.022078
   vertex -0.00857 0.202298 -0.02459
   vertex -0.009087 0.200849 -0.022078
  endloop
 endfacet
 facet normal -0.888212 0.452708 0.078331
  outer loop
   vertex -0.00857 0.202298 -0.02459
   vertex -0.009991 0.19951 -0.02459
   vertex -0.009087 0.200849 -0.022078
  endloop
 endfacet
 facet normal -0.703824 0.703824 -0.0962537
  outer loop
   vertex -0.006358 0.20451 -0.02459
   vertex -0.007188 0.203302 -0.027354
   vertex -0.00857 0.202298 -0.02459
  endloop
 endfacet
 facet normal -0.794662 0.577331 -0.18762
  outer loop
   vertex -0.007188 0.203302 -0.027354
   vertex -0.009098 0.200673 -0.027354
   vertex -0.00857 0.202298 -0.02459
  endloop
 endfacet
 facet normal -0.886806 0.451991 -0.0963284
  outer loop
   vertex -0.00857 0.202298 -0.02459
   vertex -0.009098 0.200673 -0.027354
   vertex -0.009991 0.19951 -0.02459
  endloop
 endfacet
 facet normal -0.93657 0.303801 -0.17476
  outer loop
   vertex -0.009098 0.200673 -0.027354
   vertex -0.010046 0.197896 -0.027101
   vertex -0.009991 0.19951 -0.02459
  endloop
 endfacet
 facet normal -0.537986 0.767602 -0.348366
  outer loop
   vertex -0.00484 0.205062 -0.027102
   vertex -0.00532 0.203586 -0.029613
   vertex -0.007188 0.203302 -0.027354
  endloop
 endfacet
 facet normal -0.629279 0.640767 -0.439803
  outer loop
   vertex -0.00532 0.203586 -0.029613
   vertex -0.007362 0.20142 -0.029847
   vertex -0.007188 0.203302 -0.027354
  endloop
 endfacet
 facet normal -0.754436 0.548107 -0.361117
  outer loop
   vertex -0.007188 0.203302 -0.027354
   vertex -0.007362 0.20142 -0.029847
   vertex -0.009098 0.200673 -0.027354
  endloop
 endfacet
 facet normal -0.803858 0.400541 -0.439749
  outer loop
   vertex -0.007362 0.20142 -0.029847
   vertex -0.008791 0.198809 -0.029613
   vertex -0.009098 0.200673 -0.027354
  endloop
 endfacet
 facet normal -0.89641 0.274294 -0.348155
  outer loop
   vertex -0.009098 0.200673 -0.027354
   vertex -0.008791 0.198809 -0.029613
   vertex -0.010046 0.197896 -0.027101
  endloop
 endfacet
 facet normal -0.905177 0.147939 -0.398459
  outer loop
   vertex -0.008791 0.198809 -0.029613
   vertex -0.009424 0.19642 -0.029062
   vertex -0.010046 0.197896 -0.027101
  endloop
 endfacet
 facet normal -0.771063 -0.560215 0.302688
  outer loop
   vertex -0.009087 0.191991 -0.022078
   vertex -0.007352 0.189603 -0.022078
   vertex -0.007716 0.191163 -0.020118
  endloop
 endfacet
 facet normal -0.888212 -0.452708 0.078331
  outer loop
   vertex -0.009991 0.19333 -0.02459
   vertex -0.00857 0.190542 -0.02459
   vertex -0.009087 0.191991 -0.022078
  endloop
 endfacet
 facet normal -0.93657 -0.303801 -0.17476
  outer loop
   vertex -0.010046 0.194944 -0.027101
   vertex -0.009098 0.192167 -0.027354
   vertex -0.009991 0.19333 -0.02459
  endloop
 endfacet
 facet normal -0.797233 -0.579229 0.170037
  outer loop
   vertex -0.009087 0.191991 -0.022078
   vertex -0.00857 0.190542 -0.02459
   vertex -0.007352 0.189603 -0.022078
  endloop
 endfacet
 facet normal -0.704936 -0.704936 0.0782949
  outer loop
   vertex -0.00857 0.190542 -0.02459
   vertex -0.006358 0.18833 -0.02459
   vertex -0.007352 0.189603 -0.022078
  endloop
 endfacet
 facet normal -0.886806 -0.451991 -0.0963284
  outer loop
   vertex -0.009991 0.19333 -0.02459
   vertex -0.009098 0.192167 -0.027354
   vertex -0.00857 0.190542 -0.02459
  endloop
 endfacet
 facet normal -0.794662 -0.577331 -0.18762
  outer loop
   vertex -0.009098 0.192167 -0.027354
   vertex -0.007188 0.189538 -0.027354
   vertex -0.00857 0.190542 -0.02459
  endloop
 endfacet
 facet normal -0.703824 -0.703824 -0.0962537
  outer loop
   vertex -0.00857 0.190542 -0.02459
   vertex -0.007188 0.189538 -0.027354
   vertex -0.006358 0.18833 -0.02459
  endloop
 endfacet
 facet normal -0.578519 -0.796783 -0.174509
  outer loop
   vertex -0.007188 0.189538 -0.027354
   vertex -0.00484 0.187778 -0.027102
   vertex -0.006358 0.18833 -0.02459
  endloop
 endfacet
 facet normal -0.89641 -0.274294 -0.348155
  outer loop
   vertex -0.010046 0.194944 -0.027101
   vertex -0.008791 0.194031 -0.029613
   vertex -0.009098 0.192167 -0.027354
  endloop
 endfacet
 facet normal -0.803858 -0.400541 -0.439749
  outer loop
   vertex -0.008791 0.194031 -0.029613
   vertex -0.007362 0.19142 -0.029847
   vertex -0.009098 0.192167 -0.027354
  endloop
 endfacet
 facet normal -0.754436 -0.548107 -0.361117
  outer loop
   vertex -0.009098 0.192167 -0.027354
   vertex -0.007362 0.19142 -0.029847
   vertex -0.007188 0.189538 -0.027354
  endloop
 endfacet
 facet normal -0.629279 -0.640767 -0.439803
  outer loop
   vertex -0.007362 0.19142 -0.029847
   vertex -0.00532 0.189254 -0.029613
   vertex -0.007188 0.189538 -0.027354
  endloop
 endfacet
 facet normal -0.537986 -0.767602 -0.348366
  outer loop
   vertex -0.007188 0.189538 -0.027354
   vertex -0.00532 0.189254 -0.029613
   vertex -0.00484 0.187778 -0.027102
  endloop
 endfacet
 facet normal -0.420269 -0.815078 -0.398776
  outer loop
   vertex -0.00532 0.189254 -0.029613
   vertex -0.003244 0.187914 -0.029062
   vertex -0.00484 0.187778 -0.027102
  endloop
 endfacet
 facet normal 0.294416 -0.906493 0.302638
  outer loop
   vertex 0.001072 0.186866 -0.022078
   vertex 0.00388 0.187778 -0.022078
   vertex 0.002284 0.187914 -0.020118
  endloop
 endfacet
 facet normal 0.155824 -0.984657 0.07855
  outer loop
   vertex -0.00048 0.18642 -0.02459
   vertex 0.00261 0.186909 -0.02459
   vertex 0.001072 0.186866 -0.022078
  endloop
 endfacet
 facet normal -0.000555151 -0.98466 -0.174481
  outer loop
   vertex -0.002032 0.186866 -0.027102
   vertex 0.000902 0.186909 -0.027354
   vertex -0.00048 0.18642 -0.02459
  endloop
 endfacet
 facet normal 0.304389 -0.937197 0.170322
  outer loop
   vertex 0.001072 0.186866 -0.022078
   vertex 0.00261 0.186909 -0.02459
   vertex 0.00388 0.187778 -0.022078
  endloop
 endfacet
 facet normal 0.452705 -0.888208 0.0783901
  outer loop
   vertex 0.00261 0.186909 -0.02459
   vertex 0.005398 0.18833 -0.02459
   vertex 0.00388 0.187778 -0.022078
  endloop
 endfacet
 facet normal 0.155583 -0.983133 -0.0961419
  outer loop
   vertex -0.00048 0.18642 -0.02459
   vertex 0.000902 0.186909 -0.027354
   vertex 0.00261 0.186909 -0.02459
  endloop
 endfacet
 facet normal 0.303796 -0.934059 -0.187729
  outer loop
   vertex 0.000902 0.186909 -0.027354
   vertex 0.003992 0.187914 -0.027354
   vertex 0.00261 0.186909 -0.02459
  endloop
 endfacet
 facet normal 0.451986 -0.886796 -0.0964489
  outer loop
   vertex 0.00261 0.186909 -0.02459
   vertex 0.003992 0.187914 -0.027354
   vertex 0.005398 0.18833 -0.02459
  endloop
 endfacet
 facet normal 0.578874 -0.796508 -0.174584
  outer loop
   vertex 0.003992 0.187914 -0.027354
   vertex 0.006392 0.189603 -0.027102
   vertex 0.005398 0.18833 -0.02459
  endloop
 endfacet
 facet normal -0.0161962 -0.937175 -0.348485
  outer loop
   vertex -0.002032 0.186866 -0.027102
   vertex -0.000776 0.187778 -0.029613
   vertex 0.000902 0.186909 -0.027354
  endloop
 endfacet
 facet normal 0.132412 -0.888171 -0.440021
  outer loop
   vertex -0.000776 0.187778 -0.029613
   vertex 0.002149 0.18833 -0.029847
   vertex 0.000902 0.186909 -0.027354
  endloop
 endfacet
 facet normal 0.288415 -0.886769 -0.361189
  outer loop
   vertex 0.000902 0.186909 -0.027354
   vertex 0.002149 0.18833 -0.029847
   vertex 0.003992 0.187914 -0.027354
  endloop
 endfacet
 facet normal 0.415138 -0.796394 -0.439791
  outer loop
   vertex 0.002149 0.18833 -0.029847
   vertex 0.004839 0.189603 -0.029613
   vertex 0.003992 0.187914 -0.027354
  endloop
 endfacet
 facet normal 0.563623 -0.748876 -0.348589
  outer loop
   vertex 0.003992 0.187914 -0.027354
   vertex 0.004839 0.189603 -0.029613
   vertex 0.006392 0.189603 -0.027102
  endloop
 endfacet
 facet normal 0.645038 -0.651744 -0.398942
  outer loop
   vertex 0.004839 0.189603 -0.029613
   vertex 0.006756 0.191163 -0.029062
   vertex 0.006392 0.189603 -0.027102
  endloop
 endfacet
 facet normal 0.9532 -0 0.302341
  outer loop
   vertex 0.009086 0.194944 -0.022079
   vertex 0.009086 0.197896 -0.022079
   vertex 0.008464 0.19642 -0.020118
  endloop
 endfacet
 facet normal 0.984653 -0.155824 0.0785916
  outer loop
   vertex 0.009031 0.19333 -0.02459
   vertex 0.00952 0.19642 -0.02459
   vertex 0.009086 0.194944 -0.022079
  endloop
 endfacet
 facet normal 0.936352 -0.304548 -0.174631
  outer loop
   vertex 0.008127 0.191991 -0.027102
   vertex 0.008992 0.194795 -0.027354
   vertex 0.009031 0.19333 -0.02459
  endloop
 endfacet
 facet normal 0.98539 -0 0.170314
  outer loop
   vertex 0.009086 0.194944 -0.022079
   vertex 0.00952 0.19642 -0.02459
   vertex 0.009086 0.197896 -0.022079
  endloop
 endfacet
 facet normal 0.984653 0.155824 0.0785916
  outer loop
   vertex 0.00952 0.19642 -0.02459
   vertex 0.009031 0.19951 -0.02459
   vertex 0.009086 0.197896 -0.022079
  endloop
 endfacet
 facet normal 0.983115 -0.15558 -0.0963335
  outer loop
   vertex 0.009031 0.19333 -0.02459
   vertex 0.008992 0.194795 -0.027354
   vertex 0.00952 0.19642 -0.02459
  endloop
 endfacet
 facet normal 0.982239 0 -0.187634
  outer loop
   vertex 0.008992 0.194795 -0.027354
   vertex 0.008992 0.198045 -0.027354
   vertex 0.00952 0.19642 -0.02459
  endloop
 endfacet
 facet normal 0.983115 0.15558 -0.0963335
  outer loop
   vertex 0.00952 0.19642 -0.02459
   vertex 0.008992 0.198045 -0.027354
   vertex 0.009031 0.19951 -0.02459
  endloop
 endfacet
 facet normal 0.936352 0.304548 -0.174631
  outer loop
   vertex 0.008992 0.198045 -0.027354
   vertex 0.008127 0.200849 -0.027102
   vertex 0.009031 0.19951 -0.02459
  endloop
 endfacet
 facet normal 0.886309 -0.304753 -0.348685
  outer loop
   vertex 0.008127 0.191991 -0.027102
   vertex 0.007647 0.193468 -0.029613
   vertex 0.008992 0.194795 -0.027354
  endloop
 endfacet
 facet normal 0.885615 -0.148581 -0.440011
  outer loop
   vertex 0.007647 0.193468 -0.029613
   vertex 0.008026 0.19642 -0.029847
   vertex 0.008992 0.194795 -0.027354
  endloop
 endfacet
 facet normal 0.932446 0 -0.361309
  outer loop
   vertex 0.008992 0.194795 -0.027354
   vertex 0.008026 0.19642 -0.029847
   vertex 0.008992 0.198045 -0.027354
  endloop
 endfacet
 facet normal 0.885615 0.148581 -0.440011
  outer loop
   vertex 0.008026 0.19642 -0.029847
   vertex 0.007647 0.199372 -0.029613
   vertex 0.008992 0.198045 -0.027354
  endloop
 endfacet
 facet normal 0.886309 0.304753 -0.348685
  outer loop
   vertex 0.008992 0.198045 -0.027354
   vertex 0.007647 0.199372 -0.029613
   vertex 0.008127 0.200849 -0.027102
  endloop
 endfacet
 facet normal 0.819189 0.412026 -0.398954
  outer loop
   vertex 0.007647 0.199372 -0.029613
   vertex 0.006756 0.201677 -0.029062
   vertex 0.008127 0.200849 -0.027102
  endloop
 endfacet
 facet normal 0.61533 0.560308 -0.554459
  outer loop
   vertex 0.005615 0.200849 -0.031165
   vertex 0.004839 0.203237 -0.029613
   vertex 0.006756 0.201677 -0.029062
  endloop
 endfacet
 facet normal 0.467426 0.452641 -0.759361
  outer loop
   vertex 0.003773 0.19951 -0.033097
   vertex 0.003138 0.202298 -0.031826
   vertex 0.005615 0.200849 -0.031165
  endloop
 endfacet
 facet normal 0.262485 0.303841 -0.915851
  outer loop
   vertex 0.001552 0.197896 -0.034269
   vertex 0.000902 0.200673 -0.033534
   vertex 0.003773 0.19951 -0.033097
  endloop
 endfacet
 facet normal 0.508799 0.579247 -0.636864
  outer loop
   vertex 0.005615 0.200849 -0.031165
   vertex 0.003138 0.202298 -0.031826
   vertex 0.004839 0.203237 -0.029613
  endloop
 endfacet
 facet normal 0.38541 0.704977 -0.595371
  outer loop
   vertex 0.003138 0.202298 -0.031826
   vertex 0.002149 0.20451 -0.029847
   vertex 0.004839 0.203237 -0.029613
  endloop
 endfacet
 facet normal 0.310374 0.451949 -0.836307
  outer loop
   vertex 0.003773 0.19951 -0.033097
   vertex 0.000902 0.200673 -0.033534
   vertex 0.003138 0.202298 -0.031826
  endloop
 endfacet
 facet normal 0.187559 0.577248 -0.794737
  outer loop
   vertex 0.000902 0.200673 -0.033534
   vertex 4.8e-05 0.203302 -0.031826
   vertex 0.003138 0.202298 -0.031826
  endloop
 endfacet
 facet normal 0.228709 0.703897 -0.672474
  outer loop
   vertex 0.003138 0.202298 -0.031826
   vertex 4.8e-05 0.203302 -0.031826
   vertex 0.002149 0.20451 -0.029847
  endloop
 endfacet
 facet normal 0.102735 0.796801 -0.595444
  outer loop
   vertex 4.8e-05 0.203302 -0.031826
   vertex -0.000776 0.205062 -0.029613
   vertex 0.002149 0.20451 -0.029847
  endloop
 endfacet
 facet normal 0.0891868 0.274301 -0.957499
  outer loop
   vertex 0.001552 0.197896 -0.034269
   vertex -0.001256 0.198809 -0.034269
   vertex 0.000902 0.200673 -0.033534
  endloop
 endfacet
 facet normal -0.0336945 0.400135 -0.915836
  outer loop
   vertex -0.001256 0.198809 -0.034269
   vertex -0.002105 0.20142 -0.033097
   vertex 0.000902 0.200673 -0.033534
  endloop
 endfacet
 facet normal 0.0146149 0.548074 -0.836302
  outer loop
   vertex 0.000902 0.200673 -0.033534
   vertex -0.002105 0.20142 -0.033097
   vertex 4.8e-05 0.203302 -0.031826
  endloop
 endfacet
 facet normal -0.112009 0.640965 -0.759354
  outer loop
   vertex -0.002105 0.20142 -0.033097
   vertex -0.002808 0.203586 -0.031165
   vertex 4.8e-05 0.203302 -0.031826
  endloop
 endfacet
 facet normal -0.0710868 0.767617 -0.636955
  outer loop
   vertex 4.8e-05 0.203302 -0.031826
   vertex -0.002808 0.203586 -0.031165
   vertex -0.000776 0.205062 -0.029613
  endloop
 endfacet
 facet normal -0.168666 0.815046 -0.554303
  outer loop
   vertex -0.002808 0.203586 -0.031165
   vertex -0.003244 0.204926 -0.029062
   vertex -0.000776 0.205062 -0.029613
  endloop
 endfacet
 facet normal -0.342493 0.758552 -0.554344
  outer loop
   vertex -0.002808 0.203586 -0.031165
   vertex -0.00532 0.203586 -0.029613
   vertex -0.003244 0.204926 -0.029062
  endloop
 endfacet
 facet normal -0.286233 0.584386 -0.759318
  outer loop
   vertex -0.002105 0.20142 -0.033097
   vertex -0.004952 0.201677 -0.031826
   vertex -0.002808 0.203586 -0.031165
  endloop
 endfacet
 facet normal -0.207851 0.343516 -0.915858
  outer loop
   vertex -0.001256 0.198809 -0.034269
   vertex -0.004098 0.199049 -0.033534
   vertex -0.002105 0.20142 -0.033097
  endloop
 endfacet
 facet normal -0.393627 0.662685 -0.637108
  outer loop
   vertex -0.002808 0.203586 -0.031165
   vertex -0.004952 0.201677 -0.031826
   vertex -0.00532 0.203586 -0.029613
  endloop
 endfacet
 facet normal -0.551379 0.584158 -0.595601
  outer loop
   vertex -0.004952 0.201677 -0.031826
   vertex -0.007362 0.20142 -0.029847
   vertex -0.00532 0.203586 -0.029613
  endloop
 endfacet
 facet normal -0.334054 0.43492 -0.836213
  outer loop
   vertex -0.002105 0.20142 -0.033097
   vertex -0.004098 0.199049 -0.033534
   vertex -0.004952 0.201677 -0.031826
  endloop
 endfacet
 facet normal -0.491058 0.356895 -0.794662
  outer loop
   vertex -0.004098 0.199049 -0.033534
   vertex -0.006862 0.199049 -0.031826
   vertex -0.004952 0.201677 -0.031826
  endloop
 endfacet
 facet normal -0.598657 0.435097 -0.672533
  outer loop
   vertex -0.004952 0.201677 -0.031826
   vertex -0.006862 0.199049 -0.031826
   vertex -0.007362 0.20142 -0.029847
  endloop
 endfacet
 facet normal -0.725985 0.343961 -0.595514
  outer loop
   vertex -0.006862 0.199049 -0.031826
   vertex -0.008791 0.198809 -0.029613
   vertex -0.007362 0.20142 -0.029847
  endloop
 endfacet
 facet normal -0.233325 0.169451 -0.957521
  outer loop
   vertex -0.001256 0.198809 -0.034269
   vertex -0.002991 0.19642 -0.034269
   vertex -0.004098 0.199049 -0.033534
  endloop
 endfacet
 facet normal -0.390899 0.0914587 -0.915878
  outer loop
   vertex -0.002991 0.19642 -0.034269
   vertex -0.005737 0.19642 -0.033097
   vertex -0.004098 0.199049 -0.033534
  endloop
 endfacet
 facet normal -0.516783 0.183167 -0.836293
  outer loop
   vertex -0.004098 0.199049 -0.033534
   vertex -0.005737 0.19642 -0.033097
   vertex -0.006862 0.199049 -0.031826
  endloop
 endfacet
 facet normal -0.644269 0.0913996 -0.759317
  outer loop
   vertex -0.005737 0.19642 -0.033097
   vertex -0.008014 0.19642 -0.031165
   vertex -0.006862 0.199049 -0.031826
  endloop
 endfacet
 facet normal -0.751958 0.169318 -0.637095
  outer loop
   vertex -0.006862 0.199049 -0.031826
   vertex -0.008014 0.19642 -0.031165
   vertex -0.008791 0.198809 -0.029613
  endloop
 endfacet
 facet normal -0.827124 0.091254 -0.554562
  outer loop
   vertex -0.008014 0.19642 -0.031165
   vertex -0.009424 0.19642 -0.029062
   vertex -0.008791 0.198809 -0.029613
  endloop
 endfacet
 facet normal -0.827124 -0.091254 -0.554562
  outer loop
   vertex -0.008014 0.19642 -0.031165
   vertex -0.008791 0.194031 -0.029613
   vertex -0.009424 0.19642 -0.029062
  endloop
 endfacet
 facet normal -0.644269 -0.0913996 -0.759317
  outer loop
   vertex -0.005737 0.19642 -0.033097
   vertex -0.006862 0.193791 -0.031826
   vertex -0.008014 0.19642 -0.031165
  endloop
 endfacet
 facet normal -0.390899 -0.0914587 -0.915878
  outer loop
   vertex -0.002991 0.19642 -0.034269
   vertex -0.004098 0.193791 -0.033534
   vertex -0.005737 0.19642 -0.033097
  endloop
 endfacet
 facet normal -0.751958 -0.169318 -0.637095
  outer loop
   vertex -0.008014 0.19642 -0.031165
   vertex -0.006862 0.193791 -0.031826
   vertex -0.008791 0.194031 -0.029613
  endloop
 endfacet
 facet normal -0.725985 -0.343961 -0.595514
  outer loop
   vertex -0.006862 0.193791 -0.031826
   vertex -0.007362 0.19142 -0.029847
   vertex -0.008791 0.194031 -0.029613
  endloop
 endfacet
 facet normal -0.516783 -0.183167 -0.836293
  outer loop
   vertex -0.005737 0.19642 -0.033097
   vertex -0.004098 0.193791 -0.033534
   vertex -0.006862 0.193791 -0.031826
  endloop
 endfacet
 facet normal -0.491058 -0.356895 -0.794662
  outer loop
   vertex -0.004098 0.193791 -0.033534
   vertex -0.004952 0.191163 -0.031826
   vertex -0.006862 0.193791 -0.031826
  endloop
 endfacet
 facet normal -0.598657 -0.435097 -0.672533
  outer loop
   vertex -0.006862 0.193791 -0.031826
   vertex -0.004952 0.191163 -0.031826
   vertex -0.007362 0.19142 -0.029847
  endloop
 endfacet
 facet normal -0.551379 -0.584158 -0.595601
  outer loop
   vertex -0.004952 0.191163 -0.031826
   vertex -0.00532 0.189254 -0.029613
   vertex -0.007362 0.19142 -0.029847
  endloop
 endfacet
 facet normal -0.233325 -0.169451 -0.957521
  outer loop
   vertex -0.002991 0.19642 -0.034269
   vertex -0.001256 0.194031 -0.034269
   vertex -0.004098 0.193791 -0.033534
  endloop
 endfacet
 facet normal -0.207851 -0.343516 -0.915858
  outer loop
   vertex -0.001256 0.194031 -0.034269
   vertex -0.002105 0.19142 -0.033097
   vertex -0.004098 0.193791 -0.033534
  endloop
 endfacet
 facet normal -0.334054 -0.43492 -0.836213
  outer loop
   vertex -0.004098 0.193791 -0.033534
   vertex -0.002105 0.19142 -0.033097
   vertex -0.004952 0.191163 -0.031826
  endloop
 endfacet
 facet normal -0.286233 -0.584386 -0.759318
  outer loop
   vertex -0.002105 0.19142 -0.033097
   vertex -0.002808 0.189254 -0.031165
   vertex -0.004952 0.191163 -0.031826
  endloop
 endfacet
 facet normal -0.393627 -0.662685 -0.637108
  outer loop
   vertex -0.004952 0.191163 -0.031826
   vertex -0.002808 0.189254 -0.031165
   vertex -0.00532 0.189254 -0.029613
  endloop
 endfacet
 facet normal -0.342493 -0.758552 -0.554344
  outer loop
   vertex -0.002808 0.189254 -0.031165
   vertex -0.003244 0.187914 -0.029062
   vertex -0.00532 0.189254 -0.029613
  endloop
 endfacet
 facet normal 0.723015 0.412034 -0.554506
  outer loop
   vertex 0.007647 0.199372 -0.029613
   vertex 0.005615 0.200849 -0.031165
   vertex 0.006756 0.201677 -0.029062
  endloop
 endfacet
 facet normal 0.789589 0.148568 -0.59538
  outer loop
   vertex 0.008026 0.19642 -0.029847
   vertex 0.006228 0.198045 -0.031826
   vertex 0.007647 0.199372 -0.029613
  endloop
 endfacet
 facet normal 0.789589 -0.148568 -0.59538
  outer loop
   vertex 0.007647 0.193468 -0.029613
   vertex 0.006228 0.194795 -0.031826
   vertex 0.008026 0.19642 -0.029847
  endloop
 endfacet
 facet normal 0.708089 0.304936 -0.636886
  outer loop
   vertex 0.007647 0.199372 -0.029613
   vertex 0.006228 0.198045 -0.031826
   vertex 0.005615 0.200849 -0.031165
  endloop
 endfacet
 facet normal 0.574948 0.304695 -0.759339
  outer loop
   vertex 0.006228 0.198045 -0.031826
   vertex 0.003773 0.19951 -0.033097
   vertex 0.005615 0.200849 -0.031165
  endloop
 endfacet
 facet normal 0.740143 0 -0.672449
  outer loop
   vertex 0.008026 0.19642 -0.029847
   vertex 0.006228 0.194795 -0.031826
   vertex 0.006228 0.198045 -0.031826
  endloop
 endfacet
 facet normal 0.607028 0 -0.794681
  outer loop
   vertex 0.006228 0.194795 -0.031826
   vertex 0.003992 0.19642 -0.033534
   vertex 0.006228 0.198045 -0.031826
  endloop
 endfacet
 facet normal 0.525774 0.155534 -0.836284
  outer loop
   vertex 0.006228 0.198045 -0.031826
   vertex 0.003992 0.19642 -0.033534
   vertex 0.003773 0.19951 -0.033097
  endloop
 endfacet
 facet normal 0.370096 0.155752 -0.915844
  outer loop
   vertex 0.003992 0.19642 -0.033534
   vertex 0.001552 0.197896 -0.034269
   vertex 0.003773 0.19951 -0.033097
  endloop
 endfacet
 facet normal 0.708089 -0.304936 -0.636886
  outer loop
   vertex 0.007647 0.193468 -0.029613
   vertex 0.005615 0.191991 -0.031165
   vertex 0.006228 0.194795 -0.031826
  endloop
 endfacet
 facet normal 0.574948 -0.304695 -0.759339
  outer loop
   vertex 0.005615 0.191991 -0.031165
   vertex 0.003773 0.19333 -0.033097
   vertex 0.006228 0.194795 -0.031826
  endloop
 endfacet
 facet normal 0.525774 -0.155534 -0.836284
  outer loop
   vertex 0.006228 0.194795 -0.031826
   vertex 0.003773 0.19333 -0.033097
   vertex 0.003992 0.19642 -0.033534
  endloop
 endfacet
 facet normal 0.370096 -0.155752 -0.915844
  outer loop
   vertex 0.003773 0.19333 -0.033097
   vertex 0.001552 0.194944 -0.034269
   vertex 0.003992 0.19642 -0.033534
  endloop
 endfacet
 facet normal 0.288428 0 -0.957502
  outer loop
   vertex 0.003992 0.19642 -0.033534
   vertex 0.001552 0.194944 -0.034269
   vertex 0.001552 0.197896 -0.034269
  endloop
 endfacet
 facet normal 0.156037 0 -0.987751
  outer loop
   vertex 0.001552 0.194944 -0.034269
   vertex -0.00048 0.19642 -0.03459
   vertex 0.001552 0.197896 -0.034269
  endloop
 endfacet
 facet normal -0.168666 -0.815046 -0.554303
  outer loop
   vertex -0.002808 0.189254 -0.031165
   vertex -0.000776 0.187778 -0.029613
   vertex -0.003244 0.187914 -0.029062
  endloop
 endfacet
 facet normal -0.112009 -0.640965 -0.759354
  outer loop
   vertex -0.002105 0.19142 -0.033097
   vertex 4.8e-05 0.189538 -0.031826
   vertex -0.002808 0.189254 -0.031165
  endloop
 endfacet
 facet normal -0.0336945 -0.400135 -0.915836
  outer loop
   vertex -0.001256 0.194031 -0.034269
   vertex 0.000902 0.192167 -0.033534
   vertex -0.002105 0.19142 -0.033097
  endloop
 endfacet
 facet normal -0.0710868 -0.767617 -0.636955
  outer loop
   vertex -0.002808 0.189254 -0.031165
   vertex 4.8e-05 0.189538 -0.031826
   vertex -0.000776 0.187778 -0.029613
  endloop
 endfacet
 facet normal 0.102735 -0.796801 -0.595444
  outer loop
   vertex 4.8e-05 0.189538 -0.031826
   vertex 0.002149 0.18833 -0.029847
   vertex -0.000776 0.187778 -0.029613
  endloop
 endfacet
 facet normal 0.0146149 -0.548074 -0.836302
  outer loop
   vertex -0.002105 0.19142 -0.033097
   vertex 0.000902 0.192167 -0.033534
   vertex 4.8e-05 0.189538 -0.031826
  endloop
 endfacet
 facet normal 0.187559 -0.577248 -0.794737
  outer loop
   vertex 0.000902 0.192167 -0.033534
   vertex 0.003138 0.190542 -0.031826
   vertex 4.8e-05 0.189538 -0.031826
  endloop
 endfacet
 facet normal 0.228709 -0.703897 -0.672474
  outer loop
   vertex 4.8e-05 0.189538 -0.031826
   vertex 0.003138 0.190542 -0.031826
   vertex 0.002149 0.18833 -0.029847
  endloop
 endfacet
 facet normal 0.38541 -0.704977 -0.595371
  outer loop
   vertex 0.003138 0.190542 -0.031826
   vertex 0.004839 0.189603 -0.029613
   vertex 0.002149 0.18833 -0.029847
  endloop
 endfacet
 facet normal 0.0891868 -0.274301 -0.957499
  outer loop
   vertex -0.001256 0.194031 -0.034269
   vertex 0.001552 0.194944 -0.034269
   vertex 0.000902 0.192167 -0.033534
  endloop
 endfacet
 facet normal 0.262485 -0.303841 -0.915851
  outer loop
   vertex 0.001552 0.194944 -0.034269
   vertex 0.003773 0.19333 -0.033097
   vertex 0.000902 0.192167 -0.033534
  endloop
 endfacet
 facet normal 0.310374 -0.451949 -0.836307
  outer loop
   vertex 0.000902 0.192167 -0.033534
   vertex 0.003773 0.19333 -0.033097
   vertex 0.003138 0.190542 -0.031826
  endloop
 endfacet
 facet normal 0.467426 -0.452641 -0.759361
  outer loop
   vertex 0.003773 0.19333 -0.033097
   vertex 0.005615 0.191991 -0.031165
   vertex 0.003138 0.190542 -0.031826
  endloop
 endfacet
 facet normal 0.508799 -0.579247 -0.636864
  outer loop
   vertex 0.003138 0.190542 -0.031826
   vertex 0.005615 0.191991 -0.031165
   vertex 0.004839 0.189603 -0.029613
  endloop
 endfacet
 facet normal 0.61533 -0.560308 -0.554459
  outer loop
   vertex 0.005615 0.191991 -0.031165
   vertex 0.006756 0.191163 -0.029062
   vertex 0.004839 0.189603 -0.029613
  endloop
 endfacet
endsolid ExportedfromBlender-3.5.1
