solid ExportedfromBlender-3.5.1
 facet normal 0.0482486 -0.148392 -0.987751
  outer loop
   vertex 0.02151 0.35578 -0.0047
   vertex 0.023542 0.354304 -0.004379
   vertex 0.020734 0.353391 -0.004379
  endloop
 endfacet
 facet normal 0.723015 -0.412034 -0.554506
  outer loop
   vertex 0.028746 0.350523 0.000828
   vertex 0.027605 0.351351 -0.001275
   vertex 0.029637 0.352828 0.000277
  endloop
 endfacet
 facet normal -0.126271 -0.0917039 -0.987748
  outer loop
   vertex 0.02151 0.35578 -0.0047
   vertex 0.020734 0.353391 -0.004379
   vertex 0.018999 0.35578 -0.004379
  endloop
 endfacet
 facet normal -0.126271 0.0917039 -0.987748
  outer loop
   vertex 0.02151 0.35578 -0.0047
   vertex 0.018999 0.35578 -0.004379
   vertex 0.020734 0.358169 -0.004379
  endloop
 endfacet
 facet normal 0.0482486 0.148392 -0.987751
  outer loop
   vertex 0.02151 0.35578 -0.0047
   vertex 0.020734 0.358169 -0.004379
   vertex 0.023542 0.357256 -0.004379
  endloop
 endfacet
 facet normal 0.819189 -0.412026 -0.398954
  outer loop
   vertex 0.028746 0.350523 0.000828
   vertex 0.029637 0.352828 0.000277
   vertex 0.030117 0.351351 0.002788
  endloop
 endfacet
 facet normal -0.138975 -0.90647 -0.398746
  outer loop
   vertex 0.018746 0.347274 0.000828
   vertex 0.021214 0.347138 0.000277
   vertex 0.019958 0.346226 0.002788
  endloop
 endfacet
 facet normal -0.905177 -0.147939 -0.398459
  outer loop
   vertex 0.012566 0.35578 0.000828
   vertex 0.013199 0.353391 0.000277
   vertex 0.011944 0.354304 0.002789
  endloop
 endfacet
 facet normal -0.420269 0.815078 -0.398776
  outer loop
   vertex 0.018746 0.364286 0.000828
   vertex 0.01667 0.362946 0.000277
   vertex 0.01715 0.364422 0.002788
  endloop
 endfacet
 facet normal 0.645038 0.651744 -0.398942
  outer loop
   vertex 0.028746 0.361037 0.000828
   vertex 0.026829 0.362597 0.000277
   vertex 0.028382 0.362597 0.002788
  endloop
 endfacet
 facet normal 0.771063 -0.560215 -0.302688
  outer loop
   vertex 0.028746 0.350523 0.000828
   vertex 0.030117 0.351351 0.002788
   vertex 0.028382 0.348963 0.002788
  endloop
 endfacet
 facet normal -0.294416 -0.906493 -0.302638
  outer loop
   vertex 0.018746 0.347274 0.000828
   vertex 0.019958 0.346226 0.002788
   vertex 0.01715 0.347138 0.002788
  endloop
 endfacet
 facet normal -0.9532 0 -0.302341
  outer loop
   vertex 0.012566 0.35578 0.000828
   vertex 0.011944 0.354304 0.002789
   vertex 0.011944 0.357256 0.002789
  endloop
 endfacet
 facet normal -0.294416 0.906493 -0.302638
  outer loop
   vertex 0.018746 0.364286 0.000828
   vertex 0.01715 0.364422 0.002788
   vertex 0.019958 0.365334 0.002788
  endloop
 endfacet
 facet normal 0.771063 0.560215 -0.302688
  outer loop
   vertex 0.028746 0.361037 0.000828
   vertex 0.028382 0.362597 0.002788
   vertex 0.030117 0.360209 0.002788
  endloop
 endfacet
 facet normal 0.342493 -0.758552 0.554344
  outer loop
   vertex 0.024274 0.347274 0.009772
   vertex 0.02635 0.348614 0.010323
   vertex 0.023838 0.348614 0.011875
  endloop
 endfacet
 facet normal -0.61533 -0.560308 0.554459
  outer loop
   vertex 0.014274 0.350523 0.009772
   vertex 0.016191 0.348963 0.010323
   vertex 0.015415 0.351351 0.011875
  endloop
 endfacet
 facet normal -0.723015 0.412034 0.554506
  outer loop
   vertex 0.014274 0.361037 0.009772
   vertex 0.013383 0.358732 0.010323
   vertex 0.015415 0.360209 0.011875
  endloop
 endfacet
 facet normal 0.168666 0.815046 0.554303
  outer loop
   vertex 0.024274 0.364286 0.009772
   vertex 0.021806 0.364422 0.010323
   vertex 0.023838 0.362946 0.011875
  endloop
 endfacet
 facet normal 0.827124 0.091254 0.554562
  outer loop
   vertex 0.030454 0.35578 0.009772
   vertex 0.029821 0.358169 0.010323
   vertex 0.029044 0.35578 0.011875
  endloop
 endfacet
 facet normal 0.126271 0.0917039 0.987748
  outer loop
   vertex 0.024021 0.35578 0.014979
   vertex 0.022286 0.358169 0.014979
   vertex 0.02151 0.35578 0.0153
  endloop
 endfacet
 facet normal 0.390899 0.0914587 0.915878
  outer loop
   vertex 0.026767 0.35578 0.013807
   vertex 0.025128 0.358409 0.014244
   vertex 0.024021 0.35578 0.014979
  endloop
 endfacet
 facet normal 0.644269 0.0913996 0.759317
  outer loop
   vertex 0.029044 0.35578 0.011875
   vertex 0.027892 0.358409 0.012536
   vertex 0.026767 0.35578 0.013807
  endloop
 endfacet
 facet normal 0.233325 0.169451 0.957521
  outer loop
   vertex 0.024021 0.35578 0.014979
   vertex 0.025128 0.358409 0.014244
   vertex 0.022286 0.358169 0.014979
  endloop
 endfacet
 facet normal 0.207851 0.343516 0.915858
  outer loop
   vertex 0.025128 0.358409 0.014244
   vertex 0.023135 0.36078 0.013807
   vertex 0.022286 0.358169 0.014979
  endloop
 endfacet
 facet normal 0.516783 0.183167 0.836293
  outer loop
   vertex 0.026767 0.35578 0.013807
   vertex 0.027892 0.358409 0.012536
   vertex 0.025128 0.358409 0.014244
  endloop
 endfacet
 facet normal 0.491058 0.356895 0.794662
  outer loop
   vertex 0.027892 0.358409 0.012536
   vertex 0.025982 0.361037 0.012536
   vertex 0.025128 0.358409 0.014244
  endloop
 endfacet
 facet normal 0.334054 0.43492 0.836213
  outer loop
   vertex 0.025128 0.358409 0.014244
   vertex 0.025982 0.361037 0.012536
   vertex 0.023135 0.36078 0.013807
  endloop
 endfacet
 facet normal 0.286233 0.584386 0.759318
  outer loop
   vertex 0.025982 0.361037 0.012536
   vertex 0.023838 0.362946 0.011875
   vertex 0.023135 0.36078 0.013807
  endloop
 endfacet
 facet normal 0.751958 0.169318 0.637095
  outer loop
   vertex 0.029044 0.35578 0.011875
   vertex 0.029821 0.358169 0.010323
   vertex 0.027892 0.358409 0.012536
  endloop
 endfacet
 facet normal 0.725985 0.343961 0.595514
  outer loop
   vertex 0.029821 0.358169 0.010323
   vertex 0.028392 0.36078 0.010557
   vertex 0.027892 0.358409 0.012536
  endloop
 endfacet
 facet normal 0.598657 0.435097 0.672533
  outer loop
   vertex 0.027892 0.358409 0.012536
   vertex 0.028392 0.36078 0.010557
   vertex 0.025982 0.361037 0.012536
  endloop
 endfacet
 facet normal 0.551379 0.584158 0.595601
  outer loop
   vertex 0.028392 0.36078 0.010557
   vertex 0.02635 0.362946 0.010323
   vertex 0.025982 0.361037 0.012536
  endloop
 endfacet
 facet normal 0.393627 0.662685 0.637108
  outer loop
   vertex 0.025982 0.361037 0.012536
   vertex 0.02635 0.362946 0.010323
   vertex 0.023838 0.362946 0.011875
  endloop
 endfacet
 facet normal 0.342493 0.758552 0.554344
  outer loop
   vertex 0.02635 0.362946 0.010323
   vertex 0.024274 0.364286 0.009772
   vertex 0.023838 0.362946 0.011875
  endloop
 endfacet
 facet normal -0.0482486 0.148392 0.987751
  outer loop
   vertex 0.022286 0.358169 0.014979
   vertex 0.019478 0.357256 0.014979
   vertex 0.02151 0.35578 0.0153
  endloop
 endfacet
 facet normal 0.0336945 0.400135 0.915836
  outer loop
   vertex 0.023135 0.36078 0.013807
   vertex 0.020128 0.360033 0.014244
   vertex 0.022286 0.358169 0.014979
  endloop
 endfacet
 facet normal 0.112009 0.640965 0.759354
  outer loop
   vertex 0.023838 0.362946 0.011875
   vertex 0.020982 0.362662 0.012536
   vertex 0.023135 0.36078 0.013807
  endloop
 endfacet
 facet normal -0.0891868 0.274301 0.957499
  outer loop
   vertex 0.022286 0.358169 0.014979
   vertex 0.020128 0.360033 0.014244
   vertex 0.019478 0.357256 0.014979
  endloop
 endfacet
 facet normal -0.262485 0.303841 0.915851
  outer loop
   vertex 0.020128 0.360033 0.014244
   vertex 0.017257 0.35887 0.013807
   vertex 0.019478 0.357256 0.014979
  endloop
 endfacet
 facet normal -0.0146149 0.548074 0.836302
  outer loop
   vertex 0.023135 0.36078 0.013807
   vertex 0.020982 0.362662 0.012536
   vertex 0.020128 0.360033 0.014244
  endloop
 endfacet
 facet normal -0.187559 0.577248 0.794737
  outer loop
   vertex 0.020982 0.362662 0.012536
   vertex 0.017892 0.361658 0.012536
   vertex 0.020128 0.360033 0.014244
  endloop
 endfacet
 facet normal -0.310374 0.451949 0.836307
  outer loop
   vertex 0.020128 0.360033 0.014244
   vertex 0.017892 0.361658 0.012536
   vertex 0.017257 0.35887 0.013807
  endloop
 endfacet
 facet normal -0.467426 0.452641 0.759361
  outer loop
   vertex 0.017892 0.361658 0.012536
   vertex 0.015415 0.360209 0.011875
   vertex 0.017257 0.35887 0.013807
  endloop
 endfacet
 facet normal 0.0710868 0.767617 0.636955
  outer loop
   vertex 0.023838 0.362946 0.011875
   vertex 0.021806 0.364422 0.010323
   vertex 0.020982 0.362662 0.012536
  endloop
 endfacet
 facet normal -0.102735 0.796801 0.595444
  outer loop
   vertex 0.021806 0.364422 0.010323
   vertex 0.018881 0.36387 0.010557
   vertex 0.020982 0.362662 0.012536
  endloop
 endfacet
 facet normal -0.228709 0.703897 0.672474
  outer loop
   vertex 0.020982 0.362662 0.012536
   vertex 0.018881 0.36387 0.010557
   vertex 0.017892 0.361658 0.012536
  endloop
 endfacet
 facet normal -0.38541 0.704977 0.595371
  outer loop
   vertex 0.018881 0.36387 0.010557
   vertex 0.016191 0.362597 0.010323
   vertex 0.017892 0.361658 0.012536
  endloop
 endfacet
 facet normal -0.508799 0.579247 0.636864
  outer loop
   vertex 0.017892 0.361658 0.012536
   vertex 0.016191 0.362597 0.010323
   vertex 0.015415 0.360209 0.011875
  endloop
 endfacet
 facet normal -0.61533 0.560308 0.554459
  outer loop
   vertex 0.016191 0.362597 0.010323
   vertex 0.014274 0.361037 0.009772
   vertex 0.015415 0.360209 0.011875
  endloop
 endfacet
 facet normal -0.156037 0 0.987751
  outer loop
   vertex 0.019478 0.357256 0.014979
   vertex 0.019478 0.354304 0.014979
   vertex 0.02151 0.35578 0.0153
  endloop
 endfacet
 facet normal -0.370096 0.155752 0.915844
  outer loop
   vertex 0.017257 0.35887 0.013807
   vertex 0.017038 0.35578 0.014244
   vertex 0.019478 0.357256 0.014979
  endloop
 endfacet
 facet normal -0.574948 0.304695 0.759339
  outer loop
   vertex 0.015415 0.360209 0.011875
   vertex 0.014802 0.357405 0.012536
   vertex 0.017257 0.35887 0.013807
  endloop
 endfacet
 facet normal -0.288428 0 0.957502
  outer loop
   vertex 0.019478 0.357256 0.014979
   vertex 0.017038 0.35578 0.014244
   vertex 0.019478 0.354304 0.014979
  endloop
 endfacet
 facet normal -0.370096 -0.155752 0.915844
  outer loop
   vertex 0.017038 0.35578 0.014244
   vertex 0.017257 0.35269 0.013807
   vertex 0.019478 0.354304 0.014979
  endloop
 endfacet
 facet normal -0.525774 0.155534 0.836284
  outer loop
   vertex 0.017257 0.35887 0.013807
   vertex 0.014802 0.357405 0.012536
   vertex 0.017038 0.35578 0.014244
  endloop
 endfacet
 facet normal -0.607028 0 0.794681
  outer loop
   vertex 0.014802 0.357405 0.012536
   vertex 0.014802 0.354155 0.012536
   vertex 0.017038 0.35578 0.014244
  endloop
 endfacet
 facet normal -0.525774 -0.155534 0.836284
  outer loop
   vertex 0.017038 0.35578 0.014244
   vertex 0.014802 0.354155 0.012536
   vertex 0.017257 0.35269 0.013807
  endloop
 endfacet
 facet normal -0.574948 -0.304695 0.759339
  outer loop
   vertex 0.014802 0.354155 0.012536
   vertex 0.015415 0.351351 0.011875
   vertex 0.017257 0.35269 0.013807
  endloop
 endfacet
 facet normal -0.708089 0.304936 0.636886
  outer loop
   vertex 0.015415 0.360209 0.011875
   vertex 0.013383 0.358732 0.010323
   vertex 0.014802 0.357405 0.012536
  endloop
 endfacet
 facet normal -0.789589 0.148568 0.59538
  outer loop
   vertex 0.013383 0.358732 0.010323
   vertex 0.013004 0.35578 0.010557
   vertex 0.014802 0.357405 0.012536
  endloop
 endfacet
 facet normal -0.740143 0 0.672449
  outer loop
   vertex 0.014802 0.357405 0.012536
   vertex 0.013004 0.35578 0.010557
   vertex 0.014802 0.354155 0.012536
  endloop
 endfacet
 facet normal -0.789589 -0.148568 0.59538
  outer loop
   vertex 0.013004 0.35578 0.010557
   vertex 0.013383 0.352828 0.010323
   vertex 0.014802 0.354155 0.012536
  endloop
 endfacet
 facet normal -0.708089 -0.304936 0.636886
  outer loop
   vertex 0.014802 0.354155 0.012536
   vertex 0.013383 0.352828 0.010323
   vertex 0.015415 0.351351 0.011875
  endloop
 endfacet
 facet normal -0.723015 -0.412034 0.554506
  outer loop
   vertex 0.013383 0.352828 0.010323
   vertex 0.014274 0.350523 0.009772
   vertex 0.015415 0.351351 0.011875
  endloop
 endfacet
 facet normal -0.0482486 -0.148392 0.987751
  outer loop
   vertex 0.019478 0.354304 0.014979
   vertex 0.022286 0.353391 0.014979
   vertex 0.02151 0.35578 0.0153
  endloop
 endfacet
 facet normal -0.262485 -0.303841 0.915851
  outer loop
   vertex 0.017257 0.35269 0.013807
   vertex 0.020128 0.351527 0.014244
   vertex 0.019478 0.354304 0.014979
  endloop
 endfacet
 facet normal -0.467426 -0.452641 0.759361
  outer loop
   vertex 0.015415 0.351351 0.011875
   vertex 0.017892 0.349902 0.012536
   vertex 0.017257 0.35269 0.013807
  endloop
 endfacet
 facet normal -0.0891868 -0.274301 0.957499
  outer loop
   vertex 0.019478 0.354304 0.014979
   vertex 0.020128 0.351527 0.014244
   vertex 0.022286 0.353391 0.014979
  endloop
 endfacet
 facet normal 0.0336945 -0.400135 0.915836
  outer loop
   vertex 0.020128 0.351527 0.014244
   vertex 0.023135 0.35078 0.013807
   vertex 0.022286 0.353391 0.014979
  endloop
 endfacet
 facet normal -0.310374 -0.451949 0.836307
  outer loop
   vertex 0.017257 0.35269 0.013807
   vertex 0.017892 0.349902 0.012536
   vertex 0.020128 0.351527 0.014244
  endloop
 endfacet
 facet normal -0.187559 -0.577248 0.794737
  outer loop
   vertex 0.017892 0.349902 0.012536
   vertex 0.020982 0.348898 0.012536
   vertex 0.020128 0.351527 0.014244
  endloop
 endfacet
 facet normal -0.0146149 -0.548074 0.836302
  outer loop
   vertex 0.020128 0.351527 0.014244
   vertex 0.020982 0.348898 0.012536
   vertex 0.023135 0.35078 0.013807
  endloop
 endfacet
 facet normal 0.112009 -0.640965 0.759354
  outer loop
   vertex 0.020982 0.348898 0.012536
   vertex 0.023838 0.348614 0.011875
   vertex 0.023135 0.35078 0.013807
  endloop
 endfacet
 facet normal -0.508799 -0.579247 0.636864
  outer loop
   vertex 0.015415 0.351351 0.011875
   vertex 0.016191 0.348963 0.010323
   vertex 0.017892 0.349902 0.012536
  endloop
 endfacet
 facet normal -0.38541 -0.704977 0.595371
  outer loop
   vertex 0.016191 0.348963 0.010323
   vertex 0.018881 0.34769 0.010557
   vertex 0.017892 0.349902 0.012536
  endloop
 endfacet
 facet normal -0.228709 -0.703897 0.672474
  outer loop
   vertex 0.017892 0.349902 0.012536
   vertex 0.018881 0.34769 0.010557
   vertex 0.020982 0.348898 0.012536
  endloop
 endfacet
 facet normal -0.102735 -0.796801 0.595444
  outer loop
   vertex 0.018881 0.34769 0.010557
   vertex 0.021806 0.347138 0.010323
   vertex 0.020982 0.348898 0.012536
  endloop
 endfacet
 facet normal 0.0710868 -0.767617 0.636955
  outer loop
   vertex 0.020982 0.348898 0.012536
   vertex 0.021806 0.347138 0.010323
   vertex 0.023838 0.348614 0.011875
  endloop
 endfacet
 facet normal 0.168666 -0.815046 0.554303
  outer loop
   vertex 0.021806 0.347138 0.010323
   vertex 0.024274 0.347274 0.009772
   vertex 0.023838 0.348614 0.011875
  endloop
 endfacet
 facet normal 0.126271 -0.0917039 0.987748
  outer loop
   vertex 0.022286 0.353391 0.014979
   vertex 0.024021 0.35578 0.014979
   vertex 0.02151 0.35578 0.0153
  endloop
 endfacet
 facet normal 0.207851 -0.343516 0.915858
  outer loop
   vertex 0.023135 0.35078 0.013807
   vertex 0.025128 0.353151 0.014244
   vertex 0.022286 0.353391 0.014979
  endloop
 endfacet
 facet normal 0.286233 -0.584386 0.759318
  outer loop
   vertex 0.023838 0.348614 0.011875
   vertex 0.025982 0.350523 0.012536
   vertex 0.023135 0.35078 0.013807
  endloop
 endfacet
 facet normal 0.233325 -0.169451 0.957521
  outer loop
   vertex 0.022286 0.353391 0.014979
   vertex 0.025128 0.353151 0.014244
   vertex 0.024021 0.35578 0.014979
  endloop
 endfacet
 facet normal 0.390899 -0.0914587 0.915878
  outer loop
   vertex 0.025128 0.353151 0.014244
   vertex 0.026767 0.35578 0.013807
   vertex 0.024021 0.35578 0.014979
  endloop
 endfacet
 facet normal 0.334054 -0.43492 0.836213
  outer loop
   vertex 0.023135 0.35078 0.013807
   vertex 0.025982 0.350523 0.012536
   vertex 0.025128 0.353151 0.014244
  endloop
 endfacet
 facet normal 0.491058 -0.356895 0.794662
  outer loop
   vertex 0.025982 0.350523 0.012536
   vertex 0.027892 0.353151 0.012536
   vertex 0.025128 0.353151 0.014244
  endloop
 endfacet
 facet normal 0.516783 -0.183167 0.836293
  outer loop
   vertex 0.025128 0.353151 0.014244
   vertex 0.027892 0.353151 0.012536
   vertex 0.026767 0.35578 0.013807
  endloop
 endfacet
 facet normal 0.644269 -0.0913996 0.759317
  outer loop
   vertex 0.027892 0.353151 0.012536
   vertex 0.029044 0.35578 0.011875
   vertex 0.026767 0.35578 0.013807
  endloop
 endfacet
 facet normal 0.393627 -0.662685 0.637108
  outer loop
   vertex 0.023838 0.348614 0.011875
   vertex 0.02635 0.348614 0.010323
   vertex 0.025982 0.350523 0.012536
  endloop
 endfacet
 facet normal 0.551379 -0.584158 0.595601
  outer loop
   vertex 0.02635 0.348614 0.010323
   vertex 0.028392 0.35078 0.010557
   vertex 0.025982 0.350523 0.012536
  endloop
 endfacet
 facet normal 0.598657 -0.435097 0.672533
  outer loop
   vertex 0.025982 0.350523 0.012536
   vertex 0.028392 0.35078 0.010557
   vertex 0.027892 0.353151 0.012536
  endloop
 endfacet
 facet normal 0.725985 -0.343961 0.595514
  outer loop
   vertex 0.028392 0.35078 0.010557
   vertex 0.029821 0.353391 0.010323
   vertex 0.027892 0.353151 0.012536
  endloop
 endfacet
 facet normal 0.751958 -0.169318 0.637095
  outer loop
   vertex 0.027892 0.353151 0.012536
   vertex 0.029821 0.353391 0.010323
   vertex 0.029044 0.35578 0.011875
  endloop
 endfacet
 facet normal 0.827124 -0.091254 0.554562
  outer loop
   vertex 0.029821 0.353391 0.010323
   vertex 0.030454 0.35578 0.009772
   vertex 0.029044 0.35578 0.011875
  endloop
 endfacet
 facet normal 0.905177 0.147939 0.398459
  outer loop
   vertex 0.031076 0.357256 0.007811
   vertex 0.029821 0.358169 0.010323
   vertex 0.030454 0.35578 0.009772
  endloop
 endfacet
 facet normal 0.93657 0.303801 0.17476
  outer loop
   vertex 0.031021 0.35887 0.0053
   vertex 0.030128 0.360033 0.008064
   vertex 0.031076 0.357256 0.007811
  endloop
 endfacet
 facet normal 0.888212 0.452708 -0.078331
  outer loop
   vertex 0.030117 0.360209 0.002788
   vertex 0.0296 0.361658 0.0053
   vertex 0.031021 0.35887 0.0053
  endloop
 endfacet
 facet normal 0.89641 0.274294 0.348155
  outer loop
   vertex 0.031076 0.357256 0.007811
   vertex 0.030128 0.360033 0.008064
   vertex 0.029821 0.358169 0.010323
  endloop
 endfacet
 facet normal 0.803858 0.400541 0.439749
  outer loop
   vertex 0.030128 0.360033 0.008064
   vertex 0.028392 0.36078 0.010557
   vertex 0.029821 0.358169 0.010323
  endloop
 endfacet
 facet normal 0.886806 0.451991 0.0963284
  outer loop
   vertex 0.031021 0.35887 0.0053
   vertex 0.0296 0.361658 0.0053
   vertex 0.030128 0.360033 0.008064
  endloop
 endfacet
 facet normal 0.794662 0.577331 0.18762
  outer loop
   vertex 0.0296 0.361658 0.0053
   vertex 0.028218 0.362662 0.008064
   vertex 0.030128 0.360033 0.008064
  endloop
 endfacet
 facet normal 0.754436 0.548107 0.361117
  outer loop
   vertex 0.030128 0.360033 0.008064
   vertex 0.028218 0.362662 0.008064
   vertex 0.028392 0.36078 0.010557
  endloop
 endfacet
 facet normal 0.629279 0.640767 0.439803
  outer loop
   vertex 0.028218 0.362662 0.008064
   vertex 0.02635 0.362946 0.010323
   vertex 0.028392 0.36078 0.010557
  endloop
 endfacet
 facet normal 0.797233 0.579229 -0.170037
  outer loop
   vertex 0.030117 0.360209 0.002788
   vertex 0.028382 0.362597 0.002788
   vertex 0.0296 0.361658 0.0053
  endloop
 endfacet
 facet normal 0.704936 0.704936 -0.0782949
  outer loop
   vertex 0.028382 0.362597 0.002788
   vertex 0.027388 0.36387 0.0053
   vertex 0.0296 0.361658 0.0053
  endloop
 endfacet
 facet normal 0.703824 0.703824 0.0962537
  outer loop
   vertex 0.0296 0.361658 0.0053
   vertex 0.027388 0.36387 0.0053
   vertex 0.028218 0.362662 0.008064
  endloop
 endfacet
 facet normal 0.578519 0.796783 0.174509
  outer loop
   vertex 0.027388 0.36387 0.0053
   vertex 0.02587 0.364422 0.007812
   vertex 0.028218 0.362662 0.008064
  endloop
 endfacet
 facet normal 0.537986 0.767602 0.348366
  outer loop
   vertex 0.028218 0.362662 0.008064
   vertex 0.02587 0.364422 0.007812
   vertex 0.02635 0.362946 0.010323
  endloop
 endfacet
 facet normal 0.420269 0.815078 0.398776
  outer loop
   vertex 0.02587 0.364422 0.007812
   vertex 0.024274 0.364286 0.009772
   vertex 0.02635 0.362946 0.010323
  endloop
 endfacet
 facet normal 0.138975 0.90647 0.398746
  outer loop
   vertex 0.023062 0.365334 0.007812
   vertex 0.021806 0.364422 0.010323
   vertex 0.024274 0.364286 0.009772
  endloop
 endfacet
 facet normal 0.000555151 0.98466 0.174481
  outer loop
   vertex 0.02151 0.36578 0.0053
   vertex 0.020128 0.365291 0.008064
   vertex 0.023062 0.365334 0.007812
  endloop
 endfacet
 facet normal -0.155824 0.984657 -0.07855
  outer loop
   vertex 0.019958 0.365334 0.002788
   vertex 0.01842 0.365291 0.0053
   vertex 0.02151 0.36578 0.0053
  endloop
 endfacet
 facet normal 0.0161962 0.937175 0.348485
  outer loop
   vertex 0.023062 0.365334 0.007812
   vertex 0.020128 0.365291 0.008064
   vertex 0.021806 0.364422 0.010323
  endloop
 endfacet
 facet normal -0.132412 0.888171 0.440021
  outer loop
   vertex 0.020128 0.365291 0.008064
   vertex 0.018881 0.36387 0.010557
   vertex 0.021806 0.364422 0.010323
  endloop
 endfacet
 facet normal -0.155583 0.983133 0.0961419
  outer loop
   vertex 0.02151 0.36578 0.0053
   vertex 0.01842 0.365291 0.0053
   vertex 0.020128 0.365291 0.008064
  endloop
 endfacet
 facet normal -0.303796 0.934059 0.187729
  outer loop
   vertex 0.01842 0.365291 0.0053
   vertex 0.017038 0.364286 0.008064
   vertex 0.020128 0.365291 0.008064
  endloop
 endfacet
 facet normal -0.288415 0.886769 0.361189
  outer loop
   vertex 0.020128 0.365291 0.008064
   vertex 0.017038 0.364286 0.008064
   vertex 0.018881 0.36387 0.010557
  endloop
 endfacet
 facet normal -0.415138 0.796394 0.439791
  outer loop
   vertex 0.017038 0.364286 0.008064
   vertex 0.016191 0.362597 0.010323
   vertex 0.018881 0.36387 0.010557
  endloop
 endfacet
 facet normal -0.304389 0.937197 -0.170322
  outer loop
   vertex 0.019958 0.365334 0.002788
   vertex 0.01715 0.364422 0.002788
   vertex 0.01842 0.365291 0.0053
  endloop
 endfacet
 facet normal -0.452705 0.888208 -0.0783901
  outer loop
   vertex 0.01715 0.364422 0.002788
   vertex 0.015632 0.36387 0.0053
   vertex 0.01842 0.365291 0.0053
  endloop
 endfacet
 facet normal -0.451986 0.886796 0.0964489
  outer loop
   vertex 0.01842 0.365291 0.0053
   vertex 0.015632 0.36387 0.0053
   vertex 0.017038 0.364286 0.008064
  endloop
 endfacet
 facet normal -0.578874 0.796508 0.174584
  outer loop
   vertex 0.015632 0.36387 0.0053
   vertex 0.014638 0.362597 0.007812
   vertex 0.017038 0.364286 0.008064
  endloop
 endfacet
 facet normal -0.563623 0.748876 0.348589
  outer loop
   vertex 0.017038 0.364286 0.008064
   vertex 0.014638 0.362597 0.007812
   vertex 0.016191 0.362597 0.010323
  endloop
 endfacet
 facet normal -0.645038 0.651744 0.398942
  outer loop
   vertex 0.014638 0.362597 0.007812
   vertex 0.014274 0.361037 0.009772
   vertex 0.016191 0.362597 0.010323
  endloop
 endfacet
 facet normal -0.819189 0.412026 0.398954
  outer loop
   vertex 0.012903 0.360209 0.007812
   vertex 0.013383 0.358732 0.010323
   vertex 0.014274 0.361037 0.009772
  endloop
 endfacet
 facet normal -0.936352 0.304548 0.174631
  outer loop
   vertex 0.011999 0.35887 0.0053
   vertex 0.012038 0.357405 0.008064
   vertex 0.012903 0.360209 0.007812
  endloop
 endfacet
 facet normal -0.984653 0.155824 -0.0785916
  outer loop
   vertex 0.011944 0.357256 0.002789
   vertex 0.01151 0.35578 0.0053
   vertex 0.011999 0.35887 0.0053
  endloop
 endfacet
 facet normal -0.886309 0.304753 0.348685
  outer loop
   vertex 0.012903 0.360209 0.007812
   vertex 0.012038 0.357405 0.008064
   vertex 0.013383 0.358732 0.010323
  endloop
 endfacet
 facet normal -0.885615 0.148581 0.440011
  outer loop
   vertex 0.012038 0.357405 0.008064
   vertex 0.013004 0.35578 0.010557
   vertex 0.013383 0.358732 0.010323
  endloop
 endfacet
 facet normal -0.983115 0.15558 0.0963335
  outer loop
   vertex 0.011999 0.35887 0.0053
   vertex 0.01151 0.35578 0.0053
   vertex 0.012038 0.357405 0.008064
  endloop
 endfacet
 facet normal -0.982239 0 0.187634
  outer loop
   vertex 0.01151 0.35578 0.0053
   vertex 0.012038 0.354155 0.008064
   vertex 0.012038 0.357405 0.008064
  endloop
 endfacet
 facet normal -0.932446 0 0.361309
  outer loop
   vertex 0.012038 0.357405 0.008064
   vertex 0.012038 0.354155 0.008064
   vertex 0.013004 0.35578 0.010557
  endloop
 endfacet
 facet normal -0.885615 -0.148581 0.440011
  outer loop
   vertex 0.012038 0.354155 0.008064
   vertex 0.013383 0.352828 0.010323
   vertex 0.013004 0.35578 0.010557
  endloop
 endfacet
 facet normal -0.98539 -0 -0.170314
  outer loop
   vertex 0.011944 0.357256 0.002789
   vertex 0.011944 0.354304 0.002789
   vertex 0.01151 0.35578 0.0053
  endloop
 endfacet
 facet normal -0.984653 -0.155824 -0.0785916
  outer loop
   vertex 0.011944 0.354304 0.002789
   vertex 0.011999 0.35269 0.0053
   vertex 0.01151 0.35578 0.0053
  endloop
 endfacet
 facet normal -0.983115 -0.15558 0.0963335
  outer loop
   vertex 0.01151 0.35578 0.0053
   vertex 0.011999 0.35269 0.0053
   vertex 0.012038 0.354155 0.008064
  endloop
 endfacet
 facet normal -0.936352 -0.304548 0.174631
  outer loop
   vertex 0.011999 0.35269 0.0053
   vertex 0.012903 0.351351 0.007812
   vertex 0.012038 0.354155 0.008064
  endloop
 endfacet
 facet normal -0.886309 -0.304753 0.348685
  outer loop
   vertex 0.012038 0.354155 0.008064
   vertex 0.012903 0.351351 0.007812
   vertex 0.013383 0.352828 0.010323
  endloop
 endfacet
 facet normal -0.819189 -0.412026 0.398954
  outer loop
   vertex 0.012903 0.351351 0.007812
   vertex 0.014274 0.350523 0.009772
   vertex 0.013383 0.352828 0.010323
  endloop
 endfacet
 facet normal -0.645038 -0.651744 0.398942
  outer loop
   vertex 0.014638 0.348963 0.007812
   vertex 0.016191 0.348963 0.010323
   vertex 0.014274 0.350523 0.009772
  endloop
 endfacet
 facet normal -0.578874 -0.796508 0.174584
  outer loop
   vertex 0.015632 0.34769 0.0053
   vertex 0.017038 0.347274 0.008064
   vertex 0.014638 0.348963 0.007812
  endloop
 endfacet
 facet normal -0.452705 -0.888208 -0.0783901
  outer loop
   vertex 0.01715 0.347138 0.002788
   vertex 0.01842 0.346269 0.0053
   vertex 0.015632 0.34769 0.0053
  endloop
 endfacet
 facet normal -0.563623 -0.748876 0.348589
  outer loop
   vertex 0.014638 0.348963 0.007812
   vertex 0.017038 0.347274 0.008064
   vertex 0.016191 0.348963 0.010323
  endloop
 endfacet
 facet normal -0.415138 -0.796394 0.439791
  outer loop
   vertex 0.017038 0.347274 0.008064
   vertex 0.018881 0.34769 0.010557
   vertex 0.016191 0.348963 0.010323
  endloop
 endfacet
 facet normal -0.451986 -0.886796 0.0964489
  outer loop
   vertex 0.015632 0.34769 0.0053
   vertex 0.01842 0.346269 0.0053
   vertex 0.017038 0.347274 0.008064
  endloop
 endfacet
 facet normal -0.303796 -0.934059 0.187729
  outer loop
   vertex 0.01842 0.346269 0.0053
   vertex 0.020128 0.346269 0.008064
   vertex 0.017038 0.347274 0.008064
  endloop
 endfacet
 facet normal -0.288415 -0.886769 0.361189
  outer loop
   vertex 0.017038 0.347274 0.008064
   vertex 0.020128 0.346269 0.008064
   vertex 0.018881 0.34769 0.010557
  endloop
 endfacet
 facet normal -0.132412 -0.888171 0.440021
  outer loop
   vertex 0.020128 0.346269 0.008064
   vertex 0.021806 0.347138 0.010323
   vertex 0.018881 0.34769 0.010557
  endloop
 endfacet
 facet normal -0.304389 -0.937197 -0.170322
  outer loop
   vertex 0.01715 0.347138 0.002788
   vertex 0.019958 0.346226 0.002788
   vertex 0.01842 0.346269 0.0053
  endloop
 endfacet
 facet normal -0.155824 -0.984657 -0.07855
  outer loop
   vertex 0.019958 0.346226 0.002788
   vertex 0.02151 0.34578 0.0053
   vertex 0.01842 0.346269 0.0053
  endloop
 endfacet
 facet normal -0.155583 -0.983133 0.0961419
  outer loop
   vertex 0.01842 0.346269 0.0053
   vertex 0.02151 0.34578 0.0053
   vertex 0.020128 0.346269 0.008064
  endloop
 endfacet
 facet normal 0.000555151 -0.98466 0.174481
  outer loop
   vertex 0.02151 0.34578 0.0053
   vertex 0.023062 0.346226 0.007812
   vertex 0.020128 0.346269 0.008064
  endloop
 endfacet
 facet normal 0.0161962 -0.937175 0.348485
  outer loop
   vertex 0.020128 0.346269 0.008064
   vertex 0.023062 0.346226 0.007812
   vertex 0.021806 0.347138 0.010323
  endloop
 endfacet
 facet normal 0.138975 -0.90647 0.398746
  outer loop
   vertex 0.023062 0.346226 0.007812
   vertex 0.024274 0.347274 0.009772
   vertex 0.021806 0.347138 0.010323
  endloop
 endfacet
 facet normal 0.420269 -0.815078 0.398776
  outer loop
   vertex 0.02587 0.347138 0.007812
   vertex 0.02635 0.348614 0.010323
   vertex 0.024274 0.347274 0.009772
  endloop
 endfacet
 facet normal 0.578519 -0.796783 0.174509
  outer loop
   vertex 0.027388 0.34769 0.0053
   vertex 0.028218 0.348898 0.008064
   vertex 0.02587 0.347138 0.007812
  endloop
 endfacet
 facet normal 0.704936 -0.704936 -0.0782949
  outer loop
   vertex 0.028382 0.348963 0.002788
   vertex 0.0296 0.349902 0.0053
   vertex 0.027388 0.34769 0.0053
  endloop
 endfacet
 facet normal 0.537986 -0.767602 0.348366
  outer loop
   vertex 0.02587 0.347138 0.007812
   vertex 0.028218 0.348898 0.008064
   vertex 0.02635 0.348614 0.010323
  endloop
 endfacet
 facet normal 0.629279 -0.640767 0.439803
  outer loop
   vertex 0.028218 0.348898 0.008064
   vertex 0.028392 0.35078 0.010557
   vertex 0.02635 0.348614 0.010323
  endloop
 endfacet
 facet normal 0.703824 -0.703824 0.0962537
  outer loop
   vertex 0.027388 0.34769 0.0053
   vertex 0.0296 0.349902 0.0053
   vertex 0.028218 0.348898 0.008064
  endloop
 endfacet
 facet normal 0.794662 -0.577331 0.18762
  outer loop
   vertex 0.0296 0.349902 0.0053
   vertex 0.030128 0.351527 0.008064
   vertex 0.028218 0.348898 0.008064
  endloop
 endfacet
 facet normal 0.754436 -0.548107 0.361117
  outer loop
   vertex 0.028218 0.348898 0.008064
   vertex 0.030128 0.351527 0.008064
   vertex 0.028392 0.35078 0.010557
  endloop
 endfacet
 facet normal 0.803858 -0.400541 0.439749
  outer loop
   vertex 0.030128 0.351527 0.008064
   vertex 0.029821 0.353391 0.010323
   vertex 0.028392 0.35078 0.010557
  endloop
 endfacet
 facet normal 0.797233 -0.579229 -0.170037
  outer loop
   vertex 0.028382 0.348963 0.002788
   vertex 0.030117 0.351351 0.002788
   vertex 0.0296 0.349902 0.0053
  endloop
 endfacet
 facet normal 0.888212 -0.452708 -0.078331
  outer loop
   vertex 0.030117 0.351351 0.002788
   vertex 0.031021 0.35269 0.0053
   vertex 0.0296 0.349902 0.0053
  endloop
 endfacet
 facet normal 0.886806 -0.451991 0.0963284
  outer loop
   vertex 0.0296 0.349902 0.0053
   vertex 0.031021 0.35269 0.0053
   vertex 0.030128 0.351527 0.008064
  endloop
 endfacet
 facet normal 0.93657 -0.303801 0.17476
  outer loop
   vertex 0.031021 0.35269 0.0053
   vertex 0.031076 0.354304 0.007811
   vertex 0.030128 0.351527 0.008064
  endloop
 endfacet
 facet normal 0.89641 -0.274294 0.348155
  outer loop
   vertex 0.030128 0.351527 0.008064
   vertex 0.031076 0.354304 0.007811
   vertex 0.029821 0.353391 0.010323
  endloop
 endfacet
 facet normal 0.905177 -0.147939 0.398459
  outer loop
   vertex 0.031076 0.354304 0.007811
   vertex 0.030454 0.35578 0.009772
   vertex 0.029821 0.353391 0.010323
  endloop
 endfacet
 facet normal 0.294416 0.906493 0.302638
  outer loop
   vertex 0.02587 0.364422 0.007812
   vertex 0.023062 0.365334 0.007812
   vertex 0.024274 0.364286 0.009772
  endloop
 endfacet
 facet normal 0.452705 0.888208 0.0783901
  outer loop
   vertex 0.027388 0.36387 0.0053
   vertex 0.0246 0.365291 0.0053
   vertex 0.02587 0.364422 0.007812
  endloop
 endfacet
 facet normal 0.578874 0.796508 -0.174584
  outer loop
   vertex 0.028382 0.362597 0.002788
   vertex 0.025982 0.364286 0.002536
   vertex 0.027388 0.36387 0.0053
  endloop
 endfacet
 facet normal 0.304389 0.937197 0.170322
  outer loop
   vertex 0.02587 0.364422 0.007812
   vertex 0.0246 0.365291 0.0053
   vertex 0.023062 0.365334 0.007812
  endloop
 endfacet
 facet normal 0.155824 0.984657 0.07855
  outer loop
   vertex 0.0246 0.365291 0.0053
   vertex 0.02151 0.36578 0.0053
   vertex 0.023062 0.365334 0.007812
  endloop
 endfacet
 facet normal 0.451986 0.886796 -0.0964489
  outer loop
   vertex 0.027388 0.36387 0.0053
   vertex 0.025982 0.364286 0.002536
   vertex 0.0246 0.365291 0.0053
  endloop
 endfacet
 facet normal 0.303796 0.934059 -0.187729
  outer loop
   vertex 0.025982 0.364286 0.002536
   vertex 0.022892 0.365291 0.002536
   vertex 0.0246 0.365291 0.0053
  endloop
 endfacet
 facet normal 0.155583 0.983133 -0.0961419
  outer loop
   vertex 0.0246 0.365291 0.0053
   vertex 0.022892 0.365291 0.002536
   vertex 0.02151 0.36578 0.0053
  endloop
 endfacet
 facet normal -0.000555151 0.98466 -0.174481
  outer loop
   vertex 0.022892 0.365291 0.002536
   vertex 0.019958 0.365334 0.002788
   vertex 0.02151 0.36578 0.0053
  endloop
 endfacet
 facet normal 0.563623 0.748876 -0.348589
  outer loop
   vertex 0.028382 0.362597 0.002788
   vertex 0.026829 0.362597 0.000277
   vertex 0.025982 0.364286 0.002536
  endloop
 endfacet
 facet normal 0.415138 0.796394 -0.439791
  outer loop
   vertex 0.026829 0.362597 0.000277
   vertex 0.024139 0.36387 4.29998e-05
   vertex 0.025982 0.364286 0.002536
  endloop
 endfacet
 facet normal 0.288415 0.886769 -0.361189
  outer loop
   vertex 0.025982 0.364286 0.002536
   vertex 0.024139 0.36387 4.29998e-05
   vertex 0.022892 0.365291 0.002536
  endloop
 endfacet
 facet normal 0.132412 0.888171 -0.440021
  outer loop
   vertex 0.024139 0.36387 4.29998e-05
   vertex 0.021214 0.364422 0.000277
   vertex 0.022892 0.365291 0.002536
  endloop
 endfacet
 facet normal -0.0161962 0.937175 -0.348485
  outer loop
   vertex 0.022892 0.365291 0.002536
   vertex 0.021214 0.364422 0.000277
   vertex 0.019958 0.365334 0.002788
  endloop
 endfacet
 facet normal -0.138975 0.90647 -0.398746
  outer loop
   vertex 0.021214 0.364422 0.000277
   vertex 0.018746 0.364286 0.000828
   vertex 0.019958 0.365334 0.002788
  endloop
 endfacet
 facet normal -0.771063 0.560215 0.302688
  outer loop
   vertex 0.014638 0.362597 0.007812
   vertex 0.012903 0.360209 0.007812
   vertex 0.014274 0.361037 0.009772
  endloop
 endfacet
 facet normal -0.704936 0.704936 0.0782949
  outer loop
   vertex 0.015632 0.36387 0.0053
   vertex 0.01342 0.361658 0.0053
   vertex 0.014638 0.362597 0.007812
  endloop
 endfacet
 facet normal -0.578519 0.796783 -0.174509
  outer loop
   vertex 0.01715 0.364422 0.002788
   vertex 0.014802 0.362662 0.002536
   vertex 0.015632 0.36387 0.0053
  endloop
 endfacet
 facet normal -0.797233 0.579229 0.170037
  outer loop
   vertex 0.014638 0.362597 0.007812
   vertex 0.01342 0.361658 0.0053
   vertex 0.012903 0.360209 0.007812
  endloop
 endfacet
 facet normal -0.888212 0.452708 0.078331
  outer loop
   vertex 0.01342 0.361658 0.0053
   vertex 0.011999 0.35887 0.0053
   vertex 0.012903 0.360209 0.007812
  endloop
 endfacet
 facet normal -0.703824 0.703824 -0.0962537
  outer loop
   vertex 0.015632 0.36387 0.0053
   vertex 0.014802 0.362662 0.002536
   vertex 0.01342 0.361658 0.0053
  endloop
 endfacet
 facet normal -0.794662 0.577331 -0.18762
  outer loop
   vertex 0.014802 0.362662 0.002536
   vertex 0.012892 0.360033 0.002536
   vertex 0.01342 0.361658 0.0053
  endloop
 endfacet
 facet normal -0.886806 0.451991 -0.0963284
  outer loop
   vertex 0.01342 0.361658 0.0053
   vertex 0.012892 0.360033 0.002536
   vertex 0.011999 0.35887 0.0053
  endloop
 endfacet
 facet normal -0.93657 0.303801 -0.17476
  outer loop
   vertex 0.012892 0.360033 0.002536
   vertex 0.011944 0.357256 0.002789
   vertex 0.011999 0.35887 0.0053
  endloop
 endfacet
 facet normal -0.537986 0.767602 -0.348366
  outer loop
   vertex 0.01715 0.364422 0.002788
   vertex 0.01667 0.362946 0.000277
   vertex 0.014802 0.362662 0.002536
  endloop
 endfacet
 facet normal -0.629279 0.640767 -0.439803
  outer loop
   vertex 0.01667 0.362946 0.000277
   vertex 0.014628 0.36078 4.29998e-05
   vertex 0.014802 0.362662 0.002536
  endloop
 endfacet
 facet normal -0.754436 0.548107 -0.361117
  outer loop
   vertex 0.014802 0.362662 0.002536
   vertex 0.014628 0.36078 4.29998e-05
   vertex 0.012892 0.360033 0.002536
  endloop
 endfacet
 facet normal -0.803858 0.400541 -0.439749
  outer loop
   vertex 0.014628 0.36078 4.29998e-05
   vertex 0.013199 0.358169 0.000277
   vertex 0.012892 0.360033 0.002536
  endloop
 endfacet
 facet normal -0.89641 0.274294 -0.348155
  outer loop
   vertex 0.012892 0.360033 0.002536
   vertex 0.013199 0.358169 0.000277
   vertex 0.011944 0.357256 0.002789
  endloop
 endfacet
 facet normal -0.905177 0.147939 -0.398459
  outer loop
   vertex 0.013199 0.358169 0.000277
   vertex 0.012566 0.35578 0.000828
   vertex 0.011944 0.357256 0.002789
  endloop
 endfacet
 facet normal -0.771063 -0.560215 0.302688
  outer loop
   vertex 0.012903 0.351351 0.007812
   vertex 0.014638 0.348963 0.007812
   vertex 0.014274 0.350523 0.009772
  endloop
 endfacet
 facet normal -0.888212 -0.452708 0.078331
  outer loop
   vertex 0.011999 0.35269 0.0053
   vertex 0.01342 0.349902 0.0053
   vertex 0.012903 0.351351 0.007812
  endloop
 endfacet
 facet normal -0.93657 -0.303801 -0.17476
  outer loop
   vertex 0.011944 0.354304 0.002789
   vertex 0.012892 0.351527 0.002536
   vertex 0.011999 0.35269 0.0053
  endloop
 endfacet
 facet normal -0.797233 -0.579229 0.170037
  outer loop
   vertex 0.012903 0.351351 0.007812
   vertex 0.01342 0.349902 0.0053
   vertex 0.014638 0.348963 0.007812
  endloop
 endfacet
 facet normal -0.704936 -0.704936 0.0782949
  outer loop
   vertex 0.01342 0.349902 0.0053
   vertex 0.015632 0.34769 0.0053
   vertex 0.014638 0.348963 0.007812
  endloop
 endfacet
 facet normal -0.886806 -0.451991 -0.0963284
  outer loop
   vertex 0.011999 0.35269 0.0053
   vertex 0.012892 0.351527 0.002536
   vertex 0.01342 0.349902 0.0053
  endloop
 endfacet
 facet normal -0.794662 -0.577331 -0.18762
  outer loop
   vertex 0.012892 0.351527 0.002536
   vertex 0.014802 0.348898 0.002536
   vertex 0.01342 0.349902 0.0053
  endloop
 endfacet
 facet normal -0.703824 -0.703824 -0.0962537
  outer loop
   vertex 0.01342 0.349902 0.0053
   vertex 0.014802 0.348898 0.002536
   vertex 0.015632 0.34769 0.0053
  endloop
 endfacet
 facet normal -0.578519 -0.796783 -0.174509
  outer loop
   vertex 0.014802 0.348898 0.002536
   vertex 0.01715 0.347138 0.002788
   vertex 0.015632 0.34769 0.0053
  endloop
 endfacet
 facet normal -0.89641 -0.274294 -0.348155
  outer loop
   vertex 0.011944 0.354304 0.002789
   vertex 0.013199 0.353391 0.000277
   vertex 0.012892 0.351527 0.002536
  endloop
 endfacet
 facet normal -0.803858 -0.400541 -0.439749
  outer loop
   vertex 0.013199 0.353391 0.000277
   vertex 0.014628 0.35078 4.29998e-05
   vertex 0.012892 0.351527 0.002536
  endloop
 endfacet
 facet normal -0.754436 -0.548107 -0.361117
  outer loop
   vertex 0.012892 0.351527 0.002536
   vertex 0.014628 0.35078 4.29998e-05
   vertex 0.014802 0.348898 0.002536
  endloop
 endfacet
 facet normal -0.629279 -0.640767 -0.439803
  outer loop
   vertex 0.014628 0.35078 4.29998e-05
   vertex 0.01667 0.348614 0.000277
   vertex 0.014802 0.348898 0.002536
  endloop
 endfacet
 facet normal -0.537986 -0.767602 -0.348366
  outer loop
   vertex 0.014802 0.348898 0.002536
   vertex 0.01667 0.348614 0.000277
   vertex 0.01715 0.347138 0.002788
  endloop
 endfacet
 facet normal -0.420269 -0.815078 -0.398776
  outer loop
   vertex 0.01667 0.348614 0.000277
   vertex 0.018746 0.347274 0.000828
   vertex 0.01715 0.347138 0.002788
  endloop
 endfacet
 facet normal 0.294416 -0.906493 0.302638
  outer loop
   vertex 0.023062 0.346226 0.007812
   vertex 0.02587 0.347138 0.007812
   vertex 0.024274 0.347274 0.009772
  endloop
 endfacet
 facet normal 0.155824 -0.984657 0.07855
  outer loop
   vertex 0.02151 0.34578 0.0053
   vertex 0.0246 0.346269 0.0053
   vertex 0.023062 0.346226 0.007812
  endloop
 endfacet
 facet normal -0.000555151 -0.98466 -0.174481
  outer loop
   vertex 0.019958 0.346226 0.002788
   vertex 0.022892 0.346269 0.002536
   vertex 0.02151 0.34578 0.0053
  endloop
 endfacet
 facet normal 0.304389 -0.937197 0.170322
  outer loop
   vertex 0.023062 0.346226 0.007812
   vertex 0.0246 0.346269 0.0053
   vertex 0.02587 0.347138 0.007812
  endloop
 endfacet
 facet normal 0.452705 -0.888208 0.0783901
  outer loop
   vertex 0.0246 0.346269 0.0053
   vertex 0.027388 0.34769 0.0053
   vertex 0.02587 0.347138 0.007812
  endloop
 endfacet
 facet normal 0.155583 -0.983133 -0.0961419
  outer loop
   vertex 0.02151 0.34578 0.0053
   vertex 0.022892 0.346269 0.002536
   vertex 0.0246 0.346269 0.0053
  endloop
 endfacet
 facet normal 0.303796 -0.934059 -0.187729
  outer loop
   vertex 0.022892 0.346269 0.002536
   vertex 0.025982 0.347274 0.002536
   vertex 0.0246 0.346269 0.0053
  endloop
 endfacet
 facet normal 0.451986 -0.886796 -0.0964489
  outer loop
   vertex 0.0246 0.346269 0.0053
   vertex 0.025982 0.347274 0.002536
   vertex 0.027388 0.34769 0.0053
  endloop
 endfacet
 facet normal 0.578874 -0.796508 -0.174584
  outer loop
   vertex 0.025982 0.347274 0.002536
   vertex 0.028382 0.348963 0.002788
   vertex 0.027388 0.34769 0.0053
  endloop
 endfacet
 facet normal -0.0161962 -0.937175 -0.348485
  outer loop
   vertex 0.019958 0.346226 0.002788
   vertex 0.021214 0.347138 0.000277
   vertex 0.022892 0.346269 0.002536
  endloop
 endfacet
 facet normal 0.132412 -0.888171 -0.440021
  outer loop
   vertex 0.021214 0.347138 0.000277
   vertex 0.024139 0.34769 4.29998e-05
   vertex 0.022892 0.346269 0.002536
  endloop
 endfacet
 facet normal 0.288415 -0.886769 -0.361189
  outer loop
   vertex 0.022892 0.346269 0.002536
   vertex 0.024139 0.34769 4.29998e-05
   vertex 0.025982 0.347274 0.002536
  endloop
 endfacet
 facet normal 0.415138 -0.796394 -0.439791
  outer loop
   vertex 0.024139 0.34769 4.29998e-05
   vertex 0.026829 0.348963 0.000277
   vertex 0.025982 0.347274 0.002536
  endloop
 endfacet
 facet normal 0.563623 -0.748876 -0.348589
  outer loop
   vertex 0.025982 0.347274 0.002536
   vertex 0.026829 0.348963 0.000277
   vertex 0.028382 0.348963 0.002788
  endloop
 endfacet
 facet normal 0.645038 -0.651744 -0.398942
  outer loop
   vertex 0.026829 0.348963 0.000277
   vertex 0.028746 0.350523 0.000828
   vertex 0.028382 0.348963 0.002788
  endloop
 endfacet
 facet normal 0.9532 -0 0.302341
  outer loop
   vertex 0.031076 0.354304 0.007811
   vertex 0.031076 0.357256 0.007811
   vertex 0.030454 0.35578 0.009772
  endloop
 endfacet
 facet normal 0.984653 -0.155824 0.0785916
  outer loop
   vertex 0.031021 0.35269 0.0053
   vertex 0.03151 0.35578 0.0053
   vertex 0.031076 0.354304 0.007811
  endloop
 endfacet
 facet normal 0.936352 -0.304548 -0.174631
  outer loop
   vertex 0.030117 0.351351 0.002788
   vertex 0.030982 0.354155 0.002536
   vertex 0.031021 0.35269 0.0053
  endloop
 endfacet
 facet normal 0.98539 -0 0.170314
  outer loop
   vertex 0.031076 0.354304 0.007811
   vertex 0.03151 0.35578 0.0053
   vertex 0.031076 0.357256 0.007811
  endloop
 endfacet
 facet normal 0.984653 0.155824 0.0785916
  outer loop
   vertex 0.03151 0.35578 0.0053
   vertex 0.031021 0.35887 0.0053
   vertex 0.031076 0.357256 0.007811
  endloop
 endfacet
 facet normal 0.983115 -0.15558 -0.0963335
  outer loop
   vertex 0.031021 0.35269 0.0053
   vertex 0.030982 0.354155 0.002536
   vertex 0.03151 0.35578 0.0053
  endloop
 endfacet
 facet normal 0.982239 0 -0.187634
  outer loop
   vertex 0.030982 0.354155 0.002536
   vertex 0.030982 0.357405 0.002536
   vertex 0.03151 0.35578 0.0053
  endloop
 endfacet
 facet normal 0.983115 0.15558 -0.0963335
  outer loop
   vertex 0.03151 0.35578 0.0053
   vertex 0.030982 0.357405 0.002536
   vertex 0.031021 0.35887 0.0053
  endloop
 endfacet
 facet normal 0.936352 0.304548 -0.174631
  outer loop
   vertex 0.030982 0.357405 0.002536
   vertex 0.030117 0.360209 0.002788
   vertex 0.031021 0.35887 0.0053
  endloop
 endfacet
 facet normal 0.886309 -0.304753 -0.348685
  outer loop
   vertex 0.030117 0.351351 0.002788
   vertex 0.029637 0.352828 0.000277
   vertex 0.030982 0.354155 0.002536
  endloop
 endfacet
 facet normal 0.885615 -0.148581 -0.440011
  outer loop
   vertex 0.029637 0.352828 0.000277
   vertex 0.030016 0.35578 4.29998e-05
   vertex 0.030982 0.354155 0.002536
  endloop
 endfacet
 facet normal 0.932446 0 -0.361309
  outer loop
   vertex 0.030982 0.354155 0.002536
   vertex 0.030016 0.35578 4.29998e-05
   vertex 0.030982 0.357405 0.002536
  endloop
 endfacet
 facet normal 0.885615 0.148581 -0.440011
  outer loop
   vertex 0.030016 0.35578 4.29998e-05
   vertex 0.029637 0.358732 0.000277
   vertex 0.030982 0.357405 0.002536
  endloop
 endfacet
 facet normal 0.886309 0.304753 -0.348685
  outer loop
   vertex 0.030982 0.357405 0.002536
   vertex 0.029637 0.358732 0.000277
   vertex 0.030117 0.360209 0.002788
  endloop
 endfacet
 facet normal 0.819189 0.412026 -0.398954
  outer loop
   vertex 0.029637 0.358732 0.000277
   vertex 0.028746 0.361037 0.000828
   vertex 0.030117 0.360209 0.002788
  endloop
 endfacet
 facet normal 0.61533 0.560308 -0.554459
  outer loop
   vertex 0.027605 0.360209 -0.001275
   vertex 0.026829 0.362597 0.000277
   vertex 0.028746 0.361037 0.000828
  endloop
 endfacet
 facet normal 0.467426 0.452641 -0.759361
  outer loop
   vertex 0.025763 0.35887 -0.003207
   vertex 0.025128 0.361658 -0.001936
   vertex 0.027605 0.360209 -0.001275
  endloop
 endfacet
 facet normal 0.262485 0.303841 -0.915851
  outer loop
   vertex 0.023542 0.357256 -0.004379
   vertex 0.022892 0.360033 -0.003644
   vertex 0.025763 0.35887 -0.003207
  endloop
 endfacet
 facet normal 0.508799 0.579247 -0.636864
  outer loop
   vertex 0.027605 0.360209 -0.001275
   vertex 0.025128 0.361658 -0.001936
   vertex 0.026829 0.362597 0.000277
  endloop
 endfacet
 facet normal 0.38541 0.704977 -0.595371
  outer loop
   vertex 0.025128 0.361658 -0.001936
   vertex 0.024139 0.36387 4.29998e-05
   vertex 0.026829 0.362597 0.000277
  endloop
 endfacet
 facet normal 0.310374 0.451949 -0.836307
  outer loop
   vertex 0.025763 0.35887 -0.003207
   vertex 0.022892 0.360033 -0.003644
   vertex 0.025128 0.361658 -0.001936
  endloop
 endfacet
 facet normal 0.187559 0.577248 -0.794737
  outer loop
   vertex 0.022892 0.360033 -0.003644
   vertex 0.022038 0.362662 -0.001936
   vertex 0.025128 0.361658 -0.001936
  endloop
 endfacet
 facet normal 0.228709 0.703897 -0.672474
  outer loop
   vertex 0.025128 0.361658 -0.001936
   vertex 0.022038 0.362662 -0.001936
   vertex 0.024139 0.36387 4.29998e-05
  endloop
 endfacet
 facet normal 0.102735 0.796801 -0.595444
  outer loop
   vertex 0.022038 0.362662 -0.001936
   vertex 0.021214 0.364422 0.000277
   vertex 0.024139 0.36387 4.29998e-05
  endloop
 endfacet
 facet normal 0.0891868 0.274301 -0.957499
  outer loop
   vertex 0.023542 0.357256 -0.004379
   vertex 0.020734 0.358169 -0.004379
   vertex 0.022892 0.360033 -0.003644
  endloop
 endfacet
 facet normal -0.0336945 0.400135 -0.915836
  outer loop
   vertex 0.020734 0.358169 -0.004379
   vertex 0.019885 0.36078 -0.003207
   vertex 0.022892 0.360033 -0.003644
  endloop
 endfacet
 facet normal 0.0146149 0.548074 -0.836302
  outer loop
   vertex 0.022892 0.360033 -0.003644
   vertex 0.019885 0.36078 -0.003207
   vertex 0.022038 0.362662 -0.001936
  endloop
 endfacet
 facet normal -0.112009 0.640965 -0.759354
  outer loop
   vertex 0.019885 0.36078 -0.003207
   vertex 0.019182 0.362946 -0.001275
   vertex 0.022038 0.362662 -0.001936
  endloop
 endfacet
 facet normal -0.0710868 0.767617 -0.636955
  outer loop
   vertex 0.022038 0.362662 -0.001936
   vertex 0.019182 0.362946 -0.001275
   vertex 0.021214 0.364422 0.000277
  endloop
 endfacet
 facet normal -0.168666 0.815046 -0.554303
  outer loop
   vertex 0.019182 0.362946 -0.001275
   vertex 0.018746 0.364286 0.000828
   vertex 0.021214 0.364422 0.000277
  endloop
 endfacet
 facet normal -0.342493 0.758552 -0.554344
  outer loop
   vertex 0.019182 0.362946 -0.001275
   vertex 0.01667 0.362946 0.000277
   vertex 0.018746 0.364286 0.000828
  endloop
 endfacet
 facet normal -0.286233 0.584386 -0.759318
  outer loop
   vertex 0.019885 0.36078 -0.003207
   vertex 0.017038 0.361037 -0.001936
   vertex 0.019182 0.362946 -0.001275
  endloop
 endfacet
 facet normal -0.207851 0.343516 -0.915858
  outer loop
   vertex 0.020734 0.358169 -0.004379
   vertex 0.017892 0.358409 -0.003644
   vertex 0.019885 0.36078 -0.003207
  endloop
 endfacet
 facet normal -0.393627 0.662685 -0.637108
  outer loop
   vertex 0.019182 0.362946 -0.001275
   vertex 0.017038 0.361037 -0.001936
   vertex 0.01667 0.362946 0.000277
  endloop
 endfacet
 facet normal -0.551379 0.584158 -0.595601
  outer loop
   vertex 0.017038 0.361037 -0.001936
   vertex 0.014628 0.36078 4.29998e-05
   vertex 0.01667 0.362946 0.000277
  endloop
 endfacet
 facet normal -0.334054 0.43492 -0.836213
  outer loop
   vertex 0.019885 0.36078 -0.003207
   vertex 0.017892 0.358409 -0.003644
   vertex 0.017038 0.361037 -0.001936
  endloop
 endfacet
 facet normal -0.491058 0.356895 -0.794662
  outer loop
   vertex 0.017892 0.358409 -0.003644
   vertex 0.015128 0.358409 -0.001936
   vertex 0.017038 0.361037 -0.001936
  endloop
 endfacet
 facet normal -0.598657 0.435097 -0.672533
  outer loop
   vertex 0.017038 0.361037 -0.001936
   vertex 0.015128 0.358409 -0.001936
   vertex 0.014628 0.36078 4.29998e-05
  endloop
 endfacet
 facet normal -0.725985 0.343961 -0.595514
  outer loop
   vertex 0.015128 0.358409 -0.001936
   vertex 0.013199 0.358169 0.000277
   vertex 0.014628 0.36078 4.29998e-05
  endloop
 endfacet
 facet normal -0.233325 0.169451 -0.957521
  outer loop
   vertex 0.020734 0.358169 -0.004379
   vertex 0.018999 0.35578 -0.004379
   vertex 0.017892 0.358409 -0.003644
  endloop
 endfacet
 facet normal -0.390899 0.0914587 -0.915878
  outer loop
   vertex 0.018999 0.35578 -0.004379
   vertex 0.016253 0.35578 -0.003207
   vertex 0.017892 0.358409 -0.003644
  endloop
 endfacet
 facet normal -0.516783 0.183167 -0.836293
  outer loop
   vertex 0.017892 0.358409 -0.003644
   vertex 0.016253 0.35578 -0.003207
   vertex 0.015128 0.358409 -0.001936
  endloop
 endfacet
 facet normal -0.644269 0.0913996 -0.759317
  outer loop
   vertex 0.016253 0.35578 -0.003207
   vertex 0.013976 0.35578 -0.001275
   vertex 0.015128 0.358409 -0.001936
  endloop
 endfacet
 facet normal -0.751958 0.169318 -0.637095
  outer loop
   vertex 0.015128 0.358409 -0.001936
   vertex 0.013976 0.35578 -0.001275
   vertex 0.013199 0.358169 0.000277
  endloop
 endfacet
 facet normal -0.827124 0.091254 -0.554562
  outer loop
   vertex 0.013976 0.35578 -0.001275
   vertex 0.012566 0.35578 0.000828
   vertex 0.013199 0.358169 0.000277
  endloop
 endfacet
 facet normal -0.827124 -0.091254 -0.554562
  outer loop
   vertex 0.013976 0.35578 -0.001275
   vertex 0.013199 0.353391 0.000277
   vertex 0.012566 0.35578 0.000828
  endloop
 endfacet
 facet normal -0.644269 -0.0913996 -0.759317
  outer loop
   vertex 0.016253 0.35578 -0.003207
   vertex 0.015128 0.353151 -0.001936
   vertex 0.013976 0.35578 -0.001275
  endloop
 endfacet
 facet normal -0.390899 -0.0914587 -0.915878
  outer loop
   vertex 0.018999 0.35578 -0.004379
   vertex 0.017892 0.353151 -0.003644
   vertex 0.016253 0.35578 -0.003207
  endloop
 endfacet
 facet normal -0.751958 -0.169318 -0.637095
  outer loop
   vertex 0.013976 0.35578 -0.001275
   vertex 0.015128 0.353151 -0.001936
   vertex 0.013199 0.353391 0.000277
  endloop
 endfacet
 facet normal -0.725985 -0.343961 -0.595514
  outer loop
   vertex 0.015128 0.353151 -0.001936
   vertex 0.014628 0.35078 4.29998e-05
   vertex 0.013199 0.353391 0.000277
  endloop
 endfacet
 facet normal -0.516783 -0.183167 -0.836293
  outer loop
   vertex 0.016253 0.35578 -0.003207
   vertex 0.017892 0.353151 -0.003644
   vertex 0.015128 0.353151 -0.001936
  endloop
 endfacet
 facet normal -0.491058 -0.356895 -0.794662
  outer loop
   vertex 0.017892 0.353151 -0.003644
   vertex 0.017038 0.350523 -0.001936
   vertex 0.015128 0.353151 -0.001936
  endloop
 endfacet
 facet normal -0.598657 -0.435097 -0.672533
  outer loop
   vertex 0.015128 0.353151 -0.001936
   vertex 0.017038 0.350523 -0.001936
   vertex 0.014628 0.35078 4.29998e-05
  endloop
 endfacet
 facet normal -0.551379 -0.584158 -0.595601
  outer loop
   vertex 0.017038 0.350523 -0.001936
   vertex 0.01667 0.348614 0.000277
   vertex 0.014628 0.35078 4.29998e-05
  endloop
 endfacet
 facet normal -0.233325 -0.169451 -0.957521
  outer loop
   vertex 0.018999 0.35578 -0.004379
   vertex 0.020734 0.353391 -0.004379
   vertex 0.017892 0.353151 -0.003644
  endloop
 endfacet
 facet normal -0.207851 -0.343516 -0.915858
  outer loop
   vertex 0.020734 0.353391 -0.004379
   vertex 0.019885 0.35078 -0.003207
   vertex 0.017892 0.353151 -0.003644
  endloop
 endfacet
 facet normal -0.334054 -0.43492 -0.836213
  outer loop
   vertex 0.017892 0.353151 -0.003644
   vertex 0.019885 0.35078 -0.003207
   vertex 0.017038 0.350523 -0.001936
  endloop
 endfacet
 facet normal -0.286233 -0.584386 -0.759318
  outer loop
   vertex 0.019885 0.35078 -0.003207
   vertex 0.019182 0.348614 -0.001275
   vertex 0.017038 0.350523 -0.001936
  endloop
 endfacet
 facet normal -0.393627 -0.662685 -0.637108
  outer loop
   vertex 0.017038 0.350523 -0.001936
   vertex 0.019182 0.348614 -0.001275
   vertex 0.01667 0.348614 0.000277
  endloop
 endfacet
 facet normal -0.342493 -0.758552 -0.554344
  outer loop
   vertex 0.019182 0.348614 -0.001275
   vertex 0.018746 0.347274 0.000828
   vertex 0.01667 0.348614 0.000277
  endloop
 endfacet
 facet normal 0.723015 0.412034 -0.554506
  outer loop
   vertex 0.029637 0.358732 0.000277
   vertex 0.027605 0.360209 -0.001275
   vertex 0.028746 0.361037 0.000828
  endloop
 endfacet
 facet normal 0.789589 0.148568 -0.59538
  outer loop
   vertex 0.030016 0.35578 4.29998e-05
   vertex 0.028218 0.357405 -0.001936
   vertex 0.029637 0.358732 0.000277
  endloop
 endfacet
 facet normal 0.789589 -0.148568 -0.59538
  outer loop
   vertex 0.029637 0.352828 0.000277
   vertex 0.028218 0.354155 -0.001936
   vertex 0.030016 0.35578 4.29998e-05
  endloop
 endfacet
 facet normal 0.708089 0.304936 -0.636886
  outer loop
   vertex 0.029637 0.358732 0.000277
   vertex 0.028218 0.357405 -0.001936
   vertex 0.027605 0.360209 -0.001275
  endloop
 endfacet
 facet normal 0.574948 0.304695 -0.759339
  outer loop
   vertex 0.028218 0.357405 -0.001936
   vertex 0.025763 0.35887 -0.003207
   vertex 0.027605 0.360209 -0.001275
  endloop
 endfacet
 facet normal 0.740143 0 -0.672449
  outer loop
   vertex 0.030016 0.35578 4.29998e-05
   vertex 0.028218 0.354155 -0.001936
   vertex 0.028218 0.357405 -0.001936
  endloop
 endfacet
 facet normal 0.607028 0 -0.794681
  outer loop
   vertex 0.028218 0.354155 -0.001936
   vertex 0.025982 0.35578 -0.003644
   vertex 0.028218 0.357405 -0.001936
  endloop
 endfacet
 facet normal 0.525774 0.155534 -0.836284
  outer loop
   vertex 0.028218 0.357405 -0.001936
   vertex 0.025982 0.35578 -0.003644
   vertex 0.025763 0.35887 -0.003207
  endloop
 endfacet
 facet normal 0.370096 0.155752 -0.915844
  outer loop
   vertex 0.025982 0.35578 -0.003644
   vertex 0.023542 0.357256 -0.004379
   vertex 0.025763 0.35887 -0.003207
  endloop
 endfacet
 facet normal 0.708089 -0.304936 -0.636886
  outer loop
   vertex 0.029637 0.352828 0.000277
   vertex 0.027605 0.351351 -0.001275
   vertex 0.028218 0.354155 -0.001936
  endloop
 endfacet
 facet normal 0.574948 -0.304695 -0.759339
  outer loop
   vertex 0.027605 0.351351 -0.001275
   vertex 0.025763 0.35269 -0.003207
   vertex 0.028218 0.354155 -0.001936
  endloop
 endfacet
 facet normal 0.525774 -0.155534 -0.836284
  outer loop
   vertex 0.028218 0.354155 -0.001936
   vertex 0.025763 0.35269 -0.003207
   vertex 0.025982 0.35578 -0.003644
  endloop
 endfacet
 facet normal 0.370096 -0.155752 -0.915844
  outer loop
   vertex 0.025763 0.35269 -0.003207
   vertex 0.023542 0.354304 -0.004379
   vertex 0.025982 0.35578 -0.003644
  endloop
 endfacet
 facet normal 0.288428 0 -0.957502
  outer loop
   vertex 0.025982 0.35578 -0.003644
   vertex 0.023542 0.354304 -0.004379
   vertex 0.023542 0.357256 -0.004379
  endloop
 endfacet
 facet normal 0.156037 0 -0.987751
  outer loop
   vertex 0.023542 0.354304 -0.004379
   vertex 0.02151 0.35578 -0.0047
   vertex 0.023542 0.357256 -0.004379
  endloop
 endfacet
 facet normal -0.168666 -0.815046 -0.554303
  outer loop
   vertex 0.019182 0.348614 -0.001275
   vertex 0.021214 0.347138 0.000277
   vertex 0.018746 0.347274 0.000828
  endloop
 endfacet
 facet normal -0.112009 -0.640965 -0.759354
  outer loop
   vertex 0.019885 0.35078 -0.003207
   vertex 0.022038 0.348898 -0.001936
   vertex 0.019182 0.348614 -0.001275
  endloop
 endfacet
 facet normal -0.0336945 -0.400135 -0.915836
  outer loop
   vertex 0.020734 0.353391 -0.004379
   vertex 0.022892 0.351527 -0.003644
   vertex 0.019885 0.35078 -0.003207
  endloop
 endfacet
 facet normal -0.0710868 -0.767617 -0.636955
  outer loop
   vertex 0.019182 0.348614 -0.001275
   vertex 0.022038 0.348898 -0.001936
   vertex 0.021214 0.347138 0.000277
  endloop
 endfacet
 facet normal 0.102735 -0.796801 -0.595444
  outer loop
   vertex 0.022038 0.348898 -0.001936
   vertex 0.024139 0.34769 4.29998e-05
   vertex 0.021214 0.347138 0.000277
  endloop
 endfacet
 facet normal 0.0146149 -0.548074 -0.836302
  outer loop
   vertex 0.019885 0.35078 -0.003207
   vertex 0.022892 0.351527 -0.003644
   vertex 0.022038 0.348898 -0.001936
  endloop
 endfacet
 facet normal 0.187559 -0.577248 -0.794737
  outer loop
   vertex 0.022892 0.351527 -0.003644
   vertex 0.025128 0.349902 -0.001936
   vertex 0.022038 0.348898 -0.001936
  endloop
 endfacet
 facet normal 0.228709 -0.703897 -0.672474
  outer loop
   vertex 0.022038 0.348898 -0.001936
   vertex 0.025128 0.349902 -0.001936
   vertex 0.024139 0.34769 4.29998e-05
  endloop
 endfacet
 facet normal 0.38541 -0.704977 -0.595371
  outer loop
   vertex 0.025128 0.349902 -0.001936
   vertex 0.026829 0.348963 0.000277
   vertex 0.024139 0.34769 4.29998e-05
  endloop
 endfacet
 facet normal 0.0891868 -0.274301 -0.957499
  outer loop
   vertex 0.020734 0.353391 -0.004379
   vertex 0.023542 0.354304 -0.004379
   vertex 0.022892 0.351527 -0.003644
  endloop
 endfacet
 facet normal 0.262485 -0.303841 -0.915851
  outer loop
   vertex 0.023542 0.354304 -0.004379
   vertex 0.025763 0.35269 -0.003207
   vertex 0.022892 0.351527 -0.003644
  endloop
 endfacet
 facet normal 0.310374 -0.451949 -0.836307
  outer loop
   vertex 0.022892 0.351527 -0.003644
   vertex 0.025763 0.35269 -0.003207
   vertex 0.025128 0.349902 -0.001936
  endloop
 endfacet
 facet normal 0.467426 -0.452641 -0.759361
  outer loop
   vertex 0.025763 0.35269 -0.003207
   vertex 0.027605 0.351351 -0.001275
   vertex 0.025128 0.349902 -0.001936
  endloop
 endfacet
 facet normal 0.508799 -0.579247 -0.636864
  outer loop
   vertex 0.025128 0.349902 -0.001936
   vertex 0.027605 0.351351 -0.001275
   vertex 0.026829 0.348963 0.000277
  endloop
 endfacet
 facet normal 0.61533 -0.560308 -0.554459
  outer loop
   vertex 0.027605 0.351351 -0.001275
   vertex 0.028746 0.350523 0.000828
   vertex 0.026829 0.348963 0.000277
  endloop
 endfacet
endsolid ExportedfromBlender-3.5.1
