solid ExportedfromBlender-3.5.1
 facet normal 0.0482486 -0.148392 -0.987751
  outer loop
   vertex 0.01477 0.14345 0.00984
   vertex 0.016802 0.141974 0.010161
   vertex 0.013994 0.141061 0.010161
  endloop
 endfacet
 facet normal 0.723015 -0.412034 -0.554506
  outer loop
   vertex 0.022006 0.138193 0.015368
   vertex 0.020865 0.139021 0.013265
   vertex 0.022897 0.140498 0.014817
  endloop
 endfacet
 facet normal -0.126271 -0.0917039 -0.987748
  outer loop
   vertex 0.01477 0.14345 0.00984
   vertex 0.013994 0.141061 0.010161
   vertex 0.012259 0.14345 0.010161
  endloop
 endfacet
 facet normal -0.126271 0.0917039 -0.987748
  outer loop
   vertex 0.01477 0.14345 0.00984
   vertex 0.012259 0.14345 0.010161
   vertex 0.013994 0.145839 0.010161
  endloop
 endfacet
 facet normal 0.0482486 0.148392 -0.987751
  outer loop
   vertex 0.01477 0.14345 0.00984
   vertex 0.013994 0.145839 0.010161
   vertex 0.016802 0.144926 0.010161
  endloop
 endfacet
 facet normal 0.819189 -0.412026 -0.398954
  outer loop
   vertex 0.022006 0.138193 0.015368
   vertex 0.022897 0.140498 0.014817
   vertex 0.023377 0.139021 0.017328
  endloop
 endfacet
 facet normal -0.138975 -0.90647 -0.398746
  outer loop
   vertex 0.012006 0.134944 0.015368
   vertex 0.014474 0.134808 0.014817
   vertex 0.013218 0.133896 0.017328
  endloop
 endfacet
 facet normal -0.905177 -0.147939 -0.398459
  outer loop
   vertex 0.005826 0.14345 0.015368
   vertex 0.006459 0.141061 0.014817
   vertex 0.005204 0.141974 0.017329
  endloop
 endfacet
 facet normal -0.420269 0.815078 -0.398776
  outer loop
   vertex 0.012006 0.151956 0.015368
   vertex 0.00993 0.150616 0.014817
   vertex 0.01041 0.152092 0.017328
  endloop
 endfacet
 facet normal 0.645038 0.651744 -0.398942
  outer loop
   vertex 0.022006 0.148707 0.015368
   vertex 0.020089 0.150267 0.014817
   vertex 0.021642 0.150267 0.017328
  endloop
 endfacet
 facet normal 0.771063 -0.560215 -0.302688
  outer loop
   vertex 0.022006 0.138193 0.015368
   vertex 0.023377 0.139021 0.017328
   vertex 0.021642 0.136633 0.017328
  endloop
 endfacet
 facet normal -0.294416 -0.906493 -0.302638
  outer loop
   vertex 0.012006 0.134944 0.015368
   vertex 0.013218 0.133896 0.017328
   vertex 0.01041 0.134808 0.017328
  endloop
 endfacet
 facet normal -0.9532 0 -0.302341
  outer loop
   vertex 0.005826 0.14345 0.015368
   vertex 0.005204 0.141974 0.017329
   vertex 0.005204 0.144926 0.017329
  endloop
 endfacet
 facet normal -0.294416 0.906493 -0.302638
  outer loop
   vertex 0.012006 0.151956 0.015368
   vertex 0.01041 0.152092 0.017328
   vertex 0.013218 0.153004 0.017328
  endloop
 endfacet
 facet normal 0.771063 0.560215 -0.302688
  outer loop
   vertex 0.022006 0.148707 0.015368
   vertex 0.021642 0.150267 0.017328
   vertex 0.023377 0.147879 0.017328
  endloop
 endfacet
 facet normal 0.342493 -0.758552 0.554344
  outer loop
   vertex 0.017534 0.134944 0.024312
   vertex 0.01961 0.136284 0.024863
   vertex 0.017098 0.136284 0.026415
  endloop
 endfacet
 facet normal -0.61533 -0.560308 0.554459
  outer loop
   vertex 0.007534 0.138193 0.024312
   vertex 0.009451 0.136633 0.024863
   vertex 0.008675 0.139021 0.026415
  endloop
 endfacet
 facet normal -0.723015 0.412034 0.554506
  outer loop
   vertex 0.007534 0.148707 0.024312
   vertex 0.006643 0.146402 0.024863
   vertex 0.008675 0.147879 0.026415
  endloop
 endfacet
 facet normal 0.168666 0.815046 0.554303
  outer loop
   vertex 0.017534 0.151956 0.024312
   vertex 0.015066 0.152092 0.024863
   vertex 0.017098 0.150616 0.026415
  endloop
 endfacet
 facet normal 0.827124 0.091254 0.554562
  outer loop
   vertex 0.023714 0.14345 0.024312
   vertex 0.023081 0.145839 0.024863
   vertex 0.022304 0.14345 0.026415
  endloop
 endfacet
 facet normal 0.126271 0.0917039 0.987748
  outer loop
   vertex 0.017281 0.14345 0.029519
   vertex 0.015546 0.145839 0.029519
   vertex 0.01477 0.14345 0.02984
  endloop
 endfacet
 facet normal 0.390899 0.0914587 0.915878
  outer loop
   vertex 0.020027 0.14345 0.028347
   vertex 0.018388 0.146079 0.028784
   vertex 0.017281 0.14345 0.029519
  endloop
 endfacet
 facet normal 0.644269 0.0913996 0.759317
  outer loop
   vertex 0.022304 0.14345 0.026415
   vertex 0.021152 0.146079 0.027076
   vertex 0.020027 0.14345 0.028347
  endloop
 endfacet
 facet normal 0.233325 0.169451 0.957521
  outer loop
   vertex 0.017281 0.14345 0.029519
   vertex 0.018388 0.146079 0.028784
   vertex 0.015546 0.145839 0.029519
  endloop
 endfacet
 facet normal 0.207851 0.343516 0.915858
  outer loop
   vertex 0.018388 0.146079 0.028784
   vertex 0.016395 0.14845 0.028347
   vertex 0.015546 0.145839 0.029519
  endloop
 endfacet
 facet normal 0.516783 0.183167 0.836293
  outer loop
   vertex 0.020027 0.14345 0.028347
   vertex 0.021152 0.146079 0.027076
   vertex 0.018388 0.146079 0.028784
  endloop
 endfacet
 facet normal 0.491058 0.356895 0.794662
  outer loop
   vertex 0.021152 0.146079 0.027076
   vertex 0.019242 0.148707 0.027076
   vertex 0.018388 0.146079 0.028784
  endloop
 endfacet
 facet normal 0.334054 0.43492 0.836213
  outer loop
   vertex 0.018388 0.146079 0.028784
   vertex 0.019242 0.148707 0.027076
   vertex 0.016395 0.14845 0.028347
  endloop
 endfacet
 facet normal 0.286233 0.584386 0.759318
  outer loop
   vertex 0.019242 0.148707 0.027076
   vertex 0.017098 0.150616 0.026415
   vertex 0.016395 0.14845 0.028347
  endloop
 endfacet
 facet normal 0.751958 0.169318 0.637095
  outer loop
   vertex 0.022304 0.14345 0.026415
   vertex 0.023081 0.145839 0.024863
   vertex 0.021152 0.146079 0.027076
  endloop
 endfacet
 facet normal 0.725985 0.343961 0.595514
  outer loop
   vertex 0.023081 0.145839 0.024863
   vertex 0.021652 0.14845 0.025097
   vertex 0.021152 0.146079 0.027076
  endloop
 endfacet
 facet normal 0.598657 0.435097 0.672533
  outer loop
   vertex 0.021152 0.146079 0.027076
   vertex 0.021652 0.14845 0.025097
   vertex 0.019242 0.148707 0.027076
  endloop
 endfacet
 facet normal 0.551379 0.584158 0.595601
  outer loop
   vertex 0.021652 0.14845 0.025097
   vertex 0.01961 0.150616 0.024863
   vertex 0.019242 0.148707 0.027076
  endloop
 endfacet
 facet normal 0.393627 0.662685 0.637108
  outer loop
   vertex 0.019242 0.148707 0.027076
   vertex 0.01961 0.150616 0.024863
   vertex 0.017098 0.150616 0.026415
  endloop
 endfacet
 facet normal 0.342493 0.758552 0.554344
  outer loop
   vertex 0.01961 0.150616 0.024863
   vertex 0.017534 0.151956 0.024312
   vertex 0.017098 0.150616 0.026415
  endloop
 endfacet
 facet normal -0.0482486 0.148392 0.987751
  outer loop
   vertex 0.015546 0.145839 0.029519
   vertex 0.012738 0.144926 0.029519
   vertex 0.01477 0.14345 0.02984
  endloop
 endfacet
 facet normal 0.0336945 0.400135 0.915836
  outer loop
   vertex 0.016395 0.14845 0.028347
   vertex 0.013388 0.147703 0.028784
   vertex 0.015546 0.145839 0.029519
  endloop
 endfacet
 facet normal 0.112009 0.640965 0.759354
  outer loop
   vertex 0.017098 0.150616 0.026415
   vertex 0.014242 0.150332 0.027076
   vertex 0.016395 0.14845 0.028347
  endloop
 endfacet
 facet normal -0.0891868 0.274301 0.957499
  outer loop
   vertex 0.015546 0.145839 0.029519
   vertex 0.013388 0.147703 0.028784
   vertex 0.012738 0.144926 0.029519
  endloop
 endfacet
 facet normal -0.262485 0.303841 0.915851
  outer loop
   vertex 0.013388 0.147703 0.028784
   vertex 0.010517 0.14654 0.028347
   vertex 0.012738 0.144926 0.029519
  endloop
 endfacet
 facet normal -0.0146149 0.548074 0.836302
  outer loop
   vertex 0.016395 0.14845 0.028347
   vertex 0.014242 0.150332 0.027076
   vertex 0.013388 0.147703 0.028784
  endloop
 endfacet
 facet normal -0.187559 0.577248 0.794737
  outer loop
   vertex 0.014242 0.150332 0.027076
   vertex 0.011152 0.149328 0.027076
   vertex 0.013388 0.147703 0.028784
  endloop
 endfacet
 facet normal -0.310374 0.451949 0.836307
  outer loop
   vertex 0.013388 0.147703 0.028784
   vertex 0.011152 0.149328 0.027076
   vertex 0.010517 0.14654 0.028347
  endloop
 endfacet
 facet normal -0.467426 0.452641 0.759361
  outer loop
   vertex 0.011152 0.149328 0.027076
   vertex 0.008675 0.147879 0.026415
   vertex 0.010517 0.14654 0.028347
  endloop
 endfacet
 facet normal 0.0710868 0.767617 0.636955
  outer loop
   vertex 0.017098 0.150616 0.026415
   vertex 0.015066 0.152092 0.024863
   vertex 0.014242 0.150332 0.027076
  endloop
 endfacet
 facet normal -0.102735 0.796801 0.595444
  outer loop
   vertex 0.015066 0.152092 0.024863
   vertex 0.012141 0.15154 0.025097
   vertex 0.014242 0.150332 0.027076
  endloop
 endfacet
 facet normal -0.228709 0.703897 0.672474
  outer loop
   vertex 0.014242 0.150332 0.027076
   vertex 0.012141 0.15154 0.025097
   vertex 0.011152 0.149328 0.027076
  endloop
 endfacet
 facet normal -0.38541 0.704977 0.595371
  outer loop
   vertex 0.012141 0.15154 0.025097
   vertex 0.009451 0.150267 0.024863
   vertex 0.011152 0.149328 0.027076
  endloop
 endfacet
 facet normal -0.508799 0.579247 0.636864
  outer loop
   vertex 0.011152 0.149328 0.027076
   vertex 0.009451 0.150267 0.024863
   vertex 0.008675 0.147879 0.026415
  endloop
 endfacet
 facet normal -0.61533 0.560308 0.554459
  outer loop
   vertex 0.009451 0.150267 0.024863
   vertex 0.007534 0.148707 0.024312
   vertex 0.008675 0.147879 0.026415
  endloop
 endfacet
 facet normal -0.156037 0 0.987751
  outer loop
   vertex 0.012738 0.144926 0.029519
   vertex 0.012738 0.141974 0.029519
   vertex 0.01477 0.14345 0.02984
  endloop
 endfacet
 facet normal -0.370096 0.155752 0.915844
  outer loop
   vertex 0.010517 0.14654 0.028347
   vertex 0.010298 0.14345 0.028784
   vertex 0.012738 0.144926 0.029519
  endloop
 endfacet
 facet normal -0.574948 0.304695 0.759339
  outer loop
   vertex 0.008675 0.147879 0.026415
   vertex 0.008062 0.145075 0.027076
   vertex 0.010517 0.14654 0.028347
  endloop
 endfacet
 facet normal -0.288428 0 0.957502
  outer loop
   vertex 0.012738 0.144926 0.029519
   vertex 0.010298 0.14345 0.028784
   vertex 0.012738 0.141974 0.029519
  endloop
 endfacet
 facet normal -0.370096 -0.155752 0.915844
  outer loop
   vertex 0.010298 0.14345 0.028784
   vertex 0.010517 0.14036 0.028347
   vertex 0.012738 0.141974 0.029519
  endloop
 endfacet
 facet normal -0.525774 0.155534 0.836284
  outer loop
   vertex 0.010517 0.14654 0.028347
   vertex 0.008062 0.145075 0.027076
   vertex 0.010298 0.14345 0.028784
  endloop
 endfacet
 facet normal -0.607028 0 0.794681
  outer loop
   vertex 0.008062 0.145075 0.027076
   vertex 0.008062 0.141825 0.027076
   vertex 0.010298 0.14345 0.028784
  endloop
 endfacet
 facet normal -0.525774 -0.155534 0.836284
  outer loop
   vertex 0.010298 0.14345 0.028784
   vertex 0.008062 0.141825 0.027076
   vertex 0.010517 0.14036 0.028347
  endloop
 endfacet
 facet normal -0.574948 -0.304695 0.759339
  outer loop
   vertex 0.008062 0.141825 0.027076
   vertex 0.008675 0.139021 0.026415
   vertex 0.010517 0.14036 0.028347
  endloop
 endfacet
 facet normal -0.708089 0.304936 0.636886
  outer loop
   vertex 0.008675 0.147879 0.026415
   vertex 0.006643 0.146402 0.024863
   vertex 0.008062 0.145075 0.027076
  endloop
 endfacet
 facet normal -0.789589 0.148568 0.59538
  outer loop
   vertex 0.006643 0.146402 0.024863
   vertex 0.006264 0.14345 0.025097
   vertex 0.008062 0.145075 0.027076
  endloop
 endfacet
 facet normal -0.740143 0 0.672449
  outer loop
   vertex 0.008062 0.145075 0.027076
   vertex 0.006264 0.14345 0.025097
   vertex 0.008062 0.141825 0.027076
  endloop
 endfacet
 facet normal -0.789589 -0.148568 0.59538
  outer loop
   vertex 0.006264 0.14345 0.025097
   vertex 0.006643 0.140498 0.024863
   vertex 0.008062 0.141825 0.027076
  endloop
 endfacet
 facet normal -0.708089 -0.304936 0.636886
  outer loop
   vertex 0.008062 0.141825 0.027076
   vertex 0.006643 0.140498 0.024863
   vertex 0.008675 0.139021 0.026415
  endloop
 endfacet
 facet normal -0.723015 -0.412034 0.554506
  outer loop
   vertex 0.006643 0.140498 0.024863
   vertex 0.007534 0.138193 0.024312
   vertex 0.008675 0.139021 0.026415
  endloop
 endfacet
 facet normal -0.0482486 -0.148392 0.987751
  outer loop
   vertex 0.012738 0.141974 0.029519
   vertex 0.015546 0.141061 0.029519
   vertex 0.01477 0.14345 0.02984
  endloop
 endfacet
 facet normal -0.262485 -0.303841 0.915851
  outer loop
   vertex 0.010517 0.14036 0.028347
   vertex 0.013388 0.139197 0.028784
   vertex 0.012738 0.141974 0.029519
  endloop
 endfacet
 facet normal -0.467426 -0.452641 0.759361
  outer loop
   vertex 0.008675 0.139021 0.026415
   vertex 0.011152 0.137572 0.027076
   vertex 0.010517 0.14036 0.028347
  endloop
 endfacet
 facet normal -0.0891868 -0.274301 0.957499
  outer loop
   vertex 0.012738 0.141974 0.029519
   vertex 0.013388 0.139197 0.028784
   vertex 0.015546 0.141061 0.029519
  endloop
 endfacet
 facet normal 0.0336945 -0.400135 0.915836
  outer loop
   vertex 0.013388 0.139197 0.028784
   vertex 0.016395 0.13845 0.028347
   vertex 0.015546 0.141061 0.029519
  endloop
 endfacet
 facet normal -0.310374 -0.451949 0.836307
  outer loop
   vertex 0.010517 0.14036 0.028347
   vertex 0.011152 0.137572 0.027076
   vertex 0.013388 0.139197 0.028784
  endloop
 endfacet
 facet normal -0.187559 -0.577248 0.794737
  outer loop
   vertex 0.011152 0.137572 0.027076
   vertex 0.014242 0.136568 0.027076
   vertex 0.013388 0.139197 0.028784
  endloop
 endfacet
 facet normal -0.0146149 -0.548074 0.836302
  outer loop
   vertex 0.013388 0.139197 0.028784
   vertex 0.014242 0.136568 0.027076
   vertex 0.016395 0.13845 0.028347
  endloop
 endfacet
 facet normal 0.112009 -0.640965 0.759354
  outer loop
   vertex 0.014242 0.136568 0.027076
   vertex 0.017098 0.136284 0.026415
   vertex 0.016395 0.13845 0.028347
  endloop
 endfacet
 facet normal -0.508799 -0.579247 0.636864
  outer loop
   vertex 0.008675 0.139021 0.026415
   vertex 0.009451 0.136633 0.024863
   vertex 0.011152 0.137572 0.027076
  endloop
 endfacet
 facet normal -0.38541 -0.704977 0.595371
  outer loop
   vertex 0.009451 0.136633 0.024863
   vertex 0.012141 0.13536 0.025097
   vertex 0.011152 0.137572 0.027076
  endloop
 endfacet
 facet normal -0.228709 -0.703897 0.672474
  outer loop
   vertex 0.011152 0.137572 0.027076
   vertex 0.012141 0.13536 0.025097
   vertex 0.014242 0.136568 0.027076
  endloop
 endfacet
 facet normal -0.102735 -0.796801 0.595444
  outer loop
   vertex 0.012141 0.13536 0.025097
   vertex 0.015066 0.134808 0.024863
   vertex 0.014242 0.136568 0.027076
  endloop
 endfacet
 facet normal 0.0710868 -0.767617 0.636955
  outer loop
   vertex 0.014242 0.136568 0.027076
   vertex 0.015066 0.134808 0.024863
   vertex 0.017098 0.136284 0.026415
  endloop
 endfacet
 facet normal 0.168666 -0.815046 0.554303
  outer loop
   vertex 0.015066 0.134808 0.024863
   vertex 0.017534 0.134944 0.024312
   vertex 0.017098 0.136284 0.026415
  endloop
 endfacet
 facet normal 0.126271 -0.0917039 0.987748
  outer loop
   vertex 0.015546 0.141061 0.029519
   vertex 0.017281 0.14345 0.029519
   vertex 0.01477 0.14345 0.02984
  endloop
 endfacet
 facet normal 0.207851 -0.343516 0.915858
  outer loop
   vertex 0.016395 0.13845 0.028347
   vertex 0.018388 0.140821 0.028784
   vertex 0.015546 0.141061 0.029519
  endloop
 endfacet
 facet normal 0.286233 -0.584386 0.759318
  outer loop
   vertex 0.017098 0.136284 0.026415
   vertex 0.019242 0.138193 0.027076
   vertex 0.016395 0.13845 0.028347
  endloop
 endfacet
 facet normal 0.233325 -0.169451 0.957521
  outer loop
   vertex 0.015546 0.141061 0.029519
   vertex 0.018388 0.140821 0.028784
   vertex 0.017281 0.14345 0.029519
  endloop
 endfacet
 facet normal 0.390899 -0.0914587 0.915878
  outer loop
   vertex 0.018388 0.140821 0.028784
   vertex 0.020027 0.14345 0.028347
   vertex 0.017281 0.14345 0.029519
  endloop
 endfacet
 facet normal 0.334054 -0.43492 0.836213
  outer loop
   vertex 0.016395 0.13845 0.028347
   vertex 0.019242 0.138193 0.027076
   vertex 0.018388 0.140821 0.028784
  endloop
 endfacet
 facet normal 0.491058 -0.356895 0.794662
  outer loop
   vertex 0.019242 0.138193 0.027076
   vertex 0.021152 0.140821 0.027076
   vertex 0.018388 0.140821 0.028784
  endloop
 endfacet
 facet normal 0.516783 -0.183167 0.836293
  outer loop
   vertex 0.018388 0.140821 0.028784
   vertex 0.021152 0.140821 0.027076
   vertex 0.020027 0.14345 0.028347
  endloop
 endfacet
 facet normal 0.644269 -0.0913996 0.759317
  outer loop
   vertex 0.021152 0.140821 0.027076
   vertex 0.022304 0.14345 0.026415
   vertex 0.020027 0.14345 0.028347
  endloop
 endfacet
 facet normal 0.393627 -0.662685 0.637108
  outer loop
   vertex 0.017098 0.136284 0.026415
   vertex 0.01961 0.136284 0.024863
   vertex 0.019242 0.138193 0.027076
  endloop
 endfacet
 facet normal 0.551379 -0.584158 0.595601
  outer loop
   vertex 0.01961 0.136284 0.024863
   vertex 0.021652 0.13845 0.025097
   vertex 0.019242 0.138193 0.027076
  endloop
 endfacet
 facet normal 0.598657 -0.435097 0.672533
  outer loop
   vertex 0.019242 0.138193 0.027076
   vertex 0.021652 0.13845 0.025097
   vertex 0.021152 0.140821 0.027076
  endloop
 endfacet
 facet normal 0.725985 -0.343961 0.595514
  outer loop
   vertex 0.021652 0.13845 0.025097
   vertex 0.023081 0.141061 0.024863
   vertex 0.021152 0.140821 0.027076
  endloop
 endfacet
 facet normal 0.751958 -0.169318 0.637095
  outer loop
   vertex 0.021152 0.140821 0.027076
   vertex 0.023081 0.141061 0.024863
   vertex 0.022304 0.14345 0.026415
  endloop
 endfacet
 facet normal 0.827124 -0.091254 0.554562
  outer loop
   vertex 0.023081 0.141061 0.024863
   vertex 0.023714 0.14345 0.024312
   vertex 0.022304 0.14345 0.026415
  endloop
 endfacet
 facet normal 0.905177 0.147939 0.398459
  outer loop
   vertex 0.024336 0.144926 0.022351
   vertex 0.023081 0.145839 0.024863
   vertex 0.023714 0.14345 0.024312
  endloop
 endfacet
 facet normal 0.93657 0.303801 0.17476
  outer loop
   vertex 0.024281 0.14654 0.01984
   vertex 0.023388 0.147703 0.022604
   vertex 0.024336 0.144926 0.022351
  endloop
 endfacet
 facet normal 0.888212 0.452708 -0.078331
  outer loop
   vertex 0.023377 0.147879 0.017328
   vertex 0.02286 0.149328 0.01984
   vertex 0.024281 0.14654 0.01984
  endloop
 endfacet
 facet normal 0.89641 0.274294 0.348155
  outer loop
   vertex 0.024336 0.144926 0.022351
   vertex 0.023388 0.147703 0.022604
   vertex 0.023081 0.145839 0.024863
  endloop
 endfacet
 facet normal 0.803858 0.400541 0.439749
  outer loop
   vertex 0.023388 0.147703 0.022604
   vertex 0.021652 0.14845 0.025097
   vertex 0.023081 0.145839 0.024863
  endloop
 endfacet
 facet normal 0.886806 0.451991 0.0963284
  outer loop
   vertex 0.024281 0.14654 0.01984
   vertex 0.02286 0.149328 0.01984
   vertex 0.023388 0.147703 0.022604
  endloop
 endfacet
 facet normal 0.794662 0.577331 0.18762
  outer loop
   vertex 0.02286 0.149328 0.01984
   vertex 0.021478 0.150332 0.022604
   vertex 0.023388 0.147703 0.022604
  endloop
 endfacet
 facet normal 0.754436 0.548107 0.361117
  outer loop
   vertex 0.023388 0.147703 0.022604
   vertex 0.021478 0.150332 0.022604
   vertex 0.021652 0.14845 0.025097
  endloop
 endfacet
 facet normal 0.629279 0.640767 0.439803
  outer loop
   vertex 0.021478 0.150332 0.022604
   vertex 0.01961 0.150616 0.024863
   vertex 0.021652 0.14845 0.025097
  endloop
 endfacet
 facet normal 0.797233 0.579229 -0.170037
  outer loop
   vertex 0.023377 0.147879 0.017328
   vertex 0.021642 0.150267 0.017328
   vertex 0.02286 0.149328 0.01984
  endloop
 endfacet
 facet normal 0.704936 0.704936 -0.0782949
  outer loop
   vertex 0.021642 0.150267 0.017328
   vertex 0.020648 0.15154 0.01984
   vertex 0.02286 0.149328 0.01984
  endloop
 endfacet
 facet normal 0.703824 0.703824 0.0962537
  outer loop
   vertex 0.02286 0.149328 0.01984
   vertex 0.020648 0.15154 0.01984
   vertex 0.021478 0.150332 0.022604
  endloop
 endfacet
 facet normal 0.578519 0.796783 0.174509
  outer loop
   vertex 0.020648 0.15154 0.01984
   vertex 0.01913 0.152092 0.022352
   vertex 0.021478 0.150332 0.022604
  endloop
 endfacet
 facet normal 0.537986 0.767602 0.348366
  outer loop
   vertex 0.021478 0.150332 0.022604
   vertex 0.01913 0.152092 0.022352
   vertex 0.01961 0.150616 0.024863
  endloop
 endfacet
 facet normal 0.420269 0.815078 0.398776
  outer loop
   vertex 0.01913 0.152092 0.022352
   vertex 0.017534 0.151956 0.024312
   vertex 0.01961 0.150616 0.024863
  endloop
 endfacet
 facet normal 0.138975 0.90647 0.398746
  outer loop
   vertex 0.016322 0.153004 0.022352
   vertex 0.015066 0.152092 0.024863
   vertex 0.017534 0.151956 0.024312
  endloop
 endfacet
 facet normal 0.000555151 0.98466 0.174481
  outer loop
   vertex 0.01477 0.15345 0.01984
   vertex 0.013388 0.152961 0.022604
   vertex 0.016322 0.153004 0.022352
  endloop
 endfacet
 facet normal -0.155824 0.984657 -0.07855
  outer loop
   vertex 0.013218 0.153004 0.017328
   vertex 0.01168 0.152961 0.01984
   vertex 0.01477 0.15345 0.01984
  endloop
 endfacet
 facet normal 0.0161962 0.937175 0.348485
  outer loop
   vertex 0.016322 0.153004 0.022352
   vertex 0.013388 0.152961 0.022604
   vertex 0.015066 0.152092 0.024863
  endloop
 endfacet
 facet normal -0.132412 0.888171 0.440021
  outer loop
   vertex 0.013388 0.152961 0.022604
   vertex 0.012141 0.15154 0.025097
   vertex 0.015066 0.152092 0.024863
  endloop
 endfacet
 facet normal -0.155583 0.983133 0.0961419
  outer loop
   vertex 0.01477 0.15345 0.01984
   vertex 0.01168 0.152961 0.01984
   vertex 0.013388 0.152961 0.022604
  endloop
 endfacet
 facet normal -0.303796 0.934059 0.187729
  outer loop
   vertex 0.01168 0.152961 0.01984
   vertex 0.010298 0.151956 0.022604
   vertex 0.013388 0.152961 0.022604
  endloop
 endfacet
 facet normal -0.288415 0.886769 0.361189
  outer loop
   vertex 0.013388 0.152961 0.022604
   vertex 0.010298 0.151956 0.022604
   vertex 0.012141 0.15154 0.025097
  endloop
 endfacet
 facet normal -0.415138 0.796394 0.439791
  outer loop
   vertex 0.010298 0.151956 0.022604
   vertex 0.009451 0.150267 0.024863
   vertex 0.012141 0.15154 0.025097
  endloop
 endfacet
 facet normal -0.304389 0.937197 -0.170322
  outer loop
   vertex 0.013218 0.153004 0.017328
   vertex 0.01041 0.152092 0.017328
   vertex 0.01168 0.152961 0.01984
  endloop
 endfacet
 facet normal -0.452705 0.888208 -0.0783901
  outer loop
   vertex 0.01041 0.152092 0.017328
   vertex 0.008892 0.15154 0.01984
   vertex 0.01168 0.152961 0.01984
  endloop
 endfacet
 facet normal -0.451986 0.886796 0.0964489
  outer loop
   vertex 0.01168 0.152961 0.01984
   vertex 0.008892 0.15154 0.01984
   vertex 0.010298 0.151956 0.022604
  endloop
 endfacet
 facet normal -0.578874 0.796508 0.174584
  outer loop
   vertex 0.008892 0.15154 0.01984
   vertex 0.007898 0.150267 0.022352
   vertex 0.010298 0.151956 0.022604
  endloop
 endfacet
 facet normal -0.563623 0.748876 0.348589
  outer loop
   vertex 0.010298 0.151956 0.022604
   vertex 0.007898 0.150267 0.022352
   vertex 0.009451 0.150267 0.024863
  endloop
 endfacet
 facet normal -0.645038 0.651744 0.398942
  outer loop
   vertex 0.007898 0.150267 0.022352
   vertex 0.007534 0.148707 0.024312
   vertex 0.009451 0.150267 0.024863
  endloop
 endfacet
 facet normal -0.819189 0.412026 0.398954
  outer loop
   vertex 0.006163 0.147879 0.022352
   vertex 0.006643 0.146402 0.024863
   vertex 0.007534 0.148707 0.024312
  endloop
 endfacet
 facet normal -0.936352 0.304548 0.174631
  outer loop
   vertex 0.005259 0.14654 0.01984
   vertex 0.005298 0.145075 0.022604
   vertex 0.006163 0.147879 0.022352
  endloop
 endfacet
 facet normal -0.984653 0.155824 -0.0785916
  outer loop
   vertex 0.005204 0.144926 0.017329
   vertex 0.00477 0.14345 0.01984
   vertex 0.005259 0.14654 0.01984
  endloop
 endfacet
 facet normal -0.886309 0.304753 0.348685
  outer loop
   vertex 0.006163 0.147879 0.022352
   vertex 0.005298 0.145075 0.022604
   vertex 0.006643 0.146402 0.024863
  endloop
 endfacet
 facet normal -0.885615 0.148581 0.440011
  outer loop
   vertex 0.005298 0.145075 0.022604
   vertex 0.006264 0.14345 0.025097
   vertex 0.006643 0.146402 0.024863
  endloop
 endfacet
 facet normal -0.983115 0.15558 0.0963335
  outer loop
   vertex 0.005259 0.14654 0.01984
   vertex 0.00477 0.14345 0.01984
   vertex 0.005298 0.145075 0.022604
  endloop
 endfacet
 facet normal -0.982239 0 0.187634
  outer loop
   vertex 0.00477 0.14345 0.01984
   vertex 0.005298 0.141825 0.022604
   vertex 0.005298 0.145075 0.022604
  endloop
 endfacet
 facet normal -0.932446 0 0.361309
  outer loop
   vertex 0.005298 0.145075 0.022604
   vertex 0.005298 0.141825 0.022604
   vertex 0.006264 0.14345 0.025097
  endloop
 endfacet
 facet normal -0.885615 -0.148581 0.440011
  outer loop
   vertex 0.005298 0.141825 0.022604
   vertex 0.006643 0.140498 0.024863
   vertex 0.006264 0.14345 0.025097
  endloop
 endfacet
 facet normal -0.98539 -0 -0.170314
  outer loop
   vertex 0.005204 0.144926 0.017329
   vertex 0.005204 0.141974 0.017329
   vertex 0.00477 0.14345 0.01984
  endloop
 endfacet
 facet normal -0.984653 -0.155824 -0.0785916
  outer loop
   vertex 0.005204 0.141974 0.017329
   vertex 0.005259 0.14036 0.01984
   vertex 0.00477 0.14345 0.01984
  endloop
 endfacet
 facet normal -0.983115 -0.15558 0.0963335
  outer loop
   vertex 0.00477 0.14345 0.01984
   vertex 0.005259 0.14036 0.01984
   vertex 0.005298 0.141825 0.022604
  endloop
 endfacet
 facet normal -0.936352 -0.304548 0.174631
  outer loop
   vertex 0.005259 0.14036 0.01984
   vertex 0.006163 0.139021 0.022352
   vertex 0.005298 0.141825 0.022604
  endloop
 endfacet
 facet normal -0.886309 -0.304753 0.348685
  outer loop
   vertex 0.005298 0.141825 0.022604
   vertex 0.006163 0.139021 0.022352
   vertex 0.006643 0.140498 0.024863
  endloop
 endfacet
 facet normal -0.819189 -0.412026 0.398954
  outer loop
   vertex 0.006163 0.139021 0.022352
   vertex 0.007534 0.138193 0.024312
   vertex 0.006643 0.140498 0.024863
  endloop
 endfacet
 facet normal -0.645038 -0.651744 0.398942
  outer loop
   vertex 0.007898 0.136633 0.022352
   vertex 0.009451 0.136633 0.024863
   vertex 0.007534 0.138193 0.024312
  endloop
 endfacet
 facet normal -0.578874 -0.796508 0.174584
  outer loop
   vertex 0.008892 0.13536 0.01984
   vertex 0.010298 0.134944 0.022604
   vertex 0.007898 0.136633 0.022352
  endloop
 endfacet
 facet normal -0.452705 -0.888208 -0.0783901
  outer loop
   vertex 0.01041 0.134808 0.017328
   vertex 0.01168 0.133939 0.01984
   vertex 0.008892 0.13536 0.01984
  endloop
 endfacet
 facet normal -0.563623 -0.748876 0.348589
  outer loop
   vertex 0.007898 0.136633 0.022352
   vertex 0.010298 0.134944 0.022604
   vertex 0.009451 0.136633 0.024863
  endloop
 endfacet
 facet normal -0.415138 -0.796394 0.439791
  outer loop
   vertex 0.010298 0.134944 0.022604
   vertex 0.012141 0.13536 0.025097
   vertex 0.009451 0.136633 0.024863
  endloop
 endfacet
 facet normal -0.451986 -0.886796 0.0964489
  outer loop
   vertex 0.008892 0.13536 0.01984
   vertex 0.01168 0.133939 0.01984
   vertex 0.010298 0.134944 0.022604
  endloop
 endfacet
 facet normal -0.303796 -0.934059 0.187729
  outer loop
   vertex 0.01168 0.133939 0.01984
   vertex 0.013388 0.133939 0.022604
   vertex 0.010298 0.134944 0.022604
  endloop
 endfacet
 facet normal -0.288415 -0.886769 0.361189
  outer loop
   vertex 0.010298 0.134944 0.022604
   vertex 0.013388 0.133939 0.022604
   vertex 0.012141 0.13536 0.025097
  endloop
 endfacet
 facet normal -0.132412 -0.888171 0.440021
  outer loop
   vertex 0.013388 0.133939 0.022604
   vertex 0.015066 0.134808 0.024863
   vertex 0.012141 0.13536 0.025097
  endloop
 endfacet
 facet normal -0.304389 -0.937197 -0.170322
  outer loop
   vertex 0.01041 0.134808 0.017328
   vertex 0.013218 0.133896 0.017328
   vertex 0.01168 0.133939 0.01984
  endloop
 endfacet
 facet normal -0.155824 -0.984657 -0.07855
  outer loop
   vertex 0.013218 0.133896 0.017328
   vertex 0.01477 0.13345 0.01984
   vertex 0.01168 0.133939 0.01984
  endloop
 endfacet
 facet normal -0.155583 -0.983133 0.0961419
  outer loop
   vertex 0.01168 0.133939 0.01984
   vertex 0.01477 0.13345 0.01984
   vertex 0.013388 0.133939 0.022604
  endloop
 endfacet
 facet normal 0.000555151 -0.98466 0.174481
  outer loop
   vertex 0.01477 0.13345 0.01984
   vertex 0.016322 0.133896 0.022352
   vertex 0.013388 0.133939 0.022604
  endloop
 endfacet
 facet normal 0.0161962 -0.937175 0.348485
  outer loop
   vertex 0.013388 0.133939 0.022604
   vertex 0.016322 0.133896 0.022352
   vertex 0.015066 0.134808 0.024863
  endloop
 endfacet
 facet normal 0.138975 -0.90647 0.398746
  outer loop
   vertex 0.016322 0.133896 0.022352
   vertex 0.017534 0.134944 0.024312
   vertex 0.015066 0.134808 0.024863
  endloop
 endfacet
 facet normal 0.420269 -0.815078 0.398776
  outer loop
   vertex 0.01913 0.134808 0.022352
   vertex 0.01961 0.136284 0.024863
   vertex 0.017534 0.134944 0.024312
  endloop
 endfacet
 facet normal 0.578519 -0.796783 0.174509
  outer loop
   vertex 0.020648 0.13536 0.01984
   vertex 0.021478 0.136568 0.022604
   vertex 0.01913 0.134808 0.022352
  endloop
 endfacet
 facet normal 0.704936 -0.704936 -0.0782949
  outer loop
   vertex 0.021642 0.136633 0.017328
   vertex 0.02286 0.137572 0.01984
   vertex 0.020648 0.13536 0.01984
  endloop
 endfacet
 facet normal 0.537986 -0.767602 0.348366
  outer loop
   vertex 0.01913 0.134808 0.022352
   vertex 0.021478 0.136568 0.022604
   vertex 0.01961 0.136284 0.024863
  endloop
 endfacet
 facet normal 0.629279 -0.640767 0.439803
  outer loop
   vertex 0.021478 0.136568 0.022604
   vertex 0.021652 0.13845 0.025097
   vertex 0.01961 0.136284 0.024863
  endloop
 endfacet
 facet normal 0.703824 -0.703824 0.0962537
  outer loop
   vertex 0.020648 0.13536 0.01984
   vertex 0.02286 0.137572 0.01984
   vertex 0.021478 0.136568 0.022604
  endloop
 endfacet
 facet normal 0.794662 -0.577331 0.18762
  outer loop
   vertex 0.02286 0.137572 0.01984
   vertex 0.023388 0.139197 0.022604
   vertex 0.021478 0.136568 0.022604
  endloop
 endfacet
 facet normal 0.754436 -0.548107 0.361117
  outer loop
   vertex 0.021478 0.136568 0.022604
   vertex 0.023388 0.139197 0.022604
   vertex 0.021652 0.13845 0.025097
  endloop
 endfacet
 facet normal 0.803858 -0.400541 0.439749
  outer loop
   vertex 0.023388 0.139197 0.022604
   vertex 0.023081 0.141061 0.024863
   vertex 0.021652 0.13845 0.025097
  endloop
 endfacet
 facet normal 0.797233 -0.579229 -0.170037
  outer loop
   vertex 0.021642 0.136633 0.017328
   vertex 0.023377 0.139021 0.017328
   vertex 0.02286 0.137572 0.01984
  endloop
 endfacet
 facet normal 0.888212 -0.452708 -0.078331
  outer loop
   vertex 0.023377 0.139021 0.017328
   vertex 0.024281 0.14036 0.01984
   vertex 0.02286 0.137572 0.01984
  endloop
 endfacet
 facet normal 0.886806 -0.451991 0.0963284
  outer loop
   vertex 0.02286 0.137572 0.01984
   vertex 0.024281 0.14036 0.01984
   vertex 0.023388 0.139197 0.022604
  endloop
 endfacet
 facet normal 0.93657 -0.303801 0.17476
  outer loop
   vertex 0.024281 0.14036 0.01984
   vertex 0.024336 0.141974 0.022351
   vertex 0.023388 0.139197 0.022604
  endloop
 endfacet
 facet normal 0.89641 -0.274294 0.348155
  outer loop
   vertex 0.023388 0.139197 0.022604
   vertex 0.024336 0.141974 0.022351
   vertex 0.023081 0.141061 0.024863
  endloop
 endfacet
 facet normal 0.905177 -0.147939 0.398459
  outer loop
   vertex 0.024336 0.141974 0.022351
   vertex 0.023714 0.14345 0.024312
   vertex 0.023081 0.141061 0.024863
  endloop
 endfacet
 facet normal 0.294416 0.906493 0.302638
  outer loop
   vertex 0.01913 0.152092 0.022352
   vertex 0.016322 0.153004 0.022352
   vertex 0.017534 0.151956 0.024312
  endloop
 endfacet
 facet normal 0.452705 0.888208 0.0783901
  outer loop
   vertex 0.020648 0.15154 0.01984
   vertex 0.01786 0.152961 0.01984
   vertex 0.01913 0.152092 0.022352
  endloop
 endfacet
 facet normal 0.578874 0.796508 -0.174584
  outer loop
   vertex 0.021642 0.150267 0.017328
   vertex 0.019242 0.151956 0.017076
   vertex 0.020648 0.15154 0.01984
  endloop
 endfacet
 facet normal 0.304389 0.937197 0.170322
  outer loop
   vertex 0.01913 0.152092 0.022352
   vertex 0.01786 0.152961 0.01984
   vertex 0.016322 0.153004 0.022352
  endloop
 endfacet
 facet normal 0.155824 0.984657 0.07855
  outer loop
   vertex 0.01786 0.152961 0.01984
   vertex 0.01477 0.15345 0.01984
   vertex 0.016322 0.153004 0.022352
  endloop
 endfacet
 facet normal 0.451986 0.886796 -0.0964489
  outer loop
   vertex 0.020648 0.15154 0.01984
   vertex 0.019242 0.151956 0.017076
   vertex 0.01786 0.152961 0.01984
  endloop
 endfacet
 facet normal 0.303796 0.934059 -0.187729
  outer loop
   vertex 0.019242 0.151956 0.017076
   vertex 0.016152 0.152961 0.017076
   vertex 0.01786 0.152961 0.01984
  endloop
 endfacet
 facet normal 0.155583 0.983133 -0.0961419
  outer loop
   vertex 0.01786 0.152961 0.01984
   vertex 0.016152 0.152961 0.017076
   vertex 0.01477 0.15345 0.01984
  endloop
 endfacet
 facet normal -0.000555151 0.98466 -0.174481
  outer loop
   vertex 0.016152 0.152961 0.017076
   vertex 0.013218 0.153004 0.017328
   vertex 0.01477 0.15345 0.01984
  endloop
 endfacet
 facet normal 0.563623 0.748876 -0.348589
  outer loop
   vertex 0.021642 0.150267 0.017328
   vertex 0.020089 0.150267 0.014817
   vertex 0.019242 0.151956 0.017076
  endloop
 endfacet
 facet normal 0.415138 0.796394 -0.439791
  outer loop
   vertex 0.020089 0.150267 0.014817
   vertex 0.017399 0.15154 0.014583
   vertex 0.019242 0.151956 0.017076
  endloop
 endfacet
 facet normal 0.288415 0.886769 -0.361189
  outer loop
   vertex 0.019242 0.151956 0.017076
   vertex 0.017399 0.15154 0.014583
   vertex 0.016152 0.152961 0.017076
  endloop
 endfacet
 facet normal 0.132412 0.888171 -0.440021
  outer loop
   vertex 0.017399 0.15154 0.014583
   vertex 0.014474 0.152092 0.014817
   vertex 0.016152 0.152961 0.017076
  endloop
 endfacet
 facet normal -0.0161962 0.937175 -0.348485
  outer loop
   vertex 0.016152 0.152961 0.017076
   vertex 0.014474 0.152092 0.014817
   vertex 0.013218 0.153004 0.017328
  endloop
 endfacet
 facet normal -0.138975 0.90647 -0.398746
  outer loop
   vertex 0.014474 0.152092 0.014817
   vertex 0.012006 0.151956 0.015368
   vertex 0.013218 0.153004 0.017328
  endloop
 endfacet
 facet normal -0.771063 0.560215 0.302688
  outer loop
   vertex 0.007898 0.150267 0.022352
   vertex 0.006163 0.147879 0.022352
   vertex 0.007534 0.148707 0.024312
  endloop
 endfacet
 facet normal -0.704936 0.704936 0.0782949
  outer loop
   vertex 0.008892 0.15154 0.01984
   vertex 0.00668 0.149328 0.01984
   vertex 0.007898 0.150267 0.022352
  endloop
 endfacet
 facet normal -0.578519 0.796783 -0.174509
  outer loop
   vertex 0.01041 0.152092 0.017328
   vertex 0.008062 0.150332 0.017076
   vertex 0.008892 0.15154 0.01984
  endloop
 endfacet
 facet normal -0.797233 0.579229 0.170037
  outer loop
   vertex 0.007898 0.150267 0.022352
   vertex 0.00668 0.149328 0.01984
   vertex 0.006163 0.147879 0.022352
  endloop
 endfacet
 facet normal -0.888212 0.452708 0.078331
  outer loop
   vertex 0.00668 0.149328 0.01984
   vertex 0.005259 0.14654 0.01984
   vertex 0.006163 0.147879 0.022352
  endloop
 endfacet
 facet normal -0.703824 0.703824 -0.0962537
  outer loop
   vertex 0.008892 0.15154 0.01984
   vertex 0.008062 0.150332 0.017076
   vertex 0.00668 0.149328 0.01984
  endloop
 endfacet
 facet normal -0.794662 0.577331 -0.18762
  outer loop
   vertex 0.008062 0.150332 0.017076
   vertex 0.006152 0.147703 0.017076
   vertex 0.00668 0.149328 0.01984
  endloop
 endfacet
 facet normal -0.886806 0.451991 -0.0963284
  outer loop
   vertex 0.00668 0.149328 0.01984
   vertex 0.006152 0.147703 0.017076
   vertex 0.005259 0.14654 0.01984
  endloop
 endfacet
 facet normal -0.93657 0.303801 -0.17476
  outer loop
   vertex 0.006152 0.147703 0.017076
   vertex 0.005204 0.144926 0.017329
   vertex 0.005259 0.14654 0.01984
  endloop
 endfacet
 facet normal -0.537986 0.767602 -0.348366
  outer loop
   vertex 0.01041 0.152092 0.017328
   vertex 0.00993 0.150616 0.014817
   vertex 0.008062 0.150332 0.017076
  endloop
 endfacet
 facet normal -0.629279 0.640767 -0.439803
  outer loop
   vertex 0.00993 0.150616 0.014817
   vertex 0.007888 0.14845 0.014583
   vertex 0.008062 0.150332 0.017076
  endloop
 endfacet
 facet normal -0.754436 0.548107 -0.361117
  outer loop
   vertex 0.008062 0.150332 0.017076
   vertex 0.007888 0.14845 0.014583
   vertex 0.006152 0.147703 0.017076
  endloop
 endfacet
 facet normal -0.803858 0.400541 -0.439749
  outer loop
   vertex 0.007888 0.14845 0.014583
   vertex 0.006459 0.145839 0.014817
   vertex 0.006152 0.147703 0.017076
  endloop
 endfacet
 facet normal -0.89641 0.274294 -0.348155
  outer loop
   vertex 0.006152 0.147703 0.017076
   vertex 0.006459 0.145839 0.014817
   vertex 0.005204 0.144926 0.017329
  endloop
 endfacet
 facet normal -0.905177 0.147939 -0.398459
  outer loop
   vertex 0.006459 0.145839 0.014817
   vertex 0.005826 0.14345 0.015368
   vertex 0.005204 0.144926 0.017329
  endloop
 endfacet
 facet normal -0.771063 -0.560215 0.302688
  outer loop
   vertex 0.006163 0.139021 0.022352
   vertex 0.007898 0.136633 0.022352
   vertex 0.007534 0.138193 0.024312
  endloop
 endfacet
 facet normal -0.888212 -0.452708 0.078331
  outer loop
   vertex 0.005259 0.14036 0.01984
   vertex 0.00668 0.137572 0.01984
   vertex 0.006163 0.139021 0.022352
  endloop
 endfacet
 facet normal -0.93657 -0.303801 -0.17476
  outer loop
   vertex 0.005204 0.141974 0.017329
   vertex 0.006152 0.139197 0.017076
   vertex 0.005259 0.14036 0.01984
  endloop
 endfacet
 facet normal -0.797233 -0.579229 0.170037
  outer loop
   vertex 0.006163 0.139021 0.022352
   vertex 0.00668 0.137572 0.01984
   vertex 0.007898 0.136633 0.022352
  endloop
 endfacet
 facet normal -0.704936 -0.704936 0.0782949
  outer loop
   vertex 0.00668 0.137572 0.01984
   vertex 0.008892 0.13536 0.01984
   vertex 0.007898 0.136633 0.022352
  endloop
 endfacet
 facet normal -0.886806 -0.451991 -0.0963284
  outer loop
   vertex 0.005259 0.14036 0.01984
   vertex 0.006152 0.139197 0.017076
   vertex 0.00668 0.137572 0.01984
  endloop
 endfacet
 facet normal -0.794662 -0.577331 -0.18762
  outer loop
   vertex 0.006152 0.139197 0.017076
   vertex 0.008062 0.136568 0.017076
   vertex 0.00668 0.137572 0.01984
  endloop
 endfacet
 facet normal -0.703824 -0.703824 -0.0962537
  outer loop
   vertex 0.00668 0.137572 0.01984
   vertex 0.008062 0.136568 0.017076
   vertex 0.008892 0.13536 0.01984
  endloop
 endfacet
 facet normal -0.578519 -0.796783 -0.174509
  outer loop
   vertex 0.008062 0.136568 0.017076
   vertex 0.01041 0.134808 0.017328
   vertex 0.008892 0.13536 0.01984
  endloop
 endfacet
 facet normal -0.89641 -0.274294 -0.348155
  outer loop
   vertex 0.005204 0.141974 0.017329
   vertex 0.006459 0.141061 0.014817
   vertex 0.006152 0.139197 0.017076
  endloop
 endfacet
 facet normal -0.803858 -0.400541 -0.439749
  outer loop
   vertex 0.006459 0.141061 0.014817
   vertex 0.007888 0.13845 0.014583
   vertex 0.006152 0.139197 0.017076
  endloop
 endfacet
 facet normal -0.754436 -0.548107 -0.361117
  outer loop
   vertex 0.006152 0.139197 0.017076
   vertex 0.007888 0.13845 0.014583
   vertex 0.008062 0.136568 0.017076
  endloop
 endfacet
 facet normal -0.629279 -0.640767 -0.439803
  outer loop
   vertex 0.007888 0.13845 0.014583
   vertex 0.00993 0.136284 0.014817
   vertex 0.008062 0.136568 0.017076
  endloop
 endfacet
 facet normal -0.537986 -0.767602 -0.348366
  outer loop
   vertex 0.008062 0.136568 0.017076
   vertex 0.00993 0.136284 0.014817
   vertex 0.01041 0.134808 0.017328
  endloop
 endfacet
 facet normal -0.420269 -0.815078 -0.398776
  outer loop
   vertex 0.00993 0.136284 0.014817
   vertex 0.012006 0.134944 0.015368
   vertex 0.01041 0.134808 0.017328
  endloop
 endfacet
 facet normal 0.294416 -0.906493 0.302638
  outer loop
   vertex 0.016322 0.133896 0.022352
   vertex 0.01913 0.134808 0.022352
   vertex 0.017534 0.134944 0.024312
  endloop
 endfacet
 facet normal 0.155824 -0.984657 0.07855
  outer loop
   vertex 0.01477 0.13345 0.01984
   vertex 0.01786 0.133939 0.01984
   vertex 0.016322 0.133896 0.022352
  endloop
 endfacet
 facet normal -0.000555151 -0.98466 -0.174481
  outer loop
   vertex 0.013218 0.133896 0.017328
   vertex 0.016152 0.133939 0.017076
   vertex 0.01477 0.13345 0.01984
  endloop
 endfacet
 facet normal 0.304389 -0.937197 0.170322
  outer loop
   vertex 0.016322 0.133896 0.022352
   vertex 0.01786 0.133939 0.01984
   vertex 0.01913 0.134808 0.022352
  endloop
 endfacet
 facet normal 0.452705 -0.888208 0.0783901
  outer loop
   vertex 0.01786 0.133939 0.01984
   vertex 0.020648 0.13536 0.01984
   vertex 0.01913 0.134808 0.022352
  endloop
 endfacet
 facet normal 0.155583 -0.983133 -0.0961419
  outer loop
   vertex 0.01477 0.13345 0.01984
   vertex 0.016152 0.133939 0.017076
   vertex 0.01786 0.133939 0.01984
  endloop
 endfacet
 facet normal 0.303796 -0.934059 -0.187729
  outer loop
   vertex 0.016152 0.133939 0.017076
   vertex 0.019242 0.134944 0.017076
   vertex 0.01786 0.133939 0.01984
  endloop
 endfacet
 facet normal 0.451986 -0.886796 -0.0964489
  outer loop
   vertex 0.01786 0.133939 0.01984
   vertex 0.019242 0.134944 0.017076
   vertex 0.020648 0.13536 0.01984
  endloop
 endfacet
 facet normal 0.578874 -0.796508 -0.174584
  outer loop
   vertex 0.019242 0.134944 0.017076
   vertex 0.021642 0.136633 0.017328
   vertex 0.020648 0.13536 0.01984
  endloop
 endfacet
 facet normal -0.0161962 -0.937175 -0.348485
  outer loop
   vertex 0.013218 0.133896 0.017328
   vertex 0.014474 0.134808 0.014817
   vertex 0.016152 0.133939 0.017076
  endloop
 endfacet
 facet normal 0.132412 -0.888171 -0.440021
  outer loop
   vertex 0.014474 0.134808 0.014817
   vertex 0.017399 0.13536 0.014583
   vertex 0.016152 0.133939 0.017076
  endloop
 endfacet
 facet normal 0.288415 -0.886769 -0.361189
  outer loop
   vertex 0.016152 0.133939 0.017076
   vertex 0.017399 0.13536 0.014583
   vertex 0.019242 0.134944 0.017076
  endloop
 endfacet
 facet normal 0.415138 -0.796394 -0.439791
  outer loop
   vertex 0.017399 0.13536 0.014583
   vertex 0.020089 0.136633 0.014817
   vertex 0.019242 0.134944 0.017076
  endloop
 endfacet
 facet normal 0.563623 -0.748876 -0.348589
  outer loop
   vertex 0.019242 0.134944 0.017076
   vertex 0.020089 0.136633 0.014817
   vertex 0.021642 0.136633 0.017328
  endloop
 endfacet
 facet normal 0.645038 -0.651744 -0.398942
  outer loop
   vertex 0.020089 0.136633 0.014817
   vertex 0.022006 0.138193 0.015368
   vertex 0.021642 0.136633 0.017328
  endloop
 endfacet
 facet normal 0.9532 -0 0.302341
  outer loop
   vertex 0.024336 0.141974 0.022351
   vertex 0.024336 0.144926 0.022351
   vertex 0.023714 0.14345 0.024312
  endloop
 endfacet
 facet normal 0.984653 -0.155824 0.0785916
  outer loop
   vertex 0.024281 0.14036 0.01984
   vertex 0.02477 0.14345 0.01984
   vertex 0.024336 0.141974 0.022351
  endloop
 endfacet
 facet normal 0.936352 -0.304548 -0.174631
  outer loop
   vertex 0.023377 0.139021 0.017328
   vertex 0.024242 0.141825 0.017076
   vertex 0.024281 0.14036 0.01984
  endloop
 endfacet
 facet normal 0.98539 -0 0.170314
  outer loop
   vertex 0.024336 0.141974 0.022351
   vertex 0.02477 0.14345 0.01984
   vertex 0.024336 0.144926 0.022351
  endloop
 endfacet
 facet normal 0.984653 0.155824 0.0785916
  outer loop
   vertex 0.02477 0.14345 0.01984
   vertex 0.024281 0.14654 0.01984
   vertex 0.024336 0.144926 0.022351
  endloop
 endfacet
 facet normal 0.983115 -0.15558 -0.0963335
  outer loop
   vertex 0.024281 0.14036 0.01984
   vertex 0.024242 0.141825 0.017076
   vertex 0.02477 0.14345 0.01984
  endloop
 endfacet
 facet normal 0.982239 0 -0.187634
  outer loop
   vertex 0.024242 0.141825 0.017076
   vertex 0.024242 0.145075 0.017076
   vertex 0.02477 0.14345 0.01984
  endloop
 endfacet
 facet normal 0.983115 0.15558 -0.0963335
  outer loop
   vertex 0.02477 0.14345 0.01984
   vertex 0.024242 0.145075 0.017076
   vertex 0.024281 0.14654 0.01984
  endloop
 endfacet
 facet normal 0.936352 0.304548 -0.174631
  outer loop
   vertex 0.024242 0.145075 0.017076
   vertex 0.023377 0.147879 0.017328
   vertex 0.024281 0.14654 0.01984
  endloop
 endfacet
 facet normal 0.886309 -0.304753 -0.348685
  outer loop
   vertex 0.023377 0.139021 0.017328
   vertex 0.022897 0.140498 0.014817
   vertex 0.024242 0.141825 0.017076
  endloop
 endfacet
 facet normal 0.885615 -0.148581 -0.440011
  outer loop
   vertex 0.022897 0.140498 0.014817
   vertex 0.023276 0.14345 0.014583
   vertex 0.024242 0.141825 0.017076
  endloop
 endfacet
 facet normal 0.932446 0 -0.361309
  outer loop
   vertex 0.024242 0.141825 0.017076
   vertex 0.023276 0.14345 0.014583
   vertex 0.024242 0.145075 0.017076
  endloop
 endfacet
 facet normal 0.885615 0.148581 -0.440011
  outer loop
   vertex 0.023276 0.14345 0.014583
   vertex 0.022897 0.146402 0.014817
   vertex 0.024242 0.145075 0.017076
  endloop
 endfacet
 facet normal 0.886309 0.304753 -0.348685
  outer loop
   vertex 0.024242 0.145075 0.017076
   vertex 0.022897 0.146402 0.014817
   vertex 0.023377 0.147879 0.017328
  endloop
 endfacet
 facet normal 0.819189 0.412026 -0.398954
  outer loop
   vertex 0.022897 0.146402 0.014817
   vertex 0.022006 0.148707 0.015368
   vertex 0.023377 0.147879 0.017328
  endloop
 endfacet
 facet normal 0.61533 0.560308 -0.554459
  outer loop
   vertex 0.020865 0.147879 0.013265
   vertex 0.020089 0.150267 0.014817
   vertex 0.022006 0.148707 0.015368
  endloop
 endfacet
 facet normal 0.467426 0.452641 -0.759361
  outer loop
   vertex 0.019023 0.14654 0.011333
   vertex 0.018388 0.149328 0.012604
   vertex 0.020865 0.147879 0.013265
  endloop
 endfacet
 facet normal 0.262485 0.303841 -0.915851
  outer loop
   vertex 0.016802 0.144926 0.010161
   vertex 0.016152 0.147703 0.010896
   vertex 0.019023 0.14654 0.011333
  endloop
 endfacet
 facet normal 0.508799 0.579247 -0.636864
  outer loop
   vertex 0.020865 0.147879 0.013265
   vertex 0.018388 0.149328 0.012604
   vertex 0.020089 0.150267 0.014817
  endloop
 endfacet
 facet normal 0.38541 0.704977 -0.595371
  outer loop
   vertex 0.018388 0.149328 0.012604
   vertex 0.017399 0.15154 0.014583
   vertex 0.020089 0.150267 0.014817
  endloop
 endfacet
 facet normal 0.310374 0.451949 -0.836307
  outer loop
   vertex 0.019023 0.14654 0.011333
   vertex 0.016152 0.147703 0.010896
   vertex 0.018388 0.149328 0.012604
  endloop
 endfacet
 facet normal 0.187559 0.577248 -0.794737
  outer loop
   vertex 0.016152 0.147703 0.010896
   vertex 0.015298 0.150332 0.012604
   vertex 0.018388 0.149328 0.012604
  endloop
 endfacet
 facet normal 0.228709 0.703897 -0.672474
  outer loop
   vertex 0.018388 0.149328 0.012604
   vertex 0.015298 0.150332 0.012604
   vertex 0.017399 0.15154 0.014583
  endloop
 endfacet
 facet normal 0.102735 0.796801 -0.595444
  outer loop
   vertex 0.015298 0.150332 0.012604
   vertex 0.014474 0.152092 0.014817
   vertex 0.017399 0.15154 0.014583
  endloop
 endfacet
 facet normal 0.0891868 0.274301 -0.957499
  outer loop
   vertex 0.016802 0.144926 0.010161
   vertex 0.013994 0.145839 0.010161
   vertex 0.016152 0.147703 0.010896
  endloop
 endfacet
 facet normal -0.0336945 0.400135 -0.915836
  outer loop
   vertex 0.013994 0.145839 0.010161
   vertex 0.013145 0.14845 0.011333
   vertex 0.016152 0.147703 0.010896
  endloop
 endfacet
 facet normal 0.0146149 0.548074 -0.836302
  outer loop
   vertex 0.016152 0.147703 0.010896
   vertex 0.013145 0.14845 0.011333
   vertex 0.015298 0.150332 0.012604
  endloop
 endfacet
 facet normal -0.112009 0.640965 -0.759354
  outer loop
   vertex 0.013145 0.14845 0.011333
   vertex 0.012442 0.150616 0.013265
   vertex 0.015298 0.150332 0.012604
  endloop
 endfacet
 facet normal -0.0710868 0.767617 -0.636955
  outer loop
   vertex 0.015298 0.150332 0.012604
   vertex 0.012442 0.150616 0.013265
   vertex 0.014474 0.152092 0.014817
  endloop
 endfacet
 facet normal -0.168666 0.815046 -0.554303
  outer loop
   vertex 0.012442 0.150616 0.013265
   vertex 0.012006 0.151956 0.015368
   vertex 0.014474 0.152092 0.014817
  endloop
 endfacet
 facet normal -0.342493 0.758552 -0.554344
  outer loop
   vertex 0.012442 0.150616 0.013265
   vertex 0.00993 0.150616 0.014817
   vertex 0.012006 0.151956 0.015368
  endloop
 endfacet
 facet normal -0.286233 0.584386 -0.759318
  outer loop
   vertex 0.013145 0.14845 0.011333
   vertex 0.010298 0.148707 0.012604
   vertex 0.012442 0.150616 0.013265
  endloop
 endfacet
 facet normal -0.207851 0.343516 -0.915858
  outer loop
   vertex 0.013994 0.145839 0.010161
   vertex 0.011152 0.146079 0.010896
   vertex 0.013145 0.14845 0.011333
  endloop
 endfacet
 facet normal -0.393627 0.662685 -0.637108
  outer loop
   vertex 0.012442 0.150616 0.013265
   vertex 0.010298 0.148707 0.012604
   vertex 0.00993 0.150616 0.014817
  endloop
 endfacet
 facet normal -0.551379 0.584158 -0.595601
  outer loop
   vertex 0.010298 0.148707 0.012604
   vertex 0.007888 0.14845 0.014583
   vertex 0.00993 0.150616 0.014817
  endloop
 endfacet
 facet normal -0.334054 0.43492 -0.836213
  outer loop
   vertex 0.013145 0.14845 0.011333
   vertex 0.011152 0.146079 0.010896
   vertex 0.010298 0.148707 0.012604
  endloop
 endfacet
 facet normal -0.491058 0.356895 -0.794662
  outer loop
   vertex 0.011152 0.146079 0.010896
   vertex 0.008388 0.146079 0.012604
   vertex 0.010298 0.148707 0.012604
  endloop
 endfacet
 facet normal -0.598657 0.435097 -0.672533
  outer loop
   vertex 0.010298 0.148707 0.012604
   vertex 0.008388 0.146079 0.012604
   vertex 0.007888 0.14845 0.014583
  endloop
 endfacet
 facet normal -0.725985 0.343961 -0.595514
  outer loop
   vertex 0.008388 0.146079 0.012604
   vertex 0.006459 0.145839 0.014817
   vertex 0.007888 0.14845 0.014583
  endloop
 endfacet
 facet normal -0.233325 0.169451 -0.957521
  outer loop
   vertex 0.013994 0.145839 0.010161
   vertex 0.012259 0.14345 0.010161
   vertex 0.011152 0.146079 0.010896
  endloop
 endfacet
 facet normal -0.390899 0.0914587 -0.915878
  outer loop
   vertex 0.012259 0.14345 0.010161
   vertex 0.009513 0.14345 0.011333
   vertex 0.011152 0.146079 0.010896
  endloop
 endfacet
 facet normal -0.516783 0.183167 -0.836293
  outer loop
   vertex 0.011152 0.146079 0.010896
   vertex 0.009513 0.14345 0.011333
   vertex 0.008388 0.146079 0.012604
  endloop
 endfacet
 facet normal -0.644269 0.0913996 -0.759317
  outer loop
   vertex 0.009513 0.14345 0.011333
   vertex 0.007236 0.14345 0.013265
   vertex 0.008388 0.146079 0.012604
  endloop
 endfacet
 facet normal -0.751958 0.169318 -0.637095
  outer loop
   vertex 0.008388 0.146079 0.012604
   vertex 0.007236 0.14345 0.013265
   vertex 0.006459 0.145839 0.014817
  endloop
 endfacet
 facet normal -0.827124 0.091254 -0.554562
  outer loop
   vertex 0.007236 0.14345 0.013265
   vertex 0.005826 0.14345 0.015368
   vertex 0.006459 0.145839 0.014817
  endloop
 endfacet
 facet normal -0.827124 -0.091254 -0.554562
  outer loop
   vertex 0.007236 0.14345 0.013265
   vertex 0.006459 0.141061 0.014817
   vertex 0.005826 0.14345 0.015368
  endloop
 endfacet
 facet normal -0.644269 -0.0913996 -0.759317
  outer loop
   vertex 0.009513 0.14345 0.011333
   vertex 0.008388 0.140821 0.012604
   vertex 0.007236 0.14345 0.013265
  endloop
 endfacet
 facet normal -0.390899 -0.0914587 -0.915878
  outer loop
   vertex 0.012259 0.14345 0.010161
   vertex 0.011152 0.140821 0.010896
   vertex 0.009513 0.14345 0.011333
  endloop
 endfacet
 facet normal -0.751958 -0.169318 -0.637095
  outer loop
   vertex 0.007236 0.14345 0.013265
   vertex 0.008388 0.140821 0.012604
   vertex 0.006459 0.141061 0.014817
  endloop
 endfacet
 facet normal -0.725985 -0.343961 -0.595514
  outer loop
   vertex 0.008388 0.140821 0.012604
   vertex 0.007888 0.13845 0.014583
   vertex 0.006459 0.141061 0.014817
  endloop
 endfacet
 facet normal -0.516783 -0.183167 -0.836293
  outer loop
   vertex 0.009513 0.14345 0.011333
   vertex 0.011152 0.140821 0.010896
   vertex 0.008388 0.140821 0.012604
  endloop
 endfacet
 facet normal -0.491058 -0.356895 -0.794662
  outer loop
   vertex 0.011152 0.140821 0.010896
   vertex 0.010298 0.138193 0.012604
   vertex 0.008388 0.140821 0.012604
  endloop
 endfacet
 facet normal -0.598657 -0.435097 -0.672533
  outer loop
   vertex 0.008388 0.140821 0.012604
   vertex 0.010298 0.138193 0.012604
   vertex 0.007888 0.13845 0.014583
  endloop
 endfacet
 facet normal -0.551379 -0.584158 -0.595601
  outer loop
   vertex 0.010298 0.138193 0.012604
   vertex 0.00993 0.136284 0.014817
   vertex 0.007888 0.13845 0.014583
  endloop
 endfacet
 facet normal -0.233325 -0.169451 -0.957521
  outer loop
   vertex 0.012259 0.14345 0.010161
   vertex 0.013994 0.141061 0.010161
   vertex 0.011152 0.140821 0.010896
  endloop
 endfacet
 facet normal -0.207851 -0.343516 -0.915858
  outer loop
   vertex 0.013994 0.141061 0.010161
   vertex 0.013145 0.13845 0.011333
   vertex 0.011152 0.140821 0.010896
  endloop
 endfacet
 facet normal -0.334054 -0.43492 -0.836213
  outer loop
   vertex 0.011152 0.140821 0.010896
   vertex 0.013145 0.13845 0.011333
   vertex 0.010298 0.138193 0.012604
  endloop
 endfacet
 facet normal -0.286233 -0.584386 -0.759318
  outer loop
   vertex 0.013145 0.13845 0.011333
   vertex 0.012442 0.136284 0.013265
   vertex 0.010298 0.138193 0.012604
  endloop
 endfacet
 facet normal -0.393627 -0.662685 -0.637108
  outer loop
   vertex 0.010298 0.138193 0.012604
   vertex 0.012442 0.136284 0.013265
   vertex 0.00993 0.136284 0.014817
  endloop
 endfacet
 facet normal -0.342493 -0.758552 -0.554344
  outer loop
   vertex 0.012442 0.136284 0.013265
   vertex 0.012006 0.134944 0.015368
   vertex 0.00993 0.136284 0.014817
  endloop
 endfacet
 facet normal 0.723015 0.412034 -0.554506
  outer loop
   vertex 0.022897 0.146402 0.014817
   vertex 0.020865 0.147879 0.013265
   vertex 0.022006 0.148707 0.015368
  endloop
 endfacet
 facet normal 0.789589 0.148568 -0.59538
  outer loop
   vertex 0.023276 0.14345 0.014583
   vertex 0.021478 0.145075 0.012604
   vertex 0.022897 0.146402 0.014817
  endloop
 endfacet
 facet normal 0.789589 -0.148568 -0.59538
  outer loop
   vertex 0.022897 0.140498 0.014817
   vertex 0.021478 0.141825 0.012604
   vertex 0.023276 0.14345 0.014583
  endloop
 endfacet
 facet normal 0.708089 0.304936 -0.636886
  outer loop
   vertex 0.022897 0.146402 0.014817
   vertex 0.021478 0.145075 0.012604
   vertex 0.020865 0.147879 0.013265
  endloop
 endfacet
 facet normal 0.574948 0.304695 -0.759339
  outer loop
   vertex 0.021478 0.145075 0.012604
   vertex 0.019023 0.14654 0.011333
   vertex 0.020865 0.147879 0.013265
  endloop
 endfacet
 facet normal 0.740143 0 -0.672449
  outer loop
   vertex 0.023276 0.14345 0.014583
   vertex 0.021478 0.141825 0.012604
   vertex 0.021478 0.145075 0.012604
  endloop
 endfacet
 facet normal 0.607028 0 -0.794681
  outer loop
   vertex 0.021478 0.141825 0.012604
   vertex 0.019242 0.14345 0.010896
   vertex 0.021478 0.145075 0.012604
  endloop
 endfacet
 facet normal 0.525774 0.155534 -0.836284
  outer loop
   vertex 0.021478 0.145075 0.012604
   vertex 0.019242 0.14345 0.010896
   vertex 0.019023 0.14654 0.011333
  endloop
 endfacet
 facet normal 0.370096 0.155752 -0.915844
  outer loop
   vertex 0.019242 0.14345 0.010896
   vertex 0.016802 0.144926 0.010161
   vertex 0.019023 0.14654 0.011333
  endloop
 endfacet
 facet normal 0.708089 -0.304936 -0.636886
  outer loop
   vertex 0.022897 0.140498 0.014817
   vertex 0.020865 0.139021 0.013265
   vertex 0.021478 0.141825 0.012604
  endloop
 endfacet
 facet normal 0.574948 -0.304695 -0.759339
  outer loop
   vertex 0.020865 0.139021 0.013265
   vertex 0.019023 0.14036 0.011333
   vertex 0.021478 0.141825 0.012604
  endloop
 endfacet
 facet normal 0.525774 -0.155534 -0.836284
  outer loop
   vertex 0.021478 0.141825 0.012604
   vertex 0.019023 0.14036 0.011333
   vertex 0.019242 0.14345 0.010896
  endloop
 endfacet
 facet normal 0.370096 -0.155752 -0.915844
  outer loop
   vertex 0.019023 0.14036 0.011333
   vertex 0.016802 0.141974 0.010161
   vertex 0.019242 0.14345 0.010896
  endloop
 endfacet
 facet normal 0.288428 0 -0.957502
  outer loop
   vertex 0.019242 0.14345 0.010896
   vertex 0.016802 0.141974 0.010161
   vertex 0.016802 0.144926 0.010161
  endloop
 endfacet
 facet normal 0.156037 0 -0.987751
  outer loop
   vertex 0.016802 0.141974 0.010161
   vertex 0.01477 0.14345 0.00984
   vertex 0.016802 0.144926 0.010161
  endloop
 endfacet
 facet normal -0.168666 -0.815046 -0.554303
  outer loop
   vertex 0.012442 0.136284 0.013265
   vertex 0.014474 0.134808 0.014817
   vertex 0.012006 0.134944 0.015368
  endloop
 endfacet
 facet normal -0.112009 -0.640965 -0.759354
  outer loop
   vertex 0.013145 0.13845 0.011333
   vertex 0.015298 0.136568 0.012604
   vertex 0.012442 0.136284 0.013265
  endloop
 endfacet
 facet normal -0.0336945 -0.400135 -0.915836
  outer loop
   vertex 0.013994 0.141061 0.010161
   vertex 0.016152 0.139197 0.010896
   vertex 0.013145 0.13845 0.011333
  endloop
 endfacet
 facet normal -0.0710868 -0.767617 -0.636955
  outer loop
   vertex 0.012442 0.136284 0.013265
   vertex 0.015298 0.136568 0.012604
   vertex 0.014474 0.134808 0.014817
  endloop
 endfacet
 facet normal 0.102735 -0.796801 -0.595444
  outer loop
   vertex 0.015298 0.136568 0.012604
   vertex 0.017399 0.13536 0.014583
   vertex 0.014474 0.134808 0.014817
  endloop
 endfacet
 facet normal 0.0146149 -0.548074 -0.836302
  outer loop
   vertex 0.013145 0.13845 0.011333
   vertex 0.016152 0.139197 0.010896
   vertex 0.015298 0.136568 0.012604
  endloop
 endfacet
 facet normal 0.187559 -0.577248 -0.794737
  outer loop
   vertex 0.016152 0.139197 0.010896
   vertex 0.018388 0.137572 0.012604
   vertex 0.015298 0.136568 0.012604
  endloop
 endfacet
 facet normal 0.228709 -0.703897 -0.672474
  outer loop
   vertex 0.015298 0.136568 0.012604
   vertex 0.018388 0.137572 0.012604
   vertex 0.017399 0.13536 0.014583
  endloop
 endfacet
 facet normal 0.38541 -0.704977 -0.595371
  outer loop
   vertex 0.018388 0.137572 0.012604
   vertex 0.020089 0.136633 0.014817
   vertex 0.017399 0.13536 0.014583
  endloop
 endfacet
 facet normal 0.0891868 -0.274301 -0.957499
  outer loop
   vertex 0.013994 0.141061 0.010161
   vertex 0.016802 0.141974 0.010161
   vertex 0.016152 0.139197 0.010896
  endloop
 endfacet
 facet normal 0.262485 -0.303841 -0.915851
  outer loop
   vertex 0.016802 0.141974 0.010161
   vertex 0.019023 0.14036 0.011333
   vertex 0.016152 0.139197 0.010896
  endloop
 endfacet
 facet normal 0.310374 -0.451949 -0.836307
  outer loop
   vertex 0.016152 0.139197 0.010896
   vertex 0.019023 0.14036 0.011333
   vertex 0.018388 0.137572 0.012604
  endloop
 endfacet
 facet normal 0.467426 -0.452641 -0.759361
  outer loop
   vertex 0.019023 0.14036 0.011333
   vertex 0.020865 0.139021 0.013265
   vertex 0.018388 0.137572 0.012604
  endloop
 endfacet
 facet normal 0.508799 -0.579247 -0.636864
  outer loop
   vertex 0.018388 0.137572 0.012604
   vertex 0.020865 0.139021 0.013265
   vertex 0.020089 0.136633 0.014817
  endloop
 endfacet
 facet normal 0.61533 -0.560308 -0.554459
  outer loop
   vertex 0.020865 0.139021 0.013265
   vertex 0.022006 0.138193 0.015368
   vertex 0.020089 0.136633 0.014817
  endloop
 endfacet
endsolid ExportedfromBlender-3.5.1
