solid ExportedfromBlender-3.5.1
 facet normal 0.0482486 -0.148392 -0.987751
  outer loop
   vertex -0.01781 0.07389 -0.00093
   vertex -0.015778 0.072414 -0.000609
   vertex -0.018586 0.071501 -0.000609
  endloop
 endfacet
 facet normal 0.723015 -0.412034 -0.554506
  outer loop
   vertex -0.010574 0.068633 0.004598
   vertex -0.011715 0.069461 0.002495
   vertex -0.009683 0.070938 0.004047
  endloop
 endfacet
 facet normal -0.126271 -0.0917039 -0.987748
  outer loop
   vertex -0.01781 0.07389 -0.00093
   vertex -0.018586 0.071501 -0.000609
   vertex -0.020321 0.07389 -0.000609
  endloop
 endfacet
 facet normal -0.126271 0.0917039 -0.987748
  outer loop
   vertex -0.01781 0.07389 -0.00093
   vertex -0.020321 0.07389 -0.000609
   vertex -0.018586 0.076279 -0.000609
  endloop
 endfacet
 facet normal 0.0482486 0.148392 -0.987751
  outer loop
   vertex -0.01781 0.07389 -0.00093
   vertex -0.018586 0.076279 -0.000609
   vertex -0.015778 0.075366 -0.000609
  endloop
 endfacet
 facet normal 0.819189 -0.412026 -0.398954
  outer loop
   vertex -0.010574 0.068633 0.004598
   vertex -0.009683 0.070938 0.004047
   vertex -0.009203 0.069461 0.006558
  endloop
 endfacet
 facet normal -0.138975 -0.90647 -0.398746
  outer loop
   vertex -0.020574 0.065384 0.004598
   vertex -0.018106 0.065248 0.004047
   vertex -0.019362 0.064336 0.006558
  endloop
 endfacet
 facet normal -0.905177 -0.147939 -0.398459
  outer loop
   vertex -0.026754 0.07389 0.004598
   vertex -0.026121 0.071501 0.004047
   vertex -0.027376 0.072414 0.006559
  endloop
 endfacet
 facet normal -0.420269 0.815078 -0.398776
  outer loop
   vertex -0.020574 0.082396 0.004598
   vertex -0.02265 0.081056 0.004047
   vertex -0.02217 0.082532 0.006558
  endloop
 endfacet
 facet normal 0.645038 0.651744 -0.398942
  outer loop
   vertex -0.010574 0.079147 0.004598
   vertex -0.012491 0.080707 0.004047
   vertex -0.010938 0.080707 0.006558
  endloop
 endfacet
 facet normal 0.771063 -0.560215 -0.302688
  outer loop
   vertex -0.010574 0.068633 0.004598
   vertex -0.009203 0.069461 0.006558
   vertex -0.010938 0.067073 0.006558
  endloop
 endfacet
 facet normal -0.294416 -0.906493 -0.302638
  outer loop
   vertex -0.020574 0.065384 0.004598
   vertex -0.019362 0.064336 0.006558
   vertex -0.02217 0.065248 0.006558
  endloop
 endfacet
 facet normal -0.9532 0 -0.302341
  outer loop
   vertex -0.026754 0.07389 0.004598
   vertex -0.027376 0.072414 0.006559
   vertex -0.027376 0.075366 0.006559
  endloop
 endfacet
 facet normal -0.294416 0.906493 -0.302638
  outer loop
   vertex -0.020574 0.082396 0.004598
   vertex -0.02217 0.082532 0.006558
   vertex -0.019362 0.083444 0.006558
  endloop
 endfacet
 facet normal 0.771063 0.560215 -0.302688
  outer loop
   vertex -0.010574 0.079147 0.004598
   vertex -0.010938 0.080707 0.006558
   vertex -0.009203 0.078319 0.006558
  endloop
 endfacet
 facet normal 0.342493 -0.758552 0.554344
  outer loop
   vertex -0.015046 0.065384 0.013542
   vertex -0.01297 0.066724 0.014093
   vertex -0.015482 0.066724 0.015645
  endloop
 endfacet
 facet normal -0.61533 -0.560308 0.554459
  outer loop
   vertex -0.025046 0.068633 0.013542
   vertex -0.023129 0.067073 0.014093
   vertex -0.023905 0.069461 0.015645
  endloop
 endfacet
 facet normal -0.723015 0.412034 0.554506
  outer loop
   vertex -0.025046 0.079147 0.013542
   vertex -0.025937 0.076842 0.014093
   vertex -0.023905 0.078319 0.015645
  endloop
 endfacet
 facet normal 0.168666 0.815046 0.554303
  outer loop
   vertex -0.015046 0.082396 0.013542
   vertex -0.017514 0.082532 0.014093
   vertex -0.015482 0.081056 0.015645
  endloop
 endfacet
 facet normal 0.827124 0.091254 0.554562
  outer loop
   vertex -0.008866 0.07389 0.013542
   vertex -0.009499 0.076279 0.014093
   vertex -0.010276 0.07389 0.015645
  endloop
 endfacet
 facet normal 0.126271 0.0917039 0.987748
  outer loop
   vertex -0.015299 0.07389 0.018749
   vertex -0.017034 0.076279 0.018749
   vertex -0.01781 0.07389 0.01907
  endloop
 endfacet
 facet normal 0.390899 0.0914587 0.915878
  outer loop
   vertex -0.012553 0.07389 0.017577
   vertex -0.014192 0.076519 0.018014
   vertex -0.015299 0.07389 0.018749
  endloop
 endfacet
 facet normal 0.644269 0.0913996 0.759317
  outer loop
   vertex -0.010276 0.07389 0.015645
   vertex -0.011428 0.076519 0.016306
   vertex -0.012553 0.07389 0.017577
  endloop
 endfacet
 facet normal 0.233325 0.169451 0.957521
  outer loop
   vertex -0.015299 0.07389 0.018749
   vertex -0.014192 0.076519 0.018014
   vertex -0.017034 0.076279 0.018749
  endloop
 endfacet
 facet normal 0.207851 0.343516 0.915858
  outer loop
   vertex -0.014192 0.076519 0.018014
   vertex -0.016185 0.07889 0.017577
   vertex -0.017034 0.076279 0.018749
  endloop
 endfacet
 facet normal 0.516783 0.183167 0.836293
  outer loop
   vertex -0.012553 0.07389 0.017577
   vertex -0.011428 0.076519 0.016306
   vertex -0.014192 0.076519 0.018014
  endloop
 endfacet
 facet normal 0.491058 0.356895 0.794662
  outer loop
   vertex -0.011428 0.076519 0.016306
   vertex -0.013338 0.079147 0.016306
   vertex -0.014192 0.076519 0.018014
  endloop
 endfacet
 facet normal 0.334054 0.43492 0.836213
  outer loop
   vertex -0.014192 0.076519 0.018014
   vertex -0.013338 0.079147 0.016306
   vertex -0.016185 0.07889 0.017577
  endloop
 endfacet
 facet normal 0.286233 0.584386 0.759318
  outer loop
   vertex -0.013338 0.079147 0.016306
   vertex -0.015482 0.081056 0.015645
   vertex -0.016185 0.07889 0.017577
  endloop
 endfacet
 facet normal 0.751958 0.169318 0.637095
  outer loop
   vertex -0.010276 0.07389 0.015645
   vertex -0.009499 0.076279 0.014093
   vertex -0.011428 0.076519 0.016306
  endloop
 endfacet
 facet normal 0.725985 0.343961 0.595514
  outer loop
   vertex -0.009499 0.076279 0.014093
   vertex -0.010928 0.07889 0.014327
   vertex -0.011428 0.076519 0.016306
  endloop
 endfacet
 facet normal 0.598657 0.435097 0.672533
  outer loop
   vertex -0.011428 0.076519 0.016306
   vertex -0.010928 0.07889 0.014327
   vertex -0.013338 0.079147 0.016306
  endloop
 endfacet
 facet normal 0.551379 0.584158 0.595601
  outer loop
   vertex -0.010928 0.07889 0.014327
   vertex -0.01297 0.081056 0.014093
   vertex -0.013338 0.079147 0.016306
  endloop
 endfacet
 facet normal 0.393627 0.662685 0.637108
  outer loop
   vertex -0.013338 0.079147 0.016306
   vertex -0.01297 0.081056 0.014093
   vertex -0.015482 0.081056 0.015645
  endloop
 endfacet
 facet normal 0.342493 0.758552 0.554344
  outer loop
   vertex -0.01297 0.081056 0.014093
   vertex -0.015046 0.082396 0.013542
   vertex -0.015482 0.081056 0.015645
  endloop
 endfacet
 facet normal -0.0482486 0.148392 0.987751
  outer loop
   vertex -0.017034 0.076279 0.018749
   vertex -0.019842 0.075366 0.018749
   vertex -0.01781 0.07389 0.01907
  endloop
 endfacet
 facet normal 0.0336945 0.400135 0.915836
  outer loop
   vertex -0.016185 0.07889 0.017577
   vertex -0.019192 0.078143 0.018014
   vertex -0.017034 0.076279 0.018749
  endloop
 endfacet
 facet normal 0.112009 0.640965 0.759354
  outer loop
   vertex -0.015482 0.081056 0.015645
   vertex -0.018338 0.080772 0.016306
   vertex -0.016185 0.07889 0.017577
  endloop
 endfacet
 facet normal -0.0891868 0.274301 0.957499
  outer loop
   vertex -0.017034 0.076279 0.018749
   vertex -0.019192 0.078143 0.018014
   vertex -0.019842 0.075366 0.018749
  endloop
 endfacet
 facet normal -0.262485 0.303841 0.915851
  outer loop
   vertex -0.019192 0.078143 0.018014
   vertex -0.022063 0.07698 0.017577
   vertex -0.019842 0.075366 0.018749
  endloop
 endfacet
 facet normal -0.0146149 0.548074 0.836302
  outer loop
   vertex -0.016185 0.07889 0.017577
   vertex -0.018338 0.080772 0.016306
   vertex -0.019192 0.078143 0.018014
  endloop
 endfacet
 facet normal -0.187559 0.577248 0.794737
  outer loop
   vertex -0.018338 0.080772 0.016306
   vertex -0.021428 0.079768 0.016306
   vertex -0.019192 0.078143 0.018014
  endloop
 endfacet
 facet normal -0.310374 0.451949 0.836307
  outer loop
   vertex -0.019192 0.078143 0.018014
   vertex -0.021428 0.079768 0.016306
   vertex -0.022063 0.07698 0.017577
  endloop
 endfacet
 facet normal -0.467426 0.452641 0.759361
  outer loop
   vertex -0.021428 0.079768 0.016306
   vertex -0.023905 0.078319 0.015645
   vertex -0.022063 0.07698 0.017577
  endloop
 endfacet
 facet normal 0.0710868 0.767617 0.636955
  outer loop
   vertex -0.015482 0.081056 0.015645
   vertex -0.017514 0.082532 0.014093
   vertex -0.018338 0.080772 0.016306
  endloop
 endfacet
 facet normal -0.102735 0.796801 0.595444
  outer loop
   vertex -0.017514 0.082532 0.014093
   vertex -0.020439 0.08198 0.014327
   vertex -0.018338 0.080772 0.016306
  endloop
 endfacet
 facet normal -0.228709 0.703897 0.672474
  outer loop
   vertex -0.018338 0.080772 0.016306
   vertex -0.020439 0.08198 0.014327
   vertex -0.021428 0.079768 0.016306
  endloop
 endfacet
 facet normal -0.38541 0.704977 0.595371
  outer loop
   vertex -0.020439 0.08198 0.014327
   vertex -0.023129 0.080707 0.014093
   vertex -0.021428 0.079768 0.016306
  endloop
 endfacet
 facet normal -0.508799 0.579247 0.636864
  outer loop
   vertex -0.021428 0.079768 0.016306
   vertex -0.023129 0.080707 0.014093
   vertex -0.023905 0.078319 0.015645
  endloop
 endfacet
 facet normal -0.61533 0.560308 0.554459
  outer loop
   vertex -0.023129 0.080707 0.014093
   vertex -0.025046 0.079147 0.013542
   vertex -0.023905 0.078319 0.015645
  endloop
 endfacet
 facet normal -0.156037 0 0.987751
  outer loop
   vertex -0.019842 0.075366 0.018749
   vertex -0.019842 0.072414 0.018749
   vertex -0.01781 0.07389 0.01907
  endloop
 endfacet
 facet normal -0.370096 0.155752 0.915844
  outer loop
   vertex -0.022063 0.07698 0.017577
   vertex -0.022282 0.07389 0.018014
   vertex -0.019842 0.075366 0.018749
  endloop
 endfacet
 facet normal -0.574948 0.304695 0.759339
  outer loop
   vertex -0.023905 0.078319 0.015645
   vertex -0.024518 0.075515 0.016306
   vertex -0.022063 0.07698 0.017577
  endloop
 endfacet
 facet normal -0.288428 0 0.957502
  outer loop
   vertex -0.019842 0.075366 0.018749
   vertex -0.022282 0.07389 0.018014
   vertex -0.019842 0.072414 0.018749
  endloop
 endfacet
 facet normal -0.370096 -0.155752 0.915844
  outer loop
   vertex -0.022282 0.07389 0.018014
   vertex -0.022063 0.0708 0.017577
   vertex -0.019842 0.072414 0.018749
  endloop
 endfacet
 facet normal -0.525774 0.155534 0.836284
  outer loop
   vertex -0.022063 0.07698 0.017577
   vertex -0.024518 0.075515 0.016306
   vertex -0.022282 0.07389 0.018014
  endloop
 endfacet
 facet normal -0.607028 0 0.794681
  outer loop
   vertex -0.024518 0.075515 0.016306
   vertex -0.024518 0.072265 0.016306
   vertex -0.022282 0.07389 0.018014
  endloop
 endfacet
 facet normal -0.525774 -0.155534 0.836284
  outer loop
   vertex -0.022282 0.07389 0.018014
   vertex -0.024518 0.072265 0.016306
   vertex -0.022063 0.0708 0.017577
  endloop
 endfacet
 facet normal -0.574948 -0.304695 0.759339
  outer loop
   vertex -0.024518 0.072265 0.016306
   vertex -0.023905 0.069461 0.015645
   vertex -0.022063 0.0708 0.017577
  endloop
 endfacet
 facet normal -0.708089 0.304936 0.636886
  outer loop
   vertex -0.023905 0.078319 0.015645
   vertex -0.025937 0.076842 0.014093
   vertex -0.024518 0.075515 0.016306
  endloop
 endfacet
 facet normal -0.789589 0.148568 0.59538
  outer loop
   vertex -0.025937 0.076842 0.014093
   vertex -0.026316 0.07389 0.014327
   vertex -0.024518 0.075515 0.016306
  endloop
 endfacet
 facet normal -0.740143 0 0.672449
  outer loop
   vertex -0.024518 0.075515 0.016306
   vertex -0.026316 0.07389 0.014327
   vertex -0.024518 0.072265 0.016306
  endloop
 endfacet
 facet normal -0.789589 -0.148568 0.59538
  outer loop
   vertex -0.026316 0.07389 0.014327
   vertex -0.025937 0.070938 0.014093
   vertex -0.024518 0.072265 0.016306
  endloop
 endfacet
 facet normal -0.708089 -0.304936 0.636886
  outer loop
   vertex -0.024518 0.072265 0.016306
   vertex -0.025937 0.070938 0.014093
   vertex -0.023905 0.069461 0.015645
  endloop
 endfacet
 facet normal -0.723015 -0.412034 0.554506
  outer loop
   vertex -0.025937 0.070938 0.014093
   vertex -0.025046 0.068633 0.013542
   vertex -0.023905 0.069461 0.015645
  endloop
 endfacet
 facet normal -0.0482486 -0.148392 0.987751
  outer loop
   vertex -0.019842 0.072414 0.018749
   vertex -0.017034 0.071501 0.018749
   vertex -0.01781 0.07389 0.01907
  endloop
 endfacet
 facet normal -0.262485 -0.303841 0.915851
  outer loop
   vertex -0.022063 0.0708 0.017577
   vertex -0.019192 0.069637 0.018014
   vertex -0.019842 0.072414 0.018749
  endloop
 endfacet
 facet normal -0.467426 -0.452641 0.759361
  outer loop
   vertex -0.023905 0.069461 0.015645
   vertex -0.021428 0.068012 0.016306
   vertex -0.022063 0.0708 0.017577
  endloop
 endfacet
 facet normal -0.0891868 -0.274301 0.957499
  outer loop
   vertex -0.019842 0.072414 0.018749
   vertex -0.019192 0.069637 0.018014
   vertex -0.017034 0.071501 0.018749
  endloop
 endfacet
 facet normal 0.0336945 -0.400135 0.915836
  outer loop
   vertex -0.019192 0.069637 0.018014
   vertex -0.016185 0.06889 0.017577
   vertex -0.017034 0.071501 0.018749
  endloop
 endfacet
 facet normal -0.310374 -0.451949 0.836307
  outer loop
   vertex -0.022063 0.0708 0.017577
   vertex -0.021428 0.068012 0.016306
   vertex -0.019192 0.069637 0.018014
  endloop
 endfacet
 facet normal -0.187559 -0.577248 0.794737
  outer loop
   vertex -0.021428 0.068012 0.016306
   vertex -0.018338 0.067008 0.016306
   vertex -0.019192 0.069637 0.018014
  endloop
 endfacet
 facet normal -0.0146149 -0.548074 0.836302
  outer loop
   vertex -0.019192 0.069637 0.018014
   vertex -0.018338 0.067008 0.016306
   vertex -0.016185 0.06889 0.017577
  endloop
 endfacet
 facet normal 0.112009 -0.640965 0.759354
  outer loop
   vertex -0.018338 0.067008 0.016306
   vertex -0.015482 0.066724 0.015645
   vertex -0.016185 0.06889 0.017577
  endloop
 endfacet
 facet normal -0.508799 -0.579247 0.636864
  outer loop
   vertex -0.023905 0.069461 0.015645
   vertex -0.023129 0.067073 0.014093
   vertex -0.021428 0.068012 0.016306
  endloop
 endfacet
 facet normal -0.38541 -0.704977 0.595371
  outer loop
   vertex -0.023129 0.067073 0.014093
   vertex -0.020439 0.0658 0.014327
   vertex -0.021428 0.068012 0.016306
  endloop
 endfacet
 facet normal -0.228709 -0.703897 0.672474
  outer loop
   vertex -0.021428 0.068012 0.016306
   vertex -0.020439 0.0658 0.014327
   vertex -0.018338 0.067008 0.016306
  endloop
 endfacet
 facet normal -0.102735 -0.796801 0.595444
  outer loop
   vertex -0.020439 0.0658 0.014327
   vertex -0.017514 0.065248 0.014093
   vertex -0.018338 0.067008 0.016306
  endloop
 endfacet
 facet normal 0.0710868 -0.767617 0.636955
  outer loop
   vertex -0.018338 0.067008 0.016306
   vertex -0.017514 0.065248 0.014093
   vertex -0.015482 0.066724 0.015645
  endloop
 endfacet
 facet normal 0.168666 -0.815046 0.554303
  outer loop
   vertex -0.017514 0.065248 0.014093
   vertex -0.015046 0.065384 0.013542
   vertex -0.015482 0.066724 0.015645
  endloop
 endfacet
 facet normal 0.126271 -0.0917039 0.987748
  outer loop
   vertex -0.017034 0.071501 0.018749
   vertex -0.015299 0.07389 0.018749
   vertex -0.01781 0.07389 0.01907
  endloop
 endfacet
 facet normal 0.207851 -0.343516 0.915858
  outer loop
   vertex -0.016185 0.06889 0.017577
   vertex -0.014192 0.071261 0.018014
   vertex -0.017034 0.071501 0.018749
  endloop
 endfacet
 facet normal 0.286233 -0.584386 0.759318
  outer loop
   vertex -0.015482 0.066724 0.015645
   vertex -0.013338 0.068633 0.016306
   vertex -0.016185 0.06889 0.017577
  endloop
 endfacet
 facet normal 0.233325 -0.169451 0.957521
  outer loop
   vertex -0.017034 0.071501 0.018749
   vertex -0.014192 0.071261 0.018014
   vertex -0.015299 0.07389 0.018749
  endloop
 endfacet
 facet normal 0.390899 -0.0914587 0.915878
  outer loop
   vertex -0.014192 0.071261 0.018014
   vertex -0.012553 0.07389 0.017577
   vertex -0.015299 0.07389 0.018749
  endloop
 endfacet
 facet normal 0.334054 -0.43492 0.836213
  outer loop
   vertex -0.016185 0.06889 0.017577
   vertex -0.013338 0.068633 0.016306
   vertex -0.014192 0.071261 0.018014
  endloop
 endfacet
 facet normal 0.491058 -0.356895 0.794662
  outer loop
   vertex -0.013338 0.068633 0.016306
   vertex -0.011428 0.071261 0.016306
   vertex -0.014192 0.071261 0.018014
  endloop
 endfacet
 facet normal 0.516783 -0.183167 0.836293
  outer loop
   vertex -0.014192 0.071261 0.018014
   vertex -0.011428 0.071261 0.016306
   vertex -0.012553 0.07389 0.017577
  endloop
 endfacet
 facet normal 0.644269 -0.0913996 0.759317
  outer loop
   vertex -0.011428 0.071261 0.016306
   vertex -0.010276 0.07389 0.015645
   vertex -0.012553 0.07389 0.017577
  endloop
 endfacet
 facet normal 0.393627 -0.662685 0.637108
  outer loop
   vertex -0.015482 0.066724 0.015645
   vertex -0.01297 0.066724 0.014093
   vertex -0.013338 0.068633 0.016306
  endloop
 endfacet
 facet normal 0.551379 -0.584158 0.595601
  outer loop
   vertex -0.01297 0.066724 0.014093
   vertex -0.010928 0.06889 0.014327
   vertex -0.013338 0.068633 0.016306
  endloop
 endfacet
 facet normal 0.598657 -0.435097 0.672533
  outer loop
   vertex -0.013338 0.068633 0.016306
   vertex -0.010928 0.06889 0.014327
   vertex -0.011428 0.071261 0.016306
  endloop
 endfacet
 facet normal 0.725985 -0.343961 0.595514
  outer loop
   vertex -0.010928 0.06889 0.014327
   vertex -0.009499 0.071501 0.014093
   vertex -0.011428 0.071261 0.016306
  endloop
 endfacet
 facet normal 0.751958 -0.169318 0.637095
  outer loop
   vertex -0.011428 0.071261 0.016306
   vertex -0.009499 0.071501 0.014093
   vertex -0.010276 0.07389 0.015645
  endloop
 endfacet
 facet normal 0.827124 -0.091254 0.554562
  outer loop
   vertex -0.009499 0.071501 0.014093
   vertex -0.008866 0.07389 0.013542
   vertex -0.010276 0.07389 0.015645
  endloop
 endfacet
 facet normal 0.905177 0.147939 0.398459
  outer loop
   vertex -0.008244 0.075366 0.011581
   vertex -0.009499 0.076279 0.014093
   vertex -0.008866 0.07389 0.013542
  endloop
 endfacet
 facet normal 0.93657 0.303801 0.17476
  outer loop
   vertex -0.008299 0.07698 0.00907
   vertex -0.009192 0.078143 0.011834
   vertex -0.008244 0.075366 0.011581
  endloop
 endfacet
 facet normal 0.888212 0.452708 -0.078331
  outer loop
   vertex -0.009203 0.078319 0.006558
   vertex -0.00972 0.079768 0.00907
   vertex -0.008299 0.07698 0.00907
  endloop
 endfacet
 facet normal 0.89641 0.274294 0.348155
  outer loop
   vertex -0.008244 0.075366 0.011581
   vertex -0.009192 0.078143 0.011834
   vertex -0.009499 0.076279 0.014093
  endloop
 endfacet
 facet normal 0.803858 0.400541 0.439749
  outer loop
   vertex -0.009192 0.078143 0.011834
   vertex -0.010928 0.07889 0.014327
   vertex -0.009499 0.076279 0.014093
  endloop
 endfacet
 facet normal 0.886806 0.451991 0.0963284
  outer loop
   vertex -0.008299 0.07698 0.00907
   vertex -0.00972 0.079768 0.00907
   vertex -0.009192 0.078143 0.011834
  endloop
 endfacet
 facet normal 0.794662 0.577331 0.18762
  outer loop
   vertex -0.00972 0.079768 0.00907
   vertex -0.011102 0.080772 0.011834
   vertex -0.009192 0.078143 0.011834
  endloop
 endfacet
 facet normal 0.754436 0.548107 0.361117
  outer loop
   vertex -0.009192 0.078143 0.011834
   vertex -0.011102 0.080772 0.011834
   vertex -0.010928 0.07889 0.014327
  endloop
 endfacet
 facet normal 0.629279 0.640767 0.439803
  outer loop
   vertex -0.011102 0.080772 0.011834
   vertex -0.01297 0.081056 0.014093
   vertex -0.010928 0.07889 0.014327
  endloop
 endfacet
 facet normal 0.797233 0.579229 -0.170037
  outer loop
   vertex -0.009203 0.078319 0.006558
   vertex -0.010938 0.080707 0.006558
   vertex -0.00972 0.079768 0.00907
  endloop
 endfacet
 facet normal 0.704936 0.704936 -0.0782949
  outer loop
   vertex -0.010938 0.080707 0.006558
   vertex -0.011932 0.08198 0.00907
   vertex -0.00972 0.079768 0.00907
  endloop
 endfacet
 facet normal 0.703824 0.703824 0.0962537
  outer loop
   vertex -0.00972 0.079768 0.00907
   vertex -0.011932 0.08198 0.00907
   vertex -0.011102 0.080772 0.011834
  endloop
 endfacet
 facet normal 0.578519 0.796783 0.174509
  outer loop
   vertex -0.011932 0.08198 0.00907
   vertex -0.01345 0.082532 0.011582
   vertex -0.011102 0.080772 0.011834
  endloop
 endfacet
 facet normal 0.537986 0.767602 0.348366
  outer loop
   vertex -0.011102 0.080772 0.011834
   vertex -0.01345 0.082532 0.011582
   vertex -0.01297 0.081056 0.014093
  endloop
 endfacet
 facet normal 0.420269 0.815078 0.398776
  outer loop
   vertex -0.01345 0.082532 0.011582
   vertex -0.015046 0.082396 0.013542
   vertex -0.01297 0.081056 0.014093
  endloop
 endfacet
 facet normal 0.138975 0.90647 0.398746
  outer loop
   vertex -0.016258 0.083444 0.011582
   vertex -0.017514 0.082532 0.014093
   vertex -0.015046 0.082396 0.013542
  endloop
 endfacet
 facet normal 0.000555151 0.98466 0.174481
  outer loop
   vertex -0.01781 0.08389 0.00907
   vertex -0.019192 0.083401 0.011834
   vertex -0.016258 0.083444 0.011582
  endloop
 endfacet
 facet normal -0.155824 0.984657 -0.07855
  outer loop
   vertex -0.019362 0.083444 0.006558
   vertex -0.0209 0.083401 0.00907
   vertex -0.01781 0.08389 0.00907
  endloop
 endfacet
 facet normal 0.0161962 0.937175 0.348485
  outer loop
   vertex -0.016258 0.083444 0.011582
   vertex -0.019192 0.083401 0.011834
   vertex -0.017514 0.082532 0.014093
  endloop
 endfacet
 facet normal -0.132412 0.888171 0.440021
  outer loop
   vertex -0.019192 0.083401 0.011834
   vertex -0.020439 0.08198 0.014327
   vertex -0.017514 0.082532 0.014093
  endloop
 endfacet
 facet normal -0.155583 0.983133 0.0961419
  outer loop
   vertex -0.01781 0.08389 0.00907
   vertex -0.0209 0.083401 0.00907
   vertex -0.019192 0.083401 0.011834
  endloop
 endfacet
 facet normal -0.303796 0.934059 0.187729
  outer loop
   vertex -0.0209 0.083401 0.00907
   vertex -0.022282 0.082396 0.011834
   vertex -0.019192 0.083401 0.011834
  endloop
 endfacet
 facet normal -0.288415 0.886769 0.361189
  outer loop
   vertex -0.019192 0.083401 0.011834
   vertex -0.022282 0.082396 0.011834
   vertex -0.020439 0.08198 0.014327
  endloop
 endfacet
 facet normal -0.415138 0.796394 0.439791
  outer loop
   vertex -0.022282 0.082396 0.011834
   vertex -0.023129 0.080707 0.014093
   vertex -0.020439 0.08198 0.014327
  endloop
 endfacet
 facet normal -0.304389 0.937197 -0.170322
  outer loop
   vertex -0.019362 0.083444 0.006558
   vertex -0.02217 0.082532 0.006558
   vertex -0.0209 0.083401 0.00907
  endloop
 endfacet
 facet normal -0.452705 0.888208 -0.0783901
  outer loop
   vertex -0.02217 0.082532 0.006558
   vertex -0.023688 0.08198 0.00907
   vertex -0.0209 0.083401 0.00907
  endloop
 endfacet
 facet normal -0.451986 0.886796 0.0964489
  outer loop
   vertex -0.0209 0.083401 0.00907
   vertex -0.023688 0.08198 0.00907
   vertex -0.022282 0.082396 0.011834
  endloop
 endfacet
 facet normal -0.578874 0.796508 0.174584
  outer loop
   vertex -0.023688 0.08198 0.00907
   vertex -0.024682 0.080707 0.011582
   vertex -0.022282 0.082396 0.011834
  endloop
 endfacet
 facet normal -0.563623 0.748876 0.348589
  outer loop
   vertex -0.022282 0.082396 0.011834
   vertex -0.024682 0.080707 0.011582
   vertex -0.023129 0.080707 0.014093
  endloop
 endfacet
 facet normal -0.645038 0.651744 0.398942
  outer loop
   vertex -0.024682 0.080707 0.011582
   vertex -0.025046 0.079147 0.013542
   vertex -0.023129 0.080707 0.014093
  endloop
 endfacet
 facet normal -0.819189 0.412026 0.398954
  outer loop
   vertex -0.026417 0.078319 0.011582
   vertex -0.025937 0.076842 0.014093
   vertex -0.025046 0.079147 0.013542
  endloop
 endfacet
 facet normal -0.936352 0.304548 0.174631
  outer loop
   vertex -0.027321 0.07698 0.00907
   vertex -0.027282 0.075515 0.011834
   vertex -0.026417 0.078319 0.011582
  endloop
 endfacet
 facet normal -0.984653 0.155824 -0.0785916
  outer loop
   vertex -0.027376 0.075366 0.006559
   vertex -0.02781 0.07389 0.00907
   vertex -0.027321 0.07698 0.00907
  endloop
 endfacet
 facet normal -0.886309 0.304753 0.348685
  outer loop
   vertex -0.026417 0.078319 0.011582
   vertex -0.027282 0.075515 0.011834
   vertex -0.025937 0.076842 0.014093
  endloop
 endfacet
 facet normal -0.885615 0.148581 0.440011
  outer loop
   vertex -0.027282 0.075515 0.011834
   vertex -0.026316 0.07389 0.014327
   vertex -0.025937 0.076842 0.014093
  endloop
 endfacet
 facet normal -0.983115 0.15558 0.0963335
  outer loop
   vertex -0.027321 0.07698 0.00907
   vertex -0.02781 0.07389 0.00907
   vertex -0.027282 0.075515 0.011834
  endloop
 endfacet
 facet normal -0.982239 0 0.187634
  outer loop
   vertex -0.02781 0.07389 0.00907
   vertex -0.027282 0.072265 0.011834
   vertex -0.027282 0.075515 0.011834
  endloop
 endfacet
 facet normal -0.932446 0 0.361309
  outer loop
   vertex -0.027282 0.075515 0.011834
   vertex -0.027282 0.072265 0.011834
   vertex -0.026316 0.07389 0.014327
  endloop
 endfacet
 facet normal -0.885615 -0.148581 0.440011
  outer loop
   vertex -0.027282 0.072265 0.011834
   vertex -0.025937 0.070938 0.014093
   vertex -0.026316 0.07389 0.014327
  endloop
 endfacet
 facet normal -0.98539 -0 -0.170314
  outer loop
   vertex -0.027376 0.075366 0.006559
   vertex -0.027376 0.072414 0.006559
   vertex -0.02781 0.07389 0.00907
  endloop
 endfacet
 facet normal -0.984653 -0.155824 -0.0785916
  outer loop
   vertex -0.027376 0.072414 0.006559
   vertex -0.027321 0.0708 0.00907
   vertex -0.02781 0.07389 0.00907
  endloop
 endfacet
 facet normal -0.983115 -0.15558 0.0963335
  outer loop
   vertex -0.02781 0.07389 0.00907
   vertex -0.027321 0.0708 0.00907
   vertex -0.027282 0.072265 0.011834
  endloop
 endfacet
 facet normal -0.936352 -0.304548 0.174631
  outer loop
   vertex -0.027321 0.0708 0.00907
   vertex -0.026417 0.069461 0.011582
   vertex -0.027282 0.072265 0.011834
  endloop
 endfacet
 facet normal -0.886309 -0.304753 0.348685
  outer loop
   vertex -0.027282 0.072265 0.011834
   vertex -0.026417 0.069461 0.011582
   vertex -0.025937 0.070938 0.014093
  endloop
 endfacet
 facet normal -0.819189 -0.412026 0.398954
  outer loop
   vertex -0.026417 0.069461 0.011582
   vertex -0.025046 0.068633 0.013542
   vertex -0.025937 0.070938 0.014093
  endloop
 endfacet
 facet normal -0.645038 -0.651744 0.398942
  outer loop
   vertex -0.024682 0.067073 0.011582
   vertex -0.023129 0.067073 0.014093
   vertex -0.025046 0.068633 0.013542
  endloop
 endfacet
 facet normal -0.578874 -0.796508 0.174584
  outer loop
   vertex -0.023688 0.0658 0.00907
   vertex -0.022282 0.065384 0.011834
   vertex -0.024682 0.067073 0.011582
  endloop
 endfacet
 facet normal -0.452705 -0.888208 -0.0783901
  outer loop
   vertex -0.02217 0.065248 0.006558
   vertex -0.0209 0.064379 0.00907
   vertex -0.023688 0.0658 0.00907
  endloop
 endfacet
 facet normal -0.563623 -0.748876 0.348589
  outer loop
   vertex -0.024682 0.067073 0.011582
   vertex -0.022282 0.065384 0.011834
   vertex -0.023129 0.067073 0.014093
  endloop
 endfacet
 facet normal -0.415138 -0.796394 0.439791
  outer loop
   vertex -0.022282 0.065384 0.011834
   vertex -0.020439 0.0658 0.014327
   vertex -0.023129 0.067073 0.014093
  endloop
 endfacet
 facet normal -0.451986 -0.886796 0.0964489
  outer loop
   vertex -0.023688 0.0658 0.00907
   vertex -0.0209 0.064379 0.00907
   vertex -0.022282 0.065384 0.011834
  endloop
 endfacet
 facet normal -0.303796 -0.934059 0.187729
  outer loop
   vertex -0.0209 0.064379 0.00907
   vertex -0.019192 0.064379 0.011834
   vertex -0.022282 0.065384 0.011834
  endloop
 endfacet
 facet normal -0.288415 -0.886769 0.361189
  outer loop
   vertex -0.022282 0.065384 0.011834
   vertex -0.019192 0.064379 0.011834
   vertex -0.020439 0.0658 0.014327
  endloop
 endfacet
 facet normal -0.132412 -0.888171 0.440021
  outer loop
   vertex -0.019192 0.064379 0.011834
   vertex -0.017514 0.065248 0.014093
   vertex -0.020439 0.0658 0.014327
  endloop
 endfacet
 facet normal -0.304389 -0.937197 -0.170322
  outer loop
   vertex -0.02217 0.065248 0.006558
   vertex -0.019362 0.064336 0.006558
   vertex -0.0209 0.064379 0.00907
  endloop
 endfacet
 facet normal -0.155824 -0.984657 -0.07855
  outer loop
   vertex -0.019362 0.064336 0.006558
   vertex -0.01781 0.06389 0.00907
   vertex -0.0209 0.064379 0.00907
  endloop
 endfacet
 facet normal -0.155583 -0.983133 0.0961419
  outer loop
   vertex -0.0209 0.064379 0.00907
   vertex -0.01781 0.06389 0.00907
   vertex -0.019192 0.064379 0.011834
  endloop
 endfacet
 facet normal 0.000555151 -0.98466 0.174481
  outer loop
   vertex -0.01781 0.06389 0.00907
   vertex -0.016258 0.064336 0.011582
   vertex -0.019192 0.064379 0.011834
  endloop
 endfacet
 facet normal 0.0161962 -0.937175 0.348485
  outer loop
   vertex -0.019192 0.064379 0.011834
   vertex -0.016258 0.064336 0.011582
   vertex -0.017514 0.065248 0.014093
  endloop
 endfacet
 facet normal 0.138975 -0.90647 0.398746
  outer loop
   vertex -0.016258 0.064336 0.011582
   vertex -0.015046 0.065384 0.013542
   vertex -0.017514 0.065248 0.014093
  endloop
 endfacet
 facet normal 0.420269 -0.815078 0.398776
  outer loop
   vertex -0.01345 0.065248 0.011582
   vertex -0.01297 0.066724 0.014093
   vertex -0.015046 0.065384 0.013542
  endloop
 endfacet
 facet normal 0.578519 -0.796783 0.174509
  outer loop
   vertex -0.011932 0.0658 0.00907
   vertex -0.011102 0.067008 0.011834
   vertex -0.01345 0.065248 0.011582
  endloop
 endfacet
 facet normal 0.704936 -0.704936 -0.0782949
  outer loop
   vertex -0.010938 0.067073 0.006558
   vertex -0.00972 0.068012 0.00907
   vertex -0.011932 0.0658 0.00907
  endloop
 endfacet
 facet normal 0.537986 -0.767602 0.348366
  outer loop
   vertex -0.01345 0.065248 0.011582
   vertex -0.011102 0.067008 0.011834
   vertex -0.01297 0.066724 0.014093
  endloop
 endfacet
 facet normal 0.629279 -0.640767 0.439803
  outer loop
   vertex -0.011102 0.067008 0.011834
   vertex -0.010928 0.06889 0.014327
   vertex -0.01297 0.066724 0.014093
  endloop
 endfacet
 facet normal 0.703824 -0.703824 0.0962537
  outer loop
   vertex -0.011932 0.0658 0.00907
   vertex -0.00972 0.068012 0.00907
   vertex -0.011102 0.067008 0.011834
  endloop
 endfacet
 facet normal 0.794662 -0.577331 0.18762
  outer loop
   vertex -0.00972 0.068012 0.00907
   vertex -0.009192 0.069637 0.011834
   vertex -0.011102 0.067008 0.011834
  endloop
 endfacet
 facet normal 0.754436 -0.548107 0.361117
  outer loop
   vertex -0.011102 0.067008 0.011834
   vertex -0.009192 0.069637 0.011834
   vertex -0.010928 0.06889 0.014327
  endloop
 endfacet
 facet normal 0.803858 -0.400541 0.439749
  outer loop
   vertex -0.009192 0.069637 0.011834
   vertex -0.009499 0.071501 0.014093
   vertex -0.010928 0.06889 0.014327
  endloop
 endfacet
 facet normal 0.797233 -0.579229 -0.170037
  outer loop
   vertex -0.010938 0.067073 0.006558
   vertex -0.009203 0.069461 0.006558
   vertex -0.00972 0.068012 0.00907
  endloop
 endfacet
 facet normal 0.888212 -0.452708 -0.078331
  outer loop
   vertex -0.009203 0.069461 0.006558
   vertex -0.008299 0.0708 0.00907
   vertex -0.00972 0.068012 0.00907
  endloop
 endfacet
 facet normal 0.886806 -0.451991 0.0963284
  outer loop
   vertex -0.00972 0.068012 0.00907
   vertex -0.008299 0.0708 0.00907
   vertex -0.009192 0.069637 0.011834
  endloop
 endfacet
 facet normal 0.93657 -0.303801 0.17476
  outer loop
   vertex -0.008299 0.0708 0.00907
   vertex -0.008244 0.072414 0.011581
   vertex -0.009192 0.069637 0.011834
  endloop
 endfacet
 facet normal 0.89641 -0.274294 0.348155
  outer loop
   vertex -0.009192 0.069637 0.011834
   vertex -0.008244 0.072414 0.011581
   vertex -0.009499 0.071501 0.014093
  endloop
 endfacet
 facet normal 0.905177 -0.147939 0.398459
  outer loop
   vertex -0.008244 0.072414 0.011581
   vertex -0.008866 0.07389 0.013542
   vertex -0.009499 0.071501 0.014093
  endloop
 endfacet
 facet normal 0.294416 0.906493 0.302638
  outer loop
   vertex -0.01345 0.082532 0.011582
   vertex -0.016258 0.083444 0.011582
   vertex -0.015046 0.082396 0.013542
  endloop
 endfacet
 facet normal 0.452705 0.888208 0.0783901
  outer loop
   vertex -0.011932 0.08198 0.00907
   vertex -0.01472 0.083401 0.00907
   vertex -0.01345 0.082532 0.011582
  endloop
 endfacet
 facet normal 0.578874 0.796508 -0.174584
  outer loop
   vertex -0.010938 0.080707 0.006558
   vertex -0.013338 0.082396 0.006306
   vertex -0.011932 0.08198 0.00907
  endloop
 endfacet
 facet normal 0.304389 0.937197 0.170322
  outer loop
   vertex -0.01345 0.082532 0.011582
   vertex -0.01472 0.083401 0.00907
   vertex -0.016258 0.083444 0.011582
  endloop
 endfacet
 facet normal 0.155824 0.984657 0.07855
  outer loop
   vertex -0.01472 0.083401 0.00907
   vertex -0.01781 0.08389 0.00907
   vertex -0.016258 0.083444 0.011582
  endloop
 endfacet
 facet normal 0.451986 0.886796 -0.0964489
  outer loop
   vertex -0.011932 0.08198 0.00907
   vertex -0.013338 0.082396 0.006306
   vertex -0.01472 0.083401 0.00907
  endloop
 endfacet
 facet normal 0.303796 0.934059 -0.187729
  outer loop
   vertex -0.013338 0.082396 0.006306
   vertex -0.016428 0.083401 0.006306
   vertex -0.01472 0.083401 0.00907
  endloop
 endfacet
 facet normal 0.155583 0.983133 -0.0961419
  outer loop
   vertex -0.01472 0.083401 0.00907
   vertex -0.016428 0.083401 0.006306
   vertex -0.01781 0.08389 0.00907
  endloop
 endfacet
 facet normal -0.000555151 0.98466 -0.174481
  outer loop
   vertex -0.016428 0.083401 0.006306
   vertex -0.019362 0.083444 0.006558
   vertex -0.01781 0.08389 0.00907
  endloop
 endfacet
 facet normal 0.563623 0.748876 -0.348589
  outer loop
   vertex -0.010938 0.080707 0.006558
   vertex -0.012491 0.080707 0.004047
   vertex -0.013338 0.082396 0.006306
  endloop
 endfacet
 facet normal 0.415138 0.796394 -0.439791
  outer loop
   vertex -0.012491 0.080707 0.004047
   vertex -0.015181 0.08198 0.003813
   vertex -0.013338 0.082396 0.006306
  endloop
 endfacet
 facet normal 0.288415 0.886769 -0.361189
  outer loop
   vertex -0.013338 0.082396 0.006306
   vertex -0.015181 0.08198 0.003813
   vertex -0.016428 0.083401 0.006306
  endloop
 endfacet
 facet normal 0.132412 0.888171 -0.440021
  outer loop
   vertex -0.015181 0.08198 0.003813
   vertex -0.018106 0.082532 0.004047
   vertex -0.016428 0.083401 0.006306
  endloop
 endfacet
 facet normal -0.0161962 0.937175 -0.348485
  outer loop
   vertex -0.016428 0.083401 0.006306
   vertex -0.018106 0.082532 0.004047
   vertex -0.019362 0.083444 0.006558
  endloop
 endfacet
 facet normal -0.138975 0.90647 -0.398746
  outer loop
   vertex -0.018106 0.082532 0.004047
   vertex -0.020574 0.082396 0.004598
   vertex -0.019362 0.083444 0.006558
  endloop
 endfacet
 facet normal -0.771063 0.560215 0.302688
  outer loop
   vertex -0.024682 0.080707 0.011582
   vertex -0.026417 0.078319 0.011582
   vertex -0.025046 0.079147 0.013542
  endloop
 endfacet
 facet normal -0.704936 0.704936 0.0782949
  outer loop
   vertex -0.023688 0.08198 0.00907
   vertex -0.0259 0.079768 0.00907
   vertex -0.024682 0.080707 0.011582
  endloop
 endfacet
 facet normal -0.578519 0.796783 -0.174509
  outer loop
   vertex -0.02217 0.082532 0.006558
   vertex -0.024518 0.080772 0.006306
   vertex -0.023688 0.08198 0.00907
  endloop
 endfacet
 facet normal -0.797233 0.579229 0.170037
  outer loop
   vertex -0.024682 0.080707 0.011582
   vertex -0.0259 0.079768 0.00907
   vertex -0.026417 0.078319 0.011582
  endloop
 endfacet
 facet normal -0.888212 0.452708 0.078331
  outer loop
   vertex -0.0259 0.079768 0.00907
   vertex -0.027321 0.07698 0.00907
   vertex -0.026417 0.078319 0.011582
  endloop
 endfacet
 facet normal -0.703824 0.703824 -0.0962537
  outer loop
   vertex -0.023688 0.08198 0.00907
   vertex -0.024518 0.080772 0.006306
   vertex -0.0259 0.079768 0.00907
  endloop
 endfacet
 facet normal -0.794662 0.577331 -0.18762
  outer loop
   vertex -0.024518 0.080772 0.006306
   vertex -0.026428 0.078143 0.006306
   vertex -0.0259 0.079768 0.00907
  endloop
 endfacet
 facet normal -0.886806 0.451991 -0.0963284
  outer loop
   vertex -0.0259 0.079768 0.00907
   vertex -0.026428 0.078143 0.006306
   vertex -0.027321 0.07698 0.00907
  endloop
 endfacet
 facet normal -0.93657 0.303801 -0.17476
  outer loop
   vertex -0.026428 0.078143 0.006306
   vertex -0.027376 0.075366 0.006559
   vertex -0.027321 0.07698 0.00907
  endloop
 endfacet
 facet normal -0.537986 0.767602 -0.348366
  outer loop
   vertex -0.02217 0.082532 0.006558
   vertex -0.02265 0.081056 0.004047
   vertex -0.024518 0.080772 0.006306
  endloop
 endfacet
 facet normal -0.629279 0.640767 -0.439803
  outer loop
   vertex -0.02265 0.081056 0.004047
   vertex -0.024692 0.07889 0.003813
   vertex -0.024518 0.080772 0.006306
  endloop
 endfacet
 facet normal -0.754436 0.548107 -0.361117
  outer loop
   vertex -0.024518 0.080772 0.006306
   vertex -0.024692 0.07889 0.003813
   vertex -0.026428 0.078143 0.006306
  endloop
 endfacet
 facet normal -0.803858 0.400541 -0.439749
  outer loop
   vertex -0.024692 0.07889 0.003813
   vertex -0.026121 0.076279 0.004047
   vertex -0.026428 0.078143 0.006306
  endloop
 endfacet
 facet normal -0.89641 0.274294 -0.348155
  outer loop
   vertex -0.026428 0.078143 0.006306
   vertex -0.026121 0.076279 0.004047
   vertex -0.027376 0.075366 0.006559
  endloop
 endfacet
 facet normal -0.905177 0.147939 -0.398459
  outer loop
   vertex -0.026121 0.076279 0.004047
   vertex -0.026754 0.07389 0.004598
   vertex -0.027376 0.075366 0.006559
  endloop
 endfacet
 facet normal -0.771063 -0.560215 0.302688
  outer loop
   vertex -0.026417 0.069461 0.011582
   vertex -0.024682 0.067073 0.011582
   vertex -0.025046 0.068633 0.013542
  endloop
 endfacet
 facet normal -0.888212 -0.452708 0.078331
  outer loop
   vertex -0.027321 0.0708 0.00907
   vertex -0.0259 0.068012 0.00907
   vertex -0.026417 0.069461 0.011582
  endloop
 endfacet
 facet normal -0.93657 -0.303801 -0.17476
  outer loop
   vertex -0.027376 0.072414 0.006559
   vertex -0.026428 0.069637 0.006306
   vertex -0.027321 0.0708 0.00907
  endloop
 endfacet
 facet normal -0.797233 -0.579229 0.170037
  outer loop
   vertex -0.026417 0.069461 0.011582
   vertex -0.0259 0.068012 0.00907
   vertex -0.024682 0.067073 0.011582
  endloop
 endfacet
 facet normal -0.704936 -0.704936 0.0782949
  outer loop
   vertex -0.0259 0.068012 0.00907
   vertex -0.023688 0.0658 0.00907
   vertex -0.024682 0.067073 0.011582
  endloop
 endfacet
 facet normal -0.886806 -0.451991 -0.0963284
  outer loop
   vertex -0.027321 0.0708 0.00907
   vertex -0.026428 0.069637 0.006306
   vertex -0.0259 0.068012 0.00907
  endloop
 endfacet
 facet normal -0.794662 -0.577331 -0.18762
  outer loop
   vertex -0.026428 0.069637 0.006306
   vertex -0.024518 0.067008 0.006306
   vertex -0.0259 0.068012 0.00907
  endloop
 endfacet
 facet normal -0.703824 -0.703824 -0.0962537
  outer loop
   vertex -0.0259 0.068012 0.00907
   vertex -0.024518 0.067008 0.006306
   vertex -0.023688 0.0658 0.00907
  endloop
 endfacet
 facet normal -0.578519 -0.796783 -0.174509
  outer loop
   vertex -0.024518 0.067008 0.006306
   vertex -0.02217 0.065248 0.006558
   vertex -0.023688 0.0658 0.00907
  endloop
 endfacet
 facet normal -0.89641 -0.274294 -0.348155
  outer loop
   vertex -0.027376 0.072414 0.006559
   vertex -0.026121 0.071501 0.004047
   vertex -0.026428 0.069637 0.006306
  endloop
 endfacet
 facet normal -0.803858 -0.400541 -0.439749
  outer loop
   vertex -0.026121 0.071501 0.004047
   vertex -0.024692 0.06889 0.003813
   vertex -0.026428 0.069637 0.006306
  endloop
 endfacet
 facet normal -0.754436 -0.548107 -0.361117
  outer loop
   vertex -0.026428 0.069637 0.006306
   vertex -0.024692 0.06889 0.003813
   vertex -0.024518 0.067008 0.006306
  endloop
 endfacet
 facet normal -0.629279 -0.640767 -0.439803
  outer loop
   vertex -0.024692 0.06889 0.003813
   vertex -0.02265 0.066724 0.004047
   vertex -0.024518 0.067008 0.006306
  endloop
 endfacet
 facet normal -0.537986 -0.767602 -0.348366
  outer loop
   vertex -0.024518 0.067008 0.006306
   vertex -0.02265 0.066724 0.004047
   vertex -0.02217 0.065248 0.006558
  endloop
 endfacet
 facet normal -0.420269 -0.815078 -0.398776
  outer loop
   vertex -0.02265 0.066724 0.004047
   vertex -0.020574 0.065384 0.004598
   vertex -0.02217 0.065248 0.006558
  endloop
 endfacet
 facet normal 0.294416 -0.906493 0.302638
  outer loop
   vertex -0.016258 0.064336 0.011582
   vertex -0.01345 0.065248 0.011582
   vertex -0.015046 0.065384 0.013542
  endloop
 endfacet
 facet normal 0.155824 -0.984657 0.07855
  outer loop
   vertex -0.01781 0.06389 0.00907
   vertex -0.01472 0.064379 0.00907
   vertex -0.016258 0.064336 0.011582
  endloop
 endfacet
 facet normal -0.000555151 -0.98466 -0.174481
  outer loop
   vertex -0.019362 0.064336 0.006558
   vertex -0.016428 0.064379 0.006306
   vertex -0.01781 0.06389 0.00907
  endloop
 endfacet
 facet normal 0.304389 -0.937197 0.170322
  outer loop
   vertex -0.016258 0.064336 0.011582
   vertex -0.01472 0.064379 0.00907
   vertex -0.01345 0.065248 0.011582
  endloop
 endfacet
 facet normal 0.452705 -0.888208 0.0783901
  outer loop
   vertex -0.01472 0.064379 0.00907
   vertex -0.011932 0.0658 0.00907
   vertex -0.01345 0.065248 0.011582
  endloop
 endfacet
 facet normal 0.155583 -0.983133 -0.0961419
  outer loop
   vertex -0.01781 0.06389 0.00907
   vertex -0.016428 0.064379 0.006306
   vertex -0.01472 0.064379 0.00907
  endloop
 endfacet
 facet normal 0.303796 -0.934059 -0.187729
  outer loop
   vertex -0.016428 0.064379 0.006306
   vertex -0.013338 0.065384 0.006306
   vertex -0.01472 0.064379 0.00907
  endloop
 endfacet
 facet normal 0.451986 -0.886796 -0.0964489
  outer loop
   vertex -0.01472 0.064379 0.00907
   vertex -0.013338 0.065384 0.006306
   vertex -0.011932 0.0658 0.00907
  endloop
 endfacet
 facet normal 0.578874 -0.796508 -0.174584
  outer loop
   vertex -0.013338 0.065384 0.006306
   vertex -0.010938 0.067073 0.006558
   vertex -0.011932 0.0658 0.00907
  endloop
 endfacet
 facet normal -0.0161962 -0.937175 -0.348485
  outer loop
   vertex -0.019362 0.064336 0.006558
   vertex -0.018106 0.065248 0.004047
   vertex -0.016428 0.064379 0.006306
  endloop
 endfacet
 facet normal 0.132412 -0.888171 -0.440021
  outer loop
   vertex -0.018106 0.065248 0.004047
   vertex -0.015181 0.0658 0.003813
   vertex -0.016428 0.064379 0.006306
  endloop
 endfacet
 facet normal 0.288415 -0.886769 -0.361189
  outer loop
   vertex -0.016428 0.064379 0.006306
   vertex -0.015181 0.0658 0.003813
   vertex -0.013338 0.065384 0.006306
  endloop
 endfacet
 facet normal 0.415138 -0.796394 -0.439791
  outer loop
   vertex -0.015181 0.0658 0.003813
   vertex -0.012491 0.067073 0.004047
   vertex -0.013338 0.065384 0.006306
  endloop
 endfacet
 facet normal 0.563623 -0.748876 -0.348589
  outer loop
   vertex -0.013338 0.065384 0.006306
   vertex -0.012491 0.067073 0.004047
   vertex -0.010938 0.067073 0.006558
  endloop
 endfacet
 facet normal 0.645038 -0.651744 -0.398942
  outer loop
   vertex -0.012491 0.067073 0.004047
   vertex -0.010574 0.068633 0.004598
   vertex -0.010938 0.067073 0.006558
  endloop
 endfacet
 facet normal 0.9532 -0 0.302341
  outer loop
   vertex -0.008244 0.072414 0.011581
   vertex -0.008244 0.075366 0.011581
   vertex -0.008866 0.07389 0.013542
  endloop
 endfacet
 facet normal 0.984653 -0.155824 0.0785916
  outer loop
   vertex -0.008299 0.0708 0.00907
   vertex -0.00781 0.07389 0.00907
   vertex -0.008244 0.072414 0.011581
  endloop
 endfacet
 facet normal 0.936352 -0.304548 -0.174631
  outer loop
   vertex -0.009203 0.069461 0.006558
   vertex -0.008338 0.072265 0.006306
   vertex -0.008299 0.0708 0.00907
  endloop
 endfacet
 facet normal 0.98539 -0 0.170314
  outer loop
   vertex -0.008244 0.072414 0.011581
   vertex -0.00781 0.07389 0.00907
   vertex -0.008244 0.075366 0.011581
  endloop
 endfacet
 facet normal 0.984653 0.155824 0.0785916
  outer loop
   vertex -0.00781 0.07389 0.00907
   vertex -0.008299 0.07698 0.00907
   vertex -0.008244 0.075366 0.011581
  endloop
 endfacet
 facet normal 0.983115 -0.15558 -0.0963335
  outer loop
   vertex -0.008299 0.0708 0.00907
   vertex -0.008338 0.072265 0.006306
   vertex -0.00781 0.07389 0.00907
  endloop
 endfacet
 facet normal 0.982239 0 -0.187634
  outer loop
   vertex -0.008338 0.072265 0.006306
   vertex -0.008338 0.075515 0.006306
   vertex -0.00781 0.07389 0.00907
  endloop
 endfacet
 facet normal 0.983115 0.15558 -0.0963335
  outer loop
   vertex -0.00781 0.07389 0.00907
   vertex -0.008338 0.075515 0.006306
   vertex -0.008299 0.07698 0.00907
  endloop
 endfacet
 facet normal 0.936352 0.304548 -0.174631
  outer loop
   vertex -0.008338 0.075515 0.006306
   vertex -0.009203 0.078319 0.006558
   vertex -0.008299 0.07698 0.00907
  endloop
 endfacet
 facet normal 0.886309 -0.304753 -0.348685
  outer loop
   vertex -0.009203 0.069461 0.006558
   vertex -0.009683 0.070938 0.004047
   vertex -0.008338 0.072265 0.006306
  endloop
 endfacet
 facet normal 0.885615 -0.148581 -0.440011
  outer loop
   vertex -0.009683 0.070938 0.004047
   vertex -0.009304 0.07389 0.003813
   vertex -0.008338 0.072265 0.006306
  endloop
 endfacet
 facet normal 0.932446 0 -0.361309
  outer loop
   vertex -0.008338 0.072265 0.006306
   vertex -0.009304 0.07389 0.003813
   vertex -0.008338 0.075515 0.006306
  endloop
 endfacet
 facet normal 0.885615 0.148581 -0.440011
  outer loop
   vertex -0.009304 0.07389 0.003813
   vertex -0.009683 0.076842 0.004047
   vertex -0.008338 0.075515 0.006306
  endloop
 endfacet
 facet normal 0.886309 0.304753 -0.348685
  outer loop
   vertex -0.008338 0.075515 0.006306
   vertex -0.009683 0.076842 0.004047
   vertex -0.009203 0.078319 0.006558
  endloop
 endfacet
 facet normal 0.819189 0.412026 -0.398954
  outer loop
   vertex -0.009683 0.076842 0.004047
   vertex -0.010574 0.079147 0.004598
   vertex -0.009203 0.078319 0.006558
  endloop
 endfacet
 facet normal 0.61533 0.560308 -0.554459
  outer loop
   vertex -0.011715 0.078319 0.002495
   vertex -0.012491 0.080707 0.004047
   vertex -0.010574 0.079147 0.004598
  endloop
 endfacet
 facet normal 0.467426 0.452641 -0.759361
  outer loop
   vertex -0.013557 0.07698 0.000563
   vertex -0.014192 0.079768 0.001834
   vertex -0.011715 0.078319 0.002495
  endloop
 endfacet
 facet normal 0.262485 0.303841 -0.915851
  outer loop
   vertex -0.015778 0.075366 -0.000609
   vertex -0.016428 0.078143 0.000126
   vertex -0.013557 0.07698 0.000563
  endloop
 endfacet
 facet normal 0.508799 0.579247 -0.636864
  outer loop
   vertex -0.011715 0.078319 0.002495
   vertex -0.014192 0.079768 0.001834
   vertex -0.012491 0.080707 0.004047
  endloop
 endfacet
 facet normal 0.38541 0.704977 -0.595371
  outer loop
   vertex -0.014192 0.079768 0.001834
   vertex -0.015181 0.08198 0.003813
   vertex -0.012491 0.080707 0.004047
  endloop
 endfacet
 facet normal 0.310374 0.451949 -0.836307
  outer loop
   vertex -0.013557 0.07698 0.000563
   vertex -0.016428 0.078143 0.000126
   vertex -0.014192 0.079768 0.001834
  endloop
 endfacet
 facet normal 0.187559 0.577248 -0.794737
  outer loop
   vertex -0.016428 0.078143 0.000126
   vertex -0.017282 0.080772 0.001834
   vertex -0.014192 0.079768 0.001834
  endloop
 endfacet
 facet normal 0.228709 0.703897 -0.672474
  outer loop
   vertex -0.014192 0.079768 0.001834
   vertex -0.017282 0.080772 0.001834
   vertex -0.015181 0.08198 0.003813
  endloop
 endfacet
 facet normal 0.102735 0.796801 -0.595444
  outer loop
   vertex -0.017282 0.080772 0.001834
   vertex -0.018106 0.082532 0.004047
   vertex -0.015181 0.08198 0.003813
  endloop
 endfacet
 facet normal 0.0891868 0.274301 -0.957499
  outer loop
   vertex -0.015778 0.075366 -0.000609
   vertex -0.018586 0.076279 -0.000609
   vertex -0.016428 0.078143 0.000126
  endloop
 endfacet
 facet normal -0.0336945 0.400135 -0.915836
  outer loop
   vertex -0.018586 0.076279 -0.000609
   vertex -0.019435 0.07889 0.000563
   vertex -0.016428 0.078143 0.000126
  endloop
 endfacet
 facet normal 0.0146149 0.548074 -0.836302
  outer loop
   vertex -0.016428 0.078143 0.000126
   vertex -0.019435 0.07889 0.000563
   vertex -0.017282 0.080772 0.001834
  endloop
 endfacet
 facet normal -0.112009 0.640965 -0.759354
  outer loop
   vertex -0.019435 0.07889 0.000563
   vertex -0.020138 0.081056 0.002495
   vertex -0.017282 0.080772 0.001834
  endloop
 endfacet
 facet normal -0.0710868 0.767617 -0.636955
  outer loop
   vertex -0.017282 0.080772 0.001834
   vertex -0.020138 0.081056 0.002495
   vertex -0.018106 0.082532 0.004047
  endloop
 endfacet
 facet normal -0.168666 0.815046 -0.554303
  outer loop
   vertex -0.020138 0.081056 0.002495
   vertex -0.020574 0.082396 0.004598
   vertex -0.018106 0.082532 0.004047
  endloop
 endfacet
 facet normal -0.342493 0.758552 -0.554344
  outer loop
   vertex -0.020138 0.081056 0.002495
   vertex -0.02265 0.081056 0.004047
   vertex -0.020574 0.082396 0.004598
  endloop
 endfacet
 facet normal -0.286233 0.584386 -0.759318
  outer loop
   vertex -0.019435 0.07889 0.000563
   vertex -0.022282 0.079147 0.001834
   vertex -0.020138 0.081056 0.002495
  endloop
 endfacet
 facet normal -0.207851 0.343516 -0.915858
  outer loop
   vertex -0.018586 0.076279 -0.000609
   vertex -0.021428 0.076519 0.000126
   vertex -0.019435 0.07889 0.000563
  endloop
 endfacet
 facet normal -0.393627 0.662685 -0.637108
  outer loop
   vertex -0.020138 0.081056 0.002495
   vertex -0.022282 0.079147 0.001834
   vertex -0.02265 0.081056 0.004047
  endloop
 endfacet
 facet normal -0.551379 0.584158 -0.595601
  outer loop
   vertex -0.022282 0.079147 0.001834
   vertex -0.024692 0.07889 0.003813
   vertex -0.02265 0.081056 0.004047
  endloop
 endfacet
 facet normal -0.334054 0.43492 -0.836213
  outer loop
   vertex -0.019435 0.07889 0.000563
   vertex -0.021428 0.076519 0.000126
   vertex -0.022282 0.079147 0.001834
  endloop
 endfacet
 facet normal -0.491058 0.356895 -0.794662
  outer loop
   vertex -0.021428 0.076519 0.000126
   vertex -0.024192 0.076519 0.001834
   vertex -0.022282 0.079147 0.001834
  endloop
 endfacet
 facet normal -0.598657 0.435097 -0.672533
  outer loop
   vertex -0.022282 0.079147 0.001834
   vertex -0.024192 0.076519 0.001834
   vertex -0.024692 0.07889 0.003813
  endloop
 endfacet
 facet normal -0.725985 0.343961 -0.595514
  outer loop
   vertex -0.024192 0.076519 0.001834
   vertex -0.026121 0.076279 0.004047
   vertex -0.024692 0.07889 0.003813
  endloop
 endfacet
 facet normal -0.233325 0.169451 -0.957521
  outer loop
   vertex -0.018586 0.076279 -0.000609
   vertex -0.020321 0.07389 -0.000609
   vertex -0.021428 0.076519 0.000126
  endloop
 endfacet
 facet normal -0.390899 0.0914587 -0.915878
  outer loop
   vertex -0.020321 0.07389 -0.000609
   vertex -0.023067 0.07389 0.000563
   vertex -0.021428 0.076519 0.000126
  endloop
 endfacet
 facet normal -0.516783 0.183167 -0.836293
  outer loop
   vertex -0.021428 0.076519 0.000126
   vertex -0.023067 0.07389 0.000563
   vertex -0.024192 0.076519 0.001834
  endloop
 endfacet
 facet normal -0.644269 0.0913996 -0.759317
  outer loop
   vertex -0.023067 0.07389 0.000563
   vertex -0.025344 0.07389 0.002495
   vertex -0.024192 0.076519 0.001834
  endloop
 endfacet
 facet normal -0.751958 0.169318 -0.637095
  outer loop
   vertex -0.024192 0.076519 0.001834
   vertex -0.025344 0.07389 0.002495
   vertex -0.026121 0.076279 0.004047
  endloop
 endfacet
 facet normal -0.827124 0.091254 -0.554562
  outer loop
   vertex -0.025344 0.07389 0.002495
   vertex -0.026754 0.07389 0.004598
   vertex -0.026121 0.076279 0.004047
  endloop
 endfacet
 facet normal -0.827124 -0.091254 -0.554562
  outer loop
   vertex -0.025344 0.07389 0.002495
   vertex -0.026121 0.071501 0.004047
   vertex -0.026754 0.07389 0.004598
  endloop
 endfacet
 facet normal -0.644269 -0.0913996 -0.759317
  outer loop
   vertex -0.023067 0.07389 0.000563
   vertex -0.024192 0.071261 0.001834
   vertex -0.025344 0.07389 0.002495
  endloop
 endfacet
 facet normal -0.390899 -0.0914587 -0.915878
  outer loop
   vertex -0.020321 0.07389 -0.000609
   vertex -0.021428 0.071261 0.000126
   vertex -0.023067 0.07389 0.000563
  endloop
 endfacet
 facet normal -0.751958 -0.169318 -0.637095
  outer loop
   vertex -0.025344 0.07389 0.002495
   vertex -0.024192 0.071261 0.001834
   vertex -0.026121 0.071501 0.004047
  endloop
 endfacet
 facet normal -0.725985 -0.343961 -0.595514
  outer loop
   vertex -0.024192 0.071261 0.001834
   vertex -0.024692 0.06889 0.003813
   vertex -0.026121 0.071501 0.004047
  endloop
 endfacet
 facet normal -0.516783 -0.183167 -0.836293
  outer loop
   vertex -0.023067 0.07389 0.000563
   vertex -0.021428 0.071261 0.000126
   vertex -0.024192 0.071261 0.001834
  endloop
 endfacet
 facet normal -0.491058 -0.356895 -0.794662
  outer loop
   vertex -0.021428 0.071261 0.000126
   vertex -0.022282 0.068633 0.001834
   vertex -0.024192 0.071261 0.001834
  endloop
 endfacet
 facet normal -0.598657 -0.435097 -0.672533
  outer loop
   vertex -0.024192 0.071261 0.001834
   vertex -0.022282 0.068633 0.001834
   vertex -0.024692 0.06889 0.003813
  endloop
 endfacet
 facet normal -0.551379 -0.584158 -0.595601
  outer loop
   vertex -0.022282 0.068633 0.001834
   vertex -0.02265 0.066724 0.004047
   vertex -0.024692 0.06889 0.003813
  endloop
 endfacet
 facet normal -0.233325 -0.169451 -0.957521
  outer loop
   vertex -0.020321 0.07389 -0.000609
   vertex -0.018586 0.071501 -0.000609
   vertex -0.021428 0.071261 0.000126
  endloop
 endfacet
 facet normal -0.207851 -0.343516 -0.915858
  outer loop
   vertex -0.018586 0.071501 -0.000609
   vertex -0.019435 0.06889 0.000563
   vertex -0.021428 0.071261 0.000126
  endloop
 endfacet
 facet normal -0.334054 -0.43492 -0.836213
  outer loop
   vertex -0.021428 0.071261 0.000126
   vertex -0.019435 0.06889 0.000563
   vertex -0.022282 0.068633 0.001834
  endloop
 endfacet
 facet normal -0.286233 -0.584386 -0.759318
  outer loop
   vertex -0.019435 0.06889 0.000563
   vertex -0.020138 0.066724 0.002495
   vertex -0.022282 0.068633 0.001834
  endloop
 endfacet
 facet normal -0.393627 -0.662685 -0.637108
  outer loop
   vertex -0.022282 0.068633 0.001834
   vertex -0.020138 0.066724 0.002495
   vertex -0.02265 0.066724 0.004047
  endloop
 endfacet
 facet normal -0.342493 -0.758552 -0.554344
  outer loop
   vertex -0.020138 0.066724 0.002495
   vertex -0.020574 0.065384 0.004598
   vertex -0.02265 0.066724 0.004047
  endloop
 endfacet
 facet normal 0.723015 0.412034 -0.554506
  outer loop
   vertex -0.009683 0.076842 0.004047
   vertex -0.011715 0.078319 0.002495
   vertex -0.010574 0.079147 0.004598
  endloop
 endfacet
 facet normal 0.789589 0.148568 -0.59538
  outer loop
   vertex -0.009304 0.07389 0.003813
   vertex -0.011102 0.075515 0.001834
   vertex -0.009683 0.076842 0.004047
  endloop
 endfacet
 facet normal 0.789589 -0.148568 -0.59538
  outer loop
   vertex -0.009683 0.070938 0.004047
   vertex -0.011102 0.072265 0.001834
   vertex -0.009304 0.07389 0.003813
  endloop
 endfacet
 facet normal 0.708089 0.304936 -0.636886
  outer loop
   vertex -0.009683 0.076842 0.004047
   vertex -0.011102 0.075515 0.001834
   vertex -0.011715 0.078319 0.002495
  endloop
 endfacet
 facet normal 0.574948 0.304695 -0.759339
  outer loop
   vertex -0.011102 0.075515 0.001834
   vertex -0.013557 0.07698 0.000563
   vertex -0.011715 0.078319 0.002495
  endloop
 endfacet
 facet normal 0.740143 0 -0.672449
  outer loop
   vertex -0.009304 0.07389 0.003813
   vertex -0.011102 0.072265 0.001834
   vertex -0.011102 0.075515 0.001834
  endloop
 endfacet
 facet normal 0.607028 0 -0.794681
  outer loop
   vertex -0.011102 0.072265 0.001834
   vertex -0.013338 0.07389 0.000126
   vertex -0.011102 0.075515 0.001834
  endloop
 endfacet
 facet normal 0.525774 0.155534 -0.836284
  outer loop
   vertex -0.011102 0.075515 0.001834
   vertex -0.013338 0.07389 0.000126
   vertex -0.013557 0.07698 0.000563
  endloop
 endfacet
 facet normal 0.370096 0.155752 -0.915844
  outer loop
   vertex -0.013338 0.07389 0.000126
   vertex -0.015778 0.075366 -0.000609
   vertex -0.013557 0.07698 0.000563
  endloop
 endfacet
 facet normal 0.708089 -0.304936 -0.636886
  outer loop
   vertex -0.009683 0.070938 0.004047
   vertex -0.011715 0.069461 0.002495
   vertex -0.011102 0.072265 0.001834
  endloop
 endfacet
 facet normal 0.574948 -0.304695 -0.759339
  outer loop
   vertex -0.011715 0.069461 0.002495
   vertex -0.013557 0.0708 0.000563
   vertex -0.011102 0.072265 0.001834
  endloop
 endfacet
 facet normal 0.525774 -0.155534 -0.836284
  outer loop
   vertex -0.011102 0.072265 0.001834
   vertex -0.013557 0.0708 0.000563
   vertex -0.013338 0.07389 0.000126
  endloop
 endfacet
 facet normal 0.370096 -0.155752 -0.915844
  outer loop
   vertex -0.013557 0.0708 0.000563
   vertex -0.015778 0.072414 -0.000609
   vertex -0.013338 0.07389 0.000126
  endloop
 endfacet
 facet normal 0.288428 0 -0.957502
  outer loop
   vertex -0.013338 0.07389 0.000126
   vertex -0.015778 0.072414 -0.000609
   vertex -0.015778 0.075366 -0.000609
  endloop
 endfacet
 facet normal 0.156037 0 -0.987751
  outer loop
   vertex -0.015778 0.072414 -0.000609
   vertex -0.01781 0.07389 -0.00093
   vertex -0.015778 0.075366 -0.000609
  endloop
 endfacet
 facet normal -0.168666 -0.815046 -0.554303
  outer loop
   vertex -0.020138 0.066724 0.002495
   vertex -0.018106 0.065248 0.004047
   vertex -0.020574 0.065384 0.004598
  endloop
 endfacet
 facet normal -0.112009 -0.640965 -0.759354
  outer loop
   vertex -0.019435 0.06889 0.000563
   vertex -0.017282 0.067008 0.001834
   vertex -0.020138 0.066724 0.002495
  endloop
 endfacet
 facet normal -0.0336945 -0.400135 -0.915836
  outer loop
   vertex -0.018586 0.071501 -0.000609
   vertex -0.016428 0.069637 0.000126
   vertex -0.019435 0.06889 0.000563
  endloop
 endfacet
 facet normal -0.0710868 -0.767617 -0.636955
  outer loop
   vertex -0.020138 0.066724 0.002495
   vertex -0.017282 0.067008 0.001834
   vertex -0.018106 0.065248 0.004047
  endloop
 endfacet
 facet normal 0.102735 -0.796801 -0.595444
  outer loop
   vertex -0.017282 0.067008 0.001834
   vertex -0.015181 0.0658 0.003813
   vertex -0.018106 0.065248 0.004047
  endloop
 endfacet
 facet normal 0.0146149 -0.548074 -0.836302
  outer loop
   vertex -0.019435 0.06889 0.000563
   vertex -0.016428 0.069637 0.000126
   vertex -0.017282 0.067008 0.001834
  endloop
 endfacet
 facet normal 0.187559 -0.577248 -0.794737
  outer loop
   vertex -0.016428 0.069637 0.000126
   vertex -0.014192 0.068012 0.001834
   vertex -0.017282 0.067008 0.001834
  endloop
 endfacet
 facet normal 0.228709 -0.703897 -0.672474
  outer loop
   vertex -0.017282 0.067008 0.001834
   vertex -0.014192 0.068012 0.001834
   vertex -0.015181 0.0658 0.003813
  endloop
 endfacet
 facet normal 0.38541 -0.704977 -0.595371
  outer loop
   vertex -0.014192 0.068012 0.001834
   vertex -0.012491 0.067073 0.004047
   vertex -0.015181 0.0658 0.003813
  endloop
 endfacet
 facet normal 0.0891868 -0.274301 -0.957499
  outer loop
   vertex -0.018586 0.071501 -0.000609
   vertex -0.015778 0.072414 -0.000609
   vertex -0.016428 0.069637 0.000126
  endloop
 endfacet
 facet normal 0.262485 -0.303841 -0.915851
  outer loop
   vertex -0.015778 0.072414 -0.000609
   vertex -0.013557 0.0708 0.000563
   vertex -0.016428 0.069637 0.000126
  endloop
 endfacet
 facet normal 0.310374 -0.451949 -0.836307
  outer loop
   vertex -0.016428 0.069637 0.000126
   vertex -0.013557 0.0708 0.000563
   vertex -0.014192 0.068012 0.001834
  endloop
 endfacet
 facet normal 0.467426 -0.452641 -0.759361
  outer loop
   vertex -0.013557 0.0708 0.000563
   vertex -0.011715 0.069461 0.002495
   vertex -0.014192 0.068012 0.001834
  endloop
 endfacet
 facet normal 0.508799 -0.579247 -0.636864
  outer loop
   vertex -0.014192 0.068012 0.001834
   vertex -0.011715 0.069461 0.002495
   vertex -0.012491 0.067073 0.004047
  endloop
 endfacet
 facet normal 0.61533 -0.560308 -0.554459
  outer loop
   vertex -0.011715 0.069461 0.002495
   vertex -0.010574 0.068633 0.004598
   vertex -0.012491 0.067073 0.004047
  endloop
 endfacet
endsolid ExportedfromBlender-3.5.1
