solid ExportedfromBlender-3.5.1
 facet normal 0.0482486 -0.148392 -0.987751
  outer loop
   vertex 0.01896 0.11944 -0.00964
   vertex 0.020992 0.117964 -0.009319
   vertex 0.018184 0.117051 -0.009319
  endloop
 endfacet
 facet normal 0.723015 -0.412034 -0.554506
  outer loop
   vertex 0.026196 0.114183 -0.004112
   vertex 0.025055 0.115011 -0.006215
   vertex 0.027087 0.116488 -0.004663
  endloop
 endfacet
 facet normal -0.126271 -0.0917039 -0.987748
  outer loop
   vertex 0.01896 0.11944 -0.00964
   vertex 0.018184 0.117051 -0.009319
   vertex 0.016449 0.11944 -0.009319
  endloop
 endfacet
 facet normal -0.126271 0.0917039 -0.987748
  outer loop
   vertex 0.01896 0.11944 -0.00964
   vertex 0.016449 0.11944 -0.009319
   vertex 0.018184 0.121829 -0.009319
  endloop
 endfacet
 facet normal 0.0482486 0.148392 -0.987751
  outer loop
   vertex 0.01896 0.11944 -0.00964
   vertex 0.018184 0.121829 -0.009319
   vertex 0.020992 0.120916 -0.009319
  endloop
 endfacet
 facet normal 0.819189 -0.412026 -0.398954
  outer loop
   vertex 0.026196 0.114183 -0.004112
   vertex 0.027087 0.116488 -0.004663
   vertex 0.027567 0.115011 -0.002152
  endloop
 endfacet
 facet normal -0.138975 -0.90647 -0.398746
  outer loop
   vertex 0.016196 0.110934 -0.004112
   vertex 0.018664 0.110798 -0.004663
   vertex 0.017408 0.109886 -0.002152
  endloop
 endfacet
 facet normal -0.905177 -0.147939 -0.398459
  outer loop
   vertex 0.010016 0.11944 -0.004112
   vertex 0.010649 0.117051 -0.004663
   vertex 0.009394 0.117964 -0.002151
  endloop
 endfacet
 facet normal -0.420269 0.815078 -0.398776
  outer loop
   vertex 0.016196 0.127946 -0.004112
   vertex 0.01412 0.126606 -0.004663
   vertex 0.0146 0.128082 -0.002152
  endloop
 endfacet
 facet normal 0.645038 0.651744 -0.398942
  outer loop
   vertex 0.026196 0.124697 -0.004112
   vertex 0.024279 0.126257 -0.004663
   vertex 0.025832 0.126257 -0.002152
  endloop
 endfacet
 facet normal 0.771063 -0.560215 -0.302688
  outer loop
   vertex 0.026196 0.114183 -0.004112
   vertex 0.027567 0.115011 -0.002152
   vertex 0.025832 0.112623 -0.002152
  endloop
 endfacet
 facet normal -0.294416 -0.906493 -0.302638
  outer loop
   vertex 0.016196 0.110934 -0.004112
   vertex 0.017408 0.109886 -0.002152
   vertex 0.0146 0.110798 -0.002152
  endloop
 endfacet
 facet normal -0.9532 0 -0.302341
  outer loop
   vertex 0.010016 0.11944 -0.004112
   vertex 0.009394 0.117964 -0.002151
   vertex 0.009394 0.120916 -0.002151
  endloop
 endfacet
 facet normal -0.294416 0.906493 -0.302638
  outer loop
   vertex 0.016196 0.127946 -0.004112
   vertex 0.0146 0.128082 -0.002152
   vertex 0.017408 0.128994 -0.002152
  endloop
 endfacet
 facet normal 0.771063 0.560215 -0.302688
  outer loop
   vertex 0.026196 0.124697 -0.004112
   vertex 0.025832 0.126257 -0.002152
   vertex 0.027567 0.123869 -0.002152
  endloop
 endfacet
 facet normal 0.342493 -0.758552 0.554344
  outer loop
   vertex 0.021724 0.110934 0.004832
   vertex 0.0238 0.112274 0.005383
   vertex 0.021288 0.112274 0.006935
  endloop
 endfacet
 facet normal -0.61533 -0.560308 0.554459
  outer loop
   vertex 0.011724 0.114183 0.004832
   vertex 0.013641 0.112623 0.005383
   vertex 0.012865 0.115011 0.006935
  endloop
 endfacet
 facet normal -0.723015 0.412034 0.554506
  outer loop
   vertex 0.011724 0.124697 0.004832
   vertex 0.010833 0.122392 0.005383
   vertex 0.012865 0.123869 0.006935
  endloop
 endfacet
 facet normal 0.168666 0.815046 0.554303
  outer loop
   vertex 0.021724 0.127946 0.004832
   vertex 0.019256 0.128082 0.005383
   vertex 0.021288 0.126606 0.006935
  endloop
 endfacet
 facet normal 0.827124 0.091254 0.554562
  outer loop
   vertex 0.027904 0.11944 0.004832
   vertex 0.027271 0.121829 0.005383
   vertex 0.026494 0.11944 0.006935
  endloop
 endfacet
 facet normal 0.126271 0.0917039 0.987748
  outer loop
   vertex 0.021471 0.11944 0.010039
   vertex 0.019736 0.121829 0.010039
   vertex 0.01896 0.11944 0.01036
  endloop
 endfacet
 facet normal 0.390899 0.0914587 0.915878
  outer loop
   vertex 0.024217 0.11944 0.008867
   vertex 0.022578 0.122069 0.009304
   vertex 0.021471 0.11944 0.010039
  endloop
 endfacet
 facet normal 0.644269 0.0913996 0.759317
  outer loop
   vertex 0.026494 0.11944 0.006935
   vertex 0.025342 0.122069 0.007596
   vertex 0.024217 0.11944 0.008867
  endloop
 endfacet
 facet normal 0.233325 0.169451 0.957521
  outer loop
   vertex 0.021471 0.11944 0.010039
   vertex 0.022578 0.122069 0.009304
   vertex 0.019736 0.121829 0.010039
  endloop
 endfacet
 facet normal 0.207851 0.343516 0.915858
  outer loop
   vertex 0.022578 0.122069 0.009304
   vertex 0.020585 0.12444 0.008867
   vertex 0.019736 0.121829 0.010039
  endloop
 endfacet
 facet normal 0.516783 0.183167 0.836293
  outer loop
   vertex 0.024217 0.11944 0.008867
   vertex 0.025342 0.122069 0.007596
   vertex 0.022578 0.122069 0.009304
  endloop
 endfacet
 facet normal 0.491058 0.356895 0.794662
  outer loop
   vertex 0.025342 0.122069 0.007596
   vertex 0.023432 0.124697 0.007596
   vertex 0.022578 0.122069 0.009304
  endloop
 endfacet
 facet normal 0.334054 0.43492 0.836213
  outer loop
   vertex 0.022578 0.122069 0.009304
   vertex 0.023432 0.124697 0.007596
   vertex 0.020585 0.12444 0.008867
  endloop
 endfacet
 facet normal 0.286233 0.584386 0.759318
  outer loop
   vertex 0.023432 0.124697 0.007596
   vertex 0.021288 0.126606 0.006935
   vertex 0.020585 0.12444 0.008867
  endloop
 endfacet
 facet normal 0.751958 0.169318 0.637095
  outer loop
   vertex 0.026494 0.11944 0.006935
   vertex 0.027271 0.121829 0.005383
   vertex 0.025342 0.122069 0.007596
  endloop
 endfacet
 facet normal 0.725985 0.343961 0.595514
  outer loop
   vertex 0.027271 0.121829 0.005383
   vertex 0.025842 0.12444 0.005617
   vertex 0.025342 0.122069 0.007596
  endloop
 endfacet
 facet normal 0.598657 0.435097 0.672533
  outer loop
   vertex 0.025342 0.122069 0.007596
   vertex 0.025842 0.12444 0.005617
   vertex 0.023432 0.124697 0.007596
  endloop
 endfacet
 facet normal 0.551379 0.584158 0.595601
  outer loop
   vertex 0.025842 0.12444 0.005617
   vertex 0.0238 0.126606 0.005383
   vertex 0.023432 0.124697 0.007596
  endloop
 endfacet
 facet normal 0.393627 0.662685 0.637108
  outer loop
   vertex 0.023432 0.124697 0.007596
   vertex 0.0238 0.126606 0.005383
   vertex 0.021288 0.126606 0.006935
  endloop
 endfacet
 facet normal 0.342493 0.758552 0.554344
  outer loop
   vertex 0.0238 0.126606 0.005383
   vertex 0.021724 0.127946 0.004832
   vertex 0.021288 0.126606 0.006935
  endloop
 endfacet
 facet normal -0.0482486 0.148392 0.987751
  outer loop
   vertex 0.019736 0.121829 0.010039
   vertex 0.016928 0.120916 0.010039
   vertex 0.01896 0.11944 0.01036
  endloop
 endfacet
 facet normal 0.0336945 0.400135 0.915836
  outer loop
   vertex 0.020585 0.12444 0.008867
   vertex 0.017578 0.123693 0.009304
   vertex 0.019736 0.121829 0.010039
  endloop
 endfacet
 facet normal 0.112009 0.640965 0.759354
  outer loop
   vertex 0.021288 0.126606 0.006935
   vertex 0.018432 0.126322 0.007596
   vertex 0.020585 0.12444 0.008867
  endloop
 endfacet
 facet normal -0.0891868 0.274301 0.957499
  outer loop
   vertex 0.019736 0.121829 0.010039
   vertex 0.017578 0.123693 0.009304
   vertex 0.016928 0.120916 0.010039
  endloop
 endfacet
 facet normal -0.262485 0.303841 0.915851
  outer loop
   vertex 0.017578 0.123693 0.009304
   vertex 0.014707 0.12253 0.008867
   vertex 0.016928 0.120916 0.010039
  endloop
 endfacet
 facet normal -0.0146149 0.548074 0.836302
  outer loop
   vertex 0.020585 0.12444 0.008867
   vertex 0.018432 0.126322 0.007596
   vertex 0.017578 0.123693 0.009304
  endloop
 endfacet
 facet normal -0.187559 0.577248 0.794737
  outer loop
   vertex 0.018432 0.126322 0.007596
   vertex 0.015342 0.125318 0.007596
   vertex 0.017578 0.123693 0.009304
  endloop
 endfacet
 facet normal -0.310374 0.451949 0.836307
  outer loop
   vertex 0.017578 0.123693 0.009304
   vertex 0.015342 0.125318 0.007596
   vertex 0.014707 0.12253 0.008867
  endloop
 endfacet
 facet normal -0.467426 0.452641 0.759361
  outer loop
   vertex 0.015342 0.125318 0.007596
   vertex 0.012865 0.123869 0.006935
   vertex 0.014707 0.12253 0.008867
  endloop
 endfacet
 facet normal 0.0710868 0.767617 0.636955
  outer loop
   vertex 0.021288 0.126606 0.006935
   vertex 0.019256 0.128082 0.005383
   vertex 0.018432 0.126322 0.007596
  endloop
 endfacet
 facet normal -0.102735 0.796801 0.595444
  outer loop
   vertex 0.019256 0.128082 0.005383
   vertex 0.016331 0.12753 0.005617
   vertex 0.018432 0.126322 0.007596
  endloop
 endfacet
 facet normal -0.228709 0.703897 0.672474
  outer loop
   vertex 0.018432 0.126322 0.007596
   vertex 0.016331 0.12753 0.005617
   vertex 0.015342 0.125318 0.007596
  endloop
 endfacet
 facet normal -0.38541 0.704977 0.595371
  outer loop
   vertex 0.016331 0.12753 0.005617
   vertex 0.013641 0.126257 0.005383
   vertex 0.015342 0.125318 0.007596
  endloop
 endfacet
 facet normal -0.508799 0.579247 0.636864
  outer loop
   vertex 0.015342 0.125318 0.007596
   vertex 0.013641 0.126257 0.005383
   vertex 0.012865 0.123869 0.006935
  endloop
 endfacet
 facet normal -0.61533 0.560308 0.554459
  outer loop
   vertex 0.013641 0.126257 0.005383
   vertex 0.011724 0.124697 0.004832
   vertex 0.012865 0.123869 0.006935
  endloop
 endfacet
 facet normal -0.156037 0 0.987751
  outer loop
   vertex 0.016928 0.120916 0.010039
   vertex 0.016928 0.117964 0.010039
   vertex 0.01896 0.11944 0.01036
  endloop
 endfacet
 facet normal -0.370096 0.155752 0.915844
  outer loop
   vertex 0.014707 0.12253 0.008867
   vertex 0.014488 0.11944 0.009304
   vertex 0.016928 0.120916 0.010039
  endloop
 endfacet
 facet normal -0.574948 0.304695 0.759339
  outer loop
   vertex 0.012865 0.123869 0.006935
   vertex 0.012252 0.121065 0.007596
   vertex 0.014707 0.12253 0.008867
  endloop
 endfacet
 facet normal -0.288428 0 0.957502
  outer loop
   vertex 0.016928 0.120916 0.010039
   vertex 0.014488 0.11944 0.009304
   vertex 0.016928 0.117964 0.010039
  endloop
 endfacet
 facet normal -0.370096 -0.155752 0.915844
  outer loop
   vertex 0.014488 0.11944 0.009304
   vertex 0.014707 0.11635 0.008867
   vertex 0.016928 0.117964 0.010039
  endloop
 endfacet
 facet normal -0.525774 0.155534 0.836284
  outer loop
   vertex 0.014707 0.12253 0.008867
   vertex 0.012252 0.121065 0.007596
   vertex 0.014488 0.11944 0.009304
  endloop
 endfacet
 facet normal -0.607028 0 0.794681
  outer loop
   vertex 0.012252 0.121065 0.007596
   vertex 0.012252 0.117815 0.007596
   vertex 0.014488 0.11944 0.009304
  endloop
 endfacet
 facet normal -0.525774 -0.155534 0.836284
  outer loop
   vertex 0.014488 0.11944 0.009304
   vertex 0.012252 0.117815 0.007596
   vertex 0.014707 0.11635 0.008867
  endloop
 endfacet
 facet normal -0.574948 -0.304695 0.759339
  outer loop
   vertex 0.012252 0.117815 0.007596
   vertex 0.012865 0.115011 0.006935
   vertex 0.014707 0.11635 0.008867
  endloop
 endfacet
 facet normal -0.708089 0.304936 0.636886
  outer loop
   vertex 0.012865 0.123869 0.006935
   vertex 0.010833 0.122392 0.005383
   vertex 0.012252 0.121065 0.007596
  endloop
 endfacet
 facet normal -0.789589 0.148568 0.59538
  outer loop
   vertex 0.010833 0.122392 0.005383
   vertex 0.010454 0.11944 0.005617
   vertex 0.012252 0.121065 0.007596
  endloop
 endfacet
 facet normal -0.740143 0 0.672449
  outer loop
   vertex 0.012252 0.121065 0.007596
   vertex 0.010454 0.11944 0.005617
   vertex 0.012252 0.117815 0.007596
  endloop
 endfacet
 facet normal -0.789589 -0.148568 0.59538
  outer loop
   vertex 0.010454 0.11944 0.005617
   vertex 0.010833 0.116488 0.005383
   vertex 0.012252 0.117815 0.007596
  endloop
 endfacet
 facet normal -0.708089 -0.304936 0.636886
  outer loop
   vertex 0.012252 0.117815 0.007596
   vertex 0.010833 0.116488 0.005383
   vertex 0.012865 0.115011 0.006935
  endloop
 endfacet
 facet normal -0.723015 -0.412034 0.554506
  outer loop
   vertex 0.010833 0.116488 0.005383
   vertex 0.011724 0.114183 0.004832
   vertex 0.012865 0.115011 0.006935
  endloop
 endfacet
 facet normal -0.0482486 -0.148392 0.987751
  outer loop
   vertex 0.016928 0.117964 0.010039
   vertex 0.019736 0.117051 0.010039
   vertex 0.01896 0.11944 0.01036
  endloop
 endfacet
 facet normal -0.262485 -0.303841 0.915851
  outer loop
   vertex 0.014707 0.11635 0.008867
   vertex 0.017578 0.115187 0.009304
   vertex 0.016928 0.117964 0.010039
  endloop
 endfacet
 facet normal -0.467426 -0.452641 0.759361
  outer loop
   vertex 0.012865 0.115011 0.006935
   vertex 0.015342 0.113562 0.007596
   vertex 0.014707 0.11635 0.008867
  endloop
 endfacet
 facet normal -0.0891868 -0.274301 0.957499
  outer loop
   vertex 0.016928 0.117964 0.010039
   vertex 0.017578 0.115187 0.009304
   vertex 0.019736 0.117051 0.010039
  endloop
 endfacet
 facet normal 0.0336945 -0.400135 0.915836
  outer loop
   vertex 0.017578 0.115187 0.009304
   vertex 0.020585 0.11444 0.008867
   vertex 0.019736 0.117051 0.010039
  endloop
 endfacet
 facet normal -0.310374 -0.451949 0.836307
  outer loop
   vertex 0.014707 0.11635 0.008867
   vertex 0.015342 0.113562 0.007596
   vertex 0.017578 0.115187 0.009304
  endloop
 endfacet
 facet normal -0.187559 -0.577248 0.794737
  outer loop
   vertex 0.015342 0.113562 0.007596
   vertex 0.018432 0.112558 0.007596
   vertex 0.017578 0.115187 0.009304
  endloop
 endfacet
 facet normal -0.0146149 -0.548074 0.836302
  outer loop
   vertex 0.017578 0.115187 0.009304
   vertex 0.018432 0.112558 0.007596
   vertex 0.020585 0.11444 0.008867
  endloop
 endfacet
 facet normal 0.112009 -0.640965 0.759354
  outer loop
   vertex 0.018432 0.112558 0.007596
   vertex 0.021288 0.112274 0.006935
   vertex 0.020585 0.11444 0.008867
  endloop
 endfacet
 facet normal -0.508799 -0.579247 0.636864
  outer loop
   vertex 0.012865 0.115011 0.006935
   vertex 0.013641 0.112623 0.005383
   vertex 0.015342 0.113562 0.007596
  endloop
 endfacet
 facet normal -0.38541 -0.704977 0.595371
  outer loop
   vertex 0.013641 0.112623 0.005383
   vertex 0.016331 0.11135 0.005617
   vertex 0.015342 0.113562 0.007596
  endloop
 endfacet
 facet normal -0.228709 -0.703897 0.672474
  outer loop
   vertex 0.015342 0.113562 0.007596
   vertex 0.016331 0.11135 0.005617
   vertex 0.018432 0.112558 0.007596
  endloop
 endfacet
 facet normal -0.102735 -0.796801 0.595444
  outer loop
   vertex 0.016331 0.11135 0.005617
   vertex 0.019256 0.110798 0.005383
   vertex 0.018432 0.112558 0.007596
  endloop
 endfacet
 facet normal 0.0710868 -0.767617 0.636955
  outer loop
   vertex 0.018432 0.112558 0.007596
   vertex 0.019256 0.110798 0.005383
   vertex 0.021288 0.112274 0.006935
  endloop
 endfacet
 facet normal 0.168666 -0.815046 0.554303
  outer loop
   vertex 0.019256 0.110798 0.005383
   vertex 0.021724 0.110934 0.004832
   vertex 0.021288 0.112274 0.006935
  endloop
 endfacet
 facet normal 0.126271 -0.0917039 0.987748
  outer loop
   vertex 0.019736 0.117051 0.010039
   vertex 0.021471 0.11944 0.010039
   vertex 0.01896 0.11944 0.01036
  endloop
 endfacet
 facet normal 0.207851 -0.343516 0.915858
  outer loop
   vertex 0.020585 0.11444 0.008867
   vertex 0.022578 0.116811 0.009304
   vertex 0.019736 0.117051 0.010039
  endloop
 endfacet
 facet normal 0.286233 -0.584386 0.759318
  outer loop
   vertex 0.021288 0.112274 0.006935
   vertex 0.023432 0.114183 0.007596
   vertex 0.020585 0.11444 0.008867
  endloop
 endfacet
 facet normal 0.233325 -0.169451 0.957521
  outer loop
   vertex 0.019736 0.117051 0.010039
   vertex 0.022578 0.116811 0.009304
   vertex 0.021471 0.11944 0.010039
  endloop
 endfacet
 facet normal 0.390899 -0.0914587 0.915878
  outer loop
   vertex 0.022578 0.116811 0.009304
   vertex 0.024217 0.11944 0.008867
   vertex 0.021471 0.11944 0.010039
  endloop
 endfacet
 facet normal 0.334054 -0.43492 0.836213
  outer loop
   vertex 0.020585 0.11444 0.008867
   vertex 0.023432 0.114183 0.007596
   vertex 0.022578 0.116811 0.009304
  endloop
 endfacet
 facet normal 0.491058 -0.356895 0.794662
  outer loop
   vertex 0.023432 0.114183 0.007596
   vertex 0.025342 0.116811 0.007596
   vertex 0.022578 0.116811 0.009304
  endloop
 endfacet
 facet normal 0.516783 -0.183167 0.836293
  outer loop
   vertex 0.022578 0.116811 0.009304
   vertex 0.025342 0.116811 0.007596
   vertex 0.024217 0.11944 0.008867
  endloop
 endfacet
 facet normal 0.644269 -0.0913996 0.759317
  outer loop
   vertex 0.025342 0.116811 0.007596
   vertex 0.026494 0.11944 0.006935
   vertex 0.024217 0.11944 0.008867
  endloop
 endfacet
 facet normal 0.393627 -0.662685 0.637108
  outer loop
   vertex 0.021288 0.112274 0.006935
   vertex 0.0238 0.112274 0.005383
   vertex 0.023432 0.114183 0.007596
  endloop
 endfacet
 facet normal 0.551379 -0.584158 0.595601
  outer loop
   vertex 0.0238 0.112274 0.005383
   vertex 0.025842 0.11444 0.005617
   vertex 0.023432 0.114183 0.007596
  endloop
 endfacet
 facet normal 0.598657 -0.435097 0.672533
  outer loop
   vertex 0.023432 0.114183 0.007596
   vertex 0.025842 0.11444 0.005617
   vertex 0.025342 0.116811 0.007596
  endloop
 endfacet
 facet normal 0.725985 -0.343961 0.595514
  outer loop
   vertex 0.025842 0.11444 0.005617
   vertex 0.027271 0.117051 0.005383
   vertex 0.025342 0.116811 0.007596
  endloop
 endfacet
 facet normal 0.751958 -0.169318 0.637095
  outer loop
   vertex 0.025342 0.116811 0.007596
   vertex 0.027271 0.117051 0.005383
   vertex 0.026494 0.11944 0.006935
  endloop
 endfacet
 facet normal 0.827124 -0.091254 0.554562
  outer loop
   vertex 0.027271 0.117051 0.005383
   vertex 0.027904 0.11944 0.004832
   vertex 0.026494 0.11944 0.006935
  endloop
 endfacet
 facet normal 0.905177 0.147939 0.398459
  outer loop
   vertex 0.028526 0.120916 0.002871
   vertex 0.027271 0.121829 0.005383
   vertex 0.027904 0.11944 0.004832
  endloop
 endfacet
 facet normal 0.93657 0.303801 0.17476
  outer loop
   vertex 0.028471 0.12253 0.00036
   vertex 0.027578 0.123693 0.003124
   vertex 0.028526 0.120916 0.002871
  endloop
 endfacet
 facet normal 0.888212 0.452708 -0.078331
  outer loop
   vertex 0.027567 0.123869 -0.002152
   vertex 0.02705 0.125318 0.00036
   vertex 0.028471 0.12253 0.00036
  endloop
 endfacet
 facet normal 0.89641 0.274294 0.348155
  outer loop
   vertex 0.028526 0.120916 0.002871
   vertex 0.027578 0.123693 0.003124
   vertex 0.027271 0.121829 0.005383
  endloop
 endfacet
 facet normal 0.803858 0.400541 0.439749
  outer loop
   vertex 0.027578 0.123693 0.003124
   vertex 0.025842 0.12444 0.005617
   vertex 0.027271 0.121829 0.005383
  endloop
 endfacet
 facet normal 0.886806 0.451991 0.0963284
  outer loop
   vertex 0.028471 0.12253 0.00036
   vertex 0.02705 0.125318 0.00036
   vertex 0.027578 0.123693 0.003124
  endloop
 endfacet
 facet normal 0.794662 0.577331 0.18762
  outer loop
   vertex 0.02705 0.125318 0.00036
   vertex 0.025668 0.126322 0.003124
   vertex 0.027578 0.123693 0.003124
  endloop
 endfacet
 facet normal 0.754436 0.548107 0.361117
  outer loop
   vertex 0.027578 0.123693 0.003124
   vertex 0.025668 0.126322 0.003124
   vertex 0.025842 0.12444 0.005617
  endloop
 endfacet
 facet normal 0.629279 0.640767 0.439803
  outer loop
   vertex 0.025668 0.126322 0.003124
   vertex 0.0238 0.126606 0.005383
   vertex 0.025842 0.12444 0.005617
  endloop
 endfacet
 facet normal 0.797233 0.579229 -0.170037
  outer loop
   vertex 0.027567 0.123869 -0.002152
   vertex 0.025832 0.126257 -0.002152
   vertex 0.02705 0.125318 0.00036
  endloop
 endfacet
 facet normal 0.704936 0.704936 -0.0782949
  outer loop
   vertex 0.025832 0.126257 -0.002152
   vertex 0.024838 0.12753 0.00036
   vertex 0.02705 0.125318 0.00036
  endloop
 endfacet
 facet normal 0.703824 0.703824 0.0962537
  outer loop
   vertex 0.02705 0.125318 0.00036
   vertex 0.024838 0.12753 0.00036
   vertex 0.025668 0.126322 0.003124
  endloop
 endfacet
 facet normal 0.578519 0.796783 0.174509
  outer loop
   vertex 0.024838 0.12753 0.00036
   vertex 0.02332 0.128082 0.002872
   vertex 0.025668 0.126322 0.003124
  endloop
 endfacet
 facet normal 0.537986 0.767602 0.348366
  outer loop
   vertex 0.025668 0.126322 0.003124
   vertex 0.02332 0.128082 0.002872
   vertex 0.0238 0.126606 0.005383
  endloop
 endfacet
 facet normal 0.420269 0.815078 0.398776
  outer loop
   vertex 0.02332 0.128082 0.002872
   vertex 0.021724 0.127946 0.004832
   vertex 0.0238 0.126606 0.005383
  endloop
 endfacet
 facet normal 0.138975 0.90647 0.398746
  outer loop
   vertex 0.020512 0.128994 0.002872
   vertex 0.019256 0.128082 0.005383
   vertex 0.021724 0.127946 0.004832
  endloop
 endfacet
 facet normal 0.000555151 0.98466 0.174481
  outer loop
   vertex 0.01896 0.12944 0.00036
   vertex 0.017578 0.128951 0.003124
   vertex 0.020512 0.128994 0.002872
  endloop
 endfacet
 facet normal -0.155824 0.984657 -0.07855
  outer loop
   vertex 0.017408 0.128994 -0.002152
   vertex 0.01587 0.128951 0.00036
   vertex 0.01896 0.12944 0.00036
  endloop
 endfacet
 facet normal 0.0161962 0.937175 0.348485
  outer loop
   vertex 0.020512 0.128994 0.002872
   vertex 0.017578 0.128951 0.003124
   vertex 0.019256 0.128082 0.005383
  endloop
 endfacet
 facet normal -0.132412 0.888171 0.440021
  outer loop
   vertex 0.017578 0.128951 0.003124
   vertex 0.016331 0.12753 0.005617
   vertex 0.019256 0.128082 0.005383
  endloop
 endfacet
 facet normal -0.155583 0.983133 0.0961419
  outer loop
   vertex 0.01896 0.12944 0.00036
   vertex 0.01587 0.128951 0.00036
   vertex 0.017578 0.128951 0.003124
  endloop
 endfacet
 facet normal -0.303796 0.934059 0.187729
  outer loop
   vertex 0.01587 0.128951 0.00036
   vertex 0.014488 0.127946 0.003124
   vertex 0.017578 0.128951 0.003124
  endloop
 endfacet
 facet normal -0.288415 0.886769 0.361189
  outer loop
   vertex 0.017578 0.128951 0.003124
   vertex 0.014488 0.127946 0.003124
   vertex 0.016331 0.12753 0.005617
  endloop
 endfacet
 facet normal -0.415138 0.796394 0.439791
  outer loop
   vertex 0.014488 0.127946 0.003124
   vertex 0.013641 0.126257 0.005383
   vertex 0.016331 0.12753 0.005617
  endloop
 endfacet
 facet normal -0.304389 0.937197 -0.170322
  outer loop
   vertex 0.017408 0.128994 -0.002152
   vertex 0.0146 0.128082 -0.002152
   vertex 0.01587 0.128951 0.00036
  endloop
 endfacet
 facet normal -0.452705 0.888208 -0.0783901
  outer loop
   vertex 0.0146 0.128082 -0.002152
   vertex 0.013082 0.12753 0.00036
   vertex 0.01587 0.128951 0.00036
  endloop
 endfacet
 facet normal -0.451986 0.886796 0.0964489
  outer loop
   vertex 0.01587 0.128951 0.00036
   vertex 0.013082 0.12753 0.00036
   vertex 0.014488 0.127946 0.003124
  endloop
 endfacet
 facet normal -0.578874 0.796508 0.174584
  outer loop
   vertex 0.013082 0.12753 0.00036
   vertex 0.012088 0.126257 0.002872
   vertex 0.014488 0.127946 0.003124
  endloop
 endfacet
 facet normal -0.563623 0.748876 0.348589
  outer loop
   vertex 0.014488 0.127946 0.003124
   vertex 0.012088 0.126257 0.002872
   vertex 0.013641 0.126257 0.005383
  endloop
 endfacet
 facet normal -0.645038 0.651744 0.398942
  outer loop
   vertex 0.012088 0.126257 0.002872
   vertex 0.011724 0.124697 0.004832
   vertex 0.013641 0.126257 0.005383
  endloop
 endfacet
 facet normal -0.819189 0.412026 0.398954
  outer loop
   vertex 0.010353 0.123869 0.002872
   vertex 0.010833 0.122392 0.005383
   vertex 0.011724 0.124697 0.004832
  endloop
 endfacet
 facet normal -0.936352 0.304548 0.174631
  outer loop
   vertex 0.009449 0.12253 0.00036
   vertex 0.009488 0.121065 0.003124
   vertex 0.010353 0.123869 0.002872
  endloop
 endfacet
 facet normal -0.984653 0.155824 -0.0785916
  outer loop
   vertex 0.009394 0.120916 -0.002151
   vertex 0.00896 0.11944 0.00036
   vertex 0.009449 0.12253 0.00036
  endloop
 endfacet
 facet normal -0.886309 0.304753 0.348685
  outer loop
   vertex 0.010353 0.123869 0.002872
   vertex 0.009488 0.121065 0.003124
   vertex 0.010833 0.122392 0.005383
  endloop
 endfacet
 facet normal -0.885615 0.148581 0.440011
  outer loop
   vertex 0.009488 0.121065 0.003124
   vertex 0.010454 0.11944 0.005617
   vertex 0.010833 0.122392 0.005383
  endloop
 endfacet
 facet normal -0.983115 0.15558 0.0963335
  outer loop
   vertex 0.009449 0.12253 0.00036
   vertex 0.00896 0.11944 0.00036
   vertex 0.009488 0.121065 0.003124
  endloop
 endfacet
 facet normal -0.982239 0 0.187634
  outer loop
   vertex 0.00896 0.11944 0.00036
   vertex 0.009488 0.117815 0.003124
   vertex 0.009488 0.121065 0.003124
  endloop
 endfacet
 facet normal -0.932446 0 0.361309
  outer loop
   vertex 0.009488 0.121065 0.003124
   vertex 0.009488 0.117815 0.003124
   vertex 0.010454 0.11944 0.005617
  endloop
 endfacet
 facet normal -0.885615 -0.148581 0.440011
  outer loop
   vertex 0.009488 0.117815 0.003124
   vertex 0.010833 0.116488 0.005383
   vertex 0.010454 0.11944 0.005617
  endloop
 endfacet
 facet normal -0.98539 -0 -0.170314
  outer loop
   vertex 0.009394 0.120916 -0.002151
   vertex 0.009394 0.117964 -0.002151
   vertex 0.00896 0.11944 0.00036
  endloop
 endfacet
 facet normal -0.984653 -0.155824 -0.0785916
  outer loop
   vertex 0.009394 0.117964 -0.002151
   vertex 0.009449 0.11635 0.00036
   vertex 0.00896 0.11944 0.00036
  endloop
 endfacet
 facet normal -0.983115 -0.15558 0.0963335
  outer loop
   vertex 0.00896 0.11944 0.00036
   vertex 0.009449 0.11635 0.00036
   vertex 0.009488 0.117815 0.003124
  endloop
 endfacet
 facet normal -0.936352 -0.304548 0.174631
  outer loop
   vertex 0.009449 0.11635 0.00036
   vertex 0.010353 0.115011 0.002872
   vertex 0.009488 0.117815 0.003124
  endloop
 endfacet
 facet normal -0.886309 -0.304753 0.348685
  outer loop
   vertex 0.009488 0.117815 0.003124
   vertex 0.010353 0.115011 0.002872
   vertex 0.010833 0.116488 0.005383
  endloop
 endfacet
 facet normal -0.819189 -0.412026 0.398954
  outer loop
   vertex 0.010353 0.115011 0.002872
   vertex 0.011724 0.114183 0.004832
   vertex 0.010833 0.116488 0.005383
  endloop
 endfacet
 facet normal -0.645038 -0.651744 0.398942
  outer loop
   vertex 0.012088 0.112623 0.002872
   vertex 0.013641 0.112623 0.005383
   vertex 0.011724 0.114183 0.004832
  endloop
 endfacet
 facet normal -0.578874 -0.796508 0.174584
  outer loop
   vertex 0.013082 0.11135 0.00036
   vertex 0.014488 0.110934 0.003124
   vertex 0.012088 0.112623 0.002872
  endloop
 endfacet
 facet normal -0.452705 -0.888208 -0.0783901
  outer loop
   vertex 0.0146 0.110798 -0.002152
   vertex 0.01587 0.109929 0.00036
   vertex 0.013082 0.11135 0.00036
  endloop
 endfacet
 facet normal -0.563623 -0.748876 0.348589
  outer loop
   vertex 0.012088 0.112623 0.002872
   vertex 0.014488 0.110934 0.003124
   vertex 0.013641 0.112623 0.005383
  endloop
 endfacet
 facet normal -0.415138 -0.796394 0.439791
  outer loop
   vertex 0.014488 0.110934 0.003124
   vertex 0.016331 0.11135 0.005617
   vertex 0.013641 0.112623 0.005383
  endloop
 endfacet
 facet normal -0.451986 -0.886796 0.0964489
  outer loop
   vertex 0.013082 0.11135 0.00036
   vertex 0.01587 0.109929 0.00036
   vertex 0.014488 0.110934 0.003124
  endloop
 endfacet
 facet normal -0.303796 -0.934059 0.187729
  outer loop
   vertex 0.01587 0.109929 0.00036
   vertex 0.017578 0.109929 0.003124
   vertex 0.014488 0.110934 0.003124
  endloop
 endfacet
 facet normal -0.288415 -0.886769 0.361189
  outer loop
   vertex 0.014488 0.110934 0.003124
   vertex 0.017578 0.109929 0.003124
   vertex 0.016331 0.11135 0.005617
  endloop
 endfacet
 facet normal -0.132412 -0.888171 0.440021
  outer loop
   vertex 0.017578 0.109929 0.003124
   vertex 0.019256 0.110798 0.005383
   vertex 0.016331 0.11135 0.005617
  endloop
 endfacet
 facet normal -0.304389 -0.937197 -0.170322
  outer loop
   vertex 0.0146 0.110798 -0.002152
   vertex 0.017408 0.109886 -0.002152
   vertex 0.01587 0.109929 0.00036
  endloop
 endfacet
 facet normal -0.155824 -0.984657 -0.07855
  outer loop
   vertex 0.017408 0.109886 -0.002152
   vertex 0.01896 0.10944 0.00036
   vertex 0.01587 0.109929 0.00036
  endloop
 endfacet
 facet normal -0.155583 -0.983133 0.0961419
  outer loop
   vertex 0.01587 0.109929 0.00036
   vertex 0.01896 0.10944 0.00036
   vertex 0.017578 0.109929 0.003124
  endloop
 endfacet
 facet normal 0.000555151 -0.98466 0.174481
  outer loop
   vertex 0.01896 0.10944 0.00036
   vertex 0.020512 0.109886 0.002872
   vertex 0.017578 0.109929 0.003124
  endloop
 endfacet
 facet normal 0.0161962 -0.937175 0.348485
  outer loop
   vertex 0.017578 0.109929 0.003124
   vertex 0.020512 0.109886 0.002872
   vertex 0.019256 0.110798 0.005383
  endloop
 endfacet
 facet normal 0.138975 -0.90647 0.398746
  outer loop
   vertex 0.020512 0.109886 0.002872
   vertex 0.021724 0.110934 0.004832
   vertex 0.019256 0.110798 0.005383
  endloop
 endfacet
 facet normal 0.420269 -0.815078 0.398776
  outer loop
   vertex 0.02332 0.110798 0.002872
   vertex 0.0238 0.112274 0.005383
   vertex 0.021724 0.110934 0.004832
  endloop
 endfacet
 facet normal 0.578519 -0.796783 0.174509
  outer loop
   vertex 0.024838 0.11135 0.00036
   vertex 0.025668 0.112558 0.003124
   vertex 0.02332 0.110798 0.002872
  endloop
 endfacet
 facet normal 0.704936 -0.704936 -0.0782949
  outer loop
   vertex 0.025832 0.112623 -0.002152
   vertex 0.02705 0.113562 0.00036
   vertex 0.024838 0.11135 0.00036
  endloop
 endfacet
 facet normal 0.537986 -0.767602 0.348366
  outer loop
   vertex 0.02332 0.110798 0.002872
   vertex 0.025668 0.112558 0.003124
   vertex 0.0238 0.112274 0.005383
  endloop
 endfacet
 facet normal 0.629279 -0.640767 0.439803
  outer loop
   vertex 0.025668 0.112558 0.003124
   vertex 0.025842 0.11444 0.005617
   vertex 0.0238 0.112274 0.005383
  endloop
 endfacet
 facet normal 0.703824 -0.703824 0.0962537
  outer loop
   vertex 0.024838 0.11135 0.00036
   vertex 0.02705 0.113562 0.00036
   vertex 0.025668 0.112558 0.003124
  endloop
 endfacet
 facet normal 0.794662 -0.577331 0.18762
  outer loop
   vertex 0.02705 0.113562 0.00036
   vertex 0.027578 0.115187 0.003124
   vertex 0.025668 0.112558 0.003124
  endloop
 endfacet
 facet normal 0.754436 -0.548107 0.361117
  outer loop
   vertex 0.025668 0.112558 0.003124
   vertex 0.027578 0.115187 0.003124
   vertex 0.025842 0.11444 0.005617
  endloop
 endfacet
 facet normal 0.803858 -0.400541 0.439749
  outer loop
   vertex 0.027578 0.115187 0.003124
   vertex 0.027271 0.117051 0.005383
   vertex 0.025842 0.11444 0.005617
  endloop
 endfacet
 facet normal 0.797233 -0.579229 -0.170037
  outer loop
   vertex 0.025832 0.112623 -0.002152
   vertex 0.027567 0.115011 -0.002152
   vertex 0.02705 0.113562 0.00036
  endloop
 endfacet
 facet normal 0.888212 -0.452708 -0.078331
  outer loop
   vertex 0.027567 0.115011 -0.002152
   vertex 0.028471 0.11635 0.00036
   vertex 0.02705 0.113562 0.00036
  endloop
 endfacet
 facet normal 0.886806 -0.451991 0.0963284
  outer loop
   vertex 0.02705 0.113562 0.00036
   vertex 0.028471 0.11635 0.00036
   vertex 0.027578 0.115187 0.003124
  endloop
 endfacet
 facet normal 0.93657 -0.303801 0.17476
  outer loop
   vertex 0.028471 0.11635 0.00036
   vertex 0.028526 0.117964 0.002871
   vertex 0.027578 0.115187 0.003124
  endloop
 endfacet
 facet normal 0.89641 -0.274294 0.348155
  outer loop
   vertex 0.027578 0.115187 0.003124
   vertex 0.028526 0.117964 0.002871
   vertex 0.027271 0.117051 0.005383
  endloop
 endfacet
 facet normal 0.905177 -0.147939 0.398459
  outer loop
   vertex 0.028526 0.117964 0.002871
   vertex 0.027904 0.11944 0.004832
   vertex 0.027271 0.117051 0.005383
  endloop
 endfacet
 facet normal 0.294416 0.906493 0.302638
  outer loop
   vertex 0.02332 0.128082 0.002872
   vertex 0.020512 0.128994 0.002872
   vertex 0.021724 0.127946 0.004832
  endloop
 endfacet
 facet normal 0.452705 0.888208 0.0783901
  outer loop
   vertex 0.024838 0.12753 0.00036
   vertex 0.02205 0.128951 0.00036
   vertex 0.02332 0.128082 0.002872
  endloop
 endfacet
 facet normal 0.578874 0.796508 -0.174584
  outer loop
   vertex 0.025832 0.126257 -0.002152
   vertex 0.023432 0.127946 -0.002404
   vertex 0.024838 0.12753 0.00036
  endloop
 endfacet
 facet normal 0.304389 0.937197 0.170322
  outer loop
   vertex 0.02332 0.128082 0.002872
   vertex 0.02205 0.128951 0.00036
   vertex 0.020512 0.128994 0.002872
  endloop
 endfacet
 facet normal 0.155824 0.984657 0.07855
  outer loop
   vertex 0.02205 0.128951 0.00036
   vertex 0.01896 0.12944 0.00036
   vertex 0.020512 0.128994 0.002872
  endloop
 endfacet
 facet normal 0.451986 0.886796 -0.0964489
  outer loop
   vertex 0.024838 0.12753 0.00036
   vertex 0.023432 0.127946 -0.002404
   vertex 0.02205 0.128951 0.00036
  endloop
 endfacet
 facet normal 0.303796 0.934059 -0.187729
  outer loop
   vertex 0.023432 0.127946 -0.002404
   vertex 0.020342 0.128951 -0.002404
   vertex 0.02205 0.128951 0.00036
  endloop
 endfacet
 facet normal 0.155583 0.983133 -0.0961419
  outer loop
   vertex 0.02205 0.128951 0.00036
   vertex 0.020342 0.128951 -0.002404
   vertex 0.01896 0.12944 0.00036
  endloop
 endfacet
 facet normal -0.000555151 0.98466 -0.174481
  outer loop
   vertex 0.020342 0.128951 -0.002404
   vertex 0.017408 0.128994 -0.002152
   vertex 0.01896 0.12944 0.00036
  endloop
 endfacet
 facet normal 0.563623 0.748876 -0.348589
  outer loop
   vertex 0.025832 0.126257 -0.002152
   vertex 0.024279 0.126257 -0.004663
   vertex 0.023432 0.127946 -0.002404
  endloop
 endfacet
 facet normal 0.415138 0.796394 -0.439791
  outer loop
   vertex 0.024279 0.126257 -0.004663
   vertex 0.021589 0.12753 -0.004897
   vertex 0.023432 0.127946 -0.002404
  endloop
 endfacet
 facet normal 0.288415 0.886769 -0.361189
  outer loop
   vertex 0.023432 0.127946 -0.002404
   vertex 0.021589 0.12753 -0.004897
   vertex 0.020342 0.128951 -0.002404
  endloop
 endfacet
 facet normal 0.132412 0.888171 -0.440021
  outer loop
   vertex 0.021589 0.12753 -0.004897
   vertex 0.018664 0.128082 -0.004663
   vertex 0.020342 0.128951 -0.002404
  endloop
 endfacet
 facet normal -0.0161962 0.937175 -0.348485
  outer loop
   vertex 0.020342 0.128951 -0.002404
   vertex 0.018664 0.128082 -0.004663
   vertex 0.017408 0.128994 -0.002152
  endloop
 endfacet
 facet normal -0.138975 0.90647 -0.398746
  outer loop
   vertex 0.018664 0.128082 -0.004663
   vertex 0.016196 0.127946 -0.004112
   vertex 0.017408 0.128994 -0.002152
  endloop
 endfacet
 facet normal -0.771063 0.560215 0.302688
  outer loop
   vertex 0.012088 0.126257 0.002872
   vertex 0.010353 0.123869 0.002872
   vertex 0.011724 0.124697 0.004832
  endloop
 endfacet
 facet normal -0.704936 0.704936 0.0782949
  outer loop
   vertex 0.013082 0.12753 0.00036
   vertex 0.01087 0.125318 0.00036
   vertex 0.012088 0.126257 0.002872
  endloop
 endfacet
 facet normal -0.578519 0.796783 -0.174509
  outer loop
   vertex 0.0146 0.128082 -0.002152
   vertex 0.012252 0.126322 -0.002404
   vertex 0.013082 0.12753 0.00036
  endloop
 endfacet
 facet normal -0.797233 0.579229 0.170037
  outer loop
   vertex 0.012088 0.126257 0.002872
   vertex 0.01087 0.125318 0.00036
   vertex 0.010353 0.123869 0.002872
  endloop
 endfacet
 facet normal -0.888212 0.452708 0.078331
  outer loop
   vertex 0.01087 0.125318 0.00036
   vertex 0.009449 0.12253 0.00036
   vertex 0.010353 0.123869 0.002872
  endloop
 endfacet
 facet normal -0.703824 0.703824 -0.0962537
  outer loop
   vertex 0.013082 0.12753 0.00036
   vertex 0.012252 0.126322 -0.002404
   vertex 0.01087 0.125318 0.00036
  endloop
 endfacet
 facet normal -0.794662 0.577331 -0.18762
  outer loop
   vertex 0.012252 0.126322 -0.002404
   vertex 0.010342 0.123693 -0.002404
   vertex 0.01087 0.125318 0.00036
  endloop
 endfacet
 facet normal -0.886806 0.451991 -0.0963284
  outer loop
   vertex 0.01087 0.125318 0.00036
   vertex 0.010342 0.123693 -0.002404
   vertex 0.009449 0.12253 0.00036
  endloop
 endfacet
 facet normal -0.93657 0.303801 -0.17476
  outer loop
   vertex 0.010342 0.123693 -0.002404
   vertex 0.009394 0.120916 -0.002151
   vertex 0.009449 0.12253 0.00036
  endloop
 endfacet
 facet normal -0.537986 0.767602 -0.348366
  outer loop
   vertex 0.0146 0.128082 -0.002152
   vertex 0.01412 0.126606 -0.004663
   vertex 0.012252 0.126322 -0.002404
  endloop
 endfacet
 facet normal -0.629279 0.640767 -0.439803
  outer loop
   vertex 0.01412 0.126606 -0.004663
   vertex 0.012078 0.12444 -0.004897
   vertex 0.012252 0.126322 -0.002404
  endloop
 endfacet
 facet normal -0.754436 0.548107 -0.361117
  outer loop
   vertex 0.012252 0.126322 -0.002404
   vertex 0.012078 0.12444 -0.004897
   vertex 0.010342 0.123693 -0.002404
  endloop
 endfacet
 facet normal -0.803858 0.400541 -0.439749
  outer loop
   vertex 0.012078 0.12444 -0.004897
   vertex 0.010649 0.121829 -0.004663
   vertex 0.010342 0.123693 -0.002404
  endloop
 endfacet
 facet normal -0.89641 0.274294 -0.348155
  outer loop
   vertex 0.010342 0.123693 -0.002404
   vertex 0.010649 0.121829 -0.004663
   vertex 0.009394 0.120916 -0.002151
  endloop
 endfacet
 facet normal -0.905177 0.147939 -0.398459
  outer loop
   vertex 0.010649 0.121829 -0.004663
   vertex 0.010016 0.11944 -0.004112
   vertex 0.009394 0.120916 -0.002151
  endloop
 endfacet
 facet normal -0.771063 -0.560215 0.302688
  outer loop
   vertex 0.010353 0.115011 0.002872
   vertex 0.012088 0.112623 0.002872
   vertex 0.011724 0.114183 0.004832
  endloop
 endfacet
 facet normal -0.888212 -0.452708 0.078331
  outer loop
   vertex 0.009449 0.11635 0.00036
   vertex 0.01087 0.113562 0.00036
   vertex 0.010353 0.115011 0.002872
  endloop
 endfacet
 facet normal -0.93657 -0.303801 -0.17476
  outer loop
   vertex 0.009394 0.117964 -0.002151
   vertex 0.010342 0.115187 -0.002404
   vertex 0.009449 0.11635 0.00036
  endloop
 endfacet
 facet normal -0.797233 -0.579229 0.170037
  outer loop
   vertex 0.010353 0.115011 0.002872
   vertex 0.01087 0.113562 0.00036
   vertex 0.012088 0.112623 0.002872
  endloop
 endfacet
 facet normal -0.704936 -0.704936 0.0782949
  outer loop
   vertex 0.01087 0.113562 0.00036
   vertex 0.013082 0.11135 0.00036
   vertex 0.012088 0.112623 0.002872
  endloop
 endfacet
 facet normal -0.886806 -0.451991 -0.0963284
  outer loop
   vertex 0.009449 0.11635 0.00036
   vertex 0.010342 0.115187 -0.002404
   vertex 0.01087 0.113562 0.00036
  endloop
 endfacet
 facet normal -0.794662 -0.577331 -0.18762
  outer loop
   vertex 0.010342 0.115187 -0.002404
   vertex 0.012252 0.112558 -0.002404
   vertex 0.01087 0.113562 0.00036
  endloop
 endfacet
 facet normal -0.703824 -0.703824 -0.0962537
  outer loop
   vertex 0.01087 0.113562 0.00036
   vertex 0.012252 0.112558 -0.002404
   vertex 0.013082 0.11135 0.00036
  endloop
 endfacet
 facet normal -0.578519 -0.796783 -0.174509
  outer loop
   vertex 0.012252 0.112558 -0.002404
   vertex 0.0146 0.110798 -0.002152
   vertex 0.013082 0.11135 0.00036
  endloop
 endfacet
 facet normal -0.89641 -0.274294 -0.348155
  outer loop
   vertex 0.009394 0.117964 -0.002151
   vertex 0.010649 0.117051 -0.004663
   vertex 0.010342 0.115187 -0.002404
  endloop
 endfacet
 facet normal -0.803858 -0.400541 -0.439749
  outer loop
   vertex 0.010649 0.117051 -0.004663
   vertex 0.012078 0.11444 -0.004897
   vertex 0.010342 0.115187 -0.002404
  endloop
 endfacet
 facet normal -0.754436 -0.548107 -0.361117
  outer loop
   vertex 0.010342 0.115187 -0.002404
   vertex 0.012078 0.11444 -0.004897
   vertex 0.012252 0.112558 -0.002404
  endloop
 endfacet
 facet normal -0.629279 -0.640767 -0.439803
  outer loop
   vertex 0.012078 0.11444 -0.004897
   vertex 0.01412 0.112274 -0.004663
   vertex 0.012252 0.112558 -0.002404
  endloop
 endfacet
 facet normal -0.537986 -0.767602 -0.348366
  outer loop
   vertex 0.012252 0.112558 -0.002404
   vertex 0.01412 0.112274 -0.004663
   vertex 0.0146 0.110798 -0.002152
  endloop
 endfacet
 facet normal -0.420269 -0.815078 -0.398776
  outer loop
   vertex 0.01412 0.112274 -0.004663
   vertex 0.016196 0.110934 -0.004112
   vertex 0.0146 0.110798 -0.002152
  endloop
 endfacet
 facet normal 0.294416 -0.906493 0.302638
  outer loop
   vertex 0.020512 0.109886 0.002872
   vertex 0.02332 0.110798 0.002872
   vertex 0.021724 0.110934 0.004832
  endloop
 endfacet
 facet normal 0.155824 -0.984657 0.07855
  outer loop
   vertex 0.01896 0.10944 0.00036
   vertex 0.02205 0.109929 0.00036
   vertex 0.020512 0.109886 0.002872
  endloop
 endfacet
 facet normal -0.000555151 -0.98466 -0.174481
  outer loop
   vertex 0.017408 0.109886 -0.002152
   vertex 0.020342 0.109929 -0.002404
   vertex 0.01896 0.10944 0.00036
  endloop
 endfacet
 facet normal 0.304389 -0.937197 0.170322
  outer loop
   vertex 0.020512 0.109886 0.002872
   vertex 0.02205 0.109929 0.00036
   vertex 0.02332 0.110798 0.002872
  endloop
 endfacet
 facet normal 0.452705 -0.888208 0.0783901
  outer loop
   vertex 0.02205 0.109929 0.00036
   vertex 0.024838 0.11135 0.00036
   vertex 0.02332 0.110798 0.002872
  endloop
 endfacet
 facet normal 0.155583 -0.983133 -0.0961419
  outer loop
   vertex 0.01896 0.10944 0.00036
   vertex 0.020342 0.109929 -0.002404
   vertex 0.02205 0.109929 0.00036
  endloop
 endfacet
 facet normal 0.303796 -0.934059 -0.187729
  outer loop
   vertex 0.020342 0.109929 -0.002404
   vertex 0.023432 0.110934 -0.002404
   vertex 0.02205 0.109929 0.00036
  endloop
 endfacet
 facet normal 0.451986 -0.886796 -0.0964489
  outer loop
   vertex 0.02205 0.109929 0.00036
   vertex 0.023432 0.110934 -0.002404
   vertex 0.024838 0.11135 0.00036
  endloop
 endfacet
 facet normal 0.578874 -0.796508 -0.174584
  outer loop
   vertex 0.023432 0.110934 -0.002404
   vertex 0.025832 0.112623 -0.002152
   vertex 0.024838 0.11135 0.00036
  endloop
 endfacet
 facet normal -0.0161962 -0.937175 -0.348485
  outer loop
   vertex 0.017408 0.109886 -0.002152
   vertex 0.018664 0.110798 -0.004663
   vertex 0.020342 0.109929 -0.002404
  endloop
 endfacet
 facet normal 0.132412 -0.888171 -0.440021
  outer loop
   vertex 0.018664 0.110798 -0.004663
   vertex 0.021589 0.11135 -0.004897
   vertex 0.020342 0.109929 -0.002404
  endloop
 endfacet
 facet normal 0.288415 -0.886769 -0.361189
  outer loop
   vertex 0.020342 0.109929 -0.002404
   vertex 0.021589 0.11135 -0.004897
   vertex 0.023432 0.110934 -0.002404
  endloop
 endfacet
 facet normal 0.415138 -0.796394 -0.439791
  outer loop
   vertex 0.021589 0.11135 -0.004897
   vertex 0.024279 0.112623 -0.004663
   vertex 0.023432 0.110934 -0.002404
  endloop
 endfacet
 facet normal 0.563623 -0.748876 -0.348589
  outer loop
   vertex 0.023432 0.110934 -0.002404
   vertex 0.024279 0.112623 -0.004663
   vertex 0.025832 0.112623 -0.002152
  endloop
 endfacet
 facet normal 0.645038 -0.651744 -0.398942
  outer loop
   vertex 0.024279 0.112623 -0.004663
   vertex 0.026196 0.114183 -0.004112
   vertex 0.025832 0.112623 -0.002152
  endloop
 endfacet
 facet normal 0.9532 -0 0.302341
  outer loop
   vertex 0.028526 0.117964 0.002871
   vertex 0.028526 0.120916 0.002871
   vertex 0.027904 0.11944 0.004832
  endloop
 endfacet
 facet normal 0.984653 -0.155824 0.0785916
  outer loop
   vertex 0.028471 0.11635 0.00036
   vertex 0.02896 0.11944 0.00036
   vertex 0.028526 0.117964 0.002871
  endloop
 endfacet
 facet normal 0.936352 -0.304548 -0.174631
  outer loop
   vertex 0.027567 0.115011 -0.002152
   vertex 0.028432 0.117815 -0.002404
   vertex 0.028471 0.11635 0.00036
  endloop
 endfacet
 facet normal 0.98539 -0 0.170314
  outer loop
   vertex 0.028526 0.117964 0.002871
   vertex 0.02896 0.11944 0.00036
   vertex 0.028526 0.120916 0.002871
  endloop
 endfacet
 facet normal 0.984653 0.155824 0.0785916
  outer loop
   vertex 0.02896 0.11944 0.00036
   vertex 0.028471 0.12253 0.00036
   vertex 0.028526 0.120916 0.002871
  endloop
 endfacet
 facet normal 0.983115 -0.15558 -0.0963335
  outer loop
   vertex 0.028471 0.11635 0.00036
   vertex 0.028432 0.117815 -0.002404
   vertex 0.02896 0.11944 0.00036
  endloop
 endfacet
 facet normal 0.982239 0 -0.187634
  outer loop
   vertex 0.028432 0.117815 -0.002404
   vertex 0.028432 0.121065 -0.002404
   vertex 0.02896 0.11944 0.00036
  endloop
 endfacet
 facet normal 0.983115 0.15558 -0.0963335
  outer loop
   vertex 0.02896 0.11944 0.00036
   vertex 0.028432 0.121065 -0.002404
   vertex 0.028471 0.12253 0.00036
  endloop
 endfacet
 facet normal 0.936352 0.304548 -0.174631
  outer loop
   vertex 0.028432 0.121065 -0.002404
   vertex 0.027567 0.123869 -0.002152
   vertex 0.028471 0.12253 0.00036
  endloop
 endfacet
 facet normal 0.886309 -0.304753 -0.348685
  outer loop
   vertex 0.027567 0.115011 -0.002152
   vertex 0.027087 0.116488 -0.004663
   vertex 0.028432 0.117815 -0.002404
  endloop
 endfacet
 facet normal 0.885615 -0.148581 -0.440011
  outer loop
   vertex 0.027087 0.116488 -0.004663
   vertex 0.027466 0.11944 -0.004897
   vertex 0.028432 0.117815 -0.002404
  endloop
 endfacet
 facet normal 0.932446 0 -0.361309
  outer loop
   vertex 0.028432 0.117815 -0.002404
   vertex 0.027466 0.11944 -0.004897
   vertex 0.028432 0.121065 -0.002404
  endloop
 endfacet
 facet normal 0.885615 0.148581 -0.440011
  outer loop
   vertex 0.027466 0.11944 -0.004897
   vertex 0.027087 0.122392 -0.004663
   vertex 0.028432 0.121065 -0.002404
  endloop
 endfacet
 facet normal 0.886309 0.304753 -0.348685
  outer loop
   vertex 0.028432 0.121065 -0.002404
   vertex 0.027087 0.122392 -0.004663
   vertex 0.027567 0.123869 -0.002152
  endloop
 endfacet
 facet normal 0.819189 0.412026 -0.398954
  outer loop
   vertex 0.027087 0.122392 -0.004663
   vertex 0.026196 0.124697 -0.004112
   vertex 0.027567 0.123869 -0.002152
  endloop
 endfacet
 facet normal 0.61533 0.560308 -0.554459
  outer loop
   vertex 0.025055 0.123869 -0.006215
   vertex 0.024279 0.126257 -0.004663
   vertex 0.026196 0.124697 -0.004112
  endloop
 endfacet
 facet normal 0.467426 0.452641 -0.759361
  outer loop
   vertex 0.023213 0.12253 -0.008147
   vertex 0.022578 0.125318 -0.006876
   vertex 0.025055 0.123869 -0.006215
  endloop
 endfacet
 facet normal 0.262485 0.303841 -0.915851
  outer loop
   vertex 0.020992 0.120916 -0.009319
   vertex 0.020342 0.123693 -0.008584
   vertex 0.023213 0.12253 -0.008147
  endloop
 endfacet
 facet normal 0.508799 0.579247 -0.636864
  outer loop
   vertex 0.025055 0.123869 -0.006215
   vertex 0.022578 0.125318 -0.006876
   vertex 0.024279 0.126257 -0.004663
  endloop
 endfacet
 facet normal 0.38541 0.704977 -0.595371
  outer loop
   vertex 0.022578 0.125318 -0.006876
   vertex 0.021589 0.12753 -0.004897
   vertex 0.024279 0.126257 -0.004663
  endloop
 endfacet
 facet normal 0.310374 0.451949 -0.836307
  outer loop
   vertex 0.023213 0.12253 -0.008147
   vertex 0.020342 0.123693 -0.008584
   vertex 0.022578 0.125318 -0.006876
  endloop
 endfacet
 facet normal 0.187559 0.577248 -0.794737
  outer loop
   vertex 0.020342 0.123693 -0.008584
   vertex 0.019488 0.126322 -0.006876
   vertex 0.022578 0.125318 -0.006876
  endloop
 endfacet
 facet normal 0.228709 0.703897 -0.672474
  outer loop
   vertex 0.022578 0.125318 -0.006876
   vertex 0.019488 0.126322 -0.006876
   vertex 0.021589 0.12753 -0.004897
  endloop
 endfacet
 facet normal 0.102735 0.796801 -0.595444
  outer loop
   vertex 0.019488 0.126322 -0.006876
   vertex 0.018664 0.128082 -0.004663
   vertex 0.021589 0.12753 -0.004897
  endloop
 endfacet
 facet normal 0.0891868 0.274301 -0.957499
  outer loop
   vertex 0.020992 0.120916 -0.009319
   vertex 0.018184 0.121829 -0.009319
   vertex 0.020342 0.123693 -0.008584
  endloop
 endfacet
 facet normal -0.0336945 0.400135 -0.915836
  outer loop
   vertex 0.018184 0.121829 -0.009319
   vertex 0.017335 0.12444 -0.008147
   vertex 0.020342 0.123693 -0.008584
  endloop
 endfacet
 facet normal 0.0146149 0.548074 -0.836302
  outer loop
   vertex 0.020342 0.123693 -0.008584
   vertex 0.017335 0.12444 -0.008147
   vertex 0.019488 0.126322 -0.006876
  endloop
 endfacet
 facet normal -0.112009 0.640965 -0.759354
  outer loop
   vertex 0.017335 0.12444 -0.008147
   vertex 0.016632 0.126606 -0.006215
   vertex 0.019488 0.126322 -0.006876
  endloop
 endfacet
 facet normal -0.0710868 0.767617 -0.636955
  outer loop
   vertex 0.019488 0.126322 -0.006876
   vertex 0.016632 0.126606 -0.006215
   vertex 0.018664 0.128082 -0.004663
  endloop
 endfacet
 facet normal -0.168666 0.815046 -0.554303
  outer loop
   vertex 0.016632 0.126606 -0.006215
   vertex 0.016196 0.127946 -0.004112
   vertex 0.018664 0.128082 -0.004663
  endloop
 endfacet
 facet normal -0.342493 0.758552 -0.554344
  outer loop
   vertex 0.016632 0.126606 -0.006215
   vertex 0.01412 0.126606 -0.004663
   vertex 0.016196 0.127946 -0.004112
  endloop
 endfacet
 facet normal -0.286233 0.584386 -0.759318
  outer loop
   vertex 0.017335 0.12444 -0.008147
   vertex 0.014488 0.124697 -0.006876
   vertex 0.016632 0.126606 -0.006215
  endloop
 endfacet
 facet normal -0.207851 0.343516 -0.915858
  outer loop
   vertex 0.018184 0.121829 -0.009319
   vertex 0.015342 0.122069 -0.008584
   vertex 0.017335 0.12444 -0.008147
  endloop
 endfacet
 facet normal -0.393627 0.662685 -0.637108
  outer loop
   vertex 0.016632 0.126606 -0.006215
   vertex 0.014488 0.124697 -0.006876
   vertex 0.01412 0.126606 -0.004663
  endloop
 endfacet
 facet normal -0.551379 0.584158 -0.595601
  outer loop
   vertex 0.014488 0.124697 -0.006876
   vertex 0.012078 0.12444 -0.004897
   vertex 0.01412 0.126606 -0.004663
  endloop
 endfacet
 facet normal -0.334054 0.43492 -0.836213
  outer loop
   vertex 0.017335 0.12444 -0.008147
   vertex 0.015342 0.122069 -0.008584
   vertex 0.014488 0.124697 -0.006876
  endloop
 endfacet
 facet normal -0.491058 0.356895 -0.794662
  outer loop
   vertex 0.015342 0.122069 -0.008584
   vertex 0.012578 0.122069 -0.006876
   vertex 0.014488 0.124697 -0.006876
  endloop
 endfacet
 facet normal -0.598657 0.435097 -0.672533
  outer loop
   vertex 0.014488 0.124697 -0.006876
   vertex 0.012578 0.122069 -0.006876
   vertex 0.012078 0.12444 -0.004897
  endloop
 endfacet
 facet normal -0.725985 0.343961 -0.595514
  outer loop
   vertex 0.012578 0.122069 -0.006876
   vertex 0.010649 0.121829 -0.004663
   vertex 0.012078 0.12444 -0.004897
  endloop
 endfacet
 facet normal -0.233325 0.169451 -0.957521
  outer loop
   vertex 0.018184 0.121829 -0.009319
   vertex 0.016449 0.11944 -0.009319
   vertex 0.015342 0.122069 -0.008584
  endloop
 endfacet
 facet normal -0.390899 0.0914587 -0.915878
  outer loop
   vertex 0.016449 0.11944 -0.009319
   vertex 0.013703 0.11944 -0.008147
   vertex 0.015342 0.122069 -0.008584
  endloop
 endfacet
 facet normal -0.516783 0.183167 -0.836293
  outer loop
   vertex 0.015342 0.122069 -0.008584
   vertex 0.013703 0.11944 -0.008147
   vertex 0.012578 0.122069 -0.006876
  endloop
 endfacet
 facet normal -0.644269 0.0913996 -0.759317
  outer loop
   vertex 0.013703 0.11944 -0.008147
   vertex 0.011426 0.11944 -0.006215
   vertex 0.012578 0.122069 -0.006876
  endloop
 endfacet
 facet normal -0.751958 0.169318 -0.637095
  outer loop
   vertex 0.012578 0.122069 -0.006876
   vertex 0.011426 0.11944 -0.006215
   vertex 0.010649 0.121829 -0.004663
  endloop
 endfacet
 facet normal -0.827124 0.091254 -0.554562
  outer loop
   vertex 0.011426 0.11944 -0.006215
   vertex 0.010016 0.11944 -0.004112
   vertex 0.010649 0.121829 -0.004663
  endloop
 endfacet
 facet normal -0.827124 -0.091254 -0.554562
  outer loop
   vertex 0.011426 0.11944 -0.006215
   vertex 0.010649 0.117051 -0.004663
   vertex 0.010016 0.11944 -0.004112
  endloop
 endfacet
 facet normal -0.644269 -0.0913996 -0.759317
  outer loop
   vertex 0.013703 0.11944 -0.008147
   vertex 0.012578 0.116811 -0.006876
   vertex 0.011426 0.11944 -0.006215
  endloop
 endfacet
 facet normal -0.390899 -0.0914587 -0.915878
  outer loop
   vertex 0.016449 0.11944 -0.009319
   vertex 0.015342 0.116811 -0.008584
   vertex 0.013703 0.11944 -0.008147
  endloop
 endfacet
 facet normal -0.751958 -0.169318 -0.637095
  outer loop
   vertex 0.011426 0.11944 -0.006215
   vertex 0.012578 0.116811 -0.006876
   vertex 0.010649 0.117051 -0.004663
  endloop
 endfacet
 facet normal -0.725985 -0.343961 -0.595514
  outer loop
   vertex 0.012578 0.116811 -0.006876
   vertex 0.012078 0.11444 -0.004897
   vertex 0.010649 0.117051 -0.004663
  endloop
 endfacet
 facet normal -0.516783 -0.183167 -0.836293
  outer loop
   vertex 0.013703 0.11944 -0.008147
   vertex 0.015342 0.116811 -0.008584
   vertex 0.012578 0.116811 -0.006876
  endloop
 endfacet
 facet normal -0.491058 -0.356895 -0.794662
  outer loop
   vertex 0.015342 0.116811 -0.008584
   vertex 0.014488 0.114183 -0.006876
   vertex 0.012578 0.116811 -0.006876
  endloop
 endfacet
 facet normal -0.598657 -0.435097 -0.672533
  outer loop
   vertex 0.012578 0.116811 -0.006876
   vertex 0.014488 0.114183 -0.006876
   vertex 0.012078 0.11444 -0.004897
  endloop
 endfacet
 facet normal -0.551379 -0.584158 -0.595601
  outer loop
   vertex 0.014488 0.114183 -0.006876
   vertex 0.01412 0.112274 -0.004663
   vertex 0.012078 0.11444 -0.004897
  endloop
 endfacet
 facet normal -0.233325 -0.169451 -0.957521
  outer loop
   vertex 0.016449 0.11944 -0.009319
   vertex 0.018184 0.117051 -0.009319
   vertex 0.015342 0.116811 -0.008584
  endloop
 endfacet
 facet normal -0.207851 -0.343516 -0.915858
  outer loop
   vertex 0.018184 0.117051 -0.009319
   vertex 0.017335 0.11444 -0.008147
   vertex 0.015342 0.116811 -0.008584
  endloop
 endfacet
 facet normal -0.334054 -0.43492 -0.836213
  outer loop
   vertex 0.015342 0.116811 -0.008584
   vertex 0.017335 0.11444 -0.008147
   vertex 0.014488 0.114183 -0.006876
  endloop
 endfacet
 facet normal -0.286233 -0.584386 -0.759318
  outer loop
   vertex 0.017335 0.11444 -0.008147
   vertex 0.016632 0.112274 -0.006215
   vertex 0.014488 0.114183 -0.006876
  endloop
 endfacet
 facet normal -0.393627 -0.662685 -0.637108
  outer loop
   vertex 0.014488 0.114183 -0.006876
   vertex 0.016632 0.112274 -0.006215
   vertex 0.01412 0.112274 -0.004663
  endloop
 endfacet
 facet normal -0.342493 -0.758552 -0.554344
  outer loop
   vertex 0.016632 0.112274 -0.006215
   vertex 0.016196 0.110934 -0.004112
   vertex 0.01412 0.112274 -0.004663
  endloop
 endfacet
 facet normal 0.723015 0.412034 -0.554506
  outer loop
   vertex 0.027087 0.122392 -0.004663
   vertex 0.025055 0.123869 -0.006215
   vertex 0.026196 0.124697 -0.004112
  endloop
 endfacet
 facet normal 0.789589 0.148568 -0.59538
  outer loop
   vertex 0.027466 0.11944 -0.004897
   vertex 0.025668 0.121065 -0.006876
   vertex 0.027087 0.122392 -0.004663
  endloop
 endfacet
 facet normal 0.789589 -0.148568 -0.59538
  outer loop
   vertex 0.027087 0.116488 -0.004663
   vertex 0.025668 0.117815 -0.006876
   vertex 0.027466 0.11944 -0.004897
  endloop
 endfacet
 facet normal 0.708089 0.304936 -0.636886
  outer loop
   vertex 0.027087 0.122392 -0.004663
   vertex 0.025668 0.121065 -0.006876
   vertex 0.025055 0.123869 -0.006215
  endloop
 endfacet
 facet normal 0.574948 0.304695 -0.759339
  outer loop
   vertex 0.025668 0.121065 -0.006876
   vertex 0.023213 0.12253 -0.008147
   vertex 0.025055 0.123869 -0.006215
  endloop
 endfacet
 facet normal 0.740143 0 -0.672449
  outer loop
   vertex 0.027466 0.11944 -0.004897
   vertex 0.025668 0.117815 -0.006876
   vertex 0.025668 0.121065 -0.006876
  endloop
 endfacet
 facet normal 0.607028 0 -0.794681
  outer loop
   vertex 0.025668 0.117815 -0.006876
   vertex 0.023432 0.11944 -0.008584
   vertex 0.025668 0.121065 -0.006876
  endloop
 endfacet
 facet normal 0.525774 0.155534 -0.836284
  outer loop
   vertex 0.025668 0.121065 -0.006876
   vertex 0.023432 0.11944 -0.008584
   vertex 0.023213 0.12253 -0.008147
  endloop
 endfacet
 facet normal 0.370096 0.155752 -0.915844
  outer loop
   vertex 0.023432 0.11944 -0.008584
   vertex 0.020992 0.120916 -0.009319
   vertex 0.023213 0.12253 -0.008147
  endloop
 endfacet
 facet normal 0.708089 -0.304936 -0.636886
  outer loop
   vertex 0.027087 0.116488 -0.004663
   vertex 0.025055 0.115011 -0.006215
   vertex 0.025668 0.117815 -0.006876
  endloop
 endfacet
 facet normal 0.574948 -0.304695 -0.759339
  outer loop
   vertex 0.025055 0.115011 -0.006215
   vertex 0.023213 0.11635 -0.008147
   vertex 0.025668 0.117815 -0.006876
  endloop
 endfacet
 facet normal 0.525774 -0.155534 -0.836284
  outer loop
   vertex 0.025668 0.117815 -0.006876
   vertex 0.023213 0.11635 -0.008147
   vertex 0.023432 0.11944 -0.008584
  endloop
 endfacet
 facet normal 0.370096 -0.155752 -0.915844
  outer loop
   vertex 0.023213 0.11635 -0.008147
   vertex 0.020992 0.117964 -0.009319
   vertex 0.023432 0.11944 -0.008584
  endloop
 endfacet
 facet normal 0.288428 0 -0.957502
  outer loop
   vertex 0.023432 0.11944 -0.008584
   vertex 0.020992 0.117964 -0.009319
   vertex 0.020992 0.120916 -0.009319
  endloop
 endfacet
 facet normal 0.156037 0 -0.987751
  outer loop
   vertex 0.020992 0.117964 -0.009319
   vertex 0.01896 0.11944 -0.00964
   vertex 0.020992 0.120916 -0.009319
  endloop
 endfacet
 facet normal -0.168666 -0.815046 -0.554303
  outer loop
   vertex 0.016632 0.112274 -0.006215
   vertex 0.018664 0.110798 -0.004663
   vertex 0.016196 0.110934 -0.004112
  endloop
 endfacet
 facet normal -0.112009 -0.640965 -0.759354
  outer loop
   vertex 0.017335 0.11444 -0.008147
   vertex 0.019488 0.112558 -0.006876
   vertex 0.016632 0.112274 -0.006215
  endloop
 endfacet
 facet normal -0.0336945 -0.400135 -0.915836
  outer loop
   vertex 0.018184 0.117051 -0.009319
   vertex 0.020342 0.115187 -0.008584
   vertex 0.017335 0.11444 -0.008147
  endloop
 endfacet
 facet normal -0.0710868 -0.767617 -0.636955
  outer loop
   vertex 0.016632 0.112274 -0.006215
   vertex 0.019488 0.112558 -0.006876
   vertex 0.018664 0.110798 -0.004663
  endloop
 endfacet
 facet normal 0.102735 -0.796801 -0.595444
  outer loop
   vertex 0.019488 0.112558 -0.006876
   vertex 0.021589 0.11135 -0.004897
   vertex 0.018664 0.110798 -0.004663
  endloop
 endfacet
 facet normal 0.0146149 -0.548074 -0.836302
  outer loop
   vertex 0.017335 0.11444 -0.008147
   vertex 0.020342 0.115187 -0.008584
   vertex 0.019488 0.112558 -0.006876
  endloop
 endfacet
 facet normal 0.187559 -0.577248 -0.794737
  outer loop
   vertex 0.020342 0.115187 -0.008584
   vertex 0.022578 0.113562 -0.006876
   vertex 0.019488 0.112558 -0.006876
  endloop
 endfacet
 facet normal 0.228709 -0.703897 -0.672474
  outer loop
   vertex 0.019488 0.112558 -0.006876
   vertex 0.022578 0.113562 -0.006876
   vertex 0.021589 0.11135 -0.004897
  endloop
 endfacet
 facet normal 0.38541 -0.704977 -0.595371
  outer loop
   vertex 0.022578 0.113562 -0.006876
   vertex 0.024279 0.112623 -0.004663
   vertex 0.021589 0.11135 -0.004897
  endloop
 endfacet
 facet normal 0.0891868 -0.274301 -0.957499
  outer loop
   vertex 0.018184 0.117051 -0.009319
   vertex 0.020992 0.117964 -0.009319
   vertex 0.020342 0.115187 -0.008584
  endloop
 endfacet
 facet normal 0.262485 -0.303841 -0.915851
  outer loop
   vertex 0.020992 0.117964 -0.009319
   vertex 0.023213 0.11635 -0.008147
   vertex 0.020342 0.115187 -0.008584
  endloop
 endfacet
 facet normal 0.310374 -0.451949 -0.836307
  outer loop
   vertex 0.020342 0.115187 -0.008584
   vertex 0.023213 0.11635 -0.008147
   vertex 0.022578 0.113562 -0.006876
  endloop
 endfacet
 facet normal 0.467426 -0.452641 -0.759361
  outer loop
   vertex 0.023213 0.11635 -0.008147
   vertex 0.025055 0.115011 -0.006215
   vertex 0.022578 0.113562 -0.006876
  endloop
 endfacet
 facet normal 0.508799 -0.579247 -0.636864
  outer loop
   vertex 0.022578 0.113562 -0.006876
   vertex 0.025055 0.115011 -0.006215
   vertex 0.024279 0.112623 -0.004663
  endloop
 endfacet
 facet normal 0.61533 -0.560308 -0.554459
  outer loop
   vertex 0.025055 0.115011 -0.006215
   vertex 0.026196 0.114183 -0.004112
   vertex 0.024279 0.112623 -0.004663
  endloop
 endfacet
endsolid ExportedfromBlender-3.5.1
