solid ExportedfromBlender-3.5.1
 facet normal 0.0482486 -0.148392 -0.987751
  outer loop
   vertex 0.01583 0.04153 0.00211
   vertex 0.017862 0.040054 0.002431
   vertex 0.015054 0.039141 0.002431
  endloop
 endfacet
 facet normal 0.723015 -0.412034 -0.554506
  outer loop
   vertex 0.023066 0.036273 0.007638
   vertex 0.021925 0.037101 0.005535
   vertex 0.023957 0.038578 0.007087
  endloop
 endfacet
 facet normal -0.126271 -0.0917039 -0.987748
  outer loop
   vertex 0.01583 0.04153 0.00211
   vertex 0.015054 0.039141 0.002431
   vertex 0.013319 0.04153 0.002431
  endloop
 endfacet
 facet normal -0.126271 0.0917039 -0.987748
  outer loop
   vertex 0.01583 0.04153 0.00211
   vertex 0.013319 0.04153 0.002431
   vertex 0.015054 0.043919 0.002431
  endloop
 endfacet
 facet normal 0.0482486 0.148392 -0.987751
  outer loop
   vertex 0.01583 0.04153 0.00211
   vertex 0.015054 0.043919 0.002431
   vertex 0.017862 0.043006 0.002431
  endloop
 endfacet
 facet normal 0.819189 -0.412026 -0.398954
  outer loop
   vertex 0.023066 0.036273 0.007638
   vertex 0.023957 0.038578 0.007087
   vertex 0.024437 0.037101 0.009598
  endloop
 endfacet
 facet normal -0.138975 -0.90647 -0.398746
  outer loop
   vertex 0.013066 0.033024 0.007638
   vertex 0.015534 0.032888 0.007087
   vertex 0.014278 0.031976 0.009598
  endloop
 endfacet
 facet normal -0.905177 -0.147939 -0.398459
  outer loop
   vertex 0.006886 0.04153 0.007638
   vertex 0.007519 0.039141 0.007087
   vertex 0.006264 0.040054 0.009599
  endloop
 endfacet
 facet normal -0.420269 0.815078 -0.398776
  outer loop
   vertex 0.013066 0.050036 0.007638
   vertex 0.01099 0.048696 0.007087
   vertex 0.01147 0.050172 0.009598
  endloop
 endfacet
 facet normal 0.645038 0.651744 -0.398942
  outer loop
   vertex 0.023066 0.046787 0.007638
   vertex 0.021149 0.048347 0.007087
   vertex 0.022702 0.048347 0.009598
  endloop
 endfacet
 facet normal 0.771063 -0.560215 -0.302688
  outer loop
   vertex 0.023066 0.036273 0.007638
   vertex 0.024437 0.037101 0.009598
   vertex 0.022702 0.034713 0.009598
  endloop
 endfacet
 facet normal -0.294416 -0.906493 -0.302638
  outer loop
   vertex 0.013066 0.033024 0.007638
   vertex 0.014278 0.031976 0.009598
   vertex 0.01147 0.032888 0.009598
  endloop
 endfacet
 facet normal -0.9532 0 -0.302341
  outer loop
   vertex 0.006886 0.04153 0.007638
   vertex 0.006264 0.040054 0.009599
   vertex 0.006264 0.043006 0.009599
  endloop
 endfacet
 facet normal -0.294416 0.906493 -0.302638
  outer loop
   vertex 0.013066 0.050036 0.007638
   vertex 0.01147 0.050172 0.009598
   vertex 0.014278 0.051084 0.009598
  endloop
 endfacet
 facet normal 0.771063 0.560215 -0.302688
  outer loop
   vertex 0.023066 0.046787 0.007638
   vertex 0.022702 0.048347 0.009598
   vertex 0.024437 0.045959 0.009598
  endloop
 endfacet
 facet normal 0.342493 -0.758552 0.554344
  outer loop
   vertex 0.018594 0.033024 0.016582
   vertex 0.02067 0.034364 0.017133
   vertex 0.018158 0.034364 0.018685
  endloop
 endfacet
 facet normal -0.61533 -0.560308 0.554459
  outer loop
   vertex 0.008594 0.036273 0.016582
   vertex 0.010511 0.034713 0.017133
   vertex 0.009735 0.037101 0.018685
  endloop
 endfacet
 facet normal -0.723015 0.412034 0.554506
  outer loop
   vertex 0.008594 0.046787 0.016582
   vertex 0.007703 0.044482 0.017133
   vertex 0.009735 0.045959 0.018685
  endloop
 endfacet
 facet normal 0.168666 0.815046 0.554303
  outer loop
   vertex 0.018594 0.050036 0.016582
   vertex 0.016126 0.050172 0.017133
   vertex 0.018158 0.048696 0.018685
  endloop
 endfacet
 facet normal 0.827124 0.091254 0.554562
  outer loop
   vertex 0.024774 0.04153 0.016582
   vertex 0.024141 0.043919 0.017133
   vertex 0.023364 0.04153 0.018685
  endloop
 endfacet
 facet normal 0.126271 0.0917039 0.987748
  outer loop
   vertex 0.018341 0.04153 0.021789
   vertex 0.016606 0.043919 0.021789
   vertex 0.01583 0.04153 0.02211
  endloop
 endfacet
 facet normal 0.390899 0.0914587 0.915878
  outer loop
   vertex 0.021087 0.04153 0.020617
   vertex 0.019448 0.044159 0.021054
   vertex 0.018341 0.04153 0.021789
  endloop
 endfacet
 facet normal 0.644269 0.0913996 0.759317
  outer loop
   vertex 0.023364 0.04153 0.018685
   vertex 0.022212 0.044159 0.019346
   vertex 0.021087 0.04153 0.020617
  endloop
 endfacet
 facet normal 0.233325 0.169451 0.957521
  outer loop
   vertex 0.018341 0.04153 0.021789
   vertex 0.019448 0.044159 0.021054
   vertex 0.016606 0.043919 0.021789
  endloop
 endfacet
 facet normal 0.207851 0.343516 0.915858
  outer loop
   vertex 0.019448 0.044159 0.021054
   vertex 0.017455 0.04653 0.020617
   vertex 0.016606 0.043919 0.021789
  endloop
 endfacet
 facet normal 0.516783 0.183167 0.836293
  outer loop
   vertex 0.021087 0.04153 0.020617
   vertex 0.022212 0.044159 0.019346
   vertex 0.019448 0.044159 0.021054
  endloop
 endfacet
 facet normal 0.491058 0.356895 0.794662
  outer loop
   vertex 0.022212 0.044159 0.019346
   vertex 0.020302 0.046787 0.019346
   vertex 0.019448 0.044159 0.021054
  endloop
 endfacet
 facet normal 0.334054 0.43492 0.836213
  outer loop
   vertex 0.019448 0.044159 0.021054
   vertex 0.020302 0.046787 0.019346
   vertex 0.017455 0.04653 0.020617
  endloop
 endfacet
 facet normal 0.286233 0.584386 0.759318
  outer loop
   vertex 0.020302 0.046787 0.019346
   vertex 0.018158 0.048696 0.018685
   vertex 0.017455 0.04653 0.020617
  endloop
 endfacet
 facet normal 0.751958 0.169318 0.637095
  outer loop
   vertex 0.023364 0.04153 0.018685
   vertex 0.024141 0.043919 0.017133
   vertex 0.022212 0.044159 0.019346
  endloop
 endfacet
 facet normal 0.725985 0.343961 0.595514
  outer loop
   vertex 0.024141 0.043919 0.017133
   vertex 0.022712 0.04653 0.017367
   vertex 0.022212 0.044159 0.019346
  endloop
 endfacet
 facet normal 0.598657 0.435097 0.672533
  outer loop
   vertex 0.022212 0.044159 0.019346
   vertex 0.022712 0.04653 0.017367
   vertex 0.020302 0.046787 0.019346
  endloop
 endfacet
 facet normal 0.551379 0.584158 0.595601
  outer loop
   vertex 0.022712 0.04653 0.017367
   vertex 0.02067 0.048696 0.017133
   vertex 0.020302 0.046787 0.019346
  endloop
 endfacet
 facet normal 0.393627 0.662685 0.637108
  outer loop
   vertex 0.020302 0.046787 0.019346
   vertex 0.02067 0.048696 0.017133
   vertex 0.018158 0.048696 0.018685
  endloop
 endfacet
 facet normal 0.342493 0.758552 0.554344
  outer loop
   vertex 0.02067 0.048696 0.017133
   vertex 0.018594 0.050036 0.016582
   vertex 0.018158 0.048696 0.018685
  endloop
 endfacet
 facet normal -0.0482486 0.148392 0.987751
  outer loop
   vertex 0.016606 0.043919 0.021789
   vertex 0.013798 0.043006 0.021789
   vertex 0.01583 0.04153 0.02211
  endloop
 endfacet
 facet normal 0.0336945 0.400135 0.915836
  outer loop
   vertex 0.017455 0.04653 0.020617
   vertex 0.014448 0.045783 0.021054
   vertex 0.016606 0.043919 0.021789
  endloop
 endfacet
 facet normal 0.112009 0.640965 0.759354
  outer loop
   vertex 0.018158 0.048696 0.018685
   vertex 0.015302 0.048412 0.019346
   vertex 0.017455 0.04653 0.020617
  endloop
 endfacet
 facet normal -0.0891868 0.274301 0.957499
  outer loop
   vertex 0.016606 0.043919 0.021789
   vertex 0.014448 0.045783 0.021054
   vertex 0.013798 0.043006 0.021789
  endloop
 endfacet
 facet normal -0.262485 0.303841 0.915851
  outer loop
   vertex 0.014448 0.045783 0.021054
   vertex 0.011577 0.04462 0.020617
   vertex 0.013798 0.043006 0.021789
  endloop
 endfacet
 facet normal -0.0146149 0.548074 0.836302
  outer loop
   vertex 0.017455 0.04653 0.020617
   vertex 0.015302 0.048412 0.019346
   vertex 0.014448 0.045783 0.021054
  endloop
 endfacet
 facet normal -0.187559 0.577248 0.794737
  outer loop
   vertex 0.015302 0.048412 0.019346
   vertex 0.012212 0.047408 0.019346
   vertex 0.014448 0.045783 0.021054
  endloop
 endfacet
 facet normal -0.310374 0.451949 0.836307
  outer loop
   vertex 0.014448 0.045783 0.021054
   vertex 0.012212 0.047408 0.019346
   vertex 0.011577 0.04462 0.020617
  endloop
 endfacet
 facet normal -0.467426 0.452641 0.759361
  outer loop
   vertex 0.012212 0.047408 0.019346
   vertex 0.009735 0.045959 0.018685
   vertex 0.011577 0.04462 0.020617
  endloop
 endfacet
 facet normal 0.0710868 0.767617 0.636955
  outer loop
   vertex 0.018158 0.048696 0.018685
   vertex 0.016126 0.050172 0.017133
   vertex 0.015302 0.048412 0.019346
  endloop
 endfacet
 facet normal -0.102735 0.796801 0.595444
  outer loop
   vertex 0.016126 0.050172 0.017133
   vertex 0.013201 0.04962 0.017367
   vertex 0.015302 0.048412 0.019346
  endloop
 endfacet
 facet normal -0.228709 0.703897 0.672474
  outer loop
   vertex 0.015302 0.048412 0.019346
   vertex 0.013201 0.04962 0.017367
   vertex 0.012212 0.047408 0.019346
  endloop
 endfacet
 facet normal -0.38541 0.704977 0.595371
  outer loop
   vertex 0.013201 0.04962 0.017367
   vertex 0.010511 0.048347 0.017133
   vertex 0.012212 0.047408 0.019346
  endloop
 endfacet
 facet normal -0.508799 0.579247 0.636864
  outer loop
   vertex 0.012212 0.047408 0.019346
   vertex 0.010511 0.048347 0.017133
   vertex 0.009735 0.045959 0.018685
  endloop
 endfacet
 facet normal -0.61533 0.560308 0.554459
  outer loop
   vertex 0.010511 0.048347 0.017133
   vertex 0.008594 0.046787 0.016582
   vertex 0.009735 0.045959 0.018685
  endloop
 endfacet
 facet normal -0.156037 0 0.987751
  outer loop
   vertex 0.013798 0.043006 0.021789
   vertex 0.013798 0.040054 0.021789
   vertex 0.01583 0.04153 0.02211
  endloop
 endfacet
 facet normal -0.370096 0.155752 0.915844
  outer loop
   vertex 0.011577 0.04462 0.020617
   vertex 0.011358 0.04153 0.021054
   vertex 0.013798 0.043006 0.021789
  endloop
 endfacet
 facet normal -0.574948 0.304695 0.759339
  outer loop
   vertex 0.009735 0.045959 0.018685
   vertex 0.009122 0.043155 0.019346
   vertex 0.011577 0.04462 0.020617
  endloop
 endfacet
 facet normal -0.288428 0 0.957502
  outer loop
   vertex 0.013798 0.043006 0.021789
   vertex 0.011358 0.04153 0.021054
   vertex 0.013798 0.040054 0.021789
  endloop
 endfacet
 facet normal -0.370096 -0.155752 0.915844
  outer loop
   vertex 0.011358 0.04153 0.021054
   vertex 0.011577 0.03844 0.020617
   vertex 0.013798 0.040054 0.021789
  endloop
 endfacet
 facet normal -0.525774 0.155534 0.836284
  outer loop
   vertex 0.011577 0.04462 0.020617
   vertex 0.009122 0.043155 0.019346
   vertex 0.011358 0.04153 0.021054
  endloop
 endfacet
 facet normal -0.607028 0 0.794681
  outer loop
   vertex 0.009122 0.043155 0.019346
   vertex 0.009122 0.039905 0.019346
   vertex 0.011358 0.04153 0.021054
  endloop
 endfacet
 facet normal -0.525774 -0.155534 0.836284
  outer loop
   vertex 0.011358 0.04153 0.021054
   vertex 0.009122 0.039905 0.019346
   vertex 0.011577 0.03844 0.020617
  endloop
 endfacet
 facet normal -0.574948 -0.304695 0.759339
  outer loop
   vertex 0.009122 0.039905 0.019346
   vertex 0.009735 0.037101 0.018685
   vertex 0.011577 0.03844 0.020617
  endloop
 endfacet
 facet normal -0.708089 0.304936 0.636886
  outer loop
   vertex 0.009735 0.045959 0.018685
   vertex 0.007703 0.044482 0.017133
   vertex 0.009122 0.043155 0.019346
  endloop
 endfacet
 facet normal -0.789589 0.148568 0.59538
  outer loop
   vertex 0.007703 0.044482 0.017133
   vertex 0.007324 0.04153 0.017367
   vertex 0.009122 0.043155 0.019346
  endloop
 endfacet
 facet normal -0.740143 0 0.672449
  outer loop
   vertex 0.009122 0.043155 0.019346
   vertex 0.007324 0.04153 0.017367
   vertex 0.009122 0.039905 0.019346
  endloop
 endfacet
 facet normal -0.789589 -0.148568 0.59538
  outer loop
   vertex 0.007324 0.04153 0.017367
   vertex 0.007703 0.038578 0.017133
   vertex 0.009122 0.039905 0.019346
  endloop
 endfacet
 facet normal -0.708089 -0.304936 0.636886
  outer loop
   vertex 0.009122 0.039905 0.019346
   vertex 0.007703 0.038578 0.017133
   vertex 0.009735 0.037101 0.018685
  endloop
 endfacet
 facet normal -0.723015 -0.412034 0.554506
  outer loop
   vertex 0.007703 0.038578 0.017133
   vertex 0.008594 0.036273 0.016582
   vertex 0.009735 0.037101 0.018685
  endloop
 endfacet
 facet normal -0.0482486 -0.148392 0.987751
  outer loop
   vertex 0.013798 0.040054 0.021789
   vertex 0.016606 0.039141 0.021789
   vertex 0.01583 0.04153 0.02211
  endloop
 endfacet
 facet normal -0.262485 -0.303841 0.915851
  outer loop
   vertex 0.011577 0.03844 0.020617
   vertex 0.014448 0.037277 0.021054
   vertex 0.013798 0.040054 0.021789
  endloop
 endfacet
 facet normal -0.467426 -0.452641 0.759361
  outer loop
   vertex 0.009735 0.037101 0.018685
   vertex 0.012212 0.035652 0.019346
   vertex 0.011577 0.03844 0.020617
  endloop
 endfacet
 facet normal -0.0891868 -0.274301 0.957499
  outer loop
   vertex 0.013798 0.040054 0.021789
   vertex 0.014448 0.037277 0.021054
   vertex 0.016606 0.039141 0.021789
  endloop
 endfacet
 facet normal 0.0336945 -0.400135 0.915836
  outer loop
   vertex 0.014448 0.037277 0.021054
   vertex 0.017455 0.03653 0.020617
   vertex 0.016606 0.039141 0.021789
  endloop
 endfacet
 facet normal -0.310374 -0.451949 0.836307
  outer loop
   vertex 0.011577 0.03844 0.020617
   vertex 0.012212 0.035652 0.019346
   vertex 0.014448 0.037277 0.021054
  endloop
 endfacet
 facet normal -0.187559 -0.577248 0.794737
  outer loop
   vertex 0.012212 0.035652 0.019346
   vertex 0.015302 0.034648 0.019346
   vertex 0.014448 0.037277 0.021054
  endloop
 endfacet
 facet normal -0.0146149 -0.548074 0.836302
  outer loop
   vertex 0.014448 0.037277 0.021054
   vertex 0.015302 0.034648 0.019346
   vertex 0.017455 0.03653 0.020617
  endloop
 endfacet
 facet normal 0.112009 -0.640965 0.759354
  outer loop
   vertex 0.015302 0.034648 0.019346
   vertex 0.018158 0.034364 0.018685
   vertex 0.017455 0.03653 0.020617
  endloop
 endfacet
 facet normal -0.508799 -0.579247 0.636864
  outer loop
   vertex 0.009735 0.037101 0.018685
   vertex 0.010511 0.034713 0.017133
   vertex 0.012212 0.035652 0.019346
  endloop
 endfacet
 facet normal -0.38541 -0.704977 0.595371
  outer loop
   vertex 0.010511 0.034713 0.017133
   vertex 0.013201 0.03344 0.017367
   vertex 0.012212 0.035652 0.019346
  endloop
 endfacet
 facet normal -0.228709 -0.703897 0.672474
  outer loop
   vertex 0.012212 0.035652 0.019346
   vertex 0.013201 0.03344 0.017367
   vertex 0.015302 0.034648 0.019346
  endloop
 endfacet
 facet normal -0.102735 -0.796801 0.595444
  outer loop
   vertex 0.013201 0.03344 0.017367
   vertex 0.016126 0.032888 0.017133
   vertex 0.015302 0.034648 0.019346
  endloop
 endfacet
 facet normal 0.0710868 -0.767617 0.636955
  outer loop
   vertex 0.015302 0.034648 0.019346
   vertex 0.016126 0.032888 0.017133
   vertex 0.018158 0.034364 0.018685
  endloop
 endfacet
 facet normal 0.168666 -0.815046 0.554303
  outer loop
   vertex 0.016126 0.032888 0.017133
   vertex 0.018594 0.033024 0.016582
   vertex 0.018158 0.034364 0.018685
  endloop
 endfacet
 facet normal 0.126271 -0.0917039 0.987748
  outer loop
   vertex 0.016606 0.039141 0.021789
   vertex 0.018341 0.04153 0.021789
   vertex 0.01583 0.04153 0.02211
  endloop
 endfacet
 facet normal 0.207851 -0.343516 0.915858
  outer loop
   vertex 0.017455 0.03653 0.020617
   vertex 0.019448 0.038901 0.021054
   vertex 0.016606 0.039141 0.021789
  endloop
 endfacet
 facet normal 0.286233 -0.584386 0.759318
  outer loop
   vertex 0.018158 0.034364 0.018685
   vertex 0.020302 0.036273 0.019346
   vertex 0.017455 0.03653 0.020617
  endloop
 endfacet
 facet normal 0.233325 -0.169451 0.957521
  outer loop
   vertex 0.016606 0.039141 0.021789
   vertex 0.019448 0.038901 0.021054
   vertex 0.018341 0.04153 0.021789
  endloop
 endfacet
 facet normal 0.390899 -0.0914587 0.915878
  outer loop
   vertex 0.019448 0.038901 0.021054
   vertex 0.021087 0.04153 0.020617
   vertex 0.018341 0.04153 0.021789
  endloop
 endfacet
 facet normal 0.334054 -0.43492 0.836213
  outer loop
   vertex 0.017455 0.03653 0.020617
   vertex 0.020302 0.036273 0.019346
   vertex 0.019448 0.038901 0.021054
  endloop
 endfacet
 facet normal 0.491058 -0.356895 0.794662
  outer loop
   vertex 0.020302 0.036273 0.019346
   vertex 0.022212 0.038901 0.019346
   vertex 0.019448 0.038901 0.021054
  endloop
 endfacet
 facet normal 0.516783 -0.183167 0.836293
  outer loop
   vertex 0.019448 0.038901 0.021054
   vertex 0.022212 0.038901 0.019346
   vertex 0.021087 0.04153 0.020617
  endloop
 endfacet
 facet normal 0.644269 -0.0913996 0.759317
  outer loop
   vertex 0.022212 0.038901 0.019346
   vertex 0.023364 0.04153 0.018685
   vertex 0.021087 0.04153 0.020617
  endloop
 endfacet
 facet normal 0.393627 -0.662685 0.637108
  outer loop
   vertex 0.018158 0.034364 0.018685
   vertex 0.02067 0.034364 0.017133
   vertex 0.020302 0.036273 0.019346
  endloop
 endfacet
 facet normal 0.551379 -0.584158 0.595601
  outer loop
   vertex 0.02067 0.034364 0.017133
   vertex 0.022712 0.03653 0.017367
   vertex 0.020302 0.036273 0.019346
  endloop
 endfacet
 facet normal 0.598657 -0.435097 0.672533
  outer loop
   vertex 0.020302 0.036273 0.019346
   vertex 0.022712 0.03653 0.017367
   vertex 0.022212 0.038901 0.019346
  endloop
 endfacet
 facet normal 0.725985 -0.343961 0.595514
  outer loop
   vertex 0.022712 0.03653 0.017367
   vertex 0.024141 0.039141 0.017133
   vertex 0.022212 0.038901 0.019346
  endloop
 endfacet
 facet normal 0.751958 -0.169318 0.637095
  outer loop
   vertex 0.022212 0.038901 0.019346
   vertex 0.024141 0.039141 0.017133
   vertex 0.023364 0.04153 0.018685
  endloop
 endfacet
 facet normal 0.827124 -0.091254 0.554562
  outer loop
   vertex 0.024141 0.039141 0.017133
   vertex 0.024774 0.04153 0.016582
   vertex 0.023364 0.04153 0.018685
  endloop
 endfacet
 facet normal 0.905177 0.147939 0.398459
  outer loop
   vertex 0.025396 0.043006 0.014621
   vertex 0.024141 0.043919 0.017133
   vertex 0.024774 0.04153 0.016582
  endloop
 endfacet
 facet normal 0.93657 0.303801 0.17476
  outer loop
   vertex 0.025341 0.04462 0.01211
   vertex 0.024448 0.045783 0.014874
   vertex 0.025396 0.043006 0.014621
  endloop
 endfacet
 facet normal 0.888212 0.452708 -0.078331
  outer loop
   vertex 0.024437 0.045959 0.009598
   vertex 0.02392 0.047408 0.01211
   vertex 0.025341 0.04462 0.01211
  endloop
 endfacet
 facet normal 0.89641 0.274294 0.348155
  outer loop
   vertex 0.025396 0.043006 0.014621
   vertex 0.024448 0.045783 0.014874
   vertex 0.024141 0.043919 0.017133
  endloop
 endfacet
 facet normal 0.803858 0.400541 0.439749
  outer loop
   vertex 0.024448 0.045783 0.014874
   vertex 0.022712 0.04653 0.017367
   vertex 0.024141 0.043919 0.017133
  endloop
 endfacet
 facet normal 0.886806 0.451991 0.0963284
  outer loop
   vertex 0.025341 0.04462 0.01211
   vertex 0.02392 0.047408 0.01211
   vertex 0.024448 0.045783 0.014874
  endloop
 endfacet
 facet normal 0.794662 0.577331 0.18762
  outer loop
   vertex 0.02392 0.047408 0.01211
   vertex 0.022538 0.048412 0.014874
   vertex 0.024448 0.045783 0.014874
  endloop
 endfacet
 facet normal 0.754436 0.548107 0.361117
  outer loop
   vertex 0.024448 0.045783 0.014874
   vertex 0.022538 0.048412 0.014874
   vertex 0.022712 0.04653 0.017367
  endloop
 endfacet
 facet normal 0.629279 0.640767 0.439803
  outer loop
   vertex 0.022538 0.048412 0.014874
   vertex 0.02067 0.048696 0.017133
   vertex 0.022712 0.04653 0.017367
  endloop
 endfacet
 facet normal 0.797233 0.579229 -0.170037
  outer loop
   vertex 0.024437 0.045959 0.009598
   vertex 0.022702 0.048347 0.009598
   vertex 0.02392 0.047408 0.01211
  endloop
 endfacet
 facet normal 0.704936 0.704936 -0.0782949
  outer loop
   vertex 0.022702 0.048347 0.009598
   vertex 0.021708 0.04962 0.01211
   vertex 0.02392 0.047408 0.01211
  endloop
 endfacet
 facet normal 0.703824 0.703824 0.0962537
  outer loop
   vertex 0.02392 0.047408 0.01211
   vertex 0.021708 0.04962 0.01211
   vertex 0.022538 0.048412 0.014874
  endloop
 endfacet
 facet normal 0.578519 0.796783 0.174509
  outer loop
   vertex 0.021708 0.04962 0.01211
   vertex 0.02019 0.050172 0.014622
   vertex 0.022538 0.048412 0.014874
  endloop
 endfacet
 facet normal 0.537986 0.767602 0.348366
  outer loop
   vertex 0.022538 0.048412 0.014874
   vertex 0.02019 0.050172 0.014622
   vertex 0.02067 0.048696 0.017133
  endloop
 endfacet
 facet normal 0.420269 0.815078 0.398776
  outer loop
   vertex 0.02019 0.050172 0.014622
   vertex 0.018594 0.050036 0.016582
   vertex 0.02067 0.048696 0.017133
  endloop
 endfacet
 facet normal 0.138975 0.90647 0.398746
  outer loop
   vertex 0.017382 0.051084 0.014622
   vertex 0.016126 0.050172 0.017133
   vertex 0.018594 0.050036 0.016582
  endloop
 endfacet
 facet normal 0.000555151 0.98466 0.174481
  outer loop
   vertex 0.01583 0.05153 0.01211
   vertex 0.014448 0.051041 0.014874
   vertex 0.017382 0.051084 0.014622
  endloop
 endfacet
 facet normal -0.155824 0.984657 -0.07855
  outer loop
   vertex 0.014278 0.051084 0.009598
   vertex 0.01274 0.051041 0.01211
   vertex 0.01583 0.05153 0.01211
  endloop
 endfacet
 facet normal 0.0161962 0.937175 0.348485
  outer loop
   vertex 0.017382 0.051084 0.014622
   vertex 0.014448 0.051041 0.014874
   vertex 0.016126 0.050172 0.017133
  endloop
 endfacet
 facet normal -0.132412 0.888171 0.440021
  outer loop
   vertex 0.014448 0.051041 0.014874
   vertex 0.013201 0.04962 0.017367
   vertex 0.016126 0.050172 0.017133
  endloop
 endfacet
 facet normal -0.155583 0.983133 0.0961419
  outer loop
   vertex 0.01583 0.05153 0.01211
   vertex 0.01274 0.051041 0.01211
   vertex 0.014448 0.051041 0.014874
  endloop
 endfacet
 facet normal -0.303796 0.934059 0.187729
  outer loop
   vertex 0.01274 0.051041 0.01211
   vertex 0.011358 0.050036 0.014874
   vertex 0.014448 0.051041 0.014874
  endloop
 endfacet
 facet normal -0.288415 0.886769 0.361189
  outer loop
   vertex 0.014448 0.051041 0.014874
   vertex 0.011358 0.050036 0.014874
   vertex 0.013201 0.04962 0.017367
  endloop
 endfacet
 facet normal -0.415138 0.796394 0.439791
  outer loop
   vertex 0.011358 0.050036 0.014874
   vertex 0.010511 0.048347 0.017133
   vertex 0.013201 0.04962 0.017367
  endloop
 endfacet
 facet normal -0.304389 0.937197 -0.170322
  outer loop
   vertex 0.014278 0.051084 0.009598
   vertex 0.01147 0.050172 0.009598
   vertex 0.01274 0.051041 0.01211
  endloop
 endfacet
 facet normal -0.452705 0.888208 -0.0783901
  outer loop
   vertex 0.01147 0.050172 0.009598
   vertex 0.009952 0.04962 0.01211
   vertex 0.01274 0.051041 0.01211
  endloop
 endfacet
 facet normal -0.451986 0.886796 0.0964489
  outer loop
   vertex 0.01274 0.051041 0.01211
   vertex 0.009952 0.04962 0.01211
   vertex 0.011358 0.050036 0.014874
  endloop
 endfacet
 facet normal -0.578874 0.796508 0.174584
  outer loop
   vertex 0.009952 0.04962 0.01211
   vertex 0.008958 0.048347 0.014622
   vertex 0.011358 0.050036 0.014874
  endloop
 endfacet
 facet normal -0.563623 0.748876 0.348589
  outer loop
   vertex 0.011358 0.050036 0.014874
   vertex 0.008958 0.048347 0.014622
   vertex 0.010511 0.048347 0.017133
  endloop
 endfacet
 facet normal -0.645038 0.651744 0.398942
  outer loop
   vertex 0.008958 0.048347 0.014622
   vertex 0.008594 0.046787 0.016582
   vertex 0.010511 0.048347 0.017133
  endloop
 endfacet
 facet normal -0.819189 0.412026 0.398954
  outer loop
   vertex 0.007223 0.045959 0.014622
   vertex 0.007703 0.044482 0.017133
   vertex 0.008594 0.046787 0.016582
  endloop
 endfacet
 facet normal -0.936352 0.304548 0.174631
  outer loop
   vertex 0.006319 0.04462 0.01211
   vertex 0.006358 0.043155 0.014874
   vertex 0.007223 0.045959 0.014622
  endloop
 endfacet
 facet normal -0.984653 0.155824 -0.0785916
  outer loop
   vertex 0.006264 0.043006 0.009599
   vertex 0.00583 0.04153 0.01211
   vertex 0.006319 0.04462 0.01211
  endloop
 endfacet
 facet normal -0.886309 0.304753 0.348685
  outer loop
   vertex 0.007223 0.045959 0.014622
   vertex 0.006358 0.043155 0.014874
   vertex 0.007703 0.044482 0.017133
  endloop
 endfacet
 facet normal -0.885615 0.148581 0.440011
  outer loop
   vertex 0.006358 0.043155 0.014874
   vertex 0.007324 0.04153 0.017367
   vertex 0.007703 0.044482 0.017133
  endloop
 endfacet
 facet normal -0.983115 0.15558 0.0963335
  outer loop
   vertex 0.006319 0.04462 0.01211
   vertex 0.00583 0.04153 0.01211
   vertex 0.006358 0.043155 0.014874
  endloop
 endfacet
 facet normal -0.982239 0 0.187634
  outer loop
   vertex 0.00583 0.04153 0.01211
   vertex 0.006358 0.039905 0.014874
   vertex 0.006358 0.043155 0.014874
  endloop
 endfacet
 facet normal -0.932446 0 0.361309
  outer loop
   vertex 0.006358 0.043155 0.014874
   vertex 0.006358 0.039905 0.014874
   vertex 0.007324 0.04153 0.017367
  endloop
 endfacet
 facet normal -0.885615 -0.148581 0.440011
  outer loop
   vertex 0.006358 0.039905 0.014874
   vertex 0.007703 0.038578 0.017133
   vertex 0.007324 0.04153 0.017367
  endloop
 endfacet
 facet normal -0.98539 -0 -0.170314
  outer loop
   vertex 0.006264 0.043006 0.009599
   vertex 0.006264 0.040054 0.009599
   vertex 0.00583 0.04153 0.01211
  endloop
 endfacet
 facet normal -0.984653 -0.155824 -0.0785916
  outer loop
   vertex 0.006264 0.040054 0.009599
   vertex 0.006319 0.03844 0.01211
   vertex 0.00583 0.04153 0.01211
  endloop
 endfacet
 facet normal -0.983115 -0.15558 0.0963335
  outer loop
   vertex 0.00583 0.04153 0.01211
   vertex 0.006319 0.03844 0.01211
   vertex 0.006358 0.039905 0.014874
  endloop
 endfacet
 facet normal -0.936352 -0.304548 0.174631
  outer loop
   vertex 0.006319 0.03844 0.01211
   vertex 0.007223 0.037101 0.014622
   vertex 0.006358 0.039905 0.014874
  endloop
 endfacet
 facet normal -0.886309 -0.304753 0.348685
  outer loop
   vertex 0.006358 0.039905 0.014874
   vertex 0.007223 0.037101 0.014622
   vertex 0.007703 0.038578 0.017133
  endloop
 endfacet
 facet normal -0.819189 -0.412026 0.398954
  outer loop
   vertex 0.007223 0.037101 0.014622
   vertex 0.008594 0.036273 0.016582
   vertex 0.007703 0.038578 0.017133
  endloop
 endfacet
 facet normal -0.645038 -0.651744 0.398942
  outer loop
   vertex 0.008958 0.034713 0.014622
   vertex 0.010511 0.034713 0.017133
   vertex 0.008594 0.036273 0.016582
  endloop
 endfacet
 facet normal -0.578874 -0.796508 0.174584
  outer loop
   vertex 0.009952 0.03344 0.01211
   vertex 0.011358 0.033024 0.014874
   vertex 0.008958 0.034713 0.014622
  endloop
 endfacet
 facet normal -0.452705 -0.888208 -0.0783901
  outer loop
   vertex 0.01147 0.032888 0.009598
   vertex 0.01274 0.032019 0.01211
   vertex 0.009952 0.03344 0.01211
  endloop
 endfacet
 facet normal -0.563623 -0.748876 0.348589
  outer loop
   vertex 0.008958 0.034713 0.014622
   vertex 0.011358 0.033024 0.014874
   vertex 0.010511 0.034713 0.017133
  endloop
 endfacet
 facet normal -0.415138 -0.796394 0.439791
  outer loop
   vertex 0.011358 0.033024 0.014874
   vertex 0.013201 0.03344 0.017367
   vertex 0.010511 0.034713 0.017133
  endloop
 endfacet
 facet normal -0.451986 -0.886796 0.0964489
  outer loop
   vertex 0.009952 0.03344 0.01211
   vertex 0.01274 0.032019 0.01211
   vertex 0.011358 0.033024 0.014874
  endloop
 endfacet
 facet normal -0.303796 -0.934059 0.187729
  outer loop
   vertex 0.01274 0.032019 0.01211
   vertex 0.014448 0.032019 0.014874
   vertex 0.011358 0.033024 0.014874
  endloop
 endfacet
 facet normal -0.288415 -0.886769 0.361189
  outer loop
   vertex 0.011358 0.033024 0.014874
   vertex 0.014448 0.032019 0.014874
   vertex 0.013201 0.03344 0.017367
  endloop
 endfacet
 facet normal -0.132412 -0.888171 0.440021
  outer loop
   vertex 0.014448 0.032019 0.014874
   vertex 0.016126 0.032888 0.017133
   vertex 0.013201 0.03344 0.017367
  endloop
 endfacet
 facet normal -0.304389 -0.937197 -0.170322
  outer loop
   vertex 0.01147 0.032888 0.009598
   vertex 0.014278 0.031976 0.009598
   vertex 0.01274 0.032019 0.01211
  endloop
 endfacet
 facet normal -0.155824 -0.984657 -0.07855
  outer loop
   vertex 0.014278 0.031976 0.009598
   vertex 0.01583 0.03153 0.01211
   vertex 0.01274 0.032019 0.01211
  endloop
 endfacet
 facet normal -0.155583 -0.983133 0.0961419
  outer loop
   vertex 0.01274 0.032019 0.01211
   vertex 0.01583 0.03153 0.01211
   vertex 0.014448 0.032019 0.014874
  endloop
 endfacet
 facet normal 0.000555151 -0.98466 0.174481
  outer loop
   vertex 0.01583 0.03153 0.01211
   vertex 0.017382 0.031976 0.014622
   vertex 0.014448 0.032019 0.014874
  endloop
 endfacet
 facet normal 0.0161962 -0.937175 0.348485
  outer loop
   vertex 0.014448 0.032019 0.014874
   vertex 0.017382 0.031976 0.014622
   vertex 0.016126 0.032888 0.017133
  endloop
 endfacet
 facet normal 0.138975 -0.90647 0.398746
  outer loop
   vertex 0.017382 0.031976 0.014622
   vertex 0.018594 0.033024 0.016582
   vertex 0.016126 0.032888 0.017133
  endloop
 endfacet
 facet normal 0.420269 -0.815078 0.398776
  outer loop
   vertex 0.02019 0.032888 0.014622
   vertex 0.02067 0.034364 0.017133
   vertex 0.018594 0.033024 0.016582
  endloop
 endfacet
 facet normal 0.578519 -0.796783 0.174509
  outer loop
   vertex 0.021708 0.03344 0.01211
   vertex 0.022538 0.034648 0.014874
   vertex 0.02019 0.032888 0.014622
  endloop
 endfacet
 facet normal 0.704936 -0.704936 -0.0782949
  outer loop
   vertex 0.022702 0.034713 0.009598
   vertex 0.02392 0.035652 0.01211
   vertex 0.021708 0.03344 0.01211
  endloop
 endfacet
 facet normal 0.537986 -0.767602 0.348366
  outer loop
   vertex 0.02019 0.032888 0.014622
   vertex 0.022538 0.034648 0.014874
   vertex 0.02067 0.034364 0.017133
  endloop
 endfacet
 facet normal 0.629279 -0.640767 0.439803
  outer loop
   vertex 0.022538 0.034648 0.014874
   vertex 0.022712 0.03653 0.017367
   vertex 0.02067 0.034364 0.017133
  endloop
 endfacet
 facet normal 0.703824 -0.703824 0.0962537
  outer loop
   vertex 0.021708 0.03344 0.01211
   vertex 0.02392 0.035652 0.01211
   vertex 0.022538 0.034648 0.014874
  endloop
 endfacet
 facet normal 0.794662 -0.577331 0.18762
  outer loop
   vertex 0.02392 0.035652 0.01211
   vertex 0.024448 0.037277 0.014874
   vertex 0.022538 0.034648 0.014874
  endloop
 endfacet
 facet normal 0.754436 -0.548107 0.361117
  outer loop
   vertex 0.022538 0.034648 0.014874
   vertex 0.024448 0.037277 0.014874
   vertex 0.022712 0.03653 0.017367
  endloop
 endfacet
 facet normal 0.803858 -0.400541 0.439749
  outer loop
   vertex 0.024448 0.037277 0.014874
   vertex 0.024141 0.039141 0.017133
   vertex 0.022712 0.03653 0.017367
  endloop
 endfacet
 facet normal 0.797233 -0.579229 -0.170037
  outer loop
   vertex 0.022702 0.034713 0.009598
   vertex 0.024437 0.037101 0.009598
   vertex 0.02392 0.035652 0.01211
  endloop
 endfacet
 facet normal 0.888212 -0.452708 -0.078331
  outer loop
   vertex 0.024437 0.037101 0.009598
   vertex 0.025341 0.03844 0.01211
   vertex 0.02392 0.035652 0.01211
  endloop
 endfacet
 facet normal 0.886806 -0.451991 0.0963284
  outer loop
   vertex 0.02392 0.035652 0.01211
   vertex 0.025341 0.03844 0.01211
   vertex 0.024448 0.037277 0.014874
  endloop
 endfacet
 facet normal 0.93657 -0.303801 0.17476
  outer loop
   vertex 0.025341 0.03844 0.01211
   vertex 0.025396 0.040054 0.014621
   vertex 0.024448 0.037277 0.014874
  endloop
 endfacet
 facet normal 0.89641 -0.274294 0.348155
  outer loop
   vertex 0.024448 0.037277 0.014874
   vertex 0.025396 0.040054 0.014621
   vertex 0.024141 0.039141 0.017133
  endloop
 endfacet
 facet normal 0.905177 -0.147939 0.398459
  outer loop
   vertex 0.025396 0.040054 0.014621
   vertex 0.024774 0.04153 0.016582
   vertex 0.024141 0.039141 0.017133
  endloop
 endfacet
 facet normal 0.294416 0.906493 0.302638
  outer loop
   vertex 0.02019 0.050172 0.014622
   vertex 0.017382 0.051084 0.014622
   vertex 0.018594 0.050036 0.016582
  endloop
 endfacet
 facet normal 0.452705 0.888208 0.0783901
  outer loop
   vertex 0.021708 0.04962 0.01211
   vertex 0.01892 0.051041 0.01211
   vertex 0.02019 0.050172 0.014622
  endloop
 endfacet
 facet normal 0.578874 0.796508 -0.174584
  outer loop
   vertex 0.022702 0.048347 0.009598
   vertex 0.020302 0.050036 0.009346
   vertex 0.021708 0.04962 0.01211
  endloop
 endfacet
 facet normal 0.304389 0.937197 0.170322
  outer loop
   vertex 0.02019 0.050172 0.014622
   vertex 0.01892 0.051041 0.01211
   vertex 0.017382 0.051084 0.014622
  endloop
 endfacet
 facet normal 0.155824 0.984657 0.07855
  outer loop
   vertex 0.01892 0.051041 0.01211
   vertex 0.01583 0.05153 0.01211
   vertex 0.017382 0.051084 0.014622
  endloop
 endfacet
 facet normal 0.451986 0.886796 -0.0964489
  outer loop
   vertex 0.021708 0.04962 0.01211
   vertex 0.020302 0.050036 0.009346
   vertex 0.01892 0.051041 0.01211
  endloop
 endfacet
 facet normal 0.303796 0.934059 -0.187729
  outer loop
   vertex 0.020302 0.050036 0.009346
   vertex 0.017212 0.051041 0.009346
   vertex 0.01892 0.051041 0.01211
  endloop
 endfacet
 facet normal 0.155583 0.983133 -0.0961419
  outer loop
   vertex 0.01892 0.051041 0.01211
   vertex 0.017212 0.051041 0.009346
   vertex 0.01583 0.05153 0.01211
  endloop
 endfacet
 facet normal -0.000555151 0.98466 -0.174481
  outer loop
   vertex 0.017212 0.051041 0.009346
   vertex 0.014278 0.051084 0.009598
   vertex 0.01583 0.05153 0.01211
  endloop
 endfacet
 facet normal 0.563623 0.748876 -0.348589
  outer loop
   vertex 0.022702 0.048347 0.009598
   vertex 0.021149 0.048347 0.007087
   vertex 0.020302 0.050036 0.009346
  endloop
 endfacet
 facet normal 0.415138 0.796394 -0.439791
  outer loop
   vertex 0.021149 0.048347 0.007087
   vertex 0.018459 0.04962 0.006853
   vertex 0.020302 0.050036 0.009346
  endloop
 endfacet
 facet normal 0.288415 0.886769 -0.361189
  outer loop
   vertex 0.020302 0.050036 0.009346
   vertex 0.018459 0.04962 0.006853
   vertex 0.017212 0.051041 0.009346
  endloop
 endfacet
 facet normal 0.132412 0.888171 -0.440021
  outer loop
   vertex 0.018459 0.04962 0.006853
   vertex 0.015534 0.050172 0.007087
   vertex 0.017212 0.051041 0.009346
  endloop
 endfacet
 facet normal -0.0161962 0.937175 -0.348485
  outer loop
   vertex 0.017212 0.051041 0.009346
   vertex 0.015534 0.050172 0.007087
   vertex 0.014278 0.051084 0.009598
  endloop
 endfacet
 facet normal -0.138975 0.90647 -0.398746
  outer loop
   vertex 0.015534 0.050172 0.007087
   vertex 0.013066 0.050036 0.007638
   vertex 0.014278 0.051084 0.009598
  endloop
 endfacet
 facet normal -0.771063 0.560215 0.302688
  outer loop
   vertex 0.008958 0.048347 0.014622
   vertex 0.007223 0.045959 0.014622
   vertex 0.008594 0.046787 0.016582
  endloop
 endfacet
 facet normal -0.704936 0.704936 0.0782949
  outer loop
   vertex 0.009952 0.04962 0.01211
   vertex 0.00774 0.047408 0.01211
   vertex 0.008958 0.048347 0.014622
  endloop
 endfacet
 facet normal -0.578519 0.796783 -0.174509
  outer loop
   vertex 0.01147 0.050172 0.009598
   vertex 0.009122 0.048412 0.009346
   vertex 0.009952 0.04962 0.01211
  endloop
 endfacet
 facet normal -0.797233 0.579229 0.170037
  outer loop
   vertex 0.008958 0.048347 0.014622
   vertex 0.00774 0.047408 0.01211
   vertex 0.007223 0.045959 0.014622
  endloop
 endfacet
 facet normal -0.888212 0.452708 0.078331
  outer loop
   vertex 0.00774 0.047408 0.01211
   vertex 0.006319 0.04462 0.01211
   vertex 0.007223 0.045959 0.014622
  endloop
 endfacet
 facet normal -0.703824 0.703824 -0.0962537
  outer loop
   vertex 0.009952 0.04962 0.01211
   vertex 0.009122 0.048412 0.009346
   vertex 0.00774 0.047408 0.01211
  endloop
 endfacet
 facet normal -0.794662 0.577331 -0.18762
  outer loop
   vertex 0.009122 0.048412 0.009346
   vertex 0.007212 0.045783 0.009346
   vertex 0.00774 0.047408 0.01211
  endloop
 endfacet
 facet normal -0.886806 0.451991 -0.0963284
  outer loop
   vertex 0.00774 0.047408 0.01211
   vertex 0.007212 0.045783 0.009346
   vertex 0.006319 0.04462 0.01211
  endloop
 endfacet
 facet normal -0.93657 0.303801 -0.17476
  outer loop
   vertex 0.007212 0.045783 0.009346
   vertex 0.006264 0.043006 0.009599
   vertex 0.006319 0.04462 0.01211
  endloop
 endfacet
 facet normal -0.537986 0.767602 -0.348366
  outer loop
   vertex 0.01147 0.050172 0.009598
   vertex 0.01099 0.048696 0.007087
   vertex 0.009122 0.048412 0.009346
  endloop
 endfacet
 facet normal -0.629279 0.640767 -0.439803
  outer loop
   vertex 0.01099 0.048696 0.007087
   vertex 0.008948 0.04653 0.006853
   vertex 0.009122 0.048412 0.009346
  endloop
 endfacet
 facet normal -0.754436 0.548107 -0.361117
  outer loop
   vertex 0.009122 0.048412 0.009346
   vertex 0.008948 0.04653 0.006853
   vertex 0.007212 0.045783 0.009346
  endloop
 endfacet
 facet normal -0.803858 0.400541 -0.439749
  outer loop
   vertex 0.008948 0.04653 0.006853
   vertex 0.007519 0.043919 0.007087
   vertex 0.007212 0.045783 0.009346
  endloop
 endfacet
 facet normal -0.89641 0.274294 -0.348155
  outer loop
   vertex 0.007212 0.045783 0.009346
   vertex 0.007519 0.043919 0.007087
   vertex 0.006264 0.043006 0.009599
  endloop
 endfacet
 facet normal -0.905177 0.147939 -0.398459
  outer loop
   vertex 0.007519 0.043919 0.007087
   vertex 0.006886 0.04153 0.007638
   vertex 0.006264 0.043006 0.009599
  endloop
 endfacet
 facet normal -0.771063 -0.560215 0.302688
  outer loop
   vertex 0.007223 0.037101 0.014622
   vertex 0.008958 0.034713 0.014622
   vertex 0.008594 0.036273 0.016582
  endloop
 endfacet
 facet normal -0.888212 -0.452708 0.078331
  outer loop
   vertex 0.006319 0.03844 0.01211
   vertex 0.00774 0.035652 0.01211
   vertex 0.007223 0.037101 0.014622
  endloop
 endfacet
 facet normal -0.93657 -0.303801 -0.17476
  outer loop
   vertex 0.006264 0.040054 0.009599
   vertex 0.007212 0.037277 0.009346
   vertex 0.006319 0.03844 0.01211
  endloop
 endfacet
 facet normal -0.797233 -0.579229 0.170037
  outer loop
   vertex 0.007223 0.037101 0.014622
   vertex 0.00774 0.035652 0.01211
   vertex 0.008958 0.034713 0.014622
  endloop
 endfacet
 facet normal -0.704936 -0.704936 0.0782949
  outer loop
   vertex 0.00774 0.035652 0.01211
   vertex 0.009952 0.03344 0.01211
   vertex 0.008958 0.034713 0.014622
  endloop
 endfacet
 facet normal -0.886806 -0.451991 -0.0963284
  outer loop
   vertex 0.006319 0.03844 0.01211
   vertex 0.007212 0.037277 0.009346
   vertex 0.00774 0.035652 0.01211
  endloop
 endfacet
 facet normal -0.794662 -0.577331 -0.18762
  outer loop
   vertex 0.007212 0.037277 0.009346
   vertex 0.009122 0.034648 0.009346
   vertex 0.00774 0.035652 0.01211
  endloop
 endfacet
 facet normal -0.703824 -0.703824 -0.0962537
  outer loop
   vertex 0.00774 0.035652 0.01211
   vertex 0.009122 0.034648 0.009346
   vertex 0.009952 0.03344 0.01211
  endloop
 endfacet
 facet normal -0.578519 -0.796783 -0.174509
  outer loop
   vertex 0.009122 0.034648 0.009346
   vertex 0.01147 0.032888 0.009598
   vertex 0.009952 0.03344 0.01211
  endloop
 endfacet
 facet normal -0.89641 -0.274294 -0.348155
  outer loop
   vertex 0.006264 0.040054 0.009599
   vertex 0.007519 0.039141 0.007087
   vertex 0.007212 0.037277 0.009346
  endloop
 endfacet
 facet normal -0.803858 -0.400541 -0.439749
  outer loop
   vertex 0.007519 0.039141 0.007087
   vertex 0.008948 0.03653 0.006853
   vertex 0.007212 0.037277 0.009346
  endloop
 endfacet
 facet normal -0.754436 -0.548107 -0.361117
  outer loop
   vertex 0.007212 0.037277 0.009346
   vertex 0.008948 0.03653 0.006853
   vertex 0.009122 0.034648 0.009346
  endloop
 endfacet
 facet normal -0.629279 -0.640767 -0.439803
  outer loop
   vertex 0.008948 0.03653 0.006853
   vertex 0.01099 0.034364 0.007087
   vertex 0.009122 0.034648 0.009346
  endloop
 endfacet
 facet normal -0.537986 -0.767602 -0.348366
  outer loop
   vertex 0.009122 0.034648 0.009346
   vertex 0.01099 0.034364 0.007087
   vertex 0.01147 0.032888 0.009598
  endloop
 endfacet
 facet normal -0.420269 -0.815078 -0.398776
  outer loop
   vertex 0.01099 0.034364 0.007087
   vertex 0.013066 0.033024 0.007638
   vertex 0.01147 0.032888 0.009598
  endloop
 endfacet
 facet normal 0.294416 -0.906493 0.302638
  outer loop
   vertex 0.017382 0.031976 0.014622
   vertex 0.02019 0.032888 0.014622
   vertex 0.018594 0.033024 0.016582
  endloop
 endfacet
 facet normal 0.155824 -0.984657 0.07855
  outer loop
   vertex 0.01583 0.03153 0.01211
   vertex 0.01892 0.032019 0.01211
   vertex 0.017382 0.031976 0.014622
  endloop
 endfacet
 facet normal -0.000555151 -0.98466 -0.174481
  outer loop
   vertex 0.014278 0.031976 0.009598
   vertex 0.017212 0.032019 0.009346
   vertex 0.01583 0.03153 0.01211
  endloop
 endfacet
 facet normal 0.304389 -0.937197 0.170322
  outer loop
   vertex 0.017382 0.031976 0.014622
   vertex 0.01892 0.032019 0.01211
   vertex 0.02019 0.032888 0.014622
  endloop
 endfacet
 facet normal 0.452705 -0.888208 0.0783901
  outer loop
   vertex 0.01892 0.032019 0.01211
   vertex 0.021708 0.03344 0.01211
   vertex 0.02019 0.032888 0.014622
  endloop
 endfacet
 facet normal 0.155583 -0.983133 -0.0961419
  outer loop
   vertex 0.01583 0.03153 0.01211
   vertex 0.017212 0.032019 0.009346
   vertex 0.01892 0.032019 0.01211
  endloop
 endfacet
 facet normal 0.303796 -0.934059 -0.187729
  outer loop
   vertex 0.017212 0.032019 0.009346
   vertex 0.020302 0.033024 0.009346
   vertex 0.01892 0.032019 0.01211
  endloop
 endfacet
 facet normal 0.451986 -0.886796 -0.0964489
  outer loop
   vertex 0.01892 0.032019 0.01211
   vertex 0.020302 0.033024 0.009346
   vertex 0.021708 0.03344 0.01211
  endloop
 endfacet
 facet normal 0.578874 -0.796508 -0.174584
  outer loop
   vertex 0.020302 0.033024 0.009346
   vertex 0.022702 0.034713 0.009598
   vertex 0.021708 0.03344 0.01211
  endloop
 endfacet
 facet normal -0.0161962 -0.937175 -0.348485
  outer loop
   vertex 0.014278 0.031976 0.009598
   vertex 0.015534 0.032888 0.007087
   vertex 0.017212 0.032019 0.009346
  endloop
 endfacet
 facet normal 0.132412 -0.888171 -0.440021
  outer loop
   vertex 0.015534 0.032888 0.007087
   vertex 0.018459 0.03344 0.006853
   vertex 0.017212 0.032019 0.009346
  endloop
 endfacet
 facet normal 0.288415 -0.886769 -0.361189
  outer loop
   vertex 0.017212 0.032019 0.009346
   vertex 0.018459 0.03344 0.006853
   vertex 0.020302 0.033024 0.009346
  endloop
 endfacet
 facet normal 0.415138 -0.796394 -0.439791
  outer loop
   vertex 0.018459 0.03344 0.006853
   vertex 0.021149 0.034713 0.007087
   vertex 0.020302 0.033024 0.009346
  endloop
 endfacet
 facet normal 0.563623 -0.748876 -0.348589
  outer loop
   vertex 0.020302 0.033024 0.009346
   vertex 0.021149 0.034713 0.007087
   vertex 0.022702 0.034713 0.009598
  endloop
 endfacet
 facet normal 0.645038 -0.651744 -0.398942
  outer loop
   vertex 0.021149 0.034713 0.007087
   vertex 0.023066 0.036273 0.007638
   vertex 0.022702 0.034713 0.009598
  endloop
 endfacet
 facet normal 0.9532 -0 0.302341
  outer loop
   vertex 0.025396 0.040054 0.014621
   vertex 0.025396 0.043006 0.014621
   vertex 0.024774 0.04153 0.016582
  endloop
 endfacet
 facet normal 0.984653 -0.155824 0.0785916
  outer loop
   vertex 0.025341 0.03844 0.01211
   vertex 0.02583 0.04153 0.01211
   vertex 0.025396 0.040054 0.014621
  endloop
 endfacet
 facet normal 0.936352 -0.304548 -0.174631
  outer loop
   vertex 0.024437 0.037101 0.009598
   vertex 0.025302 0.039905 0.009346
   vertex 0.025341 0.03844 0.01211
  endloop
 endfacet
 facet normal 0.98539 -0 0.170314
  outer loop
   vertex 0.025396 0.040054 0.014621
   vertex 0.02583 0.04153 0.01211
   vertex 0.025396 0.043006 0.014621
  endloop
 endfacet
 facet normal 0.984653 0.155824 0.0785916
  outer loop
   vertex 0.02583 0.04153 0.01211
   vertex 0.025341 0.04462 0.01211
   vertex 0.025396 0.043006 0.014621
  endloop
 endfacet
 facet normal 0.983115 -0.15558 -0.0963335
  outer loop
   vertex 0.025341 0.03844 0.01211
   vertex 0.025302 0.039905 0.009346
   vertex 0.02583 0.04153 0.01211
  endloop
 endfacet
 facet normal 0.982239 0 -0.187634
  outer loop
   vertex 0.025302 0.039905 0.009346
   vertex 0.025302 0.043155 0.009346
   vertex 0.02583 0.04153 0.01211
  endloop
 endfacet
 facet normal 0.983115 0.15558 -0.0963335
  outer loop
   vertex 0.02583 0.04153 0.01211
   vertex 0.025302 0.043155 0.009346
   vertex 0.025341 0.04462 0.01211
  endloop
 endfacet
 facet normal 0.936352 0.304548 -0.174631
  outer loop
   vertex 0.025302 0.043155 0.009346
   vertex 0.024437 0.045959 0.009598
   vertex 0.025341 0.04462 0.01211
  endloop
 endfacet
 facet normal 0.886309 -0.304753 -0.348685
  outer loop
   vertex 0.024437 0.037101 0.009598
   vertex 0.023957 0.038578 0.007087
   vertex 0.025302 0.039905 0.009346
  endloop
 endfacet
 facet normal 0.885615 -0.148581 -0.440011
  outer loop
   vertex 0.023957 0.038578 0.007087
   vertex 0.024336 0.04153 0.006853
   vertex 0.025302 0.039905 0.009346
  endloop
 endfacet
 facet normal 0.932446 0 -0.361309
  outer loop
   vertex 0.025302 0.039905 0.009346
   vertex 0.024336 0.04153 0.006853
   vertex 0.025302 0.043155 0.009346
  endloop
 endfacet
 facet normal 0.885615 0.148581 -0.440011
  outer loop
   vertex 0.024336 0.04153 0.006853
   vertex 0.023957 0.044482 0.007087
   vertex 0.025302 0.043155 0.009346
  endloop
 endfacet
 facet normal 0.886309 0.304753 -0.348685
  outer loop
   vertex 0.025302 0.043155 0.009346
   vertex 0.023957 0.044482 0.007087
   vertex 0.024437 0.045959 0.009598
  endloop
 endfacet
 facet normal 0.819189 0.412026 -0.398954
  outer loop
   vertex 0.023957 0.044482 0.007087
   vertex 0.023066 0.046787 0.007638
   vertex 0.024437 0.045959 0.009598
  endloop
 endfacet
 facet normal 0.61533 0.560308 -0.554459
  outer loop
   vertex 0.021925 0.045959 0.005535
   vertex 0.021149 0.048347 0.007087
   vertex 0.023066 0.046787 0.007638
  endloop
 endfacet
 facet normal 0.467426 0.452641 -0.759361
  outer loop
   vertex 0.020083 0.04462 0.003603
   vertex 0.019448 0.047408 0.004874
   vertex 0.021925 0.045959 0.005535
  endloop
 endfacet
 facet normal 0.262485 0.303841 -0.915851
  outer loop
   vertex 0.017862 0.043006 0.002431
   vertex 0.017212 0.045783 0.003166
   vertex 0.020083 0.04462 0.003603
  endloop
 endfacet
 facet normal 0.508799 0.579247 -0.636864
  outer loop
   vertex 0.021925 0.045959 0.005535
   vertex 0.019448 0.047408 0.004874
   vertex 0.021149 0.048347 0.007087
  endloop
 endfacet
 facet normal 0.38541 0.704977 -0.595371
  outer loop
   vertex 0.019448 0.047408 0.004874
   vertex 0.018459 0.04962 0.006853
   vertex 0.021149 0.048347 0.007087
  endloop
 endfacet
 facet normal 0.310374 0.451949 -0.836307
  outer loop
   vertex 0.020083 0.04462 0.003603
   vertex 0.017212 0.045783 0.003166
   vertex 0.019448 0.047408 0.004874
  endloop
 endfacet
 facet normal 0.187559 0.577248 -0.794737
  outer loop
   vertex 0.017212 0.045783 0.003166
   vertex 0.016358 0.048412 0.004874
   vertex 0.019448 0.047408 0.004874
  endloop
 endfacet
 facet normal 0.228709 0.703897 -0.672474
  outer loop
   vertex 0.019448 0.047408 0.004874
   vertex 0.016358 0.048412 0.004874
   vertex 0.018459 0.04962 0.006853
  endloop
 endfacet
 facet normal 0.102735 0.796801 -0.595444
  outer loop
   vertex 0.016358 0.048412 0.004874
   vertex 0.015534 0.050172 0.007087
   vertex 0.018459 0.04962 0.006853
  endloop
 endfacet
 facet normal 0.0891868 0.274301 -0.957499
  outer loop
   vertex 0.017862 0.043006 0.002431
   vertex 0.015054 0.043919 0.002431
   vertex 0.017212 0.045783 0.003166
  endloop
 endfacet
 facet normal -0.0336945 0.400135 -0.915836
  outer loop
   vertex 0.015054 0.043919 0.002431
   vertex 0.014205 0.04653 0.003603
   vertex 0.017212 0.045783 0.003166
  endloop
 endfacet
 facet normal 0.0146149 0.548074 -0.836302
  outer loop
   vertex 0.017212 0.045783 0.003166
   vertex 0.014205 0.04653 0.003603
   vertex 0.016358 0.048412 0.004874
  endloop
 endfacet
 facet normal -0.112009 0.640965 -0.759354
  outer loop
   vertex 0.014205 0.04653 0.003603
   vertex 0.013502 0.048696 0.005535
   vertex 0.016358 0.048412 0.004874
  endloop
 endfacet
 facet normal -0.0710868 0.767617 -0.636955
  outer loop
   vertex 0.016358 0.048412 0.004874
   vertex 0.013502 0.048696 0.005535
   vertex 0.015534 0.050172 0.007087
  endloop
 endfacet
 facet normal -0.168666 0.815046 -0.554303
  outer loop
   vertex 0.013502 0.048696 0.005535
   vertex 0.013066 0.050036 0.007638
   vertex 0.015534 0.050172 0.007087
  endloop
 endfacet
 facet normal -0.342493 0.758552 -0.554344
  outer loop
   vertex 0.013502 0.048696 0.005535
   vertex 0.01099 0.048696 0.007087
   vertex 0.013066 0.050036 0.007638
  endloop
 endfacet
 facet normal -0.286233 0.584386 -0.759318
  outer loop
   vertex 0.014205 0.04653 0.003603
   vertex 0.011358 0.046787 0.004874
   vertex 0.013502 0.048696 0.005535
  endloop
 endfacet
 facet normal -0.207851 0.343516 -0.915858
  outer loop
   vertex 0.015054 0.043919 0.002431
   vertex 0.012212 0.044159 0.003166
   vertex 0.014205 0.04653 0.003603
  endloop
 endfacet
 facet normal -0.393627 0.662685 -0.637108
  outer loop
   vertex 0.013502 0.048696 0.005535
   vertex 0.011358 0.046787 0.004874
   vertex 0.01099 0.048696 0.007087
  endloop
 endfacet
 facet normal -0.551379 0.584158 -0.595601
  outer loop
   vertex 0.011358 0.046787 0.004874
   vertex 0.008948 0.04653 0.006853
   vertex 0.01099 0.048696 0.007087
  endloop
 endfacet
 facet normal -0.334054 0.43492 -0.836213
  outer loop
   vertex 0.014205 0.04653 0.003603
   vertex 0.012212 0.044159 0.003166
   vertex 0.011358 0.046787 0.004874
  endloop
 endfacet
 facet normal -0.491058 0.356895 -0.794662
  outer loop
   vertex 0.012212 0.044159 0.003166
   vertex 0.009448 0.044159 0.004874
   vertex 0.011358 0.046787 0.004874
  endloop
 endfacet
 facet normal -0.598657 0.435097 -0.672533
  outer loop
   vertex 0.011358 0.046787 0.004874
   vertex 0.009448 0.044159 0.004874
   vertex 0.008948 0.04653 0.006853
  endloop
 endfacet
 facet normal -0.725985 0.343961 -0.595514
  outer loop
   vertex 0.009448 0.044159 0.004874
   vertex 0.007519 0.043919 0.007087
   vertex 0.008948 0.04653 0.006853
  endloop
 endfacet
 facet normal -0.233325 0.169451 -0.957521
  outer loop
   vertex 0.015054 0.043919 0.002431
   vertex 0.013319 0.04153 0.002431
   vertex 0.012212 0.044159 0.003166
  endloop
 endfacet
 facet normal -0.390899 0.0914587 -0.915878
  outer loop
   vertex 0.013319 0.04153 0.002431
   vertex 0.010573 0.04153 0.003603
   vertex 0.012212 0.044159 0.003166
  endloop
 endfacet
 facet normal -0.516783 0.183167 -0.836293
  outer loop
   vertex 0.012212 0.044159 0.003166
   vertex 0.010573 0.04153 0.003603
   vertex 0.009448 0.044159 0.004874
  endloop
 endfacet
 facet normal -0.644269 0.0913996 -0.759317
  outer loop
   vertex 0.010573 0.04153 0.003603
   vertex 0.008296 0.04153 0.005535
   vertex 0.009448 0.044159 0.004874
  endloop
 endfacet
 facet normal -0.751958 0.169318 -0.637095
  outer loop
   vertex 0.009448 0.044159 0.004874
   vertex 0.008296 0.04153 0.005535
   vertex 0.007519 0.043919 0.007087
  endloop
 endfacet
 facet normal -0.827124 0.091254 -0.554562
  outer loop
   vertex 0.008296 0.04153 0.005535
   vertex 0.006886 0.04153 0.007638
   vertex 0.007519 0.043919 0.007087
  endloop
 endfacet
 facet normal -0.827124 -0.091254 -0.554562
  outer loop
   vertex 0.008296 0.04153 0.005535
   vertex 0.007519 0.039141 0.007087
   vertex 0.006886 0.04153 0.007638
  endloop
 endfacet
 facet normal -0.644269 -0.0913996 -0.759317
  outer loop
   vertex 0.010573 0.04153 0.003603
   vertex 0.009448 0.038901 0.004874
   vertex 0.008296 0.04153 0.005535
  endloop
 endfacet
 facet normal -0.390899 -0.0914587 -0.915878
  outer loop
   vertex 0.013319 0.04153 0.002431
   vertex 0.012212 0.038901 0.003166
   vertex 0.010573 0.04153 0.003603
  endloop
 endfacet
 facet normal -0.751958 -0.169318 -0.637095
  outer loop
   vertex 0.008296 0.04153 0.005535
   vertex 0.009448 0.038901 0.004874
   vertex 0.007519 0.039141 0.007087
  endloop
 endfacet
 facet normal -0.725985 -0.343961 -0.595514
  outer loop
   vertex 0.009448 0.038901 0.004874
   vertex 0.008948 0.03653 0.006853
   vertex 0.007519 0.039141 0.007087
  endloop
 endfacet
 facet normal -0.516783 -0.183167 -0.836293
  outer loop
   vertex 0.010573 0.04153 0.003603
   vertex 0.012212 0.038901 0.003166
   vertex 0.009448 0.038901 0.004874
  endloop
 endfacet
 facet normal -0.491058 -0.356895 -0.794662
  outer loop
   vertex 0.012212 0.038901 0.003166
   vertex 0.011358 0.036273 0.004874
   vertex 0.009448 0.038901 0.004874
  endloop
 endfacet
 facet normal -0.598657 -0.435097 -0.672533
  outer loop
   vertex 0.009448 0.038901 0.004874
   vertex 0.011358 0.036273 0.004874
   vertex 0.008948 0.03653 0.006853
  endloop
 endfacet
 facet normal -0.551379 -0.584158 -0.595601
  outer loop
   vertex 0.011358 0.036273 0.004874
   vertex 0.01099 0.034364 0.007087
   vertex 0.008948 0.03653 0.006853
  endloop
 endfacet
 facet normal -0.233325 -0.169451 -0.957521
  outer loop
   vertex 0.013319 0.04153 0.002431
   vertex 0.015054 0.039141 0.002431
   vertex 0.012212 0.038901 0.003166
  endloop
 endfacet
 facet normal -0.207851 -0.343516 -0.915858
  outer loop
   vertex 0.015054 0.039141 0.002431
   vertex 0.014205 0.03653 0.003603
   vertex 0.012212 0.038901 0.003166
  endloop
 endfacet
 facet normal -0.334054 -0.43492 -0.836213
  outer loop
   vertex 0.012212 0.038901 0.003166
   vertex 0.014205 0.03653 0.003603
   vertex 0.011358 0.036273 0.004874
  endloop
 endfacet
 facet normal -0.286233 -0.584386 -0.759318
  outer loop
   vertex 0.014205 0.03653 0.003603
   vertex 0.013502 0.034364 0.005535
   vertex 0.011358 0.036273 0.004874
  endloop
 endfacet
 facet normal -0.393627 -0.662685 -0.637108
  outer loop
   vertex 0.011358 0.036273 0.004874
   vertex 0.013502 0.034364 0.005535
   vertex 0.01099 0.034364 0.007087
  endloop
 endfacet
 facet normal -0.342493 -0.758552 -0.554344
  outer loop
   vertex 0.013502 0.034364 0.005535
   vertex 0.013066 0.033024 0.007638
   vertex 0.01099 0.034364 0.007087
  endloop
 endfacet
 facet normal 0.723015 0.412034 -0.554506
  outer loop
   vertex 0.023957 0.044482 0.007087
   vertex 0.021925 0.045959 0.005535
   vertex 0.023066 0.046787 0.007638
  endloop
 endfacet
 facet normal 0.789589 0.148568 -0.59538
  outer loop
   vertex 0.024336 0.04153 0.006853
   vertex 0.022538 0.043155 0.004874
   vertex 0.023957 0.044482 0.007087
  endloop
 endfacet
 facet normal 0.789589 -0.148568 -0.59538
  outer loop
   vertex 0.023957 0.038578 0.007087
   vertex 0.022538 0.039905 0.004874
   vertex 0.024336 0.04153 0.006853
  endloop
 endfacet
 facet normal 0.708089 0.304936 -0.636886
  outer loop
   vertex 0.023957 0.044482 0.007087
   vertex 0.022538 0.043155 0.004874
   vertex 0.021925 0.045959 0.005535
  endloop
 endfacet
 facet normal 0.574948 0.304695 -0.759339
  outer loop
   vertex 0.022538 0.043155 0.004874
   vertex 0.020083 0.04462 0.003603
   vertex 0.021925 0.045959 0.005535
  endloop
 endfacet
 facet normal 0.740143 0 -0.672449
  outer loop
   vertex 0.024336 0.04153 0.006853
   vertex 0.022538 0.039905 0.004874
   vertex 0.022538 0.043155 0.004874
  endloop
 endfacet
 facet normal 0.607028 0 -0.794681
  outer loop
   vertex 0.022538 0.039905 0.004874
   vertex 0.020302 0.04153 0.003166
   vertex 0.022538 0.043155 0.004874
  endloop
 endfacet
 facet normal 0.525774 0.155534 -0.836284
  outer loop
   vertex 0.022538 0.043155 0.004874
   vertex 0.020302 0.04153 0.003166
   vertex 0.020083 0.04462 0.003603
  endloop
 endfacet
 facet normal 0.370096 0.155752 -0.915844
  outer loop
   vertex 0.020302 0.04153 0.003166
   vertex 0.017862 0.043006 0.002431
   vertex 0.020083 0.04462 0.003603
  endloop
 endfacet
 facet normal 0.708089 -0.304936 -0.636886
  outer loop
   vertex 0.023957 0.038578 0.007087
   vertex 0.021925 0.037101 0.005535
   vertex 0.022538 0.039905 0.004874
  endloop
 endfacet
 facet normal 0.574948 -0.304695 -0.759339
  outer loop
   vertex 0.021925 0.037101 0.005535
   vertex 0.020083 0.03844 0.003603
   vertex 0.022538 0.039905 0.004874
  endloop
 endfacet
 facet normal 0.525774 -0.155534 -0.836284
  outer loop
   vertex 0.022538 0.039905 0.004874
   vertex 0.020083 0.03844 0.003603
   vertex 0.020302 0.04153 0.003166
  endloop
 endfacet
 facet normal 0.370096 -0.155752 -0.915844
  outer loop
   vertex 0.020083 0.03844 0.003603
   vertex 0.017862 0.040054 0.002431
   vertex 0.020302 0.04153 0.003166
  endloop
 endfacet
 facet normal 0.288428 0 -0.957502
  outer loop
   vertex 0.020302 0.04153 0.003166
   vertex 0.017862 0.040054 0.002431
   vertex 0.017862 0.043006 0.002431
  endloop
 endfacet
 facet normal 0.156037 0 -0.987751
  outer loop
   vertex 0.017862 0.040054 0.002431
   vertex 0.01583 0.04153 0.00211
   vertex 0.017862 0.043006 0.002431
  endloop
 endfacet
 facet normal -0.168666 -0.815046 -0.554303
  outer loop
   vertex 0.013502 0.034364 0.005535
   vertex 0.015534 0.032888 0.007087
   vertex 0.013066 0.033024 0.007638
  endloop
 endfacet
 facet normal -0.112009 -0.640965 -0.759354
  outer loop
   vertex 0.014205 0.03653 0.003603
   vertex 0.016358 0.034648 0.004874
   vertex 0.013502 0.034364 0.005535
  endloop
 endfacet
 facet normal -0.0336945 -0.400135 -0.915836
  outer loop
   vertex 0.015054 0.039141 0.002431
   vertex 0.017212 0.037277 0.003166
   vertex 0.014205 0.03653 0.003603
  endloop
 endfacet
 facet normal -0.0710868 -0.767617 -0.636955
  outer loop
   vertex 0.013502 0.034364 0.005535
   vertex 0.016358 0.034648 0.004874
   vertex 0.015534 0.032888 0.007087
  endloop
 endfacet
 facet normal 0.102735 -0.796801 -0.595444
  outer loop
   vertex 0.016358 0.034648 0.004874
   vertex 0.018459 0.03344 0.006853
   vertex 0.015534 0.032888 0.007087
  endloop
 endfacet
 facet normal 0.0146149 -0.548074 -0.836302
  outer loop
   vertex 0.014205 0.03653 0.003603
   vertex 0.017212 0.037277 0.003166
   vertex 0.016358 0.034648 0.004874
  endloop
 endfacet
 facet normal 0.187559 -0.577248 -0.794737
  outer loop
   vertex 0.017212 0.037277 0.003166
   vertex 0.019448 0.035652 0.004874
   vertex 0.016358 0.034648 0.004874
  endloop
 endfacet
 facet normal 0.228709 -0.703897 -0.672474
  outer loop
   vertex 0.016358 0.034648 0.004874
   vertex 0.019448 0.035652 0.004874
   vertex 0.018459 0.03344 0.006853
  endloop
 endfacet
 facet normal 0.38541 -0.704977 -0.595371
  outer loop
   vertex 0.019448 0.035652 0.004874
   vertex 0.021149 0.034713 0.007087
   vertex 0.018459 0.03344 0.006853
  endloop
 endfacet
 facet normal 0.0891868 -0.274301 -0.957499
  outer loop
   vertex 0.015054 0.039141 0.002431
   vertex 0.017862 0.040054 0.002431
   vertex 0.017212 0.037277 0.003166
  endloop
 endfacet
 facet normal 0.262485 -0.303841 -0.915851
  outer loop
   vertex 0.017862 0.040054 0.002431
   vertex 0.020083 0.03844 0.003603
   vertex 0.017212 0.037277 0.003166
  endloop
 endfacet
 facet normal 0.310374 -0.451949 -0.836307
  outer loop
   vertex 0.017212 0.037277 0.003166
   vertex 0.020083 0.03844 0.003603
   vertex 0.019448 0.035652 0.004874
  endloop
 endfacet
 facet normal 0.467426 -0.452641 -0.759361
  outer loop
   vertex 0.020083 0.03844 0.003603
   vertex 0.021925 0.037101 0.005535
   vertex 0.019448 0.035652 0.004874
  endloop
 endfacet
 facet normal 0.508799 -0.579247 -0.636864
  outer loop
   vertex 0.019448 0.035652 0.004874
   vertex 0.021925 0.037101 0.005535
   vertex 0.021149 0.034713 0.007087
  endloop
 endfacet
 facet normal 0.61533 -0.560308 -0.554459
  outer loop
   vertex 0.021925 0.037101 0.005535
   vertex 0.023066 0.036273 0.007638
   vertex 0.021149 0.034713 0.007087
  endloop
 endfacet
endsolid ExportedfromBlender-3.5.1
