solid ExportedfromBlender-3.5.1
 facet normal 0.0482486 -0.148392 -0.987751
  outer loop
   vertex -0.00904 0.09806 0.01356
   vertex -0.007008 0.096584 0.013881
   vertex -0.009816 0.095671 0.013881
  endloop
 endfacet
 facet normal 0.723015 -0.412034 -0.554506
  outer loop
   vertex -0.001804 0.092803 0.019088
   vertex -0.002945 0.093631 0.016985
   vertex -0.000913 0.095108 0.018537
  endloop
 endfacet
 facet normal -0.126271 -0.0917039 -0.987748
  outer loop
   vertex -0.00904 0.09806 0.01356
   vertex -0.009816 0.095671 0.013881
   vertex -0.011551 0.09806 0.013881
  endloop
 endfacet
 facet normal -0.126271 0.0917039 -0.987748
  outer loop
   vertex -0.00904 0.09806 0.01356
   vertex -0.011551 0.09806 0.013881
   vertex -0.009816 0.100449 0.013881
  endloop
 endfacet
 facet normal 0.0482486 0.148392 -0.987751
  outer loop
   vertex -0.00904 0.09806 0.01356
   vertex -0.009816 0.100449 0.013881
   vertex -0.007008 0.099536 0.013881
  endloop
 endfacet
 facet normal 0.819189 -0.412026 -0.398954
  outer loop
   vertex -0.001804 0.092803 0.019088
   vertex -0.000913 0.095108 0.018537
   vertex -0.000433 0.093631 0.021048
  endloop
 endfacet
 facet normal -0.138975 -0.90647 -0.398746
  outer loop
   vertex -0.011804 0.089554 0.019088
   vertex -0.009336 0.089418 0.018537
   vertex -0.010592 0.088506 0.021048
  endloop
 endfacet
 facet normal -0.905177 -0.147939 -0.398459
  outer loop
   vertex -0.017984 0.09806 0.019088
   vertex -0.017351 0.095671 0.018537
   vertex -0.018606 0.096584 0.021049
  endloop
 endfacet
 facet normal -0.420269 0.815078 -0.398776
  outer loop
   vertex -0.011804 0.106566 0.019088
   vertex -0.01388 0.105226 0.018537
   vertex -0.0134 0.106702 0.021048
  endloop
 endfacet
 facet normal 0.645038 0.651744 -0.398942
  outer loop
   vertex -0.001804 0.103317 0.019088
   vertex -0.003721 0.104877 0.018537
   vertex -0.002168 0.104877 0.021048
  endloop
 endfacet
 facet normal 0.771063 -0.560215 -0.302688
  outer loop
   vertex -0.001804 0.092803 0.019088
   vertex -0.000433 0.093631 0.021048
   vertex -0.002168 0.091243 0.021048
  endloop
 endfacet
 facet normal -0.294416 -0.906493 -0.302638
  outer loop
   vertex -0.011804 0.089554 0.019088
   vertex -0.010592 0.088506 0.021048
   vertex -0.0134 0.089418 0.021048
  endloop
 endfacet
 facet normal -0.9532 0 -0.302341
  outer loop
   vertex -0.017984 0.09806 0.019088
   vertex -0.018606 0.096584 0.021049
   vertex -0.018606 0.099536 0.021049
  endloop
 endfacet
 facet normal -0.294416 0.906493 -0.302638
  outer loop
   vertex -0.011804 0.106566 0.019088
   vertex -0.0134 0.106702 0.021048
   vertex -0.010592 0.107614 0.021048
  endloop
 endfacet
 facet normal 0.771063 0.560215 -0.302688
  outer loop
   vertex -0.001804 0.103317 0.019088
   vertex -0.002168 0.104877 0.021048
   vertex -0.000433 0.102489 0.021048
  endloop
 endfacet
 facet normal 0.342493 -0.758552 0.554344
  outer loop
   vertex -0.006276 0.089554 0.028032
   vertex -0.0042 0.090894 0.028583
   vertex -0.006712 0.090894 0.030135
  endloop
 endfacet
 facet normal -0.61533 -0.560308 0.554459
  outer loop
   vertex -0.016276 0.092803 0.028032
   vertex -0.014359 0.091243 0.028583
   vertex -0.015135 0.093631 0.030135
  endloop
 endfacet
 facet normal -0.723015 0.412034 0.554506
  outer loop
   vertex -0.016276 0.103317 0.028032
   vertex -0.017167 0.101012 0.028583
   vertex -0.015135 0.102489 0.030135
  endloop
 endfacet
 facet normal 0.168666 0.815046 0.554303
  outer loop
   vertex -0.006276 0.106566 0.028032
   vertex -0.008744 0.106702 0.028583
   vertex -0.006712 0.105226 0.030135
  endloop
 endfacet
 facet normal 0.827124 0.091254 0.554562
  outer loop
   vertex -9.59999e-05 0.09806 0.028032
   vertex -0.000729 0.100449 0.028583
   vertex -0.001506 0.09806 0.030135
  endloop
 endfacet
 facet normal 0.126271 0.0917039 0.987748
  outer loop
   vertex -0.006529 0.09806 0.033239
   vertex -0.008264 0.100449 0.033239
   vertex -0.00904 0.09806 0.03356
  endloop
 endfacet
 facet normal 0.390899 0.0914587 0.915878
  outer loop
   vertex -0.003783 0.09806 0.032067
   vertex -0.005422 0.100689 0.032504
   vertex -0.006529 0.09806 0.033239
  endloop
 endfacet
 facet normal 0.644269 0.0913996 0.759317
  outer loop
   vertex -0.001506 0.09806 0.030135
   vertex -0.002658 0.100689 0.030796
   vertex -0.003783 0.09806 0.032067
  endloop
 endfacet
 facet normal 0.233325 0.169451 0.957521
  outer loop
   vertex -0.006529 0.09806 0.033239
   vertex -0.005422 0.100689 0.032504
   vertex -0.008264 0.100449 0.033239
  endloop
 endfacet
 facet normal 0.207851 0.343516 0.915858
  outer loop
   vertex -0.005422 0.100689 0.032504
   vertex -0.007415 0.10306 0.032067
   vertex -0.008264 0.100449 0.033239
  endloop
 endfacet
 facet normal 0.516783 0.183167 0.836293
  outer loop
   vertex -0.003783 0.09806 0.032067
   vertex -0.002658 0.100689 0.030796
   vertex -0.005422 0.100689 0.032504
  endloop
 endfacet
 facet normal 0.491058 0.356895 0.794662
  outer loop
   vertex -0.002658 0.100689 0.030796
   vertex -0.004568 0.103317 0.030796
   vertex -0.005422 0.100689 0.032504
  endloop
 endfacet
 facet normal 0.334054 0.43492 0.836213
  outer loop
   vertex -0.005422 0.100689 0.032504
   vertex -0.004568 0.103317 0.030796
   vertex -0.007415 0.10306 0.032067
  endloop
 endfacet
 facet normal 0.286233 0.584386 0.759318
  outer loop
   vertex -0.004568 0.103317 0.030796
   vertex -0.006712 0.105226 0.030135
   vertex -0.007415 0.10306 0.032067
  endloop
 endfacet
 facet normal 0.751958 0.169318 0.637095
  outer loop
   vertex -0.001506 0.09806 0.030135
   vertex -0.000729 0.100449 0.028583
   vertex -0.002658 0.100689 0.030796
  endloop
 endfacet
 facet normal 0.725985 0.343961 0.595514
  outer loop
   vertex -0.000729 0.100449 0.028583
   vertex -0.002158 0.10306 0.028817
   vertex -0.002658 0.100689 0.030796
  endloop
 endfacet
 facet normal 0.598657 0.435097 0.672533
  outer loop
   vertex -0.002658 0.100689 0.030796
   vertex -0.002158 0.10306 0.028817
   vertex -0.004568 0.103317 0.030796
  endloop
 endfacet
 facet normal 0.551379 0.584158 0.595601
  outer loop
   vertex -0.002158 0.10306 0.028817
   vertex -0.0042 0.105226 0.028583
   vertex -0.004568 0.103317 0.030796
  endloop
 endfacet
 facet normal 0.393627 0.662685 0.637108
  outer loop
   vertex -0.004568 0.103317 0.030796
   vertex -0.0042 0.105226 0.028583
   vertex -0.006712 0.105226 0.030135
  endloop
 endfacet
 facet normal 0.342493 0.758552 0.554344
  outer loop
   vertex -0.0042 0.105226 0.028583
   vertex -0.006276 0.106566 0.028032
   vertex -0.006712 0.105226 0.030135
  endloop
 endfacet
 facet normal -0.0482486 0.148392 0.987751
  outer loop
   vertex -0.008264 0.100449 0.033239
   vertex -0.011072 0.099536 0.033239
   vertex -0.00904 0.09806 0.03356
  endloop
 endfacet
 facet normal 0.0336945 0.400135 0.915836
  outer loop
   vertex -0.007415 0.10306 0.032067
   vertex -0.010422 0.102313 0.032504
   vertex -0.008264 0.100449 0.033239
  endloop
 endfacet
 facet normal 0.112009 0.640965 0.759354
  outer loop
   vertex -0.006712 0.105226 0.030135
   vertex -0.009568 0.104942 0.030796
   vertex -0.007415 0.10306 0.032067
  endloop
 endfacet
 facet normal -0.0891868 0.274301 0.957499
  outer loop
   vertex -0.008264 0.100449 0.033239
   vertex -0.010422 0.102313 0.032504
   vertex -0.011072 0.099536 0.033239
  endloop
 endfacet
 facet normal -0.262485 0.303841 0.915851
  outer loop
   vertex -0.010422 0.102313 0.032504
   vertex -0.013293 0.10115 0.032067
   vertex -0.011072 0.099536 0.033239
  endloop
 endfacet
 facet normal -0.0146149 0.548074 0.836302
  outer loop
   vertex -0.007415 0.10306 0.032067
   vertex -0.009568 0.104942 0.030796
   vertex -0.010422 0.102313 0.032504
  endloop
 endfacet
 facet normal -0.187559 0.577248 0.794737
  outer loop
   vertex -0.009568 0.104942 0.030796
   vertex -0.012658 0.103938 0.030796
   vertex -0.010422 0.102313 0.032504
  endloop
 endfacet
 facet normal -0.310374 0.451949 0.836307
  outer loop
   vertex -0.010422 0.102313 0.032504
   vertex -0.012658 0.103938 0.030796
   vertex -0.013293 0.10115 0.032067
  endloop
 endfacet
 facet normal -0.467426 0.452641 0.759361
  outer loop
   vertex -0.012658 0.103938 0.030796
   vertex -0.015135 0.102489 0.030135
   vertex -0.013293 0.10115 0.032067
  endloop
 endfacet
 facet normal 0.0710868 0.767617 0.636955
  outer loop
   vertex -0.006712 0.105226 0.030135
   vertex -0.008744 0.106702 0.028583
   vertex -0.009568 0.104942 0.030796
  endloop
 endfacet
 facet normal -0.102735 0.796801 0.595444
  outer loop
   vertex -0.008744 0.106702 0.028583
   vertex -0.011669 0.10615 0.028817
   vertex -0.009568 0.104942 0.030796
  endloop
 endfacet
 facet normal -0.228709 0.703897 0.672474
  outer loop
   vertex -0.009568 0.104942 0.030796
   vertex -0.011669 0.10615 0.028817
   vertex -0.012658 0.103938 0.030796
  endloop
 endfacet
 facet normal -0.38541 0.704977 0.595371
  outer loop
   vertex -0.011669 0.10615 0.028817
   vertex -0.014359 0.104877 0.028583
   vertex -0.012658 0.103938 0.030796
  endloop
 endfacet
 facet normal -0.508799 0.579247 0.636864
  outer loop
   vertex -0.012658 0.103938 0.030796
   vertex -0.014359 0.104877 0.028583
   vertex -0.015135 0.102489 0.030135
  endloop
 endfacet
 facet normal -0.61533 0.560308 0.554459
  outer loop
   vertex -0.014359 0.104877 0.028583
   vertex -0.016276 0.103317 0.028032
   vertex -0.015135 0.102489 0.030135
  endloop
 endfacet
 facet normal -0.156037 0 0.987751
  outer loop
   vertex -0.011072 0.099536 0.033239
   vertex -0.011072 0.096584 0.033239
   vertex -0.00904 0.09806 0.03356
  endloop
 endfacet
 facet normal -0.370096 0.155752 0.915844
  outer loop
   vertex -0.013293 0.10115 0.032067
   vertex -0.013512 0.09806 0.032504
   vertex -0.011072 0.099536 0.033239
  endloop
 endfacet
 facet normal -0.574948 0.304695 0.759339
  outer loop
   vertex -0.015135 0.102489 0.030135
   vertex -0.015748 0.099685 0.030796
   vertex -0.013293 0.10115 0.032067
  endloop
 endfacet
 facet normal -0.288428 0 0.957502
  outer loop
   vertex -0.011072 0.099536 0.033239
   vertex -0.013512 0.09806 0.032504
   vertex -0.011072 0.096584 0.033239
  endloop
 endfacet
 facet normal -0.370096 -0.155752 0.915844
  outer loop
   vertex -0.013512 0.09806 0.032504
   vertex -0.013293 0.09497 0.032067
   vertex -0.011072 0.096584 0.033239
  endloop
 endfacet
 facet normal -0.525774 0.155534 0.836284
  outer loop
   vertex -0.013293 0.10115 0.032067
   vertex -0.015748 0.099685 0.030796
   vertex -0.013512 0.09806 0.032504
  endloop
 endfacet
 facet normal -0.607028 0 0.794681
  outer loop
   vertex -0.015748 0.099685 0.030796
   vertex -0.015748 0.096435 0.030796
   vertex -0.013512 0.09806 0.032504
  endloop
 endfacet
 facet normal -0.525774 -0.155534 0.836284
  outer loop
   vertex -0.013512 0.09806 0.032504
   vertex -0.015748 0.096435 0.030796
   vertex -0.013293 0.09497 0.032067
  endloop
 endfacet
 facet normal -0.574948 -0.304695 0.759339
  outer loop
   vertex -0.015748 0.096435 0.030796
   vertex -0.015135 0.093631 0.030135
   vertex -0.013293 0.09497 0.032067
  endloop
 endfacet
 facet normal -0.708089 0.304936 0.636886
  outer loop
   vertex -0.015135 0.102489 0.030135
   vertex -0.017167 0.101012 0.028583
   vertex -0.015748 0.099685 0.030796
  endloop
 endfacet
 facet normal -0.789589 0.148568 0.59538
  outer loop
   vertex -0.017167 0.101012 0.028583
   vertex -0.017546 0.09806 0.028817
   vertex -0.015748 0.099685 0.030796
  endloop
 endfacet
 facet normal -0.740143 0 0.672449
  outer loop
   vertex -0.015748 0.099685 0.030796
   vertex -0.017546 0.09806 0.028817
   vertex -0.015748 0.096435 0.030796
  endloop
 endfacet
 facet normal -0.789589 -0.148568 0.59538
  outer loop
   vertex -0.017546 0.09806 0.028817
   vertex -0.017167 0.095108 0.028583
   vertex -0.015748 0.096435 0.030796
  endloop
 endfacet
 facet normal -0.708089 -0.304936 0.636886
  outer loop
   vertex -0.015748 0.096435 0.030796
   vertex -0.017167 0.095108 0.028583
   vertex -0.015135 0.093631 0.030135
  endloop
 endfacet
 facet normal -0.723015 -0.412034 0.554506
  outer loop
   vertex -0.017167 0.095108 0.028583
   vertex -0.016276 0.092803 0.028032
   vertex -0.015135 0.093631 0.030135
  endloop
 endfacet
 facet normal -0.0482486 -0.148392 0.987751
  outer loop
   vertex -0.011072 0.096584 0.033239
   vertex -0.008264 0.095671 0.033239
   vertex -0.00904 0.09806 0.03356
  endloop
 endfacet
 facet normal -0.262485 -0.303841 0.915851
  outer loop
   vertex -0.013293 0.09497 0.032067
   vertex -0.010422 0.093807 0.032504
   vertex -0.011072 0.096584 0.033239
  endloop
 endfacet
 facet normal -0.467426 -0.452641 0.759361
  outer loop
   vertex -0.015135 0.093631 0.030135
   vertex -0.012658 0.092182 0.030796
   vertex -0.013293 0.09497 0.032067
  endloop
 endfacet
 facet normal -0.0891868 -0.274301 0.957499
  outer loop
   vertex -0.011072 0.096584 0.033239
   vertex -0.010422 0.093807 0.032504
   vertex -0.008264 0.095671 0.033239
  endloop
 endfacet
 facet normal 0.0336945 -0.400135 0.915836
  outer loop
   vertex -0.010422 0.093807 0.032504
   vertex -0.007415 0.09306 0.032067
   vertex -0.008264 0.095671 0.033239
  endloop
 endfacet
 facet normal -0.310374 -0.451949 0.836307
  outer loop
   vertex -0.013293 0.09497 0.032067
   vertex -0.012658 0.092182 0.030796
   vertex -0.010422 0.093807 0.032504
  endloop
 endfacet
 facet normal -0.187559 -0.577248 0.794737
  outer loop
   vertex -0.012658 0.092182 0.030796
   vertex -0.009568 0.091178 0.030796
   vertex -0.010422 0.093807 0.032504
  endloop
 endfacet
 facet normal -0.0146149 -0.548074 0.836302
  outer loop
   vertex -0.010422 0.093807 0.032504
   vertex -0.009568 0.091178 0.030796
   vertex -0.007415 0.09306 0.032067
  endloop
 endfacet
 facet normal 0.112009 -0.640965 0.759354
  outer loop
   vertex -0.009568 0.091178 0.030796
   vertex -0.006712 0.090894 0.030135
   vertex -0.007415 0.09306 0.032067
  endloop
 endfacet
 facet normal -0.508799 -0.579247 0.636864
  outer loop
   vertex -0.015135 0.093631 0.030135
   vertex -0.014359 0.091243 0.028583
   vertex -0.012658 0.092182 0.030796
  endloop
 endfacet
 facet normal -0.38541 -0.704977 0.595371
  outer loop
   vertex -0.014359 0.091243 0.028583
   vertex -0.011669 0.08997 0.028817
   vertex -0.012658 0.092182 0.030796
  endloop
 endfacet
 facet normal -0.228709 -0.703897 0.672474
  outer loop
   vertex -0.012658 0.092182 0.030796
   vertex -0.011669 0.08997 0.028817
   vertex -0.009568 0.091178 0.030796
  endloop
 endfacet
 facet normal -0.102735 -0.796801 0.595444
  outer loop
   vertex -0.011669 0.08997 0.028817
   vertex -0.008744 0.089418 0.028583
   vertex -0.009568 0.091178 0.030796
  endloop
 endfacet
 facet normal 0.0710868 -0.767617 0.636955
  outer loop
   vertex -0.009568 0.091178 0.030796
   vertex -0.008744 0.089418 0.028583
   vertex -0.006712 0.090894 0.030135
  endloop
 endfacet
 facet normal 0.168666 -0.815046 0.554303
  outer loop
   vertex -0.008744 0.089418 0.028583
   vertex -0.006276 0.089554 0.028032
   vertex -0.006712 0.090894 0.030135
  endloop
 endfacet
 facet normal 0.126271 -0.0917039 0.987748
  outer loop
   vertex -0.008264 0.095671 0.033239
   vertex -0.006529 0.09806 0.033239
   vertex -0.00904 0.09806 0.03356
  endloop
 endfacet
 facet normal 0.207851 -0.343516 0.915858
  outer loop
   vertex -0.007415 0.09306 0.032067
   vertex -0.005422 0.095431 0.032504
   vertex -0.008264 0.095671 0.033239
  endloop
 endfacet
 facet normal 0.286233 -0.584386 0.759318
  outer loop
   vertex -0.006712 0.090894 0.030135
   vertex -0.004568 0.092803 0.030796
   vertex -0.007415 0.09306 0.032067
  endloop
 endfacet
 facet normal 0.233325 -0.169451 0.957521
  outer loop
   vertex -0.008264 0.095671 0.033239
   vertex -0.005422 0.095431 0.032504
   vertex -0.006529 0.09806 0.033239
  endloop
 endfacet
 facet normal 0.390899 -0.0914587 0.915878
  outer loop
   vertex -0.005422 0.095431 0.032504
   vertex -0.003783 0.09806 0.032067
   vertex -0.006529 0.09806 0.033239
  endloop
 endfacet
 facet normal 0.334054 -0.43492 0.836213
  outer loop
   vertex -0.007415 0.09306 0.032067
   vertex -0.004568 0.092803 0.030796
   vertex -0.005422 0.095431 0.032504
  endloop
 endfacet
 facet normal 0.491058 -0.356895 0.794662
  outer loop
   vertex -0.004568 0.092803 0.030796
   vertex -0.002658 0.095431 0.030796
   vertex -0.005422 0.095431 0.032504
  endloop
 endfacet
 facet normal 0.516783 -0.183167 0.836293
  outer loop
   vertex -0.005422 0.095431 0.032504
   vertex -0.002658 0.095431 0.030796
   vertex -0.003783 0.09806 0.032067
  endloop
 endfacet
 facet normal 0.644269 -0.0913996 0.759317
  outer loop
   vertex -0.002658 0.095431 0.030796
   vertex -0.001506 0.09806 0.030135
   vertex -0.003783 0.09806 0.032067
  endloop
 endfacet
 facet normal 0.393627 -0.662685 0.637108
  outer loop
   vertex -0.006712 0.090894 0.030135
   vertex -0.0042 0.090894 0.028583
   vertex -0.004568 0.092803 0.030796
  endloop
 endfacet
 facet normal 0.551379 -0.584158 0.595601
  outer loop
   vertex -0.0042 0.090894 0.028583
   vertex -0.002158 0.09306 0.028817
   vertex -0.004568 0.092803 0.030796
  endloop
 endfacet
 facet normal 0.598657 -0.435097 0.672533
  outer loop
   vertex -0.004568 0.092803 0.030796
   vertex -0.002158 0.09306 0.028817
   vertex -0.002658 0.095431 0.030796
  endloop
 endfacet
 facet normal 0.725985 -0.343961 0.595514
  outer loop
   vertex -0.002158 0.09306 0.028817
   vertex -0.000729 0.095671 0.028583
   vertex -0.002658 0.095431 0.030796
  endloop
 endfacet
 facet normal 0.751958 -0.169318 0.637095
  outer loop
   vertex -0.002658 0.095431 0.030796
   vertex -0.000729 0.095671 0.028583
   vertex -0.001506 0.09806 0.030135
  endloop
 endfacet
 facet normal 0.827124 -0.091254 0.554562
  outer loop
   vertex -0.000729 0.095671 0.028583
   vertex -9.59999e-05 0.09806 0.028032
   vertex -0.001506 0.09806 0.030135
  endloop
 endfacet
 facet normal 0.905177 0.147939 0.398459
  outer loop
   vertex 0.000526 0.099536 0.026071
   vertex -0.000729 0.100449 0.028583
   vertex -9.59999e-05 0.09806 0.028032
  endloop
 endfacet
 facet normal 0.93657 0.303801 0.17476
  outer loop
   vertex 0.000471 0.10115 0.02356
   vertex -0.000422 0.102313 0.026324
   vertex 0.000526 0.099536 0.026071
  endloop
 endfacet
 facet normal 0.888212 0.452708 -0.078331
  outer loop
   vertex -0.000433 0.102489 0.021048
   vertex -0.00095 0.103938 0.02356
   vertex 0.000471 0.10115 0.02356
  endloop
 endfacet
 facet normal 0.89641 0.274294 0.348155
  outer loop
   vertex 0.000526 0.099536 0.026071
   vertex -0.000422 0.102313 0.026324
   vertex -0.000729 0.100449 0.028583
  endloop
 endfacet
 facet normal 0.803858 0.400541 0.439749
  outer loop
   vertex -0.000422 0.102313 0.026324
   vertex -0.002158 0.10306 0.028817
   vertex -0.000729 0.100449 0.028583
  endloop
 endfacet
 facet normal 0.886806 0.451991 0.0963284
  outer loop
   vertex 0.000471 0.10115 0.02356
   vertex -0.00095 0.103938 0.02356
   vertex -0.000422 0.102313 0.026324
  endloop
 endfacet
 facet normal 0.794662 0.577331 0.18762
  outer loop
   vertex -0.00095 0.103938 0.02356
   vertex -0.002332 0.104942 0.026324
   vertex -0.000422 0.102313 0.026324
  endloop
 endfacet
 facet normal 0.754436 0.548107 0.361117
  outer loop
   vertex -0.000422 0.102313 0.026324
   vertex -0.002332 0.104942 0.026324
   vertex -0.002158 0.10306 0.028817
  endloop
 endfacet
 facet normal 0.629279 0.640767 0.439803
  outer loop
   vertex -0.002332 0.104942 0.026324
   vertex -0.0042 0.105226 0.028583
   vertex -0.002158 0.10306 0.028817
  endloop
 endfacet
 facet normal 0.797233 0.579229 -0.170037
  outer loop
   vertex -0.000433 0.102489 0.021048
   vertex -0.002168 0.104877 0.021048
   vertex -0.00095 0.103938 0.02356
  endloop
 endfacet
 facet normal 0.704936 0.704936 -0.0782949
  outer loop
   vertex -0.002168 0.104877 0.021048
   vertex -0.003162 0.10615 0.02356
   vertex -0.00095 0.103938 0.02356
  endloop
 endfacet
 facet normal 0.703824 0.703824 0.0962537
  outer loop
   vertex -0.00095 0.103938 0.02356
   vertex -0.003162 0.10615 0.02356
   vertex -0.002332 0.104942 0.026324
  endloop
 endfacet
 facet normal 0.578519 0.796783 0.174509
  outer loop
   vertex -0.003162 0.10615 0.02356
   vertex -0.00468 0.106702 0.026072
   vertex -0.002332 0.104942 0.026324
  endloop
 endfacet
 facet normal 0.537986 0.767602 0.348366
  outer loop
   vertex -0.002332 0.104942 0.026324
   vertex -0.00468 0.106702 0.026072
   vertex -0.0042 0.105226 0.028583
  endloop
 endfacet
 facet normal 0.420269 0.815078 0.398776
  outer loop
   vertex -0.00468 0.106702 0.026072
   vertex -0.006276 0.106566 0.028032
   vertex -0.0042 0.105226 0.028583
  endloop
 endfacet
 facet normal 0.138975 0.90647 0.398746
  outer loop
   vertex -0.007488 0.107614 0.026072
   vertex -0.008744 0.106702 0.028583
   vertex -0.006276 0.106566 0.028032
  endloop
 endfacet
 facet normal 0.000555151 0.98466 0.174481
  outer loop
   vertex -0.00904 0.10806 0.02356
   vertex -0.010422 0.107571 0.026324
   vertex -0.007488 0.107614 0.026072
  endloop
 endfacet
 facet normal -0.155824 0.984657 -0.07855
  outer loop
   vertex -0.010592 0.107614 0.021048
   vertex -0.01213 0.107571 0.02356
   vertex -0.00904 0.10806 0.02356
  endloop
 endfacet
 facet normal 0.0161962 0.937175 0.348485
  outer loop
   vertex -0.007488 0.107614 0.026072
   vertex -0.010422 0.107571 0.026324
   vertex -0.008744 0.106702 0.028583
  endloop
 endfacet
 facet normal -0.132412 0.888171 0.440021
  outer loop
   vertex -0.010422 0.107571 0.026324
   vertex -0.011669 0.10615 0.028817
   vertex -0.008744 0.106702 0.028583
  endloop
 endfacet
 facet normal -0.155583 0.983133 0.0961419
  outer loop
   vertex -0.00904 0.10806 0.02356
   vertex -0.01213 0.107571 0.02356
   vertex -0.010422 0.107571 0.026324
  endloop
 endfacet
 facet normal -0.303796 0.934059 0.187729
  outer loop
   vertex -0.01213 0.107571 0.02356
   vertex -0.013512 0.106566 0.026324
   vertex -0.010422 0.107571 0.026324
  endloop
 endfacet
 facet normal -0.288415 0.886769 0.361189
  outer loop
   vertex -0.010422 0.107571 0.026324
   vertex -0.013512 0.106566 0.026324
   vertex -0.011669 0.10615 0.028817
  endloop
 endfacet
 facet normal -0.415138 0.796394 0.439791
  outer loop
   vertex -0.013512 0.106566 0.026324
   vertex -0.014359 0.104877 0.028583
   vertex -0.011669 0.10615 0.028817
  endloop
 endfacet
 facet normal -0.304389 0.937197 -0.170322
  outer loop
   vertex -0.010592 0.107614 0.021048
   vertex -0.0134 0.106702 0.021048
   vertex -0.01213 0.107571 0.02356
  endloop
 endfacet
 facet normal -0.452705 0.888208 -0.0783901
  outer loop
   vertex -0.0134 0.106702 0.021048
   vertex -0.014918 0.10615 0.02356
   vertex -0.01213 0.107571 0.02356
  endloop
 endfacet
 facet normal -0.451986 0.886796 0.0964489
  outer loop
   vertex -0.01213 0.107571 0.02356
   vertex -0.014918 0.10615 0.02356
   vertex -0.013512 0.106566 0.026324
  endloop
 endfacet
 facet normal -0.578874 0.796508 0.174584
  outer loop
   vertex -0.014918 0.10615 0.02356
   vertex -0.015912 0.104877 0.026072
   vertex -0.013512 0.106566 0.026324
  endloop
 endfacet
 facet normal -0.563623 0.748876 0.348589
  outer loop
   vertex -0.013512 0.106566 0.026324
   vertex -0.015912 0.104877 0.026072
   vertex -0.014359 0.104877 0.028583
  endloop
 endfacet
 facet normal -0.645038 0.651744 0.398942
  outer loop
   vertex -0.015912 0.104877 0.026072
   vertex -0.016276 0.103317 0.028032
   vertex -0.014359 0.104877 0.028583
  endloop
 endfacet
 facet normal -0.819189 0.412026 0.398954
  outer loop
   vertex -0.017647 0.102489 0.026072
   vertex -0.017167 0.101012 0.028583
   vertex -0.016276 0.103317 0.028032
  endloop
 endfacet
 facet normal -0.936352 0.304548 0.174631
  outer loop
   vertex -0.018551 0.10115 0.02356
   vertex -0.018512 0.099685 0.026324
   vertex -0.017647 0.102489 0.026072
  endloop
 endfacet
 facet normal -0.984653 0.155824 -0.0785916
  outer loop
   vertex -0.018606 0.099536 0.021049
   vertex -0.01904 0.09806 0.02356
   vertex -0.018551 0.10115 0.02356
  endloop
 endfacet
 facet normal -0.886309 0.304753 0.348685
  outer loop
   vertex -0.017647 0.102489 0.026072
   vertex -0.018512 0.099685 0.026324
   vertex -0.017167 0.101012 0.028583
  endloop
 endfacet
 facet normal -0.885615 0.148581 0.440011
  outer loop
   vertex -0.018512 0.099685 0.026324
   vertex -0.017546 0.09806 0.028817
   vertex -0.017167 0.101012 0.028583
  endloop
 endfacet
 facet normal -0.983115 0.15558 0.0963335
  outer loop
   vertex -0.018551 0.10115 0.02356
   vertex -0.01904 0.09806 0.02356
   vertex -0.018512 0.099685 0.026324
  endloop
 endfacet
 facet normal -0.982239 0 0.187634
  outer loop
   vertex -0.01904 0.09806 0.02356
   vertex -0.018512 0.096435 0.026324
   vertex -0.018512 0.099685 0.026324
  endloop
 endfacet
 facet normal -0.932446 0 0.361309
  outer loop
   vertex -0.018512 0.099685 0.026324
   vertex -0.018512 0.096435 0.026324
   vertex -0.017546 0.09806 0.028817
  endloop
 endfacet
 facet normal -0.885615 -0.148581 0.440011
  outer loop
   vertex -0.018512 0.096435 0.026324
   vertex -0.017167 0.095108 0.028583
   vertex -0.017546 0.09806 0.028817
  endloop
 endfacet
 facet normal -0.98539 -0 -0.170314
  outer loop
   vertex -0.018606 0.099536 0.021049
   vertex -0.018606 0.096584 0.021049
   vertex -0.01904 0.09806 0.02356
  endloop
 endfacet
 facet normal -0.984653 -0.155824 -0.0785916
  outer loop
   vertex -0.018606 0.096584 0.021049
   vertex -0.018551 0.09497 0.02356
   vertex -0.01904 0.09806 0.02356
  endloop
 endfacet
 facet normal -0.983115 -0.15558 0.0963335
  outer loop
   vertex -0.01904 0.09806 0.02356
   vertex -0.018551 0.09497 0.02356
   vertex -0.018512 0.096435 0.026324
  endloop
 endfacet
 facet normal -0.936352 -0.304548 0.174631
  outer loop
   vertex -0.018551 0.09497 0.02356
   vertex -0.017647 0.093631 0.026072
   vertex -0.018512 0.096435 0.026324
  endloop
 endfacet
 facet normal -0.886309 -0.304753 0.348685
  outer loop
   vertex -0.018512 0.096435 0.026324
   vertex -0.017647 0.093631 0.026072
   vertex -0.017167 0.095108 0.028583
  endloop
 endfacet
 facet normal -0.819189 -0.412026 0.398954
  outer loop
   vertex -0.017647 0.093631 0.026072
   vertex -0.016276 0.092803 0.028032
   vertex -0.017167 0.095108 0.028583
  endloop
 endfacet
 facet normal -0.645038 -0.651744 0.398942
  outer loop
   vertex -0.015912 0.091243 0.026072
   vertex -0.014359 0.091243 0.028583
   vertex -0.016276 0.092803 0.028032
  endloop
 endfacet
 facet normal -0.578874 -0.796508 0.174584
  outer loop
   vertex -0.014918 0.08997 0.02356
   vertex -0.013512 0.089554 0.026324
   vertex -0.015912 0.091243 0.026072
  endloop
 endfacet
 facet normal -0.452705 -0.888208 -0.0783901
  outer loop
   vertex -0.0134 0.089418 0.021048
   vertex -0.01213 0.088549 0.02356
   vertex -0.014918 0.08997 0.02356
  endloop
 endfacet
 facet normal -0.563623 -0.748876 0.348589
  outer loop
   vertex -0.015912 0.091243 0.026072
   vertex -0.013512 0.089554 0.026324
   vertex -0.014359 0.091243 0.028583
  endloop
 endfacet
 facet normal -0.415138 -0.796394 0.439791
  outer loop
   vertex -0.013512 0.089554 0.026324
   vertex -0.011669 0.08997 0.028817
   vertex -0.014359 0.091243 0.028583
  endloop
 endfacet
 facet normal -0.451986 -0.886796 0.0964489
  outer loop
   vertex -0.014918 0.08997 0.02356
   vertex -0.01213 0.088549 0.02356
   vertex -0.013512 0.089554 0.026324
  endloop
 endfacet
 facet normal -0.303796 -0.934059 0.187729
  outer loop
   vertex -0.01213 0.088549 0.02356
   vertex -0.010422 0.088549 0.026324
   vertex -0.013512 0.089554 0.026324
  endloop
 endfacet
 facet normal -0.288415 -0.886769 0.361189
  outer loop
   vertex -0.013512 0.089554 0.026324
   vertex -0.010422 0.088549 0.026324
   vertex -0.011669 0.08997 0.028817
  endloop
 endfacet
 facet normal -0.132412 -0.888171 0.440021
  outer loop
   vertex -0.010422 0.088549 0.026324
   vertex -0.008744 0.089418 0.028583
   vertex -0.011669 0.08997 0.028817
  endloop
 endfacet
 facet normal -0.304389 -0.937197 -0.170322
  outer loop
   vertex -0.0134 0.089418 0.021048
   vertex -0.010592 0.088506 0.021048
   vertex -0.01213 0.088549 0.02356
  endloop
 endfacet
 facet normal -0.155824 -0.984657 -0.07855
  outer loop
   vertex -0.010592 0.088506 0.021048
   vertex -0.00904 0.08806 0.02356
   vertex -0.01213 0.088549 0.02356
  endloop
 endfacet
 facet normal -0.155583 -0.983133 0.0961419
  outer loop
   vertex -0.01213 0.088549 0.02356
   vertex -0.00904 0.08806 0.02356
   vertex -0.010422 0.088549 0.026324
  endloop
 endfacet
 facet normal 0.000555151 -0.98466 0.174481
  outer loop
   vertex -0.00904 0.08806 0.02356
   vertex -0.007488 0.088506 0.026072
   vertex -0.010422 0.088549 0.026324
  endloop
 endfacet
 facet normal 0.0161962 -0.937175 0.348485
  outer loop
   vertex -0.010422 0.088549 0.026324
   vertex -0.007488 0.088506 0.026072
   vertex -0.008744 0.089418 0.028583
  endloop
 endfacet
 facet normal 0.138975 -0.90647 0.398746
  outer loop
   vertex -0.007488 0.088506 0.026072
   vertex -0.006276 0.089554 0.028032
   vertex -0.008744 0.089418 0.028583
  endloop
 endfacet
 facet normal 0.420269 -0.815078 0.398776
  outer loop
   vertex -0.00468 0.089418 0.026072
   vertex -0.0042 0.090894 0.028583
   vertex -0.006276 0.089554 0.028032
  endloop
 endfacet
 facet normal 0.578519 -0.796783 0.174509
  outer loop
   vertex -0.003162 0.08997 0.02356
   vertex -0.002332 0.091178 0.026324
   vertex -0.00468 0.089418 0.026072
  endloop
 endfacet
 facet normal 0.704936 -0.704936 -0.0782949
  outer loop
   vertex -0.002168 0.091243 0.021048
   vertex -0.00095 0.092182 0.02356
   vertex -0.003162 0.08997 0.02356
  endloop
 endfacet
 facet normal 0.537986 -0.767602 0.348366
  outer loop
   vertex -0.00468 0.089418 0.026072
   vertex -0.002332 0.091178 0.026324
   vertex -0.0042 0.090894 0.028583
  endloop
 endfacet
 facet normal 0.629279 -0.640767 0.439803
  outer loop
   vertex -0.002332 0.091178 0.026324
   vertex -0.002158 0.09306 0.028817
   vertex -0.0042 0.090894 0.028583
  endloop
 endfacet
 facet normal 0.703824 -0.703824 0.0962537
  outer loop
   vertex -0.003162 0.08997 0.02356
   vertex -0.00095 0.092182 0.02356
   vertex -0.002332 0.091178 0.026324
  endloop
 endfacet
 facet normal 0.794662 -0.577331 0.18762
  outer loop
   vertex -0.00095 0.092182 0.02356
   vertex -0.000422 0.093807 0.026324
   vertex -0.002332 0.091178 0.026324
  endloop
 endfacet
 facet normal 0.754436 -0.548107 0.361117
  outer loop
   vertex -0.002332 0.091178 0.026324
   vertex -0.000422 0.093807 0.026324
   vertex -0.002158 0.09306 0.028817
  endloop
 endfacet
 facet normal 0.803858 -0.400541 0.439749
  outer loop
   vertex -0.000422 0.093807 0.026324
   vertex -0.000729 0.095671 0.028583
   vertex -0.002158 0.09306 0.028817
  endloop
 endfacet
 facet normal 0.797233 -0.579229 -0.170037
  outer loop
   vertex -0.002168 0.091243 0.021048
   vertex -0.000433 0.093631 0.021048
   vertex -0.00095 0.092182 0.02356
  endloop
 endfacet
 facet normal 0.888212 -0.452708 -0.078331
  outer loop
   vertex -0.000433 0.093631 0.021048
   vertex 0.000471 0.09497 0.02356
   vertex -0.00095 0.092182 0.02356
  endloop
 endfacet
 facet normal 0.886806 -0.451991 0.0963284
  outer loop
   vertex -0.00095 0.092182 0.02356
   vertex 0.000471 0.09497 0.02356
   vertex -0.000422 0.093807 0.026324
  endloop
 endfacet
 facet normal 0.93657 -0.303801 0.17476
  outer loop
   vertex 0.000471 0.09497 0.02356
   vertex 0.000526 0.096584 0.026071
   vertex -0.000422 0.093807 0.026324
  endloop
 endfacet
 facet normal 0.89641 -0.274294 0.348155
  outer loop
   vertex -0.000422 0.093807 0.026324
   vertex 0.000526 0.096584 0.026071
   vertex -0.000729 0.095671 0.028583
  endloop
 endfacet
 facet normal 0.905177 -0.147939 0.398459
  outer loop
   vertex 0.000526 0.096584 0.026071
   vertex -9.59999e-05 0.09806 0.028032
   vertex -0.000729 0.095671 0.028583
  endloop
 endfacet
 facet normal 0.294416 0.906493 0.302638
  outer loop
   vertex -0.00468 0.106702 0.026072
   vertex -0.007488 0.107614 0.026072
   vertex -0.006276 0.106566 0.028032
  endloop
 endfacet
 facet normal 0.452705 0.888208 0.0783901
  outer loop
   vertex -0.003162 0.10615 0.02356
   vertex -0.00595 0.107571 0.02356
   vertex -0.00468 0.106702 0.026072
  endloop
 endfacet
 facet normal 0.578874 0.796508 -0.174584
  outer loop
   vertex -0.002168 0.104877 0.021048
   vertex -0.004568 0.106566 0.020796
   vertex -0.003162 0.10615 0.02356
  endloop
 endfacet
 facet normal 0.304389 0.937197 0.170322
  outer loop
   vertex -0.00468 0.106702 0.026072
   vertex -0.00595 0.107571 0.02356
   vertex -0.007488 0.107614 0.026072
  endloop
 endfacet
 facet normal 0.155824 0.984657 0.07855
  outer loop
   vertex -0.00595 0.107571 0.02356
   vertex -0.00904 0.10806 0.02356
   vertex -0.007488 0.107614 0.026072
  endloop
 endfacet
 facet normal 0.451986 0.886796 -0.0964489
  outer loop
   vertex -0.003162 0.10615 0.02356
   vertex -0.004568 0.106566 0.020796
   vertex -0.00595 0.107571 0.02356
  endloop
 endfacet
 facet normal 0.303796 0.934059 -0.187729
  outer loop
   vertex -0.004568 0.106566 0.020796
   vertex -0.007658 0.107571 0.020796
   vertex -0.00595 0.107571 0.02356
  endloop
 endfacet
 facet normal 0.155583 0.983133 -0.0961419
  outer loop
   vertex -0.00595 0.107571 0.02356
   vertex -0.007658 0.107571 0.020796
   vertex -0.00904 0.10806 0.02356
  endloop
 endfacet
 facet normal -0.000555151 0.98466 -0.174481
  outer loop
   vertex -0.007658 0.107571 0.020796
   vertex -0.010592 0.107614 0.021048
   vertex -0.00904 0.10806 0.02356
  endloop
 endfacet
 facet normal 0.563623 0.748876 -0.348589
  outer loop
   vertex -0.002168 0.104877 0.021048
   vertex -0.003721 0.104877 0.018537
   vertex -0.004568 0.106566 0.020796
  endloop
 endfacet
 facet normal 0.415138 0.796394 -0.439791
  outer loop
   vertex -0.003721 0.104877 0.018537
   vertex -0.006411 0.10615 0.018303
   vertex -0.004568 0.106566 0.020796
  endloop
 endfacet
 facet normal 0.288415 0.886769 -0.361189
  outer loop
   vertex -0.004568 0.106566 0.020796
   vertex -0.006411 0.10615 0.018303
   vertex -0.007658 0.107571 0.020796
  endloop
 endfacet
 facet normal 0.132412 0.888171 -0.440021
  outer loop
   vertex -0.006411 0.10615 0.018303
   vertex -0.009336 0.106702 0.018537
   vertex -0.007658 0.107571 0.020796
  endloop
 endfacet
 facet normal -0.0161962 0.937175 -0.348485
  outer loop
   vertex -0.007658 0.107571 0.020796
   vertex -0.009336 0.106702 0.018537
   vertex -0.010592 0.107614 0.021048
  endloop
 endfacet
 facet normal -0.138975 0.90647 -0.398746
  outer loop
   vertex -0.009336 0.106702 0.018537
   vertex -0.011804 0.106566 0.019088
   vertex -0.010592 0.107614 0.021048
  endloop
 endfacet
 facet normal -0.771063 0.560215 0.302688
  outer loop
   vertex -0.015912 0.104877 0.026072
   vertex -0.017647 0.102489 0.026072
   vertex -0.016276 0.103317 0.028032
  endloop
 endfacet
 facet normal -0.704936 0.704936 0.0782949
  outer loop
   vertex -0.014918 0.10615 0.02356
   vertex -0.01713 0.103938 0.02356
   vertex -0.015912 0.104877 0.026072
  endloop
 endfacet
 facet normal -0.578519 0.796783 -0.174509
  outer loop
   vertex -0.0134 0.106702 0.021048
   vertex -0.015748 0.104942 0.020796
   vertex -0.014918 0.10615 0.02356
  endloop
 endfacet
 facet normal -0.797233 0.579229 0.170037
  outer loop
   vertex -0.015912 0.104877 0.026072
   vertex -0.01713 0.103938 0.02356
   vertex -0.017647 0.102489 0.026072
  endloop
 endfacet
 facet normal -0.888212 0.452708 0.078331
  outer loop
   vertex -0.01713 0.103938 0.02356
   vertex -0.018551 0.10115 0.02356
   vertex -0.017647 0.102489 0.026072
  endloop
 endfacet
 facet normal -0.703824 0.703824 -0.0962537
  outer loop
   vertex -0.014918 0.10615 0.02356
   vertex -0.015748 0.104942 0.020796
   vertex -0.01713 0.103938 0.02356
  endloop
 endfacet
 facet normal -0.794662 0.577331 -0.18762
  outer loop
   vertex -0.015748 0.104942 0.020796
   vertex -0.017658 0.102313 0.020796
   vertex -0.01713 0.103938 0.02356
  endloop
 endfacet
 facet normal -0.886806 0.451991 -0.0963284
  outer loop
   vertex -0.01713 0.103938 0.02356
   vertex -0.017658 0.102313 0.020796
   vertex -0.018551 0.10115 0.02356
  endloop
 endfacet
 facet normal -0.93657 0.303801 -0.17476
  outer loop
   vertex -0.017658 0.102313 0.020796
   vertex -0.018606 0.099536 0.021049
   vertex -0.018551 0.10115 0.02356
  endloop
 endfacet
 facet normal -0.537986 0.767602 -0.348366
  outer loop
   vertex -0.0134 0.106702 0.021048
   vertex -0.01388 0.105226 0.018537
   vertex -0.015748 0.104942 0.020796
  endloop
 endfacet
 facet normal -0.629279 0.640767 -0.439803
  outer loop
   vertex -0.01388 0.105226 0.018537
   vertex -0.015922 0.10306 0.018303
   vertex -0.015748 0.104942 0.020796
  endloop
 endfacet
 facet normal -0.754436 0.548107 -0.361117
  outer loop
   vertex -0.015748 0.104942 0.020796
   vertex -0.015922 0.10306 0.018303
   vertex -0.017658 0.102313 0.020796
  endloop
 endfacet
 facet normal -0.803858 0.400541 -0.439749
  outer loop
   vertex -0.015922 0.10306 0.018303
   vertex -0.017351 0.100449 0.018537
   vertex -0.017658 0.102313 0.020796
  endloop
 endfacet
 facet normal -0.89641 0.274294 -0.348155
  outer loop
   vertex -0.017658 0.102313 0.020796
   vertex -0.017351 0.100449 0.018537
   vertex -0.018606 0.099536 0.021049
  endloop
 endfacet
 facet normal -0.905177 0.147939 -0.398459
  outer loop
   vertex -0.017351 0.100449 0.018537
   vertex -0.017984 0.09806 0.019088
   vertex -0.018606 0.099536 0.021049
  endloop
 endfacet
 facet normal -0.771063 -0.560215 0.302688
  outer loop
   vertex -0.017647 0.093631 0.026072
   vertex -0.015912 0.091243 0.026072
   vertex -0.016276 0.092803 0.028032
  endloop
 endfacet
 facet normal -0.888212 -0.452708 0.078331
  outer loop
   vertex -0.018551 0.09497 0.02356
   vertex -0.01713 0.092182 0.02356
   vertex -0.017647 0.093631 0.026072
  endloop
 endfacet
 facet normal -0.93657 -0.303801 -0.17476
  outer loop
   vertex -0.018606 0.096584 0.021049
   vertex -0.017658 0.093807 0.020796
   vertex -0.018551 0.09497 0.02356
  endloop
 endfacet
 facet normal -0.797233 -0.579229 0.170037
  outer loop
   vertex -0.017647 0.093631 0.026072
   vertex -0.01713 0.092182 0.02356
   vertex -0.015912 0.091243 0.026072
  endloop
 endfacet
 facet normal -0.704936 -0.704936 0.0782949
  outer loop
   vertex -0.01713 0.092182 0.02356
   vertex -0.014918 0.08997 0.02356
   vertex -0.015912 0.091243 0.026072
  endloop
 endfacet
 facet normal -0.886806 -0.451991 -0.0963284
  outer loop
   vertex -0.018551 0.09497 0.02356
   vertex -0.017658 0.093807 0.020796
   vertex -0.01713 0.092182 0.02356
  endloop
 endfacet
 facet normal -0.794662 -0.577331 -0.18762
  outer loop
   vertex -0.017658 0.093807 0.020796
   vertex -0.015748 0.091178 0.020796
   vertex -0.01713 0.092182 0.02356
  endloop
 endfacet
 facet normal -0.703824 -0.703824 -0.0962537
  outer loop
   vertex -0.01713 0.092182 0.02356
   vertex -0.015748 0.091178 0.020796
   vertex -0.014918 0.08997 0.02356
  endloop
 endfacet
 facet normal -0.578519 -0.796783 -0.174509
  outer loop
   vertex -0.015748 0.091178 0.020796
   vertex -0.0134 0.089418 0.021048
   vertex -0.014918 0.08997 0.02356
  endloop
 endfacet
 facet normal -0.89641 -0.274294 -0.348155
  outer loop
   vertex -0.018606 0.096584 0.021049
   vertex -0.017351 0.095671 0.018537
   vertex -0.017658 0.093807 0.020796
  endloop
 endfacet
 facet normal -0.803858 -0.400541 -0.439749
  outer loop
   vertex -0.017351 0.095671 0.018537
   vertex -0.015922 0.09306 0.018303
   vertex -0.017658 0.093807 0.020796
  endloop
 endfacet
 facet normal -0.754436 -0.548107 -0.361117
  outer loop
   vertex -0.017658 0.093807 0.020796
   vertex -0.015922 0.09306 0.018303
   vertex -0.015748 0.091178 0.020796
  endloop
 endfacet
 facet normal -0.629279 -0.640767 -0.439803
  outer loop
   vertex -0.015922 0.09306 0.018303
   vertex -0.01388 0.090894 0.018537
   vertex -0.015748 0.091178 0.020796
  endloop
 endfacet
 facet normal -0.537986 -0.767602 -0.348366
  outer loop
   vertex -0.015748 0.091178 0.020796
   vertex -0.01388 0.090894 0.018537
   vertex -0.0134 0.089418 0.021048
  endloop
 endfacet
 facet normal -0.420269 -0.815078 -0.398776
  outer loop
   vertex -0.01388 0.090894 0.018537
   vertex -0.011804 0.089554 0.019088
   vertex -0.0134 0.089418 0.021048
  endloop
 endfacet
 facet normal 0.294416 -0.906493 0.302638
  outer loop
   vertex -0.007488 0.088506 0.026072
   vertex -0.00468 0.089418 0.026072
   vertex -0.006276 0.089554 0.028032
  endloop
 endfacet
 facet normal 0.155824 -0.984657 0.07855
  outer loop
   vertex -0.00904 0.08806 0.02356
   vertex -0.00595 0.088549 0.02356
   vertex -0.007488 0.088506 0.026072
  endloop
 endfacet
 facet normal -0.000555151 -0.98466 -0.174481
  outer loop
   vertex -0.010592 0.088506 0.021048
   vertex -0.007658 0.088549 0.020796
   vertex -0.00904 0.08806 0.02356
  endloop
 endfacet
 facet normal 0.304389 -0.937197 0.170322
  outer loop
   vertex -0.007488 0.088506 0.026072
   vertex -0.00595 0.088549 0.02356
   vertex -0.00468 0.089418 0.026072
  endloop
 endfacet
 facet normal 0.452705 -0.888208 0.0783901
  outer loop
   vertex -0.00595 0.088549 0.02356
   vertex -0.003162 0.08997 0.02356
   vertex -0.00468 0.089418 0.026072
  endloop
 endfacet
 facet normal 0.155583 -0.983133 -0.0961419
  outer loop
   vertex -0.00904 0.08806 0.02356
   vertex -0.007658 0.088549 0.020796
   vertex -0.00595 0.088549 0.02356
  endloop
 endfacet
 facet normal 0.303796 -0.934059 -0.187729
  outer loop
   vertex -0.007658 0.088549 0.020796
   vertex -0.004568 0.089554 0.020796
   vertex -0.00595 0.088549 0.02356
  endloop
 endfacet
 facet normal 0.451986 -0.886796 -0.0964489
  outer loop
   vertex -0.00595 0.088549 0.02356
   vertex -0.004568 0.089554 0.020796
   vertex -0.003162 0.08997 0.02356
  endloop
 endfacet
 facet normal 0.578874 -0.796508 -0.174584
  outer loop
   vertex -0.004568 0.089554 0.020796
   vertex -0.002168 0.091243 0.021048
   vertex -0.003162 0.08997 0.02356
  endloop
 endfacet
 facet normal -0.0161962 -0.937175 -0.348485
  outer loop
   vertex -0.010592 0.088506 0.021048
   vertex -0.009336 0.089418 0.018537
   vertex -0.007658 0.088549 0.020796
  endloop
 endfacet
 facet normal 0.132412 -0.888171 -0.440021
  outer loop
   vertex -0.009336 0.089418 0.018537
   vertex -0.006411 0.08997 0.018303
   vertex -0.007658 0.088549 0.020796
  endloop
 endfacet
 facet normal 0.288415 -0.886769 -0.361189
  outer loop
   vertex -0.007658 0.088549 0.020796
   vertex -0.006411 0.08997 0.018303
   vertex -0.004568 0.089554 0.020796
  endloop
 endfacet
 facet normal 0.415138 -0.796394 -0.439791
  outer loop
   vertex -0.006411 0.08997 0.018303
   vertex -0.003721 0.091243 0.018537
   vertex -0.004568 0.089554 0.020796
  endloop
 endfacet
 facet normal 0.563623 -0.748876 -0.348589
  outer loop
   vertex -0.004568 0.089554 0.020796
   vertex -0.003721 0.091243 0.018537
   vertex -0.002168 0.091243 0.021048
  endloop
 endfacet
 facet normal 0.645038 -0.651744 -0.398942
  outer loop
   vertex -0.003721 0.091243 0.018537
   vertex -0.001804 0.092803 0.019088
   vertex -0.002168 0.091243 0.021048
  endloop
 endfacet
 facet normal 0.9532 -0 0.302341
  outer loop
   vertex 0.000526 0.096584 0.026071
   vertex 0.000526 0.099536 0.026071
   vertex -9.59999e-05 0.09806 0.028032
  endloop
 endfacet
 facet normal 0.984653 -0.155824 0.0785916
  outer loop
   vertex 0.000471 0.09497 0.02356
   vertex 0.00096 0.09806 0.02356
   vertex 0.000526 0.096584 0.026071
  endloop
 endfacet
 facet normal 0.936352 -0.304548 -0.174631
  outer loop
   vertex -0.000433 0.093631 0.021048
   vertex 0.000432 0.096435 0.020796
   vertex 0.000471 0.09497 0.02356
  endloop
 endfacet
 facet normal 0.98539 -0 0.170314
  outer loop
   vertex 0.000526 0.096584 0.026071
   vertex 0.00096 0.09806 0.02356
   vertex 0.000526 0.099536 0.026071
  endloop
 endfacet
 facet normal 0.984653 0.155824 0.0785916
  outer loop
   vertex 0.00096 0.09806 0.02356
   vertex 0.000471 0.10115 0.02356
   vertex 0.000526 0.099536 0.026071
  endloop
 endfacet
 facet normal 0.983115 -0.15558 -0.0963335
  outer loop
   vertex 0.000471 0.09497 0.02356
   vertex 0.000432 0.096435 0.020796
   vertex 0.00096 0.09806 0.02356
  endloop
 endfacet
 facet normal 0.982239 0 -0.187634
  outer loop
   vertex 0.000432 0.096435 0.020796
   vertex 0.000432 0.099685 0.020796
   vertex 0.00096 0.09806 0.02356
  endloop
 endfacet
 facet normal 0.983115 0.15558 -0.0963335
  outer loop
   vertex 0.00096 0.09806 0.02356
   vertex 0.000432 0.099685 0.020796
   vertex 0.000471 0.10115 0.02356
  endloop
 endfacet
 facet normal 0.936352 0.304548 -0.174631
  outer loop
   vertex 0.000432 0.099685 0.020796
   vertex -0.000433 0.102489 0.021048
   vertex 0.000471 0.10115 0.02356
  endloop
 endfacet
 facet normal 0.886309 -0.304753 -0.348685
  outer loop
   vertex -0.000433 0.093631 0.021048
   vertex -0.000913 0.095108 0.018537
   vertex 0.000432 0.096435 0.020796
  endloop
 endfacet
 facet normal 0.885615 -0.148581 -0.440011
  outer loop
   vertex -0.000913 0.095108 0.018537
   vertex -0.000534 0.09806 0.018303
   vertex 0.000432 0.096435 0.020796
  endloop
 endfacet
 facet normal 0.932446 0 -0.361309
  outer loop
   vertex 0.000432 0.096435 0.020796
   vertex -0.000534 0.09806 0.018303
   vertex 0.000432 0.099685 0.020796
  endloop
 endfacet
 facet normal 0.885615 0.148581 -0.440011
  outer loop
   vertex -0.000534 0.09806 0.018303
   vertex -0.000913 0.101012 0.018537
   vertex 0.000432 0.099685 0.020796
  endloop
 endfacet
 facet normal 0.886309 0.304753 -0.348685
  outer loop
   vertex 0.000432 0.099685 0.020796
   vertex -0.000913 0.101012 0.018537
   vertex -0.000433 0.102489 0.021048
  endloop
 endfacet
 facet normal 0.819189 0.412026 -0.398954
  outer loop
   vertex -0.000913 0.101012 0.018537
   vertex -0.001804 0.103317 0.019088
   vertex -0.000433 0.102489 0.021048
  endloop
 endfacet
 facet normal 0.61533 0.560308 -0.554459
  outer loop
   vertex -0.002945 0.102489 0.016985
   vertex -0.003721 0.104877 0.018537
   vertex -0.001804 0.103317 0.019088
  endloop
 endfacet
 facet normal 0.467426 0.452641 -0.759361
  outer loop
   vertex -0.004787 0.10115 0.015053
   vertex -0.005422 0.103938 0.016324
   vertex -0.002945 0.102489 0.016985
  endloop
 endfacet
 facet normal 0.262485 0.303841 -0.915851
  outer loop
   vertex -0.007008 0.099536 0.013881
   vertex -0.007658 0.102313 0.014616
   vertex -0.004787 0.10115 0.015053
  endloop
 endfacet
 facet normal 0.508799 0.579247 -0.636864
  outer loop
   vertex -0.002945 0.102489 0.016985
   vertex -0.005422 0.103938 0.016324
   vertex -0.003721 0.104877 0.018537
  endloop
 endfacet
 facet normal 0.38541 0.704977 -0.595371
  outer loop
   vertex -0.005422 0.103938 0.016324
   vertex -0.006411 0.10615 0.018303
   vertex -0.003721 0.104877 0.018537
  endloop
 endfacet
 facet normal 0.310374 0.451949 -0.836307
  outer loop
   vertex -0.004787 0.10115 0.015053
   vertex -0.007658 0.102313 0.014616
   vertex -0.005422 0.103938 0.016324
  endloop
 endfacet
 facet normal 0.187559 0.577248 -0.794737
  outer loop
   vertex -0.007658 0.102313 0.014616
   vertex -0.008512 0.104942 0.016324
   vertex -0.005422 0.103938 0.016324
  endloop
 endfacet
 facet normal 0.228709 0.703897 -0.672474
  outer loop
   vertex -0.005422 0.103938 0.016324
   vertex -0.008512 0.104942 0.016324
   vertex -0.006411 0.10615 0.018303
  endloop
 endfacet
 facet normal 0.102735 0.796801 -0.595444
  outer loop
   vertex -0.008512 0.104942 0.016324
   vertex -0.009336 0.106702 0.018537
   vertex -0.006411 0.10615 0.018303
  endloop
 endfacet
 facet normal 0.0891868 0.274301 -0.957499
  outer loop
   vertex -0.007008 0.099536 0.013881
   vertex -0.009816 0.100449 0.013881
   vertex -0.007658 0.102313 0.014616
  endloop
 endfacet
 facet normal -0.0336945 0.400135 -0.915836
  outer loop
   vertex -0.009816 0.100449 0.013881
   vertex -0.010665 0.10306 0.015053
   vertex -0.007658 0.102313 0.014616
  endloop
 endfacet
 facet normal 0.0146149 0.548074 -0.836302
  outer loop
   vertex -0.007658 0.102313 0.014616
   vertex -0.010665 0.10306 0.015053
   vertex -0.008512 0.104942 0.016324
  endloop
 endfacet
 facet normal -0.112009 0.640965 -0.759354
  outer loop
   vertex -0.010665 0.10306 0.015053
   vertex -0.011368 0.105226 0.016985
   vertex -0.008512 0.104942 0.016324
  endloop
 endfacet
 facet normal -0.0710868 0.767617 -0.636955
  outer loop
   vertex -0.008512 0.104942 0.016324
   vertex -0.011368 0.105226 0.016985
   vertex -0.009336 0.106702 0.018537
  endloop
 endfacet
 facet normal -0.168666 0.815046 -0.554303
  outer loop
   vertex -0.011368 0.105226 0.016985
   vertex -0.011804 0.106566 0.019088
   vertex -0.009336 0.106702 0.018537
  endloop
 endfacet
 facet normal -0.342493 0.758552 -0.554344
  outer loop
   vertex -0.011368 0.105226 0.016985
   vertex -0.01388 0.105226 0.018537
   vertex -0.011804 0.106566 0.019088
  endloop
 endfacet
 facet normal -0.286233 0.584386 -0.759318
  outer loop
   vertex -0.010665 0.10306 0.015053
   vertex -0.013512 0.103317 0.016324
   vertex -0.011368 0.105226 0.016985
  endloop
 endfacet
 facet normal -0.207851 0.343516 -0.915858
  outer loop
   vertex -0.009816 0.100449 0.013881
   vertex -0.012658 0.100689 0.014616
   vertex -0.010665 0.10306 0.015053
  endloop
 endfacet
 facet normal -0.393627 0.662685 -0.637108
  outer loop
   vertex -0.011368 0.105226 0.016985
   vertex -0.013512 0.103317 0.016324
   vertex -0.01388 0.105226 0.018537
  endloop
 endfacet
 facet normal -0.551379 0.584158 -0.595601
  outer loop
   vertex -0.013512 0.103317 0.016324
   vertex -0.015922 0.10306 0.018303
   vertex -0.01388 0.105226 0.018537
  endloop
 endfacet
 facet normal -0.334054 0.43492 -0.836213
  outer loop
   vertex -0.010665 0.10306 0.015053
   vertex -0.012658 0.100689 0.014616
   vertex -0.013512 0.103317 0.016324
  endloop
 endfacet
 facet normal -0.491058 0.356895 -0.794662
  outer loop
   vertex -0.012658 0.100689 0.014616
   vertex -0.015422 0.100689 0.016324
   vertex -0.013512 0.103317 0.016324
  endloop
 endfacet
 facet normal -0.598657 0.435097 -0.672533
  outer loop
   vertex -0.013512 0.103317 0.016324
   vertex -0.015422 0.100689 0.016324
   vertex -0.015922 0.10306 0.018303
  endloop
 endfacet
 facet normal -0.725985 0.343961 -0.595514
  outer loop
   vertex -0.015422 0.100689 0.016324
   vertex -0.017351 0.100449 0.018537
   vertex -0.015922 0.10306 0.018303
  endloop
 endfacet
 facet normal -0.233325 0.169451 -0.957521
  outer loop
   vertex -0.009816 0.100449 0.013881
   vertex -0.011551 0.09806 0.013881
   vertex -0.012658 0.100689 0.014616
  endloop
 endfacet
 facet normal -0.390899 0.0914587 -0.915878
  outer loop
   vertex -0.011551 0.09806 0.013881
   vertex -0.014297 0.09806 0.015053
   vertex -0.012658 0.100689 0.014616
  endloop
 endfacet
 facet normal -0.516783 0.183167 -0.836293
  outer loop
   vertex -0.012658 0.100689 0.014616
   vertex -0.014297 0.09806 0.015053
   vertex -0.015422 0.100689 0.016324
  endloop
 endfacet
 facet normal -0.644269 0.0913996 -0.759317
  outer loop
   vertex -0.014297 0.09806 0.015053
   vertex -0.016574 0.09806 0.016985
   vertex -0.015422 0.100689 0.016324
  endloop
 endfacet
 facet normal -0.751958 0.169318 -0.637095
  outer loop
   vertex -0.015422 0.100689 0.016324
   vertex -0.016574 0.09806 0.016985
   vertex -0.017351 0.100449 0.018537
  endloop
 endfacet
 facet normal -0.827124 0.091254 -0.554562
  outer loop
   vertex -0.016574 0.09806 0.016985
   vertex -0.017984 0.09806 0.019088
   vertex -0.017351 0.100449 0.018537
  endloop
 endfacet
 facet normal -0.827124 -0.091254 -0.554562
  outer loop
   vertex -0.016574 0.09806 0.016985
   vertex -0.017351 0.095671 0.018537
   vertex -0.017984 0.09806 0.019088
  endloop
 endfacet
 facet normal -0.644269 -0.0913996 -0.759317
  outer loop
   vertex -0.014297 0.09806 0.015053
   vertex -0.015422 0.095431 0.016324
   vertex -0.016574 0.09806 0.016985
  endloop
 endfacet
 facet normal -0.390899 -0.0914587 -0.915878
  outer loop
   vertex -0.011551 0.09806 0.013881
   vertex -0.012658 0.095431 0.014616
   vertex -0.014297 0.09806 0.015053
  endloop
 endfacet
 facet normal -0.751958 -0.169318 -0.637095
  outer loop
   vertex -0.016574 0.09806 0.016985
   vertex -0.015422 0.095431 0.016324
   vertex -0.017351 0.095671 0.018537
  endloop
 endfacet
 facet normal -0.725985 -0.343961 -0.595514
  outer loop
   vertex -0.015422 0.095431 0.016324
   vertex -0.015922 0.09306 0.018303
   vertex -0.017351 0.095671 0.018537
  endloop
 endfacet
 facet normal -0.516783 -0.183167 -0.836293
  outer loop
   vertex -0.014297 0.09806 0.015053
   vertex -0.012658 0.095431 0.014616
   vertex -0.015422 0.095431 0.016324
  endloop
 endfacet
 facet normal -0.491058 -0.356895 -0.794662
  outer loop
   vertex -0.012658 0.095431 0.014616
   vertex -0.013512 0.092803 0.016324
   vertex -0.015422 0.095431 0.016324
  endloop
 endfacet
 facet normal -0.598657 -0.435097 -0.672533
  outer loop
   vertex -0.015422 0.095431 0.016324
   vertex -0.013512 0.092803 0.016324
   vertex -0.015922 0.09306 0.018303
  endloop
 endfacet
 facet normal -0.551379 -0.584158 -0.595601
  outer loop
   vertex -0.013512 0.092803 0.016324
   vertex -0.01388 0.090894 0.018537
   vertex -0.015922 0.09306 0.018303
  endloop
 endfacet
 facet normal -0.233325 -0.169451 -0.957521
  outer loop
   vertex -0.011551 0.09806 0.013881
   vertex -0.009816 0.095671 0.013881
   vertex -0.012658 0.095431 0.014616
  endloop
 endfacet
 facet normal -0.207851 -0.343516 -0.915858
  outer loop
   vertex -0.009816 0.095671 0.013881
   vertex -0.010665 0.09306 0.015053
   vertex -0.012658 0.095431 0.014616
  endloop
 endfacet
 facet normal -0.334054 -0.43492 -0.836213
  outer loop
   vertex -0.012658 0.095431 0.014616
   vertex -0.010665 0.09306 0.015053
   vertex -0.013512 0.092803 0.016324
  endloop
 endfacet
 facet normal -0.286233 -0.584386 -0.759318
  outer loop
   vertex -0.010665 0.09306 0.015053
   vertex -0.011368 0.090894 0.016985
   vertex -0.013512 0.092803 0.016324
  endloop
 endfacet
 facet normal -0.393627 -0.662685 -0.637108
  outer loop
   vertex -0.013512 0.092803 0.016324
   vertex -0.011368 0.090894 0.016985
   vertex -0.01388 0.090894 0.018537
  endloop
 endfacet
 facet normal -0.342493 -0.758552 -0.554344
  outer loop
   vertex -0.011368 0.090894 0.016985
   vertex -0.011804 0.089554 0.019088
   vertex -0.01388 0.090894 0.018537
  endloop
 endfacet
 facet normal 0.723015 0.412034 -0.554506
  outer loop
   vertex -0.000913 0.101012 0.018537
   vertex -0.002945 0.102489 0.016985
   vertex -0.001804 0.103317 0.019088
  endloop
 endfacet
 facet normal 0.789589 0.148568 -0.59538
  outer loop
   vertex -0.000534 0.09806 0.018303
   vertex -0.002332 0.099685 0.016324
   vertex -0.000913 0.101012 0.018537
  endloop
 endfacet
 facet normal 0.789589 -0.148568 -0.59538
  outer loop
   vertex -0.000913 0.095108 0.018537
   vertex -0.002332 0.096435 0.016324
   vertex -0.000534 0.09806 0.018303
  endloop
 endfacet
 facet normal 0.708089 0.304936 -0.636886
  outer loop
   vertex -0.000913 0.101012 0.018537
   vertex -0.002332 0.099685 0.016324
   vertex -0.002945 0.102489 0.016985
  endloop
 endfacet
 facet normal 0.574948 0.304695 -0.759339
  outer loop
   vertex -0.002332 0.099685 0.016324
   vertex -0.004787 0.10115 0.015053
   vertex -0.002945 0.102489 0.016985
  endloop
 endfacet
 facet normal 0.740143 0 -0.672449
  outer loop
   vertex -0.000534 0.09806 0.018303
   vertex -0.002332 0.096435 0.016324
   vertex -0.002332 0.099685 0.016324
  endloop
 endfacet
 facet normal 0.607028 0 -0.794681
  outer loop
   vertex -0.002332 0.096435 0.016324
   vertex -0.004568 0.09806 0.014616
   vertex -0.002332 0.099685 0.016324
  endloop
 endfacet
 facet normal 0.525774 0.155534 -0.836284
  outer loop
   vertex -0.002332 0.099685 0.016324
   vertex -0.004568 0.09806 0.014616
   vertex -0.004787 0.10115 0.015053
  endloop
 endfacet
 facet normal 0.370096 0.155752 -0.915844
  outer loop
   vertex -0.004568 0.09806 0.014616
   vertex -0.007008 0.099536 0.013881
   vertex -0.004787 0.10115 0.015053
  endloop
 endfacet
 facet normal 0.708089 -0.304936 -0.636886
  outer loop
   vertex -0.000913 0.095108 0.018537
   vertex -0.002945 0.093631 0.016985
   vertex -0.002332 0.096435 0.016324
  endloop
 endfacet
 facet normal 0.574948 -0.304695 -0.759339
  outer loop
   vertex -0.002945 0.093631 0.016985
   vertex -0.004787 0.09497 0.015053
   vertex -0.002332 0.096435 0.016324
  endloop
 endfacet
 facet normal 0.525774 -0.155534 -0.836284
  outer loop
   vertex -0.002332 0.096435 0.016324
   vertex -0.004787 0.09497 0.015053
   vertex -0.004568 0.09806 0.014616
  endloop
 endfacet
 facet normal 0.370096 -0.155752 -0.915844
  outer loop
   vertex -0.004787 0.09497 0.015053
   vertex -0.007008 0.096584 0.013881
   vertex -0.004568 0.09806 0.014616
  endloop
 endfacet
 facet normal 0.288428 0 -0.957502
  outer loop
   vertex -0.004568 0.09806 0.014616
   vertex -0.007008 0.096584 0.013881
   vertex -0.007008 0.099536 0.013881
  endloop
 endfacet
 facet normal 0.156037 0 -0.987751
  outer loop
   vertex -0.007008 0.096584 0.013881
   vertex -0.00904 0.09806 0.01356
   vertex -0.007008 0.099536 0.013881
  endloop
 endfacet
 facet normal -0.168666 -0.815046 -0.554303
  outer loop
   vertex -0.011368 0.090894 0.016985
   vertex -0.009336 0.089418 0.018537
   vertex -0.011804 0.089554 0.019088
  endloop
 endfacet
 facet normal -0.112009 -0.640965 -0.759354
  outer loop
   vertex -0.010665 0.09306 0.015053
   vertex -0.008512 0.091178 0.016324
   vertex -0.011368 0.090894 0.016985
  endloop
 endfacet
 facet normal -0.0336945 -0.400135 -0.915836
  outer loop
   vertex -0.009816 0.095671 0.013881
   vertex -0.007658 0.093807 0.014616
   vertex -0.010665 0.09306 0.015053
  endloop
 endfacet
 facet normal -0.0710868 -0.767617 -0.636955
  outer loop
   vertex -0.011368 0.090894 0.016985
   vertex -0.008512 0.091178 0.016324
   vertex -0.009336 0.089418 0.018537
  endloop
 endfacet
 facet normal 0.102735 -0.796801 -0.595444
  outer loop
   vertex -0.008512 0.091178 0.016324
   vertex -0.006411 0.08997 0.018303
   vertex -0.009336 0.089418 0.018537
  endloop
 endfacet
 facet normal 0.0146149 -0.548074 -0.836302
  outer loop
   vertex -0.010665 0.09306 0.015053
   vertex -0.007658 0.093807 0.014616
   vertex -0.008512 0.091178 0.016324
  endloop
 endfacet
 facet normal 0.187559 -0.577248 -0.794737
  outer loop
   vertex -0.007658 0.093807 0.014616
   vertex -0.005422 0.092182 0.016324
   vertex -0.008512 0.091178 0.016324
  endloop
 endfacet
 facet normal 0.228709 -0.703897 -0.672474
  outer loop
   vertex -0.008512 0.091178 0.016324
   vertex -0.005422 0.092182 0.016324
   vertex -0.006411 0.08997 0.018303
  endloop
 endfacet
 facet normal 0.38541 -0.704977 -0.595371
  outer loop
   vertex -0.005422 0.092182 0.016324
   vertex -0.003721 0.091243 0.018537
   vertex -0.006411 0.08997 0.018303
  endloop
 endfacet
 facet normal 0.0891868 -0.274301 -0.957499
  outer loop
   vertex -0.009816 0.095671 0.013881
   vertex -0.007008 0.096584 0.013881
   vertex -0.007658 0.093807 0.014616
  endloop
 endfacet
 facet normal 0.262485 -0.303841 -0.915851
  outer loop
   vertex -0.007008 0.096584 0.013881
   vertex -0.004787 0.09497 0.015053
   vertex -0.007658 0.093807 0.014616
  endloop
 endfacet
 facet normal 0.310374 -0.451949 -0.836307
  outer loop
   vertex -0.007658 0.093807 0.014616
   vertex -0.004787 0.09497 0.015053
   vertex -0.005422 0.092182 0.016324
  endloop
 endfacet
 facet normal 0.467426 -0.452641 -0.759361
  outer loop
   vertex -0.004787 0.09497 0.015053
   vertex -0.002945 0.093631 0.016985
   vertex -0.005422 0.092182 0.016324
  endloop
 endfacet
 facet normal 0.508799 -0.579247 -0.636864
  outer loop
   vertex -0.005422 0.092182 0.016324
   vertex -0.002945 0.093631 0.016985
   vertex -0.003721 0.091243 0.018537
  endloop
 endfacet
 facet normal 0.61533 -0.560308 -0.554459
  outer loop
   vertex -0.002945 0.093631 0.016985
   vertex -0.001804 0.092803 0.019088
   vertex -0.003721 0.091243 0.018537
  endloop
 endfacet
endsolid ExportedfromBlender-3.5.1
