solid ExportedfromBlender-3.5.1
 facet normal 0.0482486 -0.148392 -0.987751
  outer loop
   vertex 0.02317 0.34062 -0.02042
   vertex 0.025202 0.339144 -0.020099
   vertex 0.022394 0.338231 -0.020099
  endloop
 endfacet
 facet normal 0.723015 -0.412034 -0.554506
  outer loop
   vertex 0.030406 0.335363 -0.014892
   vertex 0.029265 0.336191 -0.016995
   vertex 0.031297 0.337668 -0.015443
  endloop
 endfacet
 facet normal -0.126271 -0.0917039 -0.987748
  outer loop
   vertex 0.02317 0.34062 -0.02042
   vertex 0.022394 0.338231 -0.020099
   vertex 0.020659 0.34062 -0.020099
  endloop
 endfacet
 facet normal -0.126271 0.0917039 -0.987748
  outer loop
   vertex 0.02317 0.34062 -0.02042
   vertex 0.020659 0.34062 -0.020099
   vertex 0.022394 0.343009 -0.020099
  endloop
 endfacet
 facet normal 0.0482486 0.148392 -0.987751
  outer loop
   vertex 0.02317 0.34062 -0.02042
   vertex 0.022394 0.343009 -0.020099
   vertex 0.025202 0.342096 -0.020099
  endloop
 endfacet
 facet normal 0.819189 -0.412026 -0.398954
  outer loop
   vertex 0.030406 0.335363 -0.014892
   vertex 0.031297 0.337668 -0.015443
   vertex 0.031777 0.336191 -0.012932
  endloop
 endfacet
 facet normal -0.138975 -0.90647 -0.398746
  outer loop
   vertex 0.020406 0.332114 -0.014892
   vertex 0.022874 0.331978 -0.015443
   vertex 0.021618 0.331066 -0.012932
  endloop
 endfacet
 facet normal -0.905177 -0.147939 -0.398459
  outer loop
   vertex 0.014226 0.34062 -0.014892
   vertex 0.014859 0.338231 -0.015443
   vertex 0.013604 0.339144 -0.012931
  endloop
 endfacet
 facet normal -0.420269 0.815078 -0.398776
  outer loop
   vertex 0.020406 0.349126 -0.014892
   vertex 0.01833 0.347786 -0.015443
   vertex 0.01881 0.349262 -0.012932
  endloop
 endfacet
 facet normal 0.645038 0.651744 -0.398942
  outer loop
   vertex 0.030406 0.345877 -0.014892
   vertex 0.028489 0.347437 -0.015443
   vertex 0.030042 0.347437 -0.012932
  endloop
 endfacet
 facet normal 0.771063 -0.560215 -0.302688
  outer loop
   vertex 0.030406 0.335363 -0.014892
   vertex 0.031777 0.336191 -0.012932
   vertex 0.030042 0.333803 -0.012932
  endloop
 endfacet
 facet normal -0.294416 -0.906493 -0.302638
  outer loop
   vertex 0.020406 0.332114 -0.014892
   vertex 0.021618 0.331066 -0.012932
   vertex 0.01881 0.331978 -0.012932
  endloop
 endfacet
 facet normal -0.9532 0 -0.302341
  outer loop
   vertex 0.014226 0.34062 -0.014892
   vertex 0.013604 0.339144 -0.012931
   vertex 0.013604 0.342096 -0.012931
  endloop
 endfacet
 facet normal -0.294416 0.906493 -0.302638
  outer loop
   vertex 0.020406 0.349126 -0.014892
   vertex 0.01881 0.349262 -0.012932
   vertex 0.021618 0.350174 -0.012932
  endloop
 endfacet
 facet normal 0.771063 0.560215 -0.302688
  outer loop
   vertex 0.030406 0.345877 -0.014892
   vertex 0.030042 0.347437 -0.012932
   vertex 0.031777 0.345049 -0.012932
  endloop
 endfacet
 facet normal 0.342493 -0.758552 0.554344
  outer loop
   vertex 0.025934 0.332114 -0.005948
   vertex 0.02801 0.333454 -0.005397
   vertex 0.025498 0.333454 -0.003845
  endloop
 endfacet
 facet normal -0.61533 -0.560308 0.554459
  outer loop
   vertex 0.015934 0.335363 -0.005948
   vertex 0.017851 0.333803 -0.005397
   vertex 0.017075 0.336191 -0.003845
  endloop
 endfacet
 facet normal -0.723015 0.412034 0.554506
  outer loop
   vertex 0.015934 0.345877 -0.005948
   vertex 0.015043 0.343572 -0.005397
   vertex 0.017075 0.345049 -0.003845
  endloop
 endfacet
 facet normal 0.168666 0.815046 0.554303
  outer loop
   vertex 0.025934 0.349126 -0.005948
   vertex 0.023466 0.349262 -0.005397
   vertex 0.025498 0.347786 -0.003845
  endloop
 endfacet
 facet normal 0.827124 0.091254 0.554562
  outer loop
   vertex 0.032114 0.34062 -0.005948
   vertex 0.031481 0.343009 -0.005397
   vertex 0.030704 0.34062 -0.003845
  endloop
 endfacet
 facet normal 0.126271 0.0917039 0.987748
  outer loop
   vertex 0.025681 0.34062 -0.000741
   vertex 0.023946 0.343009 -0.000741
   vertex 0.02317 0.34062 -0.00042
  endloop
 endfacet
 facet normal 0.390899 0.0914587 0.915878
  outer loop
   vertex 0.028427 0.34062 -0.001913
   vertex 0.026788 0.343249 -0.001476
   vertex 0.025681 0.34062 -0.000741
  endloop
 endfacet
 facet normal 0.644269 0.0913996 0.759317
  outer loop
   vertex 0.030704 0.34062 -0.003845
   vertex 0.029552 0.343249 -0.003184
   vertex 0.028427 0.34062 -0.001913
  endloop
 endfacet
 facet normal 0.233325 0.169451 0.957521
  outer loop
   vertex 0.025681 0.34062 -0.000741
   vertex 0.026788 0.343249 -0.001476
   vertex 0.023946 0.343009 -0.000741
  endloop
 endfacet
 facet normal 0.207851 0.343516 0.915858
  outer loop
   vertex 0.026788 0.343249 -0.001476
   vertex 0.024795 0.34562 -0.001913
   vertex 0.023946 0.343009 -0.000741
  endloop
 endfacet
 facet normal 0.516783 0.183167 0.836293
  outer loop
   vertex 0.028427 0.34062 -0.001913
   vertex 0.029552 0.343249 -0.003184
   vertex 0.026788 0.343249 -0.001476
  endloop
 endfacet
 facet normal 0.491058 0.356895 0.794662
  outer loop
   vertex 0.029552 0.343249 -0.003184
   vertex 0.027642 0.345877 -0.003184
   vertex 0.026788 0.343249 -0.001476
  endloop
 endfacet
 facet normal 0.334054 0.43492 0.836213
  outer loop
   vertex 0.026788 0.343249 -0.001476
   vertex 0.027642 0.345877 -0.003184
   vertex 0.024795 0.34562 -0.001913
  endloop
 endfacet
 facet normal 0.286233 0.584386 0.759318
  outer loop
   vertex 0.027642 0.345877 -0.003184
   vertex 0.025498 0.347786 -0.003845
   vertex 0.024795 0.34562 -0.001913
  endloop
 endfacet
 facet normal 0.751958 0.169318 0.637095
  outer loop
   vertex 0.030704 0.34062 -0.003845
   vertex 0.031481 0.343009 -0.005397
   vertex 0.029552 0.343249 -0.003184
  endloop
 endfacet
 facet normal 0.725985 0.343961 0.595514
  outer loop
   vertex 0.031481 0.343009 -0.005397
   vertex 0.030052 0.34562 -0.005163
   vertex 0.029552 0.343249 -0.003184
  endloop
 endfacet
 facet normal 0.598657 0.435097 0.672533
  outer loop
   vertex 0.029552 0.343249 -0.003184
   vertex 0.030052 0.34562 -0.005163
   vertex 0.027642 0.345877 -0.003184
  endloop
 endfacet
 facet normal 0.551379 0.584158 0.595601
  outer loop
   vertex 0.030052 0.34562 -0.005163
   vertex 0.02801 0.347786 -0.005397
   vertex 0.027642 0.345877 -0.003184
  endloop
 endfacet
 facet normal 0.393627 0.662685 0.637108
  outer loop
   vertex 0.027642 0.345877 -0.003184
   vertex 0.02801 0.347786 -0.005397
   vertex 0.025498 0.347786 -0.003845
  endloop
 endfacet
 facet normal 0.342493 0.758552 0.554344
  outer loop
   vertex 0.02801 0.347786 -0.005397
   vertex 0.025934 0.349126 -0.005948
   vertex 0.025498 0.347786 -0.003845
  endloop
 endfacet
 facet normal -0.0482486 0.148392 0.987751
  outer loop
   vertex 0.023946 0.343009 -0.000741
   vertex 0.021138 0.342096 -0.000741
   vertex 0.02317 0.34062 -0.00042
  endloop
 endfacet
 facet normal 0.0336945 0.400135 0.915836
  outer loop
   vertex 0.024795 0.34562 -0.001913
   vertex 0.021788 0.344873 -0.001476
   vertex 0.023946 0.343009 -0.000741
  endloop
 endfacet
 facet normal 0.112009 0.640965 0.759354
  outer loop
   vertex 0.025498 0.347786 -0.003845
   vertex 0.022642 0.347502 -0.003184
   vertex 0.024795 0.34562 -0.001913
  endloop
 endfacet
 facet normal -0.0891868 0.274301 0.957499
  outer loop
   vertex 0.023946 0.343009 -0.000741
   vertex 0.021788 0.344873 -0.001476
   vertex 0.021138 0.342096 -0.000741
  endloop
 endfacet
 facet normal -0.262485 0.303841 0.915851
  outer loop
   vertex 0.021788 0.344873 -0.001476
   vertex 0.018917 0.34371 -0.001913
   vertex 0.021138 0.342096 -0.000741
  endloop
 endfacet
 facet normal -0.0146149 0.548074 0.836302
  outer loop
   vertex 0.024795 0.34562 -0.001913
   vertex 0.022642 0.347502 -0.003184
   vertex 0.021788 0.344873 -0.001476
  endloop
 endfacet
 facet normal -0.187559 0.577248 0.794737
  outer loop
   vertex 0.022642 0.347502 -0.003184
   vertex 0.019552 0.346498 -0.003184
   vertex 0.021788 0.344873 -0.001476
  endloop
 endfacet
 facet normal -0.310374 0.451949 0.836307
  outer loop
   vertex 0.021788 0.344873 -0.001476
   vertex 0.019552 0.346498 -0.003184
   vertex 0.018917 0.34371 -0.001913
  endloop
 endfacet
 facet normal -0.467426 0.452641 0.759361
  outer loop
   vertex 0.019552 0.346498 -0.003184
   vertex 0.017075 0.345049 -0.003845
   vertex 0.018917 0.34371 -0.001913
  endloop
 endfacet
 facet normal 0.0710868 0.767617 0.636955
  outer loop
   vertex 0.025498 0.347786 -0.003845
   vertex 0.023466 0.349262 -0.005397
   vertex 0.022642 0.347502 -0.003184
  endloop
 endfacet
 facet normal -0.102735 0.796801 0.595444
  outer loop
   vertex 0.023466 0.349262 -0.005397
   vertex 0.020541 0.34871 -0.005163
   vertex 0.022642 0.347502 -0.003184
  endloop
 endfacet
 facet normal -0.228709 0.703897 0.672474
  outer loop
   vertex 0.022642 0.347502 -0.003184
   vertex 0.020541 0.34871 -0.005163
   vertex 0.019552 0.346498 -0.003184
  endloop
 endfacet
 facet normal -0.38541 0.704977 0.595371
  outer loop
   vertex 0.020541 0.34871 -0.005163
   vertex 0.017851 0.347437 -0.005397
   vertex 0.019552 0.346498 -0.003184
  endloop
 endfacet
 facet normal -0.508799 0.579247 0.636864
  outer loop
   vertex 0.019552 0.346498 -0.003184
   vertex 0.017851 0.347437 -0.005397
   vertex 0.017075 0.345049 -0.003845
  endloop
 endfacet
 facet normal -0.61533 0.560308 0.554459
  outer loop
   vertex 0.017851 0.347437 -0.005397
   vertex 0.015934 0.345877 -0.005948
   vertex 0.017075 0.345049 -0.003845
  endloop
 endfacet
 facet normal -0.156037 0 0.987751
  outer loop
   vertex 0.021138 0.342096 -0.000741
   vertex 0.021138 0.339144 -0.000741
   vertex 0.02317 0.34062 -0.00042
  endloop
 endfacet
 facet normal -0.370096 0.155752 0.915844
  outer loop
   vertex 0.018917 0.34371 -0.001913
   vertex 0.018698 0.34062 -0.001476
   vertex 0.021138 0.342096 -0.000741
  endloop
 endfacet
 facet normal -0.574948 0.304695 0.759339
  outer loop
   vertex 0.017075 0.345049 -0.003845
   vertex 0.016462 0.342245 -0.003184
   vertex 0.018917 0.34371 -0.001913
  endloop
 endfacet
 facet normal -0.288428 0 0.957502
  outer loop
   vertex 0.021138 0.342096 -0.000741
   vertex 0.018698 0.34062 -0.001476
   vertex 0.021138 0.339144 -0.000741
  endloop
 endfacet
 facet normal -0.370096 -0.155752 0.915844
  outer loop
   vertex 0.018698 0.34062 -0.001476
   vertex 0.018917 0.33753 -0.001913
   vertex 0.021138 0.339144 -0.000741
  endloop
 endfacet
 facet normal -0.525774 0.155534 0.836284
  outer loop
   vertex 0.018917 0.34371 -0.001913
   vertex 0.016462 0.342245 -0.003184
   vertex 0.018698 0.34062 -0.001476
  endloop
 endfacet
 facet normal -0.607028 0 0.794681
  outer loop
   vertex 0.016462 0.342245 -0.003184
   vertex 0.016462 0.338995 -0.003184
   vertex 0.018698 0.34062 -0.001476
  endloop
 endfacet
 facet normal -0.525774 -0.155534 0.836284
  outer loop
   vertex 0.018698 0.34062 -0.001476
   vertex 0.016462 0.338995 -0.003184
   vertex 0.018917 0.33753 -0.001913
  endloop
 endfacet
 facet normal -0.574948 -0.304695 0.759339
  outer loop
   vertex 0.016462 0.338995 -0.003184
   vertex 0.017075 0.336191 -0.003845
   vertex 0.018917 0.33753 -0.001913
  endloop
 endfacet
 facet normal -0.708089 0.304936 0.636886
  outer loop
   vertex 0.017075 0.345049 -0.003845
   vertex 0.015043 0.343572 -0.005397
   vertex 0.016462 0.342245 -0.003184
  endloop
 endfacet
 facet normal -0.789589 0.148568 0.59538
  outer loop
   vertex 0.015043 0.343572 -0.005397
   vertex 0.014664 0.34062 -0.005163
   vertex 0.016462 0.342245 -0.003184
  endloop
 endfacet
 facet normal -0.740143 0 0.672449
  outer loop
   vertex 0.016462 0.342245 -0.003184
   vertex 0.014664 0.34062 -0.005163
   vertex 0.016462 0.338995 -0.003184
  endloop
 endfacet
 facet normal -0.789589 -0.148568 0.59538
  outer loop
   vertex 0.014664 0.34062 -0.005163
   vertex 0.015043 0.337668 -0.005397
   vertex 0.016462 0.338995 -0.003184
  endloop
 endfacet
 facet normal -0.708089 -0.304936 0.636886
  outer loop
   vertex 0.016462 0.338995 -0.003184
   vertex 0.015043 0.337668 -0.005397
   vertex 0.017075 0.336191 -0.003845
  endloop
 endfacet
 facet normal -0.723015 -0.412034 0.554506
  outer loop
   vertex 0.015043 0.337668 -0.005397
   vertex 0.015934 0.335363 -0.005948
   vertex 0.017075 0.336191 -0.003845
  endloop
 endfacet
 facet normal -0.0482486 -0.148392 0.987751
  outer loop
   vertex 0.021138 0.339144 -0.000741
   vertex 0.023946 0.338231 -0.000741
   vertex 0.02317 0.34062 -0.00042
  endloop
 endfacet
 facet normal -0.262485 -0.303841 0.915851
  outer loop
   vertex 0.018917 0.33753 -0.001913
   vertex 0.021788 0.336367 -0.001476
   vertex 0.021138 0.339144 -0.000741
  endloop
 endfacet
 facet normal -0.467426 -0.452641 0.759361
  outer loop
   vertex 0.017075 0.336191 -0.003845
   vertex 0.019552 0.334742 -0.003184
   vertex 0.018917 0.33753 -0.001913
  endloop
 endfacet
 facet normal -0.0891868 -0.274301 0.957499
  outer loop
   vertex 0.021138 0.339144 -0.000741
   vertex 0.021788 0.336367 -0.001476
   vertex 0.023946 0.338231 -0.000741
  endloop
 endfacet
 facet normal 0.0336945 -0.400135 0.915836
  outer loop
   vertex 0.021788 0.336367 -0.001476
   vertex 0.024795 0.33562 -0.001913
   vertex 0.023946 0.338231 -0.000741
  endloop
 endfacet
 facet normal -0.310374 -0.451949 0.836307
  outer loop
   vertex 0.018917 0.33753 -0.001913
   vertex 0.019552 0.334742 -0.003184
   vertex 0.021788 0.336367 -0.001476
  endloop
 endfacet
 facet normal -0.187559 -0.577248 0.794737
  outer loop
   vertex 0.019552 0.334742 -0.003184
   vertex 0.022642 0.333738 -0.003184
   vertex 0.021788 0.336367 -0.001476
  endloop
 endfacet
 facet normal -0.0146149 -0.548074 0.836302
  outer loop
   vertex 0.021788 0.336367 -0.001476
   vertex 0.022642 0.333738 -0.003184
   vertex 0.024795 0.33562 -0.001913
  endloop
 endfacet
 facet normal 0.112009 -0.640965 0.759354
  outer loop
   vertex 0.022642 0.333738 -0.003184
   vertex 0.025498 0.333454 -0.003845
   vertex 0.024795 0.33562 -0.001913
  endloop
 endfacet
 facet normal -0.508799 -0.579247 0.636864
  outer loop
   vertex 0.017075 0.336191 -0.003845
   vertex 0.017851 0.333803 -0.005397
   vertex 0.019552 0.334742 -0.003184
  endloop
 endfacet
 facet normal -0.38541 -0.704977 0.595371
  outer loop
   vertex 0.017851 0.333803 -0.005397
   vertex 0.020541 0.33253 -0.005163
   vertex 0.019552 0.334742 -0.003184
  endloop
 endfacet
 facet normal -0.228709 -0.703897 0.672474
  outer loop
   vertex 0.019552 0.334742 -0.003184
   vertex 0.020541 0.33253 -0.005163
   vertex 0.022642 0.333738 -0.003184
  endloop
 endfacet
 facet normal -0.102735 -0.796801 0.595444
  outer loop
   vertex 0.020541 0.33253 -0.005163
   vertex 0.023466 0.331978 -0.005397
   vertex 0.022642 0.333738 -0.003184
  endloop
 endfacet
 facet normal 0.0710868 -0.767617 0.636955
  outer loop
   vertex 0.022642 0.333738 -0.003184
   vertex 0.023466 0.331978 -0.005397
   vertex 0.025498 0.333454 -0.003845
  endloop
 endfacet
 facet normal 0.168666 -0.815046 0.554303
  outer loop
   vertex 0.023466 0.331978 -0.005397
   vertex 0.025934 0.332114 -0.005948
   vertex 0.025498 0.333454 -0.003845
  endloop
 endfacet
 facet normal 0.126271 -0.0917039 0.987748
  outer loop
   vertex 0.023946 0.338231 -0.000741
   vertex 0.025681 0.34062 -0.000741
   vertex 0.02317 0.34062 -0.00042
  endloop
 endfacet
 facet normal 0.207851 -0.343516 0.915858
  outer loop
   vertex 0.024795 0.33562 -0.001913
   vertex 0.026788 0.337991 -0.001476
   vertex 0.023946 0.338231 -0.000741
  endloop
 endfacet
 facet normal 0.286233 -0.584386 0.759318
  outer loop
   vertex 0.025498 0.333454 -0.003845
   vertex 0.027642 0.335363 -0.003184
   vertex 0.024795 0.33562 -0.001913
  endloop
 endfacet
 facet normal 0.233325 -0.169451 0.957521
  outer loop
   vertex 0.023946 0.338231 -0.000741
   vertex 0.026788 0.337991 -0.001476
   vertex 0.025681 0.34062 -0.000741
  endloop
 endfacet
 facet normal 0.390899 -0.0914587 0.915878
  outer loop
   vertex 0.026788 0.337991 -0.001476
   vertex 0.028427 0.34062 -0.001913
   vertex 0.025681 0.34062 -0.000741
  endloop
 endfacet
 facet normal 0.334054 -0.43492 0.836213
  outer loop
   vertex 0.024795 0.33562 -0.001913
   vertex 0.027642 0.335363 -0.003184
   vertex 0.026788 0.337991 -0.001476
  endloop
 endfacet
 facet normal 0.491058 -0.356895 0.794662
  outer loop
   vertex 0.027642 0.335363 -0.003184
   vertex 0.029552 0.337991 -0.003184
   vertex 0.026788 0.337991 -0.001476
  endloop
 endfacet
 facet normal 0.516783 -0.183167 0.836293
  outer loop
   vertex 0.026788 0.337991 -0.001476
   vertex 0.029552 0.337991 -0.003184
   vertex 0.028427 0.34062 -0.001913
  endloop
 endfacet
 facet normal 0.644269 -0.0913996 0.759317
  outer loop
   vertex 0.029552 0.337991 -0.003184
   vertex 0.030704 0.34062 -0.003845
   vertex 0.028427 0.34062 -0.001913
  endloop
 endfacet
 facet normal 0.393627 -0.662685 0.637108
  outer loop
   vertex 0.025498 0.333454 -0.003845
   vertex 0.02801 0.333454 -0.005397
   vertex 0.027642 0.335363 -0.003184
  endloop
 endfacet
 facet normal 0.551379 -0.584158 0.595601
  outer loop
   vertex 0.02801 0.333454 -0.005397
   vertex 0.030052 0.33562 -0.005163
   vertex 0.027642 0.335363 -0.003184
  endloop
 endfacet
 facet normal 0.598657 -0.435097 0.672533
  outer loop
   vertex 0.027642 0.335363 -0.003184
   vertex 0.030052 0.33562 -0.005163
   vertex 0.029552 0.337991 -0.003184
  endloop
 endfacet
 facet normal 0.725985 -0.343961 0.595514
  outer loop
   vertex 0.030052 0.33562 -0.005163
   vertex 0.031481 0.338231 -0.005397
   vertex 0.029552 0.337991 -0.003184
  endloop
 endfacet
 facet normal 0.751958 -0.169318 0.637095
  outer loop
   vertex 0.029552 0.337991 -0.003184
   vertex 0.031481 0.338231 -0.005397
   vertex 0.030704 0.34062 -0.003845
  endloop
 endfacet
 facet normal 0.827124 -0.091254 0.554562
  outer loop
   vertex 0.031481 0.338231 -0.005397
   vertex 0.032114 0.34062 -0.005948
   vertex 0.030704 0.34062 -0.003845
  endloop
 endfacet
 facet normal 0.905177 0.147939 0.398459
  outer loop
   vertex 0.032736 0.342096 -0.007909
   vertex 0.031481 0.343009 -0.005397
   vertex 0.032114 0.34062 -0.005948
  endloop
 endfacet
 facet normal 0.93657 0.303801 0.17476
  outer loop
   vertex 0.032681 0.34371 -0.01042
   vertex 0.031788 0.344873 -0.007656
   vertex 0.032736 0.342096 -0.007909
  endloop
 endfacet
 facet normal 0.888212 0.452708 -0.078331
  outer loop
   vertex 0.031777 0.345049 -0.012932
   vertex 0.03126 0.346498 -0.01042
   vertex 0.032681 0.34371 -0.01042
  endloop
 endfacet
 facet normal 0.89641 0.274294 0.348155
  outer loop
   vertex 0.032736 0.342096 -0.007909
   vertex 0.031788 0.344873 -0.007656
   vertex 0.031481 0.343009 -0.005397
  endloop
 endfacet
 facet normal 0.803858 0.400541 0.439749
  outer loop
   vertex 0.031788 0.344873 -0.007656
   vertex 0.030052 0.34562 -0.005163
   vertex 0.031481 0.343009 -0.005397
  endloop
 endfacet
 facet normal 0.886806 0.451991 0.0963284
  outer loop
   vertex 0.032681 0.34371 -0.01042
   vertex 0.03126 0.346498 -0.01042
   vertex 0.031788 0.344873 -0.007656
  endloop
 endfacet
 facet normal 0.794662 0.577331 0.18762
  outer loop
   vertex 0.03126 0.346498 -0.01042
   vertex 0.029878 0.347502 -0.007656
   vertex 0.031788 0.344873 -0.007656
  endloop
 endfacet
 facet normal 0.754436 0.548107 0.361117
  outer loop
   vertex 0.031788 0.344873 -0.007656
   vertex 0.029878 0.347502 -0.007656
   vertex 0.030052 0.34562 -0.005163
  endloop
 endfacet
 facet normal 0.629279 0.640767 0.439803
  outer loop
   vertex 0.029878 0.347502 -0.007656
   vertex 0.02801 0.347786 -0.005397
   vertex 0.030052 0.34562 -0.005163
  endloop
 endfacet
 facet normal 0.797233 0.579229 -0.170037
  outer loop
   vertex 0.031777 0.345049 -0.012932
   vertex 0.030042 0.347437 -0.012932
   vertex 0.03126 0.346498 -0.01042
  endloop
 endfacet
 facet normal 0.704936 0.704936 -0.0782949
  outer loop
   vertex 0.030042 0.347437 -0.012932
   vertex 0.029048 0.34871 -0.01042
   vertex 0.03126 0.346498 -0.01042
  endloop
 endfacet
 facet normal 0.703824 0.703824 0.0962537
  outer loop
   vertex 0.03126 0.346498 -0.01042
   vertex 0.029048 0.34871 -0.01042
   vertex 0.029878 0.347502 -0.007656
  endloop
 endfacet
 facet normal 0.578519 0.796783 0.174509
  outer loop
   vertex 0.029048 0.34871 -0.01042
   vertex 0.02753 0.349262 -0.007908
   vertex 0.029878 0.347502 -0.007656
  endloop
 endfacet
 facet normal 0.537986 0.767602 0.348366
  outer loop
   vertex 0.029878 0.347502 -0.007656
   vertex 0.02753 0.349262 -0.007908
   vertex 0.02801 0.347786 -0.005397
  endloop
 endfacet
 facet normal 0.420269 0.815078 0.398776
  outer loop
   vertex 0.02753 0.349262 -0.007908
   vertex 0.025934 0.349126 -0.005948
   vertex 0.02801 0.347786 -0.005397
  endloop
 endfacet
 facet normal 0.138975 0.90647 0.398746
  outer loop
   vertex 0.024722 0.350174 -0.007908
   vertex 0.023466 0.349262 -0.005397
   vertex 0.025934 0.349126 -0.005948
  endloop
 endfacet
 facet normal 0.000555151 0.98466 0.174481
  outer loop
   vertex 0.02317 0.35062 -0.01042
   vertex 0.021788 0.350131 -0.007656
   vertex 0.024722 0.350174 -0.007908
  endloop
 endfacet
 facet normal -0.155824 0.984657 -0.07855
  outer loop
   vertex 0.021618 0.350174 -0.012932
   vertex 0.02008 0.350131 -0.01042
   vertex 0.02317 0.35062 -0.01042
  endloop
 endfacet
 facet normal 0.0161962 0.937175 0.348485
  outer loop
   vertex 0.024722 0.350174 -0.007908
   vertex 0.021788 0.350131 -0.007656
   vertex 0.023466 0.349262 -0.005397
  endloop
 endfacet
 facet normal -0.132412 0.888171 0.440021
  outer loop
   vertex 0.021788 0.350131 -0.007656
   vertex 0.020541 0.34871 -0.005163
   vertex 0.023466 0.349262 -0.005397
  endloop
 endfacet
 facet normal -0.155583 0.983133 0.0961419
  outer loop
   vertex 0.02317 0.35062 -0.01042
   vertex 0.02008 0.350131 -0.01042
   vertex 0.021788 0.350131 -0.007656
  endloop
 endfacet
 facet normal -0.303796 0.934059 0.187729
  outer loop
   vertex 0.02008 0.350131 -0.01042
   vertex 0.018698 0.349126 -0.007656
   vertex 0.021788 0.350131 -0.007656
  endloop
 endfacet
 facet normal -0.288415 0.886769 0.361189
  outer loop
   vertex 0.021788 0.350131 -0.007656
   vertex 0.018698 0.349126 -0.007656
   vertex 0.020541 0.34871 -0.005163
  endloop
 endfacet
 facet normal -0.415138 0.796394 0.439791
  outer loop
   vertex 0.018698 0.349126 -0.007656
   vertex 0.017851 0.347437 -0.005397
   vertex 0.020541 0.34871 -0.005163
  endloop
 endfacet
 facet normal -0.304389 0.937197 -0.170322
  outer loop
   vertex 0.021618 0.350174 -0.012932
   vertex 0.01881 0.349262 -0.012932
   vertex 0.02008 0.350131 -0.01042
  endloop
 endfacet
 facet normal -0.452705 0.888208 -0.0783901
  outer loop
   vertex 0.01881 0.349262 -0.012932
   vertex 0.017292 0.34871 -0.01042
   vertex 0.02008 0.350131 -0.01042
  endloop
 endfacet
 facet normal -0.451986 0.886796 0.0964489
  outer loop
   vertex 0.02008 0.350131 -0.01042
   vertex 0.017292 0.34871 -0.01042
   vertex 0.018698 0.349126 -0.007656
  endloop
 endfacet
 facet normal -0.578874 0.796508 0.174584
  outer loop
   vertex 0.017292 0.34871 -0.01042
   vertex 0.016298 0.347437 -0.007908
   vertex 0.018698 0.349126 -0.007656
  endloop
 endfacet
 facet normal -0.563623 0.748876 0.348589
  outer loop
   vertex 0.018698 0.349126 -0.007656
   vertex 0.016298 0.347437 -0.007908
   vertex 0.017851 0.347437 -0.005397
  endloop
 endfacet
 facet normal -0.645038 0.651744 0.398942
  outer loop
   vertex 0.016298 0.347437 -0.007908
   vertex 0.015934 0.345877 -0.005948
   vertex 0.017851 0.347437 -0.005397
  endloop
 endfacet
 facet normal -0.819189 0.412026 0.398954
  outer loop
   vertex 0.014563 0.345049 -0.007908
   vertex 0.015043 0.343572 -0.005397
   vertex 0.015934 0.345877 -0.005948
  endloop
 endfacet
 facet normal -0.936352 0.304548 0.174631
  outer loop
   vertex 0.013659 0.34371 -0.01042
   vertex 0.013698 0.342245 -0.007656
   vertex 0.014563 0.345049 -0.007908
  endloop
 endfacet
 facet normal -0.984653 0.155824 -0.0785916
  outer loop
   vertex 0.013604 0.342096 -0.012931
   vertex 0.01317 0.34062 -0.01042
   vertex 0.013659 0.34371 -0.01042
  endloop
 endfacet
 facet normal -0.886309 0.304753 0.348685
  outer loop
   vertex 0.014563 0.345049 -0.007908
   vertex 0.013698 0.342245 -0.007656
   vertex 0.015043 0.343572 -0.005397
  endloop
 endfacet
 facet normal -0.885615 0.148581 0.440011
  outer loop
   vertex 0.013698 0.342245 -0.007656
   vertex 0.014664 0.34062 -0.005163
   vertex 0.015043 0.343572 -0.005397
  endloop
 endfacet
 facet normal -0.983115 0.15558 0.0963335
  outer loop
   vertex 0.013659 0.34371 -0.01042
   vertex 0.01317 0.34062 -0.01042
   vertex 0.013698 0.342245 -0.007656
  endloop
 endfacet
 facet normal -0.982239 0 0.187634
  outer loop
   vertex 0.01317 0.34062 -0.01042
   vertex 0.013698 0.338995 -0.007656
   vertex 0.013698 0.342245 -0.007656
  endloop
 endfacet
 facet normal -0.932446 0 0.361309
  outer loop
   vertex 0.013698 0.342245 -0.007656
   vertex 0.013698 0.338995 -0.007656
   vertex 0.014664 0.34062 -0.005163
  endloop
 endfacet
 facet normal -0.885615 -0.148581 0.440011
  outer loop
   vertex 0.013698 0.338995 -0.007656
   vertex 0.015043 0.337668 -0.005397
   vertex 0.014664 0.34062 -0.005163
  endloop
 endfacet
 facet normal -0.98539 -0 -0.170314
  outer loop
   vertex 0.013604 0.342096 -0.012931
   vertex 0.013604 0.339144 -0.012931
   vertex 0.01317 0.34062 -0.01042
  endloop
 endfacet
 facet normal -0.984653 -0.155824 -0.0785916
  outer loop
   vertex 0.013604 0.339144 -0.012931
   vertex 0.013659 0.33753 -0.01042
   vertex 0.01317 0.34062 -0.01042
  endloop
 endfacet
 facet normal -0.983115 -0.15558 0.0963335
  outer loop
   vertex 0.01317 0.34062 -0.01042
   vertex 0.013659 0.33753 -0.01042
   vertex 0.013698 0.338995 -0.007656
  endloop
 endfacet
 facet normal -0.936352 -0.304548 0.174631
  outer loop
   vertex 0.013659 0.33753 -0.01042
   vertex 0.014563 0.336191 -0.007908
   vertex 0.013698 0.338995 -0.007656
  endloop
 endfacet
 facet normal -0.886309 -0.304753 0.348685
  outer loop
   vertex 0.013698 0.338995 -0.007656
   vertex 0.014563 0.336191 -0.007908
   vertex 0.015043 0.337668 -0.005397
  endloop
 endfacet
 facet normal -0.819189 -0.412026 0.398954
  outer loop
   vertex 0.014563 0.336191 -0.007908
   vertex 0.015934 0.335363 -0.005948
   vertex 0.015043 0.337668 -0.005397
  endloop
 endfacet
 facet normal -0.645038 -0.651744 0.398942
  outer loop
   vertex 0.016298 0.333803 -0.007908
   vertex 0.017851 0.333803 -0.005397
   vertex 0.015934 0.335363 -0.005948
  endloop
 endfacet
 facet normal -0.578874 -0.796508 0.174584
  outer loop
   vertex 0.017292 0.33253 -0.01042
   vertex 0.018698 0.332114 -0.007656
   vertex 0.016298 0.333803 -0.007908
  endloop
 endfacet
 facet normal -0.452705 -0.888208 -0.0783901
  outer loop
   vertex 0.01881 0.331978 -0.012932
   vertex 0.02008 0.331109 -0.01042
   vertex 0.017292 0.33253 -0.01042
  endloop
 endfacet
 facet normal -0.563623 -0.748876 0.348589
  outer loop
   vertex 0.016298 0.333803 -0.007908
   vertex 0.018698 0.332114 -0.007656
   vertex 0.017851 0.333803 -0.005397
  endloop
 endfacet
 facet normal -0.415138 -0.796394 0.439791
  outer loop
   vertex 0.018698 0.332114 -0.007656
   vertex 0.020541 0.33253 -0.005163
   vertex 0.017851 0.333803 -0.005397
  endloop
 endfacet
 facet normal -0.451986 -0.886796 0.0964489
  outer loop
   vertex 0.017292 0.33253 -0.01042
   vertex 0.02008 0.331109 -0.01042
   vertex 0.018698 0.332114 -0.007656
  endloop
 endfacet
 facet normal -0.303796 -0.934059 0.187729
  outer loop
   vertex 0.02008 0.331109 -0.01042
   vertex 0.021788 0.331109 -0.007656
   vertex 0.018698 0.332114 -0.007656
  endloop
 endfacet
 facet normal -0.288415 -0.886769 0.361189
  outer loop
   vertex 0.018698 0.332114 -0.007656
   vertex 0.021788 0.331109 -0.007656
   vertex 0.020541 0.33253 -0.005163
  endloop
 endfacet
 facet normal -0.132412 -0.888171 0.440021
  outer loop
   vertex 0.021788 0.331109 -0.007656
   vertex 0.023466 0.331978 -0.005397
   vertex 0.020541 0.33253 -0.005163
  endloop
 endfacet
 facet normal -0.304389 -0.937197 -0.170322
  outer loop
   vertex 0.01881 0.331978 -0.012932
   vertex 0.021618 0.331066 -0.012932
   vertex 0.02008 0.331109 -0.01042
  endloop
 endfacet
 facet normal -0.155824 -0.984657 -0.07855
  outer loop
   vertex 0.021618 0.331066 -0.012932
   vertex 0.02317 0.33062 -0.01042
   vertex 0.02008 0.331109 -0.01042
  endloop
 endfacet
 facet normal -0.155583 -0.983133 0.0961419
  outer loop
   vertex 0.02008 0.331109 -0.01042
   vertex 0.02317 0.33062 -0.01042
   vertex 0.021788 0.331109 -0.007656
  endloop
 endfacet
 facet normal 0.000555151 -0.98466 0.174481
  outer loop
   vertex 0.02317 0.33062 -0.01042
   vertex 0.024722 0.331066 -0.007908
   vertex 0.021788 0.331109 -0.007656
  endloop
 endfacet
 facet normal 0.0161962 -0.937175 0.348485
  outer loop
   vertex 0.021788 0.331109 -0.007656
   vertex 0.024722 0.331066 -0.007908
   vertex 0.023466 0.331978 -0.005397
  endloop
 endfacet
 facet normal 0.138975 -0.90647 0.398746
  outer loop
   vertex 0.024722 0.331066 -0.007908
   vertex 0.025934 0.332114 -0.005948
   vertex 0.023466 0.331978 -0.005397
  endloop
 endfacet
 facet normal 0.420269 -0.815078 0.398776
  outer loop
   vertex 0.02753 0.331978 -0.007908
   vertex 0.02801 0.333454 -0.005397
   vertex 0.025934 0.332114 -0.005948
  endloop
 endfacet
 facet normal 0.578519 -0.796783 0.174509
  outer loop
   vertex 0.029048 0.33253 -0.01042
   vertex 0.029878 0.333738 -0.007656
   vertex 0.02753 0.331978 -0.007908
  endloop
 endfacet
 facet normal 0.704936 -0.704936 -0.0782949
  outer loop
   vertex 0.030042 0.333803 -0.012932
   vertex 0.03126 0.334742 -0.01042
   vertex 0.029048 0.33253 -0.01042
  endloop
 endfacet
 facet normal 0.537986 -0.767602 0.348366
  outer loop
   vertex 0.02753 0.331978 -0.007908
   vertex 0.029878 0.333738 -0.007656
   vertex 0.02801 0.333454 -0.005397
  endloop
 endfacet
 facet normal 0.629279 -0.640767 0.439803
  outer loop
   vertex 0.029878 0.333738 -0.007656
   vertex 0.030052 0.33562 -0.005163
   vertex 0.02801 0.333454 -0.005397
  endloop
 endfacet
 facet normal 0.703824 -0.703824 0.0962537
  outer loop
   vertex 0.029048 0.33253 -0.01042
   vertex 0.03126 0.334742 -0.01042
   vertex 0.029878 0.333738 -0.007656
  endloop
 endfacet
 facet normal 0.794662 -0.577331 0.18762
  outer loop
   vertex 0.03126 0.334742 -0.01042
   vertex 0.031788 0.336367 -0.007656
   vertex 0.029878 0.333738 -0.007656
  endloop
 endfacet
 facet normal 0.754436 -0.548107 0.361117
  outer loop
   vertex 0.029878 0.333738 -0.007656
   vertex 0.031788 0.336367 -0.007656
   vertex 0.030052 0.33562 -0.005163
  endloop
 endfacet
 facet normal 0.803858 -0.400541 0.439749
  outer loop
   vertex 0.031788 0.336367 -0.007656
   vertex 0.031481 0.338231 -0.005397
   vertex 0.030052 0.33562 -0.005163
  endloop
 endfacet
 facet normal 0.797233 -0.579229 -0.170037
  outer loop
   vertex 0.030042 0.333803 -0.012932
   vertex 0.031777 0.336191 -0.012932
   vertex 0.03126 0.334742 -0.01042
  endloop
 endfacet
 facet normal 0.888212 -0.452708 -0.078331
  outer loop
   vertex 0.031777 0.336191 -0.012932
   vertex 0.032681 0.33753 -0.01042
   vertex 0.03126 0.334742 -0.01042
  endloop
 endfacet
 facet normal 0.886806 -0.451991 0.0963284
  outer loop
   vertex 0.03126 0.334742 -0.01042
   vertex 0.032681 0.33753 -0.01042
   vertex 0.031788 0.336367 -0.007656
  endloop
 endfacet
 facet normal 0.93657 -0.303801 0.17476
  outer loop
   vertex 0.032681 0.33753 -0.01042
   vertex 0.032736 0.339144 -0.007909
   vertex 0.031788 0.336367 -0.007656
  endloop
 endfacet
 facet normal 0.89641 -0.274294 0.348155
  outer loop
   vertex 0.031788 0.336367 -0.007656
   vertex 0.032736 0.339144 -0.007909
   vertex 0.031481 0.338231 -0.005397
  endloop
 endfacet
 facet normal 0.905177 -0.147939 0.398459
  outer loop
   vertex 0.032736 0.339144 -0.007909
   vertex 0.032114 0.34062 -0.005948
   vertex 0.031481 0.338231 -0.005397
  endloop
 endfacet
 facet normal 0.294416 0.906493 0.302638
  outer loop
   vertex 0.02753 0.349262 -0.007908
   vertex 0.024722 0.350174 -0.007908
   vertex 0.025934 0.349126 -0.005948
  endloop
 endfacet
 facet normal 0.452705 0.888208 0.0783901
  outer loop
   vertex 0.029048 0.34871 -0.01042
   vertex 0.02626 0.350131 -0.01042
   vertex 0.02753 0.349262 -0.007908
  endloop
 endfacet
 facet normal 0.578874 0.796508 -0.174584
  outer loop
   vertex 0.030042 0.347437 -0.012932
   vertex 0.027642 0.349126 -0.013184
   vertex 0.029048 0.34871 -0.01042
  endloop
 endfacet
 facet normal 0.304389 0.937197 0.170322
  outer loop
   vertex 0.02753 0.349262 -0.007908
   vertex 0.02626 0.350131 -0.01042
   vertex 0.024722 0.350174 -0.007908
  endloop
 endfacet
 facet normal 0.155824 0.984657 0.07855
  outer loop
   vertex 0.02626 0.350131 -0.01042
   vertex 0.02317 0.35062 -0.01042
   vertex 0.024722 0.350174 -0.007908
  endloop
 endfacet
 facet normal 0.451986 0.886796 -0.0964489
  outer loop
   vertex 0.029048 0.34871 -0.01042
   vertex 0.027642 0.349126 -0.013184
   vertex 0.02626 0.350131 -0.01042
  endloop
 endfacet
 facet normal 0.303796 0.934059 -0.187729
  outer loop
   vertex 0.027642 0.349126 -0.013184
   vertex 0.024552 0.350131 -0.013184
   vertex 0.02626 0.350131 -0.01042
  endloop
 endfacet
 facet normal 0.155583 0.983133 -0.0961419
  outer loop
   vertex 0.02626 0.350131 -0.01042
   vertex 0.024552 0.350131 -0.013184
   vertex 0.02317 0.35062 -0.01042
  endloop
 endfacet
 facet normal -0.000555151 0.98466 -0.174481
  outer loop
   vertex 0.024552 0.350131 -0.013184
   vertex 0.021618 0.350174 -0.012932
   vertex 0.02317 0.35062 -0.01042
  endloop
 endfacet
 facet normal 0.563623 0.748876 -0.348589
  outer loop
   vertex 0.030042 0.347437 -0.012932
   vertex 0.028489 0.347437 -0.015443
   vertex 0.027642 0.349126 -0.013184
  endloop
 endfacet
 facet normal 0.415138 0.796394 -0.439791
  outer loop
   vertex 0.028489 0.347437 -0.015443
   vertex 0.025799 0.34871 -0.015677
   vertex 0.027642 0.349126 -0.013184
  endloop
 endfacet
 facet normal 0.288415 0.886769 -0.361189
  outer loop
   vertex 0.027642 0.349126 -0.013184
   vertex 0.025799 0.34871 -0.015677
   vertex 0.024552 0.350131 -0.013184
  endloop
 endfacet
 facet normal 0.132412 0.888171 -0.440021
  outer loop
   vertex 0.025799 0.34871 -0.015677
   vertex 0.022874 0.349262 -0.015443
   vertex 0.024552 0.350131 -0.013184
  endloop
 endfacet
 facet normal -0.0161962 0.937175 -0.348485
  outer loop
   vertex 0.024552 0.350131 -0.013184
   vertex 0.022874 0.349262 -0.015443
   vertex 0.021618 0.350174 -0.012932
  endloop
 endfacet
 facet normal -0.138975 0.90647 -0.398746
  outer loop
   vertex 0.022874 0.349262 -0.015443
   vertex 0.020406 0.349126 -0.014892
   vertex 0.021618 0.350174 -0.012932
  endloop
 endfacet
 facet normal -0.771063 0.560215 0.302688
  outer loop
   vertex 0.016298 0.347437 -0.007908
   vertex 0.014563 0.345049 -0.007908
   vertex 0.015934 0.345877 -0.005948
  endloop
 endfacet
 facet normal -0.704936 0.704936 0.0782949
  outer loop
   vertex 0.017292 0.34871 -0.01042
   vertex 0.01508 0.346498 -0.01042
   vertex 0.016298 0.347437 -0.007908
  endloop
 endfacet
 facet normal -0.578519 0.796783 -0.174509
  outer loop
   vertex 0.01881 0.349262 -0.012932
   vertex 0.016462 0.347502 -0.013184
   vertex 0.017292 0.34871 -0.01042
  endloop
 endfacet
 facet normal -0.797233 0.579229 0.170037
  outer loop
   vertex 0.016298 0.347437 -0.007908
   vertex 0.01508 0.346498 -0.01042
   vertex 0.014563 0.345049 -0.007908
  endloop
 endfacet
 facet normal -0.888212 0.452708 0.078331
  outer loop
   vertex 0.01508 0.346498 -0.01042
   vertex 0.013659 0.34371 -0.01042
   vertex 0.014563 0.345049 -0.007908
  endloop
 endfacet
 facet normal -0.703824 0.703824 -0.0962537
  outer loop
   vertex 0.017292 0.34871 -0.01042
   vertex 0.016462 0.347502 -0.013184
   vertex 0.01508 0.346498 -0.01042
  endloop
 endfacet
 facet normal -0.794662 0.577331 -0.18762
  outer loop
   vertex 0.016462 0.347502 -0.013184
   vertex 0.014552 0.344873 -0.013184
   vertex 0.01508 0.346498 -0.01042
  endloop
 endfacet
 facet normal -0.886806 0.451991 -0.0963284
  outer loop
   vertex 0.01508 0.346498 -0.01042
   vertex 0.014552 0.344873 -0.013184
   vertex 0.013659 0.34371 -0.01042
  endloop
 endfacet
 facet normal -0.93657 0.303801 -0.17476
  outer loop
   vertex 0.014552 0.344873 -0.013184
   vertex 0.013604 0.342096 -0.012931
   vertex 0.013659 0.34371 -0.01042
  endloop
 endfacet
 facet normal -0.537986 0.767602 -0.348366
  outer loop
   vertex 0.01881 0.349262 -0.012932
   vertex 0.01833 0.347786 -0.015443
   vertex 0.016462 0.347502 -0.013184
  endloop
 endfacet
 facet normal -0.629279 0.640767 -0.439803
  outer loop
   vertex 0.01833 0.347786 -0.015443
   vertex 0.016288 0.34562 -0.015677
   vertex 0.016462 0.347502 -0.013184
  endloop
 endfacet
 facet normal -0.754436 0.548107 -0.361117
  outer loop
   vertex 0.016462 0.347502 -0.013184
   vertex 0.016288 0.34562 -0.015677
   vertex 0.014552 0.344873 -0.013184
  endloop
 endfacet
 facet normal -0.803858 0.400541 -0.439749
  outer loop
   vertex 0.016288 0.34562 -0.015677
   vertex 0.014859 0.343009 -0.015443
   vertex 0.014552 0.344873 -0.013184
  endloop
 endfacet
 facet normal -0.89641 0.274294 -0.348155
  outer loop
   vertex 0.014552 0.344873 -0.013184
   vertex 0.014859 0.343009 -0.015443
   vertex 0.013604 0.342096 -0.012931
  endloop
 endfacet
 facet normal -0.905177 0.147939 -0.398459
  outer loop
   vertex 0.014859 0.343009 -0.015443
   vertex 0.014226 0.34062 -0.014892
   vertex 0.013604 0.342096 -0.012931
  endloop
 endfacet
 facet normal -0.771063 -0.560215 0.302688
  outer loop
   vertex 0.014563 0.336191 -0.007908
   vertex 0.016298 0.333803 -0.007908
   vertex 0.015934 0.335363 -0.005948
  endloop
 endfacet
 facet normal -0.888212 -0.452708 0.078331
  outer loop
   vertex 0.013659 0.33753 -0.01042
   vertex 0.01508 0.334742 -0.01042
   vertex 0.014563 0.336191 -0.007908
  endloop
 endfacet
 facet normal -0.93657 -0.303801 -0.17476
  outer loop
   vertex 0.013604 0.339144 -0.012931
   vertex 0.014552 0.336367 -0.013184
   vertex 0.013659 0.33753 -0.01042
  endloop
 endfacet
 facet normal -0.797233 -0.579229 0.170037
  outer loop
   vertex 0.014563 0.336191 -0.007908
   vertex 0.01508 0.334742 -0.01042
   vertex 0.016298 0.333803 -0.007908
  endloop
 endfacet
 facet normal -0.704936 -0.704936 0.0782949
  outer loop
   vertex 0.01508 0.334742 -0.01042
   vertex 0.017292 0.33253 -0.01042
   vertex 0.016298 0.333803 -0.007908
  endloop
 endfacet
 facet normal -0.886806 -0.451991 -0.0963284
  outer loop
   vertex 0.013659 0.33753 -0.01042
   vertex 0.014552 0.336367 -0.013184
   vertex 0.01508 0.334742 -0.01042
  endloop
 endfacet
 facet normal -0.794662 -0.577331 -0.18762
  outer loop
   vertex 0.014552 0.336367 -0.013184
   vertex 0.016462 0.333738 -0.013184
   vertex 0.01508 0.334742 -0.01042
  endloop
 endfacet
 facet normal -0.703824 -0.703824 -0.0962537
  outer loop
   vertex 0.01508 0.334742 -0.01042
   vertex 0.016462 0.333738 -0.013184
   vertex 0.017292 0.33253 -0.01042
  endloop
 endfacet
 facet normal -0.578519 -0.796783 -0.174509
  outer loop
   vertex 0.016462 0.333738 -0.013184
   vertex 0.01881 0.331978 -0.012932
   vertex 0.017292 0.33253 -0.01042
  endloop
 endfacet
 facet normal -0.89641 -0.274294 -0.348155
  outer loop
   vertex 0.013604 0.339144 -0.012931
   vertex 0.014859 0.338231 -0.015443
   vertex 0.014552 0.336367 -0.013184
  endloop
 endfacet
 facet normal -0.803858 -0.400541 -0.439749
  outer loop
   vertex 0.014859 0.338231 -0.015443
   vertex 0.016288 0.33562 -0.015677
   vertex 0.014552 0.336367 -0.013184
  endloop
 endfacet
 facet normal -0.754436 -0.548107 -0.361117
  outer loop
   vertex 0.014552 0.336367 -0.013184
   vertex 0.016288 0.33562 -0.015677
   vertex 0.016462 0.333738 -0.013184
  endloop
 endfacet
 facet normal -0.629279 -0.640767 -0.439803
  outer loop
   vertex 0.016288 0.33562 -0.015677
   vertex 0.01833 0.333454 -0.015443
   vertex 0.016462 0.333738 -0.013184
  endloop
 endfacet
 facet normal -0.537986 -0.767602 -0.348366
  outer loop
   vertex 0.016462 0.333738 -0.013184
   vertex 0.01833 0.333454 -0.015443
   vertex 0.01881 0.331978 -0.012932
  endloop
 endfacet
 facet normal -0.420269 -0.815078 -0.398776
  outer loop
   vertex 0.01833 0.333454 -0.015443
   vertex 0.020406 0.332114 -0.014892
   vertex 0.01881 0.331978 -0.012932
  endloop
 endfacet
 facet normal 0.294416 -0.906493 0.302638
  outer loop
   vertex 0.024722 0.331066 -0.007908
   vertex 0.02753 0.331978 -0.007908
   vertex 0.025934 0.332114 -0.005948
  endloop
 endfacet
 facet normal 0.155824 -0.984657 0.07855
  outer loop
   vertex 0.02317 0.33062 -0.01042
   vertex 0.02626 0.331109 -0.01042
   vertex 0.024722 0.331066 -0.007908
  endloop
 endfacet
 facet normal -0.000555151 -0.98466 -0.174481
  outer loop
   vertex 0.021618 0.331066 -0.012932
   vertex 0.024552 0.331109 -0.013184
   vertex 0.02317 0.33062 -0.01042
  endloop
 endfacet
 facet normal 0.304389 -0.937197 0.170322
  outer loop
   vertex 0.024722 0.331066 -0.007908
   vertex 0.02626 0.331109 -0.01042
   vertex 0.02753 0.331978 -0.007908
  endloop
 endfacet
 facet normal 0.452705 -0.888208 0.0783901
  outer loop
   vertex 0.02626 0.331109 -0.01042
   vertex 0.029048 0.33253 -0.01042
   vertex 0.02753 0.331978 -0.007908
  endloop
 endfacet
 facet normal 0.155583 -0.983133 -0.0961419
  outer loop
   vertex 0.02317 0.33062 -0.01042
   vertex 0.024552 0.331109 -0.013184
   vertex 0.02626 0.331109 -0.01042
  endloop
 endfacet
 facet normal 0.303796 -0.934059 -0.187729
  outer loop
   vertex 0.024552 0.331109 -0.013184
   vertex 0.027642 0.332114 -0.013184
   vertex 0.02626 0.331109 -0.01042
  endloop
 endfacet
 facet normal 0.451986 -0.886796 -0.0964489
  outer loop
   vertex 0.02626 0.331109 -0.01042
   vertex 0.027642 0.332114 -0.013184
   vertex 0.029048 0.33253 -0.01042
  endloop
 endfacet
 facet normal 0.578874 -0.796508 -0.174584
  outer loop
   vertex 0.027642 0.332114 -0.013184
   vertex 0.030042 0.333803 -0.012932
   vertex 0.029048 0.33253 -0.01042
  endloop
 endfacet
 facet normal -0.0161962 -0.937175 -0.348485
  outer loop
   vertex 0.021618 0.331066 -0.012932
   vertex 0.022874 0.331978 -0.015443
   vertex 0.024552 0.331109 -0.013184
  endloop
 endfacet
 facet normal 0.132412 -0.888171 -0.440021
  outer loop
   vertex 0.022874 0.331978 -0.015443
   vertex 0.025799 0.33253 -0.015677
   vertex 0.024552 0.331109 -0.013184
  endloop
 endfacet
 facet normal 0.288415 -0.886769 -0.361189
  outer loop
   vertex 0.024552 0.331109 -0.013184
   vertex 0.025799 0.33253 -0.015677
   vertex 0.027642 0.332114 -0.013184
  endloop
 endfacet
 facet normal 0.415138 -0.796394 -0.439791
  outer loop
   vertex 0.025799 0.33253 -0.015677
   vertex 0.028489 0.333803 -0.015443
   vertex 0.027642 0.332114 -0.013184
  endloop
 endfacet
 facet normal 0.563623 -0.748876 -0.348589
  outer loop
   vertex 0.027642 0.332114 -0.013184
   vertex 0.028489 0.333803 -0.015443
   vertex 0.030042 0.333803 -0.012932
  endloop
 endfacet
 facet normal 0.645038 -0.651744 -0.398942
  outer loop
   vertex 0.028489 0.333803 -0.015443
   vertex 0.030406 0.335363 -0.014892
   vertex 0.030042 0.333803 -0.012932
  endloop
 endfacet
 facet normal 0.9532 -0 0.302341
  outer loop
   vertex 0.032736 0.339144 -0.007909
   vertex 0.032736 0.342096 -0.007909
   vertex 0.032114 0.34062 -0.005948
  endloop
 endfacet
 facet normal 0.984653 -0.155824 0.0785916
  outer loop
   vertex 0.032681 0.33753 -0.01042
   vertex 0.03317 0.34062 -0.01042
   vertex 0.032736 0.339144 -0.007909
  endloop
 endfacet
 facet normal 0.936352 -0.304548 -0.174631
  outer loop
   vertex 0.031777 0.336191 -0.012932
   vertex 0.032642 0.338995 -0.013184
   vertex 0.032681 0.33753 -0.01042
  endloop
 endfacet
 facet normal 0.98539 -0 0.170314
  outer loop
   vertex 0.032736 0.339144 -0.007909
   vertex 0.03317 0.34062 -0.01042
   vertex 0.032736 0.342096 -0.007909
  endloop
 endfacet
 facet normal 0.984653 0.155824 0.0785916
  outer loop
   vertex 0.03317 0.34062 -0.01042
   vertex 0.032681 0.34371 -0.01042
   vertex 0.032736 0.342096 -0.007909
  endloop
 endfacet
 facet normal 0.983115 -0.15558 -0.0963335
  outer loop
   vertex 0.032681 0.33753 -0.01042
   vertex 0.032642 0.338995 -0.013184
   vertex 0.03317 0.34062 -0.01042
  endloop
 endfacet
 facet normal 0.982239 0 -0.187634
  outer loop
   vertex 0.032642 0.338995 -0.013184
   vertex 0.032642 0.342245 -0.013184
   vertex 0.03317 0.34062 -0.01042
  endloop
 endfacet
 facet normal 0.983115 0.15558 -0.0963335
  outer loop
   vertex 0.03317 0.34062 -0.01042
   vertex 0.032642 0.342245 -0.013184
   vertex 0.032681 0.34371 -0.01042
  endloop
 endfacet
 facet normal 0.936352 0.304548 -0.174631
  outer loop
   vertex 0.032642 0.342245 -0.013184
   vertex 0.031777 0.345049 -0.012932
   vertex 0.032681 0.34371 -0.01042
  endloop
 endfacet
 facet normal 0.886309 -0.304753 -0.348685
  outer loop
   vertex 0.031777 0.336191 -0.012932
   vertex 0.031297 0.337668 -0.015443
   vertex 0.032642 0.338995 -0.013184
  endloop
 endfacet
 facet normal 0.885615 -0.148581 -0.440011
  outer loop
   vertex 0.031297 0.337668 -0.015443
   vertex 0.031676 0.34062 -0.015677
   vertex 0.032642 0.338995 -0.013184
  endloop
 endfacet
 facet normal 0.932446 0 -0.361309
  outer loop
   vertex 0.032642 0.338995 -0.013184
   vertex 0.031676 0.34062 -0.015677
   vertex 0.032642 0.342245 -0.013184
  endloop
 endfacet
 facet normal 0.885615 0.148581 -0.440011
  outer loop
   vertex 0.031676 0.34062 -0.015677
   vertex 0.031297 0.343572 -0.015443
   vertex 0.032642 0.342245 -0.013184
  endloop
 endfacet
 facet normal 0.886309 0.304753 -0.348685
  outer loop
   vertex 0.032642 0.342245 -0.013184
   vertex 0.031297 0.343572 -0.015443
   vertex 0.031777 0.345049 -0.012932
  endloop
 endfacet
 facet normal 0.819189 0.412026 -0.398954
  outer loop
   vertex 0.031297 0.343572 -0.015443
   vertex 0.030406 0.345877 -0.014892
   vertex 0.031777 0.345049 -0.012932
  endloop
 endfacet
 facet normal 0.61533 0.560308 -0.554459
  outer loop
   vertex 0.029265 0.345049 -0.016995
   vertex 0.028489 0.347437 -0.015443
   vertex 0.030406 0.345877 -0.014892
  endloop
 endfacet
 facet normal 0.467426 0.452641 -0.759361
  outer loop
   vertex 0.027423 0.34371 -0.018927
   vertex 0.026788 0.346498 -0.017656
   vertex 0.029265 0.345049 -0.016995
  endloop
 endfacet
 facet normal 0.262485 0.303841 -0.915851
  outer loop
   vertex 0.025202 0.342096 -0.020099
   vertex 0.024552 0.344873 -0.019364
   vertex 0.027423 0.34371 -0.018927
  endloop
 endfacet
 facet normal 0.508799 0.579247 -0.636864
  outer loop
   vertex 0.029265 0.345049 -0.016995
   vertex 0.026788 0.346498 -0.017656
   vertex 0.028489 0.347437 -0.015443
  endloop
 endfacet
 facet normal 0.38541 0.704977 -0.595371
  outer loop
   vertex 0.026788 0.346498 -0.017656
   vertex 0.025799 0.34871 -0.015677
   vertex 0.028489 0.347437 -0.015443
  endloop
 endfacet
 facet normal 0.310374 0.451949 -0.836307
  outer loop
   vertex 0.027423 0.34371 -0.018927
   vertex 0.024552 0.344873 -0.019364
   vertex 0.026788 0.346498 -0.017656
  endloop
 endfacet
 facet normal 0.187559 0.577248 -0.794737
  outer loop
   vertex 0.024552 0.344873 -0.019364
   vertex 0.023698 0.347502 -0.017656
   vertex 0.026788 0.346498 -0.017656
  endloop
 endfacet
 facet normal 0.228709 0.703897 -0.672474
  outer loop
   vertex 0.026788 0.346498 -0.017656
   vertex 0.023698 0.347502 -0.017656
   vertex 0.025799 0.34871 -0.015677
  endloop
 endfacet
 facet normal 0.102735 0.796801 -0.595444
  outer loop
   vertex 0.023698 0.347502 -0.017656
   vertex 0.022874 0.349262 -0.015443
   vertex 0.025799 0.34871 -0.015677
  endloop
 endfacet
 facet normal 0.0891868 0.274301 -0.957499
  outer loop
   vertex 0.025202 0.342096 -0.020099
   vertex 0.022394 0.343009 -0.020099
   vertex 0.024552 0.344873 -0.019364
  endloop
 endfacet
 facet normal -0.0336945 0.400135 -0.915836
  outer loop
   vertex 0.022394 0.343009 -0.020099
   vertex 0.021545 0.34562 -0.018927
   vertex 0.024552 0.344873 -0.019364
  endloop
 endfacet
 facet normal 0.0146149 0.548074 -0.836302
  outer loop
   vertex 0.024552 0.344873 -0.019364
   vertex 0.021545 0.34562 -0.018927
   vertex 0.023698 0.347502 -0.017656
  endloop
 endfacet
 facet normal -0.112009 0.640965 -0.759354
  outer loop
   vertex 0.021545 0.34562 -0.018927
   vertex 0.020842 0.347786 -0.016995
   vertex 0.023698 0.347502 -0.017656
  endloop
 endfacet
 facet normal -0.0710868 0.767617 -0.636955
  outer loop
   vertex 0.023698 0.347502 -0.017656
   vertex 0.020842 0.347786 -0.016995
   vertex 0.022874 0.349262 -0.015443
  endloop
 endfacet
 facet normal -0.168666 0.815046 -0.554303
  outer loop
   vertex 0.020842 0.347786 -0.016995
   vertex 0.020406 0.349126 -0.014892
   vertex 0.022874 0.349262 -0.015443
  endloop
 endfacet
 facet normal -0.342493 0.758552 -0.554344
  outer loop
   vertex 0.020842 0.347786 -0.016995
   vertex 0.01833 0.347786 -0.015443
   vertex 0.020406 0.349126 -0.014892
  endloop
 endfacet
 facet normal -0.286233 0.584386 -0.759318
  outer loop
   vertex 0.021545 0.34562 -0.018927
   vertex 0.018698 0.345877 -0.017656
   vertex 0.020842 0.347786 -0.016995
  endloop
 endfacet
 facet normal -0.207851 0.343516 -0.915858
  outer loop
   vertex 0.022394 0.343009 -0.020099
   vertex 0.019552 0.343249 -0.019364
   vertex 0.021545 0.34562 -0.018927
  endloop
 endfacet
 facet normal -0.393627 0.662685 -0.637108
  outer loop
   vertex 0.020842 0.347786 -0.016995
   vertex 0.018698 0.345877 -0.017656
   vertex 0.01833 0.347786 -0.015443
  endloop
 endfacet
 facet normal -0.551379 0.584158 -0.595601
  outer loop
   vertex 0.018698 0.345877 -0.017656
   vertex 0.016288 0.34562 -0.015677
   vertex 0.01833 0.347786 -0.015443
  endloop
 endfacet
 facet normal -0.334054 0.43492 -0.836213
  outer loop
   vertex 0.021545 0.34562 -0.018927
   vertex 0.019552 0.343249 -0.019364
   vertex 0.018698 0.345877 -0.017656
  endloop
 endfacet
 facet normal -0.491058 0.356895 -0.794662
  outer loop
   vertex 0.019552 0.343249 -0.019364
   vertex 0.016788 0.343249 -0.017656
   vertex 0.018698 0.345877 -0.017656
  endloop
 endfacet
 facet normal -0.598657 0.435097 -0.672533
  outer loop
   vertex 0.018698 0.345877 -0.017656
   vertex 0.016788 0.343249 -0.017656
   vertex 0.016288 0.34562 -0.015677
  endloop
 endfacet
 facet normal -0.725985 0.343961 -0.595514
  outer loop
   vertex 0.016788 0.343249 -0.017656
   vertex 0.014859 0.343009 -0.015443
   vertex 0.016288 0.34562 -0.015677
  endloop
 endfacet
 facet normal -0.233325 0.169451 -0.957521
  outer loop
   vertex 0.022394 0.343009 -0.020099
   vertex 0.020659 0.34062 -0.020099
   vertex 0.019552 0.343249 -0.019364
  endloop
 endfacet
 facet normal -0.390899 0.0914587 -0.915878
  outer loop
   vertex 0.020659 0.34062 -0.020099
   vertex 0.017913 0.34062 -0.018927
   vertex 0.019552 0.343249 -0.019364
  endloop
 endfacet
 facet normal -0.516783 0.183167 -0.836293
  outer loop
   vertex 0.019552 0.343249 -0.019364
   vertex 0.017913 0.34062 -0.018927
   vertex 0.016788 0.343249 -0.017656
  endloop
 endfacet
 facet normal -0.644269 0.0913996 -0.759317
  outer loop
   vertex 0.017913 0.34062 -0.018927
   vertex 0.015636 0.34062 -0.016995
   vertex 0.016788 0.343249 -0.017656
  endloop
 endfacet
 facet normal -0.751958 0.169318 -0.637095
  outer loop
   vertex 0.016788 0.343249 -0.017656
   vertex 0.015636 0.34062 -0.016995
   vertex 0.014859 0.343009 -0.015443
  endloop
 endfacet
 facet normal -0.827124 0.091254 -0.554562
  outer loop
   vertex 0.015636 0.34062 -0.016995
   vertex 0.014226 0.34062 -0.014892
   vertex 0.014859 0.343009 -0.015443
  endloop
 endfacet
 facet normal -0.827124 -0.091254 -0.554562
  outer loop
   vertex 0.015636 0.34062 -0.016995
   vertex 0.014859 0.338231 -0.015443
   vertex 0.014226 0.34062 -0.014892
  endloop
 endfacet
 facet normal -0.644269 -0.0913996 -0.759317
  outer loop
   vertex 0.017913 0.34062 -0.018927
   vertex 0.016788 0.337991 -0.017656
   vertex 0.015636 0.34062 -0.016995
  endloop
 endfacet
 facet normal -0.390899 -0.0914587 -0.915878
  outer loop
   vertex 0.020659 0.34062 -0.020099
   vertex 0.019552 0.337991 -0.019364
   vertex 0.017913 0.34062 -0.018927
  endloop
 endfacet
 facet normal -0.751958 -0.169318 -0.637095
  outer loop
   vertex 0.015636 0.34062 -0.016995
   vertex 0.016788 0.337991 -0.017656
   vertex 0.014859 0.338231 -0.015443
  endloop
 endfacet
 facet normal -0.725985 -0.343961 -0.595514
  outer loop
   vertex 0.016788 0.337991 -0.017656
   vertex 0.016288 0.33562 -0.015677
   vertex 0.014859 0.338231 -0.015443
  endloop
 endfacet
 facet normal -0.516783 -0.183167 -0.836293
  outer loop
   vertex 0.017913 0.34062 -0.018927
   vertex 0.019552 0.337991 -0.019364
   vertex 0.016788 0.337991 -0.017656
  endloop
 endfacet
 facet normal -0.491058 -0.356895 -0.794662
  outer loop
   vertex 0.019552 0.337991 -0.019364
   vertex 0.018698 0.335363 -0.017656
   vertex 0.016788 0.337991 -0.017656
  endloop
 endfacet
 facet normal -0.598657 -0.435097 -0.672533
  outer loop
   vertex 0.016788 0.337991 -0.017656
   vertex 0.018698 0.335363 -0.017656
   vertex 0.016288 0.33562 -0.015677
  endloop
 endfacet
 facet normal -0.551379 -0.584158 -0.595601
  outer loop
   vertex 0.018698 0.335363 -0.017656
   vertex 0.01833 0.333454 -0.015443
   vertex 0.016288 0.33562 -0.015677
  endloop
 endfacet
 facet normal -0.233325 -0.169451 -0.957521
  outer loop
   vertex 0.020659 0.34062 -0.020099
   vertex 0.022394 0.338231 -0.020099
   vertex 0.019552 0.337991 -0.019364
  endloop
 endfacet
 facet normal -0.207851 -0.343516 -0.915858
  outer loop
   vertex 0.022394 0.338231 -0.020099
   vertex 0.021545 0.33562 -0.018927
   vertex 0.019552 0.337991 -0.019364
  endloop
 endfacet
 facet normal -0.334054 -0.43492 -0.836213
  outer loop
   vertex 0.019552 0.337991 -0.019364
   vertex 0.021545 0.33562 -0.018927
   vertex 0.018698 0.335363 -0.017656
  endloop
 endfacet
 facet normal -0.286233 -0.584386 -0.759318
  outer loop
   vertex 0.021545 0.33562 -0.018927
   vertex 0.020842 0.333454 -0.016995
   vertex 0.018698 0.335363 -0.017656
  endloop
 endfacet
 facet normal -0.393627 -0.662685 -0.637108
  outer loop
   vertex 0.018698 0.335363 -0.017656
   vertex 0.020842 0.333454 -0.016995
   vertex 0.01833 0.333454 -0.015443
  endloop
 endfacet
 facet normal -0.342493 -0.758552 -0.554344
  outer loop
   vertex 0.020842 0.333454 -0.016995
   vertex 0.020406 0.332114 -0.014892
   vertex 0.01833 0.333454 -0.015443
  endloop
 endfacet
 facet normal 0.723015 0.412034 -0.554506
  outer loop
   vertex 0.031297 0.343572 -0.015443
   vertex 0.029265 0.345049 -0.016995
   vertex 0.030406 0.345877 -0.014892
  endloop
 endfacet
 facet normal 0.789589 0.148568 -0.59538
  outer loop
   vertex 0.031676 0.34062 -0.015677
   vertex 0.029878 0.342245 -0.017656
   vertex 0.031297 0.343572 -0.015443
  endloop
 endfacet
 facet normal 0.789589 -0.148568 -0.59538
  outer loop
   vertex 0.031297 0.337668 -0.015443
   vertex 0.029878 0.338995 -0.017656
   vertex 0.031676 0.34062 -0.015677
  endloop
 endfacet
 facet normal 0.708089 0.304936 -0.636886
  outer loop
   vertex 0.031297 0.343572 -0.015443
   vertex 0.029878 0.342245 -0.017656
   vertex 0.029265 0.345049 -0.016995
  endloop
 endfacet
 facet normal 0.574948 0.304695 -0.759339
  outer loop
   vertex 0.029878 0.342245 -0.017656
   vertex 0.027423 0.34371 -0.018927
   vertex 0.029265 0.345049 -0.016995
  endloop
 endfacet
 facet normal 0.740143 0 -0.672449
  outer loop
   vertex 0.031676 0.34062 -0.015677
   vertex 0.029878 0.338995 -0.017656
   vertex 0.029878 0.342245 -0.017656
  endloop
 endfacet
 facet normal 0.607028 0 -0.794681
  outer loop
   vertex 0.029878 0.338995 -0.017656
   vertex 0.027642 0.34062 -0.019364
   vertex 0.029878 0.342245 -0.017656
  endloop
 endfacet
 facet normal 0.525774 0.155534 -0.836284
  outer loop
   vertex 0.029878 0.342245 -0.017656
   vertex 0.027642 0.34062 -0.019364
   vertex 0.027423 0.34371 -0.018927
  endloop
 endfacet
 facet normal 0.370096 0.155752 -0.915844
  outer loop
   vertex 0.027642 0.34062 -0.019364
   vertex 0.025202 0.342096 -0.020099
   vertex 0.027423 0.34371 -0.018927
  endloop
 endfacet
 facet normal 0.708089 -0.304936 -0.636886
  outer loop
   vertex 0.031297 0.337668 -0.015443
   vertex 0.029265 0.336191 -0.016995
   vertex 0.029878 0.338995 -0.017656
  endloop
 endfacet
 facet normal 0.574948 -0.304695 -0.759339
  outer loop
   vertex 0.029265 0.336191 -0.016995
   vertex 0.027423 0.33753 -0.018927
   vertex 0.029878 0.338995 -0.017656
  endloop
 endfacet
 facet normal 0.525774 -0.155534 -0.836284
  outer loop
   vertex 0.029878 0.338995 -0.017656
   vertex 0.027423 0.33753 -0.018927
   vertex 0.027642 0.34062 -0.019364
  endloop
 endfacet
 facet normal 0.370096 -0.155752 -0.915844
  outer loop
   vertex 0.027423 0.33753 -0.018927
   vertex 0.025202 0.339144 -0.020099
   vertex 0.027642 0.34062 -0.019364
  endloop
 endfacet
 facet normal 0.288428 0 -0.957502
  outer loop
   vertex 0.027642 0.34062 -0.019364
   vertex 0.025202 0.339144 -0.020099
   vertex 0.025202 0.342096 -0.020099
  endloop
 endfacet
 facet normal 0.156037 0 -0.987751
  outer loop
   vertex 0.025202 0.339144 -0.020099
   vertex 0.02317 0.34062 -0.02042
   vertex 0.025202 0.342096 -0.020099
  endloop
 endfacet
 facet normal -0.168666 -0.815046 -0.554303
  outer loop
   vertex 0.020842 0.333454 -0.016995
   vertex 0.022874 0.331978 -0.015443
   vertex 0.020406 0.332114 -0.014892
  endloop
 endfacet
 facet normal -0.112009 -0.640965 -0.759354
  outer loop
   vertex 0.021545 0.33562 -0.018927
   vertex 0.023698 0.333738 -0.017656
   vertex 0.020842 0.333454 -0.016995
  endloop
 endfacet
 facet normal -0.0336945 -0.400135 -0.915836
  outer loop
   vertex 0.022394 0.338231 -0.020099
   vertex 0.024552 0.336367 -0.019364
   vertex 0.021545 0.33562 -0.018927
  endloop
 endfacet
 facet normal -0.0710868 -0.767617 -0.636955
  outer loop
   vertex 0.020842 0.333454 -0.016995
   vertex 0.023698 0.333738 -0.017656
   vertex 0.022874 0.331978 -0.015443
  endloop
 endfacet
 facet normal 0.102735 -0.796801 -0.595444
  outer loop
   vertex 0.023698 0.333738 -0.017656
   vertex 0.025799 0.33253 -0.015677
   vertex 0.022874 0.331978 -0.015443
  endloop
 endfacet
 facet normal 0.0146149 -0.548074 -0.836302
  outer loop
   vertex 0.021545 0.33562 -0.018927
   vertex 0.024552 0.336367 -0.019364
   vertex 0.023698 0.333738 -0.017656
  endloop
 endfacet
 facet normal 0.187559 -0.577248 -0.794737
  outer loop
   vertex 0.024552 0.336367 -0.019364
   vertex 0.026788 0.334742 -0.017656
   vertex 0.023698 0.333738 -0.017656
  endloop
 endfacet
 facet normal 0.228709 -0.703897 -0.672474
  outer loop
   vertex 0.023698 0.333738 -0.017656
   vertex 0.026788 0.334742 -0.017656
   vertex 0.025799 0.33253 -0.015677
  endloop
 endfacet
 facet normal 0.38541 -0.704977 -0.595371
  outer loop
   vertex 0.026788 0.334742 -0.017656
   vertex 0.028489 0.333803 -0.015443
   vertex 0.025799 0.33253 -0.015677
  endloop
 endfacet
 facet normal 0.0891868 -0.274301 -0.957499
  outer loop
   vertex 0.022394 0.338231 -0.020099
   vertex 0.025202 0.339144 -0.020099
   vertex 0.024552 0.336367 -0.019364
  endloop
 endfacet
 facet normal 0.262485 -0.303841 -0.915851
  outer loop
   vertex 0.025202 0.339144 -0.020099
   vertex 0.027423 0.33753 -0.018927
   vertex 0.024552 0.336367 -0.019364
  endloop
 endfacet
 facet normal 0.310374 -0.451949 -0.836307
  outer loop
   vertex 0.024552 0.336367 -0.019364
   vertex 0.027423 0.33753 -0.018927
   vertex 0.026788 0.334742 -0.017656
  endloop
 endfacet
 facet normal 0.467426 -0.452641 -0.759361
  outer loop
   vertex 0.027423 0.33753 -0.018927
   vertex 0.029265 0.336191 -0.016995
   vertex 0.026788 0.334742 -0.017656
  endloop
 endfacet
 facet normal 0.508799 -0.579247 -0.636864
  outer loop
   vertex 0.026788 0.334742 -0.017656
   vertex 0.029265 0.336191 -0.016995
   vertex 0.028489 0.333803 -0.015443
  endloop
 endfacet
 facet normal 0.61533 -0.560308 -0.554459
  outer loop
   vertex 0.029265 0.336191 -0.016995
   vertex 0.030406 0.335363 -0.014892
   vertex 0.028489 0.333803 -0.015443
  endloop
 endfacet
endsolid ExportedfromBlender-3.5.1
