solid ExportedfromBlender-3.5.1
 facet normal 0.0482486 -0.148392 -0.987751
  outer loop
   vertex -0.01779 0.13687 -0.03211
   vertex -0.015758 0.135394 -0.031789
   vertex -0.018566 0.134481 -0.031789
  endloop
 endfacet
 facet normal 0.723015 -0.412034 -0.554506
  outer loop
   vertex -0.010554 0.131613 -0.026582
   vertex -0.011695 0.132441 -0.028685
   vertex -0.009663 0.133918 -0.027133
  endloop
 endfacet
 facet normal -0.126271 -0.0917039 -0.987748
  outer loop
   vertex -0.01779 0.13687 -0.03211
   vertex -0.018566 0.134481 -0.031789
   vertex -0.020301 0.13687 -0.031789
  endloop
 endfacet
 facet normal -0.126271 0.0917039 -0.987748
  outer loop
   vertex -0.01779 0.13687 -0.03211
   vertex -0.020301 0.13687 -0.031789
   vertex -0.018566 0.139259 -0.031789
  endloop
 endfacet
 facet normal 0.0482486 0.148392 -0.987751
  outer loop
   vertex -0.01779 0.13687 -0.03211
   vertex -0.018566 0.139259 -0.031789
   vertex -0.015758 0.138346 -0.031789
  endloop
 endfacet
 facet normal 0.819189 -0.412026 -0.398954
  outer loop
   vertex -0.010554 0.131613 -0.026582
   vertex -0.009663 0.133918 -0.027133
   vertex -0.009183 0.132441 -0.024622
  endloop
 endfacet
 facet normal -0.138975 -0.90647 -0.398746
  outer loop
   vertex -0.020554 0.128364 -0.026582
   vertex -0.018086 0.128228 -0.027133
   vertex -0.019342 0.127316 -0.024622
  endloop
 endfacet
 facet normal -0.905177 -0.147939 -0.398459
  outer loop
   vertex -0.026734 0.13687 -0.026582
   vertex -0.026101 0.134481 -0.027133
   vertex -0.027356 0.135394 -0.024621
  endloop
 endfacet
 facet normal -0.420269 0.815078 -0.398776
  outer loop
   vertex -0.020554 0.145376 -0.026582
   vertex -0.02263 0.144036 -0.027133
   vertex -0.02215 0.145512 -0.024622
  endloop
 endfacet
 facet normal 0.645038 0.651744 -0.398942
  outer loop
   vertex -0.010554 0.142127 -0.026582
   vertex -0.012471 0.143687 -0.027133
   vertex -0.010918 0.143687 -0.024622
  endloop
 endfacet
 facet normal 0.771063 -0.560215 -0.302688
  outer loop
   vertex -0.010554 0.131613 -0.026582
   vertex -0.009183 0.132441 -0.024622
   vertex -0.010918 0.130053 -0.024622
  endloop
 endfacet
 facet normal -0.294416 -0.906493 -0.302638
  outer loop
   vertex -0.020554 0.128364 -0.026582
   vertex -0.019342 0.127316 -0.024622
   vertex -0.02215 0.128228 -0.024622
  endloop
 endfacet
 facet normal -0.9532 0 -0.302341
  outer loop
   vertex -0.026734 0.13687 -0.026582
   vertex -0.027356 0.135394 -0.024621
   vertex -0.027356 0.138346 -0.024621
  endloop
 endfacet
 facet normal -0.294416 0.906493 -0.302638
  outer loop
   vertex -0.020554 0.145376 -0.026582
   vertex -0.02215 0.145512 -0.024622
   vertex -0.019342 0.146424 -0.024622
  endloop
 endfacet
 facet normal 0.771063 0.560215 -0.302688
  outer loop
   vertex -0.010554 0.142127 -0.026582
   vertex -0.010918 0.143687 -0.024622
   vertex -0.009183 0.141299 -0.024622
  endloop
 endfacet
 facet normal 0.342493 -0.758552 0.554344
  outer loop
   vertex -0.015026 0.128364 -0.017638
   vertex -0.01295 0.129704 -0.017087
   vertex -0.015462 0.129704 -0.015535
  endloop
 endfacet
 facet normal -0.61533 -0.560308 0.554459
  outer loop
   vertex -0.025026 0.131613 -0.017638
   vertex -0.023109 0.130053 -0.017087
   vertex -0.023885 0.132441 -0.015535
  endloop
 endfacet
 facet normal -0.723015 0.412034 0.554506
  outer loop
   vertex -0.025026 0.142127 -0.017638
   vertex -0.025917 0.139822 -0.017087
   vertex -0.023885 0.141299 -0.015535
  endloop
 endfacet
 facet normal 0.168666 0.815046 0.554303
  outer loop
   vertex -0.015026 0.145376 -0.017638
   vertex -0.017494 0.145512 -0.017087
   vertex -0.015462 0.144036 -0.015535
  endloop
 endfacet
 facet normal 0.827124 0.091254 0.554562
  outer loop
   vertex -0.008846 0.13687 -0.017638
   vertex -0.009479 0.139259 -0.017087
   vertex -0.010256 0.13687 -0.015535
  endloop
 endfacet
 facet normal 0.126271 0.0917039 0.987748
  outer loop
   vertex -0.015279 0.13687 -0.012431
   vertex -0.017014 0.139259 -0.012431
   vertex -0.01779 0.13687 -0.01211
  endloop
 endfacet
 facet normal 0.390899 0.0914587 0.915878
  outer loop
   vertex -0.012533 0.13687 -0.013603
   vertex -0.014172 0.139499 -0.013166
   vertex -0.015279 0.13687 -0.012431
  endloop
 endfacet
 facet normal 0.644269 0.0913996 0.759317
  outer loop
   vertex -0.010256 0.13687 -0.015535
   vertex -0.011408 0.139499 -0.014874
   vertex -0.012533 0.13687 -0.013603
  endloop
 endfacet
 facet normal 0.233325 0.169451 0.957521
  outer loop
   vertex -0.015279 0.13687 -0.012431
   vertex -0.014172 0.139499 -0.013166
   vertex -0.017014 0.139259 -0.012431
  endloop
 endfacet
 facet normal 0.207851 0.343516 0.915858
  outer loop
   vertex -0.014172 0.139499 -0.013166
   vertex -0.016165 0.14187 -0.013603
   vertex -0.017014 0.139259 -0.012431
  endloop
 endfacet
 facet normal 0.516783 0.183167 0.836293
  outer loop
   vertex -0.012533 0.13687 -0.013603
   vertex -0.011408 0.139499 -0.014874
   vertex -0.014172 0.139499 -0.013166
  endloop
 endfacet
 facet normal 0.491058 0.356895 0.794662
  outer loop
   vertex -0.011408 0.139499 -0.014874
   vertex -0.013318 0.142127 -0.014874
   vertex -0.014172 0.139499 -0.013166
  endloop
 endfacet
 facet normal 0.334054 0.43492 0.836213
  outer loop
   vertex -0.014172 0.139499 -0.013166
   vertex -0.013318 0.142127 -0.014874
   vertex -0.016165 0.14187 -0.013603
  endloop
 endfacet
 facet normal 0.286233 0.584386 0.759318
  outer loop
   vertex -0.013318 0.142127 -0.014874
   vertex -0.015462 0.144036 -0.015535
   vertex -0.016165 0.14187 -0.013603
  endloop
 endfacet
 facet normal 0.751958 0.169318 0.637095
  outer loop
   vertex -0.010256 0.13687 -0.015535
   vertex -0.009479 0.139259 -0.017087
   vertex -0.011408 0.139499 -0.014874
  endloop
 endfacet
 facet normal 0.725985 0.343961 0.595514
  outer loop
   vertex -0.009479 0.139259 -0.017087
   vertex -0.010908 0.14187 -0.016853
   vertex -0.011408 0.139499 -0.014874
  endloop
 endfacet
 facet normal 0.598657 0.435097 0.672533
  outer loop
   vertex -0.011408 0.139499 -0.014874
   vertex -0.010908 0.14187 -0.016853
   vertex -0.013318 0.142127 -0.014874
  endloop
 endfacet
 facet normal 0.551379 0.584158 0.595601
  outer loop
   vertex -0.010908 0.14187 -0.016853
   vertex -0.01295 0.144036 -0.017087
   vertex -0.013318 0.142127 -0.014874
  endloop
 endfacet
 facet normal 0.393627 0.662685 0.637108
  outer loop
   vertex -0.013318 0.142127 -0.014874
   vertex -0.01295 0.144036 -0.017087
   vertex -0.015462 0.144036 -0.015535
  endloop
 endfacet
 facet normal 0.342493 0.758552 0.554344
  outer loop
   vertex -0.01295 0.144036 -0.017087
   vertex -0.015026 0.145376 -0.017638
   vertex -0.015462 0.144036 -0.015535
  endloop
 endfacet
 facet normal -0.0482486 0.148392 0.987751
  outer loop
   vertex -0.017014 0.139259 -0.012431
   vertex -0.019822 0.138346 -0.012431
   vertex -0.01779 0.13687 -0.01211
  endloop
 endfacet
 facet normal 0.0336945 0.400135 0.915836
  outer loop
   vertex -0.016165 0.14187 -0.013603
   vertex -0.019172 0.141123 -0.013166
   vertex -0.017014 0.139259 -0.012431
  endloop
 endfacet
 facet normal 0.112009 0.640965 0.759354
  outer loop
   vertex -0.015462 0.144036 -0.015535
   vertex -0.018318 0.143752 -0.014874
   vertex -0.016165 0.14187 -0.013603
  endloop
 endfacet
 facet normal -0.0891868 0.274301 0.957499
  outer loop
   vertex -0.017014 0.139259 -0.012431
   vertex -0.019172 0.141123 -0.013166
   vertex -0.019822 0.138346 -0.012431
  endloop
 endfacet
 facet normal -0.262485 0.303841 0.915851
  outer loop
   vertex -0.019172 0.141123 -0.013166
   vertex -0.022043 0.13996 -0.013603
   vertex -0.019822 0.138346 -0.012431
  endloop
 endfacet
 facet normal -0.0146149 0.548074 0.836302
  outer loop
   vertex -0.016165 0.14187 -0.013603
   vertex -0.018318 0.143752 -0.014874
   vertex -0.019172 0.141123 -0.013166
  endloop
 endfacet
 facet normal -0.187559 0.577248 0.794737
  outer loop
   vertex -0.018318 0.143752 -0.014874
   vertex -0.021408 0.142748 -0.014874
   vertex -0.019172 0.141123 -0.013166
  endloop
 endfacet
 facet normal -0.310374 0.451949 0.836307
  outer loop
   vertex -0.019172 0.141123 -0.013166
   vertex -0.021408 0.142748 -0.014874
   vertex -0.022043 0.13996 -0.013603
  endloop
 endfacet
 facet normal -0.467426 0.452641 0.759361
  outer loop
   vertex -0.021408 0.142748 -0.014874
   vertex -0.023885 0.141299 -0.015535
   vertex -0.022043 0.13996 -0.013603
  endloop
 endfacet
 facet normal 0.0710868 0.767617 0.636955
  outer loop
   vertex -0.015462 0.144036 -0.015535
   vertex -0.017494 0.145512 -0.017087
   vertex -0.018318 0.143752 -0.014874
  endloop
 endfacet
 facet normal -0.102735 0.796801 0.595444
  outer loop
   vertex -0.017494 0.145512 -0.017087
   vertex -0.020419 0.14496 -0.016853
   vertex -0.018318 0.143752 -0.014874
  endloop
 endfacet
 facet normal -0.228709 0.703897 0.672474
  outer loop
   vertex -0.018318 0.143752 -0.014874
   vertex -0.020419 0.14496 -0.016853
   vertex -0.021408 0.142748 -0.014874
  endloop
 endfacet
 facet normal -0.38541 0.704977 0.595371
  outer loop
   vertex -0.020419 0.14496 -0.016853
   vertex -0.023109 0.143687 -0.017087
   vertex -0.021408 0.142748 -0.014874
  endloop
 endfacet
 facet normal -0.508799 0.579247 0.636864
  outer loop
   vertex -0.021408 0.142748 -0.014874
   vertex -0.023109 0.143687 -0.017087
   vertex -0.023885 0.141299 -0.015535
  endloop
 endfacet
 facet normal -0.61533 0.560308 0.554459
  outer loop
   vertex -0.023109 0.143687 -0.017087
   vertex -0.025026 0.142127 -0.017638
   vertex -0.023885 0.141299 -0.015535
  endloop
 endfacet
 facet normal -0.156037 0 0.987751
  outer loop
   vertex -0.019822 0.138346 -0.012431
   vertex -0.019822 0.135394 -0.012431
   vertex -0.01779 0.13687 -0.01211
  endloop
 endfacet
 facet normal -0.370096 0.155752 0.915844
  outer loop
   vertex -0.022043 0.13996 -0.013603
   vertex -0.022262 0.13687 -0.013166
   vertex -0.019822 0.138346 -0.012431
  endloop
 endfacet
 facet normal -0.574948 0.304695 0.759339
  outer loop
   vertex -0.023885 0.141299 -0.015535
   vertex -0.024498 0.138495 -0.014874
   vertex -0.022043 0.13996 -0.013603
  endloop
 endfacet
 facet normal -0.288428 0 0.957502
  outer loop
   vertex -0.019822 0.138346 -0.012431
   vertex -0.022262 0.13687 -0.013166
   vertex -0.019822 0.135394 -0.012431
  endloop
 endfacet
 facet normal -0.370096 -0.155752 0.915844
  outer loop
   vertex -0.022262 0.13687 -0.013166
   vertex -0.022043 0.13378 -0.013603
   vertex -0.019822 0.135394 -0.012431
  endloop
 endfacet
 facet normal -0.525774 0.155534 0.836284
  outer loop
   vertex -0.022043 0.13996 -0.013603
   vertex -0.024498 0.138495 -0.014874
   vertex -0.022262 0.13687 -0.013166
  endloop
 endfacet
 facet normal -0.607028 0 0.794681
  outer loop
   vertex -0.024498 0.138495 -0.014874
   vertex -0.024498 0.135245 -0.014874
   vertex -0.022262 0.13687 -0.013166
  endloop
 endfacet
 facet normal -0.525774 -0.155534 0.836284
  outer loop
   vertex -0.022262 0.13687 -0.013166
   vertex -0.024498 0.135245 -0.014874
   vertex -0.022043 0.13378 -0.013603
  endloop
 endfacet
 facet normal -0.574948 -0.304695 0.759339
  outer loop
   vertex -0.024498 0.135245 -0.014874
   vertex -0.023885 0.132441 -0.015535
   vertex -0.022043 0.13378 -0.013603
  endloop
 endfacet
 facet normal -0.708089 0.304936 0.636886
  outer loop
   vertex -0.023885 0.141299 -0.015535
   vertex -0.025917 0.139822 -0.017087
   vertex -0.024498 0.138495 -0.014874
  endloop
 endfacet
 facet normal -0.789589 0.148568 0.59538
  outer loop
   vertex -0.025917 0.139822 -0.017087
   vertex -0.026296 0.13687 -0.016853
   vertex -0.024498 0.138495 -0.014874
  endloop
 endfacet
 facet normal -0.740143 0 0.672449
  outer loop
   vertex -0.024498 0.138495 -0.014874
   vertex -0.026296 0.13687 -0.016853
   vertex -0.024498 0.135245 -0.014874
  endloop
 endfacet
 facet normal -0.789589 -0.148568 0.59538
  outer loop
   vertex -0.026296 0.13687 -0.016853
   vertex -0.025917 0.133918 -0.017087
   vertex -0.024498 0.135245 -0.014874
  endloop
 endfacet
 facet normal -0.708089 -0.304936 0.636886
  outer loop
   vertex -0.024498 0.135245 -0.014874
   vertex -0.025917 0.133918 -0.017087
   vertex -0.023885 0.132441 -0.015535
  endloop
 endfacet
 facet normal -0.723015 -0.412034 0.554506
  outer loop
   vertex -0.025917 0.133918 -0.017087
   vertex -0.025026 0.131613 -0.017638
   vertex -0.023885 0.132441 -0.015535
  endloop
 endfacet
 facet normal -0.0482486 -0.148392 0.987751
  outer loop
   vertex -0.019822 0.135394 -0.012431
   vertex -0.017014 0.134481 -0.012431
   vertex -0.01779 0.13687 -0.01211
  endloop
 endfacet
 facet normal -0.262485 -0.303841 0.915851
  outer loop
   vertex -0.022043 0.13378 -0.013603
   vertex -0.019172 0.132617 -0.013166
   vertex -0.019822 0.135394 -0.012431
  endloop
 endfacet
 facet normal -0.467426 -0.452641 0.759361
  outer loop
   vertex -0.023885 0.132441 -0.015535
   vertex -0.021408 0.130992 -0.014874
   vertex -0.022043 0.13378 -0.013603
  endloop
 endfacet
 facet normal -0.0891868 -0.274301 0.957499
  outer loop
   vertex -0.019822 0.135394 -0.012431
   vertex -0.019172 0.132617 -0.013166
   vertex -0.017014 0.134481 -0.012431
  endloop
 endfacet
 facet normal 0.0336945 -0.400135 0.915836
  outer loop
   vertex -0.019172 0.132617 -0.013166
   vertex -0.016165 0.13187 -0.013603
   vertex -0.017014 0.134481 -0.012431
  endloop
 endfacet
 facet normal -0.310374 -0.451949 0.836307
  outer loop
   vertex -0.022043 0.13378 -0.013603
   vertex -0.021408 0.130992 -0.014874
   vertex -0.019172 0.132617 -0.013166
  endloop
 endfacet
 facet normal -0.187559 -0.577248 0.794737
  outer loop
   vertex -0.021408 0.130992 -0.014874
   vertex -0.018318 0.129988 -0.014874
   vertex -0.019172 0.132617 -0.013166
  endloop
 endfacet
 facet normal -0.0146149 -0.548074 0.836302
  outer loop
   vertex -0.019172 0.132617 -0.013166
   vertex -0.018318 0.129988 -0.014874
   vertex -0.016165 0.13187 -0.013603
  endloop
 endfacet
 facet normal 0.112009 -0.640965 0.759354
  outer loop
   vertex -0.018318 0.129988 -0.014874
   vertex -0.015462 0.129704 -0.015535
   vertex -0.016165 0.13187 -0.013603
  endloop
 endfacet
 facet normal -0.508799 -0.579247 0.636864
  outer loop
   vertex -0.023885 0.132441 -0.015535
   vertex -0.023109 0.130053 -0.017087
   vertex -0.021408 0.130992 -0.014874
  endloop
 endfacet
 facet normal -0.38541 -0.704977 0.595371
  outer loop
   vertex -0.023109 0.130053 -0.017087
   vertex -0.020419 0.12878 -0.016853
   vertex -0.021408 0.130992 -0.014874
  endloop
 endfacet
 facet normal -0.228709 -0.703897 0.672474
  outer loop
   vertex -0.021408 0.130992 -0.014874
   vertex -0.020419 0.12878 -0.016853
   vertex -0.018318 0.129988 -0.014874
  endloop
 endfacet
 facet normal -0.102735 -0.796801 0.595444
  outer loop
   vertex -0.020419 0.12878 -0.016853
   vertex -0.017494 0.128228 -0.017087
   vertex -0.018318 0.129988 -0.014874
  endloop
 endfacet
 facet normal 0.0710868 -0.767617 0.636955
  outer loop
   vertex -0.018318 0.129988 -0.014874
   vertex -0.017494 0.128228 -0.017087
   vertex -0.015462 0.129704 -0.015535
  endloop
 endfacet
 facet normal 0.168666 -0.815046 0.554303
  outer loop
   vertex -0.017494 0.128228 -0.017087
   vertex -0.015026 0.128364 -0.017638
   vertex -0.015462 0.129704 -0.015535
  endloop
 endfacet
 facet normal 0.126271 -0.0917039 0.987748
  outer loop
   vertex -0.017014 0.134481 -0.012431
   vertex -0.015279 0.13687 -0.012431
   vertex -0.01779 0.13687 -0.01211
  endloop
 endfacet
 facet normal 0.207851 -0.343516 0.915858
  outer loop
   vertex -0.016165 0.13187 -0.013603
   vertex -0.014172 0.134241 -0.013166
   vertex -0.017014 0.134481 -0.012431
  endloop
 endfacet
 facet normal 0.286233 -0.584386 0.759318
  outer loop
   vertex -0.015462 0.129704 -0.015535
   vertex -0.013318 0.131613 -0.014874
   vertex -0.016165 0.13187 -0.013603
  endloop
 endfacet
 facet normal 0.233325 -0.169451 0.957521
  outer loop
   vertex -0.017014 0.134481 -0.012431
   vertex -0.014172 0.134241 -0.013166
   vertex -0.015279 0.13687 -0.012431
  endloop
 endfacet
 facet normal 0.390899 -0.0914587 0.915878
  outer loop
   vertex -0.014172 0.134241 -0.013166
   vertex -0.012533 0.13687 -0.013603
   vertex -0.015279 0.13687 -0.012431
  endloop
 endfacet
 facet normal 0.334054 -0.43492 0.836213
  outer loop
   vertex -0.016165 0.13187 -0.013603
   vertex -0.013318 0.131613 -0.014874
   vertex -0.014172 0.134241 -0.013166
  endloop
 endfacet
 facet normal 0.491058 -0.356895 0.794662
  outer loop
   vertex -0.013318 0.131613 -0.014874
   vertex -0.011408 0.134241 -0.014874
   vertex -0.014172 0.134241 -0.013166
  endloop
 endfacet
 facet normal 0.516783 -0.183167 0.836293
  outer loop
   vertex -0.014172 0.134241 -0.013166
   vertex -0.011408 0.134241 -0.014874
   vertex -0.012533 0.13687 -0.013603
  endloop
 endfacet
 facet normal 0.644269 -0.0913996 0.759317
  outer loop
   vertex -0.011408 0.134241 -0.014874
   vertex -0.010256 0.13687 -0.015535
   vertex -0.012533 0.13687 -0.013603
  endloop
 endfacet
 facet normal 0.393627 -0.662685 0.637108
  outer loop
   vertex -0.015462 0.129704 -0.015535
   vertex -0.01295 0.129704 -0.017087
   vertex -0.013318 0.131613 -0.014874
  endloop
 endfacet
 facet normal 0.551379 -0.584158 0.595601
  outer loop
   vertex -0.01295 0.129704 -0.017087
   vertex -0.010908 0.13187 -0.016853
   vertex -0.013318 0.131613 -0.014874
  endloop
 endfacet
 facet normal 0.598657 -0.435097 0.672533
  outer loop
   vertex -0.013318 0.131613 -0.014874
   vertex -0.010908 0.13187 -0.016853
   vertex -0.011408 0.134241 -0.014874
  endloop
 endfacet
 facet normal 0.725985 -0.343961 0.595514
  outer loop
   vertex -0.010908 0.13187 -0.016853
   vertex -0.009479 0.134481 -0.017087
   vertex -0.011408 0.134241 -0.014874
  endloop
 endfacet
 facet normal 0.751958 -0.169318 0.637095
  outer loop
   vertex -0.011408 0.134241 -0.014874
   vertex -0.009479 0.134481 -0.017087
   vertex -0.010256 0.13687 -0.015535
  endloop
 endfacet
 facet normal 0.827124 -0.091254 0.554562
  outer loop
   vertex -0.009479 0.134481 -0.017087
   vertex -0.008846 0.13687 -0.017638
   vertex -0.010256 0.13687 -0.015535
  endloop
 endfacet
 facet normal 0.905177 0.147939 0.398459
  outer loop
   vertex -0.008224 0.138346 -0.019599
   vertex -0.009479 0.139259 -0.017087
   vertex -0.008846 0.13687 -0.017638
  endloop
 endfacet
 facet normal 0.93657 0.303801 0.17476
  outer loop
   vertex -0.008279 0.13996 -0.02211
   vertex -0.009172 0.141123 -0.019346
   vertex -0.008224 0.138346 -0.019599
  endloop
 endfacet
 facet normal 0.888212 0.452708 -0.078331
  outer loop
   vertex -0.009183 0.141299 -0.024622
   vertex -0.0097 0.142748 -0.02211
   vertex -0.008279 0.13996 -0.02211
  endloop
 endfacet
 facet normal 0.89641 0.274294 0.348155
  outer loop
   vertex -0.008224 0.138346 -0.019599
   vertex -0.009172 0.141123 -0.019346
   vertex -0.009479 0.139259 -0.017087
  endloop
 endfacet
 facet normal 0.803858 0.400541 0.439749
  outer loop
   vertex -0.009172 0.141123 -0.019346
   vertex -0.010908 0.14187 -0.016853
   vertex -0.009479 0.139259 -0.017087
  endloop
 endfacet
 facet normal 0.886806 0.451991 0.0963284
  outer loop
   vertex -0.008279 0.13996 -0.02211
   vertex -0.0097 0.142748 -0.02211
   vertex -0.009172 0.141123 -0.019346
  endloop
 endfacet
 facet normal 0.794662 0.577331 0.18762
  outer loop
   vertex -0.0097 0.142748 -0.02211
   vertex -0.011082 0.143752 -0.019346
   vertex -0.009172 0.141123 -0.019346
  endloop
 endfacet
 facet normal 0.754436 0.548107 0.361117
  outer loop
   vertex -0.009172 0.141123 -0.019346
   vertex -0.011082 0.143752 -0.019346
   vertex -0.010908 0.14187 -0.016853
  endloop
 endfacet
 facet normal 0.629279 0.640767 0.439803
  outer loop
   vertex -0.011082 0.143752 -0.019346
   vertex -0.01295 0.144036 -0.017087
   vertex -0.010908 0.14187 -0.016853
  endloop
 endfacet
 facet normal 0.797233 0.579229 -0.170037
  outer loop
   vertex -0.009183 0.141299 -0.024622
   vertex -0.010918 0.143687 -0.024622
   vertex -0.0097 0.142748 -0.02211
  endloop
 endfacet
 facet normal 0.704936 0.704936 -0.0782949
  outer loop
   vertex -0.010918 0.143687 -0.024622
   vertex -0.011912 0.14496 -0.02211
   vertex -0.0097 0.142748 -0.02211
  endloop
 endfacet
 facet normal 0.703824 0.703824 0.0962537
  outer loop
   vertex -0.0097 0.142748 -0.02211
   vertex -0.011912 0.14496 -0.02211
   vertex -0.011082 0.143752 -0.019346
  endloop
 endfacet
 facet normal 0.578519 0.796783 0.174509
  outer loop
   vertex -0.011912 0.14496 -0.02211
   vertex -0.01343 0.145512 -0.019598
   vertex -0.011082 0.143752 -0.019346
  endloop
 endfacet
 facet normal 0.537986 0.767602 0.348366
  outer loop
   vertex -0.011082 0.143752 -0.019346
   vertex -0.01343 0.145512 -0.019598
   vertex -0.01295 0.144036 -0.017087
  endloop
 endfacet
 facet normal 0.420269 0.815078 0.398776
  outer loop
   vertex -0.01343 0.145512 -0.019598
   vertex -0.015026 0.145376 -0.017638
   vertex -0.01295 0.144036 -0.017087
  endloop
 endfacet
 facet normal 0.138975 0.90647 0.398746
  outer loop
   vertex -0.016238 0.146424 -0.019598
   vertex -0.017494 0.145512 -0.017087
   vertex -0.015026 0.145376 -0.017638
  endloop
 endfacet
 facet normal 0.000555151 0.98466 0.174481
  outer loop
   vertex -0.01779 0.14687 -0.02211
   vertex -0.019172 0.146381 -0.019346
   vertex -0.016238 0.146424 -0.019598
  endloop
 endfacet
 facet normal -0.155824 0.984657 -0.07855
  outer loop
   vertex -0.019342 0.146424 -0.024622
   vertex -0.02088 0.146381 -0.02211
   vertex -0.01779 0.14687 -0.02211
  endloop
 endfacet
 facet normal 0.0161962 0.937175 0.348485
  outer loop
   vertex -0.016238 0.146424 -0.019598
   vertex -0.019172 0.146381 -0.019346
   vertex -0.017494 0.145512 -0.017087
  endloop
 endfacet
 facet normal -0.132412 0.888171 0.440021
  outer loop
   vertex -0.019172 0.146381 -0.019346
   vertex -0.020419 0.14496 -0.016853
   vertex -0.017494 0.145512 -0.017087
  endloop
 endfacet
 facet normal -0.155583 0.983133 0.0961419
  outer loop
   vertex -0.01779 0.14687 -0.02211
   vertex -0.02088 0.146381 -0.02211
   vertex -0.019172 0.146381 -0.019346
  endloop
 endfacet
 facet normal -0.303796 0.934059 0.187729
  outer loop
   vertex -0.02088 0.146381 -0.02211
   vertex -0.022262 0.145376 -0.019346
   vertex -0.019172 0.146381 -0.019346
  endloop
 endfacet
 facet normal -0.288415 0.886769 0.361189
  outer loop
   vertex -0.019172 0.146381 -0.019346
   vertex -0.022262 0.145376 -0.019346
   vertex -0.020419 0.14496 -0.016853
  endloop
 endfacet
 facet normal -0.415138 0.796394 0.439791
  outer loop
   vertex -0.022262 0.145376 -0.019346
   vertex -0.023109 0.143687 -0.017087
   vertex -0.020419 0.14496 -0.016853
  endloop
 endfacet
 facet normal -0.304389 0.937197 -0.170322
  outer loop
   vertex -0.019342 0.146424 -0.024622
   vertex -0.02215 0.145512 -0.024622
   vertex -0.02088 0.146381 -0.02211
  endloop
 endfacet
 facet normal -0.452705 0.888208 -0.0783901
  outer loop
   vertex -0.02215 0.145512 -0.024622
   vertex -0.023668 0.14496 -0.02211
   vertex -0.02088 0.146381 -0.02211
  endloop
 endfacet
 facet normal -0.451986 0.886796 0.0964489
  outer loop
   vertex -0.02088 0.146381 -0.02211
   vertex -0.023668 0.14496 -0.02211
   vertex -0.022262 0.145376 -0.019346
  endloop
 endfacet
 facet normal -0.578874 0.796508 0.174584
  outer loop
   vertex -0.023668 0.14496 -0.02211
   vertex -0.024662 0.143687 -0.019598
   vertex -0.022262 0.145376 -0.019346
  endloop
 endfacet
 facet normal -0.563623 0.748876 0.348589
  outer loop
   vertex -0.022262 0.145376 -0.019346
   vertex -0.024662 0.143687 -0.019598
   vertex -0.023109 0.143687 -0.017087
  endloop
 endfacet
 facet normal -0.645038 0.651744 0.398942
  outer loop
   vertex -0.024662 0.143687 -0.019598
   vertex -0.025026 0.142127 -0.017638
   vertex -0.023109 0.143687 -0.017087
  endloop
 endfacet
 facet normal -0.819189 0.412026 0.398954
  outer loop
   vertex -0.026397 0.141299 -0.019598
   vertex -0.025917 0.139822 -0.017087
   vertex -0.025026 0.142127 -0.017638
  endloop
 endfacet
 facet normal -0.936352 0.304548 0.174631
  outer loop
   vertex -0.027301 0.13996 -0.02211
   vertex -0.027262 0.138495 -0.019346
   vertex -0.026397 0.141299 -0.019598
  endloop
 endfacet
 facet normal -0.984653 0.155824 -0.0785916
  outer loop
   vertex -0.027356 0.138346 -0.024621
   vertex -0.02779 0.13687 -0.02211
   vertex -0.027301 0.13996 -0.02211
  endloop
 endfacet
 facet normal -0.886309 0.304753 0.348685
  outer loop
   vertex -0.026397 0.141299 -0.019598
   vertex -0.027262 0.138495 -0.019346
   vertex -0.025917 0.139822 -0.017087
  endloop
 endfacet
 facet normal -0.885615 0.148581 0.440011
  outer loop
   vertex -0.027262 0.138495 -0.019346
   vertex -0.026296 0.13687 -0.016853
   vertex -0.025917 0.139822 -0.017087
  endloop
 endfacet
 facet normal -0.983115 0.15558 0.0963335
  outer loop
   vertex -0.027301 0.13996 -0.02211
   vertex -0.02779 0.13687 -0.02211
   vertex -0.027262 0.138495 -0.019346
  endloop
 endfacet
 facet normal -0.982239 0 0.187634
  outer loop
   vertex -0.02779 0.13687 -0.02211
   vertex -0.027262 0.135245 -0.019346
   vertex -0.027262 0.138495 -0.019346
  endloop
 endfacet
 facet normal -0.932446 0 0.361309
  outer loop
   vertex -0.027262 0.138495 -0.019346
   vertex -0.027262 0.135245 -0.019346
   vertex -0.026296 0.13687 -0.016853
  endloop
 endfacet
 facet normal -0.885615 -0.148581 0.440011
  outer loop
   vertex -0.027262 0.135245 -0.019346
   vertex -0.025917 0.133918 -0.017087
   vertex -0.026296 0.13687 -0.016853
  endloop
 endfacet
 facet normal -0.98539 -0 -0.170314
  outer loop
   vertex -0.027356 0.138346 -0.024621
   vertex -0.027356 0.135394 -0.024621
   vertex -0.02779 0.13687 -0.02211
  endloop
 endfacet
 facet normal -0.984653 -0.155824 -0.0785916
  outer loop
   vertex -0.027356 0.135394 -0.024621
   vertex -0.027301 0.13378 -0.02211
   vertex -0.02779 0.13687 -0.02211
  endloop
 endfacet
 facet normal -0.983115 -0.15558 0.0963335
  outer loop
   vertex -0.02779 0.13687 -0.02211
   vertex -0.027301 0.13378 -0.02211
   vertex -0.027262 0.135245 -0.019346
  endloop
 endfacet
 facet normal -0.936352 -0.304548 0.174631
  outer loop
   vertex -0.027301 0.13378 -0.02211
   vertex -0.026397 0.132441 -0.019598
   vertex -0.027262 0.135245 -0.019346
  endloop
 endfacet
 facet normal -0.886309 -0.304753 0.348685
  outer loop
   vertex -0.027262 0.135245 -0.019346
   vertex -0.026397 0.132441 -0.019598
   vertex -0.025917 0.133918 -0.017087
  endloop
 endfacet
 facet normal -0.819189 -0.412026 0.398954
  outer loop
   vertex -0.026397 0.132441 -0.019598
   vertex -0.025026 0.131613 -0.017638
   vertex -0.025917 0.133918 -0.017087
  endloop
 endfacet
 facet normal -0.645038 -0.651744 0.398942
  outer loop
   vertex -0.024662 0.130053 -0.019598
   vertex -0.023109 0.130053 -0.017087
   vertex -0.025026 0.131613 -0.017638
  endloop
 endfacet
 facet normal -0.578874 -0.796508 0.174584
  outer loop
   vertex -0.023668 0.12878 -0.02211
   vertex -0.022262 0.128364 -0.019346
   vertex -0.024662 0.130053 -0.019598
  endloop
 endfacet
 facet normal -0.452705 -0.888208 -0.0783901
  outer loop
   vertex -0.02215 0.128228 -0.024622
   vertex -0.02088 0.127359 -0.02211
   vertex -0.023668 0.12878 -0.02211
  endloop
 endfacet
 facet normal -0.563623 -0.748876 0.348589
  outer loop
   vertex -0.024662 0.130053 -0.019598
   vertex -0.022262 0.128364 -0.019346
   vertex -0.023109 0.130053 -0.017087
  endloop
 endfacet
 facet normal -0.415138 -0.796394 0.439791
  outer loop
   vertex -0.022262 0.128364 -0.019346
   vertex -0.020419 0.12878 -0.016853
   vertex -0.023109 0.130053 -0.017087
  endloop
 endfacet
 facet normal -0.451986 -0.886796 0.0964489
  outer loop
   vertex -0.023668 0.12878 -0.02211
   vertex -0.02088 0.127359 -0.02211
   vertex -0.022262 0.128364 -0.019346
  endloop
 endfacet
 facet normal -0.303796 -0.934059 0.187729
  outer loop
   vertex -0.02088 0.127359 -0.02211
   vertex -0.019172 0.127359 -0.019346
   vertex -0.022262 0.128364 -0.019346
  endloop
 endfacet
 facet normal -0.288415 -0.886769 0.361189
  outer loop
   vertex -0.022262 0.128364 -0.019346
   vertex -0.019172 0.127359 -0.019346
   vertex -0.020419 0.12878 -0.016853
  endloop
 endfacet
 facet normal -0.132412 -0.888171 0.440021
  outer loop
   vertex -0.019172 0.127359 -0.019346
   vertex -0.017494 0.128228 -0.017087
   vertex -0.020419 0.12878 -0.016853
  endloop
 endfacet
 facet normal -0.304389 -0.937197 -0.170322
  outer loop
   vertex -0.02215 0.128228 -0.024622
   vertex -0.019342 0.127316 -0.024622
   vertex -0.02088 0.127359 -0.02211
  endloop
 endfacet
 facet normal -0.155824 -0.984657 -0.07855
  outer loop
   vertex -0.019342 0.127316 -0.024622
   vertex -0.01779 0.12687 -0.02211
   vertex -0.02088 0.127359 -0.02211
  endloop
 endfacet
 facet normal -0.155583 -0.983133 0.0961419
  outer loop
   vertex -0.02088 0.127359 -0.02211
   vertex -0.01779 0.12687 -0.02211
   vertex -0.019172 0.127359 -0.019346
  endloop
 endfacet
 facet normal 0.000555151 -0.98466 0.174481
  outer loop
   vertex -0.01779 0.12687 -0.02211
   vertex -0.016238 0.127316 -0.019598
   vertex -0.019172 0.127359 -0.019346
  endloop
 endfacet
 facet normal 0.0161962 -0.937175 0.348485
  outer loop
   vertex -0.019172 0.127359 -0.019346
   vertex -0.016238 0.127316 -0.019598
   vertex -0.017494 0.128228 -0.017087
  endloop
 endfacet
 facet normal 0.138975 -0.90647 0.398746
  outer loop
   vertex -0.016238 0.127316 -0.019598
   vertex -0.015026 0.128364 -0.017638
   vertex -0.017494 0.128228 -0.017087
  endloop
 endfacet
 facet normal 0.420269 -0.815078 0.398776
  outer loop
   vertex -0.01343 0.128228 -0.019598
   vertex -0.01295 0.129704 -0.017087
   vertex -0.015026 0.128364 -0.017638
  endloop
 endfacet
 facet normal 0.578519 -0.796783 0.174509
  outer loop
   vertex -0.011912 0.12878 -0.02211
   vertex -0.011082 0.129988 -0.019346
   vertex -0.01343 0.128228 -0.019598
  endloop
 endfacet
 facet normal 0.704936 -0.704936 -0.0782949
  outer loop
   vertex -0.010918 0.130053 -0.024622
   vertex -0.0097 0.130992 -0.02211
   vertex -0.011912 0.12878 -0.02211
  endloop
 endfacet
 facet normal 0.537986 -0.767602 0.348366
  outer loop
   vertex -0.01343 0.128228 -0.019598
   vertex -0.011082 0.129988 -0.019346
   vertex -0.01295 0.129704 -0.017087
  endloop
 endfacet
 facet normal 0.629279 -0.640767 0.439803
  outer loop
   vertex -0.011082 0.129988 -0.019346
   vertex -0.010908 0.13187 -0.016853
   vertex -0.01295 0.129704 -0.017087
  endloop
 endfacet
 facet normal 0.703824 -0.703824 0.0962537
  outer loop
   vertex -0.011912 0.12878 -0.02211
   vertex -0.0097 0.130992 -0.02211
   vertex -0.011082 0.129988 -0.019346
  endloop
 endfacet
 facet normal 0.794662 -0.577331 0.18762
  outer loop
   vertex -0.0097 0.130992 -0.02211
   vertex -0.009172 0.132617 -0.019346
   vertex -0.011082 0.129988 -0.019346
  endloop
 endfacet
 facet normal 0.754436 -0.548107 0.361117
  outer loop
   vertex -0.011082 0.129988 -0.019346
   vertex -0.009172 0.132617 -0.019346
   vertex -0.010908 0.13187 -0.016853
  endloop
 endfacet
 facet normal 0.803858 -0.400541 0.439749
  outer loop
   vertex -0.009172 0.132617 -0.019346
   vertex -0.009479 0.134481 -0.017087
   vertex -0.010908 0.13187 -0.016853
  endloop
 endfacet
 facet normal 0.797233 -0.579229 -0.170037
  outer loop
   vertex -0.010918 0.130053 -0.024622
   vertex -0.009183 0.132441 -0.024622
   vertex -0.0097 0.130992 -0.02211
  endloop
 endfacet
 facet normal 0.888212 -0.452708 -0.078331
  outer loop
   vertex -0.009183 0.132441 -0.024622
   vertex -0.008279 0.13378 -0.02211
   vertex -0.0097 0.130992 -0.02211
  endloop
 endfacet
 facet normal 0.886806 -0.451991 0.0963284
  outer loop
   vertex -0.0097 0.130992 -0.02211
   vertex -0.008279 0.13378 -0.02211
   vertex -0.009172 0.132617 -0.019346
  endloop
 endfacet
 facet normal 0.93657 -0.303801 0.17476
  outer loop
   vertex -0.008279 0.13378 -0.02211
   vertex -0.008224 0.135394 -0.019599
   vertex -0.009172 0.132617 -0.019346
  endloop
 endfacet
 facet normal 0.89641 -0.274294 0.348155
  outer loop
   vertex -0.009172 0.132617 -0.019346
   vertex -0.008224 0.135394 -0.019599
   vertex -0.009479 0.134481 -0.017087
  endloop
 endfacet
 facet normal 0.905177 -0.147939 0.398459
  outer loop
   vertex -0.008224 0.135394 -0.019599
   vertex -0.008846 0.13687 -0.017638
   vertex -0.009479 0.134481 -0.017087
  endloop
 endfacet
 facet normal 0.294416 0.906493 0.302638
  outer loop
   vertex -0.01343 0.145512 -0.019598
   vertex -0.016238 0.146424 -0.019598
   vertex -0.015026 0.145376 -0.017638
  endloop
 endfacet
 facet normal 0.452705 0.888208 0.0783901
  outer loop
   vertex -0.011912 0.14496 -0.02211
   vertex -0.0147 0.146381 -0.02211
   vertex -0.01343 0.145512 -0.019598
  endloop
 endfacet
 facet normal 0.578874 0.796508 -0.174584
  outer loop
   vertex -0.010918 0.143687 -0.024622
   vertex -0.013318 0.145376 -0.024874
   vertex -0.011912 0.14496 -0.02211
  endloop
 endfacet
 facet normal 0.304389 0.937197 0.170322
  outer loop
   vertex -0.01343 0.145512 -0.019598
   vertex -0.0147 0.146381 -0.02211
   vertex -0.016238 0.146424 -0.019598
  endloop
 endfacet
 facet normal 0.155824 0.984657 0.07855
  outer loop
   vertex -0.0147 0.146381 -0.02211
   vertex -0.01779 0.14687 -0.02211
   vertex -0.016238 0.146424 -0.019598
  endloop
 endfacet
 facet normal 0.451986 0.886796 -0.0964489
  outer loop
   vertex -0.011912 0.14496 -0.02211
   vertex -0.013318 0.145376 -0.024874
   vertex -0.0147 0.146381 -0.02211
  endloop
 endfacet
 facet normal 0.303796 0.934059 -0.187729
  outer loop
   vertex -0.013318 0.145376 -0.024874
   vertex -0.016408 0.146381 -0.024874
   vertex -0.0147 0.146381 -0.02211
  endloop
 endfacet
 facet normal 0.155583 0.983133 -0.0961419
  outer loop
   vertex -0.0147 0.146381 -0.02211
   vertex -0.016408 0.146381 -0.024874
   vertex -0.01779 0.14687 -0.02211
  endloop
 endfacet
 facet normal -0.000555151 0.98466 -0.174481
  outer loop
   vertex -0.016408 0.146381 -0.024874
   vertex -0.019342 0.146424 -0.024622
   vertex -0.01779 0.14687 -0.02211
  endloop
 endfacet
 facet normal 0.563623 0.748876 -0.348589
  outer loop
   vertex -0.010918 0.143687 -0.024622
   vertex -0.012471 0.143687 -0.027133
   vertex -0.013318 0.145376 -0.024874
  endloop
 endfacet
 facet normal 0.415138 0.796394 -0.439791
  outer loop
   vertex -0.012471 0.143687 -0.027133
   vertex -0.015161 0.14496 -0.027367
   vertex -0.013318 0.145376 -0.024874
  endloop
 endfacet
 facet normal 0.288415 0.886769 -0.361189
  outer loop
   vertex -0.013318 0.145376 -0.024874
   vertex -0.015161 0.14496 -0.027367
   vertex -0.016408 0.146381 -0.024874
  endloop
 endfacet
 facet normal 0.132412 0.888171 -0.440021
  outer loop
   vertex -0.015161 0.14496 -0.027367
   vertex -0.018086 0.145512 -0.027133
   vertex -0.016408 0.146381 -0.024874
  endloop
 endfacet
 facet normal -0.0161962 0.937175 -0.348485
  outer loop
   vertex -0.016408 0.146381 -0.024874
   vertex -0.018086 0.145512 -0.027133
   vertex -0.019342 0.146424 -0.024622
  endloop
 endfacet
 facet normal -0.138975 0.90647 -0.398746
  outer loop
   vertex -0.018086 0.145512 -0.027133
   vertex -0.020554 0.145376 -0.026582
   vertex -0.019342 0.146424 -0.024622
  endloop
 endfacet
 facet normal -0.771063 0.560215 0.302688
  outer loop
   vertex -0.024662 0.143687 -0.019598
   vertex -0.026397 0.141299 -0.019598
   vertex -0.025026 0.142127 -0.017638
  endloop
 endfacet
 facet normal -0.704936 0.704936 0.0782949
  outer loop
   vertex -0.023668 0.14496 -0.02211
   vertex -0.02588 0.142748 -0.02211
   vertex -0.024662 0.143687 -0.019598
  endloop
 endfacet
 facet normal -0.578519 0.796783 -0.174509
  outer loop
   vertex -0.02215 0.145512 -0.024622
   vertex -0.024498 0.143752 -0.024874
   vertex -0.023668 0.14496 -0.02211
  endloop
 endfacet
 facet normal -0.797233 0.579229 0.170037
  outer loop
   vertex -0.024662 0.143687 -0.019598
   vertex -0.02588 0.142748 -0.02211
   vertex -0.026397 0.141299 -0.019598
  endloop
 endfacet
 facet normal -0.888212 0.452708 0.078331
  outer loop
   vertex -0.02588 0.142748 -0.02211
   vertex -0.027301 0.13996 -0.02211
   vertex -0.026397 0.141299 -0.019598
  endloop
 endfacet
 facet normal -0.703824 0.703824 -0.0962537
  outer loop
   vertex -0.023668 0.14496 -0.02211
   vertex -0.024498 0.143752 -0.024874
   vertex -0.02588 0.142748 -0.02211
  endloop
 endfacet
 facet normal -0.794662 0.577331 -0.18762
  outer loop
   vertex -0.024498 0.143752 -0.024874
   vertex -0.026408 0.141123 -0.024874
   vertex -0.02588 0.142748 -0.02211
  endloop
 endfacet
 facet normal -0.886806 0.451991 -0.0963284
  outer loop
   vertex -0.02588 0.142748 -0.02211
   vertex -0.026408 0.141123 -0.024874
   vertex -0.027301 0.13996 -0.02211
  endloop
 endfacet
 facet normal -0.93657 0.303801 -0.17476
  outer loop
   vertex -0.026408 0.141123 -0.024874
   vertex -0.027356 0.138346 -0.024621
   vertex -0.027301 0.13996 -0.02211
  endloop
 endfacet
 facet normal -0.537986 0.767602 -0.348366
  outer loop
   vertex -0.02215 0.145512 -0.024622
   vertex -0.02263 0.144036 -0.027133
   vertex -0.024498 0.143752 -0.024874
  endloop
 endfacet
 facet normal -0.629279 0.640767 -0.439803
  outer loop
   vertex -0.02263 0.144036 -0.027133
   vertex -0.024672 0.14187 -0.027367
   vertex -0.024498 0.143752 -0.024874
  endloop
 endfacet
 facet normal -0.754436 0.548107 -0.361117
  outer loop
   vertex -0.024498 0.143752 -0.024874
   vertex -0.024672 0.14187 -0.027367
   vertex -0.026408 0.141123 -0.024874
  endloop
 endfacet
 facet normal -0.803858 0.400541 -0.439749
  outer loop
   vertex -0.024672 0.14187 -0.027367
   vertex -0.026101 0.139259 -0.027133
   vertex -0.026408 0.141123 -0.024874
  endloop
 endfacet
 facet normal -0.89641 0.274294 -0.348155
  outer loop
   vertex -0.026408 0.141123 -0.024874
   vertex -0.026101 0.139259 -0.027133
   vertex -0.027356 0.138346 -0.024621
  endloop
 endfacet
 facet normal -0.905177 0.147939 -0.398459
  outer loop
   vertex -0.026101 0.139259 -0.027133
   vertex -0.026734 0.13687 -0.026582
   vertex -0.027356 0.138346 -0.024621
  endloop
 endfacet
 facet normal -0.771063 -0.560215 0.302688
  outer loop
   vertex -0.026397 0.132441 -0.019598
   vertex -0.024662 0.130053 -0.019598
   vertex -0.025026 0.131613 -0.017638
  endloop
 endfacet
 facet normal -0.888212 -0.452708 0.078331
  outer loop
   vertex -0.027301 0.13378 -0.02211
   vertex -0.02588 0.130992 -0.02211
   vertex -0.026397 0.132441 -0.019598
  endloop
 endfacet
 facet normal -0.93657 -0.303801 -0.17476
  outer loop
   vertex -0.027356 0.135394 -0.024621
   vertex -0.026408 0.132617 -0.024874
   vertex -0.027301 0.13378 -0.02211
  endloop
 endfacet
 facet normal -0.797233 -0.579229 0.170037
  outer loop
   vertex -0.026397 0.132441 -0.019598
   vertex -0.02588 0.130992 -0.02211
   vertex -0.024662 0.130053 -0.019598
  endloop
 endfacet
 facet normal -0.704936 -0.704936 0.0782949
  outer loop
   vertex -0.02588 0.130992 -0.02211
   vertex -0.023668 0.12878 -0.02211
   vertex -0.024662 0.130053 -0.019598
  endloop
 endfacet
 facet normal -0.886806 -0.451991 -0.0963284
  outer loop
   vertex -0.027301 0.13378 -0.02211
   vertex -0.026408 0.132617 -0.024874
   vertex -0.02588 0.130992 -0.02211
  endloop
 endfacet
 facet normal -0.794662 -0.577331 -0.18762
  outer loop
   vertex -0.026408 0.132617 -0.024874
   vertex -0.024498 0.129988 -0.024874
   vertex -0.02588 0.130992 -0.02211
  endloop
 endfacet
 facet normal -0.703824 -0.703824 -0.0962537
  outer loop
   vertex -0.02588 0.130992 -0.02211
   vertex -0.024498 0.129988 -0.024874
   vertex -0.023668 0.12878 -0.02211
  endloop
 endfacet
 facet normal -0.578519 -0.796783 -0.174509
  outer loop
   vertex -0.024498 0.129988 -0.024874
   vertex -0.02215 0.128228 -0.024622
   vertex -0.023668 0.12878 -0.02211
  endloop
 endfacet
 facet normal -0.89641 -0.274294 -0.348155
  outer loop
   vertex -0.027356 0.135394 -0.024621
   vertex -0.026101 0.134481 -0.027133
   vertex -0.026408 0.132617 -0.024874
  endloop
 endfacet
 facet normal -0.803858 -0.400541 -0.439749
  outer loop
   vertex -0.026101 0.134481 -0.027133
   vertex -0.024672 0.13187 -0.027367
   vertex -0.026408 0.132617 -0.024874
  endloop
 endfacet
 facet normal -0.754436 -0.548107 -0.361117
  outer loop
   vertex -0.026408 0.132617 -0.024874
   vertex -0.024672 0.13187 -0.027367
   vertex -0.024498 0.129988 -0.024874
  endloop
 endfacet
 facet normal -0.629279 -0.640767 -0.439803
  outer loop
   vertex -0.024672 0.13187 -0.027367
   vertex -0.02263 0.129704 -0.027133
   vertex -0.024498 0.129988 -0.024874
  endloop
 endfacet
 facet normal -0.537986 -0.767602 -0.348366
  outer loop
   vertex -0.024498 0.129988 -0.024874
   vertex -0.02263 0.129704 -0.027133
   vertex -0.02215 0.128228 -0.024622
  endloop
 endfacet
 facet normal -0.420269 -0.815078 -0.398776
  outer loop
   vertex -0.02263 0.129704 -0.027133
   vertex -0.020554 0.128364 -0.026582
   vertex -0.02215 0.128228 -0.024622
  endloop
 endfacet
 facet normal 0.294416 -0.906493 0.302638
  outer loop
   vertex -0.016238 0.127316 -0.019598
   vertex -0.01343 0.128228 -0.019598
   vertex -0.015026 0.128364 -0.017638
  endloop
 endfacet
 facet normal 0.155824 -0.984657 0.07855
  outer loop
   vertex -0.01779 0.12687 -0.02211
   vertex -0.0147 0.127359 -0.02211
   vertex -0.016238 0.127316 -0.019598
  endloop
 endfacet
 facet normal -0.000555151 -0.98466 -0.174481
  outer loop
   vertex -0.019342 0.127316 -0.024622
   vertex -0.016408 0.127359 -0.024874
   vertex -0.01779 0.12687 -0.02211
  endloop
 endfacet
 facet normal 0.304389 -0.937197 0.170322
  outer loop
   vertex -0.016238 0.127316 -0.019598
   vertex -0.0147 0.127359 -0.02211
   vertex -0.01343 0.128228 -0.019598
  endloop
 endfacet
 facet normal 0.452705 -0.888208 0.0783901
  outer loop
   vertex -0.0147 0.127359 -0.02211
   vertex -0.011912 0.12878 -0.02211
   vertex -0.01343 0.128228 -0.019598
  endloop
 endfacet
 facet normal 0.155583 -0.983133 -0.0961419
  outer loop
   vertex -0.01779 0.12687 -0.02211
   vertex -0.016408 0.127359 -0.024874
   vertex -0.0147 0.127359 -0.02211
  endloop
 endfacet
 facet normal 0.303796 -0.934059 -0.187729
  outer loop
   vertex -0.016408 0.127359 -0.024874
   vertex -0.013318 0.128364 -0.024874
   vertex -0.0147 0.127359 -0.02211
  endloop
 endfacet
 facet normal 0.451986 -0.886796 -0.0964489
  outer loop
   vertex -0.0147 0.127359 -0.02211
   vertex -0.013318 0.128364 -0.024874
   vertex -0.011912 0.12878 -0.02211
  endloop
 endfacet
 facet normal 0.578874 -0.796508 -0.174584
  outer loop
   vertex -0.013318 0.128364 -0.024874
   vertex -0.010918 0.130053 -0.024622
   vertex -0.011912 0.12878 -0.02211
  endloop
 endfacet
 facet normal -0.0161962 -0.937175 -0.348485
  outer loop
   vertex -0.019342 0.127316 -0.024622
   vertex -0.018086 0.128228 -0.027133
   vertex -0.016408 0.127359 -0.024874
  endloop
 endfacet
 facet normal 0.132412 -0.888171 -0.440021
  outer loop
   vertex -0.018086 0.128228 -0.027133
   vertex -0.015161 0.12878 -0.027367
   vertex -0.016408 0.127359 -0.024874
  endloop
 endfacet
 facet normal 0.288415 -0.886769 -0.361189
  outer loop
   vertex -0.016408 0.127359 -0.024874
   vertex -0.015161 0.12878 -0.027367
   vertex -0.013318 0.128364 -0.024874
  endloop
 endfacet
 facet normal 0.415138 -0.796394 -0.439791
  outer loop
   vertex -0.015161 0.12878 -0.027367
   vertex -0.012471 0.130053 -0.027133
   vertex -0.013318 0.128364 -0.024874
  endloop
 endfacet
 facet normal 0.563623 -0.748876 -0.348589
  outer loop
   vertex -0.013318 0.128364 -0.024874
   vertex -0.012471 0.130053 -0.027133
   vertex -0.010918 0.130053 -0.024622
  endloop
 endfacet
 facet normal 0.645038 -0.651744 -0.398942
  outer loop
   vertex -0.012471 0.130053 -0.027133
   vertex -0.010554 0.131613 -0.026582
   vertex -0.010918 0.130053 -0.024622
  endloop
 endfacet
 facet normal 0.9532 -0 0.302341
  outer loop
   vertex -0.008224 0.135394 -0.019599
   vertex -0.008224 0.138346 -0.019599
   vertex -0.008846 0.13687 -0.017638
  endloop
 endfacet
 facet normal 0.984653 -0.155824 0.0785916
  outer loop
   vertex -0.008279 0.13378 -0.02211
   vertex -0.00779 0.13687 -0.02211
   vertex -0.008224 0.135394 -0.019599
  endloop
 endfacet
 facet normal 0.936352 -0.304548 -0.174631
  outer loop
   vertex -0.009183 0.132441 -0.024622
   vertex -0.008318 0.135245 -0.024874
   vertex -0.008279 0.13378 -0.02211
  endloop
 endfacet
 facet normal 0.98539 -0 0.170314
  outer loop
   vertex -0.008224 0.135394 -0.019599
   vertex -0.00779 0.13687 -0.02211
   vertex -0.008224 0.138346 -0.019599
  endloop
 endfacet
 facet normal 0.984653 0.155824 0.0785916
  outer loop
   vertex -0.00779 0.13687 -0.02211
   vertex -0.008279 0.13996 -0.02211
   vertex -0.008224 0.138346 -0.019599
  endloop
 endfacet
 facet normal 0.983115 -0.15558 -0.0963335
  outer loop
   vertex -0.008279 0.13378 -0.02211
   vertex -0.008318 0.135245 -0.024874
   vertex -0.00779 0.13687 -0.02211
  endloop
 endfacet
 facet normal 0.982239 0 -0.187634
  outer loop
   vertex -0.008318 0.135245 -0.024874
   vertex -0.008318 0.138495 -0.024874
   vertex -0.00779 0.13687 -0.02211
  endloop
 endfacet
 facet normal 0.983115 0.15558 -0.0963335
  outer loop
   vertex -0.00779 0.13687 -0.02211
   vertex -0.008318 0.138495 -0.024874
   vertex -0.008279 0.13996 -0.02211
  endloop
 endfacet
 facet normal 0.936352 0.304548 -0.174631
  outer loop
   vertex -0.008318 0.138495 -0.024874
   vertex -0.009183 0.141299 -0.024622
   vertex -0.008279 0.13996 -0.02211
  endloop
 endfacet
 facet normal 0.886309 -0.304753 -0.348685
  outer loop
   vertex -0.009183 0.132441 -0.024622
   vertex -0.009663 0.133918 -0.027133
   vertex -0.008318 0.135245 -0.024874
  endloop
 endfacet
 facet normal 0.885615 -0.148581 -0.440011
  outer loop
   vertex -0.009663 0.133918 -0.027133
   vertex -0.009284 0.13687 -0.027367
   vertex -0.008318 0.135245 -0.024874
  endloop
 endfacet
 facet normal 0.932446 0 -0.361309
  outer loop
   vertex -0.008318 0.135245 -0.024874
   vertex -0.009284 0.13687 -0.027367
   vertex -0.008318 0.138495 -0.024874
  endloop
 endfacet
 facet normal 0.885615 0.148581 -0.440011
  outer loop
   vertex -0.009284 0.13687 -0.027367
   vertex -0.009663 0.139822 -0.027133
   vertex -0.008318 0.138495 -0.024874
  endloop
 endfacet
 facet normal 0.886309 0.304753 -0.348685
  outer loop
   vertex -0.008318 0.138495 -0.024874
   vertex -0.009663 0.139822 -0.027133
   vertex -0.009183 0.141299 -0.024622
  endloop
 endfacet
 facet normal 0.819189 0.412026 -0.398954
  outer loop
   vertex -0.009663 0.139822 -0.027133
   vertex -0.010554 0.142127 -0.026582
   vertex -0.009183 0.141299 -0.024622
  endloop
 endfacet
 facet normal 0.61533 0.560308 -0.554459
  outer loop
   vertex -0.011695 0.141299 -0.028685
   vertex -0.012471 0.143687 -0.027133
   vertex -0.010554 0.142127 -0.026582
  endloop
 endfacet
 facet normal 0.467426 0.452641 -0.759361
  outer loop
   vertex -0.013537 0.13996 -0.030617
   vertex -0.014172 0.142748 -0.029346
   vertex -0.011695 0.141299 -0.028685
  endloop
 endfacet
 facet normal 0.262485 0.303841 -0.915851
  outer loop
   vertex -0.015758 0.138346 -0.031789
   vertex -0.016408 0.141123 -0.031054
   vertex -0.013537 0.13996 -0.030617
  endloop
 endfacet
 facet normal 0.508799 0.579247 -0.636864
  outer loop
   vertex -0.011695 0.141299 -0.028685
   vertex -0.014172 0.142748 -0.029346
   vertex -0.012471 0.143687 -0.027133
  endloop
 endfacet
 facet normal 0.38541 0.704977 -0.595371
  outer loop
   vertex -0.014172 0.142748 -0.029346
   vertex -0.015161 0.14496 -0.027367
   vertex -0.012471 0.143687 -0.027133
  endloop
 endfacet
 facet normal 0.310374 0.451949 -0.836307
  outer loop
   vertex -0.013537 0.13996 -0.030617
   vertex -0.016408 0.141123 -0.031054
   vertex -0.014172 0.142748 -0.029346
  endloop
 endfacet
 facet normal 0.187559 0.577248 -0.794737
  outer loop
   vertex -0.016408 0.141123 -0.031054
   vertex -0.017262 0.143752 -0.029346
   vertex -0.014172 0.142748 -0.029346
  endloop
 endfacet
 facet normal 0.228709 0.703897 -0.672474
  outer loop
   vertex -0.014172 0.142748 -0.029346
   vertex -0.017262 0.143752 -0.029346
   vertex -0.015161 0.14496 -0.027367
  endloop
 endfacet
 facet normal 0.102735 0.796801 -0.595444
  outer loop
   vertex -0.017262 0.143752 -0.029346
   vertex -0.018086 0.145512 -0.027133
   vertex -0.015161 0.14496 -0.027367
  endloop
 endfacet
 facet normal 0.0891868 0.274301 -0.957499
  outer loop
   vertex -0.015758 0.138346 -0.031789
   vertex -0.018566 0.139259 -0.031789
   vertex -0.016408 0.141123 -0.031054
  endloop
 endfacet
 facet normal -0.0336945 0.400135 -0.915836
  outer loop
   vertex -0.018566 0.139259 -0.031789
   vertex -0.019415 0.14187 -0.030617
   vertex -0.016408 0.141123 -0.031054
  endloop
 endfacet
 facet normal 0.0146149 0.548074 -0.836302
  outer loop
   vertex -0.016408 0.141123 -0.031054
   vertex -0.019415 0.14187 -0.030617
   vertex -0.017262 0.143752 -0.029346
  endloop
 endfacet
 facet normal -0.112009 0.640965 -0.759354
  outer loop
   vertex -0.019415 0.14187 -0.030617
   vertex -0.020118 0.144036 -0.028685
   vertex -0.017262 0.143752 -0.029346
  endloop
 endfacet
 facet normal -0.0710868 0.767617 -0.636955
  outer loop
   vertex -0.017262 0.143752 -0.029346
   vertex -0.020118 0.144036 -0.028685
   vertex -0.018086 0.145512 -0.027133
  endloop
 endfacet
 facet normal -0.168666 0.815046 -0.554303
  outer loop
   vertex -0.020118 0.144036 -0.028685
   vertex -0.020554 0.145376 -0.026582
   vertex -0.018086 0.145512 -0.027133
  endloop
 endfacet
 facet normal -0.342493 0.758552 -0.554344
  outer loop
   vertex -0.020118 0.144036 -0.028685
   vertex -0.02263 0.144036 -0.027133
   vertex -0.020554 0.145376 -0.026582
  endloop
 endfacet
 facet normal -0.286233 0.584386 -0.759318
  outer loop
   vertex -0.019415 0.14187 -0.030617
   vertex -0.022262 0.142127 -0.029346
   vertex -0.020118 0.144036 -0.028685
  endloop
 endfacet
 facet normal -0.207851 0.343516 -0.915858
  outer loop
   vertex -0.018566 0.139259 -0.031789
   vertex -0.021408 0.139499 -0.031054
   vertex -0.019415 0.14187 -0.030617
  endloop
 endfacet
 facet normal -0.393627 0.662685 -0.637108
  outer loop
   vertex -0.020118 0.144036 -0.028685
   vertex -0.022262 0.142127 -0.029346
   vertex -0.02263 0.144036 -0.027133
  endloop
 endfacet
 facet normal -0.551379 0.584158 -0.595601
  outer loop
   vertex -0.022262 0.142127 -0.029346
   vertex -0.024672 0.14187 -0.027367
   vertex -0.02263 0.144036 -0.027133
  endloop
 endfacet
 facet normal -0.334054 0.43492 -0.836213
  outer loop
   vertex -0.019415 0.14187 -0.030617
   vertex -0.021408 0.139499 -0.031054
   vertex -0.022262 0.142127 -0.029346
  endloop
 endfacet
 facet normal -0.491058 0.356895 -0.794662
  outer loop
   vertex -0.021408 0.139499 -0.031054
   vertex -0.024172 0.139499 -0.029346
   vertex -0.022262 0.142127 -0.029346
  endloop
 endfacet
 facet normal -0.598657 0.435097 -0.672533
  outer loop
   vertex -0.022262 0.142127 -0.029346
   vertex -0.024172 0.139499 -0.029346
   vertex -0.024672 0.14187 -0.027367
  endloop
 endfacet
 facet normal -0.725985 0.343961 -0.595514
  outer loop
   vertex -0.024172 0.139499 -0.029346
   vertex -0.026101 0.139259 -0.027133
   vertex -0.024672 0.14187 -0.027367
  endloop
 endfacet
 facet normal -0.233325 0.169451 -0.957521
  outer loop
   vertex -0.018566 0.139259 -0.031789
   vertex -0.020301 0.13687 -0.031789
   vertex -0.021408 0.139499 -0.031054
  endloop
 endfacet
 facet normal -0.390899 0.0914587 -0.915878
  outer loop
   vertex -0.020301 0.13687 -0.031789
   vertex -0.023047 0.13687 -0.030617
   vertex -0.021408 0.139499 -0.031054
  endloop
 endfacet
 facet normal -0.516783 0.183167 -0.836293
  outer loop
   vertex -0.021408 0.139499 -0.031054
   vertex -0.023047 0.13687 -0.030617
   vertex -0.024172 0.139499 -0.029346
  endloop
 endfacet
 facet normal -0.644269 0.0913996 -0.759317
  outer loop
   vertex -0.023047 0.13687 -0.030617
   vertex -0.025324 0.13687 -0.028685
   vertex -0.024172 0.139499 -0.029346
  endloop
 endfacet
 facet normal -0.751958 0.169318 -0.637095
  outer loop
   vertex -0.024172 0.139499 -0.029346
   vertex -0.025324 0.13687 -0.028685
   vertex -0.026101 0.139259 -0.027133
  endloop
 endfacet
 facet normal -0.827124 0.091254 -0.554562
  outer loop
   vertex -0.025324 0.13687 -0.028685
   vertex -0.026734 0.13687 -0.026582
   vertex -0.026101 0.139259 -0.027133
  endloop
 endfacet
 facet normal -0.827124 -0.091254 -0.554562
  outer loop
   vertex -0.025324 0.13687 -0.028685
   vertex -0.026101 0.134481 -0.027133
   vertex -0.026734 0.13687 -0.026582
  endloop
 endfacet
 facet normal -0.644269 -0.0913996 -0.759317
  outer loop
   vertex -0.023047 0.13687 -0.030617
   vertex -0.024172 0.134241 -0.029346
   vertex -0.025324 0.13687 -0.028685
  endloop
 endfacet
 facet normal -0.390899 -0.0914587 -0.915878
  outer loop
   vertex -0.020301 0.13687 -0.031789
   vertex -0.021408 0.134241 -0.031054
   vertex -0.023047 0.13687 -0.030617
  endloop
 endfacet
 facet normal -0.751958 -0.169318 -0.637095
  outer loop
   vertex -0.025324 0.13687 -0.028685
   vertex -0.024172 0.134241 -0.029346
   vertex -0.026101 0.134481 -0.027133
  endloop
 endfacet
 facet normal -0.725985 -0.343961 -0.595514
  outer loop
   vertex -0.024172 0.134241 -0.029346
   vertex -0.024672 0.13187 -0.027367
   vertex -0.026101 0.134481 -0.027133
  endloop
 endfacet
 facet normal -0.516783 -0.183167 -0.836293
  outer loop
   vertex -0.023047 0.13687 -0.030617
   vertex -0.021408 0.134241 -0.031054
   vertex -0.024172 0.134241 -0.029346
  endloop
 endfacet
 facet normal -0.491058 -0.356895 -0.794662
  outer loop
   vertex -0.021408 0.134241 -0.031054
   vertex -0.022262 0.131613 -0.029346
   vertex -0.024172 0.134241 -0.029346
  endloop
 endfacet
 facet normal -0.598657 -0.435097 -0.672533
  outer loop
   vertex -0.024172 0.134241 -0.029346
   vertex -0.022262 0.131613 -0.029346
   vertex -0.024672 0.13187 -0.027367
  endloop
 endfacet
 facet normal -0.551379 -0.584158 -0.595601
  outer loop
   vertex -0.022262 0.131613 -0.029346
   vertex -0.02263 0.129704 -0.027133
   vertex -0.024672 0.13187 -0.027367
  endloop
 endfacet
 facet normal -0.233325 -0.169451 -0.957521
  outer loop
   vertex -0.020301 0.13687 -0.031789
   vertex -0.018566 0.134481 -0.031789
   vertex -0.021408 0.134241 -0.031054
  endloop
 endfacet
 facet normal -0.207851 -0.343516 -0.915858
  outer loop
   vertex -0.018566 0.134481 -0.031789
   vertex -0.019415 0.13187 -0.030617
   vertex -0.021408 0.134241 -0.031054
  endloop
 endfacet
 facet normal -0.334054 -0.43492 -0.836213
  outer loop
   vertex -0.021408 0.134241 -0.031054
   vertex -0.019415 0.13187 -0.030617
   vertex -0.022262 0.131613 -0.029346
  endloop
 endfacet
 facet normal -0.286233 -0.584386 -0.759318
  outer loop
   vertex -0.019415 0.13187 -0.030617
   vertex -0.020118 0.129704 -0.028685
   vertex -0.022262 0.131613 -0.029346
  endloop
 endfacet
 facet normal -0.393627 -0.662685 -0.637108
  outer loop
   vertex -0.022262 0.131613 -0.029346
   vertex -0.020118 0.129704 -0.028685
   vertex -0.02263 0.129704 -0.027133
  endloop
 endfacet
 facet normal -0.342493 -0.758552 -0.554344
  outer loop
   vertex -0.020118 0.129704 -0.028685
   vertex -0.020554 0.128364 -0.026582
   vertex -0.02263 0.129704 -0.027133
  endloop
 endfacet
 facet normal 0.723015 0.412034 -0.554506
  outer loop
   vertex -0.009663 0.139822 -0.027133
   vertex -0.011695 0.141299 -0.028685
   vertex -0.010554 0.142127 -0.026582
  endloop
 endfacet
 facet normal 0.789589 0.148568 -0.59538
  outer loop
   vertex -0.009284 0.13687 -0.027367
   vertex -0.011082 0.138495 -0.029346
   vertex -0.009663 0.139822 -0.027133
  endloop
 endfacet
 facet normal 0.789589 -0.148568 -0.59538
  outer loop
   vertex -0.009663 0.133918 -0.027133
   vertex -0.011082 0.135245 -0.029346
   vertex -0.009284 0.13687 -0.027367
  endloop
 endfacet
 facet normal 0.708089 0.304936 -0.636886
  outer loop
   vertex -0.009663 0.139822 -0.027133
   vertex -0.011082 0.138495 -0.029346
   vertex -0.011695 0.141299 -0.028685
  endloop
 endfacet
 facet normal 0.574948 0.304695 -0.759339
  outer loop
   vertex -0.011082 0.138495 -0.029346
   vertex -0.013537 0.13996 -0.030617
   vertex -0.011695 0.141299 -0.028685
  endloop
 endfacet
 facet normal 0.740143 0 -0.672449
  outer loop
   vertex -0.009284 0.13687 -0.027367
   vertex -0.011082 0.135245 -0.029346
   vertex -0.011082 0.138495 -0.029346
  endloop
 endfacet
 facet normal 0.607028 0 -0.794681
  outer loop
   vertex -0.011082 0.135245 -0.029346
   vertex -0.013318 0.13687 -0.031054
   vertex -0.011082 0.138495 -0.029346
  endloop
 endfacet
 facet normal 0.525774 0.155534 -0.836284
  outer loop
   vertex -0.011082 0.138495 -0.029346
   vertex -0.013318 0.13687 -0.031054
   vertex -0.013537 0.13996 -0.030617
  endloop
 endfacet
 facet normal 0.370096 0.155752 -0.915844
  outer loop
   vertex -0.013318 0.13687 -0.031054
   vertex -0.015758 0.138346 -0.031789
   vertex -0.013537 0.13996 -0.030617
  endloop
 endfacet
 facet normal 0.708089 -0.304936 -0.636886
  outer loop
   vertex -0.009663 0.133918 -0.027133
   vertex -0.011695 0.132441 -0.028685
   vertex -0.011082 0.135245 -0.029346
  endloop
 endfacet
 facet normal 0.574948 -0.304695 -0.759339
  outer loop
   vertex -0.011695 0.132441 -0.028685
   vertex -0.013537 0.13378 -0.030617
   vertex -0.011082 0.135245 -0.029346
  endloop
 endfacet
 facet normal 0.525774 -0.155534 -0.836284
  outer loop
   vertex -0.011082 0.135245 -0.029346
   vertex -0.013537 0.13378 -0.030617
   vertex -0.013318 0.13687 -0.031054
  endloop
 endfacet
 facet normal 0.370096 -0.155752 -0.915844
  outer loop
   vertex -0.013537 0.13378 -0.030617
   vertex -0.015758 0.135394 -0.031789
   vertex -0.013318 0.13687 -0.031054
  endloop
 endfacet
 facet normal 0.288428 0 -0.957502
  outer loop
   vertex -0.013318 0.13687 -0.031054
   vertex -0.015758 0.135394 -0.031789
   vertex -0.015758 0.138346 -0.031789
  endloop
 endfacet
 facet normal 0.156037 0 -0.987751
  outer loop
   vertex -0.015758 0.135394 -0.031789
   vertex -0.01779 0.13687 -0.03211
   vertex -0.015758 0.138346 -0.031789
  endloop
 endfacet
 facet normal -0.168666 -0.815046 -0.554303
  outer loop
   vertex -0.020118 0.129704 -0.028685
   vertex -0.018086 0.128228 -0.027133
   vertex -0.020554 0.128364 -0.026582
  endloop
 endfacet
 facet normal -0.112009 -0.640965 -0.759354
  outer loop
   vertex -0.019415 0.13187 -0.030617
   vertex -0.017262 0.129988 -0.029346
   vertex -0.020118 0.129704 -0.028685
  endloop
 endfacet
 facet normal -0.0336945 -0.400135 -0.915836
  outer loop
   vertex -0.018566 0.134481 -0.031789
   vertex -0.016408 0.132617 -0.031054
   vertex -0.019415 0.13187 -0.030617
  endloop
 endfacet
 facet normal -0.0710868 -0.767617 -0.636955
  outer loop
   vertex -0.020118 0.129704 -0.028685
   vertex -0.017262 0.129988 -0.029346
   vertex -0.018086 0.128228 -0.027133
  endloop
 endfacet
 facet normal 0.102735 -0.796801 -0.595444
  outer loop
   vertex -0.017262 0.129988 -0.029346
   vertex -0.015161 0.12878 -0.027367
   vertex -0.018086 0.128228 -0.027133
  endloop
 endfacet
 facet normal 0.0146149 -0.548074 -0.836302
  outer loop
   vertex -0.019415 0.13187 -0.030617
   vertex -0.016408 0.132617 -0.031054
   vertex -0.017262 0.129988 -0.029346
  endloop
 endfacet
 facet normal 0.187559 -0.577248 -0.794737
  outer loop
   vertex -0.016408 0.132617 -0.031054
   vertex -0.014172 0.130992 -0.029346
   vertex -0.017262 0.129988 -0.029346
  endloop
 endfacet
 facet normal 0.228709 -0.703897 -0.672474
  outer loop
   vertex -0.017262 0.129988 -0.029346
   vertex -0.014172 0.130992 -0.029346
   vertex -0.015161 0.12878 -0.027367
  endloop
 endfacet
 facet normal 0.38541 -0.704977 -0.595371
  outer loop
   vertex -0.014172 0.130992 -0.029346
   vertex -0.012471 0.130053 -0.027133
   vertex -0.015161 0.12878 -0.027367
  endloop
 endfacet
 facet normal 0.0891868 -0.274301 -0.957499
  outer loop
   vertex -0.018566 0.134481 -0.031789
   vertex -0.015758 0.135394 -0.031789
   vertex -0.016408 0.132617 -0.031054
  endloop
 endfacet
 facet normal 0.262485 -0.303841 -0.915851
  outer loop
   vertex -0.015758 0.135394 -0.031789
   vertex -0.013537 0.13378 -0.030617
   vertex -0.016408 0.132617 -0.031054
  endloop
 endfacet
 facet normal 0.310374 -0.451949 -0.836307
  outer loop
   vertex -0.016408 0.132617 -0.031054
   vertex -0.013537 0.13378 -0.030617
   vertex -0.014172 0.130992 -0.029346
  endloop
 endfacet
 facet normal 0.467426 -0.452641 -0.759361
  outer loop
   vertex -0.013537 0.13378 -0.030617
   vertex -0.011695 0.132441 -0.028685
   vertex -0.014172 0.130992 -0.029346
  endloop
 endfacet
 facet normal 0.508799 -0.579247 -0.636864
  outer loop
   vertex -0.014172 0.130992 -0.029346
   vertex -0.011695 0.132441 -0.028685
   vertex -0.012471 0.130053 -0.027133
  endloop
 endfacet
 facet normal 0.61533 -0.560308 -0.554459
  outer loop
   vertex -0.011695 0.132441 -0.028685
   vertex -0.010554 0.131613 -0.026582
   vertex -0.012471 0.130053 -0.027133
  endloop
 endfacet
endsolid ExportedfromBlender-3.5.1
