solid ExportedfromBlender-3.5.1
 facet normal 0.0482486 -0.148392 -0.987751
  outer loop
   vertex -0.01586 0.33442 -0.03144
   vertex -0.013828 0.332944 -0.031119
   vertex -0.016636 0.332031 -0.031119
  endloop
 endfacet
 facet normal 0.723015 -0.412034 -0.554506
  outer loop
   vertex -0.008624 0.329163 -0.025912
   vertex -0.009765 0.329991 -0.028015
   vertex -0.007733 0.331468 -0.026463
  endloop
 endfacet
 facet normal -0.126271 -0.0917039 -0.987748
  outer loop
   vertex -0.01586 0.33442 -0.03144
   vertex -0.016636 0.332031 -0.031119
   vertex -0.018371 0.33442 -0.031119
  endloop
 endfacet
 facet normal -0.126271 0.0917039 -0.987748
  outer loop
   vertex -0.01586 0.33442 -0.03144
   vertex -0.018371 0.33442 -0.031119
   vertex -0.016636 0.336809 -0.031119
  endloop
 endfacet
 facet normal 0.0482486 0.148392 -0.987751
  outer loop
   vertex -0.01586 0.33442 -0.03144
   vertex -0.016636 0.336809 -0.031119
   vertex -0.013828 0.335896 -0.031119
  endloop
 endfacet
 facet normal 0.819189 -0.412026 -0.398954
  outer loop
   vertex -0.008624 0.329163 -0.025912
   vertex -0.007733 0.331468 -0.026463
   vertex -0.007253 0.329991 -0.023952
  endloop
 endfacet
 facet normal -0.138975 -0.90647 -0.398746
  outer loop
   vertex -0.018624 0.325914 -0.025912
   vertex -0.016156 0.325778 -0.026463
   vertex -0.017412 0.324866 -0.023952
  endloop
 endfacet
 facet normal -0.905177 -0.147939 -0.398459
  outer loop
   vertex -0.024804 0.33442 -0.025912
   vertex -0.024171 0.332031 -0.026463
   vertex -0.025426 0.332944 -0.023951
  endloop
 endfacet
 facet normal -0.420269 0.815078 -0.398776
  outer loop
   vertex -0.018624 0.342926 -0.025912
   vertex -0.0207 0.341586 -0.026463
   vertex -0.02022 0.343062 -0.023952
  endloop
 endfacet
 facet normal 0.645038 0.651744 -0.398942
  outer loop
   vertex -0.008624 0.339677 -0.025912
   vertex -0.010541 0.341237 -0.026463
   vertex -0.008988 0.341237 -0.023952
  endloop
 endfacet
 facet normal 0.771063 -0.560215 -0.302688
  outer loop
   vertex -0.008624 0.329163 -0.025912
   vertex -0.007253 0.329991 -0.023952
   vertex -0.008988 0.327603 -0.023952
  endloop
 endfacet
 facet normal -0.294416 -0.906493 -0.302638
  outer loop
   vertex -0.018624 0.325914 -0.025912
   vertex -0.017412 0.324866 -0.023952
   vertex -0.02022 0.325778 -0.023952
  endloop
 endfacet
 facet normal -0.9532 0 -0.302341
  outer loop
   vertex -0.024804 0.33442 -0.025912
   vertex -0.025426 0.332944 -0.023951
   vertex -0.025426 0.335896 -0.023951
  endloop
 endfacet
 facet normal -0.294416 0.906493 -0.302638
  outer loop
   vertex -0.018624 0.342926 -0.025912
   vertex -0.02022 0.343062 -0.023952
   vertex -0.017412 0.343974 -0.023952
  endloop
 endfacet
 facet normal 0.771063 0.560215 -0.302688
  outer loop
   vertex -0.008624 0.339677 -0.025912
   vertex -0.008988 0.341237 -0.023952
   vertex -0.007253 0.338849 -0.023952
  endloop
 endfacet
 facet normal 0.342493 -0.758552 0.554344
  outer loop
   vertex -0.013096 0.325914 -0.016968
   vertex -0.01102 0.327254 -0.016417
   vertex -0.013532 0.327254 -0.014865
  endloop
 endfacet
 facet normal -0.61533 -0.560308 0.554459
  outer loop
   vertex -0.023096 0.329163 -0.016968
   vertex -0.021179 0.327603 -0.016417
   vertex -0.021955 0.329991 -0.014865
  endloop
 endfacet
 facet normal -0.723015 0.412034 0.554506
  outer loop
   vertex -0.023096 0.339677 -0.016968
   vertex -0.023987 0.337372 -0.016417
   vertex -0.021955 0.338849 -0.014865
  endloop
 endfacet
 facet normal 0.168666 0.815046 0.554303
  outer loop
   vertex -0.013096 0.342926 -0.016968
   vertex -0.015564 0.343062 -0.016417
   vertex -0.013532 0.341586 -0.014865
  endloop
 endfacet
 facet normal 0.827124 0.091254 0.554562
  outer loop
   vertex -0.006916 0.33442 -0.016968
   vertex -0.007549 0.336809 -0.016417
   vertex -0.008326 0.33442 -0.014865
  endloop
 endfacet
 facet normal 0.126271 0.0917039 0.987748
  outer loop
   vertex -0.013349 0.33442 -0.011761
   vertex -0.015084 0.336809 -0.011761
   vertex -0.01586 0.33442 -0.01144
  endloop
 endfacet
 facet normal 0.390899 0.0914587 0.915878
  outer loop
   vertex -0.010603 0.33442 -0.012933
   vertex -0.012242 0.337049 -0.012496
   vertex -0.013349 0.33442 -0.011761
  endloop
 endfacet
 facet normal 0.644269 0.0913996 0.759317
  outer loop
   vertex -0.008326 0.33442 -0.014865
   vertex -0.009478 0.337049 -0.014204
   vertex -0.010603 0.33442 -0.012933
  endloop
 endfacet
 facet normal 0.233325 0.169451 0.957521
  outer loop
   vertex -0.013349 0.33442 -0.011761
   vertex -0.012242 0.337049 -0.012496
   vertex -0.015084 0.336809 -0.011761
  endloop
 endfacet
 facet normal 0.207851 0.343516 0.915858
  outer loop
   vertex -0.012242 0.337049 -0.012496
   vertex -0.014235 0.33942 -0.012933
   vertex -0.015084 0.336809 -0.011761
  endloop
 endfacet
 facet normal 0.516783 0.183167 0.836293
  outer loop
   vertex -0.010603 0.33442 -0.012933
   vertex -0.009478 0.337049 -0.014204
   vertex -0.012242 0.337049 -0.012496
  endloop
 endfacet
 facet normal 0.491058 0.356895 0.794662
  outer loop
   vertex -0.009478 0.337049 -0.014204
   vertex -0.011388 0.339677 -0.014204
   vertex -0.012242 0.337049 -0.012496
  endloop
 endfacet
 facet normal 0.334054 0.43492 0.836213
  outer loop
   vertex -0.012242 0.337049 -0.012496
   vertex -0.011388 0.339677 -0.014204
   vertex -0.014235 0.33942 -0.012933
  endloop
 endfacet
 facet normal 0.286233 0.584386 0.759318
  outer loop
   vertex -0.011388 0.339677 -0.014204
   vertex -0.013532 0.341586 -0.014865
   vertex -0.014235 0.33942 -0.012933
  endloop
 endfacet
 facet normal 0.751958 0.169318 0.637095
  outer loop
   vertex -0.008326 0.33442 -0.014865
   vertex -0.007549 0.336809 -0.016417
   vertex -0.009478 0.337049 -0.014204
  endloop
 endfacet
 facet normal 0.725985 0.343961 0.595514
  outer loop
   vertex -0.007549 0.336809 -0.016417
   vertex -0.008978 0.33942 -0.016183
   vertex -0.009478 0.337049 -0.014204
  endloop
 endfacet
 facet normal 0.598657 0.435097 0.672533
  outer loop
   vertex -0.009478 0.337049 -0.014204
   vertex -0.008978 0.33942 -0.016183
   vertex -0.011388 0.339677 -0.014204
  endloop
 endfacet
 facet normal 0.551379 0.584158 0.595601
  outer loop
   vertex -0.008978 0.33942 -0.016183
   vertex -0.01102 0.341586 -0.016417
   vertex -0.011388 0.339677 -0.014204
  endloop
 endfacet
 facet normal 0.393627 0.662685 0.637108
  outer loop
   vertex -0.011388 0.339677 -0.014204
   vertex -0.01102 0.341586 -0.016417
   vertex -0.013532 0.341586 -0.014865
  endloop
 endfacet
 facet normal 0.342493 0.758552 0.554344
  outer loop
   vertex -0.01102 0.341586 -0.016417
   vertex -0.013096 0.342926 -0.016968
   vertex -0.013532 0.341586 -0.014865
  endloop
 endfacet
 facet normal -0.0482486 0.148392 0.987751
  outer loop
   vertex -0.015084 0.336809 -0.011761
   vertex -0.017892 0.335896 -0.011761
   vertex -0.01586 0.33442 -0.01144
  endloop
 endfacet
 facet normal 0.0336945 0.400135 0.915836
  outer loop
   vertex -0.014235 0.33942 -0.012933
   vertex -0.017242 0.338673 -0.012496
   vertex -0.015084 0.336809 -0.011761
  endloop
 endfacet
 facet normal 0.112009 0.640965 0.759354
  outer loop
   vertex -0.013532 0.341586 -0.014865
   vertex -0.016388 0.341302 -0.014204
   vertex -0.014235 0.33942 -0.012933
  endloop
 endfacet
 facet normal -0.0891868 0.274301 0.957499
  outer loop
   vertex -0.015084 0.336809 -0.011761
   vertex -0.017242 0.338673 -0.012496
   vertex -0.017892 0.335896 -0.011761
  endloop
 endfacet
 facet normal -0.262485 0.303841 0.915851
  outer loop
   vertex -0.017242 0.338673 -0.012496
   vertex -0.020113 0.33751 -0.012933
   vertex -0.017892 0.335896 -0.011761
  endloop
 endfacet
 facet normal -0.0146149 0.548074 0.836302
  outer loop
   vertex -0.014235 0.33942 -0.012933
   vertex -0.016388 0.341302 -0.014204
   vertex -0.017242 0.338673 -0.012496
  endloop
 endfacet
 facet normal -0.187559 0.577248 0.794737
  outer loop
   vertex -0.016388 0.341302 -0.014204
   vertex -0.019478 0.340298 -0.014204
   vertex -0.017242 0.338673 -0.012496
  endloop
 endfacet
 facet normal -0.310374 0.451949 0.836307
  outer loop
   vertex -0.017242 0.338673 -0.012496
   vertex -0.019478 0.340298 -0.014204
   vertex -0.020113 0.33751 -0.012933
  endloop
 endfacet
 facet normal -0.467426 0.452641 0.759361
  outer loop
   vertex -0.019478 0.340298 -0.014204
   vertex -0.021955 0.338849 -0.014865
   vertex -0.020113 0.33751 -0.012933
  endloop
 endfacet
 facet normal 0.0710868 0.767617 0.636955
  outer loop
   vertex -0.013532 0.341586 -0.014865
   vertex -0.015564 0.343062 -0.016417
   vertex -0.016388 0.341302 -0.014204
  endloop
 endfacet
 facet normal -0.102735 0.796801 0.595444
  outer loop
   vertex -0.015564 0.343062 -0.016417
   vertex -0.018489 0.34251 -0.016183
   vertex -0.016388 0.341302 -0.014204
  endloop
 endfacet
 facet normal -0.228709 0.703897 0.672474
  outer loop
   vertex -0.016388 0.341302 -0.014204
   vertex -0.018489 0.34251 -0.016183
   vertex -0.019478 0.340298 -0.014204
  endloop
 endfacet
 facet normal -0.38541 0.704977 0.595371
  outer loop
   vertex -0.018489 0.34251 -0.016183
   vertex -0.021179 0.341237 -0.016417
   vertex -0.019478 0.340298 -0.014204
  endloop
 endfacet
 facet normal -0.508799 0.579247 0.636864
  outer loop
   vertex -0.019478 0.340298 -0.014204
   vertex -0.021179 0.341237 -0.016417
   vertex -0.021955 0.338849 -0.014865
  endloop
 endfacet
 facet normal -0.61533 0.560308 0.554459
  outer loop
   vertex -0.021179 0.341237 -0.016417
   vertex -0.023096 0.339677 -0.016968
   vertex -0.021955 0.338849 -0.014865
  endloop
 endfacet
 facet normal -0.156037 0 0.987751
  outer loop
   vertex -0.017892 0.335896 -0.011761
   vertex -0.017892 0.332944 -0.011761
   vertex -0.01586 0.33442 -0.01144
  endloop
 endfacet
 facet normal -0.370096 0.155752 0.915844
  outer loop
   vertex -0.020113 0.33751 -0.012933
   vertex -0.020332 0.33442 -0.012496
   vertex -0.017892 0.335896 -0.011761
  endloop
 endfacet
 facet normal -0.574948 0.304695 0.759339
  outer loop
   vertex -0.021955 0.338849 -0.014865
   vertex -0.022568 0.336045 -0.014204
   vertex -0.020113 0.33751 -0.012933
  endloop
 endfacet
 facet normal -0.288428 0 0.957502
  outer loop
   vertex -0.017892 0.335896 -0.011761
   vertex -0.020332 0.33442 -0.012496
   vertex -0.017892 0.332944 -0.011761
  endloop
 endfacet
 facet normal -0.370096 -0.155752 0.915844
  outer loop
   vertex -0.020332 0.33442 -0.012496
   vertex -0.020113 0.33133 -0.012933
   vertex -0.017892 0.332944 -0.011761
  endloop
 endfacet
 facet normal -0.525774 0.155534 0.836284
  outer loop
   vertex -0.020113 0.33751 -0.012933
   vertex -0.022568 0.336045 -0.014204
   vertex -0.020332 0.33442 -0.012496
  endloop
 endfacet
 facet normal -0.607028 0 0.794681
  outer loop
   vertex -0.022568 0.336045 -0.014204
   vertex -0.022568 0.332795 -0.014204
   vertex -0.020332 0.33442 -0.012496
  endloop
 endfacet
 facet normal -0.525774 -0.155534 0.836284
  outer loop
   vertex -0.020332 0.33442 -0.012496
   vertex -0.022568 0.332795 -0.014204
   vertex -0.020113 0.33133 -0.012933
  endloop
 endfacet
 facet normal -0.574948 -0.304695 0.759339
  outer loop
   vertex -0.022568 0.332795 -0.014204
   vertex -0.021955 0.329991 -0.014865
   vertex -0.020113 0.33133 -0.012933
  endloop
 endfacet
 facet normal -0.708089 0.304936 0.636886
  outer loop
   vertex -0.021955 0.338849 -0.014865
   vertex -0.023987 0.337372 -0.016417
   vertex -0.022568 0.336045 -0.014204
  endloop
 endfacet
 facet normal -0.789589 0.148568 0.59538
  outer loop
   vertex -0.023987 0.337372 -0.016417
   vertex -0.024366 0.33442 -0.016183
   vertex -0.022568 0.336045 -0.014204
  endloop
 endfacet
 facet normal -0.740143 0 0.672449
  outer loop
   vertex -0.022568 0.336045 -0.014204
   vertex -0.024366 0.33442 -0.016183
   vertex -0.022568 0.332795 -0.014204
  endloop
 endfacet
 facet normal -0.789589 -0.148568 0.59538
  outer loop
   vertex -0.024366 0.33442 -0.016183
   vertex -0.023987 0.331468 -0.016417
   vertex -0.022568 0.332795 -0.014204
  endloop
 endfacet
 facet normal -0.708089 -0.304936 0.636886
  outer loop
   vertex -0.022568 0.332795 -0.014204
   vertex -0.023987 0.331468 -0.016417
   vertex -0.021955 0.329991 -0.014865
  endloop
 endfacet
 facet normal -0.723015 -0.412034 0.554506
  outer loop
   vertex -0.023987 0.331468 -0.016417
   vertex -0.023096 0.329163 -0.016968
   vertex -0.021955 0.329991 -0.014865
  endloop
 endfacet
 facet normal -0.0482486 -0.148392 0.987751
  outer loop
   vertex -0.017892 0.332944 -0.011761
   vertex -0.015084 0.332031 -0.011761
   vertex -0.01586 0.33442 -0.01144
  endloop
 endfacet
 facet normal -0.262485 -0.303841 0.915851
  outer loop
   vertex -0.020113 0.33133 -0.012933
   vertex -0.017242 0.330167 -0.012496
   vertex -0.017892 0.332944 -0.011761
  endloop
 endfacet
 facet normal -0.467426 -0.452641 0.759361
  outer loop
   vertex -0.021955 0.329991 -0.014865
   vertex -0.019478 0.328542 -0.014204
   vertex -0.020113 0.33133 -0.012933
  endloop
 endfacet
 facet normal -0.0891868 -0.274301 0.957499
  outer loop
   vertex -0.017892 0.332944 -0.011761
   vertex -0.017242 0.330167 -0.012496
   vertex -0.015084 0.332031 -0.011761
  endloop
 endfacet
 facet normal 0.0336945 -0.400135 0.915836
  outer loop
   vertex -0.017242 0.330167 -0.012496
   vertex -0.014235 0.32942 -0.012933
   vertex -0.015084 0.332031 -0.011761
  endloop
 endfacet
 facet normal -0.310374 -0.451949 0.836307
  outer loop
   vertex -0.020113 0.33133 -0.012933
   vertex -0.019478 0.328542 -0.014204
   vertex -0.017242 0.330167 -0.012496
  endloop
 endfacet
 facet normal -0.187559 -0.577248 0.794737
  outer loop
   vertex -0.019478 0.328542 -0.014204
   vertex -0.016388 0.327538 -0.014204
   vertex -0.017242 0.330167 -0.012496
  endloop
 endfacet
 facet normal -0.0146149 -0.548074 0.836302
  outer loop
   vertex -0.017242 0.330167 -0.012496
   vertex -0.016388 0.327538 -0.014204
   vertex -0.014235 0.32942 -0.012933
  endloop
 endfacet
 facet normal 0.112009 -0.640965 0.759354
  outer loop
   vertex -0.016388 0.327538 -0.014204
   vertex -0.013532 0.327254 -0.014865
   vertex -0.014235 0.32942 -0.012933
  endloop
 endfacet
 facet normal -0.508799 -0.579247 0.636864
  outer loop
   vertex -0.021955 0.329991 -0.014865
   vertex -0.021179 0.327603 -0.016417
   vertex -0.019478 0.328542 -0.014204
  endloop
 endfacet
 facet normal -0.38541 -0.704977 0.595371
  outer loop
   vertex -0.021179 0.327603 -0.016417
   vertex -0.018489 0.32633 -0.016183
   vertex -0.019478 0.328542 -0.014204
  endloop
 endfacet
 facet normal -0.228709 -0.703897 0.672474
  outer loop
   vertex -0.019478 0.328542 -0.014204
   vertex -0.018489 0.32633 -0.016183
   vertex -0.016388 0.327538 -0.014204
  endloop
 endfacet
 facet normal -0.102735 -0.796801 0.595444
  outer loop
   vertex -0.018489 0.32633 -0.016183
   vertex -0.015564 0.325778 -0.016417
   vertex -0.016388 0.327538 -0.014204
  endloop
 endfacet
 facet normal 0.0710868 -0.767617 0.636955
  outer loop
   vertex -0.016388 0.327538 -0.014204
   vertex -0.015564 0.325778 -0.016417
   vertex -0.013532 0.327254 -0.014865
  endloop
 endfacet
 facet normal 0.168666 -0.815046 0.554303
  outer loop
   vertex -0.015564 0.325778 -0.016417
   vertex -0.013096 0.325914 -0.016968
   vertex -0.013532 0.327254 -0.014865
  endloop
 endfacet
 facet normal 0.126271 -0.0917039 0.987748
  outer loop
   vertex -0.015084 0.332031 -0.011761
   vertex -0.013349 0.33442 -0.011761
   vertex -0.01586 0.33442 -0.01144
  endloop
 endfacet
 facet normal 0.207851 -0.343516 0.915858
  outer loop
   vertex -0.014235 0.32942 -0.012933
   vertex -0.012242 0.331791 -0.012496
   vertex -0.015084 0.332031 -0.011761
  endloop
 endfacet
 facet normal 0.286233 -0.584386 0.759318
  outer loop
   vertex -0.013532 0.327254 -0.014865
   vertex -0.011388 0.329163 -0.014204
   vertex -0.014235 0.32942 -0.012933
  endloop
 endfacet
 facet normal 0.233325 -0.169451 0.957521
  outer loop
   vertex -0.015084 0.332031 -0.011761
   vertex -0.012242 0.331791 -0.012496
   vertex -0.013349 0.33442 -0.011761
  endloop
 endfacet
 facet normal 0.390899 -0.0914587 0.915878
  outer loop
   vertex -0.012242 0.331791 -0.012496
   vertex -0.010603 0.33442 -0.012933
   vertex -0.013349 0.33442 -0.011761
  endloop
 endfacet
 facet normal 0.334054 -0.43492 0.836213
  outer loop
   vertex -0.014235 0.32942 -0.012933
   vertex -0.011388 0.329163 -0.014204
   vertex -0.012242 0.331791 -0.012496
  endloop
 endfacet
 facet normal 0.491058 -0.356895 0.794662
  outer loop
   vertex -0.011388 0.329163 -0.014204
   vertex -0.009478 0.331791 -0.014204
   vertex -0.012242 0.331791 -0.012496
  endloop
 endfacet
 facet normal 0.516783 -0.183167 0.836293
  outer loop
   vertex -0.012242 0.331791 -0.012496
   vertex -0.009478 0.331791 -0.014204
   vertex -0.010603 0.33442 -0.012933
  endloop
 endfacet
 facet normal 0.644269 -0.0913996 0.759317
  outer loop
   vertex -0.009478 0.331791 -0.014204
   vertex -0.008326 0.33442 -0.014865
   vertex -0.010603 0.33442 -0.012933
  endloop
 endfacet
 facet normal 0.393627 -0.662685 0.637108
  outer loop
   vertex -0.013532 0.327254 -0.014865
   vertex -0.01102 0.327254 -0.016417
   vertex -0.011388 0.329163 -0.014204
  endloop
 endfacet
 facet normal 0.551379 -0.584158 0.595601
  outer loop
   vertex -0.01102 0.327254 -0.016417
   vertex -0.008978 0.32942 -0.016183
   vertex -0.011388 0.329163 -0.014204
  endloop
 endfacet
 facet normal 0.598657 -0.435097 0.672533
  outer loop
   vertex -0.011388 0.329163 -0.014204
   vertex -0.008978 0.32942 -0.016183
   vertex -0.009478 0.331791 -0.014204
  endloop
 endfacet
 facet normal 0.725985 -0.343961 0.595514
  outer loop
   vertex -0.008978 0.32942 -0.016183
   vertex -0.007549 0.332031 -0.016417
   vertex -0.009478 0.331791 -0.014204
  endloop
 endfacet
 facet normal 0.751958 -0.169318 0.637095
  outer loop
   vertex -0.009478 0.331791 -0.014204
   vertex -0.007549 0.332031 -0.016417
   vertex -0.008326 0.33442 -0.014865
  endloop
 endfacet
 facet normal 0.827124 -0.091254 0.554562
  outer loop
   vertex -0.007549 0.332031 -0.016417
   vertex -0.006916 0.33442 -0.016968
   vertex -0.008326 0.33442 -0.014865
  endloop
 endfacet
 facet normal 0.905177 0.147939 0.398459
  outer loop
   vertex -0.006294 0.335896 -0.018929
   vertex -0.007549 0.336809 -0.016417
   vertex -0.006916 0.33442 -0.016968
  endloop
 endfacet
 facet normal 0.93657 0.303801 0.17476
  outer loop
   vertex -0.006349 0.33751 -0.02144
   vertex -0.007242 0.338673 -0.018676
   vertex -0.006294 0.335896 -0.018929
  endloop
 endfacet
 facet normal 0.888212 0.452708 -0.078331
  outer loop
   vertex -0.007253 0.338849 -0.023952
   vertex -0.00777 0.340298 -0.02144
   vertex -0.006349 0.33751 -0.02144
  endloop
 endfacet
 facet normal 0.89641 0.274294 0.348155
  outer loop
   vertex -0.006294 0.335896 -0.018929
   vertex -0.007242 0.338673 -0.018676
   vertex -0.007549 0.336809 -0.016417
  endloop
 endfacet
 facet normal 0.803858 0.400541 0.439749
  outer loop
   vertex -0.007242 0.338673 -0.018676
   vertex -0.008978 0.33942 -0.016183
   vertex -0.007549 0.336809 -0.016417
  endloop
 endfacet
 facet normal 0.886806 0.451991 0.0963284
  outer loop
   vertex -0.006349 0.33751 -0.02144
   vertex -0.00777 0.340298 -0.02144
   vertex -0.007242 0.338673 -0.018676
  endloop
 endfacet
 facet normal 0.794662 0.577331 0.18762
  outer loop
   vertex -0.00777 0.340298 -0.02144
   vertex -0.009152 0.341302 -0.018676
   vertex -0.007242 0.338673 -0.018676
  endloop
 endfacet
 facet normal 0.754436 0.548107 0.361117
  outer loop
   vertex -0.007242 0.338673 -0.018676
   vertex -0.009152 0.341302 -0.018676
   vertex -0.008978 0.33942 -0.016183
  endloop
 endfacet
 facet normal 0.629279 0.640767 0.439803
  outer loop
   vertex -0.009152 0.341302 -0.018676
   vertex -0.01102 0.341586 -0.016417
   vertex -0.008978 0.33942 -0.016183
  endloop
 endfacet
 facet normal 0.797233 0.579229 -0.170037
  outer loop
   vertex -0.007253 0.338849 -0.023952
   vertex -0.008988 0.341237 -0.023952
   vertex -0.00777 0.340298 -0.02144
  endloop
 endfacet
 facet normal 0.704936 0.704936 -0.0782949
  outer loop
   vertex -0.008988 0.341237 -0.023952
   vertex -0.009982 0.34251 -0.02144
   vertex -0.00777 0.340298 -0.02144
  endloop
 endfacet
 facet normal 0.703824 0.703824 0.0962537
  outer loop
   vertex -0.00777 0.340298 -0.02144
   vertex -0.009982 0.34251 -0.02144
   vertex -0.009152 0.341302 -0.018676
  endloop
 endfacet
 facet normal 0.578519 0.796783 0.174509
  outer loop
   vertex -0.009982 0.34251 -0.02144
   vertex -0.0115 0.343062 -0.018928
   vertex -0.009152 0.341302 -0.018676
  endloop
 endfacet
 facet normal 0.537986 0.767602 0.348366
  outer loop
   vertex -0.009152 0.341302 -0.018676
   vertex -0.0115 0.343062 -0.018928
   vertex -0.01102 0.341586 -0.016417
  endloop
 endfacet
 facet normal 0.420269 0.815078 0.398776
  outer loop
   vertex -0.0115 0.343062 -0.018928
   vertex -0.013096 0.342926 -0.016968
   vertex -0.01102 0.341586 -0.016417
  endloop
 endfacet
 facet normal 0.138975 0.90647 0.398746
  outer loop
   vertex -0.014308 0.343974 -0.018928
   vertex -0.015564 0.343062 -0.016417
   vertex -0.013096 0.342926 -0.016968
  endloop
 endfacet
 facet normal 0.000555151 0.98466 0.174481
  outer loop
   vertex -0.01586 0.34442 -0.02144
   vertex -0.017242 0.343931 -0.018676
   vertex -0.014308 0.343974 -0.018928
  endloop
 endfacet
 facet normal -0.155824 0.984657 -0.07855
  outer loop
   vertex -0.017412 0.343974 -0.023952
   vertex -0.01895 0.343931 -0.02144
   vertex -0.01586 0.34442 -0.02144
  endloop
 endfacet
 facet normal 0.0161962 0.937175 0.348485
  outer loop
   vertex -0.014308 0.343974 -0.018928
   vertex -0.017242 0.343931 -0.018676
   vertex -0.015564 0.343062 -0.016417
  endloop
 endfacet
 facet normal -0.132412 0.888171 0.440021
  outer loop
   vertex -0.017242 0.343931 -0.018676
   vertex -0.018489 0.34251 -0.016183
   vertex -0.015564 0.343062 -0.016417
  endloop
 endfacet
 facet normal -0.155583 0.983133 0.0961419
  outer loop
   vertex -0.01586 0.34442 -0.02144
   vertex -0.01895 0.343931 -0.02144
   vertex -0.017242 0.343931 -0.018676
  endloop
 endfacet
 facet normal -0.303796 0.934059 0.187729
  outer loop
   vertex -0.01895 0.343931 -0.02144
   vertex -0.020332 0.342926 -0.018676
   vertex -0.017242 0.343931 -0.018676
  endloop
 endfacet
 facet normal -0.288415 0.886769 0.361189
  outer loop
   vertex -0.017242 0.343931 -0.018676
   vertex -0.020332 0.342926 -0.018676
   vertex -0.018489 0.34251 -0.016183
  endloop
 endfacet
 facet normal -0.415138 0.796394 0.439791
  outer loop
   vertex -0.020332 0.342926 -0.018676
   vertex -0.021179 0.341237 -0.016417
   vertex -0.018489 0.34251 -0.016183
  endloop
 endfacet
 facet normal -0.304389 0.937197 -0.170322
  outer loop
   vertex -0.017412 0.343974 -0.023952
   vertex -0.02022 0.343062 -0.023952
   vertex -0.01895 0.343931 -0.02144
  endloop
 endfacet
 facet normal -0.452705 0.888208 -0.0783901
  outer loop
   vertex -0.02022 0.343062 -0.023952
   vertex -0.021738 0.34251 -0.02144
   vertex -0.01895 0.343931 -0.02144
  endloop
 endfacet
 facet normal -0.451986 0.886796 0.0964489
  outer loop
   vertex -0.01895 0.343931 -0.02144
   vertex -0.021738 0.34251 -0.02144
   vertex -0.020332 0.342926 -0.018676
  endloop
 endfacet
 facet normal -0.578874 0.796508 0.174584
  outer loop
   vertex -0.021738 0.34251 -0.02144
   vertex -0.022732 0.341237 -0.018928
   vertex -0.020332 0.342926 -0.018676
  endloop
 endfacet
 facet normal -0.563623 0.748876 0.348589
  outer loop
   vertex -0.020332 0.342926 -0.018676
   vertex -0.022732 0.341237 -0.018928
   vertex -0.021179 0.341237 -0.016417
  endloop
 endfacet
 facet normal -0.645038 0.651744 0.398942
  outer loop
   vertex -0.022732 0.341237 -0.018928
   vertex -0.023096 0.339677 -0.016968
   vertex -0.021179 0.341237 -0.016417
  endloop
 endfacet
 facet normal -0.819189 0.412026 0.398954
  outer loop
   vertex -0.024467 0.338849 -0.018928
   vertex -0.023987 0.337372 -0.016417
   vertex -0.023096 0.339677 -0.016968
  endloop
 endfacet
 facet normal -0.936352 0.304548 0.174631
  outer loop
   vertex -0.025371 0.33751 -0.02144
   vertex -0.025332 0.336045 -0.018676
   vertex -0.024467 0.338849 -0.018928
  endloop
 endfacet
 facet normal -0.984653 0.155824 -0.0785916
  outer loop
   vertex -0.025426 0.335896 -0.023951
   vertex -0.02586 0.33442 -0.02144
   vertex -0.025371 0.33751 -0.02144
  endloop
 endfacet
 facet normal -0.886309 0.304753 0.348685
  outer loop
   vertex -0.024467 0.338849 -0.018928
   vertex -0.025332 0.336045 -0.018676
   vertex -0.023987 0.337372 -0.016417
  endloop
 endfacet
 facet normal -0.885615 0.148581 0.440011
  outer loop
   vertex -0.025332 0.336045 -0.018676
   vertex -0.024366 0.33442 -0.016183
   vertex -0.023987 0.337372 -0.016417
  endloop
 endfacet
 facet normal -0.983115 0.15558 0.0963335
  outer loop
   vertex -0.025371 0.33751 -0.02144
   vertex -0.02586 0.33442 -0.02144
   vertex -0.025332 0.336045 -0.018676
  endloop
 endfacet
 facet normal -0.982239 0 0.187634
  outer loop
   vertex -0.02586 0.33442 -0.02144
   vertex -0.025332 0.332795 -0.018676
   vertex -0.025332 0.336045 -0.018676
  endloop
 endfacet
 facet normal -0.932446 0 0.361309
  outer loop
   vertex -0.025332 0.336045 -0.018676
   vertex -0.025332 0.332795 -0.018676
   vertex -0.024366 0.33442 -0.016183
  endloop
 endfacet
 facet normal -0.885615 -0.148581 0.440011
  outer loop
   vertex -0.025332 0.332795 -0.018676
   vertex -0.023987 0.331468 -0.016417
   vertex -0.024366 0.33442 -0.016183
  endloop
 endfacet
 facet normal -0.98539 -0 -0.170314
  outer loop
   vertex -0.025426 0.335896 -0.023951
   vertex -0.025426 0.332944 -0.023951
   vertex -0.02586 0.33442 -0.02144
  endloop
 endfacet
 facet normal -0.984653 -0.155824 -0.0785916
  outer loop
   vertex -0.025426 0.332944 -0.023951
   vertex -0.025371 0.33133 -0.02144
   vertex -0.02586 0.33442 -0.02144
  endloop
 endfacet
 facet normal -0.983115 -0.15558 0.0963335
  outer loop
   vertex -0.02586 0.33442 -0.02144
   vertex -0.025371 0.33133 -0.02144
   vertex -0.025332 0.332795 -0.018676
  endloop
 endfacet
 facet normal -0.936352 -0.304548 0.174631
  outer loop
   vertex -0.025371 0.33133 -0.02144
   vertex -0.024467 0.329991 -0.018928
   vertex -0.025332 0.332795 -0.018676
  endloop
 endfacet
 facet normal -0.886309 -0.304753 0.348685
  outer loop
   vertex -0.025332 0.332795 -0.018676
   vertex -0.024467 0.329991 -0.018928
   vertex -0.023987 0.331468 -0.016417
  endloop
 endfacet
 facet normal -0.819189 -0.412026 0.398954
  outer loop
   vertex -0.024467 0.329991 -0.018928
   vertex -0.023096 0.329163 -0.016968
   vertex -0.023987 0.331468 -0.016417
  endloop
 endfacet
 facet normal -0.645038 -0.651744 0.398942
  outer loop
   vertex -0.022732 0.327603 -0.018928
   vertex -0.021179 0.327603 -0.016417
   vertex -0.023096 0.329163 -0.016968
  endloop
 endfacet
 facet normal -0.578874 -0.796508 0.174584
  outer loop
   vertex -0.021738 0.32633 -0.02144
   vertex -0.020332 0.325914 -0.018676
   vertex -0.022732 0.327603 -0.018928
  endloop
 endfacet
 facet normal -0.452705 -0.888208 -0.0783901
  outer loop
   vertex -0.02022 0.325778 -0.023952
   vertex -0.01895 0.324909 -0.02144
   vertex -0.021738 0.32633 -0.02144
  endloop
 endfacet
 facet normal -0.563623 -0.748876 0.348589
  outer loop
   vertex -0.022732 0.327603 -0.018928
   vertex -0.020332 0.325914 -0.018676
   vertex -0.021179 0.327603 -0.016417
  endloop
 endfacet
 facet normal -0.415138 -0.796394 0.439791
  outer loop
   vertex -0.020332 0.325914 -0.018676
   vertex -0.018489 0.32633 -0.016183
   vertex -0.021179 0.327603 -0.016417
  endloop
 endfacet
 facet normal -0.451986 -0.886796 0.0964489
  outer loop
   vertex -0.021738 0.32633 -0.02144
   vertex -0.01895 0.324909 -0.02144
   vertex -0.020332 0.325914 -0.018676
  endloop
 endfacet
 facet normal -0.303796 -0.934059 0.187729
  outer loop
   vertex -0.01895 0.324909 -0.02144
   vertex -0.017242 0.324909 -0.018676
   vertex -0.020332 0.325914 -0.018676
  endloop
 endfacet
 facet normal -0.288415 -0.886769 0.361189
  outer loop
   vertex -0.020332 0.325914 -0.018676
   vertex -0.017242 0.324909 -0.018676
   vertex -0.018489 0.32633 -0.016183
  endloop
 endfacet
 facet normal -0.132412 -0.888171 0.440021
  outer loop
   vertex -0.017242 0.324909 -0.018676
   vertex -0.015564 0.325778 -0.016417
   vertex -0.018489 0.32633 -0.016183
  endloop
 endfacet
 facet normal -0.304389 -0.937197 -0.170322
  outer loop
   vertex -0.02022 0.325778 -0.023952
   vertex -0.017412 0.324866 -0.023952
   vertex -0.01895 0.324909 -0.02144
  endloop
 endfacet
 facet normal -0.155824 -0.984657 -0.07855
  outer loop
   vertex -0.017412 0.324866 -0.023952
   vertex -0.01586 0.32442 -0.02144
   vertex -0.01895 0.324909 -0.02144
  endloop
 endfacet
 facet normal -0.155583 -0.983133 0.0961419
  outer loop
   vertex -0.01895 0.324909 -0.02144
   vertex -0.01586 0.32442 -0.02144
   vertex -0.017242 0.324909 -0.018676
  endloop
 endfacet
 facet normal 0.000555151 -0.98466 0.174481
  outer loop
   vertex -0.01586 0.32442 -0.02144
   vertex -0.014308 0.324866 -0.018928
   vertex -0.017242 0.324909 -0.018676
  endloop
 endfacet
 facet normal 0.0161962 -0.937175 0.348485
  outer loop
   vertex -0.017242 0.324909 -0.018676
   vertex -0.014308 0.324866 -0.018928
   vertex -0.015564 0.325778 -0.016417
  endloop
 endfacet
 facet normal 0.138975 -0.90647 0.398746
  outer loop
   vertex -0.014308 0.324866 -0.018928
   vertex -0.013096 0.325914 -0.016968
   vertex -0.015564 0.325778 -0.016417
  endloop
 endfacet
 facet normal 0.420269 -0.815078 0.398776
  outer loop
   vertex -0.0115 0.325778 -0.018928
   vertex -0.01102 0.327254 -0.016417
   vertex -0.013096 0.325914 -0.016968
  endloop
 endfacet
 facet normal 0.578519 -0.796783 0.174509
  outer loop
   vertex -0.009982 0.32633 -0.02144
   vertex -0.009152 0.327538 -0.018676
   vertex -0.0115 0.325778 -0.018928
  endloop
 endfacet
 facet normal 0.704936 -0.704936 -0.0782949
  outer loop
   vertex -0.008988 0.327603 -0.023952
   vertex -0.00777 0.328542 -0.02144
   vertex -0.009982 0.32633 -0.02144
  endloop
 endfacet
 facet normal 0.537986 -0.767602 0.348366
  outer loop
   vertex -0.0115 0.325778 -0.018928
   vertex -0.009152 0.327538 -0.018676
   vertex -0.01102 0.327254 -0.016417
  endloop
 endfacet
 facet normal 0.629279 -0.640767 0.439803
  outer loop
   vertex -0.009152 0.327538 -0.018676
   vertex -0.008978 0.32942 -0.016183
   vertex -0.01102 0.327254 -0.016417
  endloop
 endfacet
 facet normal 0.703824 -0.703824 0.0962537
  outer loop
   vertex -0.009982 0.32633 -0.02144
   vertex -0.00777 0.328542 -0.02144
   vertex -0.009152 0.327538 -0.018676
  endloop
 endfacet
 facet normal 0.794662 -0.577331 0.18762
  outer loop
   vertex -0.00777 0.328542 -0.02144
   vertex -0.007242 0.330167 -0.018676
   vertex -0.009152 0.327538 -0.018676
  endloop
 endfacet
 facet normal 0.754436 -0.548107 0.361117
  outer loop
   vertex -0.009152 0.327538 -0.018676
   vertex -0.007242 0.330167 -0.018676
   vertex -0.008978 0.32942 -0.016183
  endloop
 endfacet
 facet normal 0.803858 -0.400541 0.439749
  outer loop
   vertex -0.007242 0.330167 -0.018676
   vertex -0.007549 0.332031 -0.016417
   vertex -0.008978 0.32942 -0.016183
  endloop
 endfacet
 facet normal 0.797233 -0.579229 -0.170037
  outer loop
   vertex -0.008988 0.327603 -0.023952
   vertex -0.007253 0.329991 -0.023952
   vertex -0.00777 0.328542 -0.02144
  endloop
 endfacet
 facet normal 0.888212 -0.452708 -0.078331
  outer loop
   vertex -0.007253 0.329991 -0.023952
   vertex -0.006349 0.33133 -0.02144
   vertex -0.00777 0.328542 -0.02144
  endloop
 endfacet
 facet normal 0.886806 -0.451991 0.0963284
  outer loop
   vertex -0.00777 0.328542 -0.02144
   vertex -0.006349 0.33133 -0.02144
   vertex -0.007242 0.330167 -0.018676
  endloop
 endfacet
 facet normal 0.93657 -0.303801 0.17476
  outer loop
   vertex -0.006349 0.33133 -0.02144
   vertex -0.006294 0.332944 -0.018929
   vertex -0.007242 0.330167 -0.018676
  endloop
 endfacet
 facet normal 0.89641 -0.274294 0.348155
  outer loop
   vertex -0.007242 0.330167 -0.018676
   vertex -0.006294 0.332944 -0.018929
   vertex -0.007549 0.332031 -0.016417
  endloop
 endfacet
 facet normal 0.905177 -0.147939 0.398459
  outer loop
   vertex -0.006294 0.332944 -0.018929
   vertex -0.006916 0.33442 -0.016968
   vertex -0.007549 0.332031 -0.016417
  endloop
 endfacet
 facet normal 0.294416 0.906493 0.302638
  outer loop
   vertex -0.0115 0.343062 -0.018928
   vertex -0.014308 0.343974 -0.018928
   vertex -0.013096 0.342926 -0.016968
  endloop
 endfacet
 facet normal 0.452705 0.888208 0.0783901
  outer loop
   vertex -0.009982 0.34251 -0.02144
   vertex -0.01277 0.343931 -0.02144
   vertex -0.0115 0.343062 -0.018928
  endloop
 endfacet
 facet normal 0.578874 0.796508 -0.174584
  outer loop
   vertex -0.008988 0.341237 -0.023952
   vertex -0.011388 0.342926 -0.024204
   vertex -0.009982 0.34251 -0.02144
  endloop
 endfacet
 facet normal 0.304389 0.937197 0.170322
  outer loop
   vertex -0.0115 0.343062 -0.018928
   vertex -0.01277 0.343931 -0.02144
   vertex -0.014308 0.343974 -0.018928
  endloop
 endfacet
 facet normal 0.155824 0.984657 0.07855
  outer loop
   vertex -0.01277 0.343931 -0.02144
   vertex -0.01586 0.34442 -0.02144
   vertex -0.014308 0.343974 -0.018928
  endloop
 endfacet
 facet normal 0.451986 0.886796 -0.0964489
  outer loop
   vertex -0.009982 0.34251 -0.02144
   vertex -0.011388 0.342926 -0.024204
   vertex -0.01277 0.343931 -0.02144
  endloop
 endfacet
 facet normal 0.303796 0.934059 -0.187729
  outer loop
   vertex -0.011388 0.342926 -0.024204
   vertex -0.014478 0.343931 -0.024204
   vertex -0.01277 0.343931 -0.02144
  endloop
 endfacet
 facet normal 0.155583 0.983133 -0.0961419
  outer loop
   vertex -0.01277 0.343931 -0.02144
   vertex -0.014478 0.343931 -0.024204
   vertex -0.01586 0.34442 -0.02144
  endloop
 endfacet
 facet normal -0.000555151 0.98466 -0.174481
  outer loop
   vertex -0.014478 0.343931 -0.024204
   vertex -0.017412 0.343974 -0.023952
   vertex -0.01586 0.34442 -0.02144
  endloop
 endfacet
 facet normal 0.563623 0.748876 -0.348589
  outer loop
   vertex -0.008988 0.341237 -0.023952
   vertex -0.010541 0.341237 -0.026463
   vertex -0.011388 0.342926 -0.024204
  endloop
 endfacet
 facet normal 0.415138 0.796394 -0.439791
  outer loop
   vertex -0.010541 0.341237 -0.026463
   vertex -0.013231 0.34251 -0.026697
   vertex -0.011388 0.342926 -0.024204
  endloop
 endfacet
 facet normal 0.288415 0.886769 -0.361189
  outer loop
   vertex -0.011388 0.342926 -0.024204
   vertex -0.013231 0.34251 -0.026697
   vertex -0.014478 0.343931 -0.024204
  endloop
 endfacet
 facet normal 0.132412 0.888171 -0.440021
  outer loop
   vertex -0.013231 0.34251 -0.026697
   vertex -0.016156 0.343062 -0.026463
   vertex -0.014478 0.343931 -0.024204
  endloop
 endfacet
 facet normal -0.0161962 0.937175 -0.348485
  outer loop
   vertex -0.014478 0.343931 -0.024204
   vertex -0.016156 0.343062 -0.026463
   vertex -0.017412 0.343974 -0.023952
  endloop
 endfacet
 facet normal -0.138975 0.90647 -0.398746
  outer loop
   vertex -0.016156 0.343062 -0.026463
   vertex -0.018624 0.342926 -0.025912
   vertex -0.017412 0.343974 -0.023952
  endloop
 endfacet
 facet normal -0.771063 0.560215 0.302688
  outer loop
   vertex -0.022732 0.341237 -0.018928
   vertex -0.024467 0.338849 -0.018928
   vertex -0.023096 0.339677 -0.016968
  endloop
 endfacet
 facet normal -0.704936 0.704936 0.0782949
  outer loop
   vertex -0.021738 0.34251 -0.02144
   vertex -0.02395 0.340298 -0.02144
   vertex -0.022732 0.341237 -0.018928
  endloop
 endfacet
 facet normal -0.578519 0.796783 -0.174509
  outer loop
   vertex -0.02022 0.343062 -0.023952
   vertex -0.022568 0.341302 -0.024204
   vertex -0.021738 0.34251 -0.02144
  endloop
 endfacet
 facet normal -0.797233 0.579229 0.170037
  outer loop
   vertex -0.022732 0.341237 -0.018928
   vertex -0.02395 0.340298 -0.02144
   vertex -0.024467 0.338849 -0.018928
  endloop
 endfacet
 facet normal -0.888212 0.452708 0.078331
  outer loop
   vertex -0.02395 0.340298 -0.02144
   vertex -0.025371 0.33751 -0.02144
   vertex -0.024467 0.338849 -0.018928
  endloop
 endfacet
 facet normal -0.703824 0.703824 -0.0962537
  outer loop
   vertex -0.021738 0.34251 -0.02144
   vertex -0.022568 0.341302 -0.024204
   vertex -0.02395 0.340298 -0.02144
  endloop
 endfacet
 facet normal -0.794662 0.577331 -0.18762
  outer loop
   vertex -0.022568 0.341302 -0.024204
   vertex -0.024478 0.338673 -0.024204
   vertex -0.02395 0.340298 -0.02144
  endloop
 endfacet
 facet normal -0.886806 0.451991 -0.0963284
  outer loop
   vertex -0.02395 0.340298 -0.02144
   vertex -0.024478 0.338673 -0.024204
   vertex -0.025371 0.33751 -0.02144
  endloop
 endfacet
 facet normal -0.93657 0.303801 -0.17476
  outer loop
   vertex -0.024478 0.338673 -0.024204
   vertex -0.025426 0.335896 -0.023951
   vertex -0.025371 0.33751 -0.02144
  endloop
 endfacet
 facet normal -0.537986 0.767602 -0.348366
  outer loop
   vertex -0.02022 0.343062 -0.023952
   vertex -0.0207 0.341586 -0.026463
   vertex -0.022568 0.341302 -0.024204
  endloop
 endfacet
 facet normal -0.629279 0.640767 -0.439803
  outer loop
   vertex -0.0207 0.341586 -0.026463
   vertex -0.022742 0.33942 -0.026697
   vertex -0.022568 0.341302 -0.024204
  endloop
 endfacet
 facet normal -0.754436 0.548107 -0.361117
  outer loop
   vertex -0.022568 0.341302 -0.024204
   vertex -0.022742 0.33942 -0.026697
   vertex -0.024478 0.338673 -0.024204
  endloop
 endfacet
 facet normal -0.803858 0.400541 -0.439749
  outer loop
   vertex -0.022742 0.33942 -0.026697
   vertex -0.024171 0.336809 -0.026463
   vertex -0.024478 0.338673 -0.024204
  endloop
 endfacet
 facet normal -0.89641 0.274294 -0.348155
  outer loop
   vertex -0.024478 0.338673 -0.024204
   vertex -0.024171 0.336809 -0.026463
   vertex -0.025426 0.335896 -0.023951
  endloop
 endfacet
 facet normal -0.905177 0.147939 -0.398459
  outer loop
   vertex -0.024171 0.336809 -0.026463
   vertex -0.024804 0.33442 -0.025912
   vertex -0.025426 0.335896 -0.023951
  endloop
 endfacet
 facet normal -0.771063 -0.560215 0.302688
  outer loop
   vertex -0.024467 0.329991 -0.018928
   vertex -0.022732 0.327603 -0.018928
   vertex -0.023096 0.329163 -0.016968
  endloop
 endfacet
 facet normal -0.888212 -0.452708 0.078331
  outer loop
   vertex -0.025371 0.33133 -0.02144
   vertex -0.02395 0.328542 -0.02144
   vertex -0.024467 0.329991 -0.018928
  endloop
 endfacet
 facet normal -0.93657 -0.303801 -0.17476
  outer loop
   vertex -0.025426 0.332944 -0.023951
   vertex -0.024478 0.330167 -0.024204
   vertex -0.025371 0.33133 -0.02144
  endloop
 endfacet
 facet normal -0.797233 -0.579229 0.170037
  outer loop
   vertex -0.024467 0.329991 -0.018928
   vertex -0.02395 0.328542 -0.02144
   vertex -0.022732 0.327603 -0.018928
  endloop
 endfacet
 facet normal -0.704936 -0.704936 0.0782949
  outer loop
   vertex -0.02395 0.328542 -0.02144
   vertex -0.021738 0.32633 -0.02144
   vertex -0.022732 0.327603 -0.018928
  endloop
 endfacet
 facet normal -0.886806 -0.451991 -0.0963284
  outer loop
   vertex -0.025371 0.33133 -0.02144
   vertex -0.024478 0.330167 -0.024204
   vertex -0.02395 0.328542 -0.02144
  endloop
 endfacet
 facet normal -0.794662 -0.577331 -0.18762
  outer loop
   vertex -0.024478 0.330167 -0.024204
   vertex -0.022568 0.327538 -0.024204
   vertex -0.02395 0.328542 -0.02144
  endloop
 endfacet
 facet normal -0.703824 -0.703824 -0.0962537
  outer loop
   vertex -0.02395 0.328542 -0.02144
   vertex -0.022568 0.327538 -0.024204
   vertex -0.021738 0.32633 -0.02144
  endloop
 endfacet
 facet normal -0.578519 -0.796783 -0.174509
  outer loop
   vertex -0.022568 0.327538 -0.024204
   vertex -0.02022 0.325778 -0.023952
   vertex -0.021738 0.32633 -0.02144
  endloop
 endfacet
 facet normal -0.89641 -0.274294 -0.348155
  outer loop
   vertex -0.025426 0.332944 -0.023951
   vertex -0.024171 0.332031 -0.026463
   vertex -0.024478 0.330167 -0.024204
  endloop
 endfacet
 facet normal -0.803858 -0.400541 -0.439749
  outer loop
   vertex -0.024171 0.332031 -0.026463
   vertex -0.022742 0.32942 -0.026697
   vertex -0.024478 0.330167 -0.024204
  endloop
 endfacet
 facet normal -0.754436 -0.548107 -0.361117
  outer loop
   vertex -0.024478 0.330167 -0.024204
   vertex -0.022742 0.32942 -0.026697
   vertex -0.022568 0.327538 -0.024204
  endloop
 endfacet
 facet normal -0.629279 -0.640767 -0.439803
  outer loop
   vertex -0.022742 0.32942 -0.026697
   vertex -0.0207 0.327254 -0.026463
   vertex -0.022568 0.327538 -0.024204
  endloop
 endfacet
 facet normal -0.537986 -0.767602 -0.348366
  outer loop
   vertex -0.022568 0.327538 -0.024204
   vertex -0.0207 0.327254 -0.026463
   vertex -0.02022 0.325778 -0.023952
  endloop
 endfacet
 facet normal -0.420269 -0.815078 -0.398776
  outer loop
   vertex -0.0207 0.327254 -0.026463
   vertex -0.018624 0.325914 -0.025912
   vertex -0.02022 0.325778 -0.023952
  endloop
 endfacet
 facet normal 0.294416 -0.906493 0.302638
  outer loop
   vertex -0.014308 0.324866 -0.018928
   vertex -0.0115 0.325778 -0.018928
   vertex -0.013096 0.325914 -0.016968
  endloop
 endfacet
 facet normal 0.155824 -0.984657 0.07855
  outer loop
   vertex -0.01586 0.32442 -0.02144
   vertex -0.01277 0.324909 -0.02144
   vertex -0.014308 0.324866 -0.018928
  endloop
 endfacet
 facet normal -0.000555151 -0.98466 -0.174481
  outer loop
   vertex -0.017412 0.324866 -0.023952
   vertex -0.014478 0.324909 -0.024204
   vertex -0.01586 0.32442 -0.02144
  endloop
 endfacet
 facet normal 0.304389 -0.937197 0.170322
  outer loop
   vertex -0.014308 0.324866 -0.018928
   vertex -0.01277 0.324909 -0.02144
   vertex -0.0115 0.325778 -0.018928
  endloop
 endfacet
 facet normal 0.452705 -0.888208 0.0783901
  outer loop
   vertex -0.01277 0.324909 -0.02144
   vertex -0.009982 0.32633 -0.02144
   vertex -0.0115 0.325778 -0.018928
  endloop
 endfacet
 facet normal 0.155583 -0.983133 -0.0961419
  outer loop
   vertex -0.01586 0.32442 -0.02144
   vertex -0.014478 0.324909 -0.024204
   vertex -0.01277 0.324909 -0.02144
  endloop
 endfacet
 facet normal 0.303796 -0.934059 -0.187729
  outer loop
   vertex -0.014478 0.324909 -0.024204
   vertex -0.011388 0.325914 -0.024204
   vertex -0.01277 0.324909 -0.02144
  endloop
 endfacet
 facet normal 0.451986 -0.886796 -0.0964489
  outer loop
   vertex -0.01277 0.324909 -0.02144
   vertex -0.011388 0.325914 -0.024204
   vertex -0.009982 0.32633 -0.02144
  endloop
 endfacet
 facet normal 0.578874 -0.796508 -0.174584
  outer loop
   vertex -0.011388 0.325914 -0.024204
   vertex -0.008988 0.327603 -0.023952
   vertex -0.009982 0.32633 -0.02144
  endloop
 endfacet
 facet normal -0.0161962 -0.937175 -0.348485
  outer loop
   vertex -0.017412 0.324866 -0.023952
   vertex -0.016156 0.325778 -0.026463
   vertex -0.014478 0.324909 -0.024204
  endloop
 endfacet
 facet normal 0.132412 -0.888171 -0.440021
  outer loop
   vertex -0.016156 0.325778 -0.026463
   vertex -0.013231 0.32633 -0.026697
   vertex -0.014478 0.324909 -0.024204
  endloop
 endfacet
 facet normal 0.288415 -0.886769 -0.361189
  outer loop
   vertex -0.014478 0.324909 -0.024204
   vertex -0.013231 0.32633 -0.026697
   vertex -0.011388 0.325914 -0.024204
  endloop
 endfacet
 facet normal 0.415138 -0.796394 -0.439791
  outer loop
   vertex -0.013231 0.32633 -0.026697
   vertex -0.010541 0.327603 -0.026463
   vertex -0.011388 0.325914 -0.024204
  endloop
 endfacet
 facet normal 0.563623 -0.748876 -0.348589
  outer loop
   vertex -0.011388 0.325914 -0.024204
   vertex -0.010541 0.327603 -0.026463
   vertex -0.008988 0.327603 -0.023952
  endloop
 endfacet
 facet normal 0.645038 -0.651744 -0.398942
  outer loop
   vertex -0.010541 0.327603 -0.026463
   vertex -0.008624 0.329163 -0.025912
   vertex -0.008988 0.327603 -0.023952
  endloop
 endfacet
 facet normal 0.9532 -0 0.302341
  outer loop
   vertex -0.006294 0.332944 -0.018929
   vertex -0.006294 0.335896 -0.018929
   vertex -0.006916 0.33442 -0.016968
  endloop
 endfacet
 facet normal 0.984653 -0.155824 0.0785916
  outer loop
   vertex -0.006349 0.33133 -0.02144
   vertex -0.00586 0.33442 -0.02144
   vertex -0.006294 0.332944 -0.018929
  endloop
 endfacet
 facet normal 0.936352 -0.304548 -0.174631
  outer loop
   vertex -0.007253 0.329991 -0.023952
   vertex -0.006388 0.332795 -0.024204
   vertex -0.006349 0.33133 -0.02144
  endloop
 endfacet
 facet normal 0.98539 -0 0.170314
  outer loop
   vertex -0.006294 0.332944 -0.018929
   vertex -0.00586 0.33442 -0.02144
   vertex -0.006294 0.335896 -0.018929
  endloop
 endfacet
 facet normal 0.984653 0.155824 0.0785916
  outer loop
   vertex -0.00586 0.33442 -0.02144
   vertex -0.006349 0.33751 -0.02144
   vertex -0.006294 0.335896 -0.018929
  endloop
 endfacet
 facet normal 0.983115 -0.15558 -0.0963335
  outer loop
   vertex -0.006349 0.33133 -0.02144
   vertex -0.006388 0.332795 -0.024204
   vertex -0.00586 0.33442 -0.02144
  endloop
 endfacet
 facet normal 0.982239 0 -0.187634
  outer loop
   vertex -0.006388 0.332795 -0.024204
   vertex -0.006388 0.336045 -0.024204
   vertex -0.00586 0.33442 -0.02144
  endloop
 endfacet
 facet normal 0.983115 0.15558 -0.0963335
  outer loop
   vertex -0.00586 0.33442 -0.02144
   vertex -0.006388 0.336045 -0.024204
   vertex -0.006349 0.33751 -0.02144
  endloop
 endfacet
 facet normal 0.936352 0.304548 -0.174631
  outer loop
   vertex -0.006388 0.336045 -0.024204
   vertex -0.007253 0.338849 -0.023952
   vertex -0.006349 0.33751 -0.02144
  endloop
 endfacet
 facet normal 0.886309 -0.304753 -0.348685
  outer loop
   vertex -0.007253 0.329991 -0.023952
   vertex -0.007733 0.331468 -0.026463
   vertex -0.006388 0.332795 -0.024204
  endloop
 endfacet
 facet normal 0.885615 -0.148581 -0.440011
  outer loop
   vertex -0.007733 0.331468 -0.026463
   vertex -0.007354 0.33442 -0.026697
   vertex -0.006388 0.332795 -0.024204
  endloop
 endfacet
 facet normal 0.932446 0 -0.361309
  outer loop
   vertex -0.006388 0.332795 -0.024204
   vertex -0.007354 0.33442 -0.026697
   vertex -0.006388 0.336045 -0.024204
  endloop
 endfacet
 facet normal 0.885615 0.148581 -0.440011
  outer loop
   vertex -0.007354 0.33442 -0.026697
   vertex -0.007733 0.337372 -0.026463
   vertex -0.006388 0.336045 -0.024204
  endloop
 endfacet
 facet normal 0.886309 0.304753 -0.348685
  outer loop
   vertex -0.006388 0.336045 -0.024204
   vertex -0.007733 0.337372 -0.026463
   vertex -0.007253 0.338849 -0.023952
  endloop
 endfacet
 facet normal 0.819189 0.412026 -0.398954
  outer loop
   vertex -0.007733 0.337372 -0.026463
   vertex -0.008624 0.339677 -0.025912
   vertex -0.007253 0.338849 -0.023952
  endloop
 endfacet
 facet normal 0.61533 0.560308 -0.554459
  outer loop
   vertex -0.009765 0.338849 -0.028015
   vertex -0.010541 0.341237 -0.026463
   vertex -0.008624 0.339677 -0.025912
  endloop
 endfacet
 facet normal 0.467426 0.452641 -0.759361
  outer loop
   vertex -0.011607 0.33751 -0.029947
   vertex -0.012242 0.340298 -0.028676
   vertex -0.009765 0.338849 -0.028015
  endloop
 endfacet
 facet normal 0.262485 0.303841 -0.915851
  outer loop
   vertex -0.013828 0.335896 -0.031119
   vertex -0.014478 0.338673 -0.030384
   vertex -0.011607 0.33751 -0.029947
  endloop
 endfacet
 facet normal 0.508799 0.579247 -0.636864
  outer loop
   vertex -0.009765 0.338849 -0.028015
   vertex -0.012242 0.340298 -0.028676
   vertex -0.010541 0.341237 -0.026463
  endloop
 endfacet
 facet normal 0.38541 0.704977 -0.595371
  outer loop
   vertex -0.012242 0.340298 -0.028676
   vertex -0.013231 0.34251 -0.026697
   vertex -0.010541 0.341237 -0.026463
  endloop
 endfacet
 facet normal 0.310374 0.451949 -0.836307
  outer loop
   vertex -0.011607 0.33751 -0.029947
   vertex -0.014478 0.338673 -0.030384
   vertex -0.012242 0.340298 -0.028676
  endloop
 endfacet
 facet normal 0.187559 0.577248 -0.794737
  outer loop
   vertex -0.014478 0.338673 -0.030384
   vertex -0.015332 0.341302 -0.028676
   vertex -0.012242 0.340298 -0.028676
  endloop
 endfacet
 facet normal 0.228709 0.703897 -0.672474
  outer loop
   vertex -0.012242 0.340298 -0.028676
   vertex -0.015332 0.341302 -0.028676
   vertex -0.013231 0.34251 -0.026697
  endloop
 endfacet
 facet normal 0.102735 0.796801 -0.595444
  outer loop
   vertex -0.015332 0.341302 -0.028676
   vertex -0.016156 0.343062 -0.026463
   vertex -0.013231 0.34251 -0.026697
  endloop
 endfacet
 facet normal 0.0891868 0.274301 -0.957499
  outer loop
   vertex -0.013828 0.335896 -0.031119
   vertex -0.016636 0.336809 -0.031119
   vertex -0.014478 0.338673 -0.030384
  endloop
 endfacet
 facet normal -0.0336945 0.400135 -0.915836
  outer loop
   vertex -0.016636 0.336809 -0.031119
   vertex -0.017485 0.33942 -0.029947
   vertex -0.014478 0.338673 -0.030384
  endloop
 endfacet
 facet normal 0.0146149 0.548074 -0.836302
  outer loop
   vertex -0.014478 0.338673 -0.030384
   vertex -0.017485 0.33942 -0.029947
   vertex -0.015332 0.341302 -0.028676
  endloop
 endfacet
 facet normal -0.112009 0.640965 -0.759354
  outer loop
   vertex -0.017485 0.33942 -0.029947
   vertex -0.018188 0.341586 -0.028015
   vertex -0.015332 0.341302 -0.028676
  endloop
 endfacet
 facet normal -0.0710868 0.767617 -0.636955
  outer loop
   vertex -0.015332 0.341302 -0.028676
   vertex -0.018188 0.341586 -0.028015
   vertex -0.016156 0.343062 -0.026463
  endloop
 endfacet
 facet normal -0.168666 0.815046 -0.554303
  outer loop
   vertex -0.018188 0.341586 -0.028015
   vertex -0.018624 0.342926 -0.025912
   vertex -0.016156 0.343062 -0.026463
  endloop
 endfacet
 facet normal -0.342493 0.758552 -0.554344
  outer loop
   vertex -0.018188 0.341586 -0.028015
   vertex -0.0207 0.341586 -0.026463
   vertex -0.018624 0.342926 -0.025912
  endloop
 endfacet
 facet normal -0.286233 0.584386 -0.759318
  outer loop
   vertex -0.017485 0.33942 -0.029947
   vertex -0.020332 0.339677 -0.028676
   vertex -0.018188 0.341586 -0.028015
  endloop
 endfacet
 facet normal -0.207851 0.343516 -0.915858
  outer loop
   vertex -0.016636 0.336809 -0.031119
   vertex -0.019478 0.337049 -0.030384
   vertex -0.017485 0.33942 -0.029947
  endloop
 endfacet
 facet normal -0.393627 0.662685 -0.637108
  outer loop
   vertex -0.018188 0.341586 -0.028015
   vertex -0.020332 0.339677 -0.028676
   vertex -0.0207 0.341586 -0.026463
  endloop
 endfacet
 facet normal -0.551379 0.584158 -0.595601
  outer loop
   vertex -0.020332 0.339677 -0.028676
   vertex -0.022742 0.33942 -0.026697
   vertex -0.0207 0.341586 -0.026463
  endloop
 endfacet
 facet normal -0.334054 0.43492 -0.836213
  outer loop
   vertex -0.017485 0.33942 -0.029947
   vertex -0.019478 0.337049 -0.030384
   vertex -0.020332 0.339677 -0.028676
  endloop
 endfacet
 facet normal -0.491058 0.356895 -0.794662
  outer loop
   vertex -0.019478 0.337049 -0.030384
   vertex -0.022242 0.337049 -0.028676
   vertex -0.020332 0.339677 -0.028676
  endloop
 endfacet
 facet normal -0.598657 0.435097 -0.672533
  outer loop
   vertex -0.020332 0.339677 -0.028676
   vertex -0.022242 0.337049 -0.028676
   vertex -0.022742 0.33942 -0.026697
  endloop
 endfacet
 facet normal -0.725985 0.343961 -0.595514
  outer loop
   vertex -0.022242 0.337049 -0.028676
   vertex -0.024171 0.336809 -0.026463
   vertex -0.022742 0.33942 -0.026697
  endloop
 endfacet
 facet normal -0.233325 0.169451 -0.957521
  outer loop
   vertex -0.016636 0.336809 -0.031119
   vertex -0.018371 0.33442 -0.031119
   vertex -0.019478 0.337049 -0.030384
  endloop
 endfacet
 facet normal -0.390899 0.0914587 -0.915878
  outer loop
   vertex -0.018371 0.33442 -0.031119
   vertex -0.021117 0.33442 -0.029947
   vertex -0.019478 0.337049 -0.030384
  endloop
 endfacet
 facet normal -0.516783 0.183167 -0.836293
  outer loop
   vertex -0.019478 0.337049 -0.030384
   vertex -0.021117 0.33442 -0.029947
   vertex -0.022242 0.337049 -0.028676
  endloop
 endfacet
 facet normal -0.644269 0.0913996 -0.759317
  outer loop
   vertex -0.021117 0.33442 -0.029947
   vertex -0.023394 0.33442 -0.028015
   vertex -0.022242 0.337049 -0.028676
  endloop
 endfacet
 facet normal -0.751958 0.169318 -0.637095
  outer loop
   vertex -0.022242 0.337049 -0.028676
   vertex -0.023394 0.33442 -0.028015
   vertex -0.024171 0.336809 -0.026463
  endloop
 endfacet
 facet normal -0.827124 0.091254 -0.554562
  outer loop
   vertex -0.023394 0.33442 -0.028015
   vertex -0.024804 0.33442 -0.025912
   vertex -0.024171 0.336809 -0.026463
  endloop
 endfacet
 facet normal -0.827124 -0.091254 -0.554562
  outer loop
   vertex -0.023394 0.33442 -0.028015
   vertex -0.024171 0.332031 -0.026463
   vertex -0.024804 0.33442 -0.025912
  endloop
 endfacet
 facet normal -0.644269 -0.0913996 -0.759317
  outer loop
   vertex -0.021117 0.33442 -0.029947
   vertex -0.022242 0.331791 -0.028676
   vertex -0.023394 0.33442 -0.028015
  endloop
 endfacet
 facet normal -0.390899 -0.0914587 -0.915878
  outer loop
   vertex -0.018371 0.33442 -0.031119
   vertex -0.019478 0.331791 -0.030384
   vertex -0.021117 0.33442 -0.029947
  endloop
 endfacet
 facet normal -0.751958 -0.169318 -0.637095
  outer loop
   vertex -0.023394 0.33442 -0.028015
   vertex -0.022242 0.331791 -0.028676
   vertex -0.024171 0.332031 -0.026463
  endloop
 endfacet
 facet normal -0.725985 -0.343961 -0.595514
  outer loop
   vertex -0.022242 0.331791 -0.028676
   vertex -0.022742 0.32942 -0.026697
   vertex -0.024171 0.332031 -0.026463
  endloop
 endfacet
 facet normal -0.516783 -0.183167 -0.836293
  outer loop
   vertex -0.021117 0.33442 -0.029947
   vertex -0.019478 0.331791 -0.030384
   vertex -0.022242 0.331791 -0.028676
  endloop
 endfacet
 facet normal -0.491058 -0.356895 -0.794662
  outer loop
   vertex -0.019478 0.331791 -0.030384
   vertex -0.020332 0.329163 -0.028676
   vertex -0.022242 0.331791 -0.028676
  endloop
 endfacet
 facet normal -0.598657 -0.435097 -0.672533
  outer loop
   vertex -0.022242 0.331791 -0.028676
   vertex -0.020332 0.329163 -0.028676
   vertex -0.022742 0.32942 -0.026697
  endloop
 endfacet
 facet normal -0.551379 -0.584158 -0.595601
  outer loop
   vertex -0.020332 0.329163 -0.028676
   vertex -0.0207 0.327254 -0.026463
   vertex -0.022742 0.32942 -0.026697
  endloop
 endfacet
 facet normal -0.233325 -0.169451 -0.957521
  outer loop
   vertex -0.018371 0.33442 -0.031119
   vertex -0.016636 0.332031 -0.031119
   vertex -0.019478 0.331791 -0.030384
  endloop
 endfacet
 facet normal -0.207851 -0.343516 -0.915858
  outer loop
   vertex -0.016636 0.332031 -0.031119
   vertex -0.017485 0.32942 -0.029947
   vertex -0.019478 0.331791 -0.030384
  endloop
 endfacet
 facet normal -0.334054 -0.43492 -0.836213
  outer loop
   vertex -0.019478 0.331791 -0.030384
   vertex -0.017485 0.32942 -0.029947
   vertex -0.020332 0.329163 -0.028676
  endloop
 endfacet
 facet normal -0.286233 -0.584386 -0.759318
  outer loop
   vertex -0.017485 0.32942 -0.029947
   vertex -0.018188 0.327254 -0.028015
   vertex -0.020332 0.329163 -0.028676
  endloop
 endfacet
 facet normal -0.393627 -0.662685 -0.637108
  outer loop
   vertex -0.020332 0.329163 -0.028676
   vertex -0.018188 0.327254 -0.028015
   vertex -0.0207 0.327254 -0.026463
  endloop
 endfacet
 facet normal -0.342493 -0.758552 -0.554344
  outer loop
   vertex -0.018188 0.327254 -0.028015
   vertex -0.018624 0.325914 -0.025912
   vertex -0.0207 0.327254 -0.026463
  endloop
 endfacet
 facet normal 0.723015 0.412034 -0.554506
  outer loop
   vertex -0.007733 0.337372 -0.026463
   vertex -0.009765 0.338849 -0.028015
   vertex -0.008624 0.339677 -0.025912
  endloop
 endfacet
 facet normal 0.789589 0.148568 -0.59538
  outer loop
   vertex -0.007354 0.33442 -0.026697
   vertex -0.009152 0.336045 -0.028676
   vertex -0.007733 0.337372 -0.026463
  endloop
 endfacet
 facet normal 0.789589 -0.148568 -0.59538
  outer loop
   vertex -0.007733 0.331468 -0.026463
   vertex -0.009152 0.332795 -0.028676
   vertex -0.007354 0.33442 -0.026697
  endloop
 endfacet
 facet normal 0.708089 0.304936 -0.636886
  outer loop
   vertex -0.007733 0.337372 -0.026463
   vertex -0.009152 0.336045 -0.028676
   vertex -0.009765 0.338849 -0.028015
  endloop
 endfacet
 facet normal 0.574948 0.304695 -0.759339
  outer loop
   vertex -0.009152 0.336045 -0.028676
   vertex -0.011607 0.33751 -0.029947
   vertex -0.009765 0.338849 -0.028015
  endloop
 endfacet
 facet normal 0.740143 0 -0.672449
  outer loop
   vertex -0.007354 0.33442 -0.026697
   vertex -0.009152 0.332795 -0.028676
   vertex -0.009152 0.336045 -0.028676
  endloop
 endfacet
 facet normal 0.607028 0 -0.794681
  outer loop
   vertex -0.009152 0.332795 -0.028676
   vertex -0.011388 0.33442 -0.030384
   vertex -0.009152 0.336045 -0.028676
  endloop
 endfacet
 facet normal 0.525774 0.155534 -0.836284
  outer loop
   vertex -0.009152 0.336045 -0.028676
   vertex -0.011388 0.33442 -0.030384
   vertex -0.011607 0.33751 -0.029947
  endloop
 endfacet
 facet normal 0.370096 0.155752 -0.915844
  outer loop
   vertex -0.011388 0.33442 -0.030384
   vertex -0.013828 0.335896 -0.031119
   vertex -0.011607 0.33751 -0.029947
  endloop
 endfacet
 facet normal 0.708089 -0.304936 -0.636886
  outer loop
   vertex -0.007733 0.331468 -0.026463
   vertex -0.009765 0.329991 -0.028015
   vertex -0.009152 0.332795 -0.028676
  endloop
 endfacet
 facet normal 0.574948 -0.304695 -0.759339
  outer loop
   vertex -0.009765 0.329991 -0.028015
   vertex -0.011607 0.33133 -0.029947
   vertex -0.009152 0.332795 -0.028676
  endloop
 endfacet
 facet normal 0.525774 -0.155534 -0.836284
  outer loop
   vertex -0.009152 0.332795 -0.028676
   vertex -0.011607 0.33133 -0.029947
   vertex -0.011388 0.33442 -0.030384
  endloop
 endfacet
 facet normal 0.370096 -0.155752 -0.915844
  outer loop
   vertex -0.011607 0.33133 -0.029947
   vertex -0.013828 0.332944 -0.031119
   vertex -0.011388 0.33442 -0.030384
  endloop
 endfacet
 facet normal 0.288428 0 -0.957502
  outer loop
   vertex -0.011388 0.33442 -0.030384
   vertex -0.013828 0.332944 -0.031119
   vertex -0.013828 0.335896 -0.031119
  endloop
 endfacet
 facet normal 0.156037 0 -0.987751
  outer loop
   vertex -0.013828 0.332944 -0.031119
   vertex -0.01586 0.33442 -0.03144
   vertex -0.013828 0.335896 -0.031119
  endloop
 endfacet
 facet normal -0.168666 -0.815046 -0.554303
  outer loop
   vertex -0.018188 0.327254 -0.028015
   vertex -0.016156 0.325778 -0.026463
   vertex -0.018624 0.325914 -0.025912
  endloop
 endfacet
 facet normal -0.112009 -0.640965 -0.759354
  outer loop
   vertex -0.017485 0.32942 -0.029947
   vertex -0.015332 0.327538 -0.028676
   vertex -0.018188 0.327254 -0.028015
  endloop
 endfacet
 facet normal -0.0336945 -0.400135 -0.915836
  outer loop
   vertex -0.016636 0.332031 -0.031119
   vertex -0.014478 0.330167 -0.030384
   vertex -0.017485 0.32942 -0.029947
  endloop
 endfacet
 facet normal -0.0710868 -0.767617 -0.636955
  outer loop
   vertex -0.018188 0.327254 -0.028015
   vertex -0.015332 0.327538 -0.028676
   vertex -0.016156 0.325778 -0.026463
  endloop
 endfacet
 facet normal 0.102735 -0.796801 -0.595444
  outer loop
   vertex -0.015332 0.327538 -0.028676
   vertex -0.013231 0.32633 -0.026697
   vertex -0.016156 0.325778 -0.026463
  endloop
 endfacet
 facet normal 0.0146149 -0.548074 -0.836302
  outer loop
   vertex -0.017485 0.32942 -0.029947
   vertex -0.014478 0.330167 -0.030384
   vertex -0.015332 0.327538 -0.028676
  endloop
 endfacet
 facet normal 0.187559 -0.577248 -0.794737
  outer loop
   vertex -0.014478 0.330167 -0.030384
   vertex -0.012242 0.328542 -0.028676
   vertex -0.015332 0.327538 -0.028676
  endloop
 endfacet
 facet normal 0.228709 -0.703897 -0.672474
  outer loop
   vertex -0.015332 0.327538 -0.028676
   vertex -0.012242 0.328542 -0.028676
   vertex -0.013231 0.32633 -0.026697
  endloop
 endfacet
 facet normal 0.38541 -0.704977 -0.595371
  outer loop
   vertex -0.012242 0.328542 -0.028676
   vertex -0.010541 0.327603 -0.026463
   vertex -0.013231 0.32633 -0.026697
  endloop
 endfacet
 facet normal 0.0891868 -0.274301 -0.957499
  outer loop
   vertex -0.016636 0.332031 -0.031119
   vertex -0.013828 0.332944 -0.031119
   vertex -0.014478 0.330167 -0.030384
  endloop
 endfacet
 facet normal 0.262485 -0.303841 -0.915851
  outer loop
   vertex -0.013828 0.332944 -0.031119
   vertex -0.011607 0.33133 -0.029947
   vertex -0.014478 0.330167 -0.030384
  endloop
 endfacet
 facet normal 0.310374 -0.451949 -0.836307
  outer loop
   vertex -0.014478 0.330167 -0.030384
   vertex -0.011607 0.33133 -0.029947
   vertex -0.012242 0.328542 -0.028676
  endloop
 endfacet
 facet normal 0.467426 -0.452641 -0.759361
  outer loop
   vertex -0.011607 0.33133 -0.029947
   vertex -0.009765 0.329991 -0.028015
   vertex -0.012242 0.328542 -0.028676
  endloop
 endfacet
 facet normal 0.508799 -0.579247 -0.636864
  outer loop
   vertex -0.012242 0.328542 -0.028676
   vertex -0.009765 0.329991 -0.028015
   vertex -0.010541 0.327603 -0.026463
  endloop
 endfacet
 facet normal 0.61533 -0.560308 -0.554459
  outer loop
   vertex -0.009765 0.329991 -0.028015
   vertex -0.008624 0.329163 -0.025912
   vertex -0.010541 0.327603 -0.026463
  endloop
 endfacet
endsolid ExportedfromBlender-3.5.1
