solid ExportedfromBlender-3.5.1
 facet normal 0.0482486 -0.148392 -0.987751
  outer loop
   vertex -0.02469 0.19897 -0.03662
   vertex -0.022658 0.197494 -0.036299
   vertex -0.025466 0.196581 -0.036299
  endloop
 endfacet
 facet normal 0.723015 -0.412034 -0.554506
  outer loop
   vertex -0.017454 0.193713 -0.031092
   vertex -0.018595 0.194541 -0.033195
   vertex -0.016563 0.196018 -0.031643
  endloop
 endfacet
 facet normal -0.126271 -0.0917039 -0.987748
  outer loop
   vertex -0.02469 0.19897 -0.03662
   vertex -0.025466 0.196581 -0.036299
   vertex -0.027201 0.19897 -0.036299
  endloop
 endfacet
 facet normal -0.126271 0.0917039 -0.987748
  outer loop
   vertex -0.02469 0.19897 -0.03662
   vertex -0.027201 0.19897 -0.036299
   vertex -0.025466 0.201359 -0.036299
  endloop
 endfacet
 facet normal 0.0482486 0.148392 -0.987751
  outer loop
   vertex -0.02469 0.19897 -0.03662
   vertex -0.025466 0.201359 -0.036299
   vertex -0.022658 0.200446 -0.036299
  endloop
 endfacet
 facet normal 0.819189 -0.412026 -0.398954
  outer loop
   vertex -0.017454 0.193713 -0.031092
   vertex -0.016563 0.196018 -0.031643
   vertex -0.016083 0.194541 -0.029132
  endloop
 endfacet
 facet normal -0.138975 -0.90647 -0.398746
  outer loop
   vertex -0.027454 0.190464 -0.031092
   vertex -0.024986 0.190328 -0.031643
   vertex -0.026242 0.189416 -0.029132
  endloop
 endfacet
 facet normal -0.905177 -0.147939 -0.398459
  outer loop
   vertex -0.033634 0.19897 -0.031092
   vertex -0.033001 0.196581 -0.031643
   vertex -0.034256 0.197494 -0.029131
  endloop
 endfacet
 facet normal -0.420269 0.815078 -0.398776
  outer loop
   vertex -0.027454 0.207476 -0.031092
   vertex -0.02953 0.206136 -0.031643
   vertex -0.02905 0.207612 -0.029132
  endloop
 endfacet
 facet normal 0.645038 0.651744 -0.398942
  outer loop
   vertex -0.017454 0.204227 -0.031092
   vertex -0.019371 0.205787 -0.031643
   vertex -0.017818 0.205787 -0.029132
  endloop
 endfacet
 facet normal 0.771063 -0.560215 -0.302688
  outer loop
   vertex -0.017454 0.193713 -0.031092
   vertex -0.016083 0.194541 -0.029132
   vertex -0.017818 0.192153 -0.029132
  endloop
 endfacet
 facet normal -0.294416 -0.906493 -0.302638
  outer loop
   vertex -0.027454 0.190464 -0.031092
   vertex -0.026242 0.189416 -0.029132
   vertex -0.02905 0.190328 -0.029132
  endloop
 endfacet
 facet normal -0.9532 0 -0.302341
  outer loop
   vertex -0.033634 0.19897 -0.031092
   vertex -0.034256 0.197494 -0.029131
   vertex -0.034256 0.200446 -0.029131
  endloop
 endfacet
 facet normal -0.294416 0.906493 -0.302638
  outer loop
   vertex -0.027454 0.207476 -0.031092
   vertex -0.02905 0.207612 -0.029132
   vertex -0.026242 0.208524 -0.029132
  endloop
 endfacet
 facet normal 0.771063 0.560215 -0.302688
  outer loop
   vertex -0.017454 0.204227 -0.031092
   vertex -0.017818 0.205787 -0.029132
   vertex -0.016083 0.203399 -0.029132
  endloop
 endfacet
 facet normal 0.342493 -0.758552 0.554344
  outer loop
   vertex -0.021926 0.190464 -0.022148
   vertex -0.01985 0.191804 -0.021597
   vertex -0.022362 0.191804 -0.020045
  endloop
 endfacet
 facet normal -0.61533 -0.560308 0.554459
  outer loop
   vertex -0.031926 0.193713 -0.022148
   vertex -0.030009 0.192153 -0.021597
   vertex -0.030785 0.194541 -0.020045
  endloop
 endfacet
 facet normal -0.723015 0.412034 0.554506
  outer loop
   vertex -0.031926 0.204227 -0.022148
   vertex -0.032817 0.201922 -0.021597
   vertex -0.030785 0.203399 -0.020045
  endloop
 endfacet
 facet normal 0.168666 0.815046 0.554303
  outer loop
   vertex -0.021926 0.207476 -0.022148
   vertex -0.024394 0.207612 -0.021597
   vertex -0.022362 0.206136 -0.020045
  endloop
 endfacet
 facet normal 0.827124 0.091254 0.554562
  outer loop
   vertex -0.015746 0.19897 -0.022148
   vertex -0.016379 0.201359 -0.021597
   vertex -0.017156 0.19897 -0.020045
  endloop
 endfacet
 facet normal 0.126271 0.0917039 0.987748
  outer loop
   vertex -0.022179 0.19897 -0.016941
   vertex -0.023914 0.201359 -0.016941
   vertex -0.02469 0.19897 -0.01662
  endloop
 endfacet
 facet normal 0.390899 0.0914587 0.915878
  outer loop
   vertex -0.019433 0.19897 -0.018113
   vertex -0.021072 0.201599 -0.017676
   vertex -0.022179 0.19897 -0.016941
  endloop
 endfacet
 facet normal 0.644269 0.0913996 0.759317
  outer loop
   vertex -0.017156 0.19897 -0.020045
   vertex -0.018308 0.201599 -0.019384
   vertex -0.019433 0.19897 -0.018113
  endloop
 endfacet
 facet normal 0.233325 0.169451 0.957521
  outer loop
   vertex -0.022179 0.19897 -0.016941
   vertex -0.021072 0.201599 -0.017676
   vertex -0.023914 0.201359 -0.016941
  endloop
 endfacet
 facet normal 0.207851 0.343516 0.915858
  outer loop
   vertex -0.021072 0.201599 -0.017676
   vertex -0.023065 0.20397 -0.018113
   vertex -0.023914 0.201359 -0.016941
  endloop
 endfacet
 facet normal 0.516783 0.183167 0.836293
  outer loop
   vertex -0.019433 0.19897 -0.018113
   vertex -0.018308 0.201599 -0.019384
   vertex -0.021072 0.201599 -0.017676
  endloop
 endfacet
 facet normal 0.491058 0.356895 0.794662
  outer loop
   vertex -0.018308 0.201599 -0.019384
   vertex -0.020218 0.204227 -0.019384
   vertex -0.021072 0.201599 -0.017676
  endloop
 endfacet
 facet normal 0.334054 0.43492 0.836213
  outer loop
   vertex -0.021072 0.201599 -0.017676
   vertex -0.020218 0.204227 -0.019384
   vertex -0.023065 0.20397 -0.018113
  endloop
 endfacet
 facet normal 0.286233 0.584386 0.759318
  outer loop
   vertex -0.020218 0.204227 -0.019384
   vertex -0.022362 0.206136 -0.020045
   vertex -0.023065 0.20397 -0.018113
  endloop
 endfacet
 facet normal 0.751958 0.169318 0.637095
  outer loop
   vertex -0.017156 0.19897 -0.020045
   vertex -0.016379 0.201359 -0.021597
   vertex -0.018308 0.201599 -0.019384
  endloop
 endfacet
 facet normal 0.725985 0.343961 0.595514
  outer loop
   vertex -0.016379 0.201359 -0.021597
   vertex -0.017808 0.20397 -0.021363
   vertex -0.018308 0.201599 -0.019384
  endloop
 endfacet
 facet normal 0.598657 0.435097 0.672533
  outer loop
   vertex -0.018308 0.201599 -0.019384
   vertex -0.017808 0.20397 -0.021363
   vertex -0.020218 0.204227 -0.019384
  endloop
 endfacet
 facet normal 0.551379 0.584158 0.595601
  outer loop
   vertex -0.017808 0.20397 -0.021363
   vertex -0.01985 0.206136 -0.021597
   vertex -0.020218 0.204227 -0.019384
  endloop
 endfacet
 facet normal 0.393627 0.662685 0.637108
  outer loop
   vertex -0.020218 0.204227 -0.019384
   vertex -0.01985 0.206136 -0.021597
   vertex -0.022362 0.206136 -0.020045
  endloop
 endfacet
 facet normal 0.342493 0.758552 0.554344
  outer loop
   vertex -0.01985 0.206136 -0.021597
   vertex -0.021926 0.207476 -0.022148
   vertex -0.022362 0.206136 -0.020045
  endloop
 endfacet
 facet normal -0.0482486 0.148392 0.987751
  outer loop
   vertex -0.023914 0.201359 -0.016941
   vertex -0.026722 0.200446 -0.016941
   vertex -0.02469 0.19897 -0.01662
  endloop
 endfacet
 facet normal 0.0336945 0.400135 0.915836
  outer loop
   vertex -0.023065 0.20397 -0.018113
   vertex -0.026072 0.203223 -0.017676
   vertex -0.023914 0.201359 -0.016941
  endloop
 endfacet
 facet normal 0.112009 0.640965 0.759354
  outer loop
   vertex -0.022362 0.206136 -0.020045
   vertex -0.025218 0.205852 -0.019384
   vertex -0.023065 0.20397 -0.018113
  endloop
 endfacet
 facet normal -0.0891868 0.274301 0.957499
  outer loop
   vertex -0.023914 0.201359 -0.016941
   vertex -0.026072 0.203223 -0.017676
   vertex -0.026722 0.200446 -0.016941
  endloop
 endfacet
 facet normal -0.262485 0.303841 0.915851
  outer loop
   vertex -0.026072 0.203223 -0.017676
   vertex -0.028943 0.20206 -0.018113
   vertex -0.026722 0.200446 -0.016941
  endloop
 endfacet
 facet normal -0.0146149 0.548074 0.836302
  outer loop
   vertex -0.023065 0.20397 -0.018113
   vertex -0.025218 0.205852 -0.019384
   vertex -0.026072 0.203223 -0.017676
  endloop
 endfacet
 facet normal -0.187559 0.577248 0.794737
  outer loop
   vertex -0.025218 0.205852 -0.019384
   vertex -0.028308 0.204848 -0.019384
   vertex -0.026072 0.203223 -0.017676
  endloop
 endfacet
 facet normal -0.310374 0.451949 0.836307
  outer loop
   vertex -0.026072 0.203223 -0.017676
   vertex -0.028308 0.204848 -0.019384
   vertex -0.028943 0.20206 -0.018113
  endloop
 endfacet
 facet normal -0.467426 0.452641 0.759361
  outer loop
   vertex -0.028308 0.204848 -0.019384
   vertex -0.030785 0.203399 -0.020045
   vertex -0.028943 0.20206 -0.018113
  endloop
 endfacet
 facet normal 0.0710868 0.767617 0.636955
  outer loop
   vertex -0.022362 0.206136 -0.020045
   vertex -0.024394 0.207612 -0.021597
   vertex -0.025218 0.205852 -0.019384
  endloop
 endfacet
 facet normal -0.102735 0.796801 0.595444
  outer loop
   vertex -0.024394 0.207612 -0.021597
   vertex -0.027319 0.20706 -0.021363
   vertex -0.025218 0.205852 -0.019384
  endloop
 endfacet
 facet normal -0.228709 0.703897 0.672474
  outer loop
   vertex -0.025218 0.205852 -0.019384
   vertex -0.027319 0.20706 -0.021363
   vertex -0.028308 0.204848 -0.019384
  endloop
 endfacet
 facet normal -0.38541 0.704977 0.595371
  outer loop
   vertex -0.027319 0.20706 -0.021363
   vertex -0.030009 0.205787 -0.021597
   vertex -0.028308 0.204848 -0.019384
  endloop
 endfacet
 facet normal -0.508799 0.579247 0.636864
  outer loop
   vertex -0.028308 0.204848 -0.019384
   vertex -0.030009 0.205787 -0.021597
   vertex -0.030785 0.203399 -0.020045
  endloop
 endfacet
 facet normal -0.61533 0.560308 0.554459
  outer loop
   vertex -0.030009 0.205787 -0.021597
   vertex -0.031926 0.204227 -0.022148
   vertex -0.030785 0.203399 -0.020045
  endloop
 endfacet
 facet normal -0.156037 0 0.987751
  outer loop
   vertex -0.026722 0.200446 -0.016941
   vertex -0.026722 0.197494 -0.016941
   vertex -0.02469 0.19897 -0.01662
  endloop
 endfacet
 facet normal -0.370096 0.155752 0.915844
  outer loop
   vertex -0.028943 0.20206 -0.018113
   vertex -0.029162 0.19897 -0.017676
   vertex -0.026722 0.200446 -0.016941
  endloop
 endfacet
 facet normal -0.574948 0.304695 0.759339
  outer loop
   vertex -0.030785 0.203399 -0.020045
   vertex -0.031398 0.200595 -0.019384
   vertex -0.028943 0.20206 -0.018113
  endloop
 endfacet
 facet normal -0.288428 0 0.957502
  outer loop
   vertex -0.026722 0.200446 -0.016941
   vertex -0.029162 0.19897 -0.017676
   vertex -0.026722 0.197494 -0.016941
  endloop
 endfacet
 facet normal -0.370096 -0.155752 0.915844
  outer loop
   vertex -0.029162 0.19897 -0.017676
   vertex -0.028943 0.19588 -0.018113
   vertex -0.026722 0.197494 -0.016941
  endloop
 endfacet
 facet normal -0.525774 0.155534 0.836284
  outer loop
   vertex -0.028943 0.20206 -0.018113
   vertex -0.031398 0.200595 -0.019384
   vertex -0.029162 0.19897 -0.017676
  endloop
 endfacet
 facet normal -0.607028 0 0.794681
  outer loop
   vertex -0.031398 0.200595 -0.019384
   vertex -0.031398 0.197345 -0.019384
   vertex -0.029162 0.19897 -0.017676
  endloop
 endfacet
 facet normal -0.525774 -0.155534 0.836284
  outer loop
   vertex -0.029162 0.19897 -0.017676
   vertex -0.031398 0.197345 -0.019384
   vertex -0.028943 0.19588 -0.018113
  endloop
 endfacet
 facet normal -0.574948 -0.304695 0.759339
  outer loop
   vertex -0.031398 0.197345 -0.019384
   vertex -0.030785 0.194541 -0.020045
   vertex -0.028943 0.19588 -0.018113
  endloop
 endfacet
 facet normal -0.708089 0.304936 0.636886
  outer loop
   vertex -0.030785 0.203399 -0.020045
   vertex -0.032817 0.201922 -0.021597
   vertex -0.031398 0.200595 -0.019384
  endloop
 endfacet
 facet normal -0.789589 0.148568 0.59538
  outer loop
   vertex -0.032817 0.201922 -0.021597
   vertex -0.033196 0.19897 -0.021363
   vertex -0.031398 0.200595 -0.019384
  endloop
 endfacet
 facet normal -0.740143 0 0.672449
  outer loop
   vertex -0.031398 0.200595 -0.019384
   vertex -0.033196 0.19897 -0.021363
   vertex -0.031398 0.197345 -0.019384
  endloop
 endfacet
 facet normal -0.789589 -0.148568 0.59538
  outer loop
   vertex -0.033196 0.19897 -0.021363
   vertex -0.032817 0.196018 -0.021597
   vertex -0.031398 0.197345 -0.019384
  endloop
 endfacet
 facet normal -0.708089 -0.304936 0.636886
  outer loop
   vertex -0.031398 0.197345 -0.019384
   vertex -0.032817 0.196018 -0.021597
   vertex -0.030785 0.194541 -0.020045
  endloop
 endfacet
 facet normal -0.723015 -0.412034 0.554506
  outer loop
   vertex -0.032817 0.196018 -0.021597
   vertex -0.031926 0.193713 -0.022148
   vertex -0.030785 0.194541 -0.020045
  endloop
 endfacet
 facet normal -0.0482486 -0.148392 0.987751
  outer loop
   vertex -0.026722 0.197494 -0.016941
   vertex -0.023914 0.196581 -0.016941
   vertex -0.02469 0.19897 -0.01662
  endloop
 endfacet
 facet normal -0.262485 -0.303841 0.915851
  outer loop
   vertex -0.028943 0.19588 -0.018113
   vertex -0.026072 0.194717 -0.017676
   vertex -0.026722 0.197494 -0.016941
  endloop
 endfacet
 facet normal -0.467426 -0.452641 0.759361
  outer loop
   vertex -0.030785 0.194541 -0.020045
   vertex -0.028308 0.193092 -0.019384
   vertex -0.028943 0.19588 -0.018113
  endloop
 endfacet
 facet normal -0.0891868 -0.274301 0.957499
  outer loop
   vertex -0.026722 0.197494 -0.016941
   vertex -0.026072 0.194717 -0.017676
   vertex -0.023914 0.196581 -0.016941
  endloop
 endfacet
 facet normal 0.0336945 -0.400135 0.915836
  outer loop
   vertex -0.026072 0.194717 -0.017676
   vertex -0.023065 0.19397 -0.018113
   vertex -0.023914 0.196581 -0.016941
  endloop
 endfacet
 facet normal -0.310374 -0.451949 0.836307
  outer loop
   vertex -0.028943 0.19588 -0.018113
   vertex -0.028308 0.193092 -0.019384
   vertex -0.026072 0.194717 -0.017676
  endloop
 endfacet
 facet normal -0.187559 -0.577248 0.794737
  outer loop
   vertex -0.028308 0.193092 -0.019384
   vertex -0.025218 0.192088 -0.019384
   vertex -0.026072 0.194717 -0.017676
  endloop
 endfacet
 facet normal -0.0146149 -0.548074 0.836302
  outer loop
   vertex -0.026072 0.194717 -0.017676
   vertex -0.025218 0.192088 -0.019384
   vertex -0.023065 0.19397 -0.018113
  endloop
 endfacet
 facet normal 0.112009 -0.640965 0.759354
  outer loop
   vertex -0.025218 0.192088 -0.019384
   vertex -0.022362 0.191804 -0.020045
   vertex -0.023065 0.19397 -0.018113
  endloop
 endfacet
 facet normal -0.508799 -0.579247 0.636864
  outer loop
   vertex -0.030785 0.194541 -0.020045
   vertex -0.030009 0.192153 -0.021597
   vertex -0.028308 0.193092 -0.019384
  endloop
 endfacet
 facet normal -0.38541 -0.704977 0.595371
  outer loop
   vertex -0.030009 0.192153 -0.021597
   vertex -0.027319 0.19088 -0.021363
   vertex -0.028308 0.193092 -0.019384
  endloop
 endfacet
 facet normal -0.228709 -0.703897 0.672474
  outer loop
   vertex -0.028308 0.193092 -0.019384
   vertex -0.027319 0.19088 -0.021363
   vertex -0.025218 0.192088 -0.019384
  endloop
 endfacet
 facet normal -0.102735 -0.796801 0.595444
  outer loop
   vertex -0.027319 0.19088 -0.021363
   vertex -0.024394 0.190328 -0.021597
   vertex -0.025218 0.192088 -0.019384
  endloop
 endfacet
 facet normal 0.0710868 -0.767617 0.636955
  outer loop
   vertex -0.025218 0.192088 -0.019384
   vertex -0.024394 0.190328 -0.021597
   vertex -0.022362 0.191804 -0.020045
  endloop
 endfacet
 facet normal 0.168666 -0.815046 0.554303
  outer loop
   vertex -0.024394 0.190328 -0.021597
   vertex -0.021926 0.190464 -0.022148
   vertex -0.022362 0.191804 -0.020045
  endloop
 endfacet
 facet normal 0.126271 -0.0917039 0.987748
  outer loop
   vertex -0.023914 0.196581 -0.016941
   vertex -0.022179 0.19897 -0.016941
   vertex -0.02469 0.19897 -0.01662
  endloop
 endfacet
 facet normal 0.207851 -0.343516 0.915858
  outer loop
   vertex -0.023065 0.19397 -0.018113
   vertex -0.021072 0.196341 -0.017676
   vertex -0.023914 0.196581 -0.016941
  endloop
 endfacet
 facet normal 0.286233 -0.584386 0.759318
  outer loop
   vertex -0.022362 0.191804 -0.020045
   vertex -0.020218 0.193713 -0.019384
   vertex -0.023065 0.19397 -0.018113
  endloop
 endfacet
 facet normal 0.233325 -0.169451 0.957521
  outer loop
   vertex -0.023914 0.196581 -0.016941
   vertex -0.021072 0.196341 -0.017676
   vertex -0.022179 0.19897 -0.016941
  endloop
 endfacet
 facet normal 0.390899 -0.0914587 0.915878
  outer loop
   vertex -0.021072 0.196341 -0.017676
   vertex -0.019433 0.19897 -0.018113
   vertex -0.022179 0.19897 -0.016941
  endloop
 endfacet
 facet normal 0.334054 -0.43492 0.836213
  outer loop
   vertex -0.023065 0.19397 -0.018113
   vertex -0.020218 0.193713 -0.019384
   vertex -0.021072 0.196341 -0.017676
  endloop
 endfacet
 facet normal 0.491058 -0.356895 0.794662
  outer loop
   vertex -0.020218 0.193713 -0.019384
   vertex -0.018308 0.196341 -0.019384
   vertex -0.021072 0.196341 -0.017676
  endloop
 endfacet
 facet normal 0.516783 -0.183167 0.836293
  outer loop
   vertex -0.021072 0.196341 -0.017676
   vertex -0.018308 0.196341 -0.019384
   vertex -0.019433 0.19897 -0.018113
  endloop
 endfacet
 facet normal 0.644269 -0.0913996 0.759317
  outer loop
   vertex -0.018308 0.196341 -0.019384
   vertex -0.017156 0.19897 -0.020045
   vertex -0.019433 0.19897 -0.018113
  endloop
 endfacet
 facet normal 0.393627 -0.662685 0.637108
  outer loop
   vertex -0.022362 0.191804 -0.020045
   vertex -0.01985 0.191804 -0.021597
   vertex -0.020218 0.193713 -0.019384
  endloop
 endfacet
 facet normal 0.551379 -0.584158 0.595601
  outer loop
   vertex -0.01985 0.191804 -0.021597
   vertex -0.017808 0.19397 -0.021363
   vertex -0.020218 0.193713 -0.019384
  endloop
 endfacet
 facet normal 0.598657 -0.435097 0.672533
  outer loop
   vertex -0.020218 0.193713 -0.019384
   vertex -0.017808 0.19397 -0.021363
   vertex -0.018308 0.196341 -0.019384
  endloop
 endfacet
 facet normal 0.725985 -0.343961 0.595514
  outer loop
   vertex -0.017808 0.19397 -0.021363
   vertex -0.016379 0.196581 -0.021597
   vertex -0.018308 0.196341 -0.019384
  endloop
 endfacet
 facet normal 0.751958 -0.169318 0.637095
  outer loop
   vertex -0.018308 0.196341 -0.019384
   vertex -0.016379 0.196581 -0.021597
   vertex -0.017156 0.19897 -0.020045
  endloop
 endfacet
 facet normal 0.827124 -0.091254 0.554562
  outer loop
   vertex -0.016379 0.196581 -0.021597
   vertex -0.015746 0.19897 -0.022148
   vertex -0.017156 0.19897 -0.020045
  endloop
 endfacet
 facet normal 0.905177 0.147939 0.398459
  outer loop
   vertex -0.015124 0.200446 -0.024109
   vertex -0.016379 0.201359 -0.021597
   vertex -0.015746 0.19897 -0.022148
  endloop
 endfacet
 facet normal 0.93657 0.303801 0.17476
  outer loop
   vertex -0.015179 0.20206 -0.02662
   vertex -0.016072 0.203223 -0.023856
   vertex -0.015124 0.200446 -0.024109
  endloop
 endfacet
 facet normal 0.888212 0.452708 -0.078331
  outer loop
   vertex -0.016083 0.203399 -0.029132
   vertex -0.0166 0.204848 -0.02662
   vertex -0.015179 0.20206 -0.02662
  endloop
 endfacet
 facet normal 0.89641 0.274294 0.348155
  outer loop
   vertex -0.015124 0.200446 -0.024109
   vertex -0.016072 0.203223 -0.023856
   vertex -0.016379 0.201359 -0.021597
  endloop
 endfacet
 facet normal 0.803858 0.400541 0.439749
  outer loop
   vertex -0.016072 0.203223 -0.023856
   vertex -0.017808 0.20397 -0.021363
   vertex -0.016379 0.201359 -0.021597
  endloop
 endfacet
 facet normal 0.886806 0.451991 0.0963284
  outer loop
   vertex -0.015179 0.20206 -0.02662
   vertex -0.0166 0.204848 -0.02662
   vertex -0.016072 0.203223 -0.023856
  endloop
 endfacet
 facet normal 0.794662 0.577331 0.18762
  outer loop
   vertex -0.0166 0.204848 -0.02662
   vertex -0.017982 0.205852 -0.023856
   vertex -0.016072 0.203223 -0.023856
  endloop
 endfacet
 facet normal 0.754436 0.548107 0.361117
  outer loop
   vertex -0.016072 0.203223 -0.023856
   vertex -0.017982 0.205852 -0.023856
   vertex -0.017808 0.20397 -0.021363
  endloop
 endfacet
 facet normal 0.629279 0.640767 0.439803
  outer loop
   vertex -0.017982 0.205852 -0.023856
   vertex -0.01985 0.206136 -0.021597
   vertex -0.017808 0.20397 -0.021363
  endloop
 endfacet
 facet normal 0.797233 0.579229 -0.170037
  outer loop
   vertex -0.016083 0.203399 -0.029132
   vertex -0.017818 0.205787 -0.029132
   vertex -0.0166 0.204848 -0.02662
  endloop
 endfacet
 facet normal 0.704936 0.704936 -0.0782949
  outer loop
   vertex -0.017818 0.205787 -0.029132
   vertex -0.018812 0.20706 -0.02662
   vertex -0.0166 0.204848 -0.02662
  endloop
 endfacet
 facet normal 0.703824 0.703824 0.0962537
  outer loop
   vertex -0.0166 0.204848 -0.02662
   vertex -0.018812 0.20706 -0.02662
   vertex -0.017982 0.205852 -0.023856
  endloop
 endfacet
 facet normal 0.578519 0.796783 0.174509
  outer loop
   vertex -0.018812 0.20706 -0.02662
   vertex -0.02033 0.207612 -0.024108
   vertex -0.017982 0.205852 -0.023856
  endloop
 endfacet
 facet normal 0.537986 0.767602 0.348366
  outer loop
   vertex -0.017982 0.205852 -0.023856
   vertex -0.02033 0.207612 -0.024108
   vertex -0.01985 0.206136 -0.021597
  endloop
 endfacet
 facet normal 0.420269 0.815078 0.398776
  outer loop
   vertex -0.02033 0.207612 -0.024108
   vertex -0.021926 0.207476 -0.022148
   vertex -0.01985 0.206136 -0.021597
  endloop
 endfacet
 facet normal 0.138975 0.90647 0.398746
  outer loop
   vertex -0.023138 0.208524 -0.024108
   vertex -0.024394 0.207612 -0.021597
   vertex -0.021926 0.207476 -0.022148
  endloop
 endfacet
 facet normal 0.000555151 0.98466 0.174481
  outer loop
   vertex -0.02469 0.20897 -0.02662
   vertex -0.026072 0.208481 -0.023856
   vertex -0.023138 0.208524 -0.024108
  endloop
 endfacet
 facet normal -0.155824 0.984657 -0.07855
  outer loop
   vertex -0.026242 0.208524 -0.029132
   vertex -0.02778 0.208481 -0.02662
   vertex -0.02469 0.20897 -0.02662
  endloop
 endfacet
 facet normal 0.0161962 0.937175 0.348485
  outer loop
   vertex -0.023138 0.208524 -0.024108
   vertex -0.026072 0.208481 -0.023856
   vertex -0.024394 0.207612 -0.021597
  endloop
 endfacet
 facet normal -0.132412 0.888171 0.440021
  outer loop
   vertex -0.026072 0.208481 -0.023856
   vertex -0.027319 0.20706 -0.021363
   vertex -0.024394 0.207612 -0.021597
  endloop
 endfacet
 facet normal -0.155583 0.983133 0.0961419
  outer loop
   vertex -0.02469 0.20897 -0.02662
   vertex -0.02778 0.208481 -0.02662
   vertex -0.026072 0.208481 -0.023856
  endloop
 endfacet
 facet normal -0.303796 0.934059 0.187729
  outer loop
   vertex -0.02778 0.208481 -0.02662
   vertex -0.029162 0.207476 -0.023856
   vertex -0.026072 0.208481 -0.023856
  endloop
 endfacet
 facet normal -0.288415 0.886769 0.361189
  outer loop
   vertex -0.026072 0.208481 -0.023856
   vertex -0.029162 0.207476 -0.023856
   vertex -0.027319 0.20706 -0.021363
  endloop
 endfacet
 facet normal -0.415138 0.796394 0.439791
  outer loop
   vertex -0.029162 0.207476 -0.023856
   vertex -0.030009 0.205787 -0.021597
   vertex -0.027319 0.20706 -0.021363
  endloop
 endfacet
 facet normal -0.304389 0.937197 -0.170322
  outer loop
   vertex -0.026242 0.208524 -0.029132
   vertex -0.02905 0.207612 -0.029132
   vertex -0.02778 0.208481 -0.02662
  endloop
 endfacet
 facet normal -0.452705 0.888208 -0.0783901
  outer loop
   vertex -0.02905 0.207612 -0.029132
   vertex -0.030568 0.20706 -0.02662
   vertex -0.02778 0.208481 -0.02662
  endloop
 endfacet
 facet normal -0.451986 0.886796 0.0964489
  outer loop
   vertex -0.02778 0.208481 -0.02662
   vertex -0.030568 0.20706 -0.02662
   vertex -0.029162 0.207476 -0.023856
  endloop
 endfacet
 facet normal -0.578874 0.796508 0.174584
  outer loop
   vertex -0.030568 0.20706 -0.02662
   vertex -0.031562 0.205787 -0.024108
   vertex -0.029162 0.207476 -0.023856
  endloop
 endfacet
 facet normal -0.563623 0.748876 0.348589
  outer loop
   vertex -0.029162 0.207476 -0.023856
   vertex -0.031562 0.205787 -0.024108
   vertex -0.030009 0.205787 -0.021597
  endloop
 endfacet
 facet normal -0.645038 0.651744 0.398942
  outer loop
   vertex -0.031562 0.205787 -0.024108
   vertex -0.031926 0.204227 -0.022148
   vertex -0.030009 0.205787 -0.021597
  endloop
 endfacet
 facet normal -0.819189 0.412026 0.398954
  outer loop
   vertex -0.033297 0.203399 -0.024108
   vertex -0.032817 0.201922 -0.021597
   vertex -0.031926 0.204227 -0.022148
  endloop
 endfacet
 facet normal -0.936352 0.304548 0.174631
  outer loop
   vertex -0.034201 0.20206 -0.02662
   vertex -0.034162 0.200595 -0.023856
   vertex -0.033297 0.203399 -0.024108
  endloop
 endfacet
 facet normal -0.984653 0.155824 -0.0785916
  outer loop
   vertex -0.034256 0.200446 -0.029131
   vertex -0.03469 0.19897 -0.02662
   vertex -0.034201 0.20206 -0.02662
  endloop
 endfacet
 facet normal -0.886309 0.304753 0.348685
  outer loop
   vertex -0.033297 0.203399 -0.024108
   vertex -0.034162 0.200595 -0.023856
   vertex -0.032817 0.201922 -0.021597
  endloop
 endfacet
 facet normal -0.885615 0.148581 0.440011
  outer loop
   vertex -0.034162 0.200595 -0.023856
   vertex -0.033196 0.19897 -0.021363
   vertex -0.032817 0.201922 -0.021597
  endloop
 endfacet
 facet normal -0.983115 0.15558 0.0963335
  outer loop
   vertex -0.034201 0.20206 -0.02662
   vertex -0.03469 0.19897 -0.02662
   vertex -0.034162 0.200595 -0.023856
  endloop
 endfacet
 facet normal -0.982239 0 0.187634
  outer loop
   vertex -0.03469 0.19897 -0.02662
   vertex -0.034162 0.197345 -0.023856
   vertex -0.034162 0.200595 -0.023856
  endloop
 endfacet
 facet normal -0.932446 0 0.361309
  outer loop
   vertex -0.034162 0.200595 -0.023856
   vertex -0.034162 0.197345 -0.023856
   vertex -0.033196 0.19897 -0.021363
  endloop
 endfacet
 facet normal -0.885615 -0.148581 0.440011
  outer loop
   vertex -0.034162 0.197345 -0.023856
   vertex -0.032817 0.196018 -0.021597
   vertex -0.033196 0.19897 -0.021363
  endloop
 endfacet
 facet normal -0.98539 -0 -0.170314
  outer loop
   vertex -0.034256 0.200446 -0.029131
   vertex -0.034256 0.197494 -0.029131
   vertex -0.03469 0.19897 -0.02662
  endloop
 endfacet
 facet normal -0.984653 -0.155824 -0.0785916
  outer loop
   vertex -0.034256 0.197494 -0.029131
   vertex -0.034201 0.19588 -0.02662
   vertex -0.03469 0.19897 -0.02662
  endloop
 endfacet
 facet normal -0.983115 -0.15558 0.0963335
  outer loop
   vertex -0.03469 0.19897 -0.02662
   vertex -0.034201 0.19588 -0.02662
   vertex -0.034162 0.197345 -0.023856
  endloop
 endfacet
 facet normal -0.936352 -0.304548 0.174631
  outer loop
   vertex -0.034201 0.19588 -0.02662
   vertex -0.033297 0.194541 -0.024108
   vertex -0.034162 0.197345 -0.023856
  endloop
 endfacet
 facet normal -0.886309 -0.304753 0.348685
  outer loop
   vertex -0.034162 0.197345 -0.023856
   vertex -0.033297 0.194541 -0.024108
   vertex -0.032817 0.196018 -0.021597
  endloop
 endfacet
 facet normal -0.819189 -0.412026 0.398954
  outer loop
   vertex -0.033297 0.194541 -0.024108
   vertex -0.031926 0.193713 -0.022148
   vertex -0.032817 0.196018 -0.021597
  endloop
 endfacet
 facet normal -0.645038 -0.651744 0.398942
  outer loop
   vertex -0.031562 0.192153 -0.024108
   vertex -0.030009 0.192153 -0.021597
   vertex -0.031926 0.193713 -0.022148
  endloop
 endfacet
 facet normal -0.578874 -0.796508 0.174584
  outer loop
   vertex -0.030568 0.19088 -0.02662
   vertex -0.029162 0.190464 -0.023856
   vertex -0.031562 0.192153 -0.024108
  endloop
 endfacet
 facet normal -0.452705 -0.888208 -0.0783901
  outer loop
   vertex -0.02905 0.190328 -0.029132
   vertex -0.02778 0.189459 -0.02662
   vertex -0.030568 0.19088 -0.02662
  endloop
 endfacet
 facet normal -0.563623 -0.748876 0.348589
  outer loop
   vertex -0.031562 0.192153 -0.024108
   vertex -0.029162 0.190464 -0.023856
   vertex -0.030009 0.192153 -0.021597
  endloop
 endfacet
 facet normal -0.415138 -0.796394 0.439791
  outer loop
   vertex -0.029162 0.190464 -0.023856
   vertex -0.027319 0.19088 -0.021363
   vertex -0.030009 0.192153 -0.021597
  endloop
 endfacet
 facet normal -0.451986 -0.886796 0.0964489
  outer loop
   vertex -0.030568 0.19088 -0.02662
   vertex -0.02778 0.189459 -0.02662
   vertex -0.029162 0.190464 -0.023856
  endloop
 endfacet
 facet normal -0.303796 -0.934059 0.187729
  outer loop
   vertex -0.02778 0.189459 -0.02662
   vertex -0.026072 0.189459 -0.023856
   vertex -0.029162 0.190464 -0.023856
  endloop
 endfacet
 facet normal -0.288415 -0.886769 0.361189
  outer loop
   vertex -0.029162 0.190464 -0.023856
   vertex -0.026072 0.189459 -0.023856
   vertex -0.027319 0.19088 -0.021363
  endloop
 endfacet
 facet normal -0.132412 -0.888171 0.440021
  outer loop
   vertex -0.026072 0.189459 -0.023856
   vertex -0.024394 0.190328 -0.021597
   vertex -0.027319 0.19088 -0.021363
  endloop
 endfacet
 facet normal -0.304389 -0.937197 -0.170322
  outer loop
   vertex -0.02905 0.190328 -0.029132
   vertex -0.026242 0.189416 -0.029132
   vertex -0.02778 0.189459 -0.02662
  endloop
 endfacet
 facet normal -0.155824 -0.984657 -0.07855
  outer loop
   vertex -0.026242 0.189416 -0.029132
   vertex -0.02469 0.18897 -0.02662
   vertex -0.02778 0.189459 -0.02662
  endloop
 endfacet
 facet normal -0.155583 -0.983133 0.0961419
  outer loop
   vertex -0.02778 0.189459 -0.02662
   vertex -0.02469 0.18897 -0.02662
   vertex -0.026072 0.189459 -0.023856
  endloop
 endfacet
 facet normal 0.000555151 -0.98466 0.174481
  outer loop
   vertex -0.02469 0.18897 -0.02662
   vertex -0.023138 0.189416 -0.024108
   vertex -0.026072 0.189459 -0.023856
  endloop
 endfacet
 facet normal 0.0161962 -0.937175 0.348485
  outer loop
   vertex -0.026072 0.189459 -0.023856
   vertex -0.023138 0.189416 -0.024108
   vertex -0.024394 0.190328 -0.021597
  endloop
 endfacet
 facet normal 0.138975 -0.90647 0.398746
  outer loop
   vertex -0.023138 0.189416 -0.024108
   vertex -0.021926 0.190464 -0.022148
   vertex -0.024394 0.190328 -0.021597
  endloop
 endfacet
 facet normal 0.420269 -0.815078 0.398776
  outer loop
   vertex -0.02033 0.190328 -0.024108
   vertex -0.01985 0.191804 -0.021597
   vertex -0.021926 0.190464 -0.022148
  endloop
 endfacet
 facet normal 0.578519 -0.796783 0.174509
  outer loop
   vertex -0.018812 0.19088 -0.02662
   vertex -0.017982 0.192088 -0.023856
   vertex -0.02033 0.190328 -0.024108
  endloop
 endfacet
 facet normal 0.704936 -0.704936 -0.0782949
  outer loop
   vertex -0.017818 0.192153 -0.029132
   vertex -0.0166 0.193092 -0.02662
   vertex -0.018812 0.19088 -0.02662
  endloop
 endfacet
 facet normal 0.537986 -0.767602 0.348366
  outer loop
   vertex -0.02033 0.190328 -0.024108
   vertex -0.017982 0.192088 -0.023856
   vertex -0.01985 0.191804 -0.021597
  endloop
 endfacet
 facet normal 0.629279 -0.640767 0.439803
  outer loop
   vertex -0.017982 0.192088 -0.023856
   vertex -0.017808 0.19397 -0.021363
   vertex -0.01985 0.191804 -0.021597
  endloop
 endfacet
 facet normal 0.703824 -0.703824 0.0962537
  outer loop
   vertex -0.018812 0.19088 -0.02662
   vertex -0.0166 0.193092 -0.02662
   vertex -0.017982 0.192088 -0.023856
  endloop
 endfacet
 facet normal 0.794662 -0.577331 0.18762
  outer loop
   vertex -0.0166 0.193092 -0.02662
   vertex -0.016072 0.194717 -0.023856
   vertex -0.017982 0.192088 -0.023856
  endloop
 endfacet
 facet normal 0.754436 -0.548107 0.361117
  outer loop
   vertex -0.017982 0.192088 -0.023856
   vertex -0.016072 0.194717 -0.023856
   vertex -0.017808 0.19397 -0.021363
  endloop
 endfacet
 facet normal 0.803858 -0.400541 0.439749
  outer loop
   vertex -0.016072 0.194717 -0.023856
   vertex -0.016379 0.196581 -0.021597
   vertex -0.017808 0.19397 -0.021363
  endloop
 endfacet
 facet normal 0.797233 -0.579229 -0.170037
  outer loop
   vertex -0.017818 0.192153 -0.029132
   vertex -0.016083 0.194541 -0.029132
   vertex -0.0166 0.193092 -0.02662
  endloop
 endfacet
 facet normal 0.888212 -0.452708 -0.078331
  outer loop
   vertex -0.016083 0.194541 -0.029132
   vertex -0.015179 0.19588 -0.02662
   vertex -0.0166 0.193092 -0.02662
  endloop
 endfacet
 facet normal 0.886806 -0.451991 0.0963284
  outer loop
   vertex -0.0166 0.193092 -0.02662
   vertex -0.015179 0.19588 -0.02662
   vertex -0.016072 0.194717 -0.023856
  endloop
 endfacet
 facet normal 0.93657 -0.303801 0.17476
  outer loop
   vertex -0.015179 0.19588 -0.02662
   vertex -0.015124 0.197494 -0.024109
   vertex -0.016072 0.194717 -0.023856
  endloop
 endfacet
 facet normal 0.89641 -0.274294 0.348155
  outer loop
   vertex -0.016072 0.194717 -0.023856
   vertex -0.015124 0.197494 -0.024109
   vertex -0.016379 0.196581 -0.021597
  endloop
 endfacet
 facet normal 0.905177 -0.147939 0.398459
  outer loop
   vertex -0.015124 0.197494 -0.024109
   vertex -0.015746 0.19897 -0.022148
   vertex -0.016379 0.196581 -0.021597
  endloop
 endfacet
 facet normal 0.294416 0.906493 0.302638
  outer loop
   vertex -0.02033 0.207612 -0.024108
   vertex -0.023138 0.208524 -0.024108
   vertex -0.021926 0.207476 -0.022148
  endloop
 endfacet
 facet normal 0.452705 0.888208 0.0783901
  outer loop
   vertex -0.018812 0.20706 -0.02662
   vertex -0.0216 0.208481 -0.02662
   vertex -0.02033 0.207612 -0.024108
  endloop
 endfacet
 facet normal 0.578874 0.796508 -0.174584
  outer loop
   vertex -0.017818 0.205787 -0.029132
   vertex -0.020218 0.207476 -0.029384
   vertex -0.018812 0.20706 -0.02662
  endloop
 endfacet
 facet normal 0.304389 0.937197 0.170322
  outer loop
   vertex -0.02033 0.207612 -0.024108
   vertex -0.0216 0.208481 -0.02662
   vertex -0.023138 0.208524 -0.024108
  endloop
 endfacet
 facet normal 0.155824 0.984657 0.07855
  outer loop
   vertex -0.0216 0.208481 -0.02662
   vertex -0.02469 0.20897 -0.02662
   vertex -0.023138 0.208524 -0.024108
  endloop
 endfacet
 facet normal 0.451986 0.886796 -0.0964489
  outer loop
   vertex -0.018812 0.20706 -0.02662
   vertex -0.020218 0.207476 -0.029384
   vertex -0.0216 0.208481 -0.02662
  endloop
 endfacet
 facet normal 0.303796 0.934059 -0.187729
  outer loop
   vertex -0.020218 0.207476 -0.029384
   vertex -0.023308 0.208481 -0.029384
   vertex -0.0216 0.208481 -0.02662
  endloop
 endfacet
 facet normal 0.155583 0.983133 -0.0961419
  outer loop
   vertex -0.0216 0.208481 -0.02662
   vertex -0.023308 0.208481 -0.029384
   vertex -0.02469 0.20897 -0.02662
  endloop
 endfacet
 facet normal -0.000555151 0.98466 -0.174481
  outer loop
   vertex -0.023308 0.208481 -0.029384
   vertex -0.026242 0.208524 -0.029132
   vertex -0.02469 0.20897 -0.02662
  endloop
 endfacet
 facet normal 0.563623 0.748876 -0.348589
  outer loop
   vertex -0.017818 0.205787 -0.029132
   vertex -0.019371 0.205787 -0.031643
   vertex -0.020218 0.207476 -0.029384
  endloop
 endfacet
 facet normal 0.415138 0.796394 -0.439791
  outer loop
   vertex -0.019371 0.205787 -0.031643
   vertex -0.022061 0.20706 -0.031877
   vertex -0.020218 0.207476 -0.029384
  endloop
 endfacet
 facet normal 0.288415 0.886769 -0.361189
  outer loop
   vertex -0.020218 0.207476 -0.029384
   vertex -0.022061 0.20706 -0.031877
   vertex -0.023308 0.208481 -0.029384
  endloop
 endfacet
 facet normal 0.132412 0.888171 -0.440021
  outer loop
   vertex -0.022061 0.20706 -0.031877
   vertex -0.024986 0.207612 -0.031643
   vertex -0.023308 0.208481 -0.029384
  endloop
 endfacet
 facet normal -0.0161962 0.937175 -0.348485
  outer loop
   vertex -0.023308 0.208481 -0.029384
   vertex -0.024986 0.207612 -0.031643
   vertex -0.026242 0.208524 -0.029132
  endloop
 endfacet
 facet normal -0.138975 0.90647 -0.398746
  outer loop
   vertex -0.024986 0.207612 -0.031643
   vertex -0.027454 0.207476 -0.031092
   vertex -0.026242 0.208524 -0.029132
  endloop
 endfacet
 facet normal -0.771063 0.560215 0.302688
  outer loop
   vertex -0.031562 0.205787 -0.024108
   vertex -0.033297 0.203399 -0.024108
   vertex -0.031926 0.204227 -0.022148
  endloop
 endfacet
 facet normal -0.704936 0.704936 0.0782949
  outer loop
   vertex -0.030568 0.20706 -0.02662
   vertex -0.03278 0.204848 -0.02662
   vertex -0.031562 0.205787 -0.024108
  endloop
 endfacet
 facet normal -0.578519 0.796783 -0.174509
  outer loop
   vertex -0.02905 0.207612 -0.029132
   vertex -0.031398 0.205852 -0.029384
   vertex -0.030568 0.20706 -0.02662
  endloop
 endfacet
 facet normal -0.797233 0.579229 0.170037
  outer loop
   vertex -0.031562 0.205787 -0.024108
   vertex -0.03278 0.204848 -0.02662
   vertex -0.033297 0.203399 -0.024108
  endloop
 endfacet
 facet normal -0.888212 0.452708 0.078331
  outer loop
   vertex -0.03278 0.204848 -0.02662
   vertex -0.034201 0.20206 -0.02662
   vertex -0.033297 0.203399 -0.024108
  endloop
 endfacet
 facet normal -0.703824 0.703824 -0.0962537
  outer loop
   vertex -0.030568 0.20706 -0.02662
   vertex -0.031398 0.205852 -0.029384
   vertex -0.03278 0.204848 -0.02662
  endloop
 endfacet
 facet normal -0.794662 0.577331 -0.18762
  outer loop
   vertex -0.031398 0.205852 -0.029384
   vertex -0.033308 0.203223 -0.029384
   vertex -0.03278 0.204848 -0.02662
  endloop
 endfacet
 facet normal -0.886806 0.451991 -0.0963284
  outer loop
   vertex -0.03278 0.204848 -0.02662
   vertex -0.033308 0.203223 -0.029384
   vertex -0.034201 0.20206 -0.02662
  endloop
 endfacet
 facet normal -0.93657 0.303801 -0.17476
  outer loop
   vertex -0.033308 0.203223 -0.029384
   vertex -0.034256 0.200446 -0.029131
   vertex -0.034201 0.20206 -0.02662
  endloop
 endfacet
 facet normal -0.537986 0.767602 -0.348366
  outer loop
   vertex -0.02905 0.207612 -0.029132
   vertex -0.02953 0.206136 -0.031643
   vertex -0.031398 0.205852 -0.029384
  endloop
 endfacet
 facet normal -0.629279 0.640767 -0.439803
  outer loop
   vertex -0.02953 0.206136 -0.031643
   vertex -0.031572 0.20397 -0.031877
   vertex -0.031398 0.205852 -0.029384
  endloop
 endfacet
 facet normal -0.754436 0.548107 -0.361117
  outer loop
   vertex -0.031398 0.205852 -0.029384
   vertex -0.031572 0.20397 -0.031877
   vertex -0.033308 0.203223 -0.029384
  endloop
 endfacet
 facet normal -0.803858 0.400541 -0.439749
  outer loop
   vertex -0.031572 0.20397 -0.031877
   vertex -0.033001 0.201359 -0.031643
   vertex -0.033308 0.203223 -0.029384
  endloop
 endfacet
 facet normal -0.89641 0.274294 -0.348155
  outer loop
   vertex -0.033308 0.203223 -0.029384
   vertex -0.033001 0.201359 -0.031643
   vertex -0.034256 0.200446 -0.029131
  endloop
 endfacet
 facet normal -0.905177 0.147939 -0.398459
  outer loop
   vertex -0.033001 0.201359 -0.031643
   vertex -0.033634 0.19897 -0.031092
   vertex -0.034256 0.200446 -0.029131
  endloop
 endfacet
 facet normal -0.771063 -0.560215 0.302688
  outer loop
   vertex -0.033297 0.194541 -0.024108
   vertex -0.031562 0.192153 -0.024108
   vertex -0.031926 0.193713 -0.022148
  endloop
 endfacet
 facet normal -0.888212 -0.452708 0.078331
  outer loop
   vertex -0.034201 0.19588 -0.02662
   vertex -0.03278 0.193092 -0.02662
   vertex -0.033297 0.194541 -0.024108
  endloop
 endfacet
 facet normal -0.93657 -0.303801 -0.17476
  outer loop
   vertex -0.034256 0.197494 -0.029131
   vertex -0.033308 0.194717 -0.029384
   vertex -0.034201 0.19588 -0.02662
  endloop
 endfacet
 facet normal -0.797233 -0.579229 0.170037
  outer loop
   vertex -0.033297 0.194541 -0.024108
   vertex -0.03278 0.193092 -0.02662
   vertex -0.031562 0.192153 -0.024108
  endloop
 endfacet
 facet normal -0.704936 -0.704936 0.0782949
  outer loop
   vertex -0.03278 0.193092 -0.02662
   vertex -0.030568 0.19088 -0.02662
   vertex -0.031562 0.192153 -0.024108
  endloop
 endfacet
 facet normal -0.886806 -0.451991 -0.0963284
  outer loop
   vertex -0.034201 0.19588 -0.02662
   vertex -0.033308 0.194717 -0.029384
   vertex -0.03278 0.193092 -0.02662
  endloop
 endfacet
 facet normal -0.794662 -0.577331 -0.18762
  outer loop
   vertex -0.033308 0.194717 -0.029384
   vertex -0.031398 0.192088 -0.029384
   vertex -0.03278 0.193092 -0.02662
  endloop
 endfacet
 facet normal -0.703824 -0.703824 -0.0962537
  outer loop
   vertex -0.03278 0.193092 -0.02662
   vertex -0.031398 0.192088 -0.029384
   vertex -0.030568 0.19088 -0.02662
  endloop
 endfacet
 facet normal -0.578519 -0.796783 -0.174509
  outer loop
   vertex -0.031398 0.192088 -0.029384
   vertex -0.02905 0.190328 -0.029132
   vertex -0.030568 0.19088 -0.02662
  endloop
 endfacet
 facet normal -0.89641 -0.274294 -0.348155
  outer loop
   vertex -0.034256 0.197494 -0.029131
   vertex -0.033001 0.196581 -0.031643
   vertex -0.033308 0.194717 -0.029384
  endloop
 endfacet
 facet normal -0.803858 -0.400541 -0.439749
  outer loop
   vertex -0.033001 0.196581 -0.031643
   vertex -0.031572 0.19397 -0.031877
   vertex -0.033308 0.194717 -0.029384
  endloop
 endfacet
 facet normal -0.754436 -0.548107 -0.361117
  outer loop
   vertex -0.033308 0.194717 -0.029384
   vertex -0.031572 0.19397 -0.031877
   vertex -0.031398 0.192088 -0.029384
  endloop
 endfacet
 facet normal -0.629279 -0.640767 -0.439803
  outer loop
   vertex -0.031572 0.19397 -0.031877
   vertex -0.02953 0.191804 -0.031643
   vertex -0.031398 0.192088 -0.029384
  endloop
 endfacet
 facet normal -0.537986 -0.767602 -0.348366
  outer loop
   vertex -0.031398 0.192088 -0.029384
   vertex -0.02953 0.191804 -0.031643
   vertex -0.02905 0.190328 -0.029132
  endloop
 endfacet
 facet normal -0.420269 -0.815078 -0.398776
  outer loop
   vertex -0.02953 0.191804 -0.031643
   vertex -0.027454 0.190464 -0.031092
   vertex -0.02905 0.190328 -0.029132
  endloop
 endfacet
 facet normal 0.294416 -0.906493 0.302638
  outer loop
   vertex -0.023138 0.189416 -0.024108
   vertex -0.02033 0.190328 -0.024108
   vertex -0.021926 0.190464 -0.022148
  endloop
 endfacet
 facet normal 0.155824 -0.984657 0.07855
  outer loop
   vertex -0.02469 0.18897 -0.02662
   vertex -0.0216 0.189459 -0.02662
   vertex -0.023138 0.189416 -0.024108
  endloop
 endfacet
 facet normal -0.000555151 -0.98466 -0.174481
  outer loop
   vertex -0.026242 0.189416 -0.029132
   vertex -0.023308 0.189459 -0.029384
   vertex -0.02469 0.18897 -0.02662
  endloop
 endfacet
 facet normal 0.304389 -0.937197 0.170322
  outer loop
   vertex -0.023138 0.189416 -0.024108
   vertex -0.0216 0.189459 -0.02662
   vertex -0.02033 0.190328 -0.024108
  endloop
 endfacet
 facet normal 0.452705 -0.888208 0.0783901
  outer loop
   vertex -0.0216 0.189459 -0.02662
   vertex -0.018812 0.19088 -0.02662
   vertex -0.02033 0.190328 -0.024108
  endloop
 endfacet
 facet normal 0.155583 -0.983133 -0.0961419
  outer loop
   vertex -0.02469 0.18897 -0.02662
   vertex -0.023308 0.189459 -0.029384
   vertex -0.0216 0.189459 -0.02662
  endloop
 endfacet
 facet normal 0.303796 -0.934059 -0.187729
  outer loop
   vertex -0.023308 0.189459 -0.029384
   vertex -0.020218 0.190464 -0.029384
   vertex -0.0216 0.189459 -0.02662
  endloop
 endfacet
 facet normal 0.451986 -0.886796 -0.0964489
  outer loop
   vertex -0.0216 0.189459 -0.02662
   vertex -0.020218 0.190464 -0.029384
   vertex -0.018812 0.19088 -0.02662
  endloop
 endfacet
 facet normal 0.578874 -0.796508 -0.174584
  outer loop
   vertex -0.020218 0.190464 -0.029384
   vertex -0.017818 0.192153 -0.029132
   vertex -0.018812 0.19088 -0.02662
  endloop
 endfacet
 facet normal -0.0161962 -0.937175 -0.348485
  outer loop
   vertex -0.026242 0.189416 -0.029132
   vertex -0.024986 0.190328 -0.031643
   vertex -0.023308 0.189459 -0.029384
  endloop
 endfacet
 facet normal 0.132412 -0.888171 -0.440021
  outer loop
   vertex -0.024986 0.190328 -0.031643
   vertex -0.022061 0.19088 -0.031877
   vertex -0.023308 0.189459 -0.029384
  endloop
 endfacet
 facet normal 0.288415 -0.886769 -0.361189
  outer loop
   vertex -0.023308 0.189459 -0.029384
   vertex -0.022061 0.19088 -0.031877
   vertex -0.020218 0.190464 -0.029384
  endloop
 endfacet
 facet normal 0.415138 -0.796394 -0.439791
  outer loop
   vertex -0.022061 0.19088 -0.031877
   vertex -0.019371 0.192153 -0.031643
   vertex -0.020218 0.190464 -0.029384
  endloop
 endfacet
 facet normal 0.563623 -0.748876 -0.348589
  outer loop
   vertex -0.020218 0.190464 -0.029384
   vertex -0.019371 0.192153 -0.031643
   vertex -0.017818 0.192153 -0.029132
  endloop
 endfacet
 facet normal 0.645038 -0.651744 -0.398942
  outer loop
   vertex -0.019371 0.192153 -0.031643
   vertex -0.017454 0.193713 -0.031092
   vertex -0.017818 0.192153 -0.029132
  endloop
 endfacet
 facet normal 0.9532 -0 0.302341
  outer loop
   vertex -0.015124 0.197494 -0.024109
   vertex -0.015124 0.200446 -0.024109
   vertex -0.015746 0.19897 -0.022148
  endloop
 endfacet
 facet normal 0.984653 -0.155824 0.0785916
  outer loop
   vertex -0.015179 0.19588 -0.02662
   vertex -0.01469 0.19897 -0.02662
   vertex -0.015124 0.197494 -0.024109
  endloop
 endfacet
 facet normal 0.936352 -0.304548 -0.174631
  outer loop
   vertex -0.016083 0.194541 -0.029132
   vertex -0.015218 0.197345 -0.029384
   vertex -0.015179 0.19588 -0.02662
  endloop
 endfacet
 facet normal 0.98539 -0 0.170314
  outer loop
   vertex -0.015124 0.197494 -0.024109
   vertex -0.01469 0.19897 -0.02662
   vertex -0.015124 0.200446 -0.024109
  endloop
 endfacet
 facet normal 0.984653 0.155824 0.0785916
  outer loop
   vertex -0.01469 0.19897 -0.02662
   vertex -0.015179 0.20206 -0.02662
   vertex -0.015124 0.200446 -0.024109
  endloop
 endfacet
 facet normal 0.983115 -0.15558 -0.0963335
  outer loop
   vertex -0.015179 0.19588 -0.02662
   vertex -0.015218 0.197345 -0.029384
   vertex -0.01469 0.19897 -0.02662
  endloop
 endfacet
 facet normal 0.982239 0 -0.187634
  outer loop
   vertex -0.015218 0.197345 -0.029384
   vertex -0.015218 0.200595 -0.029384
   vertex -0.01469 0.19897 -0.02662
  endloop
 endfacet
 facet normal 0.983115 0.15558 -0.0963335
  outer loop
   vertex -0.01469 0.19897 -0.02662
   vertex -0.015218 0.200595 -0.029384
   vertex -0.015179 0.20206 -0.02662
  endloop
 endfacet
 facet normal 0.936352 0.304548 -0.174631
  outer loop
   vertex -0.015218 0.200595 -0.029384
   vertex -0.016083 0.203399 -0.029132
   vertex -0.015179 0.20206 -0.02662
  endloop
 endfacet
 facet normal 0.886309 -0.304753 -0.348685
  outer loop
   vertex -0.016083 0.194541 -0.029132
   vertex -0.016563 0.196018 -0.031643
   vertex -0.015218 0.197345 -0.029384
  endloop
 endfacet
 facet normal 0.885615 -0.148581 -0.440011
  outer loop
   vertex -0.016563 0.196018 -0.031643
   vertex -0.016184 0.19897 -0.031877
   vertex -0.015218 0.197345 -0.029384
  endloop
 endfacet
 facet normal 0.932446 0 -0.361309
  outer loop
   vertex -0.015218 0.197345 -0.029384
   vertex -0.016184 0.19897 -0.031877
   vertex -0.015218 0.200595 -0.029384
  endloop
 endfacet
 facet normal 0.885615 0.148581 -0.440011
  outer loop
   vertex -0.016184 0.19897 -0.031877
   vertex -0.016563 0.201922 -0.031643
   vertex -0.015218 0.200595 -0.029384
  endloop
 endfacet
 facet normal 0.886309 0.304753 -0.348685
  outer loop
   vertex -0.015218 0.200595 -0.029384
   vertex -0.016563 0.201922 -0.031643
   vertex -0.016083 0.203399 -0.029132
  endloop
 endfacet
 facet normal 0.819189 0.412026 -0.398954
  outer loop
   vertex -0.016563 0.201922 -0.031643
   vertex -0.017454 0.204227 -0.031092
   vertex -0.016083 0.203399 -0.029132
  endloop
 endfacet
 facet normal 0.61533 0.560308 -0.554459
  outer loop
   vertex -0.018595 0.203399 -0.033195
   vertex -0.019371 0.205787 -0.031643
   vertex -0.017454 0.204227 -0.031092
  endloop
 endfacet
 facet normal 0.467426 0.452641 -0.759361
  outer loop
   vertex -0.020437 0.20206 -0.035127
   vertex -0.021072 0.204848 -0.033856
   vertex -0.018595 0.203399 -0.033195
  endloop
 endfacet
 facet normal 0.262485 0.303841 -0.915851
  outer loop
   vertex -0.022658 0.200446 -0.036299
   vertex -0.023308 0.203223 -0.035564
   vertex -0.020437 0.20206 -0.035127
  endloop
 endfacet
 facet normal 0.508799 0.579247 -0.636864
  outer loop
   vertex -0.018595 0.203399 -0.033195
   vertex -0.021072 0.204848 -0.033856
   vertex -0.019371 0.205787 -0.031643
  endloop
 endfacet
 facet normal 0.38541 0.704977 -0.595371
  outer loop
   vertex -0.021072 0.204848 -0.033856
   vertex -0.022061 0.20706 -0.031877
   vertex -0.019371 0.205787 -0.031643
  endloop
 endfacet
 facet normal 0.310374 0.451949 -0.836307
  outer loop
   vertex -0.020437 0.20206 -0.035127
   vertex -0.023308 0.203223 -0.035564
   vertex -0.021072 0.204848 -0.033856
  endloop
 endfacet
 facet normal 0.187559 0.577248 -0.794737
  outer loop
   vertex -0.023308 0.203223 -0.035564
   vertex -0.024162 0.205852 -0.033856
   vertex -0.021072 0.204848 -0.033856
  endloop
 endfacet
 facet normal 0.228709 0.703897 -0.672474
  outer loop
   vertex -0.021072 0.204848 -0.033856
   vertex -0.024162 0.205852 -0.033856
   vertex -0.022061 0.20706 -0.031877
  endloop
 endfacet
 facet normal 0.102735 0.796801 -0.595444
  outer loop
   vertex -0.024162 0.205852 -0.033856
   vertex -0.024986 0.207612 -0.031643
   vertex -0.022061 0.20706 -0.031877
  endloop
 endfacet
 facet normal 0.0891868 0.274301 -0.957499
  outer loop
   vertex -0.022658 0.200446 -0.036299
   vertex -0.025466 0.201359 -0.036299
   vertex -0.023308 0.203223 -0.035564
  endloop
 endfacet
 facet normal -0.0336945 0.400135 -0.915836
  outer loop
   vertex -0.025466 0.201359 -0.036299
   vertex -0.026315 0.20397 -0.035127
   vertex -0.023308 0.203223 -0.035564
  endloop
 endfacet
 facet normal 0.0146149 0.548074 -0.836302
  outer loop
   vertex -0.023308 0.203223 -0.035564
   vertex -0.026315 0.20397 -0.035127
   vertex -0.024162 0.205852 -0.033856
  endloop
 endfacet
 facet normal -0.112009 0.640965 -0.759354
  outer loop
   vertex -0.026315 0.20397 -0.035127
   vertex -0.027018 0.206136 -0.033195
   vertex -0.024162 0.205852 -0.033856
  endloop
 endfacet
 facet normal -0.0710868 0.767617 -0.636955
  outer loop
   vertex -0.024162 0.205852 -0.033856
   vertex -0.027018 0.206136 -0.033195
   vertex -0.024986 0.207612 -0.031643
  endloop
 endfacet
 facet normal -0.168666 0.815046 -0.554303
  outer loop
   vertex -0.027018 0.206136 -0.033195
   vertex -0.027454 0.207476 -0.031092
   vertex -0.024986 0.207612 -0.031643
  endloop
 endfacet
 facet normal -0.342493 0.758552 -0.554344
  outer loop
   vertex -0.027018 0.206136 -0.033195
   vertex -0.02953 0.206136 -0.031643
   vertex -0.027454 0.207476 -0.031092
  endloop
 endfacet
 facet normal -0.286233 0.584386 -0.759318
  outer loop
   vertex -0.026315 0.20397 -0.035127
   vertex -0.029162 0.204227 -0.033856
   vertex -0.027018 0.206136 -0.033195
  endloop
 endfacet
 facet normal -0.207851 0.343516 -0.915858
  outer loop
   vertex -0.025466 0.201359 -0.036299
   vertex -0.028308 0.201599 -0.035564
   vertex -0.026315 0.20397 -0.035127
  endloop
 endfacet
 facet normal -0.393627 0.662685 -0.637108
  outer loop
   vertex -0.027018 0.206136 -0.033195
   vertex -0.029162 0.204227 -0.033856
   vertex -0.02953 0.206136 -0.031643
  endloop
 endfacet
 facet normal -0.551379 0.584158 -0.595601
  outer loop
   vertex -0.029162 0.204227 -0.033856
   vertex -0.031572 0.20397 -0.031877
   vertex -0.02953 0.206136 -0.031643
  endloop
 endfacet
 facet normal -0.334054 0.43492 -0.836213
  outer loop
   vertex -0.026315 0.20397 -0.035127
   vertex -0.028308 0.201599 -0.035564
   vertex -0.029162 0.204227 -0.033856
  endloop
 endfacet
 facet normal -0.491058 0.356895 -0.794662
  outer loop
   vertex -0.028308 0.201599 -0.035564
   vertex -0.031072 0.201599 -0.033856
   vertex -0.029162 0.204227 -0.033856
  endloop
 endfacet
 facet normal -0.598657 0.435097 -0.672533
  outer loop
   vertex -0.029162 0.204227 -0.033856
   vertex -0.031072 0.201599 -0.033856
   vertex -0.031572 0.20397 -0.031877
  endloop
 endfacet
 facet normal -0.725985 0.343961 -0.595514
  outer loop
   vertex -0.031072 0.201599 -0.033856
   vertex -0.033001 0.201359 -0.031643
   vertex -0.031572 0.20397 -0.031877
  endloop
 endfacet
 facet normal -0.233325 0.169451 -0.957521
  outer loop
   vertex -0.025466 0.201359 -0.036299
   vertex -0.027201 0.19897 -0.036299
   vertex -0.028308 0.201599 -0.035564
  endloop
 endfacet
 facet normal -0.390899 0.0914587 -0.915878
  outer loop
   vertex -0.027201 0.19897 -0.036299
   vertex -0.029947 0.19897 -0.035127
   vertex -0.028308 0.201599 -0.035564
  endloop
 endfacet
 facet normal -0.516783 0.183167 -0.836293
  outer loop
   vertex -0.028308 0.201599 -0.035564
   vertex -0.029947 0.19897 -0.035127
   vertex -0.031072 0.201599 -0.033856
  endloop
 endfacet
 facet normal -0.644269 0.0913996 -0.759317
  outer loop
   vertex -0.029947 0.19897 -0.035127
   vertex -0.032224 0.19897 -0.033195
   vertex -0.031072 0.201599 -0.033856
  endloop
 endfacet
 facet normal -0.751958 0.169318 -0.637095
  outer loop
   vertex -0.031072 0.201599 -0.033856
   vertex -0.032224 0.19897 -0.033195
   vertex -0.033001 0.201359 -0.031643
  endloop
 endfacet
 facet normal -0.827124 0.091254 -0.554562
  outer loop
   vertex -0.032224 0.19897 -0.033195
   vertex -0.033634 0.19897 -0.031092
   vertex -0.033001 0.201359 -0.031643
  endloop
 endfacet
 facet normal -0.827124 -0.091254 -0.554562
  outer loop
   vertex -0.032224 0.19897 -0.033195
   vertex -0.033001 0.196581 -0.031643
   vertex -0.033634 0.19897 -0.031092
  endloop
 endfacet
 facet normal -0.644269 -0.0913996 -0.759317
  outer loop
   vertex -0.029947 0.19897 -0.035127
   vertex -0.031072 0.196341 -0.033856
   vertex -0.032224 0.19897 -0.033195
  endloop
 endfacet
 facet normal -0.390899 -0.0914587 -0.915878
  outer loop
   vertex -0.027201 0.19897 -0.036299
   vertex -0.028308 0.196341 -0.035564
   vertex -0.029947 0.19897 -0.035127
  endloop
 endfacet
 facet normal -0.751958 -0.169318 -0.637095
  outer loop
   vertex -0.032224 0.19897 -0.033195
   vertex -0.031072 0.196341 -0.033856
   vertex -0.033001 0.196581 -0.031643
  endloop
 endfacet
 facet normal -0.725985 -0.343961 -0.595514
  outer loop
   vertex -0.031072 0.196341 -0.033856
   vertex -0.031572 0.19397 -0.031877
   vertex -0.033001 0.196581 -0.031643
  endloop
 endfacet
 facet normal -0.516783 -0.183167 -0.836293
  outer loop
   vertex -0.029947 0.19897 -0.035127
   vertex -0.028308 0.196341 -0.035564
   vertex -0.031072 0.196341 -0.033856
  endloop
 endfacet
 facet normal -0.491058 -0.356895 -0.794662
  outer loop
   vertex -0.028308 0.196341 -0.035564
   vertex -0.029162 0.193713 -0.033856
   vertex -0.031072 0.196341 -0.033856
  endloop
 endfacet
 facet normal -0.598657 -0.435097 -0.672533
  outer loop
   vertex -0.031072 0.196341 -0.033856
   vertex -0.029162 0.193713 -0.033856
   vertex -0.031572 0.19397 -0.031877
  endloop
 endfacet
 facet normal -0.551379 -0.584158 -0.595601
  outer loop
   vertex -0.029162 0.193713 -0.033856
   vertex -0.02953 0.191804 -0.031643
   vertex -0.031572 0.19397 -0.031877
  endloop
 endfacet
 facet normal -0.233325 -0.169451 -0.957521
  outer loop
   vertex -0.027201 0.19897 -0.036299
   vertex -0.025466 0.196581 -0.036299
   vertex -0.028308 0.196341 -0.035564
  endloop
 endfacet
 facet normal -0.207851 -0.343516 -0.915858
  outer loop
   vertex -0.025466 0.196581 -0.036299
   vertex -0.026315 0.19397 -0.035127
   vertex -0.028308 0.196341 -0.035564
  endloop
 endfacet
 facet normal -0.334054 -0.43492 -0.836213
  outer loop
   vertex -0.028308 0.196341 -0.035564
   vertex -0.026315 0.19397 -0.035127
   vertex -0.029162 0.193713 -0.033856
  endloop
 endfacet
 facet normal -0.286233 -0.584386 -0.759318
  outer loop
   vertex -0.026315 0.19397 -0.035127
   vertex -0.027018 0.191804 -0.033195
   vertex -0.029162 0.193713 -0.033856
  endloop
 endfacet
 facet normal -0.393627 -0.662685 -0.637108
  outer loop
   vertex -0.029162 0.193713 -0.033856
   vertex -0.027018 0.191804 -0.033195
   vertex -0.02953 0.191804 -0.031643
  endloop
 endfacet
 facet normal -0.342493 -0.758552 -0.554344
  outer loop
   vertex -0.027018 0.191804 -0.033195
   vertex -0.027454 0.190464 -0.031092
   vertex -0.02953 0.191804 -0.031643
  endloop
 endfacet
 facet normal 0.723015 0.412034 -0.554506
  outer loop
   vertex -0.016563 0.201922 -0.031643
   vertex -0.018595 0.203399 -0.033195
   vertex -0.017454 0.204227 -0.031092
  endloop
 endfacet
 facet normal 0.789589 0.148568 -0.59538
  outer loop
   vertex -0.016184 0.19897 -0.031877
   vertex -0.017982 0.200595 -0.033856
   vertex -0.016563 0.201922 -0.031643
  endloop
 endfacet
 facet normal 0.789589 -0.148568 -0.59538
  outer loop
   vertex -0.016563 0.196018 -0.031643
   vertex -0.017982 0.197345 -0.033856
   vertex -0.016184 0.19897 -0.031877
  endloop
 endfacet
 facet normal 0.708089 0.304936 -0.636886
  outer loop
   vertex -0.016563 0.201922 -0.031643
   vertex -0.017982 0.200595 -0.033856
   vertex -0.018595 0.203399 -0.033195
  endloop
 endfacet
 facet normal 0.574948 0.304695 -0.759339
  outer loop
   vertex -0.017982 0.200595 -0.033856
   vertex -0.020437 0.20206 -0.035127
   vertex -0.018595 0.203399 -0.033195
  endloop
 endfacet
 facet normal 0.740143 0 -0.672449
  outer loop
   vertex -0.016184 0.19897 -0.031877
   vertex -0.017982 0.197345 -0.033856
   vertex -0.017982 0.200595 -0.033856
  endloop
 endfacet
 facet normal 0.607028 0 -0.794681
  outer loop
   vertex -0.017982 0.197345 -0.033856
   vertex -0.020218 0.19897 -0.035564
   vertex -0.017982 0.200595 -0.033856
  endloop
 endfacet
 facet normal 0.525774 0.155534 -0.836284
  outer loop
   vertex -0.017982 0.200595 -0.033856
   vertex -0.020218 0.19897 -0.035564
   vertex -0.020437 0.20206 -0.035127
  endloop
 endfacet
 facet normal 0.370096 0.155752 -0.915844
  outer loop
   vertex -0.020218 0.19897 -0.035564
   vertex -0.022658 0.200446 -0.036299
   vertex -0.020437 0.20206 -0.035127
  endloop
 endfacet
 facet normal 0.708089 -0.304936 -0.636886
  outer loop
   vertex -0.016563 0.196018 -0.031643
   vertex -0.018595 0.194541 -0.033195
   vertex -0.017982 0.197345 -0.033856
  endloop
 endfacet
 facet normal 0.574948 -0.304695 -0.759339
  outer loop
   vertex -0.018595 0.194541 -0.033195
   vertex -0.020437 0.19588 -0.035127
   vertex -0.017982 0.197345 -0.033856
  endloop
 endfacet
 facet normal 0.525774 -0.155534 -0.836284
  outer loop
   vertex -0.017982 0.197345 -0.033856
   vertex -0.020437 0.19588 -0.035127
   vertex -0.020218 0.19897 -0.035564
  endloop
 endfacet
 facet normal 0.370096 -0.155752 -0.915844
  outer loop
   vertex -0.020437 0.19588 -0.035127
   vertex -0.022658 0.197494 -0.036299
   vertex -0.020218 0.19897 -0.035564
  endloop
 endfacet
 facet normal 0.288428 0 -0.957502
  outer loop
   vertex -0.020218 0.19897 -0.035564
   vertex -0.022658 0.197494 -0.036299
   vertex -0.022658 0.200446 -0.036299
  endloop
 endfacet
 facet normal 0.156037 0 -0.987751
  outer loop
   vertex -0.022658 0.197494 -0.036299
   vertex -0.02469 0.19897 -0.03662
   vertex -0.022658 0.200446 -0.036299
  endloop
 endfacet
 facet normal -0.168666 -0.815046 -0.554303
  outer loop
   vertex -0.027018 0.191804 -0.033195
   vertex -0.024986 0.190328 -0.031643
   vertex -0.027454 0.190464 -0.031092
  endloop
 endfacet
 facet normal -0.112009 -0.640965 -0.759354
  outer loop
   vertex -0.026315 0.19397 -0.035127
   vertex -0.024162 0.192088 -0.033856
   vertex -0.027018 0.191804 -0.033195
  endloop
 endfacet
 facet normal -0.0336945 -0.400135 -0.915836
  outer loop
   vertex -0.025466 0.196581 -0.036299
   vertex -0.023308 0.194717 -0.035564
   vertex -0.026315 0.19397 -0.035127
  endloop
 endfacet
 facet normal -0.0710868 -0.767617 -0.636955
  outer loop
   vertex -0.027018 0.191804 -0.033195
   vertex -0.024162 0.192088 -0.033856
   vertex -0.024986 0.190328 -0.031643
  endloop
 endfacet
 facet normal 0.102735 -0.796801 -0.595444
  outer loop
   vertex -0.024162 0.192088 -0.033856
   vertex -0.022061 0.19088 -0.031877
   vertex -0.024986 0.190328 -0.031643
  endloop
 endfacet
 facet normal 0.0146149 -0.548074 -0.836302
  outer loop
   vertex -0.026315 0.19397 -0.035127
   vertex -0.023308 0.194717 -0.035564
   vertex -0.024162 0.192088 -0.033856
  endloop
 endfacet
 facet normal 0.187559 -0.577248 -0.794737
  outer loop
   vertex -0.023308 0.194717 -0.035564
   vertex -0.021072 0.193092 -0.033856
   vertex -0.024162 0.192088 -0.033856
  endloop
 endfacet
 facet normal 0.228709 -0.703897 -0.672474
  outer loop
   vertex -0.024162 0.192088 -0.033856
   vertex -0.021072 0.193092 -0.033856
   vertex -0.022061 0.19088 -0.031877
  endloop
 endfacet
 facet normal 0.38541 -0.704977 -0.595371
  outer loop
   vertex -0.021072 0.193092 -0.033856
   vertex -0.019371 0.192153 -0.031643
   vertex -0.022061 0.19088 -0.031877
  endloop
 endfacet
 facet normal 0.0891868 -0.274301 -0.957499
  outer loop
   vertex -0.025466 0.196581 -0.036299
   vertex -0.022658 0.197494 -0.036299
   vertex -0.023308 0.194717 -0.035564
  endloop
 endfacet
 facet normal 0.262485 -0.303841 -0.915851
  outer loop
   vertex -0.022658 0.197494 -0.036299
   vertex -0.020437 0.19588 -0.035127
   vertex -0.023308 0.194717 -0.035564
  endloop
 endfacet
 facet normal 0.310374 -0.451949 -0.836307
  outer loop
   vertex -0.023308 0.194717 -0.035564
   vertex -0.020437 0.19588 -0.035127
   vertex -0.021072 0.193092 -0.033856
  endloop
 endfacet
 facet normal 0.467426 -0.452641 -0.759361
  outer loop
   vertex -0.020437 0.19588 -0.035127
   vertex -0.018595 0.194541 -0.033195
   vertex -0.021072 0.193092 -0.033856
  endloop
 endfacet
 facet normal 0.508799 -0.579247 -0.636864
  outer loop
   vertex -0.021072 0.193092 -0.033856
   vertex -0.018595 0.194541 -0.033195
   vertex -0.019371 0.192153 -0.031643
  endloop
 endfacet
 facet normal 0.61533 -0.560308 -0.554459
  outer loop
   vertex -0.018595 0.194541 -0.033195
   vertex -0.017454 0.193713 -0.031092
   vertex -0.019371 0.192153 -0.031643
  endloop
 endfacet
endsolid ExportedfromBlender-3.5.1
