solid ExportedfromBlender-3.5.1
 facet normal 0.0482486 -0.148392 -0.987751
  outer loop
   vertex 0.00941 0.17617 -0.0316
   vertex 0.011442 0.174694 -0.031279
   vertex 0.008634 0.173781 -0.031279
  endloop
 endfacet
 facet normal 0.723015 -0.412034 -0.554506
  outer loop
   vertex 0.016646 0.170913 -0.026072
   vertex 0.015505 0.171741 -0.028175
   vertex 0.017537 0.173218 -0.026623
  endloop
 endfacet
 facet normal -0.126271 -0.0917039 -0.987748
  outer loop
   vertex 0.00941 0.17617 -0.0316
   vertex 0.008634 0.173781 -0.031279
   vertex 0.006899 0.17617 -0.031279
  endloop
 endfacet
 facet normal -0.126271 0.0917039 -0.987748
  outer loop
   vertex 0.00941 0.17617 -0.0316
   vertex 0.006899 0.17617 -0.031279
   vertex 0.008634 0.178559 -0.031279
  endloop
 endfacet
 facet normal 0.0482486 0.148392 -0.987751
  outer loop
   vertex 0.00941 0.17617 -0.0316
   vertex 0.008634 0.178559 -0.031279
   vertex 0.011442 0.177646 -0.031279
  endloop
 endfacet
 facet normal 0.819189 -0.412026 -0.398954
  outer loop
   vertex 0.016646 0.170913 -0.026072
   vertex 0.017537 0.173218 -0.026623
   vertex 0.018017 0.171741 -0.024112
  endloop
 endfacet
 facet normal -0.138975 -0.90647 -0.398746
  outer loop
   vertex 0.006646 0.167664 -0.026072
   vertex 0.009114 0.167528 -0.026623
   vertex 0.007858 0.166616 -0.024112
  endloop
 endfacet
 facet normal -0.905177 -0.147939 -0.398459
  outer loop
   vertex 0.000466 0.17617 -0.026072
   vertex 0.001099 0.173781 -0.026623
   vertex -0.000156 0.174694 -0.024111
  endloop
 endfacet
 facet normal -0.420269 0.815078 -0.398776
  outer loop
   vertex 0.006646 0.184676 -0.026072
   vertex 0.00457 0.183336 -0.026623
   vertex 0.00505 0.184812 -0.024112
  endloop
 endfacet
 facet normal 0.645038 0.651744 -0.398942
  outer loop
   vertex 0.016646 0.181427 -0.026072
   vertex 0.014729 0.182987 -0.026623
   vertex 0.016282 0.182987 -0.024112
  endloop
 endfacet
 facet normal 0.771063 -0.560215 -0.302688
  outer loop
   vertex 0.016646 0.170913 -0.026072
   vertex 0.018017 0.171741 -0.024112
   vertex 0.016282 0.169353 -0.024112
  endloop
 endfacet
 facet normal -0.294416 -0.906493 -0.302638
  outer loop
   vertex 0.006646 0.167664 -0.026072
   vertex 0.007858 0.166616 -0.024112
   vertex 0.00505 0.167528 -0.024112
  endloop
 endfacet
 facet normal -0.9532 0 -0.302341
  outer loop
   vertex 0.000466 0.17617 -0.026072
   vertex -0.000156 0.174694 -0.024111
   vertex -0.000156 0.177646 -0.024111
  endloop
 endfacet
 facet normal -0.294416 0.906493 -0.302638
  outer loop
   vertex 0.006646 0.184676 -0.026072
   vertex 0.00505 0.184812 -0.024112
   vertex 0.007858 0.185724 -0.024112
  endloop
 endfacet
 facet normal 0.771063 0.560215 -0.302688
  outer loop
   vertex 0.016646 0.181427 -0.026072
   vertex 0.016282 0.182987 -0.024112
   vertex 0.018017 0.180599 -0.024112
  endloop
 endfacet
 facet normal 0.342493 -0.758552 0.554344
  outer loop
   vertex 0.012174 0.167664 -0.017128
   vertex 0.01425 0.169004 -0.016577
   vertex 0.011738 0.169004 -0.015025
  endloop
 endfacet
 facet normal -0.61533 -0.560308 0.554459
  outer loop
   vertex 0.002174 0.170913 -0.017128
   vertex 0.004091 0.169353 -0.016577
   vertex 0.003315 0.171741 -0.015025
  endloop
 endfacet
 facet normal -0.723015 0.412034 0.554506
  outer loop
   vertex 0.002174 0.181427 -0.017128
   vertex 0.001283 0.179122 -0.016577
   vertex 0.003315 0.180599 -0.015025
  endloop
 endfacet
 facet normal 0.168666 0.815046 0.554303
  outer loop
   vertex 0.012174 0.184676 -0.017128
   vertex 0.009706 0.184812 -0.016577
   vertex 0.011738 0.183336 -0.015025
  endloop
 endfacet
 facet normal 0.827124 0.091254 0.554562
  outer loop
   vertex 0.018354 0.17617 -0.017128
   vertex 0.017721 0.178559 -0.016577
   vertex 0.016944 0.17617 -0.015025
  endloop
 endfacet
 facet normal 0.126271 0.0917039 0.987748
  outer loop
   vertex 0.011921 0.17617 -0.011921
   vertex 0.010186 0.178559 -0.011921
   vertex 0.00941 0.17617 -0.0116
  endloop
 endfacet
 facet normal 0.390899 0.0914587 0.915878
  outer loop
   vertex 0.014667 0.17617 -0.013093
   vertex 0.013028 0.178799 -0.012656
   vertex 0.011921 0.17617 -0.011921
  endloop
 endfacet
 facet normal 0.644269 0.0913996 0.759317
  outer loop
   vertex 0.016944 0.17617 -0.015025
   vertex 0.015792 0.178799 -0.014364
   vertex 0.014667 0.17617 -0.013093
  endloop
 endfacet
 facet normal 0.233325 0.169451 0.957521
  outer loop
   vertex 0.011921 0.17617 -0.011921
   vertex 0.013028 0.178799 -0.012656
   vertex 0.010186 0.178559 -0.011921
  endloop
 endfacet
 facet normal 0.207851 0.343516 0.915858
  outer loop
   vertex 0.013028 0.178799 -0.012656
   vertex 0.011035 0.18117 -0.013093
   vertex 0.010186 0.178559 -0.011921
  endloop
 endfacet
 facet normal 0.516783 0.183167 0.836293
  outer loop
   vertex 0.014667 0.17617 -0.013093
   vertex 0.015792 0.178799 -0.014364
   vertex 0.013028 0.178799 -0.012656
  endloop
 endfacet
 facet normal 0.491058 0.356895 0.794662
  outer loop
   vertex 0.015792 0.178799 -0.014364
   vertex 0.013882 0.181427 -0.014364
   vertex 0.013028 0.178799 -0.012656
  endloop
 endfacet
 facet normal 0.334054 0.43492 0.836213
  outer loop
   vertex 0.013028 0.178799 -0.012656
   vertex 0.013882 0.181427 -0.014364
   vertex 0.011035 0.18117 -0.013093
  endloop
 endfacet
 facet normal 0.286233 0.584386 0.759318
  outer loop
   vertex 0.013882 0.181427 -0.014364
   vertex 0.011738 0.183336 -0.015025
   vertex 0.011035 0.18117 -0.013093
  endloop
 endfacet
 facet normal 0.751958 0.169318 0.637095
  outer loop
   vertex 0.016944 0.17617 -0.015025
   vertex 0.017721 0.178559 -0.016577
   vertex 0.015792 0.178799 -0.014364
  endloop
 endfacet
 facet normal 0.725985 0.343961 0.595514
  outer loop
   vertex 0.017721 0.178559 -0.016577
   vertex 0.016292 0.18117 -0.016343
   vertex 0.015792 0.178799 -0.014364
  endloop
 endfacet
 facet normal 0.598657 0.435097 0.672533
  outer loop
   vertex 0.015792 0.178799 -0.014364
   vertex 0.016292 0.18117 -0.016343
   vertex 0.013882 0.181427 -0.014364
  endloop
 endfacet
 facet normal 0.551379 0.584158 0.595601
  outer loop
   vertex 0.016292 0.18117 -0.016343
   vertex 0.01425 0.183336 -0.016577
   vertex 0.013882 0.181427 -0.014364
  endloop
 endfacet
 facet normal 0.393627 0.662685 0.637108
  outer loop
   vertex 0.013882 0.181427 -0.014364
   vertex 0.01425 0.183336 -0.016577
   vertex 0.011738 0.183336 -0.015025
  endloop
 endfacet
 facet normal 0.342493 0.758552 0.554344
  outer loop
   vertex 0.01425 0.183336 -0.016577
   vertex 0.012174 0.184676 -0.017128
   vertex 0.011738 0.183336 -0.015025
  endloop
 endfacet
 facet normal -0.0482486 0.148392 0.987751
  outer loop
   vertex 0.010186 0.178559 -0.011921
   vertex 0.007378 0.177646 -0.011921
   vertex 0.00941 0.17617 -0.0116
  endloop
 endfacet
 facet normal 0.0336945 0.400135 0.915836
  outer loop
   vertex 0.011035 0.18117 -0.013093
   vertex 0.008028 0.180423 -0.012656
   vertex 0.010186 0.178559 -0.011921
  endloop
 endfacet
 facet normal 0.112009 0.640965 0.759354
  outer loop
   vertex 0.011738 0.183336 -0.015025
   vertex 0.008882 0.183052 -0.014364
   vertex 0.011035 0.18117 -0.013093
  endloop
 endfacet
 facet normal -0.0891868 0.274301 0.957499
  outer loop
   vertex 0.010186 0.178559 -0.011921
   vertex 0.008028 0.180423 -0.012656
   vertex 0.007378 0.177646 -0.011921
  endloop
 endfacet
 facet normal -0.262485 0.303841 0.915851
  outer loop
   vertex 0.008028 0.180423 -0.012656
   vertex 0.005157 0.17926 -0.013093
   vertex 0.007378 0.177646 -0.011921
  endloop
 endfacet
 facet normal -0.0146149 0.548074 0.836302
  outer loop
   vertex 0.011035 0.18117 -0.013093
   vertex 0.008882 0.183052 -0.014364
   vertex 0.008028 0.180423 -0.012656
  endloop
 endfacet
 facet normal -0.187559 0.577248 0.794737
  outer loop
   vertex 0.008882 0.183052 -0.014364
   vertex 0.005792 0.182048 -0.014364
   vertex 0.008028 0.180423 -0.012656
  endloop
 endfacet
 facet normal -0.310374 0.451949 0.836307
  outer loop
   vertex 0.008028 0.180423 -0.012656
   vertex 0.005792 0.182048 -0.014364
   vertex 0.005157 0.17926 -0.013093
  endloop
 endfacet
 facet normal -0.467426 0.452641 0.759361
  outer loop
   vertex 0.005792 0.182048 -0.014364
   vertex 0.003315 0.180599 -0.015025
   vertex 0.005157 0.17926 -0.013093
  endloop
 endfacet
 facet normal 0.0710868 0.767617 0.636955
  outer loop
   vertex 0.011738 0.183336 -0.015025
   vertex 0.009706 0.184812 -0.016577
   vertex 0.008882 0.183052 -0.014364
  endloop
 endfacet
 facet normal -0.102735 0.796801 0.595444
  outer loop
   vertex 0.009706 0.184812 -0.016577
   vertex 0.006781 0.18426 -0.016343
   vertex 0.008882 0.183052 -0.014364
  endloop
 endfacet
 facet normal -0.228709 0.703897 0.672474
  outer loop
   vertex 0.008882 0.183052 -0.014364
   vertex 0.006781 0.18426 -0.016343
   vertex 0.005792 0.182048 -0.014364
  endloop
 endfacet
 facet normal -0.38541 0.704977 0.595371
  outer loop
   vertex 0.006781 0.18426 -0.016343
   vertex 0.004091 0.182987 -0.016577
   vertex 0.005792 0.182048 -0.014364
  endloop
 endfacet
 facet normal -0.508799 0.579247 0.636864
  outer loop
   vertex 0.005792 0.182048 -0.014364
   vertex 0.004091 0.182987 -0.016577
   vertex 0.003315 0.180599 -0.015025
  endloop
 endfacet
 facet normal -0.61533 0.560308 0.554459
  outer loop
   vertex 0.004091 0.182987 -0.016577
   vertex 0.002174 0.181427 -0.017128
   vertex 0.003315 0.180599 -0.015025
  endloop
 endfacet
 facet normal -0.156037 0 0.987751
  outer loop
   vertex 0.007378 0.177646 -0.011921
   vertex 0.007378 0.174694 -0.011921
   vertex 0.00941 0.17617 -0.0116
  endloop
 endfacet
 facet normal -0.370096 0.155752 0.915844
  outer loop
   vertex 0.005157 0.17926 -0.013093
   vertex 0.004938 0.17617 -0.012656
   vertex 0.007378 0.177646 -0.011921
  endloop
 endfacet
 facet normal -0.574948 0.304695 0.759339
  outer loop
   vertex 0.003315 0.180599 -0.015025
   vertex 0.002702 0.177795 -0.014364
   vertex 0.005157 0.17926 -0.013093
  endloop
 endfacet
 facet normal -0.288428 0 0.957502
  outer loop
   vertex 0.007378 0.177646 -0.011921
   vertex 0.004938 0.17617 -0.012656
   vertex 0.007378 0.174694 -0.011921
  endloop
 endfacet
 facet normal -0.370096 -0.155752 0.915844
  outer loop
   vertex 0.004938 0.17617 -0.012656
   vertex 0.005157 0.17308 -0.013093
   vertex 0.007378 0.174694 -0.011921
  endloop
 endfacet
 facet normal -0.525774 0.155534 0.836284
  outer loop
   vertex 0.005157 0.17926 -0.013093
   vertex 0.002702 0.177795 -0.014364
   vertex 0.004938 0.17617 -0.012656
  endloop
 endfacet
 facet normal -0.607028 0 0.794681
  outer loop
   vertex 0.002702 0.177795 -0.014364
   vertex 0.002702 0.174545 -0.014364
   vertex 0.004938 0.17617 -0.012656
  endloop
 endfacet
 facet normal -0.525774 -0.155534 0.836284
  outer loop
   vertex 0.004938 0.17617 -0.012656
   vertex 0.002702 0.174545 -0.014364
   vertex 0.005157 0.17308 -0.013093
  endloop
 endfacet
 facet normal -0.574948 -0.304695 0.759339
  outer loop
   vertex 0.002702 0.174545 -0.014364
   vertex 0.003315 0.171741 -0.015025
   vertex 0.005157 0.17308 -0.013093
  endloop
 endfacet
 facet normal -0.708089 0.304936 0.636886
  outer loop
   vertex 0.003315 0.180599 -0.015025
   vertex 0.001283 0.179122 -0.016577
   vertex 0.002702 0.177795 -0.014364
  endloop
 endfacet
 facet normal -0.789589 0.148568 0.59538
  outer loop
   vertex 0.001283 0.179122 -0.016577
   vertex 0.000904 0.17617 -0.016343
   vertex 0.002702 0.177795 -0.014364
  endloop
 endfacet
 facet normal -0.740143 0 0.672449
  outer loop
   vertex 0.002702 0.177795 -0.014364
   vertex 0.000904 0.17617 -0.016343
   vertex 0.002702 0.174545 -0.014364
  endloop
 endfacet
 facet normal -0.789589 -0.148568 0.59538
  outer loop
   vertex 0.000904 0.17617 -0.016343
   vertex 0.001283 0.173218 -0.016577
   vertex 0.002702 0.174545 -0.014364
  endloop
 endfacet
 facet normal -0.708089 -0.304936 0.636886
  outer loop
   vertex 0.002702 0.174545 -0.014364
   vertex 0.001283 0.173218 -0.016577
   vertex 0.003315 0.171741 -0.015025
  endloop
 endfacet
 facet normal -0.723015 -0.412034 0.554506
  outer loop
   vertex 0.001283 0.173218 -0.016577
   vertex 0.002174 0.170913 -0.017128
   vertex 0.003315 0.171741 -0.015025
  endloop
 endfacet
 facet normal -0.0482486 -0.148392 0.987751
  outer loop
   vertex 0.007378 0.174694 -0.011921
   vertex 0.010186 0.173781 -0.011921
   vertex 0.00941 0.17617 -0.0116
  endloop
 endfacet
 facet normal -0.262485 -0.303841 0.915851
  outer loop
   vertex 0.005157 0.17308 -0.013093
   vertex 0.008028 0.171917 -0.012656
   vertex 0.007378 0.174694 -0.011921
  endloop
 endfacet
 facet normal -0.467426 -0.452641 0.759361
  outer loop
   vertex 0.003315 0.171741 -0.015025
   vertex 0.005792 0.170292 -0.014364
   vertex 0.005157 0.17308 -0.013093
  endloop
 endfacet
 facet normal -0.0891868 -0.274301 0.957499
  outer loop
   vertex 0.007378 0.174694 -0.011921
   vertex 0.008028 0.171917 -0.012656
   vertex 0.010186 0.173781 -0.011921
  endloop
 endfacet
 facet normal 0.0336945 -0.400135 0.915836
  outer loop
   vertex 0.008028 0.171917 -0.012656
   vertex 0.011035 0.17117 -0.013093
   vertex 0.010186 0.173781 -0.011921
  endloop
 endfacet
 facet normal -0.310374 -0.451949 0.836307
  outer loop
   vertex 0.005157 0.17308 -0.013093
   vertex 0.005792 0.170292 -0.014364
   vertex 0.008028 0.171917 -0.012656
  endloop
 endfacet
 facet normal -0.187559 -0.577248 0.794737
  outer loop
   vertex 0.005792 0.170292 -0.014364
   vertex 0.008882 0.169288 -0.014364
   vertex 0.008028 0.171917 -0.012656
  endloop
 endfacet
 facet normal -0.0146149 -0.548074 0.836302
  outer loop
   vertex 0.008028 0.171917 -0.012656
   vertex 0.008882 0.169288 -0.014364
   vertex 0.011035 0.17117 -0.013093
  endloop
 endfacet
 facet normal 0.112009 -0.640965 0.759354
  outer loop
   vertex 0.008882 0.169288 -0.014364
   vertex 0.011738 0.169004 -0.015025
   vertex 0.011035 0.17117 -0.013093
  endloop
 endfacet
 facet normal -0.508799 -0.579247 0.636864
  outer loop
   vertex 0.003315 0.171741 -0.015025
   vertex 0.004091 0.169353 -0.016577
   vertex 0.005792 0.170292 -0.014364
  endloop
 endfacet
 facet normal -0.38541 -0.704977 0.595371
  outer loop
   vertex 0.004091 0.169353 -0.016577
   vertex 0.006781 0.16808 -0.016343
   vertex 0.005792 0.170292 -0.014364
  endloop
 endfacet
 facet normal -0.228709 -0.703897 0.672474
  outer loop
   vertex 0.005792 0.170292 -0.014364
   vertex 0.006781 0.16808 -0.016343
   vertex 0.008882 0.169288 -0.014364
  endloop
 endfacet
 facet normal -0.102735 -0.796801 0.595444
  outer loop
   vertex 0.006781 0.16808 -0.016343
   vertex 0.009706 0.167528 -0.016577
   vertex 0.008882 0.169288 -0.014364
  endloop
 endfacet
 facet normal 0.0710868 -0.767617 0.636955
  outer loop
   vertex 0.008882 0.169288 -0.014364
   vertex 0.009706 0.167528 -0.016577
   vertex 0.011738 0.169004 -0.015025
  endloop
 endfacet
 facet normal 0.168666 -0.815046 0.554303
  outer loop
   vertex 0.009706 0.167528 -0.016577
   vertex 0.012174 0.167664 -0.017128
   vertex 0.011738 0.169004 -0.015025
  endloop
 endfacet
 facet normal 0.126271 -0.0917039 0.987748
  outer loop
   vertex 0.010186 0.173781 -0.011921
   vertex 0.011921 0.17617 -0.011921
   vertex 0.00941 0.17617 -0.0116
  endloop
 endfacet
 facet normal 0.207851 -0.343516 0.915858
  outer loop
   vertex 0.011035 0.17117 -0.013093
   vertex 0.013028 0.173541 -0.012656
   vertex 0.010186 0.173781 -0.011921
  endloop
 endfacet
 facet normal 0.286233 -0.584386 0.759318
  outer loop
   vertex 0.011738 0.169004 -0.015025
   vertex 0.013882 0.170913 -0.014364
   vertex 0.011035 0.17117 -0.013093
  endloop
 endfacet
 facet normal 0.233325 -0.169451 0.957521
  outer loop
   vertex 0.010186 0.173781 -0.011921
   vertex 0.013028 0.173541 -0.012656
   vertex 0.011921 0.17617 -0.011921
  endloop
 endfacet
 facet normal 0.390899 -0.0914587 0.915878
  outer loop
   vertex 0.013028 0.173541 -0.012656
   vertex 0.014667 0.17617 -0.013093
   vertex 0.011921 0.17617 -0.011921
  endloop
 endfacet
 facet normal 0.334054 -0.43492 0.836213
  outer loop
   vertex 0.011035 0.17117 -0.013093
   vertex 0.013882 0.170913 -0.014364
   vertex 0.013028 0.173541 -0.012656
  endloop
 endfacet
 facet normal 0.491058 -0.356895 0.794662
  outer loop
   vertex 0.013882 0.170913 -0.014364
   vertex 0.015792 0.173541 -0.014364
   vertex 0.013028 0.173541 -0.012656
  endloop
 endfacet
 facet normal 0.516783 -0.183167 0.836293
  outer loop
   vertex 0.013028 0.173541 -0.012656
   vertex 0.015792 0.173541 -0.014364
   vertex 0.014667 0.17617 -0.013093
  endloop
 endfacet
 facet normal 0.644269 -0.0913996 0.759317
  outer loop
   vertex 0.015792 0.173541 -0.014364
   vertex 0.016944 0.17617 -0.015025
   vertex 0.014667 0.17617 -0.013093
  endloop
 endfacet
 facet normal 0.393627 -0.662685 0.637108
  outer loop
   vertex 0.011738 0.169004 -0.015025
   vertex 0.01425 0.169004 -0.016577
   vertex 0.013882 0.170913 -0.014364
  endloop
 endfacet
 facet normal 0.551379 -0.584158 0.595601
  outer loop
   vertex 0.01425 0.169004 -0.016577
   vertex 0.016292 0.17117 -0.016343
   vertex 0.013882 0.170913 -0.014364
  endloop
 endfacet
 facet normal 0.598657 -0.435097 0.672533
  outer loop
   vertex 0.013882 0.170913 -0.014364
   vertex 0.016292 0.17117 -0.016343
   vertex 0.015792 0.173541 -0.014364
  endloop
 endfacet
 facet normal 0.725985 -0.343961 0.595514
  outer loop
   vertex 0.016292 0.17117 -0.016343
   vertex 0.017721 0.173781 -0.016577
   vertex 0.015792 0.173541 -0.014364
  endloop
 endfacet
 facet normal 0.751958 -0.169318 0.637095
  outer loop
   vertex 0.015792 0.173541 -0.014364
   vertex 0.017721 0.173781 -0.016577
   vertex 0.016944 0.17617 -0.015025
  endloop
 endfacet
 facet normal 0.827124 -0.091254 0.554562
  outer loop
   vertex 0.017721 0.173781 -0.016577
   vertex 0.018354 0.17617 -0.017128
   vertex 0.016944 0.17617 -0.015025
  endloop
 endfacet
 facet normal 0.905177 0.147939 0.398459
  outer loop
   vertex 0.018976 0.177646 -0.019089
   vertex 0.017721 0.178559 -0.016577
   vertex 0.018354 0.17617 -0.017128
  endloop
 endfacet
 facet normal 0.93657 0.303801 0.17476
  outer loop
   vertex 0.018921 0.17926 -0.0216
   vertex 0.018028 0.180423 -0.018836
   vertex 0.018976 0.177646 -0.019089
  endloop
 endfacet
 facet normal 0.888212 0.452708 -0.078331
  outer loop
   vertex 0.018017 0.180599 -0.024112
   vertex 0.0175 0.182048 -0.0216
   vertex 0.018921 0.17926 -0.0216
  endloop
 endfacet
 facet normal 0.89641 0.274294 0.348155
  outer loop
   vertex 0.018976 0.177646 -0.019089
   vertex 0.018028 0.180423 -0.018836
   vertex 0.017721 0.178559 -0.016577
  endloop
 endfacet
 facet normal 0.803858 0.400541 0.439749
  outer loop
   vertex 0.018028 0.180423 -0.018836
   vertex 0.016292 0.18117 -0.016343
   vertex 0.017721 0.178559 -0.016577
  endloop
 endfacet
 facet normal 0.886806 0.451991 0.0963284
  outer loop
   vertex 0.018921 0.17926 -0.0216
   vertex 0.0175 0.182048 -0.0216
   vertex 0.018028 0.180423 -0.018836
  endloop
 endfacet
 facet normal 0.794662 0.577331 0.18762
  outer loop
   vertex 0.0175 0.182048 -0.0216
   vertex 0.016118 0.183052 -0.018836
   vertex 0.018028 0.180423 -0.018836
  endloop
 endfacet
 facet normal 0.754436 0.548107 0.361117
  outer loop
   vertex 0.018028 0.180423 -0.018836
   vertex 0.016118 0.183052 -0.018836
   vertex 0.016292 0.18117 -0.016343
  endloop
 endfacet
 facet normal 0.629279 0.640767 0.439803
  outer loop
   vertex 0.016118 0.183052 -0.018836
   vertex 0.01425 0.183336 -0.016577
   vertex 0.016292 0.18117 -0.016343
  endloop
 endfacet
 facet normal 0.797233 0.579229 -0.170037
  outer loop
   vertex 0.018017 0.180599 -0.024112
   vertex 0.016282 0.182987 -0.024112
   vertex 0.0175 0.182048 -0.0216
  endloop
 endfacet
 facet normal 0.704936 0.704936 -0.0782949
  outer loop
   vertex 0.016282 0.182987 -0.024112
   vertex 0.015288 0.18426 -0.0216
   vertex 0.0175 0.182048 -0.0216
  endloop
 endfacet
 facet normal 0.703824 0.703824 0.0962537
  outer loop
   vertex 0.0175 0.182048 -0.0216
   vertex 0.015288 0.18426 -0.0216
   vertex 0.016118 0.183052 -0.018836
  endloop
 endfacet
 facet normal 0.578519 0.796783 0.174509
  outer loop
   vertex 0.015288 0.18426 -0.0216
   vertex 0.01377 0.184812 -0.019088
   vertex 0.016118 0.183052 -0.018836
  endloop
 endfacet
 facet normal 0.537986 0.767602 0.348366
  outer loop
   vertex 0.016118 0.183052 -0.018836
   vertex 0.01377 0.184812 -0.019088
   vertex 0.01425 0.183336 -0.016577
  endloop
 endfacet
 facet normal 0.420269 0.815078 0.398776
  outer loop
   vertex 0.01377 0.184812 -0.019088
   vertex 0.012174 0.184676 -0.017128
   vertex 0.01425 0.183336 -0.016577
  endloop
 endfacet
 facet normal 0.138975 0.90647 0.398746
  outer loop
   vertex 0.010962 0.185724 -0.019088
   vertex 0.009706 0.184812 -0.016577
   vertex 0.012174 0.184676 -0.017128
  endloop
 endfacet
 facet normal 0.000555151 0.98466 0.174481
  outer loop
   vertex 0.00941 0.18617 -0.0216
   vertex 0.008028 0.185681 -0.018836
   vertex 0.010962 0.185724 -0.019088
  endloop
 endfacet
 facet normal -0.155824 0.984657 -0.07855
  outer loop
   vertex 0.007858 0.185724 -0.024112
   vertex 0.00632 0.185681 -0.0216
   vertex 0.00941 0.18617 -0.0216
  endloop
 endfacet
 facet normal 0.0161962 0.937175 0.348485
  outer loop
   vertex 0.010962 0.185724 -0.019088
   vertex 0.008028 0.185681 -0.018836
   vertex 0.009706 0.184812 -0.016577
  endloop
 endfacet
 facet normal -0.132412 0.888171 0.440021
  outer loop
   vertex 0.008028 0.185681 -0.018836
   vertex 0.006781 0.18426 -0.016343
   vertex 0.009706 0.184812 -0.016577
  endloop
 endfacet
 facet normal -0.155583 0.983133 0.0961419
  outer loop
   vertex 0.00941 0.18617 -0.0216
   vertex 0.00632 0.185681 -0.0216
   vertex 0.008028 0.185681 -0.018836
  endloop
 endfacet
 facet normal -0.303796 0.934059 0.187729
  outer loop
   vertex 0.00632 0.185681 -0.0216
   vertex 0.004938 0.184676 -0.018836
   vertex 0.008028 0.185681 -0.018836
  endloop
 endfacet
 facet normal -0.288415 0.886769 0.361189
  outer loop
   vertex 0.008028 0.185681 -0.018836
   vertex 0.004938 0.184676 -0.018836
   vertex 0.006781 0.18426 -0.016343
  endloop
 endfacet
 facet normal -0.415138 0.796394 0.439791
  outer loop
   vertex 0.004938 0.184676 -0.018836
   vertex 0.004091 0.182987 -0.016577
   vertex 0.006781 0.18426 -0.016343
  endloop
 endfacet
 facet normal -0.304389 0.937197 -0.170322
  outer loop
   vertex 0.007858 0.185724 -0.024112
   vertex 0.00505 0.184812 -0.024112
   vertex 0.00632 0.185681 -0.0216
  endloop
 endfacet
 facet normal -0.452705 0.888208 -0.0783901
  outer loop
   vertex 0.00505 0.184812 -0.024112
   vertex 0.003532 0.18426 -0.0216
   vertex 0.00632 0.185681 -0.0216
  endloop
 endfacet
 facet normal -0.451986 0.886796 0.0964489
  outer loop
   vertex 0.00632 0.185681 -0.0216
   vertex 0.003532 0.18426 -0.0216
   vertex 0.004938 0.184676 -0.018836
  endloop
 endfacet
 facet normal -0.578874 0.796508 0.174584
  outer loop
   vertex 0.003532 0.18426 -0.0216
   vertex 0.002538 0.182987 -0.019088
   vertex 0.004938 0.184676 -0.018836
  endloop
 endfacet
 facet normal -0.563623 0.748876 0.348589
  outer loop
   vertex 0.004938 0.184676 -0.018836
   vertex 0.002538 0.182987 -0.019088
   vertex 0.004091 0.182987 -0.016577
  endloop
 endfacet
 facet normal -0.645038 0.651744 0.398942
  outer loop
   vertex 0.002538 0.182987 -0.019088
   vertex 0.002174 0.181427 -0.017128
   vertex 0.004091 0.182987 -0.016577
  endloop
 endfacet
 facet normal -0.819189 0.412026 0.398954
  outer loop
   vertex 0.000803 0.180599 -0.019088
   vertex 0.001283 0.179122 -0.016577
   vertex 0.002174 0.181427 -0.017128
  endloop
 endfacet
 facet normal -0.936352 0.304548 0.174631
  outer loop
   vertex -0.000101 0.17926 -0.0216
   vertex -6.20004e-05 0.177795 -0.018836
   vertex 0.000803 0.180599 -0.019088
  endloop
 endfacet
 facet normal -0.984653 0.155824 -0.0785916
  outer loop
   vertex -0.000156 0.177646 -0.024111
   vertex -0.00059 0.17617 -0.0216
   vertex -0.000101 0.17926 -0.0216
  endloop
 endfacet
 facet normal -0.886309 0.304753 0.348685
  outer loop
   vertex 0.000803 0.180599 -0.019088
   vertex -6.20004e-05 0.177795 -0.018836
   vertex 0.001283 0.179122 -0.016577
  endloop
 endfacet
 facet normal -0.885615 0.148581 0.440011
  outer loop
   vertex -6.20004e-05 0.177795 -0.018836
   vertex 0.000904 0.17617 -0.016343
   vertex 0.001283 0.179122 -0.016577
  endloop
 endfacet
 facet normal -0.983115 0.15558 0.0963335
  outer loop
   vertex -0.000101 0.17926 -0.0216
   vertex -0.00059 0.17617 -0.0216
   vertex -6.20004e-05 0.177795 -0.018836
  endloop
 endfacet
 facet normal -0.982239 0 0.187634
  outer loop
   vertex -0.00059 0.17617 -0.0216
   vertex -6.20004e-05 0.174545 -0.018836
   vertex -6.20004e-05 0.177795 -0.018836
  endloop
 endfacet
 facet normal -0.932446 0 0.361309
  outer loop
   vertex -6.20004e-05 0.177795 -0.018836
   vertex -6.20004e-05 0.174545 -0.018836
   vertex 0.000904 0.17617 -0.016343
  endloop
 endfacet
 facet normal -0.885615 -0.148581 0.440011
  outer loop
   vertex -6.20004e-05 0.174545 -0.018836
   vertex 0.001283 0.173218 -0.016577
   vertex 0.000904 0.17617 -0.016343
  endloop
 endfacet
 facet normal -0.98539 -0 -0.170314
  outer loop
   vertex -0.000156 0.177646 -0.024111
   vertex -0.000156 0.174694 -0.024111
   vertex -0.00059 0.17617 -0.0216
  endloop
 endfacet
 facet normal -0.984653 -0.155824 -0.0785916
  outer loop
   vertex -0.000156 0.174694 -0.024111
   vertex -0.000101 0.17308 -0.0216
   vertex -0.00059 0.17617 -0.0216
  endloop
 endfacet
 facet normal -0.983115 -0.15558 0.0963335
  outer loop
   vertex -0.00059 0.17617 -0.0216
   vertex -0.000101 0.17308 -0.0216
   vertex -6.20004e-05 0.174545 -0.018836
  endloop
 endfacet
 facet normal -0.936352 -0.304548 0.174631
  outer loop
   vertex -0.000101 0.17308 -0.0216
   vertex 0.000803 0.171741 -0.019088
   vertex -6.20004e-05 0.174545 -0.018836
  endloop
 endfacet
 facet normal -0.886309 -0.304753 0.348685
  outer loop
   vertex -6.20004e-05 0.174545 -0.018836
   vertex 0.000803 0.171741 -0.019088
   vertex 0.001283 0.173218 -0.016577
  endloop
 endfacet
 facet normal -0.819189 -0.412026 0.398954
  outer loop
   vertex 0.000803 0.171741 -0.019088
   vertex 0.002174 0.170913 -0.017128
   vertex 0.001283 0.173218 -0.016577
  endloop
 endfacet
 facet normal -0.645038 -0.651744 0.398942
  outer loop
   vertex 0.002538 0.169353 -0.019088
   vertex 0.004091 0.169353 -0.016577
   vertex 0.002174 0.170913 -0.017128
  endloop
 endfacet
 facet normal -0.578874 -0.796508 0.174584
  outer loop
   vertex 0.003532 0.16808 -0.0216
   vertex 0.004938 0.167664 -0.018836
   vertex 0.002538 0.169353 -0.019088
  endloop
 endfacet
 facet normal -0.452705 -0.888208 -0.0783901
  outer loop
   vertex 0.00505 0.167528 -0.024112
   vertex 0.00632 0.166659 -0.0216
   vertex 0.003532 0.16808 -0.0216
  endloop
 endfacet
 facet normal -0.563623 -0.748876 0.348589
  outer loop
   vertex 0.002538 0.169353 -0.019088
   vertex 0.004938 0.167664 -0.018836
   vertex 0.004091 0.169353 -0.016577
  endloop
 endfacet
 facet normal -0.415138 -0.796394 0.439791
  outer loop
   vertex 0.004938 0.167664 -0.018836
   vertex 0.006781 0.16808 -0.016343
   vertex 0.004091 0.169353 -0.016577
  endloop
 endfacet
 facet normal -0.451986 -0.886796 0.0964489
  outer loop
   vertex 0.003532 0.16808 -0.0216
   vertex 0.00632 0.166659 -0.0216
   vertex 0.004938 0.167664 -0.018836
  endloop
 endfacet
 facet normal -0.303796 -0.934059 0.187729
  outer loop
   vertex 0.00632 0.166659 -0.0216
   vertex 0.008028 0.166659 -0.018836
   vertex 0.004938 0.167664 -0.018836
  endloop
 endfacet
 facet normal -0.288415 -0.886769 0.361189
  outer loop
   vertex 0.004938 0.167664 -0.018836
   vertex 0.008028 0.166659 -0.018836
   vertex 0.006781 0.16808 -0.016343
  endloop
 endfacet
 facet normal -0.132412 -0.888171 0.440021
  outer loop
   vertex 0.008028 0.166659 -0.018836
   vertex 0.009706 0.167528 -0.016577
   vertex 0.006781 0.16808 -0.016343
  endloop
 endfacet
 facet normal -0.304389 -0.937197 -0.170322
  outer loop
   vertex 0.00505 0.167528 -0.024112
   vertex 0.007858 0.166616 -0.024112
   vertex 0.00632 0.166659 -0.0216
  endloop
 endfacet
 facet normal -0.155824 -0.984657 -0.07855
  outer loop
   vertex 0.007858 0.166616 -0.024112
   vertex 0.00941 0.16617 -0.0216
   vertex 0.00632 0.166659 -0.0216
  endloop
 endfacet
 facet normal -0.155583 -0.983133 0.0961419
  outer loop
   vertex 0.00632 0.166659 -0.0216
   vertex 0.00941 0.16617 -0.0216
   vertex 0.008028 0.166659 -0.018836
  endloop
 endfacet
 facet normal 0.000555151 -0.98466 0.174481
  outer loop
   vertex 0.00941 0.16617 -0.0216
   vertex 0.010962 0.166616 -0.019088
   vertex 0.008028 0.166659 -0.018836
  endloop
 endfacet
 facet normal 0.0161962 -0.937175 0.348485
  outer loop
   vertex 0.008028 0.166659 -0.018836
   vertex 0.010962 0.166616 -0.019088
   vertex 0.009706 0.167528 -0.016577
  endloop
 endfacet
 facet normal 0.138975 -0.90647 0.398746
  outer loop
   vertex 0.010962 0.166616 -0.019088
   vertex 0.012174 0.167664 -0.017128
   vertex 0.009706 0.167528 -0.016577
  endloop
 endfacet
 facet normal 0.420269 -0.815078 0.398776
  outer loop
   vertex 0.01377 0.167528 -0.019088
   vertex 0.01425 0.169004 -0.016577
   vertex 0.012174 0.167664 -0.017128
  endloop
 endfacet
 facet normal 0.578519 -0.796783 0.174509
  outer loop
   vertex 0.015288 0.16808 -0.0216
   vertex 0.016118 0.169288 -0.018836
   vertex 0.01377 0.167528 -0.019088
  endloop
 endfacet
 facet normal 0.704936 -0.704936 -0.0782949
  outer loop
   vertex 0.016282 0.169353 -0.024112
   vertex 0.0175 0.170292 -0.0216
   vertex 0.015288 0.16808 -0.0216
  endloop
 endfacet
 facet normal 0.537986 -0.767602 0.348366
  outer loop
   vertex 0.01377 0.167528 -0.019088
   vertex 0.016118 0.169288 -0.018836
   vertex 0.01425 0.169004 -0.016577
  endloop
 endfacet
 facet normal 0.629279 -0.640767 0.439803
  outer loop
   vertex 0.016118 0.169288 -0.018836
   vertex 0.016292 0.17117 -0.016343
   vertex 0.01425 0.169004 -0.016577
  endloop
 endfacet
 facet normal 0.703824 -0.703824 0.0962537
  outer loop
   vertex 0.015288 0.16808 -0.0216
   vertex 0.0175 0.170292 -0.0216
   vertex 0.016118 0.169288 -0.018836
  endloop
 endfacet
 facet normal 0.794662 -0.577331 0.18762
  outer loop
   vertex 0.0175 0.170292 -0.0216
   vertex 0.018028 0.171917 -0.018836
   vertex 0.016118 0.169288 -0.018836
  endloop
 endfacet
 facet normal 0.754436 -0.548107 0.361117
  outer loop
   vertex 0.016118 0.169288 -0.018836
   vertex 0.018028 0.171917 -0.018836
   vertex 0.016292 0.17117 -0.016343
  endloop
 endfacet
 facet normal 0.803858 -0.400541 0.439749
  outer loop
   vertex 0.018028 0.171917 -0.018836
   vertex 0.017721 0.173781 -0.016577
   vertex 0.016292 0.17117 -0.016343
  endloop
 endfacet
 facet normal 0.797233 -0.579229 -0.170037
  outer loop
   vertex 0.016282 0.169353 -0.024112
   vertex 0.018017 0.171741 -0.024112
   vertex 0.0175 0.170292 -0.0216
  endloop
 endfacet
 facet normal 0.888212 -0.452708 -0.078331
  outer loop
   vertex 0.018017 0.171741 -0.024112
   vertex 0.018921 0.17308 -0.0216
   vertex 0.0175 0.170292 -0.0216
  endloop
 endfacet
 facet normal 0.886806 -0.451991 0.0963284
  outer loop
   vertex 0.0175 0.170292 -0.0216
   vertex 0.018921 0.17308 -0.0216
   vertex 0.018028 0.171917 -0.018836
  endloop
 endfacet
 facet normal 0.93657 -0.303801 0.17476
  outer loop
   vertex 0.018921 0.17308 -0.0216
   vertex 0.018976 0.174694 -0.019089
   vertex 0.018028 0.171917 -0.018836
  endloop
 endfacet
 facet normal 0.89641 -0.274294 0.348155
  outer loop
   vertex 0.018028 0.171917 -0.018836
   vertex 0.018976 0.174694 -0.019089
   vertex 0.017721 0.173781 -0.016577
  endloop
 endfacet
 facet normal 0.905177 -0.147939 0.398459
  outer loop
   vertex 0.018976 0.174694 -0.019089
   vertex 0.018354 0.17617 -0.017128
   vertex 0.017721 0.173781 -0.016577
  endloop
 endfacet
 facet normal 0.294416 0.906493 0.302638
  outer loop
   vertex 0.01377 0.184812 -0.019088
   vertex 0.010962 0.185724 -0.019088
   vertex 0.012174 0.184676 -0.017128
  endloop
 endfacet
 facet normal 0.452705 0.888208 0.0783901
  outer loop
   vertex 0.015288 0.18426 -0.0216
   vertex 0.0125 0.185681 -0.0216
   vertex 0.01377 0.184812 -0.019088
  endloop
 endfacet
 facet normal 0.578874 0.796508 -0.174584
  outer loop
   vertex 0.016282 0.182987 -0.024112
   vertex 0.013882 0.184676 -0.024364
   vertex 0.015288 0.18426 -0.0216
  endloop
 endfacet
 facet normal 0.304389 0.937197 0.170322
  outer loop
   vertex 0.01377 0.184812 -0.019088
   vertex 0.0125 0.185681 -0.0216
   vertex 0.010962 0.185724 -0.019088
  endloop
 endfacet
 facet normal 0.155824 0.984657 0.07855
  outer loop
   vertex 0.0125 0.185681 -0.0216
   vertex 0.00941 0.18617 -0.0216
   vertex 0.010962 0.185724 -0.019088
  endloop
 endfacet
 facet normal 0.451986 0.886796 -0.0964489
  outer loop
   vertex 0.015288 0.18426 -0.0216
   vertex 0.013882 0.184676 -0.024364
   vertex 0.0125 0.185681 -0.0216
  endloop
 endfacet
 facet normal 0.303796 0.934059 -0.187729
  outer loop
   vertex 0.013882 0.184676 -0.024364
   vertex 0.010792 0.185681 -0.024364
   vertex 0.0125 0.185681 -0.0216
  endloop
 endfacet
 facet normal 0.155583 0.983133 -0.0961419
  outer loop
   vertex 0.0125 0.185681 -0.0216
   vertex 0.010792 0.185681 -0.024364
   vertex 0.00941 0.18617 -0.0216
  endloop
 endfacet
 facet normal -0.000555151 0.98466 -0.174481
  outer loop
   vertex 0.010792 0.185681 -0.024364
   vertex 0.007858 0.185724 -0.024112
   vertex 0.00941 0.18617 -0.0216
  endloop
 endfacet
 facet normal 0.563623 0.748876 -0.348589
  outer loop
   vertex 0.016282 0.182987 -0.024112
   vertex 0.014729 0.182987 -0.026623
   vertex 0.013882 0.184676 -0.024364
  endloop
 endfacet
 facet normal 0.415138 0.796394 -0.439791
  outer loop
   vertex 0.014729 0.182987 -0.026623
   vertex 0.012039 0.18426 -0.026857
   vertex 0.013882 0.184676 -0.024364
  endloop
 endfacet
 facet normal 0.288415 0.886769 -0.361189
  outer loop
   vertex 0.013882 0.184676 -0.024364
   vertex 0.012039 0.18426 -0.026857
   vertex 0.010792 0.185681 -0.024364
  endloop
 endfacet
 facet normal 0.132412 0.888171 -0.440021
  outer loop
   vertex 0.012039 0.18426 -0.026857
   vertex 0.009114 0.184812 -0.026623
   vertex 0.010792 0.185681 -0.024364
  endloop
 endfacet
 facet normal -0.0161962 0.937175 -0.348485
  outer loop
   vertex 0.010792 0.185681 -0.024364
   vertex 0.009114 0.184812 -0.026623
   vertex 0.007858 0.185724 -0.024112
  endloop
 endfacet
 facet normal -0.138975 0.90647 -0.398746
  outer loop
   vertex 0.009114 0.184812 -0.026623
   vertex 0.006646 0.184676 -0.026072
   vertex 0.007858 0.185724 -0.024112
  endloop
 endfacet
 facet normal -0.771063 0.560215 0.302688
  outer loop
   vertex 0.002538 0.182987 -0.019088
   vertex 0.000803 0.180599 -0.019088
   vertex 0.002174 0.181427 -0.017128
  endloop
 endfacet
 facet normal -0.704936 0.704936 0.0782949
  outer loop
   vertex 0.003532 0.18426 -0.0216
   vertex 0.00132 0.182048 -0.0216
   vertex 0.002538 0.182987 -0.019088
  endloop
 endfacet
 facet normal -0.578519 0.796783 -0.174509
  outer loop
   vertex 0.00505 0.184812 -0.024112
   vertex 0.002702 0.183052 -0.024364
   vertex 0.003532 0.18426 -0.0216
  endloop
 endfacet
 facet normal -0.797233 0.579229 0.170037
  outer loop
   vertex 0.002538 0.182987 -0.019088
   vertex 0.00132 0.182048 -0.0216
   vertex 0.000803 0.180599 -0.019088
  endloop
 endfacet
 facet normal -0.888212 0.452708 0.078331
  outer loop
   vertex 0.00132 0.182048 -0.0216
   vertex -0.000101 0.17926 -0.0216
   vertex 0.000803 0.180599 -0.019088
  endloop
 endfacet
 facet normal -0.703824 0.703824 -0.0962537
  outer loop
   vertex 0.003532 0.18426 -0.0216
   vertex 0.002702 0.183052 -0.024364
   vertex 0.00132 0.182048 -0.0216
  endloop
 endfacet
 facet normal -0.794662 0.577331 -0.18762
  outer loop
   vertex 0.002702 0.183052 -0.024364
   vertex 0.000792 0.180423 -0.024364
   vertex 0.00132 0.182048 -0.0216
  endloop
 endfacet
 facet normal -0.886806 0.451991 -0.0963284
  outer loop
   vertex 0.00132 0.182048 -0.0216
   vertex 0.000792 0.180423 -0.024364
   vertex -0.000101 0.17926 -0.0216
  endloop
 endfacet
 facet normal -0.93657 0.303801 -0.17476
  outer loop
   vertex 0.000792 0.180423 -0.024364
   vertex -0.000156 0.177646 -0.024111
   vertex -0.000101 0.17926 -0.0216
  endloop
 endfacet
 facet normal -0.537986 0.767602 -0.348366
  outer loop
   vertex 0.00505 0.184812 -0.024112
   vertex 0.00457 0.183336 -0.026623
   vertex 0.002702 0.183052 -0.024364
  endloop
 endfacet
 facet normal -0.629279 0.640767 -0.439803
  outer loop
   vertex 0.00457 0.183336 -0.026623
   vertex 0.002528 0.18117 -0.026857
   vertex 0.002702 0.183052 -0.024364
  endloop
 endfacet
 facet normal -0.754436 0.548107 -0.361117
  outer loop
   vertex 0.002702 0.183052 -0.024364
   vertex 0.002528 0.18117 -0.026857
   vertex 0.000792 0.180423 -0.024364
  endloop
 endfacet
 facet normal -0.803858 0.400541 -0.439749
  outer loop
   vertex 0.002528 0.18117 -0.026857
   vertex 0.001099 0.178559 -0.026623
   vertex 0.000792 0.180423 -0.024364
  endloop
 endfacet
 facet normal -0.89641 0.274294 -0.348155
  outer loop
   vertex 0.000792 0.180423 -0.024364
   vertex 0.001099 0.178559 -0.026623
   vertex -0.000156 0.177646 -0.024111
  endloop
 endfacet
 facet normal -0.905177 0.147939 -0.398459
  outer loop
   vertex 0.001099 0.178559 -0.026623
   vertex 0.000466 0.17617 -0.026072
   vertex -0.000156 0.177646 -0.024111
  endloop
 endfacet
 facet normal -0.771063 -0.560215 0.302688
  outer loop
   vertex 0.000803 0.171741 -0.019088
   vertex 0.002538 0.169353 -0.019088
   vertex 0.002174 0.170913 -0.017128
  endloop
 endfacet
 facet normal -0.888212 -0.452708 0.078331
  outer loop
   vertex -0.000101 0.17308 -0.0216
   vertex 0.00132 0.170292 -0.0216
   vertex 0.000803 0.171741 -0.019088
  endloop
 endfacet
 facet normal -0.93657 -0.303801 -0.17476
  outer loop
   vertex -0.000156 0.174694 -0.024111
   vertex 0.000792 0.171917 -0.024364
   vertex -0.000101 0.17308 -0.0216
  endloop
 endfacet
 facet normal -0.797233 -0.579229 0.170037
  outer loop
   vertex 0.000803 0.171741 -0.019088
   vertex 0.00132 0.170292 -0.0216
   vertex 0.002538 0.169353 -0.019088
  endloop
 endfacet
 facet normal -0.704936 -0.704936 0.0782949
  outer loop
   vertex 0.00132 0.170292 -0.0216
   vertex 0.003532 0.16808 -0.0216
   vertex 0.002538 0.169353 -0.019088
  endloop
 endfacet
 facet normal -0.886806 -0.451991 -0.0963284
  outer loop
   vertex -0.000101 0.17308 -0.0216
   vertex 0.000792 0.171917 -0.024364
   vertex 0.00132 0.170292 -0.0216
  endloop
 endfacet
 facet normal -0.794662 -0.577331 -0.18762
  outer loop
   vertex 0.000792 0.171917 -0.024364
   vertex 0.002702 0.169288 -0.024364
   vertex 0.00132 0.170292 -0.0216
  endloop
 endfacet
 facet normal -0.703824 -0.703824 -0.0962537
  outer loop
   vertex 0.00132 0.170292 -0.0216
   vertex 0.002702 0.169288 -0.024364
   vertex 0.003532 0.16808 -0.0216
  endloop
 endfacet
 facet normal -0.578519 -0.796783 -0.174509
  outer loop
   vertex 0.002702 0.169288 -0.024364
   vertex 0.00505 0.167528 -0.024112
   vertex 0.003532 0.16808 -0.0216
  endloop
 endfacet
 facet normal -0.89641 -0.274294 -0.348155
  outer loop
   vertex -0.000156 0.174694 -0.024111
   vertex 0.001099 0.173781 -0.026623
   vertex 0.000792 0.171917 -0.024364
  endloop
 endfacet
 facet normal -0.803858 -0.400541 -0.439749
  outer loop
   vertex 0.001099 0.173781 -0.026623
   vertex 0.002528 0.17117 -0.026857
   vertex 0.000792 0.171917 -0.024364
  endloop
 endfacet
 facet normal -0.754436 -0.548107 -0.361117
  outer loop
   vertex 0.000792 0.171917 -0.024364
   vertex 0.002528 0.17117 -0.026857
   vertex 0.002702 0.169288 -0.024364
  endloop
 endfacet
 facet normal -0.629279 -0.640767 -0.439803
  outer loop
   vertex 0.002528 0.17117 -0.026857
   vertex 0.00457 0.169004 -0.026623
   vertex 0.002702 0.169288 -0.024364
  endloop
 endfacet
 facet normal -0.537986 -0.767602 -0.348366
  outer loop
   vertex 0.002702 0.169288 -0.024364
   vertex 0.00457 0.169004 -0.026623
   vertex 0.00505 0.167528 -0.024112
  endloop
 endfacet
 facet normal -0.420269 -0.815078 -0.398776
  outer loop
   vertex 0.00457 0.169004 -0.026623
   vertex 0.006646 0.167664 -0.026072
   vertex 0.00505 0.167528 -0.024112
  endloop
 endfacet
 facet normal 0.294416 -0.906493 0.302638
  outer loop
   vertex 0.010962 0.166616 -0.019088
   vertex 0.01377 0.167528 -0.019088
   vertex 0.012174 0.167664 -0.017128
  endloop
 endfacet
 facet normal 0.155824 -0.984657 0.07855
  outer loop
   vertex 0.00941 0.16617 -0.0216
   vertex 0.0125 0.166659 -0.0216
   vertex 0.010962 0.166616 -0.019088
  endloop
 endfacet
 facet normal -0.000555151 -0.98466 -0.174481
  outer loop
   vertex 0.007858 0.166616 -0.024112
   vertex 0.010792 0.166659 -0.024364
   vertex 0.00941 0.16617 -0.0216
  endloop
 endfacet
 facet normal 0.304389 -0.937197 0.170322
  outer loop
   vertex 0.010962 0.166616 -0.019088
   vertex 0.0125 0.166659 -0.0216
   vertex 0.01377 0.167528 -0.019088
  endloop
 endfacet
 facet normal 0.452705 -0.888208 0.0783901
  outer loop
   vertex 0.0125 0.166659 -0.0216
   vertex 0.015288 0.16808 -0.0216
   vertex 0.01377 0.167528 -0.019088
  endloop
 endfacet
 facet normal 0.155583 -0.983133 -0.0961419
  outer loop
   vertex 0.00941 0.16617 -0.0216
   vertex 0.010792 0.166659 -0.024364
   vertex 0.0125 0.166659 -0.0216
  endloop
 endfacet
 facet normal 0.303796 -0.934059 -0.187729
  outer loop
   vertex 0.010792 0.166659 -0.024364
   vertex 0.013882 0.167664 -0.024364
   vertex 0.0125 0.166659 -0.0216
  endloop
 endfacet
 facet normal 0.451986 -0.886796 -0.0964489
  outer loop
   vertex 0.0125 0.166659 -0.0216
   vertex 0.013882 0.167664 -0.024364
   vertex 0.015288 0.16808 -0.0216
  endloop
 endfacet
 facet normal 0.578874 -0.796508 -0.174584
  outer loop
   vertex 0.013882 0.167664 -0.024364
   vertex 0.016282 0.169353 -0.024112
   vertex 0.015288 0.16808 -0.0216
  endloop
 endfacet
 facet normal -0.0161962 -0.937175 -0.348485
  outer loop
   vertex 0.007858 0.166616 -0.024112
   vertex 0.009114 0.167528 -0.026623
   vertex 0.010792 0.166659 -0.024364
  endloop
 endfacet
 facet normal 0.132412 -0.888171 -0.440021
  outer loop
   vertex 0.009114 0.167528 -0.026623
   vertex 0.012039 0.16808 -0.026857
   vertex 0.010792 0.166659 -0.024364
  endloop
 endfacet
 facet normal 0.288415 -0.886769 -0.361189
  outer loop
   vertex 0.010792 0.166659 -0.024364
   vertex 0.012039 0.16808 -0.026857
   vertex 0.013882 0.167664 -0.024364
  endloop
 endfacet
 facet normal 0.415138 -0.796394 -0.439791
  outer loop
   vertex 0.012039 0.16808 -0.026857
   vertex 0.014729 0.169353 -0.026623
   vertex 0.013882 0.167664 -0.024364
  endloop
 endfacet
 facet normal 0.563623 -0.748876 -0.348589
  outer loop
   vertex 0.013882 0.167664 -0.024364
   vertex 0.014729 0.169353 -0.026623
   vertex 0.016282 0.169353 -0.024112
  endloop
 endfacet
 facet normal 0.645038 -0.651744 -0.398942
  outer loop
   vertex 0.014729 0.169353 -0.026623
   vertex 0.016646 0.170913 -0.026072
   vertex 0.016282 0.169353 -0.024112
  endloop
 endfacet
 facet normal 0.9532 -0 0.302341
  outer loop
   vertex 0.018976 0.174694 -0.019089
   vertex 0.018976 0.177646 -0.019089
   vertex 0.018354 0.17617 -0.017128
  endloop
 endfacet
 facet normal 0.984653 -0.155824 0.0785916
  outer loop
   vertex 0.018921 0.17308 -0.0216
   vertex 0.01941 0.17617 -0.0216
   vertex 0.018976 0.174694 -0.019089
  endloop
 endfacet
 facet normal 0.936352 -0.304548 -0.174631
  outer loop
   vertex 0.018017 0.171741 -0.024112
   vertex 0.018882 0.174545 -0.024364
   vertex 0.018921 0.17308 -0.0216
  endloop
 endfacet
 facet normal 0.98539 -0 0.170314
  outer loop
   vertex 0.018976 0.174694 -0.019089
   vertex 0.01941 0.17617 -0.0216
   vertex 0.018976 0.177646 -0.019089
  endloop
 endfacet
 facet normal 0.984653 0.155824 0.0785916
  outer loop
   vertex 0.01941 0.17617 -0.0216
   vertex 0.018921 0.17926 -0.0216
   vertex 0.018976 0.177646 -0.019089
  endloop
 endfacet
 facet normal 0.983115 -0.15558 -0.0963335
  outer loop
   vertex 0.018921 0.17308 -0.0216
   vertex 0.018882 0.174545 -0.024364
   vertex 0.01941 0.17617 -0.0216
  endloop
 endfacet
 facet normal 0.982239 0 -0.187634
  outer loop
   vertex 0.018882 0.174545 -0.024364
   vertex 0.018882 0.177795 -0.024364
   vertex 0.01941 0.17617 -0.0216
  endloop
 endfacet
 facet normal 0.983115 0.15558 -0.0963335
  outer loop
   vertex 0.01941 0.17617 -0.0216
   vertex 0.018882 0.177795 -0.024364
   vertex 0.018921 0.17926 -0.0216
  endloop
 endfacet
 facet normal 0.936352 0.304548 -0.174631
  outer loop
   vertex 0.018882 0.177795 -0.024364
   vertex 0.018017 0.180599 -0.024112
   vertex 0.018921 0.17926 -0.0216
  endloop
 endfacet
 facet normal 0.886309 -0.304753 -0.348685
  outer loop
   vertex 0.018017 0.171741 -0.024112
   vertex 0.017537 0.173218 -0.026623
   vertex 0.018882 0.174545 -0.024364
  endloop
 endfacet
 facet normal 0.885615 -0.148581 -0.440011
  outer loop
   vertex 0.017537 0.173218 -0.026623
   vertex 0.017916 0.17617 -0.026857
   vertex 0.018882 0.174545 -0.024364
  endloop
 endfacet
 facet normal 0.932446 0 -0.361309
  outer loop
   vertex 0.018882 0.174545 -0.024364
   vertex 0.017916 0.17617 -0.026857
   vertex 0.018882 0.177795 -0.024364
  endloop
 endfacet
 facet normal 0.885615 0.148581 -0.440011
  outer loop
   vertex 0.017916 0.17617 -0.026857
   vertex 0.017537 0.179122 -0.026623
   vertex 0.018882 0.177795 -0.024364
  endloop
 endfacet
 facet normal 0.886309 0.304753 -0.348685
  outer loop
   vertex 0.018882 0.177795 -0.024364
   vertex 0.017537 0.179122 -0.026623
   vertex 0.018017 0.180599 -0.024112
  endloop
 endfacet
 facet normal 0.819189 0.412026 -0.398954
  outer loop
   vertex 0.017537 0.179122 -0.026623
   vertex 0.016646 0.181427 -0.026072
   vertex 0.018017 0.180599 -0.024112
  endloop
 endfacet
 facet normal 0.61533 0.560308 -0.554459
  outer loop
   vertex 0.015505 0.180599 -0.028175
   vertex 0.014729 0.182987 -0.026623
   vertex 0.016646 0.181427 -0.026072
  endloop
 endfacet
 facet normal 0.467426 0.452641 -0.759361
  outer loop
   vertex 0.013663 0.17926 -0.030107
   vertex 0.013028 0.182048 -0.028836
   vertex 0.015505 0.180599 -0.028175
  endloop
 endfacet
 facet normal 0.262485 0.303841 -0.915851
  outer loop
   vertex 0.011442 0.177646 -0.031279
   vertex 0.010792 0.180423 -0.030544
   vertex 0.013663 0.17926 -0.030107
  endloop
 endfacet
 facet normal 0.508799 0.579247 -0.636864
  outer loop
   vertex 0.015505 0.180599 -0.028175
   vertex 0.013028 0.182048 -0.028836
   vertex 0.014729 0.182987 -0.026623
  endloop
 endfacet
 facet normal 0.38541 0.704977 -0.595371
  outer loop
   vertex 0.013028 0.182048 -0.028836
   vertex 0.012039 0.18426 -0.026857
   vertex 0.014729 0.182987 -0.026623
  endloop
 endfacet
 facet normal 0.310374 0.451949 -0.836307
  outer loop
   vertex 0.013663 0.17926 -0.030107
   vertex 0.010792 0.180423 -0.030544
   vertex 0.013028 0.182048 -0.028836
  endloop
 endfacet
 facet normal 0.187559 0.577248 -0.794737
  outer loop
   vertex 0.010792 0.180423 -0.030544
   vertex 0.009938 0.183052 -0.028836
   vertex 0.013028 0.182048 -0.028836
  endloop
 endfacet
 facet normal 0.228709 0.703897 -0.672474
  outer loop
   vertex 0.013028 0.182048 -0.028836
   vertex 0.009938 0.183052 -0.028836
   vertex 0.012039 0.18426 -0.026857
  endloop
 endfacet
 facet normal 0.102735 0.796801 -0.595444
  outer loop
   vertex 0.009938 0.183052 -0.028836
   vertex 0.009114 0.184812 -0.026623
   vertex 0.012039 0.18426 -0.026857
  endloop
 endfacet
 facet normal 0.0891868 0.274301 -0.957499
  outer loop
   vertex 0.011442 0.177646 -0.031279
   vertex 0.008634 0.178559 -0.031279
   vertex 0.010792 0.180423 -0.030544
  endloop
 endfacet
 facet normal -0.0336945 0.400135 -0.915836
  outer loop
   vertex 0.008634 0.178559 -0.031279
   vertex 0.007785 0.18117 -0.030107
   vertex 0.010792 0.180423 -0.030544
  endloop
 endfacet
 facet normal 0.0146149 0.548074 -0.836302
  outer loop
   vertex 0.010792 0.180423 -0.030544
   vertex 0.007785 0.18117 -0.030107
   vertex 0.009938 0.183052 -0.028836
  endloop
 endfacet
 facet normal -0.112009 0.640965 -0.759354
  outer loop
   vertex 0.007785 0.18117 -0.030107
   vertex 0.007082 0.183336 -0.028175
   vertex 0.009938 0.183052 -0.028836
  endloop
 endfacet
 facet normal -0.0710868 0.767617 -0.636955
  outer loop
   vertex 0.009938 0.183052 -0.028836
   vertex 0.007082 0.183336 -0.028175
   vertex 0.009114 0.184812 -0.026623
  endloop
 endfacet
 facet normal -0.168666 0.815046 -0.554303
  outer loop
   vertex 0.007082 0.183336 -0.028175
   vertex 0.006646 0.184676 -0.026072
   vertex 0.009114 0.184812 -0.026623
  endloop
 endfacet
 facet normal -0.342493 0.758552 -0.554344
  outer loop
   vertex 0.007082 0.183336 -0.028175
   vertex 0.00457 0.183336 -0.026623
   vertex 0.006646 0.184676 -0.026072
  endloop
 endfacet
 facet normal -0.286233 0.584386 -0.759318
  outer loop
   vertex 0.007785 0.18117 -0.030107
   vertex 0.004938 0.181427 -0.028836
   vertex 0.007082 0.183336 -0.028175
  endloop
 endfacet
 facet normal -0.207851 0.343516 -0.915858
  outer loop
   vertex 0.008634 0.178559 -0.031279
   vertex 0.005792 0.178799 -0.030544
   vertex 0.007785 0.18117 -0.030107
  endloop
 endfacet
 facet normal -0.393627 0.662685 -0.637108
  outer loop
   vertex 0.007082 0.183336 -0.028175
   vertex 0.004938 0.181427 -0.028836
   vertex 0.00457 0.183336 -0.026623
  endloop
 endfacet
 facet normal -0.551379 0.584158 -0.595601
  outer loop
   vertex 0.004938 0.181427 -0.028836
   vertex 0.002528 0.18117 -0.026857
   vertex 0.00457 0.183336 -0.026623
  endloop
 endfacet
 facet normal -0.334054 0.43492 -0.836213
  outer loop
   vertex 0.007785 0.18117 -0.030107
   vertex 0.005792 0.178799 -0.030544
   vertex 0.004938 0.181427 -0.028836
  endloop
 endfacet
 facet normal -0.491058 0.356895 -0.794662
  outer loop
   vertex 0.005792 0.178799 -0.030544
   vertex 0.003028 0.178799 -0.028836
   vertex 0.004938 0.181427 -0.028836
  endloop
 endfacet
 facet normal -0.598657 0.435097 -0.672533
  outer loop
   vertex 0.004938 0.181427 -0.028836
   vertex 0.003028 0.178799 -0.028836
   vertex 0.002528 0.18117 -0.026857
  endloop
 endfacet
 facet normal -0.725985 0.343961 -0.595514
  outer loop
   vertex 0.003028 0.178799 -0.028836
   vertex 0.001099 0.178559 -0.026623
   vertex 0.002528 0.18117 -0.026857
  endloop
 endfacet
 facet normal -0.233325 0.169451 -0.957521
  outer loop
   vertex 0.008634 0.178559 -0.031279
   vertex 0.006899 0.17617 -0.031279
   vertex 0.005792 0.178799 -0.030544
  endloop
 endfacet
 facet normal -0.390899 0.0914587 -0.915878
  outer loop
   vertex 0.006899 0.17617 -0.031279
   vertex 0.004153 0.17617 -0.030107
   vertex 0.005792 0.178799 -0.030544
  endloop
 endfacet
 facet normal -0.516783 0.183167 -0.836293
  outer loop
   vertex 0.005792 0.178799 -0.030544
   vertex 0.004153 0.17617 -0.030107
   vertex 0.003028 0.178799 -0.028836
  endloop
 endfacet
 facet normal -0.644269 0.0913996 -0.759317
  outer loop
   vertex 0.004153 0.17617 -0.030107
   vertex 0.001876 0.17617 -0.028175
   vertex 0.003028 0.178799 -0.028836
  endloop
 endfacet
 facet normal -0.751958 0.169318 -0.637095
  outer loop
   vertex 0.003028 0.178799 -0.028836
   vertex 0.001876 0.17617 -0.028175
   vertex 0.001099 0.178559 -0.026623
  endloop
 endfacet
 facet normal -0.827124 0.091254 -0.554562
  outer loop
   vertex 0.001876 0.17617 -0.028175
   vertex 0.000466 0.17617 -0.026072
   vertex 0.001099 0.178559 -0.026623
  endloop
 endfacet
 facet normal -0.827124 -0.091254 -0.554562
  outer loop
   vertex 0.001876 0.17617 -0.028175
   vertex 0.001099 0.173781 -0.026623
   vertex 0.000466 0.17617 -0.026072
  endloop
 endfacet
 facet normal -0.644269 -0.0913996 -0.759317
  outer loop
   vertex 0.004153 0.17617 -0.030107
   vertex 0.003028 0.173541 -0.028836
   vertex 0.001876 0.17617 -0.028175
  endloop
 endfacet
 facet normal -0.390899 -0.0914587 -0.915878
  outer loop
   vertex 0.006899 0.17617 -0.031279
   vertex 0.005792 0.173541 -0.030544
   vertex 0.004153 0.17617 -0.030107
  endloop
 endfacet
 facet normal -0.751958 -0.169318 -0.637095
  outer loop
   vertex 0.001876 0.17617 -0.028175
   vertex 0.003028 0.173541 -0.028836
   vertex 0.001099 0.173781 -0.026623
  endloop
 endfacet
 facet normal -0.725985 -0.343961 -0.595514
  outer loop
   vertex 0.003028 0.173541 -0.028836
   vertex 0.002528 0.17117 -0.026857
   vertex 0.001099 0.173781 -0.026623
  endloop
 endfacet
 facet normal -0.516783 -0.183167 -0.836293
  outer loop
   vertex 0.004153 0.17617 -0.030107
   vertex 0.005792 0.173541 -0.030544
   vertex 0.003028 0.173541 -0.028836
  endloop
 endfacet
 facet normal -0.491058 -0.356895 -0.794662
  outer loop
   vertex 0.005792 0.173541 -0.030544
   vertex 0.004938 0.170913 -0.028836
   vertex 0.003028 0.173541 -0.028836
  endloop
 endfacet
 facet normal -0.598657 -0.435097 -0.672533
  outer loop
   vertex 0.003028 0.173541 -0.028836
   vertex 0.004938 0.170913 -0.028836
   vertex 0.002528 0.17117 -0.026857
  endloop
 endfacet
 facet normal -0.551379 -0.584158 -0.595601
  outer loop
   vertex 0.004938 0.170913 -0.028836
   vertex 0.00457 0.169004 -0.026623
   vertex 0.002528 0.17117 -0.026857
  endloop
 endfacet
 facet normal -0.233325 -0.169451 -0.957521
  outer loop
   vertex 0.006899 0.17617 -0.031279
   vertex 0.008634 0.173781 -0.031279
   vertex 0.005792 0.173541 -0.030544
  endloop
 endfacet
 facet normal -0.207851 -0.343516 -0.915858
  outer loop
   vertex 0.008634 0.173781 -0.031279
   vertex 0.007785 0.17117 -0.030107
   vertex 0.005792 0.173541 -0.030544
  endloop
 endfacet
 facet normal -0.334054 -0.43492 -0.836213
  outer loop
   vertex 0.005792 0.173541 -0.030544
   vertex 0.007785 0.17117 -0.030107
   vertex 0.004938 0.170913 -0.028836
  endloop
 endfacet
 facet normal -0.286233 -0.584386 -0.759318
  outer loop
   vertex 0.007785 0.17117 -0.030107
   vertex 0.007082 0.169004 -0.028175
   vertex 0.004938 0.170913 -0.028836
  endloop
 endfacet
 facet normal -0.393627 -0.662685 -0.637108
  outer loop
   vertex 0.004938 0.170913 -0.028836
   vertex 0.007082 0.169004 -0.028175
   vertex 0.00457 0.169004 -0.026623
  endloop
 endfacet
 facet normal -0.342493 -0.758552 -0.554344
  outer loop
   vertex 0.007082 0.169004 -0.028175
   vertex 0.006646 0.167664 -0.026072
   vertex 0.00457 0.169004 -0.026623
  endloop
 endfacet
 facet normal 0.723015 0.412034 -0.554506
  outer loop
   vertex 0.017537 0.179122 -0.026623
   vertex 0.015505 0.180599 -0.028175
   vertex 0.016646 0.181427 -0.026072
  endloop
 endfacet
 facet normal 0.789589 0.148568 -0.59538
  outer loop
   vertex 0.017916 0.17617 -0.026857
   vertex 0.016118 0.177795 -0.028836
   vertex 0.017537 0.179122 -0.026623
  endloop
 endfacet
 facet normal 0.789589 -0.148568 -0.59538
  outer loop
   vertex 0.017537 0.173218 -0.026623
   vertex 0.016118 0.174545 -0.028836
   vertex 0.017916 0.17617 -0.026857
  endloop
 endfacet
 facet normal 0.708089 0.304936 -0.636886
  outer loop
   vertex 0.017537 0.179122 -0.026623
   vertex 0.016118 0.177795 -0.028836
   vertex 0.015505 0.180599 -0.028175
  endloop
 endfacet
 facet normal 0.574948 0.304695 -0.759339
  outer loop
   vertex 0.016118 0.177795 -0.028836
   vertex 0.013663 0.17926 -0.030107
   vertex 0.015505 0.180599 -0.028175
  endloop
 endfacet
 facet normal 0.740143 0 -0.672449
  outer loop
   vertex 0.017916 0.17617 -0.026857
   vertex 0.016118 0.174545 -0.028836
   vertex 0.016118 0.177795 -0.028836
  endloop
 endfacet
 facet normal 0.607028 0 -0.794681
  outer loop
   vertex 0.016118 0.174545 -0.028836
   vertex 0.013882 0.17617 -0.030544
   vertex 0.016118 0.177795 -0.028836
  endloop
 endfacet
 facet normal 0.525774 0.155534 -0.836284
  outer loop
   vertex 0.016118 0.177795 -0.028836
   vertex 0.013882 0.17617 -0.030544
   vertex 0.013663 0.17926 -0.030107
  endloop
 endfacet
 facet normal 0.370096 0.155752 -0.915844
  outer loop
   vertex 0.013882 0.17617 -0.030544
   vertex 0.011442 0.177646 -0.031279
   vertex 0.013663 0.17926 -0.030107
  endloop
 endfacet
 facet normal 0.708089 -0.304936 -0.636886
  outer loop
   vertex 0.017537 0.173218 -0.026623
   vertex 0.015505 0.171741 -0.028175
   vertex 0.016118 0.174545 -0.028836
  endloop
 endfacet
 facet normal 0.574948 -0.304695 -0.759339
  outer loop
   vertex 0.015505 0.171741 -0.028175
   vertex 0.013663 0.17308 -0.030107
   vertex 0.016118 0.174545 -0.028836
  endloop
 endfacet
 facet normal 0.525774 -0.155534 -0.836284
  outer loop
   vertex 0.016118 0.174545 -0.028836
   vertex 0.013663 0.17308 -0.030107
   vertex 0.013882 0.17617 -0.030544
  endloop
 endfacet
 facet normal 0.370096 -0.155752 -0.915844
  outer loop
   vertex 0.013663 0.17308 -0.030107
   vertex 0.011442 0.174694 -0.031279
   vertex 0.013882 0.17617 -0.030544
  endloop
 endfacet
 facet normal 0.288428 0 -0.957502
  outer loop
   vertex 0.013882 0.17617 -0.030544
   vertex 0.011442 0.174694 -0.031279
   vertex 0.011442 0.177646 -0.031279
  endloop
 endfacet
 facet normal 0.156037 0 -0.987751
  outer loop
   vertex 0.011442 0.174694 -0.031279
   vertex 0.00941 0.17617 -0.0316
   vertex 0.011442 0.177646 -0.031279
  endloop
 endfacet
 facet normal -0.168666 -0.815046 -0.554303
  outer loop
   vertex 0.007082 0.169004 -0.028175
   vertex 0.009114 0.167528 -0.026623
   vertex 0.006646 0.167664 -0.026072
  endloop
 endfacet
 facet normal -0.112009 -0.640965 -0.759354
  outer loop
   vertex 0.007785 0.17117 -0.030107
   vertex 0.009938 0.169288 -0.028836
   vertex 0.007082 0.169004 -0.028175
  endloop
 endfacet
 facet normal -0.0336945 -0.400135 -0.915836
  outer loop
   vertex 0.008634 0.173781 -0.031279
   vertex 0.010792 0.171917 -0.030544
   vertex 0.007785 0.17117 -0.030107
  endloop
 endfacet
 facet normal -0.0710868 -0.767617 -0.636955
  outer loop
   vertex 0.007082 0.169004 -0.028175
   vertex 0.009938 0.169288 -0.028836
   vertex 0.009114 0.167528 -0.026623
  endloop
 endfacet
 facet normal 0.102735 -0.796801 -0.595444
  outer loop
   vertex 0.009938 0.169288 -0.028836
   vertex 0.012039 0.16808 -0.026857
   vertex 0.009114 0.167528 -0.026623
  endloop
 endfacet
 facet normal 0.0146149 -0.548074 -0.836302
  outer loop
   vertex 0.007785 0.17117 -0.030107
   vertex 0.010792 0.171917 -0.030544
   vertex 0.009938 0.169288 -0.028836
  endloop
 endfacet
 facet normal 0.187559 -0.577248 -0.794737
  outer loop
   vertex 0.010792 0.171917 -0.030544
   vertex 0.013028 0.170292 -0.028836
   vertex 0.009938 0.169288 -0.028836
  endloop
 endfacet
 facet normal 0.228709 -0.703897 -0.672474
  outer loop
   vertex 0.009938 0.169288 -0.028836
   vertex 0.013028 0.170292 -0.028836
   vertex 0.012039 0.16808 -0.026857
  endloop
 endfacet
 facet normal 0.38541 -0.704977 -0.595371
  outer loop
   vertex 0.013028 0.170292 -0.028836
   vertex 0.014729 0.169353 -0.026623
   vertex 0.012039 0.16808 -0.026857
  endloop
 endfacet
 facet normal 0.0891868 -0.274301 -0.957499
  outer loop
   vertex 0.008634 0.173781 -0.031279
   vertex 0.011442 0.174694 -0.031279
   vertex 0.010792 0.171917 -0.030544
  endloop
 endfacet
 facet normal 0.262485 -0.303841 -0.915851
  outer loop
   vertex 0.011442 0.174694 -0.031279
   vertex 0.013663 0.17308 -0.030107
   vertex 0.010792 0.171917 -0.030544
  endloop
 endfacet
 facet normal 0.310374 -0.451949 -0.836307
  outer loop
   vertex 0.010792 0.171917 -0.030544
   vertex 0.013663 0.17308 -0.030107
   vertex 0.013028 0.170292 -0.028836
  endloop
 endfacet
 facet normal 0.467426 -0.452641 -0.759361
  outer loop
   vertex 0.013663 0.17308 -0.030107
   vertex 0.015505 0.171741 -0.028175
   vertex 0.013028 0.170292 -0.028836
  endloop
 endfacet
 facet normal 0.508799 -0.579247 -0.636864
  outer loop
   vertex 0.013028 0.170292 -0.028836
   vertex 0.015505 0.171741 -0.028175
   vertex 0.014729 0.169353 -0.026623
  endloop
 endfacet
 facet normal 0.61533 -0.560308 -0.554459
  outer loop
   vertex 0.015505 0.171741 -0.028175
   vertex 0.016646 0.170913 -0.026072
   vertex 0.014729 0.169353 -0.026623
  endloop
 endfacet
endsolid ExportedfromBlender-3.5.1
