solid ExportedfromBlender-3.5.1
 facet normal 0.0482486 -0.148392 -0.987751
  outer loop
   vertex -0.02081 0.30641 -0.03207
   vertex -0.018778 0.304934 -0.031749
   vertex -0.021586 0.304021 -0.031749
  endloop
 endfacet
 facet normal 0.723015 -0.412034 -0.554506
  outer loop
   vertex -0.013574 0.301153 -0.026542
   vertex -0.014715 0.301981 -0.028645
   vertex -0.012683 0.303458 -0.027093
  endloop
 endfacet
 facet normal -0.126271 -0.0917039 -0.987748
  outer loop
   vertex -0.02081 0.30641 -0.03207
   vertex -0.021586 0.304021 -0.031749
   vertex -0.023321 0.30641 -0.031749
  endloop
 endfacet
 facet normal -0.126271 0.0917039 -0.987748
  outer loop
   vertex -0.02081 0.30641 -0.03207
   vertex -0.023321 0.30641 -0.031749
   vertex -0.021586 0.308799 -0.031749
  endloop
 endfacet
 facet normal 0.0482486 0.148392 -0.987751
  outer loop
   vertex -0.02081 0.30641 -0.03207
   vertex -0.021586 0.308799 -0.031749
   vertex -0.018778 0.307886 -0.031749
  endloop
 endfacet
 facet normal 0.819189 -0.412026 -0.398954
  outer loop
   vertex -0.013574 0.301153 -0.026542
   vertex -0.012683 0.303458 -0.027093
   vertex -0.012203 0.301981 -0.024582
  endloop
 endfacet
 facet normal -0.138975 -0.90647 -0.398746
  outer loop
   vertex -0.023574 0.297904 -0.026542
   vertex -0.021106 0.297768 -0.027093
   vertex -0.022362 0.296856 -0.024582
  endloop
 endfacet
 facet normal -0.905177 -0.147939 -0.398459
  outer loop
   vertex -0.029754 0.30641 -0.026542
   vertex -0.029121 0.304021 -0.027093
   vertex -0.030376 0.304934 -0.024581
  endloop
 endfacet
 facet normal -0.420269 0.815078 -0.398776
  outer loop
   vertex -0.023574 0.314916 -0.026542
   vertex -0.02565 0.313576 -0.027093
   vertex -0.02517 0.315052 -0.024582
  endloop
 endfacet
 facet normal 0.645038 0.651744 -0.398942
  outer loop
   vertex -0.013574 0.311667 -0.026542
   vertex -0.015491 0.313227 -0.027093
   vertex -0.013938 0.313227 -0.024582
  endloop
 endfacet
 facet normal 0.771063 -0.560215 -0.302688
  outer loop
   vertex -0.013574 0.301153 -0.026542
   vertex -0.012203 0.301981 -0.024582
   vertex -0.013938 0.299593 -0.024582
  endloop
 endfacet
 facet normal -0.294416 -0.906493 -0.302638
  outer loop
   vertex -0.023574 0.297904 -0.026542
   vertex -0.022362 0.296856 -0.024582
   vertex -0.02517 0.297768 -0.024582
  endloop
 endfacet
 facet normal -0.9532 0 -0.302341
  outer loop
   vertex -0.029754 0.30641 -0.026542
   vertex -0.030376 0.304934 -0.024581
   vertex -0.030376 0.307886 -0.024581
  endloop
 endfacet
 facet normal -0.294416 0.906493 -0.302638
  outer loop
   vertex -0.023574 0.314916 -0.026542
   vertex -0.02517 0.315052 -0.024582
   vertex -0.022362 0.315964 -0.024582
  endloop
 endfacet
 facet normal 0.771063 0.560215 -0.302688
  outer loop
   vertex -0.013574 0.311667 -0.026542
   vertex -0.013938 0.313227 -0.024582
   vertex -0.012203 0.310839 -0.024582
  endloop
 endfacet
 facet normal 0.342493 -0.758552 0.554344
  outer loop
   vertex -0.018046 0.297904 -0.017598
   vertex -0.01597 0.299244 -0.017047
   vertex -0.018482 0.299244 -0.015495
  endloop
 endfacet
 facet normal -0.61533 -0.560308 0.554459
  outer loop
   vertex -0.028046 0.301153 -0.017598
   vertex -0.026129 0.299593 -0.017047
   vertex -0.026905 0.301981 -0.015495
  endloop
 endfacet
 facet normal -0.723015 0.412034 0.554506
  outer loop
   vertex -0.028046 0.311667 -0.017598
   vertex -0.028937 0.309362 -0.017047
   vertex -0.026905 0.310839 -0.015495
  endloop
 endfacet
 facet normal 0.168666 0.815046 0.554303
  outer loop
   vertex -0.018046 0.314916 -0.017598
   vertex -0.020514 0.315052 -0.017047
   vertex -0.018482 0.313576 -0.015495
  endloop
 endfacet
 facet normal 0.827124 0.091254 0.554562
  outer loop
   vertex -0.011866 0.30641 -0.017598
   vertex -0.012499 0.308799 -0.017047
   vertex -0.013276 0.30641 -0.015495
  endloop
 endfacet
 facet normal 0.126271 0.0917039 0.987748
  outer loop
   vertex -0.018299 0.30641 -0.012391
   vertex -0.020034 0.308799 -0.012391
   vertex -0.02081 0.30641 -0.01207
  endloop
 endfacet
 facet normal 0.390899 0.0914587 0.915878
  outer loop
   vertex -0.015553 0.30641 -0.013563
   vertex -0.017192 0.309039 -0.013126
   vertex -0.018299 0.30641 -0.012391
  endloop
 endfacet
 facet normal 0.644269 0.0913996 0.759317
  outer loop
   vertex -0.013276 0.30641 -0.015495
   vertex -0.014428 0.309039 -0.014834
   vertex -0.015553 0.30641 -0.013563
  endloop
 endfacet
 facet normal 0.233325 0.169451 0.957521
  outer loop
   vertex -0.018299 0.30641 -0.012391
   vertex -0.017192 0.309039 -0.013126
   vertex -0.020034 0.308799 -0.012391
  endloop
 endfacet
 facet normal 0.207851 0.343516 0.915858
  outer loop
   vertex -0.017192 0.309039 -0.013126
   vertex -0.019185 0.31141 -0.013563
   vertex -0.020034 0.308799 -0.012391
  endloop
 endfacet
 facet normal 0.516783 0.183167 0.836293
  outer loop
   vertex -0.015553 0.30641 -0.013563
   vertex -0.014428 0.309039 -0.014834
   vertex -0.017192 0.309039 -0.013126
  endloop
 endfacet
 facet normal 0.491058 0.356895 0.794662
  outer loop
   vertex -0.014428 0.309039 -0.014834
   vertex -0.016338 0.311667 -0.014834
   vertex -0.017192 0.309039 -0.013126
  endloop
 endfacet
 facet normal 0.334054 0.43492 0.836213
  outer loop
   vertex -0.017192 0.309039 -0.013126
   vertex -0.016338 0.311667 -0.014834
   vertex -0.019185 0.31141 -0.013563
  endloop
 endfacet
 facet normal 0.286233 0.584386 0.759318
  outer loop
   vertex -0.016338 0.311667 -0.014834
   vertex -0.018482 0.313576 -0.015495
   vertex -0.019185 0.31141 -0.013563
  endloop
 endfacet
 facet normal 0.751958 0.169318 0.637095
  outer loop
   vertex -0.013276 0.30641 -0.015495
   vertex -0.012499 0.308799 -0.017047
   vertex -0.014428 0.309039 -0.014834
  endloop
 endfacet
 facet normal 0.725985 0.343961 0.595514
  outer loop
   vertex -0.012499 0.308799 -0.017047
   vertex -0.013928 0.31141 -0.016813
   vertex -0.014428 0.309039 -0.014834
  endloop
 endfacet
 facet normal 0.598657 0.435097 0.672533
  outer loop
   vertex -0.014428 0.309039 -0.014834
   vertex -0.013928 0.31141 -0.016813
   vertex -0.016338 0.311667 -0.014834
  endloop
 endfacet
 facet normal 0.551379 0.584158 0.595601
  outer loop
   vertex -0.013928 0.31141 -0.016813
   vertex -0.01597 0.313576 -0.017047
   vertex -0.016338 0.311667 -0.014834
  endloop
 endfacet
 facet normal 0.393627 0.662685 0.637108
  outer loop
   vertex -0.016338 0.311667 -0.014834
   vertex -0.01597 0.313576 -0.017047
   vertex -0.018482 0.313576 -0.015495
  endloop
 endfacet
 facet normal 0.342493 0.758552 0.554344
  outer loop
   vertex -0.01597 0.313576 -0.017047
   vertex -0.018046 0.314916 -0.017598
   vertex -0.018482 0.313576 -0.015495
  endloop
 endfacet
 facet normal -0.0482486 0.148392 0.987751
  outer loop
   vertex -0.020034 0.308799 -0.012391
   vertex -0.022842 0.307886 -0.012391
   vertex -0.02081 0.30641 -0.01207
  endloop
 endfacet
 facet normal 0.0336945 0.400135 0.915836
  outer loop
   vertex -0.019185 0.31141 -0.013563
   vertex -0.022192 0.310663 -0.013126
   vertex -0.020034 0.308799 -0.012391
  endloop
 endfacet
 facet normal 0.112009 0.640965 0.759354
  outer loop
   vertex -0.018482 0.313576 -0.015495
   vertex -0.021338 0.313292 -0.014834
   vertex -0.019185 0.31141 -0.013563
  endloop
 endfacet
 facet normal -0.0891868 0.274301 0.957499
  outer loop
   vertex -0.020034 0.308799 -0.012391
   vertex -0.022192 0.310663 -0.013126
   vertex -0.022842 0.307886 -0.012391
  endloop
 endfacet
 facet normal -0.262485 0.303841 0.915851
  outer loop
   vertex -0.022192 0.310663 -0.013126
   vertex -0.025063 0.3095 -0.013563
   vertex -0.022842 0.307886 -0.012391
  endloop
 endfacet
 facet normal -0.0146149 0.548074 0.836302
  outer loop
   vertex -0.019185 0.31141 -0.013563
   vertex -0.021338 0.313292 -0.014834
   vertex -0.022192 0.310663 -0.013126
  endloop
 endfacet
 facet normal -0.187559 0.577248 0.794737
  outer loop
   vertex -0.021338 0.313292 -0.014834
   vertex -0.024428 0.312288 -0.014834
   vertex -0.022192 0.310663 -0.013126
  endloop
 endfacet
 facet normal -0.310374 0.451949 0.836307
  outer loop
   vertex -0.022192 0.310663 -0.013126
   vertex -0.024428 0.312288 -0.014834
   vertex -0.025063 0.3095 -0.013563
  endloop
 endfacet
 facet normal -0.467426 0.452641 0.759361
  outer loop
   vertex -0.024428 0.312288 -0.014834
   vertex -0.026905 0.310839 -0.015495
   vertex -0.025063 0.3095 -0.013563
  endloop
 endfacet
 facet normal 0.0710868 0.767617 0.636955
  outer loop
   vertex -0.018482 0.313576 -0.015495
   vertex -0.020514 0.315052 -0.017047
   vertex -0.021338 0.313292 -0.014834
  endloop
 endfacet
 facet normal -0.102735 0.796801 0.595444
  outer loop
   vertex -0.020514 0.315052 -0.017047
   vertex -0.023439 0.3145 -0.016813
   vertex -0.021338 0.313292 -0.014834
  endloop
 endfacet
 facet normal -0.228709 0.703897 0.672474
  outer loop
   vertex -0.021338 0.313292 -0.014834
   vertex -0.023439 0.3145 -0.016813
   vertex -0.024428 0.312288 -0.014834
  endloop
 endfacet
 facet normal -0.38541 0.704977 0.595371
  outer loop
   vertex -0.023439 0.3145 -0.016813
   vertex -0.026129 0.313227 -0.017047
   vertex -0.024428 0.312288 -0.014834
  endloop
 endfacet
 facet normal -0.508799 0.579247 0.636864
  outer loop
   vertex -0.024428 0.312288 -0.014834
   vertex -0.026129 0.313227 -0.017047
   vertex -0.026905 0.310839 -0.015495
  endloop
 endfacet
 facet normal -0.61533 0.560308 0.554459
  outer loop
   vertex -0.026129 0.313227 -0.017047
   vertex -0.028046 0.311667 -0.017598
   vertex -0.026905 0.310839 -0.015495
  endloop
 endfacet
 facet normal -0.156037 0 0.987751
  outer loop
   vertex -0.022842 0.307886 -0.012391
   vertex -0.022842 0.304934 -0.012391
   vertex -0.02081 0.30641 -0.01207
  endloop
 endfacet
 facet normal -0.370096 0.155752 0.915844
  outer loop
   vertex -0.025063 0.3095 -0.013563
   vertex -0.025282 0.30641 -0.013126
   vertex -0.022842 0.307886 -0.012391
  endloop
 endfacet
 facet normal -0.574948 0.304695 0.759339
  outer loop
   vertex -0.026905 0.310839 -0.015495
   vertex -0.027518 0.308035 -0.014834
   vertex -0.025063 0.3095 -0.013563
  endloop
 endfacet
 facet normal -0.288428 0 0.957502
  outer loop
   vertex -0.022842 0.307886 -0.012391
   vertex -0.025282 0.30641 -0.013126
   vertex -0.022842 0.304934 -0.012391
  endloop
 endfacet
 facet normal -0.370096 -0.155752 0.915844
  outer loop
   vertex -0.025282 0.30641 -0.013126
   vertex -0.025063 0.30332 -0.013563
   vertex -0.022842 0.304934 -0.012391
  endloop
 endfacet
 facet normal -0.525774 0.155534 0.836284
  outer loop
   vertex -0.025063 0.3095 -0.013563
   vertex -0.027518 0.308035 -0.014834
   vertex -0.025282 0.30641 -0.013126
  endloop
 endfacet
 facet normal -0.607028 0 0.794681
  outer loop
   vertex -0.027518 0.308035 -0.014834
   vertex -0.027518 0.304785 -0.014834
   vertex -0.025282 0.30641 -0.013126
  endloop
 endfacet
 facet normal -0.525774 -0.155534 0.836284
  outer loop
   vertex -0.025282 0.30641 -0.013126
   vertex -0.027518 0.304785 -0.014834
   vertex -0.025063 0.30332 -0.013563
  endloop
 endfacet
 facet normal -0.574948 -0.304695 0.759339
  outer loop
   vertex -0.027518 0.304785 -0.014834
   vertex -0.026905 0.301981 -0.015495
   vertex -0.025063 0.30332 -0.013563
  endloop
 endfacet
 facet normal -0.708089 0.304936 0.636886
  outer loop
   vertex -0.026905 0.310839 -0.015495
   vertex -0.028937 0.309362 -0.017047
   vertex -0.027518 0.308035 -0.014834
  endloop
 endfacet
 facet normal -0.789589 0.148568 0.59538
  outer loop
   vertex -0.028937 0.309362 -0.017047
   vertex -0.029316 0.30641 -0.016813
   vertex -0.027518 0.308035 -0.014834
  endloop
 endfacet
 facet normal -0.740143 0 0.672449
  outer loop
   vertex -0.027518 0.308035 -0.014834
   vertex -0.029316 0.30641 -0.016813
   vertex -0.027518 0.304785 -0.014834
  endloop
 endfacet
 facet normal -0.789589 -0.148568 0.59538
  outer loop
   vertex -0.029316 0.30641 -0.016813
   vertex -0.028937 0.303458 -0.017047
   vertex -0.027518 0.304785 -0.014834
  endloop
 endfacet
 facet normal -0.708089 -0.304936 0.636886
  outer loop
   vertex -0.027518 0.304785 -0.014834
   vertex -0.028937 0.303458 -0.017047
   vertex -0.026905 0.301981 -0.015495
  endloop
 endfacet
 facet normal -0.723015 -0.412034 0.554506
  outer loop
   vertex -0.028937 0.303458 -0.017047
   vertex -0.028046 0.301153 -0.017598
   vertex -0.026905 0.301981 -0.015495
  endloop
 endfacet
 facet normal -0.0482486 -0.148392 0.987751
  outer loop
   vertex -0.022842 0.304934 -0.012391
   vertex -0.020034 0.304021 -0.012391
   vertex -0.02081 0.30641 -0.01207
  endloop
 endfacet
 facet normal -0.262485 -0.303841 0.915851
  outer loop
   vertex -0.025063 0.30332 -0.013563
   vertex -0.022192 0.302157 -0.013126
   vertex -0.022842 0.304934 -0.012391
  endloop
 endfacet
 facet normal -0.467426 -0.452641 0.759361
  outer loop
   vertex -0.026905 0.301981 -0.015495
   vertex -0.024428 0.300532 -0.014834
   vertex -0.025063 0.30332 -0.013563
  endloop
 endfacet
 facet normal -0.0891868 -0.274301 0.957499
  outer loop
   vertex -0.022842 0.304934 -0.012391
   vertex -0.022192 0.302157 -0.013126
   vertex -0.020034 0.304021 -0.012391
  endloop
 endfacet
 facet normal 0.0336945 -0.400135 0.915836
  outer loop
   vertex -0.022192 0.302157 -0.013126
   vertex -0.019185 0.30141 -0.013563
   vertex -0.020034 0.304021 -0.012391
  endloop
 endfacet
 facet normal -0.310374 -0.451949 0.836307
  outer loop
   vertex -0.025063 0.30332 -0.013563
   vertex -0.024428 0.300532 -0.014834
   vertex -0.022192 0.302157 -0.013126
  endloop
 endfacet
 facet normal -0.187559 -0.577248 0.794737
  outer loop
   vertex -0.024428 0.300532 -0.014834
   vertex -0.021338 0.299528 -0.014834
   vertex -0.022192 0.302157 -0.013126
  endloop
 endfacet
 facet normal -0.0146149 -0.548074 0.836302
  outer loop
   vertex -0.022192 0.302157 -0.013126
   vertex -0.021338 0.299528 -0.014834
   vertex -0.019185 0.30141 -0.013563
  endloop
 endfacet
 facet normal 0.112009 -0.640965 0.759354
  outer loop
   vertex -0.021338 0.299528 -0.014834
   vertex -0.018482 0.299244 -0.015495
   vertex -0.019185 0.30141 -0.013563
  endloop
 endfacet
 facet normal -0.508799 -0.579247 0.636864
  outer loop
   vertex -0.026905 0.301981 -0.015495
   vertex -0.026129 0.299593 -0.017047
   vertex -0.024428 0.300532 -0.014834
  endloop
 endfacet
 facet normal -0.38541 -0.704977 0.595371
  outer loop
   vertex -0.026129 0.299593 -0.017047
   vertex -0.023439 0.29832 -0.016813
   vertex -0.024428 0.300532 -0.014834
  endloop
 endfacet
 facet normal -0.228709 -0.703897 0.672474
  outer loop
   vertex -0.024428 0.300532 -0.014834
   vertex -0.023439 0.29832 -0.016813
   vertex -0.021338 0.299528 -0.014834
  endloop
 endfacet
 facet normal -0.102735 -0.796801 0.595444
  outer loop
   vertex -0.023439 0.29832 -0.016813
   vertex -0.020514 0.297768 -0.017047
   vertex -0.021338 0.299528 -0.014834
  endloop
 endfacet
 facet normal 0.0710868 -0.767617 0.636955
  outer loop
   vertex -0.021338 0.299528 -0.014834
   vertex -0.020514 0.297768 -0.017047
   vertex -0.018482 0.299244 -0.015495
  endloop
 endfacet
 facet normal 0.168666 -0.815046 0.554303
  outer loop
   vertex -0.020514 0.297768 -0.017047
   vertex -0.018046 0.297904 -0.017598
   vertex -0.018482 0.299244 -0.015495
  endloop
 endfacet
 facet normal 0.126271 -0.0917039 0.987748
  outer loop
   vertex -0.020034 0.304021 -0.012391
   vertex -0.018299 0.30641 -0.012391
   vertex -0.02081 0.30641 -0.01207
  endloop
 endfacet
 facet normal 0.207851 -0.343516 0.915858
  outer loop
   vertex -0.019185 0.30141 -0.013563
   vertex -0.017192 0.303781 -0.013126
   vertex -0.020034 0.304021 -0.012391
  endloop
 endfacet
 facet normal 0.286233 -0.584386 0.759318
  outer loop
   vertex -0.018482 0.299244 -0.015495
   vertex -0.016338 0.301153 -0.014834
   vertex -0.019185 0.30141 -0.013563
  endloop
 endfacet
 facet normal 0.233325 -0.169451 0.957521
  outer loop
   vertex -0.020034 0.304021 -0.012391
   vertex -0.017192 0.303781 -0.013126
   vertex -0.018299 0.30641 -0.012391
  endloop
 endfacet
 facet normal 0.390899 -0.0914587 0.915878
  outer loop
   vertex -0.017192 0.303781 -0.013126
   vertex -0.015553 0.30641 -0.013563
   vertex -0.018299 0.30641 -0.012391
  endloop
 endfacet
 facet normal 0.334054 -0.43492 0.836213
  outer loop
   vertex -0.019185 0.30141 -0.013563
   vertex -0.016338 0.301153 -0.014834
   vertex -0.017192 0.303781 -0.013126
  endloop
 endfacet
 facet normal 0.491058 -0.356895 0.794662
  outer loop
   vertex -0.016338 0.301153 -0.014834
   vertex -0.014428 0.303781 -0.014834
   vertex -0.017192 0.303781 -0.013126
  endloop
 endfacet
 facet normal 0.516783 -0.183167 0.836293
  outer loop
   vertex -0.017192 0.303781 -0.013126
   vertex -0.014428 0.303781 -0.014834
   vertex -0.015553 0.30641 -0.013563
  endloop
 endfacet
 facet normal 0.644269 -0.0913996 0.759317
  outer loop
   vertex -0.014428 0.303781 -0.014834
   vertex -0.013276 0.30641 -0.015495
   vertex -0.015553 0.30641 -0.013563
  endloop
 endfacet
 facet normal 0.393627 -0.662685 0.637108
  outer loop
   vertex -0.018482 0.299244 -0.015495
   vertex -0.01597 0.299244 -0.017047
   vertex -0.016338 0.301153 -0.014834
  endloop
 endfacet
 facet normal 0.551379 -0.584158 0.595601
  outer loop
   vertex -0.01597 0.299244 -0.017047
   vertex -0.013928 0.30141 -0.016813
   vertex -0.016338 0.301153 -0.014834
  endloop
 endfacet
 facet normal 0.598657 -0.435097 0.672533
  outer loop
   vertex -0.016338 0.301153 -0.014834
   vertex -0.013928 0.30141 -0.016813
   vertex -0.014428 0.303781 -0.014834
  endloop
 endfacet
 facet normal 0.725985 -0.343961 0.595514
  outer loop
   vertex -0.013928 0.30141 -0.016813
   vertex -0.012499 0.304021 -0.017047
   vertex -0.014428 0.303781 -0.014834
  endloop
 endfacet
 facet normal 0.751958 -0.169318 0.637095
  outer loop
   vertex -0.014428 0.303781 -0.014834
   vertex -0.012499 0.304021 -0.017047
   vertex -0.013276 0.30641 -0.015495
  endloop
 endfacet
 facet normal 0.827124 -0.091254 0.554562
  outer loop
   vertex -0.012499 0.304021 -0.017047
   vertex -0.011866 0.30641 -0.017598
   vertex -0.013276 0.30641 -0.015495
  endloop
 endfacet
 facet normal 0.905177 0.147939 0.398459
  outer loop
   vertex -0.011244 0.307886 -0.019559
   vertex -0.012499 0.308799 -0.017047
   vertex -0.011866 0.30641 -0.017598
  endloop
 endfacet
 facet normal 0.93657 0.303801 0.17476
  outer loop
   vertex -0.011299 0.3095 -0.02207
   vertex -0.012192 0.310663 -0.019306
   vertex -0.011244 0.307886 -0.019559
  endloop
 endfacet
 facet normal 0.888212 0.452708 -0.078331
  outer loop
   vertex -0.012203 0.310839 -0.024582
   vertex -0.01272 0.312288 -0.02207
   vertex -0.011299 0.3095 -0.02207
  endloop
 endfacet
 facet normal 0.89641 0.274294 0.348155
  outer loop
   vertex -0.011244 0.307886 -0.019559
   vertex -0.012192 0.310663 -0.019306
   vertex -0.012499 0.308799 -0.017047
  endloop
 endfacet
 facet normal 0.803858 0.400541 0.439749
  outer loop
   vertex -0.012192 0.310663 -0.019306
   vertex -0.013928 0.31141 -0.016813
   vertex -0.012499 0.308799 -0.017047
  endloop
 endfacet
 facet normal 0.886806 0.451991 0.0963284
  outer loop
   vertex -0.011299 0.3095 -0.02207
   vertex -0.01272 0.312288 -0.02207
   vertex -0.012192 0.310663 -0.019306
  endloop
 endfacet
 facet normal 0.794662 0.577331 0.18762
  outer loop
   vertex -0.01272 0.312288 -0.02207
   vertex -0.014102 0.313292 -0.019306
   vertex -0.012192 0.310663 -0.019306
  endloop
 endfacet
 facet normal 0.754436 0.548107 0.361117
  outer loop
   vertex -0.012192 0.310663 -0.019306
   vertex -0.014102 0.313292 -0.019306
   vertex -0.013928 0.31141 -0.016813
  endloop
 endfacet
 facet normal 0.629279 0.640767 0.439803
  outer loop
   vertex -0.014102 0.313292 -0.019306
   vertex -0.01597 0.313576 -0.017047
   vertex -0.013928 0.31141 -0.016813
  endloop
 endfacet
 facet normal 0.797233 0.579229 -0.170037
  outer loop
   vertex -0.012203 0.310839 -0.024582
   vertex -0.013938 0.313227 -0.024582
   vertex -0.01272 0.312288 -0.02207
  endloop
 endfacet
 facet normal 0.704936 0.704936 -0.0782949
  outer loop
   vertex -0.013938 0.313227 -0.024582
   vertex -0.014932 0.3145 -0.02207
   vertex -0.01272 0.312288 -0.02207
  endloop
 endfacet
 facet normal 0.703824 0.703824 0.0962537
  outer loop
   vertex -0.01272 0.312288 -0.02207
   vertex -0.014932 0.3145 -0.02207
   vertex -0.014102 0.313292 -0.019306
  endloop
 endfacet
 facet normal 0.578519 0.796783 0.174509
  outer loop
   vertex -0.014932 0.3145 -0.02207
   vertex -0.01645 0.315052 -0.019558
   vertex -0.014102 0.313292 -0.019306
  endloop
 endfacet
 facet normal 0.537986 0.767602 0.348366
  outer loop
   vertex -0.014102 0.313292 -0.019306
   vertex -0.01645 0.315052 -0.019558
   vertex -0.01597 0.313576 -0.017047
  endloop
 endfacet
 facet normal 0.420269 0.815078 0.398776
  outer loop
   vertex -0.01645 0.315052 -0.019558
   vertex -0.018046 0.314916 -0.017598
   vertex -0.01597 0.313576 -0.017047
  endloop
 endfacet
 facet normal 0.138975 0.90647 0.398746
  outer loop
   vertex -0.019258 0.315964 -0.019558
   vertex -0.020514 0.315052 -0.017047
   vertex -0.018046 0.314916 -0.017598
  endloop
 endfacet
 facet normal 0.000555151 0.98466 0.174481
  outer loop
   vertex -0.02081 0.31641 -0.02207
   vertex -0.022192 0.315921 -0.019306
   vertex -0.019258 0.315964 -0.019558
  endloop
 endfacet
 facet normal -0.155824 0.984657 -0.07855
  outer loop
   vertex -0.022362 0.315964 -0.024582
   vertex -0.0239 0.315921 -0.02207
   vertex -0.02081 0.31641 -0.02207
  endloop
 endfacet
 facet normal 0.0161962 0.937175 0.348485
  outer loop
   vertex -0.019258 0.315964 -0.019558
   vertex -0.022192 0.315921 -0.019306
   vertex -0.020514 0.315052 -0.017047
  endloop
 endfacet
 facet normal -0.132412 0.888171 0.440021
  outer loop
   vertex -0.022192 0.315921 -0.019306
   vertex -0.023439 0.3145 -0.016813
   vertex -0.020514 0.315052 -0.017047
  endloop
 endfacet
 facet normal -0.155583 0.983133 0.0961419
  outer loop
   vertex -0.02081 0.31641 -0.02207
   vertex -0.0239 0.315921 -0.02207
   vertex -0.022192 0.315921 -0.019306
  endloop
 endfacet
 facet normal -0.303796 0.934059 0.187729
  outer loop
   vertex -0.0239 0.315921 -0.02207
   vertex -0.025282 0.314916 -0.019306
   vertex -0.022192 0.315921 -0.019306
  endloop
 endfacet
 facet normal -0.288415 0.886769 0.361189
  outer loop
   vertex -0.022192 0.315921 -0.019306
   vertex -0.025282 0.314916 -0.019306
   vertex -0.023439 0.3145 -0.016813
  endloop
 endfacet
 facet normal -0.415138 0.796394 0.439791
  outer loop
   vertex -0.025282 0.314916 -0.019306
   vertex -0.026129 0.313227 -0.017047
   vertex -0.023439 0.3145 -0.016813
  endloop
 endfacet
 facet normal -0.304389 0.937197 -0.170322
  outer loop
   vertex -0.022362 0.315964 -0.024582
   vertex -0.02517 0.315052 -0.024582
   vertex -0.0239 0.315921 -0.02207
  endloop
 endfacet
 facet normal -0.452705 0.888208 -0.0783901
  outer loop
   vertex -0.02517 0.315052 -0.024582
   vertex -0.026688 0.3145 -0.02207
   vertex -0.0239 0.315921 -0.02207
  endloop
 endfacet
 facet normal -0.451986 0.886796 0.0964489
  outer loop
   vertex -0.0239 0.315921 -0.02207
   vertex -0.026688 0.3145 -0.02207
   vertex -0.025282 0.314916 -0.019306
  endloop
 endfacet
 facet normal -0.578874 0.796508 0.174584
  outer loop
   vertex -0.026688 0.3145 -0.02207
   vertex -0.027682 0.313227 -0.019558
   vertex -0.025282 0.314916 -0.019306
  endloop
 endfacet
 facet normal -0.563623 0.748876 0.348589
  outer loop
   vertex -0.025282 0.314916 -0.019306
   vertex -0.027682 0.313227 -0.019558
   vertex -0.026129 0.313227 -0.017047
  endloop
 endfacet
 facet normal -0.645038 0.651744 0.398942
  outer loop
   vertex -0.027682 0.313227 -0.019558
   vertex -0.028046 0.311667 -0.017598
   vertex -0.026129 0.313227 -0.017047
  endloop
 endfacet
 facet normal -0.819189 0.412026 0.398954
  outer loop
   vertex -0.029417 0.310839 -0.019558
   vertex -0.028937 0.309362 -0.017047
   vertex -0.028046 0.311667 -0.017598
  endloop
 endfacet
 facet normal -0.936352 0.304548 0.174631
  outer loop
   vertex -0.030321 0.3095 -0.02207
   vertex -0.030282 0.308035 -0.019306
   vertex -0.029417 0.310839 -0.019558
  endloop
 endfacet
 facet normal -0.984653 0.155824 -0.0785916
  outer loop
   vertex -0.030376 0.307886 -0.024581
   vertex -0.03081 0.30641 -0.02207
   vertex -0.030321 0.3095 -0.02207
  endloop
 endfacet
 facet normal -0.886309 0.304753 0.348685
  outer loop
   vertex -0.029417 0.310839 -0.019558
   vertex -0.030282 0.308035 -0.019306
   vertex -0.028937 0.309362 -0.017047
  endloop
 endfacet
 facet normal -0.885615 0.148581 0.440011
  outer loop
   vertex -0.030282 0.308035 -0.019306
   vertex -0.029316 0.30641 -0.016813
   vertex -0.028937 0.309362 -0.017047
  endloop
 endfacet
 facet normal -0.983115 0.15558 0.0963335
  outer loop
   vertex -0.030321 0.3095 -0.02207
   vertex -0.03081 0.30641 -0.02207
   vertex -0.030282 0.308035 -0.019306
  endloop
 endfacet
 facet normal -0.982239 0 0.187634
  outer loop
   vertex -0.03081 0.30641 -0.02207
   vertex -0.030282 0.304785 -0.019306
   vertex -0.030282 0.308035 -0.019306
  endloop
 endfacet
 facet normal -0.932446 0 0.361309
  outer loop
   vertex -0.030282 0.308035 -0.019306
   vertex -0.030282 0.304785 -0.019306
   vertex -0.029316 0.30641 -0.016813
  endloop
 endfacet
 facet normal -0.885615 -0.148581 0.440011
  outer loop
   vertex -0.030282 0.304785 -0.019306
   vertex -0.028937 0.303458 -0.017047
   vertex -0.029316 0.30641 -0.016813
  endloop
 endfacet
 facet normal -0.98539 -0 -0.170314
  outer loop
   vertex -0.030376 0.307886 -0.024581
   vertex -0.030376 0.304934 -0.024581
   vertex -0.03081 0.30641 -0.02207
  endloop
 endfacet
 facet normal -0.984653 -0.155824 -0.0785916
  outer loop
   vertex -0.030376 0.304934 -0.024581
   vertex -0.030321 0.30332 -0.02207
   vertex -0.03081 0.30641 -0.02207
  endloop
 endfacet
 facet normal -0.983115 -0.15558 0.0963335
  outer loop
   vertex -0.03081 0.30641 -0.02207
   vertex -0.030321 0.30332 -0.02207
   vertex -0.030282 0.304785 -0.019306
  endloop
 endfacet
 facet normal -0.936352 -0.304548 0.174631
  outer loop
   vertex -0.030321 0.30332 -0.02207
   vertex -0.029417 0.301981 -0.019558
   vertex -0.030282 0.304785 -0.019306
  endloop
 endfacet
 facet normal -0.886309 -0.304753 0.348685
  outer loop
   vertex -0.030282 0.304785 -0.019306
   vertex -0.029417 0.301981 -0.019558
   vertex -0.028937 0.303458 -0.017047
  endloop
 endfacet
 facet normal -0.819189 -0.412026 0.398954
  outer loop
   vertex -0.029417 0.301981 -0.019558
   vertex -0.028046 0.301153 -0.017598
   vertex -0.028937 0.303458 -0.017047
  endloop
 endfacet
 facet normal -0.645038 -0.651744 0.398942
  outer loop
   vertex -0.027682 0.299593 -0.019558
   vertex -0.026129 0.299593 -0.017047
   vertex -0.028046 0.301153 -0.017598
  endloop
 endfacet
 facet normal -0.578874 -0.796508 0.174584
  outer loop
   vertex -0.026688 0.29832 -0.02207
   vertex -0.025282 0.297904 -0.019306
   vertex -0.027682 0.299593 -0.019558
  endloop
 endfacet
 facet normal -0.452705 -0.888208 -0.0783901
  outer loop
   vertex -0.02517 0.297768 -0.024582
   vertex -0.0239 0.296899 -0.02207
   vertex -0.026688 0.29832 -0.02207
  endloop
 endfacet
 facet normal -0.563623 -0.748876 0.348589
  outer loop
   vertex -0.027682 0.299593 -0.019558
   vertex -0.025282 0.297904 -0.019306
   vertex -0.026129 0.299593 -0.017047
  endloop
 endfacet
 facet normal -0.415138 -0.796394 0.439791
  outer loop
   vertex -0.025282 0.297904 -0.019306
   vertex -0.023439 0.29832 -0.016813
   vertex -0.026129 0.299593 -0.017047
  endloop
 endfacet
 facet normal -0.451986 -0.886796 0.0964489
  outer loop
   vertex -0.026688 0.29832 -0.02207
   vertex -0.0239 0.296899 -0.02207
   vertex -0.025282 0.297904 -0.019306
  endloop
 endfacet
 facet normal -0.303796 -0.934059 0.187729
  outer loop
   vertex -0.0239 0.296899 -0.02207
   vertex -0.022192 0.296899 -0.019306
   vertex -0.025282 0.297904 -0.019306
  endloop
 endfacet
 facet normal -0.288415 -0.886769 0.361189
  outer loop
   vertex -0.025282 0.297904 -0.019306
   vertex -0.022192 0.296899 -0.019306
   vertex -0.023439 0.29832 -0.016813
  endloop
 endfacet
 facet normal -0.132412 -0.888171 0.440021
  outer loop
   vertex -0.022192 0.296899 -0.019306
   vertex -0.020514 0.297768 -0.017047
   vertex -0.023439 0.29832 -0.016813
  endloop
 endfacet
 facet normal -0.304389 -0.937197 -0.170322
  outer loop
   vertex -0.02517 0.297768 -0.024582
   vertex -0.022362 0.296856 -0.024582
   vertex -0.0239 0.296899 -0.02207
  endloop
 endfacet
 facet normal -0.155824 -0.984657 -0.07855
  outer loop
   vertex -0.022362 0.296856 -0.024582
   vertex -0.02081 0.29641 -0.02207
   vertex -0.0239 0.296899 -0.02207
  endloop
 endfacet
 facet normal -0.155583 -0.983133 0.0961419
  outer loop
   vertex -0.0239 0.296899 -0.02207
   vertex -0.02081 0.29641 -0.02207
   vertex -0.022192 0.296899 -0.019306
  endloop
 endfacet
 facet normal 0.000555151 -0.98466 0.174481
  outer loop
   vertex -0.02081 0.29641 -0.02207
   vertex -0.019258 0.296856 -0.019558
   vertex -0.022192 0.296899 -0.019306
  endloop
 endfacet
 facet normal 0.0161962 -0.937175 0.348485
  outer loop
   vertex -0.022192 0.296899 -0.019306
   vertex -0.019258 0.296856 -0.019558
   vertex -0.020514 0.297768 -0.017047
  endloop
 endfacet
 facet normal 0.138975 -0.90647 0.398746
  outer loop
   vertex -0.019258 0.296856 -0.019558
   vertex -0.018046 0.297904 -0.017598
   vertex -0.020514 0.297768 -0.017047
  endloop
 endfacet
 facet normal 0.420269 -0.815078 0.398776
  outer loop
   vertex -0.01645 0.297768 -0.019558
   vertex -0.01597 0.299244 -0.017047
   vertex -0.018046 0.297904 -0.017598
  endloop
 endfacet
 facet normal 0.578519 -0.796783 0.174509
  outer loop
   vertex -0.014932 0.29832 -0.02207
   vertex -0.014102 0.299528 -0.019306
   vertex -0.01645 0.297768 -0.019558
  endloop
 endfacet
 facet normal 0.704936 -0.704936 -0.0782949
  outer loop
   vertex -0.013938 0.299593 -0.024582
   vertex -0.01272 0.300532 -0.02207
   vertex -0.014932 0.29832 -0.02207
  endloop
 endfacet
 facet normal 0.537986 -0.767602 0.348366
  outer loop
   vertex -0.01645 0.297768 -0.019558
   vertex -0.014102 0.299528 -0.019306
   vertex -0.01597 0.299244 -0.017047
  endloop
 endfacet
 facet normal 0.629279 -0.640767 0.439803
  outer loop
   vertex -0.014102 0.299528 -0.019306
   vertex -0.013928 0.30141 -0.016813
   vertex -0.01597 0.299244 -0.017047
  endloop
 endfacet
 facet normal 0.703824 -0.703824 0.0962537
  outer loop
   vertex -0.014932 0.29832 -0.02207
   vertex -0.01272 0.300532 -0.02207
   vertex -0.014102 0.299528 -0.019306
  endloop
 endfacet
 facet normal 0.794662 -0.577331 0.18762
  outer loop
   vertex -0.01272 0.300532 -0.02207
   vertex -0.012192 0.302157 -0.019306
   vertex -0.014102 0.299528 -0.019306
  endloop
 endfacet
 facet normal 0.754436 -0.548107 0.361117
  outer loop
   vertex -0.014102 0.299528 -0.019306
   vertex -0.012192 0.302157 -0.019306
   vertex -0.013928 0.30141 -0.016813
  endloop
 endfacet
 facet normal 0.803858 -0.400541 0.439749
  outer loop
   vertex -0.012192 0.302157 -0.019306
   vertex -0.012499 0.304021 -0.017047
   vertex -0.013928 0.30141 -0.016813
  endloop
 endfacet
 facet normal 0.797233 -0.579229 -0.170037
  outer loop
   vertex -0.013938 0.299593 -0.024582
   vertex -0.012203 0.301981 -0.024582
   vertex -0.01272 0.300532 -0.02207
  endloop
 endfacet
 facet normal 0.888212 -0.452708 -0.078331
  outer loop
   vertex -0.012203 0.301981 -0.024582
   vertex -0.011299 0.30332 -0.02207
   vertex -0.01272 0.300532 -0.02207
  endloop
 endfacet
 facet normal 0.886806 -0.451991 0.0963284
  outer loop
   vertex -0.01272 0.300532 -0.02207
   vertex -0.011299 0.30332 -0.02207
   vertex -0.012192 0.302157 -0.019306
  endloop
 endfacet
 facet normal 0.93657 -0.303801 0.17476
  outer loop
   vertex -0.011299 0.30332 -0.02207
   vertex -0.011244 0.304934 -0.019559
   vertex -0.012192 0.302157 -0.019306
  endloop
 endfacet
 facet normal 0.89641 -0.274294 0.348155
  outer loop
   vertex -0.012192 0.302157 -0.019306
   vertex -0.011244 0.304934 -0.019559
   vertex -0.012499 0.304021 -0.017047
  endloop
 endfacet
 facet normal 0.905177 -0.147939 0.398459
  outer loop
   vertex -0.011244 0.304934 -0.019559
   vertex -0.011866 0.30641 -0.017598
   vertex -0.012499 0.304021 -0.017047
  endloop
 endfacet
 facet normal 0.294416 0.906493 0.302638
  outer loop
   vertex -0.01645 0.315052 -0.019558
   vertex -0.019258 0.315964 -0.019558
   vertex -0.018046 0.314916 -0.017598
  endloop
 endfacet
 facet normal 0.452705 0.888208 0.0783901
  outer loop
   vertex -0.014932 0.3145 -0.02207
   vertex -0.01772 0.315921 -0.02207
   vertex -0.01645 0.315052 -0.019558
  endloop
 endfacet
 facet normal 0.578874 0.796508 -0.174584
  outer loop
   vertex -0.013938 0.313227 -0.024582
   vertex -0.016338 0.314916 -0.024834
   vertex -0.014932 0.3145 -0.02207
  endloop
 endfacet
 facet normal 0.304389 0.937197 0.170322
  outer loop
   vertex -0.01645 0.315052 -0.019558
   vertex -0.01772 0.315921 -0.02207
   vertex -0.019258 0.315964 -0.019558
  endloop
 endfacet
 facet normal 0.155824 0.984657 0.07855
  outer loop
   vertex -0.01772 0.315921 -0.02207
   vertex -0.02081 0.31641 -0.02207
   vertex -0.019258 0.315964 -0.019558
  endloop
 endfacet
 facet normal 0.451986 0.886796 -0.0964489
  outer loop
   vertex -0.014932 0.3145 -0.02207
   vertex -0.016338 0.314916 -0.024834
   vertex -0.01772 0.315921 -0.02207
  endloop
 endfacet
 facet normal 0.303796 0.934059 -0.187729
  outer loop
   vertex -0.016338 0.314916 -0.024834
   vertex -0.019428 0.315921 -0.024834
   vertex -0.01772 0.315921 -0.02207
  endloop
 endfacet
 facet normal 0.155583 0.983133 -0.0961419
  outer loop
   vertex -0.01772 0.315921 -0.02207
   vertex -0.019428 0.315921 -0.024834
   vertex -0.02081 0.31641 -0.02207
  endloop
 endfacet
 facet normal -0.000555151 0.98466 -0.174481
  outer loop
   vertex -0.019428 0.315921 -0.024834
   vertex -0.022362 0.315964 -0.024582
   vertex -0.02081 0.31641 -0.02207
  endloop
 endfacet
 facet normal 0.563623 0.748876 -0.348589
  outer loop
   vertex -0.013938 0.313227 -0.024582
   vertex -0.015491 0.313227 -0.027093
   vertex -0.016338 0.314916 -0.024834
  endloop
 endfacet
 facet normal 0.415138 0.796394 -0.439791
  outer loop
   vertex -0.015491 0.313227 -0.027093
   vertex -0.018181 0.3145 -0.027327
   vertex -0.016338 0.314916 -0.024834
  endloop
 endfacet
 facet normal 0.288415 0.886769 -0.361189
  outer loop
   vertex -0.016338 0.314916 -0.024834
   vertex -0.018181 0.3145 -0.027327
   vertex -0.019428 0.315921 -0.024834
  endloop
 endfacet
 facet normal 0.132412 0.888171 -0.440021
  outer loop
   vertex -0.018181 0.3145 -0.027327
   vertex -0.021106 0.315052 -0.027093
   vertex -0.019428 0.315921 -0.024834
  endloop
 endfacet
 facet normal -0.0161962 0.937175 -0.348485
  outer loop
   vertex -0.019428 0.315921 -0.024834
   vertex -0.021106 0.315052 -0.027093
   vertex -0.022362 0.315964 -0.024582
  endloop
 endfacet
 facet normal -0.138975 0.90647 -0.398746
  outer loop
   vertex -0.021106 0.315052 -0.027093
   vertex -0.023574 0.314916 -0.026542
   vertex -0.022362 0.315964 -0.024582
  endloop
 endfacet
 facet normal -0.771063 0.560215 0.302688
  outer loop
   vertex -0.027682 0.313227 -0.019558
   vertex -0.029417 0.310839 -0.019558
   vertex -0.028046 0.311667 -0.017598
  endloop
 endfacet
 facet normal -0.704936 0.704936 0.0782949
  outer loop
   vertex -0.026688 0.3145 -0.02207
   vertex -0.0289 0.312288 -0.02207
   vertex -0.027682 0.313227 -0.019558
  endloop
 endfacet
 facet normal -0.578519 0.796783 -0.174509
  outer loop
   vertex -0.02517 0.315052 -0.024582
   vertex -0.027518 0.313292 -0.024834
   vertex -0.026688 0.3145 -0.02207
  endloop
 endfacet
 facet normal -0.797233 0.579229 0.170037
  outer loop
   vertex -0.027682 0.313227 -0.019558
   vertex -0.0289 0.312288 -0.02207
   vertex -0.029417 0.310839 -0.019558
  endloop
 endfacet
 facet normal -0.888212 0.452708 0.078331
  outer loop
   vertex -0.0289 0.312288 -0.02207
   vertex -0.030321 0.3095 -0.02207
   vertex -0.029417 0.310839 -0.019558
  endloop
 endfacet
 facet normal -0.703824 0.703824 -0.0962537
  outer loop
   vertex -0.026688 0.3145 -0.02207
   vertex -0.027518 0.313292 -0.024834
   vertex -0.0289 0.312288 -0.02207
  endloop
 endfacet
 facet normal -0.794662 0.577331 -0.18762
  outer loop
   vertex -0.027518 0.313292 -0.024834
   vertex -0.029428 0.310663 -0.024834
   vertex -0.0289 0.312288 -0.02207
  endloop
 endfacet
 facet normal -0.886806 0.451991 -0.0963284
  outer loop
   vertex -0.0289 0.312288 -0.02207
   vertex -0.029428 0.310663 -0.024834
   vertex -0.030321 0.3095 -0.02207
  endloop
 endfacet
 facet normal -0.93657 0.303801 -0.17476
  outer loop
   vertex -0.029428 0.310663 -0.024834
   vertex -0.030376 0.307886 -0.024581
   vertex -0.030321 0.3095 -0.02207
  endloop
 endfacet
 facet normal -0.537986 0.767602 -0.348366
  outer loop
   vertex -0.02517 0.315052 -0.024582
   vertex -0.02565 0.313576 -0.027093
   vertex -0.027518 0.313292 -0.024834
  endloop
 endfacet
 facet normal -0.629279 0.640767 -0.439803
  outer loop
   vertex -0.02565 0.313576 -0.027093
   vertex -0.027692 0.31141 -0.027327
   vertex -0.027518 0.313292 -0.024834
  endloop
 endfacet
 facet normal -0.754436 0.548107 -0.361117
  outer loop
   vertex -0.027518 0.313292 -0.024834
   vertex -0.027692 0.31141 -0.027327
   vertex -0.029428 0.310663 -0.024834
  endloop
 endfacet
 facet normal -0.803858 0.400541 -0.439749
  outer loop
   vertex -0.027692 0.31141 -0.027327
   vertex -0.029121 0.308799 -0.027093
   vertex -0.029428 0.310663 -0.024834
  endloop
 endfacet
 facet normal -0.89641 0.274294 -0.348155
  outer loop
   vertex -0.029428 0.310663 -0.024834
   vertex -0.029121 0.308799 -0.027093
   vertex -0.030376 0.307886 -0.024581
  endloop
 endfacet
 facet normal -0.905177 0.147939 -0.398459
  outer loop
   vertex -0.029121 0.308799 -0.027093
   vertex -0.029754 0.30641 -0.026542
   vertex -0.030376 0.307886 -0.024581
  endloop
 endfacet
 facet normal -0.771063 -0.560215 0.302688
  outer loop
   vertex -0.029417 0.301981 -0.019558
   vertex -0.027682 0.299593 -0.019558
   vertex -0.028046 0.301153 -0.017598
  endloop
 endfacet
 facet normal -0.888212 -0.452708 0.078331
  outer loop
   vertex -0.030321 0.30332 -0.02207
   vertex -0.0289 0.300532 -0.02207
   vertex -0.029417 0.301981 -0.019558
  endloop
 endfacet
 facet normal -0.93657 -0.303801 -0.17476
  outer loop
   vertex -0.030376 0.304934 -0.024581
   vertex -0.029428 0.302157 -0.024834
   vertex -0.030321 0.30332 -0.02207
  endloop
 endfacet
 facet normal -0.797233 -0.579229 0.170037
  outer loop
   vertex -0.029417 0.301981 -0.019558
   vertex -0.0289 0.300532 -0.02207
   vertex -0.027682 0.299593 -0.019558
  endloop
 endfacet
 facet normal -0.704936 -0.704936 0.0782949
  outer loop
   vertex -0.0289 0.300532 -0.02207
   vertex -0.026688 0.29832 -0.02207
   vertex -0.027682 0.299593 -0.019558
  endloop
 endfacet
 facet normal -0.886806 -0.451991 -0.0963284
  outer loop
   vertex -0.030321 0.30332 -0.02207
   vertex -0.029428 0.302157 -0.024834
   vertex -0.0289 0.300532 -0.02207
  endloop
 endfacet
 facet normal -0.794662 -0.577331 -0.18762
  outer loop
   vertex -0.029428 0.302157 -0.024834
   vertex -0.027518 0.299528 -0.024834
   vertex -0.0289 0.300532 -0.02207
  endloop
 endfacet
 facet normal -0.703824 -0.703824 -0.0962537
  outer loop
   vertex -0.0289 0.300532 -0.02207
   vertex -0.027518 0.299528 -0.024834
   vertex -0.026688 0.29832 -0.02207
  endloop
 endfacet
 facet normal -0.578519 -0.796783 -0.174509
  outer loop
   vertex -0.027518 0.299528 -0.024834
   vertex -0.02517 0.297768 -0.024582
   vertex -0.026688 0.29832 -0.02207
  endloop
 endfacet
 facet normal -0.89641 -0.274294 -0.348155
  outer loop
   vertex -0.030376 0.304934 -0.024581
   vertex -0.029121 0.304021 -0.027093
   vertex -0.029428 0.302157 -0.024834
  endloop
 endfacet
 facet normal -0.803858 -0.400541 -0.439749
  outer loop
   vertex -0.029121 0.304021 -0.027093
   vertex -0.027692 0.30141 -0.027327
   vertex -0.029428 0.302157 -0.024834
  endloop
 endfacet
 facet normal -0.754436 -0.548107 -0.361117
  outer loop
   vertex -0.029428 0.302157 -0.024834
   vertex -0.027692 0.30141 -0.027327
   vertex -0.027518 0.299528 -0.024834
  endloop
 endfacet
 facet normal -0.629279 -0.640767 -0.439803
  outer loop
   vertex -0.027692 0.30141 -0.027327
   vertex -0.02565 0.299244 -0.027093
   vertex -0.027518 0.299528 -0.024834
  endloop
 endfacet
 facet normal -0.537986 -0.767602 -0.348366
  outer loop
   vertex -0.027518 0.299528 -0.024834
   vertex -0.02565 0.299244 -0.027093
   vertex -0.02517 0.297768 -0.024582
  endloop
 endfacet
 facet normal -0.420269 -0.815078 -0.398776
  outer loop
   vertex -0.02565 0.299244 -0.027093
   vertex -0.023574 0.297904 -0.026542
   vertex -0.02517 0.297768 -0.024582
  endloop
 endfacet
 facet normal 0.294416 -0.906493 0.302638
  outer loop
   vertex -0.019258 0.296856 -0.019558
   vertex -0.01645 0.297768 -0.019558
   vertex -0.018046 0.297904 -0.017598
  endloop
 endfacet
 facet normal 0.155824 -0.984657 0.07855
  outer loop
   vertex -0.02081 0.29641 -0.02207
   vertex -0.01772 0.296899 -0.02207
   vertex -0.019258 0.296856 -0.019558
  endloop
 endfacet
 facet normal -0.000555151 -0.98466 -0.174481
  outer loop
   vertex -0.022362 0.296856 -0.024582
   vertex -0.019428 0.296899 -0.024834
   vertex -0.02081 0.29641 -0.02207
  endloop
 endfacet
 facet normal 0.304389 -0.937197 0.170322
  outer loop
   vertex -0.019258 0.296856 -0.019558
   vertex -0.01772 0.296899 -0.02207
   vertex -0.01645 0.297768 -0.019558
  endloop
 endfacet
 facet normal 0.452705 -0.888208 0.0783901
  outer loop
   vertex -0.01772 0.296899 -0.02207
   vertex -0.014932 0.29832 -0.02207
   vertex -0.01645 0.297768 -0.019558
  endloop
 endfacet
 facet normal 0.155583 -0.983133 -0.0961419
  outer loop
   vertex -0.02081 0.29641 -0.02207
   vertex -0.019428 0.296899 -0.024834
   vertex -0.01772 0.296899 -0.02207
  endloop
 endfacet
 facet normal 0.303796 -0.934059 -0.187729
  outer loop
   vertex -0.019428 0.296899 -0.024834
   vertex -0.016338 0.297904 -0.024834
   vertex -0.01772 0.296899 -0.02207
  endloop
 endfacet
 facet normal 0.451986 -0.886796 -0.0964489
  outer loop
   vertex -0.01772 0.296899 -0.02207
   vertex -0.016338 0.297904 -0.024834
   vertex -0.014932 0.29832 -0.02207
  endloop
 endfacet
 facet normal 0.578874 -0.796508 -0.174584
  outer loop
   vertex -0.016338 0.297904 -0.024834
   vertex -0.013938 0.299593 -0.024582
   vertex -0.014932 0.29832 -0.02207
  endloop
 endfacet
 facet normal -0.0161962 -0.937175 -0.348485
  outer loop
   vertex -0.022362 0.296856 -0.024582
   vertex -0.021106 0.297768 -0.027093
   vertex -0.019428 0.296899 -0.024834
  endloop
 endfacet
 facet normal 0.132412 -0.888171 -0.440021
  outer loop
   vertex -0.021106 0.297768 -0.027093
   vertex -0.018181 0.29832 -0.027327
   vertex -0.019428 0.296899 -0.024834
  endloop
 endfacet
 facet normal 0.288415 -0.886769 -0.361189
  outer loop
   vertex -0.019428 0.296899 -0.024834
   vertex -0.018181 0.29832 -0.027327
   vertex -0.016338 0.297904 -0.024834
  endloop
 endfacet
 facet normal 0.415138 -0.796394 -0.439791
  outer loop
   vertex -0.018181 0.29832 -0.027327
   vertex -0.015491 0.299593 -0.027093
   vertex -0.016338 0.297904 -0.024834
  endloop
 endfacet
 facet normal 0.563623 -0.748876 -0.348589
  outer loop
   vertex -0.016338 0.297904 -0.024834
   vertex -0.015491 0.299593 -0.027093
   vertex -0.013938 0.299593 -0.024582
  endloop
 endfacet
 facet normal 0.645038 -0.651744 -0.398942
  outer loop
   vertex -0.015491 0.299593 -0.027093
   vertex -0.013574 0.301153 -0.026542
   vertex -0.013938 0.299593 -0.024582
  endloop
 endfacet
 facet normal 0.9532 -0 0.302341
  outer loop
   vertex -0.011244 0.304934 -0.019559
   vertex -0.011244 0.307886 -0.019559
   vertex -0.011866 0.30641 -0.017598
  endloop
 endfacet
 facet normal 0.984653 -0.155824 0.0785916
  outer loop
   vertex -0.011299 0.30332 -0.02207
   vertex -0.01081 0.30641 -0.02207
   vertex -0.011244 0.304934 -0.019559
  endloop
 endfacet
 facet normal 0.936352 -0.304548 -0.174631
  outer loop
   vertex -0.012203 0.301981 -0.024582
   vertex -0.011338 0.304785 -0.024834
   vertex -0.011299 0.30332 -0.02207
  endloop
 endfacet
 facet normal 0.98539 -0 0.170314
  outer loop
   vertex -0.011244 0.304934 -0.019559
   vertex -0.01081 0.30641 -0.02207
   vertex -0.011244 0.307886 -0.019559
  endloop
 endfacet
 facet normal 0.984653 0.155824 0.0785916
  outer loop
   vertex -0.01081 0.30641 -0.02207
   vertex -0.011299 0.3095 -0.02207
   vertex -0.011244 0.307886 -0.019559
  endloop
 endfacet
 facet normal 0.983115 -0.15558 -0.0963335
  outer loop
   vertex -0.011299 0.30332 -0.02207
   vertex -0.011338 0.304785 -0.024834
   vertex -0.01081 0.30641 -0.02207
  endloop
 endfacet
 facet normal 0.982239 0 -0.187634
  outer loop
   vertex -0.011338 0.304785 -0.024834
   vertex -0.011338 0.308035 -0.024834
   vertex -0.01081 0.30641 -0.02207
  endloop
 endfacet
 facet normal 0.983115 0.15558 -0.0963335
  outer loop
   vertex -0.01081 0.30641 -0.02207
   vertex -0.011338 0.308035 -0.024834
   vertex -0.011299 0.3095 -0.02207
  endloop
 endfacet
 facet normal 0.936352 0.304548 -0.174631
  outer loop
   vertex -0.011338 0.308035 -0.024834
   vertex -0.012203 0.310839 -0.024582
   vertex -0.011299 0.3095 -0.02207
  endloop
 endfacet
 facet normal 0.886309 -0.304753 -0.348685
  outer loop
   vertex -0.012203 0.301981 -0.024582
   vertex -0.012683 0.303458 -0.027093
   vertex -0.011338 0.304785 -0.024834
  endloop
 endfacet
 facet normal 0.885615 -0.148581 -0.440011
  outer loop
   vertex -0.012683 0.303458 -0.027093
   vertex -0.012304 0.30641 -0.027327
   vertex -0.011338 0.304785 -0.024834
  endloop
 endfacet
 facet normal 0.932446 0 -0.361309
  outer loop
   vertex -0.011338 0.304785 -0.024834
   vertex -0.012304 0.30641 -0.027327
   vertex -0.011338 0.308035 -0.024834
  endloop
 endfacet
 facet normal 0.885615 0.148581 -0.440011
  outer loop
   vertex -0.012304 0.30641 -0.027327
   vertex -0.012683 0.309362 -0.027093
   vertex -0.011338 0.308035 -0.024834
  endloop
 endfacet
 facet normal 0.886309 0.304753 -0.348685
  outer loop
   vertex -0.011338 0.308035 -0.024834
   vertex -0.012683 0.309362 -0.027093
   vertex -0.012203 0.310839 -0.024582
  endloop
 endfacet
 facet normal 0.819189 0.412026 -0.398954
  outer loop
   vertex -0.012683 0.309362 -0.027093
   vertex -0.013574 0.311667 -0.026542
   vertex -0.012203 0.310839 -0.024582
  endloop
 endfacet
 facet normal 0.61533 0.560308 -0.554459
  outer loop
   vertex -0.014715 0.310839 -0.028645
   vertex -0.015491 0.313227 -0.027093
   vertex -0.013574 0.311667 -0.026542
  endloop
 endfacet
 facet normal 0.467426 0.452641 -0.759361
  outer loop
   vertex -0.016557 0.3095 -0.030577
   vertex -0.017192 0.312288 -0.029306
   vertex -0.014715 0.310839 -0.028645
  endloop
 endfacet
 facet normal 0.262485 0.303841 -0.915851
  outer loop
   vertex -0.018778 0.307886 -0.031749
   vertex -0.019428 0.310663 -0.031014
   vertex -0.016557 0.3095 -0.030577
  endloop
 endfacet
 facet normal 0.508799 0.579247 -0.636864
  outer loop
   vertex -0.014715 0.310839 -0.028645
   vertex -0.017192 0.312288 -0.029306
   vertex -0.015491 0.313227 -0.027093
  endloop
 endfacet
 facet normal 0.38541 0.704977 -0.595371
  outer loop
   vertex -0.017192 0.312288 -0.029306
   vertex -0.018181 0.3145 -0.027327
   vertex -0.015491 0.313227 -0.027093
  endloop
 endfacet
 facet normal 0.310374 0.451949 -0.836307
  outer loop
   vertex -0.016557 0.3095 -0.030577
   vertex -0.019428 0.310663 -0.031014
   vertex -0.017192 0.312288 -0.029306
  endloop
 endfacet
 facet normal 0.187559 0.577248 -0.794737
  outer loop
   vertex -0.019428 0.310663 -0.031014
   vertex -0.020282 0.313292 -0.029306
   vertex -0.017192 0.312288 -0.029306
  endloop
 endfacet
 facet normal 0.228709 0.703897 -0.672474
  outer loop
   vertex -0.017192 0.312288 -0.029306
   vertex -0.020282 0.313292 -0.029306
   vertex -0.018181 0.3145 -0.027327
  endloop
 endfacet
 facet normal 0.102735 0.796801 -0.595444
  outer loop
   vertex -0.020282 0.313292 -0.029306
   vertex -0.021106 0.315052 -0.027093
   vertex -0.018181 0.3145 -0.027327
  endloop
 endfacet
 facet normal 0.0891868 0.274301 -0.957499
  outer loop
   vertex -0.018778 0.307886 -0.031749
   vertex -0.021586 0.308799 -0.031749
   vertex -0.019428 0.310663 -0.031014
  endloop
 endfacet
 facet normal -0.0336945 0.400135 -0.915836
  outer loop
   vertex -0.021586 0.308799 -0.031749
   vertex -0.022435 0.31141 -0.030577
   vertex -0.019428 0.310663 -0.031014
  endloop
 endfacet
 facet normal 0.0146149 0.548074 -0.836302
  outer loop
   vertex -0.019428 0.310663 -0.031014
   vertex -0.022435 0.31141 -0.030577
   vertex -0.020282 0.313292 -0.029306
  endloop
 endfacet
 facet normal -0.112009 0.640965 -0.759354
  outer loop
   vertex -0.022435 0.31141 -0.030577
   vertex -0.023138 0.313576 -0.028645
   vertex -0.020282 0.313292 -0.029306
  endloop
 endfacet
 facet normal -0.0710868 0.767617 -0.636955
  outer loop
   vertex -0.020282 0.313292 -0.029306
   vertex -0.023138 0.313576 -0.028645
   vertex -0.021106 0.315052 -0.027093
  endloop
 endfacet
 facet normal -0.168666 0.815046 -0.554303
  outer loop
   vertex -0.023138 0.313576 -0.028645
   vertex -0.023574 0.314916 -0.026542
   vertex -0.021106 0.315052 -0.027093
  endloop
 endfacet
 facet normal -0.342493 0.758552 -0.554344
  outer loop
   vertex -0.023138 0.313576 -0.028645
   vertex -0.02565 0.313576 -0.027093
   vertex -0.023574 0.314916 -0.026542
  endloop
 endfacet
 facet normal -0.286233 0.584386 -0.759318
  outer loop
   vertex -0.022435 0.31141 -0.030577
   vertex -0.025282 0.311667 -0.029306
   vertex -0.023138 0.313576 -0.028645
  endloop
 endfacet
 facet normal -0.207851 0.343516 -0.915858
  outer loop
   vertex -0.021586 0.308799 -0.031749
   vertex -0.024428 0.309039 -0.031014
   vertex -0.022435 0.31141 -0.030577
  endloop
 endfacet
 facet normal -0.393627 0.662685 -0.637108
  outer loop
   vertex -0.023138 0.313576 -0.028645
   vertex -0.025282 0.311667 -0.029306
   vertex -0.02565 0.313576 -0.027093
  endloop
 endfacet
 facet normal -0.551379 0.584158 -0.595601
  outer loop
   vertex -0.025282 0.311667 -0.029306
   vertex -0.027692 0.31141 -0.027327
   vertex -0.02565 0.313576 -0.027093
  endloop
 endfacet
 facet normal -0.334054 0.43492 -0.836213
  outer loop
   vertex -0.022435 0.31141 -0.030577
   vertex -0.024428 0.309039 -0.031014
   vertex -0.025282 0.311667 -0.029306
  endloop
 endfacet
 facet normal -0.491058 0.356895 -0.794662
  outer loop
   vertex -0.024428 0.309039 -0.031014
   vertex -0.027192 0.309039 -0.029306
   vertex -0.025282 0.311667 -0.029306
  endloop
 endfacet
 facet normal -0.598657 0.435097 -0.672533
  outer loop
   vertex -0.025282 0.311667 -0.029306
   vertex -0.027192 0.309039 -0.029306
   vertex -0.027692 0.31141 -0.027327
  endloop
 endfacet
 facet normal -0.725985 0.343961 -0.595514
  outer loop
   vertex -0.027192 0.309039 -0.029306
   vertex -0.029121 0.308799 -0.027093
   vertex -0.027692 0.31141 -0.027327
  endloop
 endfacet
 facet normal -0.233325 0.169451 -0.957521
  outer loop
   vertex -0.021586 0.308799 -0.031749
   vertex -0.023321 0.30641 -0.031749
   vertex -0.024428 0.309039 -0.031014
  endloop
 endfacet
 facet normal -0.390899 0.0914587 -0.915878
  outer loop
   vertex -0.023321 0.30641 -0.031749
   vertex -0.026067 0.30641 -0.030577
   vertex -0.024428 0.309039 -0.031014
  endloop
 endfacet
 facet normal -0.516783 0.183167 -0.836293
  outer loop
   vertex -0.024428 0.309039 -0.031014
   vertex -0.026067 0.30641 -0.030577
   vertex -0.027192 0.309039 -0.029306
  endloop
 endfacet
 facet normal -0.644269 0.0913996 -0.759317
  outer loop
   vertex -0.026067 0.30641 -0.030577
   vertex -0.028344 0.30641 -0.028645
   vertex -0.027192 0.309039 -0.029306
  endloop
 endfacet
 facet normal -0.751958 0.169318 -0.637095
  outer loop
   vertex -0.027192 0.309039 -0.029306
   vertex -0.028344 0.30641 -0.028645
   vertex -0.029121 0.308799 -0.027093
  endloop
 endfacet
 facet normal -0.827124 0.091254 -0.554562
  outer loop
   vertex -0.028344 0.30641 -0.028645
   vertex -0.029754 0.30641 -0.026542
   vertex -0.029121 0.308799 -0.027093
  endloop
 endfacet
 facet normal -0.827124 -0.091254 -0.554562
  outer loop
   vertex -0.028344 0.30641 -0.028645
   vertex -0.029121 0.304021 -0.027093
   vertex -0.029754 0.30641 -0.026542
  endloop
 endfacet
 facet normal -0.644269 -0.0913996 -0.759317
  outer loop
   vertex -0.026067 0.30641 -0.030577
   vertex -0.027192 0.303781 -0.029306
   vertex -0.028344 0.30641 -0.028645
  endloop
 endfacet
 facet normal -0.390899 -0.0914587 -0.915878
  outer loop
   vertex -0.023321 0.30641 -0.031749
   vertex -0.024428 0.303781 -0.031014
   vertex -0.026067 0.30641 -0.030577
  endloop
 endfacet
 facet normal -0.751958 -0.169318 -0.637095
  outer loop
   vertex -0.028344 0.30641 -0.028645
   vertex -0.027192 0.303781 -0.029306
   vertex -0.029121 0.304021 -0.027093
  endloop
 endfacet
 facet normal -0.725985 -0.343961 -0.595514
  outer loop
   vertex -0.027192 0.303781 -0.029306
   vertex -0.027692 0.30141 -0.027327
   vertex -0.029121 0.304021 -0.027093
  endloop
 endfacet
 facet normal -0.516783 -0.183167 -0.836293
  outer loop
   vertex -0.026067 0.30641 -0.030577
   vertex -0.024428 0.303781 -0.031014
   vertex -0.027192 0.303781 -0.029306
  endloop
 endfacet
 facet normal -0.491058 -0.356895 -0.794662
  outer loop
   vertex -0.024428 0.303781 -0.031014
   vertex -0.025282 0.301153 -0.029306
   vertex -0.027192 0.303781 -0.029306
  endloop
 endfacet
 facet normal -0.598657 -0.435097 -0.672533
  outer loop
   vertex -0.027192 0.303781 -0.029306
   vertex -0.025282 0.301153 -0.029306
   vertex -0.027692 0.30141 -0.027327
  endloop
 endfacet
 facet normal -0.551379 -0.584158 -0.595601
  outer loop
   vertex -0.025282 0.301153 -0.029306
   vertex -0.02565 0.299244 -0.027093
   vertex -0.027692 0.30141 -0.027327
  endloop
 endfacet
 facet normal -0.233325 -0.169451 -0.957521
  outer loop
   vertex -0.023321 0.30641 -0.031749
   vertex -0.021586 0.304021 -0.031749
   vertex -0.024428 0.303781 -0.031014
  endloop
 endfacet
 facet normal -0.207851 -0.343516 -0.915858
  outer loop
   vertex -0.021586 0.304021 -0.031749
   vertex -0.022435 0.30141 -0.030577
   vertex -0.024428 0.303781 -0.031014
  endloop
 endfacet
 facet normal -0.334054 -0.43492 -0.836213
  outer loop
   vertex -0.024428 0.303781 -0.031014
   vertex -0.022435 0.30141 -0.030577
   vertex -0.025282 0.301153 -0.029306
  endloop
 endfacet
 facet normal -0.286233 -0.584386 -0.759318
  outer loop
   vertex -0.022435 0.30141 -0.030577
   vertex -0.023138 0.299244 -0.028645
   vertex -0.025282 0.301153 -0.029306
  endloop
 endfacet
 facet normal -0.393627 -0.662685 -0.637108
  outer loop
   vertex -0.025282 0.301153 -0.029306
   vertex -0.023138 0.299244 -0.028645
   vertex -0.02565 0.299244 -0.027093
  endloop
 endfacet
 facet normal -0.342493 -0.758552 -0.554344
  outer loop
   vertex -0.023138 0.299244 -0.028645
   vertex -0.023574 0.297904 -0.026542
   vertex -0.02565 0.299244 -0.027093
  endloop
 endfacet
 facet normal 0.723015 0.412034 -0.554506
  outer loop
   vertex -0.012683 0.309362 -0.027093
   vertex -0.014715 0.310839 -0.028645
   vertex -0.013574 0.311667 -0.026542
  endloop
 endfacet
 facet normal 0.789589 0.148568 -0.59538
  outer loop
   vertex -0.012304 0.30641 -0.027327
   vertex -0.014102 0.308035 -0.029306
   vertex -0.012683 0.309362 -0.027093
  endloop
 endfacet
 facet normal 0.789589 -0.148568 -0.59538
  outer loop
   vertex -0.012683 0.303458 -0.027093
   vertex -0.014102 0.304785 -0.029306
   vertex -0.012304 0.30641 -0.027327
  endloop
 endfacet
 facet normal 0.708089 0.304936 -0.636886
  outer loop
   vertex -0.012683 0.309362 -0.027093
   vertex -0.014102 0.308035 -0.029306
   vertex -0.014715 0.310839 -0.028645
  endloop
 endfacet
 facet normal 0.574948 0.304695 -0.759339
  outer loop
   vertex -0.014102 0.308035 -0.029306
   vertex -0.016557 0.3095 -0.030577
   vertex -0.014715 0.310839 -0.028645
  endloop
 endfacet
 facet normal 0.740143 0 -0.672449
  outer loop
   vertex -0.012304 0.30641 -0.027327
   vertex -0.014102 0.304785 -0.029306
   vertex -0.014102 0.308035 -0.029306
  endloop
 endfacet
 facet normal 0.607028 0 -0.794681
  outer loop
   vertex -0.014102 0.304785 -0.029306
   vertex -0.016338 0.30641 -0.031014
   vertex -0.014102 0.308035 -0.029306
  endloop
 endfacet
 facet normal 0.525774 0.155534 -0.836284
  outer loop
   vertex -0.014102 0.308035 -0.029306
   vertex -0.016338 0.30641 -0.031014
   vertex -0.016557 0.3095 -0.030577
  endloop
 endfacet
 facet normal 0.370096 0.155752 -0.915844
  outer loop
   vertex -0.016338 0.30641 -0.031014
   vertex -0.018778 0.307886 -0.031749
   vertex -0.016557 0.3095 -0.030577
  endloop
 endfacet
 facet normal 0.708089 -0.304936 -0.636886
  outer loop
   vertex -0.012683 0.303458 -0.027093
   vertex -0.014715 0.301981 -0.028645
   vertex -0.014102 0.304785 -0.029306
  endloop
 endfacet
 facet normal 0.574948 -0.304695 -0.759339
  outer loop
   vertex -0.014715 0.301981 -0.028645
   vertex -0.016557 0.30332 -0.030577
   vertex -0.014102 0.304785 -0.029306
  endloop
 endfacet
 facet normal 0.525774 -0.155534 -0.836284
  outer loop
   vertex -0.014102 0.304785 -0.029306
   vertex -0.016557 0.30332 -0.030577
   vertex -0.016338 0.30641 -0.031014
  endloop
 endfacet
 facet normal 0.370096 -0.155752 -0.915844
  outer loop
   vertex -0.016557 0.30332 -0.030577
   vertex -0.018778 0.304934 -0.031749
   vertex -0.016338 0.30641 -0.031014
  endloop
 endfacet
 facet normal 0.288428 0 -0.957502
  outer loop
   vertex -0.016338 0.30641 -0.031014
   vertex -0.018778 0.304934 -0.031749
   vertex -0.018778 0.307886 -0.031749
  endloop
 endfacet
 facet normal 0.156037 0 -0.987751
  outer loop
   vertex -0.018778 0.304934 -0.031749
   vertex -0.02081 0.30641 -0.03207
   vertex -0.018778 0.307886 -0.031749
  endloop
 endfacet
 facet normal -0.168666 -0.815046 -0.554303
  outer loop
   vertex -0.023138 0.299244 -0.028645
   vertex -0.021106 0.297768 -0.027093
   vertex -0.023574 0.297904 -0.026542
  endloop
 endfacet
 facet normal -0.112009 -0.640965 -0.759354
  outer loop
   vertex -0.022435 0.30141 -0.030577
   vertex -0.020282 0.299528 -0.029306
   vertex -0.023138 0.299244 -0.028645
  endloop
 endfacet
 facet normal -0.0336945 -0.400135 -0.915836
  outer loop
   vertex -0.021586 0.304021 -0.031749
   vertex -0.019428 0.302157 -0.031014
   vertex -0.022435 0.30141 -0.030577
  endloop
 endfacet
 facet normal -0.0710868 -0.767617 -0.636955
  outer loop
   vertex -0.023138 0.299244 -0.028645
   vertex -0.020282 0.299528 -0.029306
   vertex -0.021106 0.297768 -0.027093
  endloop
 endfacet
 facet normal 0.102735 -0.796801 -0.595444
  outer loop
   vertex -0.020282 0.299528 -0.029306
   vertex -0.018181 0.29832 -0.027327
   vertex -0.021106 0.297768 -0.027093
  endloop
 endfacet
 facet normal 0.0146149 -0.548074 -0.836302
  outer loop
   vertex -0.022435 0.30141 -0.030577
   vertex -0.019428 0.302157 -0.031014
   vertex -0.020282 0.299528 -0.029306
  endloop
 endfacet
 facet normal 0.187559 -0.577248 -0.794737
  outer loop
   vertex -0.019428 0.302157 -0.031014
   vertex -0.017192 0.300532 -0.029306
   vertex -0.020282 0.299528 -0.029306
  endloop
 endfacet
 facet normal 0.228709 -0.703897 -0.672474
  outer loop
   vertex -0.020282 0.299528 -0.029306
   vertex -0.017192 0.300532 -0.029306
   vertex -0.018181 0.29832 -0.027327
  endloop
 endfacet
 facet normal 0.38541 -0.704977 -0.595371
  outer loop
   vertex -0.017192 0.300532 -0.029306
   vertex -0.015491 0.299593 -0.027093
   vertex -0.018181 0.29832 -0.027327
  endloop
 endfacet
 facet normal 0.0891868 -0.274301 -0.957499
  outer loop
   vertex -0.021586 0.304021 -0.031749
   vertex -0.018778 0.304934 -0.031749
   vertex -0.019428 0.302157 -0.031014
  endloop
 endfacet
 facet normal 0.262485 -0.303841 -0.915851
  outer loop
   vertex -0.018778 0.304934 -0.031749
   vertex -0.016557 0.30332 -0.030577
   vertex -0.019428 0.302157 -0.031014
  endloop
 endfacet
 facet normal 0.310374 -0.451949 -0.836307
  outer loop
   vertex -0.019428 0.302157 -0.031014
   vertex -0.016557 0.30332 -0.030577
   vertex -0.017192 0.300532 -0.029306
  endloop
 endfacet
 facet normal 0.467426 -0.452641 -0.759361
  outer loop
   vertex -0.016557 0.30332 -0.030577
   vertex -0.014715 0.301981 -0.028645
   vertex -0.017192 0.300532 -0.029306
  endloop
 endfacet
 facet normal 0.508799 -0.579247 -0.636864
  outer loop
   vertex -0.017192 0.300532 -0.029306
   vertex -0.014715 0.301981 -0.028645
   vertex -0.015491 0.299593 -0.027093
  endloop
 endfacet
 facet normal 0.61533 -0.560308 -0.554459
  outer loop
   vertex -0.014715 0.301981 -0.028645
   vertex -0.013574 0.301153 -0.026542
   vertex -0.015491 0.299593 -0.027093
  endloop
 endfacet
endsolid ExportedfromBlender-3.5.1
