solid ExportedfromBlender-3.5.1
 facet normal 0.0482486 -0.148392 -0.987751
  outer loop
   vertex -0.02527 0.14379 -0.00743
   vertex -0.023238 0.142314 -0.007109
   vertex -0.026046 0.141401 -0.007109
  endloop
 endfacet
 facet normal 0.723015 -0.412034 -0.554506
  outer loop
   vertex -0.018034 0.138533 -0.001902
   vertex -0.019175 0.139361 -0.004005
   vertex -0.017143 0.140838 -0.002453
  endloop
 endfacet
 facet normal -0.126271 -0.0917039 -0.987748
  outer loop
   vertex -0.02527 0.14379 -0.00743
   vertex -0.026046 0.141401 -0.007109
   vertex -0.027781 0.14379 -0.007109
  endloop
 endfacet
 facet normal -0.126271 0.0917039 -0.987748
  outer loop
   vertex -0.02527 0.14379 -0.00743
   vertex -0.027781 0.14379 -0.007109
   vertex -0.026046 0.146179 -0.007109
  endloop
 endfacet
 facet normal 0.0482486 0.148392 -0.987751
  outer loop
   vertex -0.02527 0.14379 -0.00743
   vertex -0.026046 0.146179 -0.007109
   vertex -0.023238 0.145266 -0.007109
  endloop
 endfacet
 facet normal 0.819189 -0.412026 -0.398954
  outer loop
   vertex -0.018034 0.138533 -0.001902
   vertex -0.017143 0.140838 -0.002453
   vertex -0.016663 0.139361 5.8e-05
  endloop
 endfacet
 facet normal -0.138975 -0.90647 -0.398746
  outer loop
   vertex -0.028034 0.135284 -0.001902
   vertex -0.025566 0.135148 -0.002453
   vertex -0.026822 0.134236 5.8e-05
  endloop
 endfacet
 facet normal -0.905177 -0.147939 -0.398459
  outer loop
   vertex -0.034214 0.14379 -0.001902
   vertex -0.033581 0.141401 -0.002453
   vertex -0.034836 0.142314 5.9e-05
  endloop
 endfacet
 facet normal -0.420269 0.815078 -0.398776
  outer loop
   vertex -0.028034 0.152296 -0.001902
   vertex -0.03011 0.150956 -0.002453
   vertex -0.02963 0.152432 5.8e-05
  endloop
 endfacet
 facet normal 0.645038 0.651744 -0.398942
  outer loop
   vertex -0.018034 0.149047 -0.001902
   vertex -0.019951 0.150607 -0.002453
   vertex -0.018398 0.150607 5.8e-05
  endloop
 endfacet
 facet normal 0.771063 -0.560215 -0.302688
  outer loop
   vertex -0.018034 0.138533 -0.001902
   vertex -0.016663 0.139361 5.8e-05
   vertex -0.018398 0.136973 5.8e-05
  endloop
 endfacet
 facet normal -0.294416 -0.906493 -0.302638
  outer loop
   vertex -0.028034 0.135284 -0.001902
   vertex -0.026822 0.134236 5.8e-05
   vertex -0.02963 0.135148 5.8e-05
  endloop
 endfacet
 facet normal -0.9532 0 -0.302341
  outer loop
   vertex -0.034214 0.14379 -0.001902
   vertex -0.034836 0.142314 5.9e-05
   vertex -0.034836 0.145266 5.9e-05
  endloop
 endfacet
 facet normal -0.294416 0.906493 -0.302638
  outer loop
   vertex -0.028034 0.152296 -0.001902
   vertex -0.02963 0.152432 5.8e-05
   vertex -0.026822 0.153344 5.8e-05
  endloop
 endfacet
 facet normal 0.771063 0.560215 -0.302688
  outer loop
   vertex -0.018034 0.149047 -0.001902
   vertex -0.018398 0.150607 5.8e-05
   vertex -0.016663 0.148219 5.8e-05
  endloop
 endfacet
 facet normal 0.342493 -0.758552 0.554344
  outer loop
   vertex -0.022506 0.135284 0.007042
   vertex -0.02043 0.136624 0.007593
   vertex -0.022942 0.136624 0.009145
  endloop
 endfacet
 facet normal -0.61533 -0.560308 0.554459
  outer loop
   vertex -0.032506 0.138533 0.007042
   vertex -0.030589 0.136973 0.007593
   vertex -0.031365 0.139361 0.009145
  endloop
 endfacet
 facet normal -0.723015 0.412034 0.554506
  outer loop
   vertex -0.032506 0.149047 0.007042
   vertex -0.033397 0.146742 0.007593
   vertex -0.031365 0.148219 0.009145
  endloop
 endfacet
 facet normal 0.168666 0.815046 0.554303
  outer loop
   vertex -0.022506 0.152296 0.007042
   vertex -0.024974 0.152432 0.007593
   vertex -0.022942 0.150956 0.009145
  endloop
 endfacet
 facet normal 0.827124 0.091254 0.554562
  outer loop
   vertex -0.016326 0.14379 0.007042
   vertex -0.016959 0.146179 0.007593
   vertex -0.017736 0.14379 0.009145
  endloop
 endfacet
 facet normal 0.126271 0.0917039 0.987748
  outer loop
   vertex -0.022759 0.14379 0.012249
   vertex -0.024494 0.146179 0.012249
   vertex -0.02527 0.14379 0.01257
  endloop
 endfacet
 facet normal 0.390899 0.0914587 0.915878
  outer loop
   vertex -0.020013 0.14379 0.011077
   vertex -0.021652 0.146419 0.011514
   vertex -0.022759 0.14379 0.012249
  endloop
 endfacet
 facet normal 0.644269 0.0913996 0.759317
  outer loop
   vertex -0.017736 0.14379 0.009145
   vertex -0.018888 0.146419 0.009806
   vertex -0.020013 0.14379 0.011077
  endloop
 endfacet
 facet normal 0.233325 0.169451 0.957521
  outer loop
   vertex -0.022759 0.14379 0.012249
   vertex -0.021652 0.146419 0.011514
   vertex -0.024494 0.146179 0.012249
  endloop
 endfacet
 facet normal 0.207851 0.343516 0.915858
  outer loop
   vertex -0.021652 0.146419 0.011514
   vertex -0.023645 0.14879 0.011077
   vertex -0.024494 0.146179 0.012249
  endloop
 endfacet
 facet normal 0.516783 0.183167 0.836293
  outer loop
   vertex -0.020013 0.14379 0.011077
   vertex -0.018888 0.146419 0.009806
   vertex -0.021652 0.146419 0.011514
  endloop
 endfacet
 facet normal 0.491058 0.356895 0.794662
  outer loop
   vertex -0.018888 0.146419 0.009806
   vertex -0.020798 0.149047 0.009806
   vertex -0.021652 0.146419 0.011514
  endloop
 endfacet
 facet normal 0.334054 0.43492 0.836213
  outer loop
   vertex -0.021652 0.146419 0.011514
   vertex -0.020798 0.149047 0.009806
   vertex -0.023645 0.14879 0.011077
  endloop
 endfacet
 facet normal 0.286233 0.584386 0.759318
  outer loop
   vertex -0.020798 0.149047 0.009806
   vertex -0.022942 0.150956 0.009145
   vertex -0.023645 0.14879 0.011077
  endloop
 endfacet
 facet normal 0.751958 0.169318 0.637095
  outer loop
   vertex -0.017736 0.14379 0.009145
   vertex -0.016959 0.146179 0.007593
   vertex -0.018888 0.146419 0.009806
  endloop
 endfacet
 facet normal 0.725985 0.343961 0.595514
  outer loop
   vertex -0.016959 0.146179 0.007593
   vertex -0.018388 0.14879 0.007827
   vertex -0.018888 0.146419 0.009806
  endloop
 endfacet
 facet normal 0.598657 0.435097 0.672533
  outer loop
   vertex -0.018888 0.146419 0.009806
   vertex -0.018388 0.14879 0.007827
   vertex -0.020798 0.149047 0.009806
  endloop
 endfacet
 facet normal 0.551379 0.584158 0.595601
  outer loop
   vertex -0.018388 0.14879 0.007827
   vertex -0.02043 0.150956 0.007593
   vertex -0.020798 0.149047 0.009806
  endloop
 endfacet
 facet normal 0.393627 0.662685 0.637108
  outer loop
   vertex -0.020798 0.149047 0.009806
   vertex -0.02043 0.150956 0.007593
   vertex -0.022942 0.150956 0.009145
  endloop
 endfacet
 facet normal 0.342493 0.758552 0.554344
  outer loop
   vertex -0.02043 0.150956 0.007593
   vertex -0.022506 0.152296 0.007042
   vertex -0.022942 0.150956 0.009145
  endloop
 endfacet
 facet normal -0.0482486 0.148392 0.987751
  outer loop
   vertex -0.024494 0.146179 0.012249
   vertex -0.027302 0.145266 0.012249
   vertex -0.02527 0.14379 0.01257
  endloop
 endfacet
 facet normal 0.0336945 0.400135 0.915836
  outer loop
   vertex -0.023645 0.14879 0.011077
   vertex -0.026652 0.148043 0.011514
   vertex -0.024494 0.146179 0.012249
  endloop
 endfacet
 facet normal 0.112009 0.640965 0.759354
  outer loop
   vertex -0.022942 0.150956 0.009145
   vertex -0.025798 0.150672 0.009806
   vertex -0.023645 0.14879 0.011077
  endloop
 endfacet
 facet normal -0.0891868 0.274301 0.957499
  outer loop
   vertex -0.024494 0.146179 0.012249
   vertex -0.026652 0.148043 0.011514
   vertex -0.027302 0.145266 0.012249
  endloop
 endfacet
 facet normal -0.262485 0.303841 0.915851
  outer loop
   vertex -0.026652 0.148043 0.011514
   vertex -0.029523 0.14688 0.011077
   vertex -0.027302 0.145266 0.012249
  endloop
 endfacet
 facet normal -0.0146149 0.548074 0.836302
  outer loop
   vertex -0.023645 0.14879 0.011077
   vertex -0.025798 0.150672 0.009806
   vertex -0.026652 0.148043 0.011514
  endloop
 endfacet
 facet normal -0.187559 0.577248 0.794737
  outer loop
   vertex -0.025798 0.150672 0.009806
   vertex -0.028888 0.149668 0.009806
   vertex -0.026652 0.148043 0.011514
  endloop
 endfacet
 facet normal -0.310374 0.451949 0.836307
  outer loop
   vertex -0.026652 0.148043 0.011514
   vertex -0.028888 0.149668 0.009806
   vertex -0.029523 0.14688 0.011077
  endloop
 endfacet
 facet normal -0.467426 0.452641 0.759361
  outer loop
   vertex -0.028888 0.149668 0.009806
   vertex -0.031365 0.148219 0.009145
   vertex -0.029523 0.14688 0.011077
  endloop
 endfacet
 facet normal 0.0710868 0.767617 0.636955
  outer loop
   vertex -0.022942 0.150956 0.009145
   vertex -0.024974 0.152432 0.007593
   vertex -0.025798 0.150672 0.009806
  endloop
 endfacet
 facet normal -0.102735 0.796801 0.595444
  outer loop
   vertex -0.024974 0.152432 0.007593
   vertex -0.027899 0.15188 0.007827
   vertex -0.025798 0.150672 0.009806
  endloop
 endfacet
 facet normal -0.228709 0.703897 0.672474
  outer loop
   vertex -0.025798 0.150672 0.009806
   vertex -0.027899 0.15188 0.007827
   vertex -0.028888 0.149668 0.009806
  endloop
 endfacet
 facet normal -0.38541 0.704977 0.595371
  outer loop
   vertex -0.027899 0.15188 0.007827
   vertex -0.030589 0.150607 0.007593
   vertex -0.028888 0.149668 0.009806
  endloop
 endfacet
 facet normal -0.508799 0.579247 0.636864
  outer loop
   vertex -0.028888 0.149668 0.009806
   vertex -0.030589 0.150607 0.007593
   vertex -0.031365 0.148219 0.009145
  endloop
 endfacet
 facet normal -0.61533 0.560308 0.554459
  outer loop
   vertex -0.030589 0.150607 0.007593
   vertex -0.032506 0.149047 0.007042
   vertex -0.031365 0.148219 0.009145
  endloop
 endfacet
 facet normal -0.156037 0 0.987751
  outer loop
   vertex -0.027302 0.145266 0.012249
   vertex -0.027302 0.142314 0.012249
   vertex -0.02527 0.14379 0.01257
  endloop
 endfacet
 facet normal -0.370096 0.155752 0.915844
  outer loop
   vertex -0.029523 0.14688 0.011077
   vertex -0.029742 0.14379 0.011514
   vertex -0.027302 0.145266 0.012249
  endloop
 endfacet
 facet normal -0.574948 0.304695 0.759339
  outer loop
   vertex -0.031365 0.148219 0.009145
   vertex -0.031978 0.145415 0.009806
   vertex -0.029523 0.14688 0.011077
  endloop
 endfacet
 facet normal -0.288428 0 0.957502
  outer loop
   vertex -0.027302 0.145266 0.012249
   vertex -0.029742 0.14379 0.011514
   vertex -0.027302 0.142314 0.012249
  endloop
 endfacet
 facet normal -0.370096 -0.155752 0.915844
  outer loop
   vertex -0.029742 0.14379 0.011514
   vertex -0.029523 0.1407 0.011077
   vertex -0.027302 0.142314 0.012249
  endloop
 endfacet
 facet normal -0.525774 0.155534 0.836284
  outer loop
   vertex -0.029523 0.14688 0.011077
   vertex -0.031978 0.145415 0.009806
   vertex -0.029742 0.14379 0.011514
  endloop
 endfacet
 facet normal -0.607028 0 0.794681
  outer loop
   vertex -0.031978 0.145415 0.009806
   vertex -0.031978 0.142165 0.009806
   vertex -0.029742 0.14379 0.011514
  endloop
 endfacet
 facet normal -0.525774 -0.155534 0.836284
  outer loop
   vertex -0.029742 0.14379 0.011514
   vertex -0.031978 0.142165 0.009806
   vertex -0.029523 0.1407 0.011077
  endloop
 endfacet
 facet normal -0.574948 -0.304695 0.759339
  outer loop
   vertex -0.031978 0.142165 0.009806
   vertex -0.031365 0.139361 0.009145
   vertex -0.029523 0.1407 0.011077
  endloop
 endfacet
 facet normal -0.708089 0.304936 0.636886
  outer loop
   vertex -0.031365 0.148219 0.009145
   vertex -0.033397 0.146742 0.007593
   vertex -0.031978 0.145415 0.009806
  endloop
 endfacet
 facet normal -0.789589 0.148568 0.59538
  outer loop
   vertex -0.033397 0.146742 0.007593
   vertex -0.033776 0.14379 0.007827
   vertex -0.031978 0.145415 0.009806
  endloop
 endfacet
 facet normal -0.740143 0 0.672449
  outer loop
   vertex -0.031978 0.145415 0.009806
   vertex -0.033776 0.14379 0.007827
   vertex -0.031978 0.142165 0.009806
  endloop
 endfacet
 facet normal -0.789589 -0.148568 0.59538
  outer loop
   vertex -0.033776 0.14379 0.007827
   vertex -0.033397 0.140838 0.007593
   vertex -0.031978 0.142165 0.009806
  endloop
 endfacet
 facet normal -0.708089 -0.304936 0.636886
  outer loop
   vertex -0.031978 0.142165 0.009806
   vertex -0.033397 0.140838 0.007593
   vertex -0.031365 0.139361 0.009145
  endloop
 endfacet
 facet normal -0.723015 -0.412034 0.554506
  outer loop
   vertex -0.033397 0.140838 0.007593
   vertex -0.032506 0.138533 0.007042
   vertex -0.031365 0.139361 0.009145
  endloop
 endfacet
 facet normal -0.0482486 -0.148392 0.987751
  outer loop
   vertex -0.027302 0.142314 0.012249
   vertex -0.024494 0.141401 0.012249
   vertex -0.02527 0.14379 0.01257
  endloop
 endfacet
 facet normal -0.262485 -0.303841 0.915851
  outer loop
   vertex -0.029523 0.1407 0.011077
   vertex -0.026652 0.139537 0.011514
   vertex -0.027302 0.142314 0.012249
  endloop
 endfacet
 facet normal -0.467426 -0.452641 0.759361
  outer loop
   vertex -0.031365 0.139361 0.009145
   vertex -0.028888 0.137912 0.009806
   vertex -0.029523 0.1407 0.011077
  endloop
 endfacet
 facet normal -0.0891868 -0.274301 0.957499
  outer loop
   vertex -0.027302 0.142314 0.012249
   vertex -0.026652 0.139537 0.011514
   vertex -0.024494 0.141401 0.012249
  endloop
 endfacet
 facet normal 0.0336945 -0.400135 0.915836
  outer loop
   vertex -0.026652 0.139537 0.011514
   vertex -0.023645 0.13879 0.011077
   vertex -0.024494 0.141401 0.012249
  endloop
 endfacet
 facet normal -0.310374 -0.451949 0.836307
  outer loop
   vertex -0.029523 0.1407 0.011077
   vertex -0.028888 0.137912 0.009806
   vertex -0.026652 0.139537 0.011514
  endloop
 endfacet
 facet normal -0.187559 -0.577248 0.794737
  outer loop
   vertex -0.028888 0.137912 0.009806
   vertex -0.025798 0.136908 0.009806
   vertex -0.026652 0.139537 0.011514
  endloop
 endfacet
 facet normal -0.0146149 -0.548074 0.836302
  outer loop
   vertex -0.026652 0.139537 0.011514
   vertex -0.025798 0.136908 0.009806
   vertex -0.023645 0.13879 0.011077
  endloop
 endfacet
 facet normal 0.112009 -0.640965 0.759354
  outer loop
   vertex -0.025798 0.136908 0.009806
   vertex -0.022942 0.136624 0.009145
   vertex -0.023645 0.13879 0.011077
  endloop
 endfacet
 facet normal -0.508799 -0.579247 0.636864
  outer loop
   vertex -0.031365 0.139361 0.009145
   vertex -0.030589 0.136973 0.007593
   vertex -0.028888 0.137912 0.009806
  endloop
 endfacet
 facet normal -0.38541 -0.704977 0.595371
  outer loop
   vertex -0.030589 0.136973 0.007593
   vertex -0.027899 0.1357 0.007827
   vertex -0.028888 0.137912 0.009806
  endloop
 endfacet
 facet normal -0.228709 -0.703897 0.672474
  outer loop
   vertex -0.028888 0.137912 0.009806
   vertex -0.027899 0.1357 0.007827
   vertex -0.025798 0.136908 0.009806
  endloop
 endfacet
 facet normal -0.102735 -0.796801 0.595444
  outer loop
   vertex -0.027899 0.1357 0.007827
   vertex -0.024974 0.135148 0.007593
   vertex -0.025798 0.136908 0.009806
  endloop
 endfacet
 facet normal 0.0710868 -0.767617 0.636955
  outer loop
   vertex -0.025798 0.136908 0.009806
   vertex -0.024974 0.135148 0.007593
   vertex -0.022942 0.136624 0.009145
  endloop
 endfacet
 facet normal 0.168666 -0.815046 0.554303
  outer loop
   vertex -0.024974 0.135148 0.007593
   vertex -0.022506 0.135284 0.007042
   vertex -0.022942 0.136624 0.009145
  endloop
 endfacet
 facet normal 0.126271 -0.0917039 0.987748
  outer loop
   vertex -0.024494 0.141401 0.012249
   vertex -0.022759 0.14379 0.012249
   vertex -0.02527 0.14379 0.01257
  endloop
 endfacet
 facet normal 0.207851 -0.343516 0.915858
  outer loop
   vertex -0.023645 0.13879 0.011077
   vertex -0.021652 0.141161 0.011514
   vertex -0.024494 0.141401 0.012249
  endloop
 endfacet
 facet normal 0.286233 -0.584386 0.759318
  outer loop
   vertex -0.022942 0.136624 0.009145
   vertex -0.020798 0.138533 0.009806
   vertex -0.023645 0.13879 0.011077
  endloop
 endfacet
 facet normal 0.233325 -0.169451 0.957521
  outer loop
   vertex -0.024494 0.141401 0.012249
   vertex -0.021652 0.141161 0.011514
   vertex -0.022759 0.14379 0.012249
  endloop
 endfacet
 facet normal 0.390899 -0.0914587 0.915878
  outer loop
   vertex -0.021652 0.141161 0.011514
   vertex -0.020013 0.14379 0.011077
   vertex -0.022759 0.14379 0.012249
  endloop
 endfacet
 facet normal 0.334054 -0.43492 0.836213
  outer loop
   vertex -0.023645 0.13879 0.011077
   vertex -0.020798 0.138533 0.009806
   vertex -0.021652 0.141161 0.011514
  endloop
 endfacet
 facet normal 0.491058 -0.356895 0.794662
  outer loop
   vertex -0.020798 0.138533 0.009806
   vertex -0.018888 0.141161 0.009806
   vertex -0.021652 0.141161 0.011514
  endloop
 endfacet
 facet normal 0.516783 -0.183167 0.836293
  outer loop
   vertex -0.021652 0.141161 0.011514
   vertex -0.018888 0.141161 0.009806
   vertex -0.020013 0.14379 0.011077
  endloop
 endfacet
 facet normal 0.644269 -0.0913996 0.759317
  outer loop
   vertex -0.018888 0.141161 0.009806
   vertex -0.017736 0.14379 0.009145
   vertex -0.020013 0.14379 0.011077
  endloop
 endfacet
 facet normal 0.393627 -0.662685 0.637108
  outer loop
   vertex -0.022942 0.136624 0.009145
   vertex -0.02043 0.136624 0.007593
   vertex -0.020798 0.138533 0.009806
  endloop
 endfacet
 facet normal 0.551379 -0.584158 0.595601
  outer loop
   vertex -0.02043 0.136624 0.007593
   vertex -0.018388 0.13879 0.007827
   vertex -0.020798 0.138533 0.009806
  endloop
 endfacet
 facet normal 0.598657 -0.435097 0.672533
  outer loop
   vertex -0.020798 0.138533 0.009806
   vertex -0.018388 0.13879 0.007827
   vertex -0.018888 0.141161 0.009806
  endloop
 endfacet
 facet normal 0.725985 -0.343961 0.595514
  outer loop
   vertex -0.018388 0.13879 0.007827
   vertex -0.016959 0.141401 0.007593
   vertex -0.018888 0.141161 0.009806
  endloop
 endfacet
 facet normal 0.751958 -0.169318 0.637095
  outer loop
   vertex -0.018888 0.141161 0.009806
   vertex -0.016959 0.141401 0.007593
   vertex -0.017736 0.14379 0.009145
  endloop
 endfacet
 facet normal 0.827124 -0.091254 0.554562
  outer loop
   vertex -0.016959 0.141401 0.007593
   vertex -0.016326 0.14379 0.007042
   vertex -0.017736 0.14379 0.009145
  endloop
 endfacet
 facet normal 0.905177 0.147939 0.398459
  outer loop
   vertex -0.015704 0.145266 0.005081
   vertex -0.016959 0.146179 0.007593
   vertex -0.016326 0.14379 0.007042
  endloop
 endfacet
 facet normal 0.93657 0.303801 0.17476
  outer loop
   vertex -0.015759 0.14688 0.00257
   vertex -0.016652 0.148043 0.005334
   vertex -0.015704 0.145266 0.005081
  endloop
 endfacet
 facet normal 0.888212 0.452708 -0.078331
  outer loop
   vertex -0.016663 0.148219 5.8e-05
   vertex -0.01718 0.149668 0.00257
   vertex -0.015759 0.14688 0.00257
  endloop
 endfacet
 facet normal 0.89641 0.274294 0.348155
  outer loop
   vertex -0.015704 0.145266 0.005081
   vertex -0.016652 0.148043 0.005334
   vertex -0.016959 0.146179 0.007593
  endloop
 endfacet
 facet normal 0.803858 0.400541 0.439749
  outer loop
   vertex -0.016652 0.148043 0.005334
   vertex -0.018388 0.14879 0.007827
   vertex -0.016959 0.146179 0.007593
  endloop
 endfacet
 facet normal 0.886806 0.451991 0.0963284
  outer loop
   vertex -0.015759 0.14688 0.00257
   vertex -0.01718 0.149668 0.00257
   vertex -0.016652 0.148043 0.005334
  endloop
 endfacet
 facet normal 0.794662 0.577331 0.18762
  outer loop
   vertex -0.01718 0.149668 0.00257
   vertex -0.018562 0.150672 0.005334
   vertex -0.016652 0.148043 0.005334
  endloop
 endfacet
 facet normal 0.754436 0.548107 0.361117
  outer loop
   vertex -0.016652 0.148043 0.005334
   vertex -0.018562 0.150672 0.005334
   vertex -0.018388 0.14879 0.007827
  endloop
 endfacet
 facet normal 0.629279 0.640767 0.439803
  outer loop
   vertex -0.018562 0.150672 0.005334
   vertex -0.02043 0.150956 0.007593
   vertex -0.018388 0.14879 0.007827
  endloop
 endfacet
 facet normal 0.797233 0.579229 -0.170037
  outer loop
   vertex -0.016663 0.148219 5.8e-05
   vertex -0.018398 0.150607 5.8e-05
   vertex -0.01718 0.149668 0.00257
  endloop
 endfacet
 facet normal 0.704936 0.704936 -0.0782949
  outer loop
   vertex -0.018398 0.150607 5.8e-05
   vertex -0.019392 0.15188 0.00257
   vertex -0.01718 0.149668 0.00257
  endloop
 endfacet
 facet normal 0.703824 0.703824 0.0962537
  outer loop
   vertex -0.01718 0.149668 0.00257
   vertex -0.019392 0.15188 0.00257
   vertex -0.018562 0.150672 0.005334
  endloop
 endfacet
 facet normal 0.578519 0.796783 0.174509
  outer loop
   vertex -0.019392 0.15188 0.00257
   vertex -0.02091 0.152432 0.005082
   vertex -0.018562 0.150672 0.005334
  endloop
 endfacet
 facet normal 0.537986 0.767602 0.348366
  outer loop
   vertex -0.018562 0.150672 0.005334
   vertex -0.02091 0.152432 0.005082
   vertex -0.02043 0.150956 0.007593
  endloop
 endfacet
 facet normal 0.420269 0.815078 0.398776
  outer loop
   vertex -0.02091 0.152432 0.005082
   vertex -0.022506 0.152296 0.007042
   vertex -0.02043 0.150956 0.007593
  endloop
 endfacet
 facet normal 0.138975 0.90647 0.398746
  outer loop
   vertex -0.023718 0.153344 0.005082
   vertex -0.024974 0.152432 0.007593
   vertex -0.022506 0.152296 0.007042
  endloop
 endfacet
 facet normal 0.000555151 0.98466 0.174481
  outer loop
   vertex -0.02527 0.15379 0.00257
   vertex -0.026652 0.153301 0.005334
   vertex -0.023718 0.153344 0.005082
  endloop
 endfacet
 facet normal -0.155824 0.984657 -0.07855
  outer loop
   vertex -0.026822 0.153344 5.8e-05
   vertex -0.02836 0.153301 0.00257
   vertex -0.02527 0.15379 0.00257
  endloop
 endfacet
 facet normal 0.0161962 0.937175 0.348485
  outer loop
   vertex -0.023718 0.153344 0.005082
   vertex -0.026652 0.153301 0.005334
   vertex -0.024974 0.152432 0.007593
  endloop
 endfacet
 facet normal -0.132412 0.888171 0.440021
  outer loop
   vertex -0.026652 0.153301 0.005334
   vertex -0.027899 0.15188 0.007827
   vertex -0.024974 0.152432 0.007593
  endloop
 endfacet
 facet normal -0.155583 0.983133 0.0961419
  outer loop
   vertex -0.02527 0.15379 0.00257
   vertex -0.02836 0.153301 0.00257
   vertex -0.026652 0.153301 0.005334
  endloop
 endfacet
 facet normal -0.303796 0.934059 0.187729
  outer loop
   vertex -0.02836 0.153301 0.00257
   vertex -0.029742 0.152296 0.005334
   vertex -0.026652 0.153301 0.005334
  endloop
 endfacet
 facet normal -0.288415 0.886769 0.361189
  outer loop
   vertex -0.026652 0.153301 0.005334
   vertex -0.029742 0.152296 0.005334
   vertex -0.027899 0.15188 0.007827
  endloop
 endfacet
 facet normal -0.415138 0.796394 0.439791
  outer loop
   vertex -0.029742 0.152296 0.005334
   vertex -0.030589 0.150607 0.007593
   vertex -0.027899 0.15188 0.007827
  endloop
 endfacet
 facet normal -0.304389 0.937197 -0.170322
  outer loop
   vertex -0.026822 0.153344 5.8e-05
   vertex -0.02963 0.152432 5.8e-05
   vertex -0.02836 0.153301 0.00257
  endloop
 endfacet
 facet normal -0.452705 0.888208 -0.0783901
  outer loop
   vertex -0.02963 0.152432 5.8e-05
   vertex -0.031148 0.15188 0.00257
   vertex -0.02836 0.153301 0.00257
  endloop
 endfacet
 facet normal -0.451986 0.886796 0.0964489
  outer loop
   vertex -0.02836 0.153301 0.00257
   vertex -0.031148 0.15188 0.00257
   vertex -0.029742 0.152296 0.005334
  endloop
 endfacet
 facet normal -0.578874 0.796508 0.174584
  outer loop
   vertex -0.031148 0.15188 0.00257
   vertex -0.032142 0.150607 0.005082
   vertex -0.029742 0.152296 0.005334
  endloop
 endfacet
 facet normal -0.563623 0.748876 0.348589
  outer loop
   vertex -0.029742 0.152296 0.005334
   vertex -0.032142 0.150607 0.005082
   vertex -0.030589 0.150607 0.007593
  endloop
 endfacet
 facet normal -0.645038 0.651744 0.398942
  outer loop
   vertex -0.032142 0.150607 0.005082
   vertex -0.032506 0.149047 0.007042
   vertex -0.030589 0.150607 0.007593
  endloop
 endfacet
 facet normal -0.819189 0.412026 0.398954
  outer loop
   vertex -0.033877 0.148219 0.005082
   vertex -0.033397 0.146742 0.007593
   vertex -0.032506 0.149047 0.007042
  endloop
 endfacet
 facet normal -0.936352 0.304548 0.174631
  outer loop
   vertex -0.034781 0.14688 0.00257
   vertex -0.034742 0.145415 0.005334
   vertex -0.033877 0.148219 0.005082
  endloop
 endfacet
 facet normal -0.984653 0.155824 -0.0785916
  outer loop
   vertex -0.034836 0.145266 5.9e-05
   vertex -0.03527 0.14379 0.00257
   vertex -0.034781 0.14688 0.00257
  endloop
 endfacet
 facet normal -0.886309 0.304753 0.348685
  outer loop
   vertex -0.033877 0.148219 0.005082
   vertex -0.034742 0.145415 0.005334
   vertex -0.033397 0.146742 0.007593
  endloop
 endfacet
 facet normal -0.885615 0.148581 0.440011
  outer loop
   vertex -0.034742 0.145415 0.005334
   vertex -0.033776 0.14379 0.007827
   vertex -0.033397 0.146742 0.007593
  endloop
 endfacet
 facet normal -0.983115 0.15558 0.0963335
  outer loop
   vertex -0.034781 0.14688 0.00257
   vertex -0.03527 0.14379 0.00257
   vertex -0.034742 0.145415 0.005334
  endloop
 endfacet
 facet normal -0.982239 0 0.187634
  outer loop
   vertex -0.03527 0.14379 0.00257
   vertex -0.034742 0.142165 0.005334
   vertex -0.034742 0.145415 0.005334
  endloop
 endfacet
 facet normal -0.932446 0 0.361309
  outer loop
   vertex -0.034742 0.145415 0.005334
   vertex -0.034742 0.142165 0.005334
   vertex -0.033776 0.14379 0.007827
  endloop
 endfacet
 facet normal -0.885615 -0.148581 0.440011
  outer loop
   vertex -0.034742 0.142165 0.005334
   vertex -0.033397 0.140838 0.007593
   vertex -0.033776 0.14379 0.007827
  endloop
 endfacet
 facet normal -0.98539 -0 -0.170314
  outer loop
   vertex -0.034836 0.145266 5.9e-05
   vertex -0.034836 0.142314 5.9e-05
   vertex -0.03527 0.14379 0.00257
  endloop
 endfacet
 facet normal -0.984653 -0.155824 -0.0785916
  outer loop
   vertex -0.034836 0.142314 5.9e-05
   vertex -0.034781 0.1407 0.00257
   vertex -0.03527 0.14379 0.00257
  endloop
 endfacet
 facet normal -0.983115 -0.15558 0.0963335
  outer loop
   vertex -0.03527 0.14379 0.00257
   vertex -0.034781 0.1407 0.00257
   vertex -0.034742 0.142165 0.005334
  endloop
 endfacet
 facet normal -0.936352 -0.304548 0.174631
  outer loop
   vertex -0.034781 0.1407 0.00257
   vertex -0.033877 0.139361 0.005082
   vertex -0.034742 0.142165 0.005334
  endloop
 endfacet
 facet normal -0.886309 -0.304753 0.348685
  outer loop
   vertex -0.034742 0.142165 0.005334
   vertex -0.033877 0.139361 0.005082
   vertex -0.033397 0.140838 0.007593
  endloop
 endfacet
 facet normal -0.819189 -0.412026 0.398954
  outer loop
   vertex -0.033877 0.139361 0.005082
   vertex -0.032506 0.138533 0.007042
   vertex -0.033397 0.140838 0.007593
  endloop
 endfacet
 facet normal -0.645038 -0.651744 0.398942
  outer loop
   vertex -0.032142 0.136973 0.005082
   vertex -0.030589 0.136973 0.007593
   vertex -0.032506 0.138533 0.007042
  endloop
 endfacet
 facet normal -0.578874 -0.796508 0.174584
  outer loop
   vertex -0.031148 0.1357 0.00257
   vertex -0.029742 0.135284 0.005334
   vertex -0.032142 0.136973 0.005082
  endloop
 endfacet
 facet normal -0.452705 -0.888208 -0.0783901
  outer loop
   vertex -0.02963 0.135148 5.8e-05
   vertex -0.02836 0.134279 0.00257
   vertex -0.031148 0.1357 0.00257
  endloop
 endfacet
 facet normal -0.563623 -0.748876 0.348589
  outer loop
   vertex -0.032142 0.136973 0.005082
   vertex -0.029742 0.135284 0.005334
   vertex -0.030589 0.136973 0.007593
  endloop
 endfacet
 facet normal -0.415138 -0.796394 0.439791
  outer loop
   vertex -0.029742 0.135284 0.005334
   vertex -0.027899 0.1357 0.007827
   vertex -0.030589 0.136973 0.007593
  endloop
 endfacet
 facet normal -0.451986 -0.886796 0.0964489
  outer loop
   vertex -0.031148 0.1357 0.00257
   vertex -0.02836 0.134279 0.00257
   vertex -0.029742 0.135284 0.005334
  endloop
 endfacet
 facet normal -0.303796 -0.934059 0.187729
  outer loop
   vertex -0.02836 0.134279 0.00257
   vertex -0.026652 0.134279 0.005334
   vertex -0.029742 0.135284 0.005334
  endloop
 endfacet
 facet normal -0.288415 -0.886769 0.361189
  outer loop
   vertex -0.029742 0.135284 0.005334
   vertex -0.026652 0.134279 0.005334
   vertex -0.027899 0.1357 0.007827
  endloop
 endfacet
 facet normal -0.132412 -0.888171 0.440021
  outer loop
   vertex -0.026652 0.134279 0.005334
   vertex -0.024974 0.135148 0.007593
   vertex -0.027899 0.1357 0.007827
  endloop
 endfacet
 facet normal -0.304389 -0.937197 -0.170322
  outer loop
   vertex -0.02963 0.135148 5.8e-05
   vertex -0.026822 0.134236 5.8e-05
   vertex -0.02836 0.134279 0.00257
  endloop
 endfacet
 facet normal -0.155824 -0.984657 -0.07855
  outer loop
   vertex -0.026822 0.134236 5.8e-05
   vertex -0.02527 0.13379 0.00257
   vertex -0.02836 0.134279 0.00257
  endloop
 endfacet
 facet normal -0.155583 -0.983133 0.0961419
  outer loop
   vertex -0.02836 0.134279 0.00257
   vertex -0.02527 0.13379 0.00257
   vertex -0.026652 0.134279 0.005334
  endloop
 endfacet
 facet normal 0.000555151 -0.98466 0.174481
  outer loop
   vertex -0.02527 0.13379 0.00257
   vertex -0.023718 0.134236 0.005082
   vertex -0.026652 0.134279 0.005334
  endloop
 endfacet
 facet normal 0.0161962 -0.937175 0.348485
  outer loop
   vertex -0.026652 0.134279 0.005334
   vertex -0.023718 0.134236 0.005082
   vertex -0.024974 0.135148 0.007593
  endloop
 endfacet
 facet normal 0.138975 -0.90647 0.398746
  outer loop
   vertex -0.023718 0.134236 0.005082
   vertex -0.022506 0.135284 0.007042
   vertex -0.024974 0.135148 0.007593
  endloop
 endfacet
 facet normal 0.420269 -0.815078 0.398776
  outer loop
   vertex -0.02091 0.135148 0.005082
   vertex -0.02043 0.136624 0.007593
   vertex -0.022506 0.135284 0.007042
  endloop
 endfacet
 facet normal 0.578519 -0.796783 0.174509
  outer loop
   vertex -0.019392 0.1357 0.00257
   vertex -0.018562 0.136908 0.005334
   vertex -0.02091 0.135148 0.005082
  endloop
 endfacet
 facet normal 0.704936 -0.704936 -0.0782949
  outer loop
   vertex -0.018398 0.136973 5.8e-05
   vertex -0.01718 0.137912 0.00257
   vertex -0.019392 0.1357 0.00257
  endloop
 endfacet
 facet normal 0.537986 -0.767602 0.348366
  outer loop
   vertex -0.02091 0.135148 0.005082
   vertex -0.018562 0.136908 0.005334
   vertex -0.02043 0.136624 0.007593
  endloop
 endfacet
 facet normal 0.629279 -0.640767 0.439803
  outer loop
   vertex -0.018562 0.136908 0.005334
   vertex -0.018388 0.13879 0.007827
   vertex -0.02043 0.136624 0.007593
  endloop
 endfacet
 facet normal 0.703824 -0.703824 0.0962537
  outer loop
   vertex -0.019392 0.1357 0.00257
   vertex -0.01718 0.137912 0.00257
   vertex -0.018562 0.136908 0.005334
  endloop
 endfacet
 facet normal 0.794662 -0.577331 0.18762
  outer loop
   vertex -0.01718 0.137912 0.00257
   vertex -0.016652 0.139537 0.005334
   vertex -0.018562 0.136908 0.005334
  endloop
 endfacet
 facet normal 0.754436 -0.548107 0.361117
  outer loop
   vertex -0.018562 0.136908 0.005334
   vertex -0.016652 0.139537 0.005334
   vertex -0.018388 0.13879 0.007827
  endloop
 endfacet
 facet normal 0.803858 -0.400541 0.439749
  outer loop
   vertex -0.016652 0.139537 0.005334
   vertex -0.016959 0.141401 0.007593
   vertex -0.018388 0.13879 0.007827
  endloop
 endfacet
 facet normal 0.797233 -0.579229 -0.170037
  outer loop
   vertex -0.018398 0.136973 5.8e-05
   vertex -0.016663 0.139361 5.8e-05
   vertex -0.01718 0.137912 0.00257
  endloop
 endfacet
 facet normal 0.888212 -0.452708 -0.078331
  outer loop
   vertex -0.016663 0.139361 5.8e-05
   vertex -0.015759 0.1407 0.00257
   vertex -0.01718 0.137912 0.00257
  endloop
 endfacet
 facet normal 0.886806 -0.451991 0.0963284
  outer loop
   vertex -0.01718 0.137912 0.00257
   vertex -0.015759 0.1407 0.00257
   vertex -0.016652 0.139537 0.005334
  endloop
 endfacet
 facet normal 0.93657 -0.303801 0.17476
  outer loop
   vertex -0.015759 0.1407 0.00257
   vertex -0.015704 0.142314 0.005081
   vertex -0.016652 0.139537 0.005334
  endloop
 endfacet
 facet normal 0.89641 -0.274294 0.348155
  outer loop
   vertex -0.016652 0.139537 0.005334
   vertex -0.015704 0.142314 0.005081
   vertex -0.016959 0.141401 0.007593
  endloop
 endfacet
 facet normal 0.905177 -0.147939 0.398459
  outer loop
   vertex -0.015704 0.142314 0.005081
   vertex -0.016326 0.14379 0.007042
   vertex -0.016959 0.141401 0.007593
  endloop
 endfacet
 facet normal 0.294416 0.906493 0.302638
  outer loop
   vertex -0.02091 0.152432 0.005082
   vertex -0.023718 0.153344 0.005082
   vertex -0.022506 0.152296 0.007042
  endloop
 endfacet
 facet normal 0.452705 0.888208 0.0783901
  outer loop
   vertex -0.019392 0.15188 0.00257
   vertex -0.02218 0.153301 0.00257
   vertex -0.02091 0.152432 0.005082
  endloop
 endfacet
 facet normal 0.578874 0.796508 -0.174584
  outer loop
   vertex -0.018398 0.150607 5.8e-05
   vertex -0.020798 0.152296 -0.000194
   vertex -0.019392 0.15188 0.00257
  endloop
 endfacet
 facet normal 0.304389 0.937197 0.170322
  outer loop
   vertex -0.02091 0.152432 0.005082
   vertex -0.02218 0.153301 0.00257
   vertex -0.023718 0.153344 0.005082
  endloop
 endfacet
 facet normal 0.155824 0.984657 0.07855
  outer loop
   vertex -0.02218 0.153301 0.00257
   vertex -0.02527 0.15379 0.00257
   vertex -0.023718 0.153344 0.005082
  endloop
 endfacet
 facet normal 0.451986 0.886796 -0.0964489
  outer loop
   vertex -0.019392 0.15188 0.00257
   vertex -0.020798 0.152296 -0.000194
   vertex -0.02218 0.153301 0.00257
  endloop
 endfacet
 facet normal 0.303796 0.934059 -0.187729
  outer loop
   vertex -0.020798 0.152296 -0.000194
   vertex -0.023888 0.153301 -0.000194
   vertex -0.02218 0.153301 0.00257
  endloop
 endfacet
 facet normal 0.155583 0.983133 -0.0961419
  outer loop
   vertex -0.02218 0.153301 0.00257
   vertex -0.023888 0.153301 -0.000194
   vertex -0.02527 0.15379 0.00257
  endloop
 endfacet
 facet normal -0.000555151 0.98466 -0.174481
  outer loop
   vertex -0.023888 0.153301 -0.000194
   vertex -0.026822 0.153344 5.8e-05
   vertex -0.02527 0.15379 0.00257
  endloop
 endfacet
 facet normal 0.563623 0.748876 -0.348589
  outer loop
   vertex -0.018398 0.150607 5.8e-05
   vertex -0.019951 0.150607 -0.002453
   vertex -0.020798 0.152296 -0.000194
  endloop
 endfacet
 facet normal 0.415138 0.796394 -0.439791
  outer loop
   vertex -0.019951 0.150607 -0.002453
   vertex -0.022641 0.15188 -0.002687
   vertex -0.020798 0.152296 -0.000194
  endloop
 endfacet
 facet normal 0.288415 0.886769 -0.361189
  outer loop
   vertex -0.020798 0.152296 -0.000194
   vertex -0.022641 0.15188 -0.002687
   vertex -0.023888 0.153301 -0.000194
  endloop
 endfacet
 facet normal 0.132412 0.888171 -0.440021
  outer loop
   vertex -0.022641 0.15188 -0.002687
   vertex -0.025566 0.152432 -0.002453
   vertex -0.023888 0.153301 -0.000194
  endloop
 endfacet
 facet normal -0.0161962 0.937175 -0.348485
  outer loop
   vertex -0.023888 0.153301 -0.000194
   vertex -0.025566 0.152432 -0.002453
   vertex -0.026822 0.153344 5.8e-05
  endloop
 endfacet
 facet normal -0.138975 0.90647 -0.398746
  outer loop
   vertex -0.025566 0.152432 -0.002453
   vertex -0.028034 0.152296 -0.001902
   vertex -0.026822 0.153344 5.8e-05
  endloop
 endfacet
 facet normal -0.771063 0.560215 0.302688
  outer loop
   vertex -0.032142 0.150607 0.005082
   vertex -0.033877 0.148219 0.005082
   vertex -0.032506 0.149047 0.007042
  endloop
 endfacet
 facet normal -0.704936 0.704936 0.0782949
  outer loop
   vertex -0.031148 0.15188 0.00257
   vertex -0.03336 0.149668 0.00257
   vertex -0.032142 0.150607 0.005082
  endloop
 endfacet
 facet normal -0.578519 0.796783 -0.174509
  outer loop
   vertex -0.02963 0.152432 5.8e-05
   vertex -0.031978 0.150672 -0.000194
   vertex -0.031148 0.15188 0.00257
  endloop
 endfacet
 facet normal -0.797233 0.579229 0.170037
  outer loop
   vertex -0.032142 0.150607 0.005082
   vertex -0.03336 0.149668 0.00257
   vertex -0.033877 0.148219 0.005082
  endloop
 endfacet
 facet normal -0.888212 0.452708 0.078331
  outer loop
   vertex -0.03336 0.149668 0.00257
   vertex -0.034781 0.14688 0.00257
   vertex -0.033877 0.148219 0.005082
  endloop
 endfacet
 facet normal -0.703824 0.703824 -0.0962537
  outer loop
   vertex -0.031148 0.15188 0.00257
   vertex -0.031978 0.150672 -0.000194
   vertex -0.03336 0.149668 0.00257
  endloop
 endfacet
 facet normal -0.794662 0.577331 -0.18762
  outer loop
   vertex -0.031978 0.150672 -0.000194
   vertex -0.033888 0.148043 -0.000194
   vertex -0.03336 0.149668 0.00257
  endloop
 endfacet
 facet normal -0.886806 0.451991 -0.0963284
  outer loop
   vertex -0.03336 0.149668 0.00257
   vertex -0.033888 0.148043 -0.000194
   vertex -0.034781 0.14688 0.00257
  endloop
 endfacet
 facet normal -0.93657 0.303801 -0.17476
  outer loop
   vertex -0.033888 0.148043 -0.000194
   vertex -0.034836 0.145266 5.9e-05
   vertex -0.034781 0.14688 0.00257
  endloop
 endfacet
 facet normal -0.537986 0.767602 -0.348366
  outer loop
   vertex -0.02963 0.152432 5.8e-05
   vertex -0.03011 0.150956 -0.002453
   vertex -0.031978 0.150672 -0.000194
  endloop
 endfacet
 facet normal -0.629279 0.640767 -0.439803
  outer loop
   vertex -0.03011 0.150956 -0.002453
   vertex -0.032152 0.14879 -0.002687
   vertex -0.031978 0.150672 -0.000194
  endloop
 endfacet
 facet normal -0.754436 0.548107 -0.361117
  outer loop
   vertex -0.031978 0.150672 -0.000194
   vertex -0.032152 0.14879 -0.002687
   vertex -0.033888 0.148043 -0.000194
  endloop
 endfacet
 facet normal -0.803858 0.400541 -0.439749
  outer loop
   vertex -0.032152 0.14879 -0.002687
   vertex -0.033581 0.146179 -0.002453
   vertex -0.033888 0.148043 -0.000194
  endloop
 endfacet
 facet normal -0.89641 0.274294 -0.348155
  outer loop
   vertex -0.033888 0.148043 -0.000194
   vertex -0.033581 0.146179 -0.002453
   vertex -0.034836 0.145266 5.9e-05
  endloop
 endfacet
 facet normal -0.905177 0.147939 -0.398459
  outer loop
   vertex -0.033581 0.146179 -0.002453
   vertex -0.034214 0.14379 -0.001902
   vertex -0.034836 0.145266 5.9e-05
  endloop
 endfacet
 facet normal -0.771063 -0.560215 0.302688
  outer loop
   vertex -0.033877 0.139361 0.005082
   vertex -0.032142 0.136973 0.005082
   vertex -0.032506 0.138533 0.007042
  endloop
 endfacet
 facet normal -0.888212 -0.452708 0.078331
  outer loop
   vertex -0.034781 0.1407 0.00257
   vertex -0.03336 0.137912 0.00257
   vertex -0.033877 0.139361 0.005082
  endloop
 endfacet
 facet normal -0.93657 -0.303801 -0.17476
  outer loop
   vertex -0.034836 0.142314 5.9e-05
   vertex -0.033888 0.139537 -0.000194
   vertex -0.034781 0.1407 0.00257
  endloop
 endfacet
 facet normal -0.797233 -0.579229 0.170037
  outer loop
   vertex -0.033877 0.139361 0.005082
   vertex -0.03336 0.137912 0.00257
   vertex -0.032142 0.136973 0.005082
  endloop
 endfacet
 facet normal -0.704936 -0.704936 0.0782949
  outer loop
   vertex -0.03336 0.137912 0.00257
   vertex -0.031148 0.1357 0.00257
   vertex -0.032142 0.136973 0.005082
  endloop
 endfacet
 facet normal -0.886806 -0.451991 -0.0963284
  outer loop
   vertex -0.034781 0.1407 0.00257
   vertex -0.033888 0.139537 -0.000194
   vertex -0.03336 0.137912 0.00257
  endloop
 endfacet
 facet normal -0.794662 -0.577331 -0.18762
  outer loop
   vertex -0.033888 0.139537 -0.000194
   vertex -0.031978 0.136908 -0.000194
   vertex -0.03336 0.137912 0.00257
  endloop
 endfacet
 facet normal -0.703824 -0.703824 -0.0962537
  outer loop
   vertex -0.03336 0.137912 0.00257
   vertex -0.031978 0.136908 -0.000194
   vertex -0.031148 0.1357 0.00257
  endloop
 endfacet
 facet normal -0.578519 -0.796783 -0.174509
  outer loop
   vertex -0.031978 0.136908 -0.000194
   vertex -0.02963 0.135148 5.8e-05
   vertex -0.031148 0.1357 0.00257
  endloop
 endfacet
 facet normal -0.89641 -0.274294 -0.348155
  outer loop
   vertex -0.034836 0.142314 5.9e-05
   vertex -0.033581 0.141401 -0.002453
   vertex -0.033888 0.139537 -0.000194
  endloop
 endfacet
 facet normal -0.803858 -0.400541 -0.439749
  outer loop
   vertex -0.033581 0.141401 -0.002453
   vertex -0.032152 0.13879 -0.002687
   vertex -0.033888 0.139537 -0.000194
  endloop
 endfacet
 facet normal -0.754436 -0.548107 -0.361117
  outer loop
   vertex -0.033888 0.139537 -0.000194
   vertex -0.032152 0.13879 -0.002687
   vertex -0.031978 0.136908 -0.000194
  endloop
 endfacet
 facet normal -0.629279 -0.640767 -0.439803
  outer loop
   vertex -0.032152 0.13879 -0.002687
   vertex -0.03011 0.136624 -0.002453
   vertex -0.031978 0.136908 -0.000194
  endloop
 endfacet
 facet normal -0.537986 -0.767602 -0.348366
  outer loop
   vertex -0.031978 0.136908 -0.000194
   vertex -0.03011 0.136624 -0.002453
   vertex -0.02963 0.135148 5.8e-05
  endloop
 endfacet
 facet normal -0.420269 -0.815078 -0.398776
  outer loop
   vertex -0.03011 0.136624 -0.002453
   vertex -0.028034 0.135284 -0.001902
   vertex -0.02963 0.135148 5.8e-05
  endloop
 endfacet
 facet normal 0.294416 -0.906493 0.302638
  outer loop
   vertex -0.023718 0.134236 0.005082
   vertex -0.02091 0.135148 0.005082
   vertex -0.022506 0.135284 0.007042
  endloop
 endfacet
 facet normal 0.155824 -0.984657 0.07855
  outer loop
   vertex -0.02527 0.13379 0.00257
   vertex -0.02218 0.134279 0.00257
   vertex -0.023718 0.134236 0.005082
  endloop
 endfacet
 facet normal -0.000555151 -0.98466 -0.174481
  outer loop
   vertex -0.026822 0.134236 5.8e-05
   vertex -0.023888 0.134279 -0.000194
   vertex -0.02527 0.13379 0.00257
  endloop
 endfacet
 facet normal 0.304389 -0.937197 0.170322
  outer loop
   vertex -0.023718 0.134236 0.005082
   vertex -0.02218 0.134279 0.00257
   vertex -0.02091 0.135148 0.005082
  endloop
 endfacet
 facet normal 0.452705 -0.888208 0.0783901
  outer loop
   vertex -0.02218 0.134279 0.00257
   vertex -0.019392 0.1357 0.00257
   vertex -0.02091 0.135148 0.005082
  endloop
 endfacet
 facet normal 0.155583 -0.983133 -0.0961419
  outer loop
   vertex -0.02527 0.13379 0.00257
   vertex -0.023888 0.134279 -0.000194
   vertex -0.02218 0.134279 0.00257
  endloop
 endfacet
 facet normal 0.303796 -0.934059 -0.187729
  outer loop
   vertex -0.023888 0.134279 -0.000194
   vertex -0.020798 0.135284 -0.000194
   vertex -0.02218 0.134279 0.00257
  endloop
 endfacet
 facet normal 0.451986 -0.886796 -0.0964489
  outer loop
   vertex -0.02218 0.134279 0.00257
   vertex -0.020798 0.135284 -0.000194
   vertex -0.019392 0.1357 0.00257
  endloop
 endfacet
 facet normal 0.578874 -0.796508 -0.174584
  outer loop
   vertex -0.020798 0.135284 -0.000194
   vertex -0.018398 0.136973 5.8e-05
   vertex -0.019392 0.1357 0.00257
  endloop
 endfacet
 facet normal -0.0161962 -0.937175 -0.348485
  outer loop
   vertex -0.026822 0.134236 5.8e-05
   vertex -0.025566 0.135148 -0.002453
   vertex -0.023888 0.134279 -0.000194
  endloop
 endfacet
 facet normal 0.132412 -0.888171 -0.440021
  outer loop
   vertex -0.025566 0.135148 -0.002453
   vertex -0.022641 0.1357 -0.002687
   vertex -0.023888 0.134279 -0.000194
  endloop
 endfacet
 facet normal 0.288415 -0.886769 -0.361189
  outer loop
   vertex -0.023888 0.134279 -0.000194
   vertex -0.022641 0.1357 -0.002687
   vertex -0.020798 0.135284 -0.000194
  endloop
 endfacet
 facet normal 0.415138 -0.796394 -0.439791
  outer loop
   vertex -0.022641 0.1357 -0.002687
   vertex -0.019951 0.136973 -0.002453
   vertex -0.020798 0.135284 -0.000194
  endloop
 endfacet
 facet normal 0.563623 -0.748876 -0.348589
  outer loop
   vertex -0.020798 0.135284 -0.000194
   vertex -0.019951 0.136973 -0.002453
   vertex -0.018398 0.136973 5.8e-05
  endloop
 endfacet
 facet normal 0.645038 -0.651744 -0.398942
  outer loop
   vertex -0.019951 0.136973 -0.002453
   vertex -0.018034 0.138533 -0.001902
   vertex -0.018398 0.136973 5.8e-05
  endloop
 endfacet
 facet normal 0.9532 -0 0.302341
  outer loop
   vertex -0.015704 0.142314 0.005081
   vertex -0.015704 0.145266 0.005081
   vertex -0.016326 0.14379 0.007042
  endloop
 endfacet
 facet normal 0.984653 -0.155824 0.0785916
  outer loop
   vertex -0.015759 0.1407 0.00257
   vertex -0.01527 0.14379 0.00257
   vertex -0.015704 0.142314 0.005081
  endloop
 endfacet
 facet normal 0.936352 -0.304548 -0.174631
  outer loop
   vertex -0.016663 0.139361 5.8e-05
   vertex -0.015798 0.142165 -0.000194
   vertex -0.015759 0.1407 0.00257
  endloop
 endfacet
 facet normal 0.98539 -0 0.170314
  outer loop
   vertex -0.015704 0.142314 0.005081
   vertex -0.01527 0.14379 0.00257
   vertex -0.015704 0.145266 0.005081
  endloop
 endfacet
 facet normal 0.984653 0.155824 0.0785916
  outer loop
   vertex -0.01527 0.14379 0.00257
   vertex -0.015759 0.14688 0.00257
   vertex -0.015704 0.145266 0.005081
  endloop
 endfacet
 facet normal 0.983115 -0.15558 -0.0963335
  outer loop
   vertex -0.015759 0.1407 0.00257
   vertex -0.015798 0.142165 -0.000194
   vertex -0.01527 0.14379 0.00257
  endloop
 endfacet
 facet normal 0.982239 0 -0.187634
  outer loop
   vertex -0.015798 0.142165 -0.000194
   vertex -0.015798 0.145415 -0.000194
   vertex -0.01527 0.14379 0.00257
  endloop
 endfacet
 facet normal 0.983115 0.15558 -0.0963335
  outer loop
   vertex -0.01527 0.14379 0.00257
   vertex -0.015798 0.145415 -0.000194
   vertex -0.015759 0.14688 0.00257
  endloop
 endfacet
 facet normal 0.936352 0.304548 -0.174631
  outer loop
   vertex -0.015798 0.145415 -0.000194
   vertex -0.016663 0.148219 5.8e-05
   vertex -0.015759 0.14688 0.00257
  endloop
 endfacet
 facet normal 0.886309 -0.304753 -0.348685
  outer loop
   vertex -0.016663 0.139361 5.8e-05
   vertex -0.017143 0.140838 -0.002453
   vertex -0.015798 0.142165 -0.000194
  endloop
 endfacet
 facet normal 0.885615 -0.148581 -0.440011
  outer loop
   vertex -0.017143 0.140838 -0.002453
   vertex -0.016764 0.14379 -0.002687
   vertex -0.015798 0.142165 -0.000194
  endloop
 endfacet
 facet normal 0.932446 0 -0.361309
  outer loop
   vertex -0.015798 0.142165 -0.000194
   vertex -0.016764 0.14379 -0.002687
   vertex -0.015798 0.145415 -0.000194
  endloop
 endfacet
 facet normal 0.885615 0.148581 -0.440011
  outer loop
   vertex -0.016764 0.14379 -0.002687
   vertex -0.017143 0.146742 -0.002453
   vertex -0.015798 0.145415 -0.000194
  endloop
 endfacet
 facet normal 0.886309 0.304753 -0.348685
  outer loop
   vertex -0.015798 0.145415 -0.000194
   vertex -0.017143 0.146742 -0.002453
   vertex -0.016663 0.148219 5.8e-05
  endloop
 endfacet
 facet normal 0.819189 0.412026 -0.398954
  outer loop
   vertex -0.017143 0.146742 -0.002453
   vertex -0.018034 0.149047 -0.001902
   vertex -0.016663 0.148219 5.8e-05
  endloop
 endfacet
 facet normal 0.61533 0.560308 -0.554459
  outer loop
   vertex -0.019175 0.148219 -0.004005
   vertex -0.019951 0.150607 -0.002453
   vertex -0.018034 0.149047 -0.001902
  endloop
 endfacet
 facet normal 0.467426 0.452641 -0.759361
  outer loop
   vertex -0.021017 0.14688 -0.005937
   vertex -0.021652 0.149668 -0.004666
   vertex -0.019175 0.148219 -0.004005
  endloop
 endfacet
 facet normal 0.262485 0.303841 -0.915851
  outer loop
   vertex -0.023238 0.145266 -0.007109
   vertex -0.023888 0.148043 -0.006374
   vertex -0.021017 0.14688 -0.005937
  endloop
 endfacet
 facet normal 0.508799 0.579247 -0.636864
  outer loop
   vertex -0.019175 0.148219 -0.004005
   vertex -0.021652 0.149668 -0.004666
   vertex -0.019951 0.150607 -0.002453
  endloop
 endfacet
 facet normal 0.38541 0.704977 -0.595371
  outer loop
   vertex -0.021652 0.149668 -0.004666
   vertex -0.022641 0.15188 -0.002687
   vertex -0.019951 0.150607 -0.002453
  endloop
 endfacet
 facet normal 0.310374 0.451949 -0.836307
  outer loop
   vertex -0.021017 0.14688 -0.005937
   vertex -0.023888 0.148043 -0.006374
   vertex -0.021652 0.149668 -0.004666
  endloop
 endfacet
 facet normal 0.187559 0.577248 -0.794737
  outer loop
   vertex -0.023888 0.148043 -0.006374
   vertex -0.024742 0.150672 -0.004666
   vertex -0.021652 0.149668 -0.004666
  endloop
 endfacet
 facet normal 0.228709 0.703897 -0.672474
  outer loop
   vertex -0.021652 0.149668 -0.004666
   vertex -0.024742 0.150672 -0.004666
   vertex -0.022641 0.15188 -0.002687
  endloop
 endfacet
 facet normal 0.102735 0.796801 -0.595444
  outer loop
   vertex -0.024742 0.150672 -0.004666
   vertex -0.025566 0.152432 -0.002453
   vertex -0.022641 0.15188 -0.002687
  endloop
 endfacet
 facet normal 0.0891868 0.274301 -0.957499
  outer loop
   vertex -0.023238 0.145266 -0.007109
   vertex -0.026046 0.146179 -0.007109
   vertex -0.023888 0.148043 -0.006374
  endloop
 endfacet
 facet normal -0.0336945 0.400135 -0.915836
  outer loop
   vertex -0.026046 0.146179 -0.007109
   vertex -0.026895 0.14879 -0.005937
   vertex -0.023888 0.148043 -0.006374
  endloop
 endfacet
 facet normal 0.0146149 0.548074 -0.836302
  outer loop
   vertex -0.023888 0.148043 -0.006374
   vertex -0.026895 0.14879 -0.005937
   vertex -0.024742 0.150672 -0.004666
  endloop
 endfacet
 facet normal -0.112009 0.640965 -0.759354
  outer loop
   vertex -0.026895 0.14879 -0.005937
   vertex -0.027598 0.150956 -0.004005
   vertex -0.024742 0.150672 -0.004666
  endloop
 endfacet
 facet normal -0.0710868 0.767617 -0.636955
  outer loop
   vertex -0.024742 0.150672 -0.004666
   vertex -0.027598 0.150956 -0.004005
   vertex -0.025566 0.152432 -0.002453
  endloop
 endfacet
 facet normal -0.168666 0.815046 -0.554303
  outer loop
   vertex -0.027598 0.150956 -0.004005
   vertex -0.028034 0.152296 -0.001902
   vertex -0.025566 0.152432 -0.002453
  endloop
 endfacet
 facet normal -0.342493 0.758552 -0.554344
  outer loop
   vertex -0.027598 0.150956 -0.004005
   vertex -0.03011 0.150956 -0.002453
   vertex -0.028034 0.152296 -0.001902
  endloop
 endfacet
 facet normal -0.286233 0.584386 -0.759318
  outer loop
   vertex -0.026895 0.14879 -0.005937
   vertex -0.029742 0.149047 -0.004666
   vertex -0.027598 0.150956 -0.004005
  endloop
 endfacet
 facet normal -0.207851 0.343516 -0.915858
  outer loop
   vertex -0.026046 0.146179 -0.007109
   vertex -0.028888 0.146419 -0.006374
   vertex -0.026895 0.14879 -0.005937
  endloop
 endfacet
 facet normal -0.393627 0.662685 -0.637108
  outer loop
   vertex -0.027598 0.150956 -0.004005
   vertex -0.029742 0.149047 -0.004666
   vertex -0.03011 0.150956 -0.002453
  endloop
 endfacet
 facet normal -0.551379 0.584158 -0.595601
  outer loop
   vertex -0.029742 0.149047 -0.004666
   vertex -0.032152 0.14879 -0.002687
   vertex -0.03011 0.150956 -0.002453
  endloop
 endfacet
 facet normal -0.334054 0.43492 -0.836213
  outer loop
   vertex -0.026895 0.14879 -0.005937
   vertex -0.028888 0.146419 -0.006374
   vertex -0.029742 0.149047 -0.004666
  endloop
 endfacet
 facet normal -0.491058 0.356895 -0.794662
  outer loop
   vertex -0.028888 0.146419 -0.006374
   vertex -0.031652 0.146419 -0.004666
   vertex -0.029742 0.149047 -0.004666
  endloop
 endfacet
 facet normal -0.598657 0.435097 -0.672533
  outer loop
   vertex -0.029742 0.149047 -0.004666
   vertex -0.031652 0.146419 -0.004666
   vertex -0.032152 0.14879 -0.002687
  endloop
 endfacet
 facet normal -0.725985 0.343961 -0.595514
  outer loop
   vertex -0.031652 0.146419 -0.004666
   vertex -0.033581 0.146179 -0.002453
   vertex -0.032152 0.14879 -0.002687
  endloop
 endfacet
 facet normal -0.233325 0.169451 -0.957521
  outer loop
   vertex -0.026046 0.146179 -0.007109
   vertex -0.027781 0.14379 -0.007109
   vertex -0.028888 0.146419 -0.006374
  endloop
 endfacet
 facet normal -0.390899 0.0914587 -0.915878
  outer loop
   vertex -0.027781 0.14379 -0.007109
   vertex -0.030527 0.14379 -0.005937
   vertex -0.028888 0.146419 -0.006374
  endloop
 endfacet
 facet normal -0.516783 0.183167 -0.836293
  outer loop
   vertex -0.028888 0.146419 -0.006374
   vertex -0.030527 0.14379 -0.005937
   vertex -0.031652 0.146419 -0.004666
  endloop
 endfacet
 facet normal -0.644269 0.0913996 -0.759317
  outer loop
   vertex -0.030527 0.14379 -0.005937
   vertex -0.032804 0.14379 -0.004005
   vertex -0.031652 0.146419 -0.004666
  endloop
 endfacet
 facet normal -0.751958 0.169318 -0.637095
  outer loop
   vertex -0.031652 0.146419 -0.004666
   vertex -0.032804 0.14379 -0.004005
   vertex -0.033581 0.146179 -0.002453
  endloop
 endfacet
 facet normal -0.827124 0.091254 -0.554562
  outer loop
   vertex -0.032804 0.14379 -0.004005
   vertex -0.034214 0.14379 -0.001902
   vertex -0.033581 0.146179 -0.002453
  endloop
 endfacet
 facet normal -0.827124 -0.091254 -0.554562
  outer loop
   vertex -0.032804 0.14379 -0.004005
   vertex -0.033581 0.141401 -0.002453
   vertex -0.034214 0.14379 -0.001902
  endloop
 endfacet
 facet normal -0.644269 -0.0913996 -0.759317
  outer loop
   vertex -0.030527 0.14379 -0.005937
   vertex -0.031652 0.141161 -0.004666
   vertex -0.032804 0.14379 -0.004005
  endloop
 endfacet
 facet normal -0.390899 -0.0914587 -0.915878
  outer loop
   vertex -0.027781 0.14379 -0.007109
   vertex -0.028888 0.141161 -0.006374
   vertex -0.030527 0.14379 -0.005937
  endloop
 endfacet
 facet normal -0.751958 -0.169318 -0.637095
  outer loop
   vertex -0.032804 0.14379 -0.004005
   vertex -0.031652 0.141161 -0.004666
   vertex -0.033581 0.141401 -0.002453
  endloop
 endfacet
 facet normal -0.725985 -0.343961 -0.595514
  outer loop
   vertex -0.031652 0.141161 -0.004666
   vertex -0.032152 0.13879 -0.002687
   vertex -0.033581 0.141401 -0.002453
  endloop
 endfacet
 facet normal -0.516783 -0.183167 -0.836293
  outer loop
   vertex -0.030527 0.14379 -0.005937
   vertex -0.028888 0.141161 -0.006374
   vertex -0.031652 0.141161 -0.004666
  endloop
 endfacet
 facet normal -0.491058 -0.356895 -0.794662
  outer loop
   vertex -0.028888 0.141161 -0.006374
   vertex -0.029742 0.138533 -0.004666
   vertex -0.031652 0.141161 -0.004666
  endloop
 endfacet
 facet normal -0.598657 -0.435097 -0.672533
  outer loop
   vertex -0.031652 0.141161 -0.004666
   vertex -0.029742 0.138533 -0.004666
   vertex -0.032152 0.13879 -0.002687
  endloop
 endfacet
 facet normal -0.551379 -0.584158 -0.595601
  outer loop
   vertex -0.029742 0.138533 -0.004666
   vertex -0.03011 0.136624 -0.002453
   vertex -0.032152 0.13879 -0.002687
  endloop
 endfacet
 facet normal -0.233325 -0.169451 -0.957521
  outer loop
   vertex -0.027781 0.14379 -0.007109
   vertex -0.026046 0.141401 -0.007109
   vertex -0.028888 0.141161 -0.006374
  endloop
 endfacet
 facet normal -0.207851 -0.343516 -0.915858
  outer loop
   vertex -0.026046 0.141401 -0.007109
   vertex -0.026895 0.13879 -0.005937
   vertex -0.028888 0.141161 -0.006374
  endloop
 endfacet
 facet normal -0.334054 -0.43492 -0.836213
  outer loop
   vertex -0.028888 0.141161 -0.006374
   vertex -0.026895 0.13879 -0.005937
   vertex -0.029742 0.138533 -0.004666
  endloop
 endfacet
 facet normal -0.286233 -0.584386 -0.759318
  outer loop
   vertex -0.026895 0.13879 -0.005937
   vertex -0.027598 0.136624 -0.004005
   vertex -0.029742 0.138533 -0.004666
  endloop
 endfacet
 facet normal -0.393627 -0.662685 -0.637108
  outer loop
   vertex -0.029742 0.138533 -0.004666
   vertex -0.027598 0.136624 -0.004005
   vertex -0.03011 0.136624 -0.002453
  endloop
 endfacet
 facet normal -0.342493 -0.758552 -0.554344
  outer loop
   vertex -0.027598 0.136624 -0.004005
   vertex -0.028034 0.135284 -0.001902
   vertex -0.03011 0.136624 -0.002453
  endloop
 endfacet
 facet normal 0.723015 0.412034 -0.554506
  outer loop
   vertex -0.017143 0.146742 -0.002453
   vertex -0.019175 0.148219 -0.004005
   vertex -0.018034 0.149047 -0.001902
  endloop
 endfacet
 facet normal 0.789589 0.148568 -0.59538
  outer loop
   vertex -0.016764 0.14379 -0.002687
   vertex -0.018562 0.145415 -0.004666
   vertex -0.017143 0.146742 -0.002453
  endloop
 endfacet
 facet normal 0.789589 -0.148568 -0.59538
  outer loop
   vertex -0.017143 0.140838 -0.002453
   vertex -0.018562 0.142165 -0.004666
   vertex -0.016764 0.14379 -0.002687
  endloop
 endfacet
 facet normal 0.708089 0.304936 -0.636886
  outer loop
   vertex -0.017143 0.146742 -0.002453
   vertex -0.018562 0.145415 -0.004666
   vertex -0.019175 0.148219 -0.004005
  endloop
 endfacet
 facet normal 0.574948 0.304695 -0.759339
  outer loop
   vertex -0.018562 0.145415 -0.004666
   vertex -0.021017 0.14688 -0.005937
   vertex -0.019175 0.148219 -0.004005
  endloop
 endfacet
 facet normal 0.740143 0 -0.672449
  outer loop
   vertex -0.016764 0.14379 -0.002687
   vertex -0.018562 0.142165 -0.004666
   vertex -0.018562 0.145415 -0.004666
  endloop
 endfacet
 facet normal 0.607028 0 -0.794681
  outer loop
   vertex -0.018562 0.142165 -0.004666
   vertex -0.020798 0.14379 -0.006374
   vertex -0.018562 0.145415 -0.004666
  endloop
 endfacet
 facet normal 0.525774 0.155534 -0.836284
  outer loop
   vertex -0.018562 0.145415 -0.004666
   vertex -0.020798 0.14379 -0.006374
   vertex -0.021017 0.14688 -0.005937
  endloop
 endfacet
 facet normal 0.370096 0.155752 -0.915844
  outer loop
   vertex -0.020798 0.14379 -0.006374
   vertex -0.023238 0.145266 -0.007109
   vertex -0.021017 0.14688 -0.005937
  endloop
 endfacet
 facet normal 0.708089 -0.304936 -0.636886
  outer loop
   vertex -0.017143 0.140838 -0.002453
   vertex -0.019175 0.139361 -0.004005
   vertex -0.018562 0.142165 -0.004666
  endloop
 endfacet
 facet normal 0.574948 -0.304695 -0.759339
  outer loop
   vertex -0.019175 0.139361 -0.004005
   vertex -0.021017 0.1407 -0.005937
   vertex -0.018562 0.142165 -0.004666
  endloop
 endfacet
 facet normal 0.525774 -0.155534 -0.836284
  outer loop
   vertex -0.018562 0.142165 -0.004666
   vertex -0.021017 0.1407 -0.005937
   vertex -0.020798 0.14379 -0.006374
  endloop
 endfacet
 facet normal 0.370096 -0.155752 -0.915844
  outer loop
   vertex -0.021017 0.1407 -0.005937
   vertex -0.023238 0.142314 -0.007109
   vertex -0.020798 0.14379 -0.006374
  endloop
 endfacet
 facet normal 0.288428 0 -0.957502
  outer loop
   vertex -0.020798 0.14379 -0.006374
   vertex -0.023238 0.142314 -0.007109
   vertex -0.023238 0.145266 -0.007109
  endloop
 endfacet
 facet normal 0.156037 0 -0.987751
  outer loop
   vertex -0.023238 0.142314 -0.007109
   vertex -0.02527 0.14379 -0.00743
   vertex -0.023238 0.145266 -0.007109
  endloop
 endfacet
 facet normal -0.168666 -0.815046 -0.554303
  outer loop
   vertex -0.027598 0.136624 -0.004005
   vertex -0.025566 0.135148 -0.002453
   vertex -0.028034 0.135284 -0.001902
  endloop
 endfacet
 facet normal -0.112009 -0.640965 -0.759354
  outer loop
   vertex -0.026895 0.13879 -0.005937
   vertex -0.024742 0.136908 -0.004666
   vertex -0.027598 0.136624 -0.004005
  endloop
 endfacet
 facet normal -0.0336945 -0.400135 -0.915836
  outer loop
   vertex -0.026046 0.141401 -0.007109
   vertex -0.023888 0.139537 -0.006374
   vertex -0.026895 0.13879 -0.005937
  endloop
 endfacet
 facet normal -0.0710868 -0.767617 -0.636955
  outer loop
   vertex -0.027598 0.136624 -0.004005
   vertex -0.024742 0.136908 -0.004666
   vertex -0.025566 0.135148 -0.002453
  endloop
 endfacet
 facet normal 0.102735 -0.796801 -0.595444
  outer loop
   vertex -0.024742 0.136908 -0.004666
   vertex -0.022641 0.1357 -0.002687
   vertex -0.025566 0.135148 -0.002453
  endloop
 endfacet
 facet normal 0.0146149 -0.548074 -0.836302
  outer loop
   vertex -0.026895 0.13879 -0.005937
   vertex -0.023888 0.139537 -0.006374
   vertex -0.024742 0.136908 -0.004666
  endloop
 endfacet
 facet normal 0.187559 -0.577248 -0.794737
  outer loop
   vertex -0.023888 0.139537 -0.006374
   vertex -0.021652 0.137912 -0.004666
   vertex -0.024742 0.136908 -0.004666
  endloop
 endfacet
 facet normal 0.228709 -0.703897 -0.672474
  outer loop
   vertex -0.024742 0.136908 -0.004666
   vertex -0.021652 0.137912 -0.004666
   vertex -0.022641 0.1357 -0.002687
  endloop
 endfacet
 facet normal 0.38541 -0.704977 -0.595371
  outer loop
   vertex -0.021652 0.137912 -0.004666
   vertex -0.019951 0.136973 -0.002453
   vertex -0.022641 0.1357 -0.002687
  endloop
 endfacet
 facet normal 0.0891868 -0.274301 -0.957499
  outer loop
   vertex -0.026046 0.141401 -0.007109
   vertex -0.023238 0.142314 -0.007109
   vertex -0.023888 0.139537 -0.006374
  endloop
 endfacet
 facet normal 0.262485 -0.303841 -0.915851
  outer loop
   vertex -0.023238 0.142314 -0.007109
   vertex -0.021017 0.1407 -0.005937
   vertex -0.023888 0.139537 -0.006374
  endloop
 endfacet
 facet normal 0.310374 -0.451949 -0.836307
  outer loop
   vertex -0.023888 0.139537 -0.006374
   vertex -0.021017 0.1407 -0.005937
   vertex -0.021652 0.137912 -0.004666
  endloop
 endfacet
 facet normal 0.467426 -0.452641 -0.759361
  outer loop
   vertex -0.021017 0.1407 -0.005937
   vertex -0.019175 0.139361 -0.004005
   vertex -0.021652 0.137912 -0.004666
  endloop
 endfacet
 facet normal 0.508799 -0.579247 -0.636864
  outer loop
   vertex -0.021652 0.137912 -0.004666
   vertex -0.019175 0.139361 -0.004005
   vertex -0.019951 0.136973 -0.002453
  endloop
 endfacet
 facet normal 0.61533 -0.560308 -0.554459
  outer loop
   vertex -0.019175 0.139361 -0.004005
   vertex -0.018034 0.138533 -0.001902
   vertex -0.019951 0.136973 -0.002453
  endloop
 endfacet
endsolid ExportedfromBlender-3.5.1
