solid ExportedfromBlender-3.5.1
 facet normal 0.0482486 -0.148392 -0.987751
  outer loop
   vertex -0.00884 0.25278 0.01061
   vertex -0.006808 0.251304 0.010931
   vertex -0.009616 0.250391 0.010931
  endloop
 endfacet
 facet normal 0.723015 -0.412034 -0.554506
  outer loop
   vertex -0.001604 0.247523 0.016138
   vertex -0.002745 0.248351 0.014035
   vertex -0.000713 0.249828 0.015587
  endloop
 endfacet
 facet normal -0.126271 -0.0917039 -0.987748
  outer loop
   vertex -0.00884 0.25278 0.01061
   vertex -0.009616 0.250391 0.010931
   vertex -0.011351 0.25278 0.010931
  endloop
 endfacet
 facet normal -0.126271 0.0917039 -0.987748
  outer loop
   vertex -0.00884 0.25278 0.01061
   vertex -0.011351 0.25278 0.010931
   vertex -0.009616 0.255169 0.010931
  endloop
 endfacet
 facet normal 0.0482486 0.148392 -0.987751
  outer loop
   vertex -0.00884 0.25278 0.01061
   vertex -0.009616 0.255169 0.010931
   vertex -0.006808 0.254256 0.010931
  endloop
 endfacet
 facet normal 0.819189 -0.412026 -0.398954
  outer loop
   vertex -0.001604 0.247523 0.016138
   vertex -0.000713 0.249828 0.015587
   vertex -0.000233 0.248351 0.018098
  endloop
 endfacet
 facet normal -0.138975 -0.90647 -0.398746
  outer loop
   vertex -0.011604 0.244274 0.016138
   vertex -0.009136 0.244138 0.015587
   vertex -0.010392 0.243226 0.018098
  endloop
 endfacet
 facet normal -0.905177 -0.147939 -0.398459
  outer loop
   vertex -0.017784 0.25278 0.016138
   vertex -0.017151 0.250391 0.015587
   vertex -0.018406 0.251304 0.018099
  endloop
 endfacet
 facet normal -0.420269 0.815078 -0.398776
  outer loop
   vertex -0.011604 0.261286 0.016138
   vertex -0.01368 0.259946 0.015587
   vertex -0.0132 0.261422 0.018098
  endloop
 endfacet
 facet normal 0.645038 0.651744 -0.398942
  outer loop
   vertex -0.001604 0.258037 0.016138
   vertex -0.003521 0.259597 0.015587
   vertex -0.001968 0.259597 0.018098
  endloop
 endfacet
 facet normal 0.771063 -0.560215 -0.302688
  outer loop
   vertex -0.001604 0.247523 0.016138
   vertex -0.000233 0.248351 0.018098
   vertex -0.001968 0.245963 0.018098
  endloop
 endfacet
 facet normal -0.294416 -0.906493 -0.302638
  outer loop
   vertex -0.011604 0.244274 0.016138
   vertex -0.010392 0.243226 0.018098
   vertex -0.0132 0.244138 0.018098
  endloop
 endfacet
 facet normal -0.9532 0 -0.302341
  outer loop
   vertex -0.017784 0.25278 0.016138
   vertex -0.018406 0.251304 0.018099
   vertex -0.018406 0.254256 0.018099
  endloop
 endfacet
 facet normal -0.294416 0.906493 -0.302638
  outer loop
   vertex -0.011604 0.261286 0.016138
   vertex -0.0132 0.261422 0.018098
   vertex -0.010392 0.262334 0.018098
  endloop
 endfacet
 facet normal 0.771063 0.560215 -0.302688
  outer loop
   vertex -0.001604 0.258037 0.016138
   vertex -0.001968 0.259597 0.018098
   vertex -0.000233 0.257209 0.018098
  endloop
 endfacet
 facet normal 0.342493 -0.758552 0.554344
  outer loop
   vertex -0.006076 0.244274 0.025082
   vertex -0.004 0.245614 0.025633
   vertex -0.006512 0.245614 0.027185
  endloop
 endfacet
 facet normal -0.61533 -0.560308 0.554459
  outer loop
   vertex -0.016076 0.247523 0.025082
   vertex -0.014159 0.245963 0.025633
   vertex -0.014935 0.248351 0.027185
  endloop
 endfacet
 facet normal -0.723015 0.412034 0.554506
  outer loop
   vertex -0.016076 0.258037 0.025082
   vertex -0.016967 0.255732 0.025633
   vertex -0.014935 0.257209 0.027185
  endloop
 endfacet
 facet normal 0.168666 0.815046 0.554303
  outer loop
   vertex -0.006076 0.261286 0.025082
   vertex -0.008544 0.261422 0.025633
   vertex -0.006512 0.259946 0.027185
  endloop
 endfacet
 facet normal 0.827124 0.091254 0.554562
  outer loop
   vertex 0.000104 0.25278 0.025082
   vertex -0.000529 0.255169 0.025633
   vertex -0.001306 0.25278 0.027185
  endloop
 endfacet
 facet normal 0.126271 0.0917039 0.987748
  outer loop
   vertex -0.006329 0.25278 0.030289
   vertex -0.008064 0.255169 0.030289
   vertex -0.00884 0.25278 0.03061
  endloop
 endfacet
 facet normal 0.390899 0.0914587 0.915878
  outer loop
   vertex -0.003583 0.25278 0.029117
   vertex -0.005222 0.255409 0.029554
   vertex -0.006329 0.25278 0.030289
  endloop
 endfacet
 facet normal 0.644269 0.0913996 0.759317
  outer loop
   vertex -0.001306 0.25278 0.027185
   vertex -0.002458 0.255409 0.027846
   vertex -0.003583 0.25278 0.029117
  endloop
 endfacet
 facet normal 0.233325 0.169451 0.957521
  outer loop
   vertex -0.006329 0.25278 0.030289
   vertex -0.005222 0.255409 0.029554
   vertex -0.008064 0.255169 0.030289
  endloop
 endfacet
 facet normal 0.207851 0.343516 0.915858
  outer loop
   vertex -0.005222 0.255409 0.029554
   vertex -0.007215 0.25778 0.029117
   vertex -0.008064 0.255169 0.030289
  endloop
 endfacet
 facet normal 0.516783 0.183167 0.836293
  outer loop
   vertex -0.003583 0.25278 0.029117
   vertex -0.002458 0.255409 0.027846
   vertex -0.005222 0.255409 0.029554
  endloop
 endfacet
 facet normal 0.491058 0.356895 0.794662
  outer loop
   vertex -0.002458 0.255409 0.027846
   vertex -0.004368 0.258037 0.027846
   vertex -0.005222 0.255409 0.029554
  endloop
 endfacet
 facet normal 0.334054 0.43492 0.836213
  outer loop
   vertex -0.005222 0.255409 0.029554
   vertex -0.004368 0.258037 0.027846
   vertex -0.007215 0.25778 0.029117
  endloop
 endfacet
 facet normal 0.286233 0.584386 0.759318
  outer loop
   vertex -0.004368 0.258037 0.027846
   vertex -0.006512 0.259946 0.027185
   vertex -0.007215 0.25778 0.029117
  endloop
 endfacet
 facet normal 0.751958 0.169318 0.637095
  outer loop
   vertex -0.001306 0.25278 0.027185
   vertex -0.000529 0.255169 0.025633
   vertex -0.002458 0.255409 0.027846
  endloop
 endfacet
 facet normal 0.725985 0.343961 0.595514
  outer loop
   vertex -0.000529 0.255169 0.025633
   vertex -0.001958 0.25778 0.025867
   vertex -0.002458 0.255409 0.027846
  endloop
 endfacet
 facet normal 0.598657 0.435097 0.672533
  outer loop
   vertex -0.002458 0.255409 0.027846
   vertex -0.001958 0.25778 0.025867
   vertex -0.004368 0.258037 0.027846
  endloop
 endfacet
 facet normal 0.551379 0.584158 0.595601
  outer loop
   vertex -0.001958 0.25778 0.025867
   vertex -0.004 0.259946 0.025633
   vertex -0.004368 0.258037 0.027846
  endloop
 endfacet
 facet normal 0.393627 0.662685 0.637108
  outer loop
   vertex -0.004368 0.258037 0.027846
   vertex -0.004 0.259946 0.025633
   vertex -0.006512 0.259946 0.027185
  endloop
 endfacet
 facet normal 0.342493 0.758552 0.554344
  outer loop
   vertex -0.004 0.259946 0.025633
   vertex -0.006076 0.261286 0.025082
   vertex -0.006512 0.259946 0.027185
  endloop
 endfacet
 facet normal -0.0482486 0.148392 0.987751
  outer loop
   vertex -0.008064 0.255169 0.030289
   vertex -0.010872 0.254256 0.030289
   vertex -0.00884 0.25278 0.03061
  endloop
 endfacet
 facet normal 0.0336945 0.400135 0.915836
  outer loop
   vertex -0.007215 0.25778 0.029117
   vertex -0.010222 0.257033 0.029554
   vertex -0.008064 0.255169 0.030289
  endloop
 endfacet
 facet normal 0.112009 0.640965 0.759354
  outer loop
   vertex -0.006512 0.259946 0.027185
   vertex -0.009368 0.259662 0.027846
   vertex -0.007215 0.25778 0.029117
  endloop
 endfacet
 facet normal -0.0891868 0.274301 0.957499
  outer loop
   vertex -0.008064 0.255169 0.030289
   vertex -0.010222 0.257033 0.029554
   vertex -0.010872 0.254256 0.030289
  endloop
 endfacet
 facet normal -0.262485 0.303841 0.915851
  outer loop
   vertex -0.010222 0.257033 0.029554
   vertex -0.013093 0.25587 0.029117
   vertex -0.010872 0.254256 0.030289
  endloop
 endfacet
 facet normal -0.0146149 0.548074 0.836302
  outer loop
   vertex -0.007215 0.25778 0.029117
   vertex -0.009368 0.259662 0.027846
   vertex -0.010222 0.257033 0.029554
  endloop
 endfacet
 facet normal -0.187559 0.577248 0.794737
  outer loop
   vertex -0.009368 0.259662 0.027846
   vertex -0.012458 0.258658 0.027846
   vertex -0.010222 0.257033 0.029554
  endloop
 endfacet
 facet normal -0.310374 0.451949 0.836307
  outer loop
   vertex -0.010222 0.257033 0.029554
   vertex -0.012458 0.258658 0.027846
   vertex -0.013093 0.25587 0.029117
  endloop
 endfacet
 facet normal -0.467426 0.452641 0.759361
  outer loop
   vertex -0.012458 0.258658 0.027846
   vertex -0.014935 0.257209 0.027185
   vertex -0.013093 0.25587 0.029117
  endloop
 endfacet
 facet normal 0.0710868 0.767617 0.636955
  outer loop
   vertex -0.006512 0.259946 0.027185
   vertex -0.008544 0.261422 0.025633
   vertex -0.009368 0.259662 0.027846
  endloop
 endfacet
 facet normal -0.102735 0.796801 0.595444
  outer loop
   vertex -0.008544 0.261422 0.025633
   vertex -0.011469 0.26087 0.025867
   vertex -0.009368 0.259662 0.027846
  endloop
 endfacet
 facet normal -0.228709 0.703897 0.672474
  outer loop
   vertex -0.009368 0.259662 0.027846
   vertex -0.011469 0.26087 0.025867
   vertex -0.012458 0.258658 0.027846
  endloop
 endfacet
 facet normal -0.38541 0.704977 0.595371
  outer loop
   vertex -0.011469 0.26087 0.025867
   vertex -0.014159 0.259597 0.025633
   vertex -0.012458 0.258658 0.027846
  endloop
 endfacet
 facet normal -0.508799 0.579247 0.636864
  outer loop
   vertex -0.012458 0.258658 0.027846
   vertex -0.014159 0.259597 0.025633
   vertex -0.014935 0.257209 0.027185
  endloop
 endfacet
 facet normal -0.61533 0.560308 0.554459
  outer loop
   vertex -0.014159 0.259597 0.025633
   vertex -0.016076 0.258037 0.025082
   vertex -0.014935 0.257209 0.027185
  endloop
 endfacet
 facet normal -0.156037 0 0.987751
  outer loop
   vertex -0.010872 0.254256 0.030289
   vertex -0.010872 0.251304 0.030289
   vertex -0.00884 0.25278 0.03061
  endloop
 endfacet
 facet normal -0.370096 0.155752 0.915844
  outer loop
   vertex -0.013093 0.25587 0.029117
   vertex -0.013312 0.25278 0.029554
   vertex -0.010872 0.254256 0.030289
  endloop
 endfacet
 facet normal -0.574948 0.304695 0.759339
  outer loop
   vertex -0.014935 0.257209 0.027185
   vertex -0.015548 0.254405 0.027846
   vertex -0.013093 0.25587 0.029117
  endloop
 endfacet
 facet normal -0.288428 0 0.957502
  outer loop
   vertex -0.010872 0.254256 0.030289
   vertex -0.013312 0.25278 0.029554
   vertex -0.010872 0.251304 0.030289
  endloop
 endfacet
 facet normal -0.370096 -0.155752 0.915844
  outer loop
   vertex -0.013312 0.25278 0.029554
   vertex -0.013093 0.24969 0.029117
   vertex -0.010872 0.251304 0.030289
  endloop
 endfacet
 facet normal -0.525774 0.155534 0.836284
  outer loop
   vertex -0.013093 0.25587 0.029117
   vertex -0.015548 0.254405 0.027846
   vertex -0.013312 0.25278 0.029554
  endloop
 endfacet
 facet normal -0.607028 0 0.794681
  outer loop
   vertex -0.015548 0.254405 0.027846
   vertex -0.015548 0.251155 0.027846
   vertex -0.013312 0.25278 0.029554
  endloop
 endfacet
 facet normal -0.525774 -0.155534 0.836284
  outer loop
   vertex -0.013312 0.25278 0.029554
   vertex -0.015548 0.251155 0.027846
   vertex -0.013093 0.24969 0.029117
  endloop
 endfacet
 facet normal -0.574948 -0.304695 0.759339
  outer loop
   vertex -0.015548 0.251155 0.027846
   vertex -0.014935 0.248351 0.027185
   vertex -0.013093 0.24969 0.029117
  endloop
 endfacet
 facet normal -0.708089 0.304936 0.636886
  outer loop
   vertex -0.014935 0.257209 0.027185
   vertex -0.016967 0.255732 0.025633
   vertex -0.015548 0.254405 0.027846
  endloop
 endfacet
 facet normal -0.789589 0.148568 0.59538
  outer loop
   vertex -0.016967 0.255732 0.025633
   vertex -0.017346 0.25278 0.025867
   vertex -0.015548 0.254405 0.027846
  endloop
 endfacet
 facet normal -0.740143 0 0.672449
  outer loop
   vertex -0.015548 0.254405 0.027846
   vertex -0.017346 0.25278 0.025867
   vertex -0.015548 0.251155 0.027846
  endloop
 endfacet
 facet normal -0.789589 -0.148568 0.59538
  outer loop
   vertex -0.017346 0.25278 0.025867
   vertex -0.016967 0.249828 0.025633
   vertex -0.015548 0.251155 0.027846
  endloop
 endfacet
 facet normal -0.708089 -0.304936 0.636886
  outer loop
   vertex -0.015548 0.251155 0.027846
   vertex -0.016967 0.249828 0.025633
   vertex -0.014935 0.248351 0.027185
  endloop
 endfacet
 facet normal -0.723015 -0.412034 0.554506
  outer loop
   vertex -0.016967 0.249828 0.025633
   vertex -0.016076 0.247523 0.025082
   vertex -0.014935 0.248351 0.027185
  endloop
 endfacet
 facet normal -0.0482486 -0.148392 0.987751
  outer loop
   vertex -0.010872 0.251304 0.030289
   vertex -0.008064 0.250391 0.030289
   vertex -0.00884 0.25278 0.03061
  endloop
 endfacet
 facet normal -0.262485 -0.303841 0.915851
  outer loop
   vertex -0.013093 0.24969 0.029117
   vertex -0.010222 0.248527 0.029554
   vertex -0.010872 0.251304 0.030289
  endloop
 endfacet
 facet normal -0.467426 -0.452641 0.759361
  outer loop
   vertex -0.014935 0.248351 0.027185
   vertex -0.012458 0.246902 0.027846
   vertex -0.013093 0.24969 0.029117
  endloop
 endfacet
 facet normal -0.0891868 -0.274301 0.957499
  outer loop
   vertex -0.010872 0.251304 0.030289
   vertex -0.010222 0.248527 0.029554
   vertex -0.008064 0.250391 0.030289
  endloop
 endfacet
 facet normal 0.0336945 -0.400135 0.915836
  outer loop
   vertex -0.010222 0.248527 0.029554
   vertex -0.007215 0.24778 0.029117
   vertex -0.008064 0.250391 0.030289
  endloop
 endfacet
 facet normal -0.310374 -0.451949 0.836307
  outer loop
   vertex -0.013093 0.24969 0.029117
   vertex -0.012458 0.246902 0.027846
   vertex -0.010222 0.248527 0.029554
  endloop
 endfacet
 facet normal -0.187559 -0.577248 0.794737
  outer loop
   vertex -0.012458 0.246902 0.027846
   vertex -0.009368 0.245898 0.027846
   vertex -0.010222 0.248527 0.029554
  endloop
 endfacet
 facet normal -0.0146149 -0.548074 0.836302
  outer loop
   vertex -0.010222 0.248527 0.029554
   vertex -0.009368 0.245898 0.027846
   vertex -0.007215 0.24778 0.029117
  endloop
 endfacet
 facet normal 0.112009 -0.640965 0.759354
  outer loop
   vertex -0.009368 0.245898 0.027846
   vertex -0.006512 0.245614 0.027185
   vertex -0.007215 0.24778 0.029117
  endloop
 endfacet
 facet normal -0.508799 -0.579247 0.636864
  outer loop
   vertex -0.014935 0.248351 0.027185
   vertex -0.014159 0.245963 0.025633
   vertex -0.012458 0.246902 0.027846
  endloop
 endfacet
 facet normal -0.38541 -0.704977 0.595371
  outer loop
   vertex -0.014159 0.245963 0.025633
   vertex -0.011469 0.24469 0.025867
   vertex -0.012458 0.246902 0.027846
  endloop
 endfacet
 facet normal -0.228709 -0.703897 0.672474
  outer loop
   vertex -0.012458 0.246902 0.027846
   vertex -0.011469 0.24469 0.025867
   vertex -0.009368 0.245898 0.027846
  endloop
 endfacet
 facet normal -0.102735 -0.796801 0.595444
  outer loop
   vertex -0.011469 0.24469 0.025867
   vertex -0.008544 0.244138 0.025633
   vertex -0.009368 0.245898 0.027846
  endloop
 endfacet
 facet normal 0.0710868 -0.767617 0.636955
  outer loop
   vertex -0.009368 0.245898 0.027846
   vertex -0.008544 0.244138 0.025633
   vertex -0.006512 0.245614 0.027185
  endloop
 endfacet
 facet normal 0.168666 -0.815046 0.554303
  outer loop
   vertex -0.008544 0.244138 0.025633
   vertex -0.006076 0.244274 0.025082
   vertex -0.006512 0.245614 0.027185
  endloop
 endfacet
 facet normal 0.126271 -0.0917039 0.987748
  outer loop
   vertex -0.008064 0.250391 0.030289
   vertex -0.006329 0.25278 0.030289
   vertex -0.00884 0.25278 0.03061
  endloop
 endfacet
 facet normal 0.207851 -0.343516 0.915858
  outer loop
   vertex -0.007215 0.24778 0.029117
   vertex -0.005222 0.250151 0.029554
   vertex -0.008064 0.250391 0.030289
  endloop
 endfacet
 facet normal 0.286233 -0.584386 0.759318
  outer loop
   vertex -0.006512 0.245614 0.027185
   vertex -0.004368 0.247523 0.027846
   vertex -0.007215 0.24778 0.029117
  endloop
 endfacet
 facet normal 0.233325 -0.169451 0.957521
  outer loop
   vertex -0.008064 0.250391 0.030289
   vertex -0.005222 0.250151 0.029554
   vertex -0.006329 0.25278 0.030289
  endloop
 endfacet
 facet normal 0.390899 -0.0914587 0.915878
  outer loop
   vertex -0.005222 0.250151 0.029554
   vertex -0.003583 0.25278 0.029117
   vertex -0.006329 0.25278 0.030289
  endloop
 endfacet
 facet normal 0.334054 -0.43492 0.836213
  outer loop
   vertex -0.007215 0.24778 0.029117
   vertex -0.004368 0.247523 0.027846
   vertex -0.005222 0.250151 0.029554
  endloop
 endfacet
 facet normal 0.491058 -0.356895 0.794662
  outer loop
   vertex -0.004368 0.247523 0.027846
   vertex -0.002458 0.250151 0.027846
   vertex -0.005222 0.250151 0.029554
  endloop
 endfacet
 facet normal 0.516783 -0.183167 0.836293
  outer loop
   vertex -0.005222 0.250151 0.029554
   vertex -0.002458 0.250151 0.027846
   vertex -0.003583 0.25278 0.029117
  endloop
 endfacet
 facet normal 0.644269 -0.0913996 0.759317
  outer loop
   vertex -0.002458 0.250151 0.027846
   vertex -0.001306 0.25278 0.027185
   vertex -0.003583 0.25278 0.029117
  endloop
 endfacet
 facet normal 0.393627 -0.662685 0.637108
  outer loop
   vertex -0.006512 0.245614 0.027185
   vertex -0.004 0.245614 0.025633
   vertex -0.004368 0.247523 0.027846
  endloop
 endfacet
 facet normal 0.551379 -0.584158 0.595601
  outer loop
   vertex -0.004 0.245614 0.025633
   vertex -0.001958 0.24778 0.025867
   vertex -0.004368 0.247523 0.027846
  endloop
 endfacet
 facet normal 0.598657 -0.435097 0.672533
  outer loop
   vertex -0.004368 0.247523 0.027846
   vertex -0.001958 0.24778 0.025867
   vertex -0.002458 0.250151 0.027846
  endloop
 endfacet
 facet normal 0.725985 -0.343961 0.595514
  outer loop
   vertex -0.001958 0.24778 0.025867
   vertex -0.000529 0.250391 0.025633
   vertex -0.002458 0.250151 0.027846
  endloop
 endfacet
 facet normal 0.751958 -0.169318 0.637095
  outer loop
   vertex -0.002458 0.250151 0.027846
   vertex -0.000529 0.250391 0.025633
   vertex -0.001306 0.25278 0.027185
  endloop
 endfacet
 facet normal 0.827124 -0.091254 0.554562
  outer loop
   vertex -0.000529 0.250391 0.025633
   vertex 0.000104 0.25278 0.025082
   vertex -0.001306 0.25278 0.027185
  endloop
 endfacet
 facet normal 0.905177 0.147939 0.398459
  outer loop
   vertex 0.000726 0.254256 0.023121
   vertex -0.000529 0.255169 0.025633
   vertex 0.000104 0.25278 0.025082
  endloop
 endfacet
 facet normal 0.93657 0.303801 0.17476
  outer loop
   vertex 0.000671 0.25587 0.02061
   vertex -0.000222 0.257033 0.023374
   vertex 0.000726 0.254256 0.023121
  endloop
 endfacet
 facet normal 0.888212 0.452708 -0.078331
  outer loop
   vertex -0.000233 0.257209 0.018098
   vertex -0.00075 0.258658 0.02061
   vertex 0.000671 0.25587 0.02061
  endloop
 endfacet
 facet normal 0.89641 0.274294 0.348155
  outer loop
   vertex 0.000726 0.254256 0.023121
   vertex -0.000222 0.257033 0.023374
   vertex -0.000529 0.255169 0.025633
  endloop
 endfacet
 facet normal 0.803858 0.400541 0.439749
  outer loop
   vertex -0.000222 0.257033 0.023374
   vertex -0.001958 0.25778 0.025867
   vertex -0.000529 0.255169 0.025633
  endloop
 endfacet
 facet normal 0.886806 0.451991 0.0963284
  outer loop
   vertex 0.000671 0.25587 0.02061
   vertex -0.00075 0.258658 0.02061
   vertex -0.000222 0.257033 0.023374
  endloop
 endfacet
 facet normal 0.794662 0.577331 0.18762
  outer loop
   vertex -0.00075 0.258658 0.02061
   vertex -0.002132 0.259662 0.023374
   vertex -0.000222 0.257033 0.023374
  endloop
 endfacet
 facet normal 0.754436 0.548107 0.361117
  outer loop
   vertex -0.000222 0.257033 0.023374
   vertex -0.002132 0.259662 0.023374
   vertex -0.001958 0.25778 0.025867
  endloop
 endfacet
 facet normal 0.629279 0.640767 0.439803
  outer loop
   vertex -0.002132 0.259662 0.023374
   vertex -0.004 0.259946 0.025633
   vertex -0.001958 0.25778 0.025867
  endloop
 endfacet
 facet normal 0.797233 0.579229 -0.170037
  outer loop
   vertex -0.000233 0.257209 0.018098
   vertex -0.001968 0.259597 0.018098
   vertex -0.00075 0.258658 0.02061
  endloop
 endfacet
 facet normal 0.704936 0.704936 -0.0782949
  outer loop
   vertex -0.001968 0.259597 0.018098
   vertex -0.002962 0.26087 0.02061
   vertex -0.00075 0.258658 0.02061
  endloop
 endfacet
 facet normal 0.703824 0.703824 0.0962537
  outer loop
   vertex -0.00075 0.258658 0.02061
   vertex -0.002962 0.26087 0.02061
   vertex -0.002132 0.259662 0.023374
  endloop
 endfacet
 facet normal 0.578519 0.796783 0.174509
  outer loop
   vertex -0.002962 0.26087 0.02061
   vertex -0.00448 0.261422 0.023122
   vertex -0.002132 0.259662 0.023374
  endloop
 endfacet
 facet normal 0.537986 0.767602 0.348366
  outer loop
   vertex -0.002132 0.259662 0.023374
   vertex -0.00448 0.261422 0.023122
   vertex -0.004 0.259946 0.025633
  endloop
 endfacet
 facet normal 0.420269 0.815078 0.398776
  outer loop
   vertex -0.00448 0.261422 0.023122
   vertex -0.006076 0.261286 0.025082
   vertex -0.004 0.259946 0.025633
  endloop
 endfacet
 facet normal 0.138975 0.90647 0.398746
  outer loop
   vertex -0.007288 0.262334 0.023122
   vertex -0.008544 0.261422 0.025633
   vertex -0.006076 0.261286 0.025082
  endloop
 endfacet
 facet normal 0.000555151 0.98466 0.174481
  outer loop
   vertex -0.00884 0.26278 0.02061
   vertex -0.010222 0.262291 0.023374
   vertex -0.007288 0.262334 0.023122
  endloop
 endfacet
 facet normal -0.155824 0.984657 -0.07855
  outer loop
   vertex -0.010392 0.262334 0.018098
   vertex -0.01193 0.262291 0.02061
   vertex -0.00884 0.26278 0.02061
  endloop
 endfacet
 facet normal 0.0161962 0.937175 0.348485
  outer loop
   vertex -0.007288 0.262334 0.023122
   vertex -0.010222 0.262291 0.023374
   vertex -0.008544 0.261422 0.025633
  endloop
 endfacet
 facet normal -0.132412 0.888171 0.440021
  outer loop
   vertex -0.010222 0.262291 0.023374
   vertex -0.011469 0.26087 0.025867
   vertex -0.008544 0.261422 0.025633
  endloop
 endfacet
 facet normal -0.155583 0.983133 0.0961419
  outer loop
   vertex -0.00884 0.26278 0.02061
   vertex -0.01193 0.262291 0.02061
   vertex -0.010222 0.262291 0.023374
  endloop
 endfacet
 facet normal -0.303796 0.934059 0.187729
  outer loop
   vertex -0.01193 0.262291 0.02061
   vertex -0.013312 0.261286 0.023374
   vertex -0.010222 0.262291 0.023374
  endloop
 endfacet
 facet normal -0.288415 0.886769 0.361189
  outer loop
   vertex -0.010222 0.262291 0.023374
   vertex -0.013312 0.261286 0.023374
   vertex -0.011469 0.26087 0.025867
  endloop
 endfacet
 facet normal -0.415138 0.796394 0.439791
  outer loop
   vertex -0.013312 0.261286 0.023374
   vertex -0.014159 0.259597 0.025633
   vertex -0.011469 0.26087 0.025867
  endloop
 endfacet
 facet normal -0.304389 0.937197 -0.170322
  outer loop
   vertex -0.010392 0.262334 0.018098
   vertex -0.0132 0.261422 0.018098
   vertex -0.01193 0.262291 0.02061
  endloop
 endfacet
 facet normal -0.452705 0.888208 -0.0783901
  outer loop
   vertex -0.0132 0.261422 0.018098
   vertex -0.014718 0.26087 0.02061
   vertex -0.01193 0.262291 0.02061
  endloop
 endfacet
 facet normal -0.451986 0.886796 0.0964489
  outer loop
   vertex -0.01193 0.262291 0.02061
   vertex -0.014718 0.26087 0.02061
   vertex -0.013312 0.261286 0.023374
  endloop
 endfacet
 facet normal -0.578874 0.796508 0.174584
  outer loop
   vertex -0.014718 0.26087 0.02061
   vertex -0.015712 0.259597 0.023122
   vertex -0.013312 0.261286 0.023374
  endloop
 endfacet
 facet normal -0.563623 0.748876 0.348589
  outer loop
   vertex -0.013312 0.261286 0.023374
   vertex -0.015712 0.259597 0.023122
   vertex -0.014159 0.259597 0.025633
  endloop
 endfacet
 facet normal -0.645038 0.651744 0.398942
  outer loop
   vertex -0.015712 0.259597 0.023122
   vertex -0.016076 0.258037 0.025082
   vertex -0.014159 0.259597 0.025633
  endloop
 endfacet
 facet normal -0.819189 0.412026 0.398954
  outer loop
   vertex -0.017447 0.257209 0.023122
   vertex -0.016967 0.255732 0.025633
   vertex -0.016076 0.258037 0.025082
  endloop
 endfacet
 facet normal -0.936352 0.304548 0.174631
  outer loop
   vertex -0.018351 0.25587 0.02061
   vertex -0.018312 0.254405 0.023374
   vertex -0.017447 0.257209 0.023122
  endloop
 endfacet
 facet normal -0.984653 0.155824 -0.0785916
  outer loop
   vertex -0.018406 0.254256 0.018099
   vertex -0.01884 0.25278 0.02061
   vertex -0.018351 0.25587 0.02061
  endloop
 endfacet
 facet normal -0.886309 0.304753 0.348685
  outer loop
   vertex -0.017447 0.257209 0.023122
   vertex -0.018312 0.254405 0.023374
   vertex -0.016967 0.255732 0.025633
  endloop
 endfacet
 facet normal -0.885615 0.148581 0.440011
  outer loop
   vertex -0.018312 0.254405 0.023374
   vertex -0.017346 0.25278 0.025867
   vertex -0.016967 0.255732 0.025633
  endloop
 endfacet
 facet normal -0.983115 0.15558 0.0963335
  outer loop
   vertex -0.018351 0.25587 0.02061
   vertex -0.01884 0.25278 0.02061
   vertex -0.018312 0.254405 0.023374
  endloop
 endfacet
 facet normal -0.982239 0 0.187634
  outer loop
   vertex -0.01884 0.25278 0.02061
   vertex -0.018312 0.251155 0.023374
   vertex -0.018312 0.254405 0.023374
  endloop
 endfacet
 facet normal -0.932446 0 0.361309
  outer loop
   vertex -0.018312 0.254405 0.023374
   vertex -0.018312 0.251155 0.023374
   vertex -0.017346 0.25278 0.025867
  endloop
 endfacet
 facet normal -0.885615 -0.148581 0.440011
  outer loop
   vertex -0.018312 0.251155 0.023374
   vertex -0.016967 0.249828 0.025633
   vertex -0.017346 0.25278 0.025867
  endloop
 endfacet
 facet normal -0.98539 -0 -0.170314
  outer loop
   vertex -0.018406 0.254256 0.018099
   vertex -0.018406 0.251304 0.018099
   vertex -0.01884 0.25278 0.02061
  endloop
 endfacet
 facet normal -0.984653 -0.155824 -0.0785916
  outer loop
   vertex -0.018406 0.251304 0.018099
   vertex -0.018351 0.24969 0.02061
   vertex -0.01884 0.25278 0.02061
  endloop
 endfacet
 facet normal -0.983115 -0.15558 0.0963335
  outer loop
   vertex -0.01884 0.25278 0.02061
   vertex -0.018351 0.24969 0.02061
   vertex -0.018312 0.251155 0.023374
  endloop
 endfacet
 facet normal -0.936352 -0.304548 0.174631
  outer loop
   vertex -0.018351 0.24969 0.02061
   vertex -0.017447 0.248351 0.023122
   vertex -0.018312 0.251155 0.023374
  endloop
 endfacet
 facet normal -0.886309 -0.304753 0.348685
  outer loop
   vertex -0.018312 0.251155 0.023374
   vertex -0.017447 0.248351 0.023122
   vertex -0.016967 0.249828 0.025633
  endloop
 endfacet
 facet normal -0.819189 -0.412026 0.398954
  outer loop
   vertex -0.017447 0.248351 0.023122
   vertex -0.016076 0.247523 0.025082
   vertex -0.016967 0.249828 0.025633
  endloop
 endfacet
 facet normal -0.645038 -0.651744 0.398942
  outer loop
   vertex -0.015712 0.245963 0.023122
   vertex -0.014159 0.245963 0.025633
   vertex -0.016076 0.247523 0.025082
  endloop
 endfacet
 facet normal -0.578874 -0.796508 0.174584
  outer loop
   vertex -0.014718 0.24469 0.02061
   vertex -0.013312 0.244274 0.023374
   vertex -0.015712 0.245963 0.023122
  endloop
 endfacet
 facet normal -0.452705 -0.888208 -0.0783901
  outer loop
   vertex -0.0132 0.244138 0.018098
   vertex -0.01193 0.243269 0.02061
   vertex -0.014718 0.24469 0.02061
  endloop
 endfacet
 facet normal -0.563623 -0.748876 0.348589
  outer loop
   vertex -0.015712 0.245963 0.023122
   vertex -0.013312 0.244274 0.023374
   vertex -0.014159 0.245963 0.025633
  endloop
 endfacet
 facet normal -0.415138 -0.796394 0.439791
  outer loop
   vertex -0.013312 0.244274 0.023374
   vertex -0.011469 0.24469 0.025867
   vertex -0.014159 0.245963 0.025633
  endloop
 endfacet
 facet normal -0.451986 -0.886796 0.0964489
  outer loop
   vertex -0.014718 0.24469 0.02061
   vertex -0.01193 0.243269 0.02061
   vertex -0.013312 0.244274 0.023374
  endloop
 endfacet
 facet normal -0.303796 -0.934059 0.187729
  outer loop
   vertex -0.01193 0.243269 0.02061
   vertex -0.010222 0.243269 0.023374
   vertex -0.013312 0.244274 0.023374
  endloop
 endfacet
 facet normal -0.288415 -0.886769 0.361189
  outer loop
   vertex -0.013312 0.244274 0.023374
   vertex -0.010222 0.243269 0.023374
   vertex -0.011469 0.24469 0.025867
  endloop
 endfacet
 facet normal -0.132412 -0.888171 0.440021
  outer loop
   vertex -0.010222 0.243269 0.023374
   vertex -0.008544 0.244138 0.025633
   vertex -0.011469 0.24469 0.025867
  endloop
 endfacet
 facet normal -0.304389 -0.937197 -0.170322
  outer loop
   vertex -0.0132 0.244138 0.018098
   vertex -0.010392 0.243226 0.018098
   vertex -0.01193 0.243269 0.02061
  endloop
 endfacet
 facet normal -0.155824 -0.984657 -0.07855
  outer loop
   vertex -0.010392 0.243226 0.018098
   vertex -0.00884 0.24278 0.02061
   vertex -0.01193 0.243269 0.02061
  endloop
 endfacet
 facet normal -0.155583 -0.983133 0.0961419
  outer loop
   vertex -0.01193 0.243269 0.02061
   vertex -0.00884 0.24278 0.02061
   vertex -0.010222 0.243269 0.023374
  endloop
 endfacet
 facet normal 0.000555151 -0.98466 0.174481
  outer loop
   vertex -0.00884 0.24278 0.02061
   vertex -0.007288 0.243226 0.023122
   vertex -0.010222 0.243269 0.023374
  endloop
 endfacet
 facet normal 0.0161962 -0.937175 0.348485
  outer loop
   vertex -0.010222 0.243269 0.023374
   vertex -0.007288 0.243226 0.023122
   vertex -0.008544 0.244138 0.025633
  endloop
 endfacet
 facet normal 0.138975 -0.90647 0.398746
  outer loop
   vertex -0.007288 0.243226 0.023122
   vertex -0.006076 0.244274 0.025082
   vertex -0.008544 0.244138 0.025633
  endloop
 endfacet
 facet normal 0.420269 -0.815078 0.398776
  outer loop
   vertex -0.00448 0.244138 0.023122
   vertex -0.004 0.245614 0.025633
   vertex -0.006076 0.244274 0.025082
  endloop
 endfacet
 facet normal 0.578519 -0.796783 0.174509
  outer loop
   vertex -0.002962 0.24469 0.02061
   vertex -0.002132 0.245898 0.023374
   vertex -0.00448 0.244138 0.023122
  endloop
 endfacet
 facet normal 0.704936 -0.704936 -0.0782949
  outer loop
   vertex -0.001968 0.245963 0.018098
   vertex -0.00075 0.246902 0.02061
   vertex -0.002962 0.24469 0.02061
  endloop
 endfacet
 facet normal 0.537986 -0.767602 0.348366
  outer loop
   vertex -0.00448 0.244138 0.023122
   vertex -0.002132 0.245898 0.023374
   vertex -0.004 0.245614 0.025633
  endloop
 endfacet
 facet normal 0.629279 -0.640767 0.439803
  outer loop
   vertex -0.002132 0.245898 0.023374
   vertex -0.001958 0.24778 0.025867
   vertex -0.004 0.245614 0.025633
  endloop
 endfacet
 facet normal 0.703824 -0.703824 0.0962537
  outer loop
   vertex -0.002962 0.24469 0.02061
   vertex -0.00075 0.246902 0.02061
   vertex -0.002132 0.245898 0.023374
  endloop
 endfacet
 facet normal 0.794662 -0.577331 0.18762
  outer loop
   vertex -0.00075 0.246902 0.02061
   vertex -0.000222 0.248527 0.023374
   vertex -0.002132 0.245898 0.023374
  endloop
 endfacet
 facet normal 0.754436 -0.548107 0.361117
  outer loop
   vertex -0.002132 0.245898 0.023374
   vertex -0.000222 0.248527 0.023374
   vertex -0.001958 0.24778 0.025867
  endloop
 endfacet
 facet normal 0.803858 -0.400541 0.439749
  outer loop
   vertex -0.000222 0.248527 0.023374
   vertex -0.000529 0.250391 0.025633
   vertex -0.001958 0.24778 0.025867
  endloop
 endfacet
 facet normal 0.797233 -0.579229 -0.170037
  outer loop
   vertex -0.001968 0.245963 0.018098
   vertex -0.000233 0.248351 0.018098
   vertex -0.00075 0.246902 0.02061
  endloop
 endfacet
 facet normal 0.888212 -0.452708 -0.078331
  outer loop
   vertex -0.000233 0.248351 0.018098
   vertex 0.000671 0.24969 0.02061
   vertex -0.00075 0.246902 0.02061
  endloop
 endfacet
 facet normal 0.886806 -0.451991 0.0963284
  outer loop
   vertex -0.00075 0.246902 0.02061
   vertex 0.000671 0.24969 0.02061
   vertex -0.000222 0.248527 0.023374
  endloop
 endfacet
 facet normal 0.93657 -0.303801 0.17476
  outer loop
   vertex 0.000671 0.24969 0.02061
   vertex 0.000726 0.251304 0.023121
   vertex -0.000222 0.248527 0.023374
  endloop
 endfacet
 facet normal 0.89641 -0.274294 0.348155
  outer loop
   vertex -0.000222 0.248527 0.023374
   vertex 0.000726 0.251304 0.023121
   vertex -0.000529 0.250391 0.025633
  endloop
 endfacet
 facet normal 0.905177 -0.147939 0.398459
  outer loop
   vertex 0.000726 0.251304 0.023121
   vertex 0.000104 0.25278 0.025082
   vertex -0.000529 0.250391 0.025633
  endloop
 endfacet
 facet normal 0.294416 0.906493 0.302638
  outer loop
   vertex -0.00448 0.261422 0.023122
   vertex -0.007288 0.262334 0.023122
   vertex -0.006076 0.261286 0.025082
  endloop
 endfacet
 facet normal 0.452705 0.888208 0.0783901
  outer loop
   vertex -0.002962 0.26087 0.02061
   vertex -0.00575 0.262291 0.02061
   vertex -0.00448 0.261422 0.023122
  endloop
 endfacet
 facet normal 0.578874 0.796508 -0.174584
  outer loop
   vertex -0.001968 0.259597 0.018098
   vertex -0.004368 0.261286 0.017846
   vertex -0.002962 0.26087 0.02061
  endloop
 endfacet
 facet normal 0.304389 0.937197 0.170322
  outer loop
   vertex -0.00448 0.261422 0.023122
   vertex -0.00575 0.262291 0.02061
   vertex -0.007288 0.262334 0.023122
  endloop
 endfacet
 facet normal 0.155824 0.984657 0.07855
  outer loop
   vertex -0.00575 0.262291 0.02061
   vertex -0.00884 0.26278 0.02061
   vertex -0.007288 0.262334 0.023122
  endloop
 endfacet
 facet normal 0.451986 0.886796 -0.0964489
  outer loop
   vertex -0.002962 0.26087 0.02061
   vertex -0.004368 0.261286 0.017846
   vertex -0.00575 0.262291 0.02061
  endloop
 endfacet
 facet normal 0.303796 0.934059 -0.187729
  outer loop
   vertex -0.004368 0.261286 0.017846
   vertex -0.007458 0.262291 0.017846
   vertex -0.00575 0.262291 0.02061
  endloop
 endfacet
 facet normal 0.155583 0.983133 -0.0961419
  outer loop
   vertex -0.00575 0.262291 0.02061
   vertex -0.007458 0.262291 0.017846
   vertex -0.00884 0.26278 0.02061
  endloop
 endfacet
 facet normal -0.000555151 0.98466 -0.174481
  outer loop
   vertex -0.007458 0.262291 0.017846
   vertex -0.010392 0.262334 0.018098
   vertex -0.00884 0.26278 0.02061
  endloop
 endfacet
 facet normal 0.563623 0.748876 -0.348589
  outer loop
   vertex -0.001968 0.259597 0.018098
   vertex -0.003521 0.259597 0.015587
   vertex -0.004368 0.261286 0.017846
  endloop
 endfacet
 facet normal 0.415138 0.796394 -0.439791
  outer loop
   vertex -0.003521 0.259597 0.015587
   vertex -0.006211 0.26087 0.015353
   vertex -0.004368 0.261286 0.017846
  endloop
 endfacet
 facet normal 0.288415 0.886769 -0.361189
  outer loop
   vertex -0.004368 0.261286 0.017846
   vertex -0.006211 0.26087 0.015353
   vertex -0.007458 0.262291 0.017846
  endloop
 endfacet
 facet normal 0.132412 0.888171 -0.440021
  outer loop
   vertex -0.006211 0.26087 0.015353
   vertex -0.009136 0.261422 0.015587
   vertex -0.007458 0.262291 0.017846
  endloop
 endfacet
 facet normal -0.0161962 0.937175 -0.348485
  outer loop
   vertex -0.007458 0.262291 0.017846
   vertex -0.009136 0.261422 0.015587
   vertex -0.010392 0.262334 0.018098
  endloop
 endfacet
 facet normal -0.138975 0.90647 -0.398746
  outer loop
   vertex -0.009136 0.261422 0.015587
   vertex -0.011604 0.261286 0.016138
   vertex -0.010392 0.262334 0.018098
  endloop
 endfacet
 facet normal -0.771063 0.560215 0.302688
  outer loop
   vertex -0.015712 0.259597 0.023122
   vertex -0.017447 0.257209 0.023122
   vertex -0.016076 0.258037 0.025082
  endloop
 endfacet
 facet normal -0.704936 0.704936 0.0782949
  outer loop
   vertex -0.014718 0.26087 0.02061
   vertex -0.01693 0.258658 0.02061
   vertex -0.015712 0.259597 0.023122
  endloop
 endfacet
 facet normal -0.578519 0.796783 -0.174509
  outer loop
   vertex -0.0132 0.261422 0.018098
   vertex -0.015548 0.259662 0.017846
   vertex -0.014718 0.26087 0.02061
  endloop
 endfacet
 facet normal -0.797233 0.579229 0.170037
  outer loop
   vertex -0.015712 0.259597 0.023122
   vertex -0.01693 0.258658 0.02061
   vertex -0.017447 0.257209 0.023122
  endloop
 endfacet
 facet normal -0.888212 0.452708 0.078331
  outer loop
   vertex -0.01693 0.258658 0.02061
   vertex -0.018351 0.25587 0.02061
   vertex -0.017447 0.257209 0.023122
  endloop
 endfacet
 facet normal -0.703824 0.703824 -0.0962537
  outer loop
   vertex -0.014718 0.26087 0.02061
   vertex -0.015548 0.259662 0.017846
   vertex -0.01693 0.258658 0.02061
  endloop
 endfacet
 facet normal -0.794662 0.577331 -0.18762
  outer loop
   vertex -0.015548 0.259662 0.017846
   vertex -0.017458 0.257033 0.017846
   vertex -0.01693 0.258658 0.02061
  endloop
 endfacet
 facet normal -0.886806 0.451991 -0.0963284
  outer loop
   vertex -0.01693 0.258658 0.02061
   vertex -0.017458 0.257033 0.017846
   vertex -0.018351 0.25587 0.02061
  endloop
 endfacet
 facet normal -0.93657 0.303801 -0.17476
  outer loop
   vertex -0.017458 0.257033 0.017846
   vertex -0.018406 0.254256 0.018099
   vertex -0.018351 0.25587 0.02061
  endloop
 endfacet
 facet normal -0.537986 0.767602 -0.348366
  outer loop
   vertex -0.0132 0.261422 0.018098
   vertex -0.01368 0.259946 0.015587
   vertex -0.015548 0.259662 0.017846
  endloop
 endfacet
 facet normal -0.629279 0.640767 -0.439803
  outer loop
   vertex -0.01368 0.259946 0.015587
   vertex -0.015722 0.25778 0.015353
   vertex -0.015548 0.259662 0.017846
  endloop
 endfacet
 facet normal -0.754436 0.548107 -0.361117
  outer loop
   vertex -0.015548 0.259662 0.017846
   vertex -0.015722 0.25778 0.015353
   vertex -0.017458 0.257033 0.017846
  endloop
 endfacet
 facet normal -0.803858 0.400541 -0.439749
  outer loop
   vertex -0.015722 0.25778 0.015353
   vertex -0.017151 0.255169 0.015587
   vertex -0.017458 0.257033 0.017846
  endloop
 endfacet
 facet normal -0.89641 0.274294 -0.348155
  outer loop
   vertex -0.017458 0.257033 0.017846
   vertex -0.017151 0.255169 0.015587
   vertex -0.018406 0.254256 0.018099
  endloop
 endfacet
 facet normal -0.905177 0.147939 -0.398459
  outer loop
   vertex -0.017151 0.255169 0.015587
   vertex -0.017784 0.25278 0.016138
   vertex -0.018406 0.254256 0.018099
  endloop
 endfacet
 facet normal -0.771063 -0.560215 0.302688
  outer loop
   vertex -0.017447 0.248351 0.023122
   vertex -0.015712 0.245963 0.023122
   vertex -0.016076 0.247523 0.025082
  endloop
 endfacet
 facet normal -0.888212 -0.452708 0.078331
  outer loop
   vertex -0.018351 0.24969 0.02061
   vertex -0.01693 0.246902 0.02061
   vertex -0.017447 0.248351 0.023122
  endloop
 endfacet
 facet normal -0.93657 -0.303801 -0.17476
  outer loop
   vertex -0.018406 0.251304 0.018099
   vertex -0.017458 0.248527 0.017846
   vertex -0.018351 0.24969 0.02061
  endloop
 endfacet
 facet normal -0.797233 -0.579229 0.170037
  outer loop
   vertex -0.017447 0.248351 0.023122
   vertex -0.01693 0.246902 0.02061
   vertex -0.015712 0.245963 0.023122
  endloop
 endfacet
 facet normal -0.704936 -0.704936 0.0782949
  outer loop
   vertex -0.01693 0.246902 0.02061
   vertex -0.014718 0.24469 0.02061
   vertex -0.015712 0.245963 0.023122
  endloop
 endfacet
 facet normal -0.886806 -0.451991 -0.0963284
  outer loop
   vertex -0.018351 0.24969 0.02061
   vertex -0.017458 0.248527 0.017846
   vertex -0.01693 0.246902 0.02061
  endloop
 endfacet
 facet normal -0.794662 -0.577331 -0.18762
  outer loop
   vertex -0.017458 0.248527 0.017846
   vertex -0.015548 0.245898 0.017846
   vertex -0.01693 0.246902 0.02061
  endloop
 endfacet
 facet normal -0.703824 -0.703824 -0.0962537
  outer loop
   vertex -0.01693 0.246902 0.02061
   vertex -0.015548 0.245898 0.017846
   vertex -0.014718 0.24469 0.02061
  endloop
 endfacet
 facet normal -0.578519 -0.796783 -0.174509
  outer loop
   vertex -0.015548 0.245898 0.017846
   vertex -0.0132 0.244138 0.018098
   vertex -0.014718 0.24469 0.02061
  endloop
 endfacet
 facet normal -0.89641 -0.274294 -0.348155
  outer loop
   vertex -0.018406 0.251304 0.018099
   vertex -0.017151 0.250391 0.015587
   vertex -0.017458 0.248527 0.017846
  endloop
 endfacet
 facet normal -0.803858 -0.400541 -0.439749
  outer loop
   vertex -0.017151 0.250391 0.015587
   vertex -0.015722 0.24778 0.015353
   vertex -0.017458 0.248527 0.017846
  endloop
 endfacet
 facet normal -0.754436 -0.548107 -0.361117
  outer loop
   vertex -0.017458 0.248527 0.017846
   vertex -0.015722 0.24778 0.015353
   vertex -0.015548 0.245898 0.017846
  endloop
 endfacet
 facet normal -0.629279 -0.640767 -0.439803
  outer loop
   vertex -0.015722 0.24778 0.015353
   vertex -0.01368 0.245614 0.015587
   vertex -0.015548 0.245898 0.017846
  endloop
 endfacet
 facet normal -0.537986 -0.767602 -0.348366
  outer loop
   vertex -0.015548 0.245898 0.017846
   vertex -0.01368 0.245614 0.015587
   vertex -0.0132 0.244138 0.018098
  endloop
 endfacet
 facet normal -0.420269 -0.815078 -0.398776
  outer loop
   vertex -0.01368 0.245614 0.015587
   vertex -0.011604 0.244274 0.016138
   vertex -0.0132 0.244138 0.018098
  endloop
 endfacet
 facet normal 0.294416 -0.906493 0.302638
  outer loop
   vertex -0.007288 0.243226 0.023122
   vertex -0.00448 0.244138 0.023122
   vertex -0.006076 0.244274 0.025082
  endloop
 endfacet
 facet normal 0.155824 -0.984657 0.07855
  outer loop
   vertex -0.00884 0.24278 0.02061
   vertex -0.00575 0.243269 0.02061
   vertex -0.007288 0.243226 0.023122
  endloop
 endfacet
 facet normal -0.000555151 -0.98466 -0.174481
  outer loop
   vertex -0.010392 0.243226 0.018098
   vertex -0.007458 0.243269 0.017846
   vertex -0.00884 0.24278 0.02061
  endloop
 endfacet
 facet normal 0.304389 -0.937197 0.170322
  outer loop
   vertex -0.007288 0.243226 0.023122
   vertex -0.00575 0.243269 0.02061
   vertex -0.00448 0.244138 0.023122
  endloop
 endfacet
 facet normal 0.452705 -0.888208 0.0783901
  outer loop
   vertex -0.00575 0.243269 0.02061
   vertex -0.002962 0.24469 0.02061
   vertex -0.00448 0.244138 0.023122
  endloop
 endfacet
 facet normal 0.155583 -0.983133 -0.0961419
  outer loop
   vertex -0.00884 0.24278 0.02061
   vertex -0.007458 0.243269 0.017846
   vertex -0.00575 0.243269 0.02061
  endloop
 endfacet
 facet normal 0.303796 -0.934059 -0.187729
  outer loop
   vertex -0.007458 0.243269 0.017846
   vertex -0.004368 0.244274 0.017846
   vertex -0.00575 0.243269 0.02061
  endloop
 endfacet
 facet normal 0.451986 -0.886796 -0.0964489
  outer loop
   vertex -0.00575 0.243269 0.02061
   vertex -0.004368 0.244274 0.017846
   vertex -0.002962 0.24469 0.02061
  endloop
 endfacet
 facet normal 0.578874 -0.796508 -0.174584
  outer loop
   vertex -0.004368 0.244274 0.017846
   vertex -0.001968 0.245963 0.018098
   vertex -0.002962 0.24469 0.02061
  endloop
 endfacet
 facet normal -0.0161962 -0.937175 -0.348485
  outer loop
   vertex -0.010392 0.243226 0.018098
   vertex -0.009136 0.244138 0.015587
   vertex -0.007458 0.243269 0.017846
  endloop
 endfacet
 facet normal 0.132412 -0.888171 -0.440021
  outer loop
   vertex -0.009136 0.244138 0.015587
   vertex -0.006211 0.24469 0.015353
   vertex -0.007458 0.243269 0.017846
  endloop
 endfacet
 facet normal 0.288415 -0.886769 -0.361189
  outer loop
   vertex -0.007458 0.243269 0.017846
   vertex -0.006211 0.24469 0.015353
   vertex -0.004368 0.244274 0.017846
  endloop
 endfacet
 facet normal 0.415138 -0.796394 -0.439791
  outer loop
   vertex -0.006211 0.24469 0.015353
   vertex -0.003521 0.245963 0.015587
   vertex -0.004368 0.244274 0.017846
  endloop
 endfacet
 facet normal 0.563623 -0.748876 -0.348589
  outer loop
   vertex -0.004368 0.244274 0.017846
   vertex -0.003521 0.245963 0.015587
   vertex -0.001968 0.245963 0.018098
  endloop
 endfacet
 facet normal 0.645038 -0.651744 -0.398942
  outer loop
   vertex -0.003521 0.245963 0.015587
   vertex -0.001604 0.247523 0.016138
   vertex -0.001968 0.245963 0.018098
  endloop
 endfacet
 facet normal 0.9532 -0 0.302341
  outer loop
   vertex 0.000726 0.251304 0.023121
   vertex 0.000726 0.254256 0.023121
   vertex 0.000104 0.25278 0.025082
  endloop
 endfacet
 facet normal 0.984653 -0.155824 0.0785916
  outer loop
   vertex 0.000671 0.24969 0.02061
   vertex 0.00116 0.25278 0.02061
   vertex 0.000726 0.251304 0.023121
  endloop
 endfacet
 facet normal 0.936352 -0.304548 -0.174631
  outer loop
   vertex -0.000233 0.248351 0.018098
   vertex 0.000632 0.251155 0.017846
   vertex 0.000671 0.24969 0.02061
  endloop
 endfacet
 facet normal 0.98539 -0 0.170314
  outer loop
   vertex 0.000726 0.251304 0.023121
   vertex 0.00116 0.25278 0.02061
   vertex 0.000726 0.254256 0.023121
  endloop
 endfacet
 facet normal 0.984653 0.155824 0.0785916
  outer loop
   vertex 0.00116 0.25278 0.02061
   vertex 0.000671 0.25587 0.02061
   vertex 0.000726 0.254256 0.023121
  endloop
 endfacet
 facet normal 0.983115 -0.15558 -0.0963335
  outer loop
   vertex 0.000671 0.24969 0.02061
   vertex 0.000632 0.251155 0.017846
   vertex 0.00116 0.25278 0.02061
  endloop
 endfacet
 facet normal 0.982239 0 -0.187634
  outer loop
   vertex 0.000632 0.251155 0.017846
   vertex 0.000632 0.254405 0.017846
   vertex 0.00116 0.25278 0.02061
  endloop
 endfacet
 facet normal 0.983115 0.15558 -0.0963335
  outer loop
   vertex 0.00116 0.25278 0.02061
   vertex 0.000632 0.254405 0.017846
   vertex 0.000671 0.25587 0.02061
  endloop
 endfacet
 facet normal 0.936352 0.304548 -0.174631
  outer loop
   vertex 0.000632 0.254405 0.017846
   vertex -0.000233 0.257209 0.018098
   vertex 0.000671 0.25587 0.02061
  endloop
 endfacet
 facet normal 0.886309 -0.304753 -0.348685
  outer loop
   vertex -0.000233 0.248351 0.018098
   vertex -0.000713 0.249828 0.015587
   vertex 0.000632 0.251155 0.017846
  endloop
 endfacet
 facet normal 0.885615 -0.148581 -0.440011
  outer loop
   vertex -0.000713 0.249828 0.015587
   vertex -0.000334 0.25278 0.015353
   vertex 0.000632 0.251155 0.017846
  endloop
 endfacet
 facet normal 0.932446 0 -0.361309
  outer loop
   vertex 0.000632 0.251155 0.017846
   vertex -0.000334 0.25278 0.015353
   vertex 0.000632 0.254405 0.017846
  endloop
 endfacet
 facet normal 0.885615 0.148581 -0.440011
  outer loop
   vertex -0.000334 0.25278 0.015353
   vertex -0.000713 0.255732 0.015587
   vertex 0.000632 0.254405 0.017846
  endloop
 endfacet
 facet normal 0.886309 0.304753 -0.348685
  outer loop
   vertex 0.000632 0.254405 0.017846
   vertex -0.000713 0.255732 0.015587
   vertex -0.000233 0.257209 0.018098
  endloop
 endfacet
 facet normal 0.819189 0.412026 -0.398954
  outer loop
   vertex -0.000713 0.255732 0.015587
   vertex -0.001604 0.258037 0.016138
   vertex -0.000233 0.257209 0.018098
  endloop
 endfacet
 facet normal 0.61533 0.560308 -0.554459
  outer loop
   vertex -0.002745 0.257209 0.014035
   vertex -0.003521 0.259597 0.015587
   vertex -0.001604 0.258037 0.016138
  endloop
 endfacet
 facet normal 0.467426 0.452641 -0.759361
  outer loop
   vertex -0.004587 0.25587 0.012103
   vertex -0.005222 0.258658 0.013374
   vertex -0.002745 0.257209 0.014035
  endloop
 endfacet
 facet normal 0.262485 0.303841 -0.915851
  outer loop
   vertex -0.006808 0.254256 0.010931
   vertex -0.007458 0.257033 0.011666
   vertex -0.004587 0.25587 0.012103
  endloop
 endfacet
 facet normal 0.508799 0.579247 -0.636864
  outer loop
   vertex -0.002745 0.257209 0.014035
   vertex -0.005222 0.258658 0.013374
   vertex -0.003521 0.259597 0.015587
  endloop
 endfacet
 facet normal 0.38541 0.704977 -0.595371
  outer loop
   vertex -0.005222 0.258658 0.013374
   vertex -0.006211 0.26087 0.015353
   vertex -0.003521 0.259597 0.015587
  endloop
 endfacet
 facet normal 0.310374 0.451949 -0.836307
  outer loop
   vertex -0.004587 0.25587 0.012103
   vertex -0.007458 0.257033 0.011666
   vertex -0.005222 0.258658 0.013374
  endloop
 endfacet
 facet normal 0.187559 0.577248 -0.794737
  outer loop
   vertex -0.007458 0.257033 0.011666
   vertex -0.008312 0.259662 0.013374
   vertex -0.005222 0.258658 0.013374
  endloop
 endfacet
 facet normal 0.228709 0.703897 -0.672474
  outer loop
   vertex -0.005222 0.258658 0.013374
   vertex -0.008312 0.259662 0.013374
   vertex -0.006211 0.26087 0.015353
  endloop
 endfacet
 facet normal 0.102735 0.796801 -0.595444
  outer loop
   vertex -0.008312 0.259662 0.013374
   vertex -0.009136 0.261422 0.015587
   vertex -0.006211 0.26087 0.015353
  endloop
 endfacet
 facet normal 0.0891868 0.274301 -0.957499
  outer loop
   vertex -0.006808 0.254256 0.010931
   vertex -0.009616 0.255169 0.010931
   vertex -0.007458 0.257033 0.011666
  endloop
 endfacet
 facet normal -0.0336945 0.400135 -0.915836
  outer loop
   vertex -0.009616 0.255169 0.010931
   vertex -0.010465 0.25778 0.012103
   vertex -0.007458 0.257033 0.011666
  endloop
 endfacet
 facet normal 0.0146149 0.548074 -0.836302
  outer loop
   vertex -0.007458 0.257033 0.011666
   vertex -0.010465 0.25778 0.012103
   vertex -0.008312 0.259662 0.013374
  endloop
 endfacet
 facet normal -0.112009 0.640965 -0.759354
  outer loop
   vertex -0.010465 0.25778 0.012103
   vertex -0.011168 0.259946 0.014035
   vertex -0.008312 0.259662 0.013374
  endloop
 endfacet
 facet normal -0.0710868 0.767617 -0.636955
  outer loop
   vertex -0.008312 0.259662 0.013374
   vertex -0.011168 0.259946 0.014035
   vertex -0.009136 0.261422 0.015587
  endloop
 endfacet
 facet normal -0.168666 0.815046 -0.554303
  outer loop
   vertex -0.011168 0.259946 0.014035
   vertex -0.011604 0.261286 0.016138
   vertex -0.009136 0.261422 0.015587
  endloop
 endfacet
 facet normal -0.342493 0.758552 -0.554344
  outer loop
   vertex -0.011168 0.259946 0.014035
   vertex -0.01368 0.259946 0.015587
   vertex -0.011604 0.261286 0.016138
  endloop
 endfacet
 facet normal -0.286233 0.584386 -0.759318
  outer loop
   vertex -0.010465 0.25778 0.012103
   vertex -0.013312 0.258037 0.013374
   vertex -0.011168 0.259946 0.014035
  endloop
 endfacet
 facet normal -0.207851 0.343516 -0.915858
  outer loop
   vertex -0.009616 0.255169 0.010931
   vertex -0.012458 0.255409 0.011666
   vertex -0.010465 0.25778 0.012103
  endloop
 endfacet
 facet normal -0.393627 0.662685 -0.637108
  outer loop
   vertex -0.011168 0.259946 0.014035
   vertex -0.013312 0.258037 0.013374
   vertex -0.01368 0.259946 0.015587
  endloop
 endfacet
 facet normal -0.551379 0.584158 -0.595601
  outer loop
   vertex -0.013312 0.258037 0.013374
   vertex -0.015722 0.25778 0.015353
   vertex -0.01368 0.259946 0.015587
  endloop
 endfacet
 facet normal -0.334054 0.43492 -0.836213
  outer loop
   vertex -0.010465 0.25778 0.012103
   vertex -0.012458 0.255409 0.011666
   vertex -0.013312 0.258037 0.013374
  endloop
 endfacet
 facet normal -0.491058 0.356895 -0.794662
  outer loop
   vertex -0.012458 0.255409 0.011666
   vertex -0.015222 0.255409 0.013374
   vertex -0.013312 0.258037 0.013374
  endloop
 endfacet
 facet normal -0.598657 0.435097 -0.672533
  outer loop
   vertex -0.013312 0.258037 0.013374
   vertex -0.015222 0.255409 0.013374
   vertex -0.015722 0.25778 0.015353
  endloop
 endfacet
 facet normal -0.725985 0.343961 -0.595514
  outer loop
   vertex -0.015222 0.255409 0.013374
   vertex -0.017151 0.255169 0.015587
   vertex -0.015722 0.25778 0.015353
  endloop
 endfacet
 facet normal -0.233325 0.169451 -0.957521
  outer loop
   vertex -0.009616 0.255169 0.010931
   vertex -0.011351 0.25278 0.010931
   vertex -0.012458 0.255409 0.011666
  endloop
 endfacet
 facet normal -0.390899 0.0914587 -0.915878
  outer loop
   vertex -0.011351 0.25278 0.010931
   vertex -0.014097 0.25278 0.012103
   vertex -0.012458 0.255409 0.011666
  endloop
 endfacet
 facet normal -0.516783 0.183167 -0.836293
  outer loop
   vertex -0.012458 0.255409 0.011666
   vertex -0.014097 0.25278 0.012103
   vertex -0.015222 0.255409 0.013374
  endloop
 endfacet
 facet normal -0.644269 0.0913996 -0.759317
  outer loop
   vertex -0.014097 0.25278 0.012103
   vertex -0.016374 0.25278 0.014035
   vertex -0.015222 0.255409 0.013374
  endloop
 endfacet
 facet normal -0.751958 0.169318 -0.637095
  outer loop
   vertex -0.015222 0.255409 0.013374
   vertex -0.016374 0.25278 0.014035
   vertex -0.017151 0.255169 0.015587
  endloop
 endfacet
 facet normal -0.827124 0.091254 -0.554562
  outer loop
   vertex -0.016374 0.25278 0.014035
   vertex -0.017784 0.25278 0.016138
   vertex -0.017151 0.255169 0.015587
  endloop
 endfacet
 facet normal -0.827124 -0.091254 -0.554562
  outer loop
   vertex -0.016374 0.25278 0.014035
   vertex -0.017151 0.250391 0.015587
   vertex -0.017784 0.25278 0.016138
  endloop
 endfacet
 facet normal -0.644269 -0.0913996 -0.759317
  outer loop
   vertex -0.014097 0.25278 0.012103
   vertex -0.015222 0.250151 0.013374
   vertex -0.016374 0.25278 0.014035
  endloop
 endfacet
 facet normal -0.390899 -0.0914587 -0.915878
  outer loop
   vertex -0.011351 0.25278 0.010931
   vertex -0.012458 0.250151 0.011666
   vertex -0.014097 0.25278 0.012103
  endloop
 endfacet
 facet normal -0.751958 -0.169318 -0.637095
  outer loop
   vertex -0.016374 0.25278 0.014035
   vertex -0.015222 0.250151 0.013374
   vertex -0.017151 0.250391 0.015587
  endloop
 endfacet
 facet normal -0.725985 -0.343961 -0.595514
  outer loop
   vertex -0.015222 0.250151 0.013374
   vertex -0.015722 0.24778 0.015353
   vertex -0.017151 0.250391 0.015587
  endloop
 endfacet
 facet normal -0.516783 -0.183167 -0.836293
  outer loop
   vertex -0.014097 0.25278 0.012103
   vertex -0.012458 0.250151 0.011666
   vertex -0.015222 0.250151 0.013374
  endloop
 endfacet
 facet normal -0.491058 -0.356895 -0.794662
  outer loop
   vertex -0.012458 0.250151 0.011666
   vertex -0.013312 0.247523 0.013374
   vertex -0.015222 0.250151 0.013374
  endloop
 endfacet
 facet normal -0.598657 -0.435097 -0.672533
  outer loop
   vertex -0.015222 0.250151 0.013374
   vertex -0.013312 0.247523 0.013374
   vertex -0.015722 0.24778 0.015353
  endloop
 endfacet
 facet normal -0.551379 -0.584158 -0.595601
  outer loop
   vertex -0.013312 0.247523 0.013374
   vertex -0.01368 0.245614 0.015587
   vertex -0.015722 0.24778 0.015353
  endloop
 endfacet
 facet normal -0.233325 -0.169451 -0.957521
  outer loop
   vertex -0.011351 0.25278 0.010931
   vertex -0.009616 0.250391 0.010931
   vertex -0.012458 0.250151 0.011666
  endloop
 endfacet
 facet normal -0.207851 -0.343516 -0.915858
  outer loop
   vertex -0.009616 0.250391 0.010931
   vertex -0.010465 0.24778 0.012103
   vertex -0.012458 0.250151 0.011666
  endloop
 endfacet
 facet normal -0.334054 -0.43492 -0.836213
  outer loop
   vertex -0.012458 0.250151 0.011666
   vertex -0.010465 0.24778 0.012103
   vertex -0.013312 0.247523 0.013374
  endloop
 endfacet
 facet normal -0.286233 -0.584386 -0.759318
  outer loop
   vertex -0.010465 0.24778 0.012103
   vertex -0.011168 0.245614 0.014035
   vertex -0.013312 0.247523 0.013374
  endloop
 endfacet
 facet normal -0.393627 -0.662685 -0.637108
  outer loop
   vertex -0.013312 0.247523 0.013374
   vertex -0.011168 0.245614 0.014035
   vertex -0.01368 0.245614 0.015587
  endloop
 endfacet
 facet normal -0.342493 -0.758552 -0.554344
  outer loop
   vertex -0.011168 0.245614 0.014035
   vertex -0.011604 0.244274 0.016138
   vertex -0.01368 0.245614 0.015587
  endloop
 endfacet
 facet normal 0.723015 0.412034 -0.554506
  outer loop
   vertex -0.000713 0.255732 0.015587
   vertex -0.002745 0.257209 0.014035
   vertex -0.001604 0.258037 0.016138
  endloop
 endfacet
 facet normal 0.789589 0.148568 -0.59538
  outer loop
   vertex -0.000334 0.25278 0.015353
   vertex -0.002132 0.254405 0.013374
   vertex -0.000713 0.255732 0.015587
  endloop
 endfacet
 facet normal 0.789589 -0.148568 -0.59538
  outer loop
   vertex -0.000713 0.249828 0.015587
   vertex -0.002132 0.251155 0.013374
   vertex -0.000334 0.25278 0.015353
  endloop
 endfacet
 facet normal 0.708089 0.304936 -0.636886
  outer loop
   vertex -0.000713 0.255732 0.015587
   vertex -0.002132 0.254405 0.013374
   vertex -0.002745 0.257209 0.014035
  endloop
 endfacet
 facet normal 0.574948 0.304695 -0.759339
  outer loop
   vertex -0.002132 0.254405 0.013374
   vertex -0.004587 0.25587 0.012103
   vertex -0.002745 0.257209 0.014035
  endloop
 endfacet
 facet normal 0.740143 0 -0.672449
  outer loop
   vertex -0.000334 0.25278 0.015353
   vertex -0.002132 0.251155 0.013374
   vertex -0.002132 0.254405 0.013374
  endloop
 endfacet
 facet normal 0.607028 0 -0.794681
  outer loop
   vertex -0.002132 0.251155 0.013374
   vertex -0.004368 0.25278 0.011666
   vertex -0.002132 0.254405 0.013374
  endloop
 endfacet
 facet normal 0.525774 0.155534 -0.836284
  outer loop
   vertex -0.002132 0.254405 0.013374
   vertex -0.004368 0.25278 0.011666
   vertex -0.004587 0.25587 0.012103
  endloop
 endfacet
 facet normal 0.370096 0.155752 -0.915844
  outer loop
   vertex -0.004368 0.25278 0.011666
   vertex -0.006808 0.254256 0.010931
   vertex -0.004587 0.25587 0.012103
  endloop
 endfacet
 facet normal 0.708089 -0.304936 -0.636886
  outer loop
   vertex -0.000713 0.249828 0.015587
   vertex -0.002745 0.248351 0.014035
   vertex -0.002132 0.251155 0.013374
  endloop
 endfacet
 facet normal 0.574948 -0.304695 -0.759339
  outer loop
   vertex -0.002745 0.248351 0.014035
   vertex -0.004587 0.24969 0.012103
   vertex -0.002132 0.251155 0.013374
  endloop
 endfacet
 facet normal 0.525774 -0.155534 -0.836284
  outer loop
   vertex -0.002132 0.251155 0.013374
   vertex -0.004587 0.24969 0.012103
   vertex -0.004368 0.25278 0.011666
  endloop
 endfacet
 facet normal 0.370096 -0.155752 -0.915844
  outer loop
   vertex -0.004587 0.24969 0.012103
   vertex -0.006808 0.251304 0.010931
   vertex -0.004368 0.25278 0.011666
  endloop
 endfacet
 facet normal 0.288428 0 -0.957502
  outer loop
   vertex -0.004368 0.25278 0.011666
   vertex -0.006808 0.251304 0.010931
   vertex -0.006808 0.254256 0.010931
  endloop
 endfacet
 facet normal 0.156037 0 -0.987751
  outer loop
   vertex -0.006808 0.251304 0.010931
   vertex -0.00884 0.25278 0.01061
   vertex -0.006808 0.254256 0.010931
  endloop
 endfacet
 facet normal -0.168666 -0.815046 -0.554303
  outer loop
   vertex -0.011168 0.245614 0.014035
   vertex -0.009136 0.244138 0.015587
   vertex -0.011604 0.244274 0.016138
  endloop
 endfacet
 facet normal -0.112009 -0.640965 -0.759354
  outer loop
   vertex -0.010465 0.24778 0.012103
   vertex -0.008312 0.245898 0.013374
   vertex -0.011168 0.245614 0.014035
  endloop
 endfacet
 facet normal -0.0336945 -0.400135 -0.915836
  outer loop
   vertex -0.009616 0.250391 0.010931
   vertex -0.007458 0.248527 0.011666
   vertex -0.010465 0.24778 0.012103
  endloop
 endfacet
 facet normal -0.0710868 -0.767617 -0.636955
  outer loop
   vertex -0.011168 0.245614 0.014035
   vertex -0.008312 0.245898 0.013374
   vertex -0.009136 0.244138 0.015587
  endloop
 endfacet
 facet normal 0.102735 -0.796801 -0.595444
  outer loop
   vertex -0.008312 0.245898 0.013374
   vertex -0.006211 0.24469 0.015353
   vertex -0.009136 0.244138 0.015587
  endloop
 endfacet
 facet normal 0.0146149 -0.548074 -0.836302
  outer loop
   vertex -0.010465 0.24778 0.012103
   vertex -0.007458 0.248527 0.011666
   vertex -0.008312 0.245898 0.013374
  endloop
 endfacet
 facet normal 0.187559 -0.577248 -0.794737
  outer loop
   vertex -0.007458 0.248527 0.011666
   vertex -0.005222 0.246902 0.013374
   vertex -0.008312 0.245898 0.013374
  endloop
 endfacet
 facet normal 0.228709 -0.703897 -0.672474
  outer loop
   vertex -0.008312 0.245898 0.013374
   vertex -0.005222 0.246902 0.013374
   vertex -0.006211 0.24469 0.015353
  endloop
 endfacet
 facet normal 0.38541 -0.704977 -0.595371
  outer loop
   vertex -0.005222 0.246902 0.013374
   vertex -0.003521 0.245963 0.015587
   vertex -0.006211 0.24469 0.015353
  endloop
 endfacet
 facet normal 0.0891868 -0.274301 -0.957499
  outer loop
   vertex -0.009616 0.250391 0.010931
   vertex -0.006808 0.251304 0.010931
   vertex -0.007458 0.248527 0.011666
  endloop
 endfacet
 facet normal 0.262485 -0.303841 -0.915851
  outer loop
   vertex -0.006808 0.251304 0.010931
   vertex -0.004587 0.24969 0.012103
   vertex -0.007458 0.248527 0.011666
  endloop
 endfacet
 facet normal 0.310374 -0.451949 -0.836307
  outer loop
   vertex -0.007458 0.248527 0.011666
   vertex -0.004587 0.24969 0.012103
   vertex -0.005222 0.246902 0.013374
  endloop
 endfacet
 facet normal 0.467426 -0.452641 -0.759361
  outer loop
   vertex -0.004587 0.24969 0.012103
   vertex -0.002745 0.248351 0.014035
   vertex -0.005222 0.246902 0.013374
  endloop
 endfacet
 facet normal 0.508799 -0.579247 -0.636864
  outer loop
   vertex -0.005222 0.246902 0.013374
   vertex -0.002745 0.248351 0.014035
   vertex -0.003521 0.245963 0.015587
  endloop
 endfacet
 facet normal 0.61533 -0.560308 -0.554459
  outer loop
   vertex -0.002745 0.248351 0.014035
   vertex -0.001604 0.247523 0.016138
   vertex -0.003521 0.245963 0.015587
  endloop
 endfacet
endsolid ExportedfromBlender-3.5.1
