solid ExportedfromBlender-3.5.1
 facet normal 0.0482486 -0.148392 -0.987751
  outer loop
   vertex -0.00254 0.34914 -0.03588
   vertex -0.000508 0.347664 -0.035559
   vertex -0.003316 0.346751 -0.035559
  endloop
 endfacet
 facet normal 0.723015 -0.412034 -0.554506
  outer loop
   vertex 0.004696 0.343883 -0.030352
   vertex 0.003555 0.344711 -0.032455
   vertex 0.005587 0.346188 -0.030903
  endloop
 endfacet
 facet normal -0.126271 -0.0917039 -0.987748
  outer loop
   vertex -0.00254 0.34914 -0.03588
   vertex -0.003316 0.346751 -0.035559
   vertex -0.005051 0.34914 -0.035559
  endloop
 endfacet
 facet normal -0.126271 0.0917039 -0.987748
  outer loop
   vertex -0.00254 0.34914 -0.03588
   vertex -0.005051 0.34914 -0.035559
   vertex -0.003316 0.351529 -0.035559
  endloop
 endfacet
 facet normal 0.0482486 0.148392 -0.987751
  outer loop
   vertex -0.00254 0.34914 -0.03588
   vertex -0.003316 0.351529 -0.035559
   vertex -0.000508 0.350616 -0.035559
  endloop
 endfacet
 facet normal 0.819189 -0.412026 -0.398954
  outer loop
   vertex 0.004696 0.343883 -0.030352
   vertex 0.005587 0.346188 -0.030903
   vertex 0.006067 0.344711 -0.028392
  endloop
 endfacet
 facet normal -0.138975 -0.90647 -0.398746
  outer loop
   vertex -0.005304 0.340634 -0.030352
   vertex -0.002836 0.340498 -0.030903
   vertex -0.004092 0.339586 -0.028392
  endloop
 endfacet
 facet normal -0.905177 -0.147939 -0.398459
  outer loop
   vertex -0.011484 0.34914 -0.030352
   vertex -0.010851 0.346751 -0.030903
   vertex -0.012106 0.347664 -0.028391
  endloop
 endfacet
 facet normal -0.420269 0.815078 -0.398776
  outer loop
   vertex -0.005304 0.357646 -0.030352
   vertex -0.00738 0.356306 -0.030903
   vertex -0.0069 0.357782 -0.028392
  endloop
 endfacet
 facet normal 0.645038 0.651744 -0.398942
  outer loop
   vertex 0.004696 0.354397 -0.030352
   vertex 0.002779 0.355957 -0.030903
   vertex 0.004332 0.355957 -0.028392
  endloop
 endfacet
 facet normal 0.771063 -0.560215 -0.302688
  outer loop
   vertex 0.004696 0.343883 -0.030352
   vertex 0.006067 0.344711 -0.028392
   vertex 0.004332 0.342323 -0.028392
  endloop
 endfacet
 facet normal -0.294416 -0.906493 -0.302638
  outer loop
   vertex -0.005304 0.340634 -0.030352
   vertex -0.004092 0.339586 -0.028392
   vertex -0.0069 0.340498 -0.028392
  endloop
 endfacet
 facet normal -0.9532 0 -0.302341
  outer loop
   vertex -0.011484 0.34914 -0.030352
   vertex -0.012106 0.347664 -0.028391
   vertex -0.012106 0.350616 -0.028391
  endloop
 endfacet
 facet normal -0.294416 0.906493 -0.302638
  outer loop
   vertex -0.005304 0.357646 -0.030352
   vertex -0.0069 0.357782 -0.028392
   vertex -0.004092 0.358694 -0.028392
  endloop
 endfacet
 facet normal 0.771063 0.560215 -0.302688
  outer loop
   vertex 0.004696 0.354397 -0.030352
   vertex 0.004332 0.355957 -0.028392
   vertex 0.006067 0.353569 -0.028392
  endloop
 endfacet
 facet normal 0.342493 -0.758552 0.554344
  outer loop
   vertex 0.000224 0.340634 -0.021408
   vertex 0.0023 0.341974 -0.020857
   vertex -0.000212 0.341974 -0.019305
  endloop
 endfacet
 facet normal -0.61533 -0.560308 0.554459
  outer loop
   vertex -0.009776 0.343883 -0.021408
   vertex -0.007859 0.342323 -0.020857
   vertex -0.008635 0.344711 -0.019305
  endloop
 endfacet
 facet normal -0.723015 0.412034 0.554506
  outer loop
   vertex -0.009776 0.354397 -0.021408
   vertex -0.010667 0.352092 -0.020857
   vertex -0.008635 0.353569 -0.019305
  endloop
 endfacet
 facet normal 0.168666 0.815046 0.554303
  outer loop
   vertex 0.000224 0.357646 -0.021408
   vertex -0.002244 0.357782 -0.020857
   vertex -0.000212 0.356306 -0.019305
  endloop
 endfacet
 facet normal 0.827124 0.091254 0.554562
  outer loop
   vertex 0.006404 0.34914 -0.021408
   vertex 0.005771 0.351529 -0.020857
   vertex 0.004994 0.34914 -0.019305
  endloop
 endfacet
 facet normal 0.126271 0.0917039 0.987748
  outer loop
   vertex -2.9e-05 0.34914 -0.016201
   vertex -0.001764 0.351529 -0.016201
   vertex -0.00254 0.34914 -0.01588
  endloop
 endfacet
 facet normal 0.390899 0.0914587 0.915878
  outer loop
   vertex 0.002717 0.34914 -0.017373
   vertex 0.001078 0.351769 -0.016936
   vertex -2.9e-05 0.34914 -0.016201
  endloop
 endfacet
 facet normal 0.644269 0.0913996 0.759317
  outer loop
   vertex 0.004994 0.34914 -0.019305
   vertex 0.003842 0.351769 -0.018644
   vertex 0.002717 0.34914 -0.017373
  endloop
 endfacet
 facet normal 0.233325 0.169451 0.957521
  outer loop
   vertex -2.9e-05 0.34914 -0.016201
   vertex 0.001078 0.351769 -0.016936
   vertex -0.001764 0.351529 -0.016201
  endloop
 endfacet
 facet normal 0.207851 0.343516 0.915858
  outer loop
   vertex 0.001078 0.351769 -0.016936
   vertex -0.000915 0.35414 -0.017373
   vertex -0.001764 0.351529 -0.016201
  endloop
 endfacet
 facet normal 0.516783 0.183167 0.836293
  outer loop
   vertex 0.002717 0.34914 -0.017373
   vertex 0.003842 0.351769 -0.018644
   vertex 0.001078 0.351769 -0.016936
  endloop
 endfacet
 facet normal 0.491058 0.356895 0.794662
  outer loop
   vertex 0.003842 0.351769 -0.018644
   vertex 0.001932 0.354397 -0.018644
   vertex 0.001078 0.351769 -0.016936
  endloop
 endfacet
 facet normal 0.334054 0.43492 0.836213
  outer loop
   vertex 0.001078 0.351769 -0.016936
   vertex 0.001932 0.354397 -0.018644
   vertex -0.000915 0.35414 -0.017373
  endloop
 endfacet
 facet normal 0.286233 0.584386 0.759318
  outer loop
   vertex 0.001932 0.354397 -0.018644
   vertex -0.000212 0.356306 -0.019305
   vertex -0.000915 0.35414 -0.017373
  endloop
 endfacet
 facet normal 0.751958 0.169318 0.637095
  outer loop
   vertex 0.004994 0.34914 -0.019305
   vertex 0.005771 0.351529 -0.020857
   vertex 0.003842 0.351769 -0.018644
  endloop
 endfacet
 facet normal 0.725985 0.343961 0.595514
  outer loop
   vertex 0.005771 0.351529 -0.020857
   vertex 0.004342 0.35414 -0.020623
   vertex 0.003842 0.351769 -0.018644
  endloop
 endfacet
 facet normal 0.598657 0.435097 0.672533
  outer loop
   vertex 0.003842 0.351769 -0.018644
   vertex 0.004342 0.35414 -0.020623
   vertex 0.001932 0.354397 -0.018644
  endloop
 endfacet
 facet normal 0.551379 0.584158 0.595601
  outer loop
   vertex 0.004342 0.35414 -0.020623
   vertex 0.0023 0.356306 -0.020857
   vertex 0.001932 0.354397 -0.018644
  endloop
 endfacet
 facet normal 0.393627 0.662685 0.637108
  outer loop
   vertex 0.001932 0.354397 -0.018644
   vertex 0.0023 0.356306 -0.020857
   vertex -0.000212 0.356306 -0.019305
  endloop
 endfacet
 facet normal 0.342493 0.758552 0.554344
  outer loop
   vertex 0.0023 0.356306 -0.020857
   vertex 0.000224 0.357646 -0.021408
   vertex -0.000212 0.356306 -0.019305
  endloop
 endfacet
 facet normal -0.0482486 0.148392 0.987751
  outer loop
   vertex -0.001764 0.351529 -0.016201
   vertex -0.004572 0.350616 -0.016201
   vertex -0.00254 0.34914 -0.01588
  endloop
 endfacet
 facet normal 0.0336945 0.400135 0.915836
  outer loop
   vertex -0.000915 0.35414 -0.017373
   vertex -0.003922 0.353393 -0.016936
   vertex -0.001764 0.351529 -0.016201
  endloop
 endfacet
 facet normal 0.112009 0.640965 0.759354
  outer loop
   vertex -0.000212 0.356306 -0.019305
   vertex -0.003068 0.356022 -0.018644
   vertex -0.000915 0.35414 -0.017373
  endloop
 endfacet
 facet normal -0.0891868 0.274301 0.957499
  outer loop
   vertex -0.001764 0.351529 -0.016201
   vertex -0.003922 0.353393 -0.016936
   vertex -0.004572 0.350616 -0.016201
  endloop
 endfacet
 facet normal -0.262485 0.303841 0.915851
  outer loop
   vertex -0.003922 0.353393 -0.016936
   vertex -0.006793 0.35223 -0.017373
   vertex -0.004572 0.350616 -0.016201
  endloop
 endfacet
 facet normal -0.0146149 0.548074 0.836302
  outer loop
   vertex -0.000915 0.35414 -0.017373
   vertex -0.003068 0.356022 -0.018644
   vertex -0.003922 0.353393 -0.016936
  endloop
 endfacet
 facet normal -0.187559 0.577248 0.794737
  outer loop
   vertex -0.003068 0.356022 -0.018644
   vertex -0.006158 0.355018 -0.018644
   vertex -0.003922 0.353393 -0.016936
  endloop
 endfacet
 facet normal -0.310374 0.451949 0.836307
  outer loop
   vertex -0.003922 0.353393 -0.016936
   vertex -0.006158 0.355018 -0.018644
   vertex -0.006793 0.35223 -0.017373
  endloop
 endfacet
 facet normal -0.467426 0.452641 0.759361
  outer loop
   vertex -0.006158 0.355018 -0.018644
   vertex -0.008635 0.353569 -0.019305
   vertex -0.006793 0.35223 -0.017373
  endloop
 endfacet
 facet normal 0.0710868 0.767617 0.636955
  outer loop
   vertex -0.000212 0.356306 -0.019305
   vertex -0.002244 0.357782 -0.020857
   vertex -0.003068 0.356022 -0.018644
  endloop
 endfacet
 facet normal -0.102735 0.796801 0.595444
  outer loop
   vertex -0.002244 0.357782 -0.020857
   vertex -0.005169 0.35723 -0.020623
   vertex -0.003068 0.356022 -0.018644
  endloop
 endfacet
 facet normal -0.228709 0.703897 0.672474
  outer loop
   vertex -0.003068 0.356022 -0.018644
   vertex -0.005169 0.35723 -0.020623
   vertex -0.006158 0.355018 -0.018644
  endloop
 endfacet
 facet normal -0.38541 0.704977 0.595371
  outer loop
   vertex -0.005169 0.35723 -0.020623
   vertex -0.007859 0.355957 -0.020857
   vertex -0.006158 0.355018 -0.018644
  endloop
 endfacet
 facet normal -0.508799 0.579247 0.636864
  outer loop
   vertex -0.006158 0.355018 -0.018644
   vertex -0.007859 0.355957 -0.020857
   vertex -0.008635 0.353569 -0.019305
  endloop
 endfacet
 facet normal -0.61533 0.560308 0.554459
  outer loop
   vertex -0.007859 0.355957 -0.020857
   vertex -0.009776 0.354397 -0.021408
   vertex -0.008635 0.353569 -0.019305
  endloop
 endfacet
 facet normal -0.156037 0 0.987751
  outer loop
   vertex -0.004572 0.350616 -0.016201
   vertex -0.004572 0.347664 -0.016201
   vertex -0.00254 0.34914 -0.01588
  endloop
 endfacet
 facet normal -0.370096 0.155752 0.915844
  outer loop
   vertex -0.006793 0.35223 -0.017373
   vertex -0.007012 0.34914 -0.016936
   vertex -0.004572 0.350616 -0.016201
  endloop
 endfacet
 facet normal -0.574948 0.304695 0.759339
  outer loop
   vertex -0.008635 0.353569 -0.019305
   vertex -0.009248 0.350765 -0.018644
   vertex -0.006793 0.35223 -0.017373
  endloop
 endfacet
 facet normal -0.288428 0 0.957502
  outer loop
   vertex -0.004572 0.350616 -0.016201
   vertex -0.007012 0.34914 -0.016936
   vertex -0.004572 0.347664 -0.016201
  endloop
 endfacet
 facet normal -0.370096 -0.155752 0.915844
  outer loop
   vertex -0.007012 0.34914 -0.016936
   vertex -0.006793 0.34605 -0.017373
   vertex -0.004572 0.347664 -0.016201
  endloop
 endfacet
 facet normal -0.525774 0.155534 0.836284
  outer loop
   vertex -0.006793 0.35223 -0.017373
   vertex -0.009248 0.350765 -0.018644
   vertex -0.007012 0.34914 -0.016936
  endloop
 endfacet
 facet normal -0.607028 0 0.794681
  outer loop
   vertex -0.009248 0.350765 -0.018644
   vertex -0.009248 0.347515 -0.018644
   vertex -0.007012 0.34914 -0.016936
  endloop
 endfacet
 facet normal -0.525774 -0.155534 0.836284
  outer loop
   vertex -0.007012 0.34914 -0.016936
   vertex -0.009248 0.347515 -0.018644
   vertex -0.006793 0.34605 -0.017373
  endloop
 endfacet
 facet normal -0.574948 -0.304695 0.759339
  outer loop
   vertex -0.009248 0.347515 -0.018644
   vertex -0.008635 0.344711 -0.019305
   vertex -0.006793 0.34605 -0.017373
  endloop
 endfacet
 facet normal -0.708089 0.304936 0.636886
  outer loop
   vertex -0.008635 0.353569 -0.019305
   vertex -0.010667 0.352092 -0.020857
   vertex -0.009248 0.350765 -0.018644
  endloop
 endfacet
 facet normal -0.789589 0.148568 0.59538
  outer loop
   vertex -0.010667 0.352092 -0.020857
   vertex -0.011046 0.34914 -0.020623
   vertex -0.009248 0.350765 -0.018644
  endloop
 endfacet
 facet normal -0.740143 0 0.672449
  outer loop
   vertex -0.009248 0.350765 -0.018644
   vertex -0.011046 0.34914 -0.020623
   vertex -0.009248 0.347515 -0.018644
  endloop
 endfacet
 facet normal -0.789589 -0.148568 0.59538
  outer loop
   vertex -0.011046 0.34914 -0.020623
   vertex -0.010667 0.346188 -0.020857
   vertex -0.009248 0.347515 -0.018644
  endloop
 endfacet
 facet normal -0.708089 -0.304936 0.636886
  outer loop
   vertex -0.009248 0.347515 -0.018644
   vertex -0.010667 0.346188 -0.020857
   vertex -0.008635 0.344711 -0.019305
  endloop
 endfacet
 facet normal -0.723015 -0.412034 0.554506
  outer loop
   vertex -0.010667 0.346188 -0.020857
   vertex -0.009776 0.343883 -0.021408
   vertex -0.008635 0.344711 -0.019305
  endloop
 endfacet
 facet normal -0.0482486 -0.148392 0.987751
  outer loop
   vertex -0.004572 0.347664 -0.016201
   vertex -0.001764 0.346751 -0.016201
   vertex -0.00254 0.34914 -0.01588
  endloop
 endfacet
 facet normal -0.262485 -0.303841 0.915851
  outer loop
   vertex -0.006793 0.34605 -0.017373
   vertex -0.003922 0.344887 -0.016936
   vertex -0.004572 0.347664 -0.016201
  endloop
 endfacet
 facet normal -0.467426 -0.452641 0.759361
  outer loop
   vertex -0.008635 0.344711 -0.019305
   vertex -0.006158 0.343262 -0.018644
   vertex -0.006793 0.34605 -0.017373
  endloop
 endfacet
 facet normal -0.0891868 -0.274301 0.957499
  outer loop
   vertex -0.004572 0.347664 -0.016201
   vertex -0.003922 0.344887 -0.016936
   vertex -0.001764 0.346751 -0.016201
  endloop
 endfacet
 facet normal 0.0336945 -0.400135 0.915836
  outer loop
   vertex -0.003922 0.344887 -0.016936
   vertex -0.000915 0.34414 -0.017373
   vertex -0.001764 0.346751 -0.016201
  endloop
 endfacet
 facet normal -0.310374 -0.451949 0.836307
  outer loop
   vertex -0.006793 0.34605 -0.017373
   vertex -0.006158 0.343262 -0.018644
   vertex -0.003922 0.344887 -0.016936
  endloop
 endfacet
 facet normal -0.187559 -0.577248 0.794737
  outer loop
   vertex -0.006158 0.343262 -0.018644
   vertex -0.003068 0.342258 -0.018644
   vertex -0.003922 0.344887 -0.016936
  endloop
 endfacet
 facet normal -0.0146149 -0.548074 0.836302
  outer loop
   vertex -0.003922 0.344887 -0.016936
   vertex -0.003068 0.342258 -0.018644
   vertex -0.000915 0.34414 -0.017373
  endloop
 endfacet
 facet normal 0.112009 -0.640965 0.759354
  outer loop
   vertex -0.003068 0.342258 -0.018644
   vertex -0.000212 0.341974 -0.019305
   vertex -0.000915 0.34414 -0.017373
  endloop
 endfacet
 facet normal -0.508799 -0.579247 0.636864
  outer loop
   vertex -0.008635 0.344711 -0.019305
   vertex -0.007859 0.342323 -0.020857
   vertex -0.006158 0.343262 -0.018644
  endloop
 endfacet
 facet normal -0.38541 -0.704977 0.595371
  outer loop
   vertex -0.007859 0.342323 -0.020857
   vertex -0.005169 0.34105 -0.020623
   vertex -0.006158 0.343262 -0.018644
  endloop
 endfacet
 facet normal -0.228709 -0.703897 0.672474
  outer loop
   vertex -0.006158 0.343262 -0.018644
   vertex -0.005169 0.34105 -0.020623
   vertex -0.003068 0.342258 -0.018644
  endloop
 endfacet
 facet normal -0.102735 -0.796801 0.595444
  outer loop
   vertex -0.005169 0.34105 -0.020623
   vertex -0.002244 0.340498 -0.020857
   vertex -0.003068 0.342258 -0.018644
  endloop
 endfacet
 facet normal 0.0710868 -0.767617 0.636955
  outer loop
   vertex -0.003068 0.342258 -0.018644
   vertex -0.002244 0.340498 -0.020857
   vertex -0.000212 0.341974 -0.019305
  endloop
 endfacet
 facet normal 0.168666 -0.815046 0.554303
  outer loop
   vertex -0.002244 0.340498 -0.020857
   vertex 0.000224 0.340634 -0.021408
   vertex -0.000212 0.341974 -0.019305
  endloop
 endfacet
 facet normal 0.126271 -0.0917039 0.987748
  outer loop
   vertex -0.001764 0.346751 -0.016201
   vertex -2.9e-05 0.34914 -0.016201
   vertex -0.00254 0.34914 -0.01588
  endloop
 endfacet
 facet normal 0.207851 -0.343516 0.915858
  outer loop
   vertex -0.000915 0.34414 -0.017373
   vertex 0.001078 0.346511 -0.016936
   vertex -0.001764 0.346751 -0.016201
  endloop
 endfacet
 facet normal 0.286233 -0.584386 0.759318
  outer loop
   vertex -0.000212 0.341974 -0.019305
   vertex 0.001932 0.343883 -0.018644
   vertex -0.000915 0.34414 -0.017373
  endloop
 endfacet
 facet normal 0.233325 -0.169451 0.957521
  outer loop
   vertex -0.001764 0.346751 -0.016201
   vertex 0.001078 0.346511 -0.016936
   vertex -2.9e-05 0.34914 -0.016201
  endloop
 endfacet
 facet normal 0.390899 -0.0914587 0.915878
  outer loop
   vertex 0.001078 0.346511 -0.016936
   vertex 0.002717 0.34914 -0.017373
   vertex -2.9e-05 0.34914 -0.016201
  endloop
 endfacet
 facet normal 0.334054 -0.43492 0.836213
  outer loop
   vertex -0.000915 0.34414 -0.017373
   vertex 0.001932 0.343883 -0.018644
   vertex 0.001078 0.346511 -0.016936
  endloop
 endfacet
 facet normal 0.491058 -0.356895 0.794662
  outer loop
   vertex 0.001932 0.343883 -0.018644
   vertex 0.003842 0.346511 -0.018644
   vertex 0.001078 0.346511 -0.016936
  endloop
 endfacet
 facet normal 0.516783 -0.183167 0.836293
  outer loop
   vertex 0.001078 0.346511 -0.016936
   vertex 0.003842 0.346511 -0.018644
   vertex 0.002717 0.34914 -0.017373
  endloop
 endfacet
 facet normal 0.644269 -0.0913996 0.759317
  outer loop
   vertex 0.003842 0.346511 -0.018644
   vertex 0.004994 0.34914 -0.019305
   vertex 0.002717 0.34914 -0.017373
  endloop
 endfacet
 facet normal 0.393627 -0.662685 0.637108
  outer loop
   vertex -0.000212 0.341974 -0.019305
   vertex 0.0023 0.341974 -0.020857
   vertex 0.001932 0.343883 -0.018644
  endloop
 endfacet
 facet normal 0.551379 -0.584158 0.595601
  outer loop
   vertex 0.0023 0.341974 -0.020857
   vertex 0.004342 0.34414 -0.020623
   vertex 0.001932 0.343883 -0.018644
  endloop
 endfacet
 facet normal 0.598657 -0.435097 0.672533
  outer loop
   vertex 0.001932 0.343883 -0.018644
   vertex 0.004342 0.34414 -0.020623
   vertex 0.003842 0.346511 -0.018644
  endloop
 endfacet
 facet normal 0.725985 -0.343961 0.595514
  outer loop
   vertex 0.004342 0.34414 -0.020623
   vertex 0.005771 0.346751 -0.020857
   vertex 0.003842 0.346511 -0.018644
  endloop
 endfacet
 facet normal 0.751958 -0.169318 0.637095
  outer loop
   vertex 0.003842 0.346511 -0.018644
   vertex 0.005771 0.346751 -0.020857
   vertex 0.004994 0.34914 -0.019305
  endloop
 endfacet
 facet normal 0.827124 -0.091254 0.554562
  outer loop
   vertex 0.005771 0.346751 -0.020857
   vertex 0.006404 0.34914 -0.021408
   vertex 0.004994 0.34914 -0.019305
  endloop
 endfacet
 facet normal 0.905177 0.147939 0.398459
  outer loop
   vertex 0.007026 0.350616 -0.023369
   vertex 0.005771 0.351529 -0.020857
   vertex 0.006404 0.34914 -0.021408
  endloop
 endfacet
 facet normal 0.93657 0.303801 0.17476
  outer loop
   vertex 0.006971 0.35223 -0.02588
   vertex 0.006078 0.353393 -0.023116
   vertex 0.007026 0.350616 -0.023369
  endloop
 endfacet
 facet normal 0.888212 0.452708 -0.078331
  outer loop
   vertex 0.006067 0.353569 -0.028392
   vertex 0.00555 0.355018 -0.02588
   vertex 0.006971 0.35223 -0.02588
  endloop
 endfacet
 facet normal 0.89641 0.274294 0.348155
  outer loop
   vertex 0.007026 0.350616 -0.023369
   vertex 0.006078 0.353393 -0.023116
   vertex 0.005771 0.351529 -0.020857
  endloop
 endfacet
 facet normal 0.803858 0.400541 0.439749
  outer loop
   vertex 0.006078 0.353393 -0.023116
   vertex 0.004342 0.35414 -0.020623
   vertex 0.005771 0.351529 -0.020857
  endloop
 endfacet
 facet normal 0.886806 0.451991 0.0963284
  outer loop
   vertex 0.006971 0.35223 -0.02588
   vertex 0.00555 0.355018 -0.02588
   vertex 0.006078 0.353393 -0.023116
  endloop
 endfacet
 facet normal 0.794662 0.577331 0.18762
  outer loop
   vertex 0.00555 0.355018 -0.02588
   vertex 0.004168 0.356022 -0.023116
   vertex 0.006078 0.353393 -0.023116
  endloop
 endfacet
 facet normal 0.754436 0.548107 0.361117
  outer loop
   vertex 0.006078 0.353393 -0.023116
   vertex 0.004168 0.356022 -0.023116
   vertex 0.004342 0.35414 -0.020623
  endloop
 endfacet
 facet normal 0.629279 0.640767 0.439803
  outer loop
   vertex 0.004168 0.356022 -0.023116
   vertex 0.0023 0.356306 -0.020857
   vertex 0.004342 0.35414 -0.020623
  endloop
 endfacet
 facet normal 0.797233 0.579229 -0.170037
  outer loop
   vertex 0.006067 0.353569 -0.028392
   vertex 0.004332 0.355957 -0.028392
   vertex 0.00555 0.355018 -0.02588
  endloop
 endfacet
 facet normal 0.704936 0.704936 -0.0782949
  outer loop
   vertex 0.004332 0.355957 -0.028392
   vertex 0.003338 0.35723 -0.02588
   vertex 0.00555 0.355018 -0.02588
  endloop
 endfacet
 facet normal 0.703824 0.703824 0.0962537
  outer loop
   vertex 0.00555 0.355018 -0.02588
   vertex 0.003338 0.35723 -0.02588
   vertex 0.004168 0.356022 -0.023116
  endloop
 endfacet
 facet normal 0.578519 0.796783 0.174509
  outer loop
   vertex 0.003338 0.35723 -0.02588
   vertex 0.00182 0.357782 -0.023368
   vertex 0.004168 0.356022 -0.023116
  endloop
 endfacet
 facet normal 0.537986 0.767602 0.348366
  outer loop
   vertex 0.004168 0.356022 -0.023116
   vertex 0.00182 0.357782 -0.023368
   vertex 0.0023 0.356306 -0.020857
  endloop
 endfacet
 facet normal 0.420269 0.815078 0.398776
  outer loop
   vertex 0.00182 0.357782 -0.023368
   vertex 0.000224 0.357646 -0.021408
   vertex 0.0023 0.356306 -0.020857
  endloop
 endfacet
 facet normal 0.138975 0.90647 0.398746
  outer loop
   vertex -0.000988 0.358694 -0.023368
   vertex -0.002244 0.357782 -0.020857
   vertex 0.000224 0.357646 -0.021408
  endloop
 endfacet
 facet normal 0.000555151 0.98466 0.174481
  outer loop
   vertex -0.00254 0.35914 -0.02588
   vertex -0.003922 0.358651 -0.023116
   vertex -0.000988 0.358694 -0.023368
  endloop
 endfacet
 facet normal -0.155824 0.984657 -0.07855
  outer loop
   vertex -0.004092 0.358694 -0.028392
   vertex -0.00563 0.358651 -0.02588
   vertex -0.00254 0.35914 -0.02588
  endloop
 endfacet
 facet normal 0.0161962 0.937175 0.348485
  outer loop
   vertex -0.000988 0.358694 -0.023368
   vertex -0.003922 0.358651 -0.023116
   vertex -0.002244 0.357782 -0.020857
  endloop
 endfacet
 facet normal -0.132412 0.888171 0.440021
  outer loop
   vertex -0.003922 0.358651 -0.023116
   vertex -0.005169 0.35723 -0.020623
   vertex -0.002244 0.357782 -0.020857
  endloop
 endfacet
 facet normal -0.155583 0.983133 0.0961419
  outer loop
   vertex -0.00254 0.35914 -0.02588
   vertex -0.00563 0.358651 -0.02588
   vertex -0.003922 0.358651 -0.023116
  endloop
 endfacet
 facet normal -0.303796 0.934059 0.187729
  outer loop
   vertex -0.00563 0.358651 -0.02588
   vertex -0.007012 0.357646 -0.023116
   vertex -0.003922 0.358651 -0.023116
  endloop
 endfacet
 facet normal -0.288415 0.886769 0.361189
  outer loop
   vertex -0.003922 0.358651 -0.023116
   vertex -0.007012 0.357646 -0.023116
   vertex -0.005169 0.35723 -0.020623
  endloop
 endfacet
 facet normal -0.415138 0.796394 0.439791
  outer loop
   vertex -0.007012 0.357646 -0.023116
   vertex -0.007859 0.355957 -0.020857
   vertex -0.005169 0.35723 -0.020623
  endloop
 endfacet
 facet normal -0.304389 0.937197 -0.170322
  outer loop
   vertex -0.004092 0.358694 -0.028392
   vertex -0.0069 0.357782 -0.028392
   vertex -0.00563 0.358651 -0.02588
  endloop
 endfacet
 facet normal -0.452705 0.888208 -0.0783901
  outer loop
   vertex -0.0069 0.357782 -0.028392
   vertex -0.008418 0.35723 -0.02588
   vertex -0.00563 0.358651 -0.02588
  endloop
 endfacet
 facet normal -0.451986 0.886796 0.0964489
  outer loop
   vertex -0.00563 0.358651 -0.02588
   vertex -0.008418 0.35723 -0.02588
   vertex -0.007012 0.357646 -0.023116
  endloop
 endfacet
 facet normal -0.578874 0.796508 0.174584
  outer loop
   vertex -0.008418 0.35723 -0.02588
   vertex -0.009412 0.355957 -0.023368
   vertex -0.007012 0.357646 -0.023116
  endloop
 endfacet
 facet normal -0.563623 0.748876 0.348589
  outer loop
   vertex -0.007012 0.357646 -0.023116
   vertex -0.009412 0.355957 -0.023368
   vertex -0.007859 0.355957 -0.020857
  endloop
 endfacet
 facet normal -0.645038 0.651744 0.398942
  outer loop
   vertex -0.009412 0.355957 -0.023368
   vertex -0.009776 0.354397 -0.021408
   vertex -0.007859 0.355957 -0.020857
  endloop
 endfacet
 facet normal -0.819189 0.412026 0.398954
  outer loop
   vertex -0.011147 0.353569 -0.023368
   vertex -0.010667 0.352092 -0.020857
   vertex -0.009776 0.354397 -0.021408
  endloop
 endfacet
 facet normal -0.936352 0.304548 0.174631
  outer loop
   vertex -0.012051 0.35223 -0.02588
   vertex -0.012012 0.350765 -0.023116
   vertex -0.011147 0.353569 -0.023368
  endloop
 endfacet
 facet normal -0.984653 0.155824 -0.0785916
  outer loop
   vertex -0.012106 0.350616 -0.028391
   vertex -0.01254 0.34914 -0.02588
   vertex -0.012051 0.35223 -0.02588
  endloop
 endfacet
 facet normal -0.886309 0.304753 0.348685
  outer loop
   vertex -0.011147 0.353569 -0.023368
   vertex -0.012012 0.350765 -0.023116
   vertex -0.010667 0.352092 -0.020857
  endloop
 endfacet
 facet normal -0.885615 0.148581 0.440011
  outer loop
   vertex -0.012012 0.350765 -0.023116
   vertex -0.011046 0.34914 -0.020623
   vertex -0.010667 0.352092 -0.020857
  endloop
 endfacet
 facet normal -0.983115 0.15558 0.0963335
  outer loop
   vertex -0.012051 0.35223 -0.02588
   vertex -0.01254 0.34914 -0.02588
   vertex -0.012012 0.350765 -0.023116
  endloop
 endfacet
 facet normal -0.982239 0 0.187634
  outer loop
   vertex -0.01254 0.34914 -0.02588
   vertex -0.012012 0.347515 -0.023116
   vertex -0.012012 0.350765 -0.023116
  endloop
 endfacet
 facet normal -0.932446 0 0.361309
  outer loop
   vertex -0.012012 0.350765 -0.023116
   vertex -0.012012 0.347515 -0.023116
   vertex -0.011046 0.34914 -0.020623
  endloop
 endfacet
 facet normal -0.885615 -0.148581 0.440011
  outer loop
   vertex -0.012012 0.347515 -0.023116
   vertex -0.010667 0.346188 -0.020857
   vertex -0.011046 0.34914 -0.020623
  endloop
 endfacet
 facet normal -0.98539 -0 -0.170314
  outer loop
   vertex -0.012106 0.350616 -0.028391
   vertex -0.012106 0.347664 -0.028391
   vertex -0.01254 0.34914 -0.02588
  endloop
 endfacet
 facet normal -0.984653 -0.155824 -0.0785916
  outer loop
   vertex -0.012106 0.347664 -0.028391
   vertex -0.012051 0.34605 -0.02588
   vertex -0.01254 0.34914 -0.02588
  endloop
 endfacet
 facet normal -0.983115 -0.15558 0.0963335
  outer loop
   vertex -0.01254 0.34914 -0.02588
   vertex -0.012051 0.34605 -0.02588
   vertex -0.012012 0.347515 -0.023116
  endloop
 endfacet
 facet normal -0.936352 -0.304548 0.174631
  outer loop
   vertex -0.012051 0.34605 -0.02588
   vertex -0.011147 0.344711 -0.023368
   vertex -0.012012 0.347515 -0.023116
  endloop
 endfacet
 facet normal -0.886309 -0.304753 0.348685
  outer loop
   vertex -0.012012 0.347515 -0.023116
   vertex -0.011147 0.344711 -0.023368
   vertex -0.010667 0.346188 -0.020857
  endloop
 endfacet
 facet normal -0.819189 -0.412026 0.398954
  outer loop
   vertex -0.011147 0.344711 -0.023368
   vertex -0.009776 0.343883 -0.021408
   vertex -0.010667 0.346188 -0.020857
  endloop
 endfacet
 facet normal -0.645038 -0.651744 0.398942
  outer loop
   vertex -0.009412 0.342323 -0.023368
   vertex -0.007859 0.342323 -0.020857
   vertex -0.009776 0.343883 -0.021408
  endloop
 endfacet
 facet normal -0.578874 -0.796508 0.174584
  outer loop
   vertex -0.008418 0.34105 -0.02588
   vertex -0.007012 0.340634 -0.023116
   vertex -0.009412 0.342323 -0.023368
  endloop
 endfacet
 facet normal -0.452705 -0.888208 -0.0783901
  outer loop
   vertex -0.0069 0.340498 -0.028392
   vertex -0.00563 0.339629 -0.02588
   vertex -0.008418 0.34105 -0.02588
  endloop
 endfacet
 facet normal -0.563623 -0.748876 0.348589
  outer loop
   vertex -0.009412 0.342323 -0.023368
   vertex -0.007012 0.340634 -0.023116
   vertex -0.007859 0.342323 -0.020857
  endloop
 endfacet
 facet normal -0.415138 -0.796394 0.439791
  outer loop
   vertex -0.007012 0.340634 -0.023116
   vertex -0.005169 0.34105 -0.020623
   vertex -0.007859 0.342323 -0.020857
  endloop
 endfacet
 facet normal -0.451986 -0.886796 0.0964489
  outer loop
   vertex -0.008418 0.34105 -0.02588
   vertex -0.00563 0.339629 -0.02588
   vertex -0.007012 0.340634 -0.023116
  endloop
 endfacet
 facet normal -0.303796 -0.934059 0.187729
  outer loop
   vertex -0.00563 0.339629 -0.02588
   vertex -0.003922 0.339629 -0.023116
   vertex -0.007012 0.340634 -0.023116
  endloop
 endfacet
 facet normal -0.288415 -0.886769 0.361189
  outer loop
   vertex -0.007012 0.340634 -0.023116
   vertex -0.003922 0.339629 -0.023116
   vertex -0.005169 0.34105 -0.020623
  endloop
 endfacet
 facet normal -0.132412 -0.888171 0.440021
  outer loop
   vertex -0.003922 0.339629 -0.023116
   vertex -0.002244 0.340498 -0.020857
   vertex -0.005169 0.34105 -0.020623
  endloop
 endfacet
 facet normal -0.304389 -0.937197 -0.170322
  outer loop
   vertex -0.0069 0.340498 -0.028392
   vertex -0.004092 0.339586 -0.028392
   vertex -0.00563 0.339629 -0.02588
  endloop
 endfacet
 facet normal -0.155824 -0.984657 -0.07855
  outer loop
   vertex -0.004092 0.339586 -0.028392
   vertex -0.00254 0.33914 -0.02588
   vertex -0.00563 0.339629 -0.02588
  endloop
 endfacet
 facet normal -0.155583 -0.983133 0.0961419
  outer loop
   vertex -0.00563 0.339629 -0.02588
   vertex -0.00254 0.33914 -0.02588
   vertex -0.003922 0.339629 -0.023116
  endloop
 endfacet
 facet normal 0.000555151 -0.98466 0.174481
  outer loop
   vertex -0.00254 0.33914 -0.02588
   vertex -0.000988 0.339586 -0.023368
   vertex -0.003922 0.339629 -0.023116
  endloop
 endfacet
 facet normal 0.0161962 -0.937175 0.348485
  outer loop
   vertex -0.003922 0.339629 -0.023116
   vertex -0.000988 0.339586 -0.023368
   vertex -0.002244 0.340498 -0.020857
  endloop
 endfacet
 facet normal 0.138975 -0.90647 0.398746
  outer loop
   vertex -0.000988 0.339586 -0.023368
   vertex 0.000224 0.340634 -0.021408
   vertex -0.002244 0.340498 -0.020857
  endloop
 endfacet
 facet normal 0.420269 -0.815078 0.398776
  outer loop
   vertex 0.00182 0.340498 -0.023368
   vertex 0.0023 0.341974 -0.020857
   vertex 0.000224 0.340634 -0.021408
  endloop
 endfacet
 facet normal 0.578519 -0.796783 0.174509
  outer loop
   vertex 0.003338 0.34105 -0.02588
   vertex 0.004168 0.342258 -0.023116
   vertex 0.00182 0.340498 -0.023368
  endloop
 endfacet
 facet normal 0.704936 -0.704936 -0.0782949
  outer loop
   vertex 0.004332 0.342323 -0.028392
   vertex 0.00555 0.343262 -0.02588
   vertex 0.003338 0.34105 -0.02588
  endloop
 endfacet
 facet normal 0.537986 -0.767602 0.348366
  outer loop
   vertex 0.00182 0.340498 -0.023368
   vertex 0.004168 0.342258 -0.023116
   vertex 0.0023 0.341974 -0.020857
  endloop
 endfacet
 facet normal 0.629279 -0.640767 0.439803
  outer loop
   vertex 0.004168 0.342258 -0.023116
   vertex 0.004342 0.34414 -0.020623
   vertex 0.0023 0.341974 -0.020857
  endloop
 endfacet
 facet normal 0.703824 -0.703824 0.0962537
  outer loop
   vertex 0.003338 0.34105 -0.02588
   vertex 0.00555 0.343262 -0.02588
   vertex 0.004168 0.342258 -0.023116
  endloop
 endfacet
 facet normal 0.794662 -0.577331 0.18762
  outer loop
   vertex 0.00555 0.343262 -0.02588
   vertex 0.006078 0.344887 -0.023116
   vertex 0.004168 0.342258 -0.023116
  endloop
 endfacet
 facet normal 0.754436 -0.548107 0.361117
  outer loop
   vertex 0.004168 0.342258 -0.023116
   vertex 0.006078 0.344887 -0.023116
   vertex 0.004342 0.34414 -0.020623
  endloop
 endfacet
 facet normal 0.803858 -0.400541 0.439749
  outer loop
   vertex 0.006078 0.344887 -0.023116
   vertex 0.005771 0.346751 -0.020857
   vertex 0.004342 0.34414 -0.020623
  endloop
 endfacet
 facet normal 0.797233 -0.579229 -0.170037
  outer loop
   vertex 0.004332 0.342323 -0.028392
   vertex 0.006067 0.344711 -0.028392
   vertex 0.00555 0.343262 -0.02588
  endloop
 endfacet
 facet normal 0.888212 -0.452708 -0.078331
  outer loop
   vertex 0.006067 0.344711 -0.028392
   vertex 0.006971 0.34605 -0.02588
   vertex 0.00555 0.343262 -0.02588
  endloop
 endfacet
 facet normal 0.886806 -0.451991 0.0963284
  outer loop
   vertex 0.00555 0.343262 -0.02588
   vertex 0.006971 0.34605 -0.02588
   vertex 0.006078 0.344887 -0.023116
  endloop
 endfacet
 facet normal 0.93657 -0.303801 0.17476
  outer loop
   vertex 0.006971 0.34605 -0.02588
   vertex 0.007026 0.347664 -0.023369
   vertex 0.006078 0.344887 -0.023116
  endloop
 endfacet
 facet normal 0.89641 -0.274294 0.348155
  outer loop
   vertex 0.006078 0.344887 -0.023116
   vertex 0.007026 0.347664 -0.023369
   vertex 0.005771 0.346751 -0.020857
  endloop
 endfacet
 facet normal 0.905177 -0.147939 0.398459
  outer loop
   vertex 0.007026 0.347664 -0.023369
   vertex 0.006404 0.34914 -0.021408
   vertex 0.005771 0.346751 -0.020857
  endloop
 endfacet
 facet normal 0.294416 0.906493 0.302638
  outer loop
   vertex 0.00182 0.357782 -0.023368
   vertex -0.000988 0.358694 -0.023368
   vertex 0.000224 0.357646 -0.021408
  endloop
 endfacet
 facet normal 0.452705 0.888208 0.0783901
  outer loop
   vertex 0.003338 0.35723 -0.02588
   vertex 0.00055 0.358651 -0.02588
   vertex 0.00182 0.357782 -0.023368
  endloop
 endfacet
 facet normal 0.578874 0.796508 -0.174584
  outer loop
   vertex 0.004332 0.355957 -0.028392
   vertex 0.001932 0.357646 -0.028644
   vertex 0.003338 0.35723 -0.02588
  endloop
 endfacet
 facet normal 0.304389 0.937197 0.170322
  outer loop
   vertex 0.00182 0.357782 -0.023368
   vertex 0.00055 0.358651 -0.02588
   vertex -0.000988 0.358694 -0.023368
  endloop
 endfacet
 facet normal 0.155824 0.984657 0.07855
  outer loop
   vertex 0.00055 0.358651 -0.02588
   vertex -0.00254 0.35914 -0.02588
   vertex -0.000988 0.358694 -0.023368
  endloop
 endfacet
 facet normal 0.451986 0.886796 -0.0964489
  outer loop
   vertex 0.003338 0.35723 -0.02588
   vertex 0.001932 0.357646 -0.028644
   vertex 0.00055 0.358651 -0.02588
  endloop
 endfacet
 facet normal 0.303796 0.934059 -0.187729
  outer loop
   vertex 0.001932 0.357646 -0.028644
   vertex -0.001158 0.358651 -0.028644
   vertex 0.00055 0.358651 -0.02588
  endloop
 endfacet
 facet normal 0.155583 0.983133 -0.0961419
  outer loop
   vertex 0.00055 0.358651 -0.02588
   vertex -0.001158 0.358651 -0.028644
   vertex -0.00254 0.35914 -0.02588
  endloop
 endfacet
 facet normal -0.000555151 0.98466 -0.174481
  outer loop
   vertex -0.001158 0.358651 -0.028644
   vertex -0.004092 0.358694 -0.028392
   vertex -0.00254 0.35914 -0.02588
  endloop
 endfacet
 facet normal 0.563623 0.748876 -0.348589
  outer loop
   vertex 0.004332 0.355957 -0.028392
   vertex 0.002779 0.355957 -0.030903
   vertex 0.001932 0.357646 -0.028644
  endloop
 endfacet
 facet normal 0.415138 0.796394 -0.439791
  outer loop
   vertex 0.002779 0.355957 -0.030903
   vertex 8.9e-05 0.35723 -0.031137
   vertex 0.001932 0.357646 -0.028644
  endloop
 endfacet
 facet normal 0.288415 0.886769 -0.361189
  outer loop
   vertex 0.001932 0.357646 -0.028644
   vertex 8.9e-05 0.35723 -0.031137
   vertex -0.001158 0.358651 -0.028644
  endloop
 endfacet
 facet normal 0.132412 0.888171 -0.440021
  outer loop
   vertex 8.9e-05 0.35723 -0.031137
   vertex -0.002836 0.357782 -0.030903
   vertex -0.001158 0.358651 -0.028644
  endloop
 endfacet
 facet normal -0.0161962 0.937175 -0.348485
  outer loop
   vertex -0.001158 0.358651 -0.028644
   vertex -0.002836 0.357782 -0.030903
   vertex -0.004092 0.358694 -0.028392
  endloop
 endfacet
 facet normal -0.138975 0.90647 -0.398746
  outer loop
   vertex -0.002836 0.357782 -0.030903
   vertex -0.005304 0.357646 -0.030352
   vertex -0.004092 0.358694 -0.028392
  endloop
 endfacet
 facet normal -0.771063 0.560215 0.302688
  outer loop
   vertex -0.009412 0.355957 -0.023368
   vertex -0.011147 0.353569 -0.023368
   vertex -0.009776 0.354397 -0.021408
  endloop
 endfacet
 facet normal -0.704936 0.704936 0.0782949
  outer loop
   vertex -0.008418 0.35723 -0.02588
   vertex -0.01063 0.355018 -0.02588
   vertex -0.009412 0.355957 -0.023368
  endloop
 endfacet
 facet normal -0.578519 0.796783 -0.174509
  outer loop
   vertex -0.0069 0.357782 -0.028392
   vertex -0.009248 0.356022 -0.028644
   vertex -0.008418 0.35723 -0.02588
  endloop
 endfacet
 facet normal -0.797233 0.579229 0.170037
  outer loop
   vertex -0.009412 0.355957 -0.023368
   vertex -0.01063 0.355018 -0.02588
   vertex -0.011147 0.353569 -0.023368
  endloop
 endfacet
 facet normal -0.888212 0.452708 0.078331
  outer loop
   vertex -0.01063 0.355018 -0.02588
   vertex -0.012051 0.35223 -0.02588
   vertex -0.011147 0.353569 -0.023368
  endloop
 endfacet
 facet normal -0.703824 0.703824 -0.0962537
  outer loop
   vertex -0.008418 0.35723 -0.02588
   vertex -0.009248 0.356022 -0.028644
   vertex -0.01063 0.355018 -0.02588
  endloop
 endfacet
 facet normal -0.794662 0.577331 -0.18762
  outer loop
   vertex -0.009248 0.356022 -0.028644
   vertex -0.011158 0.353393 -0.028644
   vertex -0.01063 0.355018 -0.02588
  endloop
 endfacet
 facet normal -0.886806 0.451991 -0.0963284
  outer loop
   vertex -0.01063 0.355018 -0.02588
   vertex -0.011158 0.353393 -0.028644
   vertex -0.012051 0.35223 -0.02588
  endloop
 endfacet
 facet normal -0.93657 0.303801 -0.17476
  outer loop
   vertex -0.011158 0.353393 -0.028644
   vertex -0.012106 0.350616 -0.028391
   vertex -0.012051 0.35223 -0.02588
  endloop
 endfacet
 facet normal -0.537986 0.767602 -0.348366
  outer loop
   vertex -0.0069 0.357782 -0.028392
   vertex -0.00738 0.356306 -0.030903
   vertex -0.009248 0.356022 -0.028644
  endloop
 endfacet
 facet normal -0.629279 0.640767 -0.439803
  outer loop
   vertex -0.00738 0.356306 -0.030903
   vertex -0.009422 0.35414 -0.031137
   vertex -0.009248 0.356022 -0.028644
  endloop
 endfacet
 facet normal -0.754436 0.548107 -0.361117
  outer loop
   vertex -0.009248 0.356022 -0.028644
   vertex -0.009422 0.35414 -0.031137
   vertex -0.011158 0.353393 -0.028644
  endloop
 endfacet
 facet normal -0.803858 0.400541 -0.439749
  outer loop
   vertex -0.009422 0.35414 -0.031137
   vertex -0.010851 0.351529 -0.030903
   vertex -0.011158 0.353393 -0.028644
  endloop
 endfacet
 facet normal -0.89641 0.274294 -0.348155
  outer loop
   vertex -0.011158 0.353393 -0.028644
   vertex -0.010851 0.351529 -0.030903
   vertex -0.012106 0.350616 -0.028391
  endloop
 endfacet
 facet normal -0.905177 0.147939 -0.398459
  outer loop
   vertex -0.010851 0.351529 -0.030903
   vertex -0.011484 0.34914 -0.030352
   vertex -0.012106 0.350616 -0.028391
  endloop
 endfacet
 facet normal -0.771063 -0.560215 0.302688
  outer loop
   vertex -0.011147 0.344711 -0.023368
   vertex -0.009412 0.342323 -0.023368
   vertex -0.009776 0.343883 -0.021408
  endloop
 endfacet
 facet normal -0.888212 -0.452708 0.078331
  outer loop
   vertex -0.012051 0.34605 -0.02588
   vertex -0.01063 0.343262 -0.02588
   vertex -0.011147 0.344711 -0.023368
  endloop
 endfacet
 facet normal -0.93657 -0.303801 -0.17476
  outer loop
   vertex -0.012106 0.347664 -0.028391
   vertex -0.011158 0.344887 -0.028644
   vertex -0.012051 0.34605 -0.02588
  endloop
 endfacet
 facet normal -0.797233 -0.579229 0.170037
  outer loop
   vertex -0.011147 0.344711 -0.023368
   vertex -0.01063 0.343262 -0.02588
   vertex -0.009412 0.342323 -0.023368
  endloop
 endfacet
 facet normal -0.704936 -0.704936 0.0782949
  outer loop
   vertex -0.01063 0.343262 -0.02588
   vertex -0.008418 0.34105 -0.02588
   vertex -0.009412 0.342323 -0.023368
  endloop
 endfacet
 facet normal -0.886806 -0.451991 -0.0963284
  outer loop
   vertex -0.012051 0.34605 -0.02588
   vertex -0.011158 0.344887 -0.028644
   vertex -0.01063 0.343262 -0.02588
  endloop
 endfacet
 facet normal -0.794662 -0.577331 -0.18762
  outer loop
   vertex -0.011158 0.344887 -0.028644
   vertex -0.009248 0.342258 -0.028644
   vertex -0.01063 0.343262 -0.02588
  endloop
 endfacet
 facet normal -0.703824 -0.703824 -0.0962537
  outer loop
   vertex -0.01063 0.343262 -0.02588
   vertex -0.009248 0.342258 -0.028644
   vertex -0.008418 0.34105 -0.02588
  endloop
 endfacet
 facet normal -0.578519 -0.796783 -0.174509
  outer loop
   vertex -0.009248 0.342258 -0.028644
   vertex -0.0069 0.340498 -0.028392
   vertex -0.008418 0.34105 -0.02588
  endloop
 endfacet
 facet normal -0.89641 -0.274294 -0.348155
  outer loop
   vertex -0.012106 0.347664 -0.028391
   vertex -0.010851 0.346751 -0.030903
   vertex -0.011158 0.344887 -0.028644
  endloop
 endfacet
 facet normal -0.803858 -0.400541 -0.439749
  outer loop
   vertex -0.010851 0.346751 -0.030903
   vertex -0.009422 0.34414 -0.031137
   vertex -0.011158 0.344887 -0.028644
  endloop
 endfacet
 facet normal -0.754436 -0.548107 -0.361117
  outer loop
   vertex -0.011158 0.344887 -0.028644
   vertex -0.009422 0.34414 -0.031137
   vertex -0.009248 0.342258 -0.028644
  endloop
 endfacet
 facet normal -0.629279 -0.640767 -0.439803
  outer loop
   vertex -0.009422 0.34414 -0.031137
   vertex -0.00738 0.341974 -0.030903
   vertex -0.009248 0.342258 -0.028644
  endloop
 endfacet
 facet normal -0.537986 -0.767602 -0.348366
  outer loop
   vertex -0.009248 0.342258 -0.028644
   vertex -0.00738 0.341974 -0.030903
   vertex -0.0069 0.340498 -0.028392
  endloop
 endfacet
 facet normal -0.420269 -0.815078 -0.398776
  outer loop
   vertex -0.00738 0.341974 -0.030903
   vertex -0.005304 0.340634 -0.030352
   vertex -0.0069 0.340498 -0.028392
  endloop
 endfacet
 facet normal 0.294416 -0.906493 0.302638
  outer loop
   vertex -0.000988 0.339586 -0.023368
   vertex 0.00182 0.340498 -0.023368
   vertex 0.000224 0.340634 -0.021408
  endloop
 endfacet
 facet normal 0.155824 -0.984657 0.07855
  outer loop
   vertex -0.00254 0.33914 -0.02588
   vertex 0.00055 0.339629 -0.02588
   vertex -0.000988 0.339586 -0.023368
  endloop
 endfacet
 facet normal -0.000555151 -0.98466 -0.174481
  outer loop
   vertex -0.004092 0.339586 -0.028392
   vertex -0.001158 0.339629 -0.028644
   vertex -0.00254 0.33914 -0.02588
  endloop
 endfacet
 facet normal 0.304389 -0.937197 0.170322
  outer loop
   vertex -0.000988 0.339586 -0.023368
   vertex 0.00055 0.339629 -0.02588
   vertex 0.00182 0.340498 -0.023368
  endloop
 endfacet
 facet normal 0.452705 -0.888208 0.0783901
  outer loop
   vertex 0.00055 0.339629 -0.02588
   vertex 0.003338 0.34105 -0.02588
   vertex 0.00182 0.340498 -0.023368
  endloop
 endfacet
 facet normal 0.155583 -0.983133 -0.0961419
  outer loop
   vertex -0.00254 0.33914 -0.02588
   vertex -0.001158 0.339629 -0.028644
   vertex 0.00055 0.339629 -0.02588
  endloop
 endfacet
 facet normal 0.303796 -0.934059 -0.187729
  outer loop
   vertex -0.001158 0.339629 -0.028644
   vertex 0.001932 0.340634 -0.028644
   vertex 0.00055 0.339629 -0.02588
  endloop
 endfacet
 facet normal 0.451986 -0.886796 -0.0964489
  outer loop
   vertex 0.00055 0.339629 -0.02588
   vertex 0.001932 0.340634 -0.028644
   vertex 0.003338 0.34105 -0.02588
  endloop
 endfacet
 facet normal 0.578874 -0.796508 -0.174584
  outer loop
   vertex 0.001932 0.340634 -0.028644
   vertex 0.004332 0.342323 -0.028392
   vertex 0.003338 0.34105 -0.02588
  endloop
 endfacet
 facet normal -0.0161962 -0.937175 -0.348485
  outer loop
   vertex -0.004092 0.339586 -0.028392
   vertex -0.002836 0.340498 -0.030903
   vertex -0.001158 0.339629 -0.028644
  endloop
 endfacet
 facet normal 0.132412 -0.888171 -0.440021
  outer loop
   vertex -0.002836 0.340498 -0.030903
   vertex 8.9e-05 0.34105 -0.031137
   vertex -0.001158 0.339629 -0.028644
  endloop
 endfacet
 facet normal 0.288415 -0.886769 -0.361189
  outer loop
   vertex -0.001158 0.339629 -0.028644
   vertex 8.9e-05 0.34105 -0.031137
   vertex 0.001932 0.340634 -0.028644
  endloop
 endfacet
 facet normal 0.415138 -0.796394 -0.439791
  outer loop
   vertex 8.9e-05 0.34105 -0.031137
   vertex 0.002779 0.342323 -0.030903
   vertex 0.001932 0.340634 -0.028644
  endloop
 endfacet
 facet normal 0.563623 -0.748876 -0.348589
  outer loop
   vertex 0.001932 0.340634 -0.028644
   vertex 0.002779 0.342323 -0.030903
   vertex 0.004332 0.342323 -0.028392
  endloop
 endfacet
 facet normal 0.645038 -0.651744 -0.398942
  outer loop
   vertex 0.002779 0.342323 -0.030903
   vertex 0.004696 0.343883 -0.030352
   vertex 0.004332 0.342323 -0.028392
  endloop
 endfacet
 facet normal 0.9532 -0 0.302341
  outer loop
   vertex 0.007026 0.347664 -0.023369
   vertex 0.007026 0.350616 -0.023369
   vertex 0.006404 0.34914 -0.021408
  endloop
 endfacet
 facet normal 0.984653 -0.155824 0.0785916
  outer loop
   vertex 0.006971 0.34605 -0.02588
   vertex 0.00746 0.34914 -0.02588
   vertex 0.007026 0.347664 -0.023369
  endloop
 endfacet
 facet normal 0.936352 -0.304548 -0.174631
  outer loop
   vertex 0.006067 0.344711 -0.028392
   vertex 0.006932 0.347515 -0.028644
   vertex 0.006971 0.34605 -0.02588
  endloop
 endfacet
 facet normal 0.98539 -0 0.170314
  outer loop
   vertex 0.007026 0.347664 -0.023369
   vertex 0.00746 0.34914 -0.02588
   vertex 0.007026 0.350616 -0.023369
  endloop
 endfacet
 facet normal 0.984653 0.155824 0.0785916
  outer loop
   vertex 0.00746 0.34914 -0.02588
   vertex 0.006971 0.35223 -0.02588
   vertex 0.007026 0.350616 -0.023369
  endloop
 endfacet
 facet normal 0.983115 -0.15558 -0.0963335
  outer loop
   vertex 0.006971 0.34605 -0.02588
   vertex 0.006932 0.347515 -0.028644
   vertex 0.00746 0.34914 -0.02588
  endloop
 endfacet
 facet normal 0.982239 0 -0.187634
  outer loop
   vertex 0.006932 0.347515 -0.028644
   vertex 0.006932 0.350765 -0.028644
   vertex 0.00746 0.34914 -0.02588
  endloop
 endfacet
 facet normal 0.983115 0.15558 -0.0963335
  outer loop
   vertex 0.00746 0.34914 -0.02588
   vertex 0.006932 0.350765 -0.028644
   vertex 0.006971 0.35223 -0.02588
  endloop
 endfacet
 facet normal 0.936352 0.304548 -0.174631
  outer loop
   vertex 0.006932 0.350765 -0.028644
   vertex 0.006067 0.353569 -0.028392
   vertex 0.006971 0.35223 -0.02588
  endloop
 endfacet
 facet normal 0.886309 -0.304753 -0.348685
  outer loop
   vertex 0.006067 0.344711 -0.028392
   vertex 0.005587 0.346188 -0.030903
   vertex 0.006932 0.347515 -0.028644
  endloop
 endfacet
 facet normal 0.885615 -0.148581 -0.440011
  outer loop
   vertex 0.005587 0.346188 -0.030903
   vertex 0.005966 0.34914 -0.031137
   vertex 0.006932 0.347515 -0.028644
  endloop
 endfacet
 facet normal 0.932446 0 -0.361309
  outer loop
   vertex 0.006932 0.347515 -0.028644
   vertex 0.005966 0.34914 -0.031137
   vertex 0.006932 0.350765 -0.028644
  endloop
 endfacet
 facet normal 0.885615 0.148581 -0.440011
  outer loop
   vertex 0.005966 0.34914 -0.031137
   vertex 0.005587 0.352092 -0.030903
   vertex 0.006932 0.350765 -0.028644
  endloop
 endfacet
 facet normal 0.886309 0.304753 -0.348685
  outer loop
   vertex 0.006932 0.350765 -0.028644
   vertex 0.005587 0.352092 -0.030903
   vertex 0.006067 0.353569 -0.028392
  endloop
 endfacet
 facet normal 0.819189 0.412026 -0.398954
  outer loop
   vertex 0.005587 0.352092 -0.030903
   vertex 0.004696 0.354397 -0.030352
   vertex 0.006067 0.353569 -0.028392
  endloop
 endfacet
 facet normal 0.61533 0.560308 -0.554459
  outer loop
   vertex 0.003555 0.353569 -0.032455
   vertex 0.002779 0.355957 -0.030903
   vertex 0.004696 0.354397 -0.030352
  endloop
 endfacet
 facet normal 0.467426 0.452641 -0.759361
  outer loop
   vertex 0.001713 0.35223 -0.034387
   vertex 0.001078 0.355018 -0.033116
   vertex 0.003555 0.353569 -0.032455
  endloop
 endfacet
 facet normal 0.262485 0.303841 -0.915851
  outer loop
   vertex -0.000508 0.350616 -0.035559
   vertex -0.001158 0.353393 -0.034824
   vertex 0.001713 0.35223 -0.034387
  endloop
 endfacet
 facet normal 0.508799 0.579247 -0.636864
  outer loop
   vertex 0.003555 0.353569 -0.032455
   vertex 0.001078 0.355018 -0.033116
   vertex 0.002779 0.355957 -0.030903
  endloop
 endfacet
 facet normal 0.38541 0.704977 -0.595371
  outer loop
   vertex 0.001078 0.355018 -0.033116
   vertex 8.9e-05 0.35723 -0.031137
   vertex 0.002779 0.355957 -0.030903
  endloop
 endfacet
 facet normal 0.310374 0.451949 -0.836307
  outer loop
   vertex 0.001713 0.35223 -0.034387
   vertex -0.001158 0.353393 -0.034824
   vertex 0.001078 0.355018 -0.033116
  endloop
 endfacet
 facet normal 0.187559 0.577248 -0.794737
  outer loop
   vertex -0.001158 0.353393 -0.034824
   vertex -0.002012 0.356022 -0.033116
   vertex 0.001078 0.355018 -0.033116
  endloop
 endfacet
 facet normal 0.228709 0.703897 -0.672474
  outer loop
   vertex 0.001078 0.355018 -0.033116
   vertex -0.002012 0.356022 -0.033116
   vertex 8.9e-05 0.35723 -0.031137
  endloop
 endfacet
 facet normal 0.102735 0.796801 -0.595444
  outer loop
   vertex -0.002012 0.356022 -0.033116
   vertex -0.002836 0.357782 -0.030903
   vertex 8.9e-05 0.35723 -0.031137
  endloop
 endfacet
 facet normal 0.0891868 0.274301 -0.957499
  outer loop
   vertex -0.000508 0.350616 -0.035559
   vertex -0.003316 0.351529 -0.035559
   vertex -0.001158 0.353393 -0.034824
  endloop
 endfacet
 facet normal -0.0336945 0.400135 -0.915836
  outer loop
   vertex -0.003316 0.351529 -0.035559
   vertex -0.004165 0.35414 -0.034387
   vertex -0.001158 0.353393 -0.034824
  endloop
 endfacet
 facet normal 0.0146149 0.548074 -0.836302
  outer loop
   vertex -0.001158 0.353393 -0.034824
   vertex -0.004165 0.35414 -0.034387
   vertex -0.002012 0.356022 -0.033116
  endloop
 endfacet
 facet normal -0.112009 0.640965 -0.759354
  outer loop
   vertex -0.004165 0.35414 -0.034387
   vertex -0.004868 0.356306 -0.032455
   vertex -0.002012 0.356022 -0.033116
  endloop
 endfacet
 facet normal -0.0710868 0.767617 -0.636955
  outer loop
   vertex -0.002012 0.356022 -0.033116
   vertex -0.004868 0.356306 -0.032455
   vertex -0.002836 0.357782 -0.030903
  endloop
 endfacet
 facet normal -0.168666 0.815046 -0.554303
  outer loop
   vertex -0.004868 0.356306 -0.032455
   vertex -0.005304 0.357646 -0.030352
   vertex -0.002836 0.357782 -0.030903
  endloop
 endfacet
 facet normal -0.342493 0.758552 -0.554344
  outer loop
   vertex -0.004868 0.356306 -0.032455
   vertex -0.00738 0.356306 -0.030903
   vertex -0.005304 0.357646 -0.030352
  endloop
 endfacet
 facet normal -0.286233 0.584386 -0.759318
  outer loop
   vertex -0.004165 0.35414 -0.034387
   vertex -0.007012 0.354397 -0.033116
   vertex -0.004868 0.356306 -0.032455
  endloop
 endfacet
 facet normal -0.207851 0.343516 -0.915858
  outer loop
   vertex -0.003316 0.351529 -0.035559
   vertex -0.006158 0.351769 -0.034824
   vertex -0.004165 0.35414 -0.034387
  endloop
 endfacet
 facet normal -0.393627 0.662685 -0.637108
  outer loop
   vertex -0.004868 0.356306 -0.032455
   vertex -0.007012 0.354397 -0.033116
   vertex -0.00738 0.356306 -0.030903
  endloop
 endfacet
 facet normal -0.551379 0.584158 -0.595601
  outer loop
   vertex -0.007012 0.354397 -0.033116
   vertex -0.009422 0.35414 -0.031137
   vertex -0.00738 0.356306 -0.030903
  endloop
 endfacet
 facet normal -0.334054 0.43492 -0.836213
  outer loop
   vertex -0.004165 0.35414 -0.034387
   vertex -0.006158 0.351769 -0.034824
   vertex -0.007012 0.354397 -0.033116
  endloop
 endfacet
 facet normal -0.491058 0.356895 -0.794662
  outer loop
   vertex -0.006158 0.351769 -0.034824
   vertex -0.008922 0.351769 -0.033116
   vertex -0.007012 0.354397 -0.033116
  endloop
 endfacet
 facet normal -0.598657 0.435097 -0.672533
  outer loop
   vertex -0.007012 0.354397 -0.033116
   vertex -0.008922 0.351769 -0.033116
   vertex -0.009422 0.35414 -0.031137
  endloop
 endfacet
 facet normal -0.725985 0.343961 -0.595514
  outer loop
   vertex -0.008922 0.351769 -0.033116
   vertex -0.010851 0.351529 -0.030903
   vertex -0.009422 0.35414 -0.031137
  endloop
 endfacet
 facet normal -0.233325 0.169451 -0.957521
  outer loop
   vertex -0.003316 0.351529 -0.035559
   vertex -0.005051 0.34914 -0.035559
   vertex -0.006158 0.351769 -0.034824
  endloop
 endfacet
 facet normal -0.390899 0.0914587 -0.915878
  outer loop
   vertex -0.005051 0.34914 -0.035559
   vertex -0.007797 0.34914 -0.034387
   vertex -0.006158 0.351769 -0.034824
  endloop
 endfacet
 facet normal -0.516783 0.183167 -0.836293
  outer loop
   vertex -0.006158 0.351769 -0.034824
   vertex -0.007797 0.34914 -0.034387
   vertex -0.008922 0.351769 -0.033116
  endloop
 endfacet
 facet normal -0.644269 0.0913996 -0.759317
  outer loop
   vertex -0.007797 0.34914 -0.034387
   vertex -0.010074 0.34914 -0.032455
   vertex -0.008922 0.351769 -0.033116
  endloop
 endfacet
 facet normal -0.751958 0.169318 -0.637095
  outer loop
   vertex -0.008922 0.351769 -0.033116
   vertex -0.010074 0.34914 -0.032455
   vertex -0.010851 0.351529 -0.030903
  endloop
 endfacet
 facet normal -0.827124 0.091254 -0.554562
  outer loop
   vertex -0.010074 0.34914 -0.032455
   vertex -0.011484 0.34914 -0.030352
   vertex -0.010851 0.351529 -0.030903
  endloop
 endfacet
 facet normal -0.827124 -0.091254 -0.554562
  outer loop
   vertex -0.010074 0.34914 -0.032455
   vertex -0.010851 0.346751 -0.030903
   vertex -0.011484 0.34914 -0.030352
  endloop
 endfacet
 facet normal -0.644269 -0.0913996 -0.759317
  outer loop
   vertex -0.007797 0.34914 -0.034387
   vertex -0.008922 0.346511 -0.033116
   vertex -0.010074 0.34914 -0.032455
  endloop
 endfacet
 facet normal -0.390899 -0.0914587 -0.915878
  outer loop
   vertex -0.005051 0.34914 -0.035559
   vertex -0.006158 0.346511 -0.034824
   vertex -0.007797 0.34914 -0.034387
  endloop
 endfacet
 facet normal -0.751958 -0.169318 -0.637095
  outer loop
   vertex -0.010074 0.34914 -0.032455
   vertex -0.008922 0.346511 -0.033116
   vertex -0.010851 0.346751 -0.030903
  endloop
 endfacet
 facet normal -0.725985 -0.343961 -0.595514
  outer loop
   vertex -0.008922 0.346511 -0.033116
   vertex -0.009422 0.34414 -0.031137
   vertex -0.010851 0.346751 -0.030903
  endloop
 endfacet
 facet normal -0.516783 -0.183167 -0.836293
  outer loop
   vertex -0.007797 0.34914 -0.034387
   vertex -0.006158 0.346511 -0.034824
   vertex -0.008922 0.346511 -0.033116
  endloop
 endfacet
 facet normal -0.491058 -0.356895 -0.794662
  outer loop
   vertex -0.006158 0.346511 -0.034824
   vertex -0.007012 0.343883 -0.033116
   vertex -0.008922 0.346511 -0.033116
  endloop
 endfacet
 facet normal -0.598657 -0.435097 -0.672533
  outer loop
   vertex -0.008922 0.346511 -0.033116
   vertex -0.007012 0.343883 -0.033116
   vertex -0.009422 0.34414 -0.031137
  endloop
 endfacet
 facet normal -0.551379 -0.584158 -0.595601
  outer loop
   vertex -0.007012 0.343883 -0.033116
   vertex -0.00738 0.341974 -0.030903
   vertex -0.009422 0.34414 -0.031137
  endloop
 endfacet
 facet normal -0.233325 -0.169451 -0.957521
  outer loop
   vertex -0.005051 0.34914 -0.035559
   vertex -0.003316 0.346751 -0.035559
   vertex -0.006158 0.346511 -0.034824
  endloop
 endfacet
 facet normal -0.207851 -0.343516 -0.915858
  outer loop
   vertex -0.003316 0.346751 -0.035559
   vertex -0.004165 0.34414 -0.034387
   vertex -0.006158 0.346511 -0.034824
  endloop
 endfacet
 facet normal -0.334054 -0.43492 -0.836213
  outer loop
   vertex -0.006158 0.346511 -0.034824
   vertex -0.004165 0.34414 -0.034387
   vertex -0.007012 0.343883 -0.033116
  endloop
 endfacet
 facet normal -0.286233 -0.584386 -0.759318
  outer loop
   vertex -0.004165 0.34414 -0.034387
   vertex -0.004868 0.341974 -0.032455
   vertex -0.007012 0.343883 -0.033116
  endloop
 endfacet
 facet normal -0.393627 -0.662685 -0.637108
  outer loop
   vertex -0.007012 0.343883 -0.033116
   vertex -0.004868 0.341974 -0.032455
   vertex -0.00738 0.341974 -0.030903
  endloop
 endfacet
 facet normal -0.342493 -0.758552 -0.554344
  outer loop
   vertex -0.004868 0.341974 -0.032455
   vertex -0.005304 0.340634 -0.030352
   vertex -0.00738 0.341974 -0.030903
  endloop
 endfacet
 facet normal 0.723015 0.412034 -0.554506
  outer loop
   vertex 0.005587 0.352092 -0.030903
   vertex 0.003555 0.353569 -0.032455
   vertex 0.004696 0.354397 -0.030352
  endloop
 endfacet
 facet normal 0.789589 0.148568 -0.59538
  outer loop
   vertex 0.005966 0.34914 -0.031137
   vertex 0.004168 0.350765 -0.033116
   vertex 0.005587 0.352092 -0.030903
  endloop
 endfacet
 facet normal 0.789589 -0.148568 -0.59538
  outer loop
   vertex 0.005587 0.346188 -0.030903
   vertex 0.004168 0.347515 -0.033116
   vertex 0.005966 0.34914 -0.031137
  endloop
 endfacet
 facet normal 0.708089 0.304936 -0.636886
  outer loop
   vertex 0.005587 0.352092 -0.030903
   vertex 0.004168 0.350765 -0.033116
   vertex 0.003555 0.353569 -0.032455
  endloop
 endfacet
 facet normal 0.574948 0.304695 -0.759339
  outer loop
   vertex 0.004168 0.350765 -0.033116
   vertex 0.001713 0.35223 -0.034387
   vertex 0.003555 0.353569 -0.032455
  endloop
 endfacet
 facet normal 0.740143 0 -0.672449
  outer loop
   vertex 0.005966 0.34914 -0.031137
   vertex 0.004168 0.347515 -0.033116
   vertex 0.004168 0.350765 -0.033116
  endloop
 endfacet
 facet normal 0.607028 0 -0.794681
  outer loop
   vertex 0.004168 0.347515 -0.033116
   vertex 0.001932 0.34914 -0.034824
   vertex 0.004168 0.350765 -0.033116
  endloop
 endfacet
 facet normal 0.525774 0.155534 -0.836284
  outer loop
   vertex 0.004168 0.350765 -0.033116
   vertex 0.001932 0.34914 -0.034824
   vertex 0.001713 0.35223 -0.034387
  endloop
 endfacet
 facet normal 0.370096 0.155752 -0.915844
  outer loop
   vertex 0.001932 0.34914 -0.034824
   vertex -0.000508 0.350616 -0.035559
   vertex 0.001713 0.35223 -0.034387
  endloop
 endfacet
 facet normal 0.708089 -0.304936 -0.636886
  outer loop
   vertex 0.005587 0.346188 -0.030903
   vertex 0.003555 0.344711 -0.032455
   vertex 0.004168 0.347515 -0.033116
  endloop
 endfacet
 facet normal 0.574948 -0.304695 -0.759339
  outer loop
   vertex 0.003555 0.344711 -0.032455
   vertex 0.001713 0.34605 -0.034387
   vertex 0.004168 0.347515 -0.033116
  endloop
 endfacet
 facet normal 0.525774 -0.155534 -0.836284
  outer loop
   vertex 0.004168 0.347515 -0.033116
   vertex 0.001713 0.34605 -0.034387
   vertex 0.001932 0.34914 -0.034824
  endloop
 endfacet
 facet normal 0.370096 -0.155752 -0.915844
  outer loop
   vertex 0.001713 0.34605 -0.034387
   vertex -0.000508 0.347664 -0.035559
   vertex 0.001932 0.34914 -0.034824
  endloop
 endfacet
 facet normal 0.288428 0 -0.957502
  outer loop
   vertex 0.001932 0.34914 -0.034824
   vertex -0.000508 0.347664 -0.035559
   vertex -0.000508 0.350616 -0.035559
  endloop
 endfacet
 facet normal 0.156037 0 -0.987751
  outer loop
   vertex -0.000508 0.347664 -0.035559
   vertex -0.00254 0.34914 -0.03588
   vertex -0.000508 0.350616 -0.035559
  endloop
 endfacet
 facet normal -0.168666 -0.815046 -0.554303
  outer loop
   vertex -0.004868 0.341974 -0.032455
   vertex -0.002836 0.340498 -0.030903
   vertex -0.005304 0.340634 -0.030352
  endloop
 endfacet
 facet normal -0.112009 -0.640965 -0.759354
  outer loop
   vertex -0.004165 0.34414 -0.034387
   vertex -0.002012 0.342258 -0.033116
   vertex -0.004868 0.341974 -0.032455
  endloop
 endfacet
 facet normal -0.0336945 -0.400135 -0.915836
  outer loop
   vertex -0.003316 0.346751 -0.035559
   vertex -0.001158 0.344887 -0.034824
   vertex -0.004165 0.34414 -0.034387
  endloop
 endfacet
 facet normal -0.0710868 -0.767617 -0.636955
  outer loop
   vertex -0.004868 0.341974 -0.032455
   vertex -0.002012 0.342258 -0.033116
   vertex -0.002836 0.340498 -0.030903
  endloop
 endfacet
 facet normal 0.102735 -0.796801 -0.595444
  outer loop
   vertex -0.002012 0.342258 -0.033116
   vertex 8.9e-05 0.34105 -0.031137
   vertex -0.002836 0.340498 -0.030903
  endloop
 endfacet
 facet normal 0.0146149 -0.548074 -0.836302
  outer loop
   vertex -0.004165 0.34414 -0.034387
   vertex -0.001158 0.344887 -0.034824
   vertex -0.002012 0.342258 -0.033116
  endloop
 endfacet
 facet normal 0.187559 -0.577248 -0.794737
  outer loop
   vertex -0.001158 0.344887 -0.034824
   vertex 0.001078 0.343262 -0.033116
   vertex -0.002012 0.342258 -0.033116
  endloop
 endfacet
 facet normal 0.228709 -0.703897 -0.672474
  outer loop
   vertex -0.002012 0.342258 -0.033116
   vertex 0.001078 0.343262 -0.033116
   vertex 8.9e-05 0.34105 -0.031137
  endloop
 endfacet
 facet normal 0.38541 -0.704977 -0.595371
  outer loop
   vertex 0.001078 0.343262 -0.033116
   vertex 0.002779 0.342323 -0.030903
   vertex 8.9e-05 0.34105 -0.031137
  endloop
 endfacet
 facet normal 0.0891868 -0.274301 -0.957499
  outer loop
   vertex -0.003316 0.346751 -0.035559
   vertex -0.000508 0.347664 -0.035559
   vertex -0.001158 0.344887 -0.034824
  endloop
 endfacet
 facet normal 0.262485 -0.303841 -0.915851
  outer loop
   vertex -0.000508 0.347664 -0.035559
   vertex 0.001713 0.34605 -0.034387
   vertex -0.001158 0.344887 -0.034824
  endloop
 endfacet
 facet normal 0.310374 -0.451949 -0.836307
  outer loop
   vertex -0.001158 0.344887 -0.034824
   vertex 0.001713 0.34605 -0.034387
   vertex 0.001078 0.343262 -0.033116
  endloop
 endfacet
 facet normal 0.467426 -0.452641 -0.759361
  outer loop
   vertex 0.001713 0.34605 -0.034387
   vertex 0.003555 0.344711 -0.032455
   vertex 0.001078 0.343262 -0.033116
  endloop
 endfacet
 facet normal 0.508799 -0.579247 -0.636864
  outer loop
   vertex 0.001078 0.343262 -0.033116
   vertex 0.003555 0.344711 -0.032455
   vertex 0.002779 0.342323 -0.030903
  endloop
 endfacet
 facet normal 0.61533 -0.560308 -0.554459
  outer loop
   vertex 0.003555 0.344711 -0.032455
   vertex 0.004696 0.343883 -0.030352
   vertex 0.002779 0.342323 -0.030903
  endloop
 endfacet
endsolid ExportedfromBlender-3.5.1
