solid ExportedfromBlender-3.5.1
 facet normal 0.0482486 -0.148392 -0.987751
  outer loop
   vertex -0.02433 0.36176 0.01047
   vertex -0.022298 0.360284 0.010791
   vertex -0.025106 0.359371 0.010791
  endloop
 endfacet
 facet normal 0.723015 -0.412034 -0.554506
  outer loop
   vertex -0.017094 0.356503 0.015998
   vertex -0.018235 0.357331 0.013895
   vertex -0.016203 0.358808 0.015447
  endloop
 endfacet
 facet normal -0.126271 -0.0917039 -0.987748
  outer loop
   vertex -0.02433 0.36176 0.01047
   vertex -0.025106 0.359371 0.010791
   vertex -0.026841 0.36176 0.010791
  endloop
 endfacet
 facet normal -0.126271 0.0917039 -0.987748
  outer loop
   vertex -0.02433 0.36176 0.01047
   vertex -0.026841 0.36176 0.010791
   vertex -0.025106 0.364149 0.010791
  endloop
 endfacet
 facet normal 0.0482486 0.148392 -0.987751
  outer loop
   vertex -0.02433 0.36176 0.01047
   vertex -0.025106 0.364149 0.010791
   vertex -0.022298 0.363236 0.010791
  endloop
 endfacet
 facet normal 0.819189 -0.412026 -0.398954
  outer loop
   vertex -0.017094 0.356503 0.015998
   vertex -0.016203 0.358808 0.015447
   vertex -0.015723 0.357331 0.017958
  endloop
 endfacet
 facet normal -0.138975 -0.90647 -0.398746
  outer loop
   vertex -0.027094 0.353254 0.015998
   vertex -0.024626 0.353118 0.015447
   vertex -0.025882 0.352206 0.017958
  endloop
 endfacet
 facet normal -0.905177 -0.147939 -0.398459
  outer loop
   vertex -0.033274 0.36176 0.015998
   vertex -0.032641 0.359371 0.015447
   vertex -0.033896 0.360284 0.017959
  endloop
 endfacet
 facet normal -0.420269 0.815078 -0.398776
  outer loop
   vertex -0.027094 0.370266 0.015998
   vertex -0.02917 0.368926 0.015447
   vertex -0.02869 0.370402 0.017958
  endloop
 endfacet
 facet normal 0.645038 0.651744 -0.398942
  outer loop
   vertex -0.017094 0.367017 0.015998
   vertex -0.019011 0.368577 0.015447
   vertex -0.017458 0.368577 0.017958
  endloop
 endfacet
 facet normal 0.771063 -0.560215 -0.302688
  outer loop
   vertex -0.017094 0.356503 0.015998
   vertex -0.015723 0.357331 0.017958
   vertex -0.017458 0.354943 0.017958
  endloop
 endfacet
 facet normal -0.294416 -0.906493 -0.302638
  outer loop
   vertex -0.027094 0.353254 0.015998
   vertex -0.025882 0.352206 0.017958
   vertex -0.02869 0.353118 0.017958
  endloop
 endfacet
 facet normal -0.9532 0 -0.302341
  outer loop
   vertex -0.033274 0.36176 0.015998
   vertex -0.033896 0.360284 0.017959
   vertex -0.033896 0.363236 0.017959
  endloop
 endfacet
 facet normal -0.294416 0.906493 -0.302638
  outer loop
   vertex -0.027094 0.370266 0.015998
   vertex -0.02869 0.370402 0.017958
   vertex -0.025882 0.371314 0.017958
  endloop
 endfacet
 facet normal 0.771063 0.560215 -0.302688
  outer loop
   vertex -0.017094 0.367017 0.015998
   vertex -0.017458 0.368577 0.017958
   vertex -0.015723 0.366189 0.017958
  endloop
 endfacet
 facet normal 0.342493 -0.758552 0.554344
  outer loop
   vertex -0.021566 0.353254 0.024942
   vertex -0.01949 0.354594 0.025493
   vertex -0.022002 0.354594 0.027045
  endloop
 endfacet
 facet normal -0.61533 -0.560308 0.554459
  outer loop
   vertex -0.031566 0.356503 0.024942
   vertex -0.029649 0.354943 0.025493
   vertex -0.030425 0.357331 0.027045
  endloop
 endfacet
 facet normal -0.723015 0.412034 0.554506
  outer loop
   vertex -0.031566 0.367017 0.024942
   vertex -0.032457 0.364712 0.025493
   vertex -0.030425 0.366189 0.027045
  endloop
 endfacet
 facet normal 0.168666 0.815046 0.554303
  outer loop
   vertex -0.021566 0.370266 0.024942
   vertex -0.024034 0.370402 0.025493
   vertex -0.022002 0.368926 0.027045
  endloop
 endfacet
 facet normal 0.827124 0.091254 0.554562
  outer loop
   vertex -0.015386 0.36176 0.024942
   vertex -0.016019 0.364149 0.025493
   vertex -0.016796 0.36176 0.027045
  endloop
 endfacet
 facet normal 0.126271 0.0917039 0.987748
  outer loop
   vertex -0.021819 0.36176 0.030149
   vertex -0.023554 0.364149 0.030149
   vertex -0.02433 0.36176 0.03047
  endloop
 endfacet
 facet normal 0.390899 0.0914587 0.915878
  outer loop
   vertex -0.019073 0.36176 0.028977
   vertex -0.020712 0.364389 0.029414
   vertex -0.021819 0.36176 0.030149
  endloop
 endfacet
 facet normal 0.644269 0.0913996 0.759317
  outer loop
   vertex -0.016796 0.36176 0.027045
   vertex -0.017948 0.364389 0.027706
   vertex -0.019073 0.36176 0.028977
  endloop
 endfacet
 facet normal 0.233325 0.169451 0.957521
  outer loop
   vertex -0.021819 0.36176 0.030149
   vertex -0.020712 0.364389 0.029414
   vertex -0.023554 0.364149 0.030149
  endloop
 endfacet
 facet normal 0.207851 0.343516 0.915858
  outer loop
   vertex -0.020712 0.364389 0.029414
   vertex -0.022705 0.36676 0.028977
   vertex -0.023554 0.364149 0.030149
  endloop
 endfacet
 facet normal 0.516783 0.183167 0.836293
  outer loop
   vertex -0.019073 0.36176 0.028977
   vertex -0.017948 0.364389 0.027706
   vertex -0.020712 0.364389 0.029414
  endloop
 endfacet
 facet normal 0.491058 0.356895 0.794662
  outer loop
   vertex -0.017948 0.364389 0.027706
   vertex -0.019858 0.367017 0.027706
   vertex -0.020712 0.364389 0.029414
  endloop
 endfacet
 facet normal 0.334054 0.43492 0.836213
  outer loop
   vertex -0.020712 0.364389 0.029414
   vertex -0.019858 0.367017 0.027706
   vertex -0.022705 0.36676 0.028977
  endloop
 endfacet
 facet normal 0.286233 0.584386 0.759318
  outer loop
   vertex -0.019858 0.367017 0.027706
   vertex -0.022002 0.368926 0.027045
   vertex -0.022705 0.36676 0.028977
  endloop
 endfacet
 facet normal 0.751958 0.169318 0.637095
  outer loop
   vertex -0.016796 0.36176 0.027045
   vertex -0.016019 0.364149 0.025493
   vertex -0.017948 0.364389 0.027706
  endloop
 endfacet
 facet normal 0.725985 0.343961 0.595514
  outer loop
   vertex -0.016019 0.364149 0.025493
   vertex -0.017448 0.36676 0.025727
   vertex -0.017948 0.364389 0.027706
  endloop
 endfacet
 facet normal 0.598657 0.435097 0.672533
  outer loop
   vertex -0.017948 0.364389 0.027706
   vertex -0.017448 0.36676 0.025727
   vertex -0.019858 0.367017 0.027706
  endloop
 endfacet
 facet normal 0.551379 0.584158 0.595601
  outer loop
   vertex -0.017448 0.36676 0.025727
   vertex -0.01949 0.368926 0.025493
   vertex -0.019858 0.367017 0.027706
  endloop
 endfacet
 facet normal 0.393627 0.662685 0.637108
  outer loop
   vertex -0.019858 0.367017 0.027706
   vertex -0.01949 0.368926 0.025493
   vertex -0.022002 0.368926 0.027045
  endloop
 endfacet
 facet normal 0.342493 0.758552 0.554344
  outer loop
   vertex -0.01949 0.368926 0.025493
   vertex -0.021566 0.370266 0.024942
   vertex -0.022002 0.368926 0.027045
  endloop
 endfacet
 facet normal -0.0482486 0.148392 0.987751
  outer loop
   vertex -0.023554 0.364149 0.030149
   vertex -0.026362 0.363236 0.030149
   vertex -0.02433 0.36176 0.03047
  endloop
 endfacet
 facet normal 0.0336945 0.400135 0.915836
  outer loop
   vertex -0.022705 0.36676 0.028977
   vertex -0.025712 0.366013 0.029414
   vertex -0.023554 0.364149 0.030149
  endloop
 endfacet
 facet normal 0.112009 0.640965 0.759354
  outer loop
   vertex -0.022002 0.368926 0.027045
   vertex -0.024858 0.368642 0.027706
   vertex -0.022705 0.36676 0.028977
  endloop
 endfacet
 facet normal -0.0891868 0.274301 0.957499
  outer loop
   vertex -0.023554 0.364149 0.030149
   vertex -0.025712 0.366013 0.029414
   vertex -0.026362 0.363236 0.030149
  endloop
 endfacet
 facet normal -0.262485 0.303841 0.915851
  outer loop
   vertex -0.025712 0.366013 0.029414
   vertex -0.028583 0.36485 0.028977
   vertex -0.026362 0.363236 0.030149
  endloop
 endfacet
 facet normal -0.0146149 0.548074 0.836302
  outer loop
   vertex -0.022705 0.36676 0.028977
   vertex -0.024858 0.368642 0.027706
   vertex -0.025712 0.366013 0.029414
  endloop
 endfacet
 facet normal -0.187559 0.577248 0.794737
  outer loop
   vertex -0.024858 0.368642 0.027706
   vertex -0.027948 0.367638 0.027706
   vertex -0.025712 0.366013 0.029414
  endloop
 endfacet
 facet normal -0.310374 0.451949 0.836307
  outer loop
   vertex -0.025712 0.366013 0.029414
   vertex -0.027948 0.367638 0.027706
   vertex -0.028583 0.36485 0.028977
  endloop
 endfacet
 facet normal -0.467426 0.452641 0.759361
  outer loop
   vertex -0.027948 0.367638 0.027706
   vertex -0.030425 0.366189 0.027045
   vertex -0.028583 0.36485 0.028977
  endloop
 endfacet
 facet normal 0.0710868 0.767617 0.636955
  outer loop
   vertex -0.022002 0.368926 0.027045
   vertex -0.024034 0.370402 0.025493
   vertex -0.024858 0.368642 0.027706
  endloop
 endfacet
 facet normal -0.102735 0.796801 0.595444
  outer loop
   vertex -0.024034 0.370402 0.025493
   vertex -0.026959 0.36985 0.025727
   vertex -0.024858 0.368642 0.027706
  endloop
 endfacet
 facet normal -0.228709 0.703897 0.672474
  outer loop
   vertex -0.024858 0.368642 0.027706
   vertex -0.026959 0.36985 0.025727
   vertex -0.027948 0.367638 0.027706
  endloop
 endfacet
 facet normal -0.38541 0.704977 0.595371
  outer loop
   vertex -0.026959 0.36985 0.025727
   vertex -0.029649 0.368577 0.025493
   vertex -0.027948 0.367638 0.027706
  endloop
 endfacet
 facet normal -0.508799 0.579247 0.636864
  outer loop
   vertex -0.027948 0.367638 0.027706
   vertex -0.029649 0.368577 0.025493
   vertex -0.030425 0.366189 0.027045
  endloop
 endfacet
 facet normal -0.61533 0.560308 0.554459
  outer loop
   vertex -0.029649 0.368577 0.025493
   vertex -0.031566 0.367017 0.024942
   vertex -0.030425 0.366189 0.027045
  endloop
 endfacet
 facet normal -0.156037 0 0.987751
  outer loop
   vertex -0.026362 0.363236 0.030149
   vertex -0.026362 0.360284 0.030149
   vertex -0.02433 0.36176 0.03047
  endloop
 endfacet
 facet normal -0.370096 0.155752 0.915844
  outer loop
   vertex -0.028583 0.36485 0.028977
   vertex -0.028802 0.36176 0.029414
   vertex -0.026362 0.363236 0.030149
  endloop
 endfacet
 facet normal -0.574948 0.304695 0.759339
  outer loop
   vertex -0.030425 0.366189 0.027045
   vertex -0.031038 0.363385 0.027706
   vertex -0.028583 0.36485 0.028977
  endloop
 endfacet
 facet normal -0.288428 0 0.957502
  outer loop
   vertex -0.026362 0.363236 0.030149
   vertex -0.028802 0.36176 0.029414
   vertex -0.026362 0.360284 0.030149
  endloop
 endfacet
 facet normal -0.370096 -0.155752 0.915844
  outer loop
   vertex -0.028802 0.36176 0.029414
   vertex -0.028583 0.35867 0.028977
   vertex -0.026362 0.360284 0.030149
  endloop
 endfacet
 facet normal -0.525774 0.155534 0.836284
  outer loop
   vertex -0.028583 0.36485 0.028977
   vertex -0.031038 0.363385 0.027706
   vertex -0.028802 0.36176 0.029414
  endloop
 endfacet
 facet normal -0.607028 0 0.794681
  outer loop
   vertex -0.031038 0.363385 0.027706
   vertex -0.031038 0.360135 0.027706
   vertex -0.028802 0.36176 0.029414
  endloop
 endfacet
 facet normal -0.525774 -0.155534 0.836284
  outer loop
   vertex -0.028802 0.36176 0.029414
   vertex -0.031038 0.360135 0.027706
   vertex -0.028583 0.35867 0.028977
  endloop
 endfacet
 facet normal -0.574948 -0.304695 0.759339
  outer loop
   vertex -0.031038 0.360135 0.027706
   vertex -0.030425 0.357331 0.027045
   vertex -0.028583 0.35867 0.028977
  endloop
 endfacet
 facet normal -0.708089 0.304936 0.636886
  outer loop
   vertex -0.030425 0.366189 0.027045
   vertex -0.032457 0.364712 0.025493
   vertex -0.031038 0.363385 0.027706
  endloop
 endfacet
 facet normal -0.789589 0.148568 0.59538
  outer loop
   vertex -0.032457 0.364712 0.025493
   vertex -0.032836 0.36176 0.025727
   vertex -0.031038 0.363385 0.027706
  endloop
 endfacet
 facet normal -0.740143 0 0.672449
  outer loop
   vertex -0.031038 0.363385 0.027706
   vertex -0.032836 0.36176 0.025727
   vertex -0.031038 0.360135 0.027706
  endloop
 endfacet
 facet normal -0.789589 -0.148568 0.59538
  outer loop
   vertex -0.032836 0.36176 0.025727
   vertex -0.032457 0.358808 0.025493
   vertex -0.031038 0.360135 0.027706
  endloop
 endfacet
 facet normal -0.708089 -0.304936 0.636886
  outer loop
   vertex -0.031038 0.360135 0.027706
   vertex -0.032457 0.358808 0.025493
   vertex -0.030425 0.357331 0.027045
  endloop
 endfacet
 facet normal -0.723015 -0.412034 0.554506
  outer loop
   vertex -0.032457 0.358808 0.025493
   vertex -0.031566 0.356503 0.024942
   vertex -0.030425 0.357331 0.027045
  endloop
 endfacet
 facet normal -0.0482486 -0.148392 0.987751
  outer loop
   vertex -0.026362 0.360284 0.030149
   vertex -0.023554 0.359371 0.030149
   vertex -0.02433 0.36176 0.03047
  endloop
 endfacet
 facet normal -0.262485 -0.303841 0.915851
  outer loop
   vertex -0.028583 0.35867 0.028977
   vertex -0.025712 0.357507 0.029414
   vertex -0.026362 0.360284 0.030149
  endloop
 endfacet
 facet normal -0.467426 -0.452641 0.759361
  outer loop
   vertex -0.030425 0.357331 0.027045
   vertex -0.027948 0.355882 0.027706
   vertex -0.028583 0.35867 0.028977
  endloop
 endfacet
 facet normal -0.0891868 -0.274301 0.957499
  outer loop
   vertex -0.026362 0.360284 0.030149
   vertex -0.025712 0.357507 0.029414
   vertex -0.023554 0.359371 0.030149
  endloop
 endfacet
 facet normal 0.0336945 -0.400135 0.915836
  outer loop
   vertex -0.025712 0.357507 0.029414
   vertex -0.022705 0.35676 0.028977
   vertex -0.023554 0.359371 0.030149
  endloop
 endfacet
 facet normal -0.310374 -0.451949 0.836307
  outer loop
   vertex -0.028583 0.35867 0.028977
   vertex -0.027948 0.355882 0.027706
   vertex -0.025712 0.357507 0.029414
  endloop
 endfacet
 facet normal -0.187559 -0.577248 0.794737
  outer loop
   vertex -0.027948 0.355882 0.027706
   vertex -0.024858 0.354878 0.027706
   vertex -0.025712 0.357507 0.029414
  endloop
 endfacet
 facet normal -0.0146149 -0.548074 0.836302
  outer loop
   vertex -0.025712 0.357507 0.029414
   vertex -0.024858 0.354878 0.027706
   vertex -0.022705 0.35676 0.028977
  endloop
 endfacet
 facet normal 0.112009 -0.640965 0.759354
  outer loop
   vertex -0.024858 0.354878 0.027706
   vertex -0.022002 0.354594 0.027045
   vertex -0.022705 0.35676 0.028977
  endloop
 endfacet
 facet normal -0.508799 -0.579247 0.636864
  outer loop
   vertex -0.030425 0.357331 0.027045
   vertex -0.029649 0.354943 0.025493
   vertex -0.027948 0.355882 0.027706
  endloop
 endfacet
 facet normal -0.38541 -0.704977 0.595371
  outer loop
   vertex -0.029649 0.354943 0.025493
   vertex -0.026959 0.35367 0.025727
   vertex -0.027948 0.355882 0.027706
  endloop
 endfacet
 facet normal -0.228709 -0.703897 0.672474
  outer loop
   vertex -0.027948 0.355882 0.027706
   vertex -0.026959 0.35367 0.025727
   vertex -0.024858 0.354878 0.027706
  endloop
 endfacet
 facet normal -0.102735 -0.796801 0.595444
  outer loop
   vertex -0.026959 0.35367 0.025727
   vertex -0.024034 0.353118 0.025493
   vertex -0.024858 0.354878 0.027706
  endloop
 endfacet
 facet normal 0.0710868 -0.767617 0.636955
  outer loop
   vertex -0.024858 0.354878 0.027706
   vertex -0.024034 0.353118 0.025493
   vertex -0.022002 0.354594 0.027045
  endloop
 endfacet
 facet normal 0.168666 -0.815046 0.554303
  outer loop
   vertex -0.024034 0.353118 0.025493
   vertex -0.021566 0.353254 0.024942
   vertex -0.022002 0.354594 0.027045
  endloop
 endfacet
 facet normal 0.126271 -0.0917039 0.987748
  outer loop
   vertex -0.023554 0.359371 0.030149
   vertex -0.021819 0.36176 0.030149
   vertex -0.02433 0.36176 0.03047
  endloop
 endfacet
 facet normal 0.207851 -0.343516 0.915858
  outer loop
   vertex -0.022705 0.35676 0.028977
   vertex -0.020712 0.359131 0.029414
   vertex -0.023554 0.359371 0.030149
  endloop
 endfacet
 facet normal 0.286233 -0.584386 0.759318
  outer loop
   vertex -0.022002 0.354594 0.027045
   vertex -0.019858 0.356503 0.027706
   vertex -0.022705 0.35676 0.028977
  endloop
 endfacet
 facet normal 0.233325 -0.169451 0.957521
  outer loop
   vertex -0.023554 0.359371 0.030149
   vertex -0.020712 0.359131 0.029414
   vertex -0.021819 0.36176 0.030149
  endloop
 endfacet
 facet normal 0.390899 -0.0914587 0.915878
  outer loop
   vertex -0.020712 0.359131 0.029414
   vertex -0.019073 0.36176 0.028977
   vertex -0.021819 0.36176 0.030149
  endloop
 endfacet
 facet normal 0.334054 -0.43492 0.836213
  outer loop
   vertex -0.022705 0.35676 0.028977
   vertex -0.019858 0.356503 0.027706
   vertex -0.020712 0.359131 0.029414
  endloop
 endfacet
 facet normal 0.491058 -0.356895 0.794662
  outer loop
   vertex -0.019858 0.356503 0.027706
   vertex -0.017948 0.359131 0.027706
   vertex -0.020712 0.359131 0.029414
  endloop
 endfacet
 facet normal 0.516783 -0.183167 0.836293
  outer loop
   vertex -0.020712 0.359131 0.029414
   vertex -0.017948 0.359131 0.027706
   vertex -0.019073 0.36176 0.028977
  endloop
 endfacet
 facet normal 0.644269 -0.0913996 0.759317
  outer loop
   vertex -0.017948 0.359131 0.027706
   vertex -0.016796 0.36176 0.027045
   vertex -0.019073 0.36176 0.028977
  endloop
 endfacet
 facet normal 0.393627 -0.662685 0.637108
  outer loop
   vertex -0.022002 0.354594 0.027045
   vertex -0.01949 0.354594 0.025493
   vertex -0.019858 0.356503 0.027706
  endloop
 endfacet
 facet normal 0.551379 -0.584158 0.595601
  outer loop
   vertex -0.01949 0.354594 0.025493
   vertex -0.017448 0.35676 0.025727
   vertex -0.019858 0.356503 0.027706
  endloop
 endfacet
 facet normal 0.598657 -0.435097 0.672533
  outer loop
   vertex -0.019858 0.356503 0.027706
   vertex -0.017448 0.35676 0.025727
   vertex -0.017948 0.359131 0.027706
  endloop
 endfacet
 facet normal 0.725985 -0.343961 0.595514
  outer loop
   vertex -0.017448 0.35676 0.025727
   vertex -0.016019 0.359371 0.025493
   vertex -0.017948 0.359131 0.027706
  endloop
 endfacet
 facet normal 0.751958 -0.169318 0.637095
  outer loop
   vertex -0.017948 0.359131 0.027706
   vertex -0.016019 0.359371 0.025493
   vertex -0.016796 0.36176 0.027045
  endloop
 endfacet
 facet normal 0.827124 -0.091254 0.554562
  outer loop
   vertex -0.016019 0.359371 0.025493
   vertex -0.015386 0.36176 0.024942
   vertex -0.016796 0.36176 0.027045
  endloop
 endfacet
 facet normal 0.905177 0.147939 0.398459
  outer loop
   vertex -0.014764 0.363236 0.022981
   vertex -0.016019 0.364149 0.025493
   vertex -0.015386 0.36176 0.024942
  endloop
 endfacet
 facet normal 0.93657 0.303801 0.17476
  outer loop
   vertex -0.014819 0.36485 0.02047
   vertex -0.015712 0.366013 0.023234
   vertex -0.014764 0.363236 0.022981
  endloop
 endfacet
 facet normal 0.888212 0.452708 -0.078331
  outer loop
   vertex -0.015723 0.366189 0.017958
   vertex -0.01624 0.367638 0.02047
   vertex -0.014819 0.36485 0.02047
  endloop
 endfacet
 facet normal 0.89641 0.274294 0.348155
  outer loop
   vertex -0.014764 0.363236 0.022981
   vertex -0.015712 0.366013 0.023234
   vertex -0.016019 0.364149 0.025493
  endloop
 endfacet
 facet normal 0.803858 0.400541 0.439749
  outer loop
   vertex -0.015712 0.366013 0.023234
   vertex -0.017448 0.36676 0.025727
   vertex -0.016019 0.364149 0.025493
  endloop
 endfacet
 facet normal 0.886806 0.451991 0.0963284
  outer loop
   vertex -0.014819 0.36485 0.02047
   vertex -0.01624 0.367638 0.02047
   vertex -0.015712 0.366013 0.023234
  endloop
 endfacet
 facet normal 0.794662 0.577331 0.18762
  outer loop
   vertex -0.01624 0.367638 0.02047
   vertex -0.017622 0.368642 0.023234
   vertex -0.015712 0.366013 0.023234
  endloop
 endfacet
 facet normal 0.754436 0.548107 0.361117
  outer loop
   vertex -0.015712 0.366013 0.023234
   vertex -0.017622 0.368642 0.023234
   vertex -0.017448 0.36676 0.025727
  endloop
 endfacet
 facet normal 0.629279 0.640767 0.439803
  outer loop
   vertex -0.017622 0.368642 0.023234
   vertex -0.01949 0.368926 0.025493
   vertex -0.017448 0.36676 0.025727
  endloop
 endfacet
 facet normal 0.797233 0.579229 -0.170037
  outer loop
   vertex -0.015723 0.366189 0.017958
   vertex -0.017458 0.368577 0.017958
   vertex -0.01624 0.367638 0.02047
  endloop
 endfacet
 facet normal 0.704936 0.704936 -0.0782949
  outer loop
   vertex -0.017458 0.368577 0.017958
   vertex -0.018452 0.36985 0.02047
   vertex -0.01624 0.367638 0.02047
  endloop
 endfacet
 facet normal 0.703824 0.703824 0.0962537
  outer loop
   vertex -0.01624 0.367638 0.02047
   vertex -0.018452 0.36985 0.02047
   vertex -0.017622 0.368642 0.023234
  endloop
 endfacet
 facet normal 0.578519 0.796783 0.174509
  outer loop
   vertex -0.018452 0.36985 0.02047
   vertex -0.01997 0.370402 0.022982
   vertex -0.017622 0.368642 0.023234
  endloop
 endfacet
 facet normal 0.537986 0.767602 0.348366
  outer loop
   vertex -0.017622 0.368642 0.023234
   vertex -0.01997 0.370402 0.022982
   vertex -0.01949 0.368926 0.025493
  endloop
 endfacet
 facet normal 0.420269 0.815078 0.398776
  outer loop
   vertex -0.01997 0.370402 0.022982
   vertex -0.021566 0.370266 0.024942
   vertex -0.01949 0.368926 0.025493
  endloop
 endfacet
 facet normal 0.138975 0.90647 0.398746
  outer loop
   vertex -0.022778 0.371314 0.022982
   vertex -0.024034 0.370402 0.025493
   vertex -0.021566 0.370266 0.024942
  endloop
 endfacet
 facet normal 0.000555151 0.98466 0.174481
  outer loop
   vertex -0.02433 0.37176 0.02047
   vertex -0.025712 0.371271 0.023234
   vertex -0.022778 0.371314 0.022982
  endloop
 endfacet
 facet normal -0.155824 0.984657 -0.07855
  outer loop
   vertex -0.025882 0.371314 0.017958
   vertex -0.02742 0.371271 0.02047
   vertex -0.02433 0.37176 0.02047
  endloop
 endfacet
 facet normal 0.0161962 0.937175 0.348485
  outer loop
   vertex -0.022778 0.371314 0.022982
   vertex -0.025712 0.371271 0.023234
   vertex -0.024034 0.370402 0.025493
  endloop
 endfacet
 facet normal -0.132412 0.888171 0.440021
  outer loop
   vertex -0.025712 0.371271 0.023234
   vertex -0.026959 0.36985 0.025727
   vertex -0.024034 0.370402 0.025493
  endloop
 endfacet
 facet normal -0.155583 0.983133 0.0961419
  outer loop
   vertex -0.02433 0.37176 0.02047
   vertex -0.02742 0.371271 0.02047
   vertex -0.025712 0.371271 0.023234
  endloop
 endfacet
 facet normal -0.303796 0.934059 0.187729
  outer loop
   vertex -0.02742 0.371271 0.02047
   vertex -0.028802 0.370266 0.023234
   vertex -0.025712 0.371271 0.023234
  endloop
 endfacet
 facet normal -0.288415 0.886769 0.361189
  outer loop
   vertex -0.025712 0.371271 0.023234
   vertex -0.028802 0.370266 0.023234
   vertex -0.026959 0.36985 0.025727
  endloop
 endfacet
 facet normal -0.415138 0.796394 0.439791
  outer loop
   vertex -0.028802 0.370266 0.023234
   vertex -0.029649 0.368577 0.025493
   vertex -0.026959 0.36985 0.025727
  endloop
 endfacet
 facet normal -0.304389 0.937197 -0.170322
  outer loop
   vertex -0.025882 0.371314 0.017958
   vertex -0.02869 0.370402 0.017958
   vertex -0.02742 0.371271 0.02047
  endloop
 endfacet
 facet normal -0.452705 0.888208 -0.0783901
  outer loop
   vertex -0.02869 0.370402 0.017958
   vertex -0.030208 0.36985 0.02047
   vertex -0.02742 0.371271 0.02047
  endloop
 endfacet
 facet normal -0.451986 0.886796 0.0964489
  outer loop
   vertex -0.02742 0.371271 0.02047
   vertex -0.030208 0.36985 0.02047
   vertex -0.028802 0.370266 0.023234
  endloop
 endfacet
 facet normal -0.578874 0.796508 0.174584
  outer loop
   vertex -0.030208 0.36985 0.02047
   vertex -0.031202 0.368577 0.022982
   vertex -0.028802 0.370266 0.023234
  endloop
 endfacet
 facet normal -0.563623 0.748876 0.348589
  outer loop
   vertex -0.028802 0.370266 0.023234
   vertex -0.031202 0.368577 0.022982
   vertex -0.029649 0.368577 0.025493
  endloop
 endfacet
 facet normal -0.645038 0.651744 0.398942
  outer loop
   vertex -0.031202 0.368577 0.022982
   vertex -0.031566 0.367017 0.024942
   vertex -0.029649 0.368577 0.025493
  endloop
 endfacet
 facet normal -0.819189 0.412026 0.398954
  outer loop
   vertex -0.032937 0.366189 0.022982
   vertex -0.032457 0.364712 0.025493
   vertex -0.031566 0.367017 0.024942
  endloop
 endfacet
 facet normal -0.936352 0.304548 0.174631
  outer loop
   vertex -0.033841 0.36485 0.02047
   vertex -0.033802 0.363385 0.023234
   vertex -0.032937 0.366189 0.022982
  endloop
 endfacet
 facet normal -0.984653 0.155824 -0.0785916
  outer loop
   vertex -0.033896 0.363236 0.017959
   vertex -0.03433 0.36176 0.02047
   vertex -0.033841 0.36485 0.02047
  endloop
 endfacet
 facet normal -0.886309 0.304753 0.348685
  outer loop
   vertex -0.032937 0.366189 0.022982
   vertex -0.033802 0.363385 0.023234
   vertex -0.032457 0.364712 0.025493
  endloop
 endfacet
 facet normal -0.885615 0.148581 0.440011
  outer loop
   vertex -0.033802 0.363385 0.023234
   vertex -0.032836 0.36176 0.025727
   vertex -0.032457 0.364712 0.025493
  endloop
 endfacet
 facet normal -0.983115 0.15558 0.0963335
  outer loop
   vertex -0.033841 0.36485 0.02047
   vertex -0.03433 0.36176 0.02047
   vertex -0.033802 0.363385 0.023234
  endloop
 endfacet
 facet normal -0.982239 0 0.187634
  outer loop
   vertex -0.03433 0.36176 0.02047
   vertex -0.033802 0.360135 0.023234
   vertex -0.033802 0.363385 0.023234
  endloop
 endfacet
 facet normal -0.932446 0 0.361309
  outer loop
   vertex -0.033802 0.363385 0.023234
   vertex -0.033802 0.360135 0.023234
   vertex -0.032836 0.36176 0.025727
  endloop
 endfacet
 facet normal -0.885615 -0.148581 0.440011
  outer loop
   vertex -0.033802 0.360135 0.023234
   vertex -0.032457 0.358808 0.025493
   vertex -0.032836 0.36176 0.025727
  endloop
 endfacet
 facet normal -0.98539 -0 -0.170314
  outer loop
   vertex -0.033896 0.363236 0.017959
   vertex -0.033896 0.360284 0.017959
   vertex -0.03433 0.36176 0.02047
  endloop
 endfacet
 facet normal -0.984653 -0.155824 -0.0785916
  outer loop
   vertex -0.033896 0.360284 0.017959
   vertex -0.033841 0.35867 0.02047
   vertex -0.03433 0.36176 0.02047
  endloop
 endfacet
 facet normal -0.983115 -0.15558 0.0963335
  outer loop
   vertex -0.03433 0.36176 0.02047
   vertex -0.033841 0.35867 0.02047
   vertex -0.033802 0.360135 0.023234
  endloop
 endfacet
 facet normal -0.936352 -0.304548 0.174631
  outer loop
   vertex -0.033841 0.35867 0.02047
   vertex -0.032937 0.357331 0.022982
   vertex -0.033802 0.360135 0.023234
  endloop
 endfacet
 facet normal -0.886309 -0.304753 0.348685
  outer loop
   vertex -0.033802 0.360135 0.023234
   vertex -0.032937 0.357331 0.022982
   vertex -0.032457 0.358808 0.025493
  endloop
 endfacet
 facet normal -0.819189 -0.412026 0.398954
  outer loop
   vertex -0.032937 0.357331 0.022982
   vertex -0.031566 0.356503 0.024942
   vertex -0.032457 0.358808 0.025493
  endloop
 endfacet
 facet normal -0.645038 -0.651744 0.398942
  outer loop
   vertex -0.031202 0.354943 0.022982
   vertex -0.029649 0.354943 0.025493
   vertex -0.031566 0.356503 0.024942
  endloop
 endfacet
 facet normal -0.578874 -0.796508 0.174584
  outer loop
   vertex -0.030208 0.35367 0.02047
   vertex -0.028802 0.353254 0.023234
   vertex -0.031202 0.354943 0.022982
  endloop
 endfacet
 facet normal -0.452705 -0.888208 -0.0783901
  outer loop
   vertex -0.02869 0.353118 0.017958
   vertex -0.02742 0.352249 0.02047
   vertex -0.030208 0.35367 0.02047
  endloop
 endfacet
 facet normal -0.563623 -0.748876 0.348589
  outer loop
   vertex -0.031202 0.354943 0.022982
   vertex -0.028802 0.353254 0.023234
   vertex -0.029649 0.354943 0.025493
  endloop
 endfacet
 facet normal -0.415138 -0.796394 0.439791
  outer loop
   vertex -0.028802 0.353254 0.023234
   vertex -0.026959 0.35367 0.025727
   vertex -0.029649 0.354943 0.025493
  endloop
 endfacet
 facet normal -0.451986 -0.886796 0.0964489
  outer loop
   vertex -0.030208 0.35367 0.02047
   vertex -0.02742 0.352249 0.02047
   vertex -0.028802 0.353254 0.023234
  endloop
 endfacet
 facet normal -0.303796 -0.934059 0.187729
  outer loop
   vertex -0.02742 0.352249 0.02047
   vertex -0.025712 0.352249 0.023234
   vertex -0.028802 0.353254 0.023234
  endloop
 endfacet
 facet normal -0.288415 -0.886769 0.361189
  outer loop
   vertex -0.028802 0.353254 0.023234
   vertex -0.025712 0.352249 0.023234
   vertex -0.026959 0.35367 0.025727
  endloop
 endfacet
 facet normal -0.132412 -0.888171 0.440021
  outer loop
   vertex -0.025712 0.352249 0.023234
   vertex -0.024034 0.353118 0.025493
   vertex -0.026959 0.35367 0.025727
  endloop
 endfacet
 facet normal -0.304389 -0.937197 -0.170322
  outer loop
   vertex -0.02869 0.353118 0.017958
   vertex -0.025882 0.352206 0.017958
   vertex -0.02742 0.352249 0.02047
  endloop
 endfacet
 facet normal -0.155824 -0.984657 -0.07855
  outer loop
   vertex -0.025882 0.352206 0.017958
   vertex -0.02433 0.35176 0.02047
   vertex -0.02742 0.352249 0.02047
  endloop
 endfacet
 facet normal -0.155583 -0.983133 0.0961419
  outer loop
   vertex -0.02742 0.352249 0.02047
   vertex -0.02433 0.35176 0.02047
   vertex -0.025712 0.352249 0.023234
  endloop
 endfacet
 facet normal 0.000555151 -0.98466 0.174481
  outer loop
   vertex -0.02433 0.35176 0.02047
   vertex -0.022778 0.352206 0.022982
   vertex -0.025712 0.352249 0.023234
  endloop
 endfacet
 facet normal 0.0161962 -0.937175 0.348485
  outer loop
   vertex -0.025712 0.352249 0.023234
   vertex -0.022778 0.352206 0.022982
   vertex -0.024034 0.353118 0.025493
  endloop
 endfacet
 facet normal 0.138975 -0.90647 0.398746
  outer loop
   vertex -0.022778 0.352206 0.022982
   vertex -0.021566 0.353254 0.024942
   vertex -0.024034 0.353118 0.025493
  endloop
 endfacet
 facet normal 0.420269 -0.815078 0.398776
  outer loop
   vertex -0.01997 0.353118 0.022982
   vertex -0.01949 0.354594 0.025493
   vertex -0.021566 0.353254 0.024942
  endloop
 endfacet
 facet normal 0.578519 -0.796783 0.174509
  outer loop
   vertex -0.018452 0.35367 0.02047
   vertex -0.017622 0.354878 0.023234
   vertex -0.01997 0.353118 0.022982
  endloop
 endfacet
 facet normal 0.704936 -0.704936 -0.0782949
  outer loop
   vertex -0.017458 0.354943 0.017958
   vertex -0.01624 0.355882 0.02047
   vertex -0.018452 0.35367 0.02047
  endloop
 endfacet
 facet normal 0.537986 -0.767602 0.348366
  outer loop
   vertex -0.01997 0.353118 0.022982
   vertex -0.017622 0.354878 0.023234
   vertex -0.01949 0.354594 0.025493
  endloop
 endfacet
 facet normal 0.629279 -0.640767 0.439803
  outer loop
   vertex -0.017622 0.354878 0.023234
   vertex -0.017448 0.35676 0.025727
   vertex -0.01949 0.354594 0.025493
  endloop
 endfacet
 facet normal 0.703824 -0.703824 0.0962537
  outer loop
   vertex -0.018452 0.35367 0.02047
   vertex -0.01624 0.355882 0.02047
   vertex -0.017622 0.354878 0.023234
  endloop
 endfacet
 facet normal 0.794662 -0.577331 0.18762
  outer loop
   vertex -0.01624 0.355882 0.02047
   vertex -0.015712 0.357507 0.023234
   vertex -0.017622 0.354878 0.023234
  endloop
 endfacet
 facet normal 0.754436 -0.548107 0.361117
  outer loop
   vertex -0.017622 0.354878 0.023234
   vertex -0.015712 0.357507 0.023234
   vertex -0.017448 0.35676 0.025727
  endloop
 endfacet
 facet normal 0.803858 -0.400541 0.439749
  outer loop
   vertex -0.015712 0.357507 0.023234
   vertex -0.016019 0.359371 0.025493
   vertex -0.017448 0.35676 0.025727
  endloop
 endfacet
 facet normal 0.797233 -0.579229 -0.170037
  outer loop
   vertex -0.017458 0.354943 0.017958
   vertex -0.015723 0.357331 0.017958
   vertex -0.01624 0.355882 0.02047
  endloop
 endfacet
 facet normal 0.888212 -0.452708 -0.078331
  outer loop
   vertex -0.015723 0.357331 0.017958
   vertex -0.014819 0.35867 0.02047
   vertex -0.01624 0.355882 0.02047
  endloop
 endfacet
 facet normal 0.886806 -0.451991 0.0963284
  outer loop
   vertex -0.01624 0.355882 0.02047
   vertex -0.014819 0.35867 0.02047
   vertex -0.015712 0.357507 0.023234
  endloop
 endfacet
 facet normal 0.93657 -0.303801 0.17476
  outer loop
   vertex -0.014819 0.35867 0.02047
   vertex -0.014764 0.360284 0.022981
   vertex -0.015712 0.357507 0.023234
  endloop
 endfacet
 facet normal 0.89641 -0.274294 0.348155
  outer loop
   vertex -0.015712 0.357507 0.023234
   vertex -0.014764 0.360284 0.022981
   vertex -0.016019 0.359371 0.025493
  endloop
 endfacet
 facet normal 0.905177 -0.147939 0.398459
  outer loop
   vertex -0.014764 0.360284 0.022981
   vertex -0.015386 0.36176 0.024942
   vertex -0.016019 0.359371 0.025493
  endloop
 endfacet
 facet normal 0.294416 0.906493 0.302638
  outer loop
   vertex -0.01997 0.370402 0.022982
   vertex -0.022778 0.371314 0.022982
   vertex -0.021566 0.370266 0.024942
  endloop
 endfacet
 facet normal 0.452705 0.888208 0.0783901
  outer loop
   vertex -0.018452 0.36985 0.02047
   vertex -0.02124 0.371271 0.02047
   vertex -0.01997 0.370402 0.022982
  endloop
 endfacet
 facet normal 0.578874 0.796508 -0.174584
  outer loop
   vertex -0.017458 0.368577 0.017958
   vertex -0.019858 0.370266 0.017706
   vertex -0.018452 0.36985 0.02047
  endloop
 endfacet
 facet normal 0.304389 0.937197 0.170322
  outer loop
   vertex -0.01997 0.370402 0.022982
   vertex -0.02124 0.371271 0.02047
   vertex -0.022778 0.371314 0.022982
  endloop
 endfacet
 facet normal 0.155824 0.984657 0.07855
  outer loop
   vertex -0.02124 0.371271 0.02047
   vertex -0.02433 0.37176 0.02047
   vertex -0.022778 0.371314 0.022982
  endloop
 endfacet
 facet normal 0.451986 0.886796 -0.0964489
  outer loop
   vertex -0.018452 0.36985 0.02047
   vertex -0.019858 0.370266 0.017706
   vertex -0.02124 0.371271 0.02047
  endloop
 endfacet
 facet normal 0.303796 0.934059 -0.187729
  outer loop
   vertex -0.019858 0.370266 0.017706
   vertex -0.022948 0.371271 0.017706
   vertex -0.02124 0.371271 0.02047
  endloop
 endfacet
 facet normal 0.155583 0.983133 -0.0961419
  outer loop
   vertex -0.02124 0.371271 0.02047
   vertex -0.022948 0.371271 0.017706
   vertex -0.02433 0.37176 0.02047
  endloop
 endfacet
 facet normal -0.000555151 0.98466 -0.174481
  outer loop
   vertex -0.022948 0.371271 0.017706
   vertex -0.025882 0.371314 0.017958
   vertex -0.02433 0.37176 0.02047
  endloop
 endfacet
 facet normal 0.563623 0.748876 -0.348589
  outer loop
   vertex -0.017458 0.368577 0.017958
   vertex -0.019011 0.368577 0.015447
   vertex -0.019858 0.370266 0.017706
  endloop
 endfacet
 facet normal 0.415138 0.796394 -0.439791
  outer loop
   vertex -0.019011 0.368577 0.015447
   vertex -0.021701 0.36985 0.015213
   vertex -0.019858 0.370266 0.017706
  endloop
 endfacet
 facet normal 0.288415 0.886769 -0.361189
  outer loop
   vertex -0.019858 0.370266 0.017706
   vertex -0.021701 0.36985 0.015213
   vertex -0.022948 0.371271 0.017706
  endloop
 endfacet
 facet normal 0.132412 0.888171 -0.440021
  outer loop
   vertex -0.021701 0.36985 0.015213
   vertex -0.024626 0.370402 0.015447
   vertex -0.022948 0.371271 0.017706
  endloop
 endfacet
 facet normal -0.0161962 0.937175 -0.348485
  outer loop
   vertex -0.022948 0.371271 0.017706
   vertex -0.024626 0.370402 0.015447
   vertex -0.025882 0.371314 0.017958
  endloop
 endfacet
 facet normal -0.138975 0.90647 -0.398746
  outer loop
   vertex -0.024626 0.370402 0.015447
   vertex -0.027094 0.370266 0.015998
   vertex -0.025882 0.371314 0.017958
  endloop
 endfacet
 facet normal -0.771063 0.560215 0.302688
  outer loop
   vertex -0.031202 0.368577 0.022982
   vertex -0.032937 0.366189 0.022982
   vertex -0.031566 0.367017 0.024942
  endloop
 endfacet
 facet normal -0.704936 0.704936 0.0782949
  outer loop
   vertex -0.030208 0.36985 0.02047
   vertex -0.03242 0.367638 0.02047
   vertex -0.031202 0.368577 0.022982
  endloop
 endfacet
 facet normal -0.578519 0.796783 -0.174509
  outer loop
   vertex -0.02869 0.370402 0.017958
   vertex -0.031038 0.368642 0.017706
   vertex -0.030208 0.36985 0.02047
  endloop
 endfacet
 facet normal -0.797233 0.579229 0.170037
  outer loop
   vertex -0.031202 0.368577 0.022982
   vertex -0.03242 0.367638 0.02047
   vertex -0.032937 0.366189 0.022982
  endloop
 endfacet
 facet normal -0.888212 0.452708 0.078331
  outer loop
   vertex -0.03242 0.367638 0.02047
   vertex -0.033841 0.36485 0.02047
   vertex -0.032937 0.366189 0.022982
  endloop
 endfacet
 facet normal -0.703824 0.703824 -0.0962537
  outer loop
   vertex -0.030208 0.36985 0.02047
   vertex -0.031038 0.368642 0.017706
   vertex -0.03242 0.367638 0.02047
  endloop
 endfacet
 facet normal -0.794662 0.577331 -0.18762
  outer loop
   vertex -0.031038 0.368642 0.017706
   vertex -0.032948 0.366013 0.017706
   vertex -0.03242 0.367638 0.02047
  endloop
 endfacet
 facet normal -0.886806 0.451991 -0.0963284
  outer loop
   vertex -0.03242 0.367638 0.02047
   vertex -0.032948 0.366013 0.017706
   vertex -0.033841 0.36485 0.02047
  endloop
 endfacet
 facet normal -0.93657 0.303801 -0.17476
  outer loop
   vertex -0.032948 0.366013 0.017706
   vertex -0.033896 0.363236 0.017959
   vertex -0.033841 0.36485 0.02047
  endloop
 endfacet
 facet normal -0.537986 0.767602 -0.348366
  outer loop
   vertex -0.02869 0.370402 0.017958
   vertex -0.02917 0.368926 0.015447
   vertex -0.031038 0.368642 0.017706
  endloop
 endfacet
 facet normal -0.629279 0.640767 -0.439803
  outer loop
   vertex -0.02917 0.368926 0.015447
   vertex -0.031212 0.36676 0.015213
   vertex -0.031038 0.368642 0.017706
  endloop
 endfacet
 facet normal -0.754436 0.548107 -0.361117
  outer loop
   vertex -0.031038 0.368642 0.017706
   vertex -0.031212 0.36676 0.015213
   vertex -0.032948 0.366013 0.017706
  endloop
 endfacet
 facet normal -0.803858 0.400541 -0.439749
  outer loop
   vertex -0.031212 0.36676 0.015213
   vertex -0.032641 0.364149 0.015447
   vertex -0.032948 0.366013 0.017706
  endloop
 endfacet
 facet normal -0.89641 0.274294 -0.348155
  outer loop
   vertex -0.032948 0.366013 0.017706
   vertex -0.032641 0.364149 0.015447
   vertex -0.033896 0.363236 0.017959
  endloop
 endfacet
 facet normal -0.905177 0.147939 -0.398459
  outer loop
   vertex -0.032641 0.364149 0.015447
   vertex -0.033274 0.36176 0.015998
   vertex -0.033896 0.363236 0.017959
  endloop
 endfacet
 facet normal -0.771063 -0.560215 0.302688
  outer loop
   vertex -0.032937 0.357331 0.022982
   vertex -0.031202 0.354943 0.022982
   vertex -0.031566 0.356503 0.024942
  endloop
 endfacet
 facet normal -0.888212 -0.452708 0.078331
  outer loop
   vertex -0.033841 0.35867 0.02047
   vertex -0.03242 0.355882 0.02047
   vertex -0.032937 0.357331 0.022982
  endloop
 endfacet
 facet normal -0.93657 -0.303801 -0.17476
  outer loop
   vertex -0.033896 0.360284 0.017959
   vertex -0.032948 0.357507 0.017706
   vertex -0.033841 0.35867 0.02047
  endloop
 endfacet
 facet normal -0.797233 -0.579229 0.170037
  outer loop
   vertex -0.032937 0.357331 0.022982
   vertex -0.03242 0.355882 0.02047
   vertex -0.031202 0.354943 0.022982
  endloop
 endfacet
 facet normal -0.704936 -0.704936 0.0782949
  outer loop
   vertex -0.03242 0.355882 0.02047
   vertex -0.030208 0.35367 0.02047
   vertex -0.031202 0.354943 0.022982
  endloop
 endfacet
 facet normal -0.886806 -0.451991 -0.0963284
  outer loop
   vertex -0.033841 0.35867 0.02047
   vertex -0.032948 0.357507 0.017706
   vertex -0.03242 0.355882 0.02047
  endloop
 endfacet
 facet normal -0.794662 -0.577331 -0.18762
  outer loop
   vertex -0.032948 0.357507 0.017706
   vertex -0.031038 0.354878 0.017706
   vertex -0.03242 0.355882 0.02047
  endloop
 endfacet
 facet normal -0.703824 -0.703824 -0.0962537
  outer loop
   vertex -0.03242 0.355882 0.02047
   vertex -0.031038 0.354878 0.017706
   vertex -0.030208 0.35367 0.02047
  endloop
 endfacet
 facet normal -0.578519 -0.796783 -0.174509
  outer loop
   vertex -0.031038 0.354878 0.017706
   vertex -0.02869 0.353118 0.017958
   vertex -0.030208 0.35367 0.02047
  endloop
 endfacet
 facet normal -0.89641 -0.274294 -0.348155
  outer loop
   vertex -0.033896 0.360284 0.017959
   vertex -0.032641 0.359371 0.015447
   vertex -0.032948 0.357507 0.017706
  endloop
 endfacet
 facet normal -0.803858 -0.400541 -0.439749
  outer loop
   vertex -0.032641 0.359371 0.015447
   vertex -0.031212 0.35676 0.015213
   vertex -0.032948 0.357507 0.017706
  endloop
 endfacet
 facet normal -0.754436 -0.548107 -0.361117
  outer loop
   vertex -0.032948 0.357507 0.017706
   vertex -0.031212 0.35676 0.015213
   vertex -0.031038 0.354878 0.017706
  endloop
 endfacet
 facet normal -0.629279 -0.640767 -0.439803
  outer loop
   vertex -0.031212 0.35676 0.015213
   vertex -0.02917 0.354594 0.015447
   vertex -0.031038 0.354878 0.017706
  endloop
 endfacet
 facet normal -0.537986 -0.767602 -0.348366
  outer loop
   vertex -0.031038 0.354878 0.017706
   vertex -0.02917 0.354594 0.015447
   vertex -0.02869 0.353118 0.017958
  endloop
 endfacet
 facet normal -0.420269 -0.815078 -0.398776
  outer loop
   vertex -0.02917 0.354594 0.015447
   vertex -0.027094 0.353254 0.015998
   vertex -0.02869 0.353118 0.017958
  endloop
 endfacet
 facet normal 0.294416 -0.906493 0.302638
  outer loop
   vertex -0.022778 0.352206 0.022982
   vertex -0.01997 0.353118 0.022982
   vertex -0.021566 0.353254 0.024942
  endloop
 endfacet
 facet normal 0.155824 -0.984657 0.07855
  outer loop
   vertex -0.02433 0.35176 0.02047
   vertex -0.02124 0.352249 0.02047
   vertex -0.022778 0.352206 0.022982
  endloop
 endfacet
 facet normal -0.000555151 -0.98466 -0.174481
  outer loop
   vertex -0.025882 0.352206 0.017958
   vertex -0.022948 0.352249 0.017706
   vertex -0.02433 0.35176 0.02047
  endloop
 endfacet
 facet normal 0.304389 -0.937197 0.170322
  outer loop
   vertex -0.022778 0.352206 0.022982
   vertex -0.02124 0.352249 0.02047
   vertex -0.01997 0.353118 0.022982
  endloop
 endfacet
 facet normal 0.452705 -0.888208 0.0783901
  outer loop
   vertex -0.02124 0.352249 0.02047
   vertex -0.018452 0.35367 0.02047
   vertex -0.01997 0.353118 0.022982
  endloop
 endfacet
 facet normal 0.155583 -0.983133 -0.0961419
  outer loop
   vertex -0.02433 0.35176 0.02047
   vertex -0.022948 0.352249 0.017706
   vertex -0.02124 0.352249 0.02047
  endloop
 endfacet
 facet normal 0.303796 -0.934059 -0.187729
  outer loop
   vertex -0.022948 0.352249 0.017706
   vertex -0.019858 0.353254 0.017706
   vertex -0.02124 0.352249 0.02047
  endloop
 endfacet
 facet normal 0.451986 -0.886796 -0.0964489
  outer loop
   vertex -0.02124 0.352249 0.02047
   vertex -0.019858 0.353254 0.017706
   vertex -0.018452 0.35367 0.02047
  endloop
 endfacet
 facet normal 0.578874 -0.796508 -0.174584
  outer loop
   vertex -0.019858 0.353254 0.017706
   vertex -0.017458 0.354943 0.017958
   vertex -0.018452 0.35367 0.02047
  endloop
 endfacet
 facet normal -0.0161962 -0.937175 -0.348485
  outer loop
   vertex -0.025882 0.352206 0.017958
   vertex -0.024626 0.353118 0.015447
   vertex -0.022948 0.352249 0.017706
  endloop
 endfacet
 facet normal 0.132412 -0.888171 -0.440021
  outer loop
   vertex -0.024626 0.353118 0.015447
   vertex -0.021701 0.35367 0.015213
   vertex -0.022948 0.352249 0.017706
  endloop
 endfacet
 facet normal 0.288415 -0.886769 -0.361189
  outer loop
   vertex -0.022948 0.352249 0.017706
   vertex -0.021701 0.35367 0.015213
   vertex -0.019858 0.353254 0.017706
  endloop
 endfacet
 facet normal 0.415138 -0.796394 -0.439791
  outer loop
   vertex -0.021701 0.35367 0.015213
   vertex -0.019011 0.354943 0.015447
   vertex -0.019858 0.353254 0.017706
  endloop
 endfacet
 facet normal 0.563623 -0.748876 -0.348589
  outer loop
   vertex -0.019858 0.353254 0.017706
   vertex -0.019011 0.354943 0.015447
   vertex -0.017458 0.354943 0.017958
  endloop
 endfacet
 facet normal 0.645038 -0.651744 -0.398942
  outer loop
   vertex -0.019011 0.354943 0.015447
   vertex -0.017094 0.356503 0.015998
   vertex -0.017458 0.354943 0.017958
  endloop
 endfacet
 facet normal 0.9532 -0 0.302341
  outer loop
   vertex -0.014764 0.360284 0.022981
   vertex -0.014764 0.363236 0.022981
   vertex -0.015386 0.36176 0.024942
  endloop
 endfacet
 facet normal 0.984653 -0.155824 0.0785916
  outer loop
   vertex -0.014819 0.35867 0.02047
   vertex -0.01433 0.36176 0.02047
   vertex -0.014764 0.360284 0.022981
  endloop
 endfacet
 facet normal 0.936352 -0.304548 -0.174631
  outer loop
   vertex -0.015723 0.357331 0.017958
   vertex -0.014858 0.360135 0.017706
   vertex -0.014819 0.35867 0.02047
  endloop
 endfacet
 facet normal 0.98539 -0 0.170314
  outer loop
   vertex -0.014764 0.360284 0.022981
   vertex -0.01433 0.36176 0.02047
   vertex -0.014764 0.363236 0.022981
  endloop
 endfacet
 facet normal 0.984653 0.155824 0.0785916
  outer loop
   vertex -0.01433 0.36176 0.02047
   vertex -0.014819 0.36485 0.02047
   vertex -0.014764 0.363236 0.022981
  endloop
 endfacet
 facet normal 0.983115 -0.15558 -0.0963335
  outer loop
   vertex -0.014819 0.35867 0.02047
   vertex -0.014858 0.360135 0.017706
   vertex -0.01433 0.36176 0.02047
  endloop
 endfacet
 facet normal 0.982239 0 -0.187634
  outer loop
   vertex -0.014858 0.360135 0.017706
   vertex -0.014858 0.363385 0.017706
   vertex -0.01433 0.36176 0.02047
  endloop
 endfacet
 facet normal 0.983115 0.15558 -0.0963335
  outer loop
   vertex -0.01433 0.36176 0.02047
   vertex -0.014858 0.363385 0.017706
   vertex -0.014819 0.36485 0.02047
  endloop
 endfacet
 facet normal 0.936352 0.304548 -0.174631
  outer loop
   vertex -0.014858 0.363385 0.017706
   vertex -0.015723 0.366189 0.017958
   vertex -0.014819 0.36485 0.02047
  endloop
 endfacet
 facet normal 0.886309 -0.304753 -0.348685
  outer loop
   vertex -0.015723 0.357331 0.017958
   vertex -0.016203 0.358808 0.015447
   vertex -0.014858 0.360135 0.017706
  endloop
 endfacet
 facet normal 0.885615 -0.148581 -0.440011
  outer loop
   vertex -0.016203 0.358808 0.015447
   vertex -0.015824 0.36176 0.015213
   vertex -0.014858 0.360135 0.017706
  endloop
 endfacet
 facet normal 0.932446 0 -0.361309
  outer loop
   vertex -0.014858 0.360135 0.017706
   vertex -0.015824 0.36176 0.015213
   vertex -0.014858 0.363385 0.017706
  endloop
 endfacet
 facet normal 0.885615 0.148581 -0.440011
  outer loop
   vertex -0.015824 0.36176 0.015213
   vertex -0.016203 0.364712 0.015447
   vertex -0.014858 0.363385 0.017706
  endloop
 endfacet
 facet normal 0.886309 0.304753 -0.348685
  outer loop
   vertex -0.014858 0.363385 0.017706
   vertex -0.016203 0.364712 0.015447
   vertex -0.015723 0.366189 0.017958
  endloop
 endfacet
 facet normal 0.819189 0.412026 -0.398954
  outer loop
   vertex -0.016203 0.364712 0.015447
   vertex -0.017094 0.367017 0.015998
   vertex -0.015723 0.366189 0.017958
  endloop
 endfacet
 facet normal 0.61533 0.560308 -0.554459
  outer loop
   vertex -0.018235 0.366189 0.013895
   vertex -0.019011 0.368577 0.015447
   vertex -0.017094 0.367017 0.015998
  endloop
 endfacet
 facet normal 0.467426 0.452641 -0.759361
  outer loop
   vertex -0.020077 0.36485 0.011963
   vertex -0.020712 0.367638 0.013234
   vertex -0.018235 0.366189 0.013895
  endloop
 endfacet
 facet normal 0.262485 0.303841 -0.915851
  outer loop
   vertex -0.022298 0.363236 0.010791
   vertex -0.022948 0.366013 0.011526
   vertex -0.020077 0.36485 0.011963
  endloop
 endfacet
 facet normal 0.508799 0.579247 -0.636864
  outer loop
   vertex -0.018235 0.366189 0.013895
   vertex -0.020712 0.367638 0.013234
   vertex -0.019011 0.368577 0.015447
  endloop
 endfacet
 facet normal 0.38541 0.704977 -0.595371
  outer loop
   vertex -0.020712 0.367638 0.013234
   vertex -0.021701 0.36985 0.015213
   vertex -0.019011 0.368577 0.015447
  endloop
 endfacet
 facet normal 0.310374 0.451949 -0.836307
  outer loop
   vertex -0.020077 0.36485 0.011963
   vertex -0.022948 0.366013 0.011526
   vertex -0.020712 0.367638 0.013234
  endloop
 endfacet
 facet normal 0.187559 0.577248 -0.794737
  outer loop
   vertex -0.022948 0.366013 0.011526
   vertex -0.023802 0.368642 0.013234
   vertex -0.020712 0.367638 0.013234
  endloop
 endfacet
 facet normal 0.228709 0.703897 -0.672474
  outer loop
   vertex -0.020712 0.367638 0.013234
   vertex -0.023802 0.368642 0.013234
   vertex -0.021701 0.36985 0.015213
  endloop
 endfacet
 facet normal 0.102735 0.796801 -0.595444
  outer loop
   vertex -0.023802 0.368642 0.013234
   vertex -0.024626 0.370402 0.015447
   vertex -0.021701 0.36985 0.015213
  endloop
 endfacet
 facet normal 0.0891868 0.274301 -0.957499
  outer loop
   vertex -0.022298 0.363236 0.010791
   vertex -0.025106 0.364149 0.010791
   vertex -0.022948 0.366013 0.011526
  endloop
 endfacet
 facet normal -0.0336945 0.400135 -0.915836
  outer loop
   vertex -0.025106 0.364149 0.010791
   vertex -0.025955 0.36676 0.011963
   vertex -0.022948 0.366013 0.011526
  endloop
 endfacet
 facet normal 0.0146149 0.548074 -0.836302
  outer loop
   vertex -0.022948 0.366013 0.011526
   vertex -0.025955 0.36676 0.011963
   vertex -0.023802 0.368642 0.013234
  endloop
 endfacet
 facet normal -0.112009 0.640965 -0.759354
  outer loop
   vertex -0.025955 0.36676 0.011963
   vertex -0.026658 0.368926 0.013895
   vertex -0.023802 0.368642 0.013234
  endloop
 endfacet
 facet normal -0.0710868 0.767617 -0.636955
  outer loop
   vertex -0.023802 0.368642 0.013234
   vertex -0.026658 0.368926 0.013895
   vertex -0.024626 0.370402 0.015447
  endloop
 endfacet
 facet normal -0.168666 0.815046 -0.554303
  outer loop
   vertex -0.026658 0.368926 0.013895
   vertex -0.027094 0.370266 0.015998
   vertex -0.024626 0.370402 0.015447
  endloop
 endfacet
 facet normal -0.342493 0.758552 -0.554344
  outer loop
   vertex -0.026658 0.368926 0.013895
   vertex -0.02917 0.368926 0.015447
   vertex -0.027094 0.370266 0.015998
  endloop
 endfacet
 facet normal -0.286233 0.584386 -0.759318
  outer loop
   vertex -0.025955 0.36676 0.011963
   vertex -0.028802 0.367017 0.013234
   vertex -0.026658 0.368926 0.013895
  endloop
 endfacet
 facet normal -0.207851 0.343516 -0.915858
  outer loop
   vertex -0.025106 0.364149 0.010791
   vertex -0.027948 0.364389 0.011526
   vertex -0.025955 0.36676 0.011963
  endloop
 endfacet
 facet normal -0.393627 0.662685 -0.637108
  outer loop
   vertex -0.026658 0.368926 0.013895
   vertex -0.028802 0.367017 0.013234
   vertex -0.02917 0.368926 0.015447
  endloop
 endfacet
 facet normal -0.551379 0.584158 -0.595601
  outer loop
   vertex -0.028802 0.367017 0.013234
   vertex -0.031212 0.36676 0.015213
   vertex -0.02917 0.368926 0.015447
  endloop
 endfacet
 facet normal -0.334054 0.43492 -0.836213
  outer loop
   vertex -0.025955 0.36676 0.011963
   vertex -0.027948 0.364389 0.011526
   vertex -0.028802 0.367017 0.013234
  endloop
 endfacet
 facet normal -0.491058 0.356895 -0.794662
  outer loop
   vertex -0.027948 0.364389 0.011526
   vertex -0.030712 0.364389 0.013234
   vertex -0.028802 0.367017 0.013234
  endloop
 endfacet
 facet normal -0.598657 0.435097 -0.672533
  outer loop
   vertex -0.028802 0.367017 0.013234
   vertex -0.030712 0.364389 0.013234
   vertex -0.031212 0.36676 0.015213
  endloop
 endfacet
 facet normal -0.725985 0.343961 -0.595514
  outer loop
   vertex -0.030712 0.364389 0.013234
   vertex -0.032641 0.364149 0.015447
   vertex -0.031212 0.36676 0.015213
  endloop
 endfacet
 facet normal -0.233325 0.169451 -0.957521
  outer loop
   vertex -0.025106 0.364149 0.010791
   vertex -0.026841 0.36176 0.010791
   vertex -0.027948 0.364389 0.011526
  endloop
 endfacet
 facet normal -0.390899 0.0914587 -0.915878
  outer loop
   vertex -0.026841 0.36176 0.010791
   vertex -0.029587 0.36176 0.011963
   vertex -0.027948 0.364389 0.011526
  endloop
 endfacet
 facet normal -0.516783 0.183167 -0.836293
  outer loop
   vertex -0.027948 0.364389 0.011526
   vertex -0.029587 0.36176 0.011963
   vertex -0.030712 0.364389 0.013234
  endloop
 endfacet
 facet normal -0.644269 0.0913996 -0.759317
  outer loop
   vertex -0.029587 0.36176 0.011963
   vertex -0.031864 0.36176 0.013895
   vertex -0.030712 0.364389 0.013234
  endloop
 endfacet
 facet normal -0.751958 0.169318 -0.637095
  outer loop
   vertex -0.030712 0.364389 0.013234
   vertex -0.031864 0.36176 0.013895
   vertex -0.032641 0.364149 0.015447
  endloop
 endfacet
 facet normal -0.827124 0.091254 -0.554562
  outer loop
   vertex -0.031864 0.36176 0.013895
   vertex -0.033274 0.36176 0.015998
   vertex -0.032641 0.364149 0.015447
  endloop
 endfacet
 facet normal -0.827124 -0.091254 -0.554562
  outer loop
   vertex -0.031864 0.36176 0.013895
   vertex -0.032641 0.359371 0.015447
   vertex -0.033274 0.36176 0.015998
  endloop
 endfacet
 facet normal -0.644269 -0.0913996 -0.759317
  outer loop
   vertex -0.029587 0.36176 0.011963
   vertex -0.030712 0.359131 0.013234
   vertex -0.031864 0.36176 0.013895
  endloop
 endfacet
 facet normal -0.390899 -0.0914587 -0.915878
  outer loop
   vertex -0.026841 0.36176 0.010791
   vertex -0.027948 0.359131 0.011526
   vertex -0.029587 0.36176 0.011963
  endloop
 endfacet
 facet normal -0.751958 -0.169318 -0.637095
  outer loop
   vertex -0.031864 0.36176 0.013895
   vertex -0.030712 0.359131 0.013234
   vertex -0.032641 0.359371 0.015447
  endloop
 endfacet
 facet normal -0.725985 -0.343961 -0.595514
  outer loop
   vertex -0.030712 0.359131 0.013234
   vertex -0.031212 0.35676 0.015213
   vertex -0.032641 0.359371 0.015447
  endloop
 endfacet
 facet normal -0.516783 -0.183167 -0.836293
  outer loop
   vertex -0.029587 0.36176 0.011963
   vertex -0.027948 0.359131 0.011526
   vertex -0.030712 0.359131 0.013234
  endloop
 endfacet
 facet normal -0.491058 -0.356895 -0.794662
  outer loop
   vertex -0.027948 0.359131 0.011526
   vertex -0.028802 0.356503 0.013234
   vertex -0.030712 0.359131 0.013234
  endloop
 endfacet
 facet normal -0.598657 -0.435097 -0.672533
  outer loop
   vertex -0.030712 0.359131 0.013234
   vertex -0.028802 0.356503 0.013234
   vertex -0.031212 0.35676 0.015213
  endloop
 endfacet
 facet normal -0.551379 -0.584158 -0.595601
  outer loop
   vertex -0.028802 0.356503 0.013234
   vertex -0.02917 0.354594 0.015447
   vertex -0.031212 0.35676 0.015213
  endloop
 endfacet
 facet normal -0.233325 -0.169451 -0.957521
  outer loop
   vertex -0.026841 0.36176 0.010791
   vertex -0.025106 0.359371 0.010791
   vertex -0.027948 0.359131 0.011526
  endloop
 endfacet
 facet normal -0.207851 -0.343516 -0.915858
  outer loop
   vertex -0.025106 0.359371 0.010791
   vertex -0.025955 0.35676 0.011963
   vertex -0.027948 0.359131 0.011526
  endloop
 endfacet
 facet normal -0.334054 -0.43492 -0.836213
  outer loop
   vertex -0.027948 0.359131 0.011526
   vertex -0.025955 0.35676 0.011963
   vertex -0.028802 0.356503 0.013234
  endloop
 endfacet
 facet normal -0.286233 -0.584386 -0.759318
  outer loop
   vertex -0.025955 0.35676 0.011963
   vertex -0.026658 0.354594 0.013895
   vertex -0.028802 0.356503 0.013234
  endloop
 endfacet
 facet normal -0.393627 -0.662685 -0.637108
  outer loop
   vertex -0.028802 0.356503 0.013234
   vertex -0.026658 0.354594 0.013895
   vertex -0.02917 0.354594 0.015447
  endloop
 endfacet
 facet normal -0.342493 -0.758552 -0.554344
  outer loop
   vertex -0.026658 0.354594 0.013895
   vertex -0.027094 0.353254 0.015998
   vertex -0.02917 0.354594 0.015447
  endloop
 endfacet
 facet normal 0.723015 0.412034 -0.554506
  outer loop
   vertex -0.016203 0.364712 0.015447
   vertex -0.018235 0.366189 0.013895
   vertex -0.017094 0.367017 0.015998
  endloop
 endfacet
 facet normal 0.789589 0.148568 -0.59538
  outer loop
   vertex -0.015824 0.36176 0.015213
   vertex -0.017622 0.363385 0.013234
   vertex -0.016203 0.364712 0.015447
  endloop
 endfacet
 facet normal 0.789589 -0.148568 -0.59538
  outer loop
   vertex -0.016203 0.358808 0.015447
   vertex -0.017622 0.360135 0.013234
   vertex -0.015824 0.36176 0.015213
  endloop
 endfacet
 facet normal 0.708089 0.304936 -0.636886
  outer loop
   vertex -0.016203 0.364712 0.015447
   vertex -0.017622 0.363385 0.013234
   vertex -0.018235 0.366189 0.013895
  endloop
 endfacet
 facet normal 0.574948 0.304695 -0.759339
  outer loop
   vertex -0.017622 0.363385 0.013234
   vertex -0.020077 0.36485 0.011963
   vertex -0.018235 0.366189 0.013895
  endloop
 endfacet
 facet normal 0.740143 0 -0.672449
  outer loop
   vertex -0.015824 0.36176 0.015213
   vertex -0.017622 0.360135 0.013234
   vertex -0.017622 0.363385 0.013234
  endloop
 endfacet
 facet normal 0.607028 0 -0.794681
  outer loop
   vertex -0.017622 0.360135 0.013234
   vertex -0.019858 0.36176 0.011526
   vertex -0.017622 0.363385 0.013234
  endloop
 endfacet
 facet normal 0.525774 0.155534 -0.836284
  outer loop
   vertex -0.017622 0.363385 0.013234
   vertex -0.019858 0.36176 0.011526
   vertex -0.020077 0.36485 0.011963
  endloop
 endfacet
 facet normal 0.370096 0.155752 -0.915844
  outer loop
   vertex -0.019858 0.36176 0.011526
   vertex -0.022298 0.363236 0.010791
   vertex -0.020077 0.36485 0.011963
  endloop
 endfacet
 facet normal 0.708089 -0.304936 -0.636886
  outer loop
   vertex -0.016203 0.358808 0.015447
   vertex -0.018235 0.357331 0.013895
   vertex -0.017622 0.360135 0.013234
  endloop
 endfacet
 facet normal 0.574948 -0.304695 -0.759339
  outer loop
   vertex -0.018235 0.357331 0.013895
   vertex -0.020077 0.35867 0.011963
   vertex -0.017622 0.360135 0.013234
  endloop
 endfacet
 facet normal 0.525774 -0.155534 -0.836284
  outer loop
   vertex -0.017622 0.360135 0.013234
   vertex -0.020077 0.35867 0.011963
   vertex -0.019858 0.36176 0.011526
  endloop
 endfacet
 facet normal 0.370096 -0.155752 -0.915844
  outer loop
   vertex -0.020077 0.35867 0.011963
   vertex -0.022298 0.360284 0.010791
   vertex -0.019858 0.36176 0.011526
  endloop
 endfacet
 facet normal 0.288428 0 -0.957502
  outer loop
   vertex -0.019858 0.36176 0.011526
   vertex -0.022298 0.360284 0.010791
   vertex -0.022298 0.363236 0.010791
  endloop
 endfacet
 facet normal 0.156037 0 -0.987751
  outer loop
   vertex -0.022298 0.360284 0.010791
   vertex -0.02433 0.36176 0.01047
   vertex -0.022298 0.363236 0.010791
  endloop
 endfacet
 facet normal -0.168666 -0.815046 -0.554303
  outer loop
   vertex -0.026658 0.354594 0.013895
   vertex -0.024626 0.353118 0.015447
   vertex -0.027094 0.353254 0.015998
  endloop
 endfacet
 facet normal -0.112009 -0.640965 -0.759354
  outer loop
   vertex -0.025955 0.35676 0.011963
   vertex -0.023802 0.354878 0.013234
   vertex -0.026658 0.354594 0.013895
  endloop
 endfacet
 facet normal -0.0336945 -0.400135 -0.915836
  outer loop
   vertex -0.025106 0.359371 0.010791
   vertex -0.022948 0.357507 0.011526
   vertex -0.025955 0.35676 0.011963
  endloop
 endfacet
 facet normal -0.0710868 -0.767617 -0.636955
  outer loop
   vertex -0.026658 0.354594 0.013895
   vertex -0.023802 0.354878 0.013234
   vertex -0.024626 0.353118 0.015447
  endloop
 endfacet
 facet normal 0.102735 -0.796801 -0.595444
  outer loop
   vertex -0.023802 0.354878 0.013234
   vertex -0.021701 0.35367 0.015213
   vertex -0.024626 0.353118 0.015447
  endloop
 endfacet
 facet normal 0.0146149 -0.548074 -0.836302
  outer loop
   vertex -0.025955 0.35676 0.011963
   vertex -0.022948 0.357507 0.011526
   vertex -0.023802 0.354878 0.013234
  endloop
 endfacet
 facet normal 0.187559 -0.577248 -0.794737
  outer loop
   vertex -0.022948 0.357507 0.011526
   vertex -0.020712 0.355882 0.013234
   vertex -0.023802 0.354878 0.013234
  endloop
 endfacet
 facet normal 0.228709 -0.703897 -0.672474
  outer loop
   vertex -0.023802 0.354878 0.013234
   vertex -0.020712 0.355882 0.013234
   vertex -0.021701 0.35367 0.015213
  endloop
 endfacet
 facet normal 0.38541 -0.704977 -0.595371
  outer loop
   vertex -0.020712 0.355882 0.013234
   vertex -0.019011 0.354943 0.015447
   vertex -0.021701 0.35367 0.015213
  endloop
 endfacet
 facet normal 0.0891868 -0.274301 -0.957499
  outer loop
   vertex -0.025106 0.359371 0.010791
   vertex -0.022298 0.360284 0.010791
   vertex -0.022948 0.357507 0.011526
  endloop
 endfacet
 facet normal 0.262485 -0.303841 -0.915851
  outer loop
   vertex -0.022298 0.360284 0.010791
   vertex -0.020077 0.35867 0.011963
   vertex -0.022948 0.357507 0.011526
  endloop
 endfacet
 facet normal 0.310374 -0.451949 -0.836307
  outer loop
   vertex -0.022948 0.357507 0.011526
   vertex -0.020077 0.35867 0.011963
   vertex -0.020712 0.355882 0.013234
  endloop
 endfacet
 facet normal 0.467426 -0.452641 -0.759361
  outer loop
   vertex -0.020077 0.35867 0.011963
   vertex -0.018235 0.357331 0.013895
   vertex -0.020712 0.355882 0.013234
  endloop
 endfacet
 facet normal 0.508799 -0.579247 -0.636864
  outer loop
   vertex -0.020712 0.355882 0.013234
   vertex -0.018235 0.357331 0.013895
   vertex -0.019011 0.354943 0.015447
  endloop
 endfacet
 facet normal 0.61533 -0.560308 -0.554459
  outer loop
   vertex -0.018235 0.357331 0.013895
   vertex -0.017094 0.356503 0.015998
   vertex -0.019011 0.354943 0.015447
  endloop
 endfacet
endsolid ExportedfromBlender-3.5.1
