solid ExportedfromBlender-3.5.1
 facet normal 0.0482486 -0.148392 -0.987751
  outer loop
   vertex 0.02348 0.07795 0.01515
   vertex 0.025512 0.076474 0.015471
   vertex 0.022704 0.075561 0.015471
  endloop
 endfacet
 facet normal 0.723015 -0.412034 -0.554506
  outer loop
   vertex 0.030716 0.072693 0.020678
   vertex 0.029575 0.073521 0.018575
   vertex 0.031607 0.074998 0.020127
  endloop
 endfacet
 facet normal -0.126271 -0.0917039 -0.987748
  outer loop
   vertex 0.02348 0.07795 0.01515
   vertex 0.022704 0.075561 0.015471
   vertex 0.020969 0.07795 0.015471
  endloop
 endfacet
 facet normal -0.126271 0.0917039 -0.987748
  outer loop
   vertex 0.02348 0.07795 0.01515
   vertex 0.020969 0.07795 0.015471
   vertex 0.022704 0.080339 0.015471
  endloop
 endfacet
 facet normal 0.0482486 0.148392 -0.987751
  outer loop
   vertex 0.02348 0.07795 0.01515
   vertex 0.022704 0.080339 0.015471
   vertex 0.025512 0.079426 0.015471
  endloop
 endfacet
 facet normal 0.819189 -0.412026 -0.398954
  outer loop
   vertex 0.030716 0.072693 0.020678
   vertex 0.031607 0.074998 0.020127
   vertex 0.032087 0.073521 0.022638
  endloop
 endfacet
 facet normal -0.138975 -0.90647 -0.398746
  outer loop
   vertex 0.020716 0.069444 0.020678
   vertex 0.023184 0.069308 0.020127
   vertex 0.021928 0.068396 0.022638
  endloop
 endfacet
 facet normal -0.905177 -0.147939 -0.398459
  outer loop
   vertex 0.014536 0.07795 0.020678
   vertex 0.015169 0.075561 0.020127
   vertex 0.013914 0.076474 0.022639
  endloop
 endfacet
 facet normal -0.420269 0.815078 -0.398776
  outer loop
   vertex 0.020716 0.086456 0.020678
   vertex 0.01864 0.085116 0.020127
   vertex 0.01912 0.086592 0.022638
  endloop
 endfacet
 facet normal 0.645038 0.651744 -0.398942
  outer loop
   vertex 0.030716 0.083207 0.020678
   vertex 0.028799 0.084767 0.020127
   vertex 0.030352 0.084767 0.022638
  endloop
 endfacet
 facet normal 0.771063 -0.560215 -0.302688
  outer loop
   vertex 0.030716 0.072693 0.020678
   vertex 0.032087 0.073521 0.022638
   vertex 0.030352 0.071133 0.022638
  endloop
 endfacet
 facet normal -0.294416 -0.906493 -0.302638
  outer loop
   vertex 0.020716 0.069444 0.020678
   vertex 0.021928 0.068396 0.022638
   vertex 0.01912 0.069308 0.022638
  endloop
 endfacet
 facet normal -0.9532 0 -0.302341
  outer loop
   vertex 0.014536 0.07795 0.020678
   vertex 0.013914 0.076474 0.022639
   vertex 0.013914 0.079426 0.022639
  endloop
 endfacet
 facet normal -0.294416 0.906493 -0.302638
  outer loop
   vertex 0.020716 0.086456 0.020678
   vertex 0.01912 0.086592 0.022638
   vertex 0.021928 0.087504 0.022638
  endloop
 endfacet
 facet normal 0.771063 0.560215 -0.302688
  outer loop
   vertex 0.030716 0.083207 0.020678
   vertex 0.030352 0.084767 0.022638
   vertex 0.032087 0.082379 0.022638
  endloop
 endfacet
 facet normal 0.342493 -0.758552 0.554344
  outer loop
   vertex 0.026244 0.069444 0.029622
   vertex 0.02832 0.070784 0.030173
   vertex 0.025808 0.070784 0.031725
  endloop
 endfacet
 facet normal -0.61533 -0.560308 0.554459
  outer loop
   vertex 0.016244 0.072693 0.029622
   vertex 0.018161 0.071133 0.030173
   vertex 0.017385 0.073521 0.031725
  endloop
 endfacet
 facet normal -0.723015 0.412034 0.554506
  outer loop
   vertex 0.016244 0.083207 0.029622
   vertex 0.015353 0.080902 0.030173
   vertex 0.017385 0.082379 0.031725
  endloop
 endfacet
 facet normal 0.168666 0.815046 0.554303
  outer loop
   vertex 0.026244 0.086456 0.029622
   vertex 0.023776 0.086592 0.030173
   vertex 0.025808 0.085116 0.031725
  endloop
 endfacet
 facet normal 0.827124 0.091254 0.554562
  outer loop
   vertex 0.032424 0.07795 0.029622
   vertex 0.031791 0.080339 0.030173
   vertex 0.031014 0.07795 0.031725
  endloop
 endfacet
 facet normal 0.126271 0.0917039 0.987748
  outer loop
   vertex 0.025991 0.07795 0.034829
   vertex 0.024256 0.080339 0.034829
   vertex 0.02348 0.07795 0.03515
  endloop
 endfacet
 facet normal 0.390899 0.0914587 0.915878
  outer loop
   vertex 0.028737 0.07795 0.033657
   vertex 0.027098 0.080579 0.034094
   vertex 0.025991 0.07795 0.034829
  endloop
 endfacet
 facet normal 0.644269 0.0913996 0.759317
  outer loop
   vertex 0.031014 0.07795 0.031725
   vertex 0.029862 0.080579 0.032386
   vertex 0.028737 0.07795 0.033657
  endloop
 endfacet
 facet normal 0.233325 0.169451 0.957521
  outer loop
   vertex 0.025991 0.07795 0.034829
   vertex 0.027098 0.080579 0.034094
   vertex 0.024256 0.080339 0.034829
  endloop
 endfacet
 facet normal 0.207851 0.343516 0.915858
  outer loop
   vertex 0.027098 0.080579 0.034094
   vertex 0.025105 0.08295 0.033657
   vertex 0.024256 0.080339 0.034829
  endloop
 endfacet
 facet normal 0.516783 0.183167 0.836293
  outer loop
   vertex 0.028737 0.07795 0.033657
   vertex 0.029862 0.080579 0.032386
   vertex 0.027098 0.080579 0.034094
  endloop
 endfacet
 facet normal 0.491058 0.356895 0.794662
  outer loop
   vertex 0.029862 0.080579 0.032386
   vertex 0.027952 0.083207 0.032386
   vertex 0.027098 0.080579 0.034094
  endloop
 endfacet
 facet normal 0.334054 0.43492 0.836213
  outer loop
   vertex 0.027098 0.080579 0.034094
   vertex 0.027952 0.083207 0.032386
   vertex 0.025105 0.08295 0.033657
  endloop
 endfacet
 facet normal 0.286233 0.584386 0.759318
  outer loop
   vertex 0.027952 0.083207 0.032386
   vertex 0.025808 0.085116 0.031725
   vertex 0.025105 0.08295 0.033657
  endloop
 endfacet
 facet normal 0.751958 0.169318 0.637095
  outer loop
   vertex 0.031014 0.07795 0.031725
   vertex 0.031791 0.080339 0.030173
   vertex 0.029862 0.080579 0.032386
  endloop
 endfacet
 facet normal 0.725985 0.343961 0.595514
  outer loop
   vertex 0.031791 0.080339 0.030173
   vertex 0.030362 0.08295 0.030407
   vertex 0.029862 0.080579 0.032386
  endloop
 endfacet
 facet normal 0.598657 0.435097 0.672533
  outer loop
   vertex 0.029862 0.080579 0.032386
   vertex 0.030362 0.08295 0.030407
   vertex 0.027952 0.083207 0.032386
  endloop
 endfacet
 facet normal 0.551379 0.584158 0.595601
  outer loop
   vertex 0.030362 0.08295 0.030407
   vertex 0.02832 0.085116 0.030173
   vertex 0.027952 0.083207 0.032386
  endloop
 endfacet
 facet normal 0.393627 0.662685 0.637108
  outer loop
   vertex 0.027952 0.083207 0.032386
   vertex 0.02832 0.085116 0.030173
   vertex 0.025808 0.085116 0.031725
  endloop
 endfacet
 facet normal 0.342493 0.758552 0.554344
  outer loop
   vertex 0.02832 0.085116 0.030173
   vertex 0.026244 0.086456 0.029622
   vertex 0.025808 0.085116 0.031725
  endloop
 endfacet
 facet normal -0.0482486 0.148392 0.987751
  outer loop
   vertex 0.024256 0.080339 0.034829
   vertex 0.021448 0.079426 0.034829
   vertex 0.02348 0.07795 0.03515
  endloop
 endfacet
 facet normal 0.0336945 0.400135 0.915836
  outer loop
   vertex 0.025105 0.08295 0.033657
   vertex 0.022098 0.082203 0.034094
   vertex 0.024256 0.080339 0.034829
  endloop
 endfacet
 facet normal 0.112009 0.640965 0.759354
  outer loop
   vertex 0.025808 0.085116 0.031725
   vertex 0.022952 0.084832 0.032386
   vertex 0.025105 0.08295 0.033657
  endloop
 endfacet
 facet normal -0.0891868 0.274301 0.957499
  outer loop
   vertex 0.024256 0.080339 0.034829
   vertex 0.022098 0.082203 0.034094
   vertex 0.021448 0.079426 0.034829
  endloop
 endfacet
 facet normal -0.262485 0.303841 0.915851
  outer loop
   vertex 0.022098 0.082203 0.034094
   vertex 0.019227 0.08104 0.033657
   vertex 0.021448 0.079426 0.034829
  endloop
 endfacet
 facet normal -0.0146149 0.548074 0.836302
  outer loop
   vertex 0.025105 0.08295 0.033657
   vertex 0.022952 0.084832 0.032386
   vertex 0.022098 0.082203 0.034094
  endloop
 endfacet
 facet normal -0.187559 0.577248 0.794737
  outer loop
   vertex 0.022952 0.084832 0.032386
   vertex 0.019862 0.083828 0.032386
   vertex 0.022098 0.082203 0.034094
  endloop
 endfacet
 facet normal -0.310374 0.451949 0.836307
  outer loop
   vertex 0.022098 0.082203 0.034094
   vertex 0.019862 0.083828 0.032386
   vertex 0.019227 0.08104 0.033657
  endloop
 endfacet
 facet normal -0.467426 0.452641 0.759361
  outer loop
   vertex 0.019862 0.083828 0.032386
   vertex 0.017385 0.082379 0.031725
   vertex 0.019227 0.08104 0.033657
  endloop
 endfacet
 facet normal 0.0710868 0.767617 0.636955
  outer loop
   vertex 0.025808 0.085116 0.031725
   vertex 0.023776 0.086592 0.030173
   vertex 0.022952 0.084832 0.032386
  endloop
 endfacet
 facet normal -0.102735 0.796801 0.595444
  outer loop
   vertex 0.023776 0.086592 0.030173
   vertex 0.020851 0.08604 0.030407
   vertex 0.022952 0.084832 0.032386
  endloop
 endfacet
 facet normal -0.228709 0.703897 0.672474
  outer loop
   vertex 0.022952 0.084832 0.032386
   vertex 0.020851 0.08604 0.030407
   vertex 0.019862 0.083828 0.032386
  endloop
 endfacet
 facet normal -0.38541 0.704977 0.595371
  outer loop
   vertex 0.020851 0.08604 0.030407
   vertex 0.018161 0.084767 0.030173
   vertex 0.019862 0.083828 0.032386
  endloop
 endfacet
 facet normal -0.508799 0.579247 0.636864
  outer loop
   vertex 0.019862 0.083828 0.032386
   vertex 0.018161 0.084767 0.030173
   vertex 0.017385 0.082379 0.031725
  endloop
 endfacet
 facet normal -0.61533 0.560308 0.554459
  outer loop
   vertex 0.018161 0.084767 0.030173
   vertex 0.016244 0.083207 0.029622
   vertex 0.017385 0.082379 0.031725
  endloop
 endfacet
 facet normal -0.156037 0 0.987751
  outer loop
   vertex 0.021448 0.079426 0.034829
   vertex 0.021448 0.076474 0.034829
   vertex 0.02348 0.07795 0.03515
  endloop
 endfacet
 facet normal -0.370096 0.155752 0.915844
  outer loop
   vertex 0.019227 0.08104 0.033657
   vertex 0.019008 0.07795 0.034094
   vertex 0.021448 0.079426 0.034829
  endloop
 endfacet
 facet normal -0.574948 0.304695 0.759339
  outer loop
   vertex 0.017385 0.082379 0.031725
   vertex 0.016772 0.079575 0.032386
   vertex 0.019227 0.08104 0.033657
  endloop
 endfacet
 facet normal -0.288428 0 0.957502
  outer loop
   vertex 0.021448 0.079426 0.034829
   vertex 0.019008 0.07795 0.034094
   vertex 0.021448 0.076474 0.034829
  endloop
 endfacet
 facet normal -0.370096 -0.155752 0.915844
  outer loop
   vertex 0.019008 0.07795 0.034094
   vertex 0.019227 0.07486 0.033657
   vertex 0.021448 0.076474 0.034829
  endloop
 endfacet
 facet normal -0.525774 0.155534 0.836284
  outer loop
   vertex 0.019227 0.08104 0.033657
   vertex 0.016772 0.079575 0.032386
   vertex 0.019008 0.07795 0.034094
  endloop
 endfacet
 facet normal -0.607028 0 0.794681
  outer loop
   vertex 0.016772 0.079575 0.032386
   vertex 0.016772 0.076325 0.032386
   vertex 0.019008 0.07795 0.034094
  endloop
 endfacet
 facet normal -0.525774 -0.155534 0.836284
  outer loop
   vertex 0.019008 0.07795 0.034094
   vertex 0.016772 0.076325 0.032386
   vertex 0.019227 0.07486 0.033657
  endloop
 endfacet
 facet normal -0.574948 -0.304695 0.759339
  outer loop
   vertex 0.016772 0.076325 0.032386
   vertex 0.017385 0.073521 0.031725
   vertex 0.019227 0.07486 0.033657
  endloop
 endfacet
 facet normal -0.708089 0.304936 0.636886
  outer loop
   vertex 0.017385 0.082379 0.031725
   vertex 0.015353 0.080902 0.030173
   vertex 0.016772 0.079575 0.032386
  endloop
 endfacet
 facet normal -0.789589 0.148568 0.59538
  outer loop
   vertex 0.015353 0.080902 0.030173
   vertex 0.014974 0.07795 0.030407
   vertex 0.016772 0.079575 0.032386
  endloop
 endfacet
 facet normal -0.740143 0 0.672449
  outer loop
   vertex 0.016772 0.079575 0.032386
   vertex 0.014974 0.07795 0.030407
   vertex 0.016772 0.076325 0.032386
  endloop
 endfacet
 facet normal -0.789589 -0.148568 0.59538
  outer loop
   vertex 0.014974 0.07795 0.030407
   vertex 0.015353 0.074998 0.030173
   vertex 0.016772 0.076325 0.032386
  endloop
 endfacet
 facet normal -0.708089 -0.304936 0.636886
  outer loop
   vertex 0.016772 0.076325 0.032386
   vertex 0.015353 0.074998 0.030173
   vertex 0.017385 0.073521 0.031725
  endloop
 endfacet
 facet normal -0.723015 -0.412034 0.554506
  outer loop
   vertex 0.015353 0.074998 0.030173
   vertex 0.016244 0.072693 0.029622
   vertex 0.017385 0.073521 0.031725
  endloop
 endfacet
 facet normal -0.0482486 -0.148392 0.987751
  outer loop
   vertex 0.021448 0.076474 0.034829
   vertex 0.024256 0.075561 0.034829
   vertex 0.02348 0.07795 0.03515
  endloop
 endfacet
 facet normal -0.262485 -0.303841 0.915851
  outer loop
   vertex 0.019227 0.07486 0.033657
   vertex 0.022098 0.073697 0.034094
   vertex 0.021448 0.076474 0.034829
  endloop
 endfacet
 facet normal -0.467426 -0.452641 0.759361
  outer loop
   vertex 0.017385 0.073521 0.031725
   vertex 0.019862 0.072072 0.032386
   vertex 0.019227 0.07486 0.033657
  endloop
 endfacet
 facet normal -0.0891868 -0.274301 0.957499
  outer loop
   vertex 0.021448 0.076474 0.034829
   vertex 0.022098 0.073697 0.034094
   vertex 0.024256 0.075561 0.034829
  endloop
 endfacet
 facet normal 0.0336945 -0.400135 0.915836
  outer loop
   vertex 0.022098 0.073697 0.034094
   vertex 0.025105 0.07295 0.033657
   vertex 0.024256 0.075561 0.034829
  endloop
 endfacet
 facet normal -0.310374 -0.451949 0.836307
  outer loop
   vertex 0.019227 0.07486 0.033657
   vertex 0.019862 0.072072 0.032386
   vertex 0.022098 0.073697 0.034094
  endloop
 endfacet
 facet normal -0.187559 -0.577248 0.794737
  outer loop
   vertex 0.019862 0.072072 0.032386
   vertex 0.022952 0.071068 0.032386
   vertex 0.022098 0.073697 0.034094
  endloop
 endfacet
 facet normal -0.0146149 -0.548074 0.836302
  outer loop
   vertex 0.022098 0.073697 0.034094
   vertex 0.022952 0.071068 0.032386
   vertex 0.025105 0.07295 0.033657
  endloop
 endfacet
 facet normal 0.112009 -0.640965 0.759354
  outer loop
   vertex 0.022952 0.071068 0.032386
   vertex 0.025808 0.070784 0.031725
   vertex 0.025105 0.07295 0.033657
  endloop
 endfacet
 facet normal -0.508799 -0.579247 0.636864
  outer loop
   vertex 0.017385 0.073521 0.031725
   vertex 0.018161 0.071133 0.030173
   vertex 0.019862 0.072072 0.032386
  endloop
 endfacet
 facet normal -0.38541 -0.704977 0.595371
  outer loop
   vertex 0.018161 0.071133 0.030173
   vertex 0.020851 0.06986 0.030407
   vertex 0.019862 0.072072 0.032386
  endloop
 endfacet
 facet normal -0.228709 -0.703897 0.672474
  outer loop
   vertex 0.019862 0.072072 0.032386
   vertex 0.020851 0.06986 0.030407
   vertex 0.022952 0.071068 0.032386
  endloop
 endfacet
 facet normal -0.102735 -0.796801 0.595444
  outer loop
   vertex 0.020851 0.06986 0.030407
   vertex 0.023776 0.069308 0.030173
   vertex 0.022952 0.071068 0.032386
  endloop
 endfacet
 facet normal 0.0710868 -0.767617 0.636955
  outer loop
   vertex 0.022952 0.071068 0.032386
   vertex 0.023776 0.069308 0.030173
   vertex 0.025808 0.070784 0.031725
  endloop
 endfacet
 facet normal 0.168666 -0.815046 0.554303
  outer loop
   vertex 0.023776 0.069308 0.030173
   vertex 0.026244 0.069444 0.029622
   vertex 0.025808 0.070784 0.031725
  endloop
 endfacet
 facet normal 0.126271 -0.0917039 0.987748
  outer loop
   vertex 0.024256 0.075561 0.034829
   vertex 0.025991 0.07795 0.034829
   vertex 0.02348 0.07795 0.03515
  endloop
 endfacet
 facet normal 0.207851 -0.343516 0.915858
  outer loop
   vertex 0.025105 0.07295 0.033657
   vertex 0.027098 0.075321 0.034094
   vertex 0.024256 0.075561 0.034829
  endloop
 endfacet
 facet normal 0.286233 -0.584386 0.759318
  outer loop
   vertex 0.025808 0.070784 0.031725
   vertex 0.027952 0.072693 0.032386
   vertex 0.025105 0.07295 0.033657
  endloop
 endfacet
 facet normal 0.233325 -0.169451 0.957521
  outer loop
   vertex 0.024256 0.075561 0.034829
   vertex 0.027098 0.075321 0.034094
   vertex 0.025991 0.07795 0.034829
  endloop
 endfacet
 facet normal 0.390899 -0.0914587 0.915878
  outer loop
   vertex 0.027098 0.075321 0.034094
   vertex 0.028737 0.07795 0.033657
   vertex 0.025991 0.07795 0.034829
  endloop
 endfacet
 facet normal 0.334054 -0.43492 0.836213
  outer loop
   vertex 0.025105 0.07295 0.033657
   vertex 0.027952 0.072693 0.032386
   vertex 0.027098 0.075321 0.034094
  endloop
 endfacet
 facet normal 0.491058 -0.356895 0.794662
  outer loop
   vertex 0.027952 0.072693 0.032386
   vertex 0.029862 0.075321 0.032386
   vertex 0.027098 0.075321 0.034094
  endloop
 endfacet
 facet normal 0.516783 -0.183167 0.836293
  outer loop
   vertex 0.027098 0.075321 0.034094
   vertex 0.029862 0.075321 0.032386
   vertex 0.028737 0.07795 0.033657
  endloop
 endfacet
 facet normal 0.644269 -0.0913996 0.759317
  outer loop
   vertex 0.029862 0.075321 0.032386
   vertex 0.031014 0.07795 0.031725
   vertex 0.028737 0.07795 0.033657
  endloop
 endfacet
 facet normal 0.393627 -0.662685 0.637108
  outer loop
   vertex 0.025808 0.070784 0.031725
   vertex 0.02832 0.070784 0.030173
   vertex 0.027952 0.072693 0.032386
  endloop
 endfacet
 facet normal 0.551379 -0.584158 0.595601
  outer loop
   vertex 0.02832 0.070784 0.030173
   vertex 0.030362 0.07295 0.030407
   vertex 0.027952 0.072693 0.032386
  endloop
 endfacet
 facet normal 0.598657 -0.435097 0.672533
  outer loop
   vertex 0.027952 0.072693 0.032386
   vertex 0.030362 0.07295 0.030407
   vertex 0.029862 0.075321 0.032386
  endloop
 endfacet
 facet normal 0.725985 -0.343961 0.595514
  outer loop
   vertex 0.030362 0.07295 0.030407
   vertex 0.031791 0.075561 0.030173
   vertex 0.029862 0.075321 0.032386
  endloop
 endfacet
 facet normal 0.751958 -0.169318 0.637095
  outer loop
   vertex 0.029862 0.075321 0.032386
   vertex 0.031791 0.075561 0.030173
   vertex 0.031014 0.07795 0.031725
  endloop
 endfacet
 facet normal 0.827124 -0.091254 0.554562
  outer loop
   vertex 0.031791 0.075561 0.030173
   vertex 0.032424 0.07795 0.029622
   vertex 0.031014 0.07795 0.031725
  endloop
 endfacet
 facet normal 0.905177 0.147939 0.398459
  outer loop
   vertex 0.033046 0.079426 0.027661
   vertex 0.031791 0.080339 0.030173
   vertex 0.032424 0.07795 0.029622
  endloop
 endfacet
 facet normal 0.93657 0.303801 0.17476
  outer loop
   vertex 0.032991 0.08104 0.02515
   vertex 0.032098 0.082203 0.027914
   vertex 0.033046 0.079426 0.027661
  endloop
 endfacet
 facet normal 0.888212 0.452708 -0.078331
  outer loop
   vertex 0.032087 0.082379 0.022638
   vertex 0.03157 0.083828 0.02515
   vertex 0.032991 0.08104 0.02515
  endloop
 endfacet
 facet normal 0.89641 0.274294 0.348155
  outer loop
   vertex 0.033046 0.079426 0.027661
   vertex 0.032098 0.082203 0.027914
   vertex 0.031791 0.080339 0.030173
  endloop
 endfacet
 facet normal 0.803858 0.400541 0.439749
  outer loop
   vertex 0.032098 0.082203 0.027914
   vertex 0.030362 0.08295 0.030407
   vertex 0.031791 0.080339 0.030173
  endloop
 endfacet
 facet normal 0.886806 0.451991 0.0963284
  outer loop
   vertex 0.032991 0.08104 0.02515
   vertex 0.03157 0.083828 0.02515
   vertex 0.032098 0.082203 0.027914
  endloop
 endfacet
 facet normal 0.794662 0.577331 0.18762
  outer loop
   vertex 0.03157 0.083828 0.02515
   vertex 0.030188 0.084832 0.027914
   vertex 0.032098 0.082203 0.027914
  endloop
 endfacet
 facet normal 0.754436 0.548107 0.361117
  outer loop
   vertex 0.032098 0.082203 0.027914
   vertex 0.030188 0.084832 0.027914
   vertex 0.030362 0.08295 0.030407
  endloop
 endfacet
 facet normal 0.629279 0.640767 0.439803
  outer loop
   vertex 0.030188 0.084832 0.027914
   vertex 0.02832 0.085116 0.030173
   vertex 0.030362 0.08295 0.030407
  endloop
 endfacet
 facet normal 0.797233 0.579229 -0.170037
  outer loop
   vertex 0.032087 0.082379 0.022638
   vertex 0.030352 0.084767 0.022638
   vertex 0.03157 0.083828 0.02515
  endloop
 endfacet
 facet normal 0.704936 0.704936 -0.0782949
  outer loop
   vertex 0.030352 0.084767 0.022638
   vertex 0.029358 0.08604 0.02515
   vertex 0.03157 0.083828 0.02515
  endloop
 endfacet
 facet normal 0.703824 0.703824 0.0962537
  outer loop
   vertex 0.03157 0.083828 0.02515
   vertex 0.029358 0.08604 0.02515
   vertex 0.030188 0.084832 0.027914
  endloop
 endfacet
 facet normal 0.578519 0.796783 0.174509
  outer loop
   vertex 0.029358 0.08604 0.02515
   vertex 0.02784 0.086592 0.027662
   vertex 0.030188 0.084832 0.027914
  endloop
 endfacet
 facet normal 0.537986 0.767602 0.348366
  outer loop
   vertex 0.030188 0.084832 0.027914
   vertex 0.02784 0.086592 0.027662
   vertex 0.02832 0.085116 0.030173
  endloop
 endfacet
 facet normal 0.420269 0.815078 0.398776
  outer loop
   vertex 0.02784 0.086592 0.027662
   vertex 0.026244 0.086456 0.029622
   vertex 0.02832 0.085116 0.030173
  endloop
 endfacet
 facet normal 0.138975 0.90647 0.398746
  outer loop
   vertex 0.025032 0.087504 0.027662
   vertex 0.023776 0.086592 0.030173
   vertex 0.026244 0.086456 0.029622
  endloop
 endfacet
 facet normal 0.000555151 0.98466 0.174481
  outer loop
   vertex 0.02348 0.08795 0.02515
   vertex 0.022098 0.087461 0.027914
   vertex 0.025032 0.087504 0.027662
  endloop
 endfacet
 facet normal -0.155824 0.984657 -0.07855
  outer loop
   vertex 0.021928 0.087504 0.022638
   vertex 0.02039 0.087461 0.02515
   vertex 0.02348 0.08795 0.02515
  endloop
 endfacet
 facet normal 0.0161962 0.937175 0.348485
  outer loop
   vertex 0.025032 0.087504 0.027662
   vertex 0.022098 0.087461 0.027914
   vertex 0.023776 0.086592 0.030173
  endloop
 endfacet
 facet normal -0.132412 0.888171 0.440021
  outer loop
   vertex 0.022098 0.087461 0.027914
   vertex 0.020851 0.08604 0.030407
   vertex 0.023776 0.086592 0.030173
  endloop
 endfacet
 facet normal -0.155583 0.983133 0.0961419
  outer loop
   vertex 0.02348 0.08795 0.02515
   vertex 0.02039 0.087461 0.02515
   vertex 0.022098 0.087461 0.027914
  endloop
 endfacet
 facet normal -0.303796 0.934059 0.187729
  outer loop
   vertex 0.02039 0.087461 0.02515
   vertex 0.019008 0.086456 0.027914
   vertex 0.022098 0.087461 0.027914
  endloop
 endfacet
 facet normal -0.288415 0.886769 0.361189
  outer loop
   vertex 0.022098 0.087461 0.027914
   vertex 0.019008 0.086456 0.027914
   vertex 0.020851 0.08604 0.030407
  endloop
 endfacet
 facet normal -0.415138 0.796394 0.439791
  outer loop
   vertex 0.019008 0.086456 0.027914
   vertex 0.018161 0.084767 0.030173
   vertex 0.020851 0.08604 0.030407
  endloop
 endfacet
 facet normal -0.304389 0.937197 -0.170322
  outer loop
   vertex 0.021928 0.087504 0.022638
   vertex 0.01912 0.086592 0.022638
   vertex 0.02039 0.087461 0.02515
  endloop
 endfacet
 facet normal -0.452705 0.888208 -0.0783901
  outer loop
   vertex 0.01912 0.086592 0.022638
   vertex 0.017602 0.08604 0.02515
   vertex 0.02039 0.087461 0.02515
  endloop
 endfacet
 facet normal -0.451986 0.886796 0.0964489
  outer loop
   vertex 0.02039 0.087461 0.02515
   vertex 0.017602 0.08604 0.02515
   vertex 0.019008 0.086456 0.027914
  endloop
 endfacet
 facet normal -0.578874 0.796508 0.174584
  outer loop
   vertex 0.017602 0.08604 0.02515
   vertex 0.016608 0.084767 0.027662
   vertex 0.019008 0.086456 0.027914
  endloop
 endfacet
 facet normal -0.563623 0.748876 0.348589
  outer loop
   vertex 0.019008 0.086456 0.027914
   vertex 0.016608 0.084767 0.027662
   vertex 0.018161 0.084767 0.030173
  endloop
 endfacet
 facet normal -0.645038 0.651744 0.398942
  outer loop
   vertex 0.016608 0.084767 0.027662
   vertex 0.016244 0.083207 0.029622
   vertex 0.018161 0.084767 0.030173
  endloop
 endfacet
 facet normal -0.819189 0.412026 0.398954
  outer loop
   vertex 0.014873 0.082379 0.027662
   vertex 0.015353 0.080902 0.030173
   vertex 0.016244 0.083207 0.029622
  endloop
 endfacet
 facet normal -0.936352 0.304548 0.174631
  outer loop
   vertex 0.013969 0.08104 0.02515
   vertex 0.014008 0.079575 0.027914
   vertex 0.014873 0.082379 0.027662
  endloop
 endfacet
 facet normal -0.984653 0.155824 -0.0785916
  outer loop
   vertex 0.013914 0.079426 0.022639
   vertex 0.01348 0.07795 0.02515
   vertex 0.013969 0.08104 0.02515
  endloop
 endfacet
 facet normal -0.886309 0.304753 0.348685
  outer loop
   vertex 0.014873 0.082379 0.027662
   vertex 0.014008 0.079575 0.027914
   vertex 0.015353 0.080902 0.030173
  endloop
 endfacet
 facet normal -0.885615 0.148581 0.440011
  outer loop
   vertex 0.014008 0.079575 0.027914
   vertex 0.014974 0.07795 0.030407
   vertex 0.015353 0.080902 0.030173
  endloop
 endfacet
 facet normal -0.983115 0.15558 0.0963335
  outer loop
   vertex 0.013969 0.08104 0.02515
   vertex 0.01348 0.07795 0.02515
   vertex 0.014008 0.079575 0.027914
  endloop
 endfacet
 facet normal -0.982239 0 0.187634
  outer loop
   vertex 0.01348 0.07795 0.02515
   vertex 0.014008 0.076325 0.027914
   vertex 0.014008 0.079575 0.027914
  endloop
 endfacet
 facet normal -0.932446 0 0.361309
  outer loop
   vertex 0.014008 0.079575 0.027914
   vertex 0.014008 0.076325 0.027914
   vertex 0.014974 0.07795 0.030407
  endloop
 endfacet
 facet normal -0.885615 -0.148581 0.440011
  outer loop
   vertex 0.014008 0.076325 0.027914
   vertex 0.015353 0.074998 0.030173
   vertex 0.014974 0.07795 0.030407
  endloop
 endfacet
 facet normal -0.98539 -0 -0.170314
  outer loop
   vertex 0.013914 0.079426 0.022639
   vertex 0.013914 0.076474 0.022639
   vertex 0.01348 0.07795 0.02515
  endloop
 endfacet
 facet normal -0.984653 -0.155824 -0.0785916
  outer loop
   vertex 0.013914 0.076474 0.022639
   vertex 0.013969 0.07486 0.02515
   vertex 0.01348 0.07795 0.02515
  endloop
 endfacet
 facet normal -0.983115 -0.15558 0.0963335
  outer loop
   vertex 0.01348 0.07795 0.02515
   vertex 0.013969 0.07486 0.02515
   vertex 0.014008 0.076325 0.027914
  endloop
 endfacet
 facet normal -0.936352 -0.304548 0.174631
  outer loop
   vertex 0.013969 0.07486 0.02515
   vertex 0.014873 0.073521 0.027662
   vertex 0.014008 0.076325 0.027914
  endloop
 endfacet
 facet normal -0.886309 -0.304753 0.348685
  outer loop
   vertex 0.014008 0.076325 0.027914
   vertex 0.014873 0.073521 0.027662
   vertex 0.015353 0.074998 0.030173
  endloop
 endfacet
 facet normal -0.819189 -0.412026 0.398954
  outer loop
   vertex 0.014873 0.073521 0.027662
   vertex 0.016244 0.072693 0.029622
   vertex 0.015353 0.074998 0.030173
  endloop
 endfacet
 facet normal -0.645038 -0.651744 0.398942
  outer loop
   vertex 0.016608 0.071133 0.027662
   vertex 0.018161 0.071133 0.030173
   vertex 0.016244 0.072693 0.029622
  endloop
 endfacet
 facet normal -0.578874 -0.796508 0.174584
  outer loop
   vertex 0.017602 0.06986 0.02515
   vertex 0.019008 0.069444 0.027914
   vertex 0.016608 0.071133 0.027662
  endloop
 endfacet
 facet normal -0.452705 -0.888208 -0.0783901
  outer loop
   vertex 0.01912 0.069308 0.022638
   vertex 0.02039 0.068439 0.02515
   vertex 0.017602 0.06986 0.02515
  endloop
 endfacet
 facet normal -0.563623 -0.748876 0.348589
  outer loop
   vertex 0.016608 0.071133 0.027662
   vertex 0.019008 0.069444 0.027914
   vertex 0.018161 0.071133 0.030173
  endloop
 endfacet
 facet normal -0.415138 -0.796394 0.439791
  outer loop
   vertex 0.019008 0.069444 0.027914
   vertex 0.020851 0.06986 0.030407
   vertex 0.018161 0.071133 0.030173
  endloop
 endfacet
 facet normal -0.451986 -0.886796 0.0964489
  outer loop
   vertex 0.017602 0.06986 0.02515
   vertex 0.02039 0.068439 0.02515
   vertex 0.019008 0.069444 0.027914
  endloop
 endfacet
 facet normal -0.303796 -0.934059 0.187729
  outer loop
   vertex 0.02039 0.068439 0.02515
   vertex 0.022098 0.068439 0.027914
   vertex 0.019008 0.069444 0.027914
  endloop
 endfacet
 facet normal -0.288415 -0.886769 0.361189
  outer loop
   vertex 0.019008 0.069444 0.027914
   vertex 0.022098 0.068439 0.027914
   vertex 0.020851 0.06986 0.030407
  endloop
 endfacet
 facet normal -0.132412 -0.888171 0.440021
  outer loop
   vertex 0.022098 0.068439 0.027914
   vertex 0.023776 0.069308 0.030173
   vertex 0.020851 0.06986 0.030407
  endloop
 endfacet
 facet normal -0.304389 -0.937197 -0.170322
  outer loop
   vertex 0.01912 0.069308 0.022638
   vertex 0.021928 0.068396 0.022638
   vertex 0.02039 0.068439 0.02515
  endloop
 endfacet
 facet normal -0.155824 -0.984657 -0.07855
  outer loop
   vertex 0.021928 0.068396 0.022638
   vertex 0.02348 0.06795 0.02515
   vertex 0.02039 0.068439 0.02515
  endloop
 endfacet
 facet normal -0.155583 -0.983133 0.0961419
  outer loop
   vertex 0.02039 0.068439 0.02515
   vertex 0.02348 0.06795 0.02515
   vertex 0.022098 0.068439 0.027914
  endloop
 endfacet
 facet normal 0.000555151 -0.98466 0.174481
  outer loop
   vertex 0.02348 0.06795 0.02515
   vertex 0.025032 0.068396 0.027662
   vertex 0.022098 0.068439 0.027914
  endloop
 endfacet
 facet normal 0.0161962 -0.937175 0.348485
  outer loop
   vertex 0.022098 0.068439 0.027914
   vertex 0.025032 0.068396 0.027662
   vertex 0.023776 0.069308 0.030173
  endloop
 endfacet
 facet normal 0.138975 -0.90647 0.398746
  outer loop
   vertex 0.025032 0.068396 0.027662
   vertex 0.026244 0.069444 0.029622
   vertex 0.023776 0.069308 0.030173
  endloop
 endfacet
 facet normal 0.420269 -0.815078 0.398776
  outer loop
   vertex 0.02784 0.069308 0.027662
   vertex 0.02832 0.070784 0.030173
   vertex 0.026244 0.069444 0.029622
  endloop
 endfacet
 facet normal 0.578519 -0.796783 0.174509
  outer loop
   vertex 0.029358 0.06986 0.02515
   vertex 0.030188 0.071068 0.027914
   vertex 0.02784 0.069308 0.027662
  endloop
 endfacet
 facet normal 0.704936 -0.704936 -0.0782949
  outer loop
   vertex 0.030352 0.071133 0.022638
   vertex 0.03157 0.072072 0.02515
   vertex 0.029358 0.06986 0.02515
  endloop
 endfacet
 facet normal 0.537986 -0.767602 0.348366
  outer loop
   vertex 0.02784 0.069308 0.027662
   vertex 0.030188 0.071068 0.027914
   vertex 0.02832 0.070784 0.030173
  endloop
 endfacet
 facet normal 0.629279 -0.640767 0.439803
  outer loop
   vertex 0.030188 0.071068 0.027914
   vertex 0.030362 0.07295 0.030407
   vertex 0.02832 0.070784 0.030173
  endloop
 endfacet
 facet normal 0.703824 -0.703824 0.0962537
  outer loop
   vertex 0.029358 0.06986 0.02515
   vertex 0.03157 0.072072 0.02515
   vertex 0.030188 0.071068 0.027914
  endloop
 endfacet
 facet normal 0.794662 -0.577331 0.18762
  outer loop
   vertex 0.03157 0.072072 0.02515
   vertex 0.032098 0.073697 0.027914
   vertex 0.030188 0.071068 0.027914
  endloop
 endfacet
 facet normal 0.754436 -0.548107 0.361117
  outer loop
   vertex 0.030188 0.071068 0.027914
   vertex 0.032098 0.073697 0.027914
   vertex 0.030362 0.07295 0.030407
  endloop
 endfacet
 facet normal 0.803858 -0.400541 0.439749
  outer loop
   vertex 0.032098 0.073697 0.027914
   vertex 0.031791 0.075561 0.030173
   vertex 0.030362 0.07295 0.030407
  endloop
 endfacet
 facet normal 0.797233 -0.579229 -0.170037
  outer loop
   vertex 0.030352 0.071133 0.022638
   vertex 0.032087 0.073521 0.022638
   vertex 0.03157 0.072072 0.02515
  endloop
 endfacet
 facet normal 0.888212 -0.452708 -0.078331
  outer loop
   vertex 0.032087 0.073521 0.022638
   vertex 0.032991 0.07486 0.02515
   vertex 0.03157 0.072072 0.02515
  endloop
 endfacet
 facet normal 0.886806 -0.451991 0.0963284
  outer loop
   vertex 0.03157 0.072072 0.02515
   vertex 0.032991 0.07486 0.02515
   vertex 0.032098 0.073697 0.027914
  endloop
 endfacet
 facet normal 0.93657 -0.303801 0.17476
  outer loop
   vertex 0.032991 0.07486 0.02515
   vertex 0.033046 0.076474 0.027661
   vertex 0.032098 0.073697 0.027914
  endloop
 endfacet
 facet normal 0.89641 -0.274294 0.348155
  outer loop
   vertex 0.032098 0.073697 0.027914
   vertex 0.033046 0.076474 0.027661
   vertex 0.031791 0.075561 0.030173
  endloop
 endfacet
 facet normal 0.905177 -0.147939 0.398459
  outer loop
   vertex 0.033046 0.076474 0.027661
   vertex 0.032424 0.07795 0.029622
   vertex 0.031791 0.075561 0.030173
  endloop
 endfacet
 facet normal 0.294416 0.906493 0.302638
  outer loop
   vertex 0.02784 0.086592 0.027662
   vertex 0.025032 0.087504 0.027662
   vertex 0.026244 0.086456 0.029622
  endloop
 endfacet
 facet normal 0.452705 0.888208 0.0783901
  outer loop
   vertex 0.029358 0.08604 0.02515
   vertex 0.02657 0.087461 0.02515
   vertex 0.02784 0.086592 0.027662
  endloop
 endfacet
 facet normal 0.578874 0.796508 -0.174584
  outer loop
   vertex 0.030352 0.084767 0.022638
   vertex 0.027952 0.086456 0.022386
   vertex 0.029358 0.08604 0.02515
  endloop
 endfacet
 facet normal 0.304389 0.937197 0.170322
  outer loop
   vertex 0.02784 0.086592 0.027662
   vertex 0.02657 0.087461 0.02515
   vertex 0.025032 0.087504 0.027662
  endloop
 endfacet
 facet normal 0.155824 0.984657 0.07855
  outer loop
   vertex 0.02657 0.087461 0.02515
   vertex 0.02348 0.08795 0.02515
   vertex 0.025032 0.087504 0.027662
  endloop
 endfacet
 facet normal 0.451986 0.886796 -0.0964489
  outer loop
   vertex 0.029358 0.08604 0.02515
   vertex 0.027952 0.086456 0.022386
   vertex 0.02657 0.087461 0.02515
  endloop
 endfacet
 facet normal 0.303796 0.934059 -0.187729
  outer loop
   vertex 0.027952 0.086456 0.022386
   vertex 0.024862 0.087461 0.022386
   vertex 0.02657 0.087461 0.02515
  endloop
 endfacet
 facet normal 0.155583 0.983133 -0.0961419
  outer loop
   vertex 0.02657 0.087461 0.02515
   vertex 0.024862 0.087461 0.022386
   vertex 0.02348 0.08795 0.02515
  endloop
 endfacet
 facet normal -0.000555151 0.98466 -0.174481
  outer loop
   vertex 0.024862 0.087461 0.022386
   vertex 0.021928 0.087504 0.022638
   vertex 0.02348 0.08795 0.02515
  endloop
 endfacet
 facet normal 0.563623 0.748876 -0.348589
  outer loop
   vertex 0.030352 0.084767 0.022638
   vertex 0.028799 0.084767 0.020127
   vertex 0.027952 0.086456 0.022386
  endloop
 endfacet
 facet normal 0.415138 0.796394 -0.439791
  outer loop
   vertex 0.028799 0.084767 0.020127
   vertex 0.026109 0.08604 0.019893
   vertex 0.027952 0.086456 0.022386
  endloop
 endfacet
 facet normal 0.288415 0.886769 -0.361189
  outer loop
   vertex 0.027952 0.086456 0.022386
   vertex 0.026109 0.08604 0.019893
   vertex 0.024862 0.087461 0.022386
  endloop
 endfacet
 facet normal 0.132412 0.888171 -0.440021
  outer loop
   vertex 0.026109 0.08604 0.019893
   vertex 0.023184 0.086592 0.020127
   vertex 0.024862 0.087461 0.022386
  endloop
 endfacet
 facet normal -0.0161962 0.937175 -0.348485
  outer loop
   vertex 0.024862 0.087461 0.022386
   vertex 0.023184 0.086592 0.020127
   vertex 0.021928 0.087504 0.022638
  endloop
 endfacet
 facet normal -0.138975 0.90647 -0.398746
  outer loop
   vertex 0.023184 0.086592 0.020127
   vertex 0.020716 0.086456 0.020678
   vertex 0.021928 0.087504 0.022638
  endloop
 endfacet
 facet normal -0.771063 0.560215 0.302688
  outer loop
   vertex 0.016608 0.084767 0.027662
   vertex 0.014873 0.082379 0.027662
   vertex 0.016244 0.083207 0.029622
  endloop
 endfacet
 facet normal -0.704936 0.704936 0.0782949
  outer loop
   vertex 0.017602 0.08604 0.02515
   vertex 0.01539 0.083828 0.02515
   vertex 0.016608 0.084767 0.027662
  endloop
 endfacet
 facet normal -0.578519 0.796783 -0.174509
  outer loop
   vertex 0.01912 0.086592 0.022638
   vertex 0.016772 0.084832 0.022386
   vertex 0.017602 0.08604 0.02515
  endloop
 endfacet
 facet normal -0.797233 0.579229 0.170037
  outer loop
   vertex 0.016608 0.084767 0.027662
   vertex 0.01539 0.083828 0.02515
   vertex 0.014873 0.082379 0.027662
  endloop
 endfacet
 facet normal -0.888212 0.452708 0.078331
  outer loop
   vertex 0.01539 0.083828 0.02515
   vertex 0.013969 0.08104 0.02515
   vertex 0.014873 0.082379 0.027662
  endloop
 endfacet
 facet normal -0.703824 0.703824 -0.0962537
  outer loop
   vertex 0.017602 0.08604 0.02515
   vertex 0.016772 0.084832 0.022386
   vertex 0.01539 0.083828 0.02515
  endloop
 endfacet
 facet normal -0.794662 0.577331 -0.18762
  outer loop
   vertex 0.016772 0.084832 0.022386
   vertex 0.014862 0.082203 0.022386
   vertex 0.01539 0.083828 0.02515
  endloop
 endfacet
 facet normal -0.886806 0.451991 -0.0963284
  outer loop
   vertex 0.01539 0.083828 0.02515
   vertex 0.014862 0.082203 0.022386
   vertex 0.013969 0.08104 0.02515
  endloop
 endfacet
 facet normal -0.93657 0.303801 -0.17476
  outer loop
   vertex 0.014862 0.082203 0.022386
   vertex 0.013914 0.079426 0.022639
   vertex 0.013969 0.08104 0.02515
  endloop
 endfacet
 facet normal -0.537986 0.767602 -0.348366
  outer loop
   vertex 0.01912 0.086592 0.022638
   vertex 0.01864 0.085116 0.020127
   vertex 0.016772 0.084832 0.022386
  endloop
 endfacet
 facet normal -0.629279 0.640767 -0.439803
  outer loop
   vertex 0.01864 0.085116 0.020127
   vertex 0.016598 0.08295 0.019893
   vertex 0.016772 0.084832 0.022386
  endloop
 endfacet
 facet normal -0.754436 0.548107 -0.361117
  outer loop
   vertex 0.016772 0.084832 0.022386
   vertex 0.016598 0.08295 0.019893
   vertex 0.014862 0.082203 0.022386
  endloop
 endfacet
 facet normal -0.803858 0.400541 -0.439749
  outer loop
   vertex 0.016598 0.08295 0.019893
   vertex 0.015169 0.080339 0.020127
   vertex 0.014862 0.082203 0.022386
  endloop
 endfacet
 facet normal -0.89641 0.274294 -0.348155
  outer loop
   vertex 0.014862 0.082203 0.022386
   vertex 0.015169 0.080339 0.020127
   vertex 0.013914 0.079426 0.022639
  endloop
 endfacet
 facet normal -0.905177 0.147939 -0.398459
  outer loop
   vertex 0.015169 0.080339 0.020127
   vertex 0.014536 0.07795 0.020678
   vertex 0.013914 0.079426 0.022639
  endloop
 endfacet
 facet normal -0.771063 -0.560215 0.302688
  outer loop
   vertex 0.014873 0.073521 0.027662
   vertex 0.016608 0.071133 0.027662
   vertex 0.016244 0.072693 0.029622
  endloop
 endfacet
 facet normal -0.888212 -0.452708 0.078331
  outer loop
   vertex 0.013969 0.07486 0.02515
   vertex 0.01539 0.072072 0.02515
   vertex 0.014873 0.073521 0.027662
  endloop
 endfacet
 facet normal -0.93657 -0.303801 -0.17476
  outer loop
   vertex 0.013914 0.076474 0.022639
   vertex 0.014862 0.073697 0.022386
   vertex 0.013969 0.07486 0.02515
  endloop
 endfacet
 facet normal -0.797233 -0.579229 0.170037
  outer loop
   vertex 0.014873 0.073521 0.027662
   vertex 0.01539 0.072072 0.02515
   vertex 0.016608 0.071133 0.027662
  endloop
 endfacet
 facet normal -0.704936 -0.704936 0.0782949
  outer loop
   vertex 0.01539 0.072072 0.02515
   vertex 0.017602 0.06986 0.02515
   vertex 0.016608 0.071133 0.027662
  endloop
 endfacet
 facet normal -0.886806 -0.451991 -0.0963284
  outer loop
   vertex 0.013969 0.07486 0.02515
   vertex 0.014862 0.073697 0.022386
   vertex 0.01539 0.072072 0.02515
  endloop
 endfacet
 facet normal -0.794662 -0.577331 -0.18762
  outer loop
   vertex 0.014862 0.073697 0.022386
   vertex 0.016772 0.071068 0.022386
   vertex 0.01539 0.072072 0.02515
  endloop
 endfacet
 facet normal -0.703824 -0.703824 -0.0962537
  outer loop
   vertex 0.01539 0.072072 0.02515
   vertex 0.016772 0.071068 0.022386
   vertex 0.017602 0.06986 0.02515
  endloop
 endfacet
 facet normal -0.578519 -0.796783 -0.174509
  outer loop
   vertex 0.016772 0.071068 0.022386
   vertex 0.01912 0.069308 0.022638
   vertex 0.017602 0.06986 0.02515
  endloop
 endfacet
 facet normal -0.89641 -0.274294 -0.348155
  outer loop
   vertex 0.013914 0.076474 0.022639
   vertex 0.015169 0.075561 0.020127
   vertex 0.014862 0.073697 0.022386
  endloop
 endfacet
 facet normal -0.803858 -0.400541 -0.439749
  outer loop
   vertex 0.015169 0.075561 0.020127
   vertex 0.016598 0.07295 0.019893
   vertex 0.014862 0.073697 0.022386
  endloop
 endfacet
 facet normal -0.754436 -0.548107 -0.361117
  outer loop
   vertex 0.014862 0.073697 0.022386
   vertex 0.016598 0.07295 0.019893
   vertex 0.016772 0.071068 0.022386
  endloop
 endfacet
 facet normal -0.629279 -0.640767 -0.439803
  outer loop
   vertex 0.016598 0.07295 0.019893
   vertex 0.01864 0.070784 0.020127
   vertex 0.016772 0.071068 0.022386
  endloop
 endfacet
 facet normal -0.537986 -0.767602 -0.348366
  outer loop
   vertex 0.016772 0.071068 0.022386
   vertex 0.01864 0.070784 0.020127
   vertex 0.01912 0.069308 0.022638
  endloop
 endfacet
 facet normal -0.420269 -0.815078 -0.398776
  outer loop
   vertex 0.01864 0.070784 0.020127
   vertex 0.020716 0.069444 0.020678
   vertex 0.01912 0.069308 0.022638
  endloop
 endfacet
 facet normal 0.294416 -0.906493 0.302638
  outer loop
   vertex 0.025032 0.068396 0.027662
   vertex 0.02784 0.069308 0.027662
   vertex 0.026244 0.069444 0.029622
  endloop
 endfacet
 facet normal 0.155824 -0.984657 0.07855
  outer loop
   vertex 0.02348 0.06795 0.02515
   vertex 0.02657 0.068439 0.02515
   vertex 0.025032 0.068396 0.027662
  endloop
 endfacet
 facet normal -0.000555151 -0.98466 -0.174481
  outer loop
   vertex 0.021928 0.068396 0.022638
   vertex 0.024862 0.068439 0.022386
   vertex 0.02348 0.06795 0.02515
  endloop
 endfacet
 facet normal 0.304389 -0.937197 0.170322
  outer loop
   vertex 0.025032 0.068396 0.027662
   vertex 0.02657 0.068439 0.02515
   vertex 0.02784 0.069308 0.027662
  endloop
 endfacet
 facet normal 0.452705 -0.888208 0.0783901
  outer loop
   vertex 0.02657 0.068439 0.02515
   vertex 0.029358 0.06986 0.02515
   vertex 0.02784 0.069308 0.027662
  endloop
 endfacet
 facet normal 0.155583 -0.983133 -0.0961419
  outer loop
   vertex 0.02348 0.06795 0.02515
   vertex 0.024862 0.068439 0.022386
   vertex 0.02657 0.068439 0.02515
  endloop
 endfacet
 facet normal 0.303796 -0.934059 -0.187729
  outer loop
   vertex 0.024862 0.068439 0.022386
   vertex 0.027952 0.069444 0.022386
   vertex 0.02657 0.068439 0.02515
  endloop
 endfacet
 facet normal 0.451986 -0.886796 -0.0964489
  outer loop
   vertex 0.02657 0.068439 0.02515
   vertex 0.027952 0.069444 0.022386
   vertex 0.029358 0.06986 0.02515
  endloop
 endfacet
 facet normal 0.578874 -0.796508 -0.174584
  outer loop
   vertex 0.027952 0.069444 0.022386
   vertex 0.030352 0.071133 0.022638
   vertex 0.029358 0.06986 0.02515
  endloop
 endfacet
 facet normal -0.0161962 -0.937175 -0.348485
  outer loop
   vertex 0.021928 0.068396 0.022638
   vertex 0.023184 0.069308 0.020127
   vertex 0.024862 0.068439 0.022386
  endloop
 endfacet
 facet normal 0.132412 -0.888171 -0.440021
  outer loop
   vertex 0.023184 0.069308 0.020127
   vertex 0.026109 0.06986 0.019893
   vertex 0.024862 0.068439 0.022386
  endloop
 endfacet
 facet normal 0.288415 -0.886769 -0.361189
  outer loop
   vertex 0.024862 0.068439 0.022386
   vertex 0.026109 0.06986 0.019893
   vertex 0.027952 0.069444 0.022386
  endloop
 endfacet
 facet normal 0.415138 -0.796394 -0.439791
  outer loop
   vertex 0.026109 0.06986 0.019893
   vertex 0.028799 0.071133 0.020127
   vertex 0.027952 0.069444 0.022386
  endloop
 endfacet
 facet normal 0.563623 -0.748876 -0.348589
  outer loop
   vertex 0.027952 0.069444 0.022386
   vertex 0.028799 0.071133 0.020127
   vertex 0.030352 0.071133 0.022638
  endloop
 endfacet
 facet normal 0.645038 -0.651744 -0.398942
  outer loop
   vertex 0.028799 0.071133 0.020127
   vertex 0.030716 0.072693 0.020678
   vertex 0.030352 0.071133 0.022638
  endloop
 endfacet
 facet normal 0.9532 -0 0.302341
  outer loop
   vertex 0.033046 0.076474 0.027661
   vertex 0.033046 0.079426 0.027661
   vertex 0.032424 0.07795 0.029622
  endloop
 endfacet
 facet normal 0.984653 -0.155824 0.0785916
  outer loop
   vertex 0.032991 0.07486 0.02515
   vertex 0.03348 0.07795 0.02515
   vertex 0.033046 0.076474 0.027661
  endloop
 endfacet
 facet normal 0.936352 -0.304548 -0.174631
  outer loop
   vertex 0.032087 0.073521 0.022638
   vertex 0.032952 0.076325 0.022386
   vertex 0.032991 0.07486 0.02515
  endloop
 endfacet
 facet normal 0.98539 -0 0.170314
  outer loop
   vertex 0.033046 0.076474 0.027661
   vertex 0.03348 0.07795 0.02515
   vertex 0.033046 0.079426 0.027661
  endloop
 endfacet
 facet normal 0.984653 0.155824 0.0785916
  outer loop
   vertex 0.03348 0.07795 0.02515
   vertex 0.032991 0.08104 0.02515
   vertex 0.033046 0.079426 0.027661
  endloop
 endfacet
 facet normal 0.983115 -0.15558 -0.0963335
  outer loop
   vertex 0.032991 0.07486 0.02515
   vertex 0.032952 0.076325 0.022386
   vertex 0.03348 0.07795 0.02515
  endloop
 endfacet
 facet normal 0.982239 0 -0.187634
  outer loop
   vertex 0.032952 0.076325 0.022386
   vertex 0.032952 0.079575 0.022386
   vertex 0.03348 0.07795 0.02515
  endloop
 endfacet
 facet normal 0.983115 0.15558 -0.0963335
  outer loop
   vertex 0.03348 0.07795 0.02515
   vertex 0.032952 0.079575 0.022386
   vertex 0.032991 0.08104 0.02515
  endloop
 endfacet
 facet normal 0.936352 0.304548 -0.174631
  outer loop
   vertex 0.032952 0.079575 0.022386
   vertex 0.032087 0.082379 0.022638
   vertex 0.032991 0.08104 0.02515
  endloop
 endfacet
 facet normal 0.886309 -0.304753 -0.348685
  outer loop
   vertex 0.032087 0.073521 0.022638
   vertex 0.031607 0.074998 0.020127
   vertex 0.032952 0.076325 0.022386
  endloop
 endfacet
 facet normal 0.885615 -0.148581 -0.440011
  outer loop
   vertex 0.031607 0.074998 0.020127
   vertex 0.031986 0.07795 0.019893
   vertex 0.032952 0.076325 0.022386
  endloop
 endfacet
 facet normal 0.932446 0 -0.361309
  outer loop
   vertex 0.032952 0.076325 0.022386
   vertex 0.031986 0.07795 0.019893
   vertex 0.032952 0.079575 0.022386
  endloop
 endfacet
 facet normal 0.885615 0.148581 -0.440011
  outer loop
   vertex 0.031986 0.07795 0.019893
   vertex 0.031607 0.080902 0.020127
   vertex 0.032952 0.079575 0.022386
  endloop
 endfacet
 facet normal 0.886309 0.304753 -0.348685
  outer loop
   vertex 0.032952 0.079575 0.022386
   vertex 0.031607 0.080902 0.020127
   vertex 0.032087 0.082379 0.022638
  endloop
 endfacet
 facet normal 0.819189 0.412026 -0.398954
  outer loop
   vertex 0.031607 0.080902 0.020127
   vertex 0.030716 0.083207 0.020678
   vertex 0.032087 0.082379 0.022638
  endloop
 endfacet
 facet normal 0.61533 0.560308 -0.554459
  outer loop
   vertex 0.029575 0.082379 0.018575
   vertex 0.028799 0.084767 0.020127
   vertex 0.030716 0.083207 0.020678
  endloop
 endfacet
 facet normal 0.467426 0.452641 -0.759361
  outer loop
   vertex 0.027733 0.08104 0.016643
   vertex 0.027098 0.083828 0.017914
   vertex 0.029575 0.082379 0.018575
  endloop
 endfacet
 facet normal 0.262485 0.303841 -0.915851
  outer loop
   vertex 0.025512 0.079426 0.015471
   vertex 0.024862 0.082203 0.016206
   vertex 0.027733 0.08104 0.016643
  endloop
 endfacet
 facet normal 0.508799 0.579247 -0.636864
  outer loop
   vertex 0.029575 0.082379 0.018575
   vertex 0.027098 0.083828 0.017914
   vertex 0.028799 0.084767 0.020127
  endloop
 endfacet
 facet normal 0.38541 0.704977 -0.595371
  outer loop
   vertex 0.027098 0.083828 0.017914
   vertex 0.026109 0.08604 0.019893
   vertex 0.028799 0.084767 0.020127
  endloop
 endfacet
 facet normal 0.310374 0.451949 -0.836307
  outer loop
   vertex 0.027733 0.08104 0.016643
   vertex 0.024862 0.082203 0.016206
   vertex 0.027098 0.083828 0.017914
  endloop
 endfacet
 facet normal 0.187559 0.577248 -0.794737
  outer loop
   vertex 0.024862 0.082203 0.016206
   vertex 0.024008 0.084832 0.017914
   vertex 0.027098 0.083828 0.017914
  endloop
 endfacet
 facet normal 0.228709 0.703897 -0.672474
  outer loop
   vertex 0.027098 0.083828 0.017914
   vertex 0.024008 0.084832 0.017914
   vertex 0.026109 0.08604 0.019893
  endloop
 endfacet
 facet normal 0.102735 0.796801 -0.595444
  outer loop
   vertex 0.024008 0.084832 0.017914
   vertex 0.023184 0.086592 0.020127
   vertex 0.026109 0.08604 0.019893
  endloop
 endfacet
 facet normal 0.0891868 0.274301 -0.957499
  outer loop
   vertex 0.025512 0.079426 0.015471
   vertex 0.022704 0.080339 0.015471
   vertex 0.024862 0.082203 0.016206
  endloop
 endfacet
 facet normal -0.0336945 0.400135 -0.915836
  outer loop
   vertex 0.022704 0.080339 0.015471
   vertex 0.021855 0.08295 0.016643
   vertex 0.024862 0.082203 0.016206
  endloop
 endfacet
 facet normal 0.0146149 0.548074 -0.836302
  outer loop
   vertex 0.024862 0.082203 0.016206
   vertex 0.021855 0.08295 0.016643
   vertex 0.024008 0.084832 0.017914
  endloop
 endfacet
 facet normal -0.112009 0.640965 -0.759354
  outer loop
   vertex 0.021855 0.08295 0.016643
   vertex 0.021152 0.085116 0.018575
   vertex 0.024008 0.084832 0.017914
  endloop
 endfacet
 facet normal -0.0710868 0.767617 -0.636955
  outer loop
   vertex 0.024008 0.084832 0.017914
   vertex 0.021152 0.085116 0.018575
   vertex 0.023184 0.086592 0.020127
  endloop
 endfacet
 facet normal -0.168666 0.815046 -0.554303
  outer loop
   vertex 0.021152 0.085116 0.018575
   vertex 0.020716 0.086456 0.020678
   vertex 0.023184 0.086592 0.020127
  endloop
 endfacet
 facet normal -0.342493 0.758552 -0.554344
  outer loop
   vertex 0.021152 0.085116 0.018575
   vertex 0.01864 0.085116 0.020127
   vertex 0.020716 0.086456 0.020678
  endloop
 endfacet
 facet normal -0.286233 0.584386 -0.759318
  outer loop
   vertex 0.021855 0.08295 0.016643
   vertex 0.019008 0.083207 0.017914
   vertex 0.021152 0.085116 0.018575
  endloop
 endfacet
 facet normal -0.207851 0.343516 -0.915858
  outer loop
   vertex 0.022704 0.080339 0.015471
   vertex 0.019862 0.080579 0.016206
   vertex 0.021855 0.08295 0.016643
  endloop
 endfacet
 facet normal -0.393627 0.662685 -0.637108
  outer loop
   vertex 0.021152 0.085116 0.018575
   vertex 0.019008 0.083207 0.017914
   vertex 0.01864 0.085116 0.020127
  endloop
 endfacet
 facet normal -0.551379 0.584158 -0.595601
  outer loop
   vertex 0.019008 0.083207 0.017914
   vertex 0.016598 0.08295 0.019893
   vertex 0.01864 0.085116 0.020127
  endloop
 endfacet
 facet normal -0.334054 0.43492 -0.836213
  outer loop
   vertex 0.021855 0.08295 0.016643
   vertex 0.019862 0.080579 0.016206
   vertex 0.019008 0.083207 0.017914
  endloop
 endfacet
 facet normal -0.491058 0.356895 -0.794662
  outer loop
   vertex 0.019862 0.080579 0.016206
   vertex 0.017098 0.080579 0.017914
   vertex 0.019008 0.083207 0.017914
  endloop
 endfacet
 facet normal -0.598657 0.435097 -0.672533
  outer loop
   vertex 0.019008 0.083207 0.017914
   vertex 0.017098 0.080579 0.017914
   vertex 0.016598 0.08295 0.019893
  endloop
 endfacet
 facet normal -0.725985 0.343961 -0.595514
  outer loop
   vertex 0.017098 0.080579 0.017914
   vertex 0.015169 0.080339 0.020127
   vertex 0.016598 0.08295 0.019893
  endloop
 endfacet
 facet normal -0.233325 0.169451 -0.957521
  outer loop
   vertex 0.022704 0.080339 0.015471
   vertex 0.020969 0.07795 0.015471
   vertex 0.019862 0.080579 0.016206
  endloop
 endfacet
 facet normal -0.390899 0.0914587 -0.915878
  outer loop
   vertex 0.020969 0.07795 0.015471
   vertex 0.018223 0.07795 0.016643
   vertex 0.019862 0.080579 0.016206
  endloop
 endfacet
 facet normal -0.516783 0.183167 -0.836293
  outer loop
   vertex 0.019862 0.080579 0.016206
   vertex 0.018223 0.07795 0.016643
   vertex 0.017098 0.080579 0.017914
  endloop
 endfacet
 facet normal -0.644269 0.0913996 -0.759317
  outer loop
   vertex 0.018223 0.07795 0.016643
   vertex 0.015946 0.07795 0.018575
   vertex 0.017098 0.080579 0.017914
  endloop
 endfacet
 facet normal -0.751958 0.169318 -0.637095
  outer loop
   vertex 0.017098 0.080579 0.017914
   vertex 0.015946 0.07795 0.018575
   vertex 0.015169 0.080339 0.020127
  endloop
 endfacet
 facet normal -0.827124 0.091254 -0.554562
  outer loop
   vertex 0.015946 0.07795 0.018575
   vertex 0.014536 0.07795 0.020678
   vertex 0.015169 0.080339 0.020127
  endloop
 endfacet
 facet normal -0.827124 -0.091254 -0.554562
  outer loop
   vertex 0.015946 0.07795 0.018575
   vertex 0.015169 0.075561 0.020127
   vertex 0.014536 0.07795 0.020678
  endloop
 endfacet
 facet normal -0.644269 -0.0913996 -0.759317
  outer loop
   vertex 0.018223 0.07795 0.016643
   vertex 0.017098 0.075321 0.017914
   vertex 0.015946 0.07795 0.018575
  endloop
 endfacet
 facet normal -0.390899 -0.0914587 -0.915878
  outer loop
   vertex 0.020969 0.07795 0.015471
   vertex 0.019862 0.075321 0.016206
   vertex 0.018223 0.07795 0.016643
  endloop
 endfacet
 facet normal -0.751958 -0.169318 -0.637095
  outer loop
   vertex 0.015946 0.07795 0.018575
   vertex 0.017098 0.075321 0.017914
   vertex 0.015169 0.075561 0.020127
  endloop
 endfacet
 facet normal -0.725985 -0.343961 -0.595514
  outer loop
   vertex 0.017098 0.075321 0.017914
   vertex 0.016598 0.07295 0.019893
   vertex 0.015169 0.075561 0.020127
  endloop
 endfacet
 facet normal -0.516783 -0.183167 -0.836293
  outer loop
   vertex 0.018223 0.07795 0.016643
   vertex 0.019862 0.075321 0.016206
   vertex 0.017098 0.075321 0.017914
  endloop
 endfacet
 facet normal -0.491058 -0.356895 -0.794662
  outer loop
   vertex 0.019862 0.075321 0.016206
   vertex 0.019008 0.072693 0.017914
   vertex 0.017098 0.075321 0.017914
  endloop
 endfacet
 facet normal -0.598657 -0.435097 -0.672533
  outer loop
   vertex 0.017098 0.075321 0.017914
   vertex 0.019008 0.072693 0.017914
   vertex 0.016598 0.07295 0.019893
  endloop
 endfacet
 facet normal -0.551379 -0.584158 -0.595601
  outer loop
   vertex 0.019008 0.072693 0.017914
   vertex 0.01864 0.070784 0.020127
   vertex 0.016598 0.07295 0.019893
  endloop
 endfacet
 facet normal -0.233325 -0.169451 -0.957521
  outer loop
   vertex 0.020969 0.07795 0.015471
   vertex 0.022704 0.075561 0.015471
   vertex 0.019862 0.075321 0.016206
  endloop
 endfacet
 facet normal -0.207851 -0.343516 -0.915858
  outer loop
   vertex 0.022704 0.075561 0.015471
   vertex 0.021855 0.07295 0.016643
   vertex 0.019862 0.075321 0.016206
  endloop
 endfacet
 facet normal -0.334054 -0.43492 -0.836213
  outer loop
   vertex 0.019862 0.075321 0.016206
   vertex 0.021855 0.07295 0.016643
   vertex 0.019008 0.072693 0.017914
  endloop
 endfacet
 facet normal -0.286233 -0.584386 -0.759318
  outer loop
   vertex 0.021855 0.07295 0.016643
   vertex 0.021152 0.070784 0.018575
   vertex 0.019008 0.072693 0.017914
  endloop
 endfacet
 facet normal -0.393627 -0.662685 -0.637108
  outer loop
   vertex 0.019008 0.072693 0.017914
   vertex 0.021152 0.070784 0.018575
   vertex 0.01864 0.070784 0.020127
  endloop
 endfacet
 facet normal -0.342493 -0.758552 -0.554344
  outer loop
   vertex 0.021152 0.070784 0.018575
   vertex 0.020716 0.069444 0.020678
   vertex 0.01864 0.070784 0.020127
  endloop
 endfacet
 facet normal 0.723015 0.412034 -0.554506
  outer loop
   vertex 0.031607 0.080902 0.020127
   vertex 0.029575 0.082379 0.018575
   vertex 0.030716 0.083207 0.020678
  endloop
 endfacet
 facet normal 0.789589 0.148568 -0.59538
  outer loop
   vertex 0.031986 0.07795 0.019893
   vertex 0.030188 0.079575 0.017914
   vertex 0.031607 0.080902 0.020127
  endloop
 endfacet
 facet normal 0.789589 -0.148568 -0.59538
  outer loop
   vertex 0.031607 0.074998 0.020127
   vertex 0.030188 0.076325 0.017914
   vertex 0.031986 0.07795 0.019893
  endloop
 endfacet
 facet normal 0.708089 0.304936 -0.636886
  outer loop
   vertex 0.031607 0.080902 0.020127
   vertex 0.030188 0.079575 0.017914
   vertex 0.029575 0.082379 0.018575
  endloop
 endfacet
 facet normal 0.574948 0.304695 -0.759339
  outer loop
   vertex 0.030188 0.079575 0.017914
   vertex 0.027733 0.08104 0.016643
   vertex 0.029575 0.082379 0.018575
  endloop
 endfacet
 facet normal 0.740143 0 -0.672449
  outer loop
   vertex 0.031986 0.07795 0.019893
   vertex 0.030188 0.076325 0.017914
   vertex 0.030188 0.079575 0.017914
  endloop
 endfacet
 facet normal 0.607028 0 -0.794681
  outer loop
   vertex 0.030188 0.076325 0.017914
   vertex 0.027952 0.07795 0.016206
   vertex 0.030188 0.079575 0.017914
  endloop
 endfacet
 facet normal 0.525774 0.155534 -0.836284
  outer loop
   vertex 0.030188 0.079575 0.017914
   vertex 0.027952 0.07795 0.016206
   vertex 0.027733 0.08104 0.016643
  endloop
 endfacet
 facet normal 0.370096 0.155752 -0.915844
  outer loop
   vertex 0.027952 0.07795 0.016206
   vertex 0.025512 0.079426 0.015471
   vertex 0.027733 0.08104 0.016643
  endloop
 endfacet
 facet normal 0.708089 -0.304936 -0.636886
  outer loop
   vertex 0.031607 0.074998 0.020127
   vertex 0.029575 0.073521 0.018575
   vertex 0.030188 0.076325 0.017914
  endloop
 endfacet
 facet normal 0.574948 -0.304695 -0.759339
  outer loop
   vertex 0.029575 0.073521 0.018575
   vertex 0.027733 0.07486 0.016643
   vertex 0.030188 0.076325 0.017914
  endloop
 endfacet
 facet normal 0.525774 -0.155534 -0.836284
  outer loop
   vertex 0.030188 0.076325 0.017914
   vertex 0.027733 0.07486 0.016643
   vertex 0.027952 0.07795 0.016206
  endloop
 endfacet
 facet normal 0.370096 -0.155752 -0.915844
  outer loop
   vertex 0.027733 0.07486 0.016643
   vertex 0.025512 0.076474 0.015471
   vertex 0.027952 0.07795 0.016206
  endloop
 endfacet
 facet normal 0.288428 0 -0.957502
  outer loop
   vertex 0.027952 0.07795 0.016206
   vertex 0.025512 0.076474 0.015471
   vertex 0.025512 0.079426 0.015471
  endloop
 endfacet
 facet normal 0.156037 0 -0.987751
  outer loop
   vertex 0.025512 0.076474 0.015471
   vertex 0.02348 0.07795 0.01515
   vertex 0.025512 0.079426 0.015471
  endloop
 endfacet
 facet normal -0.168666 -0.815046 -0.554303
  outer loop
   vertex 0.021152 0.070784 0.018575
   vertex 0.023184 0.069308 0.020127
   vertex 0.020716 0.069444 0.020678
  endloop
 endfacet
 facet normal -0.112009 -0.640965 -0.759354
  outer loop
   vertex 0.021855 0.07295 0.016643
   vertex 0.024008 0.071068 0.017914
   vertex 0.021152 0.070784 0.018575
  endloop
 endfacet
 facet normal -0.0336945 -0.400135 -0.915836
  outer loop
   vertex 0.022704 0.075561 0.015471
   vertex 0.024862 0.073697 0.016206
   vertex 0.021855 0.07295 0.016643
  endloop
 endfacet
 facet normal -0.0710868 -0.767617 -0.636955
  outer loop
   vertex 0.021152 0.070784 0.018575
   vertex 0.024008 0.071068 0.017914
   vertex 0.023184 0.069308 0.020127
  endloop
 endfacet
 facet normal 0.102735 -0.796801 -0.595444
  outer loop
   vertex 0.024008 0.071068 0.017914
   vertex 0.026109 0.06986 0.019893
   vertex 0.023184 0.069308 0.020127
  endloop
 endfacet
 facet normal 0.0146149 -0.548074 -0.836302
  outer loop
   vertex 0.021855 0.07295 0.016643
   vertex 0.024862 0.073697 0.016206
   vertex 0.024008 0.071068 0.017914
  endloop
 endfacet
 facet normal 0.187559 -0.577248 -0.794737
  outer loop
   vertex 0.024862 0.073697 0.016206
   vertex 0.027098 0.072072 0.017914
   vertex 0.024008 0.071068 0.017914
  endloop
 endfacet
 facet normal 0.228709 -0.703897 -0.672474
  outer loop
   vertex 0.024008 0.071068 0.017914
   vertex 0.027098 0.072072 0.017914
   vertex 0.026109 0.06986 0.019893
  endloop
 endfacet
 facet normal 0.38541 -0.704977 -0.595371
  outer loop
   vertex 0.027098 0.072072 0.017914
   vertex 0.028799 0.071133 0.020127
   vertex 0.026109 0.06986 0.019893
  endloop
 endfacet
 facet normal 0.0891868 -0.274301 -0.957499
  outer loop
   vertex 0.022704 0.075561 0.015471
   vertex 0.025512 0.076474 0.015471
   vertex 0.024862 0.073697 0.016206
  endloop
 endfacet
 facet normal 0.262485 -0.303841 -0.915851
  outer loop
   vertex 0.025512 0.076474 0.015471
   vertex 0.027733 0.07486 0.016643
   vertex 0.024862 0.073697 0.016206
  endloop
 endfacet
 facet normal 0.310374 -0.451949 -0.836307
  outer loop
   vertex 0.024862 0.073697 0.016206
   vertex 0.027733 0.07486 0.016643
   vertex 0.027098 0.072072 0.017914
  endloop
 endfacet
 facet normal 0.467426 -0.452641 -0.759361
  outer loop
   vertex 0.027733 0.07486 0.016643
   vertex 0.029575 0.073521 0.018575
   vertex 0.027098 0.072072 0.017914
  endloop
 endfacet
 facet normal 0.508799 -0.579247 -0.636864
  outer loop
   vertex 0.027098 0.072072 0.017914
   vertex 0.029575 0.073521 0.018575
   vertex 0.028799 0.071133 0.020127
  endloop
 endfacet
 facet normal 0.61533 -0.560308 -0.554459
  outer loop
   vertex 0.029575 0.073521 0.018575
   vertex 0.030716 0.072693 0.020678
   vertex 0.028799 0.071133 0.020127
  endloop
 endfacet
endsolid ExportedfromBlender-3.5.1
