solid ExportedfromBlender-3.5.1
 facet normal 0.0482486 -0.148392 -0.987751
  outer loop
   vertex 0.02012 0.23252 -0.03326
   vertex 0.022152 0.231044 -0.032939
   vertex 0.019344 0.230131 -0.032939
  endloop
 endfacet
 facet normal 0.723015 -0.412034 -0.554506
  outer loop
   vertex 0.027356 0.227263 -0.027732
   vertex 0.026215 0.228091 -0.029835
   vertex 0.028247 0.229568 -0.028283
  endloop
 endfacet
 facet normal -0.126271 -0.0917039 -0.987748
  outer loop
   vertex 0.02012 0.23252 -0.03326
   vertex 0.019344 0.230131 -0.032939
   vertex 0.017609 0.23252 -0.032939
  endloop
 endfacet
 facet normal -0.126271 0.0917039 -0.987748
  outer loop
   vertex 0.02012 0.23252 -0.03326
   vertex 0.017609 0.23252 -0.032939
   vertex 0.019344 0.234909 -0.032939
  endloop
 endfacet
 facet normal 0.0482486 0.148392 -0.987751
  outer loop
   vertex 0.02012 0.23252 -0.03326
   vertex 0.019344 0.234909 -0.032939
   vertex 0.022152 0.233996 -0.032939
  endloop
 endfacet
 facet normal 0.819189 -0.412026 -0.398954
  outer loop
   vertex 0.027356 0.227263 -0.027732
   vertex 0.028247 0.229568 -0.028283
   vertex 0.028727 0.228091 -0.025772
  endloop
 endfacet
 facet normal -0.138975 -0.90647 -0.398746
  outer loop
   vertex 0.017356 0.224014 -0.027732
   vertex 0.019824 0.223878 -0.028283
   vertex 0.018568 0.222966 -0.025772
  endloop
 endfacet
 facet normal -0.905177 -0.147939 -0.398459
  outer loop
   vertex 0.011176 0.23252 -0.027732
   vertex 0.011809 0.230131 -0.028283
   vertex 0.010554 0.231044 -0.025771
  endloop
 endfacet
 facet normal -0.420269 0.815078 -0.398776
  outer loop
   vertex 0.017356 0.241026 -0.027732
   vertex 0.01528 0.239686 -0.028283
   vertex 0.01576 0.241162 -0.025772
  endloop
 endfacet
 facet normal 0.645038 0.651744 -0.398942
  outer loop
   vertex 0.027356 0.237777 -0.027732
   vertex 0.025439 0.239337 -0.028283
   vertex 0.026992 0.239337 -0.025772
  endloop
 endfacet
 facet normal 0.771063 -0.560215 -0.302688
  outer loop
   vertex 0.027356 0.227263 -0.027732
   vertex 0.028727 0.228091 -0.025772
   vertex 0.026992 0.225703 -0.025772
  endloop
 endfacet
 facet normal -0.294416 -0.906493 -0.302638
  outer loop
   vertex 0.017356 0.224014 -0.027732
   vertex 0.018568 0.222966 -0.025772
   vertex 0.01576 0.223878 -0.025772
  endloop
 endfacet
 facet normal -0.9532 0 -0.302341
  outer loop
   vertex 0.011176 0.23252 -0.027732
   vertex 0.010554 0.231044 -0.025771
   vertex 0.010554 0.233996 -0.025771
  endloop
 endfacet
 facet normal -0.294416 0.906493 -0.302638
  outer loop
   vertex 0.017356 0.241026 -0.027732
   vertex 0.01576 0.241162 -0.025772
   vertex 0.018568 0.242074 -0.025772
  endloop
 endfacet
 facet normal 0.771063 0.560215 -0.302688
  outer loop
   vertex 0.027356 0.237777 -0.027732
   vertex 0.026992 0.239337 -0.025772
   vertex 0.028727 0.236949 -0.025772
  endloop
 endfacet
 facet normal 0.342493 -0.758552 0.554344
  outer loop
   vertex 0.022884 0.224014 -0.018788
   vertex 0.02496 0.225354 -0.018237
   vertex 0.022448 0.225354 -0.016685
  endloop
 endfacet
 facet normal -0.61533 -0.560308 0.554459
  outer loop
   vertex 0.012884 0.227263 -0.018788
   vertex 0.014801 0.225703 -0.018237
   vertex 0.014025 0.228091 -0.016685
  endloop
 endfacet
 facet normal -0.723015 0.412034 0.554506
  outer loop
   vertex 0.012884 0.237777 -0.018788
   vertex 0.011993 0.235472 -0.018237
   vertex 0.014025 0.236949 -0.016685
  endloop
 endfacet
 facet normal 0.168666 0.815046 0.554303
  outer loop
   vertex 0.022884 0.241026 -0.018788
   vertex 0.020416 0.241162 -0.018237
   vertex 0.022448 0.239686 -0.016685
  endloop
 endfacet
 facet normal 0.827124 0.091254 0.554562
  outer loop
   vertex 0.029064 0.23252 -0.018788
   vertex 0.028431 0.234909 -0.018237
   vertex 0.027654 0.23252 -0.016685
  endloop
 endfacet
 facet normal 0.126271 0.0917039 0.987748
  outer loop
   vertex 0.022631 0.23252 -0.013581
   vertex 0.020896 0.234909 -0.013581
   vertex 0.02012 0.23252 -0.01326
  endloop
 endfacet
 facet normal 0.390899 0.0914587 0.915878
  outer loop
   vertex 0.025377 0.23252 -0.014753
   vertex 0.023738 0.235149 -0.014316
   vertex 0.022631 0.23252 -0.013581
  endloop
 endfacet
 facet normal 0.644269 0.0913996 0.759317
  outer loop
   vertex 0.027654 0.23252 -0.016685
   vertex 0.026502 0.235149 -0.016024
   vertex 0.025377 0.23252 -0.014753
  endloop
 endfacet
 facet normal 0.233325 0.169451 0.957521
  outer loop
   vertex 0.022631 0.23252 -0.013581
   vertex 0.023738 0.235149 -0.014316
   vertex 0.020896 0.234909 -0.013581
  endloop
 endfacet
 facet normal 0.207851 0.343516 0.915858
  outer loop
   vertex 0.023738 0.235149 -0.014316
   vertex 0.021745 0.23752 -0.014753
   vertex 0.020896 0.234909 -0.013581
  endloop
 endfacet
 facet normal 0.516783 0.183167 0.836293
  outer loop
   vertex 0.025377 0.23252 -0.014753
   vertex 0.026502 0.235149 -0.016024
   vertex 0.023738 0.235149 -0.014316
  endloop
 endfacet
 facet normal 0.491058 0.356895 0.794662
  outer loop
   vertex 0.026502 0.235149 -0.016024
   vertex 0.024592 0.237777 -0.016024
   vertex 0.023738 0.235149 -0.014316
  endloop
 endfacet
 facet normal 0.334054 0.43492 0.836213
  outer loop
   vertex 0.023738 0.235149 -0.014316
   vertex 0.024592 0.237777 -0.016024
   vertex 0.021745 0.23752 -0.014753
  endloop
 endfacet
 facet normal 0.286233 0.584386 0.759318
  outer loop
   vertex 0.024592 0.237777 -0.016024
   vertex 0.022448 0.239686 -0.016685
   vertex 0.021745 0.23752 -0.014753
  endloop
 endfacet
 facet normal 0.751958 0.169318 0.637095
  outer loop
   vertex 0.027654 0.23252 -0.016685
   vertex 0.028431 0.234909 -0.018237
   vertex 0.026502 0.235149 -0.016024
  endloop
 endfacet
 facet normal 0.725985 0.343961 0.595514
  outer loop
   vertex 0.028431 0.234909 -0.018237
   vertex 0.027002 0.23752 -0.018003
   vertex 0.026502 0.235149 -0.016024
  endloop
 endfacet
 facet normal 0.598657 0.435097 0.672533
  outer loop
   vertex 0.026502 0.235149 -0.016024
   vertex 0.027002 0.23752 -0.018003
   vertex 0.024592 0.237777 -0.016024
  endloop
 endfacet
 facet normal 0.551379 0.584158 0.595601
  outer loop
   vertex 0.027002 0.23752 -0.018003
   vertex 0.02496 0.239686 -0.018237
   vertex 0.024592 0.237777 -0.016024
  endloop
 endfacet
 facet normal 0.393627 0.662685 0.637108
  outer loop
   vertex 0.024592 0.237777 -0.016024
   vertex 0.02496 0.239686 -0.018237
   vertex 0.022448 0.239686 -0.016685
  endloop
 endfacet
 facet normal 0.342493 0.758552 0.554344
  outer loop
   vertex 0.02496 0.239686 -0.018237
   vertex 0.022884 0.241026 -0.018788
   vertex 0.022448 0.239686 -0.016685
  endloop
 endfacet
 facet normal -0.0482486 0.148392 0.987751
  outer loop
   vertex 0.020896 0.234909 -0.013581
   vertex 0.018088 0.233996 -0.013581
   vertex 0.02012 0.23252 -0.01326
  endloop
 endfacet
 facet normal 0.0336945 0.400135 0.915836
  outer loop
   vertex 0.021745 0.23752 -0.014753
   vertex 0.018738 0.236773 -0.014316
   vertex 0.020896 0.234909 -0.013581
  endloop
 endfacet
 facet normal 0.112009 0.640965 0.759354
  outer loop
   vertex 0.022448 0.239686 -0.016685
   vertex 0.019592 0.239402 -0.016024
   vertex 0.021745 0.23752 -0.014753
  endloop
 endfacet
 facet normal -0.0891868 0.274301 0.957499
  outer loop
   vertex 0.020896 0.234909 -0.013581
   vertex 0.018738 0.236773 -0.014316
   vertex 0.018088 0.233996 -0.013581
  endloop
 endfacet
 facet normal -0.262485 0.303841 0.915851
  outer loop
   vertex 0.018738 0.236773 -0.014316
   vertex 0.015867 0.23561 -0.014753
   vertex 0.018088 0.233996 -0.013581
  endloop
 endfacet
 facet normal -0.0146149 0.548074 0.836302
  outer loop
   vertex 0.021745 0.23752 -0.014753
   vertex 0.019592 0.239402 -0.016024
   vertex 0.018738 0.236773 -0.014316
  endloop
 endfacet
 facet normal -0.187559 0.577248 0.794737
  outer loop
   vertex 0.019592 0.239402 -0.016024
   vertex 0.016502 0.238398 -0.016024
   vertex 0.018738 0.236773 -0.014316
  endloop
 endfacet
 facet normal -0.310374 0.451949 0.836307
  outer loop
   vertex 0.018738 0.236773 -0.014316
   vertex 0.016502 0.238398 -0.016024
   vertex 0.015867 0.23561 -0.014753
  endloop
 endfacet
 facet normal -0.467426 0.452641 0.759361
  outer loop
   vertex 0.016502 0.238398 -0.016024
   vertex 0.014025 0.236949 -0.016685
   vertex 0.015867 0.23561 -0.014753
  endloop
 endfacet
 facet normal 0.0710868 0.767617 0.636955
  outer loop
   vertex 0.022448 0.239686 -0.016685
   vertex 0.020416 0.241162 -0.018237
   vertex 0.019592 0.239402 -0.016024
  endloop
 endfacet
 facet normal -0.102735 0.796801 0.595444
  outer loop
   vertex 0.020416 0.241162 -0.018237
   vertex 0.017491 0.24061 -0.018003
   vertex 0.019592 0.239402 -0.016024
  endloop
 endfacet
 facet normal -0.228709 0.703897 0.672474
  outer loop
   vertex 0.019592 0.239402 -0.016024
   vertex 0.017491 0.24061 -0.018003
   vertex 0.016502 0.238398 -0.016024
  endloop
 endfacet
 facet normal -0.38541 0.704977 0.595371
  outer loop
   vertex 0.017491 0.24061 -0.018003
   vertex 0.014801 0.239337 -0.018237
   vertex 0.016502 0.238398 -0.016024
  endloop
 endfacet
 facet normal -0.508799 0.579247 0.636864
  outer loop
   vertex 0.016502 0.238398 -0.016024
   vertex 0.014801 0.239337 -0.018237
   vertex 0.014025 0.236949 -0.016685
  endloop
 endfacet
 facet normal -0.61533 0.560308 0.554459
  outer loop
   vertex 0.014801 0.239337 -0.018237
   vertex 0.012884 0.237777 -0.018788
   vertex 0.014025 0.236949 -0.016685
  endloop
 endfacet
 facet normal -0.156037 0 0.987751
  outer loop
   vertex 0.018088 0.233996 -0.013581
   vertex 0.018088 0.231044 -0.013581
   vertex 0.02012 0.23252 -0.01326
  endloop
 endfacet
 facet normal -0.370096 0.155752 0.915844
  outer loop
   vertex 0.015867 0.23561 -0.014753
   vertex 0.015648 0.23252 -0.014316
   vertex 0.018088 0.233996 -0.013581
  endloop
 endfacet
 facet normal -0.574948 0.304695 0.759339
  outer loop
   vertex 0.014025 0.236949 -0.016685
   vertex 0.013412 0.234145 -0.016024
   vertex 0.015867 0.23561 -0.014753
  endloop
 endfacet
 facet normal -0.288428 0 0.957502
  outer loop
   vertex 0.018088 0.233996 -0.013581
   vertex 0.015648 0.23252 -0.014316
   vertex 0.018088 0.231044 -0.013581
  endloop
 endfacet
 facet normal -0.370096 -0.155752 0.915844
  outer loop
   vertex 0.015648 0.23252 -0.014316
   vertex 0.015867 0.22943 -0.014753
   vertex 0.018088 0.231044 -0.013581
  endloop
 endfacet
 facet normal -0.525774 0.155534 0.836284
  outer loop
   vertex 0.015867 0.23561 -0.014753
   vertex 0.013412 0.234145 -0.016024
   vertex 0.015648 0.23252 -0.014316
  endloop
 endfacet
 facet normal -0.607028 0 0.794681
  outer loop
   vertex 0.013412 0.234145 -0.016024
   vertex 0.013412 0.230895 -0.016024
   vertex 0.015648 0.23252 -0.014316
  endloop
 endfacet
 facet normal -0.525774 -0.155534 0.836284
  outer loop
   vertex 0.015648 0.23252 -0.014316
   vertex 0.013412 0.230895 -0.016024
   vertex 0.015867 0.22943 -0.014753
  endloop
 endfacet
 facet normal -0.574948 -0.304695 0.759339
  outer loop
   vertex 0.013412 0.230895 -0.016024
   vertex 0.014025 0.228091 -0.016685
   vertex 0.015867 0.22943 -0.014753
  endloop
 endfacet
 facet normal -0.708089 0.304936 0.636886
  outer loop
   vertex 0.014025 0.236949 -0.016685
   vertex 0.011993 0.235472 -0.018237
   vertex 0.013412 0.234145 -0.016024
  endloop
 endfacet
 facet normal -0.789589 0.148568 0.59538
  outer loop
   vertex 0.011993 0.235472 -0.018237
   vertex 0.011614 0.23252 -0.018003
   vertex 0.013412 0.234145 -0.016024
  endloop
 endfacet
 facet normal -0.740143 0 0.672449
  outer loop
   vertex 0.013412 0.234145 -0.016024
   vertex 0.011614 0.23252 -0.018003
   vertex 0.013412 0.230895 -0.016024
  endloop
 endfacet
 facet normal -0.789589 -0.148568 0.59538
  outer loop
   vertex 0.011614 0.23252 -0.018003
   vertex 0.011993 0.229568 -0.018237
   vertex 0.013412 0.230895 -0.016024
  endloop
 endfacet
 facet normal -0.708089 -0.304936 0.636886
  outer loop
   vertex 0.013412 0.230895 -0.016024
   vertex 0.011993 0.229568 -0.018237
   vertex 0.014025 0.228091 -0.016685
  endloop
 endfacet
 facet normal -0.723015 -0.412034 0.554506
  outer loop
   vertex 0.011993 0.229568 -0.018237
   vertex 0.012884 0.227263 -0.018788
   vertex 0.014025 0.228091 -0.016685
  endloop
 endfacet
 facet normal -0.0482486 -0.148392 0.987751
  outer loop
   vertex 0.018088 0.231044 -0.013581
   vertex 0.020896 0.230131 -0.013581
   vertex 0.02012 0.23252 -0.01326
  endloop
 endfacet
 facet normal -0.262485 -0.303841 0.915851
  outer loop
   vertex 0.015867 0.22943 -0.014753
   vertex 0.018738 0.228267 -0.014316
   vertex 0.018088 0.231044 -0.013581
  endloop
 endfacet
 facet normal -0.467426 -0.452641 0.759361
  outer loop
   vertex 0.014025 0.228091 -0.016685
   vertex 0.016502 0.226642 -0.016024
   vertex 0.015867 0.22943 -0.014753
  endloop
 endfacet
 facet normal -0.0891868 -0.274301 0.957499
  outer loop
   vertex 0.018088 0.231044 -0.013581
   vertex 0.018738 0.228267 -0.014316
   vertex 0.020896 0.230131 -0.013581
  endloop
 endfacet
 facet normal 0.0336945 -0.400135 0.915836
  outer loop
   vertex 0.018738 0.228267 -0.014316
   vertex 0.021745 0.22752 -0.014753
   vertex 0.020896 0.230131 -0.013581
  endloop
 endfacet
 facet normal -0.310374 -0.451949 0.836307
  outer loop
   vertex 0.015867 0.22943 -0.014753
   vertex 0.016502 0.226642 -0.016024
   vertex 0.018738 0.228267 -0.014316
  endloop
 endfacet
 facet normal -0.187559 -0.577248 0.794737
  outer loop
   vertex 0.016502 0.226642 -0.016024
   vertex 0.019592 0.225638 -0.016024
   vertex 0.018738 0.228267 -0.014316
  endloop
 endfacet
 facet normal -0.0146149 -0.548074 0.836302
  outer loop
   vertex 0.018738 0.228267 -0.014316
   vertex 0.019592 0.225638 -0.016024
   vertex 0.021745 0.22752 -0.014753
  endloop
 endfacet
 facet normal 0.112009 -0.640965 0.759354
  outer loop
   vertex 0.019592 0.225638 -0.016024
   vertex 0.022448 0.225354 -0.016685
   vertex 0.021745 0.22752 -0.014753
  endloop
 endfacet
 facet normal -0.508799 -0.579247 0.636864
  outer loop
   vertex 0.014025 0.228091 -0.016685
   vertex 0.014801 0.225703 -0.018237
   vertex 0.016502 0.226642 -0.016024
  endloop
 endfacet
 facet normal -0.38541 -0.704977 0.595371
  outer loop
   vertex 0.014801 0.225703 -0.018237
   vertex 0.017491 0.22443 -0.018003
   vertex 0.016502 0.226642 -0.016024
  endloop
 endfacet
 facet normal -0.228709 -0.703897 0.672474
  outer loop
   vertex 0.016502 0.226642 -0.016024
   vertex 0.017491 0.22443 -0.018003
   vertex 0.019592 0.225638 -0.016024
  endloop
 endfacet
 facet normal -0.102735 -0.796801 0.595444
  outer loop
   vertex 0.017491 0.22443 -0.018003
   vertex 0.020416 0.223878 -0.018237
   vertex 0.019592 0.225638 -0.016024
  endloop
 endfacet
 facet normal 0.0710868 -0.767617 0.636955
  outer loop
   vertex 0.019592 0.225638 -0.016024
   vertex 0.020416 0.223878 -0.018237
   vertex 0.022448 0.225354 -0.016685
  endloop
 endfacet
 facet normal 0.168666 -0.815046 0.554303
  outer loop
   vertex 0.020416 0.223878 -0.018237
   vertex 0.022884 0.224014 -0.018788
   vertex 0.022448 0.225354 -0.016685
  endloop
 endfacet
 facet normal 0.126271 -0.0917039 0.987748
  outer loop
   vertex 0.020896 0.230131 -0.013581
   vertex 0.022631 0.23252 -0.013581
   vertex 0.02012 0.23252 -0.01326
  endloop
 endfacet
 facet normal 0.207851 -0.343516 0.915858
  outer loop
   vertex 0.021745 0.22752 -0.014753
   vertex 0.023738 0.229891 -0.014316
   vertex 0.020896 0.230131 -0.013581
  endloop
 endfacet
 facet normal 0.286233 -0.584386 0.759318
  outer loop
   vertex 0.022448 0.225354 -0.016685
   vertex 0.024592 0.227263 -0.016024
   vertex 0.021745 0.22752 -0.014753
  endloop
 endfacet
 facet normal 0.233325 -0.169451 0.957521
  outer loop
   vertex 0.020896 0.230131 -0.013581
   vertex 0.023738 0.229891 -0.014316
   vertex 0.022631 0.23252 -0.013581
  endloop
 endfacet
 facet normal 0.390899 -0.0914587 0.915878
  outer loop
   vertex 0.023738 0.229891 -0.014316
   vertex 0.025377 0.23252 -0.014753
   vertex 0.022631 0.23252 -0.013581
  endloop
 endfacet
 facet normal 0.334054 -0.43492 0.836213
  outer loop
   vertex 0.021745 0.22752 -0.014753
   vertex 0.024592 0.227263 -0.016024
   vertex 0.023738 0.229891 -0.014316
  endloop
 endfacet
 facet normal 0.491058 -0.356895 0.794662
  outer loop
   vertex 0.024592 0.227263 -0.016024
   vertex 0.026502 0.229891 -0.016024
   vertex 0.023738 0.229891 -0.014316
  endloop
 endfacet
 facet normal 0.516783 -0.183167 0.836293
  outer loop
   vertex 0.023738 0.229891 -0.014316
   vertex 0.026502 0.229891 -0.016024
   vertex 0.025377 0.23252 -0.014753
  endloop
 endfacet
 facet normal 0.644269 -0.0913996 0.759317
  outer loop
   vertex 0.026502 0.229891 -0.016024
   vertex 0.027654 0.23252 -0.016685
   vertex 0.025377 0.23252 -0.014753
  endloop
 endfacet
 facet normal 0.393627 -0.662685 0.637108
  outer loop
   vertex 0.022448 0.225354 -0.016685
   vertex 0.02496 0.225354 -0.018237
   vertex 0.024592 0.227263 -0.016024
  endloop
 endfacet
 facet normal 0.551379 -0.584158 0.595601
  outer loop
   vertex 0.02496 0.225354 -0.018237
   vertex 0.027002 0.22752 -0.018003
   vertex 0.024592 0.227263 -0.016024
  endloop
 endfacet
 facet normal 0.598657 -0.435097 0.672533
  outer loop
   vertex 0.024592 0.227263 -0.016024
   vertex 0.027002 0.22752 -0.018003
   vertex 0.026502 0.229891 -0.016024
  endloop
 endfacet
 facet normal 0.725985 -0.343961 0.595514
  outer loop
   vertex 0.027002 0.22752 -0.018003
   vertex 0.028431 0.230131 -0.018237
   vertex 0.026502 0.229891 -0.016024
  endloop
 endfacet
 facet normal 0.751958 -0.169318 0.637095
  outer loop
   vertex 0.026502 0.229891 -0.016024
   vertex 0.028431 0.230131 -0.018237
   vertex 0.027654 0.23252 -0.016685
  endloop
 endfacet
 facet normal 0.827124 -0.091254 0.554562
  outer loop
   vertex 0.028431 0.230131 -0.018237
   vertex 0.029064 0.23252 -0.018788
   vertex 0.027654 0.23252 -0.016685
  endloop
 endfacet
 facet normal 0.905177 0.147939 0.398459
  outer loop
   vertex 0.029686 0.233996 -0.020749
   vertex 0.028431 0.234909 -0.018237
   vertex 0.029064 0.23252 -0.018788
  endloop
 endfacet
 facet normal 0.93657 0.303801 0.17476
  outer loop
   vertex 0.029631 0.23561 -0.02326
   vertex 0.028738 0.236773 -0.020496
   vertex 0.029686 0.233996 -0.020749
  endloop
 endfacet
 facet normal 0.888212 0.452708 -0.078331
  outer loop
   vertex 0.028727 0.236949 -0.025772
   vertex 0.02821 0.238398 -0.02326
   vertex 0.029631 0.23561 -0.02326
  endloop
 endfacet
 facet normal 0.89641 0.274294 0.348155
  outer loop
   vertex 0.029686 0.233996 -0.020749
   vertex 0.028738 0.236773 -0.020496
   vertex 0.028431 0.234909 -0.018237
  endloop
 endfacet
 facet normal 0.803858 0.400541 0.439749
  outer loop
   vertex 0.028738 0.236773 -0.020496
   vertex 0.027002 0.23752 -0.018003
   vertex 0.028431 0.234909 -0.018237
  endloop
 endfacet
 facet normal 0.886806 0.451991 0.0963284
  outer loop
   vertex 0.029631 0.23561 -0.02326
   vertex 0.02821 0.238398 -0.02326
   vertex 0.028738 0.236773 -0.020496
  endloop
 endfacet
 facet normal 0.794662 0.577331 0.18762
  outer loop
   vertex 0.02821 0.238398 -0.02326
   vertex 0.026828 0.239402 -0.020496
   vertex 0.028738 0.236773 -0.020496
  endloop
 endfacet
 facet normal 0.754436 0.548107 0.361117
  outer loop
   vertex 0.028738 0.236773 -0.020496
   vertex 0.026828 0.239402 -0.020496
   vertex 0.027002 0.23752 -0.018003
  endloop
 endfacet
 facet normal 0.629279 0.640767 0.439803
  outer loop
   vertex 0.026828 0.239402 -0.020496
   vertex 0.02496 0.239686 -0.018237
   vertex 0.027002 0.23752 -0.018003
  endloop
 endfacet
 facet normal 0.797233 0.579229 -0.170037
  outer loop
   vertex 0.028727 0.236949 -0.025772
   vertex 0.026992 0.239337 -0.025772
   vertex 0.02821 0.238398 -0.02326
  endloop
 endfacet
 facet normal 0.704936 0.704936 -0.0782949
  outer loop
   vertex 0.026992 0.239337 -0.025772
   vertex 0.025998 0.24061 -0.02326
   vertex 0.02821 0.238398 -0.02326
  endloop
 endfacet
 facet normal 0.703824 0.703824 0.0962537
  outer loop
   vertex 0.02821 0.238398 -0.02326
   vertex 0.025998 0.24061 -0.02326
   vertex 0.026828 0.239402 -0.020496
  endloop
 endfacet
 facet normal 0.578519 0.796783 0.174509
  outer loop
   vertex 0.025998 0.24061 -0.02326
   vertex 0.02448 0.241162 -0.020748
   vertex 0.026828 0.239402 -0.020496
  endloop
 endfacet
 facet normal 0.537986 0.767602 0.348366
  outer loop
   vertex 0.026828 0.239402 -0.020496
   vertex 0.02448 0.241162 -0.020748
   vertex 0.02496 0.239686 -0.018237
  endloop
 endfacet
 facet normal 0.420269 0.815078 0.398776
  outer loop
   vertex 0.02448 0.241162 -0.020748
   vertex 0.022884 0.241026 -0.018788
   vertex 0.02496 0.239686 -0.018237
  endloop
 endfacet
 facet normal 0.138975 0.90647 0.398746
  outer loop
   vertex 0.021672 0.242074 -0.020748
   vertex 0.020416 0.241162 -0.018237
   vertex 0.022884 0.241026 -0.018788
  endloop
 endfacet
 facet normal 0.000555151 0.98466 0.174481
  outer loop
   vertex 0.02012 0.24252 -0.02326
   vertex 0.018738 0.242031 -0.020496
   vertex 0.021672 0.242074 -0.020748
  endloop
 endfacet
 facet normal -0.155824 0.984657 -0.07855
  outer loop
   vertex 0.018568 0.242074 -0.025772
   vertex 0.01703 0.242031 -0.02326
   vertex 0.02012 0.24252 -0.02326
  endloop
 endfacet
 facet normal 0.0161962 0.937175 0.348485
  outer loop
   vertex 0.021672 0.242074 -0.020748
   vertex 0.018738 0.242031 -0.020496
   vertex 0.020416 0.241162 -0.018237
  endloop
 endfacet
 facet normal -0.132412 0.888171 0.440021
  outer loop
   vertex 0.018738 0.242031 -0.020496
   vertex 0.017491 0.24061 -0.018003
   vertex 0.020416 0.241162 -0.018237
  endloop
 endfacet
 facet normal -0.155583 0.983133 0.0961419
  outer loop
   vertex 0.02012 0.24252 -0.02326
   vertex 0.01703 0.242031 -0.02326
   vertex 0.018738 0.242031 -0.020496
  endloop
 endfacet
 facet normal -0.303796 0.934059 0.187729
  outer loop
   vertex 0.01703 0.242031 -0.02326
   vertex 0.015648 0.241026 -0.020496
   vertex 0.018738 0.242031 -0.020496
  endloop
 endfacet
 facet normal -0.288415 0.886769 0.361189
  outer loop
   vertex 0.018738 0.242031 -0.020496
   vertex 0.015648 0.241026 -0.020496
   vertex 0.017491 0.24061 -0.018003
  endloop
 endfacet
 facet normal -0.415138 0.796394 0.439791
  outer loop
   vertex 0.015648 0.241026 -0.020496
   vertex 0.014801 0.239337 -0.018237
   vertex 0.017491 0.24061 -0.018003
  endloop
 endfacet
 facet normal -0.304389 0.937197 -0.170322
  outer loop
   vertex 0.018568 0.242074 -0.025772
   vertex 0.01576 0.241162 -0.025772
   vertex 0.01703 0.242031 -0.02326
  endloop
 endfacet
 facet normal -0.452705 0.888208 -0.0783901
  outer loop
   vertex 0.01576 0.241162 -0.025772
   vertex 0.014242 0.24061 -0.02326
   vertex 0.01703 0.242031 -0.02326
  endloop
 endfacet
 facet normal -0.451986 0.886796 0.0964489
  outer loop
   vertex 0.01703 0.242031 -0.02326
   vertex 0.014242 0.24061 -0.02326
   vertex 0.015648 0.241026 -0.020496
  endloop
 endfacet
 facet normal -0.578874 0.796508 0.174584
  outer loop
   vertex 0.014242 0.24061 -0.02326
   vertex 0.013248 0.239337 -0.020748
   vertex 0.015648 0.241026 -0.020496
  endloop
 endfacet
 facet normal -0.563623 0.748876 0.348589
  outer loop
   vertex 0.015648 0.241026 -0.020496
   vertex 0.013248 0.239337 -0.020748
   vertex 0.014801 0.239337 -0.018237
  endloop
 endfacet
 facet normal -0.645038 0.651744 0.398942
  outer loop
   vertex 0.013248 0.239337 -0.020748
   vertex 0.012884 0.237777 -0.018788
   vertex 0.014801 0.239337 -0.018237
  endloop
 endfacet
 facet normal -0.819189 0.412026 0.398954
  outer loop
   vertex 0.011513 0.236949 -0.020748
   vertex 0.011993 0.235472 -0.018237
   vertex 0.012884 0.237777 -0.018788
  endloop
 endfacet
 facet normal -0.936352 0.304548 0.174631
  outer loop
   vertex 0.010609 0.23561 -0.02326
   vertex 0.010648 0.234145 -0.020496
   vertex 0.011513 0.236949 -0.020748
  endloop
 endfacet
 facet normal -0.984653 0.155824 -0.0785916
  outer loop
   vertex 0.010554 0.233996 -0.025771
   vertex 0.01012 0.23252 -0.02326
   vertex 0.010609 0.23561 -0.02326
  endloop
 endfacet
 facet normal -0.886309 0.304753 0.348685
  outer loop
   vertex 0.011513 0.236949 -0.020748
   vertex 0.010648 0.234145 -0.020496
   vertex 0.011993 0.235472 -0.018237
  endloop
 endfacet
 facet normal -0.885615 0.148581 0.440011
  outer loop
   vertex 0.010648 0.234145 -0.020496
   vertex 0.011614 0.23252 -0.018003
   vertex 0.011993 0.235472 -0.018237
  endloop
 endfacet
 facet normal -0.983115 0.15558 0.0963335
  outer loop
   vertex 0.010609 0.23561 -0.02326
   vertex 0.01012 0.23252 -0.02326
   vertex 0.010648 0.234145 -0.020496
  endloop
 endfacet
 facet normal -0.982239 0 0.187634
  outer loop
   vertex 0.01012 0.23252 -0.02326
   vertex 0.010648 0.230895 -0.020496
   vertex 0.010648 0.234145 -0.020496
  endloop
 endfacet
 facet normal -0.932446 0 0.361309
  outer loop
   vertex 0.010648 0.234145 -0.020496
   vertex 0.010648 0.230895 -0.020496
   vertex 0.011614 0.23252 -0.018003
  endloop
 endfacet
 facet normal -0.885615 -0.148581 0.440011
  outer loop
   vertex 0.010648 0.230895 -0.020496
   vertex 0.011993 0.229568 -0.018237
   vertex 0.011614 0.23252 -0.018003
  endloop
 endfacet
 facet normal -0.98539 -0 -0.170314
  outer loop
   vertex 0.010554 0.233996 -0.025771
   vertex 0.010554 0.231044 -0.025771
   vertex 0.01012 0.23252 -0.02326
  endloop
 endfacet
 facet normal -0.984653 -0.155824 -0.0785916
  outer loop
   vertex 0.010554 0.231044 -0.025771
   vertex 0.010609 0.22943 -0.02326
   vertex 0.01012 0.23252 -0.02326
  endloop
 endfacet
 facet normal -0.983115 -0.15558 0.0963335
  outer loop
   vertex 0.01012 0.23252 -0.02326
   vertex 0.010609 0.22943 -0.02326
   vertex 0.010648 0.230895 -0.020496
  endloop
 endfacet
 facet normal -0.936352 -0.304548 0.174631
  outer loop
   vertex 0.010609 0.22943 -0.02326
   vertex 0.011513 0.228091 -0.020748
   vertex 0.010648 0.230895 -0.020496
  endloop
 endfacet
 facet normal -0.886309 -0.304753 0.348685
  outer loop
   vertex 0.010648 0.230895 -0.020496
   vertex 0.011513 0.228091 -0.020748
   vertex 0.011993 0.229568 -0.018237
  endloop
 endfacet
 facet normal -0.819189 -0.412026 0.398954
  outer loop
   vertex 0.011513 0.228091 -0.020748
   vertex 0.012884 0.227263 -0.018788
   vertex 0.011993 0.229568 -0.018237
  endloop
 endfacet
 facet normal -0.645038 -0.651744 0.398942
  outer loop
   vertex 0.013248 0.225703 -0.020748
   vertex 0.014801 0.225703 -0.018237
   vertex 0.012884 0.227263 -0.018788
  endloop
 endfacet
 facet normal -0.578874 -0.796508 0.174584
  outer loop
   vertex 0.014242 0.22443 -0.02326
   vertex 0.015648 0.224014 -0.020496
   vertex 0.013248 0.225703 -0.020748
  endloop
 endfacet
 facet normal -0.452705 -0.888208 -0.0783901
  outer loop
   vertex 0.01576 0.223878 -0.025772
   vertex 0.01703 0.223009 -0.02326
   vertex 0.014242 0.22443 -0.02326
  endloop
 endfacet
 facet normal -0.563623 -0.748876 0.348589
  outer loop
   vertex 0.013248 0.225703 -0.020748
   vertex 0.015648 0.224014 -0.020496
   vertex 0.014801 0.225703 -0.018237
  endloop
 endfacet
 facet normal -0.415138 -0.796394 0.439791
  outer loop
   vertex 0.015648 0.224014 -0.020496
   vertex 0.017491 0.22443 -0.018003
   vertex 0.014801 0.225703 -0.018237
  endloop
 endfacet
 facet normal -0.451986 -0.886796 0.0964489
  outer loop
   vertex 0.014242 0.22443 -0.02326
   vertex 0.01703 0.223009 -0.02326
   vertex 0.015648 0.224014 -0.020496
  endloop
 endfacet
 facet normal -0.303796 -0.934059 0.187729
  outer loop
   vertex 0.01703 0.223009 -0.02326
   vertex 0.018738 0.223009 -0.020496
   vertex 0.015648 0.224014 -0.020496
  endloop
 endfacet
 facet normal -0.288415 -0.886769 0.361189
  outer loop
   vertex 0.015648 0.224014 -0.020496
   vertex 0.018738 0.223009 -0.020496
   vertex 0.017491 0.22443 -0.018003
  endloop
 endfacet
 facet normal -0.132412 -0.888171 0.440021
  outer loop
   vertex 0.018738 0.223009 -0.020496
   vertex 0.020416 0.223878 -0.018237
   vertex 0.017491 0.22443 -0.018003
  endloop
 endfacet
 facet normal -0.304389 -0.937197 -0.170322
  outer loop
   vertex 0.01576 0.223878 -0.025772
   vertex 0.018568 0.222966 -0.025772
   vertex 0.01703 0.223009 -0.02326
  endloop
 endfacet
 facet normal -0.155824 -0.984657 -0.07855
  outer loop
   vertex 0.018568 0.222966 -0.025772
   vertex 0.02012 0.22252 -0.02326
   vertex 0.01703 0.223009 -0.02326
  endloop
 endfacet
 facet normal -0.155583 -0.983133 0.0961419
  outer loop
   vertex 0.01703 0.223009 -0.02326
   vertex 0.02012 0.22252 -0.02326
   vertex 0.018738 0.223009 -0.020496
  endloop
 endfacet
 facet normal 0.000555151 -0.98466 0.174481
  outer loop
   vertex 0.02012 0.22252 -0.02326
   vertex 0.021672 0.222966 -0.020748
   vertex 0.018738 0.223009 -0.020496
  endloop
 endfacet
 facet normal 0.0161962 -0.937175 0.348485
  outer loop
   vertex 0.018738 0.223009 -0.020496
   vertex 0.021672 0.222966 -0.020748
   vertex 0.020416 0.223878 -0.018237
  endloop
 endfacet
 facet normal 0.138975 -0.90647 0.398746
  outer loop
   vertex 0.021672 0.222966 -0.020748
   vertex 0.022884 0.224014 -0.018788
   vertex 0.020416 0.223878 -0.018237
  endloop
 endfacet
 facet normal 0.420269 -0.815078 0.398776
  outer loop
   vertex 0.02448 0.223878 -0.020748
   vertex 0.02496 0.225354 -0.018237
   vertex 0.022884 0.224014 -0.018788
  endloop
 endfacet
 facet normal 0.578519 -0.796783 0.174509
  outer loop
   vertex 0.025998 0.22443 -0.02326
   vertex 0.026828 0.225638 -0.020496
   vertex 0.02448 0.223878 -0.020748
  endloop
 endfacet
 facet normal 0.704936 -0.704936 -0.0782949
  outer loop
   vertex 0.026992 0.225703 -0.025772
   vertex 0.02821 0.226642 -0.02326
   vertex 0.025998 0.22443 -0.02326
  endloop
 endfacet
 facet normal 0.537986 -0.767602 0.348366
  outer loop
   vertex 0.02448 0.223878 -0.020748
   vertex 0.026828 0.225638 -0.020496
   vertex 0.02496 0.225354 -0.018237
  endloop
 endfacet
 facet normal 0.629279 -0.640767 0.439803
  outer loop
   vertex 0.026828 0.225638 -0.020496
   vertex 0.027002 0.22752 -0.018003
   vertex 0.02496 0.225354 -0.018237
  endloop
 endfacet
 facet normal 0.703824 -0.703824 0.0962537
  outer loop
   vertex 0.025998 0.22443 -0.02326
   vertex 0.02821 0.226642 -0.02326
   vertex 0.026828 0.225638 -0.020496
  endloop
 endfacet
 facet normal 0.794662 -0.577331 0.18762
  outer loop
   vertex 0.02821 0.226642 -0.02326
   vertex 0.028738 0.228267 -0.020496
   vertex 0.026828 0.225638 -0.020496
  endloop
 endfacet
 facet normal 0.754436 -0.548107 0.361117
  outer loop
   vertex 0.026828 0.225638 -0.020496
   vertex 0.028738 0.228267 -0.020496
   vertex 0.027002 0.22752 -0.018003
  endloop
 endfacet
 facet normal 0.803858 -0.400541 0.439749
  outer loop
   vertex 0.028738 0.228267 -0.020496
   vertex 0.028431 0.230131 -0.018237
   vertex 0.027002 0.22752 -0.018003
  endloop
 endfacet
 facet normal 0.797233 -0.579229 -0.170037
  outer loop
   vertex 0.026992 0.225703 -0.025772
   vertex 0.028727 0.228091 -0.025772
   vertex 0.02821 0.226642 -0.02326
  endloop
 endfacet
 facet normal 0.888212 -0.452708 -0.078331
  outer loop
   vertex 0.028727 0.228091 -0.025772
   vertex 0.029631 0.22943 -0.02326
   vertex 0.02821 0.226642 -0.02326
  endloop
 endfacet
 facet normal 0.886806 -0.451991 0.0963284
  outer loop
   vertex 0.02821 0.226642 -0.02326
   vertex 0.029631 0.22943 -0.02326
   vertex 0.028738 0.228267 -0.020496
  endloop
 endfacet
 facet normal 0.93657 -0.303801 0.17476
  outer loop
   vertex 0.029631 0.22943 -0.02326
   vertex 0.029686 0.231044 -0.020749
   vertex 0.028738 0.228267 -0.020496
  endloop
 endfacet
 facet normal 0.89641 -0.274294 0.348155
  outer loop
   vertex 0.028738 0.228267 -0.020496
   vertex 0.029686 0.231044 -0.020749
   vertex 0.028431 0.230131 -0.018237
  endloop
 endfacet
 facet normal 0.905177 -0.147939 0.398459
  outer loop
   vertex 0.029686 0.231044 -0.020749
   vertex 0.029064 0.23252 -0.018788
   vertex 0.028431 0.230131 -0.018237
  endloop
 endfacet
 facet normal 0.294416 0.906493 0.302638
  outer loop
   vertex 0.02448 0.241162 -0.020748
   vertex 0.021672 0.242074 -0.020748
   vertex 0.022884 0.241026 -0.018788
  endloop
 endfacet
 facet normal 0.452705 0.888208 0.0783901
  outer loop
   vertex 0.025998 0.24061 -0.02326
   vertex 0.02321 0.242031 -0.02326
   vertex 0.02448 0.241162 -0.020748
  endloop
 endfacet
 facet normal 0.578874 0.796508 -0.174584
  outer loop
   vertex 0.026992 0.239337 -0.025772
   vertex 0.024592 0.241026 -0.026024
   vertex 0.025998 0.24061 -0.02326
  endloop
 endfacet
 facet normal 0.304389 0.937197 0.170322
  outer loop
   vertex 0.02448 0.241162 -0.020748
   vertex 0.02321 0.242031 -0.02326
   vertex 0.021672 0.242074 -0.020748
  endloop
 endfacet
 facet normal 0.155824 0.984657 0.07855
  outer loop
   vertex 0.02321 0.242031 -0.02326
   vertex 0.02012 0.24252 -0.02326
   vertex 0.021672 0.242074 -0.020748
  endloop
 endfacet
 facet normal 0.451986 0.886796 -0.0964489
  outer loop
   vertex 0.025998 0.24061 -0.02326
   vertex 0.024592 0.241026 -0.026024
   vertex 0.02321 0.242031 -0.02326
  endloop
 endfacet
 facet normal 0.303796 0.934059 -0.187729
  outer loop
   vertex 0.024592 0.241026 -0.026024
   vertex 0.021502 0.242031 -0.026024
   vertex 0.02321 0.242031 -0.02326
  endloop
 endfacet
 facet normal 0.155583 0.983133 -0.0961419
  outer loop
   vertex 0.02321 0.242031 -0.02326
   vertex 0.021502 0.242031 -0.026024
   vertex 0.02012 0.24252 -0.02326
  endloop
 endfacet
 facet normal -0.000555151 0.98466 -0.174481
  outer loop
   vertex 0.021502 0.242031 -0.026024
   vertex 0.018568 0.242074 -0.025772
   vertex 0.02012 0.24252 -0.02326
  endloop
 endfacet
 facet normal 0.563623 0.748876 -0.348589
  outer loop
   vertex 0.026992 0.239337 -0.025772
   vertex 0.025439 0.239337 -0.028283
   vertex 0.024592 0.241026 -0.026024
  endloop
 endfacet
 facet normal 0.415138 0.796394 -0.439791
  outer loop
   vertex 0.025439 0.239337 -0.028283
   vertex 0.022749 0.24061 -0.028517
   vertex 0.024592 0.241026 -0.026024
  endloop
 endfacet
 facet normal 0.288415 0.886769 -0.361189
  outer loop
   vertex 0.024592 0.241026 -0.026024
   vertex 0.022749 0.24061 -0.028517
   vertex 0.021502 0.242031 -0.026024
  endloop
 endfacet
 facet normal 0.132412 0.888171 -0.440021
  outer loop
   vertex 0.022749 0.24061 -0.028517
   vertex 0.019824 0.241162 -0.028283
   vertex 0.021502 0.242031 -0.026024
  endloop
 endfacet
 facet normal -0.0161962 0.937175 -0.348485
  outer loop
   vertex 0.021502 0.242031 -0.026024
   vertex 0.019824 0.241162 -0.028283
   vertex 0.018568 0.242074 -0.025772
  endloop
 endfacet
 facet normal -0.138975 0.90647 -0.398746
  outer loop
   vertex 0.019824 0.241162 -0.028283
   vertex 0.017356 0.241026 -0.027732
   vertex 0.018568 0.242074 -0.025772
  endloop
 endfacet
 facet normal -0.771063 0.560215 0.302688
  outer loop
   vertex 0.013248 0.239337 -0.020748
   vertex 0.011513 0.236949 -0.020748
   vertex 0.012884 0.237777 -0.018788
  endloop
 endfacet
 facet normal -0.704936 0.704936 0.0782949
  outer loop
   vertex 0.014242 0.24061 -0.02326
   vertex 0.01203 0.238398 -0.02326
   vertex 0.013248 0.239337 -0.020748
  endloop
 endfacet
 facet normal -0.578519 0.796783 -0.174509
  outer loop
   vertex 0.01576 0.241162 -0.025772
   vertex 0.013412 0.239402 -0.026024
   vertex 0.014242 0.24061 -0.02326
  endloop
 endfacet
 facet normal -0.797233 0.579229 0.170037
  outer loop
   vertex 0.013248 0.239337 -0.020748
   vertex 0.01203 0.238398 -0.02326
   vertex 0.011513 0.236949 -0.020748
  endloop
 endfacet
 facet normal -0.888212 0.452708 0.078331
  outer loop
   vertex 0.01203 0.238398 -0.02326
   vertex 0.010609 0.23561 -0.02326
   vertex 0.011513 0.236949 -0.020748
  endloop
 endfacet
 facet normal -0.703824 0.703824 -0.0962537
  outer loop
   vertex 0.014242 0.24061 -0.02326
   vertex 0.013412 0.239402 -0.026024
   vertex 0.01203 0.238398 -0.02326
  endloop
 endfacet
 facet normal -0.794662 0.577331 -0.18762
  outer loop
   vertex 0.013412 0.239402 -0.026024
   vertex 0.011502 0.236773 -0.026024
   vertex 0.01203 0.238398 -0.02326
  endloop
 endfacet
 facet normal -0.886806 0.451991 -0.0963284
  outer loop
   vertex 0.01203 0.238398 -0.02326
   vertex 0.011502 0.236773 -0.026024
   vertex 0.010609 0.23561 -0.02326
  endloop
 endfacet
 facet normal -0.93657 0.303801 -0.17476
  outer loop
   vertex 0.011502 0.236773 -0.026024
   vertex 0.010554 0.233996 -0.025771
   vertex 0.010609 0.23561 -0.02326
  endloop
 endfacet
 facet normal -0.537986 0.767602 -0.348366
  outer loop
   vertex 0.01576 0.241162 -0.025772
   vertex 0.01528 0.239686 -0.028283
   vertex 0.013412 0.239402 -0.026024
  endloop
 endfacet
 facet normal -0.629279 0.640767 -0.439803
  outer loop
   vertex 0.01528 0.239686 -0.028283
   vertex 0.013238 0.23752 -0.028517
   vertex 0.013412 0.239402 -0.026024
  endloop
 endfacet
 facet normal -0.754436 0.548107 -0.361117
  outer loop
   vertex 0.013412 0.239402 -0.026024
   vertex 0.013238 0.23752 -0.028517
   vertex 0.011502 0.236773 -0.026024
  endloop
 endfacet
 facet normal -0.803858 0.400541 -0.439749
  outer loop
   vertex 0.013238 0.23752 -0.028517
   vertex 0.011809 0.234909 -0.028283
   vertex 0.011502 0.236773 -0.026024
  endloop
 endfacet
 facet normal -0.89641 0.274294 -0.348155
  outer loop
   vertex 0.011502 0.236773 -0.026024
   vertex 0.011809 0.234909 -0.028283
   vertex 0.010554 0.233996 -0.025771
  endloop
 endfacet
 facet normal -0.905177 0.147939 -0.398459
  outer loop
   vertex 0.011809 0.234909 -0.028283
   vertex 0.011176 0.23252 -0.027732
   vertex 0.010554 0.233996 -0.025771
  endloop
 endfacet
 facet normal -0.771063 -0.560215 0.302688
  outer loop
   vertex 0.011513 0.228091 -0.020748
   vertex 0.013248 0.225703 -0.020748
   vertex 0.012884 0.227263 -0.018788
  endloop
 endfacet
 facet normal -0.888212 -0.452708 0.078331
  outer loop
   vertex 0.010609 0.22943 -0.02326
   vertex 0.01203 0.226642 -0.02326
   vertex 0.011513 0.228091 -0.020748
  endloop
 endfacet
 facet normal -0.93657 -0.303801 -0.17476
  outer loop
   vertex 0.010554 0.231044 -0.025771
   vertex 0.011502 0.228267 -0.026024
   vertex 0.010609 0.22943 -0.02326
  endloop
 endfacet
 facet normal -0.797233 -0.579229 0.170037
  outer loop
   vertex 0.011513 0.228091 -0.020748
   vertex 0.01203 0.226642 -0.02326
   vertex 0.013248 0.225703 -0.020748
  endloop
 endfacet
 facet normal -0.704936 -0.704936 0.0782949
  outer loop
   vertex 0.01203 0.226642 -0.02326
   vertex 0.014242 0.22443 -0.02326
   vertex 0.013248 0.225703 -0.020748
  endloop
 endfacet
 facet normal -0.886806 -0.451991 -0.0963284
  outer loop
   vertex 0.010609 0.22943 -0.02326
   vertex 0.011502 0.228267 -0.026024
   vertex 0.01203 0.226642 -0.02326
  endloop
 endfacet
 facet normal -0.794662 -0.577331 -0.18762
  outer loop
   vertex 0.011502 0.228267 -0.026024
   vertex 0.013412 0.225638 -0.026024
   vertex 0.01203 0.226642 -0.02326
  endloop
 endfacet
 facet normal -0.703824 -0.703824 -0.0962537
  outer loop
   vertex 0.01203 0.226642 -0.02326
   vertex 0.013412 0.225638 -0.026024
   vertex 0.014242 0.22443 -0.02326
  endloop
 endfacet
 facet normal -0.578519 -0.796783 -0.174509
  outer loop
   vertex 0.013412 0.225638 -0.026024
   vertex 0.01576 0.223878 -0.025772
   vertex 0.014242 0.22443 -0.02326
  endloop
 endfacet
 facet normal -0.89641 -0.274294 -0.348155
  outer loop
   vertex 0.010554 0.231044 -0.025771
   vertex 0.011809 0.230131 -0.028283
   vertex 0.011502 0.228267 -0.026024
  endloop
 endfacet
 facet normal -0.803858 -0.400541 -0.439749
  outer loop
   vertex 0.011809 0.230131 -0.028283
   vertex 0.013238 0.22752 -0.028517
   vertex 0.011502 0.228267 -0.026024
  endloop
 endfacet
 facet normal -0.754436 -0.548107 -0.361117
  outer loop
   vertex 0.011502 0.228267 -0.026024
   vertex 0.013238 0.22752 -0.028517
   vertex 0.013412 0.225638 -0.026024
  endloop
 endfacet
 facet normal -0.629279 -0.640767 -0.439803
  outer loop
   vertex 0.013238 0.22752 -0.028517
   vertex 0.01528 0.225354 -0.028283
   vertex 0.013412 0.225638 -0.026024
  endloop
 endfacet
 facet normal -0.537986 -0.767602 -0.348366
  outer loop
   vertex 0.013412 0.225638 -0.026024
   vertex 0.01528 0.225354 -0.028283
   vertex 0.01576 0.223878 -0.025772
  endloop
 endfacet
 facet normal -0.420269 -0.815078 -0.398776
  outer loop
   vertex 0.01528 0.225354 -0.028283
   vertex 0.017356 0.224014 -0.027732
   vertex 0.01576 0.223878 -0.025772
  endloop
 endfacet
 facet normal 0.294416 -0.906493 0.302638
  outer loop
   vertex 0.021672 0.222966 -0.020748
   vertex 0.02448 0.223878 -0.020748
   vertex 0.022884 0.224014 -0.018788
  endloop
 endfacet
 facet normal 0.155824 -0.984657 0.07855
  outer loop
   vertex 0.02012 0.22252 -0.02326
   vertex 0.02321 0.223009 -0.02326
   vertex 0.021672 0.222966 -0.020748
  endloop
 endfacet
 facet normal -0.000555151 -0.98466 -0.174481
  outer loop
   vertex 0.018568 0.222966 -0.025772
   vertex 0.021502 0.223009 -0.026024
   vertex 0.02012 0.22252 -0.02326
  endloop
 endfacet
 facet normal 0.304389 -0.937197 0.170322
  outer loop
   vertex 0.021672 0.222966 -0.020748
   vertex 0.02321 0.223009 -0.02326
   vertex 0.02448 0.223878 -0.020748
  endloop
 endfacet
 facet normal 0.452705 -0.888208 0.0783901
  outer loop
   vertex 0.02321 0.223009 -0.02326
   vertex 0.025998 0.22443 -0.02326
   vertex 0.02448 0.223878 -0.020748
  endloop
 endfacet
 facet normal 0.155583 -0.983133 -0.0961419
  outer loop
   vertex 0.02012 0.22252 -0.02326
   vertex 0.021502 0.223009 -0.026024
   vertex 0.02321 0.223009 -0.02326
  endloop
 endfacet
 facet normal 0.303796 -0.934059 -0.187729
  outer loop
   vertex 0.021502 0.223009 -0.026024
   vertex 0.024592 0.224014 -0.026024
   vertex 0.02321 0.223009 -0.02326
  endloop
 endfacet
 facet normal 0.451986 -0.886796 -0.0964489
  outer loop
   vertex 0.02321 0.223009 -0.02326
   vertex 0.024592 0.224014 -0.026024
   vertex 0.025998 0.22443 -0.02326
  endloop
 endfacet
 facet normal 0.578874 -0.796508 -0.174584
  outer loop
   vertex 0.024592 0.224014 -0.026024
   vertex 0.026992 0.225703 -0.025772
   vertex 0.025998 0.22443 -0.02326
  endloop
 endfacet
 facet normal -0.0161962 -0.937175 -0.348485
  outer loop
   vertex 0.018568 0.222966 -0.025772
   vertex 0.019824 0.223878 -0.028283
   vertex 0.021502 0.223009 -0.026024
  endloop
 endfacet
 facet normal 0.132412 -0.888171 -0.440021
  outer loop
   vertex 0.019824 0.223878 -0.028283
   vertex 0.022749 0.22443 -0.028517
   vertex 0.021502 0.223009 -0.026024
  endloop
 endfacet
 facet normal 0.288415 -0.886769 -0.361189
  outer loop
   vertex 0.021502 0.223009 -0.026024
   vertex 0.022749 0.22443 -0.028517
   vertex 0.024592 0.224014 -0.026024
  endloop
 endfacet
 facet normal 0.415138 -0.796394 -0.439791
  outer loop
   vertex 0.022749 0.22443 -0.028517
   vertex 0.025439 0.225703 -0.028283
   vertex 0.024592 0.224014 -0.026024
  endloop
 endfacet
 facet normal 0.563623 -0.748876 -0.348589
  outer loop
   vertex 0.024592 0.224014 -0.026024
   vertex 0.025439 0.225703 -0.028283
   vertex 0.026992 0.225703 -0.025772
  endloop
 endfacet
 facet normal 0.645038 -0.651744 -0.398942
  outer loop
   vertex 0.025439 0.225703 -0.028283
   vertex 0.027356 0.227263 -0.027732
   vertex 0.026992 0.225703 -0.025772
  endloop
 endfacet
 facet normal 0.9532 -0 0.302341
  outer loop
   vertex 0.029686 0.231044 -0.020749
   vertex 0.029686 0.233996 -0.020749
   vertex 0.029064 0.23252 -0.018788
  endloop
 endfacet
 facet normal 0.984653 -0.155824 0.0785916
  outer loop
   vertex 0.029631 0.22943 -0.02326
   vertex 0.03012 0.23252 -0.02326
   vertex 0.029686 0.231044 -0.020749
  endloop
 endfacet
 facet normal 0.936352 -0.304548 -0.174631
  outer loop
   vertex 0.028727 0.228091 -0.025772
   vertex 0.029592 0.230895 -0.026024
   vertex 0.029631 0.22943 -0.02326
  endloop
 endfacet
 facet normal 0.98539 -0 0.170314
  outer loop
   vertex 0.029686 0.231044 -0.020749
   vertex 0.03012 0.23252 -0.02326
   vertex 0.029686 0.233996 -0.020749
  endloop
 endfacet
 facet normal 0.984653 0.155824 0.0785916
  outer loop
   vertex 0.03012 0.23252 -0.02326
   vertex 0.029631 0.23561 -0.02326
   vertex 0.029686 0.233996 -0.020749
  endloop
 endfacet
 facet normal 0.983115 -0.15558 -0.0963335
  outer loop
   vertex 0.029631 0.22943 -0.02326
   vertex 0.029592 0.230895 -0.026024
   vertex 0.03012 0.23252 -0.02326
  endloop
 endfacet
 facet normal 0.982239 0 -0.187634
  outer loop
   vertex 0.029592 0.230895 -0.026024
   vertex 0.029592 0.234145 -0.026024
   vertex 0.03012 0.23252 -0.02326
  endloop
 endfacet
 facet normal 0.983115 0.15558 -0.0963335
  outer loop
   vertex 0.03012 0.23252 -0.02326
   vertex 0.029592 0.234145 -0.026024
   vertex 0.029631 0.23561 -0.02326
  endloop
 endfacet
 facet normal 0.936352 0.304548 -0.174631
  outer loop
   vertex 0.029592 0.234145 -0.026024
   vertex 0.028727 0.236949 -0.025772
   vertex 0.029631 0.23561 -0.02326
  endloop
 endfacet
 facet normal 0.886309 -0.304753 -0.348685
  outer loop
   vertex 0.028727 0.228091 -0.025772
   vertex 0.028247 0.229568 -0.028283
   vertex 0.029592 0.230895 -0.026024
  endloop
 endfacet
 facet normal 0.885615 -0.148581 -0.440011
  outer loop
   vertex 0.028247 0.229568 -0.028283
   vertex 0.028626 0.23252 -0.028517
   vertex 0.029592 0.230895 -0.026024
  endloop
 endfacet
 facet normal 0.932446 0 -0.361309
  outer loop
   vertex 0.029592 0.230895 -0.026024
   vertex 0.028626 0.23252 -0.028517
   vertex 0.029592 0.234145 -0.026024
  endloop
 endfacet
 facet normal 0.885615 0.148581 -0.440011
  outer loop
   vertex 0.028626 0.23252 -0.028517
   vertex 0.028247 0.235472 -0.028283
   vertex 0.029592 0.234145 -0.026024
  endloop
 endfacet
 facet normal 0.886309 0.304753 -0.348685
  outer loop
   vertex 0.029592 0.234145 -0.026024
   vertex 0.028247 0.235472 -0.028283
   vertex 0.028727 0.236949 -0.025772
  endloop
 endfacet
 facet normal 0.819189 0.412026 -0.398954
  outer loop
   vertex 0.028247 0.235472 -0.028283
   vertex 0.027356 0.237777 -0.027732
   vertex 0.028727 0.236949 -0.025772
  endloop
 endfacet
 facet normal 0.61533 0.560308 -0.554459
  outer loop
   vertex 0.026215 0.236949 -0.029835
   vertex 0.025439 0.239337 -0.028283
   vertex 0.027356 0.237777 -0.027732
  endloop
 endfacet
 facet normal 0.467426 0.452641 -0.759361
  outer loop
   vertex 0.024373 0.23561 -0.031767
   vertex 0.023738 0.238398 -0.030496
   vertex 0.026215 0.236949 -0.029835
  endloop
 endfacet
 facet normal 0.262485 0.303841 -0.915851
  outer loop
   vertex 0.022152 0.233996 -0.032939
   vertex 0.021502 0.236773 -0.032204
   vertex 0.024373 0.23561 -0.031767
  endloop
 endfacet
 facet normal 0.508799 0.579247 -0.636864
  outer loop
   vertex 0.026215 0.236949 -0.029835
   vertex 0.023738 0.238398 -0.030496
   vertex 0.025439 0.239337 -0.028283
  endloop
 endfacet
 facet normal 0.38541 0.704977 -0.595371
  outer loop
   vertex 0.023738 0.238398 -0.030496
   vertex 0.022749 0.24061 -0.028517
   vertex 0.025439 0.239337 -0.028283
  endloop
 endfacet
 facet normal 0.310374 0.451949 -0.836307
  outer loop
   vertex 0.024373 0.23561 -0.031767
   vertex 0.021502 0.236773 -0.032204
   vertex 0.023738 0.238398 -0.030496
  endloop
 endfacet
 facet normal 0.187559 0.577248 -0.794737
  outer loop
   vertex 0.021502 0.236773 -0.032204
   vertex 0.020648 0.239402 -0.030496
   vertex 0.023738 0.238398 -0.030496
  endloop
 endfacet
 facet normal 0.228709 0.703897 -0.672474
  outer loop
   vertex 0.023738 0.238398 -0.030496
   vertex 0.020648 0.239402 -0.030496
   vertex 0.022749 0.24061 -0.028517
  endloop
 endfacet
 facet normal 0.102735 0.796801 -0.595444
  outer loop
   vertex 0.020648 0.239402 -0.030496
   vertex 0.019824 0.241162 -0.028283
   vertex 0.022749 0.24061 -0.028517
  endloop
 endfacet
 facet normal 0.0891868 0.274301 -0.957499
  outer loop
   vertex 0.022152 0.233996 -0.032939
   vertex 0.019344 0.234909 -0.032939
   vertex 0.021502 0.236773 -0.032204
  endloop
 endfacet
 facet normal -0.0336945 0.400135 -0.915836
  outer loop
   vertex 0.019344 0.234909 -0.032939
   vertex 0.018495 0.23752 -0.031767
   vertex 0.021502 0.236773 -0.032204
  endloop
 endfacet
 facet normal 0.0146149 0.548074 -0.836302
  outer loop
   vertex 0.021502 0.236773 -0.032204
   vertex 0.018495 0.23752 -0.031767
   vertex 0.020648 0.239402 -0.030496
  endloop
 endfacet
 facet normal -0.112009 0.640965 -0.759354
  outer loop
   vertex 0.018495 0.23752 -0.031767
   vertex 0.017792 0.239686 -0.029835
   vertex 0.020648 0.239402 -0.030496
  endloop
 endfacet
 facet normal -0.0710868 0.767617 -0.636955
  outer loop
   vertex 0.020648 0.239402 -0.030496
   vertex 0.017792 0.239686 -0.029835
   vertex 0.019824 0.241162 -0.028283
  endloop
 endfacet
 facet normal -0.168666 0.815046 -0.554303
  outer loop
   vertex 0.017792 0.239686 -0.029835
   vertex 0.017356 0.241026 -0.027732
   vertex 0.019824 0.241162 -0.028283
  endloop
 endfacet
 facet normal -0.342493 0.758552 -0.554344
  outer loop
   vertex 0.017792 0.239686 -0.029835
   vertex 0.01528 0.239686 -0.028283
   vertex 0.017356 0.241026 -0.027732
  endloop
 endfacet
 facet normal -0.286233 0.584386 -0.759318
  outer loop
   vertex 0.018495 0.23752 -0.031767
   vertex 0.015648 0.237777 -0.030496
   vertex 0.017792 0.239686 -0.029835
  endloop
 endfacet
 facet normal -0.207851 0.343516 -0.915858
  outer loop
   vertex 0.019344 0.234909 -0.032939
   vertex 0.016502 0.235149 -0.032204
   vertex 0.018495 0.23752 -0.031767
  endloop
 endfacet
 facet normal -0.393627 0.662685 -0.637108
  outer loop
   vertex 0.017792 0.239686 -0.029835
   vertex 0.015648 0.237777 -0.030496
   vertex 0.01528 0.239686 -0.028283
  endloop
 endfacet
 facet normal -0.551379 0.584158 -0.595601
  outer loop
   vertex 0.015648 0.237777 -0.030496
   vertex 0.013238 0.23752 -0.028517
   vertex 0.01528 0.239686 -0.028283
  endloop
 endfacet
 facet normal -0.334054 0.43492 -0.836213
  outer loop
   vertex 0.018495 0.23752 -0.031767
   vertex 0.016502 0.235149 -0.032204
   vertex 0.015648 0.237777 -0.030496
  endloop
 endfacet
 facet normal -0.491058 0.356895 -0.794662
  outer loop
   vertex 0.016502 0.235149 -0.032204
   vertex 0.013738 0.235149 -0.030496
   vertex 0.015648 0.237777 -0.030496
  endloop
 endfacet
 facet normal -0.598657 0.435097 -0.672533
  outer loop
   vertex 0.015648 0.237777 -0.030496
   vertex 0.013738 0.235149 -0.030496
   vertex 0.013238 0.23752 -0.028517
  endloop
 endfacet
 facet normal -0.725985 0.343961 -0.595514
  outer loop
   vertex 0.013738 0.235149 -0.030496
   vertex 0.011809 0.234909 -0.028283
   vertex 0.013238 0.23752 -0.028517
  endloop
 endfacet
 facet normal -0.233325 0.169451 -0.957521
  outer loop
   vertex 0.019344 0.234909 -0.032939
   vertex 0.017609 0.23252 -0.032939
   vertex 0.016502 0.235149 -0.032204
  endloop
 endfacet
 facet normal -0.390899 0.0914587 -0.915878
  outer loop
   vertex 0.017609 0.23252 -0.032939
   vertex 0.014863 0.23252 -0.031767
   vertex 0.016502 0.235149 -0.032204
  endloop
 endfacet
 facet normal -0.516783 0.183167 -0.836293
  outer loop
   vertex 0.016502 0.235149 -0.032204
   vertex 0.014863 0.23252 -0.031767
   vertex 0.013738 0.235149 -0.030496
  endloop
 endfacet
 facet normal -0.644269 0.0913996 -0.759317
  outer loop
   vertex 0.014863 0.23252 -0.031767
   vertex 0.012586 0.23252 -0.029835
   vertex 0.013738 0.235149 -0.030496
  endloop
 endfacet
 facet normal -0.751958 0.169318 -0.637095
  outer loop
   vertex 0.013738 0.235149 -0.030496
   vertex 0.012586 0.23252 -0.029835
   vertex 0.011809 0.234909 -0.028283
  endloop
 endfacet
 facet normal -0.827124 0.091254 -0.554562
  outer loop
   vertex 0.012586 0.23252 -0.029835
   vertex 0.011176 0.23252 -0.027732
   vertex 0.011809 0.234909 -0.028283
  endloop
 endfacet
 facet normal -0.827124 -0.091254 -0.554562
  outer loop
   vertex 0.012586 0.23252 -0.029835
   vertex 0.011809 0.230131 -0.028283
   vertex 0.011176 0.23252 -0.027732
  endloop
 endfacet
 facet normal -0.644269 -0.0913996 -0.759317
  outer loop
   vertex 0.014863 0.23252 -0.031767
   vertex 0.013738 0.229891 -0.030496
   vertex 0.012586 0.23252 -0.029835
  endloop
 endfacet
 facet normal -0.390899 -0.0914587 -0.915878
  outer loop
   vertex 0.017609 0.23252 -0.032939
   vertex 0.016502 0.229891 -0.032204
   vertex 0.014863 0.23252 -0.031767
  endloop
 endfacet
 facet normal -0.751958 -0.169318 -0.637095
  outer loop
   vertex 0.012586 0.23252 -0.029835
   vertex 0.013738 0.229891 -0.030496
   vertex 0.011809 0.230131 -0.028283
  endloop
 endfacet
 facet normal -0.725985 -0.343961 -0.595514
  outer loop
   vertex 0.013738 0.229891 -0.030496
   vertex 0.013238 0.22752 -0.028517
   vertex 0.011809 0.230131 -0.028283
  endloop
 endfacet
 facet normal -0.516783 -0.183167 -0.836293
  outer loop
   vertex 0.014863 0.23252 -0.031767
   vertex 0.016502 0.229891 -0.032204
   vertex 0.013738 0.229891 -0.030496
  endloop
 endfacet
 facet normal -0.491058 -0.356895 -0.794662
  outer loop
   vertex 0.016502 0.229891 -0.032204
   vertex 0.015648 0.227263 -0.030496
   vertex 0.013738 0.229891 -0.030496
  endloop
 endfacet
 facet normal -0.598657 -0.435097 -0.672533
  outer loop
   vertex 0.013738 0.229891 -0.030496
   vertex 0.015648 0.227263 -0.030496
   vertex 0.013238 0.22752 -0.028517
  endloop
 endfacet
 facet normal -0.551379 -0.584158 -0.595601
  outer loop
   vertex 0.015648 0.227263 -0.030496
   vertex 0.01528 0.225354 -0.028283
   vertex 0.013238 0.22752 -0.028517
  endloop
 endfacet
 facet normal -0.233325 -0.169451 -0.957521
  outer loop
   vertex 0.017609 0.23252 -0.032939
   vertex 0.019344 0.230131 -0.032939
   vertex 0.016502 0.229891 -0.032204
  endloop
 endfacet
 facet normal -0.207851 -0.343516 -0.915858
  outer loop
   vertex 0.019344 0.230131 -0.032939
   vertex 0.018495 0.22752 -0.031767
   vertex 0.016502 0.229891 -0.032204
  endloop
 endfacet
 facet normal -0.334054 -0.43492 -0.836213
  outer loop
   vertex 0.016502 0.229891 -0.032204
   vertex 0.018495 0.22752 -0.031767
   vertex 0.015648 0.227263 -0.030496
  endloop
 endfacet
 facet normal -0.286233 -0.584386 -0.759318
  outer loop
   vertex 0.018495 0.22752 -0.031767
   vertex 0.017792 0.225354 -0.029835
   vertex 0.015648 0.227263 -0.030496
  endloop
 endfacet
 facet normal -0.393627 -0.662685 -0.637108
  outer loop
   vertex 0.015648 0.227263 -0.030496
   vertex 0.017792 0.225354 -0.029835
   vertex 0.01528 0.225354 -0.028283
  endloop
 endfacet
 facet normal -0.342493 -0.758552 -0.554344
  outer loop
   vertex 0.017792 0.225354 -0.029835
   vertex 0.017356 0.224014 -0.027732
   vertex 0.01528 0.225354 -0.028283
  endloop
 endfacet
 facet normal 0.723015 0.412034 -0.554506
  outer loop
   vertex 0.028247 0.235472 -0.028283
   vertex 0.026215 0.236949 -0.029835
   vertex 0.027356 0.237777 -0.027732
  endloop
 endfacet
 facet normal 0.789589 0.148568 -0.59538
  outer loop
   vertex 0.028626 0.23252 -0.028517
   vertex 0.026828 0.234145 -0.030496
   vertex 0.028247 0.235472 -0.028283
  endloop
 endfacet
 facet normal 0.789589 -0.148568 -0.59538
  outer loop
   vertex 0.028247 0.229568 -0.028283
   vertex 0.026828 0.230895 -0.030496
   vertex 0.028626 0.23252 -0.028517
  endloop
 endfacet
 facet normal 0.708089 0.304936 -0.636886
  outer loop
   vertex 0.028247 0.235472 -0.028283
   vertex 0.026828 0.234145 -0.030496
   vertex 0.026215 0.236949 -0.029835
  endloop
 endfacet
 facet normal 0.574948 0.304695 -0.759339
  outer loop
   vertex 0.026828 0.234145 -0.030496
   vertex 0.024373 0.23561 -0.031767
   vertex 0.026215 0.236949 -0.029835
  endloop
 endfacet
 facet normal 0.740143 0 -0.672449
  outer loop
   vertex 0.028626 0.23252 -0.028517
   vertex 0.026828 0.230895 -0.030496
   vertex 0.026828 0.234145 -0.030496
  endloop
 endfacet
 facet normal 0.607028 0 -0.794681
  outer loop
   vertex 0.026828 0.230895 -0.030496
   vertex 0.024592 0.23252 -0.032204
   vertex 0.026828 0.234145 -0.030496
  endloop
 endfacet
 facet normal 0.525774 0.155534 -0.836284
  outer loop
   vertex 0.026828 0.234145 -0.030496
   vertex 0.024592 0.23252 -0.032204
   vertex 0.024373 0.23561 -0.031767
  endloop
 endfacet
 facet normal 0.370096 0.155752 -0.915844
  outer loop
   vertex 0.024592 0.23252 -0.032204
   vertex 0.022152 0.233996 -0.032939
   vertex 0.024373 0.23561 -0.031767
  endloop
 endfacet
 facet normal 0.708089 -0.304936 -0.636886
  outer loop
   vertex 0.028247 0.229568 -0.028283
   vertex 0.026215 0.228091 -0.029835
   vertex 0.026828 0.230895 -0.030496
  endloop
 endfacet
 facet normal 0.574948 -0.304695 -0.759339
  outer loop
   vertex 0.026215 0.228091 -0.029835
   vertex 0.024373 0.22943 -0.031767
   vertex 0.026828 0.230895 -0.030496
  endloop
 endfacet
 facet normal 0.525774 -0.155534 -0.836284
  outer loop
   vertex 0.026828 0.230895 -0.030496
   vertex 0.024373 0.22943 -0.031767
   vertex 0.024592 0.23252 -0.032204
  endloop
 endfacet
 facet normal 0.370096 -0.155752 -0.915844
  outer loop
   vertex 0.024373 0.22943 -0.031767
   vertex 0.022152 0.231044 -0.032939
   vertex 0.024592 0.23252 -0.032204
  endloop
 endfacet
 facet normal 0.288428 0 -0.957502
  outer loop
   vertex 0.024592 0.23252 -0.032204
   vertex 0.022152 0.231044 -0.032939
   vertex 0.022152 0.233996 -0.032939
  endloop
 endfacet
 facet normal 0.156037 0 -0.987751
  outer loop
   vertex 0.022152 0.231044 -0.032939
   vertex 0.02012 0.23252 -0.03326
   vertex 0.022152 0.233996 -0.032939
  endloop
 endfacet
 facet normal -0.168666 -0.815046 -0.554303
  outer loop
   vertex 0.017792 0.225354 -0.029835
   vertex 0.019824 0.223878 -0.028283
   vertex 0.017356 0.224014 -0.027732
  endloop
 endfacet
 facet normal -0.112009 -0.640965 -0.759354
  outer loop
   vertex 0.018495 0.22752 -0.031767
   vertex 0.020648 0.225638 -0.030496
   vertex 0.017792 0.225354 -0.029835
  endloop
 endfacet
 facet normal -0.0336945 -0.400135 -0.915836
  outer loop
   vertex 0.019344 0.230131 -0.032939
   vertex 0.021502 0.228267 -0.032204
   vertex 0.018495 0.22752 -0.031767
  endloop
 endfacet
 facet normal -0.0710868 -0.767617 -0.636955
  outer loop
   vertex 0.017792 0.225354 -0.029835
   vertex 0.020648 0.225638 -0.030496
   vertex 0.019824 0.223878 -0.028283
  endloop
 endfacet
 facet normal 0.102735 -0.796801 -0.595444
  outer loop
   vertex 0.020648 0.225638 -0.030496
   vertex 0.022749 0.22443 -0.028517
   vertex 0.019824 0.223878 -0.028283
  endloop
 endfacet
 facet normal 0.0146149 -0.548074 -0.836302
  outer loop
   vertex 0.018495 0.22752 -0.031767
   vertex 0.021502 0.228267 -0.032204
   vertex 0.020648 0.225638 -0.030496
  endloop
 endfacet
 facet normal 0.187559 -0.577248 -0.794737
  outer loop
   vertex 0.021502 0.228267 -0.032204
   vertex 0.023738 0.226642 -0.030496
   vertex 0.020648 0.225638 -0.030496
  endloop
 endfacet
 facet normal 0.228709 -0.703897 -0.672474
  outer loop
   vertex 0.020648 0.225638 -0.030496
   vertex 0.023738 0.226642 -0.030496
   vertex 0.022749 0.22443 -0.028517
  endloop
 endfacet
 facet normal 0.38541 -0.704977 -0.595371
  outer loop
   vertex 0.023738 0.226642 -0.030496
   vertex 0.025439 0.225703 -0.028283
   vertex 0.022749 0.22443 -0.028517
  endloop
 endfacet
 facet normal 0.0891868 -0.274301 -0.957499
  outer loop
   vertex 0.019344 0.230131 -0.032939
   vertex 0.022152 0.231044 -0.032939
   vertex 0.021502 0.228267 -0.032204
  endloop
 endfacet
 facet normal 0.262485 -0.303841 -0.915851
  outer loop
   vertex 0.022152 0.231044 -0.032939
   vertex 0.024373 0.22943 -0.031767
   vertex 0.021502 0.228267 -0.032204
  endloop
 endfacet
 facet normal 0.310374 -0.451949 -0.836307
  outer loop
   vertex 0.021502 0.228267 -0.032204
   vertex 0.024373 0.22943 -0.031767
   vertex 0.023738 0.226642 -0.030496
  endloop
 endfacet
 facet normal 0.467426 -0.452641 -0.759361
  outer loop
   vertex 0.024373 0.22943 -0.031767
   vertex 0.026215 0.228091 -0.029835
   vertex 0.023738 0.226642 -0.030496
  endloop
 endfacet
 facet normal 0.508799 -0.579247 -0.636864
  outer loop
   vertex 0.023738 0.226642 -0.030496
   vertex 0.026215 0.228091 -0.029835
   vertex 0.025439 0.225703 -0.028283
  endloop
 endfacet
 facet normal 0.61533 -0.560308 -0.554459
  outer loop
   vertex 0.026215 0.228091 -0.029835
   vertex 0.027356 0.227263 -0.027732
   vertex 0.025439 0.225703 -0.028283
  endloop
 endfacet
endsolid ExportedfromBlender-3.5.1
