solid ExportedfromBlender-3.5.1
 facet normal 0.0482486 -0.148392 -0.987751
  outer loop
   vertex -0.01678 0.18757 -0.01815
   vertex -0.014748 0.186094 -0.017829
   vertex -0.017556 0.185181 -0.017829
  endloop
 endfacet
 facet normal 0.723015 -0.412034 -0.554506
  outer loop
   vertex -0.009544 0.182313 -0.012622
   vertex -0.010685 0.183141 -0.014725
   vertex -0.008653 0.184618 -0.013173
  endloop
 endfacet
 facet normal -0.126271 -0.0917039 -0.987748
  outer loop
   vertex -0.01678 0.18757 -0.01815
   vertex -0.017556 0.185181 -0.017829
   vertex -0.019291 0.18757 -0.017829
  endloop
 endfacet
 facet normal -0.126271 0.0917039 -0.987748
  outer loop
   vertex -0.01678 0.18757 -0.01815
   vertex -0.019291 0.18757 -0.017829
   vertex -0.017556 0.189959 -0.017829
  endloop
 endfacet
 facet normal 0.0482486 0.148392 -0.987751
  outer loop
   vertex -0.01678 0.18757 -0.01815
   vertex -0.017556 0.189959 -0.017829
   vertex -0.014748 0.189046 -0.017829
  endloop
 endfacet
 facet normal 0.819189 -0.412026 -0.398954
  outer loop
   vertex -0.009544 0.182313 -0.012622
   vertex -0.008653 0.184618 -0.013173
   vertex -0.008173 0.183141 -0.010662
  endloop
 endfacet
 facet normal -0.138975 -0.90647 -0.398746
  outer loop
   vertex -0.019544 0.179064 -0.012622
   vertex -0.017076 0.178928 -0.013173
   vertex -0.018332 0.178016 -0.010662
  endloop
 endfacet
 facet normal -0.905177 -0.147939 -0.398459
  outer loop
   vertex -0.025724 0.18757 -0.012622
   vertex -0.025091 0.185181 -0.013173
   vertex -0.026346 0.186094 -0.010661
  endloop
 endfacet
 facet normal -0.420269 0.815078 -0.398776
  outer loop
   vertex -0.019544 0.196076 -0.012622
   vertex -0.02162 0.194736 -0.013173
   vertex -0.02114 0.196212 -0.010662
  endloop
 endfacet
 facet normal 0.645038 0.651744 -0.398942
  outer loop
   vertex -0.009544 0.192827 -0.012622
   vertex -0.011461 0.194387 -0.013173
   vertex -0.009908 0.194387 -0.010662
  endloop
 endfacet
 facet normal 0.771063 -0.560215 -0.302688
  outer loop
   vertex -0.009544 0.182313 -0.012622
   vertex -0.008173 0.183141 -0.010662
   vertex -0.009908 0.180753 -0.010662
  endloop
 endfacet
 facet normal -0.294416 -0.906493 -0.302638
  outer loop
   vertex -0.019544 0.179064 -0.012622
   vertex -0.018332 0.178016 -0.010662
   vertex -0.02114 0.178928 -0.010662
  endloop
 endfacet
 facet normal -0.9532 0 -0.302341
  outer loop
   vertex -0.025724 0.18757 -0.012622
   vertex -0.026346 0.186094 -0.010661
   vertex -0.026346 0.189046 -0.010661
  endloop
 endfacet
 facet normal -0.294416 0.906493 -0.302638
  outer loop
   vertex -0.019544 0.196076 -0.012622
   vertex -0.02114 0.196212 -0.010662
   vertex -0.018332 0.197124 -0.010662
  endloop
 endfacet
 facet normal 0.771063 0.560215 -0.302688
  outer loop
   vertex -0.009544 0.192827 -0.012622
   vertex -0.009908 0.194387 -0.010662
   vertex -0.008173 0.191999 -0.010662
  endloop
 endfacet
 facet normal 0.342493 -0.758552 0.554344
  outer loop
   vertex -0.014016 0.179064 -0.003678
   vertex -0.01194 0.180404 -0.003127
   vertex -0.014452 0.180404 -0.001575
  endloop
 endfacet
 facet normal -0.61533 -0.560308 0.554459
  outer loop
   vertex -0.024016 0.182313 -0.003678
   vertex -0.022099 0.180753 -0.003127
   vertex -0.022875 0.183141 -0.001575
  endloop
 endfacet
 facet normal -0.723015 0.412034 0.554506
  outer loop
   vertex -0.024016 0.192827 -0.003678
   vertex -0.024907 0.190522 -0.003127
   vertex -0.022875 0.191999 -0.001575
  endloop
 endfacet
 facet normal 0.168666 0.815046 0.554303
  outer loop
   vertex -0.014016 0.196076 -0.003678
   vertex -0.016484 0.196212 -0.003127
   vertex -0.014452 0.194736 -0.001575
  endloop
 endfacet
 facet normal 0.827124 0.091254 0.554562
  outer loop
   vertex -0.007836 0.18757 -0.003678
   vertex -0.008469 0.189959 -0.003127
   vertex -0.009246 0.18757 -0.001575
  endloop
 endfacet
 facet normal 0.126271 0.0917039 0.987748
  outer loop
   vertex -0.014269 0.18757 0.001529
   vertex -0.016004 0.189959 0.001529
   vertex -0.01678 0.18757 0.00185
  endloop
 endfacet
 facet normal 0.390899 0.0914587 0.915878
  outer loop
   vertex -0.011523 0.18757 0.000357
   vertex -0.013162 0.190199 0.000794
   vertex -0.014269 0.18757 0.001529
  endloop
 endfacet
 facet normal 0.644269 0.0913996 0.759317
  outer loop
   vertex -0.009246 0.18757 -0.001575
   vertex -0.010398 0.190199 -0.000914
   vertex -0.011523 0.18757 0.000357
  endloop
 endfacet
 facet normal 0.233325 0.169451 0.957521
  outer loop
   vertex -0.014269 0.18757 0.001529
   vertex -0.013162 0.190199 0.000794
   vertex -0.016004 0.189959 0.001529
  endloop
 endfacet
 facet normal 0.207851 0.343516 0.915858
  outer loop
   vertex -0.013162 0.190199 0.000794
   vertex -0.015155 0.19257 0.000357
   vertex -0.016004 0.189959 0.001529
  endloop
 endfacet
 facet normal 0.516783 0.183167 0.836293
  outer loop
   vertex -0.011523 0.18757 0.000357
   vertex -0.010398 0.190199 -0.000914
   vertex -0.013162 0.190199 0.000794
  endloop
 endfacet
 facet normal 0.491058 0.356895 0.794662
  outer loop
   vertex -0.010398 0.190199 -0.000914
   vertex -0.012308 0.192827 -0.000914
   vertex -0.013162 0.190199 0.000794
  endloop
 endfacet
 facet normal 0.334054 0.43492 0.836213
  outer loop
   vertex -0.013162 0.190199 0.000794
   vertex -0.012308 0.192827 -0.000914
   vertex -0.015155 0.19257 0.000357
  endloop
 endfacet
 facet normal 0.286233 0.584386 0.759318
  outer loop
   vertex -0.012308 0.192827 -0.000914
   vertex -0.014452 0.194736 -0.001575
   vertex -0.015155 0.19257 0.000357
  endloop
 endfacet
 facet normal 0.751958 0.169318 0.637095
  outer loop
   vertex -0.009246 0.18757 -0.001575
   vertex -0.008469 0.189959 -0.003127
   vertex -0.010398 0.190199 -0.000914
  endloop
 endfacet
 facet normal 0.725985 0.343961 0.595514
  outer loop
   vertex -0.008469 0.189959 -0.003127
   vertex -0.009898 0.19257 -0.002893
   vertex -0.010398 0.190199 -0.000914
  endloop
 endfacet
 facet normal 0.598657 0.435097 0.672533
  outer loop
   vertex -0.010398 0.190199 -0.000914
   vertex -0.009898 0.19257 -0.002893
   vertex -0.012308 0.192827 -0.000914
  endloop
 endfacet
 facet normal 0.551379 0.584158 0.595601
  outer loop
   vertex -0.009898 0.19257 -0.002893
   vertex -0.01194 0.194736 -0.003127
   vertex -0.012308 0.192827 -0.000914
  endloop
 endfacet
 facet normal 0.393627 0.662685 0.637108
  outer loop
   vertex -0.012308 0.192827 -0.000914
   vertex -0.01194 0.194736 -0.003127
   vertex -0.014452 0.194736 -0.001575
  endloop
 endfacet
 facet normal 0.342493 0.758552 0.554344
  outer loop
   vertex -0.01194 0.194736 -0.003127
   vertex -0.014016 0.196076 -0.003678
   vertex -0.014452 0.194736 -0.001575
  endloop
 endfacet
 facet normal -0.0482486 0.148392 0.987751
  outer loop
   vertex -0.016004 0.189959 0.001529
   vertex -0.018812 0.189046 0.001529
   vertex -0.01678 0.18757 0.00185
  endloop
 endfacet
 facet normal 0.0336945 0.400135 0.915836
  outer loop
   vertex -0.015155 0.19257 0.000357
   vertex -0.018162 0.191823 0.000794
   vertex -0.016004 0.189959 0.001529
  endloop
 endfacet
 facet normal 0.112009 0.640965 0.759354
  outer loop
   vertex -0.014452 0.194736 -0.001575
   vertex -0.017308 0.194452 -0.000914
   vertex -0.015155 0.19257 0.000357
  endloop
 endfacet
 facet normal -0.0891868 0.274301 0.957499
  outer loop
   vertex -0.016004 0.189959 0.001529
   vertex -0.018162 0.191823 0.000794
   vertex -0.018812 0.189046 0.001529
  endloop
 endfacet
 facet normal -0.262485 0.303841 0.915851
  outer loop
   vertex -0.018162 0.191823 0.000794
   vertex -0.021033 0.19066 0.000357
   vertex -0.018812 0.189046 0.001529
  endloop
 endfacet
 facet normal -0.0146149 0.548074 0.836302
  outer loop
   vertex -0.015155 0.19257 0.000357
   vertex -0.017308 0.194452 -0.000914
   vertex -0.018162 0.191823 0.000794
  endloop
 endfacet
 facet normal -0.187559 0.577248 0.794737
  outer loop
   vertex -0.017308 0.194452 -0.000914
   vertex -0.020398 0.193448 -0.000914
   vertex -0.018162 0.191823 0.000794
  endloop
 endfacet
 facet normal -0.310374 0.451949 0.836307
  outer loop
   vertex -0.018162 0.191823 0.000794
   vertex -0.020398 0.193448 -0.000914
   vertex -0.021033 0.19066 0.000357
  endloop
 endfacet
 facet normal -0.467426 0.452641 0.759361
  outer loop
   vertex -0.020398 0.193448 -0.000914
   vertex -0.022875 0.191999 -0.001575
   vertex -0.021033 0.19066 0.000357
  endloop
 endfacet
 facet normal 0.0710868 0.767617 0.636955
  outer loop
   vertex -0.014452 0.194736 -0.001575
   vertex -0.016484 0.196212 -0.003127
   vertex -0.017308 0.194452 -0.000914
  endloop
 endfacet
 facet normal -0.102735 0.796801 0.595444
  outer loop
   vertex -0.016484 0.196212 -0.003127
   vertex -0.019409 0.19566 -0.002893
   vertex -0.017308 0.194452 -0.000914
  endloop
 endfacet
 facet normal -0.228709 0.703897 0.672474
  outer loop
   vertex -0.017308 0.194452 -0.000914
   vertex -0.019409 0.19566 -0.002893
   vertex -0.020398 0.193448 -0.000914
  endloop
 endfacet
 facet normal -0.38541 0.704977 0.595371
  outer loop
   vertex -0.019409 0.19566 -0.002893
   vertex -0.022099 0.194387 -0.003127
   vertex -0.020398 0.193448 -0.000914
  endloop
 endfacet
 facet normal -0.508799 0.579247 0.636864
  outer loop
   vertex -0.020398 0.193448 -0.000914
   vertex -0.022099 0.194387 -0.003127
   vertex -0.022875 0.191999 -0.001575
  endloop
 endfacet
 facet normal -0.61533 0.560308 0.554459
  outer loop
   vertex -0.022099 0.194387 -0.003127
   vertex -0.024016 0.192827 -0.003678
   vertex -0.022875 0.191999 -0.001575
  endloop
 endfacet
 facet normal -0.156037 0 0.987751
  outer loop
   vertex -0.018812 0.189046 0.001529
   vertex -0.018812 0.186094 0.001529
   vertex -0.01678 0.18757 0.00185
  endloop
 endfacet
 facet normal -0.370096 0.155752 0.915844
  outer loop
   vertex -0.021033 0.19066 0.000357
   vertex -0.021252 0.18757 0.000794
   vertex -0.018812 0.189046 0.001529
  endloop
 endfacet
 facet normal -0.574948 0.304695 0.759339
  outer loop
   vertex -0.022875 0.191999 -0.001575
   vertex -0.023488 0.189195 -0.000914
   vertex -0.021033 0.19066 0.000357
  endloop
 endfacet
 facet normal -0.288428 0 0.957502
  outer loop
   vertex -0.018812 0.189046 0.001529
   vertex -0.021252 0.18757 0.000794
   vertex -0.018812 0.186094 0.001529
  endloop
 endfacet
 facet normal -0.370096 -0.155752 0.915844
  outer loop
   vertex -0.021252 0.18757 0.000794
   vertex -0.021033 0.18448 0.000357
   vertex -0.018812 0.186094 0.001529
  endloop
 endfacet
 facet normal -0.525774 0.155534 0.836284
  outer loop
   vertex -0.021033 0.19066 0.000357
   vertex -0.023488 0.189195 -0.000914
   vertex -0.021252 0.18757 0.000794
  endloop
 endfacet
 facet normal -0.607028 0 0.794681
  outer loop
   vertex -0.023488 0.189195 -0.000914
   vertex -0.023488 0.185945 -0.000914
   vertex -0.021252 0.18757 0.000794
  endloop
 endfacet
 facet normal -0.525774 -0.155534 0.836284
  outer loop
   vertex -0.021252 0.18757 0.000794
   vertex -0.023488 0.185945 -0.000914
   vertex -0.021033 0.18448 0.000357
  endloop
 endfacet
 facet normal -0.574948 -0.304695 0.759339
  outer loop
   vertex -0.023488 0.185945 -0.000914
   vertex -0.022875 0.183141 -0.001575
   vertex -0.021033 0.18448 0.000357
  endloop
 endfacet
 facet normal -0.708089 0.304936 0.636886
  outer loop
   vertex -0.022875 0.191999 -0.001575
   vertex -0.024907 0.190522 -0.003127
   vertex -0.023488 0.189195 -0.000914
  endloop
 endfacet
 facet normal -0.789589 0.148568 0.59538
  outer loop
   vertex -0.024907 0.190522 -0.003127
   vertex -0.025286 0.18757 -0.002893
   vertex -0.023488 0.189195 -0.000914
  endloop
 endfacet
 facet normal -0.740143 0 0.672449
  outer loop
   vertex -0.023488 0.189195 -0.000914
   vertex -0.025286 0.18757 -0.002893
   vertex -0.023488 0.185945 -0.000914
  endloop
 endfacet
 facet normal -0.789589 -0.148568 0.59538
  outer loop
   vertex -0.025286 0.18757 -0.002893
   vertex -0.024907 0.184618 -0.003127
   vertex -0.023488 0.185945 -0.000914
  endloop
 endfacet
 facet normal -0.708089 -0.304936 0.636886
  outer loop
   vertex -0.023488 0.185945 -0.000914
   vertex -0.024907 0.184618 -0.003127
   vertex -0.022875 0.183141 -0.001575
  endloop
 endfacet
 facet normal -0.723015 -0.412034 0.554506
  outer loop
   vertex -0.024907 0.184618 -0.003127
   vertex -0.024016 0.182313 -0.003678
   vertex -0.022875 0.183141 -0.001575
  endloop
 endfacet
 facet normal -0.0482486 -0.148392 0.987751
  outer loop
   vertex -0.018812 0.186094 0.001529
   vertex -0.016004 0.185181 0.001529
   vertex -0.01678 0.18757 0.00185
  endloop
 endfacet
 facet normal -0.262485 -0.303841 0.915851
  outer loop
   vertex -0.021033 0.18448 0.000357
   vertex -0.018162 0.183317 0.000794
   vertex -0.018812 0.186094 0.001529
  endloop
 endfacet
 facet normal -0.467426 -0.452641 0.759361
  outer loop
   vertex -0.022875 0.183141 -0.001575
   vertex -0.020398 0.181692 -0.000914
   vertex -0.021033 0.18448 0.000357
  endloop
 endfacet
 facet normal -0.0891868 -0.274301 0.957499
  outer loop
   vertex -0.018812 0.186094 0.001529
   vertex -0.018162 0.183317 0.000794
   vertex -0.016004 0.185181 0.001529
  endloop
 endfacet
 facet normal 0.0336945 -0.400135 0.915836
  outer loop
   vertex -0.018162 0.183317 0.000794
   vertex -0.015155 0.18257 0.000357
   vertex -0.016004 0.185181 0.001529
  endloop
 endfacet
 facet normal -0.310374 -0.451949 0.836307
  outer loop
   vertex -0.021033 0.18448 0.000357
   vertex -0.020398 0.181692 -0.000914
   vertex -0.018162 0.183317 0.000794
  endloop
 endfacet
 facet normal -0.187559 -0.577248 0.794737
  outer loop
   vertex -0.020398 0.181692 -0.000914
   vertex -0.017308 0.180688 -0.000914
   vertex -0.018162 0.183317 0.000794
  endloop
 endfacet
 facet normal -0.0146149 -0.548074 0.836302
  outer loop
   vertex -0.018162 0.183317 0.000794
   vertex -0.017308 0.180688 -0.000914
   vertex -0.015155 0.18257 0.000357
  endloop
 endfacet
 facet normal 0.112009 -0.640965 0.759354
  outer loop
   vertex -0.017308 0.180688 -0.000914
   vertex -0.014452 0.180404 -0.001575
   vertex -0.015155 0.18257 0.000357
  endloop
 endfacet
 facet normal -0.508799 -0.579247 0.636864
  outer loop
   vertex -0.022875 0.183141 -0.001575
   vertex -0.022099 0.180753 -0.003127
   vertex -0.020398 0.181692 -0.000914
  endloop
 endfacet
 facet normal -0.38541 -0.704977 0.595371
  outer loop
   vertex -0.022099 0.180753 -0.003127
   vertex -0.019409 0.17948 -0.002893
   vertex -0.020398 0.181692 -0.000914
  endloop
 endfacet
 facet normal -0.228709 -0.703897 0.672474
  outer loop
   vertex -0.020398 0.181692 -0.000914
   vertex -0.019409 0.17948 -0.002893
   vertex -0.017308 0.180688 -0.000914
  endloop
 endfacet
 facet normal -0.102735 -0.796801 0.595444
  outer loop
   vertex -0.019409 0.17948 -0.002893
   vertex -0.016484 0.178928 -0.003127
   vertex -0.017308 0.180688 -0.000914
  endloop
 endfacet
 facet normal 0.0710868 -0.767617 0.636955
  outer loop
   vertex -0.017308 0.180688 -0.000914
   vertex -0.016484 0.178928 -0.003127
   vertex -0.014452 0.180404 -0.001575
  endloop
 endfacet
 facet normal 0.168666 -0.815046 0.554303
  outer loop
   vertex -0.016484 0.178928 -0.003127
   vertex -0.014016 0.179064 -0.003678
   vertex -0.014452 0.180404 -0.001575
  endloop
 endfacet
 facet normal 0.126271 -0.0917039 0.987748
  outer loop
   vertex -0.016004 0.185181 0.001529
   vertex -0.014269 0.18757 0.001529
   vertex -0.01678 0.18757 0.00185
  endloop
 endfacet
 facet normal 0.207851 -0.343516 0.915858
  outer loop
   vertex -0.015155 0.18257 0.000357
   vertex -0.013162 0.184941 0.000794
   vertex -0.016004 0.185181 0.001529
  endloop
 endfacet
 facet normal 0.286233 -0.584386 0.759318
  outer loop
   vertex -0.014452 0.180404 -0.001575
   vertex -0.012308 0.182313 -0.000914
   vertex -0.015155 0.18257 0.000357
  endloop
 endfacet
 facet normal 0.233325 -0.169451 0.957521
  outer loop
   vertex -0.016004 0.185181 0.001529
   vertex -0.013162 0.184941 0.000794
   vertex -0.014269 0.18757 0.001529
  endloop
 endfacet
 facet normal 0.390899 -0.0914587 0.915878
  outer loop
   vertex -0.013162 0.184941 0.000794
   vertex -0.011523 0.18757 0.000357
   vertex -0.014269 0.18757 0.001529
  endloop
 endfacet
 facet normal 0.334054 -0.43492 0.836213
  outer loop
   vertex -0.015155 0.18257 0.000357
   vertex -0.012308 0.182313 -0.000914
   vertex -0.013162 0.184941 0.000794
  endloop
 endfacet
 facet normal 0.491058 -0.356895 0.794662
  outer loop
   vertex -0.012308 0.182313 -0.000914
   vertex -0.010398 0.184941 -0.000914
   vertex -0.013162 0.184941 0.000794
  endloop
 endfacet
 facet normal 0.516783 -0.183167 0.836293
  outer loop
   vertex -0.013162 0.184941 0.000794
   vertex -0.010398 0.184941 -0.000914
   vertex -0.011523 0.18757 0.000357
  endloop
 endfacet
 facet normal 0.644269 -0.0913996 0.759317
  outer loop
   vertex -0.010398 0.184941 -0.000914
   vertex -0.009246 0.18757 -0.001575
   vertex -0.011523 0.18757 0.000357
  endloop
 endfacet
 facet normal 0.393627 -0.662685 0.637108
  outer loop
   vertex -0.014452 0.180404 -0.001575
   vertex -0.01194 0.180404 -0.003127
   vertex -0.012308 0.182313 -0.000914
  endloop
 endfacet
 facet normal 0.551379 -0.584158 0.595601
  outer loop
   vertex -0.01194 0.180404 -0.003127
   vertex -0.009898 0.18257 -0.002893
   vertex -0.012308 0.182313 -0.000914
  endloop
 endfacet
 facet normal 0.598657 -0.435097 0.672533
  outer loop
   vertex -0.012308 0.182313 -0.000914
   vertex -0.009898 0.18257 -0.002893
   vertex -0.010398 0.184941 -0.000914
  endloop
 endfacet
 facet normal 0.725985 -0.343961 0.595514
  outer loop
   vertex -0.009898 0.18257 -0.002893
   vertex -0.008469 0.185181 -0.003127
   vertex -0.010398 0.184941 -0.000914
  endloop
 endfacet
 facet normal 0.751958 -0.169318 0.637095
  outer loop
   vertex -0.010398 0.184941 -0.000914
   vertex -0.008469 0.185181 -0.003127
   vertex -0.009246 0.18757 -0.001575
  endloop
 endfacet
 facet normal 0.827124 -0.091254 0.554562
  outer loop
   vertex -0.008469 0.185181 -0.003127
   vertex -0.007836 0.18757 -0.003678
   vertex -0.009246 0.18757 -0.001575
  endloop
 endfacet
 facet normal 0.905177 0.147939 0.398459
  outer loop
   vertex -0.007214 0.189046 -0.005639
   vertex -0.008469 0.189959 -0.003127
   vertex -0.007836 0.18757 -0.003678
  endloop
 endfacet
 facet normal 0.93657 0.303801 0.17476
  outer loop
   vertex -0.007269 0.19066 -0.00815
   vertex -0.008162 0.191823 -0.005386
   vertex -0.007214 0.189046 -0.005639
  endloop
 endfacet
 facet normal 0.888212 0.452708 -0.078331
  outer loop
   vertex -0.008173 0.191999 -0.010662
   vertex -0.00869 0.193448 -0.00815
   vertex -0.007269 0.19066 -0.00815
  endloop
 endfacet
 facet normal 0.89641 0.274294 0.348155
  outer loop
   vertex -0.007214 0.189046 -0.005639
   vertex -0.008162 0.191823 -0.005386
   vertex -0.008469 0.189959 -0.003127
  endloop
 endfacet
 facet normal 0.803858 0.400541 0.439749
  outer loop
   vertex -0.008162 0.191823 -0.005386
   vertex -0.009898 0.19257 -0.002893
   vertex -0.008469 0.189959 -0.003127
  endloop
 endfacet
 facet normal 0.886806 0.451991 0.0963284
  outer loop
   vertex -0.007269 0.19066 -0.00815
   vertex -0.00869 0.193448 -0.00815
   vertex -0.008162 0.191823 -0.005386
  endloop
 endfacet
 facet normal 0.794662 0.577331 0.18762
  outer loop
   vertex -0.00869 0.193448 -0.00815
   vertex -0.010072 0.194452 -0.005386
   vertex -0.008162 0.191823 -0.005386
  endloop
 endfacet
 facet normal 0.754436 0.548107 0.361117
  outer loop
   vertex -0.008162 0.191823 -0.005386
   vertex -0.010072 0.194452 -0.005386
   vertex -0.009898 0.19257 -0.002893
  endloop
 endfacet
 facet normal 0.629279 0.640767 0.439803
  outer loop
   vertex -0.010072 0.194452 -0.005386
   vertex -0.01194 0.194736 -0.003127
   vertex -0.009898 0.19257 -0.002893
  endloop
 endfacet
 facet normal 0.797233 0.579229 -0.170037
  outer loop
   vertex -0.008173 0.191999 -0.010662
   vertex -0.009908 0.194387 -0.010662
   vertex -0.00869 0.193448 -0.00815
  endloop
 endfacet
 facet normal 0.704936 0.704936 -0.0782949
  outer loop
   vertex -0.009908 0.194387 -0.010662
   vertex -0.010902 0.19566 -0.00815
   vertex -0.00869 0.193448 -0.00815
  endloop
 endfacet
 facet normal 0.703824 0.703824 0.0962537
  outer loop
   vertex -0.00869 0.193448 -0.00815
   vertex -0.010902 0.19566 -0.00815
   vertex -0.010072 0.194452 -0.005386
  endloop
 endfacet
 facet normal 0.578519 0.796783 0.174509
  outer loop
   vertex -0.010902 0.19566 -0.00815
   vertex -0.01242 0.196212 -0.005638
   vertex -0.010072 0.194452 -0.005386
  endloop
 endfacet
 facet normal 0.537986 0.767602 0.348366
  outer loop
   vertex -0.010072 0.194452 -0.005386
   vertex -0.01242 0.196212 -0.005638
   vertex -0.01194 0.194736 -0.003127
  endloop
 endfacet
 facet normal 0.420269 0.815078 0.398776
  outer loop
   vertex -0.01242 0.196212 -0.005638
   vertex -0.014016 0.196076 -0.003678
   vertex -0.01194 0.194736 -0.003127
  endloop
 endfacet
 facet normal 0.138975 0.90647 0.398746
  outer loop
   vertex -0.015228 0.197124 -0.005638
   vertex -0.016484 0.196212 -0.003127
   vertex -0.014016 0.196076 -0.003678
  endloop
 endfacet
 facet normal 0.000555151 0.98466 0.174481
  outer loop
   vertex -0.01678 0.19757 -0.00815
   vertex -0.018162 0.197081 -0.005386
   vertex -0.015228 0.197124 -0.005638
  endloop
 endfacet
 facet normal -0.155824 0.984657 -0.07855
  outer loop
   vertex -0.018332 0.197124 -0.010662
   vertex -0.01987 0.197081 -0.00815
   vertex -0.01678 0.19757 -0.00815
  endloop
 endfacet
 facet normal 0.0161962 0.937175 0.348485
  outer loop
   vertex -0.015228 0.197124 -0.005638
   vertex -0.018162 0.197081 -0.005386
   vertex -0.016484 0.196212 -0.003127
  endloop
 endfacet
 facet normal -0.132412 0.888171 0.440021
  outer loop
   vertex -0.018162 0.197081 -0.005386
   vertex -0.019409 0.19566 -0.002893
   vertex -0.016484 0.196212 -0.003127
  endloop
 endfacet
 facet normal -0.155583 0.983133 0.0961419
  outer loop
   vertex -0.01678 0.19757 -0.00815
   vertex -0.01987 0.197081 -0.00815
   vertex -0.018162 0.197081 -0.005386
  endloop
 endfacet
 facet normal -0.303796 0.934059 0.187729
  outer loop
   vertex -0.01987 0.197081 -0.00815
   vertex -0.021252 0.196076 -0.005386
   vertex -0.018162 0.197081 -0.005386
  endloop
 endfacet
 facet normal -0.288415 0.886769 0.361189
  outer loop
   vertex -0.018162 0.197081 -0.005386
   vertex -0.021252 0.196076 -0.005386
   vertex -0.019409 0.19566 -0.002893
  endloop
 endfacet
 facet normal -0.415138 0.796394 0.439791
  outer loop
   vertex -0.021252 0.196076 -0.005386
   vertex -0.022099 0.194387 -0.003127
   vertex -0.019409 0.19566 -0.002893
  endloop
 endfacet
 facet normal -0.304389 0.937197 -0.170322
  outer loop
   vertex -0.018332 0.197124 -0.010662
   vertex -0.02114 0.196212 -0.010662
   vertex -0.01987 0.197081 -0.00815
  endloop
 endfacet
 facet normal -0.452705 0.888208 -0.0783901
  outer loop
   vertex -0.02114 0.196212 -0.010662
   vertex -0.022658 0.19566 -0.00815
   vertex -0.01987 0.197081 -0.00815
  endloop
 endfacet
 facet normal -0.451986 0.886796 0.0964489
  outer loop
   vertex -0.01987 0.197081 -0.00815
   vertex -0.022658 0.19566 -0.00815
   vertex -0.021252 0.196076 -0.005386
  endloop
 endfacet
 facet normal -0.578874 0.796508 0.174584
  outer loop
   vertex -0.022658 0.19566 -0.00815
   vertex -0.023652 0.194387 -0.005638
   vertex -0.021252 0.196076 -0.005386
  endloop
 endfacet
 facet normal -0.563623 0.748876 0.348589
  outer loop
   vertex -0.021252 0.196076 -0.005386
   vertex -0.023652 0.194387 -0.005638
   vertex -0.022099 0.194387 -0.003127
  endloop
 endfacet
 facet normal -0.645038 0.651744 0.398942
  outer loop
   vertex -0.023652 0.194387 -0.005638
   vertex -0.024016 0.192827 -0.003678
   vertex -0.022099 0.194387 -0.003127
  endloop
 endfacet
 facet normal -0.819189 0.412026 0.398954
  outer loop
   vertex -0.025387 0.191999 -0.005638
   vertex -0.024907 0.190522 -0.003127
   vertex -0.024016 0.192827 -0.003678
  endloop
 endfacet
 facet normal -0.936352 0.304548 0.174631
  outer loop
   vertex -0.026291 0.19066 -0.00815
   vertex -0.026252 0.189195 -0.005386
   vertex -0.025387 0.191999 -0.005638
  endloop
 endfacet
 facet normal -0.984653 0.155824 -0.0785916
  outer loop
   vertex -0.026346 0.189046 -0.010661
   vertex -0.02678 0.18757 -0.00815
   vertex -0.026291 0.19066 -0.00815
  endloop
 endfacet
 facet normal -0.886309 0.304753 0.348685
  outer loop
   vertex -0.025387 0.191999 -0.005638
   vertex -0.026252 0.189195 -0.005386
   vertex -0.024907 0.190522 -0.003127
  endloop
 endfacet
 facet normal -0.885615 0.148581 0.440011
  outer loop
   vertex -0.026252 0.189195 -0.005386
   vertex -0.025286 0.18757 -0.002893
   vertex -0.024907 0.190522 -0.003127
  endloop
 endfacet
 facet normal -0.983115 0.15558 0.0963335
  outer loop
   vertex -0.026291 0.19066 -0.00815
   vertex -0.02678 0.18757 -0.00815
   vertex -0.026252 0.189195 -0.005386
  endloop
 endfacet
 facet normal -0.982239 0 0.187634
  outer loop
   vertex -0.02678 0.18757 -0.00815
   vertex -0.026252 0.185945 -0.005386
   vertex -0.026252 0.189195 -0.005386
  endloop
 endfacet
 facet normal -0.932446 0 0.361309
  outer loop
   vertex -0.026252 0.189195 -0.005386
   vertex -0.026252 0.185945 -0.005386
   vertex -0.025286 0.18757 -0.002893
  endloop
 endfacet
 facet normal -0.885615 -0.148581 0.440011
  outer loop
   vertex -0.026252 0.185945 -0.005386
   vertex -0.024907 0.184618 -0.003127
   vertex -0.025286 0.18757 -0.002893
  endloop
 endfacet
 facet normal -0.98539 -0 -0.170314
  outer loop
   vertex -0.026346 0.189046 -0.010661
   vertex -0.026346 0.186094 -0.010661
   vertex -0.02678 0.18757 -0.00815
  endloop
 endfacet
 facet normal -0.984653 -0.155824 -0.0785916
  outer loop
   vertex -0.026346 0.186094 -0.010661
   vertex -0.026291 0.18448 -0.00815
   vertex -0.02678 0.18757 -0.00815
  endloop
 endfacet
 facet normal -0.983115 -0.15558 0.0963335
  outer loop
   vertex -0.02678 0.18757 -0.00815
   vertex -0.026291 0.18448 -0.00815
   vertex -0.026252 0.185945 -0.005386
  endloop
 endfacet
 facet normal -0.936352 -0.304548 0.174631
  outer loop
   vertex -0.026291 0.18448 -0.00815
   vertex -0.025387 0.183141 -0.005638
   vertex -0.026252 0.185945 -0.005386
  endloop
 endfacet
 facet normal -0.886309 -0.304753 0.348685
  outer loop
   vertex -0.026252 0.185945 -0.005386
   vertex -0.025387 0.183141 -0.005638
   vertex -0.024907 0.184618 -0.003127
  endloop
 endfacet
 facet normal -0.819189 -0.412026 0.398954
  outer loop
   vertex -0.025387 0.183141 -0.005638
   vertex -0.024016 0.182313 -0.003678
   vertex -0.024907 0.184618 -0.003127
  endloop
 endfacet
 facet normal -0.645038 -0.651744 0.398942
  outer loop
   vertex -0.023652 0.180753 -0.005638
   vertex -0.022099 0.180753 -0.003127
   vertex -0.024016 0.182313 -0.003678
  endloop
 endfacet
 facet normal -0.578874 -0.796508 0.174584
  outer loop
   vertex -0.022658 0.17948 -0.00815
   vertex -0.021252 0.179064 -0.005386
   vertex -0.023652 0.180753 -0.005638
  endloop
 endfacet
 facet normal -0.452705 -0.888208 -0.0783901
  outer loop
   vertex -0.02114 0.178928 -0.010662
   vertex -0.01987 0.178059 -0.00815
   vertex -0.022658 0.17948 -0.00815
  endloop
 endfacet
 facet normal -0.563623 -0.748876 0.348589
  outer loop
   vertex -0.023652 0.180753 -0.005638
   vertex -0.021252 0.179064 -0.005386
   vertex -0.022099 0.180753 -0.003127
  endloop
 endfacet
 facet normal -0.415138 -0.796394 0.439791
  outer loop
   vertex -0.021252 0.179064 -0.005386
   vertex -0.019409 0.17948 -0.002893
   vertex -0.022099 0.180753 -0.003127
  endloop
 endfacet
 facet normal -0.451986 -0.886796 0.0964489
  outer loop
   vertex -0.022658 0.17948 -0.00815
   vertex -0.01987 0.178059 -0.00815
   vertex -0.021252 0.179064 -0.005386
  endloop
 endfacet
 facet normal -0.303796 -0.934059 0.187729
  outer loop
   vertex -0.01987 0.178059 -0.00815
   vertex -0.018162 0.178059 -0.005386
   vertex -0.021252 0.179064 -0.005386
  endloop
 endfacet
 facet normal -0.288415 -0.886769 0.361189
  outer loop
   vertex -0.021252 0.179064 -0.005386
   vertex -0.018162 0.178059 -0.005386
   vertex -0.019409 0.17948 -0.002893
  endloop
 endfacet
 facet normal -0.132412 -0.888171 0.440021
  outer loop
   vertex -0.018162 0.178059 -0.005386
   vertex -0.016484 0.178928 -0.003127
   vertex -0.019409 0.17948 -0.002893
  endloop
 endfacet
 facet normal -0.304389 -0.937197 -0.170322
  outer loop
   vertex -0.02114 0.178928 -0.010662
   vertex -0.018332 0.178016 -0.010662
   vertex -0.01987 0.178059 -0.00815
  endloop
 endfacet
 facet normal -0.155824 -0.984657 -0.07855
  outer loop
   vertex -0.018332 0.178016 -0.010662
   vertex -0.01678 0.17757 -0.00815
   vertex -0.01987 0.178059 -0.00815
  endloop
 endfacet
 facet normal -0.155583 -0.983133 0.0961419
  outer loop
   vertex -0.01987 0.178059 -0.00815
   vertex -0.01678 0.17757 -0.00815
   vertex -0.018162 0.178059 -0.005386
  endloop
 endfacet
 facet normal 0.000555151 -0.98466 0.174481
  outer loop
   vertex -0.01678 0.17757 -0.00815
   vertex -0.015228 0.178016 -0.005638
   vertex -0.018162 0.178059 -0.005386
  endloop
 endfacet
 facet normal 0.0161962 -0.937175 0.348485
  outer loop
   vertex -0.018162 0.178059 -0.005386
   vertex -0.015228 0.178016 -0.005638
   vertex -0.016484 0.178928 -0.003127
  endloop
 endfacet
 facet normal 0.138975 -0.90647 0.398746
  outer loop
   vertex -0.015228 0.178016 -0.005638
   vertex -0.014016 0.179064 -0.003678
   vertex -0.016484 0.178928 -0.003127
  endloop
 endfacet
 facet normal 0.420269 -0.815078 0.398776
  outer loop
   vertex -0.01242 0.178928 -0.005638
   vertex -0.01194 0.180404 -0.003127
   vertex -0.014016 0.179064 -0.003678
  endloop
 endfacet
 facet normal 0.578519 -0.796783 0.174509
  outer loop
   vertex -0.010902 0.17948 -0.00815
   vertex -0.010072 0.180688 -0.005386
   vertex -0.01242 0.178928 -0.005638
  endloop
 endfacet
 facet normal 0.704936 -0.704936 -0.0782949
  outer loop
   vertex -0.009908 0.180753 -0.010662
   vertex -0.00869 0.181692 -0.00815
   vertex -0.010902 0.17948 -0.00815
  endloop
 endfacet
 facet normal 0.537986 -0.767602 0.348366
  outer loop
   vertex -0.01242 0.178928 -0.005638
   vertex -0.010072 0.180688 -0.005386
   vertex -0.01194 0.180404 -0.003127
  endloop
 endfacet
 facet normal 0.629279 -0.640767 0.439803
  outer loop
   vertex -0.010072 0.180688 -0.005386
   vertex -0.009898 0.18257 -0.002893
   vertex -0.01194 0.180404 -0.003127
  endloop
 endfacet
 facet normal 0.703824 -0.703824 0.0962537
  outer loop
   vertex -0.010902 0.17948 -0.00815
   vertex -0.00869 0.181692 -0.00815
   vertex -0.010072 0.180688 -0.005386
  endloop
 endfacet
 facet normal 0.794662 -0.577331 0.18762
  outer loop
   vertex -0.00869 0.181692 -0.00815
   vertex -0.008162 0.183317 -0.005386
   vertex -0.010072 0.180688 -0.005386
  endloop
 endfacet
 facet normal 0.754436 -0.548107 0.361117
  outer loop
   vertex -0.010072 0.180688 -0.005386
   vertex -0.008162 0.183317 -0.005386
   vertex -0.009898 0.18257 -0.002893
  endloop
 endfacet
 facet normal 0.803858 -0.400541 0.439749
  outer loop
   vertex -0.008162 0.183317 -0.005386
   vertex -0.008469 0.185181 -0.003127
   vertex -0.009898 0.18257 -0.002893
  endloop
 endfacet
 facet normal 0.797233 -0.579229 -0.170037
  outer loop
   vertex -0.009908 0.180753 -0.010662
   vertex -0.008173 0.183141 -0.010662
   vertex -0.00869 0.181692 -0.00815
  endloop
 endfacet
 facet normal 0.888212 -0.452708 -0.078331
  outer loop
   vertex -0.008173 0.183141 -0.010662
   vertex -0.007269 0.18448 -0.00815
   vertex -0.00869 0.181692 -0.00815
  endloop
 endfacet
 facet normal 0.886806 -0.451991 0.0963284
  outer loop
   vertex -0.00869 0.181692 -0.00815
   vertex -0.007269 0.18448 -0.00815
   vertex -0.008162 0.183317 -0.005386
  endloop
 endfacet
 facet normal 0.93657 -0.303801 0.17476
  outer loop
   vertex -0.007269 0.18448 -0.00815
   vertex -0.007214 0.186094 -0.005639
   vertex -0.008162 0.183317 -0.005386
  endloop
 endfacet
 facet normal 0.89641 -0.274294 0.348155
  outer loop
   vertex -0.008162 0.183317 -0.005386
   vertex -0.007214 0.186094 -0.005639
   vertex -0.008469 0.185181 -0.003127
  endloop
 endfacet
 facet normal 0.905177 -0.147939 0.398459
  outer loop
   vertex -0.007214 0.186094 -0.005639
   vertex -0.007836 0.18757 -0.003678
   vertex -0.008469 0.185181 -0.003127
  endloop
 endfacet
 facet normal 0.294416 0.906493 0.302638
  outer loop
   vertex -0.01242 0.196212 -0.005638
   vertex -0.015228 0.197124 -0.005638
   vertex -0.014016 0.196076 -0.003678
  endloop
 endfacet
 facet normal 0.452705 0.888208 0.0783901
  outer loop
   vertex -0.010902 0.19566 -0.00815
   vertex -0.01369 0.197081 -0.00815
   vertex -0.01242 0.196212 -0.005638
  endloop
 endfacet
 facet normal 0.578874 0.796508 -0.174584
  outer loop
   vertex -0.009908 0.194387 -0.010662
   vertex -0.012308 0.196076 -0.010914
   vertex -0.010902 0.19566 -0.00815
  endloop
 endfacet
 facet normal 0.304389 0.937197 0.170322
  outer loop
   vertex -0.01242 0.196212 -0.005638
   vertex -0.01369 0.197081 -0.00815
   vertex -0.015228 0.197124 -0.005638
  endloop
 endfacet
 facet normal 0.155824 0.984657 0.07855
  outer loop
   vertex -0.01369 0.197081 -0.00815
   vertex -0.01678 0.19757 -0.00815
   vertex -0.015228 0.197124 -0.005638
  endloop
 endfacet
 facet normal 0.451986 0.886796 -0.0964489
  outer loop
   vertex -0.010902 0.19566 -0.00815
   vertex -0.012308 0.196076 -0.010914
   vertex -0.01369 0.197081 -0.00815
  endloop
 endfacet
 facet normal 0.303796 0.934059 -0.187729
  outer loop
   vertex -0.012308 0.196076 -0.010914
   vertex -0.015398 0.197081 -0.010914
   vertex -0.01369 0.197081 -0.00815
  endloop
 endfacet
 facet normal 0.155583 0.983133 -0.0961419
  outer loop
   vertex -0.01369 0.197081 -0.00815
   vertex -0.015398 0.197081 -0.010914
   vertex -0.01678 0.19757 -0.00815
  endloop
 endfacet
 facet normal -0.000555151 0.98466 -0.174481
  outer loop
   vertex -0.015398 0.197081 -0.010914
   vertex -0.018332 0.197124 -0.010662
   vertex -0.01678 0.19757 -0.00815
  endloop
 endfacet
 facet normal 0.563623 0.748876 -0.348589
  outer loop
   vertex -0.009908 0.194387 -0.010662
   vertex -0.011461 0.194387 -0.013173
   vertex -0.012308 0.196076 -0.010914
  endloop
 endfacet
 facet normal 0.415138 0.796394 -0.439791
  outer loop
   vertex -0.011461 0.194387 -0.013173
   vertex -0.014151 0.19566 -0.013407
   vertex -0.012308 0.196076 -0.010914
  endloop
 endfacet
 facet normal 0.288415 0.886769 -0.361189
  outer loop
   vertex -0.012308 0.196076 -0.010914
   vertex -0.014151 0.19566 -0.013407
   vertex -0.015398 0.197081 -0.010914
  endloop
 endfacet
 facet normal 0.132412 0.888171 -0.440021
  outer loop
   vertex -0.014151 0.19566 -0.013407
   vertex -0.017076 0.196212 -0.013173
   vertex -0.015398 0.197081 -0.010914
  endloop
 endfacet
 facet normal -0.0161962 0.937175 -0.348485
  outer loop
   vertex -0.015398 0.197081 -0.010914
   vertex -0.017076 0.196212 -0.013173
   vertex -0.018332 0.197124 -0.010662
  endloop
 endfacet
 facet normal -0.138975 0.90647 -0.398746
  outer loop
   vertex -0.017076 0.196212 -0.013173
   vertex -0.019544 0.196076 -0.012622
   vertex -0.018332 0.197124 -0.010662
  endloop
 endfacet
 facet normal -0.771063 0.560215 0.302688
  outer loop
   vertex -0.023652 0.194387 -0.005638
   vertex -0.025387 0.191999 -0.005638
   vertex -0.024016 0.192827 -0.003678
  endloop
 endfacet
 facet normal -0.704936 0.704936 0.0782949
  outer loop
   vertex -0.022658 0.19566 -0.00815
   vertex -0.02487 0.193448 -0.00815
   vertex -0.023652 0.194387 -0.005638
  endloop
 endfacet
 facet normal -0.578519 0.796783 -0.174509
  outer loop
   vertex -0.02114 0.196212 -0.010662
   vertex -0.023488 0.194452 -0.010914
   vertex -0.022658 0.19566 -0.00815
  endloop
 endfacet
 facet normal -0.797233 0.579229 0.170037
  outer loop
   vertex -0.023652 0.194387 -0.005638
   vertex -0.02487 0.193448 -0.00815
   vertex -0.025387 0.191999 -0.005638
  endloop
 endfacet
 facet normal -0.888212 0.452708 0.078331
  outer loop
   vertex -0.02487 0.193448 -0.00815
   vertex -0.026291 0.19066 -0.00815
   vertex -0.025387 0.191999 -0.005638
  endloop
 endfacet
 facet normal -0.703824 0.703824 -0.0962537
  outer loop
   vertex -0.022658 0.19566 -0.00815
   vertex -0.023488 0.194452 -0.010914
   vertex -0.02487 0.193448 -0.00815
  endloop
 endfacet
 facet normal -0.794662 0.577331 -0.18762
  outer loop
   vertex -0.023488 0.194452 -0.010914
   vertex -0.025398 0.191823 -0.010914
   vertex -0.02487 0.193448 -0.00815
  endloop
 endfacet
 facet normal -0.886806 0.451991 -0.0963284
  outer loop
   vertex -0.02487 0.193448 -0.00815
   vertex -0.025398 0.191823 -0.010914
   vertex -0.026291 0.19066 -0.00815
  endloop
 endfacet
 facet normal -0.93657 0.303801 -0.17476
  outer loop
   vertex -0.025398 0.191823 -0.010914
   vertex -0.026346 0.189046 -0.010661
   vertex -0.026291 0.19066 -0.00815
  endloop
 endfacet
 facet normal -0.537986 0.767602 -0.348366
  outer loop
   vertex -0.02114 0.196212 -0.010662
   vertex -0.02162 0.194736 -0.013173
   vertex -0.023488 0.194452 -0.010914
  endloop
 endfacet
 facet normal -0.629279 0.640767 -0.439803
  outer loop
   vertex -0.02162 0.194736 -0.013173
   vertex -0.023662 0.19257 -0.013407
   vertex -0.023488 0.194452 -0.010914
  endloop
 endfacet
 facet normal -0.754436 0.548107 -0.361117
  outer loop
   vertex -0.023488 0.194452 -0.010914
   vertex -0.023662 0.19257 -0.013407
   vertex -0.025398 0.191823 -0.010914
  endloop
 endfacet
 facet normal -0.803858 0.400541 -0.439749
  outer loop
   vertex -0.023662 0.19257 -0.013407
   vertex -0.025091 0.189959 -0.013173
   vertex -0.025398 0.191823 -0.010914
  endloop
 endfacet
 facet normal -0.89641 0.274294 -0.348155
  outer loop
   vertex -0.025398 0.191823 -0.010914
   vertex -0.025091 0.189959 -0.013173
   vertex -0.026346 0.189046 -0.010661
  endloop
 endfacet
 facet normal -0.905177 0.147939 -0.398459
  outer loop
   vertex -0.025091 0.189959 -0.013173
   vertex -0.025724 0.18757 -0.012622
   vertex -0.026346 0.189046 -0.010661
  endloop
 endfacet
 facet normal -0.771063 -0.560215 0.302688
  outer loop
   vertex -0.025387 0.183141 -0.005638
   vertex -0.023652 0.180753 -0.005638
   vertex -0.024016 0.182313 -0.003678
  endloop
 endfacet
 facet normal -0.888212 -0.452708 0.078331
  outer loop
   vertex -0.026291 0.18448 -0.00815
   vertex -0.02487 0.181692 -0.00815
   vertex -0.025387 0.183141 -0.005638
  endloop
 endfacet
 facet normal -0.93657 -0.303801 -0.17476
  outer loop
   vertex -0.026346 0.186094 -0.010661
   vertex -0.025398 0.183317 -0.010914
   vertex -0.026291 0.18448 -0.00815
  endloop
 endfacet
 facet normal -0.797233 -0.579229 0.170037
  outer loop
   vertex -0.025387 0.183141 -0.005638
   vertex -0.02487 0.181692 -0.00815
   vertex -0.023652 0.180753 -0.005638
  endloop
 endfacet
 facet normal -0.704936 -0.704936 0.0782949
  outer loop
   vertex -0.02487 0.181692 -0.00815
   vertex -0.022658 0.17948 -0.00815
   vertex -0.023652 0.180753 -0.005638
  endloop
 endfacet
 facet normal -0.886806 -0.451991 -0.0963284
  outer loop
   vertex -0.026291 0.18448 -0.00815
   vertex -0.025398 0.183317 -0.010914
   vertex -0.02487 0.181692 -0.00815
  endloop
 endfacet
 facet normal -0.794662 -0.577331 -0.18762
  outer loop
   vertex -0.025398 0.183317 -0.010914
   vertex -0.023488 0.180688 -0.010914
   vertex -0.02487 0.181692 -0.00815
  endloop
 endfacet
 facet normal -0.703824 -0.703824 -0.0962537
  outer loop
   vertex -0.02487 0.181692 -0.00815
   vertex -0.023488 0.180688 -0.010914
   vertex -0.022658 0.17948 -0.00815
  endloop
 endfacet
 facet normal -0.578519 -0.796783 -0.174509
  outer loop
   vertex -0.023488 0.180688 -0.010914
   vertex -0.02114 0.178928 -0.010662
   vertex -0.022658 0.17948 -0.00815
  endloop
 endfacet
 facet normal -0.89641 -0.274294 -0.348155
  outer loop
   vertex -0.026346 0.186094 -0.010661
   vertex -0.025091 0.185181 -0.013173
   vertex -0.025398 0.183317 -0.010914
  endloop
 endfacet
 facet normal -0.803858 -0.400541 -0.439749
  outer loop
   vertex -0.025091 0.185181 -0.013173
   vertex -0.023662 0.18257 -0.013407
   vertex -0.025398 0.183317 -0.010914
  endloop
 endfacet
 facet normal -0.754436 -0.548107 -0.361117
  outer loop
   vertex -0.025398 0.183317 -0.010914
   vertex -0.023662 0.18257 -0.013407
   vertex -0.023488 0.180688 -0.010914
  endloop
 endfacet
 facet normal -0.629279 -0.640767 -0.439803
  outer loop
   vertex -0.023662 0.18257 -0.013407
   vertex -0.02162 0.180404 -0.013173
   vertex -0.023488 0.180688 -0.010914
  endloop
 endfacet
 facet normal -0.537986 -0.767602 -0.348366
  outer loop
   vertex -0.023488 0.180688 -0.010914
   vertex -0.02162 0.180404 -0.013173
   vertex -0.02114 0.178928 -0.010662
  endloop
 endfacet
 facet normal -0.420269 -0.815078 -0.398776
  outer loop
   vertex -0.02162 0.180404 -0.013173
   vertex -0.019544 0.179064 -0.012622
   vertex -0.02114 0.178928 -0.010662
  endloop
 endfacet
 facet normal 0.294416 -0.906493 0.302638
  outer loop
   vertex -0.015228 0.178016 -0.005638
   vertex -0.01242 0.178928 -0.005638
   vertex -0.014016 0.179064 -0.003678
  endloop
 endfacet
 facet normal 0.155824 -0.984657 0.07855
  outer loop
   vertex -0.01678 0.17757 -0.00815
   vertex -0.01369 0.178059 -0.00815
   vertex -0.015228 0.178016 -0.005638
  endloop
 endfacet
 facet normal -0.000555151 -0.98466 -0.174481
  outer loop
   vertex -0.018332 0.178016 -0.010662
   vertex -0.015398 0.178059 -0.010914
   vertex -0.01678 0.17757 -0.00815
  endloop
 endfacet
 facet normal 0.304389 -0.937197 0.170322
  outer loop
   vertex -0.015228 0.178016 -0.005638
   vertex -0.01369 0.178059 -0.00815
   vertex -0.01242 0.178928 -0.005638
  endloop
 endfacet
 facet normal 0.452705 -0.888208 0.0783901
  outer loop
   vertex -0.01369 0.178059 -0.00815
   vertex -0.010902 0.17948 -0.00815
   vertex -0.01242 0.178928 -0.005638
  endloop
 endfacet
 facet normal 0.155583 -0.983133 -0.0961419
  outer loop
   vertex -0.01678 0.17757 -0.00815
   vertex -0.015398 0.178059 -0.010914
   vertex -0.01369 0.178059 -0.00815
  endloop
 endfacet
 facet normal 0.303796 -0.934059 -0.187729
  outer loop
   vertex -0.015398 0.178059 -0.010914
   vertex -0.012308 0.179064 -0.010914
   vertex -0.01369 0.178059 -0.00815
  endloop
 endfacet
 facet normal 0.451986 -0.886796 -0.0964489
  outer loop
   vertex -0.01369 0.178059 -0.00815
   vertex -0.012308 0.179064 -0.010914
   vertex -0.010902 0.17948 -0.00815
  endloop
 endfacet
 facet normal 0.578874 -0.796508 -0.174584
  outer loop
   vertex -0.012308 0.179064 -0.010914
   vertex -0.009908 0.180753 -0.010662
   vertex -0.010902 0.17948 -0.00815
  endloop
 endfacet
 facet normal -0.0161962 -0.937175 -0.348485
  outer loop
   vertex -0.018332 0.178016 -0.010662
   vertex -0.017076 0.178928 -0.013173
   vertex -0.015398 0.178059 -0.010914
  endloop
 endfacet
 facet normal 0.132412 -0.888171 -0.440021
  outer loop
   vertex -0.017076 0.178928 -0.013173
   vertex -0.014151 0.17948 -0.013407
   vertex -0.015398 0.178059 -0.010914
  endloop
 endfacet
 facet normal 0.288415 -0.886769 -0.361189
  outer loop
   vertex -0.015398 0.178059 -0.010914
   vertex -0.014151 0.17948 -0.013407
   vertex -0.012308 0.179064 -0.010914
  endloop
 endfacet
 facet normal 0.415138 -0.796394 -0.439791
  outer loop
   vertex -0.014151 0.17948 -0.013407
   vertex -0.011461 0.180753 -0.013173
   vertex -0.012308 0.179064 -0.010914
  endloop
 endfacet
 facet normal 0.563623 -0.748876 -0.348589
  outer loop
   vertex -0.012308 0.179064 -0.010914
   vertex -0.011461 0.180753 -0.013173
   vertex -0.009908 0.180753 -0.010662
  endloop
 endfacet
 facet normal 0.645038 -0.651744 -0.398942
  outer loop
   vertex -0.011461 0.180753 -0.013173
   vertex -0.009544 0.182313 -0.012622
   vertex -0.009908 0.180753 -0.010662
  endloop
 endfacet
 facet normal 0.9532 -0 0.302341
  outer loop
   vertex -0.007214 0.186094 -0.005639
   vertex -0.007214 0.189046 -0.005639
   vertex -0.007836 0.18757 -0.003678
  endloop
 endfacet
 facet normal 0.984653 -0.155824 0.0785916
  outer loop
   vertex -0.007269 0.18448 -0.00815
   vertex -0.00678 0.18757 -0.00815
   vertex -0.007214 0.186094 -0.005639
  endloop
 endfacet
 facet normal 0.936352 -0.304548 -0.174631
  outer loop
   vertex -0.008173 0.183141 -0.010662
   vertex -0.007308 0.185945 -0.010914
   vertex -0.007269 0.18448 -0.00815
  endloop
 endfacet
 facet normal 0.98539 -0 0.170314
  outer loop
   vertex -0.007214 0.186094 -0.005639
   vertex -0.00678 0.18757 -0.00815
   vertex -0.007214 0.189046 -0.005639
  endloop
 endfacet
 facet normal 0.984653 0.155824 0.0785916
  outer loop
   vertex -0.00678 0.18757 -0.00815
   vertex -0.007269 0.19066 -0.00815
   vertex -0.007214 0.189046 -0.005639
  endloop
 endfacet
 facet normal 0.983115 -0.15558 -0.0963335
  outer loop
   vertex -0.007269 0.18448 -0.00815
   vertex -0.007308 0.185945 -0.010914
   vertex -0.00678 0.18757 -0.00815
  endloop
 endfacet
 facet normal 0.982239 0 -0.187634
  outer loop
   vertex -0.007308 0.185945 -0.010914
   vertex -0.007308 0.189195 -0.010914
   vertex -0.00678 0.18757 -0.00815
  endloop
 endfacet
 facet normal 0.983115 0.15558 -0.0963335
  outer loop
   vertex -0.00678 0.18757 -0.00815
   vertex -0.007308 0.189195 -0.010914
   vertex -0.007269 0.19066 -0.00815
  endloop
 endfacet
 facet normal 0.936352 0.304548 -0.174631
  outer loop
   vertex -0.007308 0.189195 -0.010914
   vertex -0.008173 0.191999 -0.010662
   vertex -0.007269 0.19066 -0.00815
  endloop
 endfacet
 facet normal 0.886309 -0.304753 -0.348685
  outer loop
   vertex -0.008173 0.183141 -0.010662
   vertex -0.008653 0.184618 -0.013173
   vertex -0.007308 0.185945 -0.010914
  endloop
 endfacet
 facet normal 0.885615 -0.148581 -0.440011
  outer loop
   vertex -0.008653 0.184618 -0.013173
   vertex -0.008274 0.18757 -0.013407
   vertex -0.007308 0.185945 -0.010914
  endloop
 endfacet
 facet normal 0.932446 0 -0.361309
  outer loop
   vertex -0.007308 0.185945 -0.010914
   vertex -0.008274 0.18757 -0.013407
   vertex -0.007308 0.189195 -0.010914
  endloop
 endfacet
 facet normal 0.885615 0.148581 -0.440011
  outer loop
   vertex -0.008274 0.18757 -0.013407
   vertex -0.008653 0.190522 -0.013173
   vertex -0.007308 0.189195 -0.010914
  endloop
 endfacet
 facet normal 0.886309 0.304753 -0.348685
  outer loop
   vertex -0.007308 0.189195 -0.010914
   vertex -0.008653 0.190522 -0.013173
   vertex -0.008173 0.191999 -0.010662
  endloop
 endfacet
 facet normal 0.819189 0.412026 -0.398954
  outer loop
   vertex -0.008653 0.190522 -0.013173
   vertex -0.009544 0.192827 -0.012622
   vertex -0.008173 0.191999 -0.010662
  endloop
 endfacet
 facet normal 0.61533 0.560308 -0.554459
  outer loop
   vertex -0.010685 0.191999 -0.014725
   vertex -0.011461 0.194387 -0.013173
   vertex -0.009544 0.192827 -0.012622
  endloop
 endfacet
 facet normal 0.467426 0.452641 -0.759361
  outer loop
   vertex -0.012527 0.19066 -0.016657
   vertex -0.013162 0.193448 -0.015386
   vertex -0.010685 0.191999 -0.014725
  endloop
 endfacet
 facet normal 0.262485 0.303841 -0.915851
  outer loop
   vertex -0.014748 0.189046 -0.017829
   vertex -0.015398 0.191823 -0.017094
   vertex -0.012527 0.19066 -0.016657
  endloop
 endfacet
 facet normal 0.508799 0.579247 -0.636864
  outer loop
   vertex -0.010685 0.191999 -0.014725
   vertex -0.013162 0.193448 -0.015386
   vertex -0.011461 0.194387 -0.013173
  endloop
 endfacet
 facet normal 0.38541 0.704977 -0.595371
  outer loop
   vertex -0.013162 0.193448 -0.015386
   vertex -0.014151 0.19566 -0.013407
   vertex -0.011461 0.194387 -0.013173
  endloop
 endfacet
 facet normal 0.310374 0.451949 -0.836307
  outer loop
   vertex -0.012527 0.19066 -0.016657
   vertex -0.015398 0.191823 -0.017094
   vertex -0.013162 0.193448 -0.015386
  endloop
 endfacet
 facet normal 0.187559 0.577248 -0.794737
  outer loop
   vertex -0.015398 0.191823 -0.017094
   vertex -0.016252 0.194452 -0.015386
   vertex -0.013162 0.193448 -0.015386
  endloop
 endfacet
 facet normal 0.228709 0.703897 -0.672474
  outer loop
   vertex -0.013162 0.193448 -0.015386
   vertex -0.016252 0.194452 -0.015386
   vertex -0.014151 0.19566 -0.013407
  endloop
 endfacet
 facet normal 0.102735 0.796801 -0.595444
  outer loop
   vertex -0.016252 0.194452 -0.015386
   vertex -0.017076 0.196212 -0.013173
   vertex -0.014151 0.19566 -0.013407
  endloop
 endfacet
 facet normal 0.0891868 0.274301 -0.957499
  outer loop
   vertex -0.014748 0.189046 -0.017829
   vertex -0.017556 0.189959 -0.017829
   vertex -0.015398 0.191823 -0.017094
  endloop
 endfacet
 facet normal -0.0336945 0.400135 -0.915836
  outer loop
   vertex -0.017556 0.189959 -0.017829
   vertex -0.018405 0.19257 -0.016657
   vertex -0.015398 0.191823 -0.017094
  endloop
 endfacet
 facet normal 0.0146149 0.548074 -0.836302
  outer loop
   vertex -0.015398 0.191823 -0.017094
   vertex -0.018405 0.19257 -0.016657
   vertex -0.016252 0.194452 -0.015386
  endloop
 endfacet
 facet normal -0.112009 0.640965 -0.759354
  outer loop
   vertex -0.018405 0.19257 -0.016657
   vertex -0.019108 0.194736 -0.014725
   vertex -0.016252 0.194452 -0.015386
  endloop
 endfacet
 facet normal -0.0710868 0.767617 -0.636955
  outer loop
   vertex -0.016252 0.194452 -0.015386
   vertex -0.019108 0.194736 -0.014725
   vertex -0.017076 0.196212 -0.013173
  endloop
 endfacet
 facet normal -0.168666 0.815046 -0.554303
  outer loop
   vertex -0.019108 0.194736 -0.014725
   vertex -0.019544 0.196076 -0.012622
   vertex -0.017076 0.196212 -0.013173
  endloop
 endfacet
 facet normal -0.342493 0.758552 -0.554344
  outer loop
   vertex -0.019108 0.194736 -0.014725
   vertex -0.02162 0.194736 -0.013173
   vertex -0.019544 0.196076 -0.012622
  endloop
 endfacet
 facet normal -0.286233 0.584386 -0.759318
  outer loop
   vertex -0.018405 0.19257 -0.016657
   vertex -0.021252 0.192827 -0.015386
   vertex -0.019108 0.194736 -0.014725
  endloop
 endfacet
 facet normal -0.207851 0.343516 -0.915858
  outer loop
   vertex -0.017556 0.189959 -0.017829
   vertex -0.020398 0.190199 -0.017094
   vertex -0.018405 0.19257 -0.016657
  endloop
 endfacet
 facet normal -0.393627 0.662685 -0.637108
  outer loop
   vertex -0.019108 0.194736 -0.014725
   vertex -0.021252 0.192827 -0.015386
   vertex -0.02162 0.194736 -0.013173
  endloop
 endfacet
 facet normal -0.551379 0.584158 -0.595601
  outer loop
   vertex -0.021252 0.192827 -0.015386
   vertex -0.023662 0.19257 -0.013407
   vertex -0.02162 0.194736 -0.013173
  endloop
 endfacet
 facet normal -0.334054 0.43492 -0.836213
  outer loop
   vertex -0.018405 0.19257 -0.016657
   vertex -0.020398 0.190199 -0.017094
   vertex -0.021252 0.192827 -0.015386
  endloop
 endfacet
 facet normal -0.491058 0.356895 -0.794662
  outer loop
   vertex -0.020398 0.190199 -0.017094
   vertex -0.023162 0.190199 -0.015386
   vertex -0.021252 0.192827 -0.015386
  endloop
 endfacet
 facet normal -0.598657 0.435097 -0.672533
  outer loop
   vertex -0.021252 0.192827 -0.015386
   vertex -0.023162 0.190199 -0.015386
   vertex -0.023662 0.19257 -0.013407
  endloop
 endfacet
 facet normal -0.725985 0.343961 -0.595514
  outer loop
   vertex -0.023162 0.190199 -0.015386
   vertex -0.025091 0.189959 -0.013173
   vertex -0.023662 0.19257 -0.013407
  endloop
 endfacet
 facet normal -0.233325 0.169451 -0.957521
  outer loop
   vertex -0.017556 0.189959 -0.017829
   vertex -0.019291 0.18757 -0.017829
   vertex -0.020398 0.190199 -0.017094
  endloop
 endfacet
 facet normal -0.390899 0.0914587 -0.915878
  outer loop
   vertex -0.019291 0.18757 -0.017829
   vertex -0.022037 0.18757 -0.016657
   vertex -0.020398 0.190199 -0.017094
  endloop
 endfacet
 facet normal -0.516783 0.183167 -0.836293
  outer loop
   vertex -0.020398 0.190199 -0.017094
   vertex -0.022037 0.18757 -0.016657
   vertex -0.023162 0.190199 -0.015386
  endloop
 endfacet
 facet normal -0.644269 0.0913996 -0.759317
  outer loop
   vertex -0.022037 0.18757 -0.016657
   vertex -0.024314 0.18757 -0.014725
   vertex -0.023162 0.190199 -0.015386
  endloop
 endfacet
 facet normal -0.751958 0.169318 -0.637095
  outer loop
   vertex -0.023162 0.190199 -0.015386
   vertex -0.024314 0.18757 -0.014725
   vertex -0.025091 0.189959 -0.013173
  endloop
 endfacet
 facet normal -0.827124 0.091254 -0.554562
  outer loop
   vertex -0.024314 0.18757 -0.014725
   vertex -0.025724 0.18757 -0.012622
   vertex -0.025091 0.189959 -0.013173
  endloop
 endfacet
 facet normal -0.827124 -0.091254 -0.554562
  outer loop
   vertex -0.024314 0.18757 -0.014725
   vertex -0.025091 0.185181 -0.013173
   vertex -0.025724 0.18757 -0.012622
  endloop
 endfacet
 facet normal -0.644269 -0.0913996 -0.759317
  outer loop
   vertex -0.022037 0.18757 -0.016657
   vertex -0.023162 0.184941 -0.015386
   vertex -0.024314 0.18757 -0.014725
  endloop
 endfacet
 facet normal -0.390899 -0.0914587 -0.915878
  outer loop
   vertex -0.019291 0.18757 -0.017829
   vertex -0.020398 0.184941 -0.017094
   vertex -0.022037 0.18757 -0.016657
  endloop
 endfacet
 facet normal -0.751958 -0.169318 -0.637095
  outer loop
   vertex -0.024314 0.18757 -0.014725
   vertex -0.023162 0.184941 -0.015386
   vertex -0.025091 0.185181 -0.013173
  endloop
 endfacet
 facet normal -0.725985 -0.343961 -0.595514
  outer loop
   vertex -0.023162 0.184941 -0.015386
   vertex -0.023662 0.18257 -0.013407
   vertex -0.025091 0.185181 -0.013173
  endloop
 endfacet
 facet normal -0.516783 -0.183167 -0.836293
  outer loop
   vertex -0.022037 0.18757 -0.016657
   vertex -0.020398 0.184941 -0.017094
   vertex -0.023162 0.184941 -0.015386
  endloop
 endfacet
 facet normal -0.491058 -0.356895 -0.794662
  outer loop
   vertex -0.020398 0.184941 -0.017094
   vertex -0.021252 0.182313 -0.015386
   vertex -0.023162 0.184941 -0.015386
  endloop
 endfacet
 facet normal -0.598657 -0.435097 -0.672533
  outer loop
   vertex -0.023162 0.184941 -0.015386
   vertex -0.021252 0.182313 -0.015386
   vertex -0.023662 0.18257 -0.013407
  endloop
 endfacet
 facet normal -0.551379 -0.584158 -0.595601
  outer loop
   vertex -0.021252 0.182313 -0.015386
   vertex -0.02162 0.180404 -0.013173
   vertex -0.023662 0.18257 -0.013407
  endloop
 endfacet
 facet normal -0.233325 -0.169451 -0.957521
  outer loop
   vertex -0.019291 0.18757 -0.017829
   vertex -0.017556 0.185181 -0.017829
   vertex -0.020398 0.184941 -0.017094
  endloop
 endfacet
 facet normal -0.207851 -0.343516 -0.915858
  outer loop
   vertex -0.017556 0.185181 -0.017829
   vertex -0.018405 0.18257 -0.016657
   vertex -0.020398 0.184941 -0.017094
  endloop
 endfacet
 facet normal -0.334054 -0.43492 -0.836213
  outer loop
   vertex -0.020398 0.184941 -0.017094
   vertex -0.018405 0.18257 -0.016657
   vertex -0.021252 0.182313 -0.015386
  endloop
 endfacet
 facet normal -0.286233 -0.584386 -0.759318
  outer loop
   vertex -0.018405 0.18257 -0.016657
   vertex -0.019108 0.180404 -0.014725
   vertex -0.021252 0.182313 -0.015386
  endloop
 endfacet
 facet normal -0.393627 -0.662685 -0.637108
  outer loop
   vertex -0.021252 0.182313 -0.015386
   vertex -0.019108 0.180404 -0.014725
   vertex -0.02162 0.180404 -0.013173
  endloop
 endfacet
 facet normal -0.342493 -0.758552 -0.554344
  outer loop
   vertex -0.019108 0.180404 -0.014725
   vertex -0.019544 0.179064 -0.012622
   vertex -0.02162 0.180404 -0.013173
  endloop
 endfacet
 facet normal 0.723015 0.412034 -0.554506
  outer loop
   vertex -0.008653 0.190522 -0.013173
   vertex -0.010685 0.191999 -0.014725
   vertex -0.009544 0.192827 -0.012622
  endloop
 endfacet
 facet normal 0.789589 0.148568 -0.59538
  outer loop
   vertex -0.008274 0.18757 -0.013407
   vertex -0.010072 0.189195 -0.015386
   vertex -0.008653 0.190522 -0.013173
  endloop
 endfacet
 facet normal 0.789589 -0.148568 -0.59538
  outer loop
   vertex -0.008653 0.184618 -0.013173
   vertex -0.010072 0.185945 -0.015386
   vertex -0.008274 0.18757 -0.013407
  endloop
 endfacet
 facet normal 0.708089 0.304936 -0.636886
  outer loop
   vertex -0.008653 0.190522 -0.013173
   vertex -0.010072 0.189195 -0.015386
   vertex -0.010685 0.191999 -0.014725
  endloop
 endfacet
 facet normal 0.574948 0.304695 -0.759339
  outer loop
   vertex -0.010072 0.189195 -0.015386
   vertex -0.012527 0.19066 -0.016657
   vertex -0.010685 0.191999 -0.014725
  endloop
 endfacet
 facet normal 0.740143 0 -0.672449
  outer loop
   vertex -0.008274 0.18757 -0.013407
   vertex -0.010072 0.185945 -0.015386
   vertex -0.010072 0.189195 -0.015386
  endloop
 endfacet
 facet normal 0.607028 0 -0.794681
  outer loop
   vertex -0.010072 0.185945 -0.015386
   vertex -0.012308 0.18757 -0.017094
   vertex -0.010072 0.189195 -0.015386
  endloop
 endfacet
 facet normal 0.525774 0.155534 -0.836284
  outer loop
   vertex -0.010072 0.189195 -0.015386
   vertex -0.012308 0.18757 -0.017094
   vertex -0.012527 0.19066 -0.016657
  endloop
 endfacet
 facet normal 0.370096 0.155752 -0.915844
  outer loop
   vertex -0.012308 0.18757 -0.017094
   vertex -0.014748 0.189046 -0.017829
   vertex -0.012527 0.19066 -0.016657
  endloop
 endfacet
 facet normal 0.708089 -0.304936 -0.636886
  outer loop
   vertex -0.008653 0.184618 -0.013173
   vertex -0.010685 0.183141 -0.014725
   vertex -0.010072 0.185945 -0.015386
  endloop
 endfacet
 facet normal 0.574948 -0.304695 -0.759339
  outer loop
   vertex -0.010685 0.183141 -0.014725
   vertex -0.012527 0.18448 -0.016657
   vertex -0.010072 0.185945 -0.015386
  endloop
 endfacet
 facet normal 0.525774 -0.155534 -0.836284
  outer loop
   vertex -0.010072 0.185945 -0.015386
   vertex -0.012527 0.18448 -0.016657
   vertex -0.012308 0.18757 -0.017094
  endloop
 endfacet
 facet normal 0.370096 -0.155752 -0.915844
  outer loop
   vertex -0.012527 0.18448 -0.016657
   vertex -0.014748 0.186094 -0.017829
   vertex -0.012308 0.18757 -0.017094
  endloop
 endfacet
 facet normal 0.288428 0 -0.957502
  outer loop
   vertex -0.012308 0.18757 -0.017094
   vertex -0.014748 0.186094 -0.017829
   vertex -0.014748 0.189046 -0.017829
  endloop
 endfacet
 facet normal 0.156037 0 -0.987751
  outer loop
   vertex -0.014748 0.186094 -0.017829
   vertex -0.01678 0.18757 -0.01815
   vertex -0.014748 0.189046 -0.017829
  endloop
 endfacet
 facet normal -0.168666 -0.815046 -0.554303
  outer loop
   vertex -0.019108 0.180404 -0.014725
   vertex -0.017076 0.178928 -0.013173
   vertex -0.019544 0.179064 -0.012622
  endloop
 endfacet
 facet normal -0.112009 -0.640965 -0.759354
  outer loop
   vertex -0.018405 0.18257 -0.016657
   vertex -0.016252 0.180688 -0.015386
   vertex -0.019108 0.180404 -0.014725
  endloop
 endfacet
 facet normal -0.0336945 -0.400135 -0.915836
  outer loop
   vertex -0.017556 0.185181 -0.017829
   vertex -0.015398 0.183317 -0.017094
   vertex -0.018405 0.18257 -0.016657
  endloop
 endfacet
 facet normal -0.0710868 -0.767617 -0.636955
  outer loop
   vertex -0.019108 0.180404 -0.014725
   vertex -0.016252 0.180688 -0.015386
   vertex -0.017076 0.178928 -0.013173
  endloop
 endfacet
 facet normal 0.102735 -0.796801 -0.595444
  outer loop
   vertex -0.016252 0.180688 -0.015386
   vertex -0.014151 0.17948 -0.013407
   vertex -0.017076 0.178928 -0.013173
  endloop
 endfacet
 facet normal 0.0146149 -0.548074 -0.836302
  outer loop
   vertex -0.018405 0.18257 -0.016657
   vertex -0.015398 0.183317 -0.017094
   vertex -0.016252 0.180688 -0.015386
  endloop
 endfacet
 facet normal 0.187559 -0.577248 -0.794737
  outer loop
   vertex -0.015398 0.183317 -0.017094
   vertex -0.013162 0.181692 -0.015386
   vertex -0.016252 0.180688 -0.015386
  endloop
 endfacet
 facet normal 0.228709 -0.703897 -0.672474
  outer loop
   vertex -0.016252 0.180688 -0.015386
   vertex -0.013162 0.181692 -0.015386
   vertex -0.014151 0.17948 -0.013407
  endloop
 endfacet
 facet normal 0.38541 -0.704977 -0.595371
  outer loop
   vertex -0.013162 0.181692 -0.015386
   vertex -0.011461 0.180753 -0.013173
   vertex -0.014151 0.17948 -0.013407
  endloop
 endfacet
 facet normal 0.0891868 -0.274301 -0.957499
  outer loop
   vertex -0.017556 0.185181 -0.017829
   vertex -0.014748 0.186094 -0.017829
   vertex -0.015398 0.183317 -0.017094
  endloop
 endfacet
 facet normal 0.262485 -0.303841 -0.915851
  outer loop
   vertex -0.014748 0.186094 -0.017829
   vertex -0.012527 0.18448 -0.016657
   vertex -0.015398 0.183317 -0.017094
  endloop
 endfacet
 facet normal 0.310374 -0.451949 -0.836307
  outer loop
   vertex -0.015398 0.183317 -0.017094
   vertex -0.012527 0.18448 -0.016657
   vertex -0.013162 0.181692 -0.015386
  endloop
 endfacet
 facet normal 0.467426 -0.452641 -0.759361
  outer loop
   vertex -0.012527 0.18448 -0.016657
   vertex -0.010685 0.183141 -0.014725
   vertex -0.013162 0.181692 -0.015386
  endloop
 endfacet
 facet normal 0.508799 -0.579247 -0.636864
  outer loop
   vertex -0.013162 0.181692 -0.015386
   vertex -0.010685 0.183141 -0.014725
   vertex -0.011461 0.180753 -0.013173
  endloop
 endfacet
 facet normal 0.61533 -0.560308 -0.554459
  outer loop
   vertex -0.010685 0.183141 -0.014725
   vertex -0.009544 0.182313 -0.012622
   vertex -0.011461 0.180753 -0.013173
  endloop
 endfacet
endsolid ExportedfromBlender-3.5.1
