solid ExportedfromBlender-3.5.1
 facet normal 0.0482486 -0.148392 -0.987751
  outer loop
   vertex 0.00578 0.1715 -0.00906
   vertex 0.007812 0.170024 -0.008739
   vertex 0.005004 0.169111 -0.008739
  endloop
 endfacet
 facet normal 0.723015 -0.412034 -0.554506
  outer loop
   vertex 0.013016 0.166243 -0.003532
   vertex 0.011875 0.167071 -0.005635
   vertex 0.013907 0.168548 -0.004083
  endloop
 endfacet
 facet normal -0.126271 -0.0917039 -0.987748
  outer loop
   vertex 0.00578 0.1715 -0.00906
   vertex 0.005004 0.169111 -0.008739
   vertex 0.003269 0.1715 -0.008739
  endloop
 endfacet
 facet normal -0.126271 0.0917039 -0.987748
  outer loop
   vertex 0.00578 0.1715 -0.00906
   vertex 0.003269 0.1715 -0.008739
   vertex 0.005004 0.173889 -0.008739
  endloop
 endfacet
 facet normal 0.0482486 0.148392 -0.987751
  outer loop
   vertex 0.00578 0.1715 -0.00906
   vertex 0.005004 0.173889 -0.008739
   vertex 0.007812 0.172976 -0.008739
  endloop
 endfacet
 facet normal 0.819189 -0.412026 -0.398954
  outer loop
   vertex 0.013016 0.166243 -0.003532
   vertex 0.013907 0.168548 -0.004083
   vertex 0.014387 0.167071 -0.001572
  endloop
 endfacet
 facet normal -0.138975 -0.90647 -0.398746
  outer loop
   vertex 0.003016 0.162994 -0.003532
   vertex 0.005484 0.162858 -0.004083
   vertex 0.004228 0.161946 -0.001572
  endloop
 endfacet
 facet normal -0.905177 -0.147939 -0.398459
  outer loop
   vertex -0.003164 0.1715 -0.003532
   vertex -0.002531 0.169111 -0.004083
   vertex -0.003786 0.170024 -0.001571
  endloop
 endfacet
 facet normal -0.420269 0.815078 -0.398776
  outer loop
   vertex 0.003016 0.180006 -0.003532
   vertex 0.00094 0.178666 -0.004083
   vertex 0.00142 0.180142 -0.001572
  endloop
 endfacet
 facet normal 0.645038 0.651744 -0.398942
  outer loop
   vertex 0.013016 0.176757 -0.003532
   vertex 0.011099 0.178317 -0.004083
   vertex 0.012652 0.178317 -0.001572
  endloop
 endfacet
 facet normal 0.771063 -0.560215 -0.302688
  outer loop
   vertex 0.013016 0.166243 -0.003532
   vertex 0.014387 0.167071 -0.001572
   vertex 0.012652 0.164683 -0.001572
  endloop
 endfacet
 facet normal -0.294416 -0.906493 -0.302638
  outer loop
   vertex 0.003016 0.162994 -0.003532
   vertex 0.004228 0.161946 -0.001572
   vertex 0.00142 0.162858 -0.001572
  endloop
 endfacet
 facet normal -0.9532 0 -0.302341
  outer loop
   vertex -0.003164 0.1715 -0.003532
   vertex -0.003786 0.170024 -0.001571
   vertex -0.003786 0.172976 -0.001571
  endloop
 endfacet
 facet normal -0.294416 0.906493 -0.302638
  outer loop
   vertex 0.003016 0.180006 -0.003532
   vertex 0.00142 0.180142 -0.001572
   vertex 0.004228 0.181054 -0.001572
  endloop
 endfacet
 facet normal 0.771063 0.560215 -0.302688
  outer loop
   vertex 0.013016 0.176757 -0.003532
   vertex 0.012652 0.178317 -0.001572
   vertex 0.014387 0.175929 -0.001572
  endloop
 endfacet
 facet normal 0.342493 -0.758552 0.554344
  outer loop
   vertex 0.008544 0.162994 0.005412
   vertex 0.01062 0.164334 0.005963
   vertex 0.008108 0.164334 0.007515
  endloop
 endfacet
 facet normal -0.61533 -0.560308 0.554459
  outer loop
   vertex -0.001456 0.166243 0.005412
   vertex 0.000461 0.164683 0.005963
   vertex -0.000315 0.167071 0.007515
  endloop
 endfacet
 facet normal -0.723015 0.412034 0.554506
  outer loop
   vertex -0.001456 0.176757 0.005412
   vertex -0.002347 0.174452 0.005963
   vertex -0.000315 0.175929 0.007515
  endloop
 endfacet
 facet normal 0.168666 0.815046 0.554303
  outer loop
   vertex 0.008544 0.180006 0.005412
   vertex 0.006076 0.180142 0.005963
   vertex 0.008108 0.178666 0.007515
  endloop
 endfacet
 facet normal 0.827124 0.091254 0.554562
  outer loop
   vertex 0.014724 0.1715 0.005412
   vertex 0.014091 0.173889 0.005963
   vertex 0.013314 0.1715 0.007515
  endloop
 endfacet
 facet normal 0.126271 0.0917039 0.987748
  outer loop
   vertex 0.008291 0.1715 0.010619
   vertex 0.006556 0.173889 0.010619
   vertex 0.00578 0.1715 0.01094
  endloop
 endfacet
 facet normal 0.390899 0.0914587 0.915878
  outer loop
   vertex 0.011037 0.1715 0.009447
   vertex 0.009398 0.174129 0.009884
   vertex 0.008291 0.1715 0.010619
  endloop
 endfacet
 facet normal 0.644269 0.0913996 0.759317
  outer loop
   vertex 0.013314 0.1715 0.007515
   vertex 0.012162 0.174129 0.008176
   vertex 0.011037 0.1715 0.009447
  endloop
 endfacet
 facet normal 0.233325 0.169451 0.957521
  outer loop
   vertex 0.008291 0.1715 0.010619
   vertex 0.009398 0.174129 0.009884
   vertex 0.006556 0.173889 0.010619
  endloop
 endfacet
 facet normal 0.207851 0.343516 0.915858
  outer loop
   vertex 0.009398 0.174129 0.009884
   vertex 0.007405 0.1765 0.009447
   vertex 0.006556 0.173889 0.010619
  endloop
 endfacet
 facet normal 0.516783 0.183167 0.836293
  outer loop
   vertex 0.011037 0.1715 0.009447
   vertex 0.012162 0.174129 0.008176
   vertex 0.009398 0.174129 0.009884
  endloop
 endfacet
 facet normal 0.491058 0.356895 0.794662
  outer loop
   vertex 0.012162 0.174129 0.008176
   vertex 0.010252 0.176757 0.008176
   vertex 0.009398 0.174129 0.009884
  endloop
 endfacet
 facet normal 0.334054 0.43492 0.836213
  outer loop
   vertex 0.009398 0.174129 0.009884
   vertex 0.010252 0.176757 0.008176
   vertex 0.007405 0.1765 0.009447
  endloop
 endfacet
 facet normal 0.286233 0.584386 0.759318
  outer loop
   vertex 0.010252 0.176757 0.008176
   vertex 0.008108 0.178666 0.007515
   vertex 0.007405 0.1765 0.009447
  endloop
 endfacet
 facet normal 0.751958 0.169318 0.637095
  outer loop
   vertex 0.013314 0.1715 0.007515
   vertex 0.014091 0.173889 0.005963
   vertex 0.012162 0.174129 0.008176
  endloop
 endfacet
 facet normal 0.725985 0.343961 0.595514
  outer loop
   vertex 0.014091 0.173889 0.005963
   vertex 0.012662 0.1765 0.006197
   vertex 0.012162 0.174129 0.008176
  endloop
 endfacet
 facet normal 0.598657 0.435097 0.672533
  outer loop
   vertex 0.012162 0.174129 0.008176
   vertex 0.012662 0.1765 0.006197
   vertex 0.010252 0.176757 0.008176
  endloop
 endfacet
 facet normal 0.551379 0.584158 0.595601
  outer loop
   vertex 0.012662 0.1765 0.006197
   vertex 0.01062 0.178666 0.005963
   vertex 0.010252 0.176757 0.008176
  endloop
 endfacet
 facet normal 0.393627 0.662685 0.637108
  outer loop
   vertex 0.010252 0.176757 0.008176
   vertex 0.01062 0.178666 0.005963
   vertex 0.008108 0.178666 0.007515
  endloop
 endfacet
 facet normal 0.342493 0.758552 0.554344
  outer loop
   vertex 0.01062 0.178666 0.005963
   vertex 0.008544 0.180006 0.005412
   vertex 0.008108 0.178666 0.007515
  endloop
 endfacet
 facet normal -0.0482486 0.148392 0.987751
  outer loop
   vertex 0.006556 0.173889 0.010619
   vertex 0.003748 0.172976 0.010619
   vertex 0.00578 0.1715 0.01094
  endloop
 endfacet
 facet normal 0.0336945 0.400135 0.915836
  outer loop
   vertex 0.007405 0.1765 0.009447
   vertex 0.004398 0.175753 0.009884
   vertex 0.006556 0.173889 0.010619
  endloop
 endfacet
 facet normal 0.112009 0.640965 0.759354
  outer loop
   vertex 0.008108 0.178666 0.007515
   vertex 0.005252 0.178382 0.008176
   vertex 0.007405 0.1765 0.009447
  endloop
 endfacet
 facet normal -0.0891868 0.274301 0.957499
  outer loop
   vertex 0.006556 0.173889 0.010619
   vertex 0.004398 0.175753 0.009884
   vertex 0.003748 0.172976 0.010619
  endloop
 endfacet
 facet normal -0.262485 0.303841 0.915851
  outer loop
   vertex 0.004398 0.175753 0.009884
   vertex 0.001527 0.17459 0.009447
   vertex 0.003748 0.172976 0.010619
  endloop
 endfacet
 facet normal -0.0146149 0.548074 0.836302
  outer loop
   vertex 0.007405 0.1765 0.009447
   vertex 0.005252 0.178382 0.008176
   vertex 0.004398 0.175753 0.009884
  endloop
 endfacet
 facet normal -0.187559 0.577248 0.794737
  outer loop
   vertex 0.005252 0.178382 0.008176
   vertex 0.002162 0.177378 0.008176
   vertex 0.004398 0.175753 0.009884
  endloop
 endfacet
 facet normal -0.310374 0.451949 0.836307
  outer loop
   vertex 0.004398 0.175753 0.009884
   vertex 0.002162 0.177378 0.008176
   vertex 0.001527 0.17459 0.009447
  endloop
 endfacet
 facet normal -0.467426 0.452641 0.759361
  outer loop
   vertex 0.002162 0.177378 0.008176
   vertex -0.000315 0.175929 0.007515
   vertex 0.001527 0.17459 0.009447
  endloop
 endfacet
 facet normal 0.0710868 0.767617 0.636955
  outer loop
   vertex 0.008108 0.178666 0.007515
   vertex 0.006076 0.180142 0.005963
   vertex 0.005252 0.178382 0.008176
  endloop
 endfacet
 facet normal -0.102735 0.796801 0.595444
  outer loop
   vertex 0.006076 0.180142 0.005963
   vertex 0.003151 0.17959 0.006197
   vertex 0.005252 0.178382 0.008176
  endloop
 endfacet
 facet normal -0.228709 0.703897 0.672474
  outer loop
   vertex 0.005252 0.178382 0.008176
   vertex 0.003151 0.17959 0.006197
   vertex 0.002162 0.177378 0.008176
  endloop
 endfacet
 facet normal -0.38541 0.704977 0.595371
  outer loop
   vertex 0.003151 0.17959 0.006197
   vertex 0.000461 0.178317 0.005963
   vertex 0.002162 0.177378 0.008176
  endloop
 endfacet
 facet normal -0.508799 0.579247 0.636864
  outer loop
   vertex 0.002162 0.177378 0.008176
   vertex 0.000461 0.178317 0.005963
   vertex -0.000315 0.175929 0.007515
  endloop
 endfacet
 facet normal -0.61533 0.560308 0.554459
  outer loop
   vertex 0.000461 0.178317 0.005963
   vertex -0.001456 0.176757 0.005412
   vertex -0.000315 0.175929 0.007515
  endloop
 endfacet
 facet normal -0.156037 0 0.987751
  outer loop
   vertex 0.003748 0.172976 0.010619
   vertex 0.003748 0.170024 0.010619
   vertex 0.00578 0.1715 0.01094
  endloop
 endfacet
 facet normal -0.370096 0.155752 0.915844
  outer loop
   vertex 0.001527 0.17459 0.009447
   vertex 0.001308 0.1715 0.009884
   vertex 0.003748 0.172976 0.010619
  endloop
 endfacet
 facet normal -0.574948 0.304695 0.759339
  outer loop
   vertex -0.000315 0.175929 0.007515
   vertex -0.000928 0.173125 0.008176
   vertex 0.001527 0.17459 0.009447
  endloop
 endfacet
 facet normal -0.288428 0 0.957502
  outer loop
   vertex 0.003748 0.172976 0.010619
   vertex 0.001308 0.1715 0.009884
   vertex 0.003748 0.170024 0.010619
  endloop
 endfacet
 facet normal -0.370096 -0.155752 0.915844
  outer loop
   vertex 0.001308 0.1715 0.009884
   vertex 0.001527 0.16841 0.009447
   vertex 0.003748 0.170024 0.010619
  endloop
 endfacet
 facet normal -0.525774 0.155534 0.836284
  outer loop
   vertex 0.001527 0.17459 0.009447
   vertex -0.000928 0.173125 0.008176
   vertex 0.001308 0.1715 0.009884
  endloop
 endfacet
 facet normal -0.607028 0 0.794681
  outer loop
   vertex -0.000928 0.173125 0.008176
   vertex -0.000928 0.169875 0.008176
   vertex 0.001308 0.1715 0.009884
  endloop
 endfacet
 facet normal -0.525774 -0.155534 0.836284
  outer loop
   vertex 0.001308 0.1715 0.009884
   vertex -0.000928 0.169875 0.008176
   vertex 0.001527 0.16841 0.009447
  endloop
 endfacet
 facet normal -0.574948 -0.304695 0.759339
  outer loop
   vertex -0.000928 0.169875 0.008176
   vertex -0.000315 0.167071 0.007515
   vertex 0.001527 0.16841 0.009447
  endloop
 endfacet
 facet normal -0.708089 0.304936 0.636886
  outer loop
   vertex -0.000315 0.175929 0.007515
   vertex -0.002347 0.174452 0.005963
   vertex -0.000928 0.173125 0.008176
  endloop
 endfacet
 facet normal -0.789589 0.148568 0.59538
  outer loop
   vertex -0.002347 0.174452 0.005963
   vertex -0.002726 0.1715 0.006197
   vertex -0.000928 0.173125 0.008176
  endloop
 endfacet
 facet normal -0.740143 0 0.672449
  outer loop
   vertex -0.000928 0.173125 0.008176
   vertex -0.002726 0.1715 0.006197
   vertex -0.000928 0.169875 0.008176
  endloop
 endfacet
 facet normal -0.789589 -0.148568 0.59538
  outer loop
   vertex -0.002726 0.1715 0.006197
   vertex -0.002347 0.168548 0.005963
   vertex -0.000928 0.169875 0.008176
  endloop
 endfacet
 facet normal -0.708089 -0.304936 0.636886
  outer loop
   vertex -0.000928 0.169875 0.008176
   vertex -0.002347 0.168548 0.005963
   vertex -0.000315 0.167071 0.007515
  endloop
 endfacet
 facet normal -0.723015 -0.412034 0.554506
  outer loop
   vertex -0.002347 0.168548 0.005963
   vertex -0.001456 0.166243 0.005412
   vertex -0.000315 0.167071 0.007515
  endloop
 endfacet
 facet normal -0.0482486 -0.148392 0.987751
  outer loop
   vertex 0.003748 0.170024 0.010619
   vertex 0.006556 0.169111 0.010619
   vertex 0.00578 0.1715 0.01094
  endloop
 endfacet
 facet normal -0.262485 -0.303841 0.915851
  outer loop
   vertex 0.001527 0.16841 0.009447
   vertex 0.004398 0.167247 0.009884
   vertex 0.003748 0.170024 0.010619
  endloop
 endfacet
 facet normal -0.467426 -0.452641 0.759361
  outer loop
   vertex -0.000315 0.167071 0.007515
   vertex 0.002162 0.165622 0.008176
   vertex 0.001527 0.16841 0.009447
  endloop
 endfacet
 facet normal -0.0891868 -0.274301 0.957499
  outer loop
   vertex 0.003748 0.170024 0.010619
   vertex 0.004398 0.167247 0.009884
   vertex 0.006556 0.169111 0.010619
  endloop
 endfacet
 facet normal 0.0336945 -0.400135 0.915836
  outer loop
   vertex 0.004398 0.167247 0.009884
   vertex 0.007405 0.1665 0.009447
   vertex 0.006556 0.169111 0.010619
  endloop
 endfacet
 facet normal -0.310374 -0.451949 0.836307
  outer loop
   vertex 0.001527 0.16841 0.009447
   vertex 0.002162 0.165622 0.008176
   vertex 0.004398 0.167247 0.009884
  endloop
 endfacet
 facet normal -0.187559 -0.577248 0.794737
  outer loop
   vertex 0.002162 0.165622 0.008176
   vertex 0.005252 0.164618 0.008176
   vertex 0.004398 0.167247 0.009884
  endloop
 endfacet
 facet normal -0.0146149 -0.548074 0.836302
  outer loop
   vertex 0.004398 0.167247 0.009884
   vertex 0.005252 0.164618 0.008176
   vertex 0.007405 0.1665 0.009447
  endloop
 endfacet
 facet normal 0.112009 -0.640965 0.759354
  outer loop
   vertex 0.005252 0.164618 0.008176
   vertex 0.008108 0.164334 0.007515
   vertex 0.007405 0.1665 0.009447
  endloop
 endfacet
 facet normal -0.508799 -0.579247 0.636864
  outer loop
   vertex -0.000315 0.167071 0.007515
   vertex 0.000461 0.164683 0.005963
   vertex 0.002162 0.165622 0.008176
  endloop
 endfacet
 facet normal -0.38541 -0.704977 0.595371
  outer loop
   vertex 0.000461 0.164683 0.005963
   vertex 0.003151 0.16341 0.006197
   vertex 0.002162 0.165622 0.008176
  endloop
 endfacet
 facet normal -0.228709 -0.703897 0.672474
  outer loop
   vertex 0.002162 0.165622 0.008176
   vertex 0.003151 0.16341 0.006197
   vertex 0.005252 0.164618 0.008176
  endloop
 endfacet
 facet normal -0.102735 -0.796801 0.595444
  outer loop
   vertex 0.003151 0.16341 0.006197
   vertex 0.006076 0.162858 0.005963
   vertex 0.005252 0.164618 0.008176
  endloop
 endfacet
 facet normal 0.0710868 -0.767617 0.636955
  outer loop
   vertex 0.005252 0.164618 0.008176
   vertex 0.006076 0.162858 0.005963
   vertex 0.008108 0.164334 0.007515
  endloop
 endfacet
 facet normal 0.168666 -0.815046 0.554303
  outer loop
   vertex 0.006076 0.162858 0.005963
   vertex 0.008544 0.162994 0.005412
   vertex 0.008108 0.164334 0.007515
  endloop
 endfacet
 facet normal 0.126271 -0.0917039 0.987748
  outer loop
   vertex 0.006556 0.169111 0.010619
   vertex 0.008291 0.1715 0.010619
   vertex 0.00578 0.1715 0.01094
  endloop
 endfacet
 facet normal 0.207851 -0.343516 0.915858
  outer loop
   vertex 0.007405 0.1665 0.009447
   vertex 0.009398 0.168871 0.009884
   vertex 0.006556 0.169111 0.010619
  endloop
 endfacet
 facet normal 0.286233 -0.584386 0.759318
  outer loop
   vertex 0.008108 0.164334 0.007515
   vertex 0.010252 0.166243 0.008176
   vertex 0.007405 0.1665 0.009447
  endloop
 endfacet
 facet normal 0.233325 -0.169451 0.957521
  outer loop
   vertex 0.006556 0.169111 0.010619
   vertex 0.009398 0.168871 0.009884
   vertex 0.008291 0.1715 0.010619
  endloop
 endfacet
 facet normal 0.390899 -0.0914587 0.915878
  outer loop
   vertex 0.009398 0.168871 0.009884
   vertex 0.011037 0.1715 0.009447
   vertex 0.008291 0.1715 0.010619
  endloop
 endfacet
 facet normal 0.334054 -0.43492 0.836213
  outer loop
   vertex 0.007405 0.1665 0.009447
   vertex 0.010252 0.166243 0.008176
   vertex 0.009398 0.168871 0.009884
  endloop
 endfacet
 facet normal 0.491058 -0.356895 0.794662
  outer loop
   vertex 0.010252 0.166243 0.008176
   vertex 0.012162 0.168871 0.008176
   vertex 0.009398 0.168871 0.009884
  endloop
 endfacet
 facet normal 0.516783 -0.183167 0.836293
  outer loop
   vertex 0.009398 0.168871 0.009884
   vertex 0.012162 0.168871 0.008176
   vertex 0.011037 0.1715 0.009447
  endloop
 endfacet
 facet normal 0.644269 -0.0913996 0.759317
  outer loop
   vertex 0.012162 0.168871 0.008176
   vertex 0.013314 0.1715 0.007515
   vertex 0.011037 0.1715 0.009447
  endloop
 endfacet
 facet normal 0.393627 -0.662685 0.637108
  outer loop
   vertex 0.008108 0.164334 0.007515
   vertex 0.01062 0.164334 0.005963
   vertex 0.010252 0.166243 0.008176
  endloop
 endfacet
 facet normal 0.551379 -0.584158 0.595601
  outer loop
   vertex 0.01062 0.164334 0.005963
   vertex 0.012662 0.1665 0.006197
   vertex 0.010252 0.166243 0.008176
  endloop
 endfacet
 facet normal 0.598657 -0.435097 0.672533
  outer loop
   vertex 0.010252 0.166243 0.008176
   vertex 0.012662 0.1665 0.006197
   vertex 0.012162 0.168871 0.008176
  endloop
 endfacet
 facet normal 0.725985 -0.343961 0.595514
  outer loop
   vertex 0.012662 0.1665 0.006197
   vertex 0.014091 0.169111 0.005963
   vertex 0.012162 0.168871 0.008176
  endloop
 endfacet
 facet normal 0.751958 -0.169318 0.637095
  outer loop
   vertex 0.012162 0.168871 0.008176
   vertex 0.014091 0.169111 0.005963
   vertex 0.013314 0.1715 0.007515
  endloop
 endfacet
 facet normal 0.827124 -0.091254 0.554562
  outer loop
   vertex 0.014091 0.169111 0.005963
   vertex 0.014724 0.1715 0.005412
   vertex 0.013314 0.1715 0.007515
  endloop
 endfacet
 facet normal 0.905177 0.147939 0.398459
  outer loop
   vertex 0.015346 0.172976 0.003451
   vertex 0.014091 0.173889 0.005963
   vertex 0.014724 0.1715 0.005412
  endloop
 endfacet
 facet normal 0.93657 0.303801 0.17476
  outer loop
   vertex 0.015291 0.17459 0.00094
   vertex 0.014398 0.175753 0.003704
   vertex 0.015346 0.172976 0.003451
  endloop
 endfacet
 facet normal 0.888212 0.452708 -0.078331
  outer loop
   vertex 0.014387 0.175929 -0.001572
   vertex 0.01387 0.177378 0.00094
   vertex 0.015291 0.17459 0.00094
  endloop
 endfacet
 facet normal 0.89641 0.274294 0.348155
  outer loop
   vertex 0.015346 0.172976 0.003451
   vertex 0.014398 0.175753 0.003704
   vertex 0.014091 0.173889 0.005963
  endloop
 endfacet
 facet normal 0.803858 0.400541 0.439749
  outer loop
   vertex 0.014398 0.175753 0.003704
   vertex 0.012662 0.1765 0.006197
   vertex 0.014091 0.173889 0.005963
  endloop
 endfacet
 facet normal 0.886806 0.451991 0.0963284
  outer loop
   vertex 0.015291 0.17459 0.00094
   vertex 0.01387 0.177378 0.00094
   vertex 0.014398 0.175753 0.003704
  endloop
 endfacet
 facet normal 0.794662 0.577331 0.18762
  outer loop
   vertex 0.01387 0.177378 0.00094
   vertex 0.012488 0.178382 0.003704
   vertex 0.014398 0.175753 0.003704
  endloop
 endfacet
 facet normal 0.754436 0.548107 0.361117
  outer loop
   vertex 0.014398 0.175753 0.003704
   vertex 0.012488 0.178382 0.003704
   vertex 0.012662 0.1765 0.006197
  endloop
 endfacet
 facet normal 0.629279 0.640767 0.439803
  outer loop
   vertex 0.012488 0.178382 0.003704
   vertex 0.01062 0.178666 0.005963
   vertex 0.012662 0.1765 0.006197
  endloop
 endfacet
 facet normal 0.797233 0.579229 -0.170037
  outer loop
   vertex 0.014387 0.175929 -0.001572
   vertex 0.012652 0.178317 -0.001572
   vertex 0.01387 0.177378 0.00094
  endloop
 endfacet
 facet normal 0.704936 0.704936 -0.0782949
  outer loop
   vertex 0.012652 0.178317 -0.001572
   vertex 0.011658 0.17959 0.00094
   vertex 0.01387 0.177378 0.00094
  endloop
 endfacet
 facet normal 0.703824 0.703824 0.0962537
  outer loop
   vertex 0.01387 0.177378 0.00094
   vertex 0.011658 0.17959 0.00094
   vertex 0.012488 0.178382 0.003704
  endloop
 endfacet
 facet normal 0.578519 0.796783 0.174509
  outer loop
   vertex 0.011658 0.17959 0.00094
   vertex 0.01014 0.180142 0.003452
   vertex 0.012488 0.178382 0.003704
  endloop
 endfacet
 facet normal 0.537986 0.767602 0.348366
  outer loop
   vertex 0.012488 0.178382 0.003704
   vertex 0.01014 0.180142 0.003452
   vertex 0.01062 0.178666 0.005963
  endloop
 endfacet
 facet normal 0.420269 0.815078 0.398776
  outer loop
   vertex 0.01014 0.180142 0.003452
   vertex 0.008544 0.180006 0.005412
   vertex 0.01062 0.178666 0.005963
  endloop
 endfacet
 facet normal 0.138975 0.90647 0.398746
  outer loop
   vertex 0.007332 0.181054 0.003452
   vertex 0.006076 0.180142 0.005963
   vertex 0.008544 0.180006 0.005412
  endloop
 endfacet
 facet normal 0.000555151 0.98466 0.174481
  outer loop
   vertex 0.00578 0.1815 0.00094
   vertex 0.004398 0.181011 0.003704
   vertex 0.007332 0.181054 0.003452
  endloop
 endfacet
 facet normal -0.155824 0.984657 -0.07855
  outer loop
   vertex 0.004228 0.181054 -0.001572
   vertex 0.00269 0.181011 0.00094
   vertex 0.00578 0.1815 0.00094
  endloop
 endfacet
 facet normal 0.0161962 0.937175 0.348485
  outer loop
   vertex 0.007332 0.181054 0.003452
   vertex 0.004398 0.181011 0.003704
   vertex 0.006076 0.180142 0.005963
  endloop
 endfacet
 facet normal -0.132412 0.888171 0.440021
  outer loop
   vertex 0.004398 0.181011 0.003704
   vertex 0.003151 0.17959 0.006197
   vertex 0.006076 0.180142 0.005963
  endloop
 endfacet
 facet normal -0.155583 0.983133 0.0961419
  outer loop
   vertex 0.00578 0.1815 0.00094
   vertex 0.00269 0.181011 0.00094
   vertex 0.004398 0.181011 0.003704
  endloop
 endfacet
 facet normal -0.303796 0.934059 0.187729
  outer loop
   vertex 0.00269 0.181011 0.00094
   vertex 0.001308 0.180006 0.003704
   vertex 0.004398 0.181011 0.003704
  endloop
 endfacet
 facet normal -0.288415 0.886769 0.361189
  outer loop
   vertex 0.004398 0.181011 0.003704
   vertex 0.001308 0.180006 0.003704
   vertex 0.003151 0.17959 0.006197
  endloop
 endfacet
 facet normal -0.415138 0.796394 0.439791
  outer loop
   vertex 0.001308 0.180006 0.003704
   vertex 0.000461 0.178317 0.005963
   vertex 0.003151 0.17959 0.006197
  endloop
 endfacet
 facet normal -0.304389 0.937197 -0.170322
  outer loop
   vertex 0.004228 0.181054 -0.001572
   vertex 0.00142 0.180142 -0.001572
   vertex 0.00269 0.181011 0.00094
  endloop
 endfacet
 facet normal -0.452705 0.888208 -0.0783901
  outer loop
   vertex 0.00142 0.180142 -0.001572
   vertex -9.80001e-05 0.17959 0.00094
   vertex 0.00269 0.181011 0.00094
  endloop
 endfacet
 facet normal -0.451986 0.886796 0.0964489
  outer loop
   vertex 0.00269 0.181011 0.00094
   vertex -9.80001e-05 0.17959 0.00094
   vertex 0.001308 0.180006 0.003704
  endloop
 endfacet
 facet normal -0.578874 0.796508 0.174584
  outer loop
   vertex -9.80001e-05 0.17959 0.00094
   vertex -0.001092 0.178317 0.003452
   vertex 0.001308 0.180006 0.003704
  endloop
 endfacet
 facet normal -0.563623 0.748876 0.348589
  outer loop
   vertex 0.001308 0.180006 0.003704
   vertex -0.001092 0.178317 0.003452
   vertex 0.000461 0.178317 0.005963
  endloop
 endfacet
 facet normal -0.645038 0.651744 0.398942
  outer loop
   vertex -0.001092 0.178317 0.003452
   vertex -0.001456 0.176757 0.005412
   vertex 0.000461 0.178317 0.005963
  endloop
 endfacet
 facet normal -0.819189 0.412026 0.398954
  outer loop
   vertex -0.002827 0.175929 0.003452
   vertex -0.002347 0.174452 0.005963
   vertex -0.001456 0.176757 0.005412
  endloop
 endfacet
 facet normal -0.936352 0.304548 0.174631
  outer loop
   vertex -0.003731 0.17459 0.00094
   vertex -0.003692 0.173125 0.003704
   vertex -0.002827 0.175929 0.003452
  endloop
 endfacet
 facet normal -0.984653 0.155824 -0.0785916
  outer loop
   vertex -0.003786 0.172976 -0.001571
   vertex -0.00422 0.1715 0.00094
   vertex -0.003731 0.17459 0.00094
  endloop
 endfacet
 facet normal -0.886309 0.304753 0.348685
  outer loop
   vertex -0.002827 0.175929 0.003452
   vertex -0.003692 0.173125 0.003704
   vertex -0.002347 0.174452 0.005963
  endloop
 endfacet
 facet normal -0.885615 0.148581 0.440011
  outer loop
   vertex -0.003692 0.173125 0.003704
   vertex -0.002726 0.1715 0.006197
   vertex -0.002347 0.174452 0.005963
  endloop
 endfacet
 facet normal -0.983115 0.15558 0.0963335
  outer loop
   vertex -0.003731 0.17459 0.00094
   vertex -0.00422 0.1715 0.00094
   vertex -0.003692 0.173125 0.003704
  endloop
 endfacet
 facet normal -0.982239 0 0.187634
  outer loop
   vertex -0.00422 0.1715 0.00094
   vertex -0.003692 0.169875 0.003704
   vertex -0.003692 0.173125 0.003704
  endloop
 endfacet
 facet normal -0.932446 0 0.361309
  outer loop
   vertex -0.003692 0.173125 0.003704
   vertex -0.003692 0.169875 0.003704
   vertex -0.002726 0.1715 0.006197
  endloop
 endfacet
 facet normal -0.885615 -0.148581 0.440011
  outer loop
   vertex -0.003692 0.169875 0.003704
   vertex -0.002347 0.168548 0.005963
   vertex -0.002726 0.1715 0.006197
  endloop
 endfacet
 facet normal -0.98539 -0 -0.170314
  outer loop
   vertex -0.003786 0.172976 -0.001571
   vertex -0.003786 0.170024 -0.001571
   vertex -0.00422 0.1715 0.00094
  endloop
 endfacet
 facet normal -0.984653 -0.155824 -0.0785916
  outer loop
   vertex -0.003786 0.170024 -0.001571
   vertex -0.003731 0.16841 0.00094
   vertex -0.00422 0.1715 0.00094
  endloop
 endfacet
 facet normal -0.983115 -0.15558 0.0963335
  outer loop
   vertex -0.00422 0.1715 0.00094
   vertex -0.003731 0.16841 0.00094
   vertex -0.003692 0.169875 0.003704
  endloop
 endfacet
 facet normal -0.936352 -0.304548 0.174631
  outer loop
   vertex -0.003731 0.16841 0.00094
   vertex -0.002827 0.167071 0.003452
   vertex -0.003692 0.169875 0.003704
  endloop
 endfacet
 facet normal -0.886309 -0.304753 0.348685
  outer loop
   vertex -0.003692 0.169875 0.003704
   vertex -0.002827 0.167071 0.003452
   vertex -0.002347 0.168548 0.005963
  endloop
 endfacet
 facet normal -0.819189 -0.412026 0.398954
  outer loop
   vertex -0.002827 0.167071 0.003452
   vertex -0.001456 0.166243 0.005412
   vertex -0.002347 0.168548 0.005963
  endloop
 endfacet
 facet normal -0.645038 -0.651744 0.398942
  outer loop
   vertex -0.001092 0.164683 0.003452
   vertex 0.000461 0.164683 0.005963
   vertex -0.001456 0.166243 0.005412
  endloop
 endfacet
 facet normal -0.578874 -0.796508 0.174584
  outer loop
   vertex -9.80001e-05 0.16341 0.00094
   vertex 0.001308 0.162994 0.003704
   vertex -0.001092 0.164683 0.003452
  endloop
 endfacet
 facet normal -0.452705 -0.888208 -0.0783901
  outer loop
   vertex 0.00142 0.162858 -0.001572
   vertex 0.00269 0.161989 0.00094
   vertex -9.80001e-05 0.16341 0.00094
  endloop
 endfacet
 facet normal -0.563623 -0.748876 0.348589
  outer loop
   vertex -0.001092 0.164683 0.003452
   vertex 0.001308 0.162994 0.003704
   vertex 0.000461 0.164683 0.005963
  endloop
 endfacet
 facet normal -0.415138 -0.796394 0.439791
  outer loop
   vertex 0.001308 0.162994 0.003704
   vertex 0.003151 0.16341 0.006197
   vertex 0.000461 0.164683 0.005963
  endloop
 endfacet
 facet normal -0.451986 -0.886796 0.0964489
  outer loop
   vertex -9.80001e-05 0.16341 0.00094
   vertex 0.00269 0.161989 0.00094
   vertex 0.001308 0.162994 0.003704
  endloop
 endfacet
 facet normal -0.303796 -0.934059 0.187729
  outer loop
   vertex 0.00269 0.161989 0.00094
   vertex 0.004398 0.161989 0.003704
   vertex 0.001308 0.162994 0.003704
  endloop
 endfacet
 facet normal -0.288415 -0.886769 0.361189
  outer loop
   vertex 0.001308 0.162994 0.003704
   vertex 0.004398 0.161989 0.003704
   vertex 0.003151 0.16341 0.006197
  endloop
 endfacet
 facet normal -0.132412 -0.888171 0.440021
  outer loop
   vertex 0.004398 0.161989 0.003704
   vertex 0.006076 0.162858 0.005963
   vertex 0.003151 0.16341 0.006197
  endloop
 endfacet
 facet normal -0.304389 -0.937197 -0.170322
  outer loop
   vertex 0.00142 0.162858 -0.001572
   vertex 0.004228 0.161946 -0.001572
   vertex 0.00269 0.161989 0.00094
  endloop
 endfacet
 facet normal -0.155824 -0.984657 -0.07855
  outer loop
   vertex 0.004228 0.161946 -0.001572
   vertex 0.00578 0.1615 0.00094
   vertex 0.00269 0.161989 0.00094
  endloop
 endfacet
 facet normal -0.155583 -0.983133 0.0961419
  outer loop
   vertex 0.00269 0.161989 0.00094
   vertex 0.00578 0.1615 0.00094
   vertex 0.004398 0.161989 0.003704
  endloop
 endfacet
 facet normal 0.000555151 -0.98466 0.174481
  outer loop
   vertex 0.00578 0.1615 0.00094
   vertex 0.007332 0.161946 0.003452
   vertex 0.004398 0.161989 0.003704
  endloop
 endfacet
 facet normal 0.0161962 -0.937175 0.348485
  outer loop
   vertex 0.004398 0.161989 0.003704
   vertex 0.007332 0.161946 0.003452
   vertex 0.006076 0.162858 0.005963
  endloop
 endfacet
 facet normal 0.138975 -0.90647 0.398746
  outer loop
   vertex 0.007332 0.161946 0.003452
   vertex 0.008544 0.162994 0.005412
   vertex 0.006076 0.162858 0.005963
  endloop
 endfacet
 facet normal 0.420269 -0.815078 0.398776
  outer loop
   vertex 0.01014 0.162858 0.003452
   vertex 0.01062 0.164334 0.005963
   vertex 0.008544 0.162994 0.005412
  endloop
 endfacet
 facet normal 0.578519 -0.796783 0.174509
  outer loop
   vertex 0.011658 0.16341 0.00094
   vertex 0.012488 0.164618 0.003704
   vertex 0.01014 0.162858 0.003452
  endloop
 endfacet
 facet normal 0.704936 -0.704936 -0.0782949
  outer loop
   vertex 0.012652 0.164683 -0.001572
   vertex 0.01387 0.165622 0.00094
   vertex 0.011658 0.16341 0.00094
  endloop
 endfacet
 facet normal 0.537986 -0.767602 0.348366
  outer loop
   vertex 0.01014 0.162858 0.003452
   vertex 0.012488 0.164618 0.003704
   vertex 0.01062 0.164334 0.005963
  endloop
 endfacet
 facet normal 0.629279 -0.640767 0.439803
  outer loop
   vertex 0.012488 0.164618 0.003704
   vertex 0.012662 0.1665 0.006197
   vertex 0.01062 0.164334 0.005963
  endloop
 endfacet
 facet normal 0.703824 -0.703824 0.0962537
  outer loop
   vertex 0.011658 0.16341 0.00094
   vertex 0.01387 0.165622 0.00094
   vertex 0.012488 0.164618 0.003704
  endloop
 endfacet
 facet normal 0.794662 -0.577331 0.18762
  outer loop
   vertex 0.01387 0.165622 0.00094
   vertex 0.014398 0.167247 0.003704
   vertex 0.012488 0.164618 0.003704
  endloop
 endfacet
 facet normal 0.754436 -0.548107 0.361117
  outer loop
   vertex 0.012488 0.164618 0.003704
   vertex 0.014398 0.167247 0.003704
   vertex 0.012662 0.1665 0.006197
  endloop
 endfacet
 facet normal 0.803858 -0.400541 0.439749
  outer loop
   vertex 0.014398 0.167247 0.003704
   vertex 0.014091 0.169111 0.005963
   vertex 0.012662 0.1665 0.006197
  endloop
 endfacet
 facet normal 0.797233 -0.579229 -0.170037
  outer loop
   vertex 0.012652 0.164683 -0.001572
   vertex 0.014387 0.167071 -0.001572
   vertex 0.01387 0.165622 0.00094
  endloop
 endfacet
 facet normal 0.888212 -0.452708 -0.078331
  outer loop
   vertex 0.014387 0.167071 -0.001572
   vertex 0.015291 0.16841 0.00094
   vertex 0.01387 0.165622 0.00094
  endloop
 endfacet
 facet normal 0.886806 -0.451991 0.0963284
  outer loop
   vertex 0.01387 0.165622 0.00094
   vertex 0.015291 0.16841 0.00094
   vertex 0.014398 0.167247 0.003704
  endloop
 endfacet
 facet normal 0.93657 -0.303801 0.17476
  outer loop
   vertex 0.015291 0.16841 0.00094
   vertex 0.015346 0.170024 0.003451
   vertex 0.014398 0.167247 0.003704
  endloop
 endfacet
 facet normal 0.89641 -0.274294 0.348155
  outer loop
   vertex 0.014398 0.167247 0.003704
   vertex 0.015346 0.170024 0.003451
   vertex 0.014091 0.169111 0.005963
  endloop
 endfacet
 facet normal 0.905177 -0.147939 0.398459
  outer loop
   vertex 0.015346 0.170024 0.003451
   vertex 0.014724 0.1715 0.005412
   vertex 0.014091 0.169111 0.005963
  endloop
 endfacet
 facet normal 0.294416 0.906493 0.302638
  outer loop
   vertex 0.01014 0.180142 0.003452
   vertex 0.007332 0.181054 0.003452
   vertex 0.008544 0.180006 0.005412
  endloop
 endfacet
 facet normal 0.452705 0.888208 0.0783901
  outer loop
   vertex 0.011658 0.17959 0.00094
   vertex 0.00887 0.181011 0.00094
   vertex 0.01014 0.180142 0.003452
  endloop
 endfacet
 facet normal 0.578874 0.796508 -0.174584
  outer loop
   vertex 0.012652 0.178317 -0.001572
   vertex 0.010252 0.180006 -0.001824
   vertex 0.011658 0.17959 0.00094
  endloop
 endfacet
 facet normal 0.304389 0.937197 0.170322
  outer loop
   vertex 0.01014 0.180142 0.003452
   vertex 0.00887 0.181011 0.00094
   vertex 0.007332 0.181054 0.003452
  endloop
 endfacet
 facet normal 0.155824 0.984657 0.07855
  outer loop
   vertex 0.00887 0.181011 0.00094
   vertex 0.00578 0.1815 0.00094
   vertex 0.007332 0.181054 0.003452
  endloop
 endfacet
 facet normal 0.451986 0.886796 -0.0964489
  outer loop
   vertex 0.011658 0.17959 0.00094
   vertex 0.010252 0.180006 -0.001824
   vertex 0.00887 0.181011 0.00094
  endloop
 endfacet
 facet normal 0.303796 0.934059 -0.187729
  outer loop
   vertex 0.010252 0.180006 -0.001824
   vertex 0.007162 0.181011 -0.001824
   vertex 0.00887 0.181011 0.00094
  endloop
 endfacet
 facet normal 0.155583 0.983133 -0.0961419
  outer loop
   vertex 0.00887 0.181011 0.00094
   vertex 0.007162 0.181011 -0.001824
   vertex 0.00578 0.1815 0.00094
  endloop
 endfacet
 facet normal -0.000555151 0.98466 -0.174481
  outer loop
   vertex 0.007162 0.181011 -0.001824
   vertex 0.004228 0.181054 -0.001572
   vertex 0.00578 0.1815 0.00094
  endloop
 endfacet
 facet normal 0.563623 0.748876 -0.348589
  outer loop
   vertex 0.012652 0.178317 -0.001572
   vertex 0.011099 0.178317 -0.004083
   vertex 0.010252 0.180006 -0.001824
  endloop
 endfacet
 facet normal 0.415138 0.796394 -0.439791
  outer loop
   vertex 0.011099 0.178317 -0.004083
   vertex 0.008409 0.17959 -0.004317
   vertex 0.010252 0.180006 -0.001824
  endloop
 endfacet
 facet normal 0.288415 0.886769 -0.361189
  outer loop
   vertex 0.010252 0.180006 -0.001824
   vertex 0.008409 0.17959 -0.004317
   vertex 0.007162 0.181011 -0.001824
  endloop
 endfacet
 facet normal 0.132412 0.888171 -0.440021
  outer loop
   vertex 0.008409 0.17959 -0.004317
   vertex 0.005484 0.180142 -0.004083
   vertex 0.007162 0.181011 -0.001824
  endloop
 endfacet
 facet normal -0.0161962 0.937175 -0.348485
  outer loop
   vertex 0.007162 0.181011 -0.001824
   vertex 0.005484 0.180142 -0.004083
   vertex 0.004228 0.181054 -0.001572
  endloop
 endfacet
 facet normal -0.138975 0.90647 -0.398746
  outer loop
   vertex 0.005484 0.180142 -0.004083
   vertex 0.003016 0.180006 -0.003532
   vertex 0.004228 0.181054 -0.001572
  endloop
 endfacet
 facet normal -0.771063 0.560215 0.302688
  outer loop
   vertex -0.001092 0.178317 0.003452
   vertex -0.002827 0.175929 0.003452
   vertex -0.001456 0.176757 0.005412
  endloop
 endfacet
 facet normal -0.704936 0.704936 0.0782949
  outer loop
   vertex -9.80001e-05 0.17959 0.00094
   vertex -0.00231 0.177378 0.00094
   vertex -0.001092 0.178317 0.003452
  endloop
 endfacet
 facet normal -0.578519 0.796783 -0.174509
  outer loop
   vertex 0.00142 0.180142 -0.001572
   vertex -0.000928 0.178382 -0.001824
   vertex -9.80001e-05 0.17959 0.00094
  endloop
 endfacet
 facet normal -0.797233 0.579229 0.170037
  outer loop
   vertex -0.001092 0.178317 0.003452
   vertex -0.00231 0.177378 0.00094
   vertex -0.002827 0.175929 0.003452
  endloop
 endfacet
 facet normal -0.888212 0.452708 0.078331
  outer loop
   vertex -0.00231 0.177378 0.00094
   vertex -0.003731 0.17459 0.00094
   vertex -0.002827 0.175929 0.003452
  endloop
 endfacet
 facet normal -0.703824 0.703824 -0.0962537
  outer loop
   vertex -9.80001e-05 0.17959 0.00094
   vertex -0.000928 0.178382 -0.001824
   vertex -0.00231 0.177378 0.00094
  endloop
 endfacet
 facet normal -0.794662 0.577331 -0.18762
  outer loop
   vertex -0.000928 0.178382 -0.001824
   vertex -0.002838 0.175753 -0.001824
   vertex -0.00231 0.177378 0.00094
  endloop
 endfacet
 facet normal -0.886806 0.451991 -0.0963284
  outer loop
   vertex -0.00231 0.177378 0.00094
   vertex -0.002838 0.175753 -0.001824
   vertex -0.003731 0.17459 0.00094
  endloop
 endfacet
 facet normal -0.93657 0.303801 -0.17476
  outer loop
   vertex -0.002838 0.175753 -0.001824
   vertex -0.003786 0.172976 -0.001571
   vertex -0.003731 0.17459 0.00094
  endloop
 endfacet
 facet normal -0.537986 0.767602 -0.348366
  outer loop
   vertex 0.00142 0.180142 -0.001572
   vertex 0.00094 0.178666 -0.004083
   vertex -0.000928 0.178382 -0.001824
  endloop
 endfacet
 facet normal -0.629279 0.640767 -0.439803
  outer loop
   vertex 0.00094 0.178666 -0.004083
   vertex -0.001102 0.1765 -0.004317
   vertex -0.000928 0.178382 -0.001824
  endloop
 endfacet
 facet normal -0.754436 0.548107 -0.361117
  outer loop
   vertex -0.000928 0.178382 -0.001824
   vertex -0.001102 0.1765 -0.004317
   vertex -0.002838 0.175753 -0.001824
  endloop
 endfacet
 facet normal -0.803858 0.400541 -0.439749
  outer loop
   vertex -0.001102 0.1765 -0.004317
   vertex -0.002531 0.173889 -0.004083
   vertex -0.002838 0.175753 -0.001824
  endloop
 endfacet
 facet normal -0.89641 0.274294 -0.348155
  outer loop
   vertex -0.002838 0.175753 -0.001824
   vertex -0.002531 0.173889 -0.004083
   vertex -0.003786 0.172976 -0.001571
  endloop
 endfacet
 facet normal -0.905177 0.147939 -0.398459
  outer loop
   vertex -0.002531 0.173889 -0.004083
   vertex -0.003164 0.1715 -0.003532
   vertex -0.003786 0.172976 -0.001571
  endloop
 endfacet
 facet normal -0.771063 -0.560215 0.302688
  outer loop
   vertex -0.002827 0.167071 0.003452
   vertex -0.001092 0.164683 0.003452
   vertex -0.001456 0.166243 0.005412
  endloop
 endfacet
 facet normal -0.888212 -0.452708 0.078331
  outer loop
   vertex -0.003731 0.16841 0.00094
   vertex -0.00231 0.165622 0.00094
   vertex -0.002827 0.167071 0.003452
  endloop
 endfacet
 facet normal -0.93657 -0.303801 -0.17476
  outer loop
   vertex -0.003786 0.170024 -0.001571
   vertex -0.002838 0.167247 -0.001824
   vertex -0.003731 0.16841 0.00094
  endloop
 endfacet
 facet normal -0.797233 -0.579229 0.170037
  outer loop
   vertex -0.002827 0.167071 0.003452
   vertex -0.00231 0.165622 0.00094
   vertex -0.001092 0.164683 0.003452
  endloop
 endfacet
 facet normal -0.704936 -0.704936 0.0782949
  outer loop
   vertex -0.00231 0.165622 0.00094
   vertex -9.80001e-05 0.16341 0.00094
   vertex -0.001092 0.164683 0.003452
  endloop
 endfacet
 facet normal -0.886806 -0.451991 -0.0963284
  outer loop
   vertex -0.003731 0.16841 0.00094
   vertex -0.002838 0.167247 -0.001824
   vertex -0.00231 0.165622 0.00094
  endloop
 endfacet
 facet normal -0.794662 -0.577331 -0.18762
  outer loop
   vertex -0.002838 0.167247 -0.001824
   vertex -0.000928 0.164618 -0.001824
   vertex -0.00231 0.165622 0.00094
  endloop
 endfacet
 facet normal -0.703824 -0.703824 -0.0962537
  outer loop
   vertex -0.00231 0.165622 0.00094
   vertex -0.000928 0.164618 -0.001824
   vertex -9.80001e-05 0.16341 0.00094
  endloop
 endfacet
 facet normal -0.578519 -0.796783 -0.174509
  outer loop
   vertex -0.000928 0.164618 -0.001824
   vertex 0.00142 0.162858 -0.001572
   vertex -9.80001e-05 0.16341 0.00094
  endloop
 endfacet
 facet normal -0.89641 -0.274294 -0.348155
  outer loop
   vertex -0.003786 0.170024 -0.001571
   vertex -0.002531 0.169111 -0.004083
   vertex -0.002838 0.167247 -0.001824
  endloop
 endfacet
 facet normal -0.803858 -0.400541 -0.439749
  outer loop
   vertex -0.002531 0.169111 -0.004083
   vertex -0.001102 0.1665 -0.004317
   vertex -0.002838 0.167247 -0.001824
  endloop
 endfacet
 facet normal -0.754436 -0.548107 -0.361117
  outer loop
   vertex -0.002838 0.167247 -0.001824
   vertex -0.001102 0.1665 -0.004317
   vertex -0.000928 0.164618 -0.001824
  endloop
 endfacet
 facet normal -0.629279 -0.640767 -0.439803
  outer loop
   vertex -0.001102 0.1665 -0.004317
   vertex 0.00094 0.164334 -0.004083
   vertex -0.000928 0.164618 -0.001824
  endloop
 endfacet
 facet normal -0.537986 -0.767602 -0.348366
  outer loop
   vertex -0.000928 0.164618 -0.001824
   vertex 0.00094 0.164334 -0.004083
   vertex 0.00142 0.162858 -0.001572
  endloop
 endfacet
 facet normal -0.420269 -0.815078 -0.398776
  outer loop
   vertex 0.00094 0.164334 -0.004083
   vertex 0.003016 0.162994 -0.003532
   vertex 0.00142 0.162858 -0.001572
  endloop
 endfacet
 facet normal 0.294416 -0.906493 0.302638
  outer loop
   vertex 0.007332 0.161946 0.003452
   vertex 0.01014 0.162858 0.003452
   vertex 0.008544 0.162994 0.005412
  endloop
 endfacet
 facet normal 0.155824 -0.984657 0.07855
  outer loop
   vertex 0.00578 0.1615 0.00094
   vertex 0.00887 0.161989 0.00094
   vertex 0.007332 0.161946 0.003452
  endloop
 endfacet
 facet normal -0.000555151 -0.98466 -0.174481
  outer loop
   vertex 0.004228 0.161946 -0.001572
   vertex 0.007162 0.161989 -0.001824
   vertex 0.00578 0.1615 0.00094
  endloop
 endfacet
 facet normal 0.304389 -0.937197 0.170322
  outer loop
   vertex 0.007332 0.161946 0.003452
   vertex 0.00887 0.161989 0.00094
   vertex 0.01014 0.162858 0.003452
  endloop
 endfacet
 facet normal 0.452705 -0.888208 0.0783901
  outer loop
   vertex 0.00887 0.161989 0.00094
   vertex 0.011658 0.16341 0.00094
   vertex 0.01014 0.162858 0.003452
  endloop
 endfacet
 facet normal 0.155583 -0.983133 -0.0961419
  outer loop
   vertex 0.00578 0.1615 0.00094
   vertex 0.007162 0.161989 -0.001824
   vertex 0.00887 0.161989 0.00094
  endloop
 endfacet
 facet normal 0.303796 -0.934059 -0.187729
  outer loop
   vertex 0.007162 0.161989 -0.001824
   vertex 0.010252 0.162994 -0.001824
   vertex 0.00887 0.161989 0.00094
  endloop
 endfacet
 facet normal 0.451986 -0.886796 -0.0964489
  outer loop
   vertex 0.00887 0.161989 0.00094
   vertex 0.010252 0.162994 -0.001824
   vertex 0.011658 0.16341 0.00094
  endloop
 endfacet
 facet normal 0.578874 -0.796508 -0.174584
  outer loop
   vertex 0.010252 0.162994 -0.001824
   vertex 0.012652 0.164683 -0.001572
   vertex 0.011658 0.16341 0.00094
  endloop
 endfacet
 facet normal -0.0161962 -0.937175 -0.348485
  outer loop
   vertex 0.004228 0.161946 -0.001572
   vertex 0.005484 0.162858 -0.004083
   vertex 0.007162 0.161989 -0.001824
  endloop
 endfacet
 facet normal 0.132412 -0.888171 -0.440021
  outer loop
   vertex 0.005484 0.162858 -0.004083
   vertex 0.008409 0.16341 -0.004317
   vertex 0.007162 0.161989 -0.001824
  endloop
 endfacet
 facet normal 0.288415 -0.886769 -0.361189
  outer loop
   vertex 0.007162 0.161989 -0.001824
   vertex 0.008409 0.16341 -0.004317
   vertex 0.010252 0.162994 -0.001824
  endloop
 endfacet
 facet normal 0.415138 -0.796394 -0.439791
  outer loop
   vertex 0.008409 0.16341 -0.004317
   vertex 0.011099 0.164683 -0.004083
   vertex 0.010252 0.162994 -0.001824
  endloop
 endfacet
 facet normal 0.563623 -0.748876 -0.348589
  outer loop
   vertex 0.010252 0.162994 -0.001824
   vertex 0.011099 0.164683 -0.004083
   vertex 0.012652 0.164683 -0.001572
  endloop
 endfacet
 facet normal 0.645038 -0.651744 -0.398942
  outer loop
   vertex 0.011099 0.164683 -0.004083
   vertex 0.013016 0.166243 -0.003532
   vertex 0.012652 0.164683 -0.001572
  endloop
 endfacet
 facet normal 0.9532 -0 0.302341
  outer loop
   vertex 0.015346 0.170024 0.003451
   vertex 0.015346 0.172976 0.003451
   vertex 0.014724 0.1715 0.005412
  endloop
 endfacet
 facet normal 0.984653 -0.155824 0.0785916
  outer loop
   vertex 0.015291 0.16841 0.00094
   vertex 0.01578 0.1715 0.00094
   vertex 0.015346 0.170024 0.003451
  endloop
 endfacet
 facet normal 0.936352 -0.304548 -0.174631
  outer loop
   vertex 0.014387 0.167071 -0.001572
   vertex 0.015252 0.169875 -0.001824
   vertex 0.015291 0.16841 0.00094
  endloop
 endfacet
 facet normal 0.98539 -0 0.170314
  outer loop
   vertex 0.015346 0.170024 0.003451
   vertex 0.01578 0.1715 0.00094
   vertex 0.015346 0.172976 0.003451
  endloop
 endfacet
 facet normal 0.984653 0.155824 0.0785916
  outer loop
   vertex 0.01578 0.1715 0.00094
   vertex 0.015291 0.17459 0.00094
   vertex 0.015346 0.172976 0.003451
  endloop
 endfacet
 facet normal 0.983115 -0.15558 -0.0963335
  outer loop
   vertex 0.015291 0.16841 0.00094
   vertex 0.015252 0.169875 -0.001824
   vertex 0.01578 0.1715 0.00094
  endloop
 endfacet
 facet normal 0.982239 0 -0.187634
  outer loop
   vertex 0.015252 0.169875 -0.001824
   vertex 0.015252 0.173125 -0.001824
   vertex 0.01578 0.1715 0.00094
  endloop
 endfacet
 facet normal 0.983115 0.15558 -0.0963335
  outer loop
   vertex 0.01578 0.1715 0.00094
   vertex 0.015252 0.173125 -0.001824
   vertex 0.015291 0.17459 0.00094
  endloop
 endfacet
 facet normal 0.936352 0.304548 -0.174631
  outer loop
   vertex 0.015252 0.173125 -0.001824
   vertex 0.014387 0.175929 -0.001572
   vertex 0.015291 0.17459 0.00094
  endloop
 endfacet
 facet normal 0.886309 -0.304753 -0.348685
  outer loop
   vertex 0.014387 0.167071 -0.001572
   vertex 0.013907 0.168548 -0.004083
   vertex 0.015252 0.169875 -0.001824
  endloop
 endfacet
 facet normal 0.885615 -0.148581 -0.440011
  outer loop
   vertex 0.013907 0.168548 -0.004083
   vertex 0.014286 0.1715 -0.004317
   vertex 0.015252 0.169875 -0.001824
  endloop
 endfacet
 facet normal 0.932446 0 -0.361309
  outer loop
   vertex 0.015252 0.169875 -0.001824
   vertex 0.014286 0.1715 -0.004317
   vertex 0.015252 0.173125 -0.001824
  endloop
 endfacet
 facet normal 0.885615 0.148581 -0.440011
  outer loop
   vertex 0.014286 0.1715 -0.004317
   vertex 0.013907 0.174452 -0.004083
   vertex 0.015252 0.173125 -0.001824
  endloop
 endfacet
 facet normal 0.886309 0.304753 -0.348685
  outer loop
   vertex 0.015252 0.173125 -0.001824
   vertex 0.013907 0.174452 -0.004083
   vertex 0.014387 0.175929 -0.001572
  endloop
 endfacet
 facet normal 0.819189 0.412026 -0.398954
  outer loop
   vertex 0.013907 0.174452 -0.004083
   vertex 0.013016 0.176757 -0.003532
   vertex 0.014387 0.175929 -0.001572
  endloop
 endfacet
 facet normal 0.61533 0.560308 -0.554459
  outer loop
   vertex 0.011875 0.175929 -0.005635
   vertex 0.011099 0.178317 -0.004083
   vertex 0.013016 0.176757 -0.003532
  endloop
 endfacet
 facet normal 0.467426 0.452641 -0.759361
  outer loop
   vertex 0.010033 0.17459 -0.007567
   vertex 0.009398 0.177378 -0.006296
   vertex 0.011875 0.175929 -0.005635
  endloop
 endfacet
 facet normal 0.262485 0.303841 -0.915851
  outer loop
   vertex 0.007812 0.172976 -0.008739
   vertex 0.007162 0.175753 -0.008004
   vertex 0.010033 0.17459 -0.007567
  endloop
 endfacet
 facet normal 0.508799 0.579247 -0.636864
  outer loop
   vertex 0.011875 0.175929 -0.005635
   vertex 0.009398 0.177378 -0.006296
   vertex 0.011099 0.178317 -0.004083
  endloop
 endfacet
 facet normal 0.38541 0.704977 -0.595371
  outer loop
   vertex 0.009398 0.177378 -0.006296
   vertex 0.008409 0.17959 -0.004317
   vertex 0.011099 0.178317 -0.004083
  endloop
 endfacet
 facet normal 0.310374 0.451949 -0.836307
  outer loop
   vertex 0.010033 0.17459 -0.007567
   vertex 0.007162 0.175753 -0.008004
   vertex 0.009398 0.177378 -0.006296
  endloop
 endfacet
 facet normal 0.187559 0.577248 -0.794737
  outer loop
   vertex 0.007162 0.175753 -0.008004
   vertex 0.006308 0.178382 -0.006296
   vertex 0.009398 0.177378 -0.006296
  endloop
 endfacet
 facet normal 0.228709 0.703897 -0.672474
  outer loop
   vertex 0.009398 0.177378 -0.006296
   vertex 0.006308 0.178382 -0.006296
   vertex 0.008409 0.17959 -0.004317
  endloop
 endfacet
 facet normal 0.102735 0.796801 -0.595444
  outer loop
   vertex 0.006308 0.178382 -0.006296
   vertex 0.005484 0.180142 -0.004083
   vertex 0.008409 0.17959 -0.004317
  endloop
 endfacet
 facet normal 0.0891868 0.274301 -0.957499
  outer loop
   vertex 0.007812 0.172976 -0.008739
   vertex 0.005004 0.173889 -0.008739
   vertex 0.007162 0.175753 -0.008004
  endloop
 endfacet
 facet normal -0.0336945 0.400135 -0.915836
  outer loop
   vertex 0.005004 0.173889 -0.008739
   vertex 0.004155 0.1765 -0.007567
   vertex 0.007162 0.175753 -0.008004
  endloop
 endfacet
 facet normal 0.0146149 0.548074 -0.836302
  outer loop
   vertex 0.007162 0.175753 -0.008004
   vertex 0.004155 0.1765 -0.007567
   vertex 0.006308 0.178382 -0.006296
  endloop
 endfacet
 facet normal -0.112009 0.640965 -0.759354
  outer loop
   vertex 0.004155 0.1765 -0.007567
   vertex 0.003452 0.178666 -0.005635
   vertex 0.006308 0.178382 -0.006296
  endloop
 endfacet
 facet normal -0.0710868 0.767617 -0.636955
  outer loop
   vertex 0.006308 0.178382 -0.006296
   vertex 0.003452 0.178666 -0.005635
   vertex 0.005484 0.180142 -0.004083
  endloop
 endfacet
 facet normal -0.168666 0.815046 -0.554303
  outer loop
   vertex 0.003452 0.178666 -0.005635
   vertex 0.003016 0.180006 -0.003532
   vertex 0.005484 0.180142 -0.004083
  endloop
 endfacet
 facet normal -0.342493 0.758552 -0.554344
  outer loop
   vertex 0.003452 0.178666 -0.005635
   vertex 0.00094 0.178666 -0.004083
   vertex 0.003016 0.180006 -0.003532
  endloop
 endfacet
 facet normal -0.286233 0.584386 -0.759318
  outer loop
   vertex 0.004155 0.1765 -0.007567
   vertex 0.001308 0.176757 -0.006296
   vertex 0.003452 0.178666 -0.005635
  endloop
 endfacet
 facet normal -0.207851 0.343516 -0.915858
  outer loop
   vertex 0.005004 0.173889 -0.008739
   vertex 0.002162 0.174129 -0.008004
   vertex 0.004155 0.1765 -0.007567
  endloop
 endfacet
 facet normal -0.393627 0.662685 -0.637108
  outer loop
   vertex 0.003452 0.178666 -0.005635
   vertex 0.001308 0.176757 -0.006296
   vertex 0.00094 0.178666 -0.004083
  endloop
 endfacet
 facet normal -0.551379 0.584158 -0.595601
  outer loop
   vertex 0.001308 0.176757 -0.006296
   vertex -0.001102 0.1765 -0.004317
   vertex 0.00094 0.178666 -0.004083
  endloop
 endfacet
 facet normal -0.334054 0.43492 -0.836213
  outer loop
   vertex 0.004155 0.1765 -0.007567
   vertex 0.002162 0.174129 -0.008004
   vertex 0.001308 0.176757 -0.006296
  endloop
 endfacet
 facet normal -0.491058 0.356895 -0.794662
  outer loop
   vertex 0.002162 0.174129 -0.008004
   vertex -0.000602 0.174129 -0.006296
   vertex 0.001308 0.176757 -0.006296
  endloop
 endfacet
 facet normal -0.598657 0.435097 -0.672533
  outer loop
   vertex 0.001308 0.176757 -0.006296
   vertex -0.000602 0.174129 -0.006296
   vertex -0.001102 0.1765 -0.004317
  endloop
 endfacet
 facet normal -0.725985 0.343961 -0.595514
  outer loop
   vertex -0.000602 0.174129 -0.006296
   vertex -0.002531 0.173889 -0.004083
   vertex -0.001102 0.1765 -0.004317
  endloop
 endfacet
 facet normal -0.233325 0.169451 -0.957521
  outer loop
   vertex 0.005004 0.173889 -0.008739
   vertex 0.003269 0.1715 -0.008739
   vertex 0.002162 0.174129 -0.008004
  endloop
 endfacet
 facet normal -0.390899 0.0914587 -0.915878
  outer loop
   vertex 0.003269 0.1715 -0.008739
   vertex 0.000523 0.1715 -0.007567
   vertex 0.002162 0.174129 -0.008004
  endloop
 endfacet
 facet normal -0.516783 0.183167 -0.836293
  outer loop
   vertex 0.002162 0.174129 -0.008004
   vertex 0.000523 0.1715 -0.007567
   vertex -0.000602 0.174129 -0.006296
  endloop
 endfacet
 facet normal -0.644269 0.0913996 -0.759317
  outer loop
   vertex 0.000523 0.1715 -0.007567
   vertex -0.001754 0.1715 -0.005635
   vertex -0.000602 0.174129 -0.006296
  endloop
 endfacet
 facet normal -0.751958 0.169318 -0.637095
  outer loop
   vertex -0.000602 0.174129 -0.006296
   vertex -0.001754 0.1715 -0.005635
   vertex -0.002531 0.173889 -0.004083
  endloop
 endfacet
 facet normal -0.827124 0.091254 -0.554562
  outer loop
   vertex -0.001754 0.1715 -0.005635
   vertex -0.003164 0.1715 -0.003532
   vertex -0.002531 0.173889 -0.004083
  endloop
 endfacet
 facet normal -0.827124 -0.091254 -0.554562
  outer loop
   vertex -0.001754 0.1715 -0.005635
   vertex -0.002531 0.169111 -0.004083
   vertex -0.003164 0.1715 -0.003532
  endloop
 endfacet
 facet normal -0.644269 -0.0913996 -0.759317
  outer loop
   vertex 0.000523 0.1715 -0.007567
   vertex -0.000602 0.168871 -0.006296
   vertex -0.001754 0.1715 -0.005635
  endloop
 endfacet
 facet normal -0.390899 -0.0914587 -0.915878
  outer loop
   vertex 0.003269 0.1715 -0.008739
   vertex 0.002162 0.168871 -0.008004
   vertex 0.000523 0.1715 -0.007567
  endloop
 endfacet
 facet normal -0.751958 -0.169318 -0.637095
  outer loop
   vertex -0.001754 0.1715 -0.005635
   vertex -0.000602 0.168871 -0.006296
   vertex -0.002531 0.169111 -0.004083
  endloop
 endfacet
 facet normal -0.725985 -0.343961 -0.595514
  outer loop
   vertex -0.000602 0.168871 -0.006296
   vertex -0.001102 0.1665 -0.004317
   vertex -0.002531 0.169111 -0.004083
  endloop
 endfacet
 facet normal -0.516783 -0.183167 -0.836293
  outer loop
   vertex 0.000523 0.1715 -0.007567
   vertex 0.002162 0.168871 -0.008004
   vertex -0.000602 0.168871 -0.006296
  endloop
 endfacet
 facet normal -0.491058 -0.356895 -0.794662
  outer loop
   vertex 0.002162 0.168871 -0.008004
   vertex 0.001308 0.166243 -0.006296
   vertex -0.000602 0.168871 -0.006296
  endloop
 endfacet
 facet normal -0.598657 -0.435097 -0.672533
  outer loop
   vertex -0.000602 0.168871 -0.006296
   vertex 0.001308 0.166243 -0.006296
   vertex -0.001102 0.1665 -0.004317
  endloop
 endfacet
 facet normal -0.551379 -0.584158 -0.595601
  outer loop
   vertex 0.001308 0.166243 -0.006296
   vertex 0.00094 0.164334 -0.004083
   vertex -0.001102 0.1665 -0.004317
  endloop
 endfacet
 facet normal -0.233325 -0.169451 -0.957521
  outer loop
   vertex 0.003269 0.1715 -0.008739
   vertex 0.005004 0.169111 -0.008739
   vertex 0.002162 0.168871 -0.008004
  endloop
 endfacet
 facet normal -0.207851 -0.343516 -0.915858
  outer loop
   vertex 0.005004 0.169111 -0.008739
   vertex 0.004155 0.1665 -0.007567
   vertex 0.002162 0.168871 -0.008004
  endloop
 endfacet
 facet normal -0.334054 -0.43492 -0.836213
  outer loop
   vertex 0.002162 0.168871 -0.008004
   vertex 0.004155 0.1665 -0.007567
   vertex 0.001308 0.166243 -0.006296
  endloop
 endfacet
 facet normal -0.286233 -0.584386 -0.759318
  outer loop
   vertex 0.004155 0.1665 -0.007567
   vertex 0.003452 0.164334 -0.005635
   vertex 0.001308 0.166243 -0.006296
  endloop
 endfacet
 facet normal -0.393627 -0.662685 -0.637108
  outer loop
   vertex 0.001308 0.166243 -0.006296
   vertex 0.003452 0.164334 -0.005635
   vertex 0.00094 0.164334 -0.004083
  endloop
 endfacet
 facet normal -0.342493 -0.758552 -0.554344
  outer loop
   vertex 0.003452 0.164334 -0.005635
   vertex 0.003016 0.162994 -0.003532
   vertex 0.00094 0.164334 -0.004083
  endloop
 endfacet
 facet normal 0.723015 0.412034 -0.554506
  outer loop
   vertex 0.013907 0.174452 -0.004083
   vertex 0.011875 0.175929 -0.005635
   vertex 0.013016 0.176757 -0.003532
  endloop
 endfacet
 facet normal 0.789589 0.148568 -0.59538
  outer loop
   vertex 0.014286 0.1715 -0.004317
   vertex 0.012488 0.173125 -0.006296
   vertex 0.013907 0.174452 -0.004083
  endloop
 endfacet
 facet normal 0.789589 -0.148568 -0.59538
  outer loop
   vertex 0.013907 0.168548 -0.004083
   vertex 0.012488 0.169875 -0.006296
   vertex 0.014286 0.1715 -0.004317
  endloop
 endfacet
 facet normal 0.708089 0.304936 -0.636886
  outer loop
   vertex 0.013907 0.174452 -0.004083
   vertex 0.012488 0.173125 -0.006296
   vertex 0.011875 0.175929 -0.005635
  endloop
 endfacet
 facet normal 0.574948 0.304695 -0.759339
  outer loop
   vertex 0.012488 0.173125 -0.006296
   vertex 0.010033 0.17459 -0.007567
   vertex 0.011875 0.175929 -0.005635
  endloop
 endfacet
 facet normal 0.740143 0 -0.672449
  outer loop
   vertex 0.014286 0.1715 -0.004317
   vertex 0.012488 0.169875 -0.006296
   vertex 0.012488 0.173125 -0.006296
  endloop
 endfacet
 facet normal 0.607028 0 -0.794681
  outer loop
   vertex 0.012488 0.169875 -0.006296
   vertex 0.010252 0.1715 -0.008004
   vertex 0.012488 0.173125 -0.006296
  endloop
 endfacet
 facet normal 0.525774 0.155534 -0.836284
  outer loop
   vertex 0.012488 0.173125 -0.006296
   vertex 0.010252 0.1715 -0.008004
   vertex 0.010033 0.17459 -0.007567
  endloop
 endfacet
 facet normal 0.370096 0.155752 -0.915844
  outer loop
   vertex 0.010252 0.1715 -0.008004
   vertex 0.007812 0.172976 -0.008739
   vertex 0.010033 0.17459 -0.007567
  endloop
 endfacet
 facet normal 0.708089 -0.304936 -0.636886
  outer loop
   vertex 0.013907 0.168548 -0.004083
   vertex 0.011875 0.167071 -0.005635
   vertex 0.012488 0.169875 -0.006296
  endloop
 endfacet
 facet normal 0.574948 -0.304695 -0.759339
  outer loop
   vertex 0.011875 0.167071 -0.005635
   vertex 0.010033 0.16841 -0.007567
   vertex 0.012488 0.169875 -0.006296
  endloop
 endfacet
 facet normal 0.525774 -0.155534 -0.836284
  outer loop
   vertex 0.012488 0.169875 -0.006296
   vertex 0.010033 0.16841 -0.007567
   vertex 0.010252 0.1715 -0.008004
  endloop
 endfacet
 facet normal 0.370096 -0.155752 -0.915844
  outer loop
   vertex 0.010033 0.16841 -0.007567
   vertex 0.007812 0.170024 -0.008739
   vertex 0.010252 0.1715 -0.008004
  endloop
 endfacet
 facet normal 0.288428 0 -0.957502
  outer loop
   vertex 0.010252 0.1715 -0.008004
   vertex 0.007812 0.170024 -0.008739
   vertex 0.007812 0.172976 -0.008739
  endloop
 endfacet
 facet normal 0.156037 0 -0.987751
  outer loop
   vertex 0.007812 0.170024 -0.008739
   vertex 0.00578 0.1715 -0.00906
   vertex 0.007812 0.172976 -0.008739
  endloop
 endfacet
 facet normal -0.168666 -0.815046 -0.554303
  outer loop
   vertex 0.003452 0.164334 -0.005635
   vertex 0.005484 0.162858 -0.004083
   vertex 0.003016 0.162994 -0.003532
  endloop
 endfacet
 facet normal -0.112009 -0.640965 -0.759354
  outer loop
   vertex 0.004155 0.1665 -0.007567
   vertex 0.006308 0.164618 -0.006296
   vertex 0.003452 0.164334 -0.005635
  endloop
 endfacet
 facet normal -0.0336945 -0.400135 -0.915836
  outer loop
   vertex 0.005004 0.169111 -0.008739
   vertex 0.007162 0.167247 -0.008004
   vertex 0.004155 0.1665 -0.007567
  endloop
 endfacet
 facet normal -0.0710868 -0.767617 -0.636955
  outer loop
   vertex 0.003452 0.164334 -0.005635
   vertex 0.006308 0.164618 -0.006296
   vertex 0.005484 0.162858 -0.004083
  endloop
 endfacet
 facet normal 0.102735 -0.796801 -0.595444
  outer loop
   vertex 0.006308 0.164618 -0.006296
   vertex 0.008409 0.16341 -0.004317
   vertex 0.005484 0.162858 -0.004083
  endloop
 endfacet
 facet normal 0.0146149 -0.548074 -0.836302
  outer loop
   vertex 0.004155 0.1665 -0.007567
   vertex 0.007162 0.167247 -0.008004
   vertex 0.006308 0.164618 -0.006296
  endloop
 endfacet
 facet normal 0.187559 -0.577248 -0.794737
  outer loop
   vertex 0.007162 0.167247 -0.008004
   vertex 0.009398 0.165622 -0.006296
   vertex 0.006308 0.164618 -0.006296
  endloop
 endfacet
 facet normal 0.228709 -0.703897 -0.672474
  outer loop
   vertex 0.006308 0.164618 -0.006296
   vertex 0.009398 0.165622 -0.006296
   vertex 0.008409 0.16341 -0.004317
  endloop
 endfacet
 facet normal 0.38541 -0.704977 -0.595371
  outer loop
   vertex 0.009398 0.165622 -0.006296
   vertex 0.011099 0.164683 -0.004083
   vertex 0.008409 0.16341 -0.004317
  endloop
 endfacet
 facet normal 0.0891868 -0.274301 -0.957499
  outer loop
   vertex 0.005004 0.169111 -0.008739
   vertex 0.007812 0.170024 -0.008739
   vertex 0.007162 0.167247 -0.008004
  endloop
 endfacet
 facet normal 0.262485 -0.303841 -0.915851
  outer loop
   vertex 0.007812 0.170024 -0.008739
   vertex 0.010033 0.16841 -0.007567
   vertex 0.007162 0.167247 -0.008004
  endloop
 endfacet
 facet normal 0.310374 -0.451949 -0.836307
  outer loop
   vertex 0.007162 0.167247 -0.008004
   vertex 0.010033 0.16841 -0.007567
   vertex 0.009398 0.165622 -0.006296
  endloop
 endfacet
 facet normal 0.467426 -0.452641 -0.759361
  outer loop
   vertex 0.010033 0.16841 -0.007567
   vertex 0.011875 0.167071 -0.005635
   vertex 0.009398 0.165622 -0.006296
  endloop
 endfacet
 facet normal 0.508799 -0.579247 -0.636864
  outer loop
   vertex 0.009398 0.165622 -0.006296
   vertex 0.011875 0.167071 -0.005635
   vertex 0.011099 0.164683 -0.004083
  endloop
 endfacet
 facet normal 0.61533 -0.560308 -0.554459
  outer loop
   vertex 0.011875 0.167071 -0.005635
   vertex 0.013016 0.166243 -0.003532
   vertex 0.011099 0.164683 -0.004083
  endloop
 endfacet
endsolid ExportedfromBlender-3.5.1
