solid ExportedfromBlender-3.5.1
 facet normal 0.0482486 -0.148392 -0.987751
  outer loop
   vertex 0.01905 0.34697 0.01575
   vertex 0.021082 0.345494 0.016071
   vertex 0.018274 0.344581 0.016071
  endloop
 endfacet
 facet normal 0.723015 -0.412034 -0.554506
  outer loop
   vertex 0.026286 0.341713 0.021278
   vertex 0.025145 0.342541 0.019175
   vertex 0.027177 0.344018 0.020727
  endloop
 endfacet
 facet normal -0.126271 -0.0917039 -0.987748
  outer loop
   vertex 0.01905 0.34697 0.01575
   vertex 0.018274 0.344581 0.016071
   vertex 0.016539 0.34697 0.016071
  endloop
 endfacet
 facet normal -0.126271 0.0917039 -0.987748
  outer loop
   vertex 0.01905 0.34697 0.01575
   vertex 0.016539 0.34697 0.016071
   vertex 0.018274 0.349359 0.016071
  endloop
 endfacet
 facet normal 0.0482486 0.148392 -0.987751
  outer loop
   vertex 0.01905 0.34697 0.01575
   vertex 0.018274 0.349359 0.016071
   vertex 0.021082 0.348446 0.016071
  endloop
 endfacet
 facet normal 0.819189 -0.412026 -0.398954
  outer loop
   vertex 0.026286 0.341713 0.021278
   vertex 0.027177 0.344018 0.020727
   vertex 0.027657 0.342541 0.023238
  endloop
 endfacet
 facet normal -0.138975 -0.90647 -0.398746
  outer loop
   vertex 0.016286 0.338464 0.021278
   vertex 0.018754 0.338328 0.020727
   vertex 0.017498 0.337416 0.023238
  endloop
 endfacet
 facet normal -0.905177 -0.147939 -0.398459
  outer loop
   vertex 0.010106 0.34697 0.021278
   vertex 0.010739 0.344581 0.020727
   vertex 0.009484 0.345494 0.023239
  endloop
 endfacet
 facet normal -0.420269 0.815078 -0.398776
  outer loop
   vertex 0.016286 0.355476 0.021278
   vertex 0.01421 0.354136 0.020727
   vertex 0.01469 0.355612 0.023238
  endloop
 endfacet
 facet normal 0.645038 0.651744 -0.398942
  outer loop
   vertex 0.026286 0.352227 0.021278
   vertex 0.024369 0.353787 0.020727
   vertex 0.025922 0.353787 0.023238
  endloop
 endfacet
 facet normal 0.771063 -0.560215 -0.302688
  outer loop
   vertex 0.026286 0.341713 0.021278
   vertex 0.027657 0.342541 0.023238
   vertex 0.025922 0.340153 0.023238
  endloop
 endfacet
 facet normal -0.294416 -0.906493 -0.302638
  outer loop
   vertex 0.016286 0.338464 0.021278
   vertex 0.017498 0.337416 0.023238
   vertex 0.01469 0.338328 0.023238
  endloop
 endfacet
 facet normal -0.9532 0 -0.302341
  outer loop
   vertex 0.010106 0.34697 0.021278
   vertex 0.009484 0.345494 0.023239
   vertex 0.009484 0.348446 0.023239
  endloop
 endfacet
 facet normal -0.294416 0.906493 -0.302638
  outer loop
   vertex 0.016286 0.355476 0.021278
   vertex 0.01469 0.355612 0.023238
   vertex 0.017498 0.356524 0.023238
  endloop
 endfacet
 facet normal 0.771063 0.560215 -0.302688
  outer loop
   vertex 0.026286 0.352227 0.021278
   vertex 0.025922 0.353787 0.023238
   vertex 0.027657 0.351399 0.023238
  endloop
 endfacet
 facet normal 0.342493 -0.758552 0.554344
  outer loop
   vertex 0.021814 0.338464 0.030222
   vertex 0.02389 0.339804 0.030773
   vertex 0.021378 0.339804 0.032325
  endloop
 endfacet
 facet normal -0.61533 -0.560308 0.554459
  outer loop
   vertex 0.011814 0.341713 0.030222
   vertex 0.013731 0.340153 0.030773
   vertex 0.012955 0.342541 0.032325
  endloop
 endfacet
 facet normal -0.723015 0.412034 0.554506
  outer loop
   vertex 0.011814 0.352227 0.030222
   vertex 0.010923 0.349922 0.030773
   vertex 0.012955 0.351399 0.032325
  endloop
 endfacet
 facet normal 0.168666 0.815046 0.554303
  outer loop
   vertex 0.021814 0.355476 0.030222
   vertex 0.019346 0.355612 0.030773
   vertex 0.021378 0.354136 0.032325
  endloop
 endfacet
 facet normal 0.827124 0.091254 0.554562
  outer loop
   vertex 0.027994 0.34697 0.030222
   vertex 0.027361 0.349359 0.030773
   vertex 0.026584 0.34697 0.032325
  endloop
 endfacet
 facet normal 0.126271 0.0917039 0.987748
  outer loop
   vertex 0.021561 0.34697 0.035429
   vertex 0.019826 0.349359 0.035429
   vertex 0.01905 0.34697 0.03575
  endloop
 endfacet
 facet normal 0.390899 0.0914587 0.915878
  outer loop
   vertex 0.024307 0.34697 0.034257
   vertex 0.022668 0.349599 0.034694
   vertex 0.021561 0.34697 0.035429
  endloop
 endfacet
 facet normal 0.644269 0.0913996 0.759317
  outer loop
   vertex 0.026584 0.34697 0.032325
   vertex 0.025432 0.349599 0.032986
   vertex 0.024307 0.34697 0.034257
  endloop
 endfacet
 facet normal 0.233325 0.169451 0.957521
  outer loop
   vertex 0.021561 0.34697 0.035429
   vertex 0.022668 0.349599 0.034694
   vertex 0.019826 0.349359 0.035429
  endloop
 endfacet
 facet normal 0.207851 0.343516 0.915858
  outer loop
   vertex 0.022668 0.349599 0.034694
   vertex 0.020675 0.35197 0.034257
   vertex 0.019826 0.349359 0.035429
  endloop
 endfacet
 facet normal 0.516783 0.183167 0.836293
  outer loop
   vertex 0.024307 0.34697 0.034257
   vertex 0.025432 0.349599 0.032986
   vertex 0.022668 0.349599 0.034694
  endloop
 endfacet
 facet normal 0.491058 0.356895 0.794662
  outer loop
   vertex 0.025432 0.349599 0.032986
   vertex 0.023522 0.352227 0.032986
   vertex 0.022668 0.349599 0.034694
  endloop
 endfacet
 facet normal 0.334054 0.43492 0.836213
  outer loop
   vertex 0.022668 0.349599 0.034694
   vertex 0.023522 0.352227 0.032986
   vertex 0.020675 0.35197 0.034257
  endloop
 endfacet
 facet normal 0.286233 0.584386 0.759318
  outer loop
   vertex 0.023522 0.352227 0.032986
   vertex 0.021378 0.354136 0.032325
   vertex 0.020675 0.35197 0.034257
  endloop
 endfacet
 facet normal 0.751958 0.169318 0.637095
  outer loop
   vertex 0.026584 0.34697 0.032325
   vertex 0.027361 0.349359 0.030773
   vertex 0.025432 0.349599 0.032986
  endloop
 endfacet
 facet normal 0.725985 0.343961 0.595514
  outer loop
   vertex 0.027361 0.349359 0.030773
   vertex 0.025932 0.35197 0.031007
   vertex 0.025432 0.349599 0.032986
  endloop
 endfacet
 facet normal 0.598657 0.435097 0.672533
  outer loop
   vertex 0.025432 0.349599 0.032986
   vertex 0.025932 0.35197 0.031007
   vertex 0.023522 0.352227 0.032986
  endloop
 endfacet
 facet normal 0.551379 0.584158 0.595601
  outer loop
   vertex 0.025932 0.35197 0.031007
   vertex 0.02389 0.354136 0.030773
   vertex 0.023522 0.352227 0.032986
  endloop
 endfacet
 facet normal 0.393627 0.662685 0.637108
  outer loop
   vertex 0.023522 0.352227 0.032986
   vertex 0.02389 0.354136 0.030773
   vertex 0.021378 0.354136 0.032325
  endloop
 endfacet
 facet normal 0.342493 0.758552 0.554344
  outer loop
   vertex 0.02389 0.354136 0.030773
   vertex 0.021814 0.355476 0.030222
   vertex 0.021378 0.354136 0.032325
  endloop
 endfacet
 facet normal -0.0482486 0.148392 0.987751
  outer loop
   vertex 0.019826 0.349359 0.035429
   vertex 0.017018 0.348446 0.035429
   vertex 0.01905 0.34697 0.03575
  endloop
 endfacet
 facet normal 0.0336945 0.400135 0.915836
  outer loop
   vertex 0.020675 0.35197 0.034257
   vertex 0.017668 0.351223 0.034694
   vertex 0.019826 0.349359 0.035429
  endloop
 endfacet
 facet normal 0.112009 0.640965 0.759354
  outer loop
   vertex 0.021378 0.354136 0.032325
   vertex 0.018522 0.353852 0.032986
   vertex 0.020675 0.35197 0.034257
  endloop
 endfacet
 facet normal -0.0891868 0.274301 0.957499
  outer loop
   vertex 0.019826 0.349359 0.035429
   vertex 0.017668 0.351223 0.034694
   vertex 0.017018 0.348446 0.035429
  endloop
 endfacet
 facet normal -0.262485 0.303841 0.915851
  outer loop
   vertex 0.017668 0.351223 0.034694
   vertex 0.014797 0.35006 0.034257
   vertex 0.017018 0.348446 0.035429
  endloop
 endfacet
 facet normal -0.0146149 0.548074 0.836302
  outer loop
   vertex 0.020675 0.35197 0.034257
   vertex 0.018522 0.353852 0.032986
   vertex 0.017668 0.351223 0.034694
  endloop
 endfacet
 facet normal -0.187559 0.577248 0.794737
  outer loop
   vertex 0.018522 0.353852 0.032986
   vertex 0.015432 0.352848 0.032986
   vertex 0.017668 0.351223 0.034694
  endloop
 endfacet
 facet normal -0.310374 0.451949 0.836307
  outer loop
   vertex 0.017668 0.351223 0.034694
   vertex 0.015432 0.352848 0.032986
   vertex 0.014797 0.35006 0.034257
  endloop
 endfacet
 facet normal -0.467426 0.452641 0.759361
  outer loop
   vertex 0.015432 0.352848 0.032986
   vertex 0.012955 0.351399 0.032325
   vertex 0.014797 0.35006 0.034257
  endloop
 endfacet
 facet normal 0.0710868 0.767617 0.636955
  outer loop
   vertex 0.021378 0.354136 0.032325
   vertex 0.019346 0.355612 0.030773
   vertex 0.018522 0.353852 0.032986
  endloop
 endfacet
 facet normal -0.102735 0.796801 0.595444
  outer loop
   vertex 0.019346 0.355612 0.030773
   vertex 0.016421 0.35506 0.031007
   vertex 0.018522 0.353852 0.032986
  endloop
 endfacet
 facet normal -0.228709 0.703897 0.672474
  outer loop
   vertex 0.018522 0.353852 0.032986
   vertex 0.016421 0.35506 0.031007
   vertex 0.015432 0.352848 0.032986
  endloop
 endfacet
 facet normal -0.38541 0.704977 0.595371
  outer loop
   vertex 0.016421 0.35506 0.031007
   vertex 0.013731 0.353787 0.030773
   vertex 0.015432 0.352848 0.032986
  endloop
 endfacet
 facet normal -0.508799 0.579247 0.636864
  outer loop
   vertex 0.015432 0.352848 0.032986
   vertex 0.013731 0.353787 0.030773
   vertex 0.012955 0.351399 0.032325
  endloop
 endfacet
 facet normal -0.61533 0.560308 0.554459
  outer loop
   vertex 0.013731 0.353787 0.030773
   vertex 0.011814 0.352227 0.030222
   vertex 0.012955 0.351399 0.032325
  endloop
 endfacet
 facet normal -0.156037 0 0.987751
  outer loop
   vertex 0.017018 0.348446 0.035429
   vertex 0.017018 0.345494 0.035429
   vertex 0.01905 0.34697 0.03575
  endloop
 endfacet
 facet normal -0.370096 0.155752 0.915844
  outer loop
   vertex 0.014797 0.35006 0.034257
   vertex 0.014578 0.34697 0.034694
   vertex 0.017018 0.348446 0.035429
  endloop
 endfacet
 facet normal -0.574948 0.304695 0.759339
  outer loop
   vertex 0.012955 0.351399 0.032325
   vertex 0.012342 0.348595 0.032986
   vertex 0.014797 0.35006 0.034257
  endloop
 endfacet
 facet normal -0.288428 0 0.957502
  outer loop
   vertex 0.017018 0.348446 0.035429
   vertex 0.014578 0.34697 0.034694
   vertex 0.017018 0.345494 0.035429
  endloop
 endfacet
 facet normal -0.370096 -0.155752 0.915844
  outer loop
   vertex 0.014578 0.34697 0.034694
   vertex 0.014797 0.34388 0.034257
   vertex 0.017018 0.345494 0.035429
  endloop
 endfacet
 facet normal -0.525774 0.155534 0.836284
  outer loop
   vertex 0.014797 0.35006 0.034257
   vertex 0.012342 0.348595 0.032986
   vertex 0.014578 0.34697 0.034694
  endloop
 endfacet
 facet normal -0.607028 0 0.794681
  outer loop
   vertex 0.012342 0.348595 0.032986
   vertex 0.012342 0.345345 0.032986
   vertex 0.014578 0.34697 0.034694
  endloop
 endfacet
 facet normal -0.525774 -0.155534 0.836284
  outer loop
   vertex 0.014578 0.34697 0.034694
   vertex 0.012342 0.345345 0.032986
   vertex 0.014797 0.34388 0.034257
  endloop
 endfacet
 facet normal -0.574948 -0.304695 0.759339
  outer loop
   vertex 0.012342 0.345345 0.032986
   vertex 0.012955 0.342541 0.032325
   vertex 0.014797 0.34388 0.034257
  endloop
 endfacet
 facet normal -0.708089 0.304936 0.636886
  outer loop
   vertex 0.012955 0.351399 0.032325
   vertex 0.010923 0.349922 0.030773
   vertex 0.012342 0.348595 0.032986
  endloop
 endfacet
 facet normal -0.789589 0.148568 0.59538
  outer loop
   vertex 0.010923 0.349922 0.030773
   vertex 0.010544 0.34697 0.031007
   vertex 0.012342 0.348595 0.032986
  endloop
 endfacet
 facet normal -0.740143 0 0.672449
  outer loop
   vertex 0.012342 0.348595 0.032986
   vertex 0.010544 0.34697 0.031007
   vertex 0.012342 0.345345 0.032986
  endloop
 endfacet
 facet normal -0.789589 -0.148568 0.59538
  outer loop
   vertex 0.010544 0.34697 0.031007
   vertex 0.010923 0.344018 0.030773
   vertex 0.012342 0.345345 0.032986
  endloop
 endfacet
 facet normal -0.708089 -0.304936 0.636886
  outer loop
   vertex 0.012342 0.345345 0.032986
   vertex 0.010923 0.344018 0.030773
   vertex 0.012955 0.342541 0.032325
  endloop
 endfacet
 facet normal -0.723015 -0.412034 0.554506
  outer loop
   vertex 0.010923 0.344018 0.030773
   vertex 0.011814 0.341713 0.030222
   vertex 0.012955 0.342541 0.032325
  endloop
 endfacet
 facet normal -0.0482486 -0.148392 0.987751
  outer loop
   vertex 0.017018 0.345494 0.035429
   vertex 0.019826 0.344581 0.035429
   vertex 0.01905 0.34697 0.03575
  endloop
 endfacet
 facet normal -0.262485 -0.303841 0.915851
  outer loop
   vertex 0.014797 0.34388 0.034257
   vertex 0.017668 0.342717 0.034694
   vertex 0.017018 0.345494 0.035429
  endloop
 endfacet
 facet normal -0.467426 -0.452641 0.759361
  outer loop
   vertex 0.012955 0.342541 0.032325
   vertex 0.015432 0.341092 0.032986
   vertex 0.014797 0.34388 0.034257
  endloop
 endfacet
 facet normal -0.0891868 -0.274301 0.957499
  outer loop
   vertex 0.017018 0.345494 0.035429
   vertex 0.017668 0.342717 0.034694
   vertex 0.019826 0.344581 0.035429
  endloop
 endfacet
 facet normal 0.0336945 -0.400135 0.915836
  outer loop
   vertex 0.017668 0.342717 0.034694
   vertex 0.020675 0.34197 0.034257
   vertex 0.019826 0.344581 0.035429
  endloop
 endfacet
 facet normal -0.310374 -0.451949 0.836307
  outer loop
   vertex 0.014797 0.34388 0.034257
   vertex 0.015432 0.341092 0.032986
   vertex 0.017668 0.342717 0.034694
  endloop
 endfacet
 facet normal -0.187559 -0.577248 0.794737
  outer loop
   vertex 0.015432 0.341092 0.032986
   vertex 0.018522 0.340088 0.032986
   vertex 0.017668 0.342717 0.034694
  endloop
 endfacet
 facet normal -0.0146149 -0.548074 0.836302
  outer loop
   vertex 0.017668 0.342717 0.034694
   vertex 0.018522 0.340088 0.032986
   vertex 0.020675 0.34197 0.034257
  endloop
 endfacet
 facet normal 0.112009 -0.640965 0.759354
  outer loop
   vertex 0.018522 0.340088 0.032986
   vertex 0.021378 0.339804 0.032325
   vertex 0.020675 0.34197 0.034257
  endloop
 endfacet
 facet normal -0.508799 -0.579247 0.636864
  outer loop
   vertex 0.012955 0.342541 0.032325
   vertex 0.013731 0.340153 0.030773
   vertex 0.015432 0.341092 0.032986
  endloop
 endfacet
 facet normal -0.38541 -0.704977 0.595371
  outer loop
   vertex 0.013731 0.340153 0.030773
   vertex 0.016421 0.33888 0.031007
   vertex 0.015432 0.341092 0.032986
  endloop
 endfacet
 facet normal -0.228709 -0.703897 0.672474
  outer loop
   vertex 0.015432 0.341092 0.032986
   vertex 0.016421 0.33888 0.031007
   vertex 0.018522 0.340088 0.032986
  endloop
 endfacet
 facet normal -0.102735 -0.796801 0.595444
  outer loop
   vertex 0.016421 0.33888 0.031007
   vertex 0.019346 0.338328 0.030773
   vertex 0.018522 0.340088 0.032986
  endloop
 endfacet
 facet normal 0.0710868 -0.767617 0.636955
  outer loop
   vertex 0.018522 0.340088 0.032986
   vertex 0.019346 0.338328 0.030773
   vertex 0.021378 0.339804 0.032325
  endloop
 endfacet
 facet normal 0.168666 -0.815046 0.554303
  outer loop
   vertex 0.019346 0.338328 0.030773
   vertex 0.021814 0.338464 0.030222
   vertex 0.021378 0.339804 0.032325
  endloop
 endfacet
 facet normal 0.126271 -0.0917039 0.987748
  outer loop
   vertex 0.019826 0.344581 0.035429
   vertex 0.021561 0.34697 0.035429
   vertex 0.01905 0.34697 0.03575
  endloop
 endfacet
 facet normal 0.207851 -0.343516 0.915858
  outer loop
   vertex 0.020675 0.34197 0.034257
   vertex 0.022668 0.344341 0.034694
   vertex 0.019826 0.344581 0.035429
  endloop
 endfacet
 facet normal 0.286233 -0.584386 0.759318
  outer loop
   vertex 0.021378 0.339804 0.032325
   vertex 0.023522 0.341713 0.032986
   vertex 0.020675 0.34197 0.034257
  endloop
 endfacet
 facet normal 0.233325 -0.169451 0.957521
  outer loop
   vertex 0.019826 0.344581 0.035429
   vertex 0.022668 0.344341 0.034694
   vertex 0.021561 0.34697 0.035429
  endloop
 endfacet
 facet normal 0.390899 -0.0914587 0.915878
  outer loop
   vertex 0.022668 0.344341 0.034694
   vertex 0.024307 0.34697 0.034257
   vertex 0.021561 0.34697 0.035429
  endloop
 endfacet
 facet normal 0.334054 -0.43492 0.836213
  outer loop
   vertex 0.020675 0.34197 0.034257
   vertex 0.023522 0.341713 0.032986
   vertex 0.022668 0.344341 0.034694
  endloop
 endfacet
 facet normal 0.491058 -0.356895 0.794662
  outer loop
   vertex 0.023522 0.341713 0.032986
   vertex 0.025432 0.344341 0.032986
   vertex 0.022668 0.344341 0.034694
  endloop
 endfacet
 facet normal 0.516783 -0.183167 0.836293
  outer loop
   vertex 0.022668 0.344341 0.034694
   vertex 0.025432 0.344341 0.032986
   vertex 0.024307 0.34697 0.034257
  endloop
 endfacet
 facet normal 0.644269 -0.0913996 0.759317
  outer loop
   vertex 0.025432 0.344341 0.032986
   vertex 0.026584 0.34697 0.032325
   vertex 0.024307 0.34697 0.034257
  endloop
 endfacet
 facet normal 0.393627 -0.662685 0.637108
  outer loop
   vertex 0.021378 0.339804 0.032325
   vertex 0.02389 0.339804 0.030773
   vertex 0.023522 0.341713 0.032986
  endloop
 endfacet
 facet normal 0.551379 -0.584158 0.595601
  outer loop
   vertex 0.02389 0.339804 0.030773
   vertex 0.025932 0.34197 0.031007
   vertex 0.023522 0.341713 0.032986
  endloop
 endfacet
 facet normal 0.598657 -0.435097 0.672533
  outer loop
   vertex 0.023522 0.341713 0.032986
   vertex 0.025932 0.34197 0.031007
   vertex 0.025432 0.344341 0.032986
  endloop
 endfacet
 facet normal 0.725985 -0.343961 0.595514
  outer loop
   vertex 0.025932 0.34197 0.031007
   vertex 0.027361 0.344581 0.030773
   vertex 0.025432 0.344341 0.032986
  endloop
 endfacet
 facet normal 0.751958 -0.169318 0.637095
  outer loop
   vertex 0.025432 0.344341 0.032986
   vertex 0.027361 0.344581 0.030773
   vertex 0.026584 0.34697 0.032325
  endloop
 endfacet
 facet normal 0.827124 -0.091254 0.554562
  outer loop
   vertex 0.027361 0.344581 0.030773
   vertex 0.027994 0.34697 0.030222
   vertex 0.026584 0.34697 0.032325
  endloop
 endfacet
 facet normal 0.905177 0.147939 0.398459
  outer loop
   vertex 0.028616 0.348446 0.028261
   vertex 0.027361 0.349359 0.030773
   vertex 0.027994 0.34697 0.030222
  endloop
 endfacet
 facet normal 0.93657 0.303801 0.17476
  outer loop
   vertex 0.028561 0.35006 0.02575
   vertex 0.027668 0.351223 0.028514
   vertex 0.028616 0.348446 0.028261
  endloop
 endfacet
 facet normal 0.888212 0.452708 -0.078331
  outer loop
   vertex 0.027657 0.351399 0.023238
   vertex 0.02714 0.352848 0.02575
   vertex 0.028561 0.35006 0.02575
  endloop
 endfacet
 facet normal 0.89641 0.274294 0.348155
  outer loop
   vertex 0.028616 0.348446 0.028261
   vertex 0.027668 0.351223 0.028514
   vertex 0.027361 0.349359 0.030773
  endloop
 endfacet
 facet normal 0.803858 0.400541 0.439749
  outer loop
   vertex 0.027668 0.351223 0.028514
   vertex 0.025932 0.35197 0.031007
   vertex 0.027361 0.349359 0.030773
  endloop
 endfacet
 facet normal 0.886806 0.451991 0.0963284
  outer loop
   vertex 0.028561 0.35006 0.02575
   vertex 0.02714 0.352848 0.02575
   vertex 0.027668 0.351223 0.028514
  endloop
 endfacet
 facet normal 0.794662 0.577331 0.18762
  outer loop
   vertex 0.02714 0.352848 0.02575
   vertex 0.025758 0.353852 0.028514
   vertex 0.027668 0.351223 0.028514
  endloop
 endfacet
 facet normal 0.754436 0.548107 0.361117
  outer loop
   vertex 0.027668 0.351223 0.028514
   vertex 0.025758 0.353852 0.028514
   vertex 0.025932 0.35197 0.031007
  endloop
 endfacet
 facet normal 0.629279 0.640767 0.439803
  outer loop
   vertex 0.025758 0.353852 0.028514
   vertex 0.02389 0.354136 0.030773
   vertex 0.025932 0.35197 0.031007
  endloop
 endfacet
 facet normal 0.797233 0.579229 -0.170037
  outer loop
   vertex 0.027657 0.351399 0.023238
   vertex 0.025922 0.353787 0.023238
   vertex 0.02714 0.352848 0.02575
  endloop
 endfacet
 facet normal 0.704936 0.704936 -0.0782949
  outer loop
   vertex 0.025922 0.353787 0.023238
   vertex 0.024928 0.35506 0.02575
   vertex 0.02714 0.352848 0.02575
  endloop
 endfacet
 facet normal 0.703824 0.703824 0.0962537
  outer loop
   vertex 0.02714 0.352848 0.02575
   vertex 0.024928 0.35506 0.02575
   vertex 0.025758 0.353852 0.028514
  endloop
 endfacet
 facet normal 0.578519 0.796783 0.174509
  outer loop
   vertex 0.024928 0.35506 0.02575
   vertex 0.02341 0.355612 0.028262
   vertex 0.025758 0.353852 0.028514
  endloop
 endfacet
 facet normal 0.537986 0.767602 0.348366
  outer loop
   vertex 0.025758 0.353852 0.028514
   vertex 0.02341 0.355612 0.028262
   vertex 0.02389 0.354136 0.030773
  endloop
 endfacet
 facet normal 0.420269 0.815078 0.398776
  outer loop
   vertex 0.02341 0.355612 0.028262
   vertex 0.021814 0.355476 0.030222
   vertex 0.02389 0.354136 0.030773
  endloop
 endfacet
 facet normal 0.138975 0.90647 0.398746
  outer loop
   vertex 0.020602 0.356524 0.028262
   vertex 0.019346 0.355612 0.030773
   vertex 0.021814 0.355476 0.030222
  endloop
 endfacet
 facet normal 0.000555151 0.98466 0.174481
  outer loop
   vertex 0.01905 0.35697 0.02575
   vertex 0.017668 0.356481 0.028514
   vertex 0.020602 0.356524 0.028262
  endloop
 endfacet
 facet normal -0.155824 0.984657 -0.07855
  outer loop
   vertex 0.017498 0.356524 0.023238
   vertex 0.01596 0.356481 0.02575
   vertex 0.01905 0.35697 0.02575
  endloop
 endfacet
 facet normal 0.0161962 0.937175 0.348485
  outer loop
   vertex 0.020602 0.356524 0.028262
   vertex 0.017668 0.356481 0.028514
   vertex 0.019346 0.355612 0.030773
  endloop
 endfacet
 facet normal -0.132412 0.888171 0.440021
  outer loop
   vertex 0.017668 0.356481 0.028514
   vertex 0.016421 0.35506 0.031007
   vertex 0.019346 0.355612 0.030773
  endloop
 endfacet
 facet normal -0.155583 0.983133 0.0961419
  outer loop
   vertex 0.01905 0.35697 0.02575
   vertex 0.01596 0.356481 0.02575
   vertex 0.017668 0.356481 0.028514
  endloop
 endfacet
 facet normal -0.303796 0.934059 0.187729
  outer loop
   vertex 0.01596 0.356481 0.02575
   vertex 0.014578 0.355476 0.028514
   vertex 0.017668 0.356481 0.028514
  endloop
 endfacet
 facet normal -0.288415 0.886769 0.361189
  outer loop
   vertex 0.017668 0.356481 0.028514
   vertex 0.014578 0.355476 0.028514
   vertex 0.016421 0.35506 0.031007
  endloop
 endfacet
 facet normal -0.415138 0.796394 0.439791
  outer loop
   vertex 0.014578 0.355476 0.028514
   vertex 0.013731 0.353787 0.030773
   vertex 0.016421 0.35506 0.031007
  endloop
 endfacet
 facet normal -0.304389 0.937197 -0.170322
  outer loop
   vertex 0.017498 0.356524 0.023238
   vertex 0.01469 0.355612 0.023238
   vertex 0.01596 0.356481 0.02575
  endloop
 endfacet
 facet normal -0.452705 0.888208 -0.0783901
  outer loop
   vertex 0.01469 0.355612 0.023238
   vertex 0.013172 0.35506 0.02575
   vertex 0.01596 0.356481 0.02575
  endloop
 endfacet
 facet normal -0.451986 0.886796 0.0964489
  outer loop
   vertex 0.01596 0.356481 0.02575
   vertex 0.013172 0.35506 0.02575
   vertex 0.014578 0.355476 0.028514
  endloop
 endfacet
 facet normal -0.578874 0.796508 0.174584
  outer loop
   vertex 0.013172 0.35506 0.02575
   vertex 0.012178 0.353787 0.028262
   vertex 0.014578 0.355476 0.028514
  endloop
 endfacet
 facet normal -0.563623 0.748876 0.348589
  outer loop
   vertex 0.014578 0.355476 0.028514
   vertex 0.012178 0.353787 0.028262
   vertex 0.013731 0.353787 0.030773
  endloop
 endfacet
 facet normal -0.645038 0.651744 0.398942
  outer loop
   vertex 0.012178 0.353787 0.028262
   vertex 0.011814 0.352227 0.030222
   vertex 0.013731 0.353787 0.030773
  endloop
 endfacet
 facet normal -0.819189 0.412026 0.398954
  outer loop
   vertex 0.010443 0.351399 0.028262
   vertex 0.010923 0.349922 0.030773
   vertex 0.011814 0.352227 0.030222
  endloop
 endfacet
 facet normal -0.936352 0.304548 0.174631
  outer loop
   vertex 0.009539 0.35006 0.02575
   vertex 0.009578 0.348595 0.028514
   vertex 0.010443 0.351399 0.028262
  endloop
 endfacet
 facet normal -0.984653 0.155824 -0.0785916
  outer loop
   vertex 0.009484 0.348446 0.023239
   vertex 0.00905 0.34697 0.02575
   vertex 0.009539 0.35006 0.02575
  endloop
 endfacet
 facet normal -0.886309 0.304753 0.348685
  outer loop
   vertex 0.010443 0.351399 0.028262
   vertex 0.009578 0.348595 0.028514
   vertex 0.010923 0.349922 0.030773
  endloop
 endfacet
 facet normal -0.885615 0.148581 0.440011
  outer loop
   vertex 0.009578 0.348595 0.028514
   vertex 0.010544 0.34697 0.031007
   vertex 0.010923 0.349922 0.030773
  endloop
 endfacet
 facet normal -0.983115 0.15558 0.0963335
  outer loop
   vertex 0.009539 0.35006 0.02575
   vertex 0.00905 0.34697 0.02575
   vertex 0.009578 0.348595 0.028514
  endloop
 endfacet
 facet normal -0.982239 0 0.187634
  outer loop
   vertex 0.00905 0.34697 0.02575
   vertex 0.009578 0.345345 0.028514
   vertex 0.009578 0.348595 0.028514
  endloop
 endfacet
 facet normal -0.932446 0 0.361309
  outer loop
   vertex 0.009578 0.348595 0.028514
   vertex 0.009578 0.345345 0.028514
   vertex 0.010544 0.34697 0.031007
  endloop
 endfacet
 facet normal -0.885615 -0.148581 0.440011
  outer loop
   vertex 0.009578 0.345345 0.028514
   vertex 0.010923 0.344018 0.030773
   vertex 0.010544 0.34697 0.031007
  endloop
 endfacet
 facet normal -0.98539 -0 -0.170314
  outer loop
   vertex 0.009484 0.348446 0.023239
   vertex 0.009484 0.345494 0.023239
   vertex 0.00905 0.34697 0.02575
  endloop
 endfacet
 facet normal -0.984653 -0.155824 -0.0785916
  outer loop
   vertex 0.009484 0.345494 0.023239
   vertex 0.009539 0.34388 0.02575
   vertex 0.00905 0.34697 0.02575
  endloop
 endfacet
 facet normal -0.983115 -0.15558 0.0963335
  outer loop
   vertex 0.00905 0.34697 0.02575
   vertex 0.009539 0.34388 0.02575
   vertex 0.009578 0.345345 0.028514
  endloop
 endfacet
 facet normal -0.936352 -0.304548 0.174631
  outer loop
   vertex 0.009539 0.34388 0.02575
   vertex 0.010443 0.342541 0.028262
   vertex 0.009578 0.345345 0.028514
  endloop
 endfacet
 facet normal -0.886309 -0.304753 0.348685
  outer loop
   vertex 0.009578 0.345345 0.028514
   vertex 0.010443 0.342541 0.028262
   vertex 0.010923 0.344018 0.030773
  endloop
 endfacet
 facet normal -0.819189 -0.412026 0.398954
  outer loop
   vertex 0.010443 0.342541 0.028262
   vertex 0.011814 0.341713 0.030222
   vertex 0.010923 0.344018 0.030773
  endloop
 endfacet
 facet normal -0.645038 -0.651744 0.398942
  outer loop
   vertex 0.012178 0.340153 0.028262
   vertex 0.013731 0.340153 0.030773
   vertex 0.011814 0.341713 0.030222
  endloop
 endfacet
 facet normal -0.578874 -0.796508 0.174584
  outer loop
   vertex 0.013172 0.33888 0.02575
   vertex 0.014578 0.338464 0.028514
   vertex 0.012178 0.340153 0.028262
  endloop
 endfacet
 facet normal -0.452705 -0.888208 -0.0783901
  outer loop
   vertex 0.01469 0.338328 0.023238
   vertex 0.01596 0.337459 0.02575
   vertex 0.013172 0.33888 0.02575
  endloop
 endfacet
 facet normal -0.563623 -0.748876 0.348589
  outer loop
   vertex 0.012178 0.340153 0.028262
   vertex 0.014578 0.338464 0.028514
   vertex 0.013731 0.340153 0.030773
  endloop
 endfacet
 facet normal -0.415138 -0.796394 0.439791
  outer loop
   vertex 0.014578 0.338464 0.028514
   vertex 0.016421 0.33888 0.031007
   vertex 0.013731 0.340153 0.030773
  endloop
 endfacet
 facet normal -0.451986 -0.886796 0.0964489
  outer loop
   vertex 0.013172 0.33888 0.02575
   vertex 0.01596 0.337459 0.02575
   vertex 0.014578 0.338464 0.028514
  endloop
 endfacet
 facet normal -0.303796 -0.934059 0.187729
  outer loop
   vertex 0.01596 0.337459 0.02575
   vertex 0.017668 0.337459 0.028514
   vertex 0.014578 0.338464 0.028514
  endloop
 endfacet
 facet normal -0.288415 -0.886769 0.361189
  outer loop
   vertex 0.014578 0.338464 0.028514
   vertex 0.017668 0.337459 0.028514
   vertex 0.016421 0.33888 0.031007
  endloop
 endfacet
 facet normal -0.132412 -0.888171 0.440021
  outer loop
   vertex 0.017668 0.337459 0.028514
   vertex 0.019346 0.338328 0.030773
   vertex 0.016421 0.33888 0.031007
  endloop
 endfacet
 facet normal -0.304389 -0.937197 -0.170322
  outer loop
   vertex 0.01469 0.338328 0.023238
   vertex 0.017498 0.337416 0.023238
   vertex 0.01596 0.337459 0.02575
  endloop
 endfacet
 facet normal -0.155824 -0.984657 -0.07855
  outer loop
   vertex 0.017498 0.337416 0.023238
   vertex 0.01905 0.33697 0.02575
   vertex 0.01596 0.337459 0.02575
  endloop
 endfacet
 facet normal -0.155583 -0.983133 0.0961419
  outer loop
   vertex 0.01596 0.337459 0.02575
   vertex 0.01905 0.33697 0.02575
   vertex 0.017668 0.337459 0.028514
  endloop
 endfacet
 facet normal 0.000555151 -0.98466 0.174481
  outer loop
   vertex 0.01905 0.33697 0.02575
   vertex 0.020602 0.337416 0.028262
   vertex 0.017668 0.337459 0.028514
  endloop
 endfacet
 facet normal 0.0161962 -0.937175 0.348485
  outer loop
   vertex 0.017668 0.337459 0.028514
   vertex 0.020602 0.337416 0.028262
   vertex 0.019346 0.338328 0.030773
  endloop
 endfacet
 facet normal 0.138975 -0.90647 0.398746
  outer loop
   vertex 0.020602 0.337416 0.028262
   vertex 0.021814 0.338464 0.030222
   vertex 0.019346 0.338328 0.030773
  endloop
 endfacet
 facet normal 0.420269 -0.815078 0.398776
  outer loop
   vertex 0.02341 0.338328 0.028262
   vertex 0.02389 0.339804 0.030773
   vertex 0.021814 0.338464 0.030222
  endloop
 endfacet
 facet normal 0.578519 -0.796783 0.174509
  outer loop
   vertex 0.024928 0.33888 0.02575
   vertex 0.025758 0.340088 0.028514
   vertex 0.02341 0.338328 0.028262
  endloop
 endfacet
 facet normal 0.704936 -0.704936 -0.0782949
  outer loop
   vertex 0.025922 0.340153 0.023238
   vertex 0.02714 0.341092 0.02575
   vertex 0.024928 0.33888 0.02575
  endloop
 endfacet
 facet normal 0.537986 -0.767602 0.348366
  outer loop
   vertex 0.02341 0.338328 0.028262
   vertex 0.025758 0.340088 0.028514
   vertex 0.02389 0.339804 0.030773
  endloop
 endfacet
 facet normal 0.629279 -0.640767 0.439803
  outer loop
   vertex 0.025758 0.340088 0.028514
   vertex 0.025932 0.34197 0.031007
   vertex 0.02389 0.339804 0.030773
  endloop
 endfacet
 facet normal 0.703824 -0.703824 0.0962537
  outer loop
   vertex 0.024928 0.33888 0.02575
   vertex 0.02714 0.341092 0.02575
   vertex 0.025758 0.340088 0.028514
  endloop
 endfacet
 facet normal 0.794662 -0.577331 0.18762
  outer loop
   vertex 0.02714 0.341092 0.02575
   vertex 0.027668 0.342717 0.028514
   vertex 0.025758 0.340088 0.028514
  endloop
 endfacet
 facet normal 0.754436 -0.548107 0.361117
  outer loop
   vertex 0.025758 0.340088 0.028514
   vertex 0.027668 0.342717 0.028514
   vertex 0.025932 0.34197 0.031007
  endloop
 endfacet
 facet normal 0.803858 -0.400541 0.439749
  outer loop
   vertex 0.027668 0.342717 0.028514
   vertex 0.027361 0.344581 0.030773
   vertex 0.025932 0.34197 0.031007
  endloop
 endfacet
 facet normal 0.797233 -0.579229 -0.170037
  outer loop
   vertex 0.025922 0.340153 0.023238
   vertex 0.027657 0.342541 0.023238
   vertex 0.02714 0.341092 0.02575
  endloop
 endfacet
 facet normal 0.888212 -0.452708 -0.078331
  outer loop
   vertex 0.027657 0.342541 0.023238
   vertex 0.028561 0.34388 0.02575
   vertex 0.02714 0.341092 0.02575
  endloop
 endfacet
 facet normal 0.886806 -0.451991 0.0963284
  outer loop
   vertex 0.02714 0.341092 0.02575
   vertex 0.028561 0.34388 0.02575
   vertex 0.027668 0.342717 0.028514
  endloop
 endfacet
 facet normal 0.93657 -0.303801 0.17476
  outer loop
   vertex 0.028561 0.34388 0.02575
   vertex 0.028616 0.345494 0.028261
   vertex 0.027668 0.342717 0.028514
  endloop
 endfacet
 facet normal 0.89641 -0.274294 0.348155
  outer loop
   vertex 0.027668 0.342717 0.028514
   vertex 0.028616 0.345494 0.028261
   vertex 0.027361 0.344581 0.030773
  endloop
 endfacet
 facet normal 0.905177 -0.147939 0.398459
  outer loop
   vertex 0.028616 0.345494 0.028261
   vertex 0.027994 0.34697 0.030222
   vertex 0.027361 0.344581 0.030773
  endloop
 endfacet
 facet normal 0.294416 0.906493 0.302638
  outer loop
   vertex 0.02341 0.355612 0.028262
   vertex 0.020602 0.356524 0.028262
   vertex 0.021814 0.355476 0.030222
  endloop
 endfacet
 facet normal 0.452705 0.888208 0.0783901
  outer loop
   vertex 0.024928 0.35506 0.02575
   vertex 0.02214 0.356481 0.02575
   vertex 0.02341 0.355612 0.028262
  endloop
 endfacet
 facet normal 0.578874 0.796508 -0.174584
  outer loop
   vertex 0.025922 0.353787 0.023238
   vertex 0.023522 0.355476 0.022986
   vertex 0.024928 0.35506 0.02575
  endloop
 endfacet
 facet normal 0.304389 0.937197 0.170322
  outer loop
   vertex 0.02341 0.355612 0.028262
   vertex 0.02214 0.356481 0.02575
   vertex 0.020602 0.356524 0.028262
  endloop
 endfacet
 facet normal 0.155824 0.984657 0.07855
  outer loop
   vertex 0.02214 0.356481 0.02575
   vertex 0.01905 0.35697 0.02575
   vertex 0.020602 0.356524 0.028262
  endloop
 endfacet
 facet normal 0.451986 0.886796 -0.0964489
  outer loop
   vertex 0.024928 0.35506 0.02575
   vertex 0.023522 0.355476 0.022986
   vertex 0.02214 0.356481 0.02575
  endloop
 endfacet
 facet normal 0.303796 0.934059 -0.187729
  outer loop
   vertex 0.023522 0.355476 0.022986
   vertex 0.020432 0.356481 0.022986
   vertex 0.02214 0.356481 0.02575
  endloop
 endfacet
 facet normal 0.155583 0.983133 -0.0961419
  outer loop
   vertex 0.02214 0.356481 0.02575
   vertex 0.020432 0.356481 0.022986
   vertex 0.01905 0.35697 0.02575
  endloop
 endfacet
 facet normal -0.000555151 0.98466 -0.174481
  outer loop
   vertex 0.020432 0.356481 0.022986
   vertex 0.017498 0.356524 0.023238
   vertex 0.01905 0.35697 0.02575
  endloop
 endfacet
 facet normal 0.563623 0.748876 -0.348589
  outer loop
   vertex 0.025922 0.353787 0.023238
   vertex 0.024369 0.353787 0.020727
   vertex 0.023522 0.355476 0.022986
  endloop
 endfacet
 facet normal 0.415138 0.796394 -0.439791
  outer loop
   vertex 0.024369 0.353787 0.020727
   vertex 0.021679 0.35506 0.020493
   vertex 0.023522 0.355476 0.022986
  endloop
 endfacet
 facet normal 0.288415 0.886769 -0.361189
  outer loop
   vertex 0.023522 0.355476 0.022986
   vertex 0.021679 0.35506 0.020493
   vertex 0.020432 0.356481 0.022986
  endloop
 endfacet
 facet normal 0.132412 0.888171 -0.440021
  outer loop
   vertex 0.021679 0.35506 0.020493
   vertex 0.018754 0.355612 0.020727
   vertex 0.020432 0.356481 0.022986
  endloop
 endfacet
 facet normal -0.0161962 0.937175 -0.348485
  outer loop
   vertex 0.020432 0.356481 0.022986
   vertex 0.018754 0.355612 0.020727
   vertex 0.017498 0.356524 0.023238
  endloop
 endfacet
 facet normal -0.138975 0.90647 -0.398746
  outer loop
   vertex 0.018754 0.355612 0.020727
   vertex 0.016286 0.355476 0.021278
   vertex 0.017498 0.356524 0.023238
  endloop
 endfacet
 facet normal -0.771063 0.560215 0.302688
  outer loop
   vertex 0.012178 0.353787 0.028262
   vertex 0.010443 0.351399 0.028262
   vertex 0.011814 0.352227 0.030222
  endloop
 endfacet
 facet normal -0.704936 0.704936 0.0782949
  outer loop
   vertex 0.013172 0.35506 0.02575
   vertex 0.01096 0.352848 0.02575
   vertex 0.012178 0.353787 0.028262
  endloop
 endfacet
 facet normal -0.578519 0.796783 -0.174509
  outer loop
   vertex 0.01469 0.355612 0.023238
   vertex 0.012342 0.353852 0.022986
   vertex 0.013172 0.35506 0.02575
  endloop
 endfacet
 facet normal -0.797233 0.579229 0.170037
  outer loop
   vertex 0.012178 0.353787 0.028262
   vertex 0.01096 0.352848 0.02575
   vertex 0.010443 0.351399 0.028262
  endloop
 endfacet
 facet normal -0.888212 0.452708 0.078331
  outer loop
   vertex 0.01096 0.352848 0.02575
   vertex 0.009539 0.35006 0.02575
   vertex 0.010443 0.351399 0.028262
  endloop
 endfacet
 facet normal -0.703824 0.703824 -0.0962537
  outer loop
   vertex 0.013172 0.35506 0.02575
   vertex 0.012342 0.353852 0.022986
   vertex 0.01096 0.352848 0.02575
  endloop
 endfacet
 facet normal -0.794662 0.577331 -0.18762
  outer loop
   vertex 0.012342 0.353852 0.022986
   vertex 0.010432 0.351223 0.022986
   vertex 0.01096 0.352848 0.02575
  endloop
 endfacet
 facet normal -0.886806 0.451991 -0.0963284
  outer loop
   vertex 0.01096 0.352848 0.02575
   vertex 0.010432 0.351223 0.022986
   vertex 0.009539 0.35006 0.02575
  endloop
 endfacet
 facet normal -0.93657 0.303801 -0.17476
  outer loop
   vertex 0.010432 0.351223 0.022986
   vertex 0.009484 0.348446 0.023239
   vertex 0.009539 0.35006 0.02575
  endloop
 endfacet
 facet normal -0.537986 0.767602 -0.348366
  outer loop
   vertex 0.01469 0.355612 0.023238
   vertex 0.01421 0.354136 0.020727
   vertex 0.012342 0.353852 0.022986
  endloop
 endfacet
 facet normal -0.629279 0.640767 -0.439803
  outer loop
   vertex 0.01421 0.354136 0.020727
   vertex 0.012168 0.35197 0.020493
   vertex 0.012342 0.353852 0.022986
  endloop
 endfacet
 facet normal -0.754436 0.548107 -0.361117
  outer loop
   vertex 0.012342 0.353852 0.022986
   vertex 0.012168 0.35197 0.020493
   vertex 0.010432 0.351223 0.022986
  endloop
 endfacet
 facet normal -0.803858 0.400541 -0.439749
  outer loop
   vertex 0.012168 0.35197 0.020493
   vertex 0.010739 0.349359 0.020727
   vertex 0.010432 0.351223 0.022986
  endloop
 endfacet
 facet normal -0.89641 0.274294 -0.348155
  outer loop
   vertex 0.010432 0.351223 0.022986
   vertex 0.010739 0.349359 0.020727
   vertex 0.009484 0.348446 0.023239
  endloop
 endfacet
 facet normal -0.905177 0.147939 -0.398459
  outer loop
   vertex 0.010739 0.349359 0.020727
   vertex 0.010106 0.34697 0.021278
   vertex 0.009484 0.348446 0.023239
  endloop
 endfacet
 facet normal -0.771063 -0.560215 0.302688
  outer loop
   vertex 0.010443 0.342541 0.028262
   vertex 0.012178 0.340153 0.028262
   vertex 0.011814 0.341713 0.030222
  endloop
 endfacet
 facet normal -0.888212 -0.452708 0.078331
  outer loop
   vertex 0.009539 0.34388 0.02575
   vertex 0.01096 0.341092 0.02575
   vertex 0.010443 0.342541 0.028262
  endloop
 endfacet
 facet normal -0.93657 -0.303801 -0.17476
  outer loop
   vertex 0.009484 0.345494 0.023239
   vertex 0.010432 0.342717 0.022986
   vertex 0.009539 0.34388 0.02575
  endloop
 endfacet
 facet normal -0.797233 -0.579229 0.170037
  outer loop
   vertex 0.010443 0.342541 0.028262
   vertex 0.01096 0.341092 0.02575
   vertex 0.012178 0.340153 0.028262
  endloop
 endfacet
 facet normal -0.704936 -0.704936 0.0782949
  outer loop
   vertex 0.01096 0.341092 0.02575
   vertex 0.013172 0.33888 0.02575
   vertex 0.012178 0.340153 0.028262
  endloop
 endfacet
 facet normal -0.886806 -0.451991 -0.0963284
  outer loop
   vertex 0.009539 0.34388 0.02575
   vertex 0.010432 0.342717 0.022986
   vertex 0.01096 0.341092 0.02575
  endloop
 endfacet
 facet normal -0.794662 -0.577331 -0.18762
  outer loop
   vertex 0.010432 0.342717 0.022986
   vertex 0.012342 0.340088 0.022986
   vertex 0.01096 0.341092 0.02575
  endloop
 endfacet
 facet normal -0.703824 -0.703824 -0.0962537
  outer loop
   vertex 0.01096 0.341092 0.02575
   vertex 0.012342 0.340088 0.022986
   vertex 0.013172 0.33888 0.02575
  endloop
 endfacet
 facet normal -0.578519 -0.796783 -0.174509
  outer loop
   vertex 0.012342 0.340088 0.022986
   vertex 0.01469 0.338328 0.023238
   vertex 0.013172 0.33888 0.02575
  endloop
 endfacet
 facet normal -0.89641 -0.274294 -0.348155
  outer loop
   vertex 0.009484 0.345494 0.023239
   vertex 0.010739 0.344581 0.020727
   vertex 0.010432 0.342717 0.022986
  endloop
 endfacet
 facet normal -0.803858 -0.400541 -0.439749
  outer loop
   vertex 0.010739 0.344581 0.020727
   vertex 0.012168 0.34197 0.020493
   vertex 0.010432 0.342717 0.022986
  endloop
 endfacet
 facet normal -0.754436 -0.548107 -0.361117
  outer loop
   vertex 0.010432 0.342717 0.022986
   vertex 0.012168 0.34197 0.020493
   vertex 0.012342 0.340088 0.022986
  endloop
 endfacet
 facet normal -0.629279 -0.640767 -0.439803
  outer loop
   vertex 0.012168 0.34197 0.020493
   vertex 0.01421 0.339804 0.020727
   vertex 0.012342 0.340088 0.022986
  endloop
 endfacet
 facet normal -0.537986 -0.767602 -0.348366
  outer loop
   vertex 0.012342 0.340088 0.022986
   vertex 0.01421 0.339804 0.020727
   vertex 0.01469 0.338328 0.023238
  endloop
 endfacet
 facet normal -0.420269 -0.815078 -0.398776
  outer loop
   vertex 0.01421 0.339804 0.020727
   vertex 0.016286 0.338464 0.021278
   vertex 0.01469 0.338328 0.023238
  endloop
 endfacet
 facet normal 0.294416 -0.906493 0.302638
  outer loop
   vertex 0.020602 0.337416 0.028262
   vertex 0.02341 0.338328 0.028262
   vertex 0.021814 0.338464 0.030222
  endloop
 endfacet
 facet normal 0.155824 -0.984657 0.07855
  outer loop
   vertex 0.01905 0.33697 0.02575
   vertex 0.02214 0.337459 0.02575
   vertex 0.020602 0.337416 0.028262
  endloop
 endfacet
 facet normal -0.000555151 -0.98466 -0.174481
  outer loop
   vertex 0.017498 0.337416 0.023238
   vertex 0.020432 0.337459 0.022986
   vertex 0.01905 0.33697 0.02575
  endloop
 endfacet
 facet normal 0.304389 -0.937197 0.170322
  outer loop
   vertex 0.020602 0.337416 0.028262
   vertex 0.02214 0.337459 0.02575
   vertex 0.02341 0.338328 0.028262
  endloop
 endfacet
 facet normal 0.452705 -0.888208 0.0783901
  outer loop
   vertex 0.02214 0.337459 0.02575
   vertex 0.024928 0.33888 0.02575
   vertex 0.02341 0.338328 0.028262
  endloop
 endfacet
 facet normal 0.155583 -0.983133 -0.0961419
  outer loop
   vertex 0.01905 0.33697 0.02575
   vertex 0.020432 0.337459 0.022986
   vertex 0.02214 0.337459 0.02575
  endloop
 endfacet
 facet normal 0.303796 -0.934059 -0.187729
  outer loop
   vertex 0.020432 0.337459 0.022986
   vertex 0.023522 0.338464 0.022986
   vertex 0.02214 0.337459 0.02575
  endloop
 endfacet
 facet normal 0.451986 -0.886796 -0.0964489
  outer loop
   vertex 0.02214 0.337459 0.02575
   vertex 0.023522 0.338464 0.022986
   vertex 0.024928 0.33888 0.02575
  endloop
 endfacet
 facet normal 0.578874 -0.796508 -0.174584
  outer loop
   vertex 0.023522 0.338464 0.022986
   vertex 0.025922 0.340153 0.023238
   vertex 0.024928 0.33888 0.02575
  endloop
 endfacet
 facet normal -0.0161962 -0.937175 -0.348485
  outer loop
   vertex 0.017498 0.337416 0.023238
   vertex 0.018754 0.338328 0.020727
   vertex 0.020432 0.337459 0.022986
  endloop
 endfacet
 facet normal 0.132412 -0.888171 -0.440021
  outer loop
   vertex 0.018754 0.338328 0.020727
   vertex 0.021679 0.33888 0.020493
   vertex 0.020432 0.337459 0.022986
  endloop
 endfacet
 facet normal 0.288415 -0.886769 -0.361189
  outer loop
   vertex 0.020432 0.337459 0.022986
   vertex 0.021679 0.33888 0.020493
   vertex 0.023522 0.338464 0.022986
  endloop
 endfacet
 facet normal 0.415138 -0.796394 -0.439791
  outer loop
   vertex 0.021679 0.33888 0.020493
   vertex 0.024369 0.340153 0.020727
   vertex 0.023522 0.338464 0.022986
  endloop
 endfacet
 facet normal 0.563623 -0.748876 -0.348589
  outer loop
   vertex 0.023522 0.338464 0.022986
   vertex 0.024369 0.340153 0.020727
   vertex 0.025922 0.340153 0.023238
  endloop
 endfacet
 facet normal 0.645038 -0.651744 -0.398942
  outer loop
   vertex 0.024369 0.340153 0.020727
   vertex 0.026286 0.341713 0.021278
   vertex 0.025922 0.340153 0.023238
  endloop
 endfacet
 facet normal 0.9532 -0 0.302341
  outer loop
   vertex 0.028616 0.345494 0.028261
   vertex 0.028616 0.348446 0.028261
   vertex 0.027994 0.34697 0.030222
  endloop
 endfacet
 facet normal 0.984653 -0.155824 0.0785916
  outer loop
   vertex 0.028561 0.34388 0.02575
   vertex 0.02905 0.34697 0.02575
   vertex 0.028616 0.345494 0.028261
  endloop
 endfacet
 facet normal 0.936352 -0.304548 -0.174631
  outer loop
   vertex 0.027657 0.342541 0.023238
   vertex 0.028522 0.345345 0.022986
   vertex 0.028561 0.34388 0.02575
  endloop
 endfacet
 facet normal 0.98539 -0 0.170314
  outer loop
   vertex 0.028616 0.345494 0.028261
   vertex 0.02905 0.34697 0.02575
   vertex 0.028616 0.348446 0.028261
  endloop
 endfacet
 facet normal 0.984653 0.155824 0.0785916
  outer loop
   vertex 0.02905 0.34697 0.02575
   vertex 0.028561 0.35006 0.02575
   vertex 0.028616 0.348446 0.028261
  endloop
 endfacet
 facet normal 0.983115 -0.15558 -0.0963335
  outer loop
   vertex 0.028561 0.34388 0.02575
   vertex 0.028522 0.345345 0.022986
   vertex 0.02905 0.34697 0.02575
  endloop
 endfacet
 facet normal 0.982239 0 -0.187634
  outer loop
   vertex 0.028522 0.345345 0.022986
   vertex 0.028522 0.348595 0.022986
   vertex 0.02905 0.34697 0.02575
  endloop
 endfacet
 facet normal 0.983115 0.15558 -0.0963335
  outer loop
   vertex 0.02905 0.34697 0.02575
   vertex 0.028522 0.348595 0.022986
   vertex 0.028561 0.35006 0.02575
  endloop
 endfacet
 facet normal 0.936352 0.304548 -0.174631
  outer loop
   vertex 0.028522 0.348595 0.022986
   vertex 0.027657 0.351399 0.023238
   vertex 0.028561 0.35006 0.02575
  endloop
 endfacet
 facet normal 0.886309 -0.304753 -0.348685
  outer loop
   vertex 0.027657 0.342541 0.023238
   vertex 0.027177 0.344018 0.020727
   vertex 0.028522 0.345345 0.022986
  endloop
 endfacet
 facet normal 0.885615 -0.148581 -0.440011
  outer loop
   vertex 0.027177 0.344018 0.020727
   vertex 0.027556 0.34697 0.020493
   vertex 0.028522 0.345345 0.022986
  endloop
 endfacet
 facet normal 0.932446 0 -0.361309
  outer loop
   vertex 0.028522 0.345345 0.022986
   vertex 0.027556 0.34697 0.020493
   vertex 0.028522 0.348595 0.022986
  endloop
 endfacet
 facet normal 0.885615 0.148581 -0.440011
  outer loop
   vertex 0.027556 0.34697 0.020493
   vertex 0.027177 0.349922 0.020727
   vertex 0.028522 0.348595 0.022986
  endloop
 endfacet
 facet normal 0.886309 0.304753 -0.348685
  outer loop
   vertex 0.028522 0.348595 0.022986
   vertex 0.027177 0.349922 0.020727
   vertex 0.027657 0.351399 0.023238
  endloop
 endfacet
 facet normal 0.819189 0.412026 -0.398954
  outer loop
   vertex 0.027177 0.349922 0.020727
   vertex 0.026286 0.352227 0.021278
   vertex 0.027657 0.351399 0.023238
  endloop
 endfacet
 facet normal 0.61533 0.560308 -0.554459
  outer loop
   vertex 0.025145 0.351399 0.019175
   vertex 0.024369 0.353787 0.020727
   vertex 0.026286 0.352227 0.021278
  endloop
 endfacet
 facet normal 0.467426 0.452641 -0.759361
  outer loop
   vertex 0.023303 0.35006 0.017243
   vertex 0.022668 0.352848 0.018514
   vertex 0.025145 0.351399 0.019175
  endloop
 endfacet
 facet normal 0.262485 0.303841 -0.915851
  outer loop
   vertex 0.021082 0.348446 0.016071
   vertex 0.020432 0.351223 0.016806
   vertex 0.023303 0.35006 0.017243
  endloop
 endfacet
 facet normal 0.508799 0.579247 -0.636864
  outer loop
   vertex 0.025145 0.351399 0.019175
   vertex 0.022668 0.352848 0.018514
   vertex 0.024369 0.353787 0.020727
  endloop
 endfacet
 facet normal 0.38541 0.704977 -0.595371
  outer loop
   vertex 0.022668 0.352848 0.018514
   vertex 0.021679 0.35506 0.020493
   vertex 0.024369 0.353787 0.020727
  endloop
 endfacet
 facet normal 0.310374 0.451949 -0.836307
  outer loop
   vertex 0.023303 0.35006 0.017243
   vertex 0.020432 0.351223 0.016806
   vertex 0.022668 0.352848 0.018514
  endloop
 endfacet
 facet normal 0.187559 0.577248 -0.794737
  outer loop
   vertex 0.020432 0.351223 0.016806
   vertex 0.019578 0.353852 0.018514
   vertex 0.022668 0.352848 0.018514
  endloop
 endfacet
 facet normal 0.228709 0.703897 -0.672474
  outer loop
   vertex 0.022668 0.352848 0.018514
   vertex 0.019578 0.353852 0.018514
   vertex 0.021679 0.35506 0.020493
  endloop
 endfacet
 facet normal 0.102735 0.796801 -0.595444
  outer loop
   vertex 0.019578 0.353852 0.018514
   vertex 0.018754 0.355612 0.020727
   vertex 0.021679 0.35506 0.020493
  endloop
 endfacet
 facet normal 0.0891868 0.274301 -0.957499
  outer loop
   vertex 0.021082 0.348446 0.016071
   vertex 0.018274 0.349359 0.016071
   vertex 0.020432 0.351223 0.016806
  endloop
 endfacet
 facet normal -0.0336945 0.400135 -0.915836
  outer loop
   vertex 0.018274 0.349359 0.016071
   vertex 0.017425 0.35197 0.017243
   vertex 0.020432 0.351223 0.016806
  endloop
 endfacet
 facet normal 0.0146149 0.548074 -0.836302
  outer loop
   vertex 0.020432 0.351223 0.016806
   vertex 0.017425 0.35197 0.017243
   vertex 0.019578 0.353852 0.018514
  endloop
 endfacet
 facet normal -0.112009 0.640965 -0.759354
  outer loop
   vertex 0.017425 0.35197 0.017243
   vertex 0.016722 0.354136 0.019175
   vertex 0.019578 0.353852 0.018514
  endloop
 endfacet
 facet normal -0.0710868 0.767617 -0.636955
  outer loop
   vertex 0.019578 0.353852 0.018514
   vertex 0.016722 0.354136 0.019175
   vertex 0.018754 0.355612 0.020727
  endloop
 endfacet
 facet normal -0.168666 0.815046 -0.554303
  outer loop
   vertex 0.016722 0.354136 0.019175
   vertex 0.016286 0.355476 0.021278
   vertex 0.018754 0.355612 0.020727
  endloop
 endfacet
 facet normal -0.342493 0.758552 -0.554344
  outer loop
   vertex 0.016722 0.354136 0.019175
   vertex 0.01421 0.354136 0.020727
   vertex 0.016286 0.355476 0.021278
  endloop
 endfacet
 facet normal -0.286233 0.584386 -0.759318
  outer loop
   vertex 0.017425 0.35197 0.017243
   vertex 0.014578 0.352227 0.018514
   vertex 0.016722 0.354136 0.019175
  endloop
 endfacet
 facet normal -0.207851 0.343516 -0.915858
  outer loop
   vertex 0.018274 0.349359 0.016071
   vertex 0.015432 0.349599 0.016806
   vertex 0.017425 0.35197 0.017243
  endloop
 endfacet
 facet normal -0.393627 0.662685 -0.637108
  outer loop
   vertex 0.016722 0.354136 0.019175
   vertex 0.014578 0.352227 0.018514
   vertex 0.01421 0.354136 0.020727
  endloop
 endfacet
 facet normal -0.551379 0.584158 -0.595601
  outer loop
   vertex 0.014578 0.352227 0.018514
   vertex 0.012168 0.35197 0.020493
   vertex 0.01421 0.354136 0.020727
  endloop
 endfacet
 facet normal -0.334054 0.43492 -0.836213
  outer loop
   vertex 0.017425 0.35197 0.017243
   vertex 0.015432 0.349599 0.016806
   vertex 0.014578 0.352227 0.018514
  endloop
 endfacet
 facet normal -0.491058 0.356895 -0.794662
  outer loop
   vertex 0.015432 0.349599 0.016806
   vertex 0.012668 0.349599 0.018514
   vertex 0.014578 0.352227 0.018514
  endloop
 endfacet
 facet normal -0.598657 0.435097 -0.672533
  outer loop
   vertex 0.014578 0.352227 0.018514
   vertex 0.012668 0.349599 0.018514
   vertex 0.012168 0.35197 0.020493
  endloop
 endfacet
 facet normal -0.725985 0.343961 -0.595514
  outer loop
   vertex 0.012668 0.349599 0.018514
   vertex 0.010739 0.349359 0.020727
   vertex 0.012168 0.35197 0.020493
  endloop
 endfacet
 facet normal -0.233325 0.169451 -0.957521
  outer loop
   vertex 0.018274 0.349359 0.016071
   vertex 0.016539 0.34697 0.016071
   vertex 0.015432 0.349599 0.016806
  endloop
 endfacet
 facet normal -0.390899 0.0914587 -0.915878
  outer loop
   vertex 0.016539 0.34697 0.016071
   vertex 0.013793 0.34697 0.017243
   vertex 0.015432 0.349599 0.016806
  endloop
 endfacet
 facet normal -0.516783 0.183167 -0.836293
  outer loop
   vertex 0.015432 0.349599 0.016806
   vertex 0.013793 0.34697 0.017243
   vertex 0.012668 0.349599 0.018514
  endloop
 endfacet
 facet normal -0.644269 0.0913996 -0.759317
  outer loop
   vertex 0.013793 0.34697 0.017243
   vertex 0.011516 0.34697 0.019175
   vertex 0.012668 0.349599 0.018514
  endloop
 endfacet
 facet normal -0.751958 0.169318 -0.637095
  outer loop
   vertex 0.012668 0.349599 0.018514
   vertex 0.011516 0.34697 0.019175
   vertex 0.010739 0.349359 0.020727
  endloop
 endfacet
 facet normal -0.827124 0.091254 -0.554562
  outer loop
   vertex 0.011516 0.34697 0.019175
   vertex 0.010106 0.34697 0.021278
   vertex 0.010739 0.349359 0.020727
  endloop
 endfacet
 facet normal -0.827124 -0.091254 -0.554562
  outer loop
   vertex 0.011516 0.34697 0.019175
   vertex 0.010739 0.344581 0.020727
   vertex 0.010106 0.34697 0.021278
  endloop
 endfacet
 facet normal -0.644269 -0.0913996 -0.759317
  outer loop
   vertex 0.013793 0.34697 0.017243
   vertex 0.012668 0.344341 0.018514
   vertex 0.011516 0.34697 0.019175
  endloop
 endfacet
 facet normal -0.390899 -0.0914587 -0.915878
  outer loop
   vertex 0.016539 0.34697 0.016071
   vertex 0.015432 0.344341 0.016806
   vertex 0.013793 0.34697 0.017243
  endloop
 endfacet
 facet normal -0.751958 -0.169318 -0.637095
  outer loop
   vertex 0.011516 0.34697 0.019175
   vertex 0.012668 0.344341 0.018514
   vertex 0.010739 0.344581 0.020727
  endloop
 endfacet
 facet normal -0.725985 -0.343961 -0.595514
  outer loop
   vertex 0.012668 0.344341 0.018514
   vertex 0.012168 0.34197 0.020493
   vertex 0.010739 0.344581 0.020727
  endloop
 endfacet
 facet normal -0.516783 -0.183167 -0.836293
  outer loop
   vertex 0.013793 0.34697 0.017243
   vertex 0.015432 0.344341 0.016806
   vertex 0.012668 0.344341 0.018514
  endloop
 endfacet
 facet normal -0.491058 -0.356895 -0.794662
  outer loop
   vertex 0.015432 0.344341 0.016806
   vertex 0.014578 0.341713 0.018514
   vertex 0.012668 0.344341 0.018514
  endloop
 endfacet
 facet normal -0.598657 -0.435097 -0.672533
  outer loop
   vertex 0.012668 0.344341 0.018514
   vertex 0.014578 0.341713 0.018514
   vertex 0.012168 0.34197 0.020493
  endloop
 endfacet
 facet normal -0.551379 -0.584158 -0.595601
  outer loop
   vertex 0.014578 0.341713 0.018514
   vertex 0.01421 0.339804 0.020727
   vertex 0.012168 0.34197 0.020493
  endloop
 endfacet
 facet normal -0.233325 -0.169451 -0.957521
  outer loop
   vertex 0.016539 0.34697 0.016071
   vertex 0.018274 0.344581 0.016071
   vertex 0.015432 0.344341 0.016806
  endloop
 endfacet
 facet normal -0.207851 -0.343516 -0.915858
  outer loop
   vertex 0.018274 0.344581 0.016071
   vertex 0.017425 0.34197 0.017243
   vertex 0.015432 0.344341 0.016806
  endloop
 endfacet
 facet normal -0.334054 -0.43492 -0.836213
  outer loop
   vertex 0.015432 0.344341 0.016806
   vertex 0.017425 0.34197 0.017243
   vertex 0.014578 0.341713 0.018514
  endloop
 endfacet
 facet normal -0.286233 -0.584386 -0.759318
  outer loop
   vertex 0.017425 0.34197 0.017243
   vertex 0.016722 0.339804 0.019175
   vertex 0.014578 0.341713 0.018514
  endloop
 endfacet
 facet normal -0.393627 -0.662685 -0.637108
  outer loop
   vertex 0.014578 0.341713 0.018514
   vertex 0.016722 0.339804 0.019175
   vertex 0.01421 0.339804 0.020727
  endloop
 endfacet
 facet normal -0.342493 -0.758552 -0.554344
  outer loop
   vertex 0.016722 0.339804 0.019175
   vertex 0.016286 0.338464 0.021278
   vertex 0.01421 0.339804 0.020727
  endloop
 endfacet
 facet normal 0.723015 0.412034 -0.554506
  outer loop
   vertex 0.027177 0.349922 0.020727
   vertex 0.025145 0.351399 0.019175
   vertex 0.026286 0.352227 0.021278
  endloop
 endfacet
 facet normal 0.789589 0.148568 -0.59538
  outer loop
   vertex 0.027556 0.34697 0.020493
   vertex 0.025758 0.348595 0.018514
   vertex 0.027177 0.349922 0.020727
  endloop
 endfacet
 facet normal 0.789589 -0.148568 -0.59538
  outer loop
   vertex 0.027177 0.344018 0.020727
   vertex 0.025758 0.345345 0.018514
   vertex 0.027556 0.34697 0.020493
  endloop
 endfacet
 facet normal 0.708089 0.304936 -0.636886
  outer loop
   vertex 0.027177 0.349922 0.020727
   vertex 0.025758 0.348595 0.018514
   vertex 0.025145 0.351399 0.019175
  endloop
 endfacet
 facet normal 0.574948 0.304695 -0.759339
  outer loop
   vertex 0.025758 0.348595 0.018514
   vertex 0.023303 0.35006 0.017243
   vertex 0.025145 0.351399 0.019175
  endloop
 endfacet
 facet normal 0.740143 0 -0.672449
  outer loop
   vertex 0.027556 0.34697 0.020493
   vertex 0.025758 0.345345 0.018514
   vertex 0.025758 0.348595 0.018514
  endloop
 endfacet
 facet normal 0.607028 0 -0.794681
  outer loop
   vertex 0.025758 0.345345 0.018514
   vertex 0.023522 0.34697 0.016806
   vertex 0.025758 0.348595 0.018514
  endloop
 endfacet
 facet normal 0.525774 0.155534 -0.836284
  outer loop
   vertex 0.025758 0.348595 0.018514
   vertex 0.023522 0.34697 0.016806
   vertex 0.023303 0.35006 0.017243
  endloop
 endfacet
 facet normal 0.370096 0.155752 -0.915844
  outer loop
   vertex 0.023522 0.34697 0.016806
   vertex 0.021082 0.348446 0.016071
   vertex 0.023303 0.35006 0.017243
  endloop
 endfacet
 facet normal 0.708089 -0.304936 -0.636886
  outer loop
   vertex 0.027177 0.344018 0.020727
   vertex 0.025145 0.342541 0.019175
   vertex 0.025758 0.345345 0.018514
  endloop
 endfacet
 facet normal 0.574948 -0.304695 -0.759339
  outer loop
   vertex 0.025145 0.342541 0.019175
   vertex 0.023303 0.34388 0.017243
   vertex 0.025758 0.345345 0.018514
  endloop
 endfacet
 facet normal 0.525774 -0.155534 -0.836284
  outer loop
   vertex 0.025758 0.345345 0.018514
   vertex 0.023303 0.34388 0.017243
   vertex 0.023522 0.34697 0.016806
  endloop
 endfacet
 facet normal 0.370096 -0.155752 -0.915844
  outer loop
   vertex 0.023303 0.34388 0.017243
   vertex 0.021082 0.345494 0.016071
   vertex 0.023522 0.34697 0.016806
  endloop
 endfacet
 facet normal 0.288428 0 -0.957502
  outer loop
   vertex 0.023522 0.34697 0.016806
   vertex 0.021082 0.345494 0.016071
   vertex 0.021082 0.348446 0.016071
  endloop
 endfacet
 facet normal 0.156037 0 -0.987751
  outer loop
   vertex 0.021082 0.345494 0.016071
   vertex 0.01905 0.34697 0.01575
   vertex 0.021082 0.348446 0.016071
  endloop
 endfacet
 facet normal -0.168666 -0.815046 -0.554303
  outer loop
   vertex 0.016722 0.339804 0.019175
   vertex 0.018754 0.338328 0.020727
   vertex 0.016286 0.338464 0.021278
  endloop
 endfacet
 facet normal -0.112009 -0.640965 -0.759354
  outer loop
   vertex 0.017425 0.34197 0.017243
   vertex 0.019578 0.340088 0.018514
   vertex 0.016722 0.339804 0.019175
  endloop
 endfacet
 facet normal -0.0336945 -0.400135 -0.915836
  outer loop
   vertex 0.018274 0.344581 0.016071
   vertex 0.020432 0.342717 0.016806
   vertex 0.017425 0.34197 0.017243
  endloop
 endfacet
 facet normal -0.0710868 -0.767617 -0.636955
  outer loop
   vertex 0.016722 0.339804 0.019175
   vertex 0.019578 0.340088 0.018514
   vertex 0.018754 0.338328 0.020727
  endloop
 endfacet
 facet normal 0.102735 -0.796801 -0.595444
  outer loop
   vertex 0.019578 0.340088 0.018514
   vertex 0.021679 0.33888 0.020493
   vertex 0.018754 0.338328 0.020727
  endloop
 endfacet
 facet normal 0.0146149 -0.548074 -0.836302
  outer loop
   vertex 0.017425 0.34197 0.017243
   vertex 0.020432 0.342717 0.016806
   vertex 0.019578 0.340088 0.018514
  endloop
 endfacet
 facet normal 0.187559 -0.577248 -0.794737
  outer loop
   vertex 0.020432 0.342717 0.016806
   vertex 0.022668 0.341092 0.018514
   vertex 0.019578 0.340088 0.018514
  endloop
 endfacet
 facet normal 0.228709 -0.703897 -0.672474
  outer loop
   vertex 0.019578 0.340088 0.018514
   vertex 0.022668 0.341092 0.018514
   vertex 0.021679 0.33888 0.020493
  endloop
 endfacet
 facet normal 0.38541 -0.704977 -0.595371
  outer loop
   vertex 0.022668 0.341092 0.018514
   vertex 0.024369 0.340153 0.020727
   vertex 0.021679 0.33888 0.020493
  endloop
 endfacet
 facet normal 0.0891868 -0.274301 -0.957499
  outer loop
   vertex 0.018274 0.344581 0.016071
   vertex 0.021082 0.345494 0.016071
   vertex 0.020432 0.342717 0.016806
  endloop
 endfacet
 facet normal 0.262485 -0.303841 -0.915851
  outer loop
   vertex 0.021082 0.345494 0.016071
   vertex 0.023303 0.34388 0.017243
   vertex 0.020432 0.342717 0.016806
  endloop
 endfacet
 facet normal 0.310374 -0.451949 -0.836307
  outer loop
   vertex 0.020432 0.342717 0.016806
   vertex 0.023303 0.34388 0.017243
   vertex 0.022668 0.341092 0.018514
  endloop
 endfacet
 facet normal 0.467426 -0.452641 -0.759361
  outer loop
   vertex 0.023303 0.34388 0.017243
   vertex 0.025145 0.342541 0.019175
   vertex 0.022668 0.341092 0.018514
  endloop
 endfacet
 facet normal 0.508799 -0.579247 -0.636864
  outer loop
   vertex 0.022668 0.341092 0.018514
   vertex 0.025145 0.342541 0.019175
   vertex 0.024369 0.340153 0.020727
  endloop
 endfacet
 facet normal 0.61533 -0.560308 -0.554459
  outer loop
   vertex 0.025145 0.342541 0.019175
   vertex 0.026286 0.341713 0.021278
   vertex 0.024369 0.340153 0.020727
  endloop
 endfacet
endsolid ExportedfromBlender-3.5.1
