solid ExportedfromBlender-3.5.1
 facet normal 0.0482486 -0.148392 -0.987751
  outer loop
   vertex -0.02027 0.21975 -0.03087
   vertex -0.018238 0.218274 -0.030549
   vertex -0.021046 0.217361 -0.030549
  endloop
 endfacet
 facet normal 0.723015 -0.412034 -0.554506
  outer loop
   vertex -0.013034 0.214493 -0.025342
   vertex -0.014175 0.215321 -0.027445
   vertex -0.012143 0.216798 -0.025893
  endloop
 endfacet
 facet normal -0.126271 -0.0917039 -0.987748
  outer loop
   vertex -0.02027 0.21975 -0.03087
   vertex -0.021046 0.217361 -0.030549
   vertex -0.022781 0.21975 -0.030549
  endloop
 endfacet
 facet normal -0.126271 0.0917039 -0.987748
  outer loop
   vertex -0.02027 0.21975 -0.03087
   vertex -0.022781 0.21975 -0.030549
   vertex -0.021046 0.222139 -0.030549
  endloop
 endfacet
 facet normal 0.0482486 0.148392 -0.987751
  outer loop
   vertex -0.02027 0.21975 -0.03087
   vertex -0.021046 0.222139 -0.030549
   vertex -0.018238 0.221226 -0.030549
  endloop
 endfacet
 facet normal 0.819189 -0.412026 -0.398954
  outer loop
   vertex -0.013034 0.214493 -0.025342
   vertex -0.012143 0.216798 -0.025893
   vertex -0.011663 0.215321 -0.023382
  endloop
 endfacet
 facet normal -0.138975 -0.90647 -0.398746
  outer loop
   vertex -0.023034 0.211244 -0.025342
   vertex -0.020566 0.211108 -0.025893
   vertex -0.021822 0.210196 -0.023382
  endloop
 endfacet
 facet normal -0.905177 -0.147939 -0.398459
  outer loop
   vertex -0.029214 0.21975 -0.025342
   vertex -0.028581 0.217361 -0.025893
   vertex -0.029836 0.218274 -0.023381
  endloop
 endfacet
 facet normal -0.420269 0.815078 -0.398776
  outer loop
   vertex -0.023034 0.228256 -0.025342
   vertex -0.02511 0.226916 -0.025893
   vertex -0.02463 0.228392 -0.023382
  endloop
 endfacet
 facet normal 0.645038 0.651744 -0.398942
  outer loop
   vertex -0.013034 0.225007 -0.025342
   vertex -0.014951 0.226567 -0.025893
   vertex -0.013398 0.226567 -0.023382
  endloop
 endfacet
 facet normal 0.771063 -0.560215 -0.302688
  outer loop
   vertex -0.013034 0.214493 -0.025342
   vertex -0.011663 0.215321 -0.023382
   vertex -0.013398 0.212933 -0.023382
  endloop
 endfacet
 facet normal -0.294416 -0.906493 -0.302638
  outer loop
   vertex -0.023034 0.211244 -0.025342
   vertex -0.021822 0.210196 -0.023382
   vertex -0.02463 0.211108 -0.023382
  endloop
 endfacet
 facet normal -0.9532 0 -0.302341
  outer loop
   vertex -0.029214 0.21975 -0.025342
   vertex -0.029836 0.218274 -0.023381
   vertex -0.029836 0.221226 -0.023381
  endloop
 endfacet
 facet normal -0.294416 0.906493 -0.302638
  outer loop
   vertex -0.023034 0.228256 -0.025342
   vertex -0.02463 0.228392 -0.023382
   vertex -0.021822 0.229304 -0.023382
  endloop
 endfacet
 facet normal 0.771063 0.560215 -0.302688
  outer loop
   vertex -0.013034 0.225007 -0.025342
   vertex -0.013398 0.226567 -0.023382
   vertex -0.011663 0.224179 -0.023382
  endloop
 endfacet
 facet normal 0.342493 -0.758552 0.554344
  outer loop
   vertex -0.017506 0.211244 -0.016398
   vertex -0.01543 0.212584 -0.015847
   vertex -0.017942 0.212584 -0.014295
  endloop
 endfacet
 facet normal -0.61533 -0.560308 0.554459
  outer loop
   vertex -0.027506 0.214493 -0.016398
   vertex -0.025589 0.212933 -0.015847
   vertex -0.026365 0.215321 -0.014295
  endloop
 endfacet
 facet normal -0.723015 0.412034 0.554506
  outer loop
   vertex -0.027506 0.225007 -0.016398
   vertex -0.028397 0.222702 -0.015847
   vertex -0.026365 0.224179 -0.014295
  endloop
 endfacet
 facet normal 0.168666 0.815046 0.554303
  outer loop
   vertex -0.017506 0.228256 -0.016398
   vertex -0.019974 0.228392 -0.015847
   vertex -0.017942 0.226916 -0.014295
  endloop
 endfacet
 facet normal 0.827124 0.091254 0.554562
  outer loop
   vertex -0.011326 0.21975 -0.016398
   vertex -0.011959 0.222139 -0.015847
   vertex -0.012736 0.21975 -0.014295
  endloop
 endfacet
 facet normal 0.126271 0.0917039 0.987748
  outer loop
   vertex -0.017759 0.21975 -0.011191
   vertex -0.019494 0.222139 -0.011191
   vertex -0.02027 0.21975 -0.01087
  endloop
 endfacet
 facet normal 0.390899 0.0914587 0.915878
  outer loop
   vertex -0.015013 0.21975 -0.012363
   vertex -0.016652 0.222379 -0.011926
   vertex -0.017759 0.21975 -0.011191
  endloop
 endfacet
 facet normal 0.644269 0.0913996 0.759317
  outer loop
   vertex -0.012736 0.21975 -0.014295
   vertex -0.013888 0.222379 -0.013634
   vertex -0.015013 0.21975 -0.012363
  endloop
 endfacet
 facet normal 0.233325 0.169451 0.957521
  outer loop
   vertex -0.017759 0.21975 -0.011191
   vertex -0.016652 0.222379 -0.011926
   vertex -0.019494 0.222139 -0.011191
  endloop
 endfacet
 facet normal 0.207851 0.343516 0.915858
  outer loop
   vertex -0.016652 0.222379 -0.011926
   vertex -0.018645 0.22475 -0.012363
   vertex -0.019494 0.222139 -0.011191
  endloop
 endfacet
 facet normal 0.516783 0.183167 0.836293
  outer loop
   vertex -0.015013 0.21975 -0.012363
   vertex -0.013888 0.222379 -0.013634
   vertex -0.016652 0.222379 -0.011926
  endloop
 endfacet
 facet normal 0.491058 0.356895 0.794662
  outer loop
   vertex -0.013888 0.222379 -0.013634
   vertex -0.015798 0.225007 -0.013634
   vertex -0.016652 0.222379 -0.011926
  endloop
 endfacet
 facet normal 0.334054 0.43492 0.836213
  outer loop
   vertex -0.016652 0.222379 -0.011926
   vertex -0.015798 0.225007 -0.013634
   vertex -0.018645 0.22475 -0.012363
  endloop
 endfacet
 facet normal 0.286233 0.584386 0.759318
  outer loop
   vertex -0.015798 0.225007 -0.013634
   vertex -0.017942 0.226916 -0.014295
   vertex -0.018645 0.22475 -0.012363
  endloop
 endfacet
 facet normal 0.751958 0.169318 0.637095
  outer loop
   vertex -0.012736 0.21975 -0.014295
   vertex -0.011959 0.222139 -0.015847
   vertex -0.013888 0.222379 -0.013634
  endloop
 endfacet
 facet normal 0.725985 0.343961 0.595514
  outer loop
   vertex -0.011959 0.222139 -0.015847
   vertex -0.013388 0.22475 -0.015613
   vertex -0.013888 0.222379 -0.013634
  endloop
 endfacet
 facet normal 0.598657 0.435097 0.672533
  outer loop
   vertex -0.013888 0.222379 -0.013634
   vertex -0.013388 0.22475 -0.015613
   vertex -0.015798 0.225007 -0.013634
  endloop
 endfacet
 facet normal 0.551379 0.584158 0.595601
  outer loop
   vertex -0.013388 0.22475 -0.015613
   vertex -0.01543 0.226916 -0.015847
   vertex -0.015798 0.225007 -0.013634
  endloop
 endfacet
 facet normal 0.393627 0.662685 0.637108
  outer loop
   vertex -0.015798 0.225007 -0.013634
   vertex -0.01543 0.226916 -0.015847
   vertex -0.017942 0.226916 -0.014295
  endloop
 endfacet
 facet normal 0.342493 0.758552 0.554344
  outer loop
   vertex -0.01543 0.226916 -0.015847
   vertex -0.017506 0.228256 -0.016398
   vertex -0.017942 0.226916 -0.014295
  endloop
 endfacet
 facet normal -0.0482486 0.148392 0.987751
  outer loop
   vertex -0.019494 0.222139 -0.011191
   vertex -0.022302 0.221226 -0.011191
   vertex -0.02027 0.21975 -0.01087
  endloop
 endfacet
 facet normal 0.0336945 0.400135 0.915836
  outer loop
   vertex -0.018645 0.22475 -0.012363
   vertex -0.021652 0.224003 -0.011926
   vertex -0.019494 0.222139 -0.011191
  endloop
 endfacet
 facet normal 0.112009 0.640965 0.759354
  outer loop
   vertex -0.017942 0.226916 -0.014295
   vertex -0.020798 0.226632 -0.013634
   vertex -0.018645 0.22475 -0.012363
  endloop
 endfacet
 facet normal -0.0891868 0.274301 0.957499
  outer loop
   vertex -0.019494 0.222139 -0.011191
   vertex -0.021652 0.224003 -0.011926
   vertex -0.022302 0.221226 -0.011191
  endloop
 endfacet
 facet normal -0.262485 0.303841 0.915851
  outer loop
   vertex -0.021652 0.224003 -0.011926
   vertex -0.024523 0.22284 -0.012363
   vertex -0.022302 0.221226 -0.011191
  endloop
 endfacet
 facet normal -0.0146149 0.548074 0.836302
  outer loop
   vertex -0.018645 0.22475 -0.012363
   vertex -0.020798 0.226632 -0.013634
   vertex -0.021652 0.224003 -0.011926
  endloop
 endfacet
 facet normal -0.187559 0.577248 0.794737
  outer loop
   vertex -0.020798 0.226632 -0.013634
   vertex -0.023888 0.225628 -0.013634
   vertex -0.021652 0.224003 -0.011926
  endloop
 endfacet
 facet normal -0.310374 0.451949 0.836307
  outer loop
   vertex -0.021652 0.224003 -0.011926
   vertex -0.023888 0.225628 -0.013634
   vertex -0.024523 0.22284 -0.012363
  endloop
 endfacet
 facet normal -0.467426 0.452641 0.759361
  outer loop
   vertex -0.023888 0.225628 -0.013634
   vertex -0.026365 0.224179 -0.014295
   vertex -0.024523 0.22284 -0.012363
  endloop
 endfacet
 facet normal 0.0710868 0.767617 0.636955
  outer loop
   vertex -0.017942 0.226916 -0.014295
   vertex -0.019974 0.228392 -0.015847
   vertex -0.020798 0.226632 -0.013634
  endloop
 endfacet
 facet normal -0.102735 0.796801 0.595444
  outer loop
   vertex -0.019974 0.228392 -0.015847
   vertex -0.022899 0.22784 -0.015613
   vertex -0.020798 0.226632 -0.013634
  endloop
 endfacet
 facet normal -0.228709 0.703897 0.672474
  outer loop
   vertex -0.020798 0.226632 -0.013634
   vertex -0.022899 0.22784 -0.015613
   vertex -0.023888 0.225628 -0.013634
  endloop
 endfacet
 facet normal -0.38541 0.704977 0.595371
  outer loop
   vertex -0.022899 0.22784 -0.015613
   vertex -0.025589 0.226567 -0.015847
   vertex -0.023888 0.225628 -0.013634
  endloop
 endfacet
 facet normal -0.508799 0.579247 0.636864
  outer loop
   vertex -0.023888 0.225628 -0.013634
   vertex -0.025589 0.226567 -0.015847
   vertex -0.026365 0.224179 -0.014295
  endloop
 endfacet
 facet normal -0.61533 0.560308 0.554459
  outer loop
   vertex -0.025589 0.226567 -0.015847
   vertex -0.027506 0.225007 -0.016398
   vertex -0.026365 0.224179 -0.014295
  endloop
 endfacet
 facet normal -0.156037 0 0.987751
  outer loop
   vertex -0.022302 0.221226 -0.011191
   vertex -0.022302 0.218274 -0.011191
   vertex -0.02027 0.21975 -0.01087
  endloop
 endfacet
 facet normal -0.370096 0.155752 0.915844
  outer loop
   vertex -0.024523 0.22284 -0.012363
   vertex -0.024742 0.21975 -0.011926
   vertex -0.022302 0.221226 -0.011191
  endloop
 endfacet
 facet normal -0.574948 0.304695 0.759339
  outer loop
   vertex -0.026365 0.224179 -0.014295
   vertex -0.026978 0.221375 -0.013634
   vertex -0.024523 0.22284 -0.012363
  endloop
 endfacet
 facet normal -0.288428 0 0.957502
  outer loop
   vertex -0.022302 0.221226 -0.011191
   vertex -0.024742 0.21975 -0.011926
   vertex -0.022302 0.218274 -0.011191
  endloop
 endfacet
 facet normal -0.370096 -0.155752 0.915844
  outer loop
   vertex -0.024742 0.21975 -0.011926
   vertex -0.024523 0.21666 -0.012363
   vertex -0.022302 0.218274 -0.011191
  endloop
 endfacet
 facet normal -0.525774 0.155534 0.836284
  outer loop
   vertex -0.024523 0.22284 -0.012363
   vertex -0.026978 0.221375 -0.013634
   vertex -0.024742 0.21975 -0.011926
  endloop
 endfacet
 facet normal -0.607028 0 0.794681
  outer loop
   vertex -0.026978 0.221375 -0.013634
   vertex -0.026978 0.218125 -0.013634
   vertex -0.024742 0.21975 -0.011926
  endloop
 endfacet
 facet normal -0.525774 -0.155534 0.836284
  outer loop
   vertex -0.024742 0.21975 -0.011926
   vertex -0.026978 0.218125 -0.013634
   vertex -0.024523 0.21666 -0.012363
  endloop
 endfacet
 facet normal -0.574948 -0.304695 0.759339
  outer loop
   vertex -0.026978 0.218125 -0.013634
   vertex -0.026365 0.215321 -0.014295
   vertex -0.024523 0.21666 -0.012363
  endloop
 endfacet
 facet normal -0.708089 0.304936 0.636886
  outer loop
   vertex -0.026365 0.224179 -0.014295
   vertex -0.028397 0.222702 -0.015847
   vertex -0.026978 0.221375 -0.013634
  endloop
 endfacet
 facet normal -0.789589 0.148568 0.59538
  outer loop
   vertex -0.028397 0.222702 -0.015847
   vertex -0.028776 0.21975 -0.015613
   vertex -0.026978 0.221375 -0.013634
  endloop
 endfacet
 facet normal -0.740143 0 0.672449
  outer loop
   vertex -0.026978 0.221375 -0.013634
   vertex -0.028776 0.21975 -0.015613
   vertex -0.026978 0.218125 -0.013634
  endloop
 endfacet
 facet normal -0.789589 -0.148568 0.59538
  outer loop
   vertex -0.028776 0.21975 -0.015613
   vertex -0.028397 0.216798 -0.015847
   vertex -0.026978 0.218125 -0.013634
  endloop
 endfacet
 facet normal -0.708089 -0.304936 0.636886
  outer loop
   vertex -0.026978 0.218125 -0.013634
   vertex -0.028397 0.216798 -0.015847
   vertex -0.026365 0.215321 -0.014295
  endloop
 endfacet
 facet normal -0.723015 -0.412034 0.554506
  outer loop
   vertex -0.028397 0.216798 -0.015847
   vertex -0.027506 0.214493 -0.016398
   vertex -0.026365 0.215321 -0.014295
  endloop
 endfacet
 facet normal -0.0482486 -0.148392 0.987751
  outer loop
   vertex -0.022302 0.218274 -0.011191
   vertex -0.019494 0.217361 -0.011191
   vertex -0.02027 0.21975 -0.01087
  endloop
 endfacet
 facet normal -0.262485 -0.303841 0.915851
  outer loop
   vertex -0.024523 0.21666 -0.012363
   vertex -0.021652 0.215497 -0.011926
   vertex -0.022302 0.218274 -0.011191
  endloop
 endfacet
 facet normal -0.467426 -0.452641 0.759361
  outer loop
   vertex -0.026365 0.215321 -0.014295
   vertex -0.023888 0.213872 -0.013634
   vertex -0.024523 0.21666 -0.012363
  endloop
 endfacet
 facet normal -0.0891868 -0.274301 0.957499
  outer loop
   vertex -0.022302 0.218274 -0.011191
   vertex -0.021652 0.215497 -0.011926
   vertex -0.019494 0.217361 -0.011191
  endloop
 endfacet
 facet normal 0.0336945 -0.400135 0.915836
  outer loop
   vertex -0.021652 0.215497 -0.011926
   vertex -0.018645 0.21475 -0.012363
   vertex -0.019494 0.217361 -0.011191
  endloop
 endfacet
 facet normal -0.310374 -0.451949 0.836307
  outer loop
   vertex -0.024523 0.21666 -0.012363
   vertex -0.023888 0.213872 -0.013634
   vertex -0.021652 0.215497 -0.011926
  endloop
 endfacet
 facet normal -0.187559 -0.577248 0.794737
  outer loop
   vertex -0.023888 0.213872 -0.013634
   vertex -0.020798 0.212868 -0.013634
   vertex -0.021652 0.215497 -0.011926
  endloop
 endfacet
 facet normal -0.0146149 -0.548074 0.836302
  outer loop
   vertex -0.021652 0.215497 -0.011926
   vertex -0.020798 0.212868 -0.013634
   vertex -0.018645 0.21475 -0.012363
  endloop
 endfacet
 facet normal 0.112009 -0.640965 0.759354
  outer loop
   vertex -0.020798 0.212868 -0.013634
   vertex -0.017942 0.212584 -0.014295
   vertex -0.018645 0.21475 -0.012363
  endloop
 endfacet
 facet normal -0.508799 -0.579247 0.636864
  outer loop
   vertex -0.026365 0.215321 -0.014295
   vertex -0.025589 0.212933 -0.015847
   vertex -0.023888 0.213872 -0.013634
  endloop
 endfacet
 facet normal -0.38541 -0.704977 0.595371
  outer loop
   vertex -0.025589 0.212933 -0.015847
   vertex -0.022899 0.21166 -0.015613
   vertex -0.023888 0.213872 -0.013634
  endloop
 endfacet
 facet normal -0.228709 -0.703897 0.672474
  outer loop
   vertex -0.023888 0.213872 -0.013634
   vertex -0.022899 0.21166 -0.015613
   vertex -0.020798 0.212868 -0.013634
  endloop
 endfacet
 facet normal -0.102735 -0.796801 0.595444
  outer loop
   vertex -0.022899 0.21166 -0.015613
   vertex -0.019974 0.211108 -0.015847
   vertex -0.020798 0.212868 -0.013634
  endloop
 endfacet
 facet normal 0.0710868 -0.767617 0.636955
  outer loop
   vertex -0.020798 0.212868 -0.013634
   vertex -0.019974 0.211108 -0.015847
   vertex -0.017942 0.212584 -0.014295
  endloop
 endfacet
 facet normal 0.168666 -0.815046 0.554303
  outer loop
   vertex -0.019974 0.211108 -0.015847
   vertex -0.017506 0.211244 -0.016398
   vertex -0.017942 0.212584 -0.014295
  endloop
 endfacet
 facet normal 0.126271 -0.0917039 0.987748
  outer loop
   vertex -0.019494 0.217361 -0.011191
   vertex -0.017759 0.21975 -0.011191
   vertex -0.02027 0.21975 -0.01087
  endloop
 endfacet
 facet normal 0.207851 -0.343516 0.915858
  outer loop
   vertex -0.018645 0.21475 -0.012363
   vertex -0.016652 0.217121 -0.011926
   vertex -0.019494 0.217361 -0.011191
  endloop
 endfacet
 facet normal 0.286233 -0.584386 0.759318
  outer loop
   vertex -0.017942 0.212584 -0.014295
   vertex -0.015798 0.214493 -0.013634
   vertex -0.018645 0.21475 -0.012363
  endloop
 endfacet
 facet normal 0.233325 -0.169451 0.957521
  outer loop
   vertex -0.019494 0.217361 -0.011191
   vertex -0.016652 0.217121 -0.011926
   vertex -0.017759 0.21975 -0.011191
  endloop
 endfacet
 facet normal 0.390899 -0.0914587 0.915878
  outer loop
   vertex -0.016652 0.217121 -0.011926
   vertex -0.015013 0.21975 -0.012363
   vertex -0.017759 0.21975 -0.011191
  endloop
 endfacet
 facet normal 0.334054 -0.43492 0.836213
  outer loop
   vertex -0.018645 0.21475 -0.012363
   vertex -0.015798 0.214493 -0.013634
   vertex -0.016652 0.217121 -0.011926
  endloop
 endfacet
 facet normal 0.491058 -0.356895 0.794662
  outer loop
   vertex -0.015798 0.214493 -0.013634
   vertex -0.013888 0.217121 -0.013634
   vertex -0.016652 0.217121 -0.011926
  endloop
 endfacet
 facet normal 0.516783 -0.183167 0.836293
  outer loop
   vertex -0.016652 0.217121 -0.011926
   vertex -0.013888 0.217121 -0.013634
   vertex -0.015013 0.21975 -0.012363
  endloop
 endfacet
 facet normal 0.644269 -0.0913996 0.759317
  outer loop
   vertex -0.013888 0.217121 -0.013634
   vertex -0.012736 0.21975 -0.014295
   vertex -0.015013 0.21975 -0.012363
  endloop
 endfacet
 facet normal 0.393627 -0.662685 0.637108
  outer loop
   vertex -0.017942 0.212584 -0.014295
   vertex -0.01543 0.212584 -0.015847
   vertex -0.015798 0.214493 -0.013634
  endloop
 endfacet
 facet normal 0.551379 -0.584158 0.595601
  outer loop
   vertex -0.01543 0.212584 -0.015847
   vertex -0.013388 0.21475 -0.015613
   vertex -0.015798 0.214493 -0.013634
  endloop
 endfacet
 facet normal 0.598657 -0.435097 0.672533
  outer loop
   vertex -0.015798 0.214493 -0.013634
   vertex -0.013388 0.21475 -0.015613
   vertex -0.013888 0.217121 -0.013634
  endloop
 endfacet
 facet normal 0.725985 -0.343961 0.595514
  outer loop
   vertex -0.013388 0.21475 -0.015613
   vertex -0.011959 0.217361 -0.015847
   vertex -0.013888 0.217121 -0.013634
  endloop
 endfacet
 facet normal 0.751958 -0.169318 0.637095
  outer loop
   vertex -0.013888 0.217121 -0.013634
   vertex -0.011959 0.217361 -0.015847
   vertex -0.012736 0.21975 -0.014295
  endloop
 endfacet
 facet normal 0.827124 -0.091254 0.554562
  outer loop
   vertex -0.011959 0.217361 -0.015847
   vertex -0.011326 0.21975 -0.016398
   vertex -0.012736 0.21975 -0.014295
  endloop
 endfacet
 facet normal 0.905177 0.147939 0.398459
  outer loop
   vertex -0.010704 0.221226 -0.018359
   vertex -0.011959 0.222139 -0.015847
   vertex -0.011326 0.21975 -0.016398
  endloop
 endfacet
 facet normal 0.93657 0.303801 0.17476
  outer loop
   vertex -0.010759 0.22284 -0.02087
   vertex -0.011652 0.224003 -0.018106
   vertex -0.010704 0.221226 -0.018359
  endloop
 endfacet
 facet normal 0.888212 0.452708 -0.078331
  outer loop
   vertex -0.011663 0.224179 -0.023382
   vertex -0.01218 0.225628 -0.02087
   vertex -0.010759 0.22284 -0.02087
  endloop
 endfacet
 facet normal 0.89641 0.274294 0.348155
  outer loop
   vertex -0.010704 0.221226 -0.018359
   vertex -0.011652 0.224003 -0.018106
   vertex -0.011959 0.222139 -0.015847
  endloop
 endfacet
 facet normal 0.803858 0.400541 0.439749
  outer loop
   vertex -0.011652 0.224003 -0.018106
   vertex -0.013388 0.22475 -0.015613
   vertex -0.011959 0.222139 -0.015847
  endloop
 endfacet
 facet normal 0.886806 0.451991 0.0963284
  outer loop
   vertex -0.010759 0.22284 -0.02087
   vertex -0.01218 0.225628 -0.02087
   vertex -0.011652 0.224003 -0.018106
  endloop
 endfacet
 facet normal 0.794662 0.577331 0.18762
  outer loop
   vertex -0.01218 0.225628 -0.02087
   vertex -0.013562 0.226632 -0.018106
   vertex -0.011652 0.224003 -0.018106
  endloop
 endfacet
 facet normal 0.754436 0.548107 0.361117
  outer loop
   vertex -0.011652 0.224003 -0.018106
   vertex -0.013562 0.226632 -0.018106
   vertex -0.013388 0.22475 -0.015613
  endloop
 endfacet
 facet normal 0.629279 0.640767 0.439803
  outer loop
   vertex -0.013562 0.226632 -0.018106
   vertex -0.01543 0.226916 -0.015847
   vertex -0.013388 0.22475 -0.015613
  endloop
 endfacet
 facet normal 0.797233 0.579229 -0.170037
  outer loop
   vertex -0.011663 0.224179 -0.023382
   vertex -0.013398 0.226567 -0.023382
   vertex -0.01218 0.225628 -0.02087
  endloop
 endfacet
 facet normal 0.704936 0.704936 -0.0782949
  outer loop
   vertex -0.013398 0.226567 -0.023382
   vertex -0.014392 0.22784 -0.02087
   vertex -0.01218 0.225628 -0.02087
  endloop
 endfacet
 facet normal 0.703824 0.703824 0.0962537
  outer loop
   vertex -0.01218 0.225628 -0.02087
   vertex -0.014392 0.22784 -0.02087
   vertex -0.013562 0.226632 -0.018106
  endloop
 endfacet
 facet normal 0.578519 0.796783 0.174509
  outer loop
   vertex -0.014392 0.22784 -0.02087
   vertex -0.01591 0.228392 -0.018358
   vertex -0.013562 0.226632 -0.018106
  endloop
 endfacet
 facet normal 0.537986 0.767602 0.348366
  outer loop
   vertex -0.013562 0.226632 -0.018106
   vertex -0.01591 0.228392 -0.018358
   vertex -0.01543 0.226916 -0.015847
  endloop
 endfacet
 facet normal 0.420269 0.815078 0.398776
  outer loop
   vertex -0.01591 0.228392 -0.018358
   vertex -0.017506 0.228256 -0.016398
   vertex -0.01543 0.226916 -0.015847
  endloop
 endfacet
 facet normal 0.138975 0.90647 0.398746
  outer loop
   vertex -0.018718 0.229304 -0.018358
   vertex -0.019974 0.228392 -0.015847
   vertex -0.017506 0.228256 -0.016398
  endloop
 endfacet
 facet normal 0.000555151 0.98466 0.174481
  outer loop
   vertex -0.02027 0.22975 -0.02087
   vertex -0.021652 0.229261 -0.018106
   vertex -0.018718 0.229304 -0.018358
  endloop
 endfacet
 facet normal -0.155824 0.984657 -0.07855
  outer loop
   vertex -0.021822 0.229304 -0.023382
   vertex -0.02336 0.229261 -0.02087
   vertex -0.02027 0.22975 -0.02087
  endloop
 endfacet
 facet normal 0.0161962 0.937175 0.348485
  outer loop
   vertex -0.018718 0.229304 -0.018358
   vertex -0.021652 0.229261 -0.018106
   vertex -0.019974 0.228392 -0.015847
  endloop
 endfacet
 facet normal -0.132412 0.888171 0.440021
  outer loop
   vertex -0.021652 0.229261 -0.018106
   vertex -0.022899 0.22784 -0.015613
   vertex -0.019974 0.228392 -0.015847
  endloop
 endfacet
 facet normal -0.155583 0.983133 0.0961419
  outer loop
   vertex -0.02027 0.22975 -0.02087
   vertex -0.02336 0.229261 -0.02087
   vertex -0.021652 0.229261 -0.018106
  endloop
 endfacet
 facet normal -0.303796 0.934059 0.187729
  outer loop
   vertex -0.02336 0.229261 -0.02087
   vertex -0.024742 0.228256 -0.018106
   vertex -0.021652 0.229261 -0.018106
  endloop
 endfacet
 facet normal -0.288415 0.886769 0.361189
  outer loop
   vertex -0.021652 0.229261 -0.018106
   vertex -0.024742 0.228256 -0.018106
   vertex -0.022899 0.22784 -0.015613
  endloop
 endfacet
 facet normal -0.415138 0.796394 0.439791
  outer loop
   vertex -0.024742 0.228256 -0.018106
   vertex -0.025589 0.226567 -0.015847
   vertex -0.022899 0.22784 -0.015613
  endloop
 endfacet
 facet normal -0.304389 0.937197 -0.170322
  outer loop
   vertex -0.021822 0.229304 -0.023382
   vertex -0.02463 0.228392 -0.023382
   vertex -0.02336 0.229261 -0.02087
  endloop
 endfacet
 facet normal -0.452705 0.888208 -0.0783901
  outer loop
   vertex -0.02463 0.228392 -0.023382
   vertex -0.026148 0.22784 -0.02087
   vertex -0.02336 0.229261 -0.02087
  endloop
 endfacet
 facet normal -0.451986 0.886796 0.0964489
  outer loop
   vertex -0.02336 0.229261 -0.02087
   vertex -0.026148 0.22784 -0.02087
   vertex -0.024742 0.228256 -0.018106
  endloop
 endfacet
 facet normal -0.578874 0.796508 0.174584
  outer loop
   vertex -0.026148 0.22784 -0.02087
   vertex -0.027142 0.226567 -0.018358
   vertex -0.024742 0.228256 -0.018106
  endloop
 endfacet
 facet normal -0.563623 0.748876 0.348589
  outer loop
   vertex -0.024742 0.228256 -0.018106
   vertex -0.027142 0.226567 -0.018358
   vertex -0.025589 0.226567 -0.015847
  endloop
 endfacet
 facet normal -0.645038 0.651744 0.398942
  outer loop
   vertex -0.027142 0.226567 -0.018358
   vertex -0.027506 0.225007 -0.016398
   vertex -0.025589 0.226567 -0.015847
  endloop
 endfacet
 facet normal -0.819189 0.412026 0.398954
  outer loop
   vertex -0.028877 0.224179 -0.018358
   vertex -0.028397 0.222702 -0.015847
   vertex -0.027506 0.225007 -0.016398
  endloop
 endfacet
 facet normal -0.936352 0.304548 0.174631
  outer loop
   vertex -0.029781 0.22284 -0.02087
   vertex -0.029742 0.221375 -0.018106
   vertex -0.028877 0.224179 -0.018358
  endloop
 endfacet
 facet normal -0.984653 0.155824 -0.0785916
  outer loop
   vertex -0.029836 0.221226 -0.023381
   vertex -0.03027 0.21975 -0.02087
   vertex -0.029781 0.22284 -0.02087
  endloop
 endfacet
 facet normal -0.886309 0.304753 0.348685
  outer loop
   vertex -0.028877 0.224179 -0.018358
   vertex -0.029742 0.221375 -0.018106
   vertex -0.028397 0.222702 -0.015847
  endloop
 endfacet
 facet normal -0.885615 0.148581 0.440011
  outer loop
   vertex -0.029742 0.221375 -0.018106
   vertex -0.028776 0.21975 -0.015613
   vertex -0.028397 0.222702 -0.015847
  endloop
 endfacet
 facet normal -0.983115 0.15558 0.0963335
  outer loop
   vertex -0.029781 0.22284 -0.02087
   vertex -0.03027 0.21975 -0.02087
   vertex -0.029742 0.221375 -0.018106
  endloop
 endfacet
 facet normal -0.982239 0 0.187634
  outer loop
   vertex -0.03027 0.21975 -0.02087
   vertex -0.029742 0.218125 -0.018106
   vertex -0.029742 0.221375 -0.018106
  endloop
 endfacet
 facet normal -0.932446 0 0.361309
  outer loop
   vertex -0.029742 0.221375 -0.018106
   vertex -0.029742 0.218125 -0.018106
   vertex -0.028776 0.21975 -0.015613
  endloop
 endfacet
 facet normal -0.885615 -0.148581 0.440011
  outer loop
   vertex -0.029742 0.218125 -0.018106
   vertex -0.028397 0.216798 -0.015847
   vertex -0.028776 0.21975 -0.015613
  endloop
 endfacet
 facet normal -0.98539 -0 -0.170314
  outer loop
   vertex -0.029836 0.221226 -0.023381
   vertex -0.029836 0.218274 -0.023381
   vertex -0.03027 0.21975 -0.02087
  endloop
 endfacet
 facet normal -0.984653 -0.155824 -0.0785916
  outer loop
   vertex -0.029836 0.218274 -0.023381
   vertex -0.029781 0.21666 -0.02087
   vertex -0.03027 0.21975 -0.02087
  endloop
 endfacet
 facet normal -0.983115 -0.15558 0.0963335
  outer loop
   vertex -0.03027 0.21975 -0.02087
   vertex -0.029781 0.21666 -0.02087
   vertex -0.029742 0.218125 -0.018106
  endloop
 endfacet
 facet normal -0.936352 -0.304548 0.174631
  outer loop
   vertex -0.029781 0.21666 -0.02087
   vertex -0.028877 0.215321 -0.018358
   vertex -0.029742 0.218125 -0.018106
  endloop
 endfacet
 facet normal -0.886309 -0.304753 0.348685
  outer loop
   vertex -0.029742 0.218125 -0.018106
   vertex -0.028877 0.215321 -0.018358
   vertex -0.028397 0.216798 -0.015847
  endloop
 endfacet
 facet normal -0.819189 -0.412026 0.398954
  outer loop
   vertex -0.028877 0.215321 -0.018358
   vertex -0.027506 0.214493 -0.016398
   vertex -0.028397 0.216798 -0.015847
  endloop
 endfacet
 facet normal -0.645038 -0.651744 0.398942
  outer loop
   vertex -0.027142 0.212933 -0.018358
   vertex -0.025589 0.212933 -0.015847
   vertex -0.027506 0.214493 -0.016398
  endloop
 endfacet
 facet normal -0.578874 -0.796508 0.174584
  outer loop
   vertex -0.026148 0.21166 -0.02087
   vertex -0.024742 0.211244 -0.018106
   vertex -0.027142 0.212933 -0.018358
  endloop
 endfacet
 facet normal -0.452705 -0.888208 -0.0783901
  outer loop
   vertex -0.02463 0.211108 -0.023382
   vertex -0.02336 0.210239 -0.02087
   vertex -0.026148 0.21166 -0.02087
  endloop
 endfacet
 facet normal -0.563623 -0.748876 0.348589
  outer loop
   vertex -0.027142 0.212933 -0.018358
   vertex -0.024742 0.211244 -0.018106
   vertex -0.025589 0.212933 -0.015847
  endloop
 endfacet
 facet normal -0.415138 -0.796394 0.439791
  outer loop
   vertex -0.024742 0.211244 -0.018106
   vertex -0.022899 0.21166 -0.015613
   vertex -0.025589 0.212933 -0.015847
  endloop
 endfacet
 facet normal -0.451986 -0.886796 0.0964489
  outer loop
   vertex -0.026148 0.21166 -0.02087
   vertex -0.02336 0.210239 -0.02087
   vertex -0.024742 0.211244 -0.018106
  endloop
 endfacet
 facet normal -0.303796 -0.934059 0.187729
  outer loop
   vertex -0.02336 0.210239 -0.02087
   vertex -0.021652 0.210239 -0.018106
   vertex -0.024742 0.211244 -0.018106
  endloop
 endfacet
 facet normal -0.288415 -0.886769 0.361189
  outer loop
   vertex -0.024742 0.211244 -0.018106
   vertex -0.021652 0.210239 -0.018106
   vertex -0.022899 0.21166 -0.015613
  endloop
 endfacet
 facet normal -0.132412 -0.888171 0.440021
  outer loop
   vertex -0.021652 0.210239 -0.018106
   vertex -0.019974 0.211108 -0.015847
   vertex -0.022899 0.21166 -0.015613
  endloop
 endfacet
 facet normal -0.304389 -0.937197 -0.170322
  outer loop
   vertex -0.02463 0.211108 -0.023382
   vertex -0.021822 0.210196 -0.023382
   vertex -0.02336 0.210239 -0.02087
  endloop
 endfacet
 facet normal -0.155824 -0.984657 -0.07855
  outer loop
   vertex -0.021822 0.210196 -0.023382
   vertex -0.02027 0.20975 -0.02087
   vertex -0.02336 0.210239 -0.02087
  endloop
 endfacet
 facet normal -0.155583 -0.983133 0.0961419
  outer loop
   vertex -0.02336 0.210239 -0.02087
   vertex -0.02027 0.20975 -0.02087
   vertex -0.021652 0.210239 -0.018106
  endloop
 endfacet
 facet normal 0.000555151 -0.98466 0.174481
  outer loop
   vertex -0.02027 0.20975 -0.02087
   vertex -0.018718 0.210196 -0.018358
   vertex -0.021652 0.210239 -0.018106
  endloop
 endfacet
 facet normal 0.0161962 -0.937175 0.348485
  outer loop
   vertex -0.021652 0.210239 -0.018106
   vertex -0.018718 0.210196 -0.018358
   vertex -0.019974 0.211108 -0.015847
  endloop
 endfacet
 facet normal 0.138975 -0.90647 0.398746
  outer loop
   vertex -0.018718 0.210196 -0.018358
   vertex -0.017506 0.211244 -0.016398
   vertex -0.019974 0.211108 -0.015847
  endloop
 endfacet
 facet normal 0.420269 -0.815078 0.398776
  outer loop
   vertex -0.01591 0.211108 -0.018358
   vertex -0.01543 0.212584 -0.015847
   vertex -0.017506 0.211244 -0.016398
  endloop
 endfacet
 facet normal 0.578519 -0.796783 0.174509
  outer loop
   vertex -0.014392 0.21166 -0.02087
   vertex -0.013562 0.212868 -0.018106
   vertex -0.01591 0.211108 -0.018358
  endloop
 endfacet
 facet normal 0.704936 -0.704936 -0.0782949
  outer loop
   vertex -0.013398 0.212933 -0.023382
   vertex -0.01218 0.213872 -0.02087
   vertex -0.014392 0.21166 -0.02087
  endloop
 endfacet
 facet normal 0.537986 -0.767602 0.348366
  outer loop
   vertex -0.01591 0.211108 -0.018358
   vertex -0.013562 0.212868 -0.018106
   vertex -0.01543 0.212584 -0.015847
  endloop
 endfacet
 facet normal 0.629279 -0.640767 0.439803
  outer loop
   vertex -0.013562 0.212868 -0.018106
   vertex -0.013388 0.21475 -0.015613
   vertex -0.01543 0.212584 -0.015847
  endloop
 endfacet
 facet normal 0.703824 -0.703824 0.0962537
  outer loop
   vertex -0.014392 0.21166 -0.02087
   vertex -0.01218 0.213872 -0.02087
   vertex -0.013562 0.212868 -0.018106
  endloop
 endfacet
 facet normal 0.794662 -0.577331 0.18762
  outer loop
   vertex -0.01218 0.213872 -0.02087
   vertex -0.011652 0.215497 -0.018106
   vertex -0.013562 0.212868 -0.018106
  endloop
 endfacet
 facet normal 0.754436 -0.548107 0.361117
  outer loop
   vertex -0.013562 0.212868 -0.018106
   vertex -0.011652 0.215497 -0.018106
   vertex -0.013388 0.21475 -0.015613
  endloop
 endfacet
 facet normal 0.803858 -0.400541 0.439749
  outer loop
   vertex -0.011652 0.215497 -0.018106
   vertex -0.011959 0.217361 -0.015847
   vertex -0.013388 0.21475 -0.015613
  endloop
 endfacet
 facet normal 0.797233 -0.579229 -0.170037
  outer loop
   vertex -0.013398 0.212933 -0.023382
   vertex -0.011663 0.215321 -0.023382
   vertex -0.01218 0.213872 -0.02087
  endloop
 endfacet
 facet normal 0.888212 -0.452708 -0.078331
  outer loop
   vertex -0.011663 0.215321 -0.023382
   vertex -0.010759 0.21666 -0.02087
   vertex -0.01218 0.213872 -0.02087
  endloop
 endfacet
 facet normal 0.886806 -0.451991 0.0963284
  outer loop
   vertex -0.01218 0.213872 -0.02087
   vertex -0.010759 0.21666 -0.02087
   vertex -0.011652 0.215497 -0.018106
  endloop
 endfacet
 facet normal 0.93657 -0.303801 0.17476
  outer loop
   vertex -0.010759 0.21666 -0.02087
   vertex -0.010704 0.218274 -0.018359
   vertex -0.011652 0.215497 -0.018106
  endloop
 endfacet
 facet normal 0.89641 -0.274294 0.348155
  outer loop
   vertex -0.011652 0.215497 -0.018106
   vertex -0.010704 0.218274 -0.018359
   vertex -0.011959 0.217361 -0.015847
  endloop
 endfacet
 facet normal 0.905177 -0.147939 0.398459
  outer loop
   vertex -0.010704 0.218274 -0.018359
   vertex -0.011326 0.21975 -0.016398
   vertex -0.011959 0.217361 -0.015847
  endloop
 endfacet
 facet normal 0.294416 0.906493 0.302638
  outer loop
   vertex -0.01591 0.228392 -0.018358
   vertex -0.018718 0.229304 -0.018358
   vertex -0.017506 0.228256 -0.016398
  endloop
 endfacet
 facet normal 0.452705 0.888208 0.0783901
  outer loop
   vertex -0.014392 0.22784 -0.02087
   vertex -0.01718 0.229261 -0.02087
   vertex -0.01591 0.228392 -0.018358
  endloop
 endfacet
 facet normal 0.578874 0.796508 -0.174584
  outer loop
   vertex -0.013398 0.226567 -0.023382
   vertex -0.015798 0.228256 -0.023634
   vertex -0.014392 0.22784 -0.02087
  endloop
 endfacet
 facet normal 0.304389 0.937197 0.170322
  outer loop
   vertex -0.01591 0.228392 -0.018358
   vertex -0.01718 0.229261 -0.02087
   vertex -0.018718 0.229304 -0.018358
  endloop
 endfacet
 facet normal 0.155824 0.984657 0.07855
  outer loop
   vertex -0.01718 0.229261 -0.02087
   vertex -0.02027 0.22975 -0.02087
   vertex -0.018718 0.229304 -0.018358
  endloop
 endfacet
 facet normal 0.451986 0.886796 -0.0964489
  outer loop
   vertex -0.014392 0.22784 -0.02087
   vertex -0.015798 0.228256 -0.023634
   vertex -0.01718 0.229261 -0.02087
  endloop
 endfacet
 facet normal 0.303796 0.934059 -0.187729
  outer loop
   vertex -0.015798 0.228256 -0.023634
   vertex -0.018888 0.229261 -0.023634
   vertex -0.01718 0.229261 -0.02087
  endloop
 endfacet
 facet normal 0.155583 0.983133 -0.0961419
  outer loop
   vertex -0.01718 0.229261 -0.02087
   vertex -0.018888 0.229261 -0.023634
   vertex -0.02027 0.22975 -0.02087
  endloop
 endfacet
 facet normal -0.000555151 0.98466 -0.174481
  outer loop
   vertex -0.018888 0.229261 -0.023634
   vertex -0.021822 0.229304 -0.023382
   vertex -0.02027 0.22975 -0.02087
  endloop
 endfacet
 facet normal 0.563623 0.748876 -0.348589
  outer loop
   vertex -0.013398 0.226567 -0.023382
   vertex -0.014951 0.226567 -0.025893
   vertex -0.015798 0.228256 -0.023634
  endloop
 endfacet
 facet normal 0.415138 0.796394 -0.439791
  outer loop
   vertex -0.014951 0.226567 -0.025893
   vertex -0.017641 0.22784 -0.026127
   vertex -0.015798 0.228256 -0.023634
  endloop
 endfacet
 facet normal 0.288415 0.886769 -0.361189
  outer loop
   vertex -0.015798 0.228256 -0.023634
   vertex -0.017641 0.22784 -0.026127
   vertex -0.018888 0.229261 -0.023634
  endloop
 endfacet
 facet normal 0.132412 0.888171 -0.440021
  outer loop
   vertex -0.017641 0.22784 -0.026127
   vertex -0.020566 0.228392 -0.025893
   vertex -0.018888 0.229261 -0.023634
  endloop
 endfacet
 facet normal -0.0161962 0.937175 -0.348485
  outer loop
   vertex -0.018888 0.229261 -0.023634
   vertex -0.020566 0.228392 -0.025893
   vertex -0.021822 0.229304 -0.023382
  endloop
 endfacet
 facet normal -0.138975 0.90647 -0.398746
  outer loop
   vertex -0.020566 0.228392 -0.025893
   vertex -0.023034 0.228256 -0.025342
   vertex -0.021822 0.229304 -0.023382
  endloop
 endfacet
 facet normal -0.771063 0.560215 0.302688
  outer loop
   vertex -0.027142 0.226567 -0.018358
   vertex -0.028877 0.224179 -0.018358
   vertex -0.027506 0.225007 -0.016398
  endloop
 endfacet
 facet normal -0.704936 0.704936 0.0782949
  outer loop
   vertex -0.026148 0.22784 -0.02087
   vertex -0.02836 0.225628 -0.02087
   vertex -0.027142 0.226567 -0.018358
  endloop
 endfacet
 facet normal -0.578519 0.796783 -0.174509
  outer loop
   vertex -0.02463 0.228392 -0.023382
   vertex -0.026978 0.226632 -0.023634
   vertex -0.026148 0.22784 -0.02087
  endloop
 endfacet
 facet normal -0.797233 0.579229 0.170037
  outer loop
   vertex -0.027142 0.226567 -0.018358
   vertex -0.02836 0.225628 -0.02087
   vertex -0.028877 0.224179 -0.018358
  endloop
 endfacet
 facet normal -0.888212 0.452708 0.078331
  outer loop
   vertex -0.02836 0.225628 -0.02087
   vertex -0.029781 0.22284 -0.02087
   vertex -0.028877 0.224179 -0.018358
  endloop
 endfacet
 facet normal -0.703824 0.703824 -0.0962537
  outer loop
   vertex -0.026148 0.22784 -0.02087
   vertex -0.026978 0.226632 -0.023634
   vertex -0.02836 0.225628 -0.02087
  endloop
 endfacet
 facet normal -0.794662 0.577331 -0.18762
  outer loop
   vertex -0.026978 0.226632 -0.023634
   vertex -0.028888 0.224003 -0.023634
   vertex -0.02836 0.225628 -0.02087
  endloop
 endfacet
 facet normal -0.886806 0.451991 -0.0963284
  outer loop
   vertex -0.02836 0.225628 -0.02087
   vertex -0.028888 0.224003 -0.023634
   vertex -0.029781 0.22284 -0.02087
  endloop
 endfacet
 facet normal -0.93657 0.303801 -0.17476
  outer loop
   vertex -0.028888 0.224003 -0.023634
   vertex -0.029836 0.221226 -0.023381
   vertex -0.029781 0.22284 -0.02087
  endloop
 endfacet
 facet normal -0.537986 0.767602 -0.348366
  outer loop
   vertex -0.02463 0.228392 -0.023382
   vertex -0.02511 0.226916 -0.025893
   vertex -0.026978 0.226632 -0.023634
  endloop
 endfacet
 facet normal -0.629279 0.640767 -0.439803
  outer loop
   vertex -0.02511 0.226916 -0.025893
   vertex -0.027152 0.22475 -0.026127
   vertex -0.026978 0.226632 -0.023634
  endloop
 endfacet
 facet normal -0.754436 0.548107 -0.361117
  outer loop
   vertex -0.026978 0.226632 -0.023634
   vertex -0.027152 0.22475 -0.026127
   vertex -0.028888 0.224003 -0.023634
  endloop
 endfacet
 facet normal -0.803858 0.400541 -0.439749
  outer loop
   vertex -0.027152 0.22475 -0.026127
   vertex -0.028581 0.222139 -0.025893
   vertex -0.028888 0.224003 -0.023634
  endloop
 endfacet
 facet normal -0.89641 0.274294 -0.348155
  outer loop
   vertex -0.028888 0.224003 -0.023634
   vertex -0.028581 0.222139 -0.025893
   vertex -0.029836 0.221226 -0.023381
  endloop
 endfacet
 facet normal -0.905177 0.147939 -0.398459
  outer loop
   vertex -0.028581 0.222139 -0.025893
   vertex -0.029214 0.21975 -0.025342
   vertex -0.029836 0.221226 -0.023381
  endloop
 endfacet
 facet normal -0.771063 -0.560215 0.302688
  outer loop
   vertex -0.028877 0.215321 -0.018358
   vertex -0.027142 0.212933 -0.018358
   vertex -0.027506 0.214493 -0.016398
  endloop
 endfacet
 facet normal -0.888212 -0.452708 0.078331
  outer loop
   vertex -0.029781 0.21666 -0.02087
   vertex -0.02836 0.213872 -0.02087
   vertex -0.028877 0.215321 -0.018358
  endloop
 endfacet
 facet normal -0.93657 -0.303801 -0.17476
  outer loop
   vertex -0.029836 0.218274 -0.023381
   vertex -0.028888 0.215497 -0.023634
   vertex -0.029781 0.21666 -0.02087
  endloop
 endfacet
 facet normal -0.797233 -0.579229 0.170037
  outer loop
   vertex -0.028877 0.215321 -0.018358
   vertex -0.02836 0.213872 -0.02087
   vertex -0.027142 0.212933 -0.018358
  endloop
 endfacet
 facet normal -0.704936 -0.704936 0.0782949
  outer loop
   vertex -0.02836 0.213872 -0.02087
   vertex -0.026148 0.21166 -0.02087
   vertex -0.027142 0.212933 -0.018358
  endloop
 endfacet
 facet normal -0.886806 -0.451991 -0.0963284
  outer loop
   vertex -0.029781 0.21666 -0.02087
   vertex -0.028888 0.215497 -0.023634
   vertex -0.02836 0.213872 -0.02087
  endloop
 endfacet
 facet normal -0.794662 -0.577331 -0.18762
  outer loop
   vertex -0.028888 0.215497 -0.023634
   vertex -0.026978 0.212868 -0.023634
   vertex -0.02836 0.213872 -0.02087
  endloop
 endfacet
 facet normal -0.703824 -0.703824 -0.0962537
  outer loop
   vertex -0.02836 0.213872 -0.02087
   vertex -0.026978 0.212868 -0.023634
   vertex -0.026148 0.21166 -0.02087
  endloop
 endfacet
 facet normal -0.578519 -0.796783 -0.174509
  outer loop
   vertex -0.026978 0.212868 -0.023634
   vertex -0.02463 0.211108 -0.023382
   vertex -0.026148 0.21166 -0.02087
  endloop
 endfacet
 facet normal -0.89641 -0.274294 -0.348155
  outer loop
   vertex -0.029836 0.218274 -0.023381
   vertex -0.028581 0.217361 -0.025893
   vertex -0.028888 0.215497 -0.023634
  endloop
 endfacet
 facet normal -0.803858 -0.400541 -0.439749
  outer loop
   vertex -0.028581 0.217361 -0.025893
   vertex -0.027152 0.21475 -0.026127
   vertex -0.028888 0.215497 -0.023634
  endloop
 endfacet
 facet normal -0.754436 -0.548107 -0.361117
  outer loop
   vertex -0.028888 0.215497 -0.023634
   vertex -0.027152 0.21475 -0.026127
   vertex -0.026978 0.212868 -0.023634
  endloop
 endfacet
 facet normal -0.629279 -0.640767 -0.439803
  outer loop
   vertex -0.027152 0.21475 -0.026127
   vertex -0.02511 0.212584 -0.025893
   vertex -0.026978 0.212868 -0.023634
  endloop
 endfacet
 facet normal -0.537986 -0.767602 -0.348366
  outer loop
   vertex -0.026978 0.212868 -0.023634
   vertex -0.02511 0.212584 -0.025893
   vertex -0.02463 0.211108 -0.023382
  endloop
 endfacet
 facet normal -0.420269 -0.815078 -0.398776
  outer loop
   vertex -0.02511 0.212584 -0.025893
   vertex -0.023034 0.211244 -0.025342
   vertex -0.02463 0.211108 -0.023382
  endloop
 endfacet
 facet normal 0.294416 -0.906493 0.302638
  outer loop
   vertex -0.018718 0.210196 -0.018358
   vertex -0.01591 0.211108 -0.018358
   vertex -0.017506 0.211244 -0.016398
  endloop
 endfacet
 facet normal 0.155824 -0.984657 0.07855
  outer loop
   vertex -0.02027 0.20975 -0.02087
   vertex -0.01718 0.210239 -0.02087
   vertex -0.018718 0.210196 -0.018358
  endloop
 endfacet
 facet normal -0.000555151 -0.98466 -0.174481
  outer loop
   vertex -0.021822 0.210196 -0.023382
   vertex -0.018888 0.210239 -0.023634
   vertex -0.02027 0.20975 -0.02087
  endloop
 endfacet
 facet normal 0.304389 -0.937197 0.170322
  outer loop
   vertex -0.018718 0.210196 -0.018358
   vertex -0.01718 0.210239 -0.02087
   vertex -0.01591 0.211108 -0.018358
  endloop
 endfacet
 facet normal 0.452705 -0.888208 0.0783901
  outer loop
   vertex -0.01718 0.210239 -0.02087
   vertex -0.014392 0.21166 -0.02087
   vertex -0.01591 0.211108 -0.018358
  endloop
 endfacet
 facet normal 0.155583 -0.983133 -0.0961419
  outer loop
   vertex -0.02027 0.20975 -0.02087
   vertex -0.018888 0.210239 -0.023634
   vertex -0.01718 0.210239 -0.02087
  endloop
 endfacet
 facet normal 0.303796 -0.934059 -0.187729
  outer loop
   vertex -0.018888 0.210239 -0.023634
   vertex -0.015798 0.211244 -0.023634
   vertex -0.01718 0.210239 -0.02087
  endloop
 endfacet
 facet normal 0.451986 -0.886796 -0.0964489
  outer loop
   vertex -0.01718 0.210239 -0.02087
   vertex -0.015798 0.211244 -0.023634
   vertex -0.014392 0.21166 -0.02087
  endloop
 endfacet
 facet normal 0.578874 -0.796508 -0.174584
  outer loop
   vertex -0.015798 0.211244 -0.023634
   vertex -0.013398 0.212933 -0.023382
   vertex -0.014392 0.21166 -0.02087
  endloop
 endfacet
 facet normal -0.0161962 -0.937175 -0.348485
  outer loop
   vertex -0.021822 0.210196 -0.023382
   vertex -0.020566 0.211108 -0.025893
   vertex -0.018888 0.210239 -0.023634
  endloop
 endfacet
 facet normal 0.132412 -0.888171 -0.440021
  outer loop
   vertex -0.020566 0.211108 -0.025893
   vertex -0.017641 0.21166 -0.026127
   vertex -0.018888 0.210239 -0.023634
  endloop
 endfacet
 facet normal 0.288415 -0.886769 -0.361189
  outer loop
   vertex -0.018888 0.210239 -0.023634
   vertex -0.017641 0.21166 -0.026127
   vertex -0.015798 0.211244 -0.023634
  endloop
 endfacet
 facet normal 0.415138 -0.796394 -0.439791
  outer loop
   vertex -0.017641 0.21166 -0.026127
   vertex -0.014951 0.212933 -0.025893
   vertex -0.015798 0.211244 -0.023634
  endloop
 endfacet
 facet normal 0.563623 -0.748876 -0.348589
  outer loop
   vertex -0.015798 0.211244 -0.023634
   vertex -0.014951 0.212933 -0.025893
   vertex -0.013398 0.212933 -0.023382
  endloop
 endfacet
 facet normal 0.645038 -0.651744 -0.398942
  outer loop
   vertex -0.014951 0.212933 -0.025893
   vertex -0.013034 0.214493 -0.025342
   vertex -0.013398 0.212933 -0.023382
  endloop
 endfacet
 facet normal 0.9532 -0 0.302341
  outer loop
   vertex -0.010704 0.218274 -0.018359
   vertex -0.010704 0.221226 -0.018359
   vertex -0.011326 0.21975 -0.016398
  endloop
 endfacet
 facet normal 0.984653 -0.155824 0.0785916
  outer loop
   vertex -0.010759 0.21666 -0.02087
   vertex -0.01027 0.21975 -0.02087
   vertex -0.010704 0.218274 -0.018359
  endloop
 endfacet
 facet normal 0.936352 -0.304548 -0.174631
  outer loop
   vertex -0.011663 0.215321 -0.023382
   vertex -0.010798 0.218125 -0.023634
   vertex -0.010759 0.21666 -0.02087
  endloop
 endfacet
 facet normal 0.98539 -0 0.170314
  outer loop
   vertex -0.010704 0.218274 -0.018359
   vertex -0.01027 0.21975 -0.02087
   vertex -0.010704 0.221226 -0.018359
  endloop
 endfacet
 facet normal 0.984653 0.155824 0.0785916
  outer loop
   vertex -0.01027 0.21975 -0.02087
   vertex -0.010759 0.22284 -0.02087
   vertex -0.010704 0.221226 -0.018359
  endloop
 endfacet
 facet normal 0.983115 -0.15558 -0.0963335
  outer loop
   vertex -0.010759 0.21666 -0.02087
   vertex -0.010798 0.218125 -0.023634
   vertex -0.01027 0.21975 -0.02087
  endloop
 endfacet
 facet normal 0.982239 0 -0.187634
  outer loop
   vertex -0.010798 0.218125 -0.023634
   vertex -0.010798 0.221375 -0.023634
   vertex -0.01027 0.21975 -0.02087
  endloop
 endfacet
 facet normal 0.983115 0.15558 -0.0963335
  outer loop
   vertex -0.01027 0.21975 -0.02087
   vertex -0.010798 0.221375 -0.023634
   vertex -0.010759 0.22284 -0.02087
  endloop
 endfacet
 facet normal 0.936352 0.304548 -0.174631
  outer loop
   vertex -0.010798 0.221375 -0.023634
   vertex -0.011663 0.224179 -0.023382
   vertex -0.010759 0.22284 -0.02087
  endloop
 endfacet
 facet normal 0.886309 -0.304753 -0.348685
  outer loop
   vertex -0.011663 0.215321 -0.023382
   vertex -0.012143 0.216798 -0.025893
   vertex -0.010798 0.218125 -0.023634
  endloop
 endfacet
 facet normal 0.885615 -0.148581 -0.440011
  outer loop
   vertex -0.012143 0.216798 -0.025893
   vertex -0.011764 0.21975 -0.026127
   vertex -0.010798 0.218125 -0.023634
  endloop
 endfacet
 facet normal 0.932446 0 -0.361309
  outer loop
   vertex -0.010798 0.218125 -0.023634
   vertex -0.011764 0.21975 -0.026127
   vertex -0.010798 0.221375 -0.023634
  endloop
 endfacet
 facet normal 0.885615 0.148581 -0.440011
  outer loop
   vertex -0.011764 0.21975 -0.026127
   vertex -0.012143 0.222702 -0.025893
   vertex -0.010798 0.221375 -0.023634
  endloop
 endfacet
 facet normal 0.886309 0.304753 -0.348685
  outer loop
   vertex -0.010798 0.221375 -0.023634
   vertex -0.012143 0.222702 -0.025893
   vertex -0.011663 0.224179 -0.023382
  endloop
 endfacet
 facet normal 0.819189 0.412026 -0.398954
  outer loop
   vertex -0.012143 0.222702 -0.025893
   vertex -0.013034 0.225007 -0.025342
   vertex -0.011663 0.224179 -0.023382
  endloop
 endfacet
 facet normal 0.61533 0.560308 -0.554459
  outer loop
   vertex -0.014175 0.224179 -0.027445
   vertex -0.014951 0.226567 -0.025893
   vertex -0.013034 0.225007 -0.025342
  endloop
 endfacet
 facet normal 0.467426 0.452641 -0.759361
  outer loop
   vertex -0.016017 0.22284 -0.029377
   vertex -0.016652 0.225628 -0.028106
   vertex -0.014175 0.224179 -0.027445
  endloop
 endfacet
 facet normal 0.262485 0.303841 -0.915851
  outer loop
   vertex -0.018238 0.221226 -0.030549
   vertex -0.018888 0.224003 -0.029814
   vertex -0.016017 0.22284 -0.029377
  endloop
 endfacet
 facet normal 0.508799 0.579247 -0.636864
  outer loop
   vertex -0.014175 0.224179 -0.027445
   vertex -0.016652 0.225628 -0.028106
   vertex -0.014951 0.226567 -0.025893
  endloop
 endfacet
 facet normal 0.38541 0.704977 -0.595371
  outer loop
   vertex -0.016652 0.225628 -0.028106
   vertex -0.017641 0.22784 -0.026127
   vertex -0.014951 0.226567 -0.025893
  endloop
 endfacet
 facet normal 0.310374 0.451949 -0.836307
  outer loop
   vertex -0.016017 0.22284 -0.029377
   vertex -0.018888 0.224003 -0.029814
   vertex -0.016652 0.225628 -0.028106
  endloop
 endfacet
 facet normal 0.187559 0.577248 -0.794737
  outer loop
   vertex -0.018888 0.224003 -0.029814
   vertex -0.019742 0.226632 -0.028106
   vertex -0.016652 0.225628 -0.028106
  endloop
 endfacet
 facet normal 0.228709 0.703897 -0.672474
  outer loop
   vertex -0.016652 0.225628 -0.028106
   vertex -0.019742 0.226632 -0.028106
   vertex -0.017641 0.22784 -0.026127
  endloop
 endfacet
 facet normal 0.102735 0.796801 -0.595444
  outer loop
   vertex -0.019742 0.226632 -0.028106
   vertex -0.020566 0.228392 -0.025893
   vertex -0.017641 0.22784 -0.026127
  endloop
 endfacet
 facet normal 0.0891868 0.274301 -0.957499
  outer loop
   vertex -0.018238 0.221226 -0.030549
   vertex -0.021046 0.222139 -0.030549
   vertex -0.018888 0.224003 -0.029814
  endloop
 endfacet
 facet normal -0.0336945 0.400135 -0.915836
  outer loop
   vertex -0.021046 0.222139 -0.030549
   vertex -0.021895 0.22475 -0.029377
   vertex -0.018888 0.224003 -0.029814
  endloop
 endfacet
 facet normal 0.0146149 0.548074 -0.836302
  outer loop
   vertex -0.018888 0.224003 -0.029814
   vertex -0.021895 0.22475 -0.029377
   vertex -0.019742 0.226632 -0.028106
  endloop
 endfacet
 facet normal -0.112009 0.640965 -0.759354
  outer loop
   vertex -0.021895 0.22475 -0.029377
   vertex -0.022598 0.226916 -0.027445
   vertex -0.019742 0.226632 -0.028106
  endloop
 endfacet
 facet normal -0.0710868 0.767617 -0.636955
  outer loop
   vertex -0.019742 0.226632 -0.028106
   vertex -0.022598 0.226916 -0.027445
   vertex -0.020566 0.228392 -0.025893
  endloop
 endfacet
 facet normal -0.168666 0.815046 -0.554303
  outer loop
   vertex -0.022598 0.226916 -0.027445
   vertex -0.023034 0.228256 -0.025342
   vertex -0.020566 0.228392 -0.025893
  endloop
 endfacet
 facet normal -0.342493 0.758552 -0.554344
  outer loop
   vertex -0.022598 0.226916 -0.027445
   vertex -0.02511 0.226916 -0.025893
   vertex -0.023034 0.228256 -0.025342
  endloop
 endfacet
 facet normal -0.286233 0.584386 -0.759318
  outer loop
   vertex -0.021895 0.22475 -0.029377
   vertex -0.024742 0.225007 -0.028106
   vertex -0.022598 0.226916 -0.027445
  endloop
 endfacet
 facet normal -0.207851 0.343516 -0.915858
  outer loop
   vertex -0.021046 0.222139 -0.030549
   vertex -0.023888 0.222379 -0.029814
   vertex -0.021895 0.22475 -0.029377
  endloop
 endfacet
 facet normal -0.393627 0.662685 -0.637108
  outer loop
   vertex -0.022598 0.226916 -0.027445
   vertex -0.024742 0.225007 -0.028106
   vertex -0.02511 0.226916 -0.025893
  endloop
 endfacet
 facet normal -0.551379 0.584158 -0.595601
  outer loop
   vertex -0.024742 0.225007 -0.028106
   vertex -0.027152 0.22475 -0.026127
   vertex -0.02511 0.226916 -0.025893
  endloop
 endfacet
 facet normal -0.334054 0.43492 -0.836213
  outer loop
   vertex -0.021895 0.22475 -0.029377
   vertex -0.023888 0.222379 -0.029814
   vertex -0.024742 0.225007 -0.028106
  endloop
 endfacet
 facet normal -0.491058 0.356895 -0.794662
  outer loop
   vertex -0.023888 0.222379 -0.029814
   vertex -0.026652 0.222379 -0.028106
   vertex -0.024742 0.225007 -0.028106
  endloop
 endfacet
 facet normal -0.598657 0.435097 -0.672533
  outer loop
   vertex -0.024742 0.225007 -0.028106
   vertex -0.026652 0.222379 -0.028106
   vertex -0.027152 0.22475 -0.026127
  endloop
 endfacet
 facet normal -0.725985 0.343961 -0.595514
  outer loop
   vertex -0.026652 0.222379 -0.028106
   vertex -0.028581 0.222139 -0.025893
   vertex -0.027152 0.22475 -0.026127
  endloop
 endfacet
 facet normal -0.233325 0.169451 -0.957521
  outer loop
   vertex -0.021046 0.222139 -0.030549
   vertex -0.022781 0.21975 -0.030549
   vertex -0.023888 0.222379 -0.029814
  endloop
 endfacet
 facet normal -0.390899 0.0914587 -0.915878
  outer loop
   vertex -0.022781 0.21975 -0.030549
   vertex -0.025527 0.21975 -0.029377
   vertex -0.023888 0.222379 -0.029814
  endloop
 endfacet
 facet normal -0.516783 0.183167 -0.836293
  outer loop
   vertex -0.023888 0.222379 -0.029814
   vertex -0.025527 0.21975 -0.029377
   vertex -0.026652 0.222379 -0.028106
  endloop
 endfacet
 facet normal -0.644269 0.0913996 -0.759317
  outer loop
   vertex -0.025527 0.21975 -0.029377
   vertex -0.027804 0.21975 -0.027445
   vertex -0.026652 0.222379 -0.028106
  endloop
 endfacet
 facet normal -0.751958 0.169318 -0.637095
  outer loop
   vertex -0.026652 0.222379 -0.028106
   vertex -0.027804 0.21975 -0.027445
   vertex -0.028581 0.222139 -0.025893
  endloop
 endfacet
 facet normal -0.827124 0.091254 -0.554562
  outer loop
   vertex -0.027804 0.21975 -0.027445
   vertex -0.029214 0.21975 -0.025342
   vertex -0.028581 0.222139 -0.025893
  endloop
 endfacet
 facet normal -0.827124 -0.091254 -0.554562
  outer loop
   vertex -0.027804 0.21975 -0.027445
   vertex -0.028581 0.217361 -0.025893
   vertex -0.029214 0.21975 -0.025342
  endloop
 endfacet
 facet normal -0.644269 -0.0913996 -0.759317
  outer loop
   vertex -0.025527 0.21975 -0.029377
   vertex -0.026652 0.217121 -0.028106
   vertex -0.027804 0.21975 -0.027445
  endloop
 endfacet
 facet normal -0.390899 -0.0914587 -0.915878
  outer loop
   vertex -0.022781 0.21975 -0.030549
   vertex -0.023888 0.217121 -0.029814
   vertex -0.025527 0.21975 -0.029377
  endloop
 endfacet
 facet normal -0.751958 -0.169318 -0.637095
  outer loop
   vertex -0.027804 0.21975 -0.027445
   vertex -0.026652 0.217121 -0.028106
   vertex -0.028581 0.217361 -0.025893
  endloop
 endfacet
 facet normal -0.725985 -0.343961 -0.595514
  outer loop
   vertex -0.026652 0.217121 -0.028106
   vertex -0.027152 0.21475 -0.026127
   vertex -0.028581 0.217361 -0.025893
  endloop
 endfacet
 facet normal -0.516783 -0.183167 -0.836293
  outer loop
   vertex -0.025527 0.21975 -0.029377
   vertex -0.023888 0.217121 -0.029814
   vertex -0.026652 0.217121 -0.028106
  endloop
 endfacet
 facet normal -0.491058 -0.356895 -0.794662
  outer loop
   vertex -0.023888 0.217121 -0.029814
   vertex -0.024742 0.214493 -0.028106
   vertex -0.026652 0.217121 -0.028106
  endloop
 endfacet
 facet normal -0.598657 -0.435097 -0.672533
  outer loop
   vertex -0.026652 0.217121 -0.028106
   vertex -0.024742 0.214493 -0.028106
   vertex -0.027152 0.21475 -0.026127
  endloop
 endfacet
 facet normal -0.551379 -0.584158 -0.595601
  outer loop
   vertex -0.024742 0.214493 -0.028106
   vertex -0.02511 0.212584 -0.025893
   vertex -0.027152 0.21475 -0.026127
  endloop
 endfacet
 facet normal -0.233325 -0.169451 -0.957521
  outer loop
   vertex -0.022781 0.21975 -0.030549
   vertex -0.021046 0.217361 -0.030549
   vertex -0.023888 0.217121 -0.029814
  endloop
 endfacet
 facet normal -0.207851 -0.343516 -0.915858
  outer loop
   vertex -0.021046 0.217361 -0.030549
   vertex -0.021895 0.21475 -0.029377
   vertex -0.023888 0.217121 -0.029814
  endloop
 endfacet
 facet normal -0.334054 -0.43492 -0.836213
  outer loop
   vertex -0.023888 0.217121 -0.029814
   vertex -0.021895 0.21475 -0.029377
   vertex -0.024742 0.214493 -0.028106
  endloop
 endfacet
 facet normal -0.286233 -0.584386 -0.759318
  outer loop
   vertex -0.021895 0.21475 -0.029377
   vertex -0.022598 0.212584 -0.027445
   vertex -0.024742 0.214493 -0.028106
  endloop
 endfacet
 facet normal -0.393627 -0.662685 -0.637108
  outer loop
   vertex -0.024742 0.214493 -0.028106
   vertex -0.022598 0.212584 -0.027445
   vertex -0.02511 0.212584 -0.025893
  endloop
 endfacet
 facet normal -0.342493 -0.758552 -0.554344
  outer loop
   vertex -0.022598 0.212584 -0.027445
   vertex -0.023034 0.211244 -0.025342
   vertex -0.02511 0.212584 -0.025893
  endloop
 endfacet
 facet normal 0.723015 0.412034 -0.554506
  outer loop
   vertex -0.012143 0.222702 -0.025893
   vertex -0.014175 0.224179 -0.027445
   vertex -0.013034 0.225007 -0.025342
  endloop
 endfacet
 facet normal 0.789589 0.148568 -0.59538
  outer loop
   vertex -0.011764 0.21975 -0.026127
   vertex -0.013562 0.221375 -0.028106
   vertex -0.012143 0.222702 -0.025893
  endloop
 endfacet
 facet normal 0.789589 -0.148568 -0.59538
  outer loop
   vertex -0.012143 0.216798 -0.025893
   vertex -0.013562 0.218125 -0.028106
   vertex -0.011764 0.21975 -0.026127
  endloop
 endfacet
 facet normal 0.708089 0.304936 -0.636886
  outer loop
   vertex -0.012143 0.222702 -0.025893
   vertex -0.013562 0.221375 -0.028106
   vertex -0.014175 0.224179 -0.027445
  endloop
 endfacet
 facet normal 0.574948 0.304695 -0.759339
  outer loop
   vertex -0.013562 0.221375 -0.028106
   vertex -0.016017 0.22284 -0.029377
   vertex -0.014175 0.224179 -0.027445
  endloop
 endfacet
 facet normal 0.740143 0 -0.672449
  outer loop
   vertex -0.011764 0.21975 -0.026127
   vertex -0.013562 0.218125 -0.028106
   vertex -0.013562 0.221375 -0.028106
  endloop
 endfacet
 facet normal 0.607028 0 -0.794681
  outer loop
   vertex -0.013562 0.218125 -0.028106
   vertex -0.015798 0.21975 -0.029814
   vertex -0.013562 0.221375 -0.028106
  endloop
 endfacet
 facet normal 0.525774 0.155534 -0.836284
  outer loop
   vertex -0.013562 0.221375 -0.028106
   vertex -0.015798 0.21975 -0.029814
   vertex -0.016017 0.22284 -0.029377
  endloop
 endfacet
 facet normal 0.370096 0.155752 -0.915844
  outer loop
   vertex -0.015798 0.21975 -0.029814
   vertex -0.018238 0.221226 -0.030549
   vertex -0.016017 0.22284 -0.029377
  endloop
 endfacet
 facet normal 0.708089 -0.304936 -0.636886
  outer loop
   vertex -0.012143 0.216798 -0.025893
   vertex -0.014175 0.215321 -0.027445
   vertex -0.013562 0.218125 -0.028106
  endloop
 endfacet
 facet normal 0.574948 -0.304695 -0.759339
  outer loop
   vertex -0.014175 0.215321 -0.027445
   vertex -0.016017 0.21666 -0.029377
   vertex -0.013562 0.218125 -0.028106
  endloop
 endfacet
 facet normal 0.525774 -0.155534 -0.836284
  outer loop
   vertex -0.013562 0.218125 -0.028106
   vertex -0.016017 0.21666 -0.029377
   vertex -0.015798 0.21975 -0.029814
  endloop
 endfacet
 facet normal 0.370096 -0.155752 -0.915844
  outer loop
   vertex -0.016017 0.21666 -0.029377
   vertex -0.018238 0.218274 -0.030549
   vertex -0.015798 0.21975 -0.029814
  endloop
 endfacet
 facet normal 0.288428 0 -0.957502
  outer loop
   vertex -0.015798 0.21975 -0.029814
   vertex -0.018238 0.218274 -0.030549
   vertex -0.018238 0.221226 -0.030549
  endloop
 endfacet
 facet normal 0.156037 0 -0.987751
  outer loop
   vertex -0.018238 0.218274 -0.030549
   vertex -0.02027 0.21975 -0.03087
   vertex -0.018238 0.221226 -0.030549
  endloop
 endfacet
 facet normal -0.168666 -0.815046 -0.554303
  outer loop
   vertex -0.022598 0.212584 -0.027445
   vertex -0.020566 0.211108 -0.025893
   vertex -0.023034 0.211244 -0.025342
  endloop
 endfacet
 facet normal -0.112009 -0.640965 -0.759354
  outer loop
   vertex -0.021895 0.21475 -0.029377
   vertex -0.019742 0.212868 -0.028106
   vertex -0.022598 0.212584 -0.027445
  endloop
 endfacet
 facet normal -0.0336945 -0.400135 -0.915836
  outer loop
   vertex -0.021046 0.217361 -0.030549
   vertex -0.018888 0.215497 -0.029814
   vertex -0.021895 0.21475 -0.029377
  endloop
 endfacet
 facet normal -0.0710868 -0.767617 -0.636955
  outer loop
   vertex -0.022598 0.212584 -0.027445
   vertex -0.019742 0.212868 -0.028106
   vertex -0.020566 0.211108 -0.025893
  endloop
 endfacet
 facet normal 0.102735 -0.796801 -0.595444
  outer loop
   vertex -0.019742 0.212868 -0.028106
   vertex -0.017641 0.21166 -0.026127
   vertex -0.020566 0.211108 -0.025893
  endloop
 endfacet
 facet normal 0.0146149 -0.548074 -0.836302
  outer loop
   vertex -0.021895 0.21475 -0.029377
   vertex -0.018888 0.215497 -0.029814
   vertex -0.019742 0.212868 -0.028106
  endloop
 endfacet
 facet normal 0.187559 -0.577248 -0.794737
  outer loop
   vertex -0.018888 0.215497 -0.029814
   vertex -0.016652 0.213872 -0.028106
   vertex -0.019742 0.212868 -0.028106
  endloop
 endfacet
 facet normal 0.228709 -0.703897 -0.672474
  outer loop
   vertex -0.019742 0.212868 -0.028106
   vertex -0.016652 0.213872 -0.028106
   vertex -0.017641 0.21166 -0.026127
  endloop
 endfacet
 facet normal 0.38541 -0.704977 -0.595371
  outer loop
   vertex -0.016652 0.213872 -0.028106
   vertex -0.014951 0.212933 -0.025893
   vertex -0.017641 0.21166 -0.026127
  endloop
 endfacet
 facet normal 0.0891868 -0.274301 -0.957499
  outer loop
   vertex -0.021046 0.217361 -0.030549
   vertex -0.018238 0.218274 -0.030549
   vertex -0.018888 0.215497 -0.029814
  endloop
 endfacet
 facet normal 0.262485 -0.303841 -0.915851
  outer loop
   vertex -0.018238 0.218274 -0.030549
   vertex -0.016017 0.21666 -0.029377
   vertex -0.018888 0.215497 -0.029814
  endloop
 endfacet
 facet normal 0.310374 -0.451949 -0.836307
  outer loop
   vertex -0.018888 0.215497 -0.029814
   vertex -0.016017 0.21666 -0.029377
   vertex -0.016652 0.213872 -0.028106
  endloop
 endfacet
 facet normal 0.467426 -0.452641 -0.759361
  outer loop
   vertex -0.016017 0.21666 -0.029377
   vertex -0.014175 0.215321 -0.027445
   vertex -0.016652 0.213872 -0.028106
  endloop
 endfacet
 facet normal 0.508799 -0.579247 -0.636864
  outer loop
   vertex -0.016652 0.213872 -0.028106
   vertex -0.014175 0.215321 -0.027445
   vertex -0.014951 0.212933 -0.025893
  endloop
 endfacet
 facet normal 0.61533 -0.560308 -0.554459
  outer loop
   vertex -0.014175 0.215321 -0.027445
   vertex -0.013034 0.214493 -0.025342
   vertex -0.014951 0.212933 -0.025893
  endloop
 endfacet
endsolid ExportedfromBlender-3.5.1
